<svg width="375" height="649" viewBox="0 0 375 649" fill="none" xmlns="http://www.w3.org/2000/svg">
<g clip-path="url(#clip0)">
<path d="M1309.85 -1506.15H-1808.03V1610.26H1309.85V-1506.15Z" fill="#00003C"/>
<path d="M103.337 581.84C167.66 624.651 230.258 656.315 290.12 679.367C292.452 662.851 297.926 619.99 301.018 560.866C185.096 578.902 103.337 581.84 103.337 581.84Z" fill="#01014F"/>
<path d="M523.636 513.141C496.67 491.305 471.428 469.064 448.163 447.38C466.917 528.391 477.865 617.963 475.787 715.338C475.787 715.338 469.958 641.015 402.24 529.961C367.773 600.029 312.169 662.294 294.58 681.14C314.602 688.74 334.319 695.377 353.681 701.102C359.308 716.453 364.883 729.625 370.206 740.923C379.025 727.497 387.845 714.173 396.614 700.95C445.02 714.122 490.841 725.826 533.266 736.161C534.534 735.148 535.75 734.185 537.017 733.172C579.29 735.452 618.269 734.084 653.294 730.537C661.708 711.386 670.73 692.084 680.412 672.578C680.412 672.578 680.766 668.171 681.679 660.064C634.337 607.983 589.986 556.154 548.878 505.744C540.413 508.277 531.999 510.76 523.636 513.141Z" fill="#00004E"/>
<path d="M322.358 200.345C311.917 225.728 301.171 251.009 290.07 276.036C290.07 276.036 351.351 356.946 448.164 447.38C433.668 384.76 414.508 327.308 392.966 275.277C387.795 276.948 382.575 278.57 377.455 280.241C357.586 252.073 339.186 225.373 322.358 200.345Z" fill="#00004E"/>
<path d="M-93.076 562.74C-138.695 586.349 -190.092 609.046 -246.912 628.45C-141.381 699.632 -5.18423 765.039 159.043 789.762C159.043 789.762 81.7952 761.239 -34.8363 664.421C13.9249 642.383 52.2445 618.419 76.0168 602.004C52.802 593.898 29.4859 585.488 6.16971 576.824C-28.399 573.531 -61.5485 568.718 -93.076 562.74Z" fill="#000069"/>
<path d="M345.522 15.5258C447.251 -115.236 478.474 -248.379 486.584 -293.368C483.493 -293.166 480.35 -292.912 477.207 -292.71C445.122 -251.419 400.365 -221.072 349.07 -198.881C347.701 -226.594 345.826 -253.75 343.646 -279.74C332.394 -278.372 320.938 -276.903 309.331 -275.332C265.385 -212.408 226.711 -133.07 201.772 -33.0096C230.36 -1.09171 276.942 56.1071 323.675 135.902C332.444 103.376 340.402 63.5039 345.522 15.5258Z" fill="#01014F"/>
<path d="M43.6271 66.0879C42.512 67.9117 41.4474 69.685 40.3323 71.5089C55.8933 111.786 69.2747 155.407 79.9697 202.828C79.9697 202.828 101.715 198.978 135.624 197.356C142.315 193.506 148.904 189.554 155.392 185.552C162.691 136.003 172.322 85.7959 184.74 35.5379C174.704 10.6116 164.313 -15.936 153.618 -44.0034C95.5307 -46.7392 35.6185 -52.2107 -25.2062 -61.1274C-2.70107 -24.7512 17.8779 15.4753 35.8718 60.0589C38.4569 62.0855 41.0928 64.1627 43.6271 66.0879Z" fill="#00004E"/>
<path d="M-11.7226 -142.898C-25.9658 -128.408 -37.6745 -113.26 -48.775 -96.8957C-40.7157 -85.4458 -32.91 -73.4891 -25.2562 -61.1272C35.5685 -52.2105 95.4809 -46.739 153.569 -44.0031C164.264 -15.9356 174.705 10.612 184.691 35.5384C187.884 22.5179 191.229 9.49745 194.828 -3.52303C194.828 -3.52303 136.335 -60.4687 78.4501 -144.519C46.9733 -142.847 16.5609 -142.493 -11.7226 -142.898Z" fill="#00004E"/>
<path d="M-108.688 290.779C-108.688 290.779 -94.0394 373.158 -110.107 467.138C-54.6047 442.06 30.8033 405.278 138.21 364.342C139.933 327.814 142.721 290.526 146.827 252.731C131.772 240.876 116.009 228.919 99.586 216.912C39.7243 247.412 -29.2611 272.895 -108.688 290.779Z" fill="#00004E"/>
<path d="M239.788 201.663C208.362 197.407 178.761 196.343 153.772 196.799C151.136 215.544 148.804 234.188 146.828 252.731C206.841 300.152 255.856 346.459 296.051 390.282C293.364 355.122 291.286 317.175 290.019 276.036C290.019 276.036 284.545 265.043 274.965 244.575C263.408 227.704 251.801 213.771 239.788 201.663Z" fill="#00004E"/>
<path d="M309.533 181.245C314.246 168.124 319.062 153.026 323.674 135.851C276.941 56.0564 230.359 -1.14244 201.771 -33.0603C200.707 -28.7539 199.642 -24.4981 198.628 -20.1411C214.95 10.1049 228.889 41.6174 240.699 73.8899C258.693 103.021 281.705 139.398 309.533 181.245Z" fill="#00004E"/>
<path d="M-80.9121 896.054C-59.2686 883.54 -36.51 871.786 -12.6363 860.995C-12.6363 860.995 -25.815 872.445 -41.0212 902.792C42.5114 916.319 112.764 923.919 171.663 927.415C175.261 920.879 178.809 914.495 182.256 908.163C168.165 840.274 151.337 741.734 142.416 624.651C120.418 617.355 98.2674 609.756 76.0664 601.953C52.2434 618.368 13.9238 642.332 -34.7866 664.371C81.8448 761.188 159.092 789.712 159.092 789.712C-5.13458 764.988 -141.382 699.582 -246.862 628.4C-280.468 639.85 -315.949 650.134 -353.306 658.798C-372.465 679.266 -392.031 701.355 -411.342 724.812C-328.266 778.971 -241.388 832.776 -154.003 882.375C-128.66 887.391 -104.33 891.95 -80.9121 896.054Z" fill="#00004E"/>
<path d="M610.92 105.403C610.92 105.403 578.987 41.1112 565.099 -64.775C519.632 -58.2394 468.894 -52.3119 414.051 -48.1069C391.089 20.8965 365.847 91.3691 338.172 161.234C357.129 195.634 375.832 233.682 393.066 275.327C513.195 237.026 646.351 199.89 786.957 169.289C786.957 169.289 834.046 120.956 888.028 51.3958C887.369 49.4706 887.014 48.4067 887.014 48.4067C887.014 48.4067 787.312 -3.21922 686.749 -82.6085C652.129 -23.2819 624.758 40.0473 610.92 105.403Z" fill="#000069"/>
<path d="M-54.2494 -17.7596C-27.7906 19.7819 -0.774151 56.9687 26.7998 93.6995C28.3204 91.2677 29.841 88.7852 31.3616 86.252C13.621 61.9337 -3.86619 37.4126 -21.1506 12.7396C-31.7949 3.31626 -42.8447 -6.86699 -54.2494 -17.7596Z" fill="#0D3AFF"/>
<path d="M10.8813 40.1993C19.4982 52.5106 28.2163 64.8218 36.9852 77.0317C38.1003 75.1572 39.2155 73.384 40.3813 71.5094C39.0634 68.1656 37.7456 64.8218 36.4277 61.5287C35.9208 60.8194 35.4646 60.11 34.9577 59.4007C27.1519 53.3718 19.1434 46.9882 10.8813 40.1993Z" fill="#0D3AFF"/>
<path d="M21.6285 101.958C-18.82 49.0653 -57.9505 -4.84026 -96.1181 -59.4045C-101.44 -64.8762 -106.762 -70.4492 -112.237 -76.2755C-115.481 -76.9341 -118.725 -77.6434 -121.969 -78.3527C-76.9583 -14.821 -30.8329 47.9 17.2187 109.101C18.6886 106.771 20.1586 104.339 21.6285 101.958Z" fill="#0D3AFF"/>
<path d="M-142.953 -34.1746C-97.892 25.3547 -51.4117 83.9216 -3.10669 140.968C-1.68744 138.79 -0.217621 136.51 1.20163 134.281C-48.9281 73.5356 -96.9796 11.1184 -143.46 -52.2108C-207.376 44.0495 -267.34 140.715 -323.856 239.863C-318.939 235.455 -314.175 231.149 -309.41 226.843C-256.746 138.435 -201.446 51.9023 -142.953 -34.1746Z" fill="#0D3AFF"/>
<path d="M-143.915 -70.7027C-95.7116 -3.67509 -45.8861 62.3392 6.16974 126.53C7.58899 124.3 9.00821 122.021 10.4274 119.791C-41.4763 54.1318 -91.0485 -13.4024 -138.999 -81.8992C-141.939 -82.5578 -144.878 -83.2671 -147.818 -83.9257C-221.264 30.6747 -289.489 145.427 -352.088 264.587C-348.388 261.395 -344.688 258.204 -341.089 255.113C-279.909 144.008 -214.269 36.5009 -143.915 -70.7027Z" fill="#0D3AFF"/>
</g>
<defs>
<clipPath id="clip0">
<rect width="1984.2" height="649" fill="white" transform="translate(-1372)"/>
</clipPath>
</defs>
</svg>
