<svg width="375" height="527" viewBox="0 0 375 527" fill="none" xmlns="http://www.w3.org/2000/svg">
<g clip-path="url(#clip0)">
<mask id="mask0" mask-type="alpha" maskUnits="userSpaceOnUse" x="247" y="131" width="128" height="607">
<rect x="247" y="131.5" width="128" height="606.5" fill="url(#paint0_linear)"/>
</mask>
<g mask="url(#mask0)">
<path d="M322.75 183.5C332 191.25 376.25 223.25 376.25 223.25L380.25 225.5C381.333 359 382.85 626.95 380.25 630.75C377.65 634.55 357 661 347 673.75C346.917 657.75 346.05 616.75 343.25 580.75C339.75 535.75 327.5 490.75 325.75 489.25C324 487.75 304.75 481.5 290 477.75C278.2 474.75 262.75 471 256.5 469.5V375.75C261.75 372 274.55 362.8 283.75 356C292.95 349.2 300.917 341.667 303.75 338.75C303.75 307 299.5 280.5 293 250.25C286.5 220 273.417 167.083 266.25 140C266.25 140 313.5 175.75 322.75 183.5Z" fill="url(#paint1_linear)"/>
</g>
<path d="M322.75 183C332 190.75 376.25 222.75 376.25 222.75L380.25 225C381.333 358.5 382.85 626.45 380.25 630.25C377.65 634.05 357 660.5 347 673.25C346.917 657.25 346.05 616.25 343.25 580.25C339.75 535.25 327.5 490.25 325.75 488.75C324 487.25 304.75 481 290 477.25C278.2 474.25 262.75 470.5 256.5 469V375.25C261.75 371.5 274.55 362.3 283.75 355.5C292.95 348.7 300.917 341.167 303.75 338.25C303.75 306.5 299.5 280 293 249.75C286.5 219.5 273.417 166.583 266.25 139.5C266.25 139.5 313.5 175.25 322.75 183Z" stroke="url(#paint2_linear)"/>
</g>
<defs>
<linearGradient id="paint0_linear" x1="311" y1="412.5" x2="262.75" y2="418.749" gradientUnits="userSpaceOnUse">
<stop offset="0.0181068" stop-color="#C4C4C4"/>
<stop offset="1" stop-color="#C4C4C4" stop-opacity="0"/>
</linearGradient>
<linearGradient id="paint1_linear" x1="319" y1="119.75" x2="319" y2="695" gradientUnits="userSpaceOnUse">
<stop stop-color="#02277E" stop-opacity="0.5"/>
<stop offset="0.149226" stop-color="#02277E"/>
<stop offset="0.845152" stop-color="#02277E"/>
<stop offset="1" stop-color="#02277E" stop-opacity="0"/>
</linearGradient>
<linearGradient id="paint2_linear" x1="319.093" y1="139.5" x2="319.093" y2="673.25" gradientUnits="userSpaceOnUse">
<stop stop-color="#164798"/>
<stop offset="0.338542" stop-color="#184899" stop-opacity="0"/>
<stop offset="0.734375" stop-color="#174798" stop-opacity="0"/>
<stop offset="0.953125" stop-color="#563990"/>
</linearGradient>
<clipPath id="clip0">
<rect width="375" height="527" fill="white"/>
</clipPath>
</defs>
</svg>
