<svg width="375" height="387" viewBox="0 0 375 387" fill="none" xmlns="http://www.w3.org/2000/svg">
<g opacity="0.1">
<path fill-rule="evenodd" clip-rule="evenodd" d="M330.293 206.312C320.985 222.008 311.241 235.892 300.366 249.263C276.519 242.441 257.585 236.171 217.377 218.963C182.077 203.853 143.43 183.049 143.43 183.049C143.43 183.049 130.809 196.472 117.471 214.905C106.704 229.782 95.892 245.949 95.892 245.949C95.892 245.949 94.1247 219.337 94.0679 206.004C94.0286 192.105 94.3634 177.341 95.9051 162.345C82.1099 156.228 62.627 146.307 47.5114 137.575C56.0628 131.993 65.6914 126.31 74.202 121.987C82.7068 117.693 92.679 113.029 103.146 108.778C105.327 100.516 110.058 84.7335 115.574 71.2178C121.117 57.6337 127.164 47.5952 128.151 45.7736C129.275 46.9472 136.376 54.4244 142.769 63.7028C151.084 75.7769 160.672 93.2111 160.672 93.2111C160.672 93.2111 181.987 90.9279 202.703 90.3076C220.283 89.7819 237.134 90.8638 243.282 91.2453C239.045 94.3206 228.834 102.12 216.703 111.884C204.569 121.652 191.384 133.168 182.378 141.926C186.564 149.675 207.977 190.583 207.977 190.583C208.165 190.938 208.526 191.129 208.783 191.007C209.041 190.886 209.124 190.487 208.97 190.116L189.375 143.137C196.31 136.263 208.185 125.582 219.698 116.119C232.657 105.467 244.889 96.1539 250.702 91.7914C256.36 92.2588 275.677 93.9464 290.774 97.5576C306.242 101.259 310.912 102.74 321.781 107.028C331.9 123.465 340.514 143.304 348.086 169.513C345.323 176.719 339.602 190.617 330.293 206.312ZM374.833 136.842C374.327 136.104 371.05 131.373 368.087 128.34C365.125 125.308 362.555 122.933 359.181 121.314C359.063 127.487 358.159 133.923 356.95 139.904C354.438 152.356 350.766 162.416 349.797 164.894C344.186 143.508 334.883 121.498 324.608 103.724C315.364 99.7141 307.759 97.0727 292.17 93.3712C276.646 89.6872 260.887 87.918 256.537 87.4521C260.871 84.2588 265.234 81.1078 269.652 78.031C279.219 71.2455 289.008 64.7803 298.852 58.4011L300.541 57.3075L299.537 55.6199C297.437 52.2985 289.282 40.2345 277.656 29.1039C266.03 17.9734 256.382 12.7677 253.522 11.233C257.227 12.5348 281.243 20.1109 310.307 41.5581C339.964 63.4451 357.843 92.9155 359.769 95.8699C359.987 96.2077 360.363 96.3606 360.607 96.215C360.852 96.0679 360.893 95.6646 360.698 95.3137C359.124 92.4859 344.761 63.9824 312.55 39.24C280.34 14.4991 244.258 6.28218 238.718 4.89741C228.606 2.36668 224.726 2.17738 224.726 2.17738C224.726 2.17738 230.852 3.64224 238.243 6.22539C242.779 7.81111 247.193 9.74192 251.373 12.1037C254.407 13.8089 263.519 18.8718 275.295 30.8222C287.069 42.7725 293.217 53.1852 294.929 56.0028C285.538 61.9438 276.199 67.9721 267.055 74.2917C261.099 78.3353 255.235 82.51 249.415 86.7488C233.634 85.4849 216.592 84.9155 202.934 85.0859C189.894 85.2621 176.797 86.0003 163.865 87.0677C161.426 82.9148 154.979 72.1614 146.453 61.0192C139.199 51.5384 131.326 44.1224 129.923 42.8526C138.219 30.0912 147.866 18.6141 160.875 11.2286C172.658 4.53921 181.286 2.78895 193.563 1.05326C193.961 0.997925 194.263 0.735824 194.234 0.453337C194.207 0.169393 193.859 -0.0286389 193.458 0.0033957C186.684 0.545072 173.019 1.89198 159.47 9.48419C145.576 17.2715 135.731 28.271 127.193 40.4777C125.43 38.9954 123.629 37.5553 121.744 36.2171C118.624 34.0154 116.202 32.4312 111.823 30.4625C107.444 28.4953 103.062 27.8823 101.293 27.9274C100.891 27.9376 100.593 28.1953 100.625 28.4793C100.657 28.7618 101.011 28.9671 101.41 29.018C102.83 29.1986 107.161 30.1946 110.98 32.2259C114.8 34.2557 117.268 36.0365 120.133 38.3474C121.987 39.8486 123.747 41.4635 125.465 43.122C124.427 44.7339 117.659 55.5369 111.505 69.2375C105.511 82.5799 100.139 98.7676 98.332 104.548C89.8388 108.368 80.1156 113.375 72.0519 117.872C63.6097 122.61 53.0712 129.374 44.4354 135.791C38.2948 132.287 34.2739 129.761 32.2489 128.44C31.3375 127.846 30.8324 127.328 30.3782 126.512C29.8657 125.597 28.6865 121.885 29.1655 115.744C29.643 109.605 30.1001 106.76 30.9343 102.128C31.7801 97.4993 32.7599 92.6621 33.9478 88.1175L35.4924 82.5654L32.1411 87.4623C27.1041 94.823 22.4877 102.54 18.5149 110.551C14.5231 118.558 11.1223 126.855 8.3461 135.356C5.59609 143.862 3.44879 152.57 2.06287 161.401C0.669668 169.983 0.0276602 178.679 0 187.367C0 187.769 0.231472 188.096 0.515353 188.095C0.80069 188.095 1.03362 187.769 1.03944 187.367C1.15008 178.736 1.8707 170.112 3.33524 161.609C4.7954 152.861 7.00822 144.247 9.815 135.84C12.6494 127.443 16.0982 119.254 20.1264 111.363C23.2127 105.292 26.6586 99.4301 30.3942 93.7367C29.7245 96.3635 29.0971 98.9991 28.5366 101.659C27.5656 106.339 27.1084 109.128 26.4228 115.528C25.7254 122.015 26.8449 126.6 27.4666 127.807C28.1071 129.049 28.9267 130.074 30.2908 131.054C31.6549 132.034 37.4097 135.785 41.2355 138.237C36.1286 142.205 31.2036 146.409 26.6339 151C20.0027 157.704 13.9509 165.247 10.211 173.991C10.0523 174.361 10.1411 174.754 10.4031 174.866C10.6652 174.978 11.0117 174.774 11.1864 174.412C15.1942 166.027 21.4104 158.905 28.1828 152.603C33.1355 148.024 38.4651 143.867 43.9899 139.983C58.8085 149.358 74.1686 157.869 89.7981 165.81C88.8271 179.288 88.6058 192.645 88.8241 206.062C89.0789 220.126 90.1169 237.163 91.8551 252.101C78.5316 272.232 60.9922 303.227 60.9922 303.227C60.9922 303.227 45.9232 295.133 31.1497 277.824C18.6226 263.147 11.4615 249.521 5.31804 235.73C4.117 233.036 2.95527 230.335 1.79937 227.62C2.70051 232.661 3.40075 236.375 3.40075 236.375C6.85973 255.197 13.2347 273.422 21.936 290.466C30.6009 307.529 41.8746 323.31 55.3626 336.93C68.8098 350.605 84.729 361.776 101.902 370.197C110.511 374.377 119.466 377.799 128.585 380.623C137.497 383.293 146.579 385.358 155.746 386.807C156.143 386.87 156.506 386.692 156.554 386.411C156.603 386.13 156.324 385.839 155.929 385.76C146.764 383.908 137.695 381.55 128.846 378.594C119.997 375.638 111.364 372.084 103.069 367.84C86.2023 359.393 70.8057 348.134 57.5609 334.752C44.2621 321.395 33.3247 305.799 24.5564 289.113C20.1745 280.759 16.4243 272.076 13.191 263.207C11.1995 257.735 9.45105 252.168 7.94139 246.54C9.69854 250.171 14.8171 262.143 28.9122 279.574C43.2824 297.343 56.6947 304.874 62.3359 307.74C67.1429 299.912 82.0794 274.157 92.6733 258.96C94.0476 269.321 95.8324 279.631 98.0627 289.851C101.13 303.593 108.016 325.966 110.516 331.027C117.474 333.632 131.978 338.068 146.654 340.673C161.329 343.279 168.796 344.125 179.946 345.064C177.216 346.087 170.831 348.729 158.148 352.438C145.463 356.145 134.148 358.761 127.161 360.218C129.003 362.528 133.265 366.574 137.933 369.769C142.862 373.143 148.177 375.617 149.075 376.035C149.439 376.205 149.834 376.132 149.956 375.874C150.077 375.617 149.885 375.26 149.527 375.075C148.658 374.628 143.552 371.976 139.142 368.754C134.974 365.709 131.481 362.089 130.99 361.551C136.241 360.539 148.096 357.89 159.591 354.584C171.387 351.193 182.812 347.136 186.882 345.594C209.581 347.152 232.378 346.698 254.998 344.677C255.398 344.642 255.702 344.383 255.679 344.099C255.654 343.815 255.311 343.61 254.909 343.639C233.672 345.236 212.323 345.462 191.106 343.934C191.695 343.701 203.062 339.959 222.836 328.917C243.008 317.654 252.634 307.588 254.266 306.199C253.795 304.372 251.171 296.258 246.888 285.011C242.605 273.763 237.134 261.208 235.462 257.371C235.302 257.003 234.957 256.79 234.692 256.895C234.429 257.001 234.325 257.393 234.464 257.771C235.965 261.869 240.677 275.024 244.221 286.105C247.464 296.254 249.079 303.051 249.63 304.842C247.653 306.604 240.625 313.975 221.199 325.759C206.534 334.656 189.388 341.316 184.351 343.385C175.922 342.654 163.331 341.14 147.189 337.947C130.938 334.732 118.479 330.419 113.238 328.319C108.418 315.566 104.848 302.356 102.059 288.996C99.6407 277.131 97.8545 265.137 96.5923 253.083C97.5255 251.707 109.325 234.385 121.382 218.565C132.006 204.625 142.994 192.015 144.634 190.226C144.634 190.226 178.858 208.367 215.659 223.602C258.32 241.263 282.603 248.854 301.805 253.432C314.361 237.885 324.383 222.557 332.841 208.041C341.299 193.526 346.847 180.01 349.23 173.874C349.885 176.462 350.508 179.057 351.075 181.666C353.928 194.911 355.614 208.432 355.725 221.998C355.837 235.312 354.413 248.665 351.216 261.619C351.12 262.009 351.264 262.384 351.539 262.457C351.814 262.53 352.124 262.274 352.228 261.885C355.694 248.901 357.39 235.452 357.53 221.999C357.677 208.295 356.233 194.593 353.601 181.145C352.819 177.181 351.924 173.241 350.944 169.322C351.912 166.664 356.38 154.675 359.114 140.331C360.069 135.322 360.82 129.956 361.102 124.726C363.018 125.942 363.943 126.645 366.751 129.265C369.56 131.886 373.363 136.672 373.96 137.458C374.204 137.777 374.587 137.905 374.82 137.741C375.055 137.578 375.061 137.174 374.833 136.842Z" fill="url(#paint0_linear)"/>
</g>
<defs>
<linearGradient id="paint0_linear" x1="92.6847" y1="-225.324" x2="532.982" y2="-86.5008" gradientUnits="userSpaceOnUse">
<stop stop-color="#58EDDF"/>
<stop offset="0.497279" stop-color="#215CDE"/>
<stop offset="1" stop-color="#8D18CC"/>
</linearGradient>
</defs>
</svg>
