<svg width="330" height="387" viewBox="0 0 330 387" fill="none" xmlns="http://www.w3.org/2000/svg">
<path opacity="0.5" fill-rule="evenodd" clip-rule="evenodd" d="M310.293 206.312C300.985 222.008 291.241 235.892 280.366 249.263C256.519 242.441 237.585 236.171 197.377 218.963C162.077 203.853 123.43 183.049 123.43 183.049C123.43 183.049 110.809 196.472 97.4713 214.905C86.7042 229.782 75.892 245.949 75.892 245.949C75.892 245.949 74.1247 219.337 74.0679 206.004C74.0286 192.105 74.3634 177.341 75.9051 162.345C62.1099 156.228 42.627 146.307 27.5114 137.575C36.0628 131.993 45.6914 126.31 54.202 121.987C62.7068 117.693 72.679 113.029 83.1462 108.778C85.327 100.516 90.0584 84.7335 95.5744 71.2178C101.117 57.6337 107.164 47.5952 108.151 45.7736C109.275 46.9472 116.376 54.4244 122.769 63.7028C131.084 75.7769 140.672 93.2111 140.672 93.2111C140.672 93.2111 161.987 90.9279 182.703 90.3076C200.283 89.7819 217.134 90.8638 223.282 91.2453C219.045 94.3206 208.834 102.12 196.703 111.884C184.569 121.652 171.384 133.168 162.378 141.926C166.564 149.675 187.977 190.583 187.977 190.583C188.165 190.938 188.526 191.129 188.783 191.007C189.041 190.886 189.124 190.487 188.97 190.116L169.375 143.137C176.31 136.263 188.185 125.582 199.698 116.119C212.657 105.467 224.889 96.1539 230.702 91.7914C236.36 92.2588 255.677 93.9464 270.774 97.5576C286.242 101.259 290.912 102.74 301.781 107.028C311.9 123.465 320.514 143.304 328.086 169.513C325.323 176.719 319.602 190.617 310.293 206.312ZM354.833 136.842C354.327 136.104 351.05 131.373 348.087 128.34C345.125 125.308 342.555 122.933 339.181 121.314C339.063 127.487 338.159 133.923 336.95 139.904C334.438 152.356 330.766 162.416 329.797 164.894C324.186 143.508 314.883 121.498 304.608 103.724C295.364 99.7141 287.759 97.0727 272.17 93.3712C256.646 89.6872 240.887 87.918 236.537 87.4521C240.871 84.2588 245.234 81.1078 249.652 78.031C259.219 71.2455 269.008 64.7803 278.852 58.4011L280.541 57.3075L279.537 55.6199C277.437 52.2985 269.282 40.2345 257.656 29.1039C246.03 17.9734 236.382 12.7677 233.522 11.233C237.227 12.5348 261.243 20.1109 290.307 41.5581C319.964 63.4451 337.843 92.9155 339.769 95.8699C339.987 96.2077 340.363 96.3606 340.607 96.215C340.852 96.0679 340.893 95.6646 340.698 95.3137C339.124 92.4859 324.761 63.9824 292.55 39.24C260.34 14.4991 224.258 6.28218 218.718 4.89741C208.606 2.36668 204.726 2.17738 204.726 2.17738C204.726 2.17738 210.852 3.64224 218.243 6.22539C222.779 7.81111 227.193 9.74192 231.373 12.1037C234.407 13.8089 243.519 18.8718 255.295 30.8222C267.069 42.7725 273.217 53.1852 274.929 56.0028C265.538 61.9438 256.199 67.9721 247.055 74.2917C241.099 78.3353 235.235 82.51 229.415 86.7488C213.634 85.4849 196.592 84.9155 182.934 85.0859C169.894 85.2621 156.797 86.0003 143.865 87.0677C141.426 82.9148 134.979 72.1614 126.453 61.0192C119.199 51.5384 111.326 44.1224 109.923 42.8526C118.219 30.0912 127.866 18.6141 140.875 11.2286C152.658 4.53921 161.286 2.78895 173.563 1.05326C173.961 0.997925 174.263 0.735824 174.234 0.453337C174.207 0.169393 173.859 -0.0286389 173.458 0.0033957C166.684 0.545072 153.019 1.89198 139.47 9.48419C125.576 17.2715 115.731 28.271 107.193 40.4777C105.43 38.9954 103.629 37.5553 101.744 36.2171C98.6244 34.0154 96.2019 32.4312 91.8229 30.4625C87.4438 28.4953 83.0619 27.8823 81.2931 27.9274C80.8913 27.9376 80.5928 28.1953 80.6249 28.4793C80.6569 28.7618 81.0106 28.9671 81.4095 29.018C82.8304 29.1986 87.1614 30.1946 90.98 32.2259C94.8 34.2557 97.2676 36.0365 100.133 38.3474C101.987 39.8486 103.747 41.4635 105.465 43.122C104.427 44.7339 97.6592 55.5369 91.5055 69.2375C85.5105 82.5799 80.1386 98.7676 78.332 104.548C69.8388 108.368 60.1156 113.375 52.0519 117.872C43.6097 122.61 33.0712 129.374 24.4354 135.791C18.2948 132.287 14.2739 129.761 12.2489 128.44C11.3375 127.846 10.8324 127.328 10.3782 126.512C9.86572 125.597 8.68653 121.885 9.16549 115.744C9.64299 109.605 10.1001 106.76 10.9343 102.128C11.7801 97.4993 12.7599 92.6621 13.9478 88.1175L15.4924 82.5654L12.1411 87.4623C7.10407 94.823 2.48774 102.54 -1.48514 110.551C-5.47694 118.558 -8.87769 126.855 -11.6539 135.356C-14.4039 143.862 -16.5512 152.57 -17.9371 161.401C-19.3303 169.983 -19.9723 178.679 -20 187.367C-20 187.769 -19.7685 188.096 -19.4846 188.095C-19.1993 188.095 -18.9664 187.769 -18.9606 187.367C-18.8499 178.736 -18.1293 170.112 -16.6648 161.609C-15.2046 152.861 -12.9918 144.247 -10.185 135.84C-7.35056 127.443 -3.90177 119.254 0.126427 111.363C3.21272 105.292 6.6586 99.4301 10.3942 93.7367C9.72451 96.3635 9.09706 98.9991 8.53658 101.659C7.56556 106.339 7.10844 109.128 6.42276 115.528C5.72543 122.015 6.84494 126.6 7.46657 127.807C8.10712 129.049 8.92673 130.074 10.2908 131.054C11.6549 132.034 17.4097 135.785 21.2355 138.237C16.1286 142.205 11.2036 146.409 6.63385 151C0.00268364 157.704 -6.04907 165.247 -9.78902 173.991C-9.9477 174.361 -9.8589 174.754 -9.59686 174.866C-9.33481 174.978 -8.98833 174.774 -8.81364 174.412C-4.80582 166.027 1.41044 158.905 8.18282 152.603C13.1355 148.024 18.4651 143.867 23.9899 139.983C38.8085 149.358 54.1686 157.869 69.7981 165.81C68.8271 179.288 68.6058 192.645 68.8241 206.062C69.0789 220.126 70.1169 237.163 71.8551 252.101C58.5316 272.232 40.9922 303.227 40.9922 303.227C40.9922 303.227 25.9232 295.133 11.1497 277.824C-1.37741 263.147 -8.53849 249.521 -14.682 235.73C-15.883 233.036 -17.0447 230.335 -18.2006 227.62C-17.2995 232.661 -16.5993 236.375 -16.5993 236.375C-13.1403 255.197 -6.76533 273.422 1.93599 290.466C10.6009 307.529 21.8746 323.31 35.3626 336.93C48.8098 350.605 64.729 361.776 81.9016 370.197C90.5112 374.377 99.4658 377.799 108.585 380.623C117.497 383.293 126.579 385.358 135.746 386.807C136.143 386.87 136.506 386.692 136.554 386.411C136.603 386.13 136.324 385.839 135.929 385.76C126.764 383.908 117.695 381.55 108.846 378.594C99.9972 375.638 91.3643 372.084 83.0691 367.84C66.2023 359.393 50.8057 348.134 37.5609 334.752C24.2621 321.395 13.3247 305.799 4.55642 289.113C0.174467 280.759 -3.57567 272.076 -6.809 263.207C-8.80054 257.735 -10.549 252.168 -12.0586 246.54C-10.3015 250.171 -5.18287 262.143 8.91218 279.574C23.2824 297.343 36.6947 304.874 42.3359 307.74C47.1429 299.912 62.0794 274.157 72.6733 258.96C74.0476 269.321 75.8324 279.631 78.0627 289.851C81.13 303.593 88.0159 325.966 90.5156 331.027C97.4743 333.632 111.978 338.068 126.654 340.673C141.329 343.279 148.796 344.125 159.946 345.064C157.216 346.087 150.831 348.729 138.148 352.438C125.463 356.145 114.148 358.761 107.161 360.218C109.003 362.528 113.265 366.574 117.933 369.769C122.862 373.143 128.177 375.617 129.075 376.035C129.439 376.205 129.834 376.132 129.956 375.874C130.077 375.617 129.885 375.26 129.527 375.075C128.658 374.628 123.552 371.976 119.142 368.754C114.974 365.709 111.481 362.089 110.99 361.551C116.241 360.539 128.096 357.89 139.591 354.584C151.387 351.193 162.812 347.136 166.882 345.594C189.581 347.152 212.378 346.698 234.998 344.677C235.398 344.642 235.702 344.383 235.679 344.099C235.654 343.815 235.311 343.61 234.909 343.639C213.672 345.236 192.323 345.462 171.106 343.934C171.695 343.701 183.062 339.959 202.836 328.917C223.008 317.654 232.634 307.588 234.266 306.199C233.795 304.372 231.171 296.258 226.888 285.011C222.605 273.763 217.134 261.208 215.462 257.371C215.302 257.003 214.957 256.79 214.692 256.895C214.429 257.001 214.325 257.393 214.464 257.771C215.965 261.869 220.677 275.024 224.221 286.105C227.464 296.254 229.079 303.051 229.63 304.842C227.653 306.604 220.625 313.975 201.199 325.759C186.534 334.656 169.388 341.316 164.351 343.385C155.922 342.654 143.331 341.14 127.189 337.947C110.938 334.732 98.4788 330.419 93.2379 328.319C88.4177 315.566 84.8481 302.356 82.0588 288.996C79.6407 277.131 77.8545 265.137 76.5923 253.083C77.5255 251.707 89.3247 234.385 101.382 218.565C112.006 204.625 122.994 192.015 124.634 190.226C124.634 190.226 158.858 208.367 195.659 223.602C238.32 241.263 262.603 248.854 281.805 253.432C294.361 237.885 304.383 222.557 312.841 208.041C321.299 193.526 326.847 180.01 329.23 173.874C329.885 176.462 330.508 179.057 331.075 181.666C333.928 194.911 335.614 208.432 335.725 221.998C335.837 235.312 334.413 248.665 331.216 261.619C331.12 262.009 331.264 262.384 331.539 262.457C331.814 262.53 332.124 262.274 332.228 261.885C335.694 248.901 337.39 235.452 337.53 221.999C337.677 208.295 336.233 194.593 333.601 181.145C332.819 177.181 331.924 173.241 330.944 169.322C331.912 166.664 336.38 154.675 339.114 140.331C340.069 135.322 340.82 129.956 341.102 124.726C343.018 125.942 343.943 126.645 346.751 129.265C349.56 131.886 353.363 136.672 353.96 137.458C354.204 137.777 354.587 137.905 354.82 137.741C355.055 137.578 355.061 137.174 354.833 136.842Z" fill="url(#paint0_linear)" fill-opacity="0.15"/>
<defs>
<linearGradient id="paint0_linear" x1="-20" y1="386.819" x2="355" y2="386.819" gradientUnits="userSpaceOnUse">
<stop stop-color="#818181" stop-opacity="0.01"/>
<stop offset="1" stop-color="#6E6E6E"/>
</linearGradient>
</defs>
</svg>
