<svg width="25" height="15" viewBox="0 0 25 15" fill="none" xmlns="http://www.w3.org/2000/svg">
<path d="M15.721 1.604H9.02898V13.3957H15.721V1.604Z" fill="#FF5F00"/>
<path d="M9.45387 7.5C9.45387 5.10417 10.6011 2.97917 12.3644 1.60417C11.0685 0.604169 9.43262 0 7.64807 0C3.42039 0 0 3.35417 0 7.5C0 11.6458 3.42039 15 7.64807 15C9.43262 15 11.0685 14.3958 12.3644 13.3958C10.6011 12.0417 9.45387 9.89584 9.45387 7.5Z" fill="#EB001B"/>
<path d="M24.75 7.5C24.75 11.6458 21.3296 15 17.1019 15C15.3174 15 13.6816 14.3958 12.3856 13.3958C14.1702 12.0208 15.2962 9.89584 15.2962 7.5C15.2962 5.10417 14.1489 2.97917 12.3856 1.60417C13.6816 0.604169 15.3174 0 17.1019 0C21.3296 0 24.75 3.375 24.75 7.5Z" fill="#F79E1B"/>
</svg>
