<svg width="36" height="36" viewBox="0 0 36 36" fill="none" xmlns="http://www.w3.org/2000/svg">
<path d="M18 33C26.2843 33 33 26.2843 33 18C33 9.71573 26.2843 3 18 3C9.71573 3 3 9.71573 3 18C3 26.2843 9.71573 33 18 33Z" fill="#C4CDEE" stroke="#B5C1EB"/>
<path fill-rule="evenodd" clip-rule="evenodd" d="M11.2818 13.5631C12.0631 12.8392 13.0841 12.4771 14.3448 12.4771C14.845 12.4771 15.3138 12.5422 15.7513 12.6724C16.1889 12.8027 16.5743 13.0033 16.9078 13.274C17.2411 13.5451 17.5041 13.8888 17.6971 14.3054C17.8897 14.7223 17.9862 15.2119 17.9862 15.7745C17.9862 16.3058 17.8714 16.7825 17.6422 17.2043C17.413 17.6264 17.1161 18.0068 16.7515 18.3453C16.3867 18.684 15.9726 18.9937 15.5091 19.2751C15.0454 19.5565 14.5844 19.8298 14.1261 20.0955C13.6675 20.3611 13.2299 20.6245 12.8133 20.8847C12.3966 21.1453 12.0476 21.4266 11.7663 21.7287H17.1578L16.7202 23.6352H8.625C8.66682 22.9581 8.81798 22.3694 9.07819 21.8693C9.33859 21.3692 9.67213 20.9292 10.0784 20.5487C10.4848 20.1686 10.9432 19.8275 11.4538 19.5251C11.964 19.223 12.4851 18.9313 13.0165 18.65C13.2872 18.4937 13.5815 18.3324 13.8994 18.1655C14.217 17.9989 14.514 17.8088 14.7902 17.5951C15.0662 17.3817 15.2981 17.1395 15.4856 16.8684C15.6732 16.5976 15.767 16.2799 15.767 15.9152C15.767 15.363 15.6028 14.9696 15.2747 14.7352C14.9466 14.5007 14.5479 14.3836 14.0791 14.3836C13.7768 14.3836 13.5034 14.4437 13.2588 14.5634C13.0138 14.6832 12.8055 14.8473 12.6336 15.0556C12.4616 15.2642 12.3262 15.5036 12.2273 15.7745C12.1282 16.0455 12.0734 16.332 12.0631 16.634H9.95345C10.0574 15.311 10.5004 14.2874 11.2818 13.5631Z" fill="#93A5DC"/>
<path fill-rule="evenodd" clip-rule="evenodd" d="M17.5772 12.4771H20.2496L21.828 16.1652L24.6879 12.4771H27.5946L22.9532 17.8686L25.7192 23.6353H23.0156L21.2654 19.6502L18.0773 23.6353H15.1237L20.187 17.7592L17.5772 12.4771Z" fill="#93A5DC"/>
</svg>
