<svg width="36" height="36" viewBox="0 0 36 36" fill="none" xmlns="http://www.w3.org/2000/svg">
<circle opacity="0.5" cx="18" cy="18" r="17.5" stroke="#C54BB1"/>
<path d="M18 33C26.2843 33 33 26.2843 33 18C33 9.71573 26.2843 3 18 3C9.71573 3 3 9.71573 3 18C3 26.2843 9.71573 33 18 33Z" fill="#A3238E"/>
<path d="M18 30C24.6274 30 30 24.6274 30 18C30 11.3726 24.6274 6 18 6C11.3726 6 6 11.3726 6 18C6 24.6274 11.3726 30 18 30Z" fill="#C54BB1"/>
<path fill-rule="evenodd" clip-rule="evenodd" d="M11.521 14.0306C12.2624 13.3436 13.2313 13 14.4275 13C14.9021 13 15.347 13.0618 15.7622 13.1853C16.1774 13.309 16.5431 13.4993 16.8596 13.7562C17.1759 14.0135 17.4254 14.3396 17.6085 14.7349C17.7912 15.1305 17.8828 15.5951 17.8828 16.129C17.8828 16.6331 17.7739 17.0854 17.5564 17.4857C17.3389 17.8862 17.0572 18.2472 16.7113 18.5684C16.3651 18.8897 15.9721 19.1837 15.5323 19.4507C15.0923 19.7177 14.6548 19.977 14.22 20.2292C13.7848 20.4812 13.3696 20.7311 12.9743 20.978C12.5788 21.2253 12.2477 21.4923 11.9808 21.7788H17.0968L16.6816 23.588H9C9.03968 22.9454 9.18312 22.3869 9.43003 21.9123C9.67713 21.4378 9.99362 21.0202 10.3791 20.6592C10.7647 20.2985 11.1997 19.9748 11.6842 19.6879C12.1683 19.4013 12.6628 19.1244 13.1671 18.8575C13.424 18.7092 13.7032 18.5561 14.0049 18.3978C14.3063 18.2397 14.588 18.0593 14.8501 17.8565C15.1121 17.654 15.3321 17.4242 15.51 17.1669C15.688 16.91 15.7771 16.6085 15.7771 16.2624C15.7771 15.7385 15.6213 15.3652 15.3099 15.1428C14.9985 14.9203 14.6203 14.8092 14.1754 14.8092C13.8886 14.8092 13.6291 14.8662 13.397 14.9797C13.1645 15.0934 12.9668 15.2492 12.8038 15.4468C12.6406 15.6447 12.512 15.8719 12.4183 16.129C12.3242 16.3861 12.2722 16.658 12.2624 16.9445H10.2606C10.3592 15.6892 10.7795 14.7179 11.521 14.0306Z" fill="white"/>
<path fill-rule="evenodd" clip-rule="evenodd" d="M17.4941 13H20.03L21.5278 16.4997L24.2415 13H26.9997L22.5954 18.116L25.2201 23.5881H22.6547L20.9939 19.8066L17.9687 23.5881H15.166L19.9707 18.0123L17.4941 13Z" fill="#F2B4E7"/>
</svg>
