<svg width="36" height="36" viewBox="0 0 36 36" fill="none" xmlns="http://www.w3.org/2000/svg">
<path d="M18 33C26.2843 33 33 26.2843 33 18C33 9.71573 26.2843 3 18 3C9.71573 3 3 9.71573 3 18C3 26.2843 9.71573 33 18 33Z" fill="#C4CDEE" stroke="#B5C1EB"/>
<path fill-rule="evenodd" clip-rule="evenodd" d="M13.5425 16.9342C13.7777 16.9342 14.0157 16.9138 14.2562 16.8728C14.4965 16.8319 14.7168 16.7576 14.9163 16.6502C15.1159 16.5428 15.2795 16.3969 15.4075 16.2127C15.5354 16.0285 15.5994 15.7931 15.5994 15.5066C15.5994 15.2712 15.5584 15.0716 15.4766 14.9078C15.3945 14.7443 15.2871 14.6062 15.1542 14.4934C15.0212 14.3809 14.865 14.2991 14.686 14.2479C14.5069 14.1968 14.32 14.171 14.1257 14.171C13.5117 14.171 13.0485 14.3245 12.7365 14.6316C12.4242 14.9386 12.2016 15.3992 12.0687 16.0131H9.99639C10.16 14.8365 10.6079 13.9357 11.3396 13.3114C12.0711 12.6873 13.0102 12.375 14.1564 12.375C14.5862 12.375 15.0135 12.4236 15.4383 12.5209C15.8628 12.6183 16.2414 12.7768 16.5742 12.9967C16.9066 13.2169 17.1779 13.5059 17.3878 13.8639C17.5974 14.2224 17.7025 14.6623 17.7025 15.1842C17.7025 15.8289 17.5129 16.3715 17.1345 16.8113C16.7557 17.2515 16.2696 17.5328 15.6761 17.6556V17.6863C16.2288 17.8605 16.6175 18.1315 16.8428 18.4999C17.0679 18.8684 17.1806 19.3289 17.1806 19.8815C17.1806 20.5161 17.0628 21.0635 16.8274 21.5241C16.592 21.9845 16.2722 22.3633 15.8681 22.6599C15.4636 22.9569 14.9954 23.1769 14.4634 23.32C13.9312 23.4633 13.3632 23.535 12.7596 23.535C11.4394 23.535 10.4646 23.2102 9.83528 22.5601C9.20588 21.9104 8.93215 20.9406 9.01401 19.6512H11.0709C10.9992 20.296 11.1117 20.8078 11.4087 21.1862C11.7053 21.565 12.1761 21.7542 12.821 21.7542C13.4043 21.7542 13.8954 21.5854 14.2946 21.2477C14.6936 20.91 14.8932 20.4291 14.8932 19.8047C14.8932 19.3341 14.7475 18.9938 14.4558 18.7839C14.1641 18.5742 13.8034 18.4692 13.3735 18.4692H12.5906L12.8823 16.9342H13.5425Z" fill="#93A5DC"/>
<path fill-rule="evenodd" clip-rule="evenodd" d="M20.0296 12.3842H17.4246L20.4303 18.0951L16.7233 23.5054H19.3282L23.0353 18.0951L20.0296 12.3842Z" fill="#93A5DC"/>
<path fill-rule="evenodd" clip-rule="evenodd" d="M24.2373 12.3842H21.6324L24.6381 18.0951L20.931 23.5054H23.536L27.2431 18.0951L24.2373 12.3842Z" fill="#93A5DC"/>
</svg>
