<svg width="36" height="36" viewBox="0 0 36 36" fill="none" xmlns="http://www.w3.org/2000/svg">
<path d="M18 3C26.2843 3 33 9.71573 33 18C33 26.2843 26.2843 33 18 33C9.71573 33 3 26.2843 3 18C3 9.71573 9.71573 3 18 3ZM18 4.5625C10.5787 4.5625 4.5625 10.5787 4.5625 18C4.5625 25.4213 10.5787 31.4375 18 31.4375C25.4213 31.4375 31.4375 25.4213 31.4375 18C31.4375 10.5787 25.4213 4.5625 18 4.5625Z" fill="#19398A"/>
<path d="M21.889 12.1667H14.1112V16.0556H21.889V12.1667Z" fill="#19398A"/>
<path fill-rule="evenodd" clip-rule="evenodd" d="M14.1112 14.1112H21.889V16.0557H14.1112V14.1112Z" fill="#4062B7"/>
<path fill-rule="evenodd" clip-rule="evenodd" d="M15.4074 10.2222V17.9999L10.2222 14.1111L15.4074 10.2222Z" fill="#19398A"/>
<path fill-rule="evenodd" clip-rule="evenodd" d="M15.4074 14.1112V18.0001L10.2222 14.1112H15.4074Z" fill="#4062B7"/>
<path d="M14.111 19.9445H21.8888V23.8333H14.111V19.9445Z" fill="#19398A"/>
<path fill-rule="evenodd" clip-rule="evenodd" d="M21.8888 21.8889H14.111V23.8334H21.8888V21.8889Z" fill="#4062B7"/>
<path fill-rule="evenodd" clip-rule="evenodd" d="M20.5925 18V25.7778L25.7777 21.8889L20.5925 18Z" fill="#19398A"/>
<path fill-rule="evenodd" clip-rule="evenodd" d="M20.5925 21.8889V25.7778L25.7777 21.8889H20.5925Z" fill="#4062B7"/>
</svg>
