<svg width="36" height="36" viewBox="0 0 36 36" fill="none" xmlns="http://www.w3.org/2000/svg">
<path d="M18 33C26.2843 33 33 26.2843 33 18C33 9.71573 26.2843 3 18 3C9.71573 3 3 9.71573 3 18C3 26.2843 9.71573 33 18 33Z" fill="#C4CDEE"/>
<path d="M22.4999 11.25H13.4999V15.75H22.4999V11.25Z" fill="#93A5DC"/>
<path fill-rule="evenodd" clip-rule="evenodd" d="M13.4999 13.5H22.4999V15.75H13.4999V13.5Z" fill="#93A5DC"/>
<path fill-rule="evenodd" clip-rule="evenodd" d="M14.9999 9V18L8.99988 13.5L14.9999 9Z" fill="#93A5DC"/>
<path fill-rule="evenodd" clip-rule="evenodd" d="M14.9999 13.5V18L8.99988 13.5H14.9999Z" fill="#93A5DC"/>
<path d="M13.4999 20.25H22.4999V24.75H13.4999V20.25Z" fill="#93A5DC"/>
<path fill-rule="evenodd" clip-rule="evenodd" d="M22.4999 22.5H13.4999V24.75H22.4999V22.5Z" fill="#93A5DC"/>
<path fill-rule="evenodd" clip-rule="evenodd" d="M20.9999 18V27L26.9999 22.5L20.9999 18Z" fill="#93A5DC"/>
<path fill-rule="evenodd" clip-rule="evenodd" d="M20.9999 22.5V27L26.9999 22.5H20.9999Z" fill="#93A5DC"/>
</svg>
