<?xml version="1.0" standalone="no"?>
<!DOCTYPE svg PUBLIC "-//W3C//DTD SVG 1.1//EN" "http://www.w3.org/Graphics/SVG/1.1/DTD/svg11.dtd" >
<svg xmlns="http://www.w3.org/2000/svg" xmlns:xlink="http://www.w3.org/1999/xlink" version="1.1">
<metadata>
Created by FontForge 20190801 at Mon Sep 18 11:15:53 2017
 By www-data
Copyright (c) 2017 by Kostas Bartsokas. All rights reserved.
</metadata>
<defs>
<font id="CWCBoldItalic" horiz-adv-x="0" >
  <font-face 
    font-family="CWCBoldItalic"
    font-weight="800"
    font-style="italic"
    font-stretch="normal"
    units-per-em="1000"
    panose-1="0 0 9 0 0 0 0 0 0 0"
    ascent="800"
    descent="-200"
    x-height="489"
    cap-height="710"
    bbox="-740 -389 1273 1062"
    underline-thickness="58"
    underline-position="-97"
    slope="-7"
    unicode-range="U+000D-1F10C"
  />
<missing-glyph horiz-adv-x="396" 
 />
    <glyph glyph-name=".notdef" horiz-adv-x="396" 
 />
    <glyph glyph-name=".null" 
 />
    <glyph glyph-name="nonmarkingreturn" horiz-adv-x="333" 
 />
    <glyph glyph-name="CR" unicode="&#xd;" 
 />
    <glyph glyph-name="space" unicode=" " horiz-adv-x="178" 
 />
    <glyph glyph-name="exclam" unicode="!" horiz-adv-x="292" 
d="M102 242l35 494h159l-87 -494h-107zM135 -11q-39 0 -62.5 24.5t-23.5 62.5q0 39 24.5 63.5t64.5 24.5t63.5 -24t23.5 -61q0 -40 -24.5 -65t-65.5 -25z" />
    <glyph glyph-name="quotedbl" unicode="&#x22;" horiz-adv-x="424" 
d="M54 443l59 267h149l-96 -267h-112zM251 443l59 267h150l-97 -267h-112z" />
    <glyph glyph-name="numbersign" unicode="#" horiz-adv-x="590" 
d="M53 -47l48 182h-86l14 109h102l34 131h-96l13 110h113l43 171h102l-44 -171h106l44 171h101l-44 -171h91l-14 -110h-107l-33 -131h100l-15 -109h-116l-47 -182h-101l47 182h-105l-48 -182h-102zM232 244h107l32 131h-105z" />
    <glyph glyph-name="dollar" unicode="$" horiz-adv-x="525" 
d="M306 407q10 -6 45 -26.5t45.5 -27.5t34 -25.5t31.5 -33t16 -37.5t8 -49q0 -91 -55 -147t-147 -66l-15 -112h-98l14 114q-119 17 -176 95l99 116q23 -36 64 -55.5t79 -19.5q35 0 54.5 15.5t19.5 38.5q0 13 -9 24t-19.5 18t-42.5 26l-15 9q-82 48 -108 73q-54 52 -54 126
q0 82 52 137t134 67l14 115h99l-15 -116q112 -18 164 -88l-104 -101q-43 54 -122 54q-27 0 -44 -14t-17 -37q1 -18 15.5 -34t52.5 -39z" />
    <glyph glyph-name="percent" unicode="%" horiz-adv-x="883" 
d="M221 329q-73 0 -120 44t-47 116q0 86 60 147.5t150 61.5q72 0 119 -44.5t47 -115.5q0 -85 -60.5 -147t-148.5 -62zM224 0l-86 68l549 624l83 -68zM233 430q38 0 63.5 28t25.5 67q0 31 -20 51t-51 20q-36 0 -61.5 -28.5t-25.5 -67.5q0 -30 20 -50t49 -20zM642 -9
q-72 0 -119.5 43.5t-47.5 115.5q0 86 60.5 147.5t149.5 61.5q72 0 119.5 -44t47.5 -116q0 -84 -61 -146t-149 -62zM654 92q38 0 64 28t26 66q0 31 -20 51t-51 20q-36 0 -61.5 -28.5t-25.5 -67.5q0 -31 19 -50t49 -19z" />
    <glyph glyph-name="ampersand" unicode="&#x26;" horiz-adv-x="719" 
d="M233 -9q-97 0 -154 51.5t-57 137.5q0 69 36.5 129t101.5 90q-44 44 -44 111q0 90 63.5 149.5t164.5 59.5q120 0 179 -80l-107 -92q-26 46 -73 46q-33 0 -55.5 -23t-22.5 -56q0 -27 15.5 -42t40.5 -15h406l-16 -134h-142q-24 -153 -111.5 -242.5t-224.5 -89.5zM249 125
q66 0 116 58.5t67 139.5h-130q-56 0 -93.5 -39.5t-37.5 -87.5q0 -34 21 -52.5t57 -18.5z" />
    <glyph glyph-name="quotesingle" unicode="'" horiz-adv-x="227" 
d="M54 443l59 267h149l-96 -267h-112z" />
    <glyph glyph-name="parenleft" unicode="(" horiz-adv-x="301" 
d="M109 -163q-65 136 -65 320q0 160 47 317.5t134 273.5l99 -44q-69 -112 -107.5 -251.5t-38.5 -276.5q0 -153 48 -285z" />
    <glyph glyph-name="parenright" unicode=")" horiz-adv-x="301" 
d="M90 -158l-100 43q70 115 107.5 253.5t37.5 275.5q0 158 -47 285l116 53q66 -128 66 -319q0 -161 -46 -316.5t-134 -274.5z" />
    <glyph glyph-name="asterisk" unicode="*" horiz-adv-x="366" 
d="M156 380l17 97l-73 -52l-37 76l77 43l-67 45l53 76l63 -52l8 97h86l-16 -97l74 51l36 -75l-78 -44l68 -44l-53 -76l-61 52l-10 -97h-87z" />
    <glyph glyph-name="plus" unicode="+" horiz-adv-x="531" 
d="M176 40l21 174h-151l16 126h151l22 176h128l-22 -176h152l-16 -126h-152l-21 -174h-128z" />
    <glyph glyph-name="comma" unicode="," horiz-adv-x="238" 
d="M-27 -133l59 267h148l-101 -267h-106z" />
    <glyph glyph-name="hyphen" unicode="-" horiz-adv-x="359" 
d="M40 240l17 137h277l-17 -137h-277z" />
    <glyph glyph-name="period" unicode="." horiz-adv-x="267" 
d="M111 -11q-39 0 -62.5 24.5t-23.5 62.5q0 39 24.5 63.5t64.5 24.5t63.5 -24t23.5 -61q0 -40 -24.5 -65t-65.5 -25z" />
    <glyph glyph-name="slash" unicode="/" horiz-adv-x="395" 
d="M26 -111l-102 49l447 854l99 -50z" />
    <glyph glyph-name="zero" unicode="0" horiz-adv-x="576" 
d="M262 -9q-103 0 -158.5 69.5t-55.5 201.5q0 114 31 210t99 159.5t162 63.5q102 0 157.5 -70t55.5 -201q0 -114 -31.5 -210t-99.5 -159.5t-160 -63.5zM270 137q33 0 58 29t38.5 75t20 94.5t6.5 96.5q0 118 -63 118q-32 0 -57 -29.5t-39 -76.5t-20.5 -96.5t-6.5 -96.5
q0 -114 63 -114z" />
    <glyph glyph-name="one" unicode="1" horiz-adv-x="400" 
d="M256 687h125l-84 -687h-157l60 487l-94 -70l-64 119z" />
    <glyph glyph-name="two" unicode="2" horiz-adv-x="489" 
d="M2 0l10 101l210 221q99 103 99 175q0 27 -15 41t-42 14q-56 0 -124 -59l-77 113q103 90 230 90q84 0 135 -45.5t51 -130.5q0 -136 -132 -265l-116 -112v-2h208l-18 -141h-419z" />
    <glyph glyph-name="three" unicode="3" horiz-adv-x="495" 
d="M200 -9q-64 0 -121.5 19.5t-92.5 55.5l89 122q45 -59 122 -59q45 0 72 25.5t27 71.5q0 64 -69 64h-53l15 123h54q38 0 60 27t22 61q0 56 -63 56q-54 0 -120 -54l-76 107q101 85 223 85q85 0 135 -41t50 -118q0 -120 -96 -181v-1q76 -41 76 -141q0 -101 -70 -161.5
t-184 -60.5z" />
    <glyph glyph-name="four" unicode="4" horiz-adv-x="534" 
d="M428 253h80l-16 -130h-80l-15 -123h-151l15 123h-262l11 98l351 466h120zM169 238h123l29 215z" />
    <glyph glyph-name="five" unicode="5" horiz-adv-x="494" 
d="M466 546h-227l-20 -112q49 11 82 11q71 0 116 -48t45 -141q0 -119 -72.5 -192t-189.5 -73q-62 0 -119 19.5t-92 55.5l87 125q46 -58 122 -58q48 0 78 33t30 79q0 37 -19.5 57.5t-56.5 20.5q-43 0 -95 -36l-77 35l66 365h360z" />
    <glyph glyph-name="six" unicode="6" horiz-adv-x="534" 
d="M336 442q76 0 123.5 -47.5t47.5 -141.5q0 -112 -66 -187t-179 -75q-106 0 -162.5 71t-56.5 198q0 64 11.5 125.5t37 118t62.5 99t92.5 68t121.5 25.5q94 0 160 -31l-68 -127q-52 21 -94 21q-119 0 -157 -155l3 -1q58 39 124 39zM268 129q39 0 64 36t25 83q0 71 -63 71
q-56 0 -106 -52v-9q0 -57 20 -92.5t60 -36.5z" />
    <glyph glyph-name="seven" unicode="7" horiz-adv-x="463" 
d="M34 0l263 547h-244l17 140h416l-12 -101l-274 -586h-166z" />
    <glyph glyph-name="eight" unicode="8" horiz-adv-x="527" 
d="M237 -9q-101 0 -158 47t-57 132q0 70 37 122t93 76v3q-31 14 -49.5 48t-18.5 81q0 91 64.5 143.5t163.5 52.5q86 0 137 -42t52 -118q0 -59 -29.5 -104t-71.5 -62v-3q42 -18 67 -57t25 -95q0 -101 -71 -162.5t-184 -61.5zM284 430q33 0 55 21t22 55q0 28 -17 44.5
t-46 16.5q-32 1 -54.5 -20t-22.5 -55q0 -29 16.5 -45.5t46.5 -16.5zM251 124q39 0 63.5 27t24.5 70q0 38 -19 59.5t-54 21.5q-39 0 -64 -27.5t-25 -71.5q0 -37 19.5 -58t54.5 -21z" />
    <glyph glyph-name="nine" unicode="9" horiz-adv-x="536" 
d="M296 696q106 0 162.5 -71t56.5 -198q0 -64 -11.5 -125.5t-37 -118t-62.5 -99t-92.5 -68t-121.5 -25.5q-95 0 -164 34l68 128q54 -25 96 -25q122 0 159 154l-4 2q-56 -39 -124 -39q-75 0 -122.5 47.5t-47.5 141.5q0 112 65.5 187t179.5 75zM200 439q0 -71 64 -71
q54 0 105 51v10q0 57 -19.5 93t-60.5 36q-39 0 -64 -36t-25 -83z" />
    <glyph glyph-name="colon" unicode=":" horiz-adv-x="273" 
d="M156 323q-39 0 -62.5 24.5t-23.5 62.5q0 39 24.5 63.5t64.5 24.5t63.5 -24t23.5 -61q0 -40 -24.5 -65t-65.5 -25zM114 -11q-39 0 -62.5 24.5t-23.5 62.5q0 39 24.5 63.5t64.5 24.5t63.5 -24t23.5 -61q0 -40 -24.5 -65t-65.5 -25z" />
    <glyph glyph-name="semicolon" unicode=";" horiz-adv-x="250" 
d="M140 323q-39 0 -62.5 24.5t-23.5 62.5q0 39 24.5 63.5t64.5 24.5t63.5 -24t23.5 -61q0 -40 -24.5 -65t-65.5 -25zM-24 -133l59 267h148l-101 -267h-106z" />
    <glyph glyph-name="less" unicode="&#x3c;" horiz-adv-x="533" 
d="M448 21l-402 198l11 105l452 203l-16 -140l-255 -114l225 -116z" />
    <glyph glyph-name="equal" unicode="=" horiz-adv-x="547" 
d="M82 329l16 126h430l-15 -126h-431zM50 99l16 126h430l-15 -126h-431z" />
    <glyph glyph-name="greater" unicode="&#x3e;" horiz-adv-x="534" 
d="M32 21l16 136l255 116l-226 114l16 140l403 -203l-12 -105z" />
    <glyph glyph-name="question" unicode="?" horiz-adv-x="432" 
d="M113 239l5 43q3 36 24 66.5t69 80.5q32 33 49 60t17 60q0 57 -50 57q-40 0 -80 -46l-91 91q32 42 88 68t118 26q77 0 127.5 -42.5t50.5 -120.5q0 -102 -106 -199q-37 -33 -55.5 -55t-23.5 -45l-9 -44h-133zM170 -11q-39 0 -62.5 24.5t-23.5 62.5q0 39 24.5 63.5
t64.5 24.5t63.5 -24t23.5 -61q0 -40 -24.5 -65t-65.5 -25z" />
    <glyph glyph-name="at" unicode="@" horiz-adv-x="888" 
d="M413 -151q-161 0 -266 102.5t-105 271.5q0 55 14 112t47.5 116.5t83 105.5t127.5 75.5t174 29.5q172 0 271 -103t99 -263q0 -31 -5.5 -62.5t-21.5 -67.5t-40.5 -63.5t-67 -45.5t-96.5 -18q-59 0 -92 26q-29 18 -38 58h-2q-52 -75 -131 -75q-58 0 -96.5 44.5t-38.5 124.5
q0 113 58.5 186t142.5 73q67 0 99 -37l3 1l4 28h138l-34 -273q-2 -16 -2 -25q0 -39 37 -39q30 0 52.5 31.5t32 67.5t9.5 66q0 122 -73.5 201t-207.5 79q-76 0 -138 -23.5t-101 -60t-66 -84.5t-38 -94t-11 -91q0 -130 80.5 -208t198.5 -78q107 0 206 57l45 -68
q-113 -77 -251 -77zM416 173q38 0 68 38t39 97l3 20q-30 23 -67 23q-39 0 -65 -36.5t-26 -82.5q0 -27 14 -43t34 -16z" />
    <glyph glyph-name="A" unicode="A" horiz-adv-x="635" 
d="M-23 0l320 710h154l146 -710h-166l-22 131h-213l-51 -131h-168zM247 266h141l-42 249h-2z" />
    <glyph glyph-name="B" unicode="B" horiz-adv-x="590" 
d="M38 0l87 710h250q188 0 188 -147q0 -54 -29 -104.5t-80 -76.5v-2q100 -39 100 -149q0 -231 -274 -231h-242zM246 424h62q41 0 67 26t26 68q0 51 -66 51h-70zM212 139h76q53 0 78.5 28t25.5 75q0 58 -76 58h-84z" />
    <glyph glyph-name="C" unicode="C" horiz-adv-x="655" 
d="M345 -9q-135 0 -215 77.5t-80 226.5q0 178 103.5 301t270.5 123q172 0 250 -132l-124 -111q-49 90 -134 90q-87 0 -142 -79.5t-55 -180.5q0 -78 35.5 -119.5t100.5 -41.5q87 0 152 74l98 -125q-102 -103 -260 -103z" />
    <glyph glyph-name="D" unicode="D" horiz-adv-x="666" 
d="M38 0l87 710h224q144 0 218.5 -78t74.5 -217q0 -187 -103 -301t-281 -114h-220zM212 143h64q95 0 147.5 76t52.5 193q0 155 -145 155h-67z" />
    <glyph glyph-name="E" unicode="E" horiz-adv-x="569" 
d="M37 0l87 710h448l-18 -143h-291l-18 -145h263l-16 -138h-263l-18 -141h306l-18 -143h-462z" />
    <glyph glyph-name="F" unicode="F" horiz-adv-x="545" 
d="M38 0l87 710h446l-18 -143h-288l-21 -167h256l-16 -141h-258l-31 -259h-157z" />
    <glyph glyph-name="G" unicode="G" horiz-adv-x="690" 
d="M345 -9q-135 0 -214.5 77.5t-79.5 226.5q0 116 45 212t132.5 154t201.5 58q175 0 251 -126l-124 -108q-53 81 -139 81q-88 0 -143.5 -79.5t-55.5 -182.5q0 -80 36.5 -122.5t103.5 -42.5q69 0 117 31l13 91h-118l17 134h270l-39 -322q-47 -37 -121.5 -59.5t-152.5 -22.5z
" />
    <glyph glyph-name="H" unicode="H" horiz-adv-x="670" 
d="M38 0l87 710h161l-36 -297h211l36 297h162l-88 -710h-161l33 270h-211l-33 -270h-161z" />
    <glyph glyph-name="I" unicode="I" horiz-adv-x="308" 
d="M43 0l87 710h162l-87 -710h-162z" />
    <glyph glyph-name="J" unicode="J" horiz-adv-x="509" 
d="M203 -9q-63 0 -120.5 24t-91.5 70l102 119q43 -60 103 -60q78 0 93 123l55 443h161l-56 -450q-33 -269 -246 -269z" />
    <glyph glyph-name="K" unicode="K" horiz-adv-x="626" 
d="M673 710l-257 -311q125 -175 171 -399h-170q-30 161 -120 288l-75 -83l-25 -205h-159l87 710h159l-35 -289h3l233 289h188z" />
    <glyph glyph-name="L" unicode="L" horiz-adv-x="546" 
d="M38 0l87 710h161l-70 -567h288l-17 -143h-449z" />
    <glyph glyph-name="M" unicode="M" horiz-adv-x="798" 
d="M38 0l87 710h157l131 -386h3l214 386h157l-87 -710h-157l47 388l-2 1l-150 -257h-97l-95 266l-2 -1l-49 -397h-157z" />
    <glyph glyph-name="N" unicode="N" horiz-adv-x="697" 
d="M38 0l87 710h150l200 -437l3 1l53 436h156l-88 -710h-152l-198 424l-3 -1l-53 -423h-155z" />
    <glyph glyph-name="O" unicode="O" horiz-adv-x="739" 
d="M339 -9q-132 0 -210.5 79.5t-78.5 221.5q0 114 45.5 210.5t132.5 156.5t198 60q132 0 211 -79.5t79 -219.5q0 -118 -43.5 -214.5t-130.5 -155.5t-203 -59zM351 141q86 0 142 78t56 192q0 79 -37.5 119t-100.5 40q-82 0 -138 -81t-56 -187q0 -79 36.5 -120t97.5 -41z" />
    <glyph glyph-name="P" unicode="P" horiz-adv-x="570" 
d="M38 0l87 710h248q102 0 151 -53t49 -143q0 -128 -74.5 -205t-208.5 -77h-67l-28 -232h-157zM241 373h57q50 0 79.5 34t29.5 89q0 36 -21 54.5t-54 18.5h-67z" />
    <glyph glyph-name="Q" unicode="Q" horiz-adv-x="747" 
d="M716 420q0 -161 -78 -276l58 -63l-93 -104l-63 70q-88 -56 -201 -56q-132 0 -210.5 79.5t-78.5 221.5q0 114 45.5 210.5t133 156.5t198.5 60q131 0 210 -79.5t79 -219.5zM351 141q46 0 85 24l-48 53l91 99l43 -47q27 65 27 141q0 79 -37.5 119t-100.5 40
q-81 0 -137.5 -81t-56.5 -187q0 -79 36.5 -120t97.5 -41z" />
    <glyph glyph-name="R" unicode="R" horiz-adv-x="605" 
d="M579 514q0 -178 -143 -244q86 -117 121 -270h-172q-33 135 -112 232h-50l-28 -232h-157l87 710h253q102 0 151.5 -53t49.5 -143zM303 373q50 0 80 34.5t30 88.5q0 36 -21.5 54.5t-53.5 18.5h-73l-24 -196h62z" />
    <glyph glyph-name="S" unicode="S" horiz-adv-x="542" 
d="M249 -9q-165 0 -238 102l99 119q23 -38 64 -58t82 -20t64 19t23 47q0 22 -16.5 37t-65.5 43q-9 5 -14 8q-86 49 -115 77q-60 56 -60 138q0 97 70 156.5t179 59.5q66 0 128 -22.5t97 -70.5l-107 -103q-41 55 -122 55q-38 0 -58 -16.5t-20 -43.5q0 -22 17.5 -41t59.5 -43
q14 -8 43 -24t42 -24t35 -23t32.5 -28t22.5 -31t16.5 -40t4.5 -48q0 -103 -72 -164t-191 -61z" />
    <glyph glyph-name="T" unicode="T" horiz-adv-x="539" 
d="M159 0l70 567h-166l18 143h491l-18 -143h-165l-70 -567h-160z" />
    <glyph glyph-name="U" unicode="U" horiz-adv-x="653" 
d="M299 -9q-139 0 -194.5 85.5t-36.5 241.5l49 392h160l-50 -405q-20 -164 85 -164q53 0 85.5 36t42.5 120l51 413h160l-51 -417q-20 -161 -93.5 -231.5t-207.5 -70.5z" />
    <glyph glyph-name="V" unicode="V" horiz-adv-x="630" 
d="M217 0l-148 710h171l70 -485h2l192 485h174l-322 -710h-139z" />
    <glyph glyph-name="W" unicode="W" horiz-adv-x="932" 
d="M187 0l-113 710h164l52 -457h3l153 457h160l39 -447h3l157 447h169l-289 -710h-141l-51 469h-2l-167 -469h-137z" />
    <glyph glyph-name="X" unicode="X" horiz-adv-x="629" 
d="M-26 0l248 360l-151 350h172l95 -232h5l145 232h185l-242 -354l161 -356h-176l-101 236h-4l-158 -236h-179z" />
    <glyph glyph-name="Y" unicode="Y" horiz-adv-x="581" 
d="M179 0l39 310l-159 400h176l79 -250h3l138 250h183l-259 -400l-38 -310h-162z" />
    <glyph glyph-name="Z" unicode="Z" horiz-adv-x="570" 
d="M13 0l15 125l335 439l-2 3h-269l17 143h474l-14 -122l-342 -441l2 -4h284l-17 -143h-483z" />
    <glyph glyph-name="bracketleft" unicode="[" horiz-adv-x="342" 
d="M13 -149l109 884h240l-13 -110h-114l-82 -664h114l-13 -110h-241z" />
    <glyph glyph-name="backslash" unicode="\" horiz-adv-x="399" 
d="M284 -111l-236 853l110 50l237 -855z" />
    <glyph glyph-name="bracketright" unicode="]" horiz-adv-x="342" 
d="M-8 -149l13 110h114l82 664h-114l13 110h241l-108 -884h-241z" />
    <glyph glyph-name="asciicircum" unicode="^" horiz-adv-x="428" 
d="M73 500l145 210h102l95 -210h-115l-39 119l-74 -119h-114z" />
    <glyph glyph-name="underscore" unicode="_" horiz-adv-x="474" 
d="M-52 -127l12 100h488l-12 -100h-488z" />
    <glyph glyph-name="grave" unicode="`" horiz-adv-x="440" 
d="M223 533l-93 150l150 -1l80 -149h-137z" />
    <glyph glyph-name="a" unicode="a" horiz-adv-x="553" 
d="M186 -9q-76 0 -117.5 56t-41.5 144q0 130 67 218.5t164 88.5q74 0 115 -43h3l4 34h151l-60 -489h-151l9 72l-3 1q-57 -82 -140 -82zM234 124q42 0 79.5 51.5t49.5 139.5l2 14q-33 35 -81 35q-47 0 -76.5 -51t-29.5 -111q0 -35 15.5 -56.5t40.5 -21.5z" />
    <glyph glyph-name="b" unicode="b" horiz-adv-x="558" 
d="M244 -10q-118 0 -214 51l86 695h150l-38 -317l2 -1q58 80 142 80q75 0 117 -57t42 -146q0 -138 -73.5 -221.5t-213.5 -83.5zM241 124q65 0 101.5 47t36.5 116q0 33 -15.5 55t-40.5 22q-44 0 -82 -54t-50 -147l-4 -32q28 -7 54 -7z" />
    <glyph glyph-name="c" unicode="c" horiz-adv-x="479" 
d="M242 -9q-102 0 -158 55t-56 159q0 77 29 142t91 108t146 43q119 0 179 -84l-107 -98q-26 49 -75 49q-48 0 -80 -44.5t-32 -103.5q0 -44 20 -68t52 -24q48 0 89 50l100 -94q-73 -90 -198 -90z" />
    <glyph glyph-name="d" unicode="d" horiz-adv-x="548" 
d="M187 -9q-77 0 -118.5 56t-41.5 144q0 130 67 218.5t164 88.5q72 0 117 -43h3l34 281h151l-91 -736h-150l9 72l-3 1q-58 -82 -141 -82zM234 124q42 0 80 51.5t51 139.5l2 14q-32 35 -83 35q-47 0 -76.5 -51t-29.5 -111q0 -35 15.5 -56.5t40.5 -21.5z" />
    <glyph glyph-name="e" unicode="e" horiz-adv-x="477" 
d="M252 115q51 0 92 53l97 -92q-73 -85 -199 -85q-100 0 -157.5 55.5t-57.5 157.5q1 123 75 208.5t195 85.5q70 0 120 -33t50 -99q0 -45 -24.5 -80t-68 -56.5t-92.5 -34t-108 -18.5q15 -62 78 -62zM284 373q-34 0 -63.5 -28.5t-42.5 -77.5q145 15 145 74q0 32 -39 32z" />
    <glyph glyph-name="f" unicode="f" horiz-adv-x="371" 
d="M48 0l45 368h-59l15 121h59l9 76q11 89 59.5 134.5t125.5 45.5q79 0 134 -40l-55 -108q-24 19 -53 19q-53 0 -63 -73l-7 -54h103l-15 -121h-103l-44 -368h-151z" />
    <glyph glyph-name="g" unicode="g" horiz-adv-x="551" 
d="M378 489h150l-52 -426q-33 -270 -282 -270q-109 0 -187 44l61 115q61 -32 121 -32t93.5 34t46.5 133l-3 1q-58 -82 -141 -82q-75 0 -116 54.5t-41 136.5q0 126 67 213.5t163 87.5q75 0 114 -41l3 1zM361 315l2 16q-33 33 -79 33t-75.5 -49.5t-29.5 -103.5
q0 -35 14.5 -53.5t40.5 -18.5q41 0 78 49t49 127z" />
    <glyph glyph-name="h" unicode="h" horiz-adv-x="547" 
d="M25 0l91 736h149l-39 -315l2 -1q67 78 163 78q70 0 98 -48.5t15 -150.5l-39 -299h-150l36 265q7 51 0.5 75t-29.5 24q-39 0 -77.5 -50.5t-48.5 -137.5l-21 -176h-150z" />
    <glyph glyph-name="i" unicode="i" horiz-adv-x="268" 
d="M182 552q-39 0 -64.5 24.5t-25.5 61.5q0 38 26 63t67 25q40 0 65 -24t25 -61q0 -39 -26 -64t-67 -25zM29 0l60 489h150l-60 -489h-150z" />
    <glyph glyph-name="j" unicode="j" horiz-adv-x="251" 
d="M170 552q-39 0 -64.5 24.5t-25.5 61.5q0 38 26 63t67 25q40 0 65 -24t25 -61q0 -39 -26 -64t-67 -25zM-9 -206q-53 0 -97 23l37 115q16 -13 37 -13q22 0 32.5 19t15.5 66l60 485h151l-63 -506q-12 -100 -55.5 -144.5t-117.5 -44.5z" />
    <glyph glyph-name="k" unicode="k" horiz-adv-x="514" 
d="M438 -7q-20 -2 -44 -2q-53 0 -84.5 36t-54.5 104l-9 30q-28 -18 -59 -31l-15 -130h-147l91 736h149l-56 -455l2 -1q105 74 139 209h155q-27 -142 -139 -247l14 -42q16 -49 36 -66t56 -19z" />
    <glyph glyph-name="l" unicode="l" horiz-adv-x="310" 
d="M170 -10q-145 0 -125 166l71 580h150l-69 -562q-7 -49 23 -49q26 0 50 18l27 -118q-47 -35 -127 -35z" />
    <glyph glyph-name="m" unicode="m" horiz-adv-x="813" 
d="M26 0l60 489h150l-8 -61l4 -1q63 71 149 71t106 -74h5q63 74 164 74q73 0 100.5 -49.5t13.5 -155.5l-39 -293h-149l35 265q7 51 1.5 75t-28.5 24q-31 0 -67 -49.5t-47 -134.5l-24 -180h-149l35 265q8 51 2.5 75t-29.5 24q-30 0 -66 -47.5t-46 -125.5l-23 -191h-150z" />
    <glyph glyph-name="n" unicode="n" horiz-adv-x="547" 
d="M25 0l61 489h149l-8 -68l2 -1q67 78 162 78q70 0 98 -48.5t15 -150.5l-39 -299h-149l35 265q7 51 0.5 75t-29.5 24q-38 0 -76 -49t-49 -134l-22 -181h-150z" />
    <glyph glyph-name="o" unicode="o" horiz-adv-x="535" 
d="M235 -9q-94 0 -150.5 55.5t-56.5 155.5q0 125 72.5 210.5t198.5 85.5q95 0 151.5 -55.5t56.5 -155.5q0 -127 -69.5 -211.5t-202.5 -84.5zM250 125q45 0 75 45t30 104q0 50 -21.5 70t-48.5 20q-46 0 -75.5 -46.5t-29.5 -103.5q0 -49 21.5 -69t48.5 -20z" />
    <glyph glyph-name="p" unicode="p" horiz-adv-x="558" 
d="M1 -198l85 687h150l-9 -73l1 -2q58 84 147 84q74 0 114.5 -56.5t40.5 -143.5q0 -130 -67.5 -218.5t-166.5 -88.5q-71 0 -114 33l-4 -1l-27 -221h-150zM256 124q58 0 91 47t33 112q0 36 -15 59t-40 23q-44 0 -82.5 -53t-51.5 -145l-1 -13q22 -30 66 -30z" />
    <glyph glyph-name="q" unicode="q" horiz-adv-x="554" 
d="M296 -198l34 270l-3 2q-57 -83 -141 -83q-76 0 -117.5 56t-41.5 144q0 130 67 218.5t164 88.5q75 0 116 -43l2 1l4 33h151l-84 -687h-151zM234 124q41 0 79 51.5t50 137.5l2 16q-34 36 -81 36t-76.5 -51.5t-29.5 -111.5q0 -35 15.5 -56.5t40.5 -21.5z" />
    <glyph glyph-name="r" unicode="r" horiz-adv-x="403" 
d="M26 0l60 489h150l-9 -67h2q57 75 142 75q39 0 66 -13l-58 -141q-35 13 -61 13q-51 0 -80.5 -43t-38.5 -115l-23 -198h-150z" />
    <glyph glyph-name="s" unicode="s" horiz-adv-x="420" 
d="M184 -9q-123 0 -183 63l73 101q20 -24 54 -37.5t64 -13.5q46 0 46 27q0 11 -13 20.5t-47 26.5q-11 5 -17 8q-60 30 -89.5 64t-29.5 85q0 72 52.5 117.5t131.5 45.5q45 0 93 -16t81 -53l-84 -88q-32 39 -89 42q-18 1 -29.5 -7t-11.5 -21q0 -26 75 -58q59 -26 90 -59.5
t32 -85.5q0 -74 -53.5 -117.5t-145.5 -43.5z" />
    <glyph glyph-name="t" unicode="t" horiz-adv-x="371" 
d="M187 -9q-64 0 -100 39.5t-26 125.5l26 212h-57l15 121h57l19 143l153 30l-21 -173h121l-15 -121h-121l-24 -194q-5 -49 30 -49q31 0 66 29l29 -113q-60 -50 -152 -50z" />
    <glyph glyph-name="u" unicode="u" horiz-adv-x="539" 
d="M167 -9q-153 0 -125 194l42 304h149l-37 -259q-8 -59 -1 -82t33 -23q32 0 67.5 43.5t42.5 96.5l27 224h150l-60 -489h-147l6 72h-2q-60 -81 -145 -81z" />
    <glyph glyph-name="v" unicode="v" horiz-adv-x="503" 
d="M191 -9q-92 0 -129 57t-25 157l36 284h148l-31 -253q-8 -53 -2.5 -82t29.5 -29q33 0 67 46t48 147q12 78 -1 171h150q17 -95 1 -201q-12 -80 -40 -139.5t-68.5 -93t-85.5 -49t-97 -15.5z" />
    <glyph glyph-name="w" unicode="w" horiz-adv-x="759" 
d="M165 -9q-76 0 -109 55t-21 147l42 296h148l-36 -261q-14 -103 30 -103q27 0 56.5 38t39.5 118l26 208h145l-33 -267q-7 -53 0 -75t28 -22q30 0 61.5 45.5t44.5 147.5q11 81 0 171h151q17 -97 0 -201q-22 -155 -99 -226t-183 -71q-110 0 -134 89h-2q-25 -42 -68 -65.5
t-87 -23.5z" />
    <glyph glyph-name="x" unicode="x" horiz-adv-x="477" 
d="M-21 0l178 254l-114 235h166l45 -118h1l73 118h170l-177 -243l118 -246h-160l-52 123h-2l-84 -123h-162z" />
    <glyph glyph-name="y" unicode="y" horiz-adv-x="534" 
d="M363 489h149l-52 -423q-32 -273 -275 -273q-98 0 -180 43l57 116q50 -36 119 -36q53 0 85.5 31.5t44.5 121.5v1l-3 1q-59 -80 -148 -80q-150 0 -122 194l42 304h149l-36 -259q-8 -59 -1.5 -82t33.5 -23q33 0 68.5 44.5t41.5 96.5z" />
    <glyph glyph-name="z" unicode="z" horiz-adv-x="447" 
d="M367 -28q-117 28 -366 28l11 100l217 267v3h-165l14 119h365l-11 -100l-222 -267v-2q111 -5 192 -30z" />
    <glyph glyph-name="braceleft" unicode="{" horiz-adv-x="335" 
d="M177 -147q-47 0 -75.5 37.5t-21.5 96.5l22 175q2 21 2 37.5t-15.5 27t-50.5 11.5l8 109q27 1 44.5 8t26 20.5t12 24.5t4.5 27l23 178q7 56 41.5 93t82.5 37h83l-12 -97h-18q-48 0 -57 -67l-22 -171q-11 -85 -59 -108v-2q23 -13 31.5 -34t0.5 -77l-20 -165q-4 -36 2 -50.5
t35 -14.5h23l-13 -96h-77z" />
    <glyph glyph-name="bar" unicode="|" horiz-adv-x="321" 
d="M57 -115l104 852h120l-104 -852h-120z" />
    <glyph glyph-name="braceright" unicode="}" horiz-adv-x="336" 
d="M-15 -147l12 96h17q30 0 42.5 17.5t16.5 52.5l20 166q7 57 19 76.5t40 32.5v2q-42 27 -32 109l21 172q6 61 -37 61h-22l11 97h77q49 0 77 -40t21 -96l-22 -176q-1 -18 -2 -34.5t15 -28.5t51 -13l-9 -109q-50 -1 -66.5 -21.5t-21.5 -59.5l-21 -175q-7 -59 -42.5 -94
t-82.5 -35h-82z" />
    <glyph glyph-name="asciitilde" unicode="~" horiz-adv-x="528" 
d="M345 191q-12 0 -22 1.5t-19.5 4.5t-14 4.5t-14.5 6.5t-11 6q-38 20 -58 20q-36 0 -65 -47l-98 46q25 60 63.5 96t85.5 36q13 0 27 -3t21.5 -6t20.5 -9t15 -7q32 -17 53 -17q38 0 67 45l97 -38q-25 -62 -63.5 -100.5t-84.5 -38.5z" />
    <glyph glyph-name="uni00A0" unicode="&#xa0;" horiz-adv-x="178" 
 />
    <glyph glyph-name="exclamdown" unicode="&#xa1;" horiz-adv-x="287" 
d="M160 500q39 0 62.5 -24.5t23.5 -62.5q0 -39 -24.5 -63.5t-64.5 -24.5t-63.5 24t-23.5 61q0 40 24.5 65t65.5 25zM193 247l-35 -494h-159l87 494h107z" />
    <glyph glyph-name="cent" unicode="&#xa2;" horiz-adv-x="488" 
d="M253 178q47 0 87 48l116 -74q-64 -88 -163 -104l-12 -95h-95l11 95q-75 13 -117.5 67t-42.5 141q0 108 60 190.5t160 100.5l10 93h96l-11 -92q87 -14 132 -80l-115 -85q-23 36 -69 36q-47 -1 -79.5 -47.5t-32.5 -110.5q0 -43 20.5 -63t44.5 -20z" />
    <glyph glyph-name="sterling" unicode="&#xa3;" horiz-adv-x="517" 
d="M11 0l17 142h52l20 160h-45l13 108h46l7 57q28 228 231 228q50 0 98 -24t76 -69l-95 -102q-34 54 -79 54q-59 0 -73 -103l-5 -41h125l-12 -108h-126l-20 -160h238l-17 -142h-451z" />
    <glyph glyph-name="currency" unicode="&#xa4;" horiz-adv-x="466" 
d="M419 412q0 -64 -34 -117l62 -80l-72 -67l-64 79q-38 -20 -85 -20q-44 0 -79 19l-76 -77l-61 67l79 78q-11 28 -11 61q0 73 37 128l-63 77l74 67l62 -77q37 20 82 20t81 -22l79 80l60 -67l-82 -82q11 -31 11 -67zM239 308q34 0 57 26.5t23 63.5q0 33 -17.5 52.5
t-43.5 19.5q-34 0 -57 -28t-23 -68q0 -30 16.5 -48t44.5 -18z" />
    <glyph glyph-name="yen" unicode="&#xa5;" horiz-adv-x="557" 
d="M612 687l-198 -323h82l-10 -80h-121l-7 -51h121l-9 -80h-122l-19 -153h-163l19 153h-126l10 80h126l7 51h-127l10 80h88l-117 323h181l64 -245h2l121 245h188z" />
    <glyph glyph-name="brokenbar" unicode="&#xa6;" horiz-adv-x="321" 
d="M118 384l43 353h120l-43 -353h-120zM57 -114l43 351h120l-43 -351h-120z" />
    <glyph glyph-name="section" unicode="&#xa7;" horiz-adv-x="505" 
d="M327 440q34 -16 46 -22.5t36 -22t33 -28.5t17.5 -33.5t8.5 -45.5q0 -97 -83 -147q35 -35 35 -93q0 -92 -59.5 -147t-153.5 -55q-129 0 -200 100l93 96q45 -63 110 -63q28 0 42 14.5t14 34.5q0 18 -19 33.5t-68 39.5q-40 20 -63.5 36t-44 48t-20.5 73q0 98 79 143
q-36 39 -36 97q0 87 57 138.5t147 51.5q58 0 110.5 -23t81.5 -60l-90 -99q-52 47 -100 47q-51 0 -51 -44q0 -16 16 -31t62 -38zM193 282q0 -37 67 -67q8 -4 22 -10q41 14 41 55q0 20 -14.5 34t-60.5 35q-3 1 -8.5 3.5t-7.5 3.5q-39 -10 -39 -54z" />
    <glyph glyph-name="dieresis" unicode="&#xa8;" horiz-adv-x="482" 
d="M177 528q-39 0 -64.5 24.5t-25.5 61.5q0 38 26 63t67 25q40 0 65 -24t25 -61q0 -39 -26 -64t-67 -25zM394 528q-39 0 -64.5 24.5t-25.5 61.5q0 39 26 63.5t68 24.5q39 0 64 -24t25 -61q0 -39 -26 -64t-67 -25z" />
    <glyph glyph-name="copyright" unicode="&#xa9;" horiz-adv-x="724" 
d="M361 -6q-135 0 -229 95.5t-94 229.5t94.5 230t229.5 96q136 0 229.5 -96t93.5 -230q0 -133 -94.5 -229t-229.5 -96zM361 89q96 0 161.5 67.5t65.5 162.5q0 97 -65 163.5t-161 66.5q-97 0 -162.5 -67.5t-65.5 -163.5t65 -162.5t162 -66.5zM368 154q-71 0 -118.5 43
t-47.5 120q0 70 44 116.5t122 46.5q79 0 130 -62l-61 -52q-30 34 -69 34q-33 0 -55 -22.5t-22 -60.5q0 -36 21 -59.5t56 -23.5q42 0 69 34l61 -54q-51 -60 -130 -60z" />
    <glyph glyph-name="ordfeminine" unicode="&#xaa;" horiz-adv-x="348" 
d="M148 387q-40 0 -68 31.5t-28 89.5q0 79 43.5 132t103.5 53q38 0 61 -25h1l3 19h101l-36 -294h-102l5 40h-2q-36 -46 -82 -46zM185 479q21 0 41 25.5t26 68.5l2 11q-14 15 -39 15q-24 0 -41 -25t-17 -58q0 -37 28 -37z" />
    <glyph glyph-name="guillemotleft" unicode="&#xab;" horiz-adv-x="495" 
d="M110 46l-77 201l129 205h137l-128 -205l77 -201h-138zM317 46l-78 201l130 205h137l-129 -205l77 -201h-137z" />
    <glyph glyph-name="logicalnot" unicode="&#xac;" horiz-adv-x="502" 
d="M318 140l20 164h-287l15 125h414l-35 -289h-127z" />
    <glyph glyph-name="registered" unicode="&#xae;" horiz-adv-x="724" 
d="M362 645q136 0 229.5 -96t93.5 -230q0 -133 -94.5 -229t-229.5 -96t-229 95.5t-94 229.5t94.5 230t229.5 96zM361 89q96 0 161.5 67.5t65.5 162.5q0 97 -65 163.5t-161 66.5q-97 0 -162.5 -67.5t-65.5 -163.5t65 -162.5t162 -66.5zM489 369q0 -71 -56 -97l72 -113h-96
l-61 100h-22v-100h-82v324h129q58 0 87 -31t29 -83zM326 408v-75h28q22 0 35 10t13 28q0 16 -12.5 26.5t-35.5 10.5h-28z" />
    <glyph glyph-name="macron" unicode="&#xaf;" horiz-adv-x="393" 
d="M92 558l15 115h285l-14 -115h-286z" />
    <glyph glyph-name="degree" unicode="&#xb0;" horiz-adv-x="360" 
d="M203 440q-55 0 -86 31.5t-31 82.5q0 69 42.5 116.5t108.5 47.5q53 0 86 -32.5t33 -88.5q0 -64 -42.5 -110.5t-110.5 -46.5zM213 525q23 0 39 18.5t16 44.5q0 20 -11 33t-29 13q-23 0 -39 -19t-16 -49q0 -18 11 -29.5t29 -11.5z" />
    <glyph glyph-name="plusminus" unicode="&#xb1;" horiz-adv-x="543" 
d="M202 183l21 174h-151l16 126h151l22 176h128l-22 -176h152l-16 -126h-152l-21 -174h-128zM28 0l16 126h430l-15 -126h-431z" />
    <glyph glyph-name="uni00B2" unicode="&#xb2;" horiz-adv-x="304" 
d="M42 435l7 75l128 132q53 55 53 88q0 23 -26 23q-31 0 -69 -31l-57 81q61 53 142 53q55 0 89.5 -29t34.5 -85q0 -82 -77 -152l-57 -53l1 -1h110l-12 -101h-267z" />
    <glyph glyph-name="uni00B3" unicode="&#xb3;" horiz-adv-x="317" 
d="M176 426q-92 0 -139 49l65 87q11 -17 32 -26.5t41 -9.5q22 0 35.5 12t13.5 33q0 33 -35 33h-32l10 81h30q22 0 33 12.5t11 30.5q0 30 -32 30q-27 0 -65 -32l-57 78q63 52 141 52q54 0 87 -26.5t33 -74.5q0 -69 -59 -108v-1q48 -26 48 -87q0 -60 -44.5 -96.5t-116.5 -36.5
z" />
    <glyph glyph-name="acute" unicode="&#xb4;" horiz-adv-x="438" 
d="M148 533l117 149l152 1l-129 -150h-140z" />
    <glyph glyph-name="uni00B5" unicode="&#xb5;" horiz-adv-x="569" 
d="M522 120l18 -102q-38 -27 -95 -27q-95 0 -108 84h-2q-48 -84 -116 -84q-40 0 -61 26l-3 -1q12 -70 4 -129l-10 -85h-148l84 687h149l-34 -271q-12 -93 41 -93q31 0 57.5 31t34.5 93l29 240h150l-40 -324q-3 -28 2 -38t21 -10q13 0 27 3z" />
    <glyph glyph-name="paragraph" unicode="&#xb6;" horiz-adv-x="487" 
d="M304 680h168l-83 -680h-185l35 282q-88 2 -139.5 47.5t-47.5 126.5q3 95 71 159.5t181 64.5z" />
    <glyph glyph-name="periodcentered" unicode="&#xb7;" horiz-adv-x="278" 
d="M151 154q-39 0 -62.5 24.5t-23.5 62.5q0 39 24.5 63.5t64.5 24.5t63.5 -24t23.5 -61q0 -40 -24.5 -65t-65.5 -25z" />
    <glyph glyph-name="cedilla" unicode="&#xb8;" horiz-adv-x="286" 
d="M59 -192q-33 0 -54 6l2 61q17 -6 39 -6q53 0 53 33q0 25 -65 25l1 38l26 41h77l-26 -36l1 -1q75 -3 75 -66q0 -47 -34.5 -71t-94.5 -24z" />
    <glyph glyph-name="uni00B9" unicode="&#xb9;" horiz-adv-x="269" 
d="M207 847h87l-51 -412h-111l34 267l-51 -34l-46 85z" />
    <glyph glyph-name="ordmasculine" unicode="&#xba;" horiz-adv-x="326" 
d="M179 388q-57 0 -90.5 33.5t-33.5 93.5q0 74 43.5 126t122.5 52q56 0 89 -32.5t33 -93.5q0 -75 -41.5 -127t-122.5 -52zM188 481q22 0 38 22.5t16 53.5q0 43 -32 43q-23 0 -38.5 -23.5t-15.5 -53.5q0 -21 9.5 -31.5t22.5 -10.5z" />
    <glyph glyph-name="guillemotright" unicode="&#xbb;" horiz-adv-x="497" 
d="M-10 46l128 201l-79 205h139l78 -205l-126 -201h-140zM200 46l128 201l-79 205h138l79 -205l-127 -201h-139z" />
    <glyph glyph-name="onequarter" unicode="&#xbc;" horiz-adv-x="754" 
d="M521 728l106 -49l-372 -704l-105 49zM231 298h-111l34 267l-51 -34l-46 85l138 94h87zM702 164h46l-12 -95h-46l-9 -69h-112l8 69h-146l8 67l205 276h88zM542 153h68l15 119z" />
    <glyph glyph-name="onehalf" unicode="&#xbd;" horiz-adv-x="791" 
d="M521 728l106 -49l-372 -704l-105 49zM231 298h-111l34 267l-51 -34l-46 85l138 94h87zM647 102l1 -1h110l-12 -101h-267l7 75l128 132q53 55 53 88q0 23 -26 23q-31 0 -69 -31l-57 81q61 53 142 53q55 0 89.5 -29t34.5 -85q0 -82 -77 -152z" />
    <glyph glyph-name="threequarters" unicode="&#xbe;" horiz-adv-x="776" 
d="M540 728l106 -49l-372 -704l-105 49zM326 422q0 -60 -44.5 -96.5t-116.5 -36.5q-92 0 -139 49l65 87q11 -17 32 -26.5t41 -9.5q22 0 35.5 12t13.5 33q0 33 -35 33h-32l10 81h30q22 0 33 12.5t11 30.5q0 30 -32 30q-27 0 -65 -32l-57 78q63 52 141 52q54 0 87 -26.5
t33 -74.5q0 -69 -59 -108v-1q48 -26 48 -87zM724 164h46l-12 -95h-46l-9 -69h-112l8 69h-146l8 67l205 276h88zM564 153h68l15 119z" />
    <glyph glyph-name="questiondown" unicode="&#xbf;" horiz-adv-x="415" 
d="M267 499q39 0 62.5 -24.5t23.5 -62.5q0 -39 -24.5 -63.5t-64.5 -24.5t-63.5 24t-23.5 61q0 40 24.5 65t65.5 25zM324 249l-5 -43q-3 -36 -24 -66.5t-69 -80.5q-32 -33 -49 -60t-17 -60q0 -57 50 -57q40 0 80 46l91 -91q-32 -42 -88 -68t-118 -26q-77 0 -127.5 42.5
t-50.5 120.5q0 102 106 199q37 33 55.5 55t23.5 45l9 44h133z" />
    <glyph glyph-name="Agrave" unicode="&#xc0;" horiz-adv-x="635" 
d="M316 761l-94 140l150 -1l81 -139h-137zM-23 0l320 710h154l146 -710h-166l-22 131h-213l-51 -131h-168zM247 266h141l-42 249h-2z" />
    <glyph glyph-name="Aacute" unicode="&#xc1;" horiz-adv-x="635" 
d="M315 761l115 139l151 1l-131 -140h-135zM-23 0l320 710h154l146 -710h-166l-22 131h-213l-51 -131h-168zM247 266h141l-42 249h-2z" />
    <glyph glyph-name="Acircumflex" unicode="&#xc2;" horiz-adv-x="635" 
d="M220 761l108 140h150l73 -140h-126l-32 64h-1l-48 -64h-124zM-23 0l320 710h154l146 -710h-166l-22 131h-213l-51 -131h-168zM247 266h141l-42 249h-2z" />
    <glyph glyph-name="Atilde" unicode="&#xc3;" horiz-adv-x="635" 
d="M469 762q-32 0 -77 30q-26 18 -44 18q-32 0 -57 -50l-84 41q53 110 128 110q37 0 76 -26q30 -20 44 -20q34 0 58 48l84 -32q-52 -119 -128 -119zM-23 0l320 710h154l146 -710h-166l-22 131h-213l-51 -131h-168zM247 266h141l-42 249h-2z" />
    <glyph glyph-name="Adieresis" unicode="&#xc4;" horiz-adv-x="635" 
d="M284 757q-39 0 -64.5 24.5t-25.5 61.5q0 38 26 63t67 25q40 0 65 -24t25 -61q0 -39 -26 -64t-67 -25zM501 757q-39 0 -64.5 24.5t-25.5 61.5q0 39 26 63.5t68 24.5q39 0 64 -24t25 -61q0 -39 -26 -64t-67 -25zM-23 0l320 710h154l146 -710h-166l-22 131h-213l-51 -131
h-168zM247 266h141l-42 249h-2z" />
    <glyph glyph-name="Aring" unicode="&#xc5;" horiz-adv-x="635" 
d="M389 747q-45 0 -75 30.5t-30 74.5q0 45 31 75.5t77 30.5q45 0 74.5 -29.5t29.5 -73.5q0 -46 -30.5 -77t-76.5 -31zM391 817q15 0 25.5 10.5t10.5 26.5q0 14 -10.5 24.5t-24.5 10.5q-16 0 -27 -10.5t-11 -25.5q0 -16 10.5 -26t26.5 -10zM-23 0l320 710h154l146 -710h-166
l-22 131h-213l-51 -131h-168zM247 266h141l-42 249h-2z" />
    <glyph glyph-name="AE" unicode="&#xc6;" horiz-adv-x="880" 
d="M-30 0l390 710h523l-17 -143h-286l-18 -145h259l-18 -139h-258l-17 -140h299l-17 -143h-455l17 131h-162l-69 -131h-171zM280 267h109l34 277h-2z" />
    <glyph glyph-name="Ccedilla" unicode="&#xc7;" horiz-adv-x="655" 
d="M355 145q87 0 152 74l98 -125q-97 -98 -248 -103l-15 -21l1 -1q75 -3 75 -66q0 -47 -34.5 -71t-94.5 -24q-33 0 -54 6l2 61q17 -6 39 -6q53 0 53 33q0 25 -65 25l1 38l19 30q-109 17 -171.5 93t-62.5 207q0 178 103.5 301t270.5 123q172 0 250 -132l-124 -111
q-49 90 -134 90q-87 0 -142 -79.5t-55 -180.5q0 -78 35.5 -119.5t100.5 -41.5z" />
    <glyph glyph-name="Egrave" unicode="&#xc8;" horiz-adv-x="569" 
d="M323 760l-94 140l150 -1l81 -139h-137zM37 0l87 710h448l-18 -143h-291l-18 -145h263l-16 -138h-263l-18 -141h306l-18 -143h-462z" />
    <glyph glyph-name="Eacute" unicode="&#xc9;" horiz-adv-x="569" 
d="M248 760l115 139l151 1l-131 -140h-135zM37 0l87 710h448l-18 -143h-291l-18 -145h263l-16 -138h-263l-18 -141h306l-18 -143h-462z" />
    <glyph glyph-name="Ecircumflex" unicode="&#xca;" horiz-adv-x="569" 
d="M191 760l108 140h150l73 -140h-126l-32 64h-1l-48 -64h-124zM37 0l87 710h448l-18 -143h-291l-18 -145h263l-16 -138h-263l-18 -141h306l-18 -143h-462z" />
    <glyph glyph-name="Edieresis" unicode="&#xcb;" horiz-adv-x="569" 
d="M255 756q-39 0 -64.5 24.5t-25.5 61.5q0 38 26 63t67 25q40 0 65 -24t25 -61q0 -39 -26 -64t-67 -25zM472 756q-39 0 -64.5 24.5t-25.5 61.5q0 39 26 63.5t68 24.5q39 0 64 -24t25 -61q0 -39 -26 -64t-67 -25zM37 0l87 710h448l-18 -143h-291l-18 -145h263l-16 -138h-263
l-18 -141h306l-18 -143h-462z" />
    <glyph glyph-name="Igrave" unicode="&#xcc;" horiz-adv-x="308" 
d="M153 759l-94 140l150 -1l81 -139h-137zM43 0l87 710h162l-87 -710h-162z" />
    <glyph glyph-name="Iacute" unicode="&#xcd;" horiz-adv-x="308" 
d="M147 761l115 139l151 1l-131 -140h-135zM43 0l87 710h162l-87 -710h-162z" />
    <glyph glyph-name="Icircumflex" unicode="&#xce;" horiz-adv-x="308" 
d="M50 760l108 140h150l73 -140h-126l-32 64h-1l-48 -64h-124zM43 0l87 710h162l-87 -710h-162z" />
    <glyph glyph-name="Idieresis" unicode="&#xcf;" horiz-adv-x="308" 
d="M114 756q-39 0 -64.5 24.5t-25.5 61.5q0 38 26 63t67 25q40 0 65 -24t25 -61q0 -39 -26 -64t-67 -25zM331 756q-39 0 -64.5 24.5t-25.5 61.5q0 39 26 63.5t68 24.5q39 0 64 -24t25 -61q0 -39 -26 -64t-67 -25zM43 0l87 710h162l-87 -710h-162z" />
    <glyph glyph-name="Eth" unicode="&#xd0;" horiz-adv-x="668" 
d="M350 710q144 0 218.5 -78t74.5 -217q0 -187 -103 -301t-281 -114h-220l34 281h-46l19 135h44l36 294h224zM277 143q95 0 147.5 76t52.5 193q0 155 -145 155h-67l-19 -151h113l-19 -135h-110l-17 -138h64z" />
    <glyph glyph-name="Ntilde" unicode="&#xd1;" horiz-adv-x="697" 
d="M497 762q-32 0 -77 30q-26 18 -44 18q-32 0 -57 -50l-84 41q53 110 128 110q37 0 76 -26q30 -20 44 -20q34 0 58 48l84 -32q-52 -119 -128 -119zM38 0l87 710h150l200 -437l3 1l53 436h156l-88 -710h-152l-198 424l-3 -1l-53 -423h-155z" />
    <glyph glyph-name="Ograve" unicode="&#xd2;" horiz-adv-x="739" 
d="M387 761l-94 140l150 -1l81 -139h-137zM339 -9q-132 0 -210.5 79.5t-78.5 221.5q0 114 45.5 210.5t132.5 156.5t198 60q132 0 211 -79.5t79 -219.5q0 -118 -43.5 -214.5t-130.5 -155.5t-203 -59zM351 141q86 0 142 78t56 192q0 79 -37.5 119t-100.5 40q-82 0 -138 -81
t-56 -187q0 -79 36.5 -120t97.5 -41z" />
    <glyph glyph-name="Oacute" unicode="&#xd3;" horiz-adv-x="739" 
d="M369 761l115 139l151 1l-131 -140h-135zM339 -9q-132 0 -210.5 79.5t-78.5 221.5q0 114 45.5 210.5t132.5 156.5t198 60q132 0 211 -79.5t79 -219.5q0 -118 -43.5 -214.5t-130.5 -155.5t-203 -59zM351 141q86 0 142 78t56 192q0 79 -37.5 119t-100.5 40q-82 0 -138 -81
t-56 -187q0 -79 36.5 -120t97.5 -41z" />
    <glyph glyph-name="Ocircumflex" unicode="&#xd4;" horiz-adv-x="739" 
d="M295 761l108 140h150l73 -140h-126l-32 64h-1l-48 -64h-124zM339 -9q-132 0 -210.5 79.5t-78.5 221.5q0 114 45.5 210.5t132.5 156.5t198 60q132 0 211 -79.5t79 -219.5q0 -118 -43.5 -214.5t-130.5 -155.5t-203 -59zM351 141q86 0 142 78t56 192q0 79 -37.5 119
t-100.5 40q-82 0 -138 -81t-56 -187q0 -79 36.5 -120t97.5 -41z" />
    <glyph glyph-name="Otilde" unicode="&#xd5;" horiz-adv-x="739" 
d="M544 762q-32 0 -77 30q-26 18 -44 18q-32 0 -57 -50l-84 41q53 110 128 110q37 0 76 -26q30 -20 44 -20q34 0 58 48l84 -32q-52 -119 -128 -119zM339 -9q-132 0 -210.5 79.5t-78.5 221.5q0 114 45.5 210.5t132.5 156.5t198 60q132 0 211 -79.5t79 -219.5
q0 -118 -43.5 -214.5t-130.5 -155.5t-203 -59zM351 141q86 0 142 78t56 192q0 79 -37.5 119t-100.5 40q-82 0 -138 -81t-56 -187q0 -79 36.5 -120t97.5 -41z" />
    <glyph glyph-name="Odieresis" unicode="&#xd6;" horiz-adv-x="739" 
d="M359 757q-39 0 -64.5 24.5t-25.5 61.5q0 38 26 63t67 25q40 0 65 -24t25 -61q0 -39 -26 -64t-67 -25zM576 757q-39 0 -64.5 24.5t-25.5 61.5q0 39 26 63.5t68 24.5q39 0 64 -24t25 -61q0 -39 -26 -64t-67 -25zM339 -9q-132 0 -210.5 79.5t-78.5 221.5q0 114 45.5 210.5
t132.5 156.5t198 60q132 0 211 -79.5t79 -219.5q0 -118 -43.5 -214.5t-130.5 -155.5t-203 -59zM351 141q86 0 142 78t56 192q0 79 -37.5 119t-100.5 40q-82 0 -138 -81t-56 -187q0 -79 36.5 -120t97.5 -41z" />
    <glyph glyph-name="multiply" unicode="&#xd7;" horiz-adv-x="491" 
d="M109 56l-81 89l132 133l-99 132l99 89l98 -132l132 133l82 -90l-133 -133l99 -133l-98 -89l-100 133z" />
    <glyph glyph-name="Oslash" unicode="&#xd8;" horiz-adv-x="741" 
d="M746 679l-75 -80q47 -74 47 -179q0 -118 -43.5 -214.5t-130.5 -155.5t-203 -59q-114 0 -188 59l-79 -84l-62 62l83 88q-43 72 -43 176q0 114 45.5 210.5t132.5 156.5t198 60t184 -56l72 76zM219 302q0 -25 5 -50l275 291q-35 27 -86 27q-82 0 -138 -81t-56 -187zM551 411
q0 31 -6 55l-278 -295q35 -30 86 -30q86 0 142 78t56 192z" />
    <glyph glyph-name="Ugrave" unicode="&#xd9;" horiz-adv-x="653" 
d="M326 761l-94 140l150 -1l81 -139h-137zM299 -9q-139 0 -194.5 85.5t-36.5 241.5l49 392h160l-50 -405q-20 -164 85 -164q53 0 85.5 36t42.5 120l51 413h160l-51 -417q-20 -161 -93.5 -231.5t-207.5 -70.5z" />
    <glyph glyph-name="Uacute" unicode="&#xda;" horiz-adv-x="653" 
d="M313 761l115 139l151 1l-131 -140h-135zM299 -9q-139 0 -194.5 85.5t-36.5 241.5l49 392h160l-50 -405q-20 -164 85 -164q53 0 85.5 36t42.5 120l51 413h160l-51 -417q-20 -161 -93.5 -231.5t-207.5 -70.5z" />
    <glyph glyph-name="Ucircumflex" unicode="&#xdb;" horiz-adv-x="653" 
d="M227 761l108 140h150l73 -140h-126l-32 64h-1l-48 -64h-124zM299 -9q-139 0 -194.5 85.5t-36.5 241.5l49 392h160l-50 -405q-20 -164 85 -164q53 0 85.5 36t42.5 120l51 413h160l-51 -417q-20 -161 -93.5 -231.5t-207.5 -70.5z" />
    <glyph glyph-name="Udieresis" unicode="&#xdc;" horiz-adv-x="653" 
d="M291 757q-39 0 -64.5 24.5t-25.5 61.5q0 38 26 63t67 25q40 0 65 -24t25 -61q0 -39 -26 -64t-67 -25zM508 757q-39 0 -64.5 24.5t-25.5 61.5q0 39 26 63.5t68 24.5q39 0 64 -24t25 -61q0 -39 -26 -64t-67 -25zM299 -9q-139 0 -194.5 85.5t-36.5 241.5l49 392h160
l-50 -405q-20 -164 85 -164q53 0 85.5 36t42.5 120l51 413h160l-51 -417q-20 -161 -93.5 -231.5t-207.5 -70.5z" />
    <glyph glyph-name="Yacute" unicode="&#xdd;" horiz-adv-x="581" 
d="M282 761l115 139l151 1l-131 -140h-135zM179 0l39 310l-159 400h176l79 -250h3l138 250h183l-259 -400l-38 -310h-162z" />
    <glyph glyph-name="Thorn" unicode="&#xde;" horiz-adv-x="593" 
d="M38 0l87 710h157l-14 -117h108q102 0 152 -53.5t50 -143.5q0 -127 -75 -204t-208 -77h-86l-14 -115h-157zM227 256h76q49 0 79 34t30 88q0 36 -21.5 54.5t-53.5 18.5h-86z" />
    <glyph glyph-name="germandbls" unicode="&#xdf;" horiz-adv-x="634" 
d="M423 -9q-52 0 -103 16t-81 47l73 101q19 -23 52 -36.5t58 -13.5q19 0 32 8t13 23q0 13 -12.5 23t-54.5 33q-113 61 -113 142q0 15 4 29.5t8.5 24.5t15 24t16.5 20.5t20 21t18 19.5q45 48 47 90q1 26 -19.5 40.5t-56.5 14.5q-41 0 -67.5 -26t-33.5 -78l-63 -514h-150
l64 527q14 114 79.5 166t165.5 52q108 0 170 -45t60 -130q-2 -71 -66 -133q-7 -6 -18.5 -17t-17.5 -17t-13.5 -14.5t-10.5 -15.5t-3 -14q0 -25 49 -55q39 -23 53 -32t36 -28.5t29.5 -40t7.5 -49.5q0 -79 -52 -121t-136 -42z" />
    <glyph glyph-name="agrave" unicode="&#xe0;" horiz-adv-x="553" 
d="M273 557l-93 150l150 -1l80 -149h-137zM186 -9q-76 0 -117.5 56t-41.5 144q0 130 67 218.5t164 88.5q74 0 115 -43h3l4 34h151l-60 -489h-151l9 72l-3 1q-57 -82 -140 -82zM234 124q42 0 79.5 51.5t49.5 139.5l2 14q-33 35 -81 35q-47 0 -76.5 -51t-29.5 -111
q0 -35 15.5 -56.5t40.5 -21.5z" />
    <glyph glyph-name="aacute" unicode="&#xe1;" horiz-adv-x="553" 
d="M238 556l117 149l152 1l-129 -150h-140zM186 -9q-76 0 -117.5 56t-41.5 144q0 130 67 218.5t164 88.5q74 0 115 -43h3l4 34h151l-60 -489h-151l9 72l-3 1q-57 -82 -140 -82zM234 124q42 0 79.5 51.5t49.5 139.5l2 14q-33 35 -81 35q-47 0 -76.5 -51t-29.5 -111
q0 -35 15.5 -56.5t40.5 -21.5z" />
    <glyph glyph-name="acircumflex" unicode="&#xe2;" horiz-adv-x="553" 
d="M154 555l115 152h131l84 -152h-130l-24 74h-1l-42 -74h-133zM186 -9q-76 0 -117.5 56t-41.5 144q0 130 67 218.5t164 88.5q74 0 115 -43h3l4 34h151l-60 -489h-151l9 72l-3 1q-57 -82 -140 -82zM234 124q42 0 79.5 51.5t49.5 139.5l2 14q-33 35 -81 35q-47 0 -76.5 -51
t-29.5 -111q0 -35 15.5 -56.5t40.5 -21.5z" />
    <glyph glyph-name="atilde" unicode="&#xe3;" horiz-adv-x="553" 
d="M403 551q-33 0 -76 30q-24 18 -44 18q-33 0 -58 -51l-84 42q50 120 129 120q8 0 15.5 -1t14.5 -3t11.5 -3.5t10.5 -5t8.5 -5t8 -5t6.5 -4.5q27 -19 42 -19q35 0 60 49l84 -34q-23 -59 -55.5 -93.5t-72.5 -34.5zM186 -9q-76 0 -117.5 56t-41.5 144q0 130 67 218.5
t164 88.5q74 0 115 -43h3l4 34h151l-60 -489h-151l9 72l-3 1q-57 -82 -140 -82zM234 124q42 0 79.5 51.5t49.5 139.5l2 14q-33 35 -81 35q-47 0 -76.5 -51t-29.5 -111q0 -35 15.5 -56.5t40.5 -21.5z" />
    <glyph glyph-name="adieresis" unicode="&#xe4;" horiz-adv-x="553" 
d="M221 552q-39 0 -64.5 24.5t-25.5 61.5q0 38 26 63t67 25q40 0 65 -24t25 -61q0 -39 -26 -64t-67 -25zM438 552q-39 0 -64.5 24.5t-25.5 61.5q0 39 26 63.5t68 24.5q39 0 64 -24t25 -61q0 -39 -26 -64t-67 -25zM186 -9q-76 0 -117.5 56t-41.5 144q0 130 67 218.5t164 88.5
q74 0 115 -43h3l4 34h151l-60 -489h-151l9 72l-3 1q-57 -82 -140 -82zM234 124q42 0 79.5 51.5t49.5 139.5l2 14q-33 35 -81 35q-47 0 -76.5 -51t-29.5 -111q0 -35 15.5 -56.5t40.5 -21.5z" />
    <glyph glyph-name="aring" unicode="&#xe5;" horiz-adv-x="553" 
d="M332 538q-45 0 -75 30.5t-30 74.5q0 45 31 75.5t77 30.5q45 0 74.5 -29.5t29.5 -73.5q0 -46 -30.5 -77t-76.5 -31zM334 608q15 0 25.5 10.5t10.5 26.5q0 14 -10.5 24.5t-24.5 10.5q-16 0 -27 -10.5t-11 -25.5q0 -16 10.5 -26t26.5 -10zM186 -9q-76 0 -117.5 56t-41.5 144
q0 130 67 218.5t164 88.5q74 0 115 -43h3l4 34h151l-60 -489h-151l9 72l-3 1q-57 -82 -140 -82zM234 124q42 0 79.5 51.5t49.5 139.5l2 14q-33 35 -81 35q-47 0 -76.5 -51t-29.5 -111q0 -35 15.5 -56.5t40.5 -21.5z" />
    <glyph glyph-name="ae" unicode="&#xe6;" horiz-adv-x="689" 
d="M477 115q51 0 92 53l96 -92q-73 -85 -196 -85q-121 0 -161 87q-51 -88 -140 -88q-69 0 -111.5 50t-42.5 136q0 136 73 225.5t198 89.5q66 0 115 -25q54 32 122 32q69 0 118.5 -33.5t49.5 -99.5q0 -58 -41.5 -99t-103.5 -61.5t-144 -28.5q6 -31 27 -46t49 -15zM509 373
q-32 0 -61.5 -29.5t-41.5 -77.5q139 16 139 75q0 32 -36 32zM200 118q48 0 83 162q11 51 31 89h-10q-61 0 -100.5 -54.5t-39.5 -132.5q0 -31 10 -47.5t26 -16.5z" />
    <glyph glyph-name="ccedilla" unicode="&#xe7;" horiz-adv-x="479" 
d="M251 125q48 0 89 50l100 -94q-71 -87 -188 -90l-15 -21l1 -1q75 -3 75 -66q0 -47 -34.5 -71t-94.5 -24q-33 0 -54 6l2 61q16 -6 39 -6q53 0 53 33q0 25 -65 25l1 38l20 32q-73 15 -112.5 68t-39.5 140q0 77 29 142t91 108t146 43q119 0 179 -84l-107 -98q-26 49 -75 49
q-48 0 -80 -44.5t-32 -103.5q0 -44 20 -68t52 -24z" />
    <glyph glyph-name="egrave" unicode="&#xe8;" horiz-adv-x="477" 
d="M384 557h-137l-93 150l150 -1zM252 115q51 0 92 53l97 -92q-73 -85 -199 -85q-100 0 -157.5 55.5t-57.5 157.5q1 123 75 208.5t195 85.5q70 0 120 -33t50 -99q0 -45 -24.5 -80t-68 -56.5t-92.5 -34t-108 -18.5q15 -62 78 -62zM284 373q-34 0 -63.5 -28.5t-42.5 -77.5
q145 15 145 74q0 32 -39 32z" />
    <glyph glyph-name="eacute" unicode="&#xe9;" horiz-adv-x="477" 
d="M493 706l-129 -150h-140l117 149zM467 366q0 -45 -24.5 -80t-68 -56.5t-92.5 -34t-108 -18.5q15 -62 78 -62q51 0 92 53l97 -92q-73 -85 -199 -85q-100 0 -157.5 55.5t-57.5 157.5q1 123 75 208.5t195 85.5q70 0 120 -33t50 -99zM178 267q145 15 145 74q0 32 -39 32
q-34 0 -63.5 -28.5t-42.5 -77.5z" />
    <glyph glyph-name="ecircumflex" unicode="&#xea;" horiz-adv-x="477" 
d="M305 629l-42 -74h-133l115 152h131l84 -152h-130l-24 74h-1zM252 115q51 0 92 53l97 -92q-73 -85 -199 -85q-100 0 -157.5 55.5t-57.5 157.5q1 123 75 208.5t195 85.5q70 0 120 -33t50 -99q0 -45 -24.5 -80t-68 -56.5t-92.5 -34t-108 -18.5q15 -62 78 -62zM284 373
q-34 0 -63.5 -28.5t-42.5 -77.5q145 15 145 74q0 32 -39 32z" />
    <glyph glyph-name="edieresis" unicode="&#xeb;" horiz-adv-x="477" 
d="M197 552q-39 0 -64.5 24.5t-25.5 61.5q0 38 26 63t67 25q40 0 65 -24t25 -61q0 -39 -26 -64t-67 -25zM418 726q39 0 64 -24t25 -61q0 -39 -26 -64t-67 -25q-39 0 -64.5 24.5t-25.5 61.5q0 39 26 63.5t68 24.5zM467 366q0 -45 -24.5 -80t-68 -56.5t-92.5 -34t-108 -18.5
q15 -62 78 -62q51 0 92 53l97 -92q-73 -85 -199 -85q-100 0 -157.5 55.5t-57.5 157.5q1 123 75 208.5t195 85.5q70 0 120 -33t50 -99zM178 267q145 15 145 74q0 32 -39 32q-34 0 -63.5 -28.5t-42.5 -77.5z" />
    <glyph glyph-name="igrave" unicode="&#xec;" horiz-adv-x="268" 
d="M98 560l-56 150l151 -1l43 -149h-138zM28 0l60 489h150l-60 -489h-150z" />
    <glyph glyph-name="iacute" unicode="&#xed;" horiz-adv-x="268" 
d="M104 556l117 149l152 1l-129 -150h-140zM29 0l60 489h150l-60 -489h-150z" />
    <glyph glyph-name="icircumflex" unicode="&#xee;" horiz-adv-x="268" 
d="M8 555l115 152h131l84 -152h-130l-24 74h-1l-42 -74h-133zM29 0l60 489h150l-60 -489h-150z" />
    <glyph glyph-name="idieresis" unicode="&#xef;" horiz-adv-x="268" 
d="M223 726q35 0 58 -24t23 -61t-24.5 -62.5t-59.5 -25.5q-17 0 -35 8q-16 -8 -35 -8q-35 0 -58.5 24.5t-23.5 60.5q0 37 24.5 62.5t60.5 25.5q16 0 34 -7q19 7 36 7zM29 0l60 489h150l-60 -489h-150z" />
    <glyph glyph-name="eth" unicode="&#xf0;" horiz-adv-x="532" 
d="M452 543q56 -99 55 -224q-1 -69 -16.5 -127t-47 -103.5t-83.5 -71.5t-120 -26q-99 0 -155.5 57.5t-56.5 154.5q0 114 68.5 193.5t162.5 79.5q44 0 78 -19q-5 15 -10 25q-13 27 -31 49t-46 43.5t-45 32.5t-56 35l63 103q71 -31 130 -76l81 98l79 -72l-85 -101
q21 -26 35 -51zM245 124q53 0 82 56t31 145q-30 24 -68 24q-47 0 -79 -43.5t-32 -95.5q0 -43 20 -64.5t46 -21.5z" />
    <glyph glyph-name="ntilde" unicode="&#xf1;" horiz-adv-x="547" 
d="M409 551q-33 0 -76 30q-24 18 -44 18q-33 0 -58 -51l-84 42q50 120 129 120q8 0 15.5 -1t14.5 -3t11.5 -3.5t10.5 -5t8.5 -5t8 -5t6.5 -4.5q27 -19 42 -19q35 0 60 49l84 -34q-23 -59 -55.5 -93.5t-72.5 -34.5zM25 0l61 489h149l-8 -68l2 -1q67 78 162 78q70 0 98 -48.5
t15 -150.5l-39 -299h-149l35 265q7 51 0.5 75t-29.5 24q-38 0 -76 -49t-49 -134l-22 -181h-150z" />
    <glyph glyph-name="ograve" unicode="&#xf2;" horiz-adv-x="535" 
d="M248 557l-93 150l150 -1l80 -149h-137zM235 -9q-94 0 -150.5 55.5t-56.5 155.5q0 125 72.5 210.5t198.5 85.5q95 0 151.5 -55.5t56.5 -155.5q0 -127 -69.5 -211.5t-202.5 -84.5zM250 125q45 0 75 45t30 104q0 50 -21.5 70t-48.5 20q-46 0 -75.5 -46.5t-29.5 -103.5
q0 -49 21.5 -69t48.5 -20z" />
    <glyph glyph-name="oacute" unicode="&#xf3;" horiz-adv-x="535" 
d="M242 556l117 149l152 1l-129 -150h-140zM235 -9q-94 0 -150.5 55.5t-56.5 155.5q0 125 72.5 210.5t198.5 85.5q95 0 151.5 -55.5t56.5 -155.5q0 -127 -69.5 -211.5t-202.5 -84.5zM250 125q45 0 75 45t30 104q0 50 -21.5 70t-48.5 20q-46 0 -75.5 -46.5t-29.5 -103.5
q0 -49 21.5 -69t48.5 -20z" />
    <glyph glyph-name="ocircumflex" unicode="&#xf4;" horiz-adv-x="535" 
d="M147 555l115 152h131l84 -152h-130l-24 74h-1l-42 -74h-133zM235 -9q-94 0 -150.5 55.5t-56.5 155.5q0 125 72.5 210.5t198.5 85.5q95 0 151.5 -55.5t56.5 -155.5q0 -127 -69.5 -211.5t-202.5 -84.5zM250 125q45 0 75 45t30 104q0 50 -21.5 70t-48.5 20
q-46 0 -75.5 -46.5t-29.5 -103.5q0 -49 21.5 -69t48.5 -20z" />
    <glyph glyph-name="otilde" unicode="&#xf5;" horiz-adv-x="535" 
d="M396 551q-34 0 -76 30q-24 18 -44 18q-33 0 -58 -51l-84 42q50 120 129 120q35 0 75 -27q27 -19 42 -19q36 0 60 49l84 -34q-23 -59 -55.5 -93.5t-72.5 -34.5zM235 -9q-94 0 -150.5 55.5t-56.5 155.5q0 125 72.5 210.5t198.5 85.5q95 0 151.5 -55.5t56.5 -155.5
q0 -127 -69.5 -211.5t-202.5 -84.5zM250 125q45 0 75 45t30 104q0 50 -21.5 70t-48.5 20q-46 0 -75.5 -46.5t-29.5 -103.5q0 -49 21.5 -69t48.5 -20z" />
    <glyph glyph-name="odieresis" unicode="&#xf6;" horiz-adv-x="535" 
d="M214 552q-39 0 -64.5 24.5t-25.5 61.5q0 38 26 63t67 25q40 0 65 -24t25 -61q0 -39 -26 -64t-67 -25zM431 552q-39 0 -64.5 24.5t-25.5 61.5q0 39 26 63.5t68 24.5q39 0 64 -24t25 -61q0 -39 -26 -64t-67 -25zM235 -9q-94 0 -150.5 55.5t-56.5 155.5q0 125 72.5 210.5
t198.5 85.5q95 0 151.5 -55.5t56.5 -155.5q0 -127 -69.5 -211.5t-202.5 -84.5zM250 125q45 0 75 45t30 104q0 50 -21.5 70t-48.5 20q-46 0 -75.5 -46.5t-29.5 -103.5q0 -49 21.5 -69t48.5 -20z" />
    <glyph glyph-name="divide" unicode="&#xf7;" horiz-adv-x="520" 
d="M292 396q-37 0 -61 22.5t-24 57.5q0 36 24.5 59.5t63.5 23.5q37 0 60.5 -22.5t23.5 -57.5q0 -36 -24.5 -59.5t-62.5 -23.5zM52 214l16 126h430l-15 -126h-431zM248 -8q-37 0 -61 22.5t-24 57.5q0 36 24.5 59.5t63.5 23.5q37 0 60.5 -22.5t23.5 -57.5q0 -36 -24.5 -59.5
t-62.5 -23.5z" />
    <glyph glyph-name="oslash" unicode="&#xf8;" horiz-adv-x="536" 
d="M525 464l-50 -52q32 -50 32 -125q0 -127 -69.5 -211.5t-202.5 -84.5q-74 0 -126 35l-48 -50l-46 46l48 50q-35 54 -35 130q0 125 72.5 210.5t198.5 85.5q81 0 132 -39l48 50zM180 214q0 -12 1 -18l146 154q-17 14 -42 14q-46 0 -75.5 -46.5t-29.5 -103.5zM355 274v11
l-142 -149q17 -11 37 -11q45 0 75 45t30 104z" />
    <glyph glyph-name="ugrave" unicode="&#xf9;" horiz-adv-x="539" 
d="M240 557l-93 150l150 -1l80 -149h-137zM167 -9q-153 0 -125 194l42 304h149l-37 -259q-8 -59 -1 -82t33 -23q32 0 67.5 43.5t42.5 96.5l27 224h150l-60 -489h-147l6 72h-2q-60 -81 -145 -81z" />
    <glyph glyph-name="uacute" unicode="&#xfa;" horiz-adv-x="539" 
d="M242 556l117 149l152 1l-129 -150h-140zM167 -9q-153 0 -125 194l42 304h149l-37 -259q-8 -59 -1 -82t33 -23q32 0 67.5 43.5t42.5 96.5l27 224h150l-60 -489h-147l6 72h-2q-60 -81 -145 -81z" />
    <glyph glyph-name="ucircumflex" unicode="&#xfb;" horiz-adv-x="539" 
d="M144 555l115 152h131l84 -152h-130l-24 74h-1l-42 -74h-133zM167 -9q-153 0 -125 194l42 304h149l-37 -259q-8 -59 -1 -82t33 -23q32 0 67.5 43.5t42.5 96.5l27 224h150l-60 -489h-147l6 72h-2q-60 -81 -145 -81z" />
    <glyph glyph-name="udieresis" unicode="&#xfc;" horiz-adv-x="539" 
d="M211 552q-39 0 -64.5 24.5t-25.5 61.5q0 38 26 63t67 25q40 0 65 -24t25 -61q0 -39 -26 -64t-67 -25zM428 552q-39 0 -64.5 24.5t-25.5 61.5q0 39 26 63.5t68 24.5q39 0 64 -24t25 -61q0 -39 -26 -64t-67 -25zM167 -9q-153 0 -125 194l42 304h149l-37 -259q-8 -59 -1 -82
t33 -23q32 0 67.5 43.5t42.5 96.5l27 224h150l-60 -489h-147l6 72h-2q-60 -81 -145 -81z" />
    <glyph glyph-name="yacute" unicode="&#xfd;" horiz-adv-x="534" 
d="M496 706l-129 -150h-140l117 149zM363 489h149l-52 -423q-32 -273 -275 -273q-98 0 -180 43l57 116q50 -36 119 -36q53 0 85.5 31.5t44.5 121.5v1l-3 1q-59 -80 -148 -80q-150 0 -122 194l42 304h149l-36 -259q-8 -59 -1.5 -82t33.5 -23q33 0 68.5 44.5t41.5 96.5z" />
    <glyph glyph-name="thorn" unicode="&#xfe;" horiz-adv-x="558" 
d="M1 -198l115 934h150l-39 -320l1 -2q58 84 147 84q74 0 114.5 -56.5t40.5 -143.5q0 -130 -67.5 -218.5t-166.5 -88.5q-71 0 -114 33l-4 -1l-27 -221h-150zM256 124q58 0 91 47t33 112q0 36 -15 59t-40 23q-44 0 -82.5 -53t-51.5 -145l-1 -13q22 -30 66 -30z" />
    <glyph glyph-name="ydieresis" unicode="&#xff;" horiz-adv-x="534" 
d="M202 552q-39 0 -64.5 24.5t-25.5 61.5q0 38 26 63t67 25q40 0 65 -24t25 -61q0 -39 -26 -64t-67 -25zM419 552q-39 0 -64.5 24.5t-25.5 61.5q0 39 26 63.5t68 24.5q39 0 64 -24t25 -61q0 -39 -26 -64t-67 -25zM335 266l28 223h149l-52 -423q-32 -273 -275 -273
q-98 0 -180 43l57 116q50 -36 119 -36q53 0 85.5 31.5t44.5 121.5v1l-3 1q-59 -80 -148 -80q-150 0 -122 194l42 304h149l-36 -259q-8 -59 -1.5 -82t33.5 -23q33 0 68.5 44.5t41.5 96.5z" />
    <glyph glyph-name="Amacron" unicode="&#x100;" horiz-adv-x="635" 
d="M245 784l15 110h285l-14 -110h-286zM-23 0l320 710h154l146 -710h-166l-22 131h-213l-51 -131h-168zM247 266h141l-42 249h-2z" />
    <glyph glyph-name="amacron" unicode="&#x101;" horiz-adv-x="553" 
d="M182 582l15 115h285l-14 -115h-286zM186 -9q-76 0 -117.5 56t-41.5 144q0 130 67 218.5t164 88.5q74 0 115 -43h3l4 34h151l-60 -489h-151l9 72l-3 1q-57 -82 -140 -82zM234 124q42 0 79.5 51.5t49.5 139.5l2 14q-33 35 -81 35q-47 0 -76.5 -51t-29.5 -111
q0 -35 15.5 -56.5t40.5 -21.5z" />
    <glyph glyph-name="Abreve" unicode="&#x102;" horiz-adv-x="635" 
d="M384 754q-72 0 -107 39t-30 108h107q-2 -19 8 -32t31 -13q23 0 39.5 13.5t22.5 31.5h109q-14 -66 -59 -106.5t-121 -40.5zM-23 0l320 710h154l146 -710h-166l-22 131h-213l-51 -131h-168zM247 266h141l-42 249h-2z" />
    <glyph glyph-name="abreve" unicode="&#x103;" horiz-adv-x="553" 
d="M317 540q-69 0 -105 41t-32 115h108q-2 -21 8 -34.5t31 -13.5q22 0 39 14t23 34h108q-13 -71 -60 -113.5t-120 -42.5zM186 -9q-76 0 -117.5 56t-41.5 144q0 130 67 218.5t164 88.5q74 0 115 -43h3l4 34h151l-60 -489h-151l9 72l-3 1q-57 -82 -140 -82zM234 124
q42 0 79.5 51.5t49.5 139.5l2 14q-33 35 -81 35q-47 0 -76.5 -51t-29.5 -111q0 -35 15.5 -56.5t40.5 -21.5z" />
    <glyph glyph-name="Aogonek" unicode="&#x104;" horiz-adv-x="635" 
d="M575 0q-39 -3 -68 -29.5t-29 -56.5q0 -24 25 -24q21 0 33 7l2 -77q-27 -11 -74 -11q-97 0 -97 79q0 63 64 113l-22 130h-213l-51 -131h-168l320 710h154l146 -710h-22zM247 266h141l-42 249h-2z" />
    <glyph glyph-name="aogonek" unicode="&#x105;" horiz-adv-x="553" 
d="M380 489h151l-60 -489h-12q-39 -3 -68 -29.5t-29 -56.5q0 -24 25 -24q21 0 33 7l2 -77q-28 -11 -74 -11q-97 0 -97 79q0 32 19.5 64t50.5 53l8 67l-3 1q-57 -82 -140 -82q-76 0 -117.5 56t-41.5 144q0 130 67 218.5t164 88.5q74 0 115 -43h3zM234 124q42 0 79.5 51.5
t49.5 139.5l2 14q-33 35 -81 35q-47 0 -76.5 -51t-29.5 -111q0 -35 15.5 -56.5t40.5 -21.5z" />
    <glyph glyph-name="Cacute" unicode="&#x106;" horiz-adv-x="655" 
d="M352 761l115 139l151 1l-131 -140h-135zM345 -9q-135 0 -215 77.5t-80 226.5q0 178 103.5 301t270.5 123q172 0 250 -132l-124 -111q-49 90 -134 90q-87 0 -142 -79.5t-55 -180.5q0 -78 35.5 -119.5t100.5 -41.5q87 0 152 74l98 -125q-102 -103 -260 -103z" />
    <glyph glyph-name="cacute" unicode="&#x107;" horiz-adv-x="479" 
d="M231 556l117 149l152 1l-129 -150h-140zM242 -9q-102 0 -158 55t-56 159q0 77 29 142t91 108t146 43q119 0 179 -84l-107 -98q-26 49 -75 49q-48 0 -80 -44.5t-32 -103.5q0 -44 20 -68t52 -24q48 0 89 50l100 -94q-73 -90 -198 -90z" />
    <glyph glyph-name="Ccircumflex" unicode="&#x108;" horiz-adv-x="655" 
d="M284 761l108 140h150l73 -140h-126l-32 64h-1l-48 -64h-124zM345 -9q-135 0 -215 77.5t-80 226.5q0 178 103.5 301t270.5 123q172 0 250 -132l-124 -111q-49 90 -134 90q-87 0 -142 -79.5t-55 -180.5q0 -78 35.5 -119.5t100.5 -41.5q87 0 152 74l98 -125
q-102 -103 -260 -103z" />
    <glyph glyph-name="ccircumflex" unicode="&#x109;" horiz-adv-x="479" 
d="M144 555l115 152h131l84 -152h-130l-24 74h-1l-42 -74h-133zM242 -9q-102 0 -158 55t-56 159q0 77 29 142t91 108t146 43q119 0 179 -84l-107 -98q-26 49 -75 49q-48 0 -80 -44.5t-32 -103.5q0 -44 20 -68t52 -24q48 0 89 50l100 -94q-73 -90 -198 -90z" />
    <glyph glyph-name="Cdotaccent" unicode="&#x10a;" horiz-adv-x="655" 
d="M456 757q-39 0 -64.5 24.5t-25.5 61.5q0 38 26 63t67 25q40 0 65 -24t25 -61q0 -39 -26 -64t-67 -25zM345 -9q-135 0 -215 77.5t-80 226.5q0 178 103.5 301t270.5 123q172 0 250 -132l-124 -111q-49 90 -134 90q-87 0 -142 -79.5t-55 -180.5q0 -78 35.5 -119.5
t100.5 -41.5q87 0 152 74l98 -125q-102 -103 -260 -103z" />
    <glyph glyph-name="cdotaccent" unicode="&#x10b;" horiz-adv-x="479" 
d="M318 552q-39 0 -64.5 24.5t-25.5 61.5q0 38 26 63t67 25q40 0 65 -24t25 -61q0 -39 -26 -64t-67 -25zM242 -9q-102 0 -158 55t-56 159q0 77 29 142t91 108t146 43q119 0 179 -84l-107 -98q-26 49 -75 49q-48 0 -80 -44.5t-32 -103.5q0 -44 20 -68t52 -24q48 0 89 50
l100 -94q-73 -90 -198 -90z" />
    <glyph glyph-name="Ccaron" unicode="&#x10c;" horiz-adv-x="655" 
d="M375 761l-74 140h127l31 -63h2l47 63h124l-107 -140h-150zM345 -9q-135 0 -215 77.5t-80 226.5q0 178 103.5 301t270.5 123q172 0 250 -132l-124 -111q-49 90 -134 90q-87 0 -142 -79.5t-55 -180.5q0 -78 35.5 -119.5t100.5 -41.5q87 0 152 74l98 -125
q-102 -103 -260 -103z" />
    <glyph glyph-name="ccaron" unicode="&#x10d;" horiz-adv-x="479" 
d="M237 547l-71 149h126l29 -71h2l46 71h125l-107 -149h-150zM242 -9q-102 0 -158 55t-56 159q0 77 29 142t91 108t146 43q119 0 179 -84l-107 -98q-26 49 -75 49q-48 0 -80 -44.5t-32 -103.5q0 -44 20 -68t52 -24q48 0 89 50l100 -94q-73 -90 -198 -90z" />
    <glyph glyph-name="Dcaron" unicode="&#x10e;" horiz-adv-x="666" 
d="M313 760l-74 140h127l31 -63h2l47 63h124l-107 -140h-150zM38 0l87 710h224q144 0 218.5 -78t74.5 -217q0 -187 -103 -301t-281 -114h-220zM212 143h64q95 0 147.5 76t52.5 193q0 155 -145 155h-67z" />
    <glyph glyph-name="dcaron" unicode="&#x10f;" horiz-adv-x="605" 
d="M592 577l56 215h142l-93 -215h-105zM187 -9q-77 0 -118.5 56t-41.5 144q0 130 67 218.5t164 88.5q72 0 117 -43h3l34 281h151l-91 -736h-150l9 72l-3 1q-58 -82 -141 -82zM234 124q42 0 80 51.5t51 139.5l2 14q-32 35 -83 35q-47 0 -76.5 -51t-29.5 -111
q0 -35 15.5 -56.5t40.5 -21.5z" />
    <glyph glyph-name="Dcroat" unicode="&#x110;" horiz-adv-x="668" 
d="M350 710q144 0 218.5 -78t74.5 -217q0 -187 -103 -301t-281 -114h-220l34 281h-46l19 135h44l36 294h224zM277 143q95 0 147.5 76t52.5 193q0 155 -145 155h-67l-19 -151h113l-19 -135h-110l-17 -138h64z" />
    <glyph glyph-name="dcroat" unicode="&#x111;" horiz-adv-x="539" 
d="M592 637l-11 -90h-41l-68 -547h-150l9 72l-3 1q-58 -82 -141 -82q-77 0 -118.5 56t-41.5 144q0 130 67 218.5t164 88.5q72 0 117 -43h3l11 92h-158l11 90h158l12 99h151l-12 -99h41zM365 315l2 14q-32 35 -83 35q-47 0 -76.5 -51t-29.5 -111q0 -35 15.5 -56.5t40.5 -21.5
q42 0 80 51.5t51 139.5z" />
    <glyph glyph-name="Emacron" unicode="&#x112;" horiz-adv-x="569" 
d="M216 783l15 110h285l-14 -110h-286zM37 0l87 710h448l-18 -143h-291l-18 -145h263l-16 -138h-263l-18 -141h306l-18 -143h-462z" />
    <glyph glyph-name="emacron" unicode="&#x113;" horiz-adv-x="477" 
d="M458 697l-14 -115h-286l15 115h285zM252 115q51 0 92 53l97 -92q-73 -85 -199 -85q-100 0 -157.5 55.5t-57.5 157.5q1 123 75 208.5t195 85.5q70 0 120 -33t50 -99q0 -45 -24.5 -80t-68 -56.5t-92.5 -34t-108 -18.5q15 -62 78 -62zM284 373q-34 0 -63.5 -28.5
t-42.5 -77.5q145 15 145 74q0 32 -39 32z" />
    <glyph glyph-name="Ebreve" unicode="&#x114;" horiz-adv-x="569" 
d="M355 753q-72 0 -107 39t-30 108h107q-2 -19 8 -32t31 -13q23 0 39.5 13.5t22.5 31.5h109q-14 -66 -59 -106.5t-121 -40.5zM37 0l87 710h448l-18 -143h-291l-18 -145h263l-16 -138h-263l-18 -141h306l-18 -143h-462z" />
    <glyph glyph-name="ebreve" unicode="&#x115;" horiz-adv-x="477" 
d="M293 540q-69 0 -105 41t-32 115h108q-2 -21 8 -34.5t31 -13.5q22 0 39 14t23 34h108q-13 -71 -60 -113.5t-120 -42.5zM467 366q0 -45 -24.5 -80t-68 -56.5t-92.5 -34t-108 -18.5q15 -62 78 -62q51 0 92 53l97 -92q-73 -85 -199 -85q-100 0 -157.5 55.5t-57.5 157.5
q1 123 75 208.5t195 85.5q70 0 120 -33t50 -99zM178 267q145 15 145 74q0 32 -39 32q-34 0 -63.5 -28.5t-42.5 -77.5z" />
    <glyph glyph-name="Edotaccent" unicode="&#x116;" horiz-adv-x="569" 
d="M363 756q-39 0 -64.5 24.5t-25.5 61.5q0 38 26 63t67 25q40 0 65 -24t25 -61q0 -39 -26 -64t-67 -25zM37 0l87 710h448l-18 -143h-291l-18 -145h263l-16 -138h-263l-18 -141h306l-18 -143h-462z" />
    <glyph glyph-name="edotaccent" unicode="&#x117;" horiz-adv-x="477" 
d="M304 552q-39 0 -64.5 24.5t-25.5 61.5q0 38 26 63t67 25q40 0 65 -24t25 -61q0 -39 -26 -64t-67 -25zM252 115q51 0 92 53l97 -92q-73 -85 -199 -85q-100 0 -157.5 55.5t-57.5 157.5q1 123 75 208.5t195 85.5q70 0 120 -33t50 -99q0 -45 -24.5 -80t-68 -56.5t-92.5 -34
t-108 -18.5q15 -62 78 -62zM284 373q-34 0 -63.5 -28.5t-42.5 -77.5q145 15 145 74q0 32 -39 32z" />
    <glyph glyph-name="Eogonek" unicode="&#x118;" horiz-adv-x="569" 
d="M554 567h-291l-18 -145h263l-16 -138h-263l-18 -141h306l-18 -143h-2q-39 -3 -68 -29.5t-29 -56.5q0 -24 25 -24q21 0 33 7l2 -77q-28 -11 -74 -11q-97 0 -97 79q0 63 63 112h-315l87 710h448z" />
    <glyph glyph-name="eogonek" unicode="&#x119;" horiz-adv-x="477" 
d="M252 115q51 0 92 53l97 -92q-46 -54 -112 -73q-40 -14 -66.5 -38t-26.5 -51q0 -24 27 -24q17 0 31 7l2 -77q-28 -11 -73 -11q-98 0 -98 79q0 59 56 107v2q-73 16 -113.5 69.5t-40.5 137.5q1 123 75 208.5t195 85.5q70 0 120 -33t50 -99q0 -45 -24.5 -80t-68 -56.5
t-92.5 -34t-108 -18.5q15 -62 78 -62zM284 373q-34 0 -63.5 -28.5t-42.5 -77.5q145 15 145 74q0 32 -39 32z" />
    <glyph glyph-name="Ecaron" unicode="&#x11a;" horiz-adv-x="569" 
d="M282 760l-74 140h127l31 -63h2l47 63h124l-107 -140h-150zM37 0l87 710h448l-18 -143h-291l-18 -145h263l-16 -138h-263l-18 -141h306l-18 -143h-462z" />
    <glyph glyph-name="ecaron" unicode="&#x11b;" horiz-adv-x="477" 
d="M373 547h-150l-71 149h126l29 -71h2l46 71h125zM467 366q0 -45 -24.5 -80t-68 -56.5t-92.5 -34t-108 -18.5q15 -62 78 -62q51 0 92 53l97 -92q-73 -85 -199 -85q-100 0 -157.5 55.5t-57.5 157.5q1 123 75 208.5t195 85.5q70 0 120 -33t50 -99zM178 267q145 15 145 74
q0 32 -39 32q-34 0 -63.5 -28.5t-42.5 -77.5z" />
    <glyph glyph-name="Gcircumflex" unicode="&#x11c;" horiz-adv-x="690" 
d="M273 760l108 140h150l73 -140h-126l-32 64h-1l-48 -64h-124zM345 -9q-135 0 -214.5 77.5t-79.5 226.5q0 116 45 212t132.5 154t201.5 58q175 0 251 -126l-124 -108q-53 81 -139 81q-88 0 -143.5 -79.5t-55.5 -182.5q0 -80 36.5 -122.5t103.5 -42.5q69 0 117 31l13 91
h-118l17 134h270l-39 -322q-47 -37 -121.5 -59.5t-152.5 -22.5z" />
    <glyph glyph-name="gcircumflex" unicode="&#x11d;" horiz-adv-x="551" 
d="M330 629l-42 -74h-133l115 152h131l84 -152h-130l-24 74h-1zM378 489h150l-52 -426q-33 -270 -282 -270q-109 0 -187 44l61 115q61 -32 121 -32t93.5 34t46.5 133l-3 1q-58 -82 -141 -82q-75 0 -116 54.5t-41 136.5q0 126 67 213.5t163 87.5q75 0 114 -41l3 1zM361 315
l2 16q-33 33 -79 33t-75.5 -49.5t-29.5 -103.5q0 -35 14.5 -53.5t40.5 -18.5q41 0 78 49t49 127z" />
    <glyph glyph-name="Gbreve" unicode="&#x11e;" horiz-adv-x="690" 
d="M437 753q-72 0 -107 39t-30 108h107q-2 -19 8 -32t31 -13q23 0 39.5 13.5t22.5 31.5h109q-14 -66 -59 -106.5t-121 -40.5zM345 -9q-135 0 -214.5 77.5t-79.5 226.5q0 116 45 212t132.5 154t201.5 58q175 0 251 -126l-124 -108q-53 81 -139 81q-88 0 -143.5 -79.5
t-55.5 -182.5q0 -80 36.5 -122.5t103.5 -42.5q69 0 117 31l13 91h-118l17 134h270l-39 -322q-47 -37 -121.5 -59.5t-152.5 -22.5z" />
    <glyph glyph-name="gbreve" unicode="&#x11f;" horiz-adv-x="551" 
d="M318 540q-69 0 -105 41t-32 115h108q-2 -21 8 -34.5t31 -13.5q22 0 39 14t23 34h108q-13 -71 -60 -113.5t-120 -42.5zM378 489h150l-52 -426q-33 -270 -282 -270q-109 0 -187 44l61 115q61 -32 121 -32t93.5 34t46.5 133l-3 1q-58 -82 -141 -82q-75 0 -116 54.5
t-41 136.5q0 126 67 213.5t163 87.5q75 0 114 -41l3 1zM361 315l2 16q-33 33 -79 33t-75.5 -49.5t-29.5 -103.5q0 -35 14.5 -53.5t40.5 -18.5q41 0 78 49t49 127z" />
    <glyph glyph-name="Gdotaccent" unicode="&#x120;" horiz-adv-x="690" 
d="M445 756q-39 0 -64.5 24.5t-25.5 61.5q0 38 26 63t67 25q40 0 65 -24t25 -61q0 -39 -26 -64t-67 -25zM345 -9q-135 0 -214.5 77.5t-79.5 226.5q0 116 45 212t132.5 154t201.5 58q175 0 251 -126l-124 -108q-53 81 -139 81q-88 0 -143.5 -79.5t-55.5 -182.5
q0 -80 36.5 -122.5t103.5 -42.5q69 0 117 31l13 91h-118l17 134h270l-39 -322q-47 -37 -121.5 -59.5t-152.5 -22.5z" />
    <glyph glyph-name="gdotaccent" unicode="&#x121;" horiz-adv-x="551" 
d="M329 552q-39 0 -64.5 24.5t-25.5 61.5q0 38 26 63t67 25q40 0 65 -24t25 -61q0 -39 -26 -64t-67 -25zM378 489h150l-52 -426q-33 -270 -282 -270q-109 0 -187 44l61 115q61 -32 121 -32t93.5 34t46.5 133l-3 1q-58 -82 -141 -82q-75 0 -116 54.5t-41 136.5
q0 126 67 213.5t163 87.5q75 0 114 -41l3 1zM361 315l2 16q-33 33 -79 33t-75.5 -49.5t-29.5 -103.5q0 -35 14.5 -53.5t40.5 -18.5q41 0 78 49t49 127z" />
    <glyph glyph-name="Gcommaaccent" unicode="&#x122;" horiz-adv-x="690" 
d="M345 -9q-135 0 -214.5 77.5t-79.5 226.5q0 116 45 212t132.5 154t201.5 58q175 0 251 -126l-124 -108q-53 81 -139 81q-88 0 -143.5 -79.5t-55.5 -182.5q0 -80 36.5 -122.5t103.5 -42.5q69 0 117 31l13 91h-118l17 134h270l-39 -322q-47 -37 -121.5 -59.5t-152.5 -22.5z
M239 -221l-15 85q31 7 43.5 19.5t12.5 38.5q0 5 -2 25h120q2 -14 2 -23q0 -68 -42.5 -105.5t-118.5 -39.5z" />
    <glyph glyph-name="gcommaaccent" unicode="&#x123;" horiz-adv-x="551" 
d="M389 566h-120q-2 14 -2 23q0 68 42.5 105.5t118.5 39.5l15 -85q-31 -7 -43.5 -19.5t-12.5 -38.5q0 -5 2 -25zM378 489h150l-52 -426q-33 -270 -282 -270q-109 0 -187 44l61 115q61 -32 121 -32t93.5 34t46.5 133l-3 1q-58 -82 -141 -82q-75 0 -116 54.5t-41 136.5
q0 126 67 213.5t163 87.5q75 0 114 -41l3 1zM361 315l2 16q-33 33 -79 33t-75.5 -49.5t-29.5 -103.5q0 -35 14.5 -53.5t40.5 -18.5q41 0 78 49t49 127z" />
    <glyph glyph-name="Hcircumflex" unicode="&#x124;" horiz-adv-x="670" 
d="M233 761l108 140h150l73 -140h-126l-32 64h-1l-48 -64h-124zM38 0l87 710h161l-36 -297h211l36 297h162l-88 -710h-161l33 270h-211l-33 -270h-161z" />
    <glyph glyph-name="hcircumflex" unicode="&#x125;" horiz-adv-x="547" 
d="M176 773l108 140h150l73 -140h-126l-32 64h-1l-48 -64h-124zM25 0l91 736h149l-39 -315l2 -1q67 78 163 78q70 0 98 -48.5t15 -150.5l-39 -299h-150l36 265q7 51 0.5 75t-29.5 24q-39 0 -77.5 -50.5t-48.5 -137.5l-21 -176h-150z" />
    <glyph glyph-name="Hbar" unicode="&#x126;" horiz-adv-x="672" 
d="M38 0l87 710h161l-36 -297h211l36 297h162l-88 -710h-161l33 270h-211l-33 -270h-161z" />
    <glyph glyph-name="hbar" unicode="&#x127;" horiz-adv-x="547" 
d="M391 498q70 0 98 -48.5t15 -150.5l-39 -299h-150l36 265q7 51 0.5 75t-29.5 24q-39 0 -77.5 -50.5t-48.5 -137.5l-21 -176h-150l68 547h-47l10 90h48l12 99h149l-12 -99h154l-10 -90h-155l-16 -126l2 -1q67 78 163 78z" />
    <glyph glyph-name="Itilde" unicode="&#x128;" horiz-adv-x="308" 
d="M299 761q-32 0 -77 30q-26 18 -44 18q-32 0 -57 -50l-84 41q53 110 128 110q37 0 76 -26q30 -20 44 -20q34 0 58 48l84 -32q-52 -119 -128 -119zM43 0l87 710h162l-87 -710h-162z" />
    <glyph glyph-name="itilde" unicode="&#x129;" horiz-adv-x="268" 
d="M250 543q-9 0 -17 1.5t-15.5 6t-11.5 6.5t-12 8.5t-9 7.5q-23 18 -40 18q-30 0 -55 -49l-79 40q50 108 122 108q33 0 69 -23q4 -3 11.5 -8.5t12 -8t10.5 -5t11 -2.5q29 0 53 51l79 -34q-22 -52 -55.5 -84.5t-73.5 -32.5zM29 0l60 489h150l-60 -489h-150z" />
    <glyph glyph-name="Imacron" unicode="&#x12a;" horiz-adv-x="308" 
d="M75 783l15 110h285l-14 -110h-286zM43 0l87 710h162l-87 -710h-162z" />
    <glyph glyph-name="imacron" unicode="&#x12b;" horiz-adv-x="268" 
d="M36 582l15 115h285l-14 -115h-286zM29 0l60 489h150l-60 -489h-150z" />
    <glyph glyph-name="Ibreve" unicode="&#x12c;" horiz-adv-x="308" 
d="M214 753q-72 0 -107 39t-30 108h107q-2 -19 8 -32t31 -13q23 0 39.5 13.5t22.5 31.5h109q-14 -66 -59 -106.5t-121 -40.5zM43 0l87 710h162l-87 -710h-162z" />
    <glyph glyph-name="ibreve" unicode="&#x12d;" horiz-adv-x="268" 
d="M181 550q-59 0 -95 41.5t-32 113.5h99q-5 -58 33 -58q19 0 32.5 16t16.5 42h99q-12 -69 -52.5 -112t-100.5 -43zM29 0l60 489h150l-60 -489h-150z" />
    <glyph glyph-name="Iogonek" unicode="&#x12e;" horiz-adv-x="308" 
d="M130 710h162l-87 -710h-18q-39 -3 -68 -29.5t-29 -56.5q0 -24 25 -24q21 0 33 7l2 -77q-28 -11 -74 -11q-97 0 -97 79q0 31 17.5 61t46.5 52z" />
    <glyph glyph-name="iogonek" unicode="&#x12f;" horiz-adv-x="268" 
d="M185 726q40 0 65 -24t25 -61q0 -39 -26 -64t-67 -25q-39 0 -64.5 24.5t-25.5 61.5q0 38 26 63t67 25zM30 5l59 484h150l-60 -489h-10q-39 -3 -68 -29.5t-29 -56.5q0 -24 25 -24q21 0 33 7l2 -77q-27 -11 -74 -11q-97 0 -97 79q0 32 19 63.5t50 53.5z" />
    <glyph glyph-name="Idotaccent" unicode="&#x130;" horiz-adv-x="308" 
d="M222 756q-39 0 -64.5 24.5t-25.5 61.5q0 38 26 63t67 25q40 0 65 -24t25 -61q0 -39 -26 -64t-67 -25zM43 0l87 710h162l-87 -710h-162z" />
    <glyph glyph-name="dotlessi" unicode="&#x131;" horiz-adv-x="268" 
d="M29 0l60 489h150l-60 -489h-150z" />
    <glyph glyph-name="IJ" unicode="&#x132;" horiz-adv-x="817" 
d="M43 0l87 710h162l-87 -710h-162zM511 -9q-63 0 -120.5 24t-91.5 70l102 119q43 -60 103 -60q78 0 93 123l55 443h161l-56 -450q-33 -269 -246 -269z" />
    <glyph glyph-name="ij" unicode="&#x133;" horiz-adv-x="519" 
d="M182 552q-39 0 -64.5 24.5t-25.5 61.5q0 38 26 63t67 25q40 0 65 -24t25 -61q0 -39 -26 -64t-67 -25zM438 552q-39 0 -64.5 24.5t-25.5 61.5q0 38 26 63t67 25q40 0 65 -24t25 -61q0 -39 -26 -64t-67 -25zM29 0l60 489h150l-60 -489h-150zM259 -206q-53 0 -97 23l37 115
q16 -13 37 -13q22 0 32.5 19t15.5 66l60 485h151l-63 -506q-12 -100 -55.5 -144.5t-117.5 -44.5z" />
    <glyph glyph-name="Jcircumflex" unicode="&#x134;" horiz-adv-x="509" 
d="M264 761l108 140h150l73 -140h-126l-32 64h-1l-48 -64h-124zM203 -9q-63 0 -120.5 24t-91.5 70l102 119q43 -60 103 -60q78 0 93 123l55 443h161l-56 -450q-33 -269 -246 -269z" />
    <glyph glyph-name="jcircumflex" unicode="&#x135;" horiz-adv-x="251" 
d="M-4 555l115 152h131l84 -152h-130l-24 74h-1l-42 -74h-133zM-9 -206q-53 0 -97 23l37 115q16 -13 37 -13q22 0 32.5 19t15.5 66l60 485h151l-63 -506q-12 -100 -55.5 -144.5t-117.5 -44.5z" />
    <glyph glyph-name="Kcommaaccent" unicode="&#x136;" horiz-adv-x="626" 
d="M673 710l-257 -311q125 -175 171 -399h-170q-30 161 -120 288l-75 -83l-25 -205h-159l87 710h159l-35 -289h3l233 289h188zM236 -53h120q2 -14 2 -23q0 -68 -42.5 -105.5t-118.5 -39.5l-15 85q31 7 43.5 19.5t12.5 38.5q0 5 -2 25z" />
    <glyph glyph-name="kcommaaccent" unicode="&#x137;" horiz-adv-x="514" 
d="M438 -7q-20 -2 -44 -2q-53 0 -84.5 36t-54.5 104l-9 30q-28 -18 -59 -31l-15 -130h-147l91 736h149l-56 -455l2 -1q105 74 139 209h155q-27 -142 -139 -247l14 -42q16 -49 36 -66t56 -19zM126 -221l-15 85q31 7 43.5 19.5t12.5 38.5q0 5 -2 25h120q2 -14 2 -23
q0 -68 -42.5 -105.5t-118.5 -39.5z" />
    <glyph glyph-name="kgreenlandic" unicode="&#x138;" horiz-adv-x="512" 
d="M436 -7q-20 -2 -44 -2q-53 0 -84.5 36t-54.5 104l-7 25q-27 -16 -57 -30l-14 -126h-150l61 489h149l-24 -195l4 -2q100 69 133 197h155q-27 -141 -139 -248l14 -41q16 -50 36 -66.5t56 -18.5z" />
    <glyph glyph-name="Lacute" unicode="&#x139;" horiz-adv-x="546" 
d="M254 761l115 139l151 1l-131 -140h-135zM38 0l87 710h161l-70 -567h288l-17 -143h-449z" />
    <glyph glyph-name="lacute" unicode="&#x13a;" horiz-adv-x="310" 
d="M130 774l115 139l151 1l-131 -140h-135zM170 -10q-145 0 -125 166l71 580h150l-69 -562q-7 -49 23 -49q26 0 50 18l27 -118q-47 -35 -127 -35z" />
    <glyph glyph-name="Lcommaaccent" unicode="&#x13b;" horiz-adv-x="546" 
d="M38 0l87 710h161l-70 -567h288l-17 -143h-449zM171 -221l-15 85q31 7 43.5 19.5t12.5 38.5q0 5 -2 25h120q2 -14 2 -23q0 -68 -42.5 -105.5t-118.5 -39.5z" />
    <glyph glyph-name="lcommaaccent" unicode="&#x13c;" horiz-adv-x="310" 
d="M170 -10q-145 0 -125 166l71 580h150l-69 -562q-7 -49 23 -49q26 0 50 18l27 -118q-47 -35 -127 -35zM48 -221l-15 85q31 7 43.5 19.5t12.5 38.5q0 5 -2 25h120q2 -14 2 -23q0 -68 -42.5 -105.5t-118.5 -39.5z" />
    <glyph glyph-name="Lcaron" unicode="&#x13d;" horiz-adv-x="546" 
d="M366 574l56 215h142l-93 -215h-105zM38 0l87 710h161l-70 -567h288l-17 -143h-449z" />
    <glyph glyph-name="lcaron" unicode="&#x13e;" horiz-adv-x="308" 
d="M296 577l56 215h142l-93 -215h-105zM170 -10q-145 0 -125 166l71 580h150l-69 -562q-7 -49 23 -49q26 0 50 18l27 -118q-47 -35 -127 -35z" />
    <glyph glyph-name="Ldot" unicode="&#x13f;" horiz-adv-x="540" 
d="M38 0l87 710h161l-70 -567h288l-17 -143h-449zM423 253q-39 0 -62.5 24.5t-23.5 62.5q0 39 24.5 63.5t64.5 24.5t63.5 -24t23.5 -61q0 -40 -24.5 -65t-65.5 -25z" />
    <glyph glyph-name="ldot" unicode="&#x140;" horiz-adv-x="438" 
d="M170 -10q-145 0 -125 166l71 580h150l-69 -562q-7 -49 23 -49q26 0 50 18l27 -118q-47 -35 -127 -35zM357 209q-39 0 -62.5 24.5t-23.5 62.5q0 39 24.5 63.5t64.5 24.5t63.5 -24t23.5 -61q0 -40 -24.5 -65t-65.5 -25z" />
    <glyph glyph-name="Lslash" unicode="&#x141;" horiz-adv-x="549" 
d="M218 143h288l-17 -143h-449l32 257l-67 -29l15 121l66 29l41 332h161l-32 -257l97 43l-15 -122l-97 -42z" />
    <glyph glyph-name="lslash" unicode="&#x142;" horiz-adv-x="328" 
d="M288 143l27 -118q-47 -35 -127 -35q-145 0 -125 166l10 80l-57 -26l13 105l57 26l48 395h150l-40 -322l69 31l-13 -106l-69 -31l-16 -134q-7 -49 23 -49q26 0 50 18z" />
    <glyph glyph-name="Nacute" unicode="&#x143;" horiz-adv-x="697" 
d="M305 761l115 139l151 1l-131 -140h-135zM38 0l87 710h150l200 -437l3 1l53 436h156l-88 -710h-152l-198 424l-3 -1l-53 -423h-155z" />
    <glyph glyph-name="nacute" unicode="&#x144;" horiz-adv-x="547" 
d="M222 556l117 149l152 1l-129 -150h-140zM25 0l61 489h149l-8 -68l2 -1q67 78 162 78q70 0 98 -48.5t15 -150.5l-39 -299h-149l35 265q7 51 0.5 75t-29.5 24q-38 0 -76 -49t-49 -134l-22 -181h-150z" />
    <glyph glyph-name="Ncommaaccent" unicode="&#x145;" horiz-adv-x="697" 
d="M38 0l87 710h150l200 -437l3 1l53 436h156l-88 -710h-152l-198 424l-3 -1l-53 -423h-155zM215 -221l-15 85q31 7 43.5 19.5t12.5 38.5q0 5 -2 25h120q2 -14 2 -23q0 -68 -42.5 -105.5t-118.5 -39.5z" />
    <glyph glyph-name="ncommaaccent" unicode="&#x146;" horiz-adv-x="547" 
d="M25 0l61 489h149l-8 -68l2 -1q67 78 162 78q70 0 98 -48.5t15 -150.5l-39 -299h-149l35 265q7 51 0.5 75t-29.5 24q-38 0 -76 -49t-49 -134l-22 -181h-150zM139 -221l-15 85q31 7 43.5 19.5t12.5 38.5q0 5 -2 25h120q2 -14 2 -23q0 -68 -42.5 -105.5t-118.5 -39.5z" />
    <glyph glyph-name="Ncaron" unicode="&#x147;" horiz-adv-x="697" 
d="M339 761l-74 140h127l31 -63h2l47 63h124l-107 -140h-150zM38 0l87 710h150l200 -437l3 1l53 436h156l-88 -710h-152l-198 424l-3 -1l-53 -423h-155z" />
    <glyph glyph-name="ncaron" unicode="&#x148;" horiz-adv-x="547" 
d="M253 547l-71 149h126l29 -71h2l46 71h125l-107 -149h-150zM25 0l61 489h149l-8 -68l2 -1q67 78 162 78q70 0 98 -48.5t15 -150.5l-39 -299h-149l35 265q7 51 0.5 75t-29.5 24q-38 0 -76 -49t-49 -134l-22 -181h-150z" />
    <glyph glyph-name="napostrophe" unicode="&#x149;" horiz-adv-x="671" 
d="M1 486l56 224h143l-94 -224h-105zM150 0l61 489h149l-8 -68l2 -1q67 78 162 78q70 0 98 -48.5t15 -150.5l-39 -299h-149l35 265q7 51 0.5 75t-29.5 24q-38 0 -76 -49t-49 -134l-22 -181h-150z" />
    <glyph glyph-name="Eng" unicode="&#x14a;" horiz-adv-x="697" 
d="M531 710h156l-88 -710q-14 -111 -72 -157.5t-161 -46.5q-40 0 -64 6l20 122q18 -3 32 -3q40 0 61 19t26 60l2 14l-194 410l-3 -1l-53 -423h-155l87 710h150l200 -437l3 1z" />
    <glyph glyph-name="eng" unicode="&#x14b;" horiz-adv-x="542" 
d="M248 -205q-39 0 -72 8l26 114q15 -3 27 -3q69 0 85 112l32 239q7 51 0.5 75t-29.5 24q-37 0 -73 -48.5t-47 -134.5l-22 -181h-150l61 489h149l-8 -68l2 -1q60 78 157 78q70 0 98 -48.5t15 -150.5l-38 -299q-13 -100 -69.5 -152.5t-143.5 -52.5z" />
    <glyph glyph-name="Omacron" unicode="&#x14c;" horiz-adv-x="739" 
d="M320 784l15 110h285l-14 -110h-286zM339 -9q-132 0 -210.5 79.5t-78.5 221.5q0 114 45.5 210.5t132.5 156.5t198 60q132 0 211 -79.5t79 -219.5q0 -118 -43.5 -214.5t-130.5 -155.5t-203 -59zM351 141q86 0 142 78t56 192q0 79 -37.5 119t-100.5 40q-82 0 -138 -81
t-56 -187q0 -79 36.5 -120t97.5 -41z" />
    <glyph glyph-name="omacron" unicode="&#x14d;" horiz-adv-x="535" 
d="M175 582l15 115h285l-14 -115h-286zM235 -9q-94 0 -150.5 55.5t-56.5 155.5q0 125 72.5 210.5t198.5 85.5q95 0 151.5 -55.5t56.5 -155.5q0 -127 -69.5 -211.5t-202.5 -84.5zM250 125q45 0 75 45t30 104q0 50 -21.5 70t-48.5 20q-46 0 -75.5 -46.5t-29.5 -103.5
q0 -49 21.5 -69t48.5 -20z" />
    <glyph glyph-name="Obreve" unicode="&#x14e;" horiz-adv-x="739" 
d="M459 754q-72 0 -107 39t-30 108h107q-2 -19 8 -32t31 -13q23 0 39.5 13.5t22.5 31.5h109q-14 -66 -59 -106.5t-121 -40.5zM339 -9q-132 0 -210.5 79.5t-78.5 221.5q0 114 45.5 210.5t132.5 156.5t198 60q132 0 211 -79.5t79 -219.5q0 -118 -43.5 -214.5t-130.5 -155.5
t-203 -59zM351 141q86 0 142 78t56 192q0 79 -37.5 119t-100.5 40q-82 0 -138 -81t-56 -187q0 -79 36.5 -120t97.5 -41z" />
    <glyph glyph-name="obreve" unicode="&#x14f;" horiz-adv-x="535" 
d="M310 540q-69 0 -105 41t-32 115h108q-2 -21 8 -34.5t31 -13.5q22 0 39 14t23 34h108q-13 -71 -60 -113.5t-120 -42.5zM235 -9q-94 0 -150.5 55.5t-56.5 155.5q0 125 72.5 210.5t198.5 85.5q95 0 151.5 -55.5t56.5 -155.5q0 -127 -69.5 -211.5t-202.5 -84.5zM250 125
q45 0 75 45t30 104q0 50 -21.5 70t-48.5 20q-46 0 -75.5 -46.5t-29.5 -103.5q0 -49 21.5 -69t48.5 -20z" />
    <glyph glyph-name="Ohungarumlaut" unicode="&#x150;" horiz-adv-x="739" 
d="M277 759l117 149l148 1l-130 -150h-135zM484 759l116 149l148 1l-129 -150h-135zM339 -9q-132 0 -210.5 79.5t-78.5 221.5q0 114 45.5 210.5t132.5 156.5t198 60q132 0 211 -79.5t79 -219.5q0 -118 -43.5 -214.5t-130.5 -155.5t-203 -59zM351 141q86 0 142 78t56 192
q0 79 -37.5 119t-100.5 40q-82 0 -138 -81t-56 -187q0 -79 36.5 -120t97.5 -41z" />
    <glyph glyph-name="ohungarumlaut" unicode="&#x151;" horiz-adv-x="535" 
d="M146 557l117 149l148 1l-130 -150h-135zM353 557l116 149l148 1l-129 -150h-135zM235 -9q-94 0 -150.5 55.5t-56.5 155.5q0 125 72.5 210.5t198.5 85.5q95 0 151.5 -55.5t56.5 -155.5q0 -127 -69.5 -211.5t-202.5 -84.5zM250 125q45 0 75 45t30 104q0 50 -21.5 70
t-48.5 20q-46 0 -75.5 -46.5t-29.5 -103.5q0 -49 21.5 -69t48.5 -20z" />
    <glyph glyph-name="OE" unicode="&#x152;" horiz-adv-x="896" 
d="M882 567h-285l-19 -145h259l-18 -139h-257l-18 -140h300l-18 -143h-488q-131 0 -209.5 78t-78.5 213q0 177 104.5 298t272.5 121h473zM351 148h39l52 415h-29q-83 0 -139.5 -77t-56.5 -183q0 -75 37 -115t97 -40z" />
    <glyph glyph-name="oe" unicode="&#x153;" horiz-adv-x="752" 
d="M539 115q50 0 91 53l97 -92q-73 -85 -198 -85q-107 0 -159 68h-4q-62 -68 -157 -68q-90 0 -141 56.5t-51 155.5q0 124 70.5 209.5t184.5 85.5q94 0 139 -67h4q67 67 165 67q72 0 121.5 -33t49.5 -100q0 -58 -41.5 -99t-103.5 -61.5t-144 -28.5q7 -31 28.5 -46t48.5 -15z
M570 373q-32 0 -61 -29.5t-42 -77.5q140 16 140 75q0 32 -37 32zM226 125q39 0 68.5 44t29.5 109q0 45 -16.5 66t-42.5 21q-42 0 -70.5 -46.5t-28.5 -107.5q0 -44 17 -65t43 -21z" />
    <glyph glyph-name="Racute" unicode="&#x154;" horiz-adv-x="605" 
d="M519 901l-131 -140h-135l115 139zM579 514q0 -178 -143 -244q86 -117 121 -270h-172q-33 135 -112 232h-50l-28 -232h-157l87 710h253q102 0 151.5 -53t49.5 -143zM303 373q50 0 80 34.5t30 88.5q0 36 -21.5 54.5t-53.5 18.5h-73l-24 -196h62z" />
    <glyph glyph-name="racute" unicode="&#x155;" horiz-adv-x="403" 
d="M142 556l117 149l152 1l-129 -150h-140zM26 0l60 489h150l-9 -67h2q57 75 142 75q39 0 66 -13l-58 -141q-35 13 -61 13q-51 0 -80.5 -43t-38.5 -115l-23 -198h-150z" />
    <glyph glyph-name="Rcommaaccent" unicode="&#x156;" horiz-adv-x="605" 
d="M579 514q0 -178 -143 -244q86 -117 121 -270h-172q-33 135 -112 232h-50l-28 -232h-157l87 710h253q102 0 151.5 -53t49.5 -143zM303 373q50 0 80 34.5t30 88.5q0 36 -21.5 54.5t-53.5 18.5h-73l-24 -196h62zM212 -53h120q2 -14 2 -23q0 -68 -42.5 -105.5t-118.5 -39.5
l-15 85q31 7 43.5 19.5t12.5 38.5q0 5 -2 25z" />
    <glyph glyph-name="rcommaaccent" unicode="&#x157;" horiz-adv-x="403" 
d="M26 0l60 489h150l-9 -67h2q57 75 142 75q39 0 66 -13l-58 -141q-35 13 -61 13q-51 0 -80.5 -43t-38.5 -115l-23 -198h-150zM-8 -221l-15 85q31 7 43.5 19.5t12.5 38.5q0 5 -2 25h120q2 -14 2 -23q0 -68 -42.5 -105.5t-118.5 -39.5z" />
    <glyph glyph-name="Rcaron" unicode="&#x158;" horiz-adv-x="605" 
d="M437 761h-150l-74 140h127l31 -63h2l47 63h124zM579 514q0 -178 -143 -244q86 -117 121 -270h-172q-33 135 -112 232h-50l-28 -232h-157l87 710h253q102 0 151.5 -53t49.5 -143zM303 373q50 0 80 34.5t30 88.5q0 36 -21.5 54.5t-53.5 18.5h-73l-24 -196h62z" />
    <glyph glyph-name="rcaron" unicode="&#x159;" horiz-adv-x="403" 
d="M196 547l-71 149h126l29 -71h2l46 71h125l-107 -149h-150zM26 0l60 489h150l-9 -67h2q57 75 142 75q39 0 66 -13l-58 -141q-35 13 -61 13q-51 0 -80.5 -43t-38.5 -115l-23 -198h-150z" />
    <glyph glyph-name="Sacute" unicode="&#x15a;" horiz-adv-x="542" 
d="M254 761l115 139l151 1l-131 -140h-135zM249 -9q-165 0 -238 102l99 119q23 -38 64 -58t82 -20t64 19t23 47q0 22 -16.5 37t-65.5 43q-9 5 -14 8q-86 49 -115 77q-60 56 -60 138q0 97 70 156.5t179 59.5q66 0 128 -22.5t97 -70.5l-107 -103q-41 55 -122 55
q-38 0 -58 -16.5t-20 -43.5q0 -22 17.5 -41t59.5 -43q14 -8 43 -24t42 -24t35 -23t32.5 -28t22.5 -31t16.5 -40t4.5 -48q0 -103 -72 -164t-191 -61z" />
    <glyph glyph-name="sacute" unicode="&#x15b;" horiz-adv-x="420" 
d="M153 556l117 149l152 1l-129 -150h-140zM184 -9q-123 0 -183 63l73 101q20 -24 54 -37.5t64 -13.5q46 0 46 27q0 11 -13 20.5t-47 26.5q-11 5 -17 8q-60 30 -89.5 64t-29.5 85q0 72 52.5 117.5t131.5 45.5q45 0 93 -16t81 -53l-84 -88q-32 39 -89 42q-18 1 -29.5 -7
t-11.5 -21q0 -26 75 -58q59 -26 90 -59.5t32 -85.5q0 -74 -53.5 -117.5t-145.5 -43.5z" />
    <glyph glyph-name="Scircumflex" unicode="&#x15c;" horiz-adv-x="542" 
d="M166 761l108 140h150l73 -140h-126l-32 64h-1l-48 -64h-124zM249 -9q-165 0 -238 102l99 119q23 -38 64 -58t82 -20t64 19t23 47q0 22 -16.5 37t-65.5 43q-9 5 -14 8q-86 49 -115 77q-60 56 -60 138q0 97 70 156.5t179 59.5q66 0 128 -22.5t97 -70.5l-107 -103
q-41 55 -122 55q-38 0 -58 -16.5t-20 -43.5q0 -22 17.5 -41t59.5 -43q14 -8 43 -24t42 -24t35 -23t32.5 -28t22.5 -31t16.5 -40t4.5 -48q0 -103 -72 -164t-191 -61z" />
    <glyph glyph-name="scircumflex" unicode="&#x15d;" horiz-adv-x="420" 
d="M79 555l115 152h131l84 -152h-130l-24 74h-1l-42 -74h-133zM184 -9q-123 0 -183 63l73 101q20 -24 54 -37.5t64 -13.5q46 0 46 27q0 11 -13 20.5t-47 26.5q-11 5 -17 8q-60 30 -89.5 64t-29.5 85q0 72 52.5 117.5t131.5 45.5q45 0 93 -16t81 -53l-84 -88q-32 39 -89 42
q-18 1 -29.5 -7t-11.5 -21q0 -26 75 -58q59 -26 90 -59.5t32 -85.5q0 -74 -53.5 -117.5t-145.5 -43.5z" />
    <glyph glyph-name="Scedilla" unicode="&#x15e;" horiz-adv-x="542" 
d="M316 434q14 -8 43 -24t42 -24t35 -23t32.5 -28t22.5 -31t16.5 -40t4.5 -48q0 -101 -69 -161.5t-184 -63.5l-15 -21l1 -1q75 -3 75 -66q0 -47 -34.5 -71t-94.5 -24q-33 0 -54 6l2 61q17 -6 39 -6q53 0 53 33q0 25 -65 25l1 38l19 31q-119 17 -175 97l99 119q23 -38 64 -58
t82 -20t64 19t23 47q0 22 -16.5 37t-65.5 43q-9 5 -14 8q-86 49 -115 77q-60 56 -60 138q0 97 70 156.5t179 59.5q66 0 128 -22.5t97 -70.5l-107 -103q-41 55 -122 55q-38 0 -58 -16.5t-20 -43.5q0 -22 17.5 -41t59.5 -43z" />
    <glyph glyph-name="scedilla" unicode="&#x15f;" horiz-adv-x="420" 
d="M261 297q59 -26 90 -59.5t32 -85.5q0 -73 -52.5 -116.5t-143.5 -44.5l-15 -21l1 -1q75 -3 75 -66q0 -47 -34.5 -71t-94.5 -24q-33 0 -54 6l2 61q16 -6 39 -6q53 0 53 33q0 25 -65 25l1 38l21 33q-76 14 -115 56l73 101q20 -24 54 -37.5t64 -13.5q46 0 46 27
q0 11 -13 20.5t-47 26.5q-11 5 -17 8q-60 30 -89.5 64t-29.5 85q0 72 52.5 117.5t131.5 45.5q45 0 93 -16t81 -53l-84 -88q-32 39 -89 42q-18 1 -29.5 -7t-11.5 -21q0 -26 75 -58z" />
    <glyph glyph-name="Scaron" unicode="&#x160;" horiz-adv-x="542" 
d="M257 761l-74 140h127l31 -63h2l47 63h124l-107 -140h-150zM249 -9q-165 0 -238 102l99 119q23 -38 64 -58t82 -20t64 19t23 47q0 22 -16.5 37t-65.5 43q-9 5 -14 8q-86 49 -115 77q-60 56 -60 138q0 97 70 156.5t179 59.5q66 0 128 -22.5t97 -70.5l-107 -103
q-41 55 -122 55q-38 0 -58 -16.5t-20 -43.5q0 -22 17.5 -41t59.5 -43q14 -8 43 -24t42 -24t35 -23t32.5 -28t22.5 -31t16.5 -40t4.5 -48q0 -103 -72 -164t-191 -61z" />
    <glyph glyph-name="scaron" unicode="&#x161;" horiz-adv-x="420" 
d="M172 547l-71 149h126l29 -71h2l46 71h125l-107 -149h-150zM184 -9q-123 0 -183 63l73 101q20 -24 54 -37.5t64 -13.5q46 0 46 27q0 11 -13 20.5t-47 26.5q-11 5 -17 8q-60 30 -89.5 64t-29.5 85q0 72 52.5 117.5t131.5 45.5q45 0 93 -16t81 -53l-84 -88q-32 39 -89 42
q-18 1 -29.5 -7t-11.5 -21q0 -26 75 -58q59 -26 90 -59.5t32 -85.5q0 -74 -53.5 -117.5t-145.5 -43.5z" />
    <glyph glyph-name="uni0162" unicode="&#x162;" horiz-adv-x="539" 
d="M81 710h491l-18 -143h-165l-70 -567h-64l-22 -30l1 -1q75 -3 75 -66q0 -47 -34.5 -71t-94.5 -24q-33 0 -54 6l2 61q16 -6 39 -6q53 0 53 33q0 25 -65 25l1 38l22 35h-19l70 567h-166z" />
    <glyph glyph-name="uni0163" unicode="&#x163;" horiz-adv-x="371" 
d="M238 368l-24 -194q-5 -49 30 -49q31 0 66 29l29 -113q-54 -46 -132 -50l-16 -21l1 -1q75 -3 75 -66q0 -47 -34.5 -71t-94.5 -24q-33 0 -54 6l2 61q17 -6 39 -6q53 0 53 33q0 25 -65 25l1 38l21 34q-89 30 -74 157l26 212h-57l15 121h57l19 143l153 30l-21 -173h121
l-15 -121h-121z" />
    <glyph glyph-name="Tcaron" unicode="&#x164;" horiz-adv-x="539" 
d="M255 761l-74 140h127l31 -63h2l47 63h124l-107 -140h-150zM159 0l70 567h-166l18 143h491l-18 -143h-165l-70 -567h-160z" />
    <glyph glyph-name="tcaron" unicode="&#x165;" horiz-adv-x="371" 
d="M302 577l56 215h142l-93 -215h-105zM187 -9q-64 0 -100 39.5t-26 125.5l26 212h-57l15 121h57l19 143l153 30l-21 -173h121l-15 -121h-121l-24 -194q-5 -49 30 -49q31 0 66 29l29 -113q-60 -50 -152 -50z" />
    <glyph glyph-name="Tbar" unicode="&#x166;" horiz-adv-x="539" 
d="M554 567h-165l-23 -183h101l-13 -112h-101l-34 -272h-160l34 272h-98l15 112h96l23 183h-166l18 143h491z" />
    <glyph glyph-name="tbar" unicode="&#x167;" horiz-adv-x="371" 
d="M359 368h-121l-8 -63h72l-11 -90h-72l-5 -41q-5 -49 30 -49q31 0 66 29l29 -113q-60 -50 -152 -50q-64 0 -100 39.5t-26 125.5l7 59h-47l11 90h47l8 63h-57l15 121h57l19 143l153 30l-21 -173h121z" />
    <glyph glyph-name="Utilde" unicode="&#x168;" horiz-adv-x="653" 
d="M476 762q-32 0 -77 30q-26 18 -44 18q-32 0 -57 -50l-84 41q53 110 128 110q37 0 76 -26q30 -20 44 -20q34 0 58 48l84 -32q-52 -119 -128 -119zM299 -9q-139 0 -194.5 85.5t-36.5 241.5l49 392h160l-50 -405q-20 -164 85 -164q53 0 85.5 36t42.5 120l51 413h160
l-51 -417q-20 -161 -93.5 -231.5t-207.5 -70.5z" />
    <glyph glyph-name="utilde" unicode="&#x169;" horiz-adv-x="539" 
d="M393 551q-33 0 -76 30q-24 18 -44 18q-33 0 -58 -51l-84 42q50 120 129 120q8 0 15.5 -1t14.5 -3t11.5 -3.5t10.5 -5t8.5 -5t8 -5t6.5 -4.5q27 -19 42 -19q35 0 60 49l84 -34q-23 -59 -55.5 -93.5t-72.5 -34.5zM167 -9q-153 0 -125 194l42 304h149l-37 -259
q-8 -59 -1 -82t33 -23q32 0 67.5 43.5t42.5 96.5l27 224h150l-60 -489h-147l6 72h-2q-60 -81 -145 -81z" />
    <glyph glyph-name="Umacron" unicode="&#x16a;" horiz-adv-x="653" 
d="M252 784l15 110h285l-14 -110h-286zM299 -9q-139 0 -194.5 85.5t-36.5 241.5l49 392h160l-50 -405q-20 -164 85 -164q53 0 85.5 36t42.5 120l51 413h160l-51 -417q-20 -161 -93.5 -231.5t-207.5 -70.5z" />
    <glyph glyph-name="umacron" unicode="&#x16b;" horiz-adv-x="539" 
d="M172 582l15 115h285l-14 -115h-286zM167 -9q-153 0 -125 194l42 304h149l-37 -259q-8 -59 -1 -82t33 -23q32 0 67.5 43.5t42.5 96.5l27 224h150l-60 -489h-147l6 72h-2q-60 -81 -145 -81z" />
    <glyph glyph-name="Ubreve" unicode="&#x16c;" horiz-adv-x="653" 
d="M391 754q-72 0 -107 39t-30 108h107q-2 -19 8 -32t31 -13q23 0 39.5 13.5t22.5 31.5h109q-14 -66 -59 -106.5t-121 -40.5zM299 -9q-139 0 -194.5 85.5t-36.5 241.5l49 392h160l-50 -405q-20 -164 85 -164q53 0 85.5 36t42.5 120l51 413h160l-51 -417
q-20 -161 -93.5 -231.5t-207.5 -70.5z" />
    <glyph glyph-name="ubreve" unicode="&#x16d;" horiz-adv-x="539" 
d="M307 540q-69 0 -105 41t-32 115h108q-2 -21 8 -34.5t31 -13.5q22 0 39 14t23 34h108q-13 -71 -60 -113.5t-120 -42.5zM167 -9q-153 0 -125 194l42 304h149l-37 -259q-8 -59 -1 -82t33 -23q32 0 67.5 43.5t42.5 96.5l27 224h150l-60 -489h-147l6 72h-2q-60 -81 -145 -81z
" />
    <glyph glyph-name="Uring" unicode="&#x16e;" horiz-adv-x="653" 
d="M396 747q-45 0 -75 30.5t-30 74.5q0 45 31 75.5t77 30.5q45 0 74.5 -29.5t29.5 -73.5q0 -46 -30.5 -77t-76.5 -31zM398 817q15 0 25.5 10.5t10.5 26.5q0 14 -10.5 24.5t-24.5 10.5q-16 0 -27 -10.5t-11 -25.5q0 -16 10.5 -26t26.5 -10zM299 -9q-139 0 -194.5 85.5
t-36.5 241.5l49 392h160l-50 -405q-20 -164 85 -164q53 0 85.5 36t42.5 120l51 413h160l-51 -417q-20 -161 -93.5 -231.5t-207.5 -70.5z" />
    <glyph glyph-name="uring" unicode="&#x16f;" horiz-adv-x="539" 
d="M322 538q-45 0 -75 30.5t-30 74.5q0 45 31 75.5t77 30.5q45 0 74.5 -29.5t29.5 -73.5q0 -46 -30.5 -77t-76.5 -31zM324 608q15 0 25.5 10.5t10.5 26.5q0 14 -10.5 24.5t-24.5 10.5q-16 0 -27 -10.5t-11 -25.5q0 -16 10.5 -26t26.5 -10zM167 -9q-153 0 -125 194l42 304
h149l-37 -259q-8 -59 -1 -82t33 -23q32 0 67.5 43.5t42.5 96.5l27 224h150l-60 -489h-147l6 72h-2q-60 -81 -145 -81z" />
    <glyph glyph-name="Uhungarumlaut" unicode="&#x170;" horiz-adv-x="653" 
d="M209 759l117 149l148 1l-130 -150h-135zM416 759l116 149l148 1l-129 -150h-135zM299 -9q-139 0 -194.5 85.5t-36.5 241.5l49 392h160l-50 -405q-20 -164 85 -164q53 0 85.5 36t42.5 120l51 413h160l-51 -417q-20 -161 -93.5 -231.5t-207.5 -70.5z" />
    <glyph glyph-name="uhungarumlaut" unicode="&#x171;" horiz-adv-x="539" 
d="M143 557l117 149l148 1l-130 -150h-135zM350 557l116 149l148 1l-129 -150h-135zM167 -9q-153 0 -125 194l42 304h149l-37 -259q-8 -59 -1 -82t33 -23q32 0 67.5 43.5t42.5 96.5l27 224h150l-60 -489h-147l6 72h-2q-60 -81 -145 -81z" />
    <glyph glyph-name="Uogonek" unicode="&#x172;" horiz-adv-x="653" 
d="M491 710h160l-51 -417q-29 -238 -189 -287h1q-43 -13 -73 -38.5t-30 -53.5q0 -24 24 -24q17 0 34 7l2 -77q-29 -11 -74 -11q-98 0 -98 79q0 55 56 102l-1 4q-221 29 -184 324l49 392h160l-50 -405q-20 -164 85 -164q53 0 85.5 36t42.5 120z" />
    <glyph glyph-name="uogonek" unicode="&#x173;" horiz-adv-x="539" 
d="M365 489h150l-60 -489h-10q-39 -3 -68 -29.5t-29 -56.5q0 -24 25 -24q21 0 33 7l2 -77q-27 -11 -74 -11q-97 0 -97 79q0 32 20 64.5t52 54.5l5 65h-2q-60 -81 -145 -81q-153 0 -125 194l42 304h149l-37 -259q-8 -59 -1 -82t33 -23q32 0 67.5 43.5t42.5 96.5z" />
    <glyph glyph-name="Wcircumflex" unicode="&#x174;" horiz-adv-x="932" 
d="M360 761l108 140h150l73 -140h-126l-32 64h-1l-48 -64h-124zM187 0l-113 710h164l52 -457h3l153 457h160l39 -447h3l157 447h169l-289 -710h-141l-51 469h-2l-167 -469h-137z" />
    <glyph glyph-name="wcircumflex" unicode="&#x175;" horiz-adv-x="759" 
d="M254 555l115 152h131l84 -152h-130l-24 74h-1l-42 -74h-133zM165 -9q-76 0 -109 55t-21 147l42 296h148l-36 -261q-14 -103 30 -103q27 0 56.5 38t39.5 118l26 208h145l-33 -267q-7 -53 0 -75t28 -22q30 0 61.5 45.5t44.5 147.5q11 81 0 171h151q17 -97 0 -201
q-22 -155 -99 -226t-183 -71q-110 0 -134 89h-2q-25 -42 -68 -65.5t-87 -23.5z" />
    <glyph glyph-name="Ycircumflex" unicode="&#x176;" horiz-adv-x="581" 
d="M188 761l108 140h150l73 -140h-126l-32 64h-1l-48 -64h-124zM179 0l39 310l-159 400h176l79 -250h3l138 250h183l-259 -400l-38 -310h-162z" />
    <glyph glyph-name="ycircumflex" unicode="&#x177;" horiz-adv-x="534" 
d="M310 629l-42 -74h-133l115 152h131l84 -152h-130l-24 74h-1zM363 489h149l-52 -423q-32 -273 -275 -273q-98 0 -180 43l57 116q50 -36 119 -36q53 0 85.5 31.5t44.5 121.5v1l-3 1q-59 -80 -148 -80q-150 0 -122 194l42 304h149l-36 -259q-8 -59 -1.5 -82t33.5 -23
q33 0 68.5 44.5t41.5 96.5z" />
    <glyph glyph-name="Ydieresis" unicode="&#x178;" horiz-adv-x="581" 
d="M252 757q-39 0 -64.5 24.5t-25.5 61.5q0 38 26 63t67 25q40 0 65 -24t25 -61q0 -39 -26 -64t-67 -25zM469 757q-39 0 -64.5 24.5t-25.5 61.5q0 39 26 63.5t68 24.5q39 0 64 -24t25 -61q0 -39 -26 -64t-67 -25zM179 0l39 310l-159 400h176l79 -250h3l138 250h183
l-259 -400l-38 -310h-162z" />
    <glyph glyph-name="Zacute" unicode="&#x179;" horiz-adv-x="570" 
d="M245 761l115 139l151 1l-131 -140h-135zM13 0l15 125l335 439l-2 3h-269l17 143h474l-14 -122l-342 -441l2 -4h284l-17 -143h-483z" />
    <glyph glyph-name="zacute" unicode="&#x17a;" horiz-adv-x="447" 
d="M159 557l117 149l152 1l-129 -150h-140zM367 -28q-117 28 -366 28l11 100l217 267v3h-165l14 119h365l-11 -100l-222 -267v-2q111 -5 192 -30z" />
    <glyph glyph-name="Zdotaccent" unicode="&#x17b;" horiz-adv-x="570" 
d="M360 757q-39 0 -64.5 24.5t-25.5 61.5q0 38 26 63t67 25q40 0 65 -24t25 -61q0 -39 -26 -64t-67 -25zM13 0l15 125l335 439l-2 3h-269l17 143h474l-14 -122l-342 -441l2 -4h284l-17 -143h-483z" />
    <glyph glyph-name="zdotaccent" unicode="&#x17c;" horiz-adv-x="447" 
d="M273 552q-39 0 -64.5 24.5t-25.5 61.5q0 38 26 63t67 25q40 0 65 -24t25 -61q0 -39 -26 -64t-67 -25zM367 -28q-117 28 -366 28l11 100l217 267v3h-165l14 119h365l-11 -100l-222 -267v-2q111 -5 192 -30z" />
    <glyph glyph-name="Zcaron" unicode="&#x17d;" horiz-adv-x="570" 
d="M279 761l-74 140h127l31 -63h2l47 63h124l-107 -140h-150zM13 0l15 125l335 439l-2 3h-269l17 143h474l-14 -122l-342 -441l2 -4h284l-17 -143h-483z" />
    <glyph glyph-name="zcaron" unicode="&#x17e;" horiz-adv-x="447" 
d="M192 547l-71 149h126l29 -71h2l46 71h125l-107 -149h-150zM367 -28q-117 28 -366 28l11 100l217 267v3h-165l14 119h365l-11 -100l-222 -267v-2q111 -5 192 -30z" />
    <glyph glyph-name="longs" unicode="&#x17f;" horiz-adv-x="341" 
d="M48 0l45 368h-59l15 121h59l10 82q21 174 168 174q67 0 116 -37l-38 -110q-24 18 -51 18q-21 0 -32 -15.5t-17 -61.5l-66 -539h-150z" />
    <glyph glyph-name="uni018F" unicode="&#x18f;" horiz-adv-x="704" 
d="M391 719q133 0 212 -79.5t79 -219.5q0 -181 -98.5 -305t-261.5 -124q-131 0 -207 79t-76 219q0 50 17 112h463v10q0 77 -39 118.5t-101 41.5q-77 0 -141 -59l-95 119q49 40 115.5 64t132.5 24zM330 134q117 0 163 131h-294q1 -63 38 -97t93 -34z" />
    <glyph glyph-name="florin" unicode="&#x192;" horiz-adv-x="485" 
d="M40 -165q-58 0 -93.5 15t-46.5 31l59 96q31 -12 57 -12q31 0 50 19.5t29 65.5l70 297h-69l32 123h69l24 102q41 173 192 173q57 0 93 -15t48 -30l-60 -97q-32 12 -58 12q-53 0 -72 -85l-12 -60h108l-33 -123h-109l-79 -339q-21 -87 -69.5 -130t-129.5 -43z" />
    <glyph glyph-name="uni019D" unicode="&#x19d;" horiz-adv-x="683" 
d="M1 -205q-42 0 -71 7l22 122q17 -3 28 -3q29 0 41 18.5t18 67.5l86 703h150l182 -440l3 1l57 439h156l-91 -710h-155l-177 429h-3l-55 -439q-14 -113 -61 -154t-130 -41z" />
    <glyph glyph-name="Ohorn" unicode="&#x1a0;" horiz-adv-x="796" 
d="M720 774h122l-10 -86q-20 -156 -126 -176q10 -47 10 -92q0 -118 -43.5 -214.5t-130.5 -155.5t-203 -59q-132 0 -210.5 79.5t-78.5 221.5q0 114 45.5 210.5t132.5 156.5t198 60q85 0 150 -34.5t101 -99.5q22 18 33 111zM351 141q86 0 142 78t56 192q0 79 -37.5 119
t-100.5 40q-82 0 -138 -81t-56 -187q0 -79 36.5 -120t97.5 -41z" />
    <glyph glyph-name="ohorn" unicode="&#x1a1;" horiz-adv-x="633" 
d="M538 565h122l-10 -86q-11 -85 -49 -129.5t-94 -49.5v-13q0 -127 -69.5 -211.5t-202.5 -84.5q-94 0 -150.5 55.5t-56.5 155.5q0 125 72.5 210.5t198.5 85.5q71 0 121.5 -32t72.5 -91q24 16 35 112zM250 125q45 0 75 45t30 104q0 50 -21.5 70t-48.5 20q-46 0 -75.5 -46.5
t-29.5 -103.5q0 -49 21.5 -69t48.5 -20z" />
    <glyph glyph-name="Uhorn" unicode="&#x1af;" horiz-adv-x="770" 
d="M712 774h122l-10 -86q-12 -90 -53 -134.5t-103 -44.5q-19 0 -41 5l-27 -221q-20 -161 -93.5 -231.5t-207.5 -70.5q-139 0 -194.5 85.5t-36.5 241.5l49 392h160l-50 -405q-20 -164 85 -164q53 0 85.5 36t42.5 120l51 413h160l-16 -130q10 -2 13 -2q14 0 23.5 8.5t15 27
t8.5 35.5t7 47z" />
    <glyph glyph-name="uhorn" unicode="&#x1b0;" horiz-adv-x="661" 
d="M574 565h122l-10 -86q-12 -90 -53 -134.5t-103 -44.5q-21 0 -38 4l-37 -304h-147l6 72h-2q-60 -81 -145 -81q-153 0 -125 194l42 304h149l-37 -259q-8 -59 -1 -82t33 -23q32 0 67.5 43.5t42.5 96.5l27 224h150l-15 -119q4 -1 10 -1q14 0 23.5 8.5t15 27t8.5 35.5t7 47z
" />
    <glyph glyph-name="uni01D0" unicode="&#x1d0;" horiz-adv-x="268" 
d="M101 547l-71 149h126l29 -71h2l46 71h125l-107 -149h-150zM29 0l60 489h150l-60 -489h-150z" />
    <glyph glyph-name="Gcaron" unicode="&#x1e6;" horiz-adv-x="690" 
d="M364 760l-74 140h127l31 -63h2l47 63h124l-107 -140h-150zM345 -9q-135 0 -214.5 77.5t-79.5 226.5q0 116 45 212t132.5 154t201.5 58q175 0 251 -126l-124 -108q-53 81 -139 81q-88 0 -143.5 -79.5t-55.5 -182.5q0 -80 36.5 -122.5t103.5 -42.5q69 0 117 31l13 91h-118
l17 134h270l-39 -322q-47 -37 -121.5 -59.5t-152.5 -22.5z" />
    <glyph glyph-name="gcaron" unicode="&#x1e7;" horiz-adv-x="551" 
d="M398 547h-150l-71 149h126l29 -71h2l46 71h125zM378 489h150l-52 -426q-33 -270 -282 -270q-109 0 -187 44l61 115q61 -32 121 -32t93.5 34t46.5 133l-3 1q-58 -82 -141 -82q-75 0 -116 54.5t-41 136.5q0 126 67 213.5t163 87.5q75 0 114 -41l3 1zM361 315l2 16
q-33 33 -79 33t-75.5 -49.5t-29.5 -103.5q0 -35 14.5 -53.5t40.5 -18.5q41 0 78 49t49 127z" />
    <glyph glyph-name="uni01EA" unicode="&#x1ea;" horiz-adv-x="739" 
d="M393 -6q-30 -10 -50 -33t-20 -47t25 -24q21 0 33 7l2 -77q-27 -11 -74 -11q-97 0 -97 79q0 58 56 107l-1 3q-101 21 -159 97.5t-58 196.5q0 114 45.5 210.5t132.5 156.5t198 60q132 0 211 -79.5t79 -219.5q0 -167 -86.5 -286.5t-236.5 -139.5zM217 302q0 -79 36.5 -120
t97.5 -41q86 0 142 78t56 192q0 79 -37.5 119t-100.5 40q-82 0 -138 -81t-56 -187z" />
    <glyph glyph-name="uni01EB" unicode="&#x1eb;" horiz-adv-x="535" 
d="M280 -6q-29 -11 -48.5 -33.5t-19.5 -46.5t25 -24q21 0 33 7l2 -77q-27 -11 -74 -11q-97 0 -97 79q0 63 61 110l-1 3q-62 19 -97.5 70.5t-35.5 130.5q0 125 72.5 210.5t198.5 85.5q95 0 151.5 -55.5t56.5 -155.5q0 -115 -57.5 -196.5t-169.5 -96.5zM285 364
q-46 0 -75.5 -46.5t-29.5 -103.5q0 -49 21.5 -69t48.5 -20q45 0 75 45t30 104q0 50 -21.5 70t-48.5 20z" />
    <glyph glyph-name="Aringacute" unicode="&#x1fa;" horiz-adv-x="635" 
d="M389 747q-45 0 -75 30.5t-30 74.5q0 45 31 75.5t77 30.5q40 0 69 -24l61 47h146l-172 -130q-2 -44 -32 -74t-75 -30zM392 889q-16 0 -27 -10.5t-11 -25.5q0 -16 10.5 -26t26.5 -10q15 0 25.5 10.5t10.5 26.5q0 14 -10.5 24.5t-24.5 10.5zM297 710h154l146 -710h-166
l-22 131h-213l-51 -131h-168zM247 266h141l-42 249h-2z" />
    <glyph glyph-name="aringacute" unicode="&#x1fb;" horiz-adv-x="553" 
d="M332 538q-45 0 -75 30.5t-30 74.5q0 45 31 75.5t77 30.5q39 0 68 -24l60 46h152l-176 -135q-4 -42 -34 -70t-73 -28zM335 680q-16 0 -27 -10.5t-11 -25.5q0 -16 10.5 -26t26.5 -10q15 0 25.5 10.5t10.5 26.5q0 14 -10.5 24.5t-24.5 10.5zM376 455l4 34h151l-60 -489h-151
l9 72l-3 1q-57 -82 -140 -82q-76 0 -117.5 56t-41.5 144q0 130 67 218.5t164 88.5q74 0 115 -43h3zM363 315l2 14q-33 35 -81 35q-47 0 -76.5 -51t-29.5 -111q0 -35 15.5 -56.5t40.5 -21.5q42 0 79.5 51.5t49.5 139.5z" />
    <glyph glyph-name="AEacute" unicode="&#x1fc;" horiz-adv-x="880" 
d="M396 761l115 139l151 1l-131 -140h-135zM-30 0l390 710h523l-17 -143h-286l-18 -145h259l-18 -139h-258l-17 -140h299l-17 -143h-455l17 131h-162l-69 -131h-171zM280 267h109l34 277h-2z" />
    <glyph glyph-name="aeacute" unicode="&#x1fd;" horiz-adv-x="689" 
d="M606 707l-129 -150h-140l117 149zM477 115q51 0 92 53l96 -92q-73 -85 -196 -85q-121 0 -161 87q-51 -88 -140 -88q-69 0 -111.5 50t-42.5 136q0 136 73 225.5t198 89.5q66 0 115 -25q54 32 122 32q69 0 118.5 -33.5t49.5 -99.5q0 -58 -41.5 -99t-103.5 -61.5t-144 -28.5
q6 -31 27 -46t49 -15zM509 373q-32 0 -61.5 -29.5t-41.5 -77.5q139 16 139 75q0 32 -36 32zM200 118q48 0 83 162q11 51 31 89h-10q-61 0 -100.5 -54.5t-39.5 -132.5q0 -31 10 -47.5t26 -16.5z" />
    <glyph glyph-name="Oslashacute" unicode="&#x1fe;" horiz-adv-x="741" 
d="M627 900l-131 -140h-135l115 139zM746 679l-75 -80q47 -74 47 -179q0 -118 -43.5 -214.5t-130.5 -155.5t-203 -59q-114 0 -188 59l-79 -84l-62 62l83 88q-43 72 -43 176q0 114 45.5 210.5t132.5 156.5t198 60t184 -56l72 76zM219 302q0 -25 5 -50l275 291q-35 27 -86 27
q-82 0 -138 -81t-56 -187zM551 411q0 31 -6 55l-278 -295q35 -30 86 -30q86 0 142 78t56 192z" />
    <glyph glyph-name="oslashacute" unicode="&#x1ff;" horiz-adv-x="536" 
d="M511 706l-129 -150h-140l117 149zM525 464l-50 -52q32 -50 32 -125q0 -127 -69.5 -211.5t-202.5 -84.5q-74 0 -126 35l-48 -50l-46 46l48 50q-35 54 -35 130q0 125 72.5 210.5t198.5 85.5q81 0 132 -39l48 50zM180 214q0 -12 1 -18l146 154q-17 14 -42 14
q-46 0 -75.5 -46.5t-29.5 -103.5zM355 274v11l-142 -149q17 -11 37 -11q45 0 75 45t30 104z" />
    <glyph glyph-name="Scommaaccent" unicode="&#x218;" horiz-adv-x="542" 
d="M249 -9q-165 0 -238 102l99 119q23 -38 64 -58t82 -20t64 19t23 47q0 22 -16.5 37t-65.5 43q-9 5 -14 8q-86 49 -115 77q-60 56 -60 138q0 97 70 156.5t179 59.5q66 0 128 -22.5t97 -70.5l-107 -103q-41 55 -122 55q-38 0 -58 -16.5t-20 -43.5q0 -22 17.5 -41t59.5 -43
q14 -8 43 -24t42 -24t35 -23t32.5 -28t22.5 -31t16.5 -40t4.5 -48q0 -103 -72 -164t-191 -61zM140 -221l-15 85q31 7 43.5 19.5t12.5 38.5q0 5 -2 25h120q2 -14 2 -23q0 -68 -42.5 -105.5t-118.5 -39.5z" />
    <glyph glyph-name="scommaaccent" unicode="&#x219;" horiz-adv-x="420" 
d="M184 -9q-123 0 -183 63l73 101q20 -24 54 -37.5t64 -13.5q46 0 46 27q0 11 -13 20.5t-47 26.5q-11 5 -17 8q-60 30 -89.5 64t-29.5 85q0 72 52.5 117.5t131.5 45.5q45 0 93 -16t81 -53l-84 -88q-32 39 -89 42q-18 1 -29.5 -7t-11.5 -21q0 -26 75 -58q59 -26 90 -59.5
t32 -85.5q0 -74 -53.5 -117.5t-145.5 -43.5zM68 -221l-15 85q31 7 43.5 19.5t12.5 38.5q0 5 -2 25h120q2 -14 2 -23q0 -68 -42.5 -105.5t-118.5 -39.5z" />
    <glyph glyph-name="uni021A" unicode="&#x21a;" horiz-adv-x="539" 
d="M159 0l70 567h-166l18 143h491l-18 -143h-165l-70 -567h-160zM129 -221l-15 85q31 7 43.5 19.5t12.5 38.5q0 5 -2 25h120q2 -14 2 -23q0 -68 -42.5 -105.5t-118.5 -39.5z" />
    <glyph glyph-name="uni021B" unicode="&#x21b;" horiz-adv-x="371" 
d="M187 -9q-64 0 -100 39.5t-26 125.5l26 212h-57l15 121h57l19 143l153 30l-21 -173h121l-15 -121h-121l-24 -194q-5 -49 30 -49q31 0 66 29l29 -113q-60 -50 -152 -50zM87 -221l-15 85q31 7 43.5 19.5t12.5 38.5q0 5 -2 25h120q2 -14 2 -23q0 -68 -42.5 -105.5
t-118.5 -39.5z" />
    <glyph glyph-name="uni0232" unicode="&#x232;" horiz-adv-x="581" 
d="M213 784l15 110h285l-14 -110h-286zM179 0l39 310l-159 400h176l79 -250h3l138 250h183l-259 -400l-38 -310h-162z" />
    <glyph glyph-name="uni0233" unicode="&#x233;" horiz-adv-x="534" 
d="M463 697l-14 -115h-286l15 115h285zM363 489h149l-52 -423q-32 -273 -275 -273q-98 0 -180 43l57 116q50 -36 119 -36q53 0 85.5 31.5t44.5 121.5v1l-3 1q-59 -80 -148 -80q-150 0 -122 194l42 304h149l-36 -259q-8 -59 -1.5 -82t33.5 -23q33 0 68.5 44.5t41.5 96.5z" />
    <glyph glyph-name="uni0237" unicode="&#x237;" horiz-adv-x="251" 
d="M-9 -206q-53 0 -97 23l37 115q16 -13 37 -13q22 0 32.5 19t15.5 66l60 485h151l-63 -506q-12 -100 -55.5 -144.5t-117.5 -44.5z" />
    <glyph glyph-name="uni0259" unicode="&#x259;" horiz-adv-x="477" 
d="M244 498q96 0 152 -56t56 -154q0 -128 -72 -212.5t-200 -84.5q-70 0 -117.5 36t-47.5 101q0 44 24 78.5t65.5 57t91 36.5t108.5 21q-13 54 -72 54q-45 0 -93 -40l-78 96q33 29 83 48t100 19zM195 116q40 0 68 30t39 81q-142 -22 -142 -82q0 -29 35 -29z" />
    <glyph glyph-name="uni0272" unicode="&#x272;" horiz-adv-x="547" 
d="M391 498q70 0 98 -48.5t15 -150.5l-39 -299h-149l35 265q7 51 0.5 75t-29.5 24q-37 0 -74 -46.5t-50 -126.5l-23 -191q-14 -109 -58.5 -157t-134.5 -48q-39 0 -72 8l26 114q12 -3 23 -3q33 0 47 26t22 86l57 463h150l-8 -68l2 -1q67 78 162 78z" />
    <glyph glyph-name="circumflex" unicode="&#x2c6;" horiz-adv-x="407" 
d="M72 531l115 152h131l84 -152h-130l-24 74h-1l-42 -74h-133z" />
    <glyph glyph-name="caron" unicode="&#x2c7;" horiz-adv-x="406" 
d="M164 523l-71 149h126l29 -71h2l46 71h125l-107 -149h-150z" />
    <glyph glyph-name="breve" unicode="&#x2d8;" horiz-adv-x="409" 
d="M236 516q-69 0 -105 41t-32 115h108q-2 -21 8 -34.5t31 -13.5q22 0 39 14t23 34h108q-13 -71 -60 -113.5t-120 -42.5z" />
    <glyph glyph-name="dotaccent" unicode="&#x2d9;" horiz-adv-x="463" 
d="M272 528q-39 0 -64.5 24.5t-25.5 61.5q0 38 26 63t67 25q40 0 65 -24t25 -61q0 -39 -26 -64t-67 -25z" />
    <glyph glyph-name="ring" unicode="&#x2da;" horiz-adv-x="417" 
d="M253 512q-45 0 -75 30.5t-30 74.5q0 45 31 75.5t77 30.5q45 0 74.5 -29.5t29.5 -73.5q0 -46 -30.5 -77t-76.5 -31zM255 582q15 0 25.5 10.5t10.5 26.5q0 14 -10.5 24.5t-24.5 10.5q-16 0 -27 -10.5t-11 -25.5q0 -16 10.5 -26t26.5 -10z" />
    <glyph glyph-name="ogonek" unicode="&#x2db;" horiz-adv-x="435" 
d="M193 -191q-97 0 -97 79q0 36 24 71t61 56l123 -15q-39 -3 -68 -29.5t-29 -56.5q0 -24 25 -24q21 0 33 7l2 -77q-27 -11 -74 -11z" />
    <glyph glyph-name="tilde" unicode="&#x2dc;" horiz-adv-x="444" 
d="M334 527q-34 0 -76 30q-24 18 -44 18q-33 0 -58 -51l-84 42q50 120 129 120q35 0 75 -27q27 -19 42 -19q36 0 60 49l84 -34q-23 -59 -55.5 -93.5t-72.5 -34.5z" />
    <glyph glyph-name="hungarumlaut" unicode="&#x2dd;" horiz-adv-x="491" 
d="M60 533l117 149l148 1l-130 -150h-135zM267 533l116 149l148 1l-129 -150h-135z" />
    <glyph glyph-name="gravecomb" unicode="&#x300;" 
d="M-497 533l-93 150l150 -1l80 -149h-137z" />
    <glyph glyph-name="acutecomb" unicode="&#x301;" 
d="M-571 533l117 149l152 1l-129 -150h-140z" />
    <glyph glyph-name="uni0302" unicode="&#x302;" 
d="M-631 531l115 152h131l84 -152h-130l-24 74h-1l-42 -74h-133z" />
    <glyph glyph-name="tildecomb" unicode="&#x303;" 
d="M-383 527q-33 0 -76 30q-24 18 -44 18q-33 0 -58 -51l-84 42q50 120 129 120q8 0 15.5 -1t14.5 -3t11.5 -3.5t10.5 -5t8.5 -5t8 -5t6.5 -4.5q27 -19 42 -19q35 0 60 49l84 -34q-23 -59 -55.5 -93.5t-72.5 -34.5z" />
    <glyph glyph-name="uni0304" unicode="&#x304;" 
d="M-605 558l15 115h285l-14 -115h-286z" />
    <glyph glyph-name="uni0306" unicode="&#x306;" 
d="M-469 516q-69 0 -105 41t-32 115h108q-2 -21 8 -34.5t31 -13.5q22 0 39 14t23 34h108q-13 -71 -60 -113.5t-120 -42.5z" />
    <glyph glyph-name="uni0307" unicode="&#x307;" 
d="M-458 528q-39 0 -64.5 24.5t-25.5 61.5q0 38 26 63t67 25q40 0 65 -24t25 -61q0 -39 -26 -64t-67 -25z" />
    <glyph glyph-name="uni0308" unicode="&#x308;" 
d="M-565 528q-39 0 -64.5 24.5t-25.5 61.5q0 38 26 63t67 25q40 0 65 -24t25 -61q0 -39 -26 -64t-67 -25zM-348 528q-39 0 -64.5 24.5t-25.5 61.5q0 39 26 63.5t68 24.5q39 0 64 -24t25 -61q0 -39 -26 -64t-67 -25z" />
    <glyph glyph-name="hookabovecomb" unicode="&#x309;" 
d="M-438 522l-81 1q56 42 59 77q3 22 -23 22q-30 0 -65 -23l-18 63q23 22 61 38t77 16q40 0 63 -18t23 -51q0 -38 -27.5 -72t-68.5 -53z" />
    <glyph glyph-name="uni030A" unicode="&#x30a;" 
d="M-454 515q-45 0 -75 30.5t-30 74.5q0 45 31 75.5t77 30.5q45 0 74.5 -29.5t29.5 -73.5q0 -46 -30.5 -77t-76.5 -31zM-452 585q15 0 25.5 10.5t10.5 26.5q0 14 -10.5 24.5t-24.5 10.5q-16 0 -27 -10.5t-11 -25.5q0 -16 10.5 -26t26.5 -10z" />
    <glyph glyph-name="uni030B" unicode="&#x30b;" 
d="M-633 533l117 149l148 1l-130 -150h-135zM-426 533l116 149l148 1l-129 -150h-135z" />
    <glyph glyph-name="uni030C" unicode="&#x30c;" 
d="M-539 523l-71 149h126l29 -71h2l46 71h125l-107 -149h-150z" />
    <glyph glyph-name="uni0312" unicode="&#x312;" 
d="M-518 542q-2 14 -2 23q0 68 42.5 105.5t117.5 39.5l16 -85q-31 -7 -43.5 -19.5t-12.5 -38.5q0 -5 2 -25h-120z" />
    <glyph glyph-name="uni0313" unicode="&#x313;" 
d="M-474 701q2 -14 2 -23q0 -68 -42.5 -105.5t-117.5 -39.5l-16 85q31 7 43.5 19.5t12.5 38.5q0 5 -2 25h120z" />
    <glyph glyph-name="uni031B" unicode="&#x31b;" 
d="M-437 445q-32 0 -65 13l17 64q18 -8 28 -8q14 0 23.5 8.5t15 27t8.5 35.5t7 47l10 78h122l-10 -86q-12 -90 -53 -134.5t-103 -44.5z" />
    <glyph glyph-name="dotbelowcomb" unicode="&#x323;" 
d="M-545 -60q39 0 64.5 -24.5t25.5 -61.5q0 -38 -26 -63t-67 -25q-40 0 -65 24t-25 61q0 39 26 64t67 25z" />
    <glyph glyph-name="uni0326" unicode="&#x326;" 
d="M-641 -221l-15 85q31 7 43.5 19.5t12.5 38.5q0 5 -2 25h120q2 -14 2 -23q0 -68 -42.5 -105.5t-118.5 -39.5z" />
    <glyph glyph-name="uni0327" unicode="&#x327;" 
d="M-590 -192q-33 0 -54 6l2 61q16 -6 39 -6q53 0 53 33q0 25 -65 25l1 38l26 41h77l-26 -36l1 -1q75 -3 75 -66q0 -47 -34.5 -71t-94.5 -24z" />
    <glyph glyph-name="uni0328" unicode="&#x328;" 
d="M-643 -191q-97 0 -97 79q0 36 24 71t61 56l123 -15q-39 -3 -68 -29.5t-29 -56.5q0 -24 25 -24q21 0 33 7l2 -77q-27 -11 -74 -11z" />
    <glyph glyph-name="uni0335" unicode="&#x335;" 
d="M-635 215l11 90h270l-11 -90h-270z" />
    <glyph glyph-name="Wgrave" unicode="&#x1e80;" horiz-adv-x="932" 
d="M464 761l-94 140l150 -1l81 -139h-137zM187 0l-113 710h164l52 -457h3l153 457h160l39 -447h3l157 447h169l-289 -710h-141l-51 469h-2l-167 -469h-137z" />
    <glyph glyph-name="wgrave" unicode="&#x1e81;" horiz-adv-x="759" 
d="M353 557l-93 150l150 -1l80 -149h-137zM165 -9q-76 0 -109 55t-21 147l42 296h148l-36 -261q-14 -103 30 -103q27 0 56.5 38t39.5 118l26 208h145l-33 -267q-7 -53 0 -75t28 -22q30 0 61.5 45.5t44.5 147.5q11 81 0 171h151q17 -97 0 -201q-22 -155 -99 -226t-183 -71
q-110 0 -134 89h-2q-25 -42 -68 -65.5t-87 -23.5z" />
    <glyph glyph-name="Wacute" unicode="&#x1e82;" horiz-adv-x="932" 
d="M460 761l115 139l151 1l-131 -140h-135zM187 0l-113 710h164l52 -457h3l153 457h160l39 -447h3l157 447h169l-289 -710h-141l-51 469h-2l-167 -469h-137z" />
    <glyph glyph-name="wacute" unicode="&#x1e83;" horiz-adv-x="759" 
d="M350 556l117 149l152 1l-129 -150h-140zM165 -9q-76 0 -109 55t-21 147l42 296h148l-36 -261q-14 -103 30 -103q27 0 56.5 38t39.5 118l26 208h145l-33 -267q-7 -53 0 -75t28 -22q30 0 61.5 45.5t44.5 147.5q11 81 0 171h151q17 -97 0 -201q-22 -155 -99 -226t-183 -71
q-110 0 -134 89h-2q-25 -42 -68 -65.5t-87 -23.5z" />
    <glyph glyph-name="Wdieresis" unicode="&#x1e84;" horiz-adv-x="932" 
d="M424 757q-39 0 -64.5 24.5t-25.5 61.5q0 38 26 63t67 25q40 0 65 -24t25 -61q0 -39 -26 -64t-67 -25zM641 757q-39 0 -64.5 24.5t-25.5 61.5q0 39 26 63.5t68 24.5q39 0 64 -24t25 -61q0 -39 -26 -64t-67 -25zM187 0l-113 710h164l52 -457h3l153 457h160l39 -447h3
l157 447h169l-289 -710h-141l-51 469h-2l-167 -469h-137z" />
    <glyph glyph-name="wdieresis" unicode="&#x1e85;" horiz-adv-x="759" 
d="M321 552q-39 0 -64.5 24.5t-25.5 61.5q0 38 26 63t67 25q40 0 65 -24t25 -61q0 -39 -26 -64t-67 -25zM538 552q-39 0 -64.5 24.5t-25.5 61.5q0 39 26 63.5t68 24.5q39 0 64 -24t25 -61q0 -39 -26 -64t-67 -25zM165 -9q-76 0 -109 55t-21 147l42 296h148l-36 -261
q-14 -103 30 -103q27 0 56.5 38t39.5 118l26 208h145l-33 -267q-7 -53 0 -75t28 -22q30 0 61.5 45.5t44.5 147.5q11 81 0 171h151q17 -97 0 -201q-22 -155 -99 -226t-183 -71q-110 0 -134 89h-2q-25 -42 -68 -65.5t-87 -23.5z" />
    <glyph glyph-name="uni1E9E" unicode="&#x1e9e;" horiz-adv-x="756" 
d="M553 426q11 -6 36.5 -21t35.5 -21t30 -19.5t29 -22.5t22 -24t18.5 -28.5t10 -32.5t4.5 -40q0 -105 -68.5 -165.5t-182.5 -60.5q-145 0 -220 91l99 120q49 -70 126 -70q39 0 59 19t20 47q0 26 -18.5 42t-73.5 46q-89 49 -119 81l129 205l-1 5q-57 7 -102 7
q-126 0 -141 -129l-57 -455h-156l57 461q32 259 302 259q143 0 315 -48z" />
    <glyph glyph-name="uni1EA0" unicode="&#x1ea0;" horiz-adv-x="635" 
d="M-23 0l320 710h154l146 -710h-166l-22 131h-213l-51 -131h-168zM247 266h141l-42 249h-2zM277 -60q39 0 64.5 -24.5t25.5 -61.5q0 -38 -26 -63t-67 -25q-40 0 -65 24t-25 61q0 39 26 64t67 25z" />
    <glyph glyph-name="uni1EA1" unicode="&#x1ea1;" horiz-adv-x="553" 
d="M186 -9q-76 0 -117.5 56t-41.5 144q0 130 67 218.5t164 88.5q74 0 115 -43h3l4 34h151l-60 -489h-151l9 72l-3 1q-57 -82 -140 -82zM234 124q42 0 79.5 51.5t49.5 139.5l2 14q-33 35 -81 35q-47 0 -76.5 -51t-29.5 -111q0 -35 15.5 -56.5t40.5 -21.5zM230 -60
q39 0 64.5 -24.5t25.5 -61.5q0 -38 -26 -63t-67 -25q-40 0 -65 24t-25 61q0 39 26 64t67 25z" />
    <glyph glyph-name="uni1EA2" unicode="&#x1ea2;" horiz-adv-x="635" 
d="M415 770l-81 1q56 42 59 77q3 22 -23 22q-30 0 -65 -23l-18 63q23 22 61 38t77 16q40 0 63 -18t23 -51q0 -38 -27.5 -72t-68.5 -53zM-23 0l320 710h154l146 -710h-166l-22 131h-213l-51 -131h-168zM247 266h141l-42 249h-2z" />
    <glyph glyph-name="uni1EA3" unicode="&#x1ea3;" horiz-adv-x="553" 
d="M349 546l-81 1q56 42 59 77q3 22 -23 22q-30 0 -65 -23l-18 63q23 22 61 38t77 16q40 0 63 -18t23 -51q0 -38 -27.5 -72t-68.5 -53zM186 -9q-76 0 -117.5 56t-41.5 144q0 130 67 218.5t164 88.5q74 0 115 -43h3l4 34h151l-60 -489h-151l9 72l-3 1q-57 -82 -140 -82z
M234 124q42 0 79.5 51.5t49.5 139.5l2 14q-33 35 -81 35q-47 0 -76.5 -51t-29.5 -111q0 -35 15.5 -56.5t40.5 -21.5z" />
    <glyph glyph-name="uni1EA4" unicode="&#x1ea4;" horiz-adv-x="635" 
d="M546 824l105 144l139 1l-139 -145h-105zM222 761l108 140h150l73 -140h-126l-32 64h-1l-48 -64h-124zM-23 0l320 710h154l146 -710h-166l-22 131h-213l-51 -131h-168zM247 266h141l-42 249h-2z" />
    <glyph glyph-name="uni1EA5" unicode="&#x1ea5;" horiz-adv-x="553" 
d="M458 652l99 150h140l-140 -150h-99zM155 555l115 152h131l84 -152h-130l-24 74h-1l-42 -74h-133zM186 -9q-76 0 -117.5 56t-41.5 144q0 130 67 218.5t164 88.5q74 0 115 -43h3l4 34h151l-60 -489h-151l9 72l-3 1q-57 -82 -140 -82zM234 124q42 0 79.5 51.5t49.5 139.5
l2 14q-33 35 -81 35q-47 0 -76.5 -51t-29.5 -111q0 -35 15.5 -56.5t40.5 -21.5z" />
    <glyph glyph-name="uni1EA6" unicode="&#x1ea6;" horiz-adv-x="635" 
d="M571 822l-92 147h135l60 -147h-103zM222 760l108 140h150l73 -140h-126l-32 64h-1l-48 -64h-124zM-23 0l320 710h154l146 -710h-166l-22 131h-213l-51 -131h-168zM247 266h141l-42 249h-2z" />
    <glyph glyph-name="uni1EA7" unicode="&#x1ea7;" horiz-adv-x="553" 
d="M479 652l-88 151l136 -1l49 -150h-97zM156 555l115 152h131l84 -152h-130l-24 74h-1l-42 -74h-133zM186 -9q-76 0 -117.5 56t-41.5 144q0 130 67 218.5t164 88.5q74 0 115 -43h3l4 34h151l-60 -489h-151l9 72l-3 1q-57 -82 -140 -82zM234 124q42 0 79.5 51.5t49.5 139.5
l2 14q-33 35 -81 35q-47 0 -76.5 -51t-29.5 -111q0 -35 15.5 -56.5t40.5 -21.5z" />
    <glyph glyph-name="uni1EA8" unicode="&#x1ea8;" horiz-adv-x="635" 
d="M611 837l-73 1q50 35 53 54q1 8 -4.5 12.5t-17.5 4.5q-25 0 -57 -18l-16 55q21 18 55 31.5t69 13.5t55 -14.5t20 -41.5q0 -31 -23.5 -57t-60.5 -41zM221 761l108 140h150l73 -140h-126l-32 64h-1l-48 -64h-124zM-23 0l320 710h154l146 -710h-166l-22 131h-213l-51 -131
h-168zM247 266h141l-42 249h-2z" />
    <glyph glyph-name="uni1EA9" unicode="&#x1ea9;" horiz-adv-x="553" 
d="M537 641l-74 1q52 41 54 71q1 9 -4.5 14.5t-16.5 5.5q-28 0 -60 -21l-16 58q20 20 55.5 34.5t70.5 14.5q37 0 58 -16.5t21 -46.5q0 -35 -25 -66.5t-63 -48.5zM155 555l115 152h131l84 -152h-130l-24 74h-1l-42 -74h-133zM186 -9q-76 0 -117.5 56t-41.5 144
q0 130 67 218.5t164 88.5q74 0 115 -43h3l4 34h151l-60 -489h-151l9 72l-3 1q-57 -82 -140 -82zM234 124q42 0 79.5 51.5t49.5 139.5l2 14q-33 35 -81 35q-47 0 -76.5 -51t-29.5 -111q0 -35 15.5 -56.5t40.5 -21.5z" />
    <glyph glyph-name="uni1EAA" unicode="&#x1eaa;" horiz-adv-x="635" 
d="M480 922q-29 0 -72 28q-26 17 -41 17q-29 0 -53 -47l-78 38q50 103 119 103q36 0 71 -25q28 -18 41 -18q32 0 54 44l79 -29q-48 -111 -120 -111zM222 761l108 140h150l73 -140h-126l-32 64h-1l-48 -64h-124zM-23 0l320 710h154l146 -710h-166l-22 131h-213l-51 -131h-168
zM247 266h141l-42 249h-2z" />
    <glyph glyph-name="uni1EAB" unicode="&#x1eab;" horiz-adv-x="553" 
d="M420 734q-8 0 -15 1.5t-12 3t-11.5 5.5t-9.5 6t-9 7t-8 6q-25 17 -40 17q-30 0 -55 -47l-79 38q51 105 122 105q32 0 69 -22q4 -3 11.5 -8.5t12 -8t10.5 -5t11 -2.5q29 0 53 50l79 -33q-22 -50 -55.5 -81.5t-73.5 -31.5zM155 555l115 152h131l84 -152h-130l-24 74h-1
l-42 -74h-133zM186 -9q-76 0 -117.5 56t-41.5 144q0 130 67 218.5t164 88.5q74 0 115 -43h3l4 34h151l-60 -489h-151l9 72l-3 1q-57 -82 -140 -82zM234 124q42 0 79.5 51.5t49.5 139.5l2 14q-33 35 -81 35q-47 0 -76.5 -51t-29.5 -111q0 -35 15.5 -56.5t40.5 -21.5z" />
    <glyph glyph-name="uni1EAC" unicode="&#x1eac;" horiz-adv-x="635" 
d="M220 761l108 140h150l73 -140h-126l-32 64h-1l-48 -64h-124zM-23 0l320 710h154l146 -710h-166l-22 131h-213l-51 -131h-168zM247 266h141l-42 249h-2zM277 -60q39 0 64.5 -24.5t25.5 -61.5q0 -38 -26 -63t-67 -25q-40 0 -65 24t-25 61q0 39 26 64t67 25z" />
    <glyph glyph-name="uni1EAD" unicode="&#x1ead;" horiz-adv-x="553" 
d="M154 555l115 152h131l84 -152h-130l-24 74h-1l-42 -74h-133zM186 -9q-76 0 -117.5 56t-41.5 144q0 130 67 218.5t164 88.5q74 0 115 -43h3l4 34h151l-60 -489h-151l9 72l-3 1q-57 -82 -140 -82zM234 124q42 0 79.5 51.5t49.5 139.5l2 14q-33 35 -81 35q-47 0 -76.5 -51
t-29.5 -111q0 -35 15.5 -56.5t40.5 -21.5zM230 -60q39 0 64.5 -24.5t25.5 -61.5q0 -38 -26 -63t-67 -25q-40 0 -65 24t-25 61q0 39 26 64t67 25z" />
    <glyph glyph-name="uni1EAE" unicode="&#x1eae;" horiz-adv-x="635" 
d="M357 899l101 133l138 1l-137 -134h-102zM385 748q-75 0 -111.5 36.5t-31.5 100.5h112q-2 -17 8.5 -29.5t32.5 -12.5q23 0 40.5 12.5t24.5 29.5h114q-15 -61 -62 -99t-127 -38zM-23 0l320 710h154l146 -710h-166l-22 131h-213l-51 -131h-168zM247 266h141l-42 249h-2z" />
    <glyph glyph-name="uni1EAF" unicode="&#x1eaf;" horiz-adv-x="553" 
d="M282 715l107 149h139l-141 -149h-105zM316 540q-69 0 -105 41t-32 115h108q-2 -21 8 -34.5t31 -13.5q22 0 39 14t23 34h108q-13 -71 -60 -113.5t-120 -42.5zM186 -9q-76 0 -117.5 56t-41.5 144q0 130 67 218.5t164 88.5q74 0 115 -43h3l4 34h151l-60 -489h-151l9 72l-3 1
q-57 -82 -140 -82zM234 124q42 0 79.5 51.5t49.5 139.5l2 14q-33 35 -81 35q-47 0 -76.5 -51t-29.5 -111q0 -35 15.5 -56.5t40.5 -21.5z" />
    <glyph glyph-name="uni1EB0" unicode="&#x1eb0;" horiz-adv-x="635" 
d="M362 902l-93 134l136 -1l57 -133h-100zM386 748q-75 0 -111.5 36.5t-31.5 100.5h112q-2 -17 8.5 -29.5t32.5 -12.5q23 0 40.5 12.5t24.5 29.5h114q-15 -61 -62 -99t-127 -38zM-23 0l320 710h154l146 -710h-166l-22 131h-213l-51 -131h-168zM247 266h141l-42 249h-2z" />
    <glyph glyph-name="uni1EB1" unicode="&#x1eb1;" horiz-adv-x="553" 
d="M293 715l-88 151l136 -1l49 -150h-97zM317 540q-69 0 -105 41t-32 115h108q-2 -21 8 -34.5t31 -13.5q22 0 39 14t23 34h108q-13 -71 -60 -113.5t-120 -42.5zM186 -9q-76 0 -117.5 56t-41.5 144q0 130 67 218.5t164 88.5q74 0 115 -43h3l4 34h151l-60 -489h-151l9 72l-3 1
q-57 -82 -140 -82zM234 124q42 0 79.5 51.5t49.5 139.5l2 14q-33 35 -81 35q-47 0 -76.5 -51t-29.5 -111q0 -35 15.5 -56.5t40.5 -21.5z" />
    <glyph glyph-name="uni1EB2" unicode="&#x1eb2;" horiz-adv-x="635" 
d="M438 890l-73 1q50 35 53 54q1 8 -4.5 12.5t-17.5 4.5q-26 0 -57 -18l-16 55q21 18 55 31.5t69 13.5t55 -14.5t20 -41.5q0 -31 -23.5 -57t-60.5 -41zM386 748q-75 0 -111.5 36.5t-31.5 100.5h112q-2 -17 8.5 -29.5t32.5 -12.5q23 0 40.5 12.5t24.5 29.5h114
q-15 -61 -62 -99t-127 -38zM-23 0l320 710h154l146 -710h-166l-22 131h-213l-51 -131h-168zM247 266h141l-42 249h-2z" />
    <glyph glyph-name="uni1EB3" unicode="&#x1eb3;" horiz-adv-x="553" 
d="M377 695l-74 1q52 41 54 71q1 9 -4.5 14.5t-16.5 5.5q-28 0 -60 -21l-16 58q20 20 55.5 34.5t70.5 14.5q37 0 58 -16.5t21 -46.5q0 -35 -25 -66.5t-63 -48.5zM318 539q-71 0 -108 39t-33 110h111q-2 -20 8 -33t32 -13q23 0 40.5 13.5t23.5 32.5h111q-14 -68 -61.5 -108.5
t-123.5 -40.5zM186 -9q-76 0 -117.5 56t-41.5 144q0 130 67 218.5t164 88.5q74 0 115 -43h3l4 34h151l-60 -489h-151l9 72l-3 1q-57 -82 -140 -82zM234 124q42 0 79.5 51.5t49.5 139.5l2 14q-33 35 -81 35q-47 0 -76.5 -51t-29.5 -111q0 -35 15.5 -56.5t40.5 -21.5z" />
    <glyph glyph-name="uni1EB4" unicode="&#x1eb4;" horiz-adv-x="635" 
d="M479 903q-29 0 -72 28q-26 17 -41 17q-30 0 -53 -47l-78 38q50 103 119 103q36 0 71 -25q28 -18 41 -18q32 0 54 44l79 -29q-48 -111 -120 -111zM386 748q-75 0 -111.5 36.5t-31.5 100.5h112q-2 -17 8.5 -29.5t32.5 -12.5q23 0 40.5 12.5t24.5 29.5h114q-15 -61 -62 -99
t-127 -38zM-23 0l320 710h154l146 -710h-166l-22 131h-213l-51 -131h-168zM247 266h141l-42 249h-2z" />
    <glyph glyph-name="uni1EB5" unicode="&#x1eb5;" horiz-adv-x="553" 
d="M416 715q-8 0 -15 1.5t-12 3t-11.5 5.5t-9.5 6t-9 7t-8 6q-25 17 -40 17q-30 0 -55 -47l-79 38q51 105 122 105q32 0 69 -22q4 -3 11.5 -8.5t12 -8t10.5 -5t11 -2.5q29 0 53 50l79 -33q-22 -50 -55.5 -81.5t-73.5 -31.5zM316 540q-69 0 -105 41t-32 115h108
q-2 -21 8 -34.5t31 -13.5q22 0 39 14t23 34h108q-13 -71 -60 -113.5t-120 -42.5zM186 -9q-76 0 -117.5 56t-41.5 144q0 130 67 218.5t164 88.5q74 0 115 -43h3l4 34h151l-60 -489h-151l9 72l-3 1q-57 -82 -140 -82zM234 124q42 0 79.5 51.5t49.5 139.5l2 14q-33 35 -81 35
q-47 0 -76.5 -51t-29.5 -111q0 -35 15.5 -56.5t40.5 -21.5z" />
    <glyph glyph-name="uni1EB6" unicode="&#x1eb6;" horiz-adv-x="635" 
d="M384 754q-72 0 -107 39t-30 108h107q-2 -19 8 -32t31 -13q23 0 39.5 13.5t22.5 31.5h109q-14 -66 -59 -106.5t-121 -40.5zM-23 0l320 710h154l146 -710h-166l-22 131h-213l-51 -131h-168zM247 266h141l-42 249h-2zM277 -60q39 0 64.5 -24.5t25.5 -61.5q0 -38 -26 -63
t-67 -25q-40 0 -65 24t-25 61q0 39 26 64t67 25z" />
    <glyph glyph-name="uni1EB7" unicode="&#x1eb7;" horiz-adv-x="553" 
d="M317 540q-69 0 -105 41t-32 115h108q-2 -21 8 -34.5t31 -13.5q22 0 39 14t23 34h108q-13 -71 -60 -113.5t-120 -42.5zM186 -9q-76 0 -117.5 56t-41.5 144q0 130 67 218.5t164 88.5q74 0 115 -43h3l4 34h151l-60 -489h-151l9 72l-3 1q-57 -82 -140 -82zM234 124
q42 0 79.5 51.5t49.5 139.5l2 14q-33 35 -81 35q-47 0 -76.5 -51t-29.5 -111q0 -35 15.5 -56.5t40.5 -21.5zM230 -60q39 0 64.5 -24.5t25.5 -61.5q0 -38 -26 -63t-67 -25q-40 0 -65 24t-25 61q0 39 26 64t67 25z" />
    <glyph glyph-name="uni1EB8" unicode="&#x1eb8;" horiz-adv-x="569" 
d="M37 0l87 710h448l-18 -143h-291l-18 -145h263l-16 -138h-263l-18 -141h306l-18 -143h-462zM262 -60q39 0 64.5 -24.5t25.5 -61.5q0 -38 -26 -63t-67 -25q-40 0 -65 24t-25 61q0 39 26 64t67 25z" />
    <glyph glyph-name="uni1EB9" unicode="&#x1eb9;" horiz-adv-x="477" 
d="M252 115q51 0 92 53l97 -92q-73 -85 -199 -85q-100 0 -157.5 55.5t-57.5 157.5q1 123 75 208.5t195 85.5q70 0 120 -33t50 -99q0 -45 -24.5 -80t-68 -56.5t-92.5 -34t-108 -18.5q15 -62 78 -62zM284 373q-34 0 -63.5 -28.5t-42.5 -77.5q145 15 145 74q0 32 -39 32z
M211 -60q39 0 64.5 -24.5t25.5 -61.5q0 -38 -26 -63t-67 -25q-40 0 -65 24t-25 61q0 39 26 64t67 25z" />
    <glyph glyph-name="uni1EBA" unicode="&#x1eba;" horiz-adv-x="569" 
d="M385 760l-81 1q56 39 59 61q1 8 -5 13t-19 5q-31 0 -64 -20l-18 62q23 20 61 34.5t77 14.5q38 0 60.5 -16t22.5 -46q0 -34 -26 -62.5t-67 -46.5zM37 0l87 710h448l-18 -143h-291l-18 -145h263l-16 -138h-263l-18 -141h306l-18 -143h-462z" />
    <glyph glyph-name="uni1EBB" unicode="&#x1ebb;" horiz-adv-x="477" 
d="M280 646q-30 0 -65 -23l-18 63q23 22 61 38t77 16q40 0 63 -18t23 -51q0 -38 -27.5 -72t-68.5 -53l-81 1q56 42 59 77q3 22 -23 22zM252 115q51 0 92 53l97 -92q-73 -85 -199 -85q-100 0 -157.5 55.5t-57.5 157.5q1 123 75 208.5t195 85.5q70 0 120 -33t50 -99
q0 -45 -24.5 -80t-68 -56.5t-92.5 -34t-108 -18.5q15 -62 78 -62zM284 373q-34 0 -63.5 -28.5t-42.5 -77.5q145 15 145 74q0 32 -39 32z" />
    <glyph glyph-name="uni1EBC" unicode="&#x1ebc;" horiz-adv-x="569" 
d="M440 761q-32 0 -77 30q-26 18 -44 18q-32 0 -57 -50l-84 41q53 110 128 110q37 0 76 -26q30 -20 44 -20q34 0 58 48l84 -32q-52 -119 -128 -119zM37 0l87 710h448l-18 -143h-291l-18 -145h263l-16 -138h-263l-18 -141h306l-18 -143h-462z" />
    <glyph glyph-name="uni1EBD" unicode="&#x1ebd;" horiz-adv-x="477" 
d="M259 599q-33 0 -58 -51l-84 42q50 120 129 120q8 0 15.5 -1t14.5 -3t11.5 -3.5t10.5 -5t8.5 -5t8 -5t6.5 -4.5q27 -19 42 -19q35 0 60 49l84 -34q-23 -59 -55.5 -93.5t-72.5 -34.5q-33 0 -76 30q-24 18 -44 18zM467 366q0 -45 -24.5 -80t-68 -56.5t-92.5 -34t-108 -18.5
q15 -62 78 -62q51 0 92 53l97 -92q-73 -85 -199 -85q-100 0 -157.5 55.5t-57.5 157.5q1 123 75 208.5t195 85.5q70 0 120 -33t50 -99zM178 267q145 15 145 74q0 32 -39 32q-34 0 -63.5 -28.5t-42.5 -77.5z" />
    <glyph glyph-name="uni1EBE" unicode="&#x1ebe;" horiz-adv-x="569" 
d="M517 823l105 144l139 1l-139 -145h-105zM193 760l108 140h150l73 -140h-126l-32 64h-1l-48 -64h-124zM37 0l87 710h448l-18 -143h-291l-18 -145h263l-16 -138h-263l-18 -141h306l-18 -143h-462z" />
    <glyph glyph-name="uni1EBF" unicode="&#x1ebf;" horiz-adv-x="477" 
d="M533 802h140l-140 -150h-99zM306 629l-42 -74h-133l115 152h131l84 -152h-130l-24 74h-1zM467 366q0 -45 -24.5 -80t-68 -56.5t-92.5 -34t-108 -18.5q15 -62 78 -62q51 0 92 53l97 -92q-73 -85 -199 -85q-100 0 -157.5 55.5t-57.5 157.5q1 123 75 208.5t195 85.5
q70 0 120 -33t50 -99zM178 267q145 15 145 74q0 32 -39 32q-34 0 -63.5 -28.5t-42.5 -77.5z" />
    <glyph glyph-name="uni1EC0" unicode="&#x1ec0;" horiz-adv-x="569" 
d="M542 821l-92 147h135l60 -147h-103zM193 759l108 140h150l73 -140h-126l-32 64h-1l-48 -64h-124zM37 0l87 710h448l-18 -143h-291l-18 -145h263l-16 -138h-263l-18 -141h306l-18 -143h-462z" />
    <glyph glyph-name="uni1EC1" unicode="&#x1ec1;" horiz-adv-x="477" 
d="M552 652h-97l-88 151l136 -1zM307 629l-42 -74h-133l115 152h131l84 -152h-130l-24 74h-1zM467 366q0 -45 -24.5 -80t-68 -56.5t-92.5 -34t-108 -18.5q15 -62 78 -62q51 0 92 53l97 -92q-73 -85 -199 -85q-100 0 -157.5 55.5t-57.5 157.5q1 123 75 208.5t195 85.5
q70 0 120 -33t50 -99zM178 267q145 15 145 74q0 32 -39 32q-34 0 -63.5 -28.5t-42.5 -77.5z" />
    <glyph glyph-name="uni1EC2" unicode="&#x1ec2;" horiz-adv-x="569" 
d="M582 836l-73 1q50 35 53 54q1 8 -4.5 12.5t-17.5 4.5q-26 0 -57 -18l-16 55q21 18 55 31.5t69 13.5t55 -14.5t20 -41.5q0 -31 -23.5 -57t-60.5 -41zM192 760l108 140h150l73 -140h-126l-32 64h-1l-48 -64h-124zM37 0l87 710h448l-18 -143h-291l-18 -145h263l-16 -138
h-263l-18 -141h306l-18 -143h-462z" />
    <glyph glyph-name="uni1EC3" unicode="&#x1ec3;" horiz-adv-x="477" 
d="M522 819q37 0 58 -16.5t21 -46.5q0 -35 -25 -66.5t-63 -48.5l-74 1q52 41 54 71q1 9 -4.5 14.5t-16.5 5.5q-28 0 -60 -21l-16 58q20 20 55.5 34.5t70.5 14.5zM306 629l-42 -74h-133l115 152h131l84 -152h-130l-24 74h-1zM467 366q0 -45 -24.5 -80t-68 -56.5t-92.5 -34
t-108 -18.5q15 -62 78 -62q51 0 92 53l97 -92q-73 -85 -199 -85q-100 0 -157.5 55.5t-57.5 157.5q1 123 75 208.5t195 85.5q70 0 120 -33t50 -99zM178 267q145 15 145 74q0 32 -39 32q-34 0 -63.5 -28.5t-42.5 -77.5z" />
    <glyph glyph-name="uni1EC4" unicode="&#x1ec4;" horiz-adv-x="569" 
d="M451 921q-29 0 -72 28q-25 17 -41 17q-30 0 -53 -47l-78 38q50 103 119 103q36 0 71 -25q28 -18 41 -18q32 0 54 44l79 -29q-48 -111 -120 -111zM193 760l108 140h150l73 -140h-126l-32 64h-1l-48 -64h-124zM37 0l87 710h448l-18 -143h-291l-18 -145h263l-16 -138h-263
l-18 -141h306l-18 -143h-462z" />
    <glyph glyph-name="uni1EC5" unicode="&#x1ec5;" horiz-adv-x="477" 
d="M446 880l79 -33q-22 -50 -55.5 -81.5t-73.5 -31.5q-8 0 -15 1.5t-12 3t-11.5 5.5t-9.5 6t-9 7t-8 6q-25 17 -40 17q-30 0 -55 -47l-79 38q51 105 122 105q32 0 69 -22q4 -3 11.5 -8.5t12 -8t10.5 -5t11 -2.5q29 0 53 50zM307 629h-1l-42 -74h-133l115 152h131l84 -152
h-130zM467 366q0 -45 -24.5 -80t-68 -56.5t-92.5 -34t-108 -18.5q15 -62 78 -62q51 0 92 53l97 -92q-73 -85 -199 -85q-100 0 -157.5 55.5t-57.5 157.5q1 123 75 208.5t195 85.5q70 0 120 -33t50 -99zM178 267q145 15 145 74q0 32 -39 32q-34 0 -63.5 -28.5t-42.5 -77.5z
" />
    <glyph glyph-name="uni1EC6" unicode="&#x1ec6;" horiz-adv-x="569" 
d="M191 760l108 140h150l73 -140h-126l-32 64h-1l-48 -64h-124zM37 0l87 710h448l-18 -143h-291l-18 -145h263l-16 -138h-263l-18 -141h306l-18 -143h-462zM262 -60q39 0 64.5 -24.5t25.5 -61.5q0 -38 -26 -63t-67 -25q-40 0 -65 24t-25 61q0 39 26 64t67 25z" />
    <glyph glyph-name="uni1EC7" unicode="&#x1ec7;" horiz-adv-x="477" 
d="M305 629l-42 -74h-133l115 152h131l84 -152h-130l-24 74h-1zM252 115q51 0 92 53l97 -92q-73 -85 -199 -85q-100 0 -157.5 55.5t-57.5 157.5q1 123 75 208.5t195 85.5q70 0 120 -33t50 -99q0 -45 -24.5 -80t-68 -56.5t-92.5 -34t-108 -18.5q15 -62 78 -62zM284 373
q-34 0 -63.5 -28.5t-42.5 -77.5q145 15 145 74q0 32 -39 32zM211 -60q39 0 64.5 -24.5t25.5 -61.5q0 -38 -26 -63t-67 -25q-40 0 -65 24t-25 61q0 39 26 64t67 25z" />
    <glyph glyph-name="uni1EC8" unicode="&#x1ec8;" horiz-adv-x="308" 
d="M244 760l-81 1q56 39 59 61q1 8 -5 13t-19 5q-31 0 -64 -20l-18 62q23 20 61 34.5t77 14.5q38 0 60.5 -16t22.5 -46q0 -34 -26 -62.5t-67 -46.5zM43 0l87 710h162l-87 -710h-162z" />
    <glyph glyph-name="uni1EC9" unicode="&#x1ec9;" horiz-adv-x="268" 
d="M203 546l-81 1q56 42 59 77q3 22 -23 22q-30 0 -65 -23l-18 63q23 22 61 38t77 16q40 0 63 -18t23 -51q0 -38 -27.5 -72t-68.5 -53zM29 0l60 489h150l-60 -489h-150z" />
    <glyph glyph-name="uni1ECA" unicode="&#x1eca;" horiz-adv-x="308" 
d="M43 0l87 710h162l-87 -710h-162zM108 -60q39 0 64.5 -24.5t25.5 -61.5q0 -38 -26 -63t-67 -25q-40 0 -65 24t-25 61q0 39 26 64t67 25z" />
    <glyph glyph-name="uni1ECB" unicode="&#x1ecb;" horiz-adv-x="268" 
d="M182 552q-39 0 -64.5 24.5t-25.5 61.5q0 38 26 63t67 25q40 0 65 -24t25 -61q0 -39 -26 -64t-67 -25zM29 0l60 489h150l-60 -489h-150zM88 -60q39 0 64.5 -24.5t25.5 -61.5q0 -38 -26 -63t-67 -25q-40 0 -65 24t-25 61q0 39 26 64t67 25z" />
    <glyph glyph-name="uni1ECC" unicode="&#x1ecc;" horiz-adv-x="739" 
d="M339 -9q-132 0 -210.5 79.5t-78.5 221.5q0 114 45.5 210.5t132.5 156.5t198 60q132 0 211 -79.5t79 -219.5q0 -118 -43.5 -214.5t-130.5 -155.5t-203 -59zM351 141q86 0 142 78t56 192q0 79 -37.5 119t-100.5 40q-82 0 -138 -81t-56 -187q0 -79 36.5 -120t97.5 -41z
M325 -60q39 0 64.5 -24.5t25.5 -61.5q0 -38 -26 -63t-67 -25q-40 0 -65 24t-25 61q0 39 26 64t67 25z" />
    <glyph glyph-name="uni1ECD" unicode="&#x1ecd;" horiz-adv-x="535" 
d="M235 -9q-94 0 -150.5 55.5t-56.5 155.5q0 125 72.5 210.5t198.5 85.5q95 0 151.5 -55.5t56.5 -155.5q0 -127 -69.5 -211.5t-202.5 -84.5zM250 125q45 0 75 45t30 104q0 50 -21.5 70t-48.5 20q-46 0 -75.5 -46.5t-29.5 -103.5q0 -49 21.5 -69t48.5 -20zM219 -60
q39 0 64.5 -24.5t25.5 -61.5q0 -38 -26 -63t-67 -25q-40 0 -65 24t-25 61q0 39 26 64t67 25z" />
    <glyph glyph-name="uni1ECE" unicode="&#x1ece;" horiz-adv-x="739" 
d="M489 761l-81 1q56 39 59 61q1 8 -5 13t-19 5q-31 0 -64 -20l-18 62q23 20 61 34.5t77 14.5q38 0 60.5 -16t22.5 -46q0 -34 -26 -62.5t-67 -46.5zM339 -9q-132 0 -210.5 79.5t-78.5 221.5q0 114 45.5 210.5t132.5 156.5t198 60q132 0 211 -79.5t79 -219.5
q0 -118 -43.5 -214.5t-130.5 -155.5t-203 -59zM351 141q86 0 142 78t56 192q0 79 -37.5 119t-100.5 40q-82 0 -138 -81t-56 -187q0 -79 36.5 -120t97.5 -41z" />
    <glyph glyph-name="uni1ECF" unicode="&#x1ecf;" horiz-adv-x="535" 
d="M342 546l-81 1q56 42 59 77q3 22 -23 22q-30 0 -65 -23l-18 63q23 22 61 38t77 16q40 0 63 -18t23 -51q0 -38 -27.5 -72t-68.5 -53zM235 -9q-94 0 -150.5 55.5t-56.5 155.5q0 125 72.5 210.5t198.5 85.5q95 0 151.5 -55.5t56.5 -155.5q0 -127 -69.5 -211.5t-202.5 -84.5z
M250 125q45 0 75 45t30 104q0 50 -21.5 70t-48.5 20q-46 0 -75.5 -46.5t-29.5 -103.5q0 -49 21.5 -69t48.5 -20z" />
    <glyph glyph-name="uni1ED0" unicode="&#x1ed0;" horiz-adv-x="739" 
d="M621 824l105 144l139 1l-139 -145h-105zM297 761l108 140h150l73 -140h-126l-32 64h-1l-48 -64h-124zM339 -9q-132 0 -210.5 79.5t-78.5 221.5q0 114 45.5 210.5t132.5 156.5t198 60q132 0 211 -79.5t79 -219.5q0 -118 -43.5 -214.5t-130.5 -155.5t-203 -59zM351 141
q86 0 142 78t56 192q0 79 -37.5 119t-100.5 40q-82 0 -138 -81t-56 -187q0 -79 36.5 -120t97.5 -41z" />
    <glyph glyph-name="uni1ED1" unicode="&#x1ed1;" horiz-adv-x="535" 
d="M451 652l99 150h140l-140 -150h-99zM148 555l115 152h131l84 -152h-130l-24 74h-1l-42 -74h-133zM235 -9q-94 0 -150.5 55.5t-56.5 155.5q0 125 72.5 210.5t198.5 85.5q95 0 151.5 -55.5t56.5 -155.5q0 -127 -69.5 -211.5t-202.5 -84.5zM250 125q45 0 75 45t30 104
q0 50 -21.5 70t-48.5 20q-46 0 -75.5 -46.5t-29.5 -103.5q0 -49 21.5 -69t48.5 -20z" />
    <glyph glyph-name="uni1ED2" unicode="&#x1ed2;" horiz-adv-x="739" 
d="M646 822l-92 147h135l60 -147h-103zM297 760l108 140h150l73 -140h-126l-32 64h-1l-48 -64h-124zM339 -9q-132 0 -210.5 79.5t-78.5 221.5q0 114 45.5 210.5t132.5 156.5t198 60q132 0 211 -79.5t79 -219.5q0 -118 -43.5 -214.5t-130.5 -155.5t-203 -59zM351 141
q86 0 142 78t56 192q0 79 -37.5 119t-100.5 40q-82 0 -138 -81t-56 -187q0 -79 36.5 -120t97.5 -41z" />
    <glyph glyph-name="uni1ED3" unicode="&#x1ed3;" horiz-adv-x="535" 
d="M472 652l-88 151l136 -1l49 -150h-97zM149 555l115 152h131l84 -152h-130l-24 74h-1l-42 -74h-133zM235 -9q-94 0 -150.5 55.5t-56.5 155.5q0 125 72.5 210.5t198.5 85.5q95 0 151.5 -55.5t56.5 -155.5q0 -127 -69.5 -211.5t-202.5 -84.5zM250 125q45 0 75 45t30 104
q0 50 -21.5 70t-48.5 20q-46 0 -75.5 -46.5t-29.5 -103.5q0 -49 21.5 -69t48.5 -20z" />
    <glyph glyph-name="uni1ED4" unicode="&#x1ed4;" horiz-adv-x="739" 
d="M686 837l-73 1q50 35 53 54q1 8 -4.5 12.5t-17.5 4.5q-26 0 -57 -18l-16 55q21 18 55 31.5t69 13.5t55 -14.5t20 -41.5q0 -31 -23.5 -57t-60.5 -41zM296 761l108 140h150l73 -140h-126l-32 64h-1l-48 -64h-124zM339 -9q-132 0 -210.5 79.5t-78.5 221.5q0 114 45.5 210.5
t132.5 156.5t198 60q132 0 211 -79.5t79 -219.5q0 -118 -43.5 -214.5t-130.5 -155.5t-203 -59zM351 141q86 0 142 78t56 192q0 79 -37.5 119t-100.5 40q-82 0 -138 -81t-56 -187q0 -79 36.5 -120t97.5 -41z" />
    <glyph glyph-name="uni1ED5" unicode="&#x1ed5;" horiz-adv-x="535" 
d="M530 641l-74 1q52 41 54 71q1 9 -4.5 14.5t-16.5 5.5q-29 0 -60 -21l-16 58q20 20 55.5 34.5t70.5 14.5q37 0 58 -16.5t21 -46.5q0 -35 -25 -66.5t-63 -48.5zM148 555l115 152h131l84 -152h-130l-24 74h-1l-42 -74h-133zM235 -9q-94 0 -150.5 55.5t-56.5 155.5
q0 125 72.5 210.5t198.5 85.5q95 0 151.5 -55.5t56.5 -155.5q0 -127 -69.5 -211.5t-202.5 -84.5zM250 125q45 0 75 45t30 104q0 50 -21.5 70t-48.5 20q-46 0 -75.5 -46.5t-29.5 -103.5q0 -49 21.5 -69t48.5 -20z" />
    <glyph glyph-name="uni1ED6" unicode="&#x1ed6;" horiz-adv-x="739" 
d="M555 922q-29 0 -72 28q-25 17 -41 17q-30 0 -53 -47l-78 38q50 103 119 103q36 0 71 -25q28 -18 41 -18q32 0 54 44l79 -29q-48 -111 -120 -111zM297 761l108 140h150l73 -140h-126l-32 64h-1l-48 -64h-124zM339 -9q-132 0 -210.5 79.5t-78.5 221.5q0 114 45.5 210.5
t132.5 156.5t198 60q132 0 211 -79.5t79 -219.5q0 -118 -43.5 -214.5t-130.5 -155.5t-203 -59zM351 141q86 0 142 78t56 192q0 79 -37.5 119t-100.5 40q-82 0 -138 -81t-56 -187q0 -79 36.5 -120t97.5 -41z" />
    <glyph glyph-name="uni1ED7" unicode="&#x1ed7;" horiz-adv-x="535" 
d="M413 734q-8 0 -15 1.5t-12 3t-11.5 5.5t-9.5 6t-9 7t-8 6q-25 17 -40 17q-30 0 -55 -47l-79 38q51 105 122 105q32 0 69 -22q4 -3 11.5 -8.5t12 -8t10.5 -5t11 -2.5q29 0 53 50l79 -33q-22 -50 -55.5 -81.5t-73.5 -31.5zM148 555l115 152h131l84 -152h-130l-24 74h-1
l-42 -74h-133zM235 -9q-94 0 -150.5 55.5t-56.5 155.5q0 125 72.5 210.5t198.5 85.5q95 0 151.5 -55.5t56.5 -155.5q0 -127 -69.5 -211.5t-202.5 -84.5zM250 125q45 0 75 45t30 104q0 50 -21.5 70t-48.5 20q-46 0 -75.5 -46.5t-29.5 -103.5q0 -49 21.5 -69t48.5 -20z" />
    <glyph glyph-name="uni1ED8" unicode="&#x1ed8;" horiz-adv-x="739" 
d="M295 761l108 140h150l73 -140h-126l-32 64h-1l-48 -64h-124zM339 -9q-132 0 -210.5 79.5t-78.5 221.5q0 114 45.5 210.5t132.5 156.5t198 60q132 0 211 -79.5t79 -219.5q0 -118 -43.5 -214.5t-130.5 -155.5t-203 -59zM351 141q86 0 142 78t56 192q0 79 -37.5 119
t-100.5 40q-82 0 -138 -81t-56 -187q0 -79 36.5 -120t97.5 -41zM325 -60q39 0 64.5 -24.5t25.5 -61.5q0 -38 -26 -63t-67 -25q-40 0 -65 24t-25 61q0 39 26 64t67 25z" />
    <glyph glyph-name="uni1ED9" unicode="&#x1ed9;" horiz-adv-x="535" 
d="M147 555l115 152h131l84 -152h-130l-24 74h-1l-42 -74h-133zM235 -9q-94 0 -150.5 55.5t-56.5 155.5q0 125 72.5 210.5t198.5 85.5q95 0 151.5 -55.5t56.5 -155.5q0 -127 -69.5 -211.5t-202.5 -84.5zM250 125q45 0 75 45t30 104q0 50 -21.5 70t-48.5 20
q-46 0 -75.5 -46.5t-29.5 -103.5q0 -49 21.5 -69t48.5 -20zM219 -60q39 0 64.5 -24.5t25.5 -61.5q0 -38 -26 -63t-67 -25q-40 0 -65 24t-25 61q0 39 26 64t67 25z" />
    <glyph glyph-name="uni1EDA" unicode="&#x1eda;" horiz-adv-x="796" 
d="M628 901l-131 -140h-135l115 139zM720 774h122l-10 -86q-20 -156 -126 -176q10 -47 10 -92q0 -118 -43.5 -214.5t-130.5 -155.5t-203 -59q-132 0 -210.5 79.5t-78.5 221.5q0 114 45.5 210.5t132.5 156.5t198 60q85 0 150 -34.5t101 -99.5q22 18 33 111zM351 141
q86 0 142 78t56 192q0 79 -37.5 119t-100.5 40q-82 0 -138 -81t-56 -187q0 -79 36.5 -120t97.5 -41z" />
    <glyph glyph-name="uni1EDB" unicode="&#x1edb;" horiz-adv-x="633" 
d="M511 706l-129 -150h-140l117 149zM538 565h122l-10 -86q-11 -85 -49 -129.5t-94 -49.5v-13q0 -127 -69.5 -211.5t-202.5 -84.5q-94 0 -150.5 55.5t-56.5 155.5q0 125 72.5 210.5t198.5 85.5q71 0 121.5 -32t72.5 -91q24 16 35 112zM250 125q45 0 75 45t30 104
q0 50 -21.5 70t-48.5 20q-46 0 -75.5 -46.5t-29.5 -103.5q0 -49 21.5 -69t48.5 -20z" />
    <glyph glyph-name="uni1EDC" unicode="&#x1edc;" horiz-adv-x="796" 
d="M524 761h-137l-94 140l150 -1zM720 774h122l-10 -86q-20 -156 -126 -176q10 -47 10 -92q0 -118 -43.5 -214.5t-130.5 -155.5t-203 -59q-132 0 -210.5 79.5t-78.5 221.5q0 114 45.5 210.5t132.5 156.5t198 60q85 0 150 -34.5t101 -99.5q22 18 33 111zM351 141q86 0 142 78
t56 192q0 79 -37.5 119t-100.5 40q-82 0 -138 -81t-56 -187q0 -79 36.5 -120t97.5 -41z" />
    <glyph glyph-name="uni1EDD" unicode="&#x1edd;" horiz-adv-x="633" 
d="M385 557h-137l-93 150l150 -1zM538 565h122l-10 -86q-11 -85 -49 -129.5t-94 -49.5v-13q0 -127 -69.5 -211.5t-202.5 -84.5q-94 0 -150.5 55.5t-56.5 155.5q0 125 72.5 210.5t198.5 85.5q71 0 121.5 -32t72.5 -91q24 16 35 112zM250 125q45 0 75 45t30 104q0 50 -21.5 70
t-48.5 20q-46 0 -75.5 -46.5t-29.5 -103.5q0 -49 21.5 -69t48.5 -20z" />
    <glyph glyph-name="uni1EDE" unicode="&#x1ede;" horiz-adv-x="796" 
d="M443 841q-31 0 -64 -20l-18 62q23 20 61 34.5t77 14.5q38 0 60.5 -16t22.5 -46q0 -34 -26 -62.5t-67 -46.5l-81 1q56 39 59 61q1 8 -5 13t-19 5zM720 774h122l-10 -86q-20 -156 -126 -176q10 -47 10 -92q0 -118 -43.5 -214.5t-130.5 -155.5t-203 -59q-132 0 -210.5 79.5
t-78.5 221.5q0 114 45.5 210.5t132.5 156.5t198 60q85 0 150 -34.5t101 -99.5q22 18 33 111zM351 141q86 0 142 78t56 192q0 79 -37.5 119t-100.5 40q-82 0 -138 -81t-56 -187q0 -79 36.5 -120t97.5 -41z" />
    <glyph glyph-name="uni1EDF" unicode="&#x1edf;" horiz-adv-x="633" 
d="M297 646q-30 0 -65 -23l-18 63q23 22 61 38t77 16q40 0 63 -18t23 -51q0 -38 -27.5 -72t-68.5 -53l-81 1q56 42 59 77q3 22 -23 22zM538 565h122l-10 -86q-11 -85 -49 -129.5t-94 -49.5v-13q0 -127 -69.5 -211.5t-202.5 -84.5q-94 0 -150.5 55.5t-56.5 155.5
q0 125 72.5 210.5t198.5 85.5q71 0 121.5 -32t72.5 -91q24 16 35 112zM250 125q45 0 75 45t30 104q0 50 -21.5 70t-48.5 20q-46 0 -75.5 -46.5t-29.5 -103.5q0 -49 21.5 -69t48.5 -20z" />
    <glyph glyph-name="uni1EE0" unicode="&#x1ee0;" horiz-adv-x="796" 
d="M423 810q-32 0 -57 -50l-84 41q53 110 128 110q37 0 76 -26q30 -20 44 -20q34 0 58 48l84 -32q-52 -119 -128 -119q-32 0 -77 30q-26 18 -44 18zM720 774h122l-10 -86q-20 -156 -126 -176q10 -47 10 -92q0 -118 -43.5 -214.5t-130.5 -155.5t-203 -59q-132 0 -210.5 79.5
t-78.5 221.5q0 114 45.5 210.5t132.5 156.5t198 60q85 0 150 -34.5t101 -99.5q22 18 33 111zM351 141q86 0 142 78t56 192q0 79 -37.5 119t-100.5 40q-82 0 -138 -81t-56 -187q0 -79 36.5 -120t97.5 -41z" />
    <glyph glyph-name="uni1EE1" unicode="&#x1ee1;" horiz-adv-x="633" 
d="M276 599q-33 0 -58 -51l-84 42q50 120 129 120q35 0 75 -27q27 -19 42 -19q36 0 60 49l84 -34q-23 -59 -55.5 -93.5t-72.5 -34.5q-34 0 -76 30q-24 18 -44 18zM538 565h122l-10 -86q-11 -85 -49 -129.5t-94 -49.5v-13q0 -127 -69.5 -211.5t-202.5 -84.5
q-94 0 -150.5 55.5t-56.5 155.5q0 125 72.5 210.5t198.5 85.5q71 0 121.5 -32t72.5 -91q24 16 35 112zM250 125q45 0 75 45t30 104q0 50 -21.5 70t-48.5 20q-46 0 -75.5 -46.5t-29.5 -103.5q0 -49 21.5 -69t48.5 -20z" />
    <glyph glyph-name="uni1EE2" unicode="&#x1ee2;" horiz-adv-x="796" 
d="M720 774h122l-10 -86q-20 -156 -126 -176q10 -47 10 -92q0 -118 -43.5 -214.5t-130.5 -155.5t-203 -59q-132 0 -210.5 79.5t-78.5 221.5q0 114 45.5 210.5t132.5 156.5t198 60q85 0 150 -34.5t101 -99.5q22 18 33 111zM351 141q86 0 142 78t56 192q0 79 -37.5 119
t-100.5 40q-82 0 -138 -81t-56 -187q0 -79 36.5 -120t97.5 -41zM325 -60q39 0 64.5 -24.5t25.5 -61.5q0 -38 -26 -63t-67 -25q-40 0 -65 24t-25 61q0 39 26 64t67 25z" />
    <glyph glyph-name="uni1EE3" unicode="&#x1ee3;" horiz-adv-x="633" 
d="M538 565h122l-10 -86q-11 -85 -49 -129.5t-94 -49.5v-13q0 -127 -69.5 -211.5t-202.5 -84.5q-94 0 -150.5 55.5t-56.5 155.5q0 125 72.5 210.5t198.5 85.5q71 0 121.5 -32t72.5 -91q24 16 35 112zM250 125q45 0 75 45t30 104q0 50 -21.5 70t-48.5 20q-46 0 -75.5 -46.5
t-29.5 -103.5q0 -49 21.5 -69t48.5 -20zM219 -60q39 0 64.5 -24.5t25.5 -61.5q0 -38 -26 -63t-67 -25q-40 0 -65 24t-25 61q0 39 26 64t67 25z" />
    <glyph glyph-name="uni1EE4" unicode="&#x1ee4;" horiz-adv-x="653" 
d="M299 -9q-139 0 -194.5 85.5t-36.5 241.5l49 392h160l-50 -405q-20 -164 85 -164q53 0 85.5 36t42.5 120l51 413h160l-51 -417q-20 -161 -93.5 -231.5t-207.5 -70.5zM285 -60q39 0 64.5 -24.5t25.5 -61.5q0 -38 -26 -63t-67 -25q-40 0 -65 24t-25 61q0 39 26 64t67 25z
" />
    <glyph glyph-name="uni1EE5" unicode="&#x1ee5;" horiz-adv-x="539" 
d="M167 -9q-153 0 -125 194l42 304h149l-37 -259q-8 -59 -1 -82t33 -23q32 0 67.5 43.5t42.5 96.5l27 224h150l-60 -489h-147l6 72h-2q-60 -81 -145 -81zM223 -60q39 0 64.5 -24.5t25.5 -61.5q0 -38 -26 -63t-67 -25q-40 0 -65 24t-25 61q0 39 26 64t67 25z" />
    <glyph glyph-name="uni1EE6" unicode="&#x1ee6;" horiz-adv-x="653" 
d="M421 761l-81 1q56 39 59 61q1 8 -5 13t-19 5q-31 0 -64 -20l-18 62q23 20 61 34.5t77 14.5q38 0 60.5 -16t22.5 -46q0 -34 -26 -62.5t-67 -46.5zM299 -9q-139 0 -194.5 85.5t-36.5 241.5l49 392h160l-50 -405q-20 -164 85 -164q53 0 85.5 36t42.5 120l51 413h160
l-51 -417q-20 -161 -93.5 -231.5t-207.5 -70.5z" />
    <glyph glyph-name="uni1EE7" unicode="&#x1ee7;" horiz-adv-x="539" 
d="M339 546l-81 1q56 42 59 77q3 22 -23 22q-30 0 -65 -23l-18 63q23 22 61 38t77 16q40 0 63 -18t23 -51q0 -38 -27.5 -72t-68.5 -53zM167 -9q-153 0 -125 194l42 304h149l-37 -259q-8 -59 -1 -82t33 -23q32 0 67.5 43.5t42.5 96.5l27 224h150l-60 -489h-147l6 72h-2
q-60 -81 -145 -81z" />
    <glyph glyph-name="uni1EE8" unicode="&#x1ee8;" horiz-adv-x="770" 
d="M579 901l-131 -140h-135l115 139zM712 774h122l-10 -86q-12 -90 -53 -134.5t-103 -44.5q-19 0 -41 5l-27 -221q-20 -161 -93.5 -231.5t-207.5 -70.5q-139 0 -194.5 85.5t-36.5 241.5l49 392h160l-50 -405q-20 -164 85 -164q53 0 85.5 36t42.5 120l51 413h160l-16 -130
q10 -2 13 -2q14 0 23.5 8.5t15 27t8.5 35.5t7 47z" />
    <glyph glyph-name="uni1EE9" unicode="&#x1ee9;" horiz-adv-x="661" 
d="M511 706l-129 -150h-140l117 149zM574 565h122l-10 -86q-12 -90 -53 -134.5t-103 -44.5q-21 0 -38 4l-37 -304h-147l6 72h-2q-60 -81 -145 -81q-153 0 -125 194l42 304h149l-37 -259q-8 -59 -1 -82t33 -23q32 0 67.5 43.5t42.5 96.5l27 224h150l-15 -119q4 -1 10 -1
q14 0 23.5 8.5t15 27t8.5 35.5t7 47z" />
    <glyph glyph-name="uni1EEA" unicode="&#x1eea;" horiz-adv-x="770" 
d="M463 761h-137l-94 140l150 -1zM712 774h122l-10 -86q-12 -90 -53 -134.5t-103 -44.5q-19 0 -41 5l-27 -221q-20 -161 -93.5 -231.5t-207.5 -70.5q-139 0 -194.5 85.5t-36.5 241.5l49 392h160l-50 -405q-20 -164 85 -164q53 0 85.5 36t42.5 120l51 413h160l-16 -130
q10 -2 13 -2q14 0 23.5 8.5t15 27t8.5 35.5t7 47z" />
    <glyph glyph-name="uni1EEB" unicode="&#x1eeb;" horiz-adv-x="661" 
d="M377 557h-137l-93 150l150 -1zM574 565h122l-10 -86q-12 -90 -53 -134.5t-103 -44.5q-21 0 -38 4l-37 -304h-147l6 72h-2q-60 -81 -145 -81q-153 0 -125 194l42 304h149l-37 -259q-8 -59 -1 -82t33 -23q32 0 67.5 43.5t42.5 96.5l27 224h150l-15 -119q4 -1 10 -1
q14 0 23.5 8.5t15 27t8.5 35.5t7 47z" />
    <glyph glyph-name="uni1EEC" unicode="&#x1eec;" horiz-adv-x="770" 
d="M375 841q-31 0 -64 -20l-18 62q23 20 61 34.5t77 14.5q38 0 60.5 -16t22.5 -46q0 -34 -26 -62.5t-67 -46.5l-81 1q56 39 59 61q1 8 -5 13t-19 5zM712 774h122l-10 -86q-12 -90 -53 -134.5t-103 -44.5q-19 0 -41 5l-27 -221q-20 -161 -93.5 -231.5t-207.5 -70.5
q-139 0 -194.5 85.5t-36.5 241.5l49 392h160l-50 -405q-20 -164 85 -164q53 0 85.5 36t42.5 120l51 413h160l-16 -130q10 -2 13 -2q14 0 23.5 8.5t15 27t8.5 35.5t7 47z" />
    <glyph glyph-name="uni1EED" unicode="&#x1eed;" horiz-adv-x="661" 
d="M294 646q-30 0 -65 -23l-18 63q23 22 61 38t77 16q40 0 63 -18t23 -51q0 -38 -27.5 -72t-68.5 -53l-81 1q56 42 59 77q3 22 -23 22zM574 565h122l-10 -86q-12 -90 -53 -134.5t-103 -44.5q-21 0 -38 4l-37 -304h-147l6 72h-2q-60 -81 -145 -81q-153 0 -125 194l42 304h149
l-37 -259q-8 -59 -1 -82t33 -23q32 0 67.5 43.5t42.5 96.5l27 224h150l-15 -119q4 -1 10 -1q14 0 23.5 8.5t15 27t8.5 35.5t7 47z" />
    <glyph glyph-name="uni1EEE" unicode="&#x1eee;" horiz-adv-x="770" 
d="M355 810q-32 0 -57 -50l-84 41q53 110 128 110q37 0 76 -26q30 -20 44 -20q34 0 58 48l84 -32q-52 -119 -128 -119q-32 0 -77 30q-26 18 -44 18zM712 774h122l-10 -86q-12 -90 -53 -134.5t-103 -44.5q-19 0 -41 5l-27 -221q-20 -161 -93.5 -231.5t-207.5 -70.5
q-139 0 -194.5 85.5t-36.5 241.5l49 392h160l-50 -405q-20 -164 85 -164q53 0 85.5 36t42.5 120l51 413h160l-16 -130q10 -2 13 -2q14 0 23.5 8.5t15 27t8.5 35.5t7 47z" />
    <glyph glyph-name="uni1EEF" unicode="&#x1eef;" horiz-adv-x="661" 
d="M273 599q-33 0 -58 -51l-84 42q50 120 129 120q8 0 15.5 -1t14.5 -3t11.5 -3.5t10.5 -5t8.5 -5t8 -5t6.5 -4.5q27 -19 42 -19q35 0 60 49l84 -34q-23 -59 -55.5 -93.5t-72.5 -34.5q-33 0 -76 30q-24 18 -44 18zM574 565h122l-10 -86q-12 -90 -53 -134.5t-103 -44.5
q-21 0 -38 4l-37 -304h-147l6 72h-2q-60 -81 -145 -81q-153 0 -125 194l42 304h149l-37 -259q-8 -59 -1 -82t33 -23q32 0 67.5 43.5t42.5 96.5l27 224h150l-15 -119q4 -1 10 -1q14 0 23.5 8.5t15 27t8.5 35.5t7 47z" />
    <glyph glyph-name="uni1EF0" unicode="&#x1ef0;" horiz-adv-x="770" 
d="M712 774h122l-10 -86q-12 -90 -53 -134.5t-103 -44.5q-19 0 -41 5l-27 -221q-20 -161 -93.5 -231.5t-207.5 -70.5q-139 0 -194.5 85.5t-36.5 241.5l49 392h160l-50 -405q-20 -164 85 -164q53 0 85.5 36t42.5 120l51 413h160l-16 -130q10 -2 13 -2q14 0 23.5 8.5t15 27
t8.5 35.5t7 47zM285 -60q39 0 64.5 -24.5t25.5 -61.5q0 -38 -26 -63t-67 -25q-40 0 -65 24t-25 61q0 39 26 64t67 25z" />
    <glyph glyph-name="uni1EF1" unicode="&#x1ef1;" horiz-adv-x="661" 
d="M574 565h122l-10 -86q-12 -90 -53 -134.5t-103 -44.5q-21 0 -38 4l-37 -304h-147l6 72h-2q-60 -81 -145 -81q-153 0 -125 194l42 304h149l-37 -259q-8 -59 -1 -82t33 -23q32 0 67.5 43.5t42.5 96.5l27 224h150l-15 -119q4 -1 10 -1q14 0 23.5 8.5t15 27t8.5 35.5t7 47z
M223 -60q39 0 64.5 -24.5t25.5 -61.5q0 -38 -26 -63t-67 -25q-40 0 -65 24t-25 61q0 39 26 64t67 25z" />
    <glyph glyph-name="Ygrave" unicode="&#x1ef2;" horiz-adv-x="581" 
d="M294 761l-94 140l150 -1l81 -139h-137zM179 0l39 310l-159 400h176l79 -250h3l138 250h183l-259 -400l-38 -310h-162z" />
    <glyph glyph-name="ygrave" unicode="&#x1ef3;" horiz-adv-x="534" 
d="M386 557h-137l-93 150l150 -1zM363 489h149l-52 -423q-32 -273 -275 -273q-98 0 -180 43l57 116q50 -36 119 -36q53 0 85.5 31.5t44.5 121.5v1l-3 1q-59 -80 -148 -80q-150 0 -122 194l42 304h149l-36 -259q-8 -59 -1.5 -82t33.5 -23q33 0 68.5 44.5t41.5 96.5z" />
    <glyph glyph-name="uni1EF4" unicode="&#x1ef4;" horiz-adv-x="581" 
d="M179 0l39 310l-159 400h176l79 -250h3l138 250h183l-259 -400l-38 -310h-162zM244 -60q39 0 64.5 -24.5t25.5 -61.5q0 -38 -26 -63t-67 -25q-40 0 -65 24t-25 61q0 39 26 64t67 25z" />
    <glyph glyph-name="uni1EF5" unicode="&#x1ef5;" horiz-adv-x="534" 
d="M363 489h149l-52 -423q-32 -273 -275 -273q-98 0 -180 43l57 116q50 -36 119 -36q53 0 85.5 31.5t44.5 121.5v1l-3 1q-59 -80 -148 -80q-150 0 -122 194l42 304h149l-36 -259q-8 -59 -1.5 -82t33.5 -23q33 0 68.5 44.5t41.5 96.5zM207 -215q39 0 64.5 -24.5t25.5 -61.5
q0 -38 -26 -63t-67 -25q-40 0 -65 24t-25 61q0 39 26 64t67 25z" />
    <glyph glyph-name="uni1EF6" unicode="&#x1ef6;" horiz-adv-x="581" 
d="M382 761l-81 1q56 39 59 61q1 8 -5 13t-19 5q-31 0 -64 -20l-18 62q23 20 61 34.5t77 14.5q38 0 60.5 -16t22.5 -46q0 -34 -26 -62.5t-67 -46.5zM179 0l39 310l-159 400h176l79 -250h3l138 250h183l-259 -400l-38 -310h-162z" />
    <glyph glyph-name="uni1EF7" unicode="&#x1ef7;" horiz-adv-x="534" 
d="M285 646q-30 0 -65 -23l-18 63q23 22 61 38t77 16q40 0 63 -18t23 -51q0 -38 -27.5 -72t-68.5 -53l-81 1q56 42 59 77q3 22 -23 22zM363 489h149l-52 -423q-32 -273 -275 -273q-98 0 -180 43l57 116q50 -36 119 -36q53 0 85.5 31.5t44.5 121.5v1l-3 1q-59 -80 -148 -80
q-150 0 -122 194l42 304h149l-36 -259q-8 -59 -1.5 -82t33.5 -23q33 0 68.5 44.5t41.5 96.5z" />
    <glyph glyph-name="uni1EF8" unicode="&#x1ef8;" horiz-adv-x="581" 
d="M437 762q-32 0 -77 30q-26 18 -44 18q-32 0 -57 -50l-84 41q53 110 128 110q37 0 76 -26q30 -20 44 -20q34 0 58 48l84 -32q-52 -119 -128 -119zM179 0l39 310l-159 400h176l79 -250h3l138 250h183l-259 -400l-38 -310h-162z" />
    <glyph glyph-name="uni1EF9" unicode="&#x1ef9;" horiz-adv-x="534" 
d="M264 599q-33 0 -58 -51l-84 42q50 120 129 120q35 0 75 -27q27 -19 42 -19q36 0 60 49l84 -34q-23 -59 -55.5 -93.5t-72.5 -34.5q-34 0 -76 30q-24 18 -44 18zM335 266l28 223h149l-52 -423q-32 -273 -275 -273q-98 0 -180 43l57 116q50 -36 119 -36q53 0 85.5 31.5
t44.5 121.5v1l-3 1q-59 -80 -148 -80q-150 0 -122 194l42 304h149l-36 -259q-8 -59 -1.5 -82t33.5 -23q33 0 68.5 44.5t41.5 96.5z" />
    <glyph glyph-name="uni2002" unicode="&#x2002;" horiz-adv-x="467" 
 />
    <glyph glyph-name="uni2003" unicode="&#x2003;" horiz-adv-x="934" 
 />
    <glyph glyph-name="uni2007" unicode="&#x2007;" horiz-adv-x="586" 
 />
    <glyph glyph-name="uni2009" unicode="&#x2009;" horiz-adv-x="16" 
 />
    <glyph glyph-name="uni2010" unicode="&#x2010;" horiz-adv-x="359" 
d="M40 240l17 137h277l-17 -137h-277z" />
    <glyph glyph-name="figuredash" unicode="&#x2012;" horiz-adv-x="586" 
d="M39 236l15 126h507l-15 -126h-507z" />
    <glyph glyph-name="endash" unicode="&#x2013;" horiz-adv-x="548" 
d="M40 236l15 126h467l-16 -126h-466z" />
    <glyph glyph-name="emdash" unicode="&#x2014;" horiz-adv-x="1015" 
d="M40 236l15 126h934l-16 -126h-933z" />
    <glyph glyph-name="uni2015" unicode="&#x2015;" horiz-adv-x="1181" 
d="M39 236l16 126h1100l-15 -126h-1101z" />
    <glyph glyph-name="quoteleft" unicode="&#x2018;" horiz-adv-x="227" 
d="M262 709l-59 -267h-149l96 267h112z" />
    <glyph glyph-name="quoteright" unicode="&#x2019;" horiz-adv-x="227" 
d="M54 443l59 267h149l-96 -267h-112z" />
    <glyph glyph-name="quotesinglbase" unicode="&#x201a;" horiz-adv-x="238" 
d="M-27 -133l59 267h148l-101 -267h-106z" />
    <glyph glyph-name="quotedblleft" unicode="&#x201c;" horiz-adv-x="425" 
d="M262 709l-59 -267h-150l97 267h112zM459 709l-59 -267h-149l96 267h112z" />
    <glyph glyph-name="quotedblright" unicode="&#x201d;" horiz-adv-x="424" 
d="M55 443l59 267h149l-96 -267h-112zM252 443l59 267h150l-97 -267h-112z" />
    <glyph glyph-name="quotedblbase" unicode="&#x201e;" horiz-adv-x="436" 
d="M-19 -79l59 267h149l-96 -267h-112zM178 -79l59 267h150l-97 -267h-112z" />
    <glyph glyph-name="dagger" unicode="&#x2020;" horiz-adv-x="352" 
d="M175 220l-33 69l19 124l12 107h-16l-82 -5l11 81l80 -4h15l9 95h82l-16 -95h16l82 6l-11 -83l-80 5h-17l-13 -107l-9 -124z" />
    <glyph glyph-name="daggerdbl" unicode="&#x2021;" horiz-adv-x="353" 
d="M112 52l15 94h-15l-83 -6l10 82l81 -4h17l5 48l9 103l17 101l6 50h-17l-82 -4l11 80l80 -5h16l7 96h83l-17 -96h17l82 5l-11 -80l-81 4h-15l-6 -50l-9 -101l-18 -103l-4 -48h16l82 4l-10 -81l-81 5h-17l-6 -94h-82z" />
    <glyph glyph-name="bullet" unicode="&#x2022;" horiz-adv-x="421" 
d="M217 194q-52 0 -86.5 34.5t-34.5 86.5t36 87.5t90 35.5q52 0 86 -34t34 -85q0 -54 -36 -89.5t-89 -35.5z" />
    <glyph glyph-name="ellipsis" unicode="&#x2026;" horiz-adv-x="1000" 
d="M139 -11q-39 0 -62.5 24.5t-23.5 62.5q0 39 24.5 63.5t64.5 24.5t63.5 -24t23.5 -61q0 -40 -24.5 -65t-65.5 -25zM473 -11q-39 0 -62.5 24.5t-23.5 62.5q0 39 24.5 63.5t64.5 24.5t63.5 -24t23.5 -61q0 -40 -24.5 -65t-65.5 -25zM807 -11q-39 0 -62.5 24.5t-23.5 62.5
q0 39 24.5 63.5t64.5 24.5t63.5 -24t23.5 -61q0 -40 -24.5 -65t-65.5 -25z" />
    <glyph glyph-name="perthousand" unicode="&#x2030;" horiz-adv-x="1288" 
d="M221 329q-73 0 -120 44t-47 116q0 86 60 147.5t150 61.5q72 0 119 -44.5t47 -115.5q0 -85 -60.5 -147t-148.5 -62zM224 0l-86 68l549 624l83 -68zM233 430q38 0 63.5 28t25.5 67q0 31 -20 51t-51 20q-36 0 -61.5 -28.5t-25.5 -67.5q0 -30 20 -50t49 -20zM642 -9
q-72 0 -119.5 43.5t-47.5 115.5q0 86 60.5 147.5t149.5 61.5q72 0 119.5 -44t47.5 -116q0 -84 -61 -146t-149 -62zM1047 -9q-72 0 -119 43.5t-47 115.5q0 86 60 147.5t149 61.5q72 0 119.5 -44t47.5 -116q0 -84 -60.5 -146t-149.5 -62zM654 92q38 0 64 28t26 66q0 31 -20 51
t-51 20q-36 0 -61.5 -28.5t-25.5 -67.5q0 -31 19 -50t49 -19zM1060 92q38 0 63.5 28t25.5 66q0 31 -20 51t-51 20q-36 0 -61.5 -28.5t-25.5 -67.5q0 -31 19.5 -50t49.5 -19z" />
    <glyph glyph-name="minute" unicode="&#x2032;" horiz-adv-x="281" 
d="M50 443l106 267h149l-143 -267h-112z" />
    <glyph glyph-name="second" unicode="&#x2033;" horiz-adv-x="475" 
d="M50 443l106 267h149l-143 -267h-112zM244 443l106 267h149l-143 -267h-112z" />
    <glyph glyph-name="guilsinglleft" unicode="&#x2039;" horiz-adv-x="289" 
d="M111 46l-78 201l129 205h138l-129 -205l77 -201h-137z" />
    <glyph glyph-name="guilsinglright" unicode="&#x203a;" horiz-adv-x="287" 
d="M-10 46l128 201l-79 205h139l78 -205l-126 -201h-140z" />
    <glyph glyph-name="uni203D" unicode="&#x203d;" horiz-adv-x="433" 
d="M263 745q74 0 126 -42t52 -118q0 -114 -108 -202q-69 -59 -78 -100l-9 -44h-123l10 290h156l-5 -23q9 20 9 41q0 59 -62 59q-47 0 -83 -46l-92 91q78 94 207 94zM172 164q40 0 63.5 -24t23.5 -61q0 -40 -24.5 -65t-65.5 -25q-39 0 -62.5 24.5t-23.5 62.5q0 39 24.5 63.5
t64.5 24.5z" />
    <glyph glyph-name="uni2042" unicode="&#x2042;" horiz-adv-x="754" 
d="M333 380l17 97l-73 -52l-37 76l77 43l-67 45l53 76l63 -52l8 97h86l-16 -97l74 51l36 -75l-78 -44l68 -44l-53 -76l-61 52l-10 -97h-87zM115 45l17 97l-73 -52l-37 76l77 43l-67 45l53 76l63 -52l8 97h86l-16 -97l74 51l36 -75l-78 -44l68 -44l-53 -76l-61 52l-10 -97
h-87zM503 45l17 97l-73 -52l-37 76l77 43l-67 45l53 76l63 -52l8 97h86l-16 -97l74 51l36 -75l-78 -44l68 -44l-53 -76l-61 52l-10 -97h-87z" />
    <glyph glyph-name="fraction" unicode="&#x2044;" horiz-adv-x="196" 
d="M-7 -25l-105 49l371 704l106 -49z" />
    <glyph glyph-name="uni2051" unicode="&#x2051;" horiz-adv-x="366" 
d="M156 380l17 97l-73 -52l-36 76l76 43l-67 45l53 76l63 -52l8 97h86l-16 -97l74 51l36 -75l-78 -44l68 -44l-52 -76l-62 52l-9 -97h-88zM112 13l16 97l-73 -51l-36 76l77 43l-68 45l53 76l63 -52l9 97h86l-17 -97l74 50l36 -74l-78 -44l68 -44l-53 -77l-60 52l-11 -97h-86
z" />
    <glyph glyph-name="uni2070" unicode="&#x2070;" horiz-adv-x="372" 
d="M212 426q-69 0 -107 46t-38 127q0 105 50.5 181t137.5 76q69 0 108 -46t39 -126q0 -107 -50 -182.5t-140 -75.5zM217 530q24 0 41.5 26.5t24.5 60.5t7 69q0 32 -10 49.5t-27 17.5q-36 0 -55 -49.5t-19 -106.5q0 -67 38 -67z" />
    <glyph glyph-name="uni2074" unicode="&#x2074;" horiz-adv-x="326" 
d="M312 600h46l-12 -95h-46l-9 -69h-112l8 69h-146l8 67l205 276h88zM152 589h68l15 119z" />
    <glyph glyph-name="uni2075" unicode="&#x2075;" horiz-adv-x="316" 
d="M240 702q44 0 71.5 -28.5t27.5 -83.5q0 -74 -46.5 -118t-118.5 -44q-92 0 -138 48l64 88q25 -35 70 -35q25 0 39.5 15t14.5 39q0 40 -40 40q-30 0 -53 -21l-52 24l40 222h231l-13 -100h-140l-9 -52q28 6 52 6z" />
    <glyph glyph-name="uni2076" unicode="&#x2076;" horiz-adv-x="341" 
d="M252 698q51 0 83 -27t32 -85q0 -68 -40.5 -113t-115.5 -45q-69 0 -106.5 43.5t-37.5 122.5q0 68 19.5 125t68 97.5t119.5 40.5q48 2 99 -23l-46 -86q-26 13 -54 13q-71 0 -90 -77l5 -4q34 18 64 18zM215 526q20 0 32 15t12 39q0 35 -39 35q-25 0 -49 -21v-8q0 -26 12 -43
t32 -17z" />
    <glyph glyph-name="uni2077" unicode="&#x2077;" horiz-adv-x="295" 
d="M90 847h260l-8 -73l-156 -339h-120l147 310h-136z" />
    <glyph glyph-name="uni2078" unicode="&#x2078;" horiz-adv-x="337" 
d="M194 427q-65 0 -101.5 29t-36.5 83q0 74 73 120v1q-37 25 -37 75q0 56 42 89t104 33q57 0 91 -24.5t34 -72.5q0 -36 -16.5 -63t-38.5 -38v-1q49 -36 49 -93q0 -63 -45 -100.5t-118 -37.5zM225 698q16 0 26 11t10 28q0 33 -30 33q-35 0 -35 -40q0 -32 29 -32zM202 519
q20 0 32.5 13.5t12.5 35.5q0 39 -37 39q-21 0 -33 -13.5t-12 -34.5q0 -40 37 -40z" />
    <glyph glyph-name="uni2079" unicode="&#x2079;" horiz-adv-x="339" 
d="M226 856q69 0 106.5 -43.5t37.5 -121.5q0 -69 -18 -125t-66.5 -97t-122.5 -41q-55 -2 -100 21l46 87q28 -12 56 -12q70 0 89 78l-4 4q-33 -19 -63 -19q-52 0 -84.5 27t-32.5 86q0 67 40.5 111.5t115.5 44.5zM178 708q0 -38 39 -38q25 0 50 23v7q0 25 -12 42t-33 17
q-19 0 -31.5 -15t-12.5 -36z" />
    <glyph glyph-name="uni207A" unicode="&#x207a;" horiz-adv-x="320" 
d="M338 681l-10 -93h-77l-11 -91h-97l11 91h-77l11 93h78l11 92h97l-11 -92h75z" />
    <glyph glyph-name="uni207B" unicode="&#x207b;" horiz-adv-x="326" 
d="M81 585l12 100h250l-12 -100h-250z" />
    <glyph glyph-name="uni207C" unicode="&#x207c;" horiz-adv-x="344" 
d="M98 659l11 88h250l-11 -88h-250zM78 497l11 89h250l-11 -89h-250z" />
    <glyph glyph-name="uni207D" unicode="&#x207d;" horiz-adv-x="228" 
d="M133 364q-37 96 -37 198q0 92 29.5 184.5t82.5 164.5l78 -31q-37 -52 -61.5 -141t-24.5 -165q0 -96 29 -173z" />
    <glyph glyph-name="uni207E" unicode="&#x207e;" horiz-adv-x="228" 
d="M122 369l-83 27q85 151 85 304q0 52 -8.5 102t-19.5 73l91 40q42 -84 42 -202q0 -174 -107 -344z" />
    <glyph glyph-name="uni207F" unicode="&#x207f;" horiz-adv-x="324" 
d="M-18 -66l36 294h106l-6 -47h2q41 52 98 52q85 0 69 -119l-23 -180h-106l21 160q5 45 -18 45q-19 0 -36.5 -25t-23.5 -69l-13 -111h-106z" />
    <glyph glyph-name="uni2080" unicode="&#x2080;" horiz-adv-x="373" 
d="M151 -76q-69 0 -107 46t-38 127q0 105 50.5 181t137.5 76q69 0 108 -46t39 -126q0 -107 -50 -182.5t-140 -75.5zM156 28q24 0 41.5 26.5t24.5 60.5t7 69q0 32 -10 49.5t-27 17.5q-36 0 -55 -49.5t-19 -106.5q0 -67 38 -67z" />
    <glyph glyph-name="uni2081" unicode="&#x2081;" horiz-adv-x="270" 
d="M146 346h87l-51 -412h-111l34 267l-51 -34l-46 85z" />
    <glyph glyph-name="uni2082" unicode="&#x2082;" horiz-adv-x="305" 
d="M-20 -66l7 75l128 132q53 55 53 88q0 23 -26 23q-31 0 -69 -31l-57 81q61 53 142 53q55 0 89.5 -29t34.5 -85q0 -82 -77 -152l-57 -53l1 -1h110l-12 -101h-267z" />
    <glyph glyph-name="uni2083" unicode="&#x2083;" horiz-adv-x="317" 
d="M114 -75q-92 0 -139 49l65 87q11 -17 32 -26.5t41 -9.5q22 0 35.5 12t13.5 33q0 33 -35 33h-32l10 81h30q22 0 33 12.5t11 30.5q0 30 -32 30q-27 0 -65 -32l-57 78q63 52 141 52q54 0 87 -26.5t33 -74.5q0 -69 -59 -108v-1q48 -26 48 -87q0 -60 -44.5 -96.5t-116.5 -36.5
z" />
    <glyph glyph-name="uni2084" unicode="&#x2084;" horiz-adv-x="326" 
d="M250 98h46l-12 -95h-46l-9 -69h-112l8 69h-146l8 67l205 276h88zM90 87h68l15 119z" />
    <glyph glyph-name="uni2085" unicode="&#x2085;" horiz-adv-x="316" 
d="M178 200q44 0 71.5 -28.5t27.5 -83.5q0 -74 -46.5 -118t-118.5 -44q-91 0 -138 48l64 88q25 -35 70 -35q25 0 39.5 15t14.5 39q0 40 -40 40q-30 0 -53 -21l-52 24l40 222h231l-13 -100h-140l-9 -52q28 6 52 6z" />
    <glyph glyph-name="uni2086" unicode="&#x2086;" horiz-adv-x="341" 
d="M190 196q51 0 83 -27t32 -85q0 -68 -40.5 -113t-115.5 -45q-69 0 -106.5 43.5t-37.5 122.5q0 68 19.5 125t68 97.5t119.5 40.5q48 2 99 -23l-46 -86q-26 13 -54 13q-71 0 -90 -77l5 -4q34 18 64 18zM153 24q20 0 32 15t12 39q0 35 -39 35q-25 0 -49 -21v-8q0 -26 12 -43
t32 -17z" />
    <glyph glyph-name="uni2087" unicode="&#x2087;" horiz-adv-x="294" 
d="M28 346h260l-8 -73l-156 -339h-120l147 310h-136z" />
    <glyph glyph-name="uni2088" unicode="&#x2088;" horiz-adv-x="336" 
d="M132 -75q-65 0 -101.5 29t-36.5 83q0 74 73 120v1q-37 25 -37 75q0 56 42 89t104 33q57 0 91 -24.5t34 -72.5q0 -36 -16.5 -63t-38.5 -38v-1q49 -36 49 -93q0 -63 -45 -100.5t-118 -37.5zM163 196q16 0 26 11t10 28q0 33 -30 33q-35 0 -35 -40q0 -32 29 -32zM140 17
q20 0 32.5 13.5t12.5 35.5q0 39 -37 39q-21 0 -33 -13.5t-12 -34.5q0 -40 37 -40z" />
    <glyph glyph-name="uni2089" unicode="&#x2089;" horiz-adv-x="339" 
d="M164 354q69 0 106.5 -43.5t37.5 -121.5q0 -69 -18 -125t-66.5 -97t-122.5 -41q-55 -2 -100 21l46 87q28 -12 56 -12q70 0 89 78l-4 4q-33 -19 -63 -19q-52 0 -84.5 27t-32.5 86q0 67 40.5 111.5t115.5 44.5zM116 206q0 -38 39 -38q25 0 50 23v7q0 25 -12 42t-33 17
q-19 0 -31.5 -15t-12.5 -36z" />
    <glyph glyph-name="uni208A" unicode="&#x208a;" horiz-adv-x="319" 
d="M275 173l-10 -93h-77l-11 -91h-97l11 91h-77l11 93h78l11 92h97l-11 -92h75z" />
    <glyph glyph-name="uni208B" unicode="&#x208b;" horiz-adv-x="327" 
d="M18 75l12 100h250l-12 -100h-250z" />
    <glyph glyph-name="uni208C" unicode="&#x208c;" horiz-adv-x="343" 
d="M37 169l11 88h250l-11 -88h-250zM17 7l11 89h250l-11 -89h-250z" />
    <glyph glyph-name="uni208D" unicode="&#x208d;" horiz-adv-x="233" 
d="M75 -141q-37 96 -37 198q0 92 29.5 184.5t82.5 164.5l78 -31q-37 -52 -61.5 -141t-24.5 -165q0 -96 29 -173z" />
    <glyph glyph-name="uni208E" unicode="&#x208e;" horiz-adv-x="231" 
d="M66 -141l-83 27q85 151 85 304q0 52 -8.5 102t-19.5 73l91 40q42 -84 42 -202q0 -174 -107 -344z" />
    <glyph glyph-name="uni2090" unicode="&#x2090;" horiz-adv-x="333" 
d="M90 -72q-40 0 -67.5 32t-27.5 90q0 79 43 131.5t104 52.5q39 0 60 -25h2l3 19h101l-36 -294h-102l5 41h-2q-37 -47 -83 -47zM128 21q21 0 41 25t26 69l2 10q-13 15 -40 15q-23 0 -40 -25t-17 -58q0 -36 28 -36z" />
    <glyph glyph-name="uni2091" unicode="&#x2091;" horiz-adv-x="307" 
d="M130 7q38 0 64 28l64 -56q-49 -52 -135 -52q-62 0 -96.5 33.5t-34.5 92.5q0 74 46.5 127t124.5 53q46 0 76.5 -20.5t30.5 -61.5q0 -49 -50 -78.5t-129 -41.5q9 -24 39 -24zM152 155q-23 -3 -39 -20t-22 -44q87 16 87 48q0 20 -26 16z" />
    <glyph glyph-name="uni2092" unicode="&#x2092;" horiz-adv-x="318" 
d="M119 -73q-57 0 -90.5 33.5t-33.5 93.5q0 74 43.5 126t122.5 52q56 0 89 -32.5t33 -93.5q0 -75 -41.5 -127t-122.5 -52zM128 20q22 0 38 23t16 54q0 42 -32 42q-23 0 -38.5 -23t-15.5 -53q0 -21 9.5 -32t22.5 -11z" />
    <glyph glyph-name="uni2093" unicode="&#x2093;" horiz-adv-x="294" 
d="M-44 -66l110 154l-74 141h119l23 -63h2l36 63h123l-109 -147l74 -148h-115l-27 59h-2l-42 -59h-118z" />
    <glyph glyph-name="peseta" unicode="&#x20a7;" horiz-adv-x="601" 
d="M614 499l-11 -82h-52q-18 -90 -84 -139.5t-175 -49.5h-61l-27 -228h-157l52 417h-59l10 82h59l23 189h223q103 0 153 -50.5t51 -138.5h55zM269 559l-7 -60h138q-11 60 -72 60h-59zM293 355q81 0 101 62h-142l-7 -62h48z" />
    <glyph glyph-name="dong" unicode="&#x20ab;" horiz-adv-x="539" 
d="M592 637l-11 -90h-41l-68 -547h-150l9 72l-3 1q-58 -82 -141 -82q-77 0 -118.5 56t-41.5 144q0 130 67 218.5t164 88.5q72 0 117 -43h3l11 92h-158l11 90h158l12 99h151l-12 -99h41zM365 315l2 14q-32 35 -83 35q-47 0 -76.5 -51t-29.5 -111q0 -35 15.5 -56.5t40.5 -21.5
q42 0 80 51.5t51 139.5zM19 -173l16 126h430l-15 -126h-431z" />
    <glyph glyph-name="Euro" unicode="&#x20ac;" horiz-adv-x="547" 
d="M341 134q55 0 90 35l77 -119q-83 -58 -177 -58q-103 0 -174 62.5t-85 184.5h-61l10 79h48q1 20 5 53h-46l10 79h54q34 112 115.5 178t191.5 66q99 0 171 -60l-102 -110q-28 28 -68 28q-92 0 -140 -102h186l-10 -79h-199q-4 -25 -6 -53h198l-10 -79h-182q11 -51 38.5 -78
t65.5 -27z" />
    <glyph glyph-name="uni20B1" unicode="&#x20b1;" horiz-adv-x="610" 
d="M608 469h-51q0 -15 -3 -30h51l-10 -80h-64q-60 -131 -240 -131h-61l-27 -228h-156l44 359h-58l9 80h59l3 30h-58l10 80h58l17 139h223q171 0 199 -139h65zM330 565h-64l-4 -35h142q-20 35 -74 35zM254 469l-4 -30h164q2 18 2 30h-162zM295 339q67 0 95 39h-147l-5 -39h57
z" />
    <glyph glyph-name="uni20B9" unicode="&#x20b9;" horiz-adv-x="489" 
d="M507 580h-139l-1 -2q23 -17 34 -57h99l-11 -97h-84q-10 -67 -58.5 -115t-132.5 -62l176 -247h-182l-169 253l14 114h73q90 0 114 67h-179l10 83h175q-12 69 -109 69h-57l12 101h429z" />
    <glyph glyph-name="uni20BA" unicode="&#x20ba;" horiz-adv-x="595" 
d="M443 287l121 -43q-51 -132 -125.5 -188t-180.5 -56h-190l23 189l-64 -29l-25 74l100 45l7 58l-64 -29l-25 74l100 45l32 260h160l-22 -184l136 61l25 -73l-172 -78l-7 -57l136 61l25 -74l-172 -78l-17 -138h24q58 0 98.5 37t76.5 123z" />
    <glyph glyph-name="uni2113" unicode="&#x2113;" horiz-adv-x="466" 
d="M399 130l45 -31q-63 -109 -177 -109q-159 0 -181 141q-3 -2 -56 -44l-27 39q11 9 38.5 30.5t40.5 33.5l2 258q1 120 47 175.5t126 55.5q58 0 88 -41t30 -105q0 -146 -175 -311v-21q0 -142 92 -142q56 0 107 71zM272 605q-28 0 -50.5 -37.5t-21.5 -115.5v-164
q125 135 125 235q0 82 -53 82z" />
    <glyph glyph-name="uni2116" unicode="&#x2116;" horiz-adv-x="983" 
d="M818 410q-57 0 -90.5 33.5t-33.5 93.5q0 74 43.5 126t122.5 52q56 0 89 -32.5t33 -93.5q0 -75 -41.5 -127t-122.5 -52zM38 0l87 710h150l200 -437l3 1l53 436h156l-88 -710h-152l-198 424l-3 -1l-53 -423h-155zM827 503q22 0 38 22.5t16 53.5q0 43 -32 43
q-23 0 -38.5 -23.5t-15.5 -53.5q0 -21 9.5 -31.5t22.5 -10.5zM676 267l8 95h254l-9 -95h-253z" />
    <glyph glyph-name="uni2117" unicode="&#x2117;" horiz-adv-x="724" 
d="M361 -6q-135 0 -229 95.5t-94 229.5t94.5 230t229.5 96q136 0 229.5 -96t93.5 -230q0 -133 -94.5 -229t-229.5 -96zM361 89q96 0 161.5 67.5t65.5 162.5q0 97 -65 163.5t-161 66.5q-97 0 -162.5 -67.5t-65.5 -163.5t65 -162.5t162 -66.5zM244 159v324h129q58 0 87 -31
t29 -83q0 -54 -32.5 -82t-89.5 -28h-41v-100h-82zM326 333h28q22 0 35 10t13 28q0 16 -12.5 26.5t-35.5 10.5h-28v-75z" />
    <glyph glyph-name="trademark" unicode="&#x2122;" horiz-adv-x="621" 
d="M73 710h228l-9 -78h-70l-31 -245h-87l30 245h-70zM555 710h90l-40 -323h-86l21 163l-53 -103h-55l-28 103l-21 -163h-86l40 323h88l44 -161z" />
    <glyph glyph-name="uni2126" unicode="&#x2126;" horiz-adv-x="683" 
d="M17 0l18 143h97l1 3q-75 86 -75 219q0 150 95.5 252t241.5 102q124 0 197 -81.5t73 -204.5q0 -85 -35.5 -160t-99.5 -129v-1h93l-18 -143h-257l18 143q131 119 131 276q0 74 -29.5 114t-80.5 40q-75 -1 -120 -69.5t-45 -160.5q0 -110 70 -200l-17 -143h-258z" />
    <glyph glyph-name="estimated" unicode="&#x212e;" horiz-adv-x="790" 
d="M395 -10q-147 0 -250 94t-103 227q0 134 103 227.5t250 93.5t249.5 -94t102.5 -227v-9h-496v-233q61 -41 145 -41q134 0 210 84h64q-47 -56 -120 -89t-155 -33zM251 347h287v206q-63 40 -142 40q-83 0 -145 -41v-205z" />
    <glyph glyph-name="oneeighth" unicode="&#x215b;" horiz-adv-x="798" 
d="M515 728l106 -49l-372 -704l-105 49zM226 298h-111l34 267l-51 -34l-46 85l138 94h87zM704 222q49 -36 49 -93q0 -63 -45 -100.5t-118 -37.5q-65 0 -101.5 29t-36.5 83q0 74 73 120v1q-37 25 -37 75q0 56 42 89t104 33q57 0 91 -24.5t34 -72.5q0 -36 -16.5 -63t-38.5 -38
v-1zM621 262q16 0 26 11t10 28q0 33 -30 33q-35 0 -35 -40q0 -32 29 -32zM598 83q20 0 32.5 13.5t12.5 35.5q0 39 -37 39q-21 0 -33 -13.5t-12 -34.5q0 -40 37 -40z" />
    <glyph glyph-name="threeeighths" unicode="&#x215c;" horiz-adv-x="807" 
d="M269 -25l-105 49l371 704l106 -49zM159 289q-92 0 -139 49l65 87q11 -17 32 -26.5t41 -9.5q22 0 35.5 12t13.5 33q0 33 -35 33h-32l10 81h30q22 0 33 12.5t11 30.5q0 30 -32 30q-27 0 -65 -32l-57 78q63 52 141 52q54 0 87 -26.5t33 -74.5q0 -69 -59 -108v-1
q48 -26 48 -87q0 -60 -44.5 -96.5t-116.5 -36.5zM610 -9q-65 0 -101.5 29t-36.5 83q0 74 73 120v1q-37 25 -37 75q0 56 42 89t104 33q57 0 91 -24.5t34 -72.5q0 -36 -16.5 -63t-38.5 -38v-1q49 -36 49 -93q0 -63 -45 -100.5t-118 -37.5zM641 262q16 0 26 11t10 28
q0 33 -30 33q-35 0 -35 -40q0 -32 29 -32zM618 83q20 0 32.5 13.5t12.5 35.5q0 39 -37 39q-21 0 -33 -13.5t-12 -34.5q0 -40 37 -40z" />
    <glyph glyph-name="fiveeighths" unicode="&#x215d;" horiz-adv-x="796" 
d="M524 728l106 -49l-372 -704l-105 49zM322 453q0 -74 -46.5 -118t-118.5 -44q-91 0 -138 48l64 88q25 -35 70 -35q25 0 39.5 15t14.5 39q0 40 -40 40q-30 0 -53 -21l-52 24l40 222h231l-13 -100h-140l-9 -52q29 6 52 6q44 0 71.5 -28.5t27.5 -83.5zM713 222q49 -36 49 -93
q0 -63 -45 -100.5t-118 -37.5q-65 0 -101.5 29t-36.5 83q0 74 73 120v1q-37 25 -37 75q0 56 42 89t104 33q57 0 91 -24.5t34 -72.5q0 -36 -16.5 -63t-38.5 -38v-1zM630 262q16 0 26 11t10 28q0 33 -30 33q-35 0 -35 -40q0 -32 29 -32zM607 83q20 0 32.5 13.5t12.5 35.5
q0 39 -37 39q-21 0 -33 -13.5t-12 -34.5q0 -40 37 -40z" />
    <glyph glyph-name="seveneighths" unicode="&#x215e;" horiz-adv-x="736" 
d="M465 728l106 -49l-372 -704l-105 49zM169 298h-120l147 310h-136l13 102h260l-8 -73zM653 222q49 -36 49 -93q0 -63 -45 -100.5t-118 -37.5q-65 0 -101.5 29t-36.5 83q0 74 73 120v1q-37 25 -37 75q0 56 42 89t104 33q57 0 91 -24.5t34 -72.5q0 -36 -16.5 -63t-38.5 -38
v-1zM570 262q16 0 26 11t10 28q0 33 -30 33q-35 0 -35 -40q0 -32 29 -32zM547 83q20 0 32.5 13.5t12.5 35.5q0 39 -37 39q-21 0 -33 -13.5t-12 -34.5q0 -40 37 -40z" />
    <glyph glyph-name="arrowleft" unicode="&#x2190;" horiz-adv-x="883" 
d="M852 436v-163h-534l276 -272h-224l-355 354l355 354h224l-277 -273h535z" />
    <glyph glyph-name="arrowup" unicode="&#x2191;" horiz-adv-x="770" 
d="M739 482v-224l-272 276v-534h-163v535l-273 -277v224l354 355z" />
    <glyph glyph-name="arrowright" unicode="&#x2192;" horiz-adv-x="883" 
d="M513 709l355 -354l-355 -354h-224l276 272h-534v163h535l-277 273h224z" />
    <glyph glyph-name="arrowdown" unicode="&#x2193;" horiz-adv-x="770" 
d="M466 175l273 277v-224l-354 -355l-354 355v224l272 -276v534h163v-535z" />
    <glyph glyph-name="arrowboth" unicode="&#x2194;" horiz-adv-x="1288" 
d="M918 709l355 -354l-355 -354h-224l276 272h-652l276 -272h-224l-355 354l355 354h224l-277 -273h654l-277 273h224z" />
    <glyph glyph-name="arrowupdn" unicode="&#x2195;" horiz-adv-x="812" 
d="M483 25l273 277v-224l-354 -355l-354 355v224l272 -276v652l-272 -276v224l354 355l354 -355v-224l-273 277v-654z" />
    <glyph glyph-name="uni2196" unicode="&#x2196;" horiz-adv-x="719" 
d="M698 552l-389 3l379 -379l-115 -116l-378 378l3 -387l-160 158v501h501z" />
    <glyph glyph-name="uni2197" unicode="&#x2197;" horiz-adv-x="719" 
d="M180 711h501v-501l-160 -158l3 387l-378 -378l-115 116l379 379l-389 -3z" />
    <glyph glyph-name="uni2198" unicode="&#x2198;" horiz-adv-x="719" 
d="M521 659l160 -158v-501h-501l-159 158l389 -3l-379 379l115 116l378 -378z" />
    <glyph glyph-name="uni2199" unicode="&#x2199;" horiz-adv-x="719" 
d="M309 155l389 3l-159 -158h-501v501l160 158l-3 -387l378 378l115 -116z" />
    <glyph glyph-name="partialdiff" unicode="&#x2202;" horiz-adv-x="541" 
d="M232 -9q-85 0 -138.5 51.5t-53.5 140.5q0 109 63.5 184.5t161.5 75.5q58 0 98 -37l3 1v5q0 156 -92 156q-38 0 -121 -29l-22 114q95 42 188 42q194 0 194 -276q0 -120 -28 -214t-93 -154t-160 -60zM248 130q71 0 103 141q-31 51 -70 51q-41 0 -65.5 -32.5t-24.5 -81.5
q0 -34 14.5 -56t42.5 -22z" />
    <glyph glyph-name="emptyset" unicode="&#x2205;" horiz-adv-x="734" 
d="M625 508q61 -87 61 -190q0 -132 -93.5 -227t-227.5 -95q-104 0 -190 63l-52 -52l-63 61l53 53q-67 88 -67 197q0 132 93.5 226.5t227.5 94.5q112 0 196 -68l49 49l62 -63zM169 316q0 -60 31 -108l275 275q-49 33 -109 33q-83 0 -140 -58.5t-57 -141.5zM365 119
q83 0 140 58.5t57 140.5q0 52 -26 101l-273 -272q47 -28 102 -28z" />
    <glyph glyph-name="uni2206" unicode="&#x2206;" horiz-adv-x="619" 
d="M0 0l14 122l275 588h154l130 -588l-15 -122h-558zM186 143h221l-63 365h-2z" />
    <glyph glyph-name="product" unicode="&#x220f;" horiz-adv-x="639" 
d="M24 -106l100 816h505l-100 -816h-161l82 673h-182l-83 -673h-161z" />
    <glyph glyph-name="summation" unicode="&#x2211;" horiz-adv-x="565" 
d="M6 -73l13 112l230 280l-159 276l13 115h478l-17 -143h-273v-2l132 -246l-190 -247v-2h270l-18 -143h-479z" />
    <glyph glyph-name="minus" unicode="&#x2212;" horiz-adv-x="517" 
d="M40 214l16 126h430l-15 -126h-431z" />
    <glyph glyph-name="radical" unicode="&#x221a;" horiz-adv-x="680" 
d="M254 0l-89 500h-105l14 121h222l66 -423h2l340 624h105l-461 -822h-94z" />
    <glyph glyph-name="infinity" unicode="&#x221e;" horiz-adv-x="691" 
d="M512 455q62 0 101 -43.5t39 -110.5q0 -80 -50 -138t-122 -58q-83 0 -139 91q-77 -91 -154 -91q-62 0 -100.5 43t-38.5 110q0 80 49.5 138.5t121.5 58.5q81 0 137 -91q83 91 156 91zM205 216q22 0 40.5 16.5t43.5 51.5q-10 20 -17 31t-18.5 19.5t-24.5 8.5q-28 0 -45 -25
t-17 -57q0 -45 38 -45zM473 216q25 0 42 24.5t17 58.5q0 44 -38 44q-35 0 -85 -68q16 -30 30 -44.5t34 -14.5z" />
    <glyph glyph-name="integral" unicode="&#x222b;" horiz-adv-x="333" 
d="M6 -174q-36 -2 -85 7l18 113h8q47 0 59.5 19t23.5 89l75 498q11 73 56 112t106 41q33 0 60 -4t41 -9l13 -4l-17 -104h-39q-47 0 -59.5 -18.5t-22.5 -90.5l-75 -498q-12 -72 -56.5 -110.5t-105.5 -40.5z" />
    <glyph glyph-name="uni2236" unicode="&#x2236;" horiz-adv-x="273" 
d="M163 381q-39 0 -62.5 24.5t-23.5 62.5q0 39 24.5 63.5t64.5 24.5t63.5 -24t23.5 -61q0 -40 -24.5 -65t-65.5 -25zM121 47q-39 0 -62.5 24.5t-23.5 62.5q0 39 24.5 63.5t64.5 24.5t63.5 -24t23.5 -61q0 -40 -24.5 -65t-65.5 -25z" />
    <glyph glyph-name="approxequal" unicode="&#x2248;" horiz-adv-x="546" 
d="M390 305q-32 0 -86.5 24.5t-88.5 24.5q-52 0 -112 -41l-33 100q17 19 57 42t77 23q38 0 92 -25t81 -25q52 0 101 45l34 -102q-21 -26 -54.5 -46t-67.5 -20zM362 82q-31 0 -85.5 25t-88.5 25q-52 0 -112 -41l-33 99q17 19 56.5 42.5t76.5 23.5q38 0 92.5 -25t81.5 -25
q51 0 101 44l33 -102q-21 -26 -54 -46t-68 -20z" />
    <glyph glyph-name="notequal" unicode="&#x2260;" horiz-adv-x="547" 
d="M513 329h-167l-56 -104h206l-15 -126h-260l-55 -102l-90 35l37 67h-63l16 126h115l57 104h-156l16 126h208l62 113l88 -36l-42 -77h114z" />
    <glyph glyph-name="lessequal" unicode="&#x2264;" horiz-adv-x="536" 
d="M468 173l-403 198l12 104l452 203l-16 -139l-254 -114l225 -116zM19 0l15 127h428l-16 -127h-427z" />
    <glyph glyph-name="greaterequal" unicode="&#x2265;" horiz-adv-x="542" 
d="M61 177l16 136l255 116l-226 114l16 140l403 -203l-12 -105zM38 0l16 126h427l-15 -126h-428z" />
    <glyph glyph-name="filledbox" unicode="&#x25a0;" horiz-adv-x="643" 
d="M45 0v551h552v-551h-552z" />
    <glyph glyph-name="uni25A1" unicode="&#x25a1;" horiz-adv-x="643" 
d="M45 0v551h552v-551h-552zM160 115h322v321h-322v-321z" />
    <glyph glyph-name="triagup" unicode="&#x25b2;" horiz-adv-x="642" 
d="M7 0l314 580l313 -580h-627z" />
    <glyph glyph-name="uni25B3" unicode="&#x25b3;" horiz-adv-x="642" 
d="M7 0l314 580l313 -580h-627zM189 107h263l-131 245z" />
    <glyph glyph-name="uni25B6" unicode="&#x25b6;" horiz-adv-x="637" 
d="M50 -38v627l579 -314z" />
    <glyph glyph-name="uni25B7" unicode="&#x25b7;" horiz-adv-x="637" 
d="M50 -38v627l579 -314zM158 144l243 131l-243 132v-263z" />
    <glyph glyph-name="triagdn" unicode="&#x25bc;" horiz-adv-x="642" 
d="M321 -28l-314 579h627z" />
    <glyph glyph-name="uni25BD" unicode="&#x25bd;" horiz-adv-x="642" 
d="M321 -28l-314 579h627zM321 200l131 244h-263z" />
    <glyph glyph-name="uni25C0" unicode="&#x25c0;" horiz-adv-x="637" 
d="M587 -38l-580 313l580 314v-627z" />
    <glyph glyph-name="uni25C1" unicode="&#x25c1;" horiz-adv-x="637" 
d="M587 -38l-580 313l580 314v-627zM479 144v263l-244 -132z" />
    <glyph glyph-name="uni25C6" unicode="&#x25c6;" horiz-adv-x="693" 
d="M347 -64l-340 339l340 340l339 -340z" />
    <glyph glyph-name="uni25C7" unicode="&#x25c7;" horiz-adv-x="693" 
d="M347 -64l-340 339l340 340l339 -340zM347 92l183 183l-183 184l-184 -184z" />
    <glyph glyph-name="lozenge" unicode="&#x25ca;" horiz-adv-x="471" 
d="M202 0l-156 338l236 339l166 -339zM226 211l79 127l-44 131l-77 -131z" />
    <glyph glyph-name="circle" unicode="&#x25cb;" horiz-adv-x="651" 
d="M326 -9q-118 0 -201.5 83t-83.5 201q0 119 83.5 202.5t201.5 83.5t201 -83.5t83 -202.5q0 -118 -83 -201t-201 -83zM326 101q71 0 122 51.5t51 122.5q0 72 -51 123t-122 51q-72 0 -123 -51t-51 -123q0 -71 51 -122.5t123 -51.5z" />
    <glyph glyph-name="uni25CF" unicode="&#x25cf;" horiz-adv-x="651" 
d="M326 -9q-118 0 -201.5 83t-83.5 201q0 119 83.5 202.5t201.5 83.5t201 -83.5t83 -202.5q0 -118 -83 -201t-201 -83z" />
    <glyph glyph-name="uni2605" unicode="&#x2605;" horiz-adv-x="756" 
d="M150 -37l87 267l-228 167h282l86 268l88 -268h282l-229 -167l88 -267l-229 165z" />
    <glyph glyph-name="uni2606" unicode="&#x2606;" horiz-adv-x="756" 
d="M150 -37l87 267l-228 167h282l86 268l88 -268h282l-229 -167l88 -267l-229 165zM302 170l75 54l76 -54l-29 87l78 57h-95l-29 88l-28 -88h-97l77 -57z" />
    <glyph glyph-name="uni2610" unicode="&#x2610;" horiz-adv-x="768" 
d="M45 0v551h552v-551h-552zM160 115h322v321h-322v-321z" />
    <glyph glyph-name="uni2713" unicode="&#x2713;" horiz-adv-x="622" 
d="M622 725l84 -74l-531 -579l-172 197l92 80l89 -104z" />
    <glyph glyph-name="uni2715" unicode="&#x2715;" horiz-adv-x="622" 
d="M175 63l-70 80l111 97l-89 98l91 81l85 -100l110 101l70 -82l-110 -98l88 -98l-89 -79l-85 100z" />
    <glyph glyph-name="uni2780" unicode="&#x2780;" horiz-adv-x="764" 
d="M432 707q136 0 227.5 -92.5t91.5 -229.5q0 -162 -116 -280t-281 -118q-136 0 -226.5 92t-90.5 229q0 160 118.5 279.5t276.5 119.5zM357 81q126 0 213.5 91t87.5 214q0 97 -65.5 162t-162.5 65q-120 0 -210 -92t-90 -214q0 -97 65 -161.5t162 -64.5zM264 461l138 94h87
l-51 -412h-111l34 267l-51 -34z" />
    <glyph glyph-name="uni2781" unicode="&#x2781;" horiz-adv-x="764" 
d="M354 -13q-136 0 -226.5 92t-90.5 229q0 160 118.5 279.5t276.5 119.5q136 0 227.5 -92.5t91.5 -229.5q0 -162 -116 -280t-281 -118zM357 81q126 0 213.5 91t87.5 214q0 97 -65.5 162t-162.5 65q-120 0 -210 -92t-90 -214q0 -97 65 -161.5t162 -64.5zM240 143l7 75
l128 132q53 55 53 88q0 23 -26 23q-31 0 -69 -31l-57 81q61 53 142 53q55 0 89.5 -29t34.5 -85q0 -82 -77 -152l-57 -53l1 -1h110l-12 -101h-267z" />
    <glyph glyph-name="uni2782" unicode="&#x2782;" horiz-adv-x="764" 
d="M354 -13q-136 0 -226.5 92t-90.5 229q0 160 118.5 279.5t276.5 119.5q136 0 227.5 -92.5t91.5 -229.5q0 -162 -116 -280t-281 -118zM357 81q126 0 213.5 91t87.5 214q0 97 -65.5 162t-162.5 65q-120 0 -210 -92t-90 -214q0 -97 65 -161.5t162 -64.5zM373 134
q-92 0 -139 49l65 87q11 -17 32 -26.5t41 -9.5q22 0 35.5 12t13.5 33q0 33 -35 33h-32l10 81h30q22 0 33 12.5t11 30.5q0 30 -32 30q-27 0 -65 -32l-57 78q63 52 141 52q54 0 87 -26.5t33 -74.5q0 -69 -59 -108v-1q48 -26 48 -87q0 -60 -44.5 -96.5t-116.5 -36.5z" />
    <glyph glyph-name="uni2783" unicode="&#x2783;" horiz-adv-x="764" 
d="M432 707q136 0 227.5 -92.5t91.5 -229.5q0 -162 -116 -280t-281 -118q-136 0 -226.5 92t-90.5 229q0 160 118.5 279.5t276.5 119.5zM357 81q126 0 213.5 91t87.5 214q0 97 -65.5 162t-162.5 65q-120 0 -210 -92t-90 -214q0 -97 65 -161.5t162 -64.5zM520 555l-30 -248h46
l-12 -95h-46l-9 -69h-112l8 69h-146l8 67l205 276h88zM330 296h68l15 119z" />
    <glyph glyph-name="uni2784" unicode="&#x2784;" horiz-adv-x="764" 
d="M432 707q136 0 227.5 -92.5t91.5 -229.5q0 -162 -116 -280t-281 -118q-136 0 -226.5 92t-90.5 229q0 160 118.5 279.5t276.5 119.5zM357 81q126 0 213.5 91t87.5 214q0 97 -65.5 162t-162.5 65q-120 0 -210 -92t-90 -214q0 -97 65 -161.5t162 -64.5zM534 455h-140l-9 -52
q29 6 52 6q44 0 71.5 -28.5t27.5 -83.5q0 -74 -46.5 -118t-118.5 -44q-91 0 -138 48l64 88q25 -35 70 -35q25 0 39.5 15t14.5 39q0 40 -40 40q-30 0 -53 -21l-52 24l40 222h231z" />
    <glyph glyph-name="uni2785" unicode="&#x2785;" horiz-adv-x="764" 
d="M432 707q136 0 227.5 -92.5t91.5 -229.5q0 -162 -116 -280t-281 -118q-136 0 -226.5 92t-90.5 229q0 160 118.5 279.5t276.5 119.5zM357 81q126 0 213.5 91t87.5 214q0 97 -65.5 162t-162.5 65q-120 0 -210 -92t-90 -214q0 -97 65 -161.5t162 -64.5zM435 467
q-71 0 -90 -77l5 -4q34 18 64 18q51 0 83 -27t32 -85q0 -68 -40.5 -113t-115.5 -45q-69 0 -106.5 43.5t-37.5 122.5q0 68 19.5 125t68 97.5t119.5 40.5q48 2 99 -23l-46 -86q-26 13 -54 13zM421 286q0 35 -39 35q-25 0 -49 -21v-8q0 -26 12 -43t32 -17t32 15t12 39z" />
    <glyph glyph-name="uni2786" unicode="&#x2786;" horiz-adv-x="764" 
d="M432 707q136 0 227.5 -92.5t91.5 -229.5q0 -162 -116 -280t-281 -118q-136 0 -226.5 92t-90.5 229q0 160 118.5 279.5t276.5 119.5zM357 81q126 0 213.5 91t87.5 214q0 97 -65.5 162t-162.5 65q-120 0 -210 -92t-90 -214q0 -97 65 -161.5t162 -64.5zM285 453l13 102h260
l-8 -73l-156 -339h-120l147 310h-136z" />
    <glyph glyph-name="uni2787" unicode="&#x2787;" horiz-adv-x="764" 
d="M354 -13q-136 0 -226.5 92t-90.5 229q0 160 118.5 279.5t276.5 119.5q136 0 227.5 -92.5t91.5 -229.5q0 -162 -116 -280t-281 -118zM357 81q126 0 213.5 91t87.5 214q0 97 -65.5 162t-162.5 65q-120 0 -210 -92t-90 -214q0 -97 65 -161.5t162 -64.5zM373 134
q-65 0 -101.5 29t-36.5 83q0 74 73 120v1q-37 25 -37 75q0 56 42 89t104 33q57 0 91 -24.5t34 -72.5q0 -36 -16.5 -63t-38.5 -38v-1q49 -36 49 -93q0 -63 -45 -100.5t-118 -37.5zM404 405q16 0 26 11t10 28q0 33 -30 33q-35 0 -35 -40q0 -32 29 -32zM381 226q20 0 32.5 13.5
t12.5 35.5q0 39 -37 39q-21 0 -33 -13.5t-12 -34.5q0 -40 37 -40z" />
    <glyph glyph-name="uni2788" unicode="&#x2788;" horiz-adv-x="764" 
d="M432 707q136 0 227.5 -92.5t91.5 -229.5q0 -162 -116 -280t-281 -118q-136 0 -226.5 92t-90.5 229q0 160 118.5 279.5t276.5 119.5zM357 81q126 0 213.5 91t87.5 214q0 97 -65.5 162t-162.5 65q-120 0 -210 -92t-90 -214q0 -97 65 -161.5t162 -64.5zM414 563
q69 0 106.5 -43.5t37.5 -121.5q0 -69 -18 -125t-66.5 -97t-122.5 -41q-55 -2 -100 21l46 87q28 -12 56 -12q70 0 89 78l-4 4q-33 -19 -63 -19q-52 0 -84.5 27t-32.5 86q0 67 40.5 111.5t115.5 44.5zM366 415q0 -38 39 -38q25 0 50 23v7q0 25 -12 42t-33 17q-19 0 -31.5 -15
t-12.5 -36z" />
    <glyph glyph-name="uni278A" unicode="&#x278a;" horiz-adv-x="764" 
d="M354 -13q-136 0 -226.5 92t-90.5 229q0 160 118.5 279.5t276.5 119.5q136 0 227.5 -92.5t91.5 -229.5q0 -162 -116 -280t-281 -118zM327 143h112l51 412h-87l-139 -94l47 -85l50 34z" />
    <glyph glyph-name="uni278B" unicode="&#x278b;" horiz-adv-x="764" 
d="M354 -13q-136 0 -226.5 92t-90.5 229q0 160 118.5 279.5t276.5 119.5q136 0 227.5 -92.5t91.5 -229.5q0 -162 -116 -280t-281 -118zM240 143h267l12 101h-110l-1 1l57 53q77 70 77 152q0 56 -34.5 85t-89.5 29q-81 0 -142 -53l57 -81q38 31 69 31q26 0 26 -23
q0 -33 -53 -88l-128 -132z" />
    <glyph glyph-name="uni278C" unicode="&#x278c;" horiz-adv-x="764" 
d="M354 -13q-136 0 -226.5 92t-90.5 229q0 160 118.5 279.5t276.5 119.5q136 0 227.5 -92.5t91.5 -229.5q0 -162 -116 -280t-281 -118zM372 134q72 0 117 36.5t45 96.5q0 61 -48 87v1q58 38 58 108q0 48 -33 74.5t-86 26.5q-78 0 -141 -52l56 -78q38 32 66 32q14 0 23 -8
t9 -22q0 -18 -11.5 -30.5t-33.5 -12.5h-29l-11 -81h33q35 0 35 -33q0 -21 -13.5 -33t-35.5 -12q-48 0 -74 36l-64 -87q47 -49 138 -49z" />
    <glyph glyph-name="uni278D" unicode="&#x278d;" horiz-adv-x="764" 
d="M354 -13q-136 0 -226.5 92t-90.5 229q0 160 118.5 279.5t276.5 119.5q136 0 227.5 -92.5t91.5 -229.5q0 -162 -116 -280t-281 -118zM357 143h112l8 69h46l12 95h-46l30 248h-88l-205 -276l-7 -67h146zM330 296l82 119l-15 -119h-67z" />
    <glyph glyph-name="uni278E" unicode="&#x278e;" horiz-adv-x="764" 
d="M354 -13q-136 0 -226.5 92t-90.5 229q0 160 118.5 279.5t276.5 119.5q136 0 227.5 -92.5t91.5 -229.5q0 -162 -116 -280t-281 -118zM371 135q72 0 118.5 44t46.5 118q0 55 -27 83.5t-71 28.5q-24 0 -52 -6l8 52h141l12 100h-230l-40 -222l52 -24q23 21 53 21q40 0 40 -40
q0 -24 -14.5 -39t-40.5 -15q-45 0 -70 35l-63 -88q46 -48 137 -48z" />
    <glyph glyph-name="uni278F" unicode="&#x278f;" horiz-adv-x="764" 
d="M354 -13q-136 0 -226.5 92t-90.5 229q0 160 118.5 279.5t276.5 119.5q136 0 227.5 -92.5t91.5 -229.5q0 -162 -116 -280t-281 -118zM373 134q75 0 115.5 45t40.5 113q0 58 -32 85t-83 27q-34 0 -67 -16l-2 2q20 77 90 77q28 0 54 -13l46 86q-51 25 -99 23
q-71 0 -119.5 -40.5t-68 -97.5t-19.5 -125q0 -79 37.5 -122.5t106.5 -43.5zM377 232q-22 0 -34 19t-10 48q24 22 49 22q39 0 39 -35q0 -24 -12 -39t-32 -15z" />
    <glyph glyph-name="uni2790" unicode="&#x2790;" horiz-adv-x="764" 
d="M354 -13q-136 0 -226.5 92t-90.5 229q0 160 118.5 279.5t276.5 119.5q136 0 227.5 -92.5t91.5 -229.5q0 -162 -116 -280t-281 -118zM274 143h120l156 339l8 73h-260l-12 -102h135z" />
    <glyph glyph-name="uni2791" unicode="&#x2791;" horiz-adv-x="764" 
d="M354 -13q-136 0 -226.5 92t-90.5 229q0 160 118.5 279.5t276.5 119.5q136 0 227.5 -92.5t91.5 -229.5q0 -162 -116 -280t-281 -118zM373 134q73 0 118 37.5t45 100.5q0 58 -50 93v1q22 11 38.5 38t16.5 63q0 48 -33.5 72.5t-90.5 24.5q-62 0 -104 -33t-42 -89
q0 -50 36 -75l1 -1q-73 -46 -73 -120q0 -54 36.5 -83t101.5 -29zM404 405q-30 0 -30 32q0 18 9.5 29t25.5 11q31 0 31 -33q0 -17 -10.5 -28t-25.5 -11zM381 226q-37 0 -37 40q0 21 12 34.5t33 13.5q37 0 37 -39q0 -22 -12.5 -35.5t-32.5 -13.5z" />
    <glyph glyph-name="uni2792" unicode="&#x2792;" horiz-adv-x="764" 
d="M354 -13q-136 0 -226.5 92t-90.5 229q0 160 118.5 279.5t276.5 119.5q136 0 227.5 -92.5t91.5 -229.5q0 -162 -116 -280t-281 -118zM350 135q56 0 98 23t65 61.5t34 83.5t11 95q0 78 -37.5 121.5t-106.5 43.5q-75 0 -115.5 -44.5t-40.5 -111.5q0 -59 32.5 -86t84.5 -27
q33 0 65 16l2 -1q-19 -78 -90 -78q-27 0 -55 12l-46 -87q45 -23 99 -21zM405 377q-39 0 -39 38q0 21 12.5 36t31.5 15q44 0 44 -67q-24 -22 -49 -22z" />
    <glyph glyph-name="uni2E18" unicode="&#x2e18;" horiz-adv-x="417" 
d="M266 324q-40 0 -63.5 24t-23.5 61q0 40 24.5 65t65.5 25q39 0 62.5 -24.5t23.5 -62.5q0 -39 -24.5 -63.5t-64.5 -24.5zM290 -72l92 -91q-78 -94 -207 -94q-74 0 -126 42t-52 118q0 114 108 202q69 59 78 100l9 44h123l-10 -290h-156l5 23q-9 -20 -9 -41q0 -59 62 -59
q47 0 83 46z" />
    <glyph glyph-name="u1F10B" unicode="&#x1f10b;" horiz-adv-x="764" 
d="M354 -13q-136 0 -226.5 92t-90.5 229q0 160 118.5 279.5t276.5 119.5q136 0 227.5 -92.5t91.5 -229.5q0 -162 -116 -280t-281 -118zM357 81q126 0 213.5 91t87.5 214q0 97 -65.5 162t-162.5 65q-120 0 -210 -92t-90 -214q0 -97 65 -161.5t162 -64.5zM373 134
q-69 0 -107 46t-38 127q0 105 50.5 181t137.5 76q69 0 108 -46t39 -126q0 -107 -50 -182.5t-140 -75.5zM378 238q24 0 41.5 26.5t24.5 60.5t7 69q0 32 -10 49.5t-27 17.5q-36 0 -55 -49.5t-19 -106.5q0 -67 38 -67z" />
    <glyph glyph-name="u1F10C" unicode="&#x1f10c;" horiz-adv-x="764" 
d="M354 -13q-136 0 -226.5 92t-90.5 229q0 160 118.5 279.5t276.5 119.5q136 0 227.5 -92.5t91.5 -229.5q0 -162 -116 -280t-281 -118zM373 134q89 0 139 75.5t50 182.5q0 80 -38.5 126t-107.5 46q-87 0 -138 -76t-51 -181q0 -81 38.5 -127t107.5 -46zM378 238q-39 0 -39 67
q0 34 7 68.5t25 61t42 26.5q38 0 38 -67q0 -35 -7 -69t-24.5 -60.5t-41.5 -26.5z" />
    <glyph glyph-name="uni00A40301" horiz-adv-x="509" 
d="M357 761l115 139l151 1l-131 -140h-135zM203 -9q-63 0 -120.5 24t-91.5 70l102 119q43 -60 103 -60q78 0 93 123l55 443h161l-56 -450q-33 -269 -246 -269z" />
    <glyph glyph-name="i.loclTRK" horiz-adv-x="268" 
d="M182 552q-39 0 -64.5 24.5t-25.5 61.5q0 38 26 63t67 25q40 0 65 -24t25 -61q0 -39 -26 -64t-67 -25zM29 0l60 489h150l-60 -489h-150z" />
    <glyph glyph-name="uni006A0301" horiz-adv-x="251" 
d="M91 557l117 149l152 1l-129 -150h-140zM-9 -206q-53 0 -97 23l37 115q16 -13 37 -13q22 0 32.5 19t15.5 66l60 485h151l-63 -506q-12 -100 -55.5 -144.5t-117.5 -44.5z" />
    <glyph glyph-name="f.calt" horiz-adv-x="373" 
d="M48 0l45 368h-59l15 121h59l9 76q11 89 59.5 134.5t125.5 45.5q51 0 98 -20l-44 -114q-13 5 -28 5q-53 0 -63 -73l-7 -54h103l-15 -121h-103l-44 -368h-151z" />
    <glyph glyph-name="germandbls.calt" horiz-adv-x="756" 
d="M553 426q11 -6 36.5 -21t35.5 -21t30 -19.5t29 -22.5t22 -24t18.5 -28.5t10 -32.5t4.5 -40q0 -105 -68.5 -165.5t-182.5 -60.5q-145 0 -220 91l99 120q49 -70 126 -70q39 0 59 19t20 47q0 26 -18.5 42t-73.5 46q-89 49 -119 81l129 205l-1 5q-57 7 -102 7
q-126 0 -141 -129l-57 -455h-156l57 461q32 259 302 259q143 0 315 -48z" />
    <glyph glyph-name="zero.tf" horiz-adv-x="586" 
d="M266 -9q-103 0 -158.5 69.5t-55.5 201.5q0 114 31 210t99 159.5t162 63.5q102 0 157.5 -70t55.5 -201q0 -114 -31.5 -210t-99.5 -159.5t-160 -63.5zM274 137q33 0 58 29t38.5 75t20 94.5t6.5 96.5q0 118 -63 118q-32 0 -57 -29.5t-39 -76.5t-20.5 -96.5t-6.5 -96.5
q0 -114 63 -114z" />
    <glyph glyph-name="one.tf" horiz-adv-x="586" 
d="M395 140h104l-17 -140h-384l18 140h122l44 350l-110 -72l-64 118l229 151h125z" />
    <glyph glyph-name="two.tf" horiz-adv-x="586" 
d="M63 0l10 101l210 221q99 103 99 175q0 27 -15 41t-42 14q-56 0 -124 -59l-77 113q103 90 230 90q84 0 135 -45.5t51 -130.5q0 -136 -132 -265l-116 -112v-2h208l-18 -141h-419z" />
    <glyph glyph-name="three.tf" horiz-adv-x="586" 
d="M260 -9q-64 0 -121.5 19.5t-92.5 55.5l89 122q45 -59 122 -59q45 0 72 25.5t27 71.5q0 64 -69 64h-53l15 123h54q38 0 60 27t22 61q0 56 -63 56q-54 0 -120 -54l-76 107q101 85 223 85q85 0 135 -41t50 -118q0 -120 -96 -181v-1q76 -41 76 -141q0 -101 -70 -161.5
t-184 -60.5z" />
    <glyph glyph-name="four.tf" horiz-adv-x="586" 
d="M461 253h80l-16 -130h-80l-15 -123h-151l15 123h-262l11 98l351 466h120zM202 238h123l29 215z" />
    <glyph glyph-name="five.tf" horiz-adv-x="586" 
d="M518 546h-227l-20 -112q49 11 82 11q71 0 116 -48t45 -141q0 -119 -72.5 -192t-189.5 -73q-62 0 -119 19.5t-92 55.5l87 125q46 -58 122 -58q48 0 78 33t30 79q0 37 -19.5 57.5t-56.5 20.5q-43 0 -95 -36l-77 35l66 365h360z" />
    <glyph glyph-name="six.tf" horiz-adv-x="586" 
d="M359 442q76 0 123.5 -47.5t47.5 -141.5q0 -112 -66 -187t-179 -75q-106 0 -162.5 71t-56.5 198q0 64 11.5 125.5t37 118t62.5 99t92.5 68t121.5 25.5q94 0 160 -31l-68 -127q-52 21 -94 21q-119 0 -157 -155l3 -1q58 39 124 39zM291 129q39 0 64 36t25 83q0 71 -63 71
q-56 0 -106 -52v-9q0 -57 20 -92.5t60 -36.5z" />
    <glyph glyph-name="seven.tf" horiz-adv-x="586" 
d="M96 0l263 547h-244l17 140h416l-12 -101l-274 -586h-166z" />
    <glyph glyph-name="eight.tf" horiz-adv-x="586" 
d="M270 -9q-101 0 -158 47t-57 132q0 70 37 122t93 76v3q-31 14 -49.5 48t-18.5 81q0 91 64.5 143.5t163.5 52.5q86 0 137 -42t52 -118q0 -59 -29.5 -104t-71.5 -62v-3q42 -18 67 -57t25 -95q0 -101 -71 -162.5t-184 -61.5zM317 430q33 0 55 21t22 55q0 28 -17 44.5
t-46 16.5q-32 1 -54.5 -20t-22.5 -55q0 -29 16.5 -45.5t46.5 -16.5zM284 124q39 0 63.5 27t24.5 70q0 38 -19 59.5t-54 21.5q-39 0 -64 -27.5t-25 -71.5q0 -37 19.5 -58t54.5 -21z" />
    <glyph glyph-name="nine.tf" horiz-adv-x="586" 
d="M327 696q106 0 162.5 -71t56.5 -198q0 -64 -11.5 -125.5t-37 -118t-62.5 -99t-92.5 -68t-121.5 -25.5q-95 0 -164 34l68 128q54 -25 96 -25q122 0 159 154l-4 2q-56 -39 -124 -39q-75 0 -122.5 47.5t-47.5 141.5q0 112 65.5 187t179.5 75zM231 439q0 -71 64 -71
q54 0 105 51v10q0 57 -19.5 93t-60.5 36q-39 0 -64 -36t-25 -83z" />
    <glyph glyph-name="zero.tf.zero" horiz-adv-x="586" 
d="M266 -9q-103 0 -158.5 69.5t-55.5 201.5q0 114 31 210t99 159.5t162 63.5q102 0 157.5 -70t55.5 -201q0 -114 -31.5 -210t-99.5 -159.5t-160 -63.5zM274 137q33 0 58 29t38.5 75t20 94.5t6.5 96.5q0 118 -63 118q-32 0 -57 -29.5t-39 -76.5t-20.5 -96.5t-6.5 -96.5
q0 -114 63 -114zM306 279q-27 0 -42.5 16t-15.5 42t16.5 42t43.5 16q26 0 42 -15.5t16 -40.5q0 -26 -16.5 -43t-43.5 -17z" />
    <glyph glyph-name="zero.zero" horiz-adv-x="576" 
d="M262 -9q-103 0 -158.5 69.5t-55.5 201.5q0 114 31 210t99 159.5t162 63.5q102 0 157.5 -70t55.5 -201q0 -114 -31.5 -210t-99.5 -159.5t-160 -63.5zM270 137q33 0 58 29t38.5 75t20 94.5t6.5 96.5q0 118 -63 118q-32 0 -57 -29.5t-39 -76.5t-20.5 -96.5t-6.5 -96.5
q0 -114 63 -114zM302 279q-27 0 -42.5 16t-15.5 42t16.5 42t43.5 16q26 0 42 -15.5t16 -40.5q0 -26 -16.5 -43t-43.5 -17z" />
    <glyph glyph-name="zero.dnom" horiz-adv-x="372" 
d="M159 -9q-69 0 -107 46t-38 127q0 105 50.5 181t137.5 76q69 0 108 -46t39 -126q0 -107 -50 -182.5t-140 -75.5zM164 95q24 0 41.5 26.5t24.5 60.5t7 69q0 32 -10 49.5t-27 17.5q-36 0 -55 -49.5t-19 -106.5q0 -67 38 -67z" />
    <glyph glyph-name="one.dnom" horiz-adv-x="269" 
d="M154 412h87l-51 -412h-111l34 267l-51 -34l-46 85z" />
    <glyph glyph-name="two.dnom" horiz-adv-x="305" 
d="M-12 0l7 75l128 132q53 55 53 88q0 23 -26 23q-31 0 -69 -31l-57 81q61 53 142 53q55 0 89.5 -29t34.5 -85q0 -82 -77 -152l-57 -53l1 -1h110l-12 -101h-267z" />
    <glyph glyph-name="three.dnom" horiz-adv-x="316" 
d="M122 -9q-92 0 -139 49l65 87q11 -17 32 -26.5t41 -9.5q22 0 35.5 12t13.5 33q0 33 -35 33h-32l10 81h30q22 0 33 12.5t11 30.5q0 30 -32 30q-27 0 -65 -32l-57 78q63 52 141 52q54 0 87 -26.5t33 -74.5q0 -69 -59 -108v-1q48 -26 48 -87q0 -60 -44.5 -96.5t-116.5 -36.5z
" />
    <glyph glyph-name="four.dnom" horiz-adv-x="326" 
d="M258 164h46l-12 -95h-46l-9 -69h-112l8 69h-146l8 67l205 276h88zM98 153h68l15 119z" />
    <glyph glyph-name="five.dnom" horiz-adv-x="316" 
d="M186 266q44 0 71.5 -28.5t27.5 -83.5q0 -74 -46.5 -118t-118.5 -44q-91 0 -138 48l64 88q25 -35 70 -35q25 0 39.5 15t14.5 39q0 40 -40 40q-30 0 -53 -21l-52 24l40 222h231l-13 -100h-140l-9 -52q29 6 52 6z" />
    <glyph glyph-name="six.dnom" horiz-adv-x="341" 
d="M198 261q51 0 83 -27t32 -85q0 -68 -40.5 -113t-115.5 -45q-69 0 -106.5 43.5t-37.5 122.5q0 68 19.5 125t68 97.5t119.5 40.5q48 2 99 -23l-46 -86q-26 13 -54 13q-71 0 -90 -77l5 -4q34 18 64 18zM161 89q20 0 32 15t12 39q0 35 -39 35q-25 0 -49 -21v-8q0 -26 12 -43
t32 -17z" />
    <glyph glyph-name="seven.dnom" horiz-adv-x="295" 
d="M37 412h260l-8 -73l-156 -339h-120l147 310h-136z" />
    <glyph glyph-name="eight.dnom" horiz-adv-x="336" 
d="M140 -9q-65 0 -101.5 29t-36.5 83q0 74 73 120v1q-37 25 -37 75q0 56 42 89t104 33q57 0 91 -24.5t34 -72.5q0 -36 -16.5 -63t-38.5 -38v-1q49 -36 49 -93q0 -63 -45 -100.5t-118 -37.5zM171 262q16 0 26 11t10 28q0 33 -30 33q-35 0 -35 -40q0 -32 29 -32zM148 83
q20 0 32.5 13.5t12.5 35.5q0 39 -37 39q-21 0 -33 -13.5t-12 -34.5q0 -40 37 -40z" />
    <glyph glyph-name="nine.dnom" horiz-adv-x="339" 
d="M172 420q69 0 106.5 -43.5t37.5 -121.5q0 -69 -18 -125t-66.5 -97t-122.5 -41q-55 -2 -100 21l46 87q28 -12 56 -12q70 0 89 78l-4 4q-33 -19 -63 -19q-52 0 -84.5 27t-32.5 86q0 67 40.5 111.5t115.5 44.5zM124 272q0 -38 39 -38q25 0 50 23v7q0 25 -12 42t-33 17
q-19 0 -31.5 -15t-12.5 -36z" />
    <glyph glyph-name="zero.numr" horiz-adv-x="372" 
d="M195 289q-69 0 -107 46t-38 127q0 105 50.5 181t137.5 76q69 0 108 -46t39 -126q0 -107 -50 -182.5t-140 -75.5zM200 393q24 0 41.5 26.5t24.5 60.5t7 69q0 32 -10 49.5t-27 17.5q-36 0 -55 -49.5t-19 -106.5q0 -67 38 -67z" />
    <glyph glyph-name="one.numr" horiz-adv-x="269" 
d="M190 710h87l-51 -412h-111l34 267l-51 -34l-46 85z" />
    <glyph glyph-name="two.numr" horiz-adv-x="305" 
d="M25 298l7 75l128 132q53 55 53 88q0 23 -26 23q-31 0 -69 -31l-57 81q61 53 142 53q55 0 89.5 -29t34.5 -85q0 -82 -77 -152l-57 -53l1 -1h110l-12 -101h-267z" />
    <glyph glyph-name="three.numr" horiz-adv-x="317" 
d="M159 289q-92 0 -139 49l65 87q11 -17 32 -26.5t41 -9.5q22 0 35.5 12t13.5 33q0 33 -35 33h-32l10 81h30q22 0 33 12.5t11 30.5q0 30 -32 30q-27 0 -65 -32l-57 78q63 52 141 52q54 0 87 -26.5t33 -74.5q0 -69 -59 -108v-1q48 -26 48 -87q0 -60 -44.5 -96.5t-116.5 -36.5
z" />
    <glyph glyph-name="four.numr" horiz-adv-x="326" 
d="M295 463h46l-12 -95h-46l-9 -69h-112l8 69h-146l8 67l205 276h88zM135 452h68l15 119z" />
    <glyph glyph-name="five.numr" horiz-adv-x="316" 
d="M223 565q44 0 71.5 -28.5t27.5 -83.5q0 -74 -46.5 -118t-118.5 -44q-91 0 -138 48l64 88q25 -35 70 -35q25 0 39.5 15t14.5 39q0 40 -40 40q-30 0 -53 -21l-52 24l40 222h231l-13 -100h-140l-9 -52q29 6 52 6z" />
    <glyph glyph-name="six.numr" horiz-adv-x="341" 
d="M235 561q51 0 83 -27t32 -85q0 -68 -40.5 -113t-115.5 -45q-69 0 -106.5 43.5t-37.5 122.5q0 68 19.5 125t68 97.5t119.5 40.5q48 2 99 -23l-46 -86q-26 13 -54 13q-71 0 -90 -77l5 -4q34 18 64 18zM198 389q20 0 32 15t12 39q0 35 -39 35q-25 0 -49 -21v-8q0 -26 12 -43
t32 -17z" />
    <glyph glyph-name="seven.numr" horiz-adv-x="295" 
d="M73 710h260l-8 -73l-156 -339h-120l147 310h-136z" />
    <glyph glyph-name="eight.numr" horiz-adv-x="337" 
d="M177 290q-65 0 -101.5 29t-36.5 83q0 74 73 120v1q-37 25 -37 75q0 56 42 89t104 33q57 0 91 -24.5t34 -72.5q0 -36 -16.5 -63t-38.5 -38v-1q49 -36 49 -93q0 -63 -45 -100.5t-118 -37.5zM208 561q16 0 26 11t10 28q0 33 -30 33q-35 0 -35 -40q0 -32 29 -32zM185 382
q20 0 32.5 13.5t12.5 35.5q0 39 -37 39q-21 0 -33 -13.5t-12 -34.5q0 -40 37 -40z" />
    <glyph glyph-name="nine.numr" horiz-adv-x="339" 
d="M209 719q69 0 106.5 -43.5t37.5 -121.5q0 -69 -18 -125t-66.5 -97t-122.5 -41q-55 -2 -100 21l46 87q28 -12 56 -12q70 0 89 78l-4 4q-33 -19 -63 -19q-52 0 -84.5 27t-32.5 86q0 67 40.5 111.5t115.5 44.5zM161 571q0 -38 39 -38q25 0 50 23v7q0 25 -12 42t-33 17
q-19 0 -31.5 -15t-12.5 -36z" />
    <glyph glyph-name="bullet.case" horiz-adv-x="417" 
d="M217 222q-52 0 -86.5 34.5t-34.5 86.5t36 87.5t90 35.5q52 0 86 -34t34 -85q0 -54 -36 -89.5t-89 -35.5z" />
    <glyph glyph-name="exclamdown.case" horiz-adv-x="291" 
d="M202 747q39 0 62.5 -24.5t23.5 -62.5q0 -39 -24.5 -63.5t-64.5 -24.5t-63.5 24t-23.5 61q0 40 24.5 65t65.5 25zM235 494l-35 -494h-159l87 494h107z" />
    <glyph glyph-name="periodcentered.loclCAT.case" horiz-adv-x="169" 
d="M67 253q-39 0 -62.5 24.5t-23.5 62.5q0 39 24.5 63.5t64.5 24.5t63.5 -24t23.5 -61q0 -40 -24.5 -65t-65.5 -25z" />
    <glyph glyph-name="questiondown.case" horiz-adv-x="424" 
d="M282 746q39 0 62.5 -24.5t23.5 -62.5q0 -39 -24.5 -63.5t-64.5 -24.5t-63.5 24t-23.5 61q0 40 24.5 65t65.5 25zM339 496l-5 -43q-3 -36 -24 -66.5t-69 -80.5q-32 -33 -49 -60t-17 -60q0 -57 50 -57q40 0 80 46l91 -91q-32 -42 -88 -68t-118 -26q-77 0 -127.5 42.5
t-50.5 120.5q0 102 106 199q37 33 55.5 55t23.5 45l9 44h133z" />
    <glyph glyph-name="uni2E18.case" horiz-adv-x="426" 
d="M281 571q-40 0 -63.5 24t-23.5 61q0 40 24.5 65t65.5 25q39 0 62.5 -24.5t23.5 -62.5q0 -39 -24.5 -63.5t-64.5 -24.5zM305 175l92 -91q-78 -94 -207 -94q-74 0 -126 42t-52 118q0 114 108 202q69 59 78 100l9 44h123l-10 -290h-156l5 23q-9 -19 -9 -41q0 -59 62 -59
q47 0 83 46z" />
    <glyph glyph-name="periodcentered.loclCAT" horiz-adv-x="173" 
d="M93 208q-39 0 -62.5 24.5t-23.5 62.5q0 39 24.5 63.5t64.5 24.5t63.5 -24t23.5 -61q0 -40 -24.5 -65t-65.5 -25z" />
    <glyph glyph-name="colon.tf" horiz-adv-x="293" 
d="M165 323q-39 0 -62.5 24.5t-23.5 62.5q0 39 24.5 63.5t64.5 24.5t63.5 -24t23.5 -61q0 -40 -24.5 -65t-65.5 -25zM123 -11q-39 0 -62.5 24.5t-23.5 62.5q0 39 24.5 63.5t64.5 24.5t63.5 -24t23.5 -61q0 -40 -24.5 -65t-65.5 -25z" />
    <glyph glyph-name="comma.tf" horiz-adv-x="293" 
d="M13 -133l59 267h148l-101 -267h-106z" />
    <glyph glyph-name="numbersign.tf" horiz-adv-x="586" 
d="M52 -26l48 182h-86l14 109h102l34 131h-96l13 110h113l43 171h102l-44 -171h106l44 171h101l-44 -171h91l-14 -110h-107l-33 -131h100l-15 -109h-116l-47 -182h-101l47 182h-105l-48 -182h-102zM231 265h107l32 131h-105z" />
    <glyph glyph-name="period.tf" horiz-adv-x="293" 
d="M124 -11q-39 0 -62.5 24.5t-23.5 62.5q0 39 24.5 63.5t64.5 24.5t63.5 -24t23.5 -61q0 -40 -24.5 -65t-65.5 -25z" />
    <glyph glyph-name="braceleft.case" horiz-adv-x="326" 
d="M184 -101q-47 0 -75.5 37.5t-21.5 96.5l22 175q2 21 2 37.5t-15.5 27t-50.5 11.5l8 109q27 1 44.5 8t26 20.5t12 24.5t4.5 27l23 178q7 56 41.5 93t82.5 37h83l-12 -97h-18q-48 0 -57 -67l-22 -171q-11 -85 -59 -108v-2q23 -13 31.5 -34t0.5 -77l-20 -165q-4 -36 2 -50.5
t35 -14.5h23l-13 -96h-77z" />
    <glyph glyph-name="braceright.case" horiz-adv-x="328" 
d="M-17 -100l12 96h17q30 0 42.5 17.5t16.5 52.5l20 166q7 57 19 76.5t40 32.5v2q-42 27 -32 109l21 172q6 61 -37 61h-22l11 97h77q49 0 77 -40t21 -96l-22 -176q-1 -18 -2 -34.5t15 -28.5t51 -13l-9 -109q-50 -1 -66.5 -21.5t-21.5 -59.5l-21 -175q-7 -59 -42.5 -94
t-82.5 -35h-82z" />
    <glyph glyph-name="bracketleft.case" horiz-adv-x="331" 
d="M22 -105l109 884h240l-13 -110h-114l-82 -664h114l-13 -110h-241z" />
    <glyph glyph-name="bracketright.case" horiz-adv-x="330" 
d="M-15 -104l13 110h114l82 664h-114l13 110h241l-108 -884h-241z" />
    <glyph glyph-name="parenleft.case" horiz-adv-x="290" 
d="M117 -118q-65 136 -65 320q0 160 47 317.5t134 273.5l99 -44q-69 -112 -107.5 -251.5t-38.5 -276.5q0 -153 48 -285z" />
    <glyph glyph-name="parenright.case" horiz-adv-x="282" 
d="M89 -113l-100 43q70 115 107.5 253.5t37.5 275.5q0 158 -47 285l116 53q66 -128 66 -319q0 -161 -46 -316.5t-134 -274.5z" />
    <glyph glyph-name="emdash.case" horiz-adv-x="1007" 
d="M38 259l15 126h934l-16 -126h-933z" />
    <glyph glyph-name="endash.case" horiz-adv-x="540" 
d="M38 259l15 126h467l-16 -126h-466z" />
    <glyph glyph-name="uni2015.case" horiz-adv-x="1173" 
d="M37 259l16 126h1100l-15 -126h-1101z" />
    <glyph glyph-name="hyphen.case" horiz-adv-x="339" 
d="M38 258l15 132h266l-16 -132h-265z" />
    <glyph glyph-name="hyphen.tf" horiz-adv-x="586" 
d="M74 214l16 126h430l-15 -126h-431z" />
    <glyph glyph-name="guillemotleft.case" horiz-adv-x="494" 
d="M117 89l-77 201l129 205h137l-128 -205l77 -201h-138zM324 89l-78 201l130 205h137l-129 -205l77 -201h-137z" />
    <glyph glyph-name="guillemotright.case" horiz-adv-x="496" 
d="M-5 90l128 201l-79 205h139l78 -205l-126 -201h-140zM205 90l128 201l-79 205h138l79 -205l-127 -201h-139z" />
    <glyph glyph-name="cent.tf" horiz-adv-x="586" 
d="M296 178q47 0 87 48l116 -74q-64 -88 -163 -104l-12 -95h-95l11 95q-75 13 -117.5 67t-42.5 141q0 108 60 190.5t160 100.5l10 93h96l-11 -92q87 -14 132 -80l-115 -85q-23 36 -69 36q-47 -1 -79.5 -47.5t-32.5 -110.5q0 -43 20.5 -63t44.5 -20z" />
    <glyph glyph-name="dollar.tf" horiz-adv-x="586" 
d="M336 407q10 -6 45 -26.5t45.5 -27.5t34 -25.5t31.5 -33t16 -37.5t8 -49q0 -91 -55 -147t-147 -66l-15 -112h-98l14 114q-119 17 -176 95l99 116q23 -36 64 -55.5t79 -19.5q35 0 54.5 15.5t19.5 38.5q0 13 -9 24t-19.5 18t-42.5 26q-3 2 -4 2.5t-3 2t-4 2.5l-4 2
q-82 48 -108 73q-54 52 -54 126q0 82 52 137t134 67l14 115h99l-15 -116q112 -18 164 -88l-104 -101q-43 54 -122 54q-27 0 -44 -14t-17 -37q1 -18 15.5 -34t52.5 -39z" />
    <glyph glyph-name="dong.tf" horiz-adv-x="586" 
d="M602 637l-11 -90h-41l-68 -547h-150l9 72l-3 1q-58 -82 -141 -82q-77 0 -118.5 56t-41.5 144q0 130 67 218.5t164 88.5q72 0 117 -43h3l11 92h-158l11 90h158l12 99h151l-12 -99h41zM375 315l2 14q-32 35 -83 35q-47 0 -76.5 -51t-29.5 -111q0 -35 15.5 -56.5t40.5 -21.5
q42 0 80 51.5t51 139.5zM29 -173l16 126h430l-15 -126h-431z" />
    <glyph glyph-name="Euro.tf" horiz-adv-x="586" 
d="M363 134q55 0 90 35l77 -119q-83 -58 -177 -58q-103 0 -174 62.5t-85 184.5h-61l10 79h48q1 20 5 53h-46l10 79h54q34 112 115.5 178t191.5 66q99 0 171 -60l-102 -110q-28 28 -68 28q-92 0 -140 -102h186l-10 -79h-199q-4 -25 -6 -53h198l-10 -79h-182q11 -51 38.5 -78
t65.5 -27z" />
    <glyph glyph-name="florin.tf" horiz-adv-x="586" 
d="M112 -165q-58 0 -93.5 15t-46.5 31l59 96q32 -12 57 -12q31 0 50 19.5t29 65.5l70 297h-69l32 123h69l24 102q41 173 192 173q57 0 93 -15t48 -30l-60 -97q-32 12 -58 12q-53 0 -72 -85l-12 -60h108l-33 -123h-109l-79 -339q-21 -87 -69.5 -130t-129.5 -43z" />
    <glyph glyph-name="uni20BA.tf" horiz-adv-x="586" 
d="M452 287l121 -43q-51 -132 -125.5 -188t-180.5 -56h-190l23 189l-64 -29l-25 74l100 45l7 58l-64 -29l-25 74l100 45l32 260h160l-22 -184l136 61l25 -73l-172 -78l-7 -57l136 61l25 -74l-172 -78l-17 -138h24q58 0 98.5 37t76.5 123z" />
    <glyph glyph-name="peseta.tf" horiz-adv-x="586" 
d="M600 499l-11 -82h-52q-18 -90 -83.5 -139.5t-174.5 -49.5h-50l-28 -228h-156l52 417h-58l10 82h58l24 189h211q102 0 152 -50.5t51 -138.5h55zM265 559l-7 -60h128q-10 60 -71 60h-50zM279 355q82 0 102 62h-134l-7 -62h39z" />
    <glyph glyph-name="uni20B1.tf" horiz-adv-x="586" 
d="M596 469h-50q0 -15 -3 -30h49l-9 -80h-63q-60 -131 -240 -131h-52l-27 -228h-156l44 359h-57l10 80h57l4 30h-57l9 80h58l17 139h213q171 0 199 -139h65zM319 565h-59l-4 -35h137q-20 35 -74 35zM248 469l-4 -30h159q2 18 2 30h-157zM284 339q66 0 95 39h-142l-5 -39h52z
" />
    <glyph glyph-name="sterling.tf" horiz-adv-x="586" 
d="M37 0l17 142h52l20 160h-45l13 108h46l7 57q28 228 231 228q50 0 98 -24t76 -69l-95 -102q-34 54 -79 54q-59 0 -73 -103l-5 -41h125l-12 -108h-126l-20 -160h238l-17 -142h-451z" />
    <glyph glyph-name="yen.tf" horiz-adv-x="586" 
d="M625 687l-198 -323h82l-10 -80h-121l-7 -51h121l-9 -80h-122l-19 -153h-163l19 153h-126l10 80h126l7 51h-127l10 80h88l-117 323h181l64 -245h2l121 245h188z" />
    <glyph glyph-name="uni20B9.tf" horiz-adv-x="586" 
d="M547 580h-139l-1 -2q23 -17 34 -57h99l-11 -97h-84q-10 -67 -58.5 -115t-132.5 -62l176 -247h-182l-169 253l14 114h73q90 0 114 67h-179l10 83h175q-12 69 -109 69h-57l12 101h429z" />
    <glyph glyph-name="plus.case" horiz-adv-x="532" 
d="M182 87l21 174h-151l16 126h151l22 176h128l-22 -176h152l-16 -126h-152l-21 -174h-128z" />
    <glyph glyph-name="plus.tf" horiz-adv-x="586" 
d="M203 40l21 174h-151l16 126h151l22 176h128l-22 -176h152l-16 -126h-152l-21 -174h-128z" />
    <glyph glyph-name="multiply.tf" horiz-adv-x="586" 
d="M156 56l-81 89l132 133l-99 132l99 89l98 -132l132 133l82 -90l-133 -133l99 -133l-98 -89l-100 133z" />
    <glyph glyph-name="divide.tf" horiz-adv-x="586" 
d="M313 396q-37 0 -61 22.5t-24 57.5q0 36 24.5 59.5t63.5 23.5q37 0 60.5 -22.5t23.5 -57.5q0 -36 -24.5 -59.5t-62.5 -23.5zM73 214l16 126h430l-15 -126h-431zM269 -8q-37 0 -61 22.5t-24 57.5q0 36 24.5 59.5t63.5 23.5q37 0 60.5 -22.5t23.5 -57.5q0 -36 -24.5 -59.5
t-62.5 -23.5z" />
    <glyph glyph-name="equal.tf" horiz-adv-x="586" 
d="M90 329l16 126h430l-15 -126h-431zM58 99l16 126h430l-15 -126h-431z" />
    <glyph glyph-name="notequal.tf" horiz-adv-x="586" 
d="M521 329h-167l-56 -104h206l-15 -126h-260l-55 -102l-90 35l37 67h-63l16 126h115l57 104h-156l16 126h208l62 113l88 -36l-42 -77h114z" />
    <glyph glyph-name="greater.tf" horiz-adv-x="586" 
d="M52 21l16 136l255 116l-226 114l16 140l403 -203l-12 -105z" />
    <glyph glyph-name="less.tf" horiz-adv-x="586" 
d="M479 21l-402 198l11 105l452 203l-16 -140l-255 -114l225 -116z" />
    <glyph glyph-name="greaterequal.tf" horiz-adv-x="586" 
d="M71 177l16 136l255 116l-226 114l16 140l403 -203l-12 -105zM48 0l16 126h427l-15 -126h-428z" />
    <glyph glyph-name="lessequal.tf" horiz-adv-x="586" 
d="M498 173l-403 198l12 104l452 203l-16 -139l-254 -114l225 -116zM49 0l15 127h428l-16 -127h-427z" />
    <glyph glyph-name="approxequal.tf" horiz-adv-x="586" 
d="M410 305q-32 0 -86.5 24.5t-88.5 24.5q-52 0 -112 -41l-33 100q17 19 57 42t77 23q38 0 92 -25t81 -25q52 0 101 45l34 -102q-21 -26 -54.5 -46t-67.5 -20zM382 82q-31 0 -85.5 25t-88.5 25q-52 0 -112 -41l-33 99q17 19 56.5 42.5t76.5 23.5q38 0 92.5 -25t81.5 -25
q51 0 101 44l33 -102q-21 -26 -54 -46t-68 -20z" />
    <glyph glyph-name="uni2236.tf" horiz-adv-x="293" 
d="M172 381q-39 0 -62.5 24.5t-23.5 62.5q0 39 24.5 63.5t64.5 24.5t63.5 -24t23.5 -61q0 -40 -24.5 -65t-65.5 -25zM130 47q-39 0 -62.5 24.5t-23.5 62.5q0 39 24.5 63.5t64.5 24.5t63.5 -24t23.5 -61q0 -40 -24.5 -65t-65.5 -25z" />
    <glyph glyph-name="at.case" horiz-adv-x="887" 
d="M413 -78q-161 0 -266 102.5t-105 271.5q0 55 14 112t47.5 116.5t83 105.5t127.5 75.5t174 29.5q172 0 271 -103t99 -263q0 -31 -5.5 -62.5t-21.5 -67.5t-40.5 -63.5t-67 -45.5t-96.5 -18q-59 0 -92 26q-29 18 -38 58h-2q-52 -75 -131 -75q-58 0 -96.5 44.5t-38.5 124.5
q0 113 58.5 186t142.5 73q67 0 99 -37l3 1l4 28h138l-34 -273q-2 -16 -2 -25q0 -39 37 -39q30 0 52.5 31.5t32 67.5t9.5 66q0 122 -73.5 201t-207.5 79q-76 0 -138 -23.5t-101 -60t-66 -84.5t-38 -94t-11 -91q0 -130 80.5 -208t198.5 -78q107 0 206 57l45 -68
q-113 -77 -251 -77zM416 246q38 0 68 38t39 97l3 20q-30 23 -67 23q-39 0 -65 -36.5t-26 -82.5q0 -27 14 -43t34 -16z" />
    <glyph glyph-name="degree.tf" horiz-adv-x="586" 
d="M217 440q-55 0 -86 31.5t-31 82.5q0 69 42.5 116.5t108.5 47.5q53 0 86 -32.5t33 -88.5q0 -64 -42.5 -110.5t-110.5 -46.5zM227 525q23 0 39 18.5t16 44.5q0 20 -11 33t-29 13q-23 0 -39 -19t-16 -49q0 -18 11 -29.5t29 -11.5z" />
    <glyph glyph-name="caroncomb.alt" 
d="M-193 577l56 215h142l-93 -215h-105z" />
    <glyph glyph-name="uni0308.case" 
d="M-308 509q-39 0 -64.5 24.5t-25.5 61.5q0 38 26 63t67 25q40 0 65 -24t25 -61q0 -39 -26 -64t-67 -25zM-91 509q-39 0 -64.5 24.5t-25.5 61.5q0 39 26 63.5t68 24.5q39 0 64 -24t25 -61q0 -39 -26 -64t-67 -25z" />
    </font>
</defs>
</svg>
