<?xml version="1.0" standalone="no"?>
<!DOCTYPE svg PUBLIC "-//W3C//DTD SVG 1.1//EN" "http://www.w3.org/Graphics/SVG/1.1/DTD/svg11.dtd" >
<svg xmlns="http://www.w3.org/2000/svg" xmlns:xlink="http://www.w3.org/1999/xlink" version="1.1">
<metadata>
Created by FontForge 20190801 at Mon Sep 18 11:15:53 2017
 By www-data
Copyright (c) 2017 by Kostas Bartsokas. All rights reserved.
</metadata>
<defs>
<font id="CWCLightItalic" horiz-adv-x="0" >
  <font-face 
    font-family="CWCLightItalic"
    font-weight="300"
    font-style="italic"
    font-stretch="normal"
    units-per-em="1000"
    panose-1="0 0 4 0 0 0 0 0 0 0"
    ascent="800"
    descent="-200"
    x-height="485"
    cap-height="710"
    bbox="-665.048 -329 1273 1035"
    underline-thickness="29"
    underline-position="-79"
    slope="-7"
    unicode-range="U+000D-1F10C"
  />
<missing-glyph horiz-adv-x="398" 
 />
    <glyph glyph-name=".notdef" horiz-adv-x="398" 
 />
    <glyph glyph-name=".null" 
 />
    <glyph glyph-name="nonmarkingreturn" horiz-adv-x="333" 
 />
    <glyph glyph-name="CR" unicode="&#xd;" 
 />
    <glyph glyph-name="space" unicode=" " horiz-adv-x="240" 
 />
    <glyph glyph-name="exclam" unicode="!" horiz-adv-x="235" 
d="M102 195l57 541h58l-76 -541h-39zM106 -5q-19 0 -30.5 12t-11.5 30t12 30.5t31 12.5q18 0 30 -12t12 -30t-12.5 -30.5t-30.5 -12.5z" />
    <glyph glyph-name="quotedbl" unicode="&#x22;" horiz-adv-x="294" 
d="M78 481l59 229h58l-73 -229h-44zM186 481l59 229h58l-73 -229h-44z" />
    <glyph glyph-name="numbersign" unicode="#" horiz-adv-x="578" 
d="M96 -30l56 214h-112l6 43h117l45 173h-122l5 42h128l56 214h41l-56 -214h158l54 214h41l-55 -214h116l-6 -42h-122l-45 -173h127l-6 -43h-133l-55 -214h-41l56 214h-157l-55 -214h-41zM203 227h158l44 173h-156z" />
    <glyph glyph-name="dollar" unicode="$" horiz-adv-x="527" 
d="M293 365q6 -3 18 -10q39 -22 59 -34.5t46 -35t37.5 -49.5t11.5 -61q0 -81 -58 -130t-147 -49h-1l-15 -120h-42l15 123q-119 17 -183 100l37 41q35 -43 86.5 -67.5t103.5 -24.5q65 0 106 35t41 88q0 23 -9 42.5t-28 35.5t-38.5 27.5t-49.5 28.5q-10 5 -15 8q-34 19 -47 27
t-40.5 28t-39 35.5t-22 40.5t-10.5 53q0 72 53 119t135 50l15 126h42l-15 -128q100 -12 160 -79l-37 -38q-30 34 -73.5 51t-83.5 17q-60 0 -99.5 -31.5t-39.5 -80.5q0 -24 9 -43.5t31.5 -37.5t36.5 -27t50 -30z" />
    <glyph glyph-name="percent" unicode="%" horiz-adv-x="832" 
d="M153 -2l-35 28l581 667l34 -28zM225 344q-69 0 -113.5 41.5t-44.5 109.5q0 81 57 139t142 58q68 0 112.5 -41.5t44.5 -109.5q0 -80 -57 -138.5t-141 -58.5zM230 388q60 0 103 43t43 104q0 50 -32.5 81.5t-83.5 31.5q-62 0 -104 -42.5t-42 -105.5q0 -50 32 -81t84 -31z
M589 -5q-69 0 -113.5 41.5t-44.5 109.5q0 81 57 139t142 58q68 0 112.5 -41.5t44.5 -109.5q0 -80 -57 -138.5t-141 -58.5zM594 38q61 0 103.5 43t42.5 105q0 50 -32.5 81.5t-83.5 31.5q-62 0 -103.5 -42.5t-41.5 -105.5q0 -50 32 -81.5t83 -31.5z" />
    <glyph glyph-name="ampersand" unicode="&#x26;" horiz-adv-x="727" 
d="M235 -5q-88 0 -138.5 48t-50.5 131q0 76 41 138t108 89q-63 40 -63 121t57 137t147 56q114 0 167 -75l-40 -37q-41 64 -128 64q-66 0 -107 -41.5t-41 -101.5q0 -43 22 -71.5t60 -28.5h448l-6 -49h-168q-14 -167 -92.5 -273.5t-215.5 -106.5zM240 46q106 0 174 92t77 237
h-213q-70 0 -123 -60.5t-53 -136.5q0 -61 35 -96.5t103 -35.5z" />
    <glyph glyph-name="quotesingle" unicode="'" horiz-adv-x="187" 
d="M78 481l59 229h58l-73 -229h-44z" />
    <glyph glyph-name="parenleft" unicode="(" horiz-adv-x="259" 
d="M121 -144q-51 143 -51 307q0 153 42 303.5t121 269.5l38 -18q-73 -117 -112 -260t-39 -287q0 -147 45 -294z" />
    <glyph glyph-name="parenright" unicode=")" horiz-adv-x="259" 
d="M43 -142l-39 17q148 266 148 545q0 161 -49 295l44 23q55 -132 55 -311q0 -301 -159 -569z" />
    <glyph glyph-name="asterisk" unicode="*" horiz-adv-x="394" 
d="M197 399l19 129l-104 -68l-15 34l107 61l-93 60l23 35l89 -68l12 128h39l-20 -128l104 68l15 -35l-108 -60l95 -61l-24 -33l-88 67l-13 -129h-38z" />
    <glyph glyph-name="plus" unicode="+" horiz-adv-x="549" 
d="M226 45l25 207h-185l6 49h185l26 208h49l-25 -208h184l-7 -49h-184l-25 -207h-49z" />
    <glyph glyph-name="comma" unicode="," horiz-adv-x="192" 
d="M-8 -129l59 229h58l-76 -229h-41z" />
    <glyph glyph-name="hyphen" unicode="-" horiz-adv-x="389" 
d="M67 282l7 52h264l-6 -52h-265z" />
    <glyph glyph-name="period" unicode="." horiz-adv-x="218" 
d="M83 -5q-19 0 -30.5 12t-11.5 30t12 30.5t31 12.5q18 0 30 -12t12 -30t-12.5 -30.5t-30.5 -12.5z" />
    <glyph glyph-name="slash" unicode="/" horiz-adv-x="347" 
d="M-32 -114l-38 21l452 851l37 -21z" />
    <glyph glyph-name="zero" unicode="0" horiz-adv-x="582" 
d="M259 -5q-85 0 -137.5 66.5t-52.5 193.5q0 111 30 208t95.5 162.5t154.5 65.5q86 0 136.5 -65.5t50.5 -194.5q0 -112 -29 -208.5t-93.5 -162t-154.5 -65.5zM260 47q74 0 126 60t74 144.5t22 180.5q0 104 -37 156t-100 52q-55 0 -98.5 -35t-69 -92t-39 -123.5t-13.5 -135.5
q0 -102 37.5 -154.5t97.5 -52.5z" />
    <glyph glyph-name="one" unicode="1" horiz-adv-x="344" 
d="M248 687h46l-85 -687h-54l76 613l-142 -107l-27 43z" />
    <glyph glyph-name="two" unicode="2" horiz-adv-x="482" 
d="M7 0l5 41l243 234q69 66 108 125t39 122q0 52 -30.5 85t-94.5 33q-84 0 -169 -81l-32 40q96 92 205 92q83 0 129.5 -44.5t46.5 -120.5q0 -132 -158 -279l-205 -194v-2h317l-7 -51h-397z" />
    <glyph glyph-name="three" unicode="3" horiz-adv-x="492" 
d="M204 -5q-126 0 -197 80l33 44q60 -72 164 -72q79 0 126.5 47.5t47.5 123.5q0 53 -32 84.5t-96 31.5h-73l7 48h71q68 0 109 45t41 110q0 49 -32 76t-91 27q-90 0 -165 -69l-32 40q85 80 202 80q80 0 126 -38t46 -111q0 -65 -31.5 -113t-86.5 -69v-2q93 -34 93 -146
q0 -97 -64 -157t-166 -60z" />
    <glyph glyph-name="four" unicode="4" horiz-adv-x="513" 
d="M382 205h95l-7 -49h-94l-19 -156h-55l20 156h-305l5 42l373 489h46zM330 203l47 382l-292 -382h245z" />
    <glyph glyph-name="five" unicode="5" horiz-adv-x="507" 
d="M480 636h-285l-40 -229q59 24 124 24q84 0 131 -46.5t47 -136.5q0 -112 -66 -182.5t-176 -70.5q-121 0 -192 80l33 44q60 -72 159 -72q86 0 136.5 56t50.5 141q0 138 -142 138q-80 0 -136 -40l-31 14l59 331h335z" />
    <glyph glyph-name="six" unicode="6" horiz-adv-x="552" 
d="M326 429q80 0 128 -46t48 -134q0 -106 -66 -180t-167 -74q-94 0 -148.5 67t-54.5 191q0 83 18.5 159.5t54.5 140t97 101.5t138 38q80 0 135 -29l-26 -47q-47 24 -110 24q-102 0 -166.5 -80.5t-81.5 -219.5q-1 -3 -1.5 -10t-0.5 -10l5 -2q35 51 86.5 81t111.5 30zM270 47
q75 0 126 57.5t51 142.5q0 64 -34 98.5t-97 34.5q-57 0 -110.5 -34.5t-85.5 -93.5q2 -96 40 -150.5t110 -54.5z" />
    <glyph glyph-name="seven" unicode="7" horiz-adv-x="468" 
d="M83 0l334 636h-337l6 51h399l-5 -42l-337 -645h-60z" />
    <glyph glyph-name="eight" unicode="8" horiz-adv-x="536" 
d="M239 -4q-93 0 -144.5 42.5t-51.5 122.5q0 77 43 133.5t110 74.5l1 2q-37 12 -63.5 47t-26.5 87q0 85 60.5 135.5t153.5 50.5q82 0 128.5 -39.5t46.5 -106.5q0 -68 -39 -115t-87 -60v-2q51 -14 81 -54.5t30 -99.5q0 -99 -67 -158.5t-175 -59.5zM287 391q65 0 110 40.5
t45 104.5q0 50 -33.5 77.5t-92.5 27.5q-68 0 -111.5 -37.5t-43.5 -99.5q0 -51 35 -82t91 -31zM246 46q81 0 129.5 45t49.5 120q0 60 -39 95.5t-107 35.5q-80 0 -130.5 -48t-50.5 -123q0 -58 37.5 -91.5t110.5 -33.5z" />
    <glyph glyph-name="nine" unicode="9" horiz-adv-x="550" 
d="M306 692q94 0 148 -67t54 -191q0 -84 -18.5 -160t-54 -139.5t-96.5 -101.5t-139 -38q-82 0 -137 31l26 48q47 -27 112 -27q103 0 168.5 81t79.5 219l3 21l-5 2q-35 -52 -86.5 -82t-112.5 -30q-80 0 -127.5 46t-47.5 134q0 106 66 180t167 74zM258 307q59 0 112.5 35
t84.5 95q-2 95 -40.5 149t-110.5 54q-75 0 -125.5 -57.5t-50.5 -142.5q0 -64 33.5 -98.5t96.5 -34.5z" />
    <glyph glyph-name="colon" unicode=":" horiz-adv-x="215" 
d="M138 405q-19 0 -30.5 12t-11.5 30t12 30.5t31 12.5q18 0 30 -12t12 -30t-12.5 -30.5t-30.5 -12.5zM86 -5q-19 0 -30.5 12t-11.5 30t12 30.5t31 12.5q18 0 30 -12t12 -30t-12.5 -30.5t-30.5 -12.5z" />
    <glyph glyph-name="semicolon" unicode=";" horiz-adv-x="208" 
d="M137 405q-19 0 -30.5 12t-11.5 30t12 30.5t31 12.5q18 0 30 -12t12 -30t-12.5 -30.5t-30.5 -12.5zM4 -129l59 229h58l-76 -229h-41z" />
    <glyph glyph-name="less" unicode="&#x3c;" horiz-adv-x="535" 
d="M433 54l-372 207l4 38l424 209l-7 -54l-344 -174l301 -173z" />
    <glyph glyph-name="equal" unicode="=" horiz-adv-x="540" 
d="M95 365l6 49h418l-6 -49h-418zM69 139l6 49h418l-6 -49h-418z" />
    <glyph glyph-name="greater" unicode="&#x3e;" horiz-adv-x="533" 
d="M56 54l6 53l345 173l-303 174l7 54l373 -209l-5 -38z" />
    <glyph glyph-name="question" unicode="?" horiz-adv-x="408" 
d="M154 192l7 55q1 9 3.5 18.5t5 17t8 16.5t8.5 14.5t10.5 15.5l10.5 14t13 15t13 14t14.5 15t14.5 15q46 49 68.5 88t22.5 90q0 52 -28 80t-75 28q-83 0 -134 -76l-35 36q33 45 81.5 69t100.5 24q67 0 108 -42t41 -113q0 -61 -28 -108t-80 -99l-17 -17t-17 -17.5
t-14.5 -15.5t-14 -16l-10.5 -15t-10 -17t-6.5 -15.5t-4.5 -17.5l-8 -56h-48zM167 -5q-19 0 -30.5 12t-11.5 30t12 30.5t31 12.5q18 0 30 -12t12 -30t-12.5 -30.5t-30.5 -12.5z" />
    <glyph glyph-name="at" unicode="@" horiz-adv-x="906" 
d="M411 -135q-155 0 -255 99.5t-100 260.5q0 54 14 110t48 114t82.5 102.5t125 73t169.5 28.5q161 0 260.5 -97.5t99.5 -256.5q0 -40 -9.5 -82t-29.5 -82t-57 -65.5t-85 -25.5q-45 0 -69.5 26t-29.5 70q-5 14 -7 29h-2q-29 -52 -74.5 -83t-100.5 -31q-65 0 -105 43.5
t-40 121.5q0 103 59.5 175t158.5 72q87 0 130 -46l2 1l5 41h52l-27 -223q-1 -12 -2 -22.5t-2 -20t-1 -12.5q-4 -97 63 -97q42 0 72 36.5t42 82.5t12 91q0 140 -87 227t-228 87q-101 0 -180 -36.5t-124 -95t-68 -124t-23 -131.5q0 -140 88.5 -228.5t222.5 -88.5q126 0 222 52
l22 -33q-105 -62 -244 -62zM405 104q60 0 113 57t63 135l9 75q-43 47 -120 47t-123 -57.5t-46 -136.5q0 -56 27 -88t77 -32z" />
    <glyph glyph-name="A" unicode="A" horiz-adv-x="610" 
d="M1 0l330 710h60l159 -710h-58l-41 191h-304l-88 -191h-58zM169 242h272l-87 397h-2z" />
    <glyph glyph-name="B" unicode="B" horiz-adv-x="598" 
d="M71 0l87 710h211q78 0 125 -34t47 -108q0 -60 -34 -114.5t-94 -75.5v-2q119 -28 119 -147q0 -111 -70 -170t-194 -59h-197zM175 395h150q70 0 114 47t44 119q0 97 -128 97h-148zM133 52h138q94 0 148.5 45.5t54.5 131.5q0 116 -151 116h-154z" />
    <glyph glyph-name="C" unicode="C" horiz-adv-x="678" 
d="M352 -5q-125 0 -200 79.5t-75 219.5q0 112 45 207.5t128.5 154.5t186.5 59q155 0 245 -139l-45 -37q-80 123 -201 123q-130 0 -215.5 -109.5t-85.5 -254.5q0 -116 58.5 -182.5t161.5 -66.5q119 0 215 93l35 -42q-105 -105 -253 -105z" />
    <glyph glyph-name="D" unicode="D" horiz-adv-x="682" 
d="M71 0l87 710h189q137 0 211 -77t74 -213q0 -186 -104 -303t-274 -117h-183zM133 52h125q141 0 228.5 103t87.5 264q0 113 -59.5 176t-171.5 63h-136z" />
    <glyph glyph-name="E" unicode="E" horiz-adv-x="579" 
d="M71 0l87 710h415l-7 -52h-360l-33 -278h328l-7 -52h-328l-34 -276h374l-7 -52h-428z" />
    <glyph glyph-name="F" unicode="F" horiz-adv-x="553" 
d="M71 0l87 710h416l-7 -52h-360l-35 -285h321l-6 -51h-321l-40 -322h-55z" />
    <glyph glyph-name="G" unicode="G" horiz-adv-x="723" 
d="M363 -5q-133 0 -209.5 79t-76.5 220q0 112 45 207.5t128.5 154.5t186.5 59q151 0 239 -123l-45 -37q-77 107 -197 107q-129 0 -214 -110t-85 -254q0 -118 59.5 -184t169.5 -66q123 0 208 65l24 189h-208l6 52h264l-33 -272q-49 -42 -119.5 -64.5t-142.5 -22.5z" />
    <glyph glyph-name="H" unicode="H" horiz-adv-x="681" 
d="M71 0l87 710h55l-43 -348h370l42 348h56l-86 -710h-56l38 310h-369l-39 -310h-55z" />
    <glyph glyph-name="I" unicode="I" horiz-adv-x="268" 
d="M76 0l87 710h57l-87 -710h-57z" />
    <glyph glyph-name="J" unicode="J" horiz-adv-x="504" 
d="M200 -5q-124 0 -193 99l36 44q63 -89 157 -89q138 0 160 179l59 482h56l-59 -485q-28 -230 -216 -230z" />
    <glyph glyph-name="K" unicode="K" horiz-adv-x="621" 
d="M626 710l-288 -321q67 -70 125 -174t91 -215h-60q-31 101 -83.5 195.5t-112.5 156.5l-148 -159l-24 -193h-55l87 710h55l-53 -436h2l394 436h70z" />
    <glyph glyph-name="L" unicode="L" horiz-adv-x="542" 
d="M71 0l87 710h55l-80 -658h357l-6 -52h-413z" />
    <glyph glyph-name="M" unicode="M" horiz-adv-x="821" 
d="M71 0l87 710h55l195 -489h2l313 489h55l-86 -710h-56l72 591h-3l-285 -442h-40l-179 449h-2l-73 -598h-55z" />
    <glyph glyph-name="N" unicode="N" horiz-adv-x="722" 
d="M71 0l87 710h53l335 -614l2 1l75 613h56l-87 -710h-54l-335 609h-2l-75 -609h-55z" />
    <glyph glyph-name="O" unicode="O" horiz-adv-x="763" 
d="M353 -5q-127 0 -203 79t-76 218q0 112 44.5 208t129 155.5t190.5 59.5q127 0 202.5 -78t75.5 -218q0 -114 -43 -210t-127 -155t-193 -59zM356 48q134 0 218 109t84 261q0 118 -59.5 181.5t-165.5 63.5q-131 0 -216 -111t-85 -259q0 -116 60 -180.5t164 -64.5z" />
    <glyph glyph-name="P" unicode="P" horiz-adv-x="572" 
d="M71 0l87 710h220q90 0 135 -45.5t45 -128.5q0 -113 -66 -180.5t-184 -67.5h-147l-35 -288h-55zM168 339h146q87 0 136.5 53.5t49.5 143.5q0 61 -36 91.5t-97 30.5h-160z" />
    <glyph glyph-name="Q" unicode="Q" horiz-adv-x="780" 
d="M719 419q0 -183 -104 -304l75 -84l-37 -39l-76 84q-94 -81 -222 -81q-127 0 -202.5 79t-75.5 218q0 112 44.5 208t128.5 155.5t190 59.5q127 0 203 -78t76 -218zM358 48q104 0 182 70l-75 84l37 39l75 -84q84 107 84 261q0 118 -60 181t-166 63q-87 0 -157 -53
t-106.5 -136.5t-36.5 -179.5q0 -116 60 -180.5t163 -64.5z" />
    <glyph glyph-name="R" unicode="R" horiz-adv-x="603" 
d="M560 536q0 -98 -51 -162t-143 -80q106 -119 161 -294h-62q-61 182 -165 288h-139l-35 -288h-55l87 710h221q90 0 135.5 -45.5t45.5 -128.5zM168 339h147q87 0 137 53.5t50 143.5q0 61 -36.5 91.5t-96.5 30.5h-162z" />
    <glyph glyph-name="S" unicode="S" horiz-adv-x="551" 
d="M265 -5q-73 0 -135.5 27t-102.5 78l39 41q75 -93 200 -93q73 0 118 37t44 98q0 22 -9 42t-19.5 33t-35 29t-39 24t-48.5 26q-43 22 -66 36.5t-53 38.5t-44 54t-14 66q0 82 59.5 132.5t156.5 50.5q126 0 198 -81l-38 -39q-58 68 -161 68q-71 0 -114 -35t-43 -91
q0 -48 35.5 -79t108.5 -69q95 -49 124 -74q61 -51 61 -127q0 -88 -61 -140.5t-161 -52.5z" />
    <glyph glyph-name="T" unicode="T" horiz-adv-x="517" 
d="M200 0l81 658h-198l6 52h455l-7 -52h-200l-81 -658h-56z" />
    <glyph glyph-name="U" unicode="U" horiz-adv-x="664" 
d="M301 -5q-121 0 -171.5 79t-34.5 217l52 419h56l-52 -420q-14 -112 23.5 -176.5t128.5 -64.5q93 0 150.5 58t72.5 177l51 426h56l-52 -426q-35 -289 -280 -289z" />
    <glyph glyph-name="V" unicode="V" horiz-adv-x="604" 
d="M249 0l-158 710h59l133 -632h1l286 632h60l-331 -710h-50z" />
    <glyph glyph-name="W" unicode="W" horiz-adv-x="924" 
d="M214 0l-119 710h57l100 -619h2l233 619h62l85 -617h3l249 617h59l-295 -710h-52l-89 624h-2l-236 -624h-57z" />
    <glyph glyph-name="X" unicode="X" horiz-adv-x="583" 
d="M3 0l265 355l-176 355h62l155 -311h3l228 311h68l-266 -356l179 -354h-65l-154 308h-3l-231 -308h-65z" />
    <glyph glyph-name="Y" unicode="Y" horiz-adv-x="534" 
d="M209 0l39 320l-171 390h61l143 -333h2l226 333h65l-270 -390l-39 -320h-56z" />
    <glyph glyph-name="Z" unicode="Z" horiz-adv-x="571" 
d="M33 0l6 46l437 610v2h-342l7 52h414l-6 -46l-439 -609l1 -3h366l-6 -52h-438z" />
    <glyph glyph-name="bracketleft" unicode="[" horiz-adv-x="286" 
d="M37 -142l107 869h155l-5 -43h-109l-96 -784h109l-5 -42h-156z" />
    <glyph glyph-name="backslash" unicode="\" horiz-adv-x="353" 
d="M292 -114l-243 851l44 21l244 -852z" />
    <glyph glyph-name="bracketright" unicode="]" horiz-adv-x="287" 
d="M-2 -142l6 42h110l96 784h-110l5 43h158l-107 -869h-158z" />
    <glyph glyph-name="asciicircum" unicode="^" horiz-adv-x="445" 
d="M102 500l154 210h45l104 -210h-51l-78 170l-123 -170h-51z" />
    <glyph glyph-name="underscore" unicode="_" horiz-adv-x="463" 
d="M-44 -68l4 40h476l-4 -40h-476z" />
    <glyph glyph-name="grave" unicode="`" horiz-adv-x="468" 
d="M283 545l-96 138h61l91 -138h-56z" />
    <glyph glyph-name="a" unicode="a" horiz-adv-x="550" 
d="M215 -5q-79 0 -123 55t-44 139q0 124 69 212.5t179 88.5q98 0 146 -56l2 1l6 50h52l-59 -485h-52l16 132h-2q-34 -63 -83 -100t-107 -37zM223 43q75 0 133 76.5t72 183.5l10 77q-24 32 -64.5 47t-76.5 15q-87 0 -141.5 -75.5t-54.5 -178.5q0 -65 32 -105t90 -40z" />
    <glyph glyph-name="b" unicode="b" horiz-adv-x="564" 
d="M249 -5q-110 0 -186 50l85 691h51l-45 -378l2 -1q72 133 192 133q81 0 124.5 -56t43.5 -147q0 -120 -72 -206t-195 -86zM247 44q98 0 156.5 72.5t58.5 174.5q0 68 -31 109t-92 41q-78 0 -135.5 -75.5t-71.5 -183.5l-14 -111q53 -27 129 -27z" />
    <glyph glyph-name="c" unicode="c" horiz-adv-x="486" 
d="M245 -5q-88 0 -142 54t-54 156q0 117 69.5 201t182.5 84q114 0 167 -76l-41 -37q-40 65 -127 65q-88 0 -143 -69t-55 -164q0 -78 40.5 -121.5t106.5 -43.5q79 0 141 65l36 -36q-74 -78 -181 -78z" />
    <glyph glyph-name="d" unicode="d" horiz-adv-x="562" 
d="M216 -5q-80 0 -123.5 54.5t-43.5 139.5q0 124 69 212.5t178 88.5q98 0 149 -57l2 1l37 302h52l-90 -736h-52l16 133l-2 1q-73 -139 -192 -139zM223 43q77 0 135.5 76.5t72.5 182.5l9 78q-23 33 -63.5 47.5t-78.5 14.5q-87 0 -141.5 -75.5t-54.5 -178.5q0 -65 31.5 -105
t89.5 -40z" />
    <glyph glyph-name="e" unicode="e" horiz-adv-x="474" 
d="M248 45q80 0 142 65l36 -36q-75 -78 -181 -78q-89 0 -143 53.5t-54 155.5q0 117 70.5 201t182.5 84q60 0 104.5 -28t44.5 -88q0 -160 -349 -184q4 -68 44.5 -106.5t102.5 -38.5zM301 442q-78 0 -135 -58.5t-65 -149.5q295 22 295 135q0 39 -28.5 56t-66.5 17z" />
    <glyph glyph-name="f" unicode="f" horiz-adv-x="342" 
d="M79 0l53 439h-76l6 46h76l11 96q11 85 52.5 122.5t101.5 37.5q63 0 110 -30l-22 -45q-33 26 -84 26q-93 0 -107 -118l-10 -89h153l-6 -46h-153l-53 -439h-52z" />
    <glyph glyph-name="g" unicode="g" horiz-adv-x="552" 
d="M193 -202q-98 0 -169 40l24 46q63 -37 143 -37q43 0 74.5 9t60 32.5t47 68.5t26.5 112l10 79h-2q-34 -62 -84 -100t-109 -38q-78 0 -122 55t-44 140q0 113 69.5 199t178.5 86q97 0 147 -55l1 1l6 49h52l-51 -420q-10 -79 -33.5 -133.5t-59.5 -82.5t-75 -39.5t-90 -11.5z
M222 58q73 0 132.5 71.5t71.5 164.5l11 86q-24 32 -64 46.5t-75 14.5q-87 0 -142 -72.5t-55 -165.5q0 -65 32 -105t89 -40z" />
    <glyph glyph-name="h" unicode="h" horiz-adv-x="551" 
d="M57 0l90 736h52l-47 -386l2 -1q36 65 92 103t115 38q147 0 121 -198l-39 -292h-52l38 289q20 153 -81 153q-70 0 -136 -72t-78 -169l-25 -201h-52z" />
    <glyph glyph-name="i" unicode="i" horiz-adv-x="235" 
d="M166 591q-18 0 -29 12t-11 30q0 19 12 31t30 12t30 -11.5t12 -29.5q0 -19 -12.5 -31.5t-31.5 -12.5zM62 0l59 485h52l-60 -485h-51z" />
    <glyph glyph-name="j" unicode="j" horiz-adv-x="189" 
d="M133 591q-18 0 -29 12t-11 30q0 19 12 31t30 12t30 -11.5t12 -29.5q0 -19 -12.5 -31.5t-31.5 -12.5zM-52 -202q-36 0 -65 18l15 44q23 -16 47 -16q32 0 51 23t26 83l66 535h52l-67 -541q-8 -75 -38 -110.5t-87 -35.5z" />
    <glyph glyph-name="k" unicode="k" horiz-adv-x="489" 
d="M414 -4q-11 -2 -22 2q-21 4 -38.5 23.5t-26 37.5t-27.5 62l-35 81q-71 -59 -144 -93l-12 -109h-52l90 736h52l-69 -567l2 -1q101 56 177 143t103 174h54q-34 -127 -160 -248l43 -99q25 -58 40.5 -76.5t39.5 -22.5z" />
    <glyph glyph-name="l" unicode="l" horiz-adv-x="282" 
d="M168 -5q-53 0 -78 36t-17 104l74 601h52l-74 -599q-5 -47 10 -70t44 -23q33 0 71 26l11 -46q-43 -29 -93 -29z" />
    <glyph glyph-name="m" unicode="m" horiz-adv-x="830" 
d="M57 0l60 485h52l-16 -126l3 -1q34 61 84 96.5t100 35.5q115 0 119 -130l2 -1q34 61 83.5 96t102.5 35q144 0 118 -198l-40 -292h-52l39 289q20 153 -77 153q-59 0 -118 -69t-73 -172l-27 -201h-52l38 289q20 153 -75 153q-60 0 -121 -72t-73 -168l-24 -202h-53z" />
    <glyph glyph-name="n" unicode="n" horiz-adv-x="551" 
d="M57 0l60 485h52l-16 -132h2q37 63 92.5 100t113.5 37q147 0 121 -198l-39 -292h-52l38 289q20 152 -81 152q-69 0 -135.5 -70.5t-78.5 -169.5l-25 -201h-52z" />
    <glyph glyph-name="o" unicode="o" horiz-adv-x="546" 
d="M245 -5q-89 0 -143 53.5t-54 150.5q0 122 69.5 206.5t185.5 84.5q89 0 142 -52.5t53 -148.5q0 -126 -68.5 -210t-184.5 -84zM247 44q87 0 142.5 68t55.5 173q0 78 -39.5 117.5t-104.5 39.5q-87 0 -143.5 -68.5t-56.5 -170.5q0 -78 40.5 -118.5t105.5 -40.5z" />
    <glyph glyph-name="p" unicode="p" horiz-adv-x="562" 
d="M33 -198l84 683h52l-16 -132l2 -1q72 138 195 138q78 0 121.5 -55t43.5 -139q0 -124 -69.5 -212.5t-180.5 -88.5q-98 0 -147 55l-2 -1l-31 -247h-52zM256 44q92 0 149 73t57 176q0 66 -31 107.5t-90 41.5q-78 0 -137 -75t-72 -180l-10 -81q21 -33 59.5 -47.5t74.5 -14.5z
" />
    <glyph glyph-name="q" unicode="q" horiz-adv-x="552" 
d="M367 -198l41 331h-3q-33 -63 -82 -100.5t-107 -37.5q-80 0 -124 54.5t-44 139.5q0 124 69 212.5t179 88.5q95 0 146 -54l2 1l6 48h52l-83 -683h-52zM223 43q75 0 133.5 77t71.5 183l10 77q-24 32 -63.5 46.5t-76.5 14.5q-87 0 -141.5 -75t-54.5 -178q0 -65 31.5 -105
t89.5 -40z" />
    <glyph glyph-name="r" unicode="r" horiz-adv-x="372" 
d="M57 0l60 485h52l-15 -126h2q67 130 183 130q35 0 64 -11l-21 -49q-30 10 -57 10q-77 0 -128 -72t-64 -175l-23 -192h-53z" />
    <glyph glyph-name="s" unicode="s" horiz-adv-x="409" 
d="M180 -5q-100 0 -162 59l31 40q53 -51 133 -51q51 0 83.5 23t32.5 62q0 24 -15.5 42.5t-33.5 28t-52 24.5q-3 1 -5 2t-4.5 2t-4.5 2q-55 24 -86 52.5t-31 76.5q0 59 45.5 95.5t110.5 36.5q94 0 152 -58l-37 -38q-47 50 -119 50q-41 0 -69.5 -22.5t-28.5 -58.5
q0 -31 24 -51.5t69 -40.5q76 -34 99 -54q39 -34 40 -83q0 -66 -48.5 -102.5t-123.5 -36.5z" />
    <glyph glyph-name="t" unicode="t" horiz-adv-x="374" 
d="M192 -5q-115 0 -98 138l37 306h-74l5 46h75l21 167l53 10l-22 -177h168l-6 -46h-167l-38 -302q-10 -92 56 -92q54 0 101 43l15 -43q-51 -50 -126 -50z" />
    <glyph glyph-name="u" unicode="u" horiz-adv-x="534" 
d="M197 -5q-156 0 -129 196l40 294h52l-39 -290q-11 -84 12.5 -117.5t76.5 -33.5q62 0 122.5 66.5t72.5 157.5l26 217h53l-60 -485h-52l16 130h-2q-32 -61 -82.5 -98t-106.5 -37z" />
    <glyph glyph-name="v" unicode="v" horiz-adv-x="490" 
d="M194 -5q-76 0 -107 50.5t-18 159.5l35 280h53l-35 -277q-11 -91 9 -127.5t67 -36.5q58 0 113.5 59.5t79.5 158.5q24 108 4 223h54q19 -125 -7 -238q-30 -124 -101 -188t-147 -64z" />
    <glyph glyph-name="w" unicode="w" horiz-adv-x="779" 
d="M190 -5q-149 0 -122 200l38 290h52l-36 -286q-21 -155 81 -155q50 0 104.5 64.5t67.5 163.5l26 213h52l-35 -283q-11 -88 9.5 -123t64.5 -35q54 0 110 60t78 158q23 108 4 223h54q20 -128 -7 -238q-30 -124 -100 -188t-143 -64q-58 0 -89.5 34.5t-32.5 101.5h-2
q-30 -60 -80.5 -98t-93.5 -38z" />
    <glyph glyph-name="x" unicode="x" horiz-adv-x="452" 
d="M3 0l192 244l-132 241h61l105 -199h4l153 199h65l-193 -243l133 -242h-61l-107 200h-2l-157 -200h-61z" />
    <glyph glyph-name="y" unicode="y" horiz-adv-x="531" 
d="M430 485h52l-51 -421q-10 -79 -33.5 -133t-58.5 -82t-72 -39.5t-83 -11.5q-88 0 -162 40l24 46q66 -38 140 -38q78 0 128.5 47.5t65.5 174.5l7 62l-2 1q-33 -62 -84 -99t-108 -37q-155 0 -128 196l40 294h52l-38 -290q-11 -84 12 -117t76 -34q65 0 126 69.5t72 163.5z
" />
    <glyph glyph-name="z" unicode="z" horiz-adv-x="431" 
d="M355 -24q-54 16 -125 20t-223 4l5 41l326 397v1h-265l6 46h335l-4 -39l-327 -398v-2q210 0 287 -24z" />
    <glyph glyph-name="braceleft" unicode="{" horiz-adv-x="305" 
d="M162 -142q-40 0 -63.5 27.5t-17.5 73.5l29 232q1 19 1 34.5t-15 26.5t-47 13l4 44q25 2 41 9t23.5 19t10.5 22t5 26l30 242q5 43 33 71.5t71 28.5h40l-5 -40h-24q-28 0 -47.5 -20t-23.5 -51l-29 -235q-5 -43 -18.5 -64t-45.5 -29v-2q30 -8 38 -29t3 -67l-26 -212
q-5 -43 7 -62t43 -19h26l-5 -39h-38z" />
    <glyph glyph-name="bar" unicode="|" horiz-adv-x="293" 
d="M79 -115l105 852h47l-105 -852h-47z" />
    <glyph glyph-name="braceright" unicode="}" horiz-adv-x="306" 
d="M10 -142l6 39h24q32 0 49.5 20t22.5 64l26 212q5 46 18.5 66t46.5 27v2q-30 8 -38.5 30.5t-2.5 65.5l29 234q4 31 -10 50t-42 19h-26l4 40h40q42 0 64 -29.5t17 -73.5l-30 -241q-2 -19 -2 -34t15 -26t47 -14l-4 -44q-25 -2 -41 -8.5t-24 -18.5t-10.5 -22t-4.5 -27
l-28 -232q-6 -46 -35 -72.5t-69 -26.5h-42z" />
    <glyph glyph-name="asciitilde" unicode="~" horiz-adv-x="526" 
d="M352 221q-37 0 -89 33q-45 28 -74 28q-47 0 -80 -57l-38 17q44 91 114 91q38 0 85 -29q52 -33 79 -33q49 0 75 58l39 -16q-20 -44 -49.5 -68t-61.5 -24z" />
    <glyph glyph-name="uni00A0" unicode="&#xa0;" horiz-adv-x="225" 
 />
    <glyph glyph-name="exclamdown" unicode="&#xa1;" horiz-adv-x="228" 
d="M123 490q19 0 30.5 -12t11.5 -30t-12 -30.5t-31 -12.5q-18 0 -30 12t-12 30t12.5 30.5t30.5 12.5zM127 290l-57 -541h-58l76 541h39z" />
    <glyph glyph-name="cent" unicode="&#xa2;" horiz-adv-x="495" 
d="M251 99q94 0 153 68l40 -30q-65 -75 -161 -85l-13 -110h-39l13 108q-76 2 -128 55.5t-52 143.5q0 118 66 202.5t174 91.5l13 116h39l-14 -116q94 -9 141 -77l-42 -31q-41 61 -120 61q-91 0 -147 -71t-56 -174q0 -68 38 -110t95 -42z" />
    <glyph glyph-name="sterling" unicode="&#xa3;" horiz-adv-x="512" 
d="M21 0l7 52h75l35 283h-60l6 43h60l11 92q15 116 69 168.5t127 52.5q106 0 153 -99l-38 -36q-34 81 -114 81q-120 0 -141 -172l-12 -87h153l-6 -43h-151l-36 -283h302l-6 -52h-434z" />
    <glyph glyph-name="currency" unicode="&#xa4;" horiz-adv-x="461" 
d="M417 410q0 -83 -55 -143l59 -74l-30 -28l-59 76q-48 -35 -109 -35q-62 0 -101 34l-75 -74l-25 28l76 75q-22 36 -22 85q0 88 52 148l-59 75l31 28l57 -74q49 38 111 38q60 0 100 -37l75 74l25 -28l-76 -75q25 -39 25 -93zM118 359q0 -52 29.5 -82t79.5 -30q62 0 105 46.5
t43 112.5q0 55 -30.5 88t-79.5 33q-62 0 -104.5 -49t-42.5 -119z" />
    <glyph glyph-name="yen" unicode="&#xa5;" horiz-adv-x="499" 
d="M538 687l-221 -341h131l-5 -40h-152l-6 -9l-9 -75h156l-5 -40h-156l-23 -182h-56l23 182h-161l6 40h160l9 75l-4 9h-155l5 40h135l-136 341h64l125 -332h2l208 332h65z" />
    <glyph glyph-name="brokenbar" unicode="&#xa6;" horiz-adv-x="294" 
d="M210 565l-42 -347l-20 -160h-48l19 156l43 351h48z" />
    <glyph glyph-name="section" unicode="&#xa7;" horiz-adv-x="494" 
d="M285 414q83 -37 107 -56q42 -36 42 -89q0 -102 -105 -146q60 -40 60 -105q0 -78 -52 -124t-136 -46q-119 0 -177 90l36 37q21 -38 59.5 -57t81.5 -19q59 0 95 30t36 84q0 21 -7.5 36.5t-27.5 30t-34.5 22.5t-49.5 24q-32 15 -46 22t-38 22t-34 27.5t-19 33t-9 44.5
q0 48 28 85.5t75 56.5q-54 39 -54 102q0 73 50.5 119t124.5 46q47 0 91 -18t70 -48l-35 -38q-47 53 -124 53q-51 0 -85.5 -30t-34.5 -80q0 -27 16.5 -47.5t36 -31.5t59.5 -30zM286 147q94 32 94 116q0 36 -24.5 55.5t-85.5 47.5q-6 3 -9 4q-20 8 -44 20q-43 -10 -69 -40.5
t-26 -69.5q0 -20 7 -35t27 -29t34 -21.5t50 -24.5z" />
    <glyph glyph-name="dieresis" unicode="&#xa8;" horiz-adv-x="466" 
d="M202 576q-18 0 -29.5 12t-11.5 30q0 19 12 31t30 12q19 0 31 -11.5t12 -29.5q0 -19 -12.5 -31.5t-31.5 -12.5zM354 576q-18 0 -29.5 12t-11.5 30q0 19 12 31t31 12q18 0 30 -11.5t12 -29.5q0 -19 -12.5 -31.5t-31.5 -12.5z" />
    <glyph glyph-name="copyright" unicode="&#xa9;" horiz-adv-x="692" 
d="M344 20q-123 0 -209 88t-86 210t86.5 210t209.5 88t208.5 -87.5t85.5 -210.5q0 -122 -86 -210t-209 -88zM344 61q106 0 180 75.5t74 181.5t-73.5 181.5t-179.5 75.5t-180.5 -76t-74.5 -181q0 -106 73.5 -181.5t180.5 -75.5zM352 154q-69 0 -115 42.5t-46 118.5
q0 72 42.5 118.5t118.5 46.5t126 -61l-29 -24q-40 48 -97 48t-89.5 -35t-32.5 -93t34 -91t88 -33q61 0 97 48l29 -25q-48 -60 -126 -60z" />
    <glyph glyph-name="ordfeminine" unicode="&#xaa;" horiz-adv-x="373" 
d="M183 394q-46 0 -74.5 31t-28.5 88q0 73 43 125t112 52q54 0 86 -30h2l4 27h40l-36 -290h-40l8 68h-2q-44 -71 -114 -71zM189 434q42 0 78.5 37.5t44.5 97.5l6 47q-8 15 -30.5 24.5t-47.5 9.5q-53 0 -85.5 -39t-32.5 -97q0 -38 18 -59t49 -21z" />
    <glyph glyph-name="guillemotleft" unicode="&#xab;" horiz-adv-x="414" 
d="M133 20l-89 225l144 225h51l-142 -225l87 -225h-51zM285 20l-89 225l144 225h51l-142 -225l86 -225h-50z" />
    <glyph glyph-name="logicalnot" unicode="&#xac;" horiz-adv-x="537" 
d="M411 175l19 156h-350l6 48h398l-24 -204h-49z" />
    <glyph glyph-name="registered" unicode="&#xae;" horiz-adv-x="692" 
d="M345 616q123 0 208.5 -87.5t85.5 -210.5q0 -122 -86 -210t-209 -88t-209 88t-86 210t86.5 210t209.5 88zM344 61q106 0 180 75.5t74 181.5t-73.5 181.5t-179.5 75.5t-180.5 -76t-74.5 -181q0 -106 73.5 -181.5t180.5 -75.5zM460 385q0 -80 -77 -95l92 -132h-45l-90 129
h-58v-129h-37v324h111q53 0 78.5 -26.5t25.5 -70.5zM283 447v-126h64q75 0 75 64q0 29 -18 45.5t-50 16.5h-71z" />
    <glyph glyph-name="macron" unicode="&#xaf;" horiz-adv-x="429" 
d="M132 593l6 46h251l-6 -46h-251z" />
    <glyph glyph-name="degree" unicode="&#xb0;" horiz-adv-x="382" 
d="M215 449q-51 0 -80.5 30t-29.5 79q0 65 41 111t102 46q49 0 80 -31.5t31 -84.5q0 -61 -40.5 -105.5t-103.5 -44.5zM218 489q43 0 72 31.5t29 76.5q0 35 -20 56.5t-54 21.5q-43 0 -71.5 -32.5t-28.5 -81.5q0 -34 19.5 -53t53.5 -19z" />
    <glyph glyph-name="plusminus" unicode="&#xb1;" horiz-adv-x="544" 
d="M244 151l25 207h-185l6 49h185l26 208h49l-25 -208h184l-7 -49h-184l-25 -207h-49zM40 -1l6 49h418l-6 -49h-418z" />
    <glyph glyph-name="uni00B2" unicode="&#xb2;" horiz-adv-x="311" 
d="M51 436l3 34l144 136q87 81 87 139q0 28 -17.5 45.5t-53.5 17.5q-47 0 -99 -46l-25 34q61 56 130 56q54 0 83 -26.5t29 -73.5q0 -80 -96 -167l-113 -105v-2h182l-5 -42h-249z" />
    <glyph glyph-name="uni00B3" unicode="&#xb3;" horiz-adv-x="314" 
d="M176 432q-79 0 -122 45l26 38q38 -40 95 -40q44 0 72 24.5t28 64.5q0 31 -19 48.5t-55 17.5h-40l5 38h42q37 0 60 23t23 58q0 60 -70 60q-53 0 -98 -40l-23 33q55 50 129 50q50 0 78.5 -23.5t28.5 -68.5q0 -38 -19 -67t-52 -43v-1q57 -21 57 -89q0 -57 -40.5 -92.5
t-105.5 -35.5z" />
    <glyph glyph-name="acute" unicode="&#xb4;" horiz-adv-x="466" 
d="M201 545l125 138h62l-129 -138h-58z" />
    <glyph glyph-name="uni00B5" unicode="&#xb5;" horiz-adv-x="548" 
d="M501 48l10 -41q-25 -12 -58 -12q-82 0 -75 107v5q-28 -54 -72 -83t-95 -29q-77 0 -101 70h-2q-2 -63 -8 -106l-19 -157h-52l84 683h52l-36 -293q-10 -77 17 -112.5t70 -35.5q64 0 115.5 54.5t63.5 152.5l30 234h52l-45 -358q-6 -44 1 -64t39 -20q9 0 29 5z" />
    <glyph glyph-name="paragraph" unicode="&#xb6;" horiz-adv-x="414" 
d="M225 -149l93 749h-54l-74 -600h-39l48 383q-51 1 -83.5 29t-32.5 77q0 63 42.5 107.5t113.5 44.5h121l-96 -790h-39z" />
    <glyph glyph-name="periodcentered" unicode="&#xb7;" horiz-adv-x="209" 
d="M112 199q-19 0 -30.5 12t-11.5 30t12 30.5t31 12.5q18 0 30 -12t12 -30t-12.5 -30.5t-30.5 -12.5z" />
    <glyph glyph-name="cedilla" unicode="&#xb8;" horiz-adv-x="313" 
d="M80 -184q-23 0 -42 4l3 34q15 -5 36 -5q30 0 48.5 13.5t18.5 39.5q0 35 -70 36l4 27l22 41h37l-24 -41l1 -1q70 -5 70 -61q0 -41 -29 -64t-75 -23z" />
    <glyph glyph-name="uni00B9" unicode="&#xb9;" horiz-adv-x="238" 
d="M205 847h36l-51 -411h-45l43 351l-85 -60l-20 36z" />
    <glyph glyph-name="ordmasculine" unicode="&#xba;" horiz-adv-x="357" 
d="M198 394q-54 0 -86 32t-32 90q0 71 42.5 122.5t110.5 51.5q53 0 85.5 -31t32.5 -88q0 -74 -41.5 -125.5t-111.5 -51.5zM200 434q46 0 76.5 38t30.5 96q0 41 -20.5 62t-55.5 21q-46 0 -77 -38.5t-31 -93.5q0 -39 21 -62t56 -23z" />
    <glyph glyph-name="guillemotright" unicode="&#xbb;" horiz-adv-x="414" 
d="M24 20l142 225l-87 225h51l89 -225l-144 -225h-51zM177 20l141 225l-86 225h50l90 -225l-145 -225h-50z" />
    <glyph glyph-name="onequarter" unicode="&#xbc;" horiz-adv-x="672" 
d="M494 721l44 -20l-366 -713l-43 19zM130 299l43 351l-85 -60l-20 36l122 84h36l-51 -411h-45zM581 127h58l-5 -41h-58l-11 -86h-46l11 86h-191l4 33l236 292h37zM541 125l27 216l-173 -216h146z" />
    <glyph glyph-name="onehalf" unicode="&#xbd;" horiz-adv-x="700" 
d="M494 721l44 -20l-366 -713l-43 19zM130 299l43 351l-85 -60l-20 36l122 84h36l-51 -411h-45zM459 44v-2h182l-5 -42h-249l3 34l144 136q87 81 87 139q0 28 -17.5 45.5t-53.5 17.5q-47 0 -99 -46l-25 34q61 56 130 56q54 0 83 -26.5t29 -73.5q0 -80 -96 -167z" />
    <glyph glyph-name="threequarters" unicode="&#xbe;" horiz-adv-x="733" 
d="M554 721l44 -20l-366 -713l-43 19zM307 423q0 -57 -40.5 -92.5t-105.5 -35.5q-79 0 -122 45l26 38q38 -40 95 -40q44 0 72 24.5t28 64.5q0 31 -19 48.5t-55 17.5h-40l5 38h42q37 0 60 23t23 58q0 60 -70 60q-53 0 -98 -40l-23 33q55 50 129 50q50 0 78.5 -23.5
t28.5 -68.5q0 -38 -19 -67t-52 -43v-1q57 -21 57 -89zM642 127h58l-5 -41h-58l-11 -86h-46l11 86h-191l4 33l236 292h37zM602 125l27 216l-173 -216h146z" />
    <glyph glyph-name="questiondown" unicode="&#xbf;" horiz-adv-x="379" 
d="M247 490q19 0 30.5 -12t11.5 -30t-12 -30.5t-31 -12.5q-18 0 -30 12t-12 30t12.5 30.5t30.5 12.5zM260 293l-7 -55q-1 -9 -3.5 -18.5t-5 -17t-8 -16.5t-8.5 -14.5t-10.5 -15.5l-10.5 -14t-13 -15t-13 -14t-14.5 -15t-14.5 -15q-46 -49 -68.5 -88t-22.5 -90q0 -52 28 -80
t75 -28q83 0 134 76l35 -36q-33 -45 -81.5 -69t-100.5 -24q-67 0 -108 42t-41 113q0 61 28 108t80 99l17 17t17 17.5t14.5 15.5t14 16l10.5 15t10 17t6.5 15.5t4.5 17.5l8 56h48z" />
    <glyph glyph-name="Agrave" unicode="&#xc0;" horiz-adv-x="610" 
d="M344 788l-98 128l62 -1l92 -127h-56zM1 0l330 710h60l159 -710h-58l-41 191h-304l-88 -191h-58zM169 242h272l-87 397h-2z" />
    <glyph glyph-name="Aacute" unicode="&#xc1;" horiz-adv-x="610" 
d="M349 788l123 127l61 1l-128 -128h-56zM1 0l330 710h60l159 -710h-58l-41 191h-304l-88 -191h-58zM169 242h272l-87 397h-2z" />
    <glyph glyph-name="Acircumflex" unicode="&#xc2;" horiz-adv-x="610" 
d="M238 788l126 118h52l90 -118h-54l-65 83h-3l-91 -83h-55zM1 0l330 710h60l159 -710h-58l-41 191h-304l-88 -191h-58zM169 242h272l-87 397h-2z" />
    <glyph glyph-name="Atilde" unicode="&#xc3;" horiz-adv-x="610" 
d="M450 788q-30 0 -75 38q-33 26 -51 26q-37 0 -63 -59l-36 17q37 84 95 84q33 0 69 -32q2 -2 9 -7.5t10 -7.5t9 -6.5t10 -6t9 -3t10 -1.5q38 0 62 60l35 -15q-17 -42 -42 -64.5t-51 -22.5zM1 0l330 710h60l159 -710h-58l-41 191h-304l-88 -191h-58zM169 242h272l-87 397h-2
z" />
    <glyph glyph-name="Adieresis" unicode="&#xc4;" horiz-adv-x="610" 
d="M304 810q-18 0 -29.5 12t-11.5 30q0 19 12 31t30 12q19 0 31 -11.5t12 -29.5q0 -19 -12.5 -31.5t-31.5 -12.5zM456 810q-18 0 -29.5 12t-11.5 30q0 19 12 31t31 12q18 0 30 -11.5t12 -29.5q0 -19 -12.5 -31.5t-31.5 -12.5zM1 0l330 710h60l159 -710h-58l-41 191h-304
l-88 -191h-58zM169 242h272l-87 397h-2z" />
    <glyph glyph-name="Aring" unicode="&#xc5;" horiz-adv-x="610" 
d="M379 779q-35 0 -58.5 23.5t-23.5 58.5q0 37 24 60.5t61 23.5q36 0 59.5 -23t23.5 -58q0 -37 -24.5 -61t-61.5 -24zM380 816q21 0 34.5 13.5t13.5 33.5t-13 33t-33 13t-33.5 -13.5t-13.5 -33.5t12.5 -33t32.5 -13zM1 0l330 710h60l159 -710h-58l-41 191h-304l-88 -191h-58
zM169 242h272l-87 397h-2z" />
    <glyph glyph-name="AE" unicode="&#xc6;" horiz-adv-x="864" 
d="M-23 0l440 710h441l-7 -52h-355l-34 -278h324l-6 -52h-324l-33 -276h367l-6 -52h-423l24 191h-227l-119 -191h-62zM187 241h204l50 408h-2z" />
    <glyph glyph-name="Ccedilla" unicode="&#xc7;" horiz-adv-x="678" 
d="M436 662q-130 0 -215.5 -109.5t-85.5 -254.5q0 -116 58.5 -182.5t161.5 -66.5q119 0 215 93l35 -42q-105 -105 -252 -105l-18 -30l1 -1q70 -5 70 -61q0 -41 -29 -64t-75 -23q-23 0 -42 4l3 34q15 -5 36 -5q30 0 48.5 13.5t18.5 39.5q0 35 -70 36l4 27l17 32
q-110 11 -175 89t-65 208q0 112 45 207.5t128.5 154.5t186.5 59q155 0 245 -139l-45 -37q-80 123 -201 123z" />
    <glyph glyph-name="Egrave" unicode="&#xc8;" horiz-adv-x="579" 
d="M399 790l-98 128l62 -1l92 -127h-56zM71 0l87 710h415l-7 -52h-360l-33 -278h328l-7 -52h-328l-34 -276h374l-7 -52h-428z" />
    <glyph glyph-name="Eacute" unicode="&#xc9;" horiz-adv-x="579" 
d="M308 790l123 127l61 1l-128 -128h-56zM71 0l87 710h415l-7 -52h-360l-33 -278h328l-7 -52h-328l-34 -276h374l-7 -52h-428z" />
    <glyph glyph-name="Ecircumflex" unicode="&#xca;" horiz-adv-x="579" 
d="M248 790l126 118h52l90 -118h-54l-65 83h-3l-91 -83h-55zM71 0l87 710h415l-7 -52h-360l-33 -278h328l-7 -52h-328l-34 -276h374l-7 -52h-428z" />
    <glyph glyph-name="Edieresis" unicode="&#xcb;" horiz-adv-x="579" 
d="M314 812q-18 0 -29.5 12t-11.5 30q0 19 12 31t30 12q19 0 31 -11.5t12 -29.5q0 -19 -12.5 -31.5t-31.5 -12.5zM466 812q-18 0 -29.5 12t-11.5 30q0 19 12 31t31 12q18 0 30 -11.5t12 -29.5q0 -19 -12.5 -31.5t-31.5 -12.5zM71 0l87 710h415l-7 -52h-360l-33 -278h328
l-7 -52h-328l-34 -276h374l-7 -52h-428z" />
    <glyph glyph-name="Igrave" unicode="&#xcc;" horiz-adv-x="268" 
d="M173 788l-98 128l62 -1l92 -127h-56zM76 0l87 710h57l-87 -710h-57z" />
    <glyph glyph-name="Iacute" unicode="&#xcd;" horiz-adv-x="261" 
d="M178 788l123 127l61 1l-128 -128h-56zM76 0l87 710h57l-87 -710h-57z" />
    <glyph glyph-name="Icircumflex" unicode="&#xce;" horiz-adv-x="268" 
d="M66 788l126 118h52l90 -118h-54l-65 83h-3l-91 -83h-55zM76 0l87 710h57l-87 -710h-57z" />
    <glyph glyph-name="Idieresis" unicode="&#xcf;" horiz-adv-x="268" 
d="M132 810q-18 0 -29.5 12t-11.5 30q0 19 12 31t30 12q19 0 31 -11.5t12 -29.5q0 -19 -12.5 -31.5t-31.5 -12.5zM284 810q-18 0 -29.5 12t-11.5 30q0 19 12 31t31 12q18 0 30 -11.5t12 -29.5q0 -19 -12.5 -31.5t-31.5 -12.5zM76 0l87 710h57l-87 -710h-57z" />
    <glyph glyph-name="Eth" unicode="&#xd0;" horiz-adv-x="683" 
d="M348 710q137 0 211 -77t74 -213q0 -186 -104 -303t-274 -117h-183l40 330h-78l8 51h77l40 329h189zM259 52q141 0 228.5 103t87.5 264q0 113 -59.5 176t-171.5 63h-136l-34 -277h173l-7 -51h-172l-34 -278h125z" />
    <glyph glyph-name="Ntilde" unicode="&#xd1;" horiz-adv-x="722" 
d="M511 788q-30 0 -75 38q-33 26 -51 26q-37 0 -63 -59l-36 17q37 84 95 84q33 0 69 -32q2 -2 9 -7.5t10 -7.5t9 -6.5t10 -6t9 -3t10 -1.5q38 0 62 60l35 -15q-17 -42 -42 -64.5t-51 -22.5zM71 0l87 710h53l335 -614l2 1l75 613h56l-87 -710h-54l-335 609h-2l-75 -609h-55z
" />
    <glyph glyph-name="Ograve" unicode="&#xd2;" horiz-adv-x="763" 
d="M447 788l-98 128l62 -1l92 -127h-56zM353 -5q-127 0 -203 79t-76 218q0 112 44.5 208t129 155.5t190.5 59.5q127 0 202.5 -78t75.5 -218q0 -114 -43 -210t-127 -155t-193 -59zM356 48q134 0 218 109t84 261q0 118 -59.5 181.5t-165.5 63.5q-131 0 -216 -111t-85 -259
q0 -116 60 -180.5t164 -64.5z" />
    <glyph glyph-name="Oacute" unicode="&#xd3;" horiz-adv-x="763" 
d="M431 788l123 127l61 1l-128 -128h-56zM353 -5q-127 0 -203 79t-76 218q0 112 44.5 208t129 155.5t190.5 59.5q127 0 202.5 -78t75.5 -218q0 -114 -43 -210t-127 -155t-193 -59zM356 48q134 0 218 109t84 261q0 118 -59.5 181.5t-165.5 63.5q-131 0 -216 -111t-85 -259
q0 -116 60 -180.5t164 -64.5z" />
    <glyph glyph-name="Ocircumflex" unicode="&#xd4;" horiz-adv-x="763" 
d="M332 788l126 118h52l90 -118h-54l-65 83h-3l-91 -83h-55zM353 -5q-127 0 -203 79t-76 218q0 112 44.5 208t129 155.5t190.5 59.5q127 0 202.5 -78t75.5 -218q0 -114 -43 -210t-127 -155t-193 -59zM356 48q134 0 218 109t84 261q0 118 -59.5 181.5t-165.5 63.5
q-131 0 -216 -111t-85 -259q0 -116 60 -180.5t164 -64.5z" />
    <glyph glyph-name="Otilde" unicode="&#xd5;" horiz-adv-x="763" 
d="M544 788q-30 0 -75 38q-33 26 -51 26q-37 0 -63 -59l-36 17q37 84 95 84q33 0 69 -32q2 -2 9 -7.5t10 -7.5t9 -6.5t10 -6t9 -3t10 -1.5q38 0 62 60l35 -15q-17 -42 -42 -64.5t-51 -22.5zM353 -5q-127 0 -203 79t-76 218q0 112 44.5 208t129 155.5t190.5 59.5
q127 0 202.5 -78t75.5 -218q0 -114 -43 -210t-127 -155t-193 -59zM356 48q134 0 218 109t84 261q0 118 -59.5 181.5t-165.5 63.5q-131 0 -216 -111t-85 -259q0 -116 60 -180.5t164 -64.5z" />
    <glyph glyph-name="Odieresis" unicode="&#xd6;" horiz-adv-x="763" 
d="M398 810q-18 0 -29.5 12t-11.5 30q0 19 12 31t30 12q19 0 31 -11.5t12 -29.5q0 -19 -12.5 -31.5t-31.5 -12.5zM550 810q-18 0 -29.5 12t-11.5 30q0 19 12 31t31 12q18 0 30 -11.5t12 -29.5q0 -19 -12.5 -31.5t-31.5 -12.5zM353 -5q-127 0 -203 79t-76 218q0 112 44.5 208
t129 155.5t190.5 59.5q127 0 202.5 -78t75.5 -218q0 -114 -43 -210t-127 -155t-193 -59zM356 48q134 0 218 109t84 261q0 118 -59.5 181.5t-165.5 63.5q-131 0 -216 -111t-85 -259q0 -116 60 -180.5t164 -64.5z" />
    <glyph glyph-name="multiply" unicode="&#xd7;" horiz-adv-x="474" 
d="M80 87l-32 33l159 156l-121 156l39 35l119 -156l158 156l32 -34l-158 -157l119 -156l-38 -33l-120 155z" />
    <glyph glyph-name="Oslash" unicode="&#xd8;" horiz-adv-x="765" 
d="M735 692l-73 -80q55 -75 55 -193q0 -114 -43 -210t-127 -155t-193 -59q-117 0 -191 68l-72 -79l-30 31l72 80q-58 77 -58 197q0 112 44.5 208t129 155.5t190.5 59.5q122 0 195 -71l70 77zM133 293q0 -93 40 -155l423 465q-60 60 -162 60q-131 0 -216 -111t-85 -259z
M659 418q0 91 -36 150l-422 -463q59 -57 156 -57q134 0 218 109t84 261z" />
    <glyph glyph-name="Ugrave" unicode="&#xd9;" horiz-adv-x="664" 
d="M375 785l-98 128l62 -1l92 -127h-56zM301 -5q-121 0 -171.5 79t-34.5 217l52 419h56l-52 -420q-14 -112 23.5 -176.5t128.5 -64.5q93 0 150.5 58t72.5 177l51 426h56l-52 -426q-35 -289 -280 -289z" />
    <glyph glyph-name="Uacute" unicode="&#xda;" horiz-adv-x="664" 
d="M353 788l123 127l61 1l-128 -128h-56zM301 -5q-121 0 -171.5 79t-34.5 217l52 419h56l-52 -420q-14 -112 23.5 -176.5t128.5 -64.5q93 0 150.5 58t72.5 177l51 426h56l-52 -426q-35 -289 -280 -289z" />
    <glyph glyph-name="Ucircumflex" unicode="&#xdb;" horiz-adv-x="664" 
d="M266 788l126 118h52l90 -118h-54l-65 83h-3l-91 -83h-55zM301 -5q-121 0 -171.5 79t-34.5 217l52 419h56l-52 -420q-14 -112 23.5 -176.5t128.5 -64.5q93 0 150.5 58t72.5 177l51 426h56l-52 -426q-35 -289 -280 -289z" />
    <glyph glyph-name="Udieresis" unicode="&#xdc;" horiz-adv-x="664" 
d="M332 810q-18 0 -29.5 12t-11.5 30q0 19 12 31t30 12q19 0 31 -11.5t12 -29.5q0 -19 -12.5 -31.5t-31.5 -12.5zM484 810q-18 0 -29.5 12t-11.5 30q0 19 12 31t31 12q18 0 30 -11.5t12 -29.5q0 -19 -12.5 -31.5t-31.5 -12.5zM301 -5q-121 0 -171.5 79t-34.5 217l52 419h56
l-52 -420q-14 -112 23.5 -176.5t128.5 -64.5q93 0 150.5 58t72.5 177l51 426h56l-52 -426q-35 -289 -280 -289z" />
    <glyph glyph-name="Yacute" unicode="&#xdd;" horiz-adv-x="534" 
d="M296 788l123 127l61 1l-128 -128h-56zM209 0l39 320l-171 390h61l143 -333h2l226 333h65l-270 -390l-39 -320h-56z" />
    <glyph glyph-name="Thorn" unicode="&#xde;" horiz-adv-x="587" 
d="M71 0l87 710h55l-18 -148h179q90 0 136 -45.5t46 -128.5q0 -112 -66.5 -180.5t-184.5 -68.5h-162l-17 -139h-55zM150 191h161q87 0 137 53.5t50 143.5q0 62 -36.5 92.5t-97.5 30.5h-175z" />
    <glyph glyph-name="germandbls" unicode="&#xdf;" horiz-adv-x="587" 
d="M384 -5q-100 0 -164 59l31 40q53 -51 132 -51q52 0 85 24.5t33 64.5q0 33 -23.5 54.5t-78.5 50.5q-42 23 -63 37.5t-38 40.5t-16 58q1 19 8 34.5t22.5 30.5t25.5 23t34 24t31 21q69 49 69 102q0 38 -34 61t-95 23t-109 -35t-58 -113l-66 -544h-53l68 552q11 93 72.5 141
t143.5 48q86 0 135 -35.5t49 -95.5q0 -44 -24 -75.5t-69 -61.5q-7 -5 -22.5 -15t-23 -15t-19 -14t-16.5 -16t-10 -16.5t-5 -19.5q-3 -29 17.5 -48.5t69.5 -46.5q36 -20 52.5 -30t39 -29t31 -40t8.5 -48q0 -67 -48.5 -103.5t-121.5 -36.5z" />
    <glyph glyph-name="agrave" unicode="&#xe0;" horiz-adv-x="550" 
d="M313 560l-96 138h61l91 -138h-56zM215 -5q-79 0 -123 55t-44 139q0 124 69 212.5t179 88.5q98 0 146 -56l2 1l6 50h52l-59 -485h-52l16 132h-2q-34 -63 -83 -100t-107 -37zM223 43q75 0 133 76.5t72 183.5l10 77q-24 32 -64.5 47t-76.5 15q-87 0 -141.5 -75.5
t-54.5 -178.5q0 -65 32 -105t90 -40z" />
    <glyph glyph-name="aacute" unicode="&#xe1;" horiz-adv-x="550" 
d="M280 560l125 138h62l-129 -138h-58zM215 -5q-79 0 -123 55t-44 139q0 124 69 212.5t179 88.5q98 0 146 -56l2 1l6 50h52l-59 -485h-52l16 132h-2q-34 -63 -83 -100t-107 -37zM223 43q75 0 133 76.5t72 183.5l10 77q-24 32 -64.5 47t-76.5 15q-87 0 -141.5 -75.5
t-54.5 -178.5q0 -65 32 -105t90 -40z" />
    <glyph glyph-name="acircumflex" unicode="&#xe2;" horiz-adv-x="550" 
d="M206 558l123 140h51l93 -140h-55l-64 104h-1l-91 -104h-56zM215 -5q-79 0 -123 55t-44 139q0 124 69 212.5t179 88.5q98 0 146 -56l2 1l6 50h52l-59 -485h-52l16 132h-2q-34 -63 -83 -100t-107 -37zM223 43q75 0 133 76.5t72 183.5l10 77q-24 32 -64.5 47t-76.5 15
q-87 0 -141.5 -75.5t-54.5 -178.5q0 -65 32 -105t90 -40z" />
    <glyph glyph-name="atilde" unicode="&#xe3;" horiz-adv-x="550" 
d="M414 572q-31 0 -75 39q-33 25 -50 25q-38 0 -64 -59l-36 17q36 87 96 87q30 0 68 -32t57 -32q38 0 62 60l35 -15q-17 -44 -42 -67t-51 -23zM215 -5q-79 0 -123 55t-44 139q0 124 69 212.5t179 88.5q98 0 146 -56l2 1l6 50h52l-59 -485h-52l16 132h-2q-34 -63 -83 -100
t-107 -37zM223 43q75 0 133 76.5t72 183.5l10 77q-24 32 -64.5 47t-76.5 15q-87 0 -141.5 -75.5t-54.5 -178.5q0 -65 32 -105t90 -40z" />
    <glyph glyph-name="adieresis" unicode="&#xe4;" horiz-adv-x="550" 
d="M271 591q-18 0 -29.5 12t-11.5 30q0 19 12 31t30 12q19 0 31 -11.5t12 -29.5q0 -19 -12.5 -31.5t-31.5 -12.5zM423 591q-18 0 -29.5 12t-11.5 30q0 19 12 31t31 12q18 0 30 -11.5t12 -29.5q0 -19 -12.5 -31.5t-31.5 -12.5zM215 -5q-79 0 -123 55t-44 139q0 124 69 212.5
t179 88.5q98 0 146 -56l2 1l6 50h52l-59 -485h-52l16 132h-2q-34 -63 -83 -100t-107 -37zM223 43q75 0 133 76.5t72 183.5l10 77q-24 32 -64.5 47t-76.5 15q-87 0 -141.5 -75.5t-54.5 -178.5q0 -65 32 -105t90 -40z" />
    <glyph glyph-name="aring" unicode="&#xe5;" horiz-adv-x="550" 
d="M345 553q-35 0 -58.5 23.5t-23.5 58.5q0 37 24 60.5t61 23.5q36 0 59.5 -23t23.5 -58q0 -37 -24.5 -61t-61.5 -24zM346 590q21 0 34.5 13.5t13.5 33.5t-13 33t-33 13t-33.5 -13.5t-13.5 -33.5t12.5 -33t32.5 -13zM215 -5q-79 0 -123 55t-44 139q0 124 69 212.5t179 88.5
q98 0 146 -56l2 1l6 50h52l-59 -485h-52l16 132h-2q-34 -63 -83 -100t-107 -37zM223 43q75 0 133 76.5t72 183.5l10 77q-24 32 -64.5 47t-76.5 15q-87 0 -141.5 -75.5t-54.5 -178.5q0 -65 32 -105t90 -40z" />
    <glyph glyph-name="ae" unicode="&#xe6;" horiz-adv-x="693" 
d="M482 45q80 0 141 65l36 -36q-73 -78 -177 -78q-69 0 -112.5 35.5t-56.5 101.5q-24 -64 -64.5 -101t-89.5 -37q-59 0 -95 49.5t-36 130.5q0 123 73 217t192 94q73 0 122 -36q59 40 133 40q61 0 96.5 -30t35.5 -81q0 -81 -94 -130.5t-236 -59.5q1 -68 37 -106t95 -38z
M628 377q0 34 -24.5 49t-58.5 15q-78 0 -130.5 -58.5t-62.5 -150.5q118 10 197 48t79 97zM165 43q45 0 80 51t55 124q11 125 79 199q-35 20 -85 20q-67 0 -117 -42t-73 -101t-23 -123q0 -60 24 -94t60 -34z" />
    <glyph glyph-name="ccedilla" unicode="&#xe7;" horiz-adv-x="486" 
d="M300 442q-88 0 -143 -69t-55 -164q0 -78 40.5 -121.5t106.5 -43.5q79 0 141 65l36 -36q-72 -76 -178 -78l-18 -30l1 -1q70 -5 70 -61q0 -41 -29 -64t-75 -23q-23 0 -42 4l3 34q15 -5 36 -5q30 0 48.5 13.5t18.5 39.5q0 35 -70 36l4 27l17 32q-75 9 -119 62.5t-44 145.5
q0 117 69.5 201t182.5 84q114 0 167 -76l-41 -37q-40 65 -127 65z" />
    <glyph glyph-name="egrave" unicode="&#xe8;" horiz-adv-x="474" 
d="M353 560h-56l-96 138h61zM248 45q80 0 142 65l36 -36q-75 -78 -181 -78q-89 0 -143 53.5t-54 155.5q0 117 70.5 201t182.5 84q60 0 104.5 -28t44.5 -88q0 -160 -349 -184q4 -68 44.5 -106.5t102.5 -38.5zM301 442q-78 0 -135 -58.5t-65 -149.5q295 22 295 135
q0 39 -28.5 56t-66.5 17z" />
    <glyph glyph-name="eacute" unicode="&#xe9;" horiz-adv-x="474" 
d="M460 698l-129 -138h-58l125 138h62zM450 374q0 -160 -349 -184q4 -68 44.5 -106.5t102.5 -38.5q80 0 142 65l36 -36q-75 -78 -181 -78q-89 0 -143 53.5t-54 155.5q0 117 70.5 201t182.5 84q60 0 104.5 -28t44.5 -88zM101 234q295 22 295 135q0 39 -28.5 56t-66.5 17
q-78 0 -135 -58.5t-65 -149.5z" />
    <glyph glyph-name="ecircumflex" unicode="&#xea;" horiz-adv-x="474" 
d="M315 662l-91 -104h-56l123 140h51l93 -140h-55l-64 104h-1zM248 45q80 0 142 65l36 -36q-75 -78 -181 -78q-89 0 -143 53.5t-54 155.5q0 117 70.5 201t182.5 84q60 0 104.5 -28t44.5 -88q0 -160 -349 -184q4 -68 44.5 -106.5t102.5 -38.5zM301 442q-78 0 -135 -58.5
t-65 -149.5q295 22 295 135q0 39 -28.5 56t-66.5 17z" />
    <glyph glyph-name="edieresis" unicode="&#xeb;" horiz-adv-x="474" 
d="M233 591q-18 0 -29.5 12t-11.5 30q0 19 12 31t30 12q19 0 31 -11.5t12 -29.5q0 -19 -12.5 -31.5t-31.5 -12.5zM385 591q-18 0 -29.5 12t-11.5 30q0 19 12 31t31 12q18 0 30 -11.5t12 -29.5q0 -19 -12.5 -31.5t-31.5 -12.5zM248 45q80 0 142 65l36 -36q-75 -78 -181 -78
q-89 0 -143 53.5t-54 155.5q0 117 70.5 201t182.5 84q60 0 104.5 -28t44.5 -88q0 -160 -349 -184q4 -68 44.5 -106.5t102.5 -38.5zM301 442q-78 0 -135 -58.5t-65 -149.5q295 22 295 135q0 39 -28.5 56t-66.5 17z" />
    <glyph glyph-name="igrave" unicode="&#xec;" horiz-adv-x="236" 
d="M127 563l-64 138h60l60 -138h-56zM62 0l59 485h52l-60 -485h-51z" />
    <glyph glyph-name="iacute" unicode="&#xed;" horiz-adv-x="223" 
d="M131 560l125 138h62l-129 -138h-58zM62 0l59 485h52l-60 -485h-51z" />
    <glyph glyph-name="icircumflex" unicode="&#xee;" horiz-adv-x="235" 
d="M24 558l123 140h51l93 -140h-55l-64 104h-1l-91 -104h-56zM62 0l59 485h52l-60 -485h-51z" />
    <glyph glyph-name="idieresis" unicode="&#xef;" horiz-adv-x="235" 
d="M90 591q-17 0 -28.5 12t-11.5 30q0 19 12 31t30 12q17 0 29 -11.5t12 -29.5q0 -19 -12.5 -31.5t-30.5 -12.5zM239 591q-17 0 -29 12t-12 30q0 19 12.5 31t30.5 12q17 0 28.5 -11.5t11.5 -29.5q0 -19 -12.5 -31.5t-29.5 -12.5zM62 0l59 485h52l-60 -485h-51z" />
    <glyph glyph-name="eth" unicode="&#xf0;" horiz-adv-x="546" 
d="M446 545q56 -101 56 -230q-1 -136 -69 -227.5t-188 -91.5q-90 0 -144 54t-54 146q0 119 71 203t179 84q84 0 141 -54q-12 51 -35 94q-25 45 -60 82l-65 -71l-29 26l65 72q-46 40 -110 68l23 39q65 -25 120 -71l75 83l31 -27l-77 -83q43 -44 70 -96zM245 45q66 0 113.5 40
t69.5 102t21 136q0 17 -2 47q-52 64 -141 64q-90 0 -148 -68t-58 -166q0 -72 39.5 -113.5t105.5 -41.5z" />
    <glyph glyph-name="ntilde" unicode="&#xf1;" horiz-adv-x="551" 
d="M407 572q-31 0 -75 39q-33 25 -50 25q-38 0 -64 -59l-36 17q36 87 96 87q30 0 68 -32t57 -32q38 0 62 60l35 -15q-17 -44 -42 -67t-51 -23zM57 0l60 485h52l-16 -132h2q37 63 92.5 100t113.5 37q147 0 121 -198l-39 -292h-52l38 289q20 152 -81 152q-69 0 -135.5 -70.5
t-78.5 -169.5l-25 -201h-52z" />
    <glyph glyph-name="ograve" unicode="&#xf2;" horiz-adv-x="546" 
d="M304 560l-96 138h61l91 -138h-56zM245 -5q-89 0 -143 53.5t-54 150.5q0 122 69.5 206.5t185.5 84.5q89 0 142 -52.5t53 -148.5q0 -126 -68.5 -210t-184.5 -84zM247 44q87 0 142.5 68t55.5 173q0 78 -39.5 117.5t-104.5 39.5q-87 0 -143.5 -68.5t-56.5 -170.5
q0 -78 40.5 -118.5t105.5 -40.5z" />
    <glyph glyph-name="oacute" unicode="&#xf3;" horiz-adv-x="546" 
d="M289 560l125 138h62l-129 -138h-58zM245 -5q-89 0 -143 53.5t-54 150.5q0 122 69.5 206.5t185.5 84.5q89 0 142 -52.5t53 -148.5q0 -126 -68.5 -210t-184.5 -84zM247 44q87 0 142.5 68t55.5 173q0 78 -39.5 117.5t-104.5 39.5q-87 0 -143.5 -68.5t-56.5 -170.5
q0 -78 40.5 -118.5t105.5 -40.5z" />
    <glyph glyph-name="ocircumflex" unicode="&#xf4;" horiz-adv-x="546" 
d="M186 558l123 140h51l93 -140h-55l-64 104h-1l-91 -104h-56zM245 -5q-89 0 -143 53.5t-54 150.5q0 122 69.5 206.5t185.5 84.5q89 0 142 -52.5t53 -148.5q0 -126 -68.5 -210t-184.5 -84zM247 44q87 0 142.5 68t55.5 173q0 78 -39.5 117.5t-104.5 39.5q-87 0 -143.5 -68.5
t-56.5 -170.5q0 -78 40.5 -118.5t105.5 -40.5z" />
    <glyph glyph-name="otilde" unicode="&#xf5;" horiz-adv-x="546" 
d="M394 572q-31 0 -75 39q-33 25 -50 25q-38 0 -64 -59l-36 17q36 87 96 87q30 0 68 -32t57 -32q38 0 62 60l35 -15q-17 -44 -42 -67t-51 -23zM245 -5q-89 0 -143 53.5t-54 150.5q0 122 69.5 206.5t185.5 84.5q89 0 142 -52.5t53 -148.5q0 -126 -68.5 -210t-184.5 -84z
M247 44q87 0 142.5 68t55.5 173q0 78 -39.5 117.5t-104.5 39.5q-87 0 -143.5 -68.5t-56.5 -170.5q0 -78 40.5 -118.5t105.5 -40.5z" />
    <glyph glyph-name="odieresis" unicode="&#xf6;" horiz-adv-x="546" 
d="M251 591q-18 0 -29.5 12t-11.5 30q0 19 12 31t30 12q19 0 31 -11.5t12 -29.5q0 -19 -12.5 -31.5t-31.5 -12.5zM403 591q-18 0 -29.5 12t-11.5 30q0 19 12 31t31 12q18 0 30 -11.5t12 -29.5q0 -19 -12.5 -31.5t-31.5 -12.5zM245 -5q-89 0 -143 53.5t-54 150.5
q0 122 69.5 206.5t185.5 84.5q89 0 142 -52.5t53 -148.5q0 -126 -68.5 -210t-184.5 -84zM247 44q87 0 142.5 68t55.5 173q0 78 -39.5 117.5t-104.5 39.5q-87 0 -143.5 -68.5t-56.5 -170.5q0 -78 40.5 -118.5t105.5 -40.5z" />
    <glyph glyph-name="divide" unicode="&#xf7;" horiz-adv-x="555" 
d="M316 426q-18 0 -29 12t-11 30q0 19 12 31t30 12t30 -11.5t12 -29.5q0 -19 -12.5 -31.5t-31.5 -12.5zM88 252l6 49h418l-6 -49h-418zM272 37q-18 0 -29 12t-11 30q0 19 12 31t30 12t30 -11.5t12 -29.5q0 -19 -12.5 -31.5t-31.5 -12.5z" />
    <glyph glyph-name="oslash" unicode="&#xf8;" horiz-adv-x="547" 
d="M523 471l-55 -57q34 -49 34 -125q0 -126 -68.5 -210t-184.5 -84q-87 0 -140 50l-58 -60l-28 25l62 64q-33 52 -33 125q0 122 69.5 206.5t185.5 84.5q84 0 136 -46l52 54zM105 203q0 -51 19 -89l282 292q-39 36 -101 36q-87 0 -143.5 -68.5t-56.5 -170.5zM449 285
q0 53 -20 90l-282 -292q39 -39 104 -39q87 0 142.5 68t55.5 173z" />
    <glyph glyph-name="ugrave" unicode="&#xf9;" horiz-adv-x="534" 
d="M283 560l-96 138h61l91 -138h-56zM197 -5q-156 0 -129 196l40 294h52l-39 -290q-11 -84 12.5 -117.5t76.5 -33.5q62 0 122.5 66.5t72.5 157.5l26 217h53l-60 -485h-52l16 130h-2q-32 -61 -82.5 -98t-106.5 -37z" />
    <glyph glyph-name="uacute" unicode="&#xfa;" horiz-adv-x="534" 
d="M263 560l125 138h62l-129 -138h-58zM197 -5q-156 0 -129 196l40 294h52l-39 -290q-11 -84 12.5 -117.5t76.5 -33.5q62 0 122.5 66.5t72.5 157.5l26 217h53l-60 -485h-52l16 130h-2q-32 -61 -82.5 -98t-106.5 -37z" />
    <glyph glyph-name="ucircumflex" unicode="&#xfb;" horiz-adv-x="534" 
d="M169 558l123 140h51l93 -140h-55l-64 104h-1l-91 -104h-56zM197 -5q-156 0 -129 196l40 294h52l-39 -290q-11 -84 12.5 -117.5t76.5 -33.5q62 0 122.5 66.5t72.5 157.5l26 217h53l-60 -485h-52l16 130h-2q-32 -61 -82.5 -98t-106.5 -37z" />
    <glyph glyph-name="udieresis" unicode="&#xfc;" horiz-adv-x="534" 
d="M234 591q-18 0 -29.5 12t-11.5 30q0 19 12 31t30 12q19 0 31 -11.5t12 -29.5q0 -19 -12.5 -31.5t-31.5 -12.5zM386 591q-18 0 -29.5 12t-11.5 30q0 19 12 31t31 12q18 0 30 -11.5t12 -29.5q0 -19 -12.5 -31.5t-31.5 -12.5zM197 -5q-156 0 -129 196l40 294h52l-39 -290
q-11 -84 12.5 -117.5t76.5 -33.5q62 0 122.5 66.5t72.5 157.5l26 217h53l-60 -485h-52l16 130h-2q-32 -61 -82.5 -98t-106.5 -37z" />
    <glyph glyph-name="yacute" unicode="&#xfd;" horiz-adv-x="531" 
d="M453 698l-129 -138h-58l125 138h62zM430 485h52l-51 -421q-10 -79 -33.5 -133t-58.5 -82t-72 -39.5t-83 -11.5q-88 0 -162 40l24 46q66 -38 140 -38q78 0 128.5 47.5t65.5 174.5l7 62l-2 1q-33 -62 -84 -99t-108 -37q-155 0 -128 196l40 294h52l-38 -290q-11 -84 12 -117
t76 -34q65 0 126 69.5t72 163.5z" />
    <glyph glyph-name="thorn" unicode="&#xfe;" horiz-adv-x="562" 
d="M33 -198l114 934h52l-47 -383l3 -1q72 138 195 138q78 0 121.5 -55t43.5 -139q0 -124 -69.5 -212.5t-180.5 -88.5q-98 0 -147 55l-2 -1l-31 -247h-52zM256 44q92 0 149 73t57 176q0 66 -31 107.5t-90 41.5q-78 0 -137 -75t-72 -180l-10 -81q21 -33 59.5 -47.5t74.5 -14.5
z" />
    <glyph glyph-name="ydieresis" unicode="&#xff;" horiz-adv-x="531" 
d="M232 591q-18 0 -29.5 12t-11.5 30q0 19 12 31t30 12q19 0 31 -11.5t12 -29.5q0 -19 -12.5 -31.5t-31.5 -12.5zM384 591q-18 0 -29.5 12t-11.5 30q0 19 12 31t31 12q18 0 30 -11.5t12 -29.5q0 -19 -12.5 -31.5t-31.5 -12.5zM430 485h52l-51 -421q-10 -79 -33.5 -133
t-58.5 -82t-72 -39.5t-83 -11.5q-88 0 -162 40l24 46q66 -38 140 -38q78 0 128.5 47.5t65.5 174.5l7 62l-2 1q-33 -62 -84 -99t-108 -37q-155 0 -128 196l40 294h52l-38 -290q-11 -84 12 -117t76 -34q65 0 126 69.5t72 163.5z" />
    <glyph glyph-name="Amacron" unicode="&#x100;" horiz-adv-x="610" 
d="M255 822l6 45h251l-6 -45h-251zM1 0l330 710h60l159 -710h-58l-41 191h-304l-88 -191h-58zM169 242h272l-87 397h-2z" />
    <glyph glyph-name="amacron" unicode="&#x101;" horiz-adv-x="550" 
d="M220 608l6 46h251l-6 -46h-251zM215 -5q-79 0 -123 55t-44 139q0 124 69 212.5t179 88.5q98 0 146 -56l2 1l6 50h52l-59 -485h-52l16 132h-2q-34 -63 -83 -100t-107 -37zM223 43q75 0 133 76.5t72 183.5l10 77q-24 32 -64.5 47t-76.5 15q-87 0 -141.5 -75.5t-54.5 -178.5
q0 -65 32 -105t90 -40z" />
    <glyph glyph-name="Abreve" unicode="&#x102;" horiz-adv-x="610" 
d="M373 783q-55 0 -82.5 33t-22.5 91l43 -1q-3 -34 12 -56.5t51 -22.5q37 0 63 23.5t33 56.5l43 -1q-11 -55 -50 -89t-90 -34zM1 0l330 710h60l159 -710h-58l-41 191h-304l-88 -191h-58zM169 242h272l-87 397h-2z" />
    <glyph glyph-name="abreve" unicode="&#x103;" horiz-adv-x="550" 
d="M337 557q-55 0 -82 35t-23 99h43q-7 -90 64 -90q38 0 63.5 25t31.5 65h43q-11 -63 -49 -98.5t-91 -35.5zM215 -5q-79 0 -123 55t-44 139q0 124 69 212.5t179 88.5q98 0 146 -56l2 1l6 50h52l-59 -485h-52l16 132h-2q-34 -63 -83 -100t-107 -37zM223 43q75 0 133 76.5
t72 183.5l10 77q-24 32 -64.5 47t-76.5 15q-87 0 -141.5 -75.5t-54.5 -178.5q0 -65 32 -105t90 -40z" />
    <glyph glyph-name="Aogonek" unicode="&#x104;" horiz-adv-x="610" 
d="M550 -133l2 -38q-26 -12 -61 -12q-38 0 -58 18.5t-19 52.5q3 59 77 116l-40 187h-304l-88 -191h-58l330 710h60l159 -710h-3q-85 -48 -87 -104q-1 -18 9.5 -29t31.5 -11q27 0 49 11zM169 242h272l-87 397h-2z" />
    <glyph glyph-name="aogonek" unicode="&#x105;" horiz-adv-x="550" 
d="M395 -144q27 0 49 11l2 -38q-26 -12 -61 -12q-38 0 -58 18.5t-19 52.5q3 63 84 121l15 123h-2q-34 -63 -83 -100t-107 -37q-79 0 -123 55t-44 139q0 124 69 212.5t179 88.5q98 0 146 -56l2 1l6 50h52l-59 -485h-2q-85 -48 -87 -104q-1 -18 9.5 -29t31.5 -11zM223 43
q75 0 133 76.5t72 183.5l10 77q-24 32 -64.5 47t-76.5 15q-87 0 -141.5 -75.5t-54.5 -178.5q0 -65 32 -105t90 -40z" />
    <glyph glyph-name="Cacute" unicode="&#x106;" horiz-adv-x="678" 
d="M420 788l123 127l61 1l-128 -128h-56zM352 -5q-125 0 -200 79.5t-75 219.5q0 112 45 207.5t128.5 154.5t186.5 59q155 0 245 -139l-45 -37q-80 123 -201 123q-130 0 -215.5 -109.5t-85.5 -254.5q0 -116 58.5 -182.5t161.5 -66.5q119 0 215 93l35 -42q-105 -105 -253 -105
z" />
    <glyph glyph-name="cacute" unicode="&#x107;" horiz-adv-x="486" 
d="M283 560l125 138h62l-129 -138h-58zM245 -5q-88 0 -142 54t-54 156q0 117 69.5 201t182.5 84q114 0 167 -76l-41 -37q-40 65 -127 65q-88 0 -143 -69t-55 -164q0 -78 40.5 -121.5t106.5 -43.5q79 0 141 65l36 -36q-74 -78 -181 -78z" />
    <glyph glyph-name="Ccircumflex" unicode="&#x108;" horiz-adv-x="678" 
d="M332 788l126 118h52l90 -118h-54l-65 83h-3l-91 -83h-55zM352 -5q-125 0 -200 79.5t-75 219.5q0 112 45 207.5t128.5 154.5t186.5 59q155 0 245 -139l-45 -37q-80 123 -201 123q-130 0 -215.5 -109.5t-85.5 -254.5q0 -116 58.5 -182.5t161.5 -66.5q119 0 215 93l35 -42
q-105 -105 -253 -105z" />
    <glyph glyph-name="ccircumflex" unicode="&#x109;" horiz-adv-x="486" 
d="M187 558l123 140h51l93 -140h-55l-64 104h-1l-91 -104h-56zM245 -5q-88 0 -142 54t-54 156q0 117 69.5 201t182.5 84q114 0 167 -76l-41 -37q-40 65 -127 65q-88 0 -143 -69t-55 -164q0 -78 40.5 -121.5t106.5 -43.5q79 0 141 65l36 -36q-74 -78 -181 -78z" />
    <glyph glyph-name="Cdotaccent" unicode="&#x10a;" horiz-adv-x="678" 
d="M474 810q-18 0 -29 12t-11 30q0 19 12 31t30 12t30 -11.5t12 -29.5q0 -19 -12.5 -31.5t-31.5 -12.5zM352 -5q-125 0 -200 79.5t-75 219.5q0 112 45 207.5t128.5 154.5t186.5 59q155 0 245 -139l-45 -37q-80 123 -201 123q-130 0 -215.5 -109.5t-85.5 -254.5
q0 -116 58.5 -182.5t161.5 -66.5q119 0 215 93l35 -42q-105 -105 -253 -105z" />
    <glyph glyph-name="cdotaccent" unicode="&#x10b;" horiz-adv-x="486" 
d="M329 591q-18 0 -29 12t-11 30q0 19 12 31t30 12t30 -11.5t12 -29.5q0 -19 -12.5 -31.5t-31.5 -12.5zM245 -5q-88 0 -142 54t-54 156q0 117 69.5 201t182.5 84q114 0 167 -76l-41 -37q-40 65 -127 65q-88 0 -143 -69t-55 -164q0 -78 40.5 -121.5t106.5 -43.5q79 0 141 65
l36 -36q-74 -78 -181 -78z" />
    <glyph glyph-name="Ccaron" unicode="&#x10c;" horiz-adv-x="678" 
d="M441 788l-91 118h54l66 -83h2l91 83h55l-126 -118h-51zM352 -5q-125 0 -200 79.5t-75 219.5q0 112 45 207.5t128.5 154.5t186.5 59q155 0 245 -139l-45 -37q-80 123 -201 123q-130 0 -215.5 -109.5t-85.5 -254.5q0 -116 58.5 -182.5t161.5 -66.5q119 0 215 93l35 -42
q-105 -105 -253 -105z" />
    <glyph glyph-name="ccaron" unicode="&#x10d;" horiz-adv-x="486" 
d="M292 559l-88 134h52l65 -98h2l92 98h54l-126 -134h-51zM245 -5q-88 0 -142 54t-54 156q0 117 69.5 201t182.5 84q114 0 167 -76l-41 -37q-40 65 -127 65q-88 0 -143 -69t-55 -164q0 -78 40.5 -121.5t106.5 -43.5q79 0 141 65l36 -36q-74 -78 -181 -78z" />
    <glyph glyph-name="Dcaron" unicode="&#x10e;" horiz-adv-x="682" 
d="M382 788l-91 118h54l66 -83h2l91 83h55l-126 -118h-51zM71 0l87 710h189q137 0 211 -77t74 -213q0 -186 -104 -303t-274 -117h-183zM133 52h125q141 0 228.5 103t87.5 264q0 113 -59.5 176t-171.5 63h-136z" />
    <glyph glyph-name="dcaron" unicode="&#x10f;" horiz-adv-x="594" 
d="M589 592l45 171h55l-59 -171h-41zM216 -5q-80 0 -123.5 54.5t-43.5 139.5q0 124 69 212.5t178 88.5q98 0 149 -57l2 1l37 302h52l-90 -736h-52l16 133l-2 1q-73 -139 -192 -139zM223 43q77 0 135.5 76.5t72.5 182.5l9 78q-23 33 -63.5 47.5t-78.5 14.5
q-87 0 -141.5 -75.5t-54.5 -178.5q0 -65 31.5 -105t89.5 -40z" />
    <glyph glyph-name="Dcroat" unicode="&#x110;" horiz-adv-x="683" 
d="M348 710q137 0 211 -77t74 -213q0 -186 -104 -303t-274 -117h-183l40 330h-78l8 51h77l40 329h189zM259 52q141 0 228.5 103t87.5 264q0 113 -59.5 176t-171.5 63h-136l-34 -277h173l-7 -51h-172l-34 -278h125z" />
    <glyph glyph-name="dcroat" unicode="&#x111;" horiz-adv-x="543" 
d="M575 619l-5 -40h-53l-71 -579h-52l16 133l-2 1q-73 -139 -192 -139q-80 0 -123.5 54.5t-43.5 139.5q0 124 69 212.5t178 88.5q98 0 149 -57l2 1l18 145h-205l5 40h205l14 117h52l-14 -117h53zM431 302l9 78q-23 33 -63.5 47.5t-78.5 14.5q-87 0 -141.5 -75.5
t-54.5 -178.5q0 -65 31.5 -105t89.5 -40q77 0 135.5 76.5t72.5 182.5z" />
    <glyph glyph-name="Emacron" unicode="&#x112;" horiz-adv-x="579" 
d="M265 824l6 45h251l-6 -45h-251zM71 0l87 710h415l-7 -52h-360l-33 -278h328l-7 -52h-328l-34 -276h374l-7 -52h-428z" />
    <glyph glyph-name="emacron" unicode="&#x113;" horiz-adv-x="474" 
d="M439 654l-6 -46h-251l6 46h251zM248 45q80 0 142 65l36 -36q-75 -78 -181 -78q-89 0 -143 53.5t-54 155.5q0 117 70.5 201t182.5 84q60 0 104.5 -28t44.5 -88q0 -160 -349 -184q4 -68 44.5 -106.5t102.5 -38.5zM301 442q-78 0 -135 -58.5t-65 -149.5q295 22 295 135
q0 39 -28.5 56t-66.5 17z" />
    <glyph glyph-name="Ebreve" unicode="&#x114;" horiz-adv-x="579" 
d="M383 785q-55 0 -82.5 33t-22.5 91l43 -1q-3 -34 12 -56.5t51 -22.5q37 0 63 23.5t33 56.5l43 -1q-11 -55 -50 -89t-90 -34zM71 0l87 710h415l-7 -52h-360l-33 -278h328l-7 -52h-328l-34 -276h374l-7 -52h-428z" />
    <glyph glyph-name="ebreve" unicode="&#x115;" horiz-adv-x="474" 
d="M299 557q-55 0 -82 35t-23 99h43q-7 -90 64 -90q38 0 63.5 25t31.5 65h43q-11 -63 -49 -98.5t-91 -35.5zM248 45q80 0 142 65l36 -36q-75 -78 -181 -78q-89 0 -143 53.5t-54 155.5q0 117 70.5 201t182.5 84q60 0 104.5 -28t44.5 -88q0 -160 -349 -184q4 -68 44.5 -106.5
t102.5 -38.5zM301 442q-78 0 -135 -58.5t-65 -149.5q295 22 295 135q0 39 -28.5 56t-66.5 17z" />
    <glyph glyph-name="Edotaccent" unicode="&#x116;" horiz-adv-x="579" 
d="M390 812q-18 0 -29 12t-11 30q0 19 12 31t30 12t30 -11.5t12 -29.5q0 -19 -12.5 -31.5t-31.5 -12.5zM71 0l87 710h415l-7 -52h-360l-33 -278h328l-7 -52h-328l-34 -276h374l-7 -52h-428z" />
    <glyph glyph-name="edotaccent" unicode="&#x117;" horiz-adv-x="474" 
d="M310 591q-18 0 -29 12t-11 30q0 19 12 31t30 12t30 -11.5t12 -29.5q0 -19 -12.5 -31.5t-31.5 -12.5zM248 45q80 0 142 65l36 -36q-75 -78 -181 -78q-89 0 -143 53.5t-54 155.5q0 117 70.5 201t182.5 84q60 0 104.5 -28t44.5 -88q0 -160 -349 -184q4 -68 44.5 -106.5
t102.5 -38.5zM301 442q-78 0 -135 -58.5t-65 -149.5q295 22 295 135q0 39 -28.5 56t-66.5 17z" />
    <glyph glyph-name="Eogonek" unicode="&#x118;" horiz-adv-x="579" 
d="M566 658h-360l-33 -278h328l-7 -52h-328l-34 -276h374l-7 -52h-2q-85 -48 -87 -104q-1 -18 9.5 -29t31.5 -11q27 0 49 11l2 -38q-25 -12 -61 -12q-38 0 -58 18.5t-19 52.5q3 58 72 112h-365l87 710h415z" />
    <glyph glyph-name="eogonek" unicode="&#x119;" horiz-adv-x="474" 
d="M248 45q80 0 142 65l36 -36q-51 -54 -121 -71q-41 -18 -69.5 -49t-28.5 -60q0 -38 42 -38q27 0 47 11l3 -38q-25 -12 -62 -12q-76 0 -76 66q0 64 69 112l-1 1q-82 5 -131.5 58.5t-49.5 150.5q0 117 70.5 201t182.5 84q60 0 104.5 -28t44.5 -88q0 -160 -349 -184
q4 -68 44.5 -106.5t102.5 -38.5zM301 442q-78 0 -135 -58.5t-65 -149.5q295 22 295 135q0 39 -28.5 56t-66.5 17z" />
    <glyph glyph-name="Ecaron" unicode="&#x11a;" horiz-adv-x="579" 
d="M357 790l-91 118h54l66 -83h2l91 83h55l-126 -118h-51zM71 0l87 710h415l-7 -52h-360l-33 -278h328l-7 -52h-328l-34 -276h374l-7 -52h-428z" />
    <glyph glyph-name="ecaron" unicode="&#x11b;" horiz-adv-x="474" 
d="M324 559h-51l-88 134h52l65 -98h2l92 98h54zM450 374q0 -160 -349 -184q4 -68 44.5 -106.5t102.5 -38.5q80 0 142 65l36 -36q-75 -78 -181 -78q-89 0 -143 53.5t-54 155.5q0 117 70.5 201t182.5 84q60 0 104.5 -28t44.5 -88zM101 234q295 22 295 135q0 39 -28.5 56
t-66.5 17q-78 0 -135 -58.5t-65 -149.5z" />
    <glyph glyph-name="Gcircumflex" unicode="&#x11c;" horiz-adv-x="723" 
d="M320 788l126 118h52l90 -118h-54l-65 83h-3l-91 -83h-55zM363 -5q-133 0 -209.5 79t-76.5 220q0 112 45 207.5t128.5 154.5t186.5 59q151 0 239 -123l-45 -37q-77 107 -197 107q-129 0 -214 -110t-85 -254q0 -118 59.5 -184t169.5 -66q123 0 208 65l24 189h-208l6 52h264
l-33 -272q-49 -42 -119.5 -64.5t-142.5 -22.5z" />
    <glyph glyph-name="gcircumflex" unicode="&#x11d;" horiz-adv-x="552" 
d="M194 558l123 140h51l93 -140h-55l-64 104h-1l-91 -104h-56zM193 -202q-98 0 -169 40l24 46q63 -37 143 -37q43 0 74.5 9t60 32.5t47 68.5t26.5 112l10 79h-2q-34 -62 -84 -100t-109 -38q-78 0 -122 55t-44 140q0 113 69.5 199t178.5 86q97 0 147 -55l1 1l6 49h52
l-51 -420q-10 -79 -33.5 -133.5t-59.5 -82.5t-75 -39.5t-90 -11.5zM222 58q73 0 132.5 71.5t71.5 164.5l11 86q-24 32 -64 46.5t-75 14.5q-87 0 -142 -72.5t-55 -165.5q0 -65 32 -105t89 -40z" />
    <glyph glyph-name="Gbreve" unicode="&#x11e;" horiz-adv-x="723" 
d="M455 783q-55 0 -82.5 33t-22.5 91l43 -1q-3 -34 12 -56.5t51 -22.5q37 0 63 23.5t33 56.5l43 -1q-11 -55 -50 -89t-90 -34zM363 -5q-133 0 -209.5 79t-76.5 220q0 112 45 207.5t128.5 154.5t186.5 59q151 0 239 -123l-45 -37q-77 107 -197 107q-129 0 -214 -110t-85 -254
q0 -118 59.5 -184t169.5 -66q123 0 208 65l24 189h-208l6 52h264l-33 -272q-49 -42 -119.5 -64.5t-142.5 -22.5z" />
    <glyph glyph-name="gbreve" unicode="&#x11f;" horiz-adv-x="552" 
d="M325 557q-55 0 -82 35t-23 99h43q-7 -90 64 -90q38 0 63.5 25t31.5 65h43q-11 -63 -49 -98.5t-91 -35.5zM193 -202q-98 0 -169 40l24 46q63 -37 143 -37q43 0 74.5 9t60 32.5t47 68.5t26.5 112l10 79h-2q-34 -62 -84 -100t-109 -38q-78 0 -122 55t-44 140q0 113 69.5 199
t178.5 86q97 0 147 -55l1 1l6 49h52l-51 -420q-10 -79 -33.5 -133.5t-59.5 -82.5t-75 -39.5t-90 -11.5zM222 58q73 0 132.5 71.5t71.5 164.5l11 86q-24 32 -64 46.5t-75 14.5q-87 0 -142 -72.5t-55 -165.5q0 -65 32 -105t89 -40z" />
    <glyph glyph-name="Gdotaccent" unicode="&#x120;" horiz-adv-x="723" 
d="M462 810q-18 0 -29 12t-11 30q0 19 12 31t30 12t30 -11.5t12 -29.5q0 -19 -12.5 -31.5t-31.5 -12.5zM363 -5q-133 0 -209.5 79t-76.5 220q0 112 45 207.5t128.5 154.5t186.5 59q151 0 239 -123l-45 -37q-77 107 -197 107q-129 0 -214 -110t-85 -254q0 -118 59.5 -184
t169.5 -66q123 0 208 65l24 189h-208l6 52h264l-33 -272q-49 -42 -119.5 -64.5t-142.5 -22.5z" />
    <glyph glyph-name="gdotaccent" unicode="&#x121;" horiz-adv-x="552" 
d="M336 591q-18 0 -29 12t-11 30q0 19 12 31t30 12t30 -11.5t12 -29.5q0 -19 -12.5 -31.5t-31.5 -12.5zM193 -202q-98 0 -169 40l24 46q63 -37 143 -37q43 0 74.5 9t60 32.5t47 68.5t26.5 112l10 79h-2q-34 -62 -84 -100t-109 -38q-78 0 -122 55t-44 140q0 113 69.5 199
t178.5 86q97 0 147 -55l1 1l6 49h52l-51 -420q-10 -79 -33.5 -133.5t-59.5 -82.5t-75 -39.5t-90 -11.5zM222 58q73 0 132.5 71.5t71.5 164.5l11 86q-24 32 -64 46.5t-75 14.5q-87 0 -142 -72.5t-55 -165.5q0 -65 32 -105t89 -40z" />
    <glyph glyph-name="Gcommaaccent" unicode="&#x122;" horiz-adv-x="723" 
d="M363 -5q-133 0 -209.5 79t-76.5 220q0 112 45 207.5t128.5 154.5t186.5 59q151 0 239 -123l-45 -37q-77 107 -197 107q-129 0 -214 -110t-85 -254q0 -118 59.5 -184t169.5 -66q123 0 208 65l24 189h-208l6 52h264l-33 -272q-49 -42 -119.5 -64.5t-142.5 -22.5zM272 -206
l-9 34q36 6 52 28.5t16 69.5q0 12 -1 20h47q0 -1 0.5 -7.5t0.5 -14.5q0 -121 -106 -130z" />
    <glyph glyph-name="gcommaaccent" unicode="&#x123;" horiz-adv-x="552" 
d="M416 706l9 -34q-36 -6 -52 -28.5t-16 -69.5q0 -12 1 -20h-47q0 1 -0.5 7.5t-0.5 14.5q0 121 106 130zM193 -202q-98 0 -169 40l24 46q63 -37 143 -37q43 0 74.5 9t60 32.5t47 68.5t26.5 112l10 79h-2q-34 -62 -84 -100t-109 -38q-78 0 -122 55t-44 140q0 113 69.5 199
t178.5 86q97 0 147 -55l1 1l6 49h52l-51 -420q-10 -79 -33.5 -133.5t-59.5 -82.5t-75 -39.5t-90 -11.5zM222 58q73 0 132.5 71.5t71.5 164.5l11 86q-24 32 -64 46.5t-75 14.5q-87 0 -142 -72.5t-55 -165.5q0 -65 32 -105t89 -40z" />
    <glyph glyph-name="Hcircumflex" unicode="&#x124;" horiz-adv-x="681" 
d="M275 788l126 118h52l90 -118h-54l-65 83h-3l-91 -83h-55zM71 0l87 710h55l-43 -348h370l42 348h56l-86 -710h-56l38 310h-369l-39 -310h-55z" />
    <glyph glyph-name="hcircumflex" unicode="&#x125;" horiz-adv-x="551" 
d="M168 800l126 118h52l90 -118h-54l-65 83h-3l-91 -83h-55zM57 0l90 736h52l-47 -386l2 -1q36 65 92 103t115 38q147 0 121 -198l-39 -292h-52l38 289q20 153 -81 153q-70 0 -136 -72t-78 -169l-25 -201h-52z" />
    <glyph glyph-name="Hbar" unicode="&#x126;" horiz-adv-x="675" 
d="M673 576l-5 -42h-49l-65 -534h-56l38 310h-369l-39 -310h-55l65 534h-66l5 42h67l16 134h55l-17 -134h370l16 134h56l-16 -134h49zM542 362l21 172h-370l-21 -172h370z" />
    <glyph glyph-name="hbar" unicode="&#x127;" horiz-adv-x="551" 
d="M361 490q147 0 121 -198l-39 -292h-52l38 289q20 153 -81 153q-70 0 -136 -72t-78 -169l-25 -201h-52l71 579h-81l5 40h81l14 117h52l-14 -117h185l-5 -40h-185l-28 -229l2 -1q36 65 92 103t115 38z" />
    <glyph glyph-name="Itilde" unicode="&#x128;" horiz-adv-x="268" 
d="M278 788q-30 0 -75 38q-33 26 -51 26q-37 0 -63 -59l-36 17q37 84 95 84q33 0 69 -32q2 -2 9 -7.5t10 -7.5t9 -6.5t10 -6t9 -3t10 -1.5q38 0 62 60l35 -15q-17 -42 -42 -64.5t-51 -22.5zM76 0l87 710h57l-87 -710h-57z" />
    <glyph glyph-name="itilde" unicode="&#x129;" horiz-adv-x="235" 
d="M230 573q-29 0 -71 38q-29 25 -50 25q-37 0 -62 -58l-34 17q36 84 93 84q29 0 68 -31q2 -2 10 -9t11.5 -9.5t10 -7t12 -6t11.5 -1.5q35 0 60 60l33 -15q-17 -42 -41.5 -64.5t-50.5 -22.5zM62 0l59 485h52l-60 -485h-51z" />
    <glyph glyph-name="Imacron" unicode="&#x12a;" horiz-adv-x="268" 
d="M83 822l6 45h251l-6 -45h-251zM76 0l87 710h57l-87 -710h-57z" />
    <glyph glyph-name="imacron" unicode="&#x12b;" horiz-adv-x="235" 
d="M38 608l6 46h251l-6 -46h-251zM62 0l59 485h52l-60 -485h-51z" />
    <glyph glyph-name="Ibreve" unicode="&#x12c;" horiz-adv-x="268" 
d="M201 783q-55 0 -82.5 33t-22.5 91l43 -1q-3 -34 12 -56.5t51 -22.5q37 0 63 23.5t33 56.5l43 -1q-11 -55 -50 -89t-90 -34zM76 0l87 710h57l-87 -710h-57z" />
    <glyph glyph-name="ibreve" unicode="&#x12d;" horiz-adv-x="235" 
d="M160 558q-47 0 -74.5 35.5t-23.5 97.5h42q-4 -42 10 -67t47 -25q35 0 55.5 25.5t25.5 66.5h43q-10 -62 -44 -97.5t-81 -35.5zM62 0l59 485h52l-60 -485h-51z" />
    <glyph glyph-name="Iogonek" unicode="&#x12e;" horiz-adv-x="268" 
d="M85 -144q27 0 49 11l2 -38q-26 -12 -61 -12q-38 0 -58 18.5t-19 52.5q3 60 79 117l86 705h57l-87 -710h-2q-85 -48 -87 -104q-1 -18 9.5 -29t31.5 -11z" />
    <glyph glyph-name="iogonek" unicode="&#x12f;" horiz-adv-x="235" 
d="M168 676q18 0 30 -11.5t12 -29.5q0 -19 -12.5 -31.5t-31.5 -12.5q-18 0 -29 12t-11 30q0 19 12 31t30 12zM111 0q-85 -48 -87 -104q-1 -18 9.5 -29t31.5 -11q27 0 49 11l2 -38q-25 -12 -61 -12q-38 0 -58 18.5t-19 52.5q3 66 85 121l58 476h52l-60 -485h-2z" />
    <glyph glyph-name="Idotaccent" unicode="&#x130;" horiz-adv-x="268" 
d="M208 810q-18 0 -29 12t-11 30q0 19 12 31t30 12t30 -11.5t12 -29.5q0 -19 -12.5 -31.5t-31.5 -12.5zM76 0l87 710h57l-87 -710h-57z" />
    <glyph glyph-name="dotlessi" unicode="&#x131;" horiz-adv-x="235" 
d="M62 0l59 485h52l-60 -485h-51z" />
    <glyph glyph-name="IJ" unicode="&#x132;" horiz-adv-x="772" 
d="M76 0l87 710h57l-87 -710h-57zM468 -5q-124 0 -193 99l36 44q63 -89 157 -89q138 0 160 179l59 482h56l-59 -485q-28 -230 -216 -230z" />
    <glyph glyph-name="ij" unicode="&#x133;" horiz-adv-x="424" 
d="M166 591q-18 0 -29 12t-11 30q0 19 12 31t30 12t30 -11.5t12 -29.5q0 -19 -12.5 -31.5t-31.5 -12.5zM368 591q-18 0 -29 12t-11 30q0 19 12 31t30 12t30 -11.5t12 -29.5q0 -19 -12.5 -31.5t-31.5 -12.5zM62 0l59 485h52l-60 -485h-51zM183 -202q-36 0 -65 18l15 44
q23 -16 47 -16q32 0 51 23t26 83l66 535h52l-67 -541q-8 -75 -38 -110.5t-87 -35.5z" />
    <glyph glyph-name="Jcircumflex" unicode="&#x134;" horiz-adv-x="504" 
d="M321 788l126 118h52l90 -118h-54l-65 83h-3l-91 -83h-55zM200 -5q-124 0 -193 99l36 44q63 -89 157 -89q138 0 160 179l59 482h56l-59 -485q-28 -230 -216 -230z" />
    <glyph glyph-name="jcircumflex" unicode="&#x135;" horiz-adv-x="189" 
d="M-9 558l123 140h51l93 -140h-55l-64 104h-1l-91 -104h-56zM-52 -202q-36 0 -65 18l15 44q23 -16 47 -16q32 0 51 23t26 83l66 535h52l-67 -541q-8 -75 -38 -110.5t-87 -35.5z" />
    <glyph glyph-name="Kcommaaccent" unicode="&#x136;" horiz-adv-x="621" 
d="M626 710l-288 -321q67 -70 125 -174t91 -215h-60q-31 101 -83.5 195.5t-112.5 156.5l-148 -159l-24 -193h-55l87 710h55l-53 -436h2l394 436h70zM271 -54h47q0 -1 0.5 -7.5t0.5 -14.5q0 -121 -106 -130l-9 34q36 6 52 28.5t16 69.5q0 12 -1 20z" />
    <glyph glyph-name="kcommaaccent" unicode="&#x137;" horiz-adv-x="489" 
d="M414 -4q-11 -2 -22 2q-21 4 -38.5 23.5t-26 37.5t-27.5 62l-35 81q-71 -59 -144 -93l-12 -109h-52l90 736h52l-69 -567l2 -1q101 56 177 143t103 174h54q-34 -127 -160 -248l43 -99q25 -58 40.5 -76.5t39.5 -22.5zM130 -206l-9 34q36 6 52 28.5t16 69.5q0 12 -1 20h47
q0 -1 0.5 -7.5t0.5 -14.5q0 -121 -106 -130z" />
    <glyph glyph-name="kgreenlandic" unicode="&#x138;" horiz-adv-x="489" 
d="M414 -4q-16 0 -22 2q-21 4 -38.5 23.5t-26 37.5t-27.5 62l-35 81q-71 -59 -144 -93l-12 -109h-52l60 485h51l-38 -315l3 -2q100 56 176 143t103 174h54q-34 -127 -160 -248l43 -99q25 -58 40.5 -76.5t39.5 -22.5z" />
    <glyph glyph-name="Lacute" unicode="&#x139;" horiz-adv-x="542" 
d="M255 788l123 127l61 1l-128 -128h-56zM71 0l87 710h55l-80 -658h357l-6 -52h-413z" />
    <glyph glyph-name="lacute" unicode="&#x13a;" horiz-adv-x="282" 
d="M157 801l123 127l61 1l-128 -128h-56zM168 -5q-53 0 -78 36t-17 104l74 601h52l-74 -599q-5 -47 10 -70t44 -23q33 0 71 26l11 -46q-43 -29 -93 -29z" />
    <glyph glyph-name="Lcommaaccent" unicode="&#x13b;" horiz-adv-x="542" 
d="M71 0l87 710h55l-80 -658h357l-6 -52h-413zM200 -206l-9 34q36 6 52 28.5t16 69.5q0 12 -1 20h47q0 -1 0.5 -7.5t0.5 -14.5q0 -121 -106 -130z" />
    <glyph glyph-name="lcommaaccent" unicode="&#x13c;" horiz-adv-x="282" 
d="M168 -5q-53 0 -78 36t-17 104l74 601h52l-74 -599q-5 -47 10 -70t44 -23q33 0 71 26l11 -46q-43 -29 -93 -29zM62 -206l-9 34q36 6 52 28.5t16 69.5q0 12 -1 20h47q0 -1 0.5 -7.5t0.5 -14.5q0 -121 -106 -130z" />
    <glyph glyph-name="Lcaron" unicode="&#x13d;" horiz-adv-x="542" 
d="M323 592l45 171h55l-59 -171h-41zM71 0l87 710h55l-80 -658h357l-6 -52h-413z" />
    <glyph glyph-name="lcaron" unicode="&#x13e;" horiz-adv-x="254" 
d="M250 592l45 171h55l-59 -171h-41zM168 -5q-53 0 -78 36t-17 104l74 601h52l-74 -599q-5 -47 10 -70t44 -23q33 0 71 26l11 -46q-43 -29 -93 -29z" />
    <glyph glyph-name="Ldot" unicode="&#x13f;" horiz-adv-x="542" 
d="M71 0l87 710h55l-80 -658h357l-6 -52h-413zM410 296q-19 0 -30.5 12t-11.5 30t12 30.5t31 12.5q18 0 30 -12t12 -30t-12.5 -30.5t-30.5 -12.5z" />
    <glyph glyph-name="ldot" unicode="&#x140;" horiz-adv-x="311" 
d="M168 -5q-53 0 -78 36t-17 104l74 601h52l-74 -599q-5 -47 10 -70t44 -23q33 0 71 26l11 -46q-43 -29 -93 -29zM284 265q-19 0 -30.5 12t-11.5 30t12 30.5t31 12.5q18 0 30 -12t12 -30t-12.5 -30.5t-30.5 -12.5z" />
    <glyph glyph-name="Lslash" unicode="&#x141;" horiz-adv-x="543" 
d="M133 52h357l-6 -52h-413l36 293l-87 -38l8 50l85 37l45 368h55l-42 -342l112 49l-7 -51l-111 -48z" />
    <glyph glyph-name="lslash" unicode="&#x142;" horiz-adv-x="288" 
d="M256 70l11 -46q-43 -29 -93 -29q-53 0 -78 36t-17 104l19 151l-72 -30l6 47l71 30l50 403h52l-47 -381l86 36l-6 -47l-86 -36l-21 -171q-5 -47 10 -70t44 -23q33 0 71 26z" />
    <glyph glyph-name="Nacute" unicode="&#x143;" horiz-adv-x="722" 
d="M359 788l123 127l61 1l-128 -128h-56zM71 0l87 710h53l335 -614l2 1l75 613h56l-87 -710h-54l-335 609h-2l-75 -609h-55z" />
    <glyph glyph-name="nacute" unicode="&#x144;" horiz-adv-x="551" 
d="M273 560l125 138h62l-129 -138h-58zM57 0l60 485h52l-16 -132h2q37 63 92.5 100t113.5 37q147 0 121 -198l-39 -292h-52l38 289q20 152 -81 152q-69 0 -135.5 -70.5t-78.5 -169.5l-25 -201h-52z" />
    <glyph glyph-name="Ncommaaccent" unicode="&#x145;" horiz-adv-x="722" 
d="M71 0l87 710h53l335 -614l2 1l75 613h56l-87 -710h-54l-335 609h-2l-75 -609h-55zM244 -206l-9 34q36 6 52 28.5t16 69.5q0 12 -1 20h47q0 -1 0.5 -7.5t0.5 -14.5q0 -121 -106 -130z" />
    <glyph glyph-name="ncommaaccent" unicode="&#x146;" horiz-adv-x="551" 
d="M57 0l60 485h52l-16 -132h2q37 63 92.5 100t113.5 37q147 0 121 -198l-39 -292h-52l38 289q20 152 -81 152q-69 0 -135.5 -70.5t-78.5 -169.5l-25 -201h-52zM158 -206l-9 34q36 6 52 28.5t16 69.5q0 12 -1 20h47q0 -1 0.5 -7.5t0.5 -14.5q0 -121 -106 -130z" />
    <glyph glyph-name="Ncaron" unicode="&#x147;" horiz-adv-x="722" 
d="M408 788l-91 118h54l66 -83h2l91 83h55l-126 -118h-51zM71 0l87 710h53l335 -614l2 1l75 613h56l-87 -710h-54l-335 609h-2l-75 -609h-55z" />
    <glyph glyph-name="ncaron" unicode="&#x148;" horiz-adv-x="551" 
d="M304 559l-88 134h52l65 -98h2l92 98h54l-126 -134h-51zM57 0l60 485h52l-16 -132h2q37 63 92.5 100t113.5 37q147 0 121 -198l-39 -292h-52l38 289q20 152 -81 152q-69 0 -135.5 -70.5t-78.5 -169.5l-25 -201h-52z" />
    <glyph glyph-name="napostrophe" unicode="&#x149;" horiz-adv-x="654" 
d="M53 529l45 181h55l-59 -181h-41zM159 0l60 485h52l-16 -132h2q37 63 92.5 100t113.5 37q147 0 121 -198l-39 -292h-52l38 289q20 152 -81 152q-69 0 -135.5 -70.5t-78.5 -169.5l-25 -201h-52z" />
    <glyph glyph-name="Eng" unicode="&#x14a;" horiz-adv-x="722" 
d="M623 710h56l-89 -726q-13 -98 -57 -142t-123 -44q-27 0 -63 9l8 48q24 -8 54 -8q54 0 84.5 30t40.5 107l2 18l-333 607h-2l-75 -609h-55l87 710h53l335 -614l2 1z" />
    <glyph glyph-name="eng" unicode="&#x14b;" horiz-adv-x="548" 
d="M267 -202q-26 0 -49 8l9 43q17 -6 37 -6q51 0 81.5 35t42.5 129l37 282q11 83 -10.5 117.5t-70.5 34.5q-68 0 -132.5 -70.5t-76.5 -168.5l-25 -202h-52l59 485h52l-15 -131l2 -1q35 63 89.5 100t112.5 37q146 0 120 -198l-38 -292q-14 -107 -56 -154.5t-117 -47.5z" />
    <glyph glyph-name="Omacron" unicode="&#x14c;" horiz-adv-x="763" 
d="M349 822l6 45h251l-6 -45h-251zM353 -5q-127 0 -203 79t-76 218q0 112 44.5 208t129 155.5t190.5 59.5q127 0 202.5 -78t75.5 -218q0 -114 -43 -210t-127 -155t-193 -59zM356 48q134 0 218 109t84 261q0 118 -59.5 181.5t-165.5 63.5q-131 0 -216 -111t-85 -259
q0 -116 60 -180.5t164 -64.5z" />
    <glyph glyph-name="omacron" unicode="&#x14d;" horiz-adv-x="546" 
d="M200 608l6 46h251l-6 -46h-251zM245 -5q-89 0 -143 53.5t-54 150.5q0 122 69.5 206.5t185.5 84.5q89 0 142 -52.5t53 -148.5q0 -126 -68.5 -210t-184.5 -84zM247 44q87 0 142.5 68t55.5 173q0 78 -39.5 117.5t-104.5 39.5q-87 0 -143.5 -68.5t-56.5 -170.5
q0 -78 40.5 -118.5t105.5 -40.5z" />
    <glyph glyph-name="Obreve" unicode="&#x14e;" horiz-adv-x="763" 
d="M467 783q-55 0 -82.5 33t-22.5 91l43 -1q-3 -34 12 -56.5t51 -22.5q37 0 63 23.5t33 56.5l43 -1q-11 -55 -50 -89t-90 -34zM353 -5q-127 0 -203 79t-76 218q0 112 44.5 208t129 155.5t190.5 59.5q127 0 202.5 -78t75.5 -218q0 -114 -43 -210t-127 -155t-193 -59zM356 48
q134 0 218 109t84 261q0 118 -59.5 181.5t-165.5 63.5q-131 0 -216 -111t-85 -259q0 -116 60 -180.5t164 -64.5z" />
    <glyph glyph-name="obreve" unicode="&#x14f;" horiz-adv-x="546" 
d="M317 557q-55 0 -82 35t-23 99h43q-7 -90 64 -90q38 0 63.5 25t31.5 65h43q-11 -63 -49 -98.5t-91 -35.5zM245 -5q-89 0 -143 53.5t-54 150.5q0 122 69.5 206.5t185.5 84.5q89 0 142 -52.5t53 -148.5q0 -126 -68.5 -210t-184.5 -84zM247 44q87 0 142.5 68t55.5 173
q0 78 -39.5 117.5t-104.5 39.5q-87 0 -143.5 -68.5t-56.5 -170.5q0 -78 40.5 -118.5t105.5 -40.5z" />
    <glyph glyph-name="Ohungarumlaut" unicode="&#x150;" horiz-adv-x="763" 
d="M371 783l124 138h59l-129 -138h-54zM508 783l123 138h59l-129 -138h-53zM353 -5q-127 0 -203 79t-76 218q0 112 44.5 208t129 155.5t190.5 59.5q127 0 202.5 -78t75.5 -218q0 -114 -43 -210t-127 -155t-193 -59zM356 48q134 0 218 109t84 261q0 118 -59.5 181.5
t-165.5 63.5q-131 0 -216 -111t-85 -259q0 -116 60 -180.5t164 -64.5z" />
    <glyph glyph-name="ohungarumlaut" unicode="&#x151;" horiz-adv-x="546" 
d="M225 560l124 138h59l-129 -138h-54zM362 560l123 138h59l-129 -138h-53zM245 -5q-89 0 -143 53.5t-54 150.5q0 122 69.5 206.5t185.5 84.5q89 0 142 -52.5t53 -148.5q0 -126 -68.5 -210t-184.5 -84zM247 44q87 0 142.5 68t55.5 173q0 78 -39.5 117.5t-104.5 39.5
q-87 0 -143.5 -68.5t-56.5 -170.5q0 -78 40.5 -118.5t105.5 -40.5z" />
    <glyph glyph-name="OE" unicode="&#x152;" horiz-adv-x="908" 
d="M895 658h-354l-35 -278h324l-6 -52h-324l-33 -276h367l-6 -52h-478q-127 0 -201 79.5t-74 216.5q0 111 44 205t127.5 151.5t188.5 57.5h467zM412 52l75 607h-58q-129 0 -212.5 -107t-83.5 -255q0 -116 58.5 -180.5t161.5 -64.5h59z" />
    <glyph glyph-name="oe" unicode="&#x153;" horiz-adv-x="785" 
d="M572 45q80 0 141 65l37 -36q-75 -78 -179 -78q-133 0 -169 126h-1q-29 -59 -77.5 -92.5t-113.5 -33.5q-83 0 -132 54t-49 149q0 119 67.5 205t174.5 86q59 0 102 -32t57 -95h3q29 59 80.5 93t118.5 34q65 0 101.5 -29.5t36.5 -81.5q0 -81 -94 -130.5t-236 -59.5
q1 -68 37 -106t95 -38zM393 269q4 85 -31 129t-94 44q-78 0 -132 -71t-54 -171q0 -73 37 -114t95 -41q74 0 124 62.5t55 161.5zM632 441q-76 0 -128 -58.5t-62 -150.5q118 10 197 48t79 97q0 34 -25 49t-61 15z" />
    <glyph glyph-name="Racute" unicode="&#x154;" horiz-adv-x="603" 
d="M473 916l-128 -128h-56l123 127zM560 536q0 -98 -51 -162t-143 -80q106 -119 161 -294h-62q-61 182 -165 288h-139l-35 -288h-55l87 710h221q90 0 135.5 -45.5t45.5 -128.5zM168 339h147q87 0 137 53.5t50 143.5q0 61 -36.5 91.5t-96.5 30.5h-162z" />
    <glyph glyph-name="racute" unicode="&#x155;" horiz-adv-x="372" 
d="M169 560l125 138h62l-129 -138h-58zM57 0l60 485h52l-15 -126h2q67 130 183 130q35 0 64 -11l-21 -49q-30 10 -57 10q-77 0 -128 -72t-64 -175l-23 -192h-53z" />
    <glyph glyph-name="Rcommaaccent" unicode="&#x156;" horiz-adv-x="603" 
d="M560 536q0 -98 -51 -162t-143 -80q106 -119 161 -294h-62q-61 182 -165 288h-139l-35 -288h-55l87 710h221q90 0 135.5 -45.5t45.5 -128.5zM168 339h147q87 0 137 53.5t50 143.5q0 61 -36.5 91.5t-96.5 30.5h-162zM235 -54h47q0 -1 0.5 -7.5t0.5 -14.5q0 -121 -106 -130
l-9 34q36 6 52 28.5t16 69.5q0 12 -1 20z" />
    <glyph glyph-name="rcommaaccent" unicode="&#x157;" horiz-adv-x="372" 
d="M57 0l60 485h52l-15 -126h2q67 130 183 130q35 0 64 -11l-21 -49q-30 10 -57 10q-77 0 -128 -72t-64 -175l-23 -192h-53zM-5 -206l-9 34q36 6 52 28.5t16 69.5q0 12 -1 20h47q0 -1 0.5 -7.5t0.5 -14.5q0 -121 -106 -130z" />
    <glyph glyph-name="Rcaron" unicode="&#x158;" horiz-adv-x="603" 
d="M389 788h-51l-91 118h54l66 -83h2l91 83h55zM560 536q0 -98 -51 -162t-143 -80q106 -119 161 -294h-62q-61 182 -165 288h-139l-35 -288h-55l87 710h221q90 0 135.5 -45.5t45.5 -128.5zM168 339h147q87 0 137 53.5t50 143.5q0 61 -36.5 91.5t-96.5 30.5h-162z" />
    <glyph glyph-name="rcaron" unicode="&#x159;" horiz-adv-x="372" 
d="M237 559l-88 134h52l65 -98h2l92 98h54l-126 -134h-51zM57 0l60 485h52l-15 -126h2q67 130 183 130q35 0 64 -11l-21 -49q-30 10 -57 10q-77 0 -128 -72t-64 -175l-23 -192h-53z" />
    <glyph glyph-name="Sacute" unicode="&#x15a;" horiz-adv-x="551" 
d="M313 788l123 127l61 1l-128 -128h-56zM265 -5q-73 0 -135.5 27t-102.5 78l39 41q75 -93 200 -93q73 0 118 37t44 98q0 22 -9 42t-19.5 33t-35 29t-39 24t-48.5 26q-43 22 -66 36.5t-53 38.5t-44 54t-14 66q0 82 59.5 132.5t156.5 50.5q126 0 198 -81l-38 -39
q-58 68 -161 68q-71 0 -114 -35t-43 -91q0 -48 35.5 -79t108.5 -69q95 -49 124 -74q61 -51 61 -127q0 -88 -61 -140.5t-161 -52.5z" />
    <glyph glyph-name="sacute" unicode="&#x15b;" horiz-adv-x="409" 
d="M209 560l125 138h62l-129 -138h-58zM180 -5q-100 0 -162 59l31 40q53 -51 133 -51q51 0 83.5 23t32.5 62q0 24 -15.5 42.5t-33.5 28t-52 24.5q-3 1 -5 2t-4.5 2t-4.5 2q-55 24 -86 52.5t-31 76.5q0 59 45.5 95.5t110.5 36.5q94 0 152 -58l-37 -38q-47 50 -119 50
q-41 0 -69.5 -22.5t-28.5 -58.5q0 -31 24 -51.5t69 -40.5q76 -34 99 -54q39 -34 40 -83q0 -66 -48.5 -102.5t-123.5 -36.5z" />
    <glyph glyph-name="Scircumflex" unicode="&#x15c;" horiz-adv-x="551" 
d="M193 788l126 118h52l90 -118h-54l-65 83h-3l-91 -83h-55zM265 -5q-73 0 -135.5 27t-102.5 78l39 41q75 -93 200 -93q73 0 118 37t44 98q0 22 -9 42t-19.5 33t-35 29t-39 24t-48.5 26q-43 22 -66 36.5t-53 38.5t-44 54t-14 66q0 82 59.5 132.5t156.5 50.5q126 0 198 -81
l-38 -39q-58 68 -161 68q-71 0 -114 -35t-43 -91q0 -48 35.5 -79t108.5 -69q95 -49 124 -74q61 -51 61 -127q0 -88 -61 -140.5t-161 -52.5z" />
    <glyph glyph-name="scircumflex" unicode="&#x15d;" horiz-adv-x="409" 
d="M110 558l123 140h51l93 -140h-55l-64 104h-1l-91 -104h-56zM180 -5q-100 0 -162 59l31 40q53 -51 133 -51q51 0 83.5 23t32.5 62q0 24 -15.5 42.5t-33.5 28t-52 24.5q-3 1 -5 2t-4.5 2t-4.5 2q-55 24 -86 52.5t-31 76.5q0 59 45.5 95.5t110.5 36.5q94 0 152 -58l-37 -38
q-47 50 -119 50q-41 0 -69.5 -22.5t-28.5 -58.5q0 -31 24 -51.5t69 -40.5q76 -34 99 -54q39 -34 40 -83q0 -66 -48.5 -102.5t-123.5 -36.5z" />
    <glyph glyph-name="Scedilla" unicode="&#x15e;" horiz-adv-x="551" 
d="M302 389q95 -49 124 -74q61 -51 61 -127q0 -88 -61 -140.5t-161 -52.5h-8l-18 -30l1 -1q70 -5 70 -61q0 -41 -29 -64t-75 -23q-23 0 -42 4l3 34q15 -5 36 -5q30 0 48.5 13.5t18.5 39.5q0 35 -70 36l4 27l17 33q-124 14 -194 102l39 41q75 -93 200 -93q73 0 118 37t44 98
q0 22 -9 42t-19.5 33t-35 29t-39 24t-48.5 26q-43 22 -66 36.5t-53 38.5t-44 54t-14 66q0 82 59.5 132.5t156.5 50.5q126 0 198 -81l-38 -39q-58 68 -161 68q-71 0 -114 -35t-43 -91q0 -48 35.5 -79t108.5 -69z" />
    <glyph glyph-name="scedilla" unicode="&#x15f;" horiz-adv-x="409" 
d="M213 271q76 -34 99 -54q39 -34 40 -83q0 -66 -48.5 -102.5t-123.5 -36.5h-1l-18 -30l1 -1q70 -5 70 -61q0 -41 -29 -64t-75 -23q-23 0 -42 4l3 34q15 -5 36 -5q30 0 48.5 13.5t18.5 39.5q0 35 -70 36l4 27l17 32q-75 10 -125 57l31 40q53 -51 133 -51q51 0 83.5 23
t32.5 62q0 24 -15.5 42.5t-33.5 28t-52 24.5q-3 1 -5 2t-4.5 2t-4.5 2q-55 24 -86 52.5t-31 76.5q0 59 45.5 95.5t110.5 36.5q94 0 152 -58l-37 -38q-47 50 -119 50q-41 0 -69.5 -22.5t-28.5 -58.5q0 -31 24 -51.5t69 -40.5z" />
    <glyph glyph-name="Scaron" unicode="&#x160;" horiz-adv-x="551" 
d="M302 788l-91 118h54l66 -83h2l91 83h55l-126 -118h-51zM265 -5q-73 0 -135.5 27t-102.5 78l39 41q75 -93 200 -93q73 0 118 37t44 98q0 22 -9 42t-19.5 33t-35 29t-39 24t-48.5 26q-43 22 -66 36.5t-53 38.5t-44 54t-14 66q0 82 59.5 132.5t156.5 50.5q126 0 198 -81
l-38 -39q-58 68 -161 68q-71 0 -114 -35t-43 -91q0 -48 35.5 -79t108.5 -69q95 -49 124 -74q61 -51 61 -127q0 -88 -61 -140.5t-161 -52.5z" />
    <glyph glyph-name="scaron" unicode="&#x161;" horiz-adv-x="409" 
d="M215 559l-88 134h52l65 -98h2l92 98h54l-126 -134h-51zM180 -5q-100 0 -162 59l31 40q53 -51 133 -51q51 0 83.5 23t32.5 62q0 24 -15.5 42.5t-33.5 28t-52 24.5q-3 1 -5 2t-4.5 2t-4.5 2q-55 24 -86 52.5t-31 76.5q0 59 45.5 95.5t110.5 36.5q94 0 152 -58l-37 -38
q-47 50 -119 50q-41 0 -69.5 -22.5t-28.5 -58.5q0 -31 24 -51.5t69 -40.5q76 -34 99 -54q39 -34 40 -83q0 -66 -48.5 -102.5t-123.5 -36.5z" />
    <glyph glyph-name="uni0162" unicode="&#x162;" horiz-adv-x="517" 
d="M89 710h455l-7 -52h-200l-81 -658h-15l-20 -35l1 -1q70 -5 70 -61q0 -41 -29 -64t-75 -23q-23 0 -42 4l3 34q15 -5 36 -5q30 0 48.5 13.5t18.5 39.5q0 35 -70 36l4 27l19 35h-5l81 658h-198z" />
    <glyph glyph-name="uni0163" unicode="&#x163;" horiz-adv-x="374" 
d="M184 439l-38 -302q-10 -92 56 -92q54 0 101 43l15 -43q-49 -48 -120 -50l-18 -30l1 -1q70 -5 70 -61q0 -41 -29 -64t-75 -23q-23 0 -42 4l3 34q15 -5 36 -5q30 0 48.5 13.5t18.5 39.5q0 35 -70 36l4 27l18 33q-84 17 -69 135l37 306h-74l5 46h75l21 167l53 10l-22 -177
h168l-6 -46h-167z" />
    <glyph glyph-name="Tcaron" unicode="&#x164;" horiz-adv-x="517" 
d="M298 788l-91 118h54l66 -83h2l91 83h55l-126 -118h-51zM200 0l81 658h-198l6 52h455l-7 -52h-200l-81 -658h-56z" />
    <glyph glyph-name="tcaron" unicode="&#x165;" horiz-adv-x="374" 
d="M269 592l45 171h55l-59 -171h-41zM192 -5q-115 0 -98 138l37 306h-74l5 46h75l21 167l53 10l-22 -177h168l-6 -46h-167l-38 -302q-10 -92 56 -92q54 0 101 43l15 -43q-51 -50 -126 -50z" />
    <glyph glyph-name="Tbar" unicode="&#x166;" horiz-adv-x="517" 
d="M537 658h-200l-33 -272h105l-4 -45h-107l-42 -341h-56l42 341h-105l4 45h107l33 272h-198l6 52h455z" />
    <glyph glyph-name="tbar" unicode="&#x167;" horiz-adv-x="374" 
d="M351 439h-167l-17 -139h116l-6 -41h-116l-15 -122q-10 -92 56 -92q54 0 101 43l15 -43q-51 -50 -126 -50q-115 0 -98 138l15 126h-66l5 41h66l17 139h-74l5 46h75l21 167l53 10l-22 -177h168z" />
    <glyph glyph-name="Utilde" unicode="&#x168;" horiz-adv-x="664" 
d="M478 788q-30 0 -75 38q-33 26 -51 26q-37 0 -63 -59l-36 17q37 84 95 84q33 0 69 -32q2 -2 9 -7.5t10 -7.5t9 -6.5t10 -6t9 -3t10 -1.5q38 0 62 60l35 -15q-17 -42 -42 -64.5t-51 -22.5zM301 -5q-121 0 -171.5 79t-34.5 217l52 419h56l-52 -420q-14 -112 23.5 -176.5
t128.5 -64.5q93 0 150.5 58t72.5 177l51 426h56l-52 -426q-35 -289 -280 -289z" />
    <glyph glyph-name="utilde" unicode="&#x169;" horiz-adv-x="534" 
d="M377 572q-31 0 -75 39q-33 25 -50 25q-38 0 -64 -59l-36 17q36 87 96 87q30 0 68 -32t57 -32q38 0 62 60l35 -15q-17 -44 -42 -67t-51 -23zM197 -5q-156 0 -129 196l40 294h52l-39 -290q-11 -84 12.5 -117.5t76.5 -33.5q62 0 122.5 66.5t72.5 157.5l26 217h53l-60 -485
h-52l16 130h-2q-32 -61 -82.5 -98t-106.5 -37z" />
    <glyph glyph-name="Umacron" unicode="&#x16a;" horiz-adv-x="664" 
d="M283 822l6 45h251l-6 -45h-251zM301 -5q-121 0 -171.5 79t-34.5 217l52 419h56l-52 -420q-14 -112 23.5 -176.5t128.5 -64.5q93 0 150.5 58t72.5 177l51 426h56l-52 -426q-35 -289 -280 -289z" />
    <glyph glyph-name="umacron" unicode="&#x16b;" horiz-adv-x="534" 
d="M183 608l6 46h251l-6 -46h-251zM197 -5q-156 0 -129 196l40 294h52l-39 -290q-11 -84 12.5 -117.5t76.5 -33.5q62 0 122.5 66.5t72.5 157.5l26 217h53l-60 -485h-52l16 130h-2q-32 -61 -82.5 -98t-106.5 -37z" />
    <glyph glyph-name="Ubreve" unicode="&#x16c;" horiz-adv-x="664" 
d="M401 783q-55 0 -82.5 33t-22.5 91l43 -1q-3 -34 12 -56.5t51 -22.5q37 0 63 23.5t33 56.5l43 -1q-11 -55 -50 -89t-90 -34zM301 -5q-121 0 -171.5 79t-34.5 217l52 419h56l-52 -420q-14 -112 23.5 -176.5t128.5 -64.5q93 0 150.5 58t72.5 177l51 426h56l-52 -426
q-35 -289 -280 -289z" />
    <glyph glyph-name="ubreve" unicode="&#x16d;" horiz-adv-x="534" 
d="M300 557q-55 0 -82 35t-23 99h43q-7 -90 64 -90q38 0 63.5 25t31.5 65h43q-11 -63 -49 -98.5t-91 -35.5zM197 -5q-156 0 -129 196l40 294h52l-39 -290q-11 -84 12.5 -117.5t76.5 -33.5q62 0 122.5 66.5t72.5 157.5l26 217h53l-60 -485h-52l16 130h-2q-32 -61 -82.5 -98
t-106.5 -37z" />
    <glyph glyph-name="Uring" unicode="&#x16e;" horiz-adv-x="664" 
d="M407 779q-35 0 -58.5 23.5t-23.5 58.5q0 37 24 60.5t61 23.5q36 0 59.5 -23t23.5 -58q0 -37 -24.5 -61t-61.5 -24zM408 816q21 0 34.5 13.5t13.5 33.5t-13 33t-33 13t-33.5 -13.5t-13.5 -33.5t12.5 -33t32.5 -13zM301 -5q-121 0 -171.5 79t-34.5 217l52 419h56l-52 -420
q-14 -112 23.5 -176.5t128.5 -64.5q93 0 150.5 58t72.5 177l51 426h56l-52 -426q-35 -289 -280 -289z" />
    <glyph glyph-name="uring" unicode="&#x16f;" horiz-adv-x="534" 
d="M308 553q-35 0 -58.5 23.5t-23.5 58.5q0 37 24 60.5t61 23.5q36 0 59.5 -23t23.5 -58q0 -37 -24.5 -61t-61.5 -24zM309 590q21 0 34.5 13.5t13.5 33.5t-13 33t-33 13t-33.5 -13.5t-13.5 -33.5t12.5 -33t32.5 -13zM197 -5q-156 0 -129 196l40 294h52l-39 -290
q-11 -84 12.5 -117.5t76.5 -33.5q62 0 122.5 66.5t72.5 157.5l26 217h53l-60 -485h-52l16 130h-2q-32 -61 -82.5 -98t-106.5 -37z" />
    <glyph glyph-name="Uhungarumlaut" unicode="&#x170;" horiz-adv-x="664" 
d="M305 783l124 138h59l-129 -138h-54zM442 783l123 138h59l-129 -138h-53zM301 -5q-121 0 -171.5 79t-34.5 217l52 419h56l-52 -420q-14 -112 23.5 -176.5t128.5 -64.5q93 0 150.5 58t72.5 177l51 426h56l-52 -426q-35 -289 -280 -289z" />
    <glyph glyph-name="uhungarumlaut" unicode="&#x171;" horiz-adv-x="534" 
d="M208 560l124 138h59l-129 -138h-54zM345 560l123 138h59l-129 -138h-53zM197 -5q-156 0 -129 196l40 294h52l-39 -290q-11 -84 12.5 -117.5t76.5 -33.5q62 0 122.5 66.5t72.5 157.5l26 217h53l-60 -485h-52l16 130h-2q-32 -61 -82.5 -98t-106.5 -37z" />
    <glyph glyph-name="Uogonek" unicode="&#x172;" horiz-adv-x="664" 
d="M577 710h56l-52 -426q-30 -245 -211 -282q-44 -20 -73.5 -49.5t-30.5 -56.5q-1 -18 10 -29t31 -11q28 0 50 11l1 -38q-24 -12 -60 -12q-40 0 -59.5 20t-17.5 51q3 54 72 106v1q-116 3 -165 82t-33 214l52 419h56l-52 -420q-14 -112 23.5 -176.5t128.5 -64.5
q93 0 150.5 58t72.5 177z" />
    <glyph glyph-name="uogonek" unicode="&#x173;" horiz-adv-x="534" 
d="M376 -144q27 0 49 11l2 -38q-25 -12 -61 -12q-38 0 -58 18.5t-19 52.5q3 63 84 121l15 121h-2q-32 -61 -82.5 -98t-106.5 -37q-156 0 -129 196l40 294h52l-39 -290q-11 -84 12.5 -117.5t76.5 -33.5q62 0 122.5 66.5t72.5 157.5l26 217h53l-60 -485h-2q-85 -48 -87 -104
q-1 -18 9.5 -29t31.5 -11z" />
    <glyph glyph-name="Wcircumflex" unicode="&#x174;" horiz-adv-x="924" 
d="M394 788l126 118h52l90 -118h-54l-65 83h-3l-91 -83h-55zM214 0l-119 710h57l100 -619h2l233 619h62l85 -617h3l249 617h59l-295 -710h-52l-89 624h-2l-236 -624h-57z" />
    <glyph glyph-name="wcircumflex" unicode="&#x175;" horiz-adv-x="779" 
d="M304 558l123 140h51l93 -140h-55l-64 104h-1l-91 -104h-56zM190 -5q-149 0 -122 200l38 290h52l-36 -286q-21 -155 81 -155q50 0 104.5 64.5t67.5 163.5l26 213h52l-35 -283q-11 -88 9.5 -123t64.5 -35q54 0 110 60t78 158q23 108 4 223h54q20 -128 -7 -238
q-30 -124 -100 -188t-143 -64q-58 0 -89.5 34.5t-32.5 101.5h-2q-30 -60 -80.5 -98t-93.5 -38z" />
    <glyph glyph-name="Ycircumflex" unicode="&#x176;" horiz-adv-x="534" 
d="M196 788l126 118h52l90 -118h-54l-65 83h-3l-91 -83h-55zM209 0l39 320l-171 390h61l143 -333h2l226 333h65l-270 -390l-39 -320h-56z" />
    <glyph glyph-name="ycircumflex" unicode="&#x177;" horiz-adv-x="531" 
d="M314 662l-91 -104h-56l123 140h51l93 -140h-55l-64 104h-1zM430 485h52l-51 -421q-10 -79 -33.5 -133t-58.5 -82t-72 -39.5t-83 -11.5q-88 0 -162 40l24 46q66 -38 140 -38q78 0 128.5 47.5t65.5 174.5l7 62l-2 1q-33 -62 -84 -99t-108 -37q-155 0 -128 196l40 294h52
l-38 -290q-11 -84 12 -117t76 -34q65 0 126 69.5t72 163.5z" />
    <glyph glyph-name="Ydieresis" unicode="&#x178;" horiz-adv-x="534" 
d="M262 810q-18 0 -29.5 12t-11.5 30q0 19 12 31t30 12q19 0 31 -11.5t12 -29.5q0 -19 -12.5 -31.5t-31.5 -12.5zM414 810q-18 0 -29.5 12t-11.5 30q0 19 12 31t31 12q18 0 30 -11.5t12 -29.5q0 -19 -12.5 -31.5t-31.5 -12.5zM209 0l39 320l-171 390h61l143 -333h2l226 333
h65l-270 -390l-39 -320h-56z" />
    <glyph glyph-name="Zacute" unicode="&#x179;" horiz-adv-x="571" 
d="M277 788l123 127l61 1l-128 -128h-56zM33 0l6 46l437 610v2h-342l7 52h414l-6 -46l-439 -609l1 -3h366l-6 -52h-438z" />
    <glyph glyph-name="zacute" unicode="&#x17a;" horiz-adv-x="431" 
d="M176 560l125 138h62l-129 -138h-58zM355 -24q-54 16 -125 20t-223 4l5 41l326 397v1h-265l6 46h335l-4 -39l-327 -398v-2q210 0 287 -24z" />
    <glyph glyph-name="Zdotaccent" unicode="&#x17b;" horiz-adv-x="571" 
d="M359 810q-18 0 -29 12t-11 30q0 19 12 31t30 12t30 -11.5t12 -29.5q0 -19 -12.5 -31.5t-31.5 -12.5zM33 0l6 46l437 610v2h-342l7 52h414l-6 -46l-439 -609l1 -3h366l-6 -52h-438z" />
    <glyph glyph-name="zdotaccent" unicode="&#x17c;" horiz-adv-x="431" 
d="M262 591q-18 0 -29 12t-11 30q0 19 12 31t30 12t30 -11.5t12 -29.5q0 -19 -12.5 -31.5t-31.5 -12.5zM355 -24q-54 16 -125 20t-223 4l5 41l326 397v1h-265l6 46h335l-4 -39l-327 -398v-2q210 0 287 -24z" />
    <glyph glyph-name="Zcaron" unicode="&#x17d;" horiz-adv-x="571" 
d="M326 788l-91 118h54l66 -83h2l91 83h55l-126 -118h-51zM33 0l6 46l437 610v2h-342l7 52h414l-6 -46l-439 -609l1 -3h366l-6 -52h-438z" />
    <glyph glyph-name="zcaron" unicode="&#x17e;" horiz-adv-x="431" 
d="M225 559l-88 134h52l65 -98h2l92 98h54l-126 -134h-51zM355 -24q-54 16 -125 20t-223 4l5 41l326 397v1h-265l6 46h335l-4 -39l-327 -398v-2q210 0 287 -24z" />
    <glyph glyph-name="longs" unicode="&#x17f;" horiz-adv-x="287" 
d="M79 0l53 439h-76l6 46h76l13 109q19 147 130 147q56 0 94 -27l-14 -46q-31 24 -75 24q-71 0 -84 -109l-71 -583h-52z" />
    <glyph glyph-name="uni018F" unicode="&#x18f;" horiz-adv-x="724" 
d="M398 715q127 0 202 -78t75 -218q0 -114 -42 -210t-123.5 -155t-187.5 -59q-121 0 -195 78.5t-74 215.5q0 25 6 63h554q4 29 4 66q0 117 -60 180.5t-164 63.5q-117 0 -203 -73l-33 41q101 85 241 85zM325 48q102 0 176 71t102 183h-494v-12q0 -114 59 -178t157 -64z" />
    <glyph glyph-name="florin" unicode="&#x192;" horiz-adv-x="465" 
d="M35 -109q-71 0 -108 41l26 37q29 -28 76 -28q80 0 108 112l87 367h-70l12 47h71l31 125q36 149 148 149q70 0 108 -40l-27 -37q-31 28 -76 28q-77 0 -103 -113l-26 -112h141l-13 -47h-141l-92 -379q-35 -150 -152 -150z" />
    <glyph glyph-name="uni019D" unicode="&#x19d;" horiz-adv-x="697" 
d="M-15 -202q-36 0 -60 9l8 47q19 -7 48 -7q33 0 51 25t25 85l92 753h54l317 -614l2 1l76 613h56l-88 -710h-56l-315 609h-3l-81 -662q-9 -77 -39 -113t-87 -36z" />
    <glyph glyph-name="Ohorn" unicode="&#x1a0;" horiz-adv-x="811" 
d="M770 774h51l-13 -99q-17 -136 -108 -143q16 -48 16 -113q0 -114 -43 -210t-127 -155t-193 -59q-127 0 -203 79t-76 218q0 112 44.5 208t129 155.5t190.5 59.5q87 0 151 -37.5t97 -108.5h5q28 0 44 27t24 86zM356 48q134 0 218 109t84 261q0 118 -59.5 181.5t-165.5 63.5
q-131 0 -216 -111t-85 -259q0 -116 60 -180.5t164 -64.5z" />
    <glyph glyph-name="ohorn" unicode="&#x1a1;" horiz-adv-x="616" 
d="M576 565h51l-13 -99q-18 -143 -116 -143h-2q2 -22 2 -34q0 -126 -68.5 -210t-184.5 -84q-89 0 -143 53.5t-54 150.5q0 122 69.5 206.5t185.5 84.5q71 0 119.5 -33.5t66.5 -95.5q3 -1 8 -1q28 0 44 27t24 86zM247 44q87 0 142.5 68t55.5 173q0 78 -39.5 117.5t-104.5 39.5
q-87 0 -143.5 -68.5t-56.5 -170.5q0 -78 40.5 -118.5t105.5 -40.5z" />
    <glyph glyph-name="Uhorn" unicode="&#x1af;" horiz-adv-x="718" 
d="M710 774h51l-13 -99q-18 -143 -116 -143q-8 0 -20 2l-31 -250q-35 -289 -280 -289q-121 0 -171.5 79t-34.5 217l52 419h56l-52 -420q-14 -112 23.5 -176.5t128.5 -64.5q93 0 150.5 58t72.5 177l51 426h56l-17 -139q10 -2 15 -2q28 0 44 27t24 86z" />
    <glyph glyph-name="uhorn" unicode="&#x1b0;" horiz-adv-x="594" 
d="M562 565h51l-13 -99q-18 -143 -116 -143q-6 0 -20 2l-40 -325h-52l16 130h-2q-32 -61 -82.5 -98t-106.5 -37q-156 0 -129 196l40 294h52l-39 -290q-11 -84 12.5 -117.5t76.5 -33.5q62 0 122.5 66.5t72.5 157.5l26 217h53l-15 -124q3 0 7 -0.5t7 -0.5q28 0 44 27t24 86z
" />
    <glyph glyph-name="uni01D0" unicode="&#x1d0;" horiz-adv-x="235" 
d="M129 559l-88 134h52l65 -98h2l92 98h54l-126 -134h-51zM62 0l59 485h52l-60 -485h-51z" />
    <glyph glyph-name="Gcaron" unicode="&#x1e6;" horiz-adv-x="723" 
d="M429 788l-91 118h54l66 -83h2l91 83h55l-126 -118h-51zM363 -5q-133 0 -209.5 79t-76.5 220q0 112 45 207.5t128.5 154.5t186.5 59q151 0 239 -123l-45 -37q-77 107 -197 107q-129 0 -214 -110t-85 -254q0 -118 59.5 -184t169.5 -66q123 0 208 65l24 189h-208l6 52h264
l-33 -272q-49 -42 -119.5 -64.5t-142.5 -22.5z" />
    <glyph glyph-name="gcaron" unicode="&#x1e7;" horiz-adv-x="552" 
d="M299 559l-88 134h52l65 -98h2l92 98h54l-126 -134h-51zM193 -202q-98 0 -169 40l24 46q63 -37 143 -37q43 0 74.5 9t60 32.5t47 68.5t26.5 112l10 79h-2q-34 -62 -84 -100t-109 -38q-78 0 -122 55t-44 140q0 113 69.5 199t178.5 86q97 0 147 -55l1 1l6 49h52l-51 -420
q-10 -79 -33.5 -133.5t-59.5 -82.5t-75 -39.5t-90 -11.5zM222 58q73 0 132.5 71.5t71.5 164.5l11 86q-24 32 -64 46.5t-75 14.5q-87 0 -142 -72.5t-55 -165.5q0 -65 32 -105t89 -40z" />
    <glyph glyph-name="uni01EA" unicode="&#x1ea;" horiz-adv-x="763" 
d="M389 -3q-80 -49 -81 -101q-1 -18 9.5 -29t31.5 -11q27 0 49 11l2 -38q-25 -12 -61 -12q-38 0 -58 18.5t-19 52.5q3 54 65 106l-1 2q-116 8 -184 86t-68 210q0 112 44.5 208t129 155.5t190.5 59.5q127 0 202.5 -78t75.5 -218q0 -166 -89.5 -286.5t-237.5 -135.5zM132 293
q0 -116 60 -180.5t164 -64.5q134 0 218 109t84 261q0 118 -59.5 181.5t-165.5 63.5q-131 0 -216 -111t-85 -259z" />
    <glyph glyph-name="uni01EB" unicode="&#x1eb;" horiz-adv-x="546" 
d="M269 -4q-78 -46 -80 -100q-1 -18 9.5 -29t31.5 -11q27 0 49 11l2 -38q-25 -12 -61 -12q-38 0 -58 18.5t-19 52.5q3 54 66 107l-1 3q-74 11 -117 63t-43 138q0 122 69.5 206.5t185.5 84.5q89 0 142 -52.5t53 -148.5q0 -119 -61.5 -201t-167.5 -92zM101 203
q0 -78 40.5 -118.5t105.5 -40.5q87 0 142.5 68t55.5 173q0 78 -39.5 117.5t-104.5 39.5q-87 0 -143.5 -68.5t-56.5 -170.5z" />
    <glyph glyph-name="Aringacute" unicode="&#x1fa;" horiz-adv-x="610" 
d="M379 779q-35 0 -58.5 23.5t-23.5 58.5q0 37 24 60.5t61 23.5q41 0 65 -29l74 51h67l-125 -86q2 -12 2 -17q0 -37 -24.5 -61t-61.5 -24zM382 909q-20 0 -33.5 -13.5t-13.5 -33.5t12.5 -33t32.5 -13q21 0 34.5 13.5t13.5 33.5t-13 33t-33 13zM331 710h60l159 -710h-58
l-41 191h-304l-88 -191h-58zM169 242h272l-87 397h-2z" />
    <glyph glyph-name="aringacute" unicode="&#x1fb;" horiz-adv-x="546" 
d="M342 553q-35 0 -58.5 23.5t-23.5 58.5q0 37 24 60.5t61 23.5q42 0 66 -30l73 49h67l-124 -85q1 -5 1 -15q0 -37 -24.5 -61t-61.5 -24zM345 683q-20 0 -33.5 -13.5t-13.5 -33.5t12.5 -33t32.5 -13q21 0 34.5 13.5t13.5 33.5t-13 33t-33 13zM444 435l6 50h52l-59 -485h-52
l16 132h-2q-34 -63 -83 -100t-107 -37q-79 0 -123 55t-44 139q0 124 69 212.5t179 88.5q98 0 146 -56zM428 303l10 77q-24 32 -64.5 47t-76.5 15q-87 0 -141.5 -75.5t-54.5 -178.5q0 -65 32 -105t90 -40q75 0 133 76.5t72 183.5z" />
    <glyph glyph-name="AEacute" unicode="&#x1fc;" horiz-adv-x="864" 
d="M460 788l123 127l61 1l-128 -128h-56zM-23 0l440 710h441l-7 -52h-355l-34 -278h324l-6 -52h-324l-33 -276h367l-6 -52h-423l24 191h-227l-119 -191h-62zM187 241h204l50 408h-2z" />
    <glyph glyph-name="aeacute" unicode="&#x1fd;" horiz-adv-x="693" 
d="M577 698l-129 -138h-58l125 138h62zM482 45q80 0 141 65l36 -36q-73 -78 -177 -78q-69 0 -112.5 35.5t-56.5 101.5q-24 -64 -64.5 -101t-89.5 -37q-59 0 -95 49.5t-36 130.5q0 123 73 217t192 94q73 0 122 -36q59 40 133 40q61 0 96.5 -30t35.5 -81q0 -81 -94 -130.5
t-236 -59.5q1 -68 37 -106t95 -38zM628 377q0 34 -24.5 49t-58.5 15q-78 0 -130.5 -58.5t-62.5 -150.5q118 10 197 48t79 97zM165 43q45 0 80 51t55 124q11 125 79 199q-35 20 -85 20q-67 0 -117 -42t-73 -101t-23 -123q0 -60 24 -94t60 -34z" />
    <glyph glyph-name="Oslashacute" unicode="&#x1fe;" horiz-adv-x="765" 
d="M606 916l-128 -128h-56l123 127zM735 692l-73 -80q55 -75 55 -193q0 -114 -43 -210t-127 -155t-193 -59q-117 0 -191 68l-72 -79l-30 31l72 80q-58 77 -58 197q0 112 44.5 208t129 155.5t190.5 59.5q122 0 195 -71l70 77zM133 293q0 -93 40 -155l423 465q-60 60 -162 60
q-131 0 -216 -111t-85 -259zM659 418q0 91 -36 150l-422 -463q59 -57 156 -57q134 0 218 109t84 261z" />
    <glyph glyph-name="oslashacute" unicode="&#x1ff;" horiz-adv-x="544" 
d="M476 698l-129 -138h-58l125 138h62zM523 471l-55 -57q34 -49 34 -125q0 -126 -68.5 -210t-184.5 -84q-87 0 -140 50l-58 -60l-28 25l62 64q-33 52 -33 125q0 122 69.5 206.5t185.5 84.5q84 0 136 -46l52 54zM105 203q0 -51 19 -89l282 292q-39 36 -101 36
q-87 0 -143.5 -68.5t-56.5 -170.5zM449 285q0 53 -20 90l-282 -292q39 -39 104 -39q87 0 142.5 68t55.5 173z" />
    <glyph glyph-name="Scommaaccent" unicode="&#x218;" horiz-adv-x="551" 
d="M265 -5q-73 0 -135.5 27t-102.5 78l39 41q75 -93 200 -93q73 0 118 37t44 98q0 22 -9 42t-19.5 33t-35 29t-39 24t-48.5 26q-43 22 -66 36.5t-53 38.5t-44 54t-14 66q0 82 59.5 132.5t156.5 50.5q126 0 198 -81l-38 -39q-58 68 -161 68q-71 0 -114 -35t-43 -91
q0 -48 35.5 -79t108.5 -69q95 -49 124 -74q61 -51 61 -127q0 -88 -61 -140.5t-161 -52.5zM159 -206l-9 34q36 6 52 28.5t16 69.5q0 12 -1 20h47q0 -1 0.5 -7.5t0.5 -14.5q0 -121 -106 -130z" />
    <glyph glyph-name="scommaaccent" unicode="&#x219;" horiz-adv-x="409" 
d="M180 -5q-100 0 -162 59l31 40q53 -51 133 -51q51 0 83.5 23t32.5 62q0 24 -15.5 42.5t-33.5 28t-52 24.5q-3 1 -5 2t-4.5 2t-4.5 2q-55 24 -86 52.5t-31 76.5q0 59 45.5 95.5t110.5 36.5q94 0 152 -58l-37 -38q-47 50 -119 50q-41 0 -69.5 -22.5t-28.5 -58.5
q0 -31 24 -51.5t69 -40.5q76 -34 99 -54q39 -34 40 -83q0 -66 -48.5 -102.5t-123.5 -36.5zM81 -206l-9 34q36 6 52 28.5t16 69.5q0 12 -1 20h47q0 -1 0.5 -7.5t0.5 -14.5q0 -121 -106 -130z" />
    <glyph glyph-name="uni021A" unicode="&#x21a;" horiz-adv-x="517" 
d="M200 0l81 658h-198l6 52h455l-7 -52h-200l-81 -658h-56zM141 -206l-9 34q36 6 52 28.5t16 69.5q0 12 -1 20h47q0 -1 0.5 -7.5t0.5 -14.5q0 -121 -106 -130z" />
    <glyph glyph-name="uni021B" unicode="&#x21b;" horiz-adv-x="374" 
d="M192 -5q-115 0 -98 138l37 306h-74l5 46h75l21 167l53 10l-22 -177h168l-6 -46h-167l-38 -302q-10 -92 56 -92q54 0 101 43l15 -43q-51 -50 -126 -50zM100 -206l-9 34q36 6 52 28.5t16 69.5q0 12 -1 20h47q0 -1 0.5 -7.5t0.5 -14.5q0 -121 -106 -130z" />
    <glyph glyph-name="uni0232" unicode="&#x232;" horiz-adv-x="534" 
d="M213 822l6 45h251l-6 -45h-251zM209 0l39 320l-171 390h61l143 -333h2l226 333h65l-270 -390l-39 -320h-56z" />
    <glyph glyph-name="uni0233" unicode="&#x233;" horiz-adv-x="531" 
d="M438 654l-6 -46h-251l6 46h251zM430 485h52l-51 -421q-10 -79 -33.5 -133t-58.5 -82t-72 -39.5t-83 -11.5q-88 0 -162 40l24 46q66 -38 140 -38q78 0 128.5 47.5t65.5 174.5l7 62l-2 1q-33 -62 -84 -99t-108 -37q-155 0 -128 196l40 294h52l-38 -290q-11 -84 12 -117
t76 -34q65 0 126 69.5t72 163.5z" />
    <glyph glyph-name="uni0237" unicode="&#x237;" horiz-adv-x="189" 
d="M-52 -202q-36 0 -65 18l15 44q23 -16 47 -16q32 0 51 23t26 83l66 535h52l-67 -541q-8 -75 -38 -110.5t-87 -35.5z" />
    <glyph glyph-name="uni0259" unicode="&#x259;" horiz-adv-x="485" 
d="M250 490q83 0 135 -55.5t52 -149.5q0 -126 -69.5 -207.5t-188.5 -81.5q-62 0 -100.5 33.5t-38.5 85.5q0 50 31.5 87.5t85 59t109.5 33t119 15.5q-5 61 -41.5 96.5t-94.5 35.5q-72 0 -129 -49l-31 37q69 60 161 60zM182 45q88 0 142 61t61 157q-60 -4 -110 -14t-92.5 -27
t-66 -43.5t-23.5 -60.5q0 -32 24.5 -52.5t64.5 -20.5z" />
    <glyph glyph-name="uni0272" unicode="&#x272;" horiz-adv-x="551" 
d="M361 490q147 0 121 -198l-39 -292h-52l38 289q20 152 -81 152q-69 0 -135.5 -70.5t-78.5 -169.5l-25 -201q-13 -107 -44.5 -154.5t-102.5 -47.5q-26 0 -49 8l9 43q17 -6 37 -6q45 0 66 33.5t32 123.5l60 485h52l-16 -132h2q37 63 92.5 100t113.5 37z" />
    <glyph glyph-name="circumflex" unicode="&#x2c6;" horiz-adv-x="466" 
d="M136 543l123 140h51l93 -140h-55l-64 104h-1l-91 -104h-56z" />
    <glyph glyph-name="caron" unicode="&#x2c7;" horiz-adv-x="466" 
d="M242 544l-88 134h52l65 -98h2l92 98h54l-126 -134h-51z" />
    <glyph glyph-name="breve" unicode="&#x2d8;" horiz-adv-x="431" 
d="M251 542q-55 0 -82 35t-23 99h43q-7 -90 64 -90q38 0 63.5 25t31.5 65h43q-11 -63 -49 -98.5t-91 -35.5z" />
    <glyph glyph-name="dotaccent" unicode="&#x2d9;" horiz-adv-x="458" 
d="M274 576q-18 0 -29 12t-11 30q0 19 12 31t30 12t30 -11.5t12 -29.5q0 -19 -12.5 -31.5t-31.5 -12.5z" />
    <glyph glyph-name="ring" unicode="&#x2da;" horiz-adv-x="425" 
d="M256 533q-35 0 -58.5 23.5t-23.5 58.5q0 37 24 60.5t61 23.5q36 0 59.5 -23t23.5 -58q0 -37 -24.5 -61t-61.5 -24zM257 570q21 0 34.5 13.5t13.5 33.5t-13 33t-33 13t-33.5 -13.5t-13.5 -33.5t12.5 -33t32.5 -13z" />
    <glyph glyph-name="ogonek" unicode="&#x2db;" horiz-adv-x="435" 
d="M200 -183q-38 0 -58 18.5t-19 52.5t27 67t65 59l41 -14q-85 -48 -87 -104q-1 -18 9.5 -29t31.5 -11q27 0 49 11l2 -38q-26 -12 -61 -12z" />
    <glyph glyph-name="tilde" unicode="&#x2dc;" horiz-adv-x="471" 
d="M347 557q-31 0 -75 39q-33 25 -50 25q-38 0 -64 -59l-36 17q36 87 96 87q30 0 68 -32t57 -32q38 0 62 60l35 -15q-17 -44 -42 -67t-51 -23z" />
    <glyph glyph-name="hungarumlaut" unicode="&#x2dd;" horiz-adv-x="474" 
d="M124 545l124 138h59l-129 -138h-54zM261 545l123 138h59l-129 -138h-53z" />
    <glyph glyph-name="gravecomb" unicode="&#x300;" 
d="M-445 545l-96 138h61l91 -138h-56z" />
    <glyph glyph-name="acutecomb" unicode="&#x301;" 
d="M-541 545l125 138h62l-129 -138h-58z" />
    <glyph glyph-name="uni0302" unicode="&#x302;" 
d="M-597 543l123 140h51l93 -140h-55l-64 104h-1l-91 -104h-56z" />
    <glyph glyph-name="tildecomb" unicode="&#x303;" 
d="M-389 557q-31 0 -75 39q-33 25 -50 25q-38 0 -64 -59l-36 17q36 87 96 87q30 0 68 -32t57 -32q38 0 62 60l35 -15q-17 -44 -42 -67t-51 -23z" />
    <glyph glyph-name="uni0304" unicode="&#x304;" 
d="M-582 593l6 46h251l-6 -46h-251z" />
    <glyph glyph-name="uni0306" unicode="&#x306;" 
d="M-466 542q-55 0 -82 35t-23 99h43q-7 -90 64 -90q38 0 63.5 25t31.5 65h43q-11 -63 -49 -98.5t-91 -35.5z" />
    <glyph glyph-name="uni0307" unicode="&#x307;" 
d="M-455 576q-18 0 -29 12t-11 30q0 19 12 31t30 12t30 -11.5t12 -29.5q0 -19 -12.5 -31.5t-31.5 -12.5z" />
    <glyph glyph-name="uni0308" unicode="&#x308;" 
d="M-532 576q-18 0 -29.5 12t-11.5 30q0 19 12 31t30 12q19 0 31 -11.5t12 -29.5q0 -19 -12.5 -31.5t-31.5 -12.5zM-380 576q-18 0 -29.5 12t-11.5 30q0 19 12 31t31 12q18 0 30 -11.5t12 -29.5q0 -19 -12.5 -31.5t-31.5 -12.5z" />
    <glyph glyph-name="hookabovecomb" unicode="&#x309;" 
d="M-450 539l-43 1q93 70 93 107q0 30 -39 30q-47 0 -85 -33l-8 35q51 37 106 37q70 0 70 -59q0 -57 -94 -118z" />
    <glyph glyph-name="uni030A" unicode="&#x30a;" 
d="M-457 538q-35 0 -58.5 23.5t-23.5 58.5q0 37 24 60.5t61 23.5q36 0 59.5 -23t23.5 -58q0 -37 -24.5 -61t-61.5 -24zM-456 575q21 0 34.5 13.5t13.5 33.5t-13 33t-33 13t-33.5 -13.5t-13.5 -33.5t12.5 -33t32.5 -13z" />
    <glyph glyph-name="uni030B" unicode="&#x30b;" 
d="M-558 545l124 138h59l-129 -138h-54zM-421 545l123 138h59l-129 -138h-53z" />
    <glyph glyph-name="uni030C" unicode="&#x30c;" 
d="M-491 544l-88 134h52l65 -98h2l92 98h54l-126 -134h-51z" />
    <glyph glyph-name="uni0312" unicode="&#x312;" 
d="M-475 540v22q0 122 105 129l9 -33q-36 -6 -52 -29t-16 -69q0 -13 1 -20h-47z" />
    <glyph glyph-name="uni0313" unicode="&#x313;" 
d="M-506 688v-22q0 -122 -105 -129l-9 33q36 6 52 29t16 69q0 13 -1 20h47z" />
    <glyph glyph-name="uni031B" unicode="&#x31b;" 
d="M-444 468q-17 0 -39 6l9 36q18 -5 29 -5q28 0 44 27t24 86l11 92h51l-13 -99q-18 -143 -116 -143z" />
    <glyph glyph-name="dotbelowcomb" unicode="&#x323;" 
d="M-548 -109q18 0 29 -12t11 -30q0 -19 -12 -31t-30 -12t-30 11.5t-12 29.5q0 19 12.5 31.5t31.5 12.5z" />
    <glyph glyph-name="uni0326" unicode="&#x326;" 
d="M-627 -206l-9 34q36 6 52 28.5t16 69.5q0 12 -1 20h47q0 -1 0.5 -7.5t0.5 -14.5q0 -121 -106 -130z" />
    <glyph glyph-name="uni0327" unicode="&#x327;" 
d="M-578 -184q-23 0 -42 4l3 34q15 -5 36 -5q30 0 48.5 13.5t18.5 39.5q0 35 -70 36l4 27l22 41h37l-24 -41l1 -1q70 -5 70 -61q0 -41 -29 -64t-75 -23z" />
    <glyph glyph-name="uni0328" unicode="&#x328;" 
d="M-588 -183q-38 0 -58 18.5t-19 52.5t27 67t65 59l41 -14q-85 -48 -87 -104q-1 -18 9.5 -29t31.5 -11q27 0 49 11l2 -38q-25 -12 -61 -12z" />
    <glyph glyph-name="uni0335" unicode="&#x335;" 
d="M-612 259l5 41h234l-5 -41h-234z" />
    <glyph glyph-name="Wgrave" unicode="&#x1e80;" horiz-adv-x="924" 
d="M497 785l-98 128l62 -1l92 -127h-56zM214 0l-119 710h57l100 -619h2l233 619h62l85 -617h3l249 617h59l-295 -710h-52l-89 624h-2l-236 -624h-57z" />
    <glyph glyph-name="wgrave" unicode="&#x1e81;" horiz-adv-x="779" 
d="M402 560l-96 138h61l91 -138h-56zM190 -5q-149 0 -122 200l38 290h52l-36 -286q-21 -155 81 -155q50 0 104.5 64.5t67.5 163.5l26 213h52l-35 -283q-11 -88 9.5 -123t64.5 -35q54 0 110 60t78 158q23 108 4 223h54q20 -128 -7 -238q-30 -124 -100 -188t-143 -64
q-58 0 -89.5 34.5t-32.5 101.5h-2q-30 -60 -80.5 -98t-93.5 -38z" />
    <glyph glyph-name="Wacute" unicode="&#x1e82;" horiz-adv-x="924" 
d="M502 788l123 127l61 1l-128 -128h-56zM214 0l-119 710h57l100 -619h2l233 619h62l85 -617h3l249 617h59l-295 -710h-52l-89 624h-2l-236 -624h-57z" />
    <glyph glyph-name="wacute" unicode="&#x1e83;" horiz-adv-x="779" 
d="M402 560l125 138h62l-129 -138h-58zM190 -5q-149 0 -122 200l38 290h52l-36 -286q-21 -155 81 -155q50 0 104.5 64.5t67.5 163.5l26 213h52l-35 -283q-11 -88 9.5 -123t64.5 -35q54 0 110 60t78 158q23 108 4 223h54q20 -128 -7 -238q-30 -124 -100 -188t-143 -64
q-58 0 -89.5 34.5t-32.5 101.5h-2q-30 -60 -80.5 -98t-93.5 -38z" />
    <glyph glyph-name="Wdieresis" unicode="&#x1e84;" horiz-adv-x="924" 
d="M460 810q-18 0 -29.5 12t-11.5 30q0 19 12 31t30 12q19 0 31 -11.5t12 -29.5q0 -19 -12.5 -31.5t-31.5 -12.5zM612 810q-18 0 -29.5 12t-11.5 30q0 19 12 31t31 12q18 0 30 -11.5t12 -29.5q0 -19 -12.5 -31.5t-31.5 -12.5zM214 0l-119 710h57l100 -619h2l233 619h62
l85 -617h3l249 617h59l-295 -710h-52l-89 624h-2l-236 -624h-57z" />
    <glyph glyph-name="wdieresis" unicode="&#x1e85;" horiz-adv-x="779" 
d="M369 591q-18 0 -29.5 12t-11.5 30q0 19 12 31t30 12q19 0 31 -11.5t12 -29.5q0 -19 -12.5 -31.5t-31.5 -12.5zM521 591q-18 0 -29.5 12t-11.5 30q0 19 12 31t31 12q18 0 30 -11.5t12 -29.5q0 -19 -12.5 -31.5t-31.5 -12.5zM190 -5q-149 0 -122 200l38 290h52l-36 -286
q-21 -155 81 -155q50 0 104.5 64.5t67.5 163.5l26 213h52l-35 -283q-11 -88 9.5 -123t64.5 -35q54 0 110 60t78 158q23 108 4 223h54q20 -128 -7 -238q-30 -124 -100 -188t-143 -64q-58 0 -89.5 34.5t-32.5 101.5h-2q-30 -60 -80.5 -98t-93.5 -38z" />
    <glyph glyph-name="uni1E9E" unicode="&#x1e9e;" horiz-adv-x="707" 
d="M502 387q4 -2 30 -17t31 -18t26.5 -16.5t27.5 -20t21.5 -20t20.5 -23.5t13 -25t10.5 -30.5t2.5 -33.5q0 -86 -61.5 -137t-160.5 -51q-141 0 -218 99l39 41q71 -88 181 -88q73 0 117 37t44 98q0 28 -10.5 51t-34 42.5t-44 31.5t-55.5 30q-46 24 -84 49l167 254l-1 4
q-100 19 -182 19q-95 0 -144.5 -39t-59.5 -124l-61 -500h-56l61 504q26 211 258 211q124 0 269 -37l-180 -273q3 -1 14 -7t19 -11z" />
    <glyph glyph-name="uni1EA0" unicode="&#x1ea0;" horiz-adv-x="610" 
d="M1 0l330 710h60l159 -710h-58l-41 191h-304l-88 -191h-58zM169 242h272l-87 397h-2zM264 -109q18 0 29 -12t11 -30q0 -19 -12 -31t-30 -12t-30 11.5t-12 29.5q0 19 12.5 31.5t31.5 12.5z" />
    <glyph glyph-name="uni1EA1" unicode="&#x1ea1;" horiz-adv-x="550" 
d="M215 -5q-79 0 -123 55t-44 139q0 124 69 212.5t179 88.5q98 0 146 -56l2 1l6 50h52l-59 -485h-52l16 132h-2q-34 -63 -83 -100t-107 -37zM223 43q75 0 133 76.5t72 183.5l10 77q-24 32 -64.5 47t-76.5 15q-87 0 -141.5 -75.5t-54.5 -178.5q0 -65 32 -105t90 -40z
M234 -109q18 0 29 -12t11 -30q0 -19 -12 -31t-30 -12t-30 11.5t-12 29.5q0 19 12.5 31.5t31.5 12.5z" />
    <glyph glyph-name="uni1EA2" unicode="&#x1ea2;" horiz-adv-x="610" 
d="M389 791l-43 1q93 70 93 107q0 30 -39 30q-47 0 -85 -33l-8 35q51 37 106 37q70 0 70 -59q0 -57 -94 -118zM1 0l330 710h60l159 -710h-58l-41 191h-304l-88 -191h-58zM169 242h272l-87 397h-2z" />
    <glyph glyph-name="uni1EA3" unicode="&#x1ea3;" horiz-adv-x="550" 
d="M353 554l-43 1q93 70 93 107q0 30 -39 30q-47 0 -85 -33l-8 35q51 37 106 37q70 0 70 -59q0 -57 -94 -118zM215 -5q-79 0 -123 55t-44 139q0 124 69 212.5t179 88.5q98 0 146 -56l2 1l6 50h52l-59 -485h-52l16 132h-2q-34 -63 -83 -100t-107 -37zM223 43q75 0 133 76.5
t72 183.5l10 77q-24 32 -64.5 47t-76.5 15q-87 0 -141.5 -75.5t-54.5 -178.5q0 -65 32 -105t90 -40z" />
    <glyph glyph-name="uni1EA4" unicode="&#x1ea4;" horiz-adv-x="610" 
d="M498 848l121 135h61l-136 -135h-46zM238 788l126 118h52l90 -118h-54l-65 83h-3l-91 -83h-55zM1 0l330 710h60l159 -710h-58l-41 191h-304l-88 -191h-58zM169 242h272l-87 397h-2z" />
    <glyph glyph-name="uni1EA5" unicode="&#x1ea5;" horiz-adv-x="550" 
d="M443 642l120 138h61l-135 -138h-46zM207 558l123 140h51l93 -140h-55l-64 104h-1l-91 -104h-56zM215 -5q-79 0 -123 55t-44 139q0 124 69 212.5t179 88.5q98 0 146 -56l2 1l6 50h52l-59 -485h-52l16 132h-2q-34 -63 -83 -100t-107 -37zM223 43q75 0 133 76.5t72 183.5
l10 77q-24 32 -64.5 47t-76.5 15q-87 0 -141.5 -75.5t-54.5 -178.5q0 -65 32 -105t90 -40z" />
    <glyph glyph-name="uni1EA6" unicode="&#x1ea6;" horiz-adv-x="610" 
d="M533 847l-96 134h57l82 -134h-43zM238 788l126 118h52l90 -118h-54l-65 83h-3l-91 -83h-55zM1 0l330 710h60l159 -710h-58l-41 191h-304l-88 -191h-58zM169 242h272l-87 397h-2z" />
    <glyph glyph-name="uni1EA7" unicode="&#x1ea7;" horiz-adv-x="550" 
d="M484 643l-96 138h57l83 -138h-44zM205 558l123 140h51l93 -140h-55l-64 104h-1l-91 -104h-56zM215 -5q-79 0 -123 55t-44 139q0 124 69 212.5t179 88.5q98 0 146 -56l2 1l6 50h52l-59 -485h-52l16 132h-2q-34 -63 -83 -100t-107 -37zM223 43q75 0 133 76.5t72 183.5
l10 77q-24 32 -64.5 47t-76.5 15q-87 0 -141.5 -75.5t-54.5 -178.5q0 -65 32 -105t90 -40z" />
    <glyph glyph-name="uni1EA8" unicode="&#x1ea8;" horiz-adv-x="610" 
d="M541 851l-40 1q4 3 20.5 14.5t23.5 17t18.5 16t16 19.5t4.5 18q0 27 -37 27q-44 0 -80 -28l-8 31q54 33 101 33q29 0 47.5 -13.5t18.5 -40.5q0 -48 -85 -95zM238 788l126 118h52l90 -118h-54l-65 83h-3l-91 -83h-55zM1 0l330 710h60l159 -710h-58l-41 191h-304l-88 -191
h-58zM169 242h272l-87 397h-2z" />
    <glyph glyph-name="uni1EA9" unicode="&#x1ea9;" horiz-adv-x="550" 
d="M505 641l-41 1q89 65 89 102q0 29 -38 29q-44 0 -81 -32l-8 33q47 36 102 36q67 0 67 -57q0 -53 -90 -112zM206 558l123 140h51l93 -140h-55l-64 104h-1l-91 -104h-56zM215 -5q-79 0 -123 55t-44 139q0 124 69 212.5t179 88.5q98 0 146 -56l2 1l6 50h52l-59 -485h-52
l16 132h-2q-34 -63 -83 -100t-107 -37zM223 43q75 0 133 76.5t72 183.5l10 77q-24 32 -64.5 47t-76.5 15q-87 0 -141.5 -75.5t-54.5 -178.5q0 -65 32 -105t90 -40z" />
    <glyph glyph-name="uni1EAA" unicode="&#x1eaa;" horiz-adv-x="610" 
d="M468 924q-8 0 -16 2t-13 4t-13.5 7.5t-11 7t-11.5 9.5l-9 7q-32 26 -50 26q-37 0 -61 -58l-36 17q38 82 93 82q32 0 68 -32q4 -3 11 -8.5t11.5 -8.5l10.5 -7t11.5 -5.5t11.5 -1.5q37 0 61 59l34 -15q-17 -41 -41.5 -63t-49.5 -22zM238 788l126 118h52l90 -118h-54l-65 83
h-3l-91 -83h-55zM1 0l330 710h60l159 -710h-58l-41 191h-304l-88 -191h-58zM169 242h272l-87 397h-2z" />
    <glyph glyph-name="uni1EAB" unicode="&#x1eab;" horiz-adv-x="550" 
d="M435 742q-29 0 -71 38q-29 25 -50 25q-37 0 -62 -58l-34 17q36 84 93 84q29 0 68 -31q2 -2 10 -9t11.5 -9.5t10 -7t12 -6t11.5 -1.5q35 0 60 60l33 -15q-17 -42 -41.5 -64.5t-50.5 -22.5zM208 558l123 140h51l93 -140h-55l-64 104h-1l-91 -104h-56zM215 -5q-79 0 -123 55
t-44 139q0 124 69 212.5t179 88.5q98 0 146 -56l2 1l6 50h52l-59 -485h-52l16 132h-2q-34 -63 -83 -100t-107 -37zM223 43q75 0 133 76.5t72 183.5l10 77q-24 32 -64.5 47t-76.5 15q-87 0 -141.5 -75.5t-54.5 -178.5q0 -65 32 -105t90 -40z" />
    <glyph glyph-name="uni1EAC" unicode="&#x1eac;" horiz-adv-x="610" 
d="M238 788l126 118h52l90 -118h-54l-65 83h-3l-91 -83h-55zM1 0l330 710h60l159 -710h-58l-41 191h-304l-88 -191h-58zM169 242h272l-87 397h-2zM264 -109q18 0 29 -12t11 -30q0 -19 -12 -31t-30 -12t-30 11.5t-12 29.5q0 19 12.5 31.5t31.5 12.5z" />
    <glyph glyph-name="uni1EAD" unicode="&#x1ead;" horiz-adv-x="550" 
d="M206 558l123 140h51l93 -140h-55l-64 104h-1l-91 -104h-56zM215 -5q-79 0 -123 55t-44 139q0 124 69 212.5t179 88.5q98 0 146 -56l2 1l6 50h52l-59 -485h-52l16 132h-2q-34 -63 -83 -100t-107 -37zM223 43q75 0 133 76.5t72 183.5l10 77q-24 32 -64.5 47t-76.5 15
q-87 0 -141.5 -75.5t-54.5 -178.5q0 -65 32 -105t90 -40zM234 -109q18 0 29 -12t11 -30q0 -19 -12 -31t-30 -12t-30 11.5t-12 29.5q0 19 12.5 31.5t31.5 12.5z" />
    <glyph glyph-name="uni1EAE" unicode="&#x1eae;" horiz-adv-x="610" 
d="M366 890l121 134l60 1l-136 -135h-45zM375 780q-58 0 -87 30t-24 82l45 -1q-3 -31 13 -51.5t54 -20.5q39 0 66.5 21.5t35.5 51.5l45 -1q-11 -50 -52.5 -80.5t-95.5 -30.5zM1 0l330 710h60l159 -710h-58l-41 191h-304l-88 -191h-58zM169 242h272l-87 397h-2z" />
    <glyph glyph-name="uni1EAF" unicode="&#x1eaf;" horiz-adv-x="550" 
d="M329 698l120 138h61l-135 -138h-46zM336 557q-55 0 -82 35t-23 99h43q-7 -90 64 -90q38 0 63.5 25t31.5 65h43q-11 -63 -49 -98.5t-91 -35.5zM215 -5q-79 0 -123 55t-44 139q0 124 69 212.5t179 88.5q98 0 146 -56l2 1l6 50h52l-59 -485h-52l16 132h-2q-34 -63 -83 -100
t-107 -37zM223 43q75 0 133 76.5t72 183.5l10 77q-24 32 -64.5 47t-76.5 15q-87 0 -141.5 -75.5t-54.5 -178.5q0 -65 32 -105t90 -40z" />
    <glyph glyph-name="uni1EB0" unicode="&#x1eb0;" horiz-adv-x="610" 
d="M370 890l-96 134h57l83 -134h-44zM375 780q-58 0 -87 30t-24 82l45 -1q-3 -31 13 -51.5t54 -20.5q39 0 66.5 21.5t35.5 51.5l45 -1q-11 -50 -52.5 -80.5t-95.5 -30.5zM1 0l330 710h60l159 -710h-58l-41 191h-304l-88 -191h-58zM169 242h272l-87 397h-2z" />
    <glyph glyph-name="uni1EB1" unicode="&#x1eb1;" horiz-adv-x="550" 
d="M338 698l-96 138h57l83 -138h-44zM337 557q-55 0 -82 35t-23 99h43q-7 -90 64 -90q38 0 63.5 25t31.5 65h43q-11 -63 -49 -98.5t-91 -35.5zM215 -5q-79 0 -123 55t-44 139q0 124 69 212.5t179 88.5q98 0 146 -56l2 1l6 50h52l-59 -485h-52l16 132h-2q-34 -63 -83 -100
t-107 -37zM223 43q75 0 133 76.5t72 183.5l10 77q-24 32 -64.5 47t-76.5 15q-87 0 -141.5 -75.5t-54.5 -178.5q0 -65 32 -105t90 -40z" />
    <glyph glyph-name="uni1EB2" unicode="&#x1eb2;" horiz-adv-x="610" 
d="M401 890l-39 1q3 2 14.5 10t16 11.5t14.5 10.5t14.5 12t10 12t8 13.5t2.5 13.5q0 26 -36 26q-39 0 -76 -27l-7 30q48 32 96 32q63 0 63 -52q0 -50 -81 -93zM375 780q-58 0 -87 30t-24 82l45 -1q-3 -31 13 -51.5t54 -20.5q39 0 66.5 21.5t35.5 51.5l45 -1
q-11 -50 -52.5 -80.5t-95.5 -30.5zM1 0l330 710h60l159 -710h-58l-41 191h-304l-88 -191h-58zM169 242h272l-87 397h-2z" />
    <glyph glyph-name="uni1EB3" unicode="&#x1eb3;" horiz-adv-x="550" 
d="M364 682l-41 1q89 65 89 102q0 29 -38 29q-44 0 -81 -32l-8 33q47 36 102 36q67 0 67 -57q0 -53 -90 -112zM337 558q-55 0 -83 34t-23 97h44q-7 -88 64 -88q39 0 65 24.5t32 63.5h43q-11 -61 -50 -96t-92 -35zM215 -5q-79 0 -123 55t-44 139q0 124 69 212.5t179 88.5
q98 0 146 -56l2 1l6 50h52l-59 -485h-52l16 132h-2q-34 -63 -83 -100t-107 -37zM223 43q75 0 133 76.5t72 183.5l10 77q-24 32 -64.5 47t-76.5 15q-87 0 -141.5 -75.5t-54.5 -178.5q0 -65 32 -105t90 -40z" />
    <glyph glyph-name="uni1EB4" unicode="&#x1eb4;" horiz-adv-x="610" 
d="M468 913q-8 0 -16 2t-13 4t-13.5 7.5t-11 7t-11.5 8.5l-9 8q-32 26 -50 26q-37 0 -61 -58l-36 17q38 82 93 82q32 0 68 -32q4 -3 11 -8.5t11.5 -8.5l10.5 -7t11.5 -5.5t11.5 -1.5q37 0 61 59l34 -15q-17 -41 -41.5 -63t-49.5 -22zM375 780q-58 0 -87 30t-24 82l45 -1
q-3 -31 13 -51.5t54 -20.5q39 0 66.5 21.5t35.5 51.5l45 -1q-11 -50 -52.5 -80.5t-95.5 -30.5zM1 0l330 710h60l159 -710h-58l-41 191h-304l-88 -191h-58zM169 242h272l-87 397h-2z" />
    <glyph glyph-name="uni1EB5" unicode="&#x1eb5;" horiz-adv-x="550" 
d="M435 746q-29 0 -71 38q-29 25 -50 25q-37 0 -62 -58l-34 17q36 84 93 84q29 0 68 -31q2 -2 10 -9t11.5 -9.5t10 -7t12 -6t11.5 -1.5q35 0 60 60l33 -15q-17 -42 -41.5 -64.5t-50.5 -22.5zM337 557q-55 0 -82 35t-23 99h43q-7 -90 64 -90q38 0 63.5 25t31.5 65h43
q-11 -63 -49 -98.5t-91 -35.5zM215 -5q-79 0 -123 55t-44 139q0 124 69 212.5t179 88.5q98 0 146 -56l2 1l6 50h52l-59 -485h-52l16 132h-2q-34 -63 -83 -100t-107 -37zM223 43q75 0 133 76.5t72 183.5l10 77q-24 32 -64.5 47t-76.5 15q-87 0 -141.5 -75.5t-54.5 -178.5
q0 -65 32 -105t90 -40z" />
    <glyph glyph-name="uni1EB6" unicode="&#x1eb6;" horiz-adv-x="610" 
d="M373 783q-55 0 -82.5 33t-22.5 91l43 -1q-3 -34 12 -56.5t51 -22.5q37 0 63 23.5t33 56.5l43 -1q-11 -55 -50 -89t-90 -34zM1 0l330 710h60l159 -710h-58l-41 191h-304l-88 -191h-58zM169 242h272l-87 397h-2zM264 -109q18 0 29 -12t11 -30q0 -19 -12 -31t-30 -12
t-30 11.5t-12 29.5q0 19 12.5 31.5t31.5 12.5z" />
    <glyph glyph-name="uni1EB7" unicode="&#x1eb7;" horiz-adv-x="550" 
d="M337 557q-55 0 -82 35t-23 99h43q-7 -90 64 -90q38 0 63.5 25t31.5 65h43q-11 -63 -49 -98.5t-91 -35.5zM215 -5q-79 0 -123 55t-44 139q0 124 69 212.5t179 88.5q98 0 146 -56l2 1l6 50h52l-59 -485h-52l16 132h-2q-34 -63 -83 -100t-107 -37zM223 43q75 0 133 76.5
t72 183.5l10 77q-24 32 -64.5 47t-76.5 15q-87 0 -141.5 -75.5t-54.5 -178.5q0 -65 32 -105t90 -40zM234 -109q18 0 29 -12t11 -30q0 -19 -12 -31t-30 -12t-30 11.5t-12 29.5q0 19 12.5 31.5t31.5 12.5z" />
    <glyph glyph-name="uni1EB8" unicode="&#x1eb8;" horiz-adv-x="579" 
d="M71 0l87 710h415l-7 -52h-360l-33 -278h328l-7 -52h-328l-34 -276h374l-7 -52h-428zM278 -109q18 0 29 -12t11 -30q0 -19 -12 -31t-30 -12t-30 11.5t-12 29.5q0 19 12.5 31.5t31.5 12.5z" />
    <glyph glyph-name="uni1EB9" unicode="&#x1eb9;" horiz-adv-x="474" 
d="M248 45q80 0 142 65l36 -36q-75 -78 -181 -78q-89 0 -143 53.5t-54 155.5q0 117 70.5 201t182.5 84q60 0 104.5 -28t44.5 -88q0 -160 -349 -184q4 -68 44.5 -106.5t102.5 -38.5zM301 442q-78 0 -135 -58.5t-65 -149.5q295 22 295 135q0 39 -28.5 56t-66.5 17zM222 -109
q18 0 29 -12t11 -30q0 -19 -12 -31t-30 -12t-30 11.5t-12 29.5q0 19 12.5 31.5t31.5 12.5z" />
    <glyph glyph-name="uni1EBA" unicode="&#x1eba;" horiz-adv-x="579" 
d="M398 783l-43 1q3 2 22 15.5t25.5 19t19.5 17t17.5 21t4.5 19.5q0 29 -40 29q-46 0 -85 -30l-8 33q54 36 107 36q31 0 50.5 -14.5t19.5 -43.5q0 -54 -90 -103zM71 0l87 710h415l-7 -52h-360l-33 -278h328l-7 -52h-328l-34 -276h374l-7 -52h-428z" />
    <glyph glyph-name="uni1EBB" unicode="&#x1ebb;" horiz-adv-x="474" 
d="M326 692q-47 0 -85 -33l-8 35q51 37 106 37q70 0 70 -59q0 -57 -94 -118l-43 1q93 70 93 107q0 30 -39 30zM248 45q80 0 142 65l36 -36q-75 -78 -181 -78q-89 0 -143 53.5t-54 155.5q0 117 70.5 201t182.5 84q60 0 104.5 -28t44.5 -88q0 -160 -349 -184
q4 -68 44.5 -106.5t102.5 -38.5zM301 442q-78 0 -135 -58.5t-65 -149.5q295 22 295 135q0 39 -28.5 56t-66.5 17z" />
    <glyph glyph-name="uni1EBC" unicode="&#x1ebc;" horiz-adv-x="579" 
d="M460 790q-30 0 -75 38q-33 26 -51 26q-37 0 -63 -59l-36 17q37 84 95 84q33 0 69 -32q2 -2 9 -7.5t10 -7.5t9 -6.5t10 -6t9 -3t10 -1.5q38 0 62 60l35 -15q-17 -42 -42 -64.5t-51 -22.5zM71 0l87 710h415l-7 -52h-360l-33 -278h328l-7 -52h-328l-34 -276h374l-7 -52h-428
z" />
    <glyph glyph-name="uni1EBD" unicode="&#x1ebd;" horiz-adv-x="474" 
d="M251 636q-38 0 -64 -59l-36 17q36 87 96 87q30 0 68 -32t57 -32q38 0 62 60l35 -15q-17 -44 -42 -67t-51 -23q-31 0 -75 39q-33 25 -50 25zM450 374q0 -160 -349 -184q4 -68 44.5 -106.5t102.5 -38.5q80 0 142 65l36 -36q-75 -78 -181 -78q-89 0 -143 53.5t-54 155.5
q0 117 70.5 201t182.5 84q60 0 104.5 -28t44.5 -88zM101 234q295 22 295 135q0 39 -28.5 56t-66.5 17q-78 0 -135 -58.5t-65 -149.5z" />
    <glyph glyph-name="uni1EBE" unicode="&#x1ebe;" horiz-adv-x="579" 
d="M508 850l121 135h61l-136 -135h-46zM248 790l126 118h52l90 -118h-54l-65 83h-3l-91 -83h-55zM71 0l87 710h415l-7 -52h-360l-33 -278h328l-7 -52h-328l-34 -276h374l-7 -52h-428z" />
    <glyph glyph-name="uni1EBF" unicode="&#x1ebf;" horiz-adv-x="474" 
d="M525 780h61l-135 -138h-46zM316 662l-91 -104h-56l123 140h51l93 -140h-55l-64 104h-1zM450 374q0 -160 -349 -184q4 -68 44.5 -106.5t102.5 -38.5q80 0 142 65l36 -36q-75 -78 -181 -78q-89 0 -143 53.5t-54 155.5q0 117 70.5 201t182.5 84q60 0 104.5 -28t44.5 -88z
M101 234q295 22 295 135q0 39 -28.5 56t-66.5 17q-78 0 -135 -58.5t-65 -149.5z" />
    <glyph glyph-name="uni1EC0" unicode="&#x1ec0;" horiz-adv-x="579" 
d="M543 849l-96 134h57l82 -134h-43zM248 790l126 118h52l90 -118h-54l-65 83h-3l-91 -83h-55zM71 0l87 710h415l-7 -52h-360l-33 -278h328l-7 -52h-328l-34 -276h374l-7 -52h-428z" />
    <glyph glyph-name="uni1EC1" unicode="&#x1ec1;" horiz-adv-x="474" 
d="M490 643h-44l-96 138h57zM314 662l-91 -104h-56l123 140h51l93 -140h-55l-64 104h-1zM450 374q0 -160 -349 -184q4 -68 44.5 -106.5t102.5 -38.5q80 0 142 65l36 -36q-75 -78 -181 -78q-89 0 -143 53.5t-54 155.5q0 117 70.5 201t182.5 84q60 0 104.5 -28t44.5 -88z
M101 234q295 22 295 135q0 39 -28.5 56t-66.5 17q-78 0 -135 -58.5t-65 -149.5z" />
    <glyph glyph-name="uni1EC2" unicode="&#x1ec2;" horiz-adv-x="579" 
d="M551 853l-40 1q4 3 20.5 14.5t23.5 17t18.5 16t16 19.5t4.5 18q0 27 -37 27q-44 0 -80 -28l-8 31q54 33 101 33q29 0 47.5 -13.5t18.5 -40.5q0 -48 -85 -95zM248 790l126 118h52l90 -118h-54l-65 83h-3l-91 -83h-55zM71 0l87 710h415l-7 -52h-360l-33 -278h328l-7 -52
h-328l-34 -276h374l-7 -52h-428z" />
    <glyph glyph-name="uni1EC3" unicode="&#x1ec3;" horiz-adv-x="474" 
d="M490 810q67 0 67 -57q0 -53 -90 -112l-41 1q89 65 89 102q0 29 -38 29q-44 0 -81 -32l-8 33q47 36 102 36zM315 662l-91 -104h-56l123 140h51l93 -140h-55l-64 104h-1zM450 374q0 -160 -349 -184q4 -68 44.5 -106.5t102.5 -38.5q80 0 142 65l36 -36q-75 -78 -181 -78
q-89 0 -143 53.5t-54 155.5q0 117 70.5 201t182.5 84q60 0 104.5 -28t44.5 -88zM101 234q295 22 295 135q0 39 -28.5 56t-66.5 17q-78 0 -135 -58.5t-65 -149.5z" />
    <glyph glyph-name="uni1EC4" unicode="&#x1ec4;" horiz-adv-x="579" 
d="M478 926q-8 0 -16 2t-13 4t-13.5 7.5t-11 7t-11.5 9.5l-9 7q-32 26 -50 26q-37 0 -61 -58l-36 17q38 82 93 82q32 0 68 -32q4 -3 11 -8.5t11.5 -8.5l10.5 -7t11.5 -5.5t11.5 -1.5q37 0 61 59l34 -15q-17 -41 -41.5 -63t-49.5 -22zM248 790l126 118h52l90 -118h-54l-65 83
h-3l-91 -83h-55zM71 0l87 710h415l-7 -52h-360l-33 -278h328l-7 -52h-328l-34 -276h374l-7 -52h-428z" />
    <glyph glyph-name="uni1EC5" unicode="&#x1ec5;" horiz-adv-x="474" 
d="M456 844l33 -15q-17 -42 -41.5 -64.5t-50.5 -22.5q-29 0 -71 38q-29 25 -50 25q-37 0 -62 -58l-34 17q36 84 93 84q29 0 68 -31q2 -2 10 -9t11.5 -9.5t10 -7t12 -6t11.5 -1.5q35 0 60 60zM318 662h-1l-91 -104h-56l123 140h51l93 -140h-55zM450 374q0 -160 -349 -184
q4 -68 44.5 -106.5t102.5 -38.5q80 0 142 65l36 -36q-75 -78 -181 -78q-89 0 -143 53.5t-54 155.5q0 117 70.5 201t182.5 84q60 0 104.5 -28t44.5 -88zM101 234q295 22 295 135q0 39 -28.5 56t-66.5 17q-78 0 -135 -58.5t-65 -149.5z" />
    <glyph glyph-name="uni1EC6" unicode="&#x1ec6;" horiz-adv-x="579" 
d="M248 790l126 118h52l90 -118h-54l-65 83h-3l-91 -83h-55zM71 0l87 710h415l-7 -52h-360l-33 -278h328l-7 -52h-328l-34 -276h374l-7 -52h-428zM278 -109q18 0 29 -12t11 -30q0 -19 -12 -31t-30 -12t-30 11.5t-12 29.5q0 19 12.5 31.5t31.5 12.5z" />
    <glyph glyph-name="uni1EC7" unicode="&#x1ec7;" horiz-adv-x="474" 
d="M315 662l-91 -104h-56l123 140h51l93 -140h-55l-64 104h-1zM248 45q80 0 142 65l36 -36q-75 -78 -181 -78q-89 0 -143 53.5t-54 155.5q0 117 70.5 201t182.5 84q60 0 104.5 -28t44.5 -88q0 -160 -349 -184q4 -68 44.5 -106.5t102.5 -38.5zM301 442q-78 0 -135 -58.5
t-65 -149.5q295 22 295 135q0 39 -28.5 56t-66.5 17zM222 -109q18 0 29 -12t11 -30q0 -19 -12 -31t-30 -12t-30 11.5t-12 29.5q0 19 12.5 31.5t31.5 12.5z" />
    <glyph glyph-name="uni1EC8" unicode="&#x1ec8;" horiz-adv-x="268" 
d="M216 781l-43 1q3 2 22 15.5t25.5 19t19.5 17t17.5 21t4.5 19.5q0 29 -40 29q-46 0 -85 -30l-8 33q54 36 107 36q31 0 50.5 -14.5t19.5 -43.5q0 -54 -90 -103zM76 0l87 710h57l-87 -710h-57z" />
    <glyph glyph-name="uni1EC9" unicode="&#x1ec9;" horiz-adv-x="235" 
d="M171 554l-43 1q93 70 93 107q0 30 -39 30q-47 0 -85 -33l-8 35q51 37 106 37q70 0 70 -59q0 -57 -94 -118zM62 0l59 485h52l-60 -485h-51z" />
    <glyph glyph-name="uni1ECA" unicode="&#x1eca;" horiz-adv-x="268" 
d="M76 0l87 710h57l-87 -710h-57zM88 -109q18 0 29 -12t11 -30q0 -19 -12 -31t-30 -12t-30 11.5t-12 29.5q0 19 12.5 31.5t31.5 12.5z" />
    <glyph glyph-name="uni1ECB" unicode="&#x1ecb;" horiz-adv-x="235" 
d="M166 591q-18 0 -29 12t-11 30q0 19 12 31t30 12t30 -11.5t12 -29.5q0 -19 -12.5 -31.5t-31.5 -12.5zM62 0l59 485h52l-60 -485h-51zM71 -109q18 0 29 -12t11 -30q0 -19 -12 -31t-30 -12t-30 11.5t-12 29.5q0 19 12.5 31.5t31.5 12.5z" />
    <glyph glyph-name="uni1ECC" unicode="&#x1ecc;" horiz-adv-x="763" 
d="M353 -5q-127 0 -203 79t-76 218q0 112 44.5 208t129 155.5t190.5 59.5q127 0 202.5 -78t75.5 -218q0 -114 -43 -210t-127 -155t-193 -59zM356 48q134 0 218 109t84 261q0 118 -59.5 181.5t-165.5 63.5q-131 0 -216 -111t-85 -259q0 -116 60 -180.5t164 -64.5zM336 -109
q18 0 29 -12t11 -30q0 -19 -12 -31t-30 -12t-30 11.5t-12 29.5q0 19 12.5 31.5t31.5 12.5z" />
    <glyph glyph-name="uni1ECD" unicode="&#x1ecd;" horiz-adv-x="546" 
d="M245 -5q-89 0 -143 53.5t-54 150.5q0 122 69.5 206.5t185.5 84.5q89 0 142 -52.5t53 -148.5q0 -126 -68.5 -210t-184.5 -84zM247 44q87 0 142.5 68t55.5 173q0 78 -39.5 117.5t-104.5 39.5q-87 0 -143.5 -68.5t-56.5 -170.5q0 -78 40.5 -118.5t105.5 -40.5zM227 -109
q18 0 29 -12t11 -30q0 -19 -12 -31t-30 -12t-30 11.5t-12 29.5q0 19 12.5 31.5t31.5 12.5z" />
    <glyph glyph-name="uni1ECE" unicode="&#x1ece;" horiz-adv-x="763" 
d="M482 781l-43 1q3 2 22 15.5t25.5 19t19.5 17t17.5 21t4.5 19.5q0 29 -40 29q-46 0 -85 -30l-8 33q54 36 107 36q31 0 50.5 -14.5t19.5 -43.5q0 -54 -90 -103zM353 -5q-127 0 -203 79t-76 218q0 112 44.5 208t129 155.5t190.5 59.5q127 0 202.5 -78t75.5 -218
q0 -114 -43 -210t-127 -155t-193 -59zM356 48q134 0 218 109t84 261q0 118 -59.5 181.5t-165.5 63.5q-131 0 -216 -111t-85 -259q0 -116 60 -180.5t164 -64.5z" />
    <glyph glyph-name="uni1ECF" unicode="&#x1ecf;" horiz-adv-x="546" 
d="M333 554l-43 1q93 70 93 107q0 30 -39 30q-47 0 -85 -33l-8 35q51 37 106 37q70 0 70 -59q0 -57 -94 -118zM245 -5q-89 0 -143 53.5t-54 150.5q0 122 69.5 206.5t185.5 84.5q89 0 142 -52.5t53 -148.5q0 -126 -68.5 -210t-184.5 -84zM247 44q87 0 142.5 68t55.5 173
q0 78 -39.5 117.5t-104.5 39.5q-87 0 -143.5 -68.5t-56.5 -170.5q0 -78 40.5 -118.5t105.5 -40.5z" />
    <glyph glyph-name="uni1ED0" unicode="&#x1ed0;" horiz-adv-x="763" 
d="M592 848l121 135h61l-136 -135h-46zM332 788l126 118h52l90 -118h-54l-65 83h-3l-91 -83h-55zM353 -5q-127 0 -203 79t-76 218q0 112 44.5 208t129 155.5t190.5 59.5q127 0 202.5 -78t75.5 -218q0 -114 -43 -210t-127 -155t-193 -59zM356 48q134 0 218 109t84 261
q0 118 -59.5 181.5t-165.5 63.5q-131 0 -216 -111t-85 -259q0 -116 60 -180.5t164 -64.5z" />
    <glyph glyph-name="uni1ED1" unicode="&#x1ed1;" horiz-adv-x="546" 
d="M423 642l120 138h61l-135 -138h-46zM187 558l123 140h51l93 -140h-55l-64 104h-1l-91 -104h-56zM245 -5q-89 0 -143 53.5t-54 150.5q0 122 69.5 206.5t185.5 84.5q89 0 142 -52.5t53 -148.5q0 -126 -68.5 -210t-184.5 -84zM247 44q87 0 142.5 68t55.5 173
q0 78 -39.5 117.5t-104.5 39.5q-87 0 -143.5 -68.5t-56.5 -170.5q0 -78 40.5 -118.5t105.5 -40.5z" />
    <glyph glyph-name="uni1ED2" unicode="&#x1ed2;" horiz-adv-x="763" 
d="M627 847l-96 134h57l82 -134h-43zM332 788l126 118h52l90 -118h-54l-65 83h-3l-91 -83h-55zM353 -5q-127 0 -203 79t-76 218q0 112 44.5 208t129 155.5t190.5 59.5q127 0 202.5 -78t75.5 -218q0 -114 -43 -210t-127 -155t-193 -59zM356 48q134 0 218 109t84 261
q0 118 -59.5 181.5t-165.5 63.5q-131 0 -216 -111t-85 -259q0 -116 60 -180.5t164 -64.5z" />
    <glyph glyph-name="uni1ED3" unicode="&#x1ed3;" horiz-adv-x="546" 
d="M464 643l-96 138h57l83 -138h-44zM185 558l123 140h51l93 -140h-55l-64 104h-1l-91 -104h-56zM245 -5q-89 0 -143 53.5t-54 150.5q0 122 69.5 206.5t185.5 84.5q89 0 142 -52.5t53 -148.5q0 -126 -68.5 -210t-184.5 -84zM247 44q87 0 142.5 68t55.5 173q0 78 -39.5 117.5
t-104.5 39.5q-87 0 -143.5 -68.5t-56.5 -170.5q0 -78 40.5 -118.5t105.5 -40.5z" />
    <glyph glyph-name="uni1ED4" unicode="&#x1ed4;" horiz-adv-x="763" 
d="M635 851l-40 1q4 3 20.5 14.5t23.5 17t18.5 16t16 19.5t4.5 18q0 27 -37 27q-44 0 -80 -28l-8 31q54 33 101 33q29 0 47.5 -13.5t18.5 -40.5q0 -48 -85 -95zM332 788l126 118h52l90 -118h-54l-65 83h-3l-91 -83h-55zM353 -5q-127 0 -203 79t-76 218q0 112 44.5 208
t129 155.5t190.5 59.5q127 0 202.5 -78t75.5 -218q0 -114 -43 -210t-127 -155t-193 -59zM356 48q134 0 218 109t84 261q0 118 -59.5 181.5t-165.5 63.5q-131 0 -216 -111t-85 -259q0 -116 60 -180.5t164 -64.5z" />
    <glyph glyph-name="uni1ED5" unicode="&#x1ed5;" horiz-adv-x="546" 
d="M485 641l-41 1q89 65 89 102q0 29 -38 29q-44 0 -81 -32l-8 33q47 36 102 36q67 0 67 -57q0 -53 -90 -112zM186 558l123 140h51l93 -140h-55l-64 104h-1l-91 -104h-56zM245 -5q-89 0 -143 53.5t-54 150.5q0 122 69.5 206.5t185.5 84.5q89 0 142 -52.5t53 -148.5
q0 -126 -68.5 -210t-184.5 -84zM247 44q87 0 142.5 68t55.5 173q0 78 -39.5 117.5t-104.5 39.5q-87 0 -143.5 -68.5t-56.5 -170.5q0 -78 40.5 -118.5t105.5 -40.5z" />
    <glyph glyph-name="uni1ED6" unicode="&#x1ed6;" horiz-adv-x="763" 
d="M562 924q-8 0 -16 2t-13 4t-13.5 7.5t-11 7t-11.5 9.5l-9 7q-32 26 -50 26q-37 0 -61 -58l-36 17q38 82 93 82q32 0 68 -32q4 -3 11 -8.5t11.5 -8.5l10.5 -7t11.5 -5.5t11.5 -1.5q37 0 61 59l34 -15q-17 -41 -41.5 -63t-49.5 -22zM332 788l126 118h52l90 -118h-54l-65 83
h-3l-91 -83h-55zM353 -5q-127 0 -203 79t-76 218q0 112 44.5 208t129 155.5t190.5 59.5q127 0 202.5 -78t75.5 -218q0 -114 -43 -210t-127 -155t-193 -59zM356 48q134 0 218 109t84 261q0 118 -59.5 181.5t-165.5 63.5q-131 0 -216 -111t-85 -259q0 -116 60 -180.5
t164 -64.5z" />
    <glyph glyph-name="uni1ED7" unicode="&#x1ed7;" horiz-adv-x="546" 
d="M415 742q-29 0 -71 38q-29 25 -50 25q-37 0 -62 -58l-34 17q36 84 93 84q29 0 68 -31q2 -2 10 -9t11.5 -9.5t10 -7t12 -6t11.5 -1.5q35 0 60 60l33 -15q-17 -42 -41.5 -64.5t-50.5 -22.5zM188 558l123 140h51l93 -140h-55l-64 104h-1l-91 -104h-56zM245 -5
q-89 0 -143 53.5t-54 150.5q0 122 69.5 206.5t185.5 84.5q89 0 142 -52.5t53 -148.5q0 -126 -68.5 -210t-184.5 -84zM247 44q87 0 142.5 68t55.5 173q0 78 -39.5 117.5t-104.5 39.5q-87 0 -143.5 -68.5t-56.5 -170.5q0 -78 40.5 -118.5t105.5 -40.5z" />
    <glyph glyph-name="uni1ED8" unicode="&#x1ed8;" horiz-adv-x="763" 
d="M332 788l126 118h52l90 -118h-54l-65 83h-3l-91 -83h-55zM353 -5q-127 0 -203 79t-76 218q0 112 44.5 208t129 155.5t190.5 59.5q127 0 202.5 -78t75.5 -218q0 -114 -43 -210t-127 -155t-193 -59zM356 48q134 0 218 109t84 261q0 118 -59.5 181.5t-165.5 63.5
q-131 0 -216 -111t-85 -259q0 -116 60 -180.5t164 -64.5zM336 -109q18 0 29 -12t11 -30q0 -19 -12 -31t-30 -12t-30 11.5t-12 29.5q0 19 12.5 31.5t31.5 12.5z" />
    <glyph glyph-name="uni1ED9" unicode="&#x1ed9;" horiz-adv-x="546" 
d="M186 558l123 140h51l93 -140h-55l-64 104h-1l-91 -104h-56zM245 -5q-89 0 -143 53.5t-54 150.5q0 122 69.5 206.5t185.5 84.5q89 0 142 -52.5t53 -148.5q0 -126 -68.5 -210t-184.5 -84zM247 44q87 0 142.5 68t55.5 173q0 78 -39.5 117.5t-104.5 39.5q-87 0 -143.5 -68.5
t-56.5 -170.5q0 -78 40.5 -118.5t105.5 -40.5zM227 -109q18 0 29 -12t11 -30q0 -19 -12 -31t-30 -12t-30 11.5t-12 29.5q0 19 12.5 31.5t31.5 12.5z" />
    <glyph glyph-name="uni1EDA" unicode="&#x1eda;" horiz-adv-x="811" 
d="M615 916l-128 -128h-56l123 127zM770 774h51l-13 -99q-17 -136 -108 -143q16 -48 16 -113q0 -114 -43 -210t-127 -155t-193 -59q-127 0 -203 79t-76 218q0 112 44.5 208t129 155.5t190.5 59.5q87 0 151 -37.5t97 -108.5h5q28 0 44 27t24 86zM356 48q134 0 218 109t84 261
q0 118 -59.5 181.5t-165.5 63.5q-131 0 -216 -111t-85 -259q0 -116 60 -180.5t164 -64.5z" />
    <glyph glyph-name="uni1EDB" unicode="&#x1edb;" horiz-adv-x="616" 
d="M476 698l-129 -138h-58l125 138h62zM576 565h51l-13 -99q-18 -143 -116 -143h-2q2 -22 2 -34q0 -126 -68.5 -210t-184.5 -84q-89 0 -143 53.5t-54 150.5q0 122 69.5 206.5t185.5 84.5q71 0 119.5 -33.5t66.5 -95.5q3 -1 8 -1q28 0 44 27t24 86zM247 44q87 0 142.5 68
t55.5 173q0 78 -39.5 117.5t-104.5 39.5q-87 0 -143.5 -68.5t-56.5 -170.5q0 -78 40.5 -118.5t105.5 -40.5z" />
    <glyph glyph-name="uni1EDC" unicode="&#x1edc;" horiz-adv-x="811" 
d="M499 788h-56l-98 128l62 -1zM770 774h51l-13 -99q-17 -136 -108 -143q16 -48 16 -113q0 -114 -43 -210t-127 -155t-193 -59q-127 0 -203 79t-76 218q0 112 44.5 208t129 155.5t190.5 59.5q87 0 151 -37.5t97 -108.5h5q28 0 44 27t24 86zM356 48q134 0 218 109t84 261
q0 118 -59.5 181.5t-165.5 63.5q-131 0 -216 -111t-85 -259q0 -116 60 -180.5t164 -64.5z" />
    <glyph glyph-name="uni1EDD" unicode="&#x1edd;" horiz-adv-x="616" 
d="M360 560h-56l-96 138h61zM576 565h51l-13 -99q-18 -143 -116 -143h-2q2 -22 2 -34q0 -126 -68.5 -210t-184.5 -84q-89 0 -143 53.5t-54 150.5q0 122 69.5 206.5t185.5 84.5q71 0 119.5 -33.5t66.5 -95.5q3 -1 8 -1q28 0 44 27t24 86zM247 44q87 0 142.5 68t55.5 173
q0 78 -39.5 117.5t-104.5 39.5q-87 0 -143.5 -68.5t-56.5 -170.5q0 -78 40.5 -118.5t105.5 -40.5z" />
    <glyph glyph-name="uni1EDE" unicode="&#x1ede;" horiz-adv-x="811" 
d="M488 903q-46 0 -85 -30l-8 33q54 36 107 36q31 0 50.5 -14.5t19.5 -43.5q0 -54 -90 -103l-43 1q3 2 22 15.5t25.5 19t19.5 17t17.5 21t4.5 19.5q0 29 -40 29zM770 774h51l-13 -99q-17 -136 -108 -143q16 -48 16 -113q0 -114 -43 -210t-127 -155t-193 -59q-127 0 -203 79
t-76 218q0 112 44.5 208t129 155.5t190.5 59.5q87 0 151 -37.5t97 -108.5h5q28 0 44 27t24 86zM356 48q134 0 218 109t84 261q0 118 -59.5 181.5t-165.5 63.5q-131 0 -216 -111t-85 -259q0 -116 60 -180.5t164 -64.5z" />
    <glyph glyph-name="uni1EDF" unicode="&#x1edf;" horiz-adv-x="616" 
d="M344 692q-47 0 -85 -33l-8 35q51 37 106 37q70 0 70 -59q0 -57 -94 -118l-43 1q93 70 93 107q0 30 -39 30zM576 565h51l-13 -99q-18 -143 -116 -143h-2q2 -22 2 -34q0 -126 -68.5 -210t-184.5 -84q-89 0 -143 53.5t-54 150.5q0 122 69.5 206.5t185.5 84.5
q71 0 119.5 -33.5t66.5 -95.5q3 -1 8 -1q28 0 44 27t24 86zM247 44q87 0 142.5 68t55.5 173q0 78 -39.5 117.5t-104.5 39.5q-87 0 -143.5 -68.5t-56.5 -170.5q0 -78 40.5 -118.5t105.5 -40.5z" />
    <glyph glyph-name="uni1EE0" unicode="&#x1ee0;" horiz-adv-x="811" 
d="M418 852q-37 0 -63 -59l-36 17q37 84 95 84q33 0 69 -32q2 -2 9 -7.5t10 -7.5t9 -6.5t10 -6t9 -3t10 -1.5q38 0 62 60l35 -15q-17 -42 -42 -64.5t-51 -22.5q-30 0 -75 38q-33 26 -51 26zM770 774h51l-13 -99q-17 -136 -108 -143q16 -48 16 -113q0 -114 -43 -210
t-127 -155t-193 -59q-127 0 -203 79t-76 218q0 112 44.5 208t129 155.5t190.5 59.5q87 0 151 -37.5t97 -108.5h5q28 0 44 27t24 86zM356 48q134 0 218 109t84 261q0 118 -59.5 181.5t-165.5 63.5q-131 0 -216 -111t-85 -259q0 -116 60 -180.5t164 -64.5z" />
    <glyph glyph-name="uni1EE1" unicode="&#x1ee1;" horiz-adv-x="616" 
d="M269 636q-38 0 -64 -59l-36 17q36 87 96 87q30 0 68 -32t57 -32q38 0 62 60l35 -15q-17 -44 -42 -67t-51 -23q-31 0 -75 39q-33 25 -50 25zM576 565h51l-13 -99q-18 -143 -116 -143h-2q2 -22 2 -34q0 -126 -68.5 -210t-184.5 -84q-89 0 -143 53.5t-54 150.5
q0 122 69.5 206.5t185.5 84.5q71 0 119.5 -33.5t66.5 -95.5q3 -1 8 -1q28 0 44 27t24 86zM247 44q87 0 142.5 68t55.5 173q0 78 -39.5 117.5t-104.5 39.5q-87 0 -143.5 -68.5t-56.5 -170.5q0 -78 40.5 -118.5t105.5 -40.5z" />
    <glyph glyph-name="uni1EE2" unicode="&#x1ee2;" horiz-adv-x="811" 
d="M770 774h51l-13 -99q-17 -136 -108 -143q16 -48 16 -113q0 -114 -43 -210t-127 -155t-193 -59q-127 0 -203 79t-76 218q0 112 44.5 208t129 155.5t190.5 59.5q87 0 151 -37.5t97 -108.5h5q28 0 44 27t24 86zM356 48q134 0 218 109t84 261q0 118 -59.5 181.5t-165.5 63.5
q-131 0 -216 -111t-85 -259q0 -116 60 -180.5t164 -64.5zM336 -109q18 0 29 -12t11 -30q0 -19 -12 -31t-30 -12t-30 11.5t-12 29.5q0 19 12.5 31.5t31.5 12.5z" />
    <glyph glyph-name="uni1EE3" unicode="&#x1ee3;" horiz-adv-x="616" 
d="M576 565h51l-13 -99q-18 -143 -116 -143h-2q2 -22 2 -34q0 -126 -68.5 -210t-184.5 -84q-89 0 -143 53.5t-54 150.5q0 122 69.5 206.5t185.5 84.5q71 0 119.5 -33.5t66.5 -95.5q3 -1 8 -1q28 0 44 27t24 86zM247 44q87 0 142.5 68t55.5 173q0 78 -39.5 117.5t-104.5 39.5
q-87 0 -143.5 -68.5t-56.5 -170.5q0 -78 40.5 -118.5t105.5 -40.5zM227 -109q18 0 29 -12t11 -30q0 -19 -12 -31t-30 -12t-30 11.5t-12 29.5q0 19 12.5 31.5t31.5 12.5z" />
    <glyph glyph-name="uni1EE4" unicode="&#x1ee4;" horiz-adv-x="664" 
d="M301 -5q-121 0 -171.5 79t-34.5 217l52 419h56l-52 -420q-14 -112 23.5 -176.5t128.5 -64.5q93 0 150.5 58t72.5 177l51 426h56l-52 -426q-35 -289 -280 -289zM284 -109q18 0 29 -12t11 -30q0 -19 -12 -31t-30 -12t-30 11.5t-12 29.5q0 19 12.5 31.5t31.5 12.5z" />
    <glyph glyph-name="uni1EE5" unicode="&#x1ee5;" horiz-adv-x="534" 
d="M197 -5q-156 0 -129 196l40 294h52l-39 -290q-11 -84 12.5 -117.5t76.5 -33.5q62 0 122.5 66.5t72.5 157.5l26 217h53l-60 -485h-52l16 130h-2q-32 -61 -82.5 -98t-106.5 -37zM228 -109q18 0 29 -12t11 -30q0 -19 -12 -31t-30 -12t-30 11.5t-12 29.5q0 19 12.5 31.5
t31.5 12.5z" />
    <glyph glyph-name="uni1EE6" unicode="&#x1ee6;" horiz-adv-x="664" 
d="M416 781l-43 1q3 2 22 15.5t25.5 19t19.5 17t17.5 21t4.5 19.5q0 29 -40 29q-46 0 -85 -30l-8 33q54 36 107 36q31 0 50.5 -14.5t19.5 -43.5q0 -54 -90 -103zM301 -5q-121 0 -171.5 79t-34.5 217l52 419h56l-52 -420q-14 -112 23.5 -176.5t128.5 -64.5q93 0 150.5 58
t72.5 177l51 426h56l-52 -426q-35 -289 -280 -289z" />
    <glyph glyph-name="uni1EE7" unicode="&#x1ee7;" horiz-adv-x="534" 
d="M316 554l-43 1q93 70 93 107q0 30 -39 30q-47 0 -85 -33l-8 35q51 37 106 37q70 0 70 -59q0 -57 -94 -118zM197 -5q-156 0 -129 196l40 294h52l-39 -290q-11 -84 12.5 -117.5t76.5 -33.5q62 0 122.5 66.5t72.5 157.5l26 217h53l-60 -485h-52l16 130h-2q-32 -61 -82.5 -98
t-106.5 -37z" />
    <glyph glyph-name="uni1EE8" unicode="&#x1ee8;" horiz-adv-x="718" 
d="M537 916l-128 -128h-56l123 127zM710 774h51l-13 -99q-18 -143 -116 -143q-8 0 -20 2l-31 -250q-35 -289 -280 -289q-121 0 -171.5 79t-34.5 217l52 419h56l-52 -420q-14 -112 23.5 -176.5t128.5 -64.5q93 0 150.5 58t72.5 177l51 426h56l-17 -139q10 -2 15 -2
q28 0 44 27t24 86z" />
    <glyph glyph-name="uni1EE9" unicode="&#x1ee9;" horiz-adv-x="594" 
d="M450 698l-129 -138h-58l125 138h62zM562 565h51l-13 -99q-18 -143 -116 -143q-6 0 -20 2l-40 -325h-52l16 130h-2q-32 -61 -82.5 -98t-106.5 -37q-156 0 -129 196l40 294h52l-39 -290q-11 -84 12.5 -117.5t76.5 -33.5q62 0 122.5 66.5t72.5 157.5l26 217h53l-15 -124
q3 0 7 -0.5t7 -0.5q28 0 44 27t24 86z" />
    <glyph glyph-name="uni1EEA" unicode="&#x1eea;" horiz-adv-x="718" 
d="M431 785h-56l-98 128l62 -1zM710 774h51l-13 -99q-18 -143 -116 -143q-8 0 -20 2l-31 -250q-35 -289 -280 -289q-121 0 -171.5 79t-34.5 217l52 419h56l-52 -420q-14 -112 23.5 -176.5t128.5 -64.5q93 0 150.5 58t72.5 177l51 426h56l-17 -139q10 -2 15 -2q28 0 44 27
t24 86z" />
    <glyph glyph-name="uni1EEB" unicode="&#x1eeb;" horiz-adv-x="594" 
d="M339 560h-56l-96 138h61zM562 565h51l-13 -99q-18 -143 -116 -143q-6 0 -20 2l-40 -325h-52l16 130h-2q-32 -61 -82.5 -98t-106.5 -37q-156 0 -129 196l40 294h52l-39 -290q-11 -84 12.5 -117.5t76.5 -33.5q62 0 122.5 66.5t72.5 157.5l26 217h53l-15 -124q3 0 7 -0.5
t7 -0.5q28 0 44 27t24 86z" />
    <glyph glyph-name="uni1EEC" unicode="&#x1eec;" horiz-adv-x="718" 
d="M422 903q-46 0 -85 -30l-8 33q54 36 107 36q31 0 50.5 -14.5t19.5 -43.5q0 -54 -90 -103l-43 1q3 2 22 15.5t25.5 19t19.5 17t17.5 21t4.5 19.5q0 29 -40 29zM710 774h51l-13 -99q-18 -143 -116 -143q-8 0 -20 2l-31 -250q-35 -289 -280 -289q-121 0 -171.5 79t-34.5 217
l52 419h56l-52 -420q-14 -112 23.5 -176.5t128.5 -64.5q93 0 150.5 58t72.5 177l51 426h56l-17 -139q10 -2 15 -2q28 0 44 27t24 86z" />
    <glyph glyph-name="uni1EED" unicode="&#x1eed;" horiz-adv-x="594" 
d="M327 692q-47 0 -85 -33l-8 35q51 37 106 37q70 0 70 -59q0 -57 -94 -118l-43 1q93 70 93 107q0 30 -39 30zM562 565h51l-13 -99q-18 -143 -116 -143q-6 0 -20 2l-40 -325h-52l16 130h-2q-32 -61 -82.5 -98t-106.5 -37q-156 0 -129 196l40 294h52l-39 -290
q-11 -84 12.5 -117.5t76.5 -33.5q62 0 122.5 66.5t72.5 157.5l26 217h53l-15 -124q3 0 7 -0.5t7 -0.5q28 0 44 27t24 86z" />
    <glyph glyph-name="uni1EEE" unicode="&#x1eee;" horiz-adv-x="718" 
d="M352 852q-37 0 -63 -59l-36 17q37 84 95 84q33 0 69 -32q2 -2 9 -7.5t10 -7.5t9 -6.5t10 -6t9 -3t10 -1.5q38 0 62 60l35 -15q-17 -42 -42 -64.5t-51 -22.5q-30 0 -75 38q-33 26 -51 26zM710 774h51l-13 -99q-18 -143 -116 -143q-8 0 -20 2l-31 -250q-35 -289 -280 -289
q-121 0 -171.5 79t-34.5 217l52 419h56l-52 -420q-14 -112 23.5 -176.5t128.5 -64.5q93 0 150.5 58t72.5 177l51 426h56l-17 -139q10 -2 15 -2q28 0 44 27t24 86z" />
    <glyph glyph-name="uni1EEF" unicode="&#x1eef;" horiz-adv-x="594" 
d="M252 636q-38 0 -64 -59l-36 17q36 87 96 87q30 0 68 -32t57 -32q38 0 62 60l35 -15q-17 -44 -42 -67t-51 -23q-31 0 -75 39q-33 25 -50 25zM562 565h51l-13 -99q-18 -143 -116 -143q-6 0 -20 2l-40 -325h-52l16 130h-2q-32 -61 -82.5 -98t-106.5 -37q-156 0 -129 196
l40 294h52l-39 -290q-11 -84 12.5 -117.5t76.5 -33.5q62 0 122.5 66.5t72.5 157.5l26 217h53l-15 -124q3 0 7 -0.5t7 -0.5q28 0 44 27t24 86z" />
    <glyph glyph-name="uni1EF0" unicode="&#x1ef0;" horiz-adv-x="718" 
d="M710 774h51l-13 -99q-18 -143 -116 -143q-8 0 -20 2l-31 -250q-35 -289 -280 -289q-121 0 -171.5 79t-34.5 217l52 419h56l-52 -420q-14 -112 23.5 -176.5t128.5 -64.5q93 0 150.5 58t72.5 177l51 426h56l-17 -139q10 -2 15 -2q28 0 44 27t24 86zM284 -109q18 0 29 -12
t11 -30q0 -19 -12 -31t-30 -12t-30 11.5t-12 29.5q0 19 12.5 31.5t31.5 12.5z" />
    <glyph glyph-name="uni1EF1" unicode="&#x1ef1;" horiz-adv-x="594" 
d="M562 565h51l-13 -99q-18 -143 -116 -143q-6 0 -20 2l-40 -325h-52l16 130h-2q-32 -61 -82.5 -98t-106.5 -37q-156 0 -129 196l40 294h52l-39 -290q-11 -84 12.5 -117.5t76.5 -33.5q62 0 122.5 66.5t72.5 157.5l26 217h53l-15 -124q3 0 7 -0.5t7 -0.5q28 0 44 27t24 86z
M228 -109q18 0 29 -12t11 -30q0 -19 -12 -31t-30 -12t-30 11.5t-12 29.5q0 19 12.5 31.5t31.5 12.5z" />
    <glyph glyph-name="Ygrave" unicode="&#x1ef2;" horiz-adv-x="534" 
d="M321 785l-98 128l62 -1l92 -127h-56zM209 0l39 320l-171 390h61l143 -333h2l226 333h65l-270 -390l-39 -320h-56z" />
    <glyph glyph-name="ygrave" unicode="&#x1ef3;" horiz-adv-x="531" 
d="M336 560h-56l-96 138h61zM430 485h52l-51 -421q-10 -79 -33.5 -133t-58.5 -82t-72 -39.5t-83 -11.5q-88 0 -162 40l24 46q66 -38 140 -38q78 0 128.5 47.5t65.5 174.5l7 62l-2 1q-33 -62 -84 -99t-108 -37q-155 0 -128 196l40 294h52l-38 -290q-11 -84 12 -117t76 -34
q65 0 126 69.5t72 163.5z" />
    <glyph glyph-name="uni1EF4" unicode="&#x1ef4;" horiz-adv-x="534" 
d="M209 0l39 320l-171 390h61l143 -333h2l226 333h65l-270 -390l-39 -320h-56zM222 -109q18 0 29 -12t11 -30q0 -19 -12 -31t-30 -12t-30 11.5t-12 29.5q0 19 12.5 31.5t31.5 12.5z" />
    <glyph glyph-name="uni1EF5" unicode="&#x1ef5;" horiz-adv-x="531" 
d="M430 485h52l-51 -421q-10 -79 -33.5 -133t-58.5 -82t-72 -39.5t-83 -11.5q-88 0 -162 40l24 46q66 -38 140 -38q78 0 128.5 47.5t65.5 174.5l7 62l-2 1q-33 -62 -84 -99t-108 -37q-155 0 -128 196l40 294h52l-38 -290q-11 -84 12 -117t76 -34q65 0 126 69.5t72 163.5z
M202 -244q18 0 29 -12t11 -30q0 -19 -12 -31t-30 -12t-30 11.5t-12 29.5q0 19 12.5 31.5t31.5 12.5z" />
    <glyph glyph-name="uni1EF6" unicode="&#x1ef6;" horiz-adv-x="534" 
d="M346 781l-43 1q3 2 22 15.5t25.5 19t19.5 17t17.5 21t4.5 19.5q0 29 -40 29q-46 0 -85 -30l-8 33q54 36 107 36q31 0 50.5 -14.5t19.5 -43.5q0 -54 -90 -103zM209 0l39 320l-171 390h61l143 -333h2l226 333h65l-270 -390l-39 -320h-56z" />
    <glyph glyph-name="uni1EF7" unicode="&#x1ef7;" horiz-adv-x="531" 
d="M325 692q-47 0 -85 -33l-8 35q51 37 106 37q70 0 70 -59q0 -57 -94 -118l-43 1q93 70 93 107q0 30 -39 30zM430 485h52l-51 -421q-10 -79 -33.5 -133t-58.5 -82t-72 -39.5t-83 -11.5q-88 0 -162 40l24 46q66 -38 140 -38q78 0 128.5 47.5t65.5 174.5l7 62l-2 1
q-33 -62 -84 -99t-108 -37q-155 0 -128 196l40 294h52l-38 -290q-11 -84 12 -117t76 -34q65 0 126 69.5t72 163.5z" />
    <glyph glyph-name="uni1EF8" unicode="&#x1ef8;" horiz-adv-x="534" 
d="M408 788q-30 0 -75 38q-33 26 -51 26q-37 0 -63 -59l-36 17q37 84 95 84q33 0 69 -32q2 -2 9 -7.5t10 -7.5t9 -6.5t10 -6t9 -3t10 -1.5q38 0 62 60l35 -15q-17 -42 -42 -64.5t-51 -22.5zM209 0l39 320l-171 390h61l143 -333h2l226 333h65l-270 -390l-39 -320h-56z" />
    <glyph glyph-name="uni1EF9" unicode="&#x1ef9;" horiz-adv-x="531" 
d="M250 636q-38 0 -64 -59l-36 17q36 87 96 87q30 0 68 -32t57 -32q38 0 62 60l35 -15q-17 -44 -42 -67t-51 -23q-31 0 -75 39q-33 25 -50 25zM430 485h52l-51 -421q-10 -79 -33.5 -133t-58.5 -82t-72 -39.5t-83 -11.5q-88 0 -162 40l24 46q66 -38 140 -38q78 0 128.5 47.5
t65.5 174.5l7 62l-2 1q-33 -62 -84 -99t-108 -37q-155 0 -128 196l40 294h52l-38 -290q-11 -84 12 -117t76 -34q65 0 126 69.5t72 163.5z" />
    <glyph glyph-name="uni2002" unicode="&#x2002;" horiz-adv-x="467" 
 />
    <glyph glyph-name="uni2003" unicode="&#x2003;" horiz-adv-x="934" 
 />
    <glyph glyph-name="uni2007" unicode="&#x2007;" horiz-adv-x="586" 
 />
    <glyph glyph-name="uni2009" unicode="&#x2009;" horiz-adv-x="22" 
 />
    <glyph glyph-name="uni2010" unicode="&#x2010;" horiz-adv-x="389" 
d="M67 282l7 52h264l-6 -52h-265z" />
    <glyph glyph-name="figuredash" unicode="&#x2012;" horiz-adv-x="594" 
d="M67 273l5 48h468l-5 -48h-468z" />
    <glyph glyph-name="endash" unicode="&#x2013;" horiz-adv-x="592" 
d="M67 273l5 48h467l-6 -48h-466z" />
    <glyph glyph-name="emdash" unicode="&#x2014;" horiz-adv-x="1059" 
d="M67 273l5 48h934l-6 -48h-933z" />
    <glyph glyph-name="uni2015" unicode="&#x2015;" horiz-adv-x="1205" 
d="M66 273l6 48h1080l-6 -48h-1080z" />
    <glyph glyph-name="quoteleft" unicode="&#x2018;" horiz-adv-x="182" 
d="M195 710l-59 -229h-58l73 229h44z" />
    <glyph glyph-name="quoteright" unicode="&#x2019;" horiz-adv-x="187" 
d="M78 481l59 229h58l-73 -229h-44z" />
    <glyph glyph-name="quotesinglbase" unicode="&#x201a;" horiz-adv-x="192" 
d="M-8 -129l59 229h58l-76 -229h-41z" />
    <glyph glyph-name="quotedblleft" unicode="&#x201c;" horiz-adv-x="290" 
d="M194 710l-59 -229h-58l73 229h44zM302 710l-59 -229h-58l73 229h44z" />
    <glyph glyph-name="quotedblright" unicode="&#x201d;" horiz-adv-x="286" 
d="M78 481l59 229h58l-73 -229h-44zM186 481l59 229h58l-73 -229h-44z" />
    <glyph glyph-name="quotedblbase" unicode="&#x201e;" horiz-adv-x="291" 
d="M-1 -75l59 229h58l-73 -229h-44zM107 -75l59 229h58l-73 -229h-44z" />
    <glyph glyph-name="dagger" unicode="&#x2020;" horiz-adv-x="381" 
d="M195 261l-16 38l20 138l13 112h-18l-93 -3l5 40l91 -2h18l12 101h39l-15 -101h16l93 2l-5 -40l-92 3h-17l-14 -112l-13 -138z" />
    <glyph glyph-name="daggerdbl" unicode="&#x2021;" horiz-adv-x="381" 
d="M150 60l14 100h-19l-92 -2l5 40l91 -2h19l14 110l6 73l12 72l12 98h-18l-93 -3l5 40l91 -3h18l11 102h40l-16 -102h17l93 2l-5 -39l-93 3h-16l-12 -98l-5 -72l-14 -73l-13 -110h18l93 3l-6 -40l-92 1h-16l-9 -100h-40z" />
    <glyph glyph-name="bullet" unicode="&#x2022;" horiz-adv-x="414" 
d="M214 222q-39 0 -65.5 26.5t-26.5 66.5t27.5 67t68.5 27q39 0 65.5 -26t26.5 -66q0 -41 -27.5 -68t-68.5 -27z" />
    <glyph glyph-name="ellipsis" unicode="&#x2026;" horiz-adv-x="1018" 
d="M153 -5q-19 0 -30.5 12t-11.5 30t12 30.5t31 12.5q18 0 30 -12t12 -30t-12.5 -30.5t-30.5 -12.5zM486 -5q-19 0 -30.5 12t-11.5 30t12 30.5t31 12.5q18 0 30 -12t12 -30t-12.5 -30.5t-30.5 -12.5zM820 -5q-19 0 -30.5 12t-11.5 30t12 30.5t31 12.5q18 0 30 -12t12 -30
t-12.5 -30.5t-30.5 -12.5z" />
    <glyph glyph-name="perthousand" unicode="&#x2030;" horiz-adv-x="1232" 
d="M153 -2l-35 28l581 667l34 -28zM225 344q-69 0 -113.5 41.5t-44.5 109.5q0 81 57 139t142 58q68 0 112.5 -41.5t44.5 -109.5q0 -80 -57 -138.5t-141 -58.5zM230 388q60 0 103 43t43 104q0 50 -32.5 81.5t-83.5 31.5q-62 0 -104 -42.5t-42 -105.5q0 -50 32 -81t84 -31z
M589 -5q-69 0 -113.5 41.5t-44.5 109.5q0 81 57 139t142 58q68 0 112.5 -41.5t44.5 -109.5q0 -80 -57 -138.5t-141 -58.5zM989 -5q-69 0 -113.5 41.5t-44.5 109.5q0 81 57 139t142 58q68 0 112.5 -41.5t44.5 -109.5q0 -80 -57 -138.5t-141 -58.5zM594 38q61 0 103.5 43
t42.5 105q0 50 -32.5 81.5t-83.5 31.5q-62 0 -103.5 -42.5t-41.5 -105.5q0 -50 32 -81.5t83 -31.5zM994 38q61 0 104 43.5t43 104.5q0 50 -32.5 81.5t-84.5 31.5q-62 0 -103.5 -42.5t-41.5 -105.5q0 -50 32 -81.5t83 -31.5z" />
    <glyph glyph-name="minute" unicode="&#x2032;" horiz-adv-x="222" 
d="M70 481l99 229h58l-113 -229h-44z" />
    <glyph glyph-name="second" unicode="&#x2033;" horiz-adv-x="340" 
d="M70 481l99 229h58l-113 -229h-44zM188 481l99 229h58l-113 -229h-44z" />
    <glyph glyph-name="guilsinglleft" unicode="&#x2039;" horiz-adv-x="263" 
d="M133 20l-89 225l145 225h50l-142 -225l87 -225h-51z" />
    <glyph glyph-name="guilsinglright" unicode="&#x203a;" horiz-adv-x="261" 
d="M24 20l142 225l-87 225h51l89 -225l-144 -225h-51z" />
    <glyph glyph-name="uni203D" unicode="&#x203d;" horiz-adv-x="408" 
d="M261 741q66 0 108 -42t42 -110q0 -62 -27 -109.5t-82 -100.5l-17 -17t-16.5 -17t-14 -15t-14 -16.5t-10.5 -15t-10 -16.5t-6.5 -16t-4.5 -18l-9 -56h-46l42 411h60l-35 -244q6 7 19.5 20.5t17.5 18.5q52 53 74 90t22 91q0 53 -28.5 81t-77.5 28q-37 0 -72.5 -19.5
t-60.5 -57.5l-35 36q33 45 81 69.5t100 24.5zM166 80q18 0 30 -12t12 -30t-12.5 -30.5t-30.5 -12.5q-19 0 -30.5 12t-11.5 30t12 30.5t31 12.5z" />
    <glyph glyph-name="uni2042" unicode="&#x2042;" horiz-adv-x="782" 
d="M380 399l19 129l-104 -68l-15 34l107 61l-93 60l23 35l89 -68l12 128h39l-20 -128l104 68l15 -35l-108 -60l95 -61l-24 -33l-88 67l-13 -129h-38zM156 64l19 129l-104 -68l-15 34l107 61l-93 60l23 35l89 -68l12 128h39l-20 -128l104 68l15 -35l-108 -60l95 -61l-24 -33
l-88 67l-13 -129h-38zM544 64l19 129l-104 -68l-15 34l107 61l-93 60l23 35l89 -68l12 128h39l-20 -128l104 68l15 -35l-108 -60l95 -61l-24 -33l-88 67l-13 -129h-38z" />
    <glyph glyph-name="fraction" unicode="&#x2044;" horiz-adv-x="185" 
d="M-49 -12l-43 19l365 714l44 -20z" />
    <glyph glyph-name="uni2051" unicode="&#x2051;" horiz-adv-x="394" 
d="M197 399l19 129l-103 -68l-16 34l107 61l-93 60l23 35l89 -68l12 128h39l-20 -128l104 68l15 -35l-108 -60l95 -61l-23 -33l-89 67l-13 -129h-38zM154 50l19 129l-104 -68l-15 34l107 60l-94 61l24 34l89 -67l12 129h39l-20 -129l105 68l15 -35l-108 -60l94 -61l-23 -33
l-89 67l-12 -129h-39z" />
    <glyph glyph-name="uni2070" unicode="&#x2070;" horiz-adv-x="365" 
d="M208 431q-61 0 -95.5 43.5t-34.5 122.5q0 103 48 179.5t129 76.5q61 0 96 -44t35 -123q0 -103 -48 -179t-130 -76zM210 476q61 0 95.5 64t34.5 147q0 59 -23 90.5t-62 31.5q-62 0 -96.5 -64.5t-34.5 -148.5q0 -59 23 -89.5t63 -30.5z" />
    <glyph glyph-name="uni2074" unicode="&#x2074;" horiz-adv-x="339" 
d="M297 563h58l-5 -41h-58l-11 -86h-46l11 86h-191l4 33l236 292h37zM257 561l27 216l-173 -216h146z" />
    <glyph glyph-name="uni2075" unicode="&#x2075;" horiz-adv-x="316" 
d="M341 805h-171l-22 -122q35 13 72 13q51 0 80.5 -28t29.5 -83q0 -67 -42 -109.5t-112 -42.5q-77 0 -119 44l26 40q38 -41 93 -41q50 0 78 30.5t28 76.5q0 75 -79 75q-48 0 -78 -23l-25 10l36 202h210z" />
    <glyph glyph-name="uni2076" unicode="&#x2076;" horiz-adv-x="337" 
d="M241 696q49 0 80 -29t31 -81q0 -63 -40 -107.5t-104 -44.5q-61 0 -96 42.5t-35 119.5q0 66 19 122t63.5 95t107.5 39q53 0 91 -19l-21 -39q-30 15 -70 15q-55 0 -91.5 -40t-47.5 -122q47 49 113 49zM210 477q40 0 67.5 30.5t27.5 75.5q0 36 -20.5 54.5t-56.5 18.5
q-67 0 -107 -64v-1q0 -52 23.5 -83t65.5 -31z" />
    <glyph glyph-name="uni2077" unicode="&#x2077;" horiz-adv-x="301" 
d="M97 847h254l-4 -32l-206 -379h-49l203 369h-203z" />
    <glyph glyph-name="uni2078" unicode="&#x2078;" horiz-adv-x="338" 
d="M193 433q-58 0 -91 26.5t-33 72.5t27 79.5t69 44.5v1q-24 7 -40.5 28.5t-16.5 51.5q0 53 38 84t97 31q53 0 82.5 -23.5t29.5 -64.5t-24 -70t-56 -37l-1 -1q33 -8 52 -32.5t19 -59.5q0 -59 -42.5 -95t-109.5 -36zM223 676q36 0 61 22t25 56q0 59 -70 59q-39 0 -62.5 -20
t-23.5 -55q0 -29 19 -45.5t51 -16.5zM198 473q45 0 72.5 25t27.5 67q0 33 -21.5 52t-59.5 19q-45 0 -73 -26t-28 -67q0 -32 21 -51t61 -19z" />
    <glyph glyph-name="uni2079" unicode="&#x2079;" horiz-adv-x="332" 
d="M223 851q61 0 96 -42.5t35 -119.5q0 -104 -49 -179.5t-142 -76.5q-53 0 -90 20l21 39q29 -16 70 -16q55 0 91.5 40t47.5 122q-47 -49 -112 -49q-50 0 -81 29t-31 81q0 63 40 107.5t104 44.5zM203 629q67 0 106 63v2q0 53 -23 83.5t-64 30.5t-68.5 -30.5t-27.5 -75.5
q0 -36 20.5 -54.5t56.5 -18.5z" />
    <glyph glyph-name="uni207A" unicode="&#x207a;" horiz-adv-x="326" 
d="M338 650l-5 -40h-101l-14 -114h-42l14 114h-101l5 40h101l15 115h42l-15 -115h101z" />
    <glyph glyph-name="uni207B" unicode="&#x207b;" horiz-adv-x="328" 
d="M90 608l6 43h243l-5 -43h-244z" />
    <glyph glyph-name="uni207C" unicode="&#x207c;" horiz-adv-x="353" 
d="M112 689l5 39h244l-5 -39h-244zM92 522l5 39h244l-5 -39h-244z" />
    <glyph glyph-name="uni207D" unicode="&#x207d;" horiz-adv-x="160" 
d="M110 369q-33 97 -33 195q0 93 28 185.5t79 165.5l31 -15q-45 -65 -70.5 -155t-25.5 -175q0 -98 31 -184z" />
    <glyph glyph-name="uni207E" unicode="&#x207e;" horiz-adv-x="160" 
d="M79 371l-34 13q94 159 94 327q0 109 -34 187l38 19q38 -85 38 -198q0 -177 -102 -348z" />
    <glyph glyph-name="uni207F" unicode="&#x207f;" horiz-adv-x="331" 
d="M10 -66l36 292h44l-8 -65h2q47 68 119 68q87 0 72 -116l-24 -179h-44l24 177q11 78 -44 78q-41 0 -76 -37.5t-42 -95.5l-15 -122h-44z" />
    <glyph glyph-name="uni2080" unicode="&#x2080;" horiz-adv-x="365" 
d="M146 -71q-61 0 -95.5 43.5t-34.5 122.5q0 103 48 179.5t129 76.5q61 0 96 -44t35 -123q0 -103 -48 -179t-130 -76zM148 -26q61 0 95.5 64t34.5 147q0 59 -23 90.5t-62 31.5q-62 0 -96.5 -64.5t-34.5 -148.5q0 -59 23 -89.5t63 -30.5z" />
    <glyph glyph-name="uni2081" unicode="&#x2081;" horiz-adv-x="238" 
d="M143 345h36l-51 -411h-45l43 351l-85 -60l-20 36z" />
    <glyph glyph-name="uni2082" unicode="&#x2082;" horiz-adv-x="311" 
d="M-11 -66l3 34l144 136q87 81 87 139q0 28 -17.5 45.5t-53.5 17.5q-47 0 -99 -46l-25 34q61 56 130 56q54 0 83 -26.5t29 -73.5q0 -80 -96 -167l-113 -105v-2h182l-5 -42h-249z" />
    <glyph glyph-name="uni2083" unicode="&#x2083;" horiz-adv-x="314" 
d="M114 -70q-79 0 -122 45l26 38q38 -40 95 -40q44 0 72 24.5t28 64.5q0 31 -19 48.5t-55 17.5h-40l5 38h42q37 0 60 23t23 58q0 60 -70 60q-53 0 -98 -40l-23 33q55 50 129 50q50 0 78.5 -23.5t28.5 -68.5q0 -38 -19 -67t-52 -43v-1q57 -21 57 -89q0 -57 -40.5 -92.5
t-105.5 -35.5z" />
    <glyph glyph-name="uni2084" unicode="&#x2084;" horiz-adv-x="339" 
d="M235 61h58l-5 -41h-58l-11 -86h-46l11 86h-191l4 33l236 292h37zM195 59l27 216l-173 -216h146z" />
    <glyph glyph-name="uni2085" unicode="&#x2085;" horiz-adv-x="316" 
d="M279 303h-171l-22 -122q35 13 72 13q51 0 80.5 -28t29.5 -83q0 -67 -42 -109.5t-112 -42.5q-77 0 -119 44l26 40q38 -41 93 -41q50 0 78 30.5t28 76.5q0 75 -79 75q-48 0 -78 -23l-25 10l36 202h210z" />
    <glyph glyph-name="uni2086" unicode="&#x2086;" horiz-adv-x="337" 
d="M179 194q49 0 80 -29t31 -81q0 -63 -40 -107.5t-104 -44.5q-61 0 -96 42.5t-35 119.5q0 66 19 122t63.5 95t107.5 39q53 0 91 -19l-21 -39q-30 15 -70 15q-55 0 -91.5 -40t-47.5 -122q47 49 113 49zM148 -25q40 0 67.5 30.5t27.5 75.5q0 36 -20.5 54.5t-56.5 18.5
q-67 0 -107 -64v-1q0 -52 23.5 -83t65.5 -31z" />
    <glyph glyph-name="uni2087" unicode="&#x2087;" horiz-adv-x="301" 
d="M35 345h254l-4 -32l-206 -379h-49l203 369h-203z" />
    <glyph glyph-name="uni2088" unicode="&#x2088;" horiz-adv-x="338" 
d="M131 -69q-58 0 -91 26.5t-33 72.5t27 79.5t69 44.5v1q-24 7 -40.5 28.5t-16.5 51.5q0 53 38 84t97 31q53 0 82.5 -23.5t29.5 -64.5t-24 -70t-56 -37l-1 -1q33 -8 52 -32.5t19 -59.5q0 -59 -42.5 -95t-109.5 -36zM161 174q36 0 61 22t25 56q0 59 -70 59q-39 0 -62.5 -20
t-23.5 -55q0 -29 19 -45.5t51 -16.5zM136 -29q45 0 72.5 25t27.5 67q0 33 -21.5 52t-59.5 19q-45 0 -73 -26t-28 -67q0 -32 21 -51t61 -19z" />
    <glyph glyph-name="uni2089" unicode="&#x2089;" horiz-adv-x="332" 
d="M161 349q61 0 96 -42.5t35 -119.5q0 -104 -49 -179.5t-142 -76.5q-53 0 -90 20l21 39q29 -16 70 -16q55 0 91.5 40t47.5 122q-47 -49 -112 -49q-50 0 -81 29t-31 81q0 63 40 107.5t104 44.5zM141 127q67 0 106 63v2q0 53 -23 83.5t-64 30.5t-68.5 -30.5t-27.5 -75.5
q0 -36 20.5 -54.5t56.5 -18.5z" />
    <glyph glyph-name="uni208A" unicode="&#x208a;" horiz-adv-x="326" 
d="M273 141l-5 -40h-101l-14 -114h-42l14 114h-101l5 40h101l15 115h42l-15 -115h101z" />
    <glyph glyph-name="uni208B" unicode="&#x208b;" horiz-adv-x="330" 
d="M25 99l6 43h243l-5 -43h-244z" />
    <glyph glyph-name="uni208C" unicode="&#x208c;" horiz-adv-x="352" 
d="M47 191l5 39h244l-5 -39h-244zM27 24l5 39h244l-5 -39h-244z" />
    <glyph glyph-name="uni208D" unicode="&#x208d;" horiz-adv-x="164" 
d="M54 -132q-33 97 -33 195q0 93 28 185.5t79 165.5l31 -15q-45 -65 -70.5 -155t-25.5 -175q0 -98 31 -184z" />
    <glyph glyph-name="uni208E" unicode="&#x208e;" horiz-adv-x="162" 
d="M25 -132l-34 13q94 159 94 327q0 109 -34 187l38 19q38 -86 38 -198q0 -177 -102 -348z" />
    <glyph glyph-name="uni2090" unicode="&#x2090;" horiz-adv-x="348" 
d="M111 -69q-46 0 -74.5 31t-28.5 88q0 73 43.5 125t111.5 52q54 0 86 -29h2l4 26h41l-36 -290h-41l8 68h-1q-44 -71 -115 -71zM117 -29q42 0 78.5 38t44.5 97l6 48q-8 15 -30.5 24.5t-47.5 9.5q-52 0 -85 -39.5t-33 -97.5q0 -38 18 -59t49 -21z" />
    <glyph glyph-name="uni2091" unicode="&#x2091;" horiz-adv-x="300" 
d="M127 -31q49 0 85 36l28 -26q-49 -49 -115 -49q-55 0 -87 32t-32 89q0 72 44 124t114 52q35 0 63 -17t28 -53q0 -97 -207 -118q3 -34 23.5 -52t55.5 -18zM162 189q-45 0 -76 -32t-38 -83q166 16 166 79q0 36 -52 36z" />
    <glyph glyph-name="uni2092" unicode="&#x2092;" horiz-adv-x="334" 
d="M130 -70q-54 0 -85.5 32t-31.5 89q0 72 42 123t111 51q52 0 84 -30.5t32 -87.5q0 -74 -41 -125.5t-111 -51.5zM132 -31q46 0 76.5 38.5t30.5 95.5q0 41 -20.5 62t-55.5 21q-46 0 -76.5 -38t-30.5 -93q0 -40 20 -63t56 -23z" />
    <glyph glyph-name="uni2093" unicode="&#x2093;" horiz-adv-x="277" 
d="M-27 -66l119 148l-83 145h49l62 -112h1l91 112h51l-121 -146l85 -147h-49l-64 110h-1l-91 -110h-49z" />
    <glyph glyph-name="peseta" unicode="&#x20a7;" horiz-adv-x="595" 
d="M601 501l-5 -41h-74q-15 -88 -76.5 -136t-160.5 -48h-123l-33 -276h-55l57 460h-78l5 41h78l23 186h183q93 0 138.5 -44.5t45.5 -127.5v-14h75zM207 636l-17 -135h280v12q-1 62 -35.5 92.5t-93.5 30.5h-134zM285 326q74 0 120 35t60 99h-280l-16 -134h116z" />
    <glyph glyph-name="dong" unicode="&#x20ab;" horiz-adv-x="547" 
d="M575 619l-5 -40h-53l-71 -579h-52l16 133l-2 1q-73 -139 -192 -139q-80 0 -123.5 54.5t-43.5 139.5q0 124 69 212.5t178 88.5q98 0 149 -57l2 1l18 145h-205l5 40h205l14 117h52l-14 -117h53zM431 302l9 78q-23 33 -63.5 47.5t-78.5 14.5q-87 0 -141.5 -75.5
t-54.5 -178.5q0 -65 31.5 -105t89.5 -40q77 0 135.5 76.5t72.5 182.5zM20 -134l6 49h418l-6 -49h-418z" />
    <glyph glyph-name="Euro" unicode="&#x20ac;" horiz-adv-x="540" 
d="M387 639q-85 0 -148.5 -59.5t-91.5 -156.5h277l-5 -41h-282q-6 -34 -8 -84h280l-5 -40h-274q7 -104 56.5 -157.5t123.5 -53.5q81 0 150 51l28 -44q-81 -58 -180 -58q-95 0 -161 67t-73 195h-58l5 40h52q2 50 8 84h-50l5 41h53q32 120 111.5 193.5t187.5 73.5
q97 0 164 -58l-38 -40q-50 47 -127 47z" />
    <glyph glyph-name="uni20B1" unicode="&#x20b1;" horiz-adv-x="605" 
d="M601 511h-75q0 -33 -6 -61h73l-5 -40h-80q-25 -64 -82 -99t-141 -35h-123l-33 -276h-55l51 410h-79l5 40h79l7 61h-78l5 39h78l17 137h183q163 0 182 -137h82zM342 636h-135l-11 -89h272q-19 89 -126 89zM192 511l-8 -61h280q7 27 7 61h-279zM287 326q121 0 163 88h-270
l-11 -88h118z" />
    <glyph glyph-name="uni20B9" unicode="&#x20b9;" horiz-adv-x="488" 
d="M519 644h-175v-2q56 -31 62 -109h99l-5 -43h-94q-8 -88 -73 -142.5t-168 -54.5h-36l244 -293h-68l-246 298l6 44h96q83 0 131.5 40t56.5 108h-267l6 43h262q-7 111 -137 111h-112l6 43h417z" />
    <glyph glyph-name="uni20BA" unicode="&#x20ba;" horiz-adv-x="541" 
d="M452 189l45 -20q-83 -169 -265 -169h-147l28 228l-63 -30l-13 39l82 38l9 76l-64 -30l-12 39l82 38l35 289h56l-32 -261l195 91l13 -39l-214 -100l-9 -75l195 91l13 -38l-214 -101l-25 -206h85q82 0 131.5 33t88.5 107z" />
    <glyph glyph-name="uni2113" unicode="&#x2113;" horiz-adv-x="451" 
d="M406 105l23 -18q-65 -92 -169 -92q-72 0 -111.5 42.5t-43.5 114.5q-4 -3 -23.5 -18.5t-30.5 -23.5l-15 21q8 7 32.5 26t36.5 30l2 273q1 115 43.5 167t110.5 52q53 0 80 -38.5t27 -107.5q0 -146 -196 -325v-24q0 -83 30 -119.5t75 -36.5q37 0 71.5 23t57.5 54zM265 644
q-94 0 -94 -177l1 -222q167 162 167 287q0 58 -17 85t-57 27z" />
    <glyph glyph-name="uni2116" unicode="&#x2116;" horiz-adv-x="990" 
d="M827 416q-53 0 -85.5 32t-32.5 90q0 71 42.5 122.5t110.5 51.5q53 0 85.5 -31t32.5 -88q0 -74 -41.5 -125.5t-111.5 -51.5zM71 0l87 710h53l335 -614l2 1l75 613h56l-87 -710h-54l-335 609h-2l-75 -609h-55zM829 456q46 0 76.5 38t30.5 96q0 41 -20.5 62t-55.5 21
q-46 0 -77 -38.5t-31 -93.5q0 -39 21 -62t56 -23zM691 315l2 44h248l-3 -44h-247z" />
    <glyph glyph-name="uni2117" unicode="&#x2117;" horiz-adv-x="692" 
d="M344 20q-123 0 -209 88t-86 210t86.5 210t209.5 88t208.5 -87.5t85.5 -210.5q0 -122 -86 -210t-209 -88zM344 61q106 0 180 75.5t74 181.5t-73.5 181.5t-179.5 75.5t-180.5 -76t-74.5 -181q0 -106 73.5 -181.5t180.5 -75.5zM245 158v324h111q53 0 78.5 -26.5t25.5 -70.5
q0 -49 -29.5 -73.5t-81.5 -24.5h-67v-129h-37zM283 321h64q75 0 75 64q0 29 -18 45.5t-50 16.5h-71v-126z" />
    <glyph glyph-name="trademark" unicode="&#x2122;" horiz-adv-x="619" 
d="M75 675l5 35h211l-5 -35h-86l-36 -288h-39l36 288h-86zM584 710h40l-40 -323h-38l31 251l-114 -185h-27l-71 185l-30 -251h-38l40 323h39l78 -210z" />
    <glyph glyph-name="uni2126" unicode="&#x2126;" horiz-adv-x="727" 
d="M45 0l7 52h160v1q-61 45 -95.5 118.5t-34.5 159.5q0 160 93 272t242 112q119 0 192.5 -80.5t73.5 -207.5q0 -120 -56.5 -217.5t-153.5 -156.5v-1h156l-6 -52h-236l6 52q108 57 170 153t62 221q0 106 -58 170.5t-153 64.5q-83 0 -146.5 -47t-96 -122t-32.5 -162
q0 -89 39.5 -162.5t108.5 -115.5l-6 -52h-236z" />
    <glyph glyph-name="estimated" unicode="&#x212e;" horiz-adv-x="794" 
d="M396 -10q-144 0 -237.5 93t-93.5 228q0 140 96 230.5t235 90.5q144 0 237.5 -93.5t93.5 -227.5v-9h-553v-181q40 -55 100.5 -80t122.5 -25q60 0 115.5 23t90.5 63h42q-42 -52 -110 -82t-139 -30zM174 330h439l1 178q-38 47 -98 72t-119 25q-64 0 -124.5 -26.5
t-96.5 -77.5z" />
    <glyph glyph-name="oneeighth" unicode="&#x215b;" horiz-adv-x="714" 
d="M492 721l44 -20l-366 -713l-43 19zM128 299l43 351l-85 -60l-20 36l122 84h36l-51 -411h-45zM587 220q33 -8 52 -32.5t19 -59.5q0 -59 -42.5 -95t-109.5 -36q-58 0 -91 26.5t-33 72.5t27 79.5t69 44.5v1q-24 7 -40.5 28.5t-16.5 51.5q0 53 38 84t97 31q52 0 82 -23.5
t30 -64.5t-24 -70t-56 -37zM466 302q0 -29 19 -45.5t51 -16.5q36 0 61 22t25 56q0 59 -70 59q-39 0 -62.5 -20t-23.5 -55zM511 37q45 0 72.5 25t27.5 67q0 33 -21.5 52t-59.5 19q-45 0 -73 -26t-28 -67q0 -32 21 -51t61 -19z" />
    <glyph glyph-name="threeeighths" unicode="&#x215c;" horiz-adv-x="764" 
d="M230 -12l-43 19l365 714l44 -20zM159 295q-79 0 -122 45l26 38q38 -40 95 -40q44 0 72 24.5t28 64.5q0 31 -19 48.5t-55 17.5h-40l5 38h42q37 0 60 23t23 58q0 60 -70 60q-53 0 -98 -40l-23 33q55 50 129 50q50 0 78.5 -23.5t28.5 -68.5q0 -38 -19 -67t-52 -43v-1
q57 -21 57 -89q0 -57 -40.5 -92.5t-105.5 -35.5zM567 -3q-58 0 -91 26.5t-33 72.5t27 79.5t69 44.5v1q-24 7 -40.5 28.5t-16.5 51.5q0 53 38 84t97 31q52 0 82 -23.5t30 -64.5t-24 -70t-56 -37l-1 -1q33 -8 52 -32.5t19 -59.5q0 -59 -42.5 -95t-109.5 -36zM597 240
q36 0 61 22t25 56q0 59 -70 59q-39 0 -62.5 -20t-23.5 -55q0 -29 19 -45.5t51 -16.5zM572 37q45 0 72.5 25t27.5 67q0 33 -21.5 52t-59.5 19q-45 0 -73 -26t-28 -67q0 -32 21 -51t61 -19z" />
    <glyph glyph-name="fiveeighths" unicode="&#x215d;" horiz-adv-x="765" 
d="M553 721l44 -20l-366 -713l-43 19zM313 448q0 -67 -42 -109.5t-112 -42.5q-77 0 -119 44l26 40q38 -41 93 -41q50 0 78 30.5t28 76.5q0 75 -79 75q-48 0 -78 -23l-25 10l36 202h210l-5 -42h-171l-22 -122q35 13 72 13q51 0 80.5 -28t29.5 -83zM649 220q33 -8 52 -32.5
t19 -59.5q0 -59 -42.5 -95t-109.5 -36q-58 0 -91 26.5t-33 72.5t27 79.5t69 44.5v1q-24 7 -40.5 28.5t-16.5 51.5q0 53 38 84t97 31q52 0 82 -23.5t30 -64.5t-24 -70t-56 -37zM528 302q0 -29 19 -45.5t51 -16.5q36 0 61 22t25 56q0 59 -70 59q-39 0 -62.5 -20t-23.5 -55z
M573 37q45 0 72.5 25t27.5 67q0 33 -21.5 52t-59.5 19q-45 0 -73 -26t-28 -67q0 -32 21 -51t61 -19z" />
    <glyph glyph-name="seveneighths" unicode="&#x215e;" horiz-adv-x="693" 
d="M480 721l44 -20l-366 -713l-43 19zM124 299h-49l203 369h-203l5 42h254l-4 -32zM576 220q33 -8 52 -32.5t19 -59.5q0 -59 -42.5 -95t-109.5 -36q-58 0 -91 26.5t-33 72.5t27 79.5t69 44.5v1q-24 7 -40.5 28.5t-16.5 51.5q0 53 38 84t97 31q53 0 82.5 -23.5t29.5 -64.5
t-24 -70t-56 -37zM455 302q0 -29 19 -45.5t51 -16.5q36 0 61 22t25 56q0 59 -70 59q-39 0 -62.5 -20t-23.5 -55zM500 37q45 0 72.5 25t27.5 67q0 33 -21.5 52t-59.5 19q-45 0 -73 -26t-28 -67q0 -32 21 -51t61 -19z" />
    <glyph glyph-name="arrowleft" unicode="&#x2190;" horiz-adv-x="883" 
d="M853 383v-56h-735l328 -327h-75l-356 356l355 354h76l-328 -327h735z" />
    <glyph glyph-name="arrowup" unicode="&#x2191;" horiz-adv-x="770" 
d="M740 481v-75l-327 328v-735h-56v735l-327 -328v76l354 355z" />
    <glyph glyph-name="arrowright" unicode="&#x2192;" horiz-adv-x="883" 
d="M513 710l355 -354l-356 -356h-75l328 327h-735v56h735l-328 327h76z" />
    <glyph glyph-name="arrowdown" unicode="&#x2193;" horiz-adv-x="770" 
d="M413 -24l327 328v-76l-354 -355l-356 356v75l327 -328v735h56v-735z" />
    <glyph glyph-name="arrowboth" unicode="&#x2194;" horiz-adv-x="1288" 
d="M918 710l355 -354l-356 -356h-75l328 327h-1052l328 -327h-75l-356 356l355 354h76l-328 -327h1052l-328 327h76z" />
    <glyph glyph-name="arrowupdn" unicode="&#x2195;" horiz-adv-x="829" 
d="M431 -174l327 328v-76l-354 -355l-356 356v75l327 -328v1052l-327 -328v75l356 356l354 -355v-76l-327 328v-1052z" />
    <glyph glyph-name="uni2196" unicode="&#x2196;" horiz-adv-x="719" 
d="M674 137l-40 -40l-519 520v-464l-53 54v503l502 -1l54 -53h-464z" />
    <glyph glyph-name="uni2197" unicode="&#x2197;" horiz-adv-x="719" 
d="M155 710l502 1v-503l-53 -54v464l-519 -520l-40 40l520 519h-464z" />
    <glyph glyph-name="uni2198" unicode="&#x2198;" horiz-adv-x="719" 
d="M604 557l53 -54v-503l-502 1l-54 53h464l-520 519l40 40l519 -520v464z" />
    <glyph glyph-name="uni2199" unicode="&#x2199;" horiz-adv-x="719" 
d="M674 573l-520 -519h464l-54 -53l-502 -1v503l53 54v-464l519 520z" />
    <glyph glyph-name="partialdiff" unicode="&#x2202;" horiz-adv-x="524" 
d="M227 -5q-82 0 -132.5 51.5t-50.5 137.5q0 106 62.5 177.5t162.5 71.5q109 0 159 -98h2q4 42 4 65q0 241 -138 241q-72 0 -143 -44l-8 46q75 48 165 48q51 0 87.5 -25t55.5 -68t27 -91t8 -104q0 -109 -26 -198.5t-87 -149.5t-148 -60zM233 49q72 0 119 58.5t68 154.5
q-16 52 -54 87t-94 35q-77 0 -124 -56t-47 -133q0 -67 35 -106.5t97 -39.5z" />
    <glyph glyph-name="emptyset" unicode="&#x2205;" horiz-adv-x="698" 
d="M570 512q71 -86 71 -194q0 -120 -85.5 -208t-207.5 -88q-111 0 -193 74l-43 -43l-27 27l43 43q-73 83 -73 195q0 121 85.5 208.5t208.5 87.5q113 0 194 -75l37 37l27 -27zM100 318q0 -94 60 -163l351 352q-69 61 -162 61q-104 0 -176.5 -73.5t-72.5 -176.5zM348 68
q104 0 176 73.5t72 176.5q0 91 -58 162l-352 -352q70 -60 162 -60z" />
    <glyph glyph-name="uni2206" unicode="&#x2206;" horiz-adv-x="590" 
d="M5 0l6 45l311 665h60l149 -665l-6 -45h-520zM72 52h400l-127 589h-1z" />
    <glyph glyph-name="product" unicode="&#x220f;" horiz-adv-x="644" 
d="M51 -101l100 811h459l-99 -811h-56l93 760h-348l-93 -760h-56z" />
    <glyph glyph-name="summation" unicode="&#x2211;" horiz-adv-x="548" 
d="M21 -90l5 43l247 358l-159 356l5 43h447l-7 -51h-374v-1l153 -347l-237 -348v-1h373l-7 -52h-446z" />
    <glyph glyph-name="minus" unicode="&#x2212;" horiz-adv-x="558" 
d="M71 252l6 49h418l-6 -49h-418z" />
    <glyph glyph-name="radical" unicode="&#x221a;" horiz-adv-x="606" 
d="M254 0l-90 499h-98l6 49h142l80 -469h1l387 743h45l-432 -822h-41z" />
    <glyph glyph-name="infinity" unicode="&#x221e;" horiz-adv-x="714" 
d="M532 430q55 0 90.5 -38.5t35.5 -97.5q0 -71 -47 -124t-112 -53q-89 0 -143 114q-85 -114 -168 -114q-55 0 -90.5 38.5t-35.5 97.5q0 71 47.5 124t112.5 53q87 0 142 -116q82 116 168 116zM191 161q67 0 143 114q-23 53 -49 81.5t-62 28.5q-47 0 -81 -39.5t-34 -90.5
q0 -41 23.5 -67.5t59.5 -26.5zM499 161q45 0 79 40t34 91q0 40 -23 66.5t-58 26.5q-68 0 -144 -113q47 -111 112 -111z" />
    <glyph glyph-name="integral" unicode="&#x222b;" horiz-adv-x="213" 
d="M-48 -169q-13 -1 -33 1l4 42h8q47 0 59.5 19.5t23.5 89.5l88 581q11 72 33 100.5t75 29.5q13 0 27 -2t16 -2l-4 -39h-15q-47 0 -59.5 -18t-23.5 -91l-88 -582q-11 -72 -34 -99.5t-77 -29.5z" />
    <glyph glyph-name="uni2236" unicode="&#x2236;" horiz-adv-x="216" 
d="M150 463q-19 0 -30.5 12t-11.5 30t12 30.5t31 12.5q18 0 30 -12t12 -30t-12.5 -30.5t-30.5 -12.5zM98 53q-19 0 -30.5 12t-11.5 30t12 30.5t31 12.5q18 0 30 -12t12 -30t-12.5 -30.5t-30.5 -12.5z" />
    <glyph glyph-name="approxequal" unicode="&#x2248;" horiz-adv-x="561" 
d="M395 332q-32 0 -90 24t-91 24q-63 0 -114 -40l-13 40q59 49 127 49q41 0 95 -24.5t85 -24.5q46 0 101 49l13 -40q-55 -57 -113 -57zM368 116q-32 0 -89.5 24t-91.5 24q-65 0 -113 -40l-14 39q19 17 54.5 33.5t72.5 16.5q41 0 95 -25t85 -25q44 0 101 50l14 -41
q-56 -56 -114 -56z" />
    <glyph glyph-name="notequal" unicode="&#x2260;" horiz-adv-x="541" 
d="M518 365h-173l-96 -177h249l-6 -49h-269l-72 -132l-37 15l63 117h-103l6 49h124l95 177h-199l6 49h220l73 135l37 -16l-64 -119h152z" />
    <glyph glyph-name="lessequal" unicode="&#x2264;" horiz-adv-x="538" 
d="M446 142l-373 207l5 38l423 209l-6 -54l-345 -174l302 -173zM29 0l6 49h400l-6 -49h-400z" />
    <glyph glyph-name="greaterequal" unicode="&#x2265;" horiz-adv-x="546" 
d="M86 142l6 53l345 173l-303 174l7 54l373 -209l-5 -38zM66 -1l6 49h399l-6 -49h-399z" />
    <glyph glyph-name="filledbox" unicode="&#x25a0;" horiz-adv-x="643" 
d="M45 0v551h552v-551h-552z" />
    <glyph glyph-name="uni25A1" unicode="&#x25a1;" horiz-adv-x="643" 
d="M45 0v551h552v-551h-552zM90 45h461v461h-461v-461z" />
    <glyph glyph-name="triagup" unicode="&#x25b2;" horiz-adv-x="642" 
d="M7 0l314 580l313 -580h-627z" />
    <glyph glyph-name="uni25B3" unicode="&#x25b3;" horiz-adv-x="642" 
d="M7 0l314 580l313 -580h-627zM83 45h475l-237 439z" />
    <glyph glyph-name="uni25B6" unicode="&#x25b6;" horiz-adv-x="637" 
d="M50 -38v627l579 -314z" />
    <glyph glyph-name="uni25B7" unicode="&#x25b7;" horiz-adv-x="637" 
d="M50 -38v627l579 -314zM95 38l439 237l-439 238v-475z" />
    <glyph glyph-name="triagdn" unicode="&#x25bc;" horiz-adv-x="642" 
d="M321 -28l-314 579h627z" />
    <glyph glyph-name="uni25BD" unicode="&#x25bd;" horiz-adv-x="642" 
d="M321 -28l-314 579h627zM321 67l237 439h-475z" />
    <glyph glyph-name="uni25C0" unicode="&#x25c0;" horiz-adv-x="637" 
d="M587 -38l-580 313l580 314v-627z" />
    <glyph glyph-name="uni25C1" unicode="&#x25c1;" horiz-adv-x="637" 
d="M587 -38l-580 313l580 314v-627zM542 38v475l-440 -238z" />
    <glyph glyph-name="uni25C6" unicode="&#x25c6;" horiz-adv-x="693" 
d="M347 -64l-340 339l340 340l339 -340z" />
    <glyph glyph-name="uni25C7" unicode="&#x25c7;" horiz-adv-x="693" 
d="M347 -64l-340 339l340 340l339 -340zM347 0l275 275l-275 276l-276 -276z" />
    <glyph glyph-name="lozenge" unicode="&#x25ca;" horiz-adv-x="417" 
d="M178 0l-123 338l204 339l126 -339zM187 93l141 245l-78 247l-138 -247z" />
    <glyph glyph-name="circle" unicode="&#x25cb;" horiz-adv-x="637" 
d="M318 -5q-114 0 -195.5 82.5t-81.5 197.5q0 117 81.5 199t195.5 82q116 0 197 -82t81 -199q0 -116 -81.5 -198t-196.5 -82zM318 42q96 0 164 68.5t68 164.5q0 97 -68 165.5t-164 68.5q-95 0 -162.5 -68.5t-67.5 -165.5q0 -96 67.5 -164.5t162.5 -68.5z" />
    <glyph glyph-name="uni25CF" unicode="&#x25cf;" horiz-adv-x="637" 
d="M318 -5q-114 0 -195.5 82.5t-81.5 197.5q0 117 81.5 199t195.5 82q116 0 197 -82t81 -199q0 -116 -81.5 -198t-196.5 -82z" />
    <glyph glyph-name="uni2605" unicode="&#x2605;" horiz-adv-x="756" 
d="M150 -37l87 267l-228 167h282l86 268l88 -268h282l-229 -167l88 -267l-229 165z" />
    <glyph glyph-name="uni2606" unicode="&#x2606;" horiz-adv-x="756" 
d="M150 -37l87 267l-228 167h282l86 268l88 -268h282l-229 -167l88 -267l-229 165zM223 61l154 113l156 -113l-59 182l157 114h-193l-61 183l-58 -183h-194l157 -114z" />
    <glyph glyph-name="uni2610" unicode="&#x2610;" horiz-adv-x="742" 
d="M45 0v551h552v-551h-552zM90 45h461v461h-461v-461z" />
    <glyph glyph-name="uni2713" unicode="&#x2713;" horiz-adv-x="656" 
d="M685 680l32 -27l-521 -571l-161 189l36 32l131 -153z" />
    <glyph glyph-name="uni2715" unicode="&#x2715;" horiz-adv-x="656" 
d="M148 74l-27 30l153 138l-121 138l34 30l121 -137l153 137l29 -31l-154 -139l122 -136l-35 -30l-121 135z" />
    <glyph glyph-name="uni2780" unicode="&#x2780;" horiz-adv-x="768" 
d="M434 707q136 0 227.5 -92.5t91.5 -229.5q0 -162 -116 -280t-281 -118q-136 0 -226.5 92t-90.5 229q0 160 118.5 279.5t276.5 119.5zM357 31q145 0 248.5 105t103.5 250q0 119 -78.5 198t-196.5 79q-140 0 -245.5 -107t-105.5 -249q0 -119 78 -197.5t196 -78.5zM300 470
l122 84h36l-51 -411h-45l43 351l-85 -60z" />
    <glyph glyph-name="uni2781" unicode="&#x2781;" horiz-adv-x="768" 
d="M356 -13q-136 0 -226.5 92t-90.5 229q0 160 118.5 279.5t276.5 119.5q136 0 227.5 -92.5t91.5 -229.5q0 -162 -116 -280t-281 -118zM357 31q145 0 248.5 105t103.5 250q0 119 -78.5 198t-196.5 79q-140 0 -245.5 -107t-105.5 -249q0 -119 78 -197.5t196 -78.5zM252 143
l3 34l144 136q87 81 87 139q0 28 -17.5 45.5t-53.5 17.5q-47 0 -99 -46l-25 34q61 56 130 56q54 0 83 -26.5t29 -73.5q0 -80 -96 -167l-113 -105v-2h182l-5 -42h-249z" />
    <glyph glyph-name="uni2782" unicode="&#x2782;" horiz-adv-x="768" 
d="M356 -13q-136 0 -226.5 92t-90.5 229q0 160 118.5 279.5t276.5 119.5q136 0 227.5 -92.5t91.5 -229.5q0 -162 -116 -280t-281 -118zM357 31q145 0 248.5 105t103.5 250q0 119 -78.5 198t-196.5 79q-140 0 -245.5 -107t-105.5 -249q0 -119 78 -197.5t196 -78.5zM375 139
q-79 0 -122 45l26 38q38 -40 95 -40q44 0 72 24.5t28 64.5q0 31 -19 48.5t-55 17.5h-40l5 38h42q37 0 60 23t23 58q0 60 -70 60q-53 0 -98 -40l-23 33q55 50 129 50q50 0 78.5 -23.5t28.5 -68.5q0 -38 -19 -67t-52 -43v-1q57 -21 57 -89q0 -57 -40.5 -92.5t-105.5 -35.5z
" />
    <glyph glyph-name="uni2783" unicode="&#x2783;" horiz-adv-x="768" 
d="M434 707q136 0 227.5 -92.5t91.5 -229.5q0 -162 -116 -280t-281 -118q-136 0 -226.5 92t-90.5 229q0 160 118.5 279.5t276.5 119.5zM357 31q145 0 248.5 105t103.5 250q0 119 -78.5 198t-196.5 79q-140 0 -245.5 -107t-105.5 -249q0 -119 78 -197.5t196 -78.5zM500 554
l-35 -284h58l-5 -41h-58l-11 -86h-46l11 86h-191l4 33l236 292h37zM425 268l27 216l-173 -216h146z" />
    <glyph glyph-name="uni2784" unicode="&#x2784;" horiz-adv-x="768" 
d="M434 707q136 0 227.5 -92.5t91.5 -229.5q0 -162 -116 -280t-281 -118q-136 0 -226.5 92t-90.5 229q0 160 118.5 279.5t276.5 119.5zM357 31q145 0 248.5 105t103.5 250q0 119 -78.5 198t-196.5 79q-140 0 -245.5 -107t-105.5 -249q0 -119 78 -197.5t196 -78.5zM295 352
l36 202h210l-5 -42h-171l-22 -122q35 13 72 13q51 0 80.5 -28t29.5 -83q0 -67 -42 -109.5t-112 -42.5q-77 0 -119 44l26 40q38 -41 93 -41q50 0 78 30.5t28 76.5q0 75 -79 75q-48 0 -78 -23z" />
    <glyph glyph-name="uni2785" unicode="&#x2785;" horiz-adv-x="768" 
d="M434 707q136 0 227.5 -92.5t91.5 -229.5q0 -162 -116 -280t-281 -118q-136 0 -226.5 92t-90.5 229q0 160 118.5 279.5t276.5 119.5zM357 31q145 0 248.5 105t103.5 250q0 119 -78.5 198t-196.5 79q-140 0 -245.5 -107t-105.5 -249q0 -119 78 -197.5t196 -78.5zM438 515
q-55 0 -91.5 -40t-47.5 -122q47 49 113 49q49 0 80 -29t31 -81q0 -63 -40 -107.5t-104 -44.5q-61 0 -96 42.5t-35 119.5q0 66 19 122t63.5 95t107.5 39q53 0 91 -19l-21 -39q-30 15 -70 15zM399 362q-67 0 -107 -64v-1q0 -52 23.5 -83t65.5 -31q40 0 67.5 30.5t27.5 75.5
q0 36 -20.5 54.5t-56.5 18.5z" />
    <glyph glyph-name="uni2786" unicode="&#x2786;" horiz-adv-x="768" 
d="M434 707q136 0 227.5 -92.5t91.5 -229.5q0 -162 -116 -280t-281 -118q-136 0 -226.5 92t-90.5 229q0 160 118.5 279.5t276.5 119.5zM357 31q145 0 248.5 105t103.5 250q0 119 -78.5 198t-196.5 79q-140 0 -245.5 -107t-105.5 -249q0 -119 78 -197.5t196 -78.5zM300 512
l5 42h254l-4 -32l-206 -379h-49l203 369h-203z" />
    <glyph glyph-name="uni2787" unicode="&#x2787;" horiz-adv-x="768" 
d="M356 -13q-136 0 -226.5 92t-90.5 229q0 160 118.5 279.5t276.5 119.5q136 0 227.5 -92.5t91.5 -229.5q0 -162 -116 -280t-281 -118zM357 31q145 0 248.5 105t103.5 250q0 119 -78.5 198t-196.5 79q-140 0 -245.5 -107t-105.5 -249q0 -119 78 -197.5t196 -78.5zM375 140
q-58 0 -91 26.5t-33 72.5t27 79.5t69 44.5v1q-24 7 -40.5 28.5t-16.5 51.5q0 53 38 84t97 31q53 0 82.5 -23.5t29.5 -64.5t-24 -70t-56 -37l-1 -1q33 -8 52 -32.5t19 -59.5q0 -59 -42.5 -95t-109.5 -36zM405 383q36 0 61 22t25 56q0 59 -70 59q-39 0 -62.5 -20t-23.5 -55
q0 -29 19 -45.5t51 -16.5zM380 180q45 0 72.5 25t27.5 67q0 33 -21.5 52t-59.5 19q-45 0 -73 -26t-28 -67q0 -32 21 -51t61 -19z" />
    <glyph glyph-name="uni2788" unicode="&#x2788;" horiz-adv-x="768" 
d="M434 707q136 0 227.5 -92.5t91.5 -229.5q0 -162 -116 -280t-281 -118q-136 0 -226.5 92t-90.5 229q0 160 118.5 279.5t276.5 119.5zM357 31q145 0 248.5 105t103.5 250q0 119 -78.5 198t-196.5 79q-140 0 -245.5 -107t-105.5 -249q0 -119 78 -197.5t196 -78.5zM411 558
q61 0 96 -42.5t35 -119.5q0 -104 -49 -179.5t-142 -76.5q-53 0 -90 20l21 39q29 -16 70 -16q55 0 91.5 40t47.5 122q-47 -49 -112 -49q-50 0 -81 29t-31 81q0 63 40 107.5t104 44.5zM391 336q67 0 106 63v2q0 53 -23 83.5t-64 30.5t-68.5 -30.5t-27.5 -75.5
q0 -36 20.5 -54.5t56.5 -18.5z" />
    <glyph glyph-name="uni278A" unicode="&#x278a;" horiz-adv-x="768" 
d="M356 -13q-136 0 -226.5 92t-90.5 229q0 160 118.5 279.5t276.5 119.5q136 0 227.5 -92.5t91.5 -229.5q0 -162 -116 -280t-281 -118zM361 143h46l50 411h-37l-121 -84l20 -36l85 59z" />
    <glyph glyph-name="uni278B" unicode="&#x278b;" horiz-adv-x="768" 
d="M356 -13q-136 0 -226.5 92t-90.5 229q0 160 118.5 279.5t276.5 119.5q136 0 227.5 -92.5t91.5 -229.5q0 -162 -116 -280t-281 -118zM251 143h248l6 42h-182v2l113 105q96 87 96 167q0 47 -29 73.5t-83 26.5q-69 0 -130 -56l25 -34q52 46 99 46q36 0 53.5 -17.5
t17.5 -45.5q0 -58 -87 -139l-144 -136z" />
    <glyph glyph-name="uni278C" unicode="&#x278c;" horiz-adv-x="768" 
d="M356 -13q-136 0 -226.5 92t-90.5 229q0 160 118.5 279.5t276.5 119.5q136 0 227.5 -92.5t91.5 -229.5q0 -162 -116 -280t-281 -118zM374 139q65 0 105.5 35.5t40.5 92.5q0 68 -57 89v1q33 14 52 43t19 67q0 45 -28.5 68.5t-78.5 23.5q-73 0 -130 -50l24 -33q45 40 97 40
q71 0 71 -60q0 -35 -23 -58t-60 -23h-42l-5 -38h40q36 0 55 -17.5t19 -48.5q0 -40 -28 -64.5t-72 -24.5q-57 0 -95 40l-27 -38q45 -45 123 -45z" />
    <glyph glyph-name="uni278D" unicode="&#x278d;" horiz-adv-x="768" 
d="M356 -13q-136 0 -226.5 92t-90.5 229q0 160 118.5 279.5t276.5 119.5q136 0 227.5 -92.5t91.5 -229.5q0 -162 -116 -280t-281 -118zM402 143h45l11 86h58l5 41h-57l34 284h-36l-236 -292l-4 -33h190zM277 268l174 217l-27 -217h-147z" />
    <glyph glyph-name="uni278E" unicode="&#x278e;" horiz-adv-x="768" 
d="M356 -13q-136 0 -226.5 92t-90.5 229q0 160 118.5 279.5t276.5 119.5q136 0 227.5 -92.5t91.5 -229.5q0 -162 -116 -280t-281 -118zM369 140q70 0 111.5 42.5t41.5 109.5q0 55 -29 83t-80 28q-38 0 -72 -14l22 123h170l6 42h-210l-36 -202l25 -10q30 23 78 23
q79 0 79 -75q0 -46 -28.5 -76.5t-77.5 -30.5q-55 0 -94 41l-25 -40q42 -44 119 -44z" />
    <glyph glyph-name="uni278F" unicode="&#x278f;" horiz-adv-x="768" 
d="M356 -13q-136 0 -226.5 92t-90.5 229q0 160 118.5 279.5t276.5 119.5q136 0 227.5 -92.5t91.5 -229.5q0 -162 -116 -280t-281 -118zM376 140q64 0 104 44.5t40 107.5q0 52 -30.5 81t-79.5 29q-66 0 -112 -53l-2 1q10 83 47 124t92 41q41 0 71 -15l20 39q-38 19 -90 19
q-93 0 -141.5 -76t-48.5 -180q0 -77 34.5 -119.5t95.5 -42.5zM378 183q-42 0 -65 31.5t-23 81.5q17 30 45.5 48t61.5 18q36 0 56 -19t20 -54q0 -45 -27.5 -75.5t-67.5 -30.5z" />
    <glyph glyph-name="uni2790" unicode="&#x2790;" horiz-adv-x="768" 
d="M356 -13q-136 0 -226.5 92t-90.5 229q0 160 118.5 279.5t276.5 119.5q136 0 227.5 -92.5t91.5 -229.5q0 -162 -116 -280t-281 -118zM298 143h49l207 379l4 32h-254l-6 -42h203z" />
    <glyph glyph-name="uni2791" unicode="&#x2791;" horiz-adv-x="768" 
d="M356 -13q-136 0 -226.5 92t-90.5 229q0 160 118.5 279.5t276.5 119.5q136 0 227.5 -92.5t91.5 -229.5q0 -162 -116 -280t-281 -118zM373 140q67 0 109.5 36t42.5 95q0 35 -19 59.5t-52 32.5l1 1q32 8 56 37t24 70t-29.5 64.5t-82.5 23.5q-59 0 -97 -31t-38 -84
q0 -30 16.5 -51.5t40.5 -28.5v-1q-42 -11 -69 -44.5t-27 -79.5t33 -72.5t91 -26.5zM403 383q-32 0 -51 16.5t-19 45.5q0 35 23.5 55t62.5 20q70 0 70 -59q0 -34 -25 -56t-61 -22zM378 180q-40 0 -61 19t-21 51q0 41 28 67t73 26q38 0 59.5 -19t21.5 -52q0 -42 -27.5 -67
t-72.5 -25z" />
    <glyph glyph-name="uni2792" unicode="&#x2792;" horiz-adv-x="768" 
d="M356 -13q-136 0 -226.5 92t-90.5 229q0 160 118.5 279.5t276.5 119.5q136 0 227.5 -92.5t91.5 -229.5q0 -162 -116 -280t-281 -118zM350 140q93 1 142 76.5t49 179.5q0 77 -35 119.5t-96 42.5q-64 0 -104 -44.5t-40 -107.5q0 -52 31 -81t81 -29q67 0 111 54l2 -1
q-10 -83 -47.5 -124.5t-92.5 -41.5q-41 0 -70 16l-21 -39q37 -20 90 -20zM390 336q-36 0 -56.5 18.5t-20.5 54.5q0 45 27.5 75.5t68.5 30.5t63.5 -30t23.5 -83q-16 -30 -44.5 -48t-61.5 -18z" />
    <glyph glyph-name="uni2E18" unicode="&#x2e18;" horiz-adv-x="378" 
d="M247 405q-18 0 -30 12t-12 30t12.5 30.5t30.5 12.5q19 0 30.5 -12t11.5 -30t-12 -30.5t-31 -12.5zM298 -126l35 -36q-33 -45 -81 -69.5t-100 -24.5q-66 0 -108 42t-42 110q0 62 27 109.5t82 100.5l17 17t16.5 17t14 15t14 16.5t10.5 15t10 16.5t6.5 16t4.5 18l9 56h46
l-42 -411h-60l35 244q-6 -7 -19.5 -20.5t-17.5 -18.5q-52 -53 -74 -90t-22 -91q0 -53 28.5 -81t77.5 -28q37 0 72.5 19.5t60.5 57.5z" />
    <glyph glyph-name="u1F10B" unicode="&#x1f10b;" horiz-adv-x="768" 
d="M356 -13q-136 0 -226.5 92t-90.5 229q0 160 118.5 279.5t276.5 119.5q136 0 227.5 -92.5t91.5 -229.5q0 -162 -116 -280t-281 -118zM357 31q145 0 248.5 105t103.5 250q0 119 -78.5 198t-196.5 79q-140 0 -245.5 -107t-105.5 -249q0 -119 78 -197.5t196 -78.5zM374 138
q-61 0 -95.5 43.5t-34.5 122.5q0 103 48 179.5t129 76.5q61 0 96 -44t35 -123q0 -103 -48 -179t-130 -76zM376 183q61 0 95.5 64t34.5 147q0 59 -23 90.5t-62 31.5q-62 0 -96.5 -64.5t-34.5 -148.5q0 -59 23 -89.5t63 -30.5z" />
    <glyph glyph-name="u1F10C" unicode="&#x1f10c;" horiz-adv-x="768" 
d="M356 -13q-136 0 -226.5 92t-90.5 229q0 160 118.5 279.5t276.5 119.5q136 0 227.5 -92.5t91.5 -229.5q0 -162 -116 -280t-281 -118zM372 138q82 0 130 76t48 179q0 79 -35 123t-95 44q-82 0 -130 -76.5t-48 -179.5q0 -79 34.5 -122.5t95.5 -43.5zM374 183q-40 0 -63 30.5
t-23 89.5q0 84 34.5 148.5t96.5 64.5q39 0 62 -31.5t23 -90.5q0 -84 -34 -147.5t-96 -63.5z" />
    <glyph glyph-name="uni00A40301" horiz-adv-x="496" 
d="M423 788l123 127l61 1l-128 -128h-56zM200 -5q-124 0 -193 99l36 44q63 -89 157 -89q138 0 160 179l59 482h56l-59 -485q-28 -230 -216 -230z" />
    <glyph glyph-name="i.loclTRK" horiz-adv-x="235" 
d="M166 591q-18 0 -29 12t-11 30q0 19 12 31t30 12t30 -11.5t12 -29.5q0 -19 -12.5 -31.5t-31.5 -12.5zM62 0l59 485h52l-60 -485h-51z" />
    <glyph glyph-name="uni006A0301" horiz-adv-x="181" 
d="M98 560l125 138h62l-129 -138h-58zM-52 -202q-36 0 -65 18l15 44q23 -16 47 -16q32 0 51 23t26 83l66 535h52l-67 -541q-8 -75 -38 -110.5t-87 -35.5z" />
    <glyph glyph-name="f.calt" horiz-adv-x="344" 
d="M79 0l53 439h-76l6 46h76l11 96q11 85 52.5 122.5t101.5 37.5q40 0 73 -12l-18 -46q-21 9 -51 9q-93 0 -107 -118l-10 -89h153l-6 -46h-153l-53 -439h-52z" />
    <glyph glyph-name="germandbls.calt" horiz-adv-x="707" 
d="M502 387q4 -2 30 -17t31 -18t26.5 -16.5t27.5 -20t21.5 -20t20.5 -23.5t13 -25t10.5 -30.5t2.5 -33.5q0 -86 -61.5 -137t-160.5 -51q-141 0 -218 99l39 41q71 -88 181 -88q73 0 117 37t44 98q0 28 -10.5 51t-34 42.5t-44 31.5t-55.5 30q-46 24 -84 49l167 254l-1 4
q-100 19 -182 19q-95 0 -144.5 -39t-59.5 -124l-61 -500h-56l61 504q26 211 258 211q124 0 269 -37l-180 -273q3 -1 14 -7t19 -11z" />
    <glyph glyph-name="zero.tf" horiz-adv-x="586" 
d="M261 -5q-85 0 -137.5 66.5t-52.5 193.5q0 111 30 208t95.5 162.5t154.5 65.5q86 0 136.5 -65.5t50.5 -194.5q0 -112 -29 -208.5t-93.5 -162t-154.5 -65.5zM262 47q74 0 126 60t74 144.5t22 180.5q0 104 -37 156t-100 52q-55 0 -98.5 -35t-69 -92t-39 -123.5t-13.5 -135.5
q0 -102 37.5 -154.5t97.5 -52.5z" />
    <glyph glyph-name="one.tf" horiz-adv-x="586" 
d="M332 51h129l-6 -51h-350l7 51h165l69 564l-167 -109l-27 43l212 138h46z" />
    <glyph glyph-name="two.tf" horiz-adv-x="586" 
d="M67 0l5 41l243 234q69 66 108 125t39 122q0 52 -30.5 85t-94.5 33q-84 0 -169 -81l-32 40q96 92 205 92q83 0 129.5 -44.5t46.5 -120.5q0 -132 -158 -279l-205 -194v-2h317l-7 -51h-397z" />
    <glyph glyph-name="three.tf" horiz-adv-x="586" 
d="M264 -5q-126 0 -197 80l33 44q60 -72 164 -72q79 0 126.5 47.5t47.5 123.5q0 53 -32 84.5t-96 31.5h-73l7 48h71q68 0 109 45t41 110q0 49 -32 76t-91 27q-90 0 -165 -69l-32 40q85 80 202 80q80 0 126 -38t46 -111q0 -65 -31.5 -113t-86.5 -69v-2q93 -34 93 -146
q0 -97 -64 -157t-166 -60z" />
    <glyph glyph-name="four.tf" horiz-adv-x="586" 
d="M419 205h95l-7 -49h-94l-19 -156h-55l20 156h-305l5 42l373 489h46zM367 203l47 382l-292 -382h245z" />
    <glyph glyph-name="five.tf" horiz-adv-x="586" 
d="M521 636h-285l-40 -229q58 24 124 24q84 0 131 -46.5t47 -136.5q0 -112 -66 -182.5t-176 -70.5q-121 0 -192 80l33 44q60 -72 159 -72q86 0 136.5 56t50.5 141q0 138 -142 138q-80 0 -136 -40l-31 14l59 331h335z" />
    <glyph glyph-name="six.tf" horiz-adv-x="586" 
d="M342 429q80 0 128 -46t48 -134q0 -106 -66 -180t-167 -74q-94 0 -148.5 67t-54.5 191q0 83 18.5 159.5t54.5 140t97 101.5t138 38q80 0 135 -29l-26 -47q-47 24 -110 24q-102 0 -166.5 -80.5t-81.5 -219.5q-1 -3 -1.5 -10t-0.5 -10l5 -2q35 51 86.5 81t111.5 30zM286 47
q75 0 126 57.5t51 142.5q0 64 -34 98.5t-97 34.5q-57 0 -110.5 -34.5t-85.5 -93.5q2 -96 40 -150.5t110 -54.5z" />
    <glyph glyph-name="seven.tf" horiz-adv-x="586" 
d="M140 0l334 636h-337l6 51h399l-5 -42l-337 -645h-60z" />
    <glyph glyph-name="eight.tf" horiz-adv-x="586" 
d="M264 -4q-93 0 -144.5 42.5t-51.5 122.5q0 77 43 133.5t110 74.5l1 2q-37 12 -63.5 47t-26.5 87q0 85 60.5 135.5t153.5 50.5q82 0 128.5 -39.5t46.5 -106.5q0 -68 -39 -115t-87 -60v-2q51 -14 81 -54.5t30 -99.5q0 -99 -67 -158.5t-175 -59.5zM312 391q65 0 110 40.5
t45 104.5q0 50 -33.5 77.5t-92.5 27.5q-68 0 -111.5 -37.5t-43.5 -99.5q0 -51 35 -82t91 -31zM271 46q81 0 129.5 45t49.5 120q0 60 -39 95.5t-107 35.5q-80 0 -130.5 -48t-50.5 -123q0 -58 37.5 -91.5t110.5 -33.5z" />
    <glyph glyph-name="nine.tf" horiz-adv-x="586" 
d="M330 692q94 0 148 -67t54 -191q0 -84 -18.5 -160t-54 -139.5t-96.5 -101.5t-139 -38q-82 0 -137 31l26 48q47 -27 112 -27q103 0 168.5 81t79.5 219l3 21l-5 2q-35 -52 -86.5 -82t-112.5 -30q-80 0 -127.5 46t-47.5 134q0 106 66 180t167 74zM282 307q59 0 112.5 35
t84.5 95q-2 95 -40.5 149t-110.5 54q-75 0 -125.5 -57.5t-50.5 -142.5q0 -64 33.5 -98.5t96.5 -34.5z" />
    <glyph glyph-name="zero.tf.zero" horiz-adv-x="586" 
d="M261 -5q-85 0 -137.5 66.5t-52.5 193.5q0 111 30 208t95.5 162.5t154.5 65.5q86 0 136.5 -65.5t50.5 -194.5q0 -112 -29 -208.5t-93.5 -162t-154.5 -65.5zM262 47q74 0 126 60t74 144.5t22 180.5q0 104 -37 156t-100 52q-55 0 -98.5 -35t-69 -92t-39 -123.5t-13.5 -135.5
q0 -102 37.5 -154.5t97.5 -52.5zM313 301q-18 0 -29 11.5t-11 29.5q0 17 11.5 29t29.5 12q17 0 29 -11.5t12 -28.5q0 -18 -12.5 -30t-29.5 -12z" />
    <glyph glyph-name="zero.zero" horiz-adv-x="582" 
d="M259 -5q-85 0 -137.5 66.5t-52.5 193.5q0 111 30 208t95.5 162.5t154.5 65.5q86 0 136.5 -65.5t50.5 -194.5q0 -112 -29 -208.5t-93.5 -162t-154.5 -65.5zM260 47q74 0 126 60t74 144.5t22 180.5q0 104 -37 156t-100 52q-55 0 -98.5 -35t-69 -92t-39 -123.5t-13.5 -135.5
q0 -102 37.5 -154.5t97.5 -52.5zM311 301q-18 0 -29 11.5t-11 29.5q0 17 11.5 29t29.5 12q17 0 29 -11.5t12 -28.5q0 -18 -12.5 -30t-29.5 -12z" />
    <glyph glyph-name="zero.dnom" horiz-adv-x="365" 
d="M154 -5q-61 0 -95.5 43.5t-34.5 122.5q0 103 48 179.5t129 76.5q61 0 96 -44t35 -123q0 -103 -48 -179t-130 -76zM156 40q61 0 95.5 64t34.5 147q0 59 -23 90.5t-62 31.5q-62 0 -96.5 -64.5t-34.5 -148.5q0 -59 23 -89.5t63 -30.5z" />
    <glyph glyph-name="one.dnom" horiz-adv-x="238" 
d="M151 411h36l-51 -411h-45l43 351l-85 -60l-20 36z" />
    <glyph glyph-name="two.dnom" horiz-adv-x="311" 
d="M-3 0l3 34l144 136q87 81 87 139q0 28 -17.5 45.5t-53.5 17.5q-47 0 -99 -46l-25 34q61 56 130 56q54 0 83 -26.5t29 -73.5q0 -80 -96 -167l-113 -105v-2h182l-5 -42h-249z" />
    <glyph glyph-name="three.dnom" horiz-adv-x="313" 
d="M122 -4q-79 0 -122 45l26 38q38 -40 95 -40q44 0 72 24.5t28 64.5q0 31 -19 48.5t-55 17.5h-40l5 38h42q37 0 60 23t23 58q0 60 -70 60q-53 0 -98 -40l-23 33q55 50 129 50q50 0 78.5 -23.5t28.5 -68.5q0 -38 -19 -67t-52 -43v-1q57 -21 57 -89q0 -57 -40.5 -92.5
t-105.5 -35.5z" />
    <glyph glyph-name="four.dnom" horiz-adv-x="340" 
d="M243 127h58l-5 -41h-58l-11 -86h-46l11 86h-191l4 33l236 292h37zM203 125l27 216l-173 -216h146z" />
    <glyph glyph-name="five.dnom" horiz-adv-x="316" 
d="M287 369h-171l-22 -122q35 13 72 13q51 0 80.5 -28t29.5 -83q0 -67 -42 -109.5t-112 -42.5q-77 0 -119 44l26 40q38 -41 93 -41q50 0 78 30.5t28 76.5q0 75 -79 75q-48 0 -78 -23l-25 10l36 202h210z" />
    <glyph glyph-name="six.dnom" horiz-adv-x="337" 
d="M187 259q49 0 80 -29t31 -81q0 -63 -40 -107.5t-104 -44.5q-61 0 -96 42.5t-35 119.5q0 66 19 122t63.5 95t107.5 39q53 0 91 -19l-21 -39q-30 15 -70 15q-55 0 -91.5 -40t-47.5 -122q47 49 113 49zM156 40q40 0 67.5 30.5t27.5 75.5q0 36 -20.5 54.5t-56.5 18.5
q-67 0 -107 -64v-1q0 -52 23.5 -83t65.5 -31z" />
    <glyph glyph-name="seven.dnom" horiz-adv-x="301" 
d="M43 411h254l-4 -32l-206 -379h-49l203 369h-203z" />
    <glyph glyph-name="eight.dnom" horiz-adv-x="338" 
d="M139 -3q-58 0 -91 26.5t-33 72.5t27 79.5t69 44.5v1q-24 7 -40.5 28.5t-16.5 51.5q0 53 38 84t97 31q53 0 82.5 -23.5t29.5 -64.5t-24 -70t-56 -37l-1 -1q33 -8 52 -32.5t19 -59.5q0 -59 -42.5 -95t-109.5 -36zM169 240q36 0 61 22t25 56q0 59 -70 59q-39 0 -62.5 -20
t-23.5 -55q0 -29 19 -45.5t51 -16.5zM144 37q45 0 72.5 25t27.5 67q0 33 -21.5 52t-59.5 19q-45 0 -73 -26t-28 -67q0 -32 21 -51t61 -19z" />
    <glyph glyph-name="nine.dnom" horiz-adv-x="332" 
d="M169 415q61 0 96 -42.5t35 -119.5q0 -104 -49 -179.5t-142 -76.5q-53 0 -90 20l21 39q29 -16 70 -16q55 0 91.5 40t47.5 122q-47 -49 -112 -49q-50 0 -81 29t-31 81q0 63 40 107.5t104 44.5zM149 193q67 0 106 63v2q0 53 -23 83.5t-64 30.5t-68.5 -30.5t-27.5 -75.5
q0 -36 20.5 -54.5t56.5 -18.5z" />
    <glyph glyph-name="zero.numr" horiz-adv-x="365" 
d="M191 294q-61 0 -95.5 43.5t-34.5 122.5q0 103 48 179.5t129 76.5q61 0 96 -44t35 -123q0 -103 -48 -179t-130 -76zM193 339q61 0 95.5 64t34.5 147q0 59 -23 90.5t-62 31.5q-62 0 -96.5 -64.5t-34.5 -148.5q0 -59 23 -89.5t63 -30.5z" />
    <glyph glyph-name="one.numr" horiz-adv-x="238" 
d="M188 710h36l-51 -411h-45l43 351l-85 -60l-20 36z" />
    <glyph glyph-name="two.numr" horiz-adv-x="311" 
d="M34 299l3 34l144 136q87 81 87 139q0 28 -17.5 45.5t-53.5 17.5q-47 0 -99 -46l-25 34q61 56 130 56q54 0 83 -26.5t29 -73.5q0 -80 -96 -167l-113 -105v-2h182l-5 -42h-249z" />
    <glyph glyph-name="three.numr" horiz-adv-x="314" 
d="M159 295q-79 0 -122 45l26 38q38 -40 95 -40q44 0 72 24.5t28 64.5q0 31 -19 48.5t-55 17.5h-40l5 38h42q37 0 60 23t23 58q0 60 -70 60q-53 0 -98 -40l-23 33q55 50 129 50q50 0 78.5 -23.5t28.5 -68.5q0 -38 -19 -67t-52 -43v-1q57 -21 57 -89q0 -57 -40.5 -92.5
t-105.5 -35.5z" />
    <glyph glyph-name="four.numr" horiz-adv-x="339" 
d="M280 426h58l-5 -41h-58l-11 -86h-46l11 86h-191l4 33l236 292h37zM240 424l27 216l-173 -216h146z" />
    <glyph glyph-name="five.numr" horiz-adv-x="316" 
d="M324 668h-171l-22 -122q35 13 72 13q51 0 80.5 -28t29.5 -83q0 -67 -42 -109.5t-112 -42.5q-77 0 -119 44l26 40q38 -41 93 -41q50 0 78 30.5t28 76.5q0 75 -79 75q-48 0 -78 -23l-25 10l36 202h210z" />
    <glyph glyph-name="six.numr" horiz-adv-x="337" 
d="M224 559q49 0 80 -29t31 -81q0 -63 -40 -107.5t-104 -44.5q-61 0 -96 42.5t-35 119.5q0 66 19 122t63.5 95t107.5 39q53 0 91 -19l-21 -39q-30 15 -70 15q-55 0 -91.5 -40t-47.5 -122q47 49 113 49zM193 340q40 0 67.5 30.5t27.5 75.5q0 36 -20.5 54.5t-56.5 18.5
q-67 0 -107 -64v-1q0 -52 23.5 -83t65.5 -31z" />
    <glyph glyph-name="seven.numr" horiz-adv-x="301" 
d="M80 710h254l-4 -32l-206 -379h-49l203 369h-203z" />
    <glyph glyph-name="eight.numr" horiz-adv-x="338" 
d="M176 296q-58 0 -91 26.5t-33 72.5t27 79.5t69 44.5v1q-24 7 -40.5 28.5t-16.5 51.5q0 53 38 84t97 31q52 0 82 -23.5t30 -64.5t-24 -70t-56 -37l-1 -1q33 -8 52 -32.5t19 -59.5q0 -59 -42.5 -95t-109.5 -36zM206 539q36 0 61 22t25 56q0 59 -70 59q-39 0 -62.5 -20
t-23.5 -55q0 -29 19 -45.5t51 -16.5zM181 336q45 0 72.5 25t27.5 67q0 33 -21.5 52t-59.5 19q-45 0 -73 -26t-28 -67q0 -32 21 -51t61 -19z" />
    <glyph glyph-name="nine.numr" horiz-adv-x="332" 
d="M206 714q61 0 96 -42.5t35 -119.5q0 -104 -49 -179.5t-142 -76.5q-53 0 -90 20l21 39q29 -16 70 -16q55 0 91.5 40t47.5 122q-47 -49 -112 -49q-50 0 -81 29t-31 81q0 63 40 107.5t104 44.5zM186 492q67 0 106 63v2q0 53 -23 83.5t-64 30.5t-68.5 -30.5t-27.5 -75.5
q0 -36 20.5 -54.5t56.5 -18.5z" />
    <glyph glyph-name="bullet.case" horiz-adv-x="435" 
d="M224 248q-39 0 -65.5 26.5t-26.5 66.5t27.5 67t68.5 27q39 0 65.5 -26t26.5 -66q0 -41 -27.5 -68t-68.5 -27z" />
    <glyph glyph-name="exclamdown.case" horiz-adv-x="237" 
d="M170 741q19 0 30.5 -12t11.5 -30t-12 -30.5t-31 -12.5q-18 0 -30 12t-12 30t12.5 30.5t30.5 12.5zM174 541l-57 -541h-58l76 541h39z" />
    <glyph glyph-name="periodcentered.loclCAT.case" horiz-adv-x="157" 
d="M23 293q-19 0 -30.5 12t-11.5 30t12 30.5t31 12.5q18 0 30 -12t12 -30t-12.5 -30.5t-30.5 -12.5z" />
    <glyph glyph-name="questiondown.case" horiz-adv-x="407" 
d="M268 741q19 0 30.5 -12t11.5 -30t-12 -30.5t-31 -12.5q-18 0 -30 12t-12 30t12.5 30.5t30.5 12.5zM281 544l-7 -55q-1 -9 -3.5 -18.5t-5 -17t-8 -16.5t-8.5 -14.5t-10.5 -15.5l-10.5 -14t-13 -15t-13 -14t-14.5 -15t-14.5 -15q-46 -49 -68.5 -88t-22.5 -90q0 -52 28 -80
t75 -28q83 0 134 76l35 -36q-33 -45 -81.5 -69t-100.5 -24q-67 0 -108 42t-41 113q0 61 28 108t80 99l17 17t17 17.5t14.5 15.5t14 16l10.5 15t10 17t6.5 15.5t4.5 17.5l8 56h48z" />
    <glyph glyph-name="uni2E18.case" horiz-adv-x="407" 
d="M266 656q-18 0 -30 12t-12 30t12.5 30.5t30.5 12.5q19 0 30.5 -12t11.5 -30t-12 -30.5t-31 -12.5zM317 125l35 -36q-33 -45 -81 -69.5t-100 -24.5q-66 0 -108 42t-42 110q0 62 27 109.5t82 100.5l17 17t16.5 17t14 15t14 16.5t10.5 15t10 16.5t6.5 16t4.5 18l9 56h46
l-42 -411h-60l35 244q-6 -7 -19.5 -20.5t-17.5 -18.5q-52 -53 -74 -90t-22 -91q0 -53 28.5 -81t77.5 -28q37 0 72.5 19.5t60.5 57.5z" />
    <glyph glyph-name="periodcentered.loclCAT" horiz-adv-x="86" 
d="M49 259q-19 0 -30.5 12t-11.5 30t12 30.5t31 12.5q18 0 30 -12t12 -30t-12.5 -30.5t-30.5 -12.5z" />
    <glyph glyph-name="colon.tf" horiz-adv-x="293" 
d="M173 405q-19 0 -30.5 12t-11.5 30t12 30.5t31 12.5q18 0 30 -12t12 -30t-12.5 -30.5t-30.5 -12.5zM121 -5q-19 0 -30.5 12t-11.5 30t12 30.5t31 12.5q18 0 30 -12t12 -30t-12.5 -30.5t-30.5 -12.5z" />
    <glyph glyph-name="comma.tf" horiz-adv-x="293" 
d="M60 -129l59 229h58l-76 -229h-41z" />
    <glyph glyph-name="numbersign.tf" horiz-adv-x="586" 
d="M98 -9l56 214h-112l6 43h117l45 173h-122l5 42h128l56 214h41l-56 -214h158l54 214h41l-55 -214h116l-6 -42h-122l-45 -173h127l-6 -43h-133l-55 -214h-41l56 214h-157l-55 -214h-41zM205 248h158l44 173h-156z" />
    <glyph glyph-name="period.tf" horiz-adv-x="293" 
d="M120 -5q-19 0 -30.5 12t-11.5 30t12 30.5t31 12.5q18 0 30 -12t12 -30t-12.5 -30.5t-30.5 -12.5z" />
    <glyph glyph-name="braceleft.case" horiz-adv-x="256" 
d="M168 -96q-40 0 -63.5 27.5t-17.5 73.5l29 232q1 19 1 34.5t-15 26.5t-47 13l4 44q25 2 41 9t23.5 19t10.5 22t5 26l30 242q5 43 33 71.5t71 28.5h40l-5 -40h-24q-28 0 -47.5 -20t-23.5 -51l-29 -235q-5 -43 -18.5 -64t-45.5 -29v-2q30 -8 38 -29t3 -67l-26 -212
q-5 -43 7 -62t43 -19h26l-5 -39h-38z" />
    <glyph glyph-name="braceright.case" horiz-adv-x="265" 
d="M-25 -96l6 39h24q32 0 49.5 20t22.5 64l26 212q5 46 18.5 66t46.5 27v2q-30 8 -38.5 30.5t-2.5 65.5l29 234q4 31 -10 50t-42 19h-26l4 40h40q42 0 64 -29.5t17 -73.5l-30 -241q-2 -19 -2 -34t15 -26t47 -14l-4 -44q-25 -2 -41 -8.5t-24 -18.5t-10.5 -22t-4.5 -27
l-28 -232q-6 -46 -35 -72.5t-69 -26.5h-42z" />
    <glyph glyph-name="bracketleft.case" horiz-adv-x="235" 
d="M43 -98l107 869h155l-5 -43h-109l-96 -784h109l-5 -42h-156z" />
    <glyph glyph-name="bracketright.case" horiz-adv-x="250" 
d="M-34 -97l6 42h110l96 784h-110l5 43h158l-107 -869h-158z" />
    <glyph glyph-name="parenleft.case" horiz-adv-x="223" 
d="M127 -99q-51 143 -51 307q0 153 42 303.5t121 269.5l38 -18q-73 -117 -112 -260t-39 -287q0 -147 45 -294z" />
    <glyph glyph-name="parenright.case" horiz-adv-x="248" 
d="M54 -97l-39 17q148 266 148 545q0 161 -49 295l44 23q55 -132 55 -311q0 -301 -159 -569z" />
    <glyph glyph-name="emdash.case" horiz-adv-x="1033" 
d="M58 295l5 48h934l-6 -48h-933z" />
    <glyph glyph-name="endash.case" horiz-adv-x="567" 
d="M58 295l5 48h467l-6 -48h-466z" />
    <glyph glyph-name="uni2015.case" horiz-adv-x="1179" 
d="M57 295l6 48h1080l-6 -48h-1080z" />
    <glyph glyph-name="hyphen.case" horiz-adv-x="353" 
d="M58 299l6 50h253l-5 -50h-254z" />
    <glyph glyph-name="hyphen.tf" horiz-adv-x="586" 
d="M85 252l6 49h418l-6 -49h-418z" />
    <glyph glyph-name="guillemotleft.case" horiz-adv-x="406" 
d="M141 71l-89 225l144 225h51l-142 -225l87 -225h-51zM293 71l-89 225l144 225h51l-142 -225l86 -225h-50z" />
    <glyph glyph-name="guillemotright.case" horiz-adv-x="413" 
d="M30 64l142 225l-87 225h51l89 -225l-144 -225h-51zM183 64l141 225l-86 225h50l90 -225l-145 -225h-50z" />
    <glyph glyph-name="cent.tf" horiz-adv-x="586" 
d="M284 99q94 0 153 68l40 -30q-65 -75 -161 -85l-13 -110h-39l13 108q-76 2 -128 55.5t-52 143.5q0 118 66 202.5t174 91.5l13 116h39l-14 -116q94 -9 141 -77l-42 -31q-41 61 -120 61q-91 0 -147 -71t-56 -174q0 -68 38 -110t95 -42z" />
    <glyph glyph-name="dollar.tf" horiz-adv-x="586" 
d="M317 365q6 -3 18 -10q39 -22 59 -34.5t46 -35t37.5 -49.5t11.5 -61q0 -81 -58 -130t-147 -49h-1l-15 -120h-42l15 123q-119 17 -183 100l37 41q35 -43 86.5 -67.5t103.5 -24.5q65 0 106 35t41 88q0 23 -9 42.5t-28 35.5t-38.5 27.5t-49.5 28.5q-10 5 -15 8q-34 19 -47 27
t-40.5 28t-39 35.5t-22 40.5t-10.5 53q0 72 53 119t135 50l15 126h42l-15 -128q100 -12 160 -79l-37 -38q-30 34 -73.5 51t-83.5 17q-60 0 -99.5 -31.5t-39.5 -80.5q0 -24 9 -43.5t31.5 -37.5t36.5 -27t50 -30z" />
    <glyph glyph-name="dong.tf" horiz-adv-x="586" 
d="M581 619l-5 -40h-53l-71 -579h-52l16 133l-2 1q-73 -139 -192 -139q-80 0 -123.5 54.5t-43.5 139.5q0 124 69 212.5t178 88.5q98 0 149 -57l2 1l18 145h-205l5 40h205l14 117h52l-14 -117h53zM437 302l9 78q-23 33 -63.5 47.5t-78.5 14.5q-87 0 -141.5 -75.5
t-54.5 -178.5q0 -65 31.5 -105t89.5 -40q77 0 135.5 76.5t72.5 182.5zM26 -134l6 49h418l-6 -49h-418z" />
    <glyph glyph-name="Euro.tf" horiz-adv-x="586" 
d="M414 639q-85 0 -148.5 -59.5t-91.5 -156.5h277l-5 -41h-282q-6 -34 -8 -84h280l-5 -40h-274q7 -104 56.5 -157.5t123.5 -53.5q81 0 150 51l28 -44q-81 -58 -180 -58q-95 0 -161 67t-73 195h-58l5 40h52q2 50 8 84h-50l5 41h53q32 120 111.5 193.5t187.5 73.5
q97 0 164 -58l-38 -40q-50 47 -127 47z" />
    <glyph glyph-name="florin.tf" horiz-adv-x="586" 
d="M109 -109q-71 0 -108 41l26 37q29 -28 76 -28q80 0 108 112l87 367h-70l12 47h71l31 125q36 149 148 149q70 0 108 -40l-27 -37q-31 28 -76 28q-77 0 -103 -113l-26 -112h141l-13 -47h-141l-92 -379q-35 -150 -152 -150z" />
    <glyph glyph-name="uni20BA.tf" horiz-adv-x="586" 
d="M473 189l45 -20q-83 -169 -265 -169h-147l28 228l-63 -30l-13 39l82 38l9 76l-64 -30l-12 39l82 38l35 289h56l-32 -261l195 91l13 -39l-214 -100l-9 -75l195 91l13 -38l-214 -101l-25 -206h85q82 0 131.5 33t88.5 107z" />
    <glyph glyph-name="peseta.tf" horiz-adv-x="586" 
d="M593 501l-5 -41h-73q-15 -88 -76.5 -136t-160.5 -48h-118l-33 -276h-55l57 460h-77l5 41h77l23 186h178q93 0 138.5 -44.5t45.5 -127.5v-14h74zM205 636l-17 -135h275v12q-1 62 -35.5 92.5t-93.5 30.5h-129zM278 326q74 0 120 35t60 99h-275l-16 -134h111z" />
    <glyph glyph-name="uni20B1.tf" horiz-adv-x="586" 
d="M594 511h-74q0 -33 -6 -61h72l-4 -40h-80q-25 -64 -82.5 -99t-141.5 -35h-118l-33 -276h-55l51 410h-77l4 40h78l7 61h-77l5 39h77l17 137h179q163 0 182 -137h81zM336 636h-131l-11 -89h267q-19 89 -125 89zM190 511l-8 -61h275q7 27 7 61h-274zM280 326q120 0 164 88
h-266l-11 -88h113z" />
    <glyph glyph-name="sterling.tf" horiz-adv-x="586" 
d="M43 0l7 52h75l35 283h-60l6 43h60l11 92q15 116 69 168.5t127 52.5q106 0 153 -99l-38 -36q-34 81 -114 81q-120 0 -141 -172l-12 -87h153l-6 -43h-151l-36 -283h302l-6 -52h-434z" />
    <glyph glyph-name="yen.tf" horiz-adv-x="586" 
d="M580 687l-221 -341h131l-5 -40h-152l-6 -9l-9 -75h156l-5 -40h-156l-23 -182h-56l23 182h-161l6 40h160l9 75l-4 9h-155l5 40h135l-136 341h64l125 -332h2l208 332h65z" />
    <glyph glyph-name="uni20B9.tf" horiz-adv-x="586" 
d="M553 644h-175v-2q56 -31 62 -109h99l-5 -43h-94q-8 -88 -73 -142.5t-168 -54.5h-36l244 -293h-68l-246 298l6 44h96q83 0 131.5 40t56.5 108h-267l6 43h262q-7 111 -137 111h-112l6 43h417z" />
    <glyph glyph-name="plus.case" horiz-adv-x="549" 
d="M236 91l25 207h-185l6 49h185l26 208h49l-25 -208h184l-7 -49h-184l-25 -207h-49z" />
    <glyph glyph-name="plus.tf" horiz-adv-x="586" 
d="M245 45l25 207h-185l6 49h185l26 208h49l-25 -208h184l-7 -49h-184l-25 -207h-49z" />
    <glyph glyph-name="multiply.tf" horiz-adv-x="586" 
d="M135 87l-32 33l159 156l-121 156l39 35l119 -156l158 156l32 -34l-158 -157l119 -156l-38 -33l-120 155z" />
    <glyph glyph-name="divide.tf" horiz-adv-x="586" 
d="M313 426q-18 0 -29 12t-11 30q0 19 12 31t30 12t30 -11.5t12 -29.5q0 -19 -12.5 -31.5t-31.5 -12.5zM85 252l6 49h418l-6 -49h-418zM269 37q-18 0 -29 12t-11 30q0 19 12 31t30 12t30 -11.5t12 -29.5q0 -19 -12.5 -31.5t-31.5 -12.5z" />
    </font>
</defs>
</svg>
