<?xml version="1.0" standalone="no"?>
<!DOCTYPE svg PUBLIC "-//W3C//DTD SVG 1.1//EN" "http://www.w3.org/Graphics/SVG/1.1/DTD/svg11.dtd" >
<svg xmlns="http://www.w3.org/2000/svg" xmlns:xlink="http://www.w3.org/1999/xlink" version="1.1">
<metadata>
Created by FontForge 20190801 at Mon Sep 18 11:16:10 2017
 By www-data
Copyright (c) 2017 by Kostas Bartsokas. All rights reserved.
</metadata>
<defs>
<font id="CWCMedium" horiz-adv-x="0" >
  <font-face 
    font-family="CWCMedium"
    font-weight="600"
    font-stretch="normal"
    units-per-em="1000"
    panose-1="0 0 7 0 0 0 0 0 0 0"
    ascent="800"
    descent="-200"
    x-height="488"
    cap-height="710"
    bbox="-695 -277 1273 1056"
    underline-thickness="49"
    underline-position="-84"
    unicode-range="U+000D-1F10C"
  />
<missing-glyph horiz-adv-x="449" 
 />
    <glyph glyph-name=".notdef" horiz-adv-x="449" 
 />
    <glyph glyph-name=".null" 
 />
    <glyph glyph-name="nonmarkingreturn" horiz-adv-x="333" 
 />
    <glyph glyph-name="CR" unicode="&#xd;" 
 />
    <glyph glyph-name="space" unicode=" " horiz-adv-x="268" 
 />
    <glyph glyph-name="exclam" unicode="!" horiz-adv-x="270" 
d="M94 224l-20 512h127l-20 -512h-87zM135 -8q-32 0 -54 21.5t-22 52.5t22.5 53t53.5 22t53 -22t22 -53t-22 -52.5t-53 -21.5z" />
    <glyph glyph-name="quotedbl" unicode="&#x22;" horiz-adv-x="387" 
d="M32 457l31 253h120l-60 -253h-91zM204 457l31 253h120l-60 -253h-91z" />
    <glyph glyph-name="numbersign" unicode="#" horiz-adv-x="639" 
d="M117 -41l30 194h-110v85h123l23 147h-123v84h136l29 187h77l-29 -187h147l29 187h77l-28 -187h114l-1 -84h-127l-22 -147h125v-85h-138l-30 -194h-77l30 194h-147l-30 -194h-78zM237 238h148l22 147h-147z" />
    <glyph glyph-name="dollar" unicode="$" horiz-adv-x="573" 
d="M531 190q0 -80 -52 -131.5t-142 -60.5v-120h-88v120q-118 11 -197 74l60 99q72 -66 192 -66q45 0 72.5 20.5t27.5 55.5q0 38 -28.5 59t-98.5 43q-51 16 -81.5 28.5t-64.5 34.5t-50 55t-16 77q0 76 49 127t135 60v126h88v-127q104 -10 176 -66l-67 -93q-71 51 -160 51
q-44 0 -69.5 -18.5t-25.5 -51.5t28 -52t92 -39q59 -19 91 -32t66 -36.5t48.5 -56.5t14.5 -80z" />
    <glyph glyph-name="percent" unicode="%" horiz-adv-x="883" 
d="M241 0l-79 58l485 645l79 -58zM221 332q-78 0 -131.5 50.5t-53.5 131.5q0 77 51.5 129t133.5 52q77 0 130.5 -50.5t53.5 -130.5q0 -76 -51.5 -129t-132.5 -53zM221 421q39 0 63.5 26.5t24.5 65.5q0 41 -25 66.5t-63 25.5t-62 -26.5t-24 -65.5q0 -40 25 -66t61 -26z
M659 -8q-78 0 -131.5 50.5t-53.5 131.5q0 77 51.5 129t133.5 52q77 0 130.5 -50.5t53.5 -130.5q0 -76 -51.5 -129t-132.5 -53zM659 81q39 0 63.5 26.5t24.5 65.5q0 41 -25 66.5t-63 25.5t-62 -26.5t-24 -65.5q0 -40 25 -66t61 -26z" />
    <glyph glyph-name="ampersand" unicode="&#x26;" horiz-adv-x="675" 
d="M547 129l119 -129h-135l-55 59h-2q-77 -67 -199 -67q-99 0 -162 54t-63 144q0 121 127 192l-11 12q-62 68 -62 149q0 74 54 124.5t146 50.5q83 0 137.5 -44t54.5 -121q0 -130 -160 -194l133 -145h3q28 44 28 123l109 2q0 -123 -62 -207v-3zM305 617q-36 0 -63 -22
t-27 -61q0 -45 47 -95l10 -11q56 26 83.5 51t27.5 65q0 35 -22.5 54t-55.5 19zM405 134v2l-165 178q-73 -39 -73 -110q0 -50 34.5 -77.5t91.5 -27.5q64 0 112 35z" />
    <glyph glyph-name="quotesingle" unicode="'" horiz-adv-x="215" 
d="M32 457l31 253h120l-60 -253h-91z" />
    <glyph glyph-name="parenleft" unicode="(" horiz-adv-x="305" 
d="M172 -154q-117 194 -117 449q0 265 120 451l85 -39q-101 -183 -101 -412q0 -218 99 -411z" />
    <glyph glyph-name="parenright" unicode=")" horiz-adv-x="305" 
d="M133 -154l-86 38q99 193 99 411q0 229 -101 412l85 39q120 -186 120 -451q0 -255 -117 -449z" />
    <glyph glyph-name="asterisk" unicode="*" horiz-adv-x="407" 
d="M168 386l4 108l-90 -57l-36 62l95 48l-96 51l37 62l90 -57l-4 107h71l-5 -107l92 56l35 -61l-95 -50l95 -49l-35 -62l-90 57l3 -108h-71z" />
    <glyph glyph-name="plus" unicode="+" horiz-adv-x="578" 
d="M237 42v184h-185v102h185v185h103v-185h185v-102h-185v-184h-103z" />
    <glyph glyph-name="comma" unicode="," horiz-adv-x="238" 
d="M27 -132l32 253h120l-70 -253h-82z" />
    <glyph glyph-name="hyphen" unicode="-" horiz-adv-x="407" 
d="M53 254v109h301v-109h-301z" />
    <glyph glyph-name="period" unicode="." horiz-adv-x="270" 
d="M135 -8q-32 0 -54 21.5t-22 52.5t22.5 53t53.5 22t53 -22t22 -53t-22 -52.5t-53 -21.5z" />
    <glyph glyph-name="slash" unicode="/" horiz-adv-x="430" 
d="M56 -112l-89 41l383 853l88 -41z" />
    <glyph glyph-name="zero" unicode="0" horiz-adv-x="638" 
d="M319 -8q-123 0 -195 92.5t-72 258.5q0 160 70 255.5t197 95.5q124 0 195.5 -92.5t71.5 -258.5q0 -159 -69.5 -255t-197.5 -96zM319 100q71 0 110 64t39 179t-39.5 179.5t-109.5 64.5t-109.5 -64.5t-39.5 -179.5q0 -113 40 -178t109 -65z" />
    <glyph glyph-name="one" unicode="1" horiz-adv-x="401" 
d="M198 0v548l-124 -93l-55 86l201 146h94v-687h-116z" />
    <glyph glyph-name="two" unicode="2" horiz-adv-x="534" 
d="M43 0l-2 77l221 233q49 52 73 90t24 80q0 46 -29.5 75.5t-83.5 29.5q-78 0 -151 -67l-62 93q105 82 227 82q95 0 156 -54.5t61 -146.5q0 -114 -114 -232l-145 -151l1 -3h265v-106h-441z" />
    <glyph glyph-name="three" unicode="3" horiz-adv-x="560" 
d="M268 -8q-139 0 -238 67l57 101q83 -62 178 -60q58 1 91.5 27t33.5 71q0 47 -33.5 77t-95.5 30h-65v98h76q51 0 75.5 26t24.5 65q0 43 -29.5 68t-84.5 25q-84 0 -149 -58l-62 93q95 72 219 72q99 0 161 -48t62 -134q0 -105 -91 -154v-3q110 -54 110 -169q0 -90 -61 -142
t-179 -52z" />
    <glyph glyph-name="four" unicode="4" horiz-adv-x="595" 
d="M348 0v131h-317v79l336 477h97v-453h95v-103h-95v-131h-116zM164 227h193v272z" />
    <glyph glyph-name="five" unicode="5" horiz-adv-x="568" 
d="M292 441q102 0 163.5 -59t61.5 -162q0 -108 -68 -168t-189 -60q-123 0 -222 67l58 102q83 -62 166 -62q63 0 100 34.5t37 87.5q0 56 -40.5 88.5t-97.5 32.5q-59 0 -129 -35l-57 30l20 350h388v-107h-279l-9 -156q45 17 97 17z" />
    <glyph glyph-name="six" unicode="6" horiz-adv-x="600" 
d="M334 444q97 0 158.5 -59.5t61.5 -164.5q0 -103 -67.5 -165.5t-173.5 -62.5q-123 0 -192 87.5t-69 247.5q0 86 18 152t46.5 106t67.5 65.5t76.5 35t79.5 9.5q41 0 91 -10t78 -23l-46 -102q-57 29 -123 29q-148 0 -171 -201l3 -1q66 57 162 57zM313 100q55 0 89 33t34 86
q0 54 -34.5 87t-90.5 33q-44 0 -81 -22t-61 -55q10 -81 48.5 -121.5t95.5 -40.5z" />
    <glyph glyph-name="seven" unicode="7" horiz-adv-x="504" 
d="M88 0l242 581h-307v106h437v-77l-247 -610h-125z" />
    <glyph glyph-name="eight" unicode="8" horiz-adv-x="587" 
d="M292 -7q-116 0 -182 51.5t-66 144.5q0 67 32 114t84 68v2q-34 16 -59 55.5t-25 88.5q0 83 60 130t156 47q98 0 158 -48t60 -129q0 -50 -26 -90t-59 -54v-2q52 -20 85 -67t33 -115q0 -96 -67.5 -146t-183.5 -50zM292 418q48 0 76.5 23.5t28.5 62.5q0 40 -28.5 64t-76.5 24
q-47 0 -75.5 -24.5t-28.5 -63.5t28.5 -62.5t75.5 -23.5zM292 96q60 0 96 30t36 79q0 50 -36 81t-96 31q-59 0 -94.5 -31t-35.5 -81t36.5 -79.5t93.5 -29.5z" />
    <glyph glyph-name="nine" unicode="9" horiz-adv-x="594" 
d="M285 695q122 0 190.5 -89t68.5 -256q0 -83 -18 -147.5t-47 -103.5t-69.5 -64t-79.5 -34t-83 -9q-103 0 -173 39l49 98q52 -31 116 -31q168 0 189 202l-3 1q-68 -58 -163 -58t-156.5 59t-61.5 162q0 105 67.5 168t173.5 63zM285 348q85 0 140 74q-12 83 -49.5 124
t-92.5 41q-53 0 -87 -33.5t-34 -86.5t34.5 -86t88.5 -33z" />
    <glyph glyph-name="colon" unicode=":" horiz-adv-x="270" 
d="M131 346q-32 0 -54 21.5t-22 52.5t22.5 53t53.5 22t53 -22t22 -53t-22 -52.5t-53 -21.5zM131 -8q-32 0 -54 21.5t-22 52.5t22.5 53t53.5 22t53 -22t22 -53t-22 -52.5t-53 -21.5z" />
    <glyph glyph-name="semicolon" unicode=";" horiz-adv-x="248" 
d="M130 346q-32 0 -54 21.5t-22 52.5t22.5 53t53.5 22t53 -22t22 -53t-22 -52.5t-53 -21.5zM38 -132l32 253h120l-70 -253h-82z" />
    <glyph glyph-name="less" unicode="&#x3c;" horiz-adv-x="581" 
d="M517 31l-460 201v84l460 205v-113l-309 -133l309 -133v-111z" />
    <glyph glyph-name="equal" unicode="=" horiz-adv-x="591" 
d="M68 340v102h473v-102h-473zM68 112v102h473v-102h-473z" />
    <glyph glyph-name="greater" unicode="&#x3e;" horiz-adv-x="581" 
d="M64 31v111l309 133l-309 133v113l460 -205v-84z" />
    <glyph glyph-name="question" unicode="?" horiz-adv-x="463" 
d="M145 224v50q0 10 1 19.5t5 19.5t6.5 17t9.5 17.5l10 15t13 16t12.5 14t14.5 15t14 14.5q31 34 47.5 61.5t16.5 61.5q0 42 -25 65t-65 23q-29 0 -58 -16t-47 -43l-84 78q73 92 198 92q86 0 146.5 -50.5t60.5 -142.5q0 -89 -88 -175q-7 -7 -23.5 -22t-24.5 -22.5t-18 -19.5
t-14.5 -22.5t-5.5 -21.5l-3 -44h-99zM197 -8q-32 0 -54 21.5t-22 52.5t22.5 53t53.5 22t53 -22t22 -53t-22 -52.5t-53 -21.5z" />
    <glyph glyph-name="at" unicode="@" horiz-adv-x="900" 
d="M423 -146q-166 0 -272 106t-106 278q0 56 14 112.5t47.5 113t82 99t125 69.5t169.5 27q168 0 270 -103t102 -262q0 -39 -10 -79t-33 -81t-68 -67t-106 -26q-59 0 -87 33q-15 20 -22 48h-3q-44 -71 -132 -71q-74 0 -120.5 52.5t-46.5 137.5q0 35 10.5 72.5t31.5 74.5
t60.5 61t89.5 24q82 0 121 -71l2 1l7 63h114l-27 -262q-1 -10 -1 -25q0 -29 9 -39.5t28 -10.5q43 0 69.5 55t26.5 109q0 121 -79 203.5t-207 82.5q-85 0 -153.5 -29.5t-110.5 -79t-64 -109.5t-22 -124q0 -122 78.5 -211t212.5 -89q106 0 199 51l37 -61q-94 -73 -236 -73z
M428 152q48 0 79 37t31 86q0 42 -24.5 69.5t-60.5 27.5q-49 0 -80.5 -35.5t-31.5 -85.5q0 -44 24.5 -71.5t62.5 -27.5z" />
    <glyph glyph-name="A" unicode="A" horiz-adv-x="695" 
d="M23 0l265 710h118l266 -710h-126l-54 153h-290l-53 -153h-126zM239 257h217l-108 308h-2z" />
    <glyph glyph-name="B" unicode="B" horiz-adv-x="648" 
d="M87 0v710h247q111 0 171 -43.5t60 -129.5q0 -53 -26.5 -96.5t-78.5 -64.5v-1q64 -16 102.5 -62.5t38.5 -117.5q0 -88 -59.5 -141.5t-173.5 -53.5h-281zM208 416h117q117 0 117 94q0 43 -30.5 68t-90.5 25l-113 -1v-186zM208 108h145q58 0 90 25.5t32 74.5q0 48 -36 76
t-105 28h-126v-204z" />
    <glyph glyph-name="C" unicode="C" horiz-adv-x="719" 
d="M413 -8q-160 0 -259 99t-99 262q0 158 97 261.5t269 103.5q163 0 267 -111l-80 -89q-77 86 -196 86q-102 0 -166.5 -69.5t-64.5 -181.5q0 -108 64.5 -177t176.5 -69q113 0 198 70l62 -99q-41 -38 -111.5 -62t-157.5 -24z" />
    <glyph glyph-name="D" unicode="D" horiz-adv-x="736" 
d="M87 0v710h226q167 0 268 -98.5t101 -257.5t-98.5 -256.5t-267.5 -97.5h-229zM208 108h101q111 0 179.5 69.5t68.5 176.5q0 108 -67.5 178t-174.5 70h-107v-494z" />
    <glyph glyph-name="E" unicode="E" horiz-adv-x="643" 
d="M87 0v710h486v-108h-365v-196h334v-108h-334v-190h379v-108h-500z" />
    <glyph glyph-name="F" unicode="F" horiz-adv-x="610" 
d="M87 0v710h479v-108h-358v-212h312v-108h-312v-282h-121z" />
    <glyph glyph-name="G" unicode="G" horiz-adv-x="760" 
d="M413 -6q-162 0 -260 96.5t-98 262.5q0 158 97 261.5t269 103.5q163 0 267 -111l-80 -89q-77 86 -196 86q-102 0 -166.5 -69.5t-64.5 -181.5t59 -180.5t175 -68.5q100 0 166 44v123h-174v108h294v-296q-49 -40 -127.5 -64.5t-160.5 -24.5z" />
    <glyph glyph-name="H" unicode="H" horiz-adv-x="736" 
d="M87 0v710h121v-317h320v317h121v-710h-121v285h-320v-285h-121z" />
    <glyph glyph-name="I" unicode="I" horiz-adv-x="304" 
d="M91 0v710h121v-710h-121z" />
    <glyph glyph-name="J" unicode="J" horiz-adv-x="535" 
d="M233 -6q-65 0 -126.5 25t-99.5 67l76 92q65 -73 144 -73q111 0 111 139v466h121v-465q0 -131 -55.5 -191t-170.5 -60z" />
    <glyph glyph-name="K" unicode="K" horiz-adv-x="671" 
d="M384 396q77 -75 149.5 -186t110.5 -210h-133q-33 79 -91 166t-117 148l-95 -112v-202h-121v710h121v-348h2l280 348h155z" />
    <glyph glyph-name="L" unicode="L" horiz-adv-x="603" 
d="M87 0v710h121v-602h359v-108h-480z" />
    <glyph glyph-name="M" unicode="M" horiz-adv-x="887" 
d="M88 0v710h121l234 -425h2l234 425h121v-710h-121v475h-2l-194 -338h-79l-194 338h-1v-475h-121z" />
    <glyph glyph-name="N" unicode="N" horiz-adv-x="773" 
d="M87 0v710h116l361 -513h2v513h120v-710h-119l-358 505h-2v-505h-120z" />
    <glyph glyph-name="O" unicode="O" horiz-adv-x="827" 
d="M414 -8q-159 0 -259 102.5t-100 260.5t100 260.5t259 102.5q155 0 256.5 -101t101.5 -262t-101.5 -262t-256.5 -101zM414 105q99 0 165.5 71t66.5 179q0 109 -66.5 179.5t-165.5 70.5q-103 0 -168.5 -72t-65.5 -178t65.5 -178t168.5 -72z" />
    <glyph glyph-name="P" unicode="P" horiz-adv-x="629" 
d="M87 0v710h257q122 0 182.5 -62.5t60.5 -167.5q0 -112 -69 -169.5t-188 -57.5h-122v-253h-121zM208 362h110q72 0 108 32.5t36 87.5q0 57 -35 88.5t-100 31.5h-119v-240z" />
    <glyph glyph-name="Q" unicode="Q" horiz-adv-x="848" 
d="M792 65l-68 -86l-90 82q-94 -69 -220 -69q-159 0 -259 102.5t-100 260.5t100 260.5t259 102.5q155 0 256.5 -101t101.5 -262q0 -123 -63 -216zM180 355q0 -109 67 -179.5t167 -70.5q72 0 130 40l-71 65l67 80l74 -66q32 58 32 131q0 106 -64.5 178t-167.5 72
q-100 0 -167 -70.5t-67 -179.5z" />
    <glyph glyph-name="R" unicode="R" horiz-adv-x="657" 
d="M436 281q122 -120 188 -281h-135q-70 152 -181 253h-100v-253h-121v710h262q122 0 182.5 -59.5t60.5 -162.5q0 -79 -40.5 -132t-115.5 -75zM323 362q70 0 107 32.5t37 87.5q0 57 -35.5 88.5t-100.5 31.5h-123v-240h115z" />
    <glyph glyph-name="S" unicode="S" horiz-adv-x="591" 
d="M300 -8q-151 0 -251 70l57 110q90 -70 197 -70q61 0 94.5 24.5t33.5 63.5q0 31 -19 51.5t-39.5 29.5t-79.5 29q-13 5 -20 7q-41 14 -62.5 22t-55 26.5t-51 37.5t-31 51t-13.5 71q0 96 65 149.5t170 53.5q153 0 249 -79l-67 -99q-37 31 -87.5 50.5t-96.5 19.5
q-49 0 -78.5 -22t-29.5 -62q0 -37 29 -56t107 -47q44 -15 66 -23.5t55 -24t49 -29.5t34 -35t25 -47t7 -59q0 -213 -257 -213z" />
    <glyph glyph-name="T" unicode="T" horiz-adv-x="589" 
d="M233 0v602h-201v108h526v-108h-204v-602h-121z" />
    <glyph glyph-name="U" unicode="U" horiz-adv-x="719" 
d="M359 -8q-130 0 -206 72.5t-76 217.5v428h120v-419q0 -88 43 -136.5t119 -48.5q74 0 119 46.5t45 138.5v419h120v-428q0 -143 -75 -216.5t-209 -73.5z" />
    <glyph glyph-name="V" unicode="V" horiz-adv-x="691" 
d="M296 0l-266 710h133l187 -550h1l183 550h133l-266 -710h-105z" />
    <glyph glyph-name="W" unicode="W" horiz-adv-x="1035" 
d="M259 0l-227 710h132l148 -516h2l140 516h128l137 -516h2l151 516h131l-231 -710h-104l-149 543h-2l-155 -543h-103z" />
    <glyph glyph-name="X" unicode="X" horiz-adv-x="694" 
d="M32 0l235 352l-230 358h141l169 -276h1l171 276h138l-232 -358l238 -352h-142l-175 268h-2l-172 -268h-140z" />
    <glyph glyph-name="Y" unicode="Y" horiz-adv-x="625" 
d="M251 0v314l-237 396h138l159 -280h2l158 280h140l-239 -396v-314h-121z" />
    <glyph glyph-name="Z" unicode="Z" horiz-adv-x="626" 
d="M57 0v95l349 505l-1 2h-332v108h492v-93l-355 -506l2 -3h355v-108h-510z" />
    <glyph glyph-name="bracketleft" unicode="[" horiz-adv-x="333" 
d="M59 -147v879h224v-86h-125v-706h125v-87h-224z" />
    <glyph glyph-name="backslash" unicode="\" horiz-adv-x="438" 
d="M374 -112l-382 853l88 41l383 -853z" />
    <glyph glyph-name="bracketright" unicode="]" horiz-adv-x="333" 
d="M274 -147h-224v87h125v706h-125v86h224v-879z" />
    <glyph glyph-name="asciicircum" unicode="^" horiz-adv-x="470" 
d="M55 500l137 210h85l138 -210h-98l-83 135l-85 -135h-94z" />
    <glyph glyph-name="underscore" unicode="_" horiz-adv-x="531" 
d="M-2 -104v77h535v-77h-535z" />
    <glyph glyph-name="grave" unicode="`" horiz-adv-x="503" 
d="M240 536l-124 144l125 -1l110 -143h-111z" />
    <glyph glyph-name="a" unicode="a" horiz-adv-x="558" 
d="M531 88l6 -88q-25 -6 -51 -6q-79 0 -109 58h-2q-24 -28 -67 -44t-91 -16q-76 0 -122 37.5t-46 109.5q0 159 195 159h117v2q0 97 -109 97q-68 0 -143 -32l-32 92q86 38 192 38q103 0 150.5 -50.5t47.5 -154.5v-153q0 -51 38 -51q10 0 26 2zM239 87q46 0 83 22.5t37 55.5
v51h-102q-46 0 -70.5 -18t-24.5 -48q0 -63 77 -63z" />
    <glyph glyph-name="b" unicode="b" horiz-adv-x="621" 
d="M340 -8q-102 0 -158 73h-2v-65h-107v736h112v-306h1q57 65 155 65q102 0 169 -71.5t67 -181.5q0 -112 -67 -181t-170 -69zM323 94q61 0 100.5 41t39.5 106q0 69 -40.5 111t-100.5 42q-62 0 -102 -43.5t-40 -109.5q0 -65 41 -106t102 -41z" />
    <glyph glyph-name="c" unicode="c" horiz-adv-x="522" 
d="M311 -8q-127 0 -197 67.5t-70 182.5q0 114 69.5 183.5t188.5 69.5q117 0 194 -67l-64 -84q-57 50 -130 50q-64 0 -104 -41t-40 -111q0 -67 41.5 -108t122.5 -41q64 0 122 40l55 -90q-70 -51 -188 -51z" />
    <glyph glyph-name="d" unicode="d" horiz-adv-x="620" 
d="M280 -8q-103 0 -170 69t-67 181q0 110 67.5 181.5t168.5 71.5q100 0 156 -67h1v308h111v-736h-107v66h-1q-57 -74 -159 -74zM297 94q61 0 102 41t41 106q0 66 -40 109.5t-102 43.5q-60 0 -100.5 -42t-40.5 -111q0 -65 39.5 -106t100.5 -41z" />
    <glyph glyph-name="e" unicode="e" horiz-adv-x="557" 
d="M518 253q0 -31 -3 -46h-356q20 -117 157 -117q80 0 139 36l52 -87q-77 -47 -199 -47q-127 0 -195.5 67.5t-68.5 184.5q0 112 68.5 181.5t178.5 69.5q111 0 169 -66.5t58 -175.5zM287 394q-46 0 -79 -27t-45 -72h244q-19 99 -120 99z" />
    <glyph glyph-name="f" unicode="f" horiz-adv-x="364" 
d="M97 0v393h-87v95h87v72q0 88 42.5 136t125.5 48q84 0 145 -33l-44 -86q-47 22 -92 22q-65 0 -65 -94v-65h136v-95h-136v-393h-112z" />
    <glyph glyph-name="g" unicode="g" horiz-adv-x="607" 
d="M291 -205q-136 0 -219 50l44 93q84 -42 169 -42q69 0 107 34.5t38 85.5v51h-2q-59 -59 -148 -59q-103 0 -170.5 67t-67.5 174t65.5 176.5t166.5 69.5q90 0 152 -59h2v52h112v-438q0 -118 -60 -186.5t-189 -68.5zM295 111q61 0 99.5 40.5t38.5 102.5q0 61 -39.5 100
t-98.5 39q-62 0 -100.5 -39.5t-38.5 -101.5q0 -64 39.5 -102.5t99.5 -38.5z" />
    <glyph glyph-name="h" unicode="h" horiz-adv-x="598" 
d="M73 0v736h112v-309h1q62 68 166 68q85 0 133.5 -49t48.5 -154v-292h-112v263q0 70 -26.5 100.5t-79.5 30.5q-62 0 -96.5 -37.5t-34.5 -108.5v-248h-112z" />
    <glyph glyph-name="i" unicode="i" horiz-adv-x="272" 
d="M136 560q-31 0 -53 22t-22 53q0 30 22 52t53 22t53.5 -22t22.5 -52q0 -31 -22.5 -53t-53.5 -22zM80 0v488h112v-488h-112z" />
    <glyph glyph-name="j" unicode="j" horiz-adv-x="259" 
d="M135 560q-31 0 -53 22t-22 53q0 30 22 52t53 22t53.5 -22t22.5 -52q0 -31 -22.5 -53t-53.5 -22zM55 -205q-53 0 -94 18l19 97q22 -14 51 -14q49 0 49 72v520h112v-525q0 -168 -137 -168z" />
    <glyph glyph-name="k" unicode="k" horiz-adv-x="559" 
d="M535 0h-125q-48 110 -143 217l-82 -90v-127h-112v736h112v-483l2 -1l204 236h137l-183 -206q58 -62 110.5 -139t79.5 -143z" />
    <glyph glyph-name="l" unicode="l" horiz-adv-x="341" 
d="M219 -8q-78 0 -112 41.5t-34 125.5v577h112v-570q0 -76 54 -76q36 0 74 16l15 -94q-45 -20 -109 -20z" />
    <glyph glyph-name="m" unicode="m" horiz-adv-x="897" 
d="M73 0v488h112v-67h1q62 74 152 74q103 0 146 -81h2q63 81 175 81q82 0 126.5 -53t44.5 -160v-282h-112v254q0 140 -95 140q-49 0 -81.5 -40.5t-32.5 -110.5v-243h-112v254q0 140 -97 140q-52 0 -84.5 -40.5t-32.5 -110.5v-243h-112z" />
    <glyph glyph-name="n" unicode="n" horiz-adv-x="593" 
d="M73 0v488h112v-67h2q62 74 163 74q84 0 131.5 -51t47.5 -157v-287h-112v258q0 74 -26.5 105t-79.5 31q-58 0 -92 -39t-34 -110v-245h-112z" />
    <glyph glyph-name="o" unicode="o" horiz-adv-x="600" 
d="M300 -8q-114 0 -185 71t-71 180t71 180.5t185 71.5q113 0 184.5 -70t71.5 -182q0 -111 -71.5 -181t-184.5 -70zM300 94q60 0 101 42t41 107q0 67 -40.5 109t-101.5 42q-63 0 -102.5 -43t-39.5 -108q0 -63 40 -106t102 -43z" />
    <glyph glyph-name="p" unicode="p" horiz-adv-x="621" 
d="M73 -198v686h112v-58h2q56 65 154 65q102 0 169 -71.5t67 -181.5q0 -112 -67 -181t-170 -69q-97 0 -153 68l-2 -1v-257h-112zM323 94q61 0 100.5 41t39.5 106q0 69 -40.5 111t-100.5 42q-62 0 -102 -43.5t-40 -109.5q0 -65 41 -106t102 -41z" />
    <glyph glyph-name="q" unicode="q" horiz-adv-x="616" 
d="M436 -198v258h-1q-56 -68 -155 -68q-103 0 -169.5 69t-66.5 181q0 110 67 181.5t168 71.5q100 0 156 -67h1v60h112v-686h-112zM298 94q60 0 101 41t41 106q0 66 -40 109.5t-102 43.5q-60 0 -100 -42t-40 -111q0 -65 39 -106t101 -41z" />
    <glyph glyph-name="r" unicode="r" horiz-adv-x="438" 
d="M73 0v488h112v-71h2q27 36 70.5 57t91.5 21q47 0 84 -16l-21 -108q-44 16 -100 16q-59 0 -93 -37.5t-34 -111.5v-238h-112z" />
    <glyph glyph-name="s" unicode="s" horiz-adv-x="461" 
d="M222 -8q-108 0 -184 45l49 95q76 -42 150 -42q80 0 80 44q0 23 -22.5 36t-73.5 23q-87 17 -131 53.5t-44 102.5q0 64 43.5 105t136.5 41q109 0 182 -44l-53 -90q-53 36 -122 36q-76 0 -76 -47q0 -20 22 -33.5t94 -28.5q84 -18 120 -51t36 -96q0 -149 -207 -149z" />
    <glyph glyph-name="t" unicode="t" horiz-adv-x="422" 
d="M259 -8q-83 0 -120.5 39t-37.5 123v239h-91v95h91v172l112 12v-184h163v-95h-163v-228q0 -76 60 -76q37 0 84 27l40 -90q-56 -34 -138 -34z" />
    <glyph glyph-name="u" unicode="u" horiz-adv-x="578" 
d="M246 -8q-183 0 -183 199v297h112v-267q0 -71 22.5 -99t74.5 -28t88.5 42.5t36.5 117.5v234h112v-488h-112v61l-2 1q-58 -70 -149 -70z" />
    <glyph glyph-name="v" unicode="v" horiz-adv-x="534" 
d="M214 0l-194 488h120l127 -354h1l127 354h119l-195 -488h-105z" />
    <glyph glyph-name="w" unicode="w" horiz-adv-x="771" 
d="M186 0l-163 488h117l101 -333h2l96 333h93l98 -333h2l101 333h115l-163 -488h-101l-99 314h-1l-99 -314h-99z" />
    <glyph glyph-name="x" unicode="x" horiz-adv-x="527" 
d="M27 0l172 249l-171 239h130l103 -154h2l105 154h129l-170 -240l173 -248h-125l-111 154h-1l-112 -154h-124z" />
    <glyph glyph-name="y" unicode="y" horiz-adv-x="535" 
d="M130 -205q-68 0 -119 33l43 92q36 -25 72 -25q27 0 43 20.5t35 67.5l14 36l-199 469h120l133 -338h2l126 338h115l-204 -521q-33 -84 -72.5 -128t-108.5 -44z" />
    <glyph glyph-name="z" unicode="z" horiz-adv-x="493" 
d="M41 0v79l251 311l-1 3h-233v95h388v-77l-253 -314l1 -2h262v-95h-415z" />
    <glyph glyph-name="braceleft" unicode="{" horiz-adv-x="357" 
d="M246 -146q-49 0 -81.5 33.5t-32.5 88.5v194q0 19 -1.5 29t-9 23t-25 18.5t-46.5 6.5v86q29 1 47 8t25 20t8.5 23t1.5 27v199q0 52 31.5 87t82.5 35h66v-77h-23q-31 0 -45.5 -20.5t-14.5 -45.5v-193q0 -45 -12.5 -69.5t-42.5 -34.5v-2q32 -11 43.5 -31t11.5 -74v-181
q0 -38 13 -55.5t47 -17.5h23v-77h-66z" />
    <glyph glyph-name="bar" unicode="|" horiz-adv-x="316" 
d="M109 -115v852h97v-852h-97z" />
    <glyph glyph-name="braceright" unicode="}" horiz-adv-x="357" 
d="M111 -146h-66v77h23q34 0 47 17.5t13 55.5v181q0 54 11.5 74t43.5 31v2q-30 10 -42.5 34.5t-12.5 69.5v193q0 25 -14.5 45.5t-45.5 20.5h-23v77h66q51 0 82.5 -35t31.5 -87v-199q0 -17 1.5 -27t8.5 -23t25 -20t47 -8v-86q-29 -1 -46.5 -6.5t-25 -18.5t-9 -23t-1.5 -29
v-194q0 -55 -32.5 -88.5t-81.5 -33.5z" />
    <glyph glyph-name="asciitilde" unicode="~" horiz-adv-x="568" 
d="M380 201q-41 0 -106 28q-42 20 -68 20q-45 0 -71 -48l-80 32q19 55 53.5 88t82.5 33q47 0 103 -26q39 -21 70 -21q44 0 69 47l80 -27q-18 -56 -53 -91t-80 -35z" />
    <glyph glyph-name="uni00A0" unicode="&#xa0;" horiz-adv-x="268" 
 />
    <glyph glyph-name="exclamdown" unicode="&#xa1;" horiz-adv-x="270" 
d="M135 495q31 0 53 -21.5t22 -52.5t-22 -53t-53 -22t-53.5 22t-22.5 53t22 52.5t54 21.5zM94 263h87l20 -512h-127z" />
    <glyph glyph-name="cent" unicode="&#xa2;" horiz-adv-x="548" 
d="M509 132q-60 -68 -168 -83v-97h-81v96q-96 11 -156 79.5t-60 169.5t59 168.5t157 80.5v97h81v-96q106 -15 166 -89l-76 -65q-50 55 -125 55q-66 0 -107 -41.5t-41 -107.5t41 -108.5t107 -42.5q78 0 126 53z" />
    <glyph glyph-name="sterling" unicode="&#xa3;" horiz-adv-x="566" 
d="M45 0v108h71v209h-58v82h58v59q0 120 57.5 177.5t147.5 57.5q119 0 191 -92l-78 -76q-42 56 -97 56q-102 0 -102 -136v-46h162v-82h-160v-209h301v-108h-493z" />
    <glyph glyph-name="currency" unicode="&#xa4;" horiz-adv-x="510" 
d="M437 387q0 -55 -31 -102l78 -78l-51 -52l-79 79q-46 -30 -102 -30q-54 0 -100 30l-79 -78l-52 52l79 79q-30 46 -30 100t30 100l-79 80l52 52l79 -79q47 31 101 31t101 -31l79 80l52 -53l-79 -79q31 -47 31 -101zM253 284q43 1 73.5 31.5t31.5 72.5q-1 44 -31.5 74.5
t-73.5 30.5q-43 -1 -73.5 -31.5t-30.5 -72.5q0 -43 30.5 -73.5t73.5 -31.5z" />
    <glyph glyph-name="yen" unicode="&#xa5;" horiz-adv-x="580" 
d="M573 687l-180 -323h110v-79h-152v-60h152v-78h-152v-147h-122v147h-160v78h160v60h-160v79h118l-180 323h139l143 -279h2l142 279h140z" />
    <glyph glyph-name="brokenbar" unicode="&#xa6;" horiz-adv-x="316" 
d="M109 385v352h97v-352h-97zM109 -114v352h97v-352h-97z" />
    <glyph glyph-name="section" unicode="&#xa7;" horiz-adv-x="552" 
d="M420 135q59 -43 59 -119q0 -82 -56 -125.5t-156 -43.5q-101 0 -193 48l42 107q34 -23 77 -36.5t78 -13.5q37 0 60.5 17t23.5 49q0 26 -22 41t-79 37q-40 15 -63.5 25t-53 26.5t-45 33t-26.5 41t-11 53.5q0 87 77 128q-55 45 -55 117q0 75 52 121t150 46q111 0 182 -49
l-49 -93q-64 35 -130 35q-82 0 -82 -58q0 -28 20.5 -43.5t73.5 -36.5q114 -46 142 -64q61 -39 61 -107q0 -89 -77 -136zM169 292q0 -30 26 -49.5t92 -44.5l39 -15q56 14 56 63q0 30 -24 47.5t-96 45.5l-35 14q-27 -6 -42.5 -23t-15.5 -38z" />
    <glyph glyph-name="dieresis" unicode="&#xa8;" horiz-adv-x="515" 
d="M158 544q-31 0 -52.5 22t-21.5 52q0 29 21.5 50.5t52.5 21.5t53 -22t22 -51q0 -30 -22 -51.5t-53 -21.5zM357 544q-31 0 -52.5 22t-21.5 52q0 29 21.5 50.5t52.5 21.5t53 -22t22 -51q0 -30 -22 -51.5t-53 -21.5z" />
    <glyph glyph-name="copyright" unicode="&#xa9;" horiz-adv-x="717" 
d="M358 2q-130 0 -221.5 93t-91.5 223q0 129 91.5 222.5t222.5 93.5q132 0 222.5 -93t90.5 -223q0 -129 -91 -222.5t-223 -93.5zM358 78q100 0 168.5 70.5t68.5 169.5q0 100 -68 170t-168 70t-168.5 -71t-68.5 -170t68 -169t168 -70zM365 153q-70 0 -117 43t-47 120
q0 70 43.5 117t120.5 47q78 0 129 -62l-50 -43q-33 40 -79 40q-41 0 -67 -27t-26 -72q0 -44 25.5 -70.5t67.5 -26.5q49 0 79 38l50 -43q-50 -61 -129 -61z" />
    <glyph glyph-name="ordfeminine" unicode="&#xaa;" horiz-adv-x="421" 
d="M175 388q-64 0 -103.5 42t-39.5 110q0 66 38.5 109t100.5 43q58 0 102 -44h1v39h79v-293h-79v33h-2q-36 -39 -97 -39zM194 463q33 0 55.5 21.5t22.5 55.5q0 33 -22 55.5t-56 22.5t-57.5 -22t-23.5 -56t23 -55.5t58 -21.5z" />
    <glyph glyph-name="guillemotleft" unicode="&#xab;" horiz-adv-x="501" 
d="M274 33h-112l-121 213l123 217h111l-123 -217zM465 33h-112l-121 213l123 217h111l-123 -217z" />
    <glyph glyph-name="logicalnot" unicode="&#xac;" horiz-adv-x="552" 
d="M401 152v161h-351v100h452v-261h-101z" />
    <glyph glyph-name="registered" unicode="&#xae;" horiz-adv-x="717" 
d="M359 634q132 0 222.5 -93t90.5 -223q0 -129 -91 -222.5t-223 -93.5q-130 0 -221.5 93t-91.5 223q0 129 91.5 222.5t222.5 93.5zM358 78q100 0 168.5 70.5t68.5 169.5q0 100 -68 170t-168 70t-168.5 -71t-68.5 -170t68 -169t168 -70zM482 374q0 -74 -63 -97l79 -119h-78
l-72 110h-35v-110h-66v324h123q56 0 84 -29.5t28 -78.5zM314 421v-93h41q28 0 43 13t15 34t-15 33.5t-41 12.5h-43z" />
    <glyph glyph-name="macron" unicode="&#xaf;" horiz-adv-x="445" 
d="M74 566v94h298v-94h-298z" />
    <glyph glyph-name="degree" unicode="&#xb0;" horiz-adv-x="392" 
d="M196 441q-58 0 -99.5 40.5t-41.5 97.5q0 56 42.5 97.5t98.5 41.5q57 0 99 -41.5t42 -98.5q0 -56 -41.5 -96.5t-99.5 -40.5zM196 515q27 0 45.5 18.5t18.5 45.5t-19 46t-45 19t-45.5 -19.5t-19.5 -45.5q0 -27 19 -45.5t46 -18.5z" />
    <glyph glyph-name="plusminus" unicode="&#xb1;" horiz-adv-x="595" 
d="M246 171v184h-185v102h185v185h103v-185h185v-102h-185v-184h-103zM61 0v102h473v-102h-473z" />
    <glyph glyph-name="uni00B2" unicode="&#xb2;" horiz-adv-x="344" 
d="M27 436l-2 63l134 132q54 54 54 88q0 47 -54 47q-44 0 -96 -41l-44 79q72 50 147 50q71 0 108 -33t37 -94q0 -69 -74 -136l-75 -68l1 -2h152v-85h-288z" />
    <glyph glyph-name="uni00B3" unicode="&#xb3;" horiz-adv-x="351" 
d="M172 429q-87 0 -147 41l43 79q46 -36 97 -36q63 0 63 47q0 52 -77 52h-27v71h34q33 0 49 13.5t16 31.5q0 42 -57 42q-49 0 -91 -31l-41 75q69 40 141 40q62 0 100.5 -29t38.5 -80q0 -64 -57 -93v-2q68 -31 68 -104q0 -54 -38.5 -85.5t-114.5 -31.5z" />
    <glyph glyph-name="acute" unicode="&#xb4;" horiz-adv-x="503" 
d="M149 538l115 144l123 1l-124 -145h-114z" />
    <glyph glyph-name="uni00B5" unicode="&#xb5;" horiz-adv-x="580" 
d="M67 -198v686h112v-254q0 -140 106 -140q51 0 83.5 40t32.5 110v244h112v-488h-102l-6 63h-2q-58 -71 -142 -71q-55 0 -85 31l-3 -1q6 -51 6 -105v-115h-112z" />
    <glyph glyph-name="paragraph" unicode="&#xb6;" horiz-adv-x="527" 
d="M366 -151v741h-62v-590h-72v316q-84 5 -135.5 50.5t-51.5 122.5q0 80 54.5 128t149.5 48h187v-816h-70z" />
    <glyph glyph-name="periodcentered" unicode="&#xb7;" horiz-adv-x="274" 
d="M136 171q-32 0 -54 21.5t-22 52.5t22.5 53t53.5 22t53 -22t22 -53t-22 -52.5t-53 -21.5z" />
    <glyph glyph-name="cedilla" unicode="&#xb8;" horiz-adv-x="378" 
d="M159 -190q-29 0 -59 6v55q21 -7 50 -7q20 0 35.5 7.5t15.5 22.5q0 14 -22.5 24t-61.5 10v36l19 42h67l-17 -36v-2q92 -3 92 -80q0 -35 -29.5 -56.5t-89.5 -21.5z" />
    <glyph glyph-name="uni00B9" unicode="&#xb9;" horiz-adv-x="282" 
d="M131 436v295l-67 -46l-46 72l134 91h73v-412h-94z" />
    <glyph glyph-name="ordmasculine" unicode="&#xba;" horiz-adv-x="389" 
d="M189 388q-69 0 -113 43t-44 110q0 66 44 108.5t113 42.5t113.5 -42.5t44.5 -108.5q0 -68 -44.5 -110.5t-113.5 -42.5zM189 462q31 0 52 22.5t21 56.5t-20.5 56t-52.5 22t-52 -22.5t-20 -55.5q0 -34 20 -56.5t52 -22.5z" />
    <glyph glyph-name="guillemotright" unicode="&#xbb;" horiz-adv-x="501" 
d="M36 33l122 213l-123 217h111l123 -217l-121 -213h-112zM227 33l122 213l-123 217h111l123 -217l-121 -213h-112z" />
    <glyph glyph-name="onequarter" unicode="&#xbc;" horiz-adv-x="813" 
d="M514 725l91 -39l-314 -708l-90 39zM225 299h-94v295l-67 -46l-46 72l134 91h73v-412zM734 150h57v-81h-57v-69h-93v69h-182v58l202 285h73v-262zM551 142h103v146z" />
    <glyph glyph-name="onehalf" unicode="&#xbd;" horiz-adv-x="842" 
d="M291 -22l-90 39l313 708l91 -39zM131 299v295l-67 -46l-46 72l134 91h73v-412h-94zM525 0l-2 63l134 132q54 54 54 88q0 47 -54 47q-44 0 -96 -41l-44 79q72 50 147 50q71 0 108 -33t37 -94q0 -69 -74 -136l-75 -68l1 -2h152v-85h-288z" />
    <glyph glyph-name="threequarters" unicode="&#xbe;" horiz-adv-x="862" 
d="M563 725l91 -39l-314 -708l-90 39zM325 409q0 -54 -38.5 -85.5t-114.5 -31.5q-87 0 -147 41l43 79q46 -36 97 -36q63 0 63 47q0 52 -77 52h-27v71h34q33 0 49 13.5t16 31.5q0 42 -57 42q-49 0 -91 -31l-41 75q69 40 141 40q62 0 100.5 -29t38.5 -80q0 -64 -57 -93v-2
q68 -31 68 -104zM783 150h57v-81h-57v-69h-93v69h-182v58l202 285h73v-262zM600 142h103v146z" />
    <glyph glyph-name="questiondown" unicode="&#xbf;" horiz-adv-x="447" 
d="M266 495q32 0 54 -21.5t22 -52.5t-22.5 -53t-53.5 -22t-53 22t-22 53t22 52.5t53 21.5zM318 263v-50q0 -10 -1 -19.5t-5 -19.5t-6.5 -17t-9.5 -17.5l-10 -15t-13 -16t-12.5 -14t-14.5 -15t-14 -14.5q-31 -34 -47.5 -61.5t-16.5 -61.5q0 -42 25 -65t65 -23q29 0 58 16
t47 43l84 -78q-73 -92 -198 -92q-86 0 -146.5 50.5t-60.5 142.5q0 89 88 175q7 7 23.5 22t24.5 22.5t18 19.5t14.5 22.5t5.5 21.5l3 44h99z" />
    <glyph glyph-name="Agrave" unicode="&#xc0;" horiz-adv-x="695" 
d="M302 775l-126 133h125l112 -133h-111zM23 0l265 710h118l266 -710h-126l-54 153h-290l-53 -153h-126zM239 257h217l-108 308h-2z" />
    <glyph glyph-name="Aacute" unicode="&#xc1;" horiz-adv-x="695" 
d="M294 775l112 133h125l-126 -133h-111zM23 0l265 710h118l266 -710h-126l-54 153h-290l-53 -153h-126zM239 257h217l-108 308h-2z" />
    <glyph glyph-name="Acircumflex" unicode="&#xc2;" horiz-adv-x="695" 
d="M178 775l111 133h117l108 -133h-109l-57 71h-2l-57 -71h-111zM23 0l265 710h118l266 -710h-126l-54 153h-290l-53 -153h-126zM239 257h217l-108 308h-2z" />
    <glyph glyph-name="Atilde" unicode="&#xc3;" horiz-adv-x="695" 
d="M425 775q-34 0 -84 29q-42 24 -63 24q-33 0 -54 -52l-68 31q36 103 114 103q38 0 89 -29q42 -24 59 -24q30 0 51 52l68 -23q-33 -111 -112 -111zM23 0l265 710h118l266 -710h-126l-54 153h-290l-53 -153h-126zM239 257h217l-108 308h-2z" />
    <glyph glyph-name="Adieresis" unicode="&#xc4;" horiz-adv-x="695" 
d="M248 775q-31 0 -52.5 22t-21.5 52q0 29 21.5 50.5t52.5 21.5t53 -22t22 -51q0 -30 -22 -51.5t-53 -21.5zM447 775q-31 0 -52.5 22t-21.5 52q0 29 21.5 50.5t52.5 21.5t53 -22t22 -51q0 -30 -22 -51.5t-53 -21.5zM23 0l265 710h118l266 -710h-126l-54 153h-290l-53 -153
h-126zM239 257h217l-108 308h-2z" />
    <glyph glyph-name="Aring" unicode="&#xc5;" horiz-adv-x="695" 
d="M346 748q-44 0 -76 30.5t-32 74.5q0 43 31 74t77 31q45 0 77 -30t32 -75q0 -44 -31 -74.5t-78 -30.5zM346 816q16 0 27.5 11t11.5 27t-11.5 27t-27.5 11t-27 -11.5t-11 -26.5q0 -16 11 -27t27 -11zM23 0l265 710h118l266 -710h-126l-54 153h-290l-53 -153h-126zM239 257
h217l-108 308h-2z" />
    <glyph glyph-name="AE" unicode="&#xc6;" horiz-adv-x="970" 
d="M11 0l354 710h545v-108h-355v-196h324v-108h-324v-190h369v-108h-490v153h-225l-75 -153h-123zM263 257h171v353h-2z" />
    <glyph glyph-name="Ccedilla" unicode="&#xc7;" horiz-adv-x="719" 
d="M416 -8l-10 -22v-2q92 -3 92 -80q0 -35 -29.5 -56.5t-89.5 -21.5q-29 0 -59 6v55q21 -7 50 -7q20 0 35.5 7.5t15.5 22.5q0 14 -22.5 24t-61.5 10v36l15 32q-135 19 -216 114.5t-81 242.5q0 158 97 261.5t269 103.5q163 0 267 -111l-80 -89q-77 86 -196 86
q-102 0 -166.5 -69.5t-64.5 -181.5q0 -108 64.5 -177t176.5 -69q113 0 198 70l62 -99q-41 -38 -110.5 -61.5t-155.5 -24.5z" />
    <glyph glyph-name="Egrave" unicode="&#xc8;" horiz-adv-x="643" 
d="M338 775l-126 133h125l112 -133h-111zM87 0v710h486v-108h-365v-196h334v-108h-334v-190h379v-108h-500z" />
    <glyph glyph-name="Eacute" unicode="&#xc9;" horiz-adv-x="643" 
d="M237 775l112 133h125l-126 -133h-111zM87 0v710h486v-108h-365v-196h334v-108h-334v-190h379v-108h-500z" />
    <glyph glyph-name="Ecircumflex" unicode="&#xca;" horiz-adv-x="643" 
d="M169 775l111 133h117l108 -133h-109l-57 71h-2l-57 -71h-111zM87 0v710h486v-108h-365v-196h334v-108h-334v-190h379v-108h-500z" />
    <glyph glyph-name="Edieresis" unicode="&#xcb;" horiz-adv-x="643" 
d="M239 775q-31 0 -52.5 22t-21.5 52q0 29 21.5 50.5t52.5 21.5t53 -22t22 -51q0 -30 -22 -51.5t-53 -21.5zM438 775q-31 0 -52.5 22t-21.5 52q0 29 21.5 50.5t52.5 21.5t53 -22t22 -51q0 -30 -22 -51.5t-53 -21.5zM87 0v710h486v-108h-365v-196h334v-108h-334v-190h379
v-108h-500z" />
    <glyph glyph-name="Igrave" unicode="&#xcc;" horiz-adv-x="304" 
d="M100 775l-126 133h125l112 -133h-111zM91 0v710h121v-710h-121z" />
    <glyph glyph-name="Iacute" unicode="&#xcd;" horiz-adv-x="304" 
d="M95 775l112 133h125l-126 -133h-111zM91 0v710h121v-710h-121z" />
    <glyph glyph-name="Icircumflex" unicode="&#xce;" horiz-adv-x="304" 
d="M-19 775l111 133h117l108 -133h-109l-57 71h-2l-57 -71h-111zM91 0v710h121v-710h-121z" />
    <glyph glyph-name="Idieresis" unicode="&#xcf;" horiz-adv-x="304" 
d="M51 775q-31 0 -52.5 22t-21.5 52q0 29 21.5 50.5t52.5 21.5t53 -22t22 -51q0 -30 -22 -51.5t-53 -21.5zM250 775q-31 0 -52.5 22t-21.5 52q0 29 21.5 50.5t52.5 21.5t53 -22t22 -51q0 -30 -22 -51.5t-53 -21.5zM91 0v710h121v-710h-121z" />
    <glyph glyph-name="Eth" unicode="&#xd0;" horiz-adv-x="736" 
d="M313 710q167 0 268 -98.5t101 -257.5t-98.5 -256.5t-267.5 -97.5h-229v301h-59v103h59v306h226zM309 108q111 0 179.5 69.5t68.5 176.5q0 108 -67.5 178t-174.5 70h-107v-198h168v-103h-168v-193h101z" />
    <glyph glyph-name="Ntilde" unicode="&#xd1;" horiz-adv-x="773" 
d="M459 775q-34 0 -84 29q-42 24 -63 24q-33 0 -54 -52l-68 31q36 103 114 103q38 0 89 -29q42 -24 59 -24q30 0 51 52l68 -23q-33 -111 -112 -111zM87 0v710h116l361 -513h2v513h120v-710h-119l-358 505h-2v-505h-120z" />
    <glyph glyph-name="Ograve" unicode="&#xd2;" horiz-adv-x="827" 
d="M373 775l-126 133h125l112 -133h-111zM414 -8q-159 0 -259 102.5t-100 260.5t100 260.5t259 102.5q155 0 256.5 -101t101.5 -262t-101.5 -262t-256.5 -101zM414 105q99 0 165.5 71t66.5 179q0 109 -66.5 179.5t-165.5 70.5q-103 0 -168.5 -72t-65.5 -178t65.5 -178
t168.5 -72z" />
    <glyph glyph-name="Oacute" unicode="&#xd3;" horiz-adv-x="827" 
d="M353 775l112 133h125l-126 -133h-111zM414 -8q-159 0 -259 102.5t-100 260.5t100 260.5t259 102.5q155 0 256.5 -101t101.5 -262t-101.5 -262t-256.5 -101zM414 105q99 0 165.5 71t66.5 179q0 109 -66.5 179.5t-165.5 70.5q-103 0 -168.5 -72t-65.5 -178t65.5 -178
t168.5 -72z" />
    <glyph glyph-name="Ocircumflex" unicode="&#xd4;" horiz-adv-x="827" 
d="M246 775l111 133h117l108 -133h-109l-57 71h-2l-57 -71h-111zM414 -8q-159 0 -259 102.5t-100 260.5t100 260.5t259 102.5q155 0 256.5 -101t101.5 -262t-101.5 -262t-256.5 -101zM414 105q99 0 165.5 71t66.5 179q0 109 -66.5 179.5t-165.5 70.5q-103 0 -168.5 -72
t-65.5 -178t65.5 -178t168.5 -72z" />
    <glyph glyph-name="Otilde" unicode="&#xd5;" horiz-adv-x="827" 
d="M493 775q-34 0 -84 29q-42 24 -63 24q-33 0 -54 -52l-68 31q36 103 114 103q38 0 89 -29q42 -24 59 -24q30 0 51 52l68 -23q-33 -111 -112 -111zM414 -8q-159 0 -259 102.5t-100 260.5t100 260.5t259 102.5q155 0 256.5 -101t101.5 -262t-101.5 -262t-256.5 -101z
M414 105q99 0 165.5 71t66.5 179q0 109 -66.5 179.5t-165.5 70.5q-103 0 -168.5 -72t-65.5 -178t65.5 -178t168.5 -72z" />
    <glyph glyph-name="Odieresis" unicode="&#xd6;" horiz-adv-x="827" 
d="M316 775q-31 0 -52.5 22t-21.5 52q0 29 21.5 50.5t52.5 21.5t53 -22t22 -51q0 -30 -22 -51.5t-53 -21.5zM515 775q-31 0 -52.5 22t-21.5 52q0 29 21.5 50.5t52.5 21.5t53 -22t22 -51q0 -30 -22 -51.5t-53 -21.5zM414 -8q-159 0 -259 102.5t-100 260.5t100 260.5
t259 102.5q155 0 256.5 -101t101.5 -262t-101.5 -262t-256.5 -101zM414 105q99 0 165.5 71t66.5 179q0 109 -66.5 179.5t-165.5 70.5q-103 0 -168.5 -72t-65.5 -178t65.5 -178t168.5 -72z" />
    <glyph glyph-name="multiply" unicode="&#xd7;" horiz-adv-x="524" 
d="M122 66l-72 71l141 140l-141 140l71 72l140 -141l141 141l72 -71l-141 -142l140 -140l-71 -70l-140 140z" />
    <glyph glyph-name="Oslash" unicode="&#xd8;" horiz-adv-x="827" 
d="M785 677l-85 -93q72 -96 72 -229q0 -161 -101.5 -262t-256.5 -101q-116 0 -205 58l-78 -85l-69 64l77 83q-84 98 -84 243q0 158 100 260.5t259 102.5q126 0 220 -69l83 90zM180 355q0 -86 44 -150l328 355q-61 45 -138 45q-103 0 -168.5 -72t-65.5 -178zM646 355
q0 75 -34 134l-321 -350q54 -34 123 -34q99 0 165.5 71t66.5 179z" />
    <glyph glyph-name="Ugrave" unicode="&#xd9;" horiz-adv-x="719" 
d="M321 775l-126 133h125l112 -133h-111zM359 -8q-130 0 -206 72.5t-76 217.5v428h120v-419q0 -88 43 -136.5t119 -48.5q74 0 119 46.5t45 138.5v419h120v-428q0 -143 -75 -216.5t-209 -73.5z" />
    <glyph glyph-name="Uacute" unicode="&#xda;" horiz-adv-x="719" 
d="M284 775l112 133h125l-126 -133h-111zM359 -8q-130 0 -206 72.5t-76 217.5v428h120v-419q0 -88 43 -136.5t119 -48.5q74 0 119 46.5t45 138.5v419h120v-428q0 -143 -75 -216.5t-209 -73.5z" />
    <glyph glyph-name="Ucircumflex" unicode="&#xdb;" horiz-adv-x="719" 
d="M190 775l111 133h117l108 -133h-109l-57 71h-2l-57 -71h-111zM359 -8q-130 0 -206 72.5t-76 217.5v428h120v-419q0 -88 43 -136.5t119 -48.5q74 0 119 46.5t45 138.5v419h120v-428q0 -143 -75 -216.5t-209 -73.5z" />
    <glyph glyph-name="Udieresis" unicode="&#xdc;" horiz-adv-x="719" 
d="M260 775q-31 0 -52.5 22t-21.5 52q0 29 21.5 50.5t52.5 21.5t53 -22t22 -51q0 -30 -22 -51.5t-53 -21.5zM459 775q-31 0 -52.5 22t-21.5 52q0 29 21.5 50.5t52.5 21.5t53 -22t22 -51q0 -30 -22 -51.5t-53 -21.5zM359 -8q-130 0 -206 72.5t-76 217.5v428h120v-419
q0 -88 43 -136.5t119 -48.5q74 0 119 46.5t45 138.5v419h120v-428q0 -143 -75 -216.5t-209 -73.5z" />
    <glyph glyph-name="Yacute" unicode="&#xdd;" horiz-adv-x="625" 
d="M245 775l112 133h125l-126 -133h-111zM251 0v314l-237 396h138l159 -280h2l158 280h140l-239 -396v-314h-121z" />
    <glyph glyph-name="Thorn" unicode="&#xde;" horiz-adv-x="649" 
d="M87 0v710h121v-131h157q121 0 181 -62.5t60 -167.5q0 -111 -68.5 -167.5t-187.5 -56.5h-142v-125h-121zM208 233h130q71 0 107 32t36 86q0 57 -35 88.5t-100 31.5h-138v-238z" />
    <glyph glyph-name="germandbls" unicode="&#xdf;" horiz-adv-x="619" 
d="M266 -8v101h67q58 0 97 36.5t39 93.5t-40.5 97.5t-108.5 40.5h-36v96h31q35 0 60 11t35.5 28t14.5 30.5t4 25.5q0 37 -31.5 64t-93.5 27q-65 0 -91.5 -34.5t-26.5 -119.5v-489h-112v486q0 133 56 195.5t176 62.5q110 0 171.5 -51.5t61.5 -129.5q0 -93 -80 -137v-2
q58 -27 91 -81.5t33 -121.5q0 -108 -67 -168.5t-176 -60.5h-74z" />
    <glyph glyph-name="agrave" unicode="&#xe0;" horiz-adv-x="558" 
d="M363 554h-111l-124 144l125 -1zM531 88l6 -88q-25 -6 -51 -6q-79 0 -109 58h-2q-24 -28 -67 -44t-91 -16q-76 0 -122 37.5t-46 109.5q0 159 195 159h117v2q0 97 -109 97q-68 0 -143 -32l-32 92q86 38 192 38q103 0 150.5 -50.5t47.5 -154.5v-153q0 -51 38 -51q10 0 26 2z
M239 87q46 0 83 22.5t37 55.5v51h-102q-46 0 -70.5 -18t-24.5 -48q0 -63 77 -63z" />
    <glyph glyph-name="aacute" unicode="&#xe1;" horiz-adv-x="558" 
d="M433 696l-124 -145h-114l115 144zM531 88l6 -88q-25 -6 -51 -6q-79 0 -109 58h-2q-24 -28 -67 -44t-91 -16q-76 0 -122 37.5t-46 109.5q0 159 195 159h117v2q0 97 -109 97q-68 0 -143 -32l-32 92q86 38 192 38q103 0 150.5 -50.5t47.5 -154.5v-153q0 -51 38 -51
q10 0 26 2zM239 87q46 0 83 22.5t37 55.5v51h-102q-46 0 -70.5 -18t-24.5 -48q0 -63 77 -63z" />
    <glyph glyph-name="acircumflex" unicode="&#xe2;" horiz-adv-x="558" 
d="M283 631l-55 -77h-111l109 145h117l105 -145h-109l-54 77h-2zM531 88l6 -88q-25 -6 -51 -6q-79 0 -109 58h-2q-24 -28 -67 -44t-91 -16q-76 0 -122 37.5t-46 109.5q0 159 195 159h117v2q0 97 -109 97q-68 0 -143 -32l-32 92q86 38 192 38q103 0 150.5 -50.5t47.5 -154.5
v-153q0 -51 38 -51q10 0 26 2zM239 87q46 0 83 22.5t37 55.5v51h-102q-46 0 -70.5 -18t-24.5 -48q0 -63 77 -63z" />
    <glyph glyph-name="atilde" unicode="&#xe3;" horiz-adv-x="558" 
d="M218 607q-37 0 -58 -52l-68 31q34 110 114 110q40 0 84 -28q40 -25 58 -25q36 0 57 52l68 -23q-15 -56 -44 -87.5t-67 -31.5q-37 0 -88 32q-35 22 -56 22zM531 88l6 -88q-25 -6 -51 -6q-79 0 -109 58h-2q-24 -28 -67 -44t-91 -16q-76 0 -122 37.5t-46 109.5
q0 159 195 159h117v2q0 97 -109 97q-68 0 -143 -32l-32 92q86 38 192 38q103 0 150.5 -50.5t47.5 -154.5v-153q0 -51 38 -51q10 0 26 2zM239 87q46 0 83 22.5t37 55.5v51h-102q-46 0 -70.5 -18t-24.5 -48q0 -63 77 -63z" />
    <glyph glyph-name="adieresis" unicode="&#xe4;" horiz-adv-x="558" 
d="M183 562q-31 0 -52.5 22t-21.5 52q0 29 21.5 50.5t52.5 21.5t53 -22t22 -51q0 -30 -22 -51.5t-53 -21.5zM382 562q-31 0 -52.5 22t-21.5 52q0 29 21.5 50.5t52.5 21.5t53 -22t22 -51q0 -30 -22 -51.5t-53 -21.5zM531 88l6 -88q-25 -6 -51 -6q-79 0 -109 58h-2
q-24 -28 -67 -44t-91 -16q-76 0 -122 37.5t-46 109.5q0 159 195 159h117v2q0 97 -109 97q-68 0 -143 -32l-32 92q86 38 192 38q103 0 150.5 -50.5t47.5 -154.5v-153q0 -51 38 -51q10 0 26 2zM239 87q46 0 83 22.5t37 55.5v51h-102q-46 0 -70.5 -18t-24.5 -48q0 -63 77 -63z
" />
    <glyph glyph-name="aring" unicode="&#xe5;" horiz-adv-x="558" 
d="M282 540q-44 0 -76 30.5t-32 74.5q0 43 31 74t77 31q45 0 77 -30t32 -75q0 -44 -31 -74.5t-78 -30.5zM282 684q-16 0 -27 -11.5t-11 -26.5q0 -16 11 -27t27 -11t27.5 11t11.5 27t-11.5 27t-27.5 11zM531 88l6 -88q-25 -6 -51 -6q-79 0 -109 58h-2q-24 -28 -67 -44
t-91 -16q-76 0 -122 37.5t-46 109.5q0 159 195 159h117v2q0 97 -109 97q-68 0 -143 -32l-32 92q86 38 192 38q103 0 150.5 -50.5t47.5 -154.5v-153q0 -51 38 -51q10 0 26 2zM239 87q46 0 83 22.5t37 55.5v51h-102q-46 0 -70.5 -18t-24.5 -48q0 -63 77 -63z" />
    <glyph glyph-name="ae" unicode="&#xe6;" horiz-adv-x="827" 
d="M797 253q0 -33 -3 -45h-349q18 -118 158 -118q72 0 131 36l52 -87q-77 -47 -183 -47q-139 0 -203 78h-2q-52 -78 -193 -78q-80 0 -128.5 39.5t-48.5 108.5q0 158 195 158h116v2q0 48 -25 72.5t-83 24.5q-67 0 -142 -32l-32 92q82 38 181 38q125 0 171 -75h2q59 75 167 75
q106 0 162.5 -67t56.5 -175zM576 394q-49 0 -82.5 -27t-45.5 -74h240q-6 51 -32 76t-80 25zM218 87q49 0 84.5 21.5t35.5 56.5v51h-102q-46 0 -70.5 -18t-24.5 -48q0 -63 77 -63z" />
    <glyph glyph-name="ccedilla" unicode="&#xe7;" horiz-adv-x="522" 
d="M298 -32q92 -3 92 -80q0 -35 -29.5 -56.5t-89.5 -21.5q-29 0 -59 6v55q21 -7 50 -7q20 0 35.5 7.5t15.5 22.5q0 14 -22.5 24t-61.5 10v36l15 34q-96 16 -148 81t-52 163q0 114 69.5 183.5t188.5 69.5q117 0 194 -67l-64 -84q-57 50 -130 50q-64 0 -104 -41t-40 -111
q0 -67 41.5 -108t122.5 -41q64 0 122 40l55 -90q-70 -51 -188 -51h-3l-10 -22v-2z" />
    <glyph glyph-name="egrave" unicode="&#xe8;" horiz-adv-x="557" 
d="M259 554l-124 144l125 -1l110 -143h-111zM518 253q0 -31 -3 -46h-356q20 -117 157 -117q80 0 139 36l52 -87q-77 -47 -199 -47q-127 0 -195.5 67.5t-68.5 184.5q0 112 68.5 181.5t178.5 69.5q111 0 169 -66.5t58 -175.5zM287 394q-46 0 -79 -27t-45 -72h244
q-19 99 -120 99z" />
    <glyph glyph-name="eacute" unicode="&#xe9;" horiz-adv-x="557" 
d="M461 701l-124 -145h-114l115 144zM518 253q0 -31 -3 -46h-356q20 -117 157 -117q80 0 139 36l52 -87q-77 -47 -199 -47q-127 0 -195.5 67.5t-68.5 184.5q0 112 68.5 181.5t178.5 69.5q111 0 169 -66.5t58 -175.5zM287 394q-46 0 -79 -27t-45 -72h244q-19 99 -120 99z" />
    <glyph glyph-name="ecircumflex" unicode="&#xea;" horiz-adv-x="557" 
d="M291 631l-55 -77h-111l109 145h117l105 -145h-109l-54 77h-2zM518 253q0 -31 -3 -46h-356q20 -117 157 -117q80 0 139 36l52 -87q-77 -47 -199 -47q-127 0 -195.5 67.5t-68.5 184.5q0 112 68.5 181.5t178.5 69.5q111 0 169 -66.5t58 -175.5zM287 394q-46 0 -79 -27
t-45 -72h244q-19 99 -120 99z" />
    <glyph glyph-name="edieresis" unicode="&#xeb;" horiz-adv-x="557" 
d="M191 562q-31 0 -52.5 22t-21.5 52q0 29 21.5 50.5t52.5 21.5t53 -22t22 -51q0 -30 -22 -51.5t-53 -21.5zM390 562q-31 0 -52.5 22t-21.5 52q0 29 21.5 50.5t52.5 21.5t53 -22t22 -51q0 -30 -22 -51.5t-53 -21.5zM518 253q0 -31 -3 -46h-356q20 -117 157 -117q80 0 139 36
l52 -87q-77 -47 -199 -47q-127 0 -195.5 67.5t-68.5 184.5q0 112 68.5 181.5t178.5 69.5q111 0 169 -66.5t58 -175.5zM287 394q-46 0 -79 -27t-45 -72h244q-19 99 -120 99z" />
    <glyph glyph-name="igrave" unicode="&#xec;" horiz-adv-x="273" 
d="M79 556l-90 145l123 -1l81 -144h-114zM80 0v488h112v-488h-112z" />
    <glyph glyph-name="iacute" unicode="&#xed;" horiz-adv-x="272" 
d="M84 556l115 144l123 1l-124 -145h-114zM80 0v488h112v-488h-112z" />
    <glyph glyph-name="icircumflex" unicode="&#xee;" horiz-adv-x="272" 
d="M-30 554l109 145h117l105 -145h-109l-54 77h-2l-55 -77h-111zM80 0v488h112v-488h-112z" />
    <glyph glyph-name="idieresis" unicode="&#xef;" horiz-adv-x="272" 
d="M49 560q-32 0 -54 22t-22 53q0 30 22 52t54 22q31 0 53 -22t22 -52q0 -31 -22 -53t-53 -22zM225 562q-31 0 -53 21.5t-22 51.5q0 29 22 51t53 22q30 0 52 -22t22 -51q0 -30 -22 -51.5t-52 -21.5zM80 0v488h112v-488h-112z" />
    <glyph glyph-name="eth" unicode="&#xf0;" horiz-adv-x="597" 
d="M430 575q120 -136 120 -307q0 -134 -69 -205t-187 -71q-106 0 -177.5 68t-71.5 171q0 109 64.5 177.5t152.5 68.5q91 0 144 -49v1q-24 51 -61 91q-16 18 -34 34l-39 -47l-73 53l38 46q-46 27 -110 51l49 84q65 -22 124 -57l64 79l77 -51l-67 -82q33 -28 56 -55zM295 94
q62 0 101.5 41t39.5 104q0 60 -39.5 99.5t-100.5 39.5q-59 0 -98 -40.5t-39 -98.5q0 -62 39.5 -103.5t96.5 -41.5z" />
    <glyph glyph-name="ntilde" unicode="&#xf1;" horiz-adv-x="593" 
d="M375 553q-37 0 -88 32q-35 22 -56 22q-37 0 -58 -52l-68 31q34 110 114 110q40 0 84 -28q40 -25 58 -25q36 0 57 52l68 -23q-15 -56 -44 -87.5t-67 -31.5zM73 0v488h112v-67h2q62 74 163 74q84 0 131.5 -51t47.5 -157v-287h-112v258q0 74 -26.5 105t-79.5 31
q-58 0 -92 -39t-34 -110v-245h-112z" />
    <glyph glyph-name="ograve" unicode="&#xf2;" horiz-adv-x="600" 
d="M261 554l-124 144l125 -1l110 -143h-111zM300 -8q-114 0 -185 71t-71 180t71 180.5t185 71.5q113 0 184.5 -70t71.5 -182q0 -111 -71.5 -181t-184.5 -70zM300 94q60 0 101 42t41 107q0 67 -40.5 109t-101.5 42q-63 0 -102.5 -43t-39.5 -108q0 -63 40 -106t102 -43z" />
    <glyph glyph-name="oacute" unicode="&#xf3;" horiz-adv-x="600" 
d="M240 556l115 144l123 1l-124 -145h-114zM300 -8q-114 0 -185 71t-71 180t71 180.5t185 71.5q113 0 184.5 -70t71.5 -182q0 -111 -71.5 -181t-184.5 -70zM300 94q60 0 101 42t41 107q0 67 -40.5 109t-101.5 42q-63 0 -102.5 -43t-39.5 -108q0 -63 40 -106t102 -43z" />
    <glyph glyph-name="ocircumflex" unicode="&#xf4;" horiz-adv-x="600" 
d="M134 554l109 145h117l105 -145h-109l-54 77h-2l-55 -77h-111zM300 -8q-114 0 -185 71t-71 180t71 180.5t185 71.5q113 0 184.5 -70t71.5 -182q0 -111 -71.5 -181t-184.5 -70zM300 94q60 0 101 42t41 107q0 67 -40.5 109t-101.5 42q-63 0 -102.5 -43t-39.5 -108
q0 -63 40 -106t102 -43z" />
    <glyph glyph-name="otilde" unicode="&#xf5;" horiz-adv-x="600" 
d="M379 553q-37 0 -88 32q-35 22 -56 22q-37 0 -58 -52l-68 31q34 110 114 110q40 0 84 -28q40 -25 58 -25q36 0 57 52l68 -23q-15 -56 -44 -87.5t-67 -31.5zM300 -8q-114 0 -185 71t-71 180t71 180.5t185 71.5q113 0 184.5 -70t71.5 -182q0 -111 -71.5 -181t-184.5 -70z
M300 94q60 0 101 42t41 107q0 67 -40.5 109t-101.5 42q-63 0 -102.5 -43t-39.5 -108q0 -63 40 -106t102 -43z" />
    <glyph glyph-name="odieresis" unicode="&#xf6;" horiz-adv-x="600" 
d="M200 562q-31 0 -52.5 22t-21.5 52q0 29 21.5 50.5t52.5 21.5t53 -22t22 -51q0 -30 -22 -51.5t-53 -21.5zM399 562q-31 0 -52.5 22t-21.5 52q0 29 21.5 50.5t52.5 21.5t53 -22t22 -51q0 -30 -22 -51.5t-53 -21.5zM300 -8q-114 0 -185 71t-71 180t71 180.5t185 71.5
q113 0 184.5 -70t71.5 -182q0 -111 -71.5 -181t-184.5 -70zM300 94q60 0 101 42t41 107q0 67 -40.5 109t-101.5 42q-63 0 -102.5 -43t-39.5 -108q0 -63 40 -106t102 -43z" />
    <glyph glyph-name="divide" unicode="&#xf7;" horiz-adv-x="573" 
d="M292 396q-31 0 -53 22t-22 53q0 30 22 52t53 22t53.5 -22t22.5 -52q0 -31 -22.5 -53t-53.5 -22zM59 226v102h473v-102h-473zM292 -3q-31 0 -53 22t-22 53q0 30 22 52t53 22t53.5 -22t22.5 -52q0 -31 -22.5 -53t-53.5 -22z" />
    <glyph glyph-name="oslash" unicode="&#xf8;" horiz-adv-x="600" 
d="M569 459l-59 -63q46 -67 46 -153q0 -111 -71.5 -181t-184.5 -70q-76 0 -135 34l-51 -55l-60 56l47 51q-57 68 -57 165q0 109 71 180.5t185 71.5q88 0 151 -43l59 63zM158 243q0 -44 22 -82l197 211q-35 22 -77 22q-63 0 -102.5 -43t-39.5 -108zM442 243q0 35 -13 66
l-189 -202q26 -13 60 -13q60 0 101 42t41 107z" />
    <glyph glyph-name="ugrave" unicode="&#xf9;" horiz-adv-x="578" 
d="M253 554l-124 144l125 -1l110 -143h-111zM246 -8q-183 0 -183 199v297h112v-267q0 -71 22.5 -99t74.5 -28t88.5 42.5t36.5 117.5v234h112v-488h-112v61l-2 1q-58 -70 -149 -70z" />
    <glyph glyph-name="uacute" unicode="&#xfa;" horiz-adv-x="578" 
d="M229 556l115 144l123 1l-124 -145h-114zM246 -8q-183 0 -183 199v297h112v-267q0 -71 22.5 -99t74.5 -28t88.5 42.5t36.5 117.5v234h112v-488h-112v61l-2 1q-58 -70 -149 -70z" />
    <glyph glyph-name="ucircumflex" unicode="&#xfb;" horiz-adv-x="578" 
d="M121 554l109 145h117l105 -145h-109l-54 77h-2l-55 -77h-111zM246 -8q-183 0 -183 199v297h112v-267q0 -71 22.5 -99t74.5 -28t88.5 42.5t36.5 117.5v234h112v-488h-112v61l-2 1q-58 -70 -149 -70z" />
    <glyph glyph-name="udieresis" unicode="&#xfc;" horiz-adv-x="578" 
d="M187 562q-31 0 -52.5 22t-21.5 52q0 29 21.5 50.5t52.5 21.5t53 -22t22 -51q0 -30 -22 -51.5t-53 -21.5zM386 562q-31 0 -52.5 22t-21.5 52q0 29 21.5 50.5t52.5 21.5t53 -22t22 -51q0 -30 -22 -51.5t-53 -21.5zM246 -8q-183 0 -183 199v297h112v-267q0 -71 22.5 -99
t74.5 -28t88.5 42.5t36.5 117.5v234h112v-488h-112v61l-2 1q-58 -70 -149 -70z" />
    <glyph glyph-name="yacute" unicode="&#xfd;" horiz-adv-x="535" 
d="M190 556l115 144l123 1l-124 -145h-114zM130 -205q-68 0 -119 33l43 92q36 -25 72 -25q27 0 43 20.5t35 67.5l14 36l-199 469h120l133 -338h2l126 338h115l-204 -521q-33 -84 -72.5 -128t-108.5 -44z" />
    <glyph glyph-name="thorn" unicode="&#xfe;" horiz-adv-x="621" 
d="M73 -198v934h112v-305h2q56 64 154 64q102 0 169 -71.5t67 -181.5q0 -112 -67 -181t-170 -69q-98 0 -153 67l-2 -1v-256h-112zM323 94q61 0 100.5 41t39.5 106q0 69 -40.5 111t-100.5 42q-62 0 -102 -43.5t-40 -109.5q0 -65 41 -106t102 -41z" />
    <glyph glyph-name="ydieresis" unicode="&#xff;" horiz-adv-x="535" 
d="M168 562q-31 0 -52.5 22t-21.5 52q0 29 21.5 50.5t52.5 21.5t53 -22t22 -51q0 -30 -22 -51.5t-53 -21.5zM367 562q-31 0 -52.5 22t-21.5 52q0 29 21.5 50.5t52.5 21.5t53 -22t22 -51q0 -30 -22 -51.5t-53 -21.5zM130 -205q-68 0 -119 33l43 92q36 -25 72 -25
q27 0 43 20.5t35 67.5l14 36l-199 469h120l133 -338h2l126 338h115l-204 -521q-33 -84 -72.5 -128t-108.5 -44z" />
    <glyph glyph-name="Amacron" unicode="&#x100;" horiz-adv-x="695" 
d="M198 797v89h298v-89h-298zM23 0l265 710h118l266 -710h-126l-54 153h-290l-53 -153h-126zM239 257h217l-108 308h-2z" />
    <glyph glyph-name="amacron" unicode="&#x101;" horiz-adv-x="558" 
d="M432 678v-94h-298v94h298zM531 88l6 -88q-25 -6 -51 -6q-79 0 -109 58h-2q-24 -28 -67 -44t-91 -16q-76 0 -122 37.5t-46 109.5q0 159 195 159h117v2q0 97 -109 97q-68 0 -143 -32l-32 92q86 38 192 38q103 0 150.5 -50.5t47.5 -154.5v-153q0 -51 38 -51q10 0 26 2z
M239 87q46 0 83 22.5t37 55.5v51h-102q-46 0 -70.5 -18t-24.5 -48q0 -63 77 -63z" />
    <glyph glyph-name="Abreve" unicode="&#x102;" horiz-adv-x="695" 
d="M347 768q-70 0 -110.5 38t-45.5 102h88q2 -24 19.5 -39t48.5 -15q30 0 48 15.5t20 38.5h88q-5 -64 -45.5 -102t-110.5 -38zM23 0l265 710h118l266 -710h-126l-54 153h-290l-53 -153h-126zM239 257h217l-108 308h-2z" />
    <glyph glyph-name="abreve" unicode="&#x103;" horiz-adv-x="558" 
d="M283 548q-71 0 -111 39.5t-45 109.5h88q2 -26 20 -44.5t48 -18.5t48 18.5t20 44.5h88q-5 -70 -45 -109.5t-111 -39.5zM531 88l6 -88q-25 -6 -51 -6q-79 0 -109 58h-2q-24 -28 -67 -44t-91 -16q-76 0 -122 37.5t-46 109.5q0 159 195 159h117v2q0 97 -109 97
q-68 0 -143 -32l-32 92q86 38 192 38q103 0 150.5 -50.5t47.5 -154.5v-153q0 -51 38 -51q10 0 26 2zM239 87q46 0 83 22.5t37 55.5v51h-102q-46 0 -70.5 -18t-24.5 -48q0 -63 77 -63z" />
    <glyph glyph-name="Aogonek" unicode="&#x104;" horiz-adv-x="695" 
d="M612 -116q23 0 41 8l7 -68q-28 -12 -72 -12q-49 0 -78.5 24t-29.5 64q0 56 66 101l-54 152h-290l-53 -153h-126l265 710h118l266 -710h-24q-36 -8 -57.5 -29.5t-21.5 -45.5q0 -41 43 -41zM239 257h217l-108 308h-2z" />
    <glyph glyph-name="aogonek" unicode="&#x105;" horiz-adv-x="558" 
d="M470 -116q23 0 41 8l7 -68q-29 -12 -72 -12q-49 0 -78.5 24t-29.5 64q0 28 21.5 58.5t58.5 51.5q-26 14 -41 42h-2q-24 -28 -67 -44t-91 -16q-76 0 -122 37.5t-46 109.5q0 159 195 159h117v2q0 97 -109 97q-68 0 -143 -32l-32 92q86 38 192 38q103 0 150.5 -50.5
t47.5 -154.5v-153q0 -51 38 -51q10 0 26 2l6 -88q-25 -6 -51 -6q-27 -10 -43 -29t-16 -40q0 -41 43 -41zM239 87q46 0 83 22.5t37 55.5v51h-102q-46 0 -70.5 -18t-24.5 -48q0 -63 77 -63z" />
    <glyph glyph-name="Cacute" unicode="&#x106;" horiz-adv-x="719" 
d="M333 775l112 133h125l-126 -133h-111zM413 -8q-160 0 -259 99t-99 262q0 158 97 261.5t269 103.5q163 0 267 -111l-80 -89q-77 86 -196 86q-102 0 -166.5 -69.5t-64.5 -181.5q0 -108 64.5 -177t176.5 -69q113 0 198 70l62 -99q-41 -38 -111.5 -62t-157.5 -24z" />
    <glyph glyph-name="cacute" unicode="&#x107;" horiz-adv-x="522" 
d="M226 556l115 144l123 1l-124 -145h-114zM311 -8q-127 0 -197 67.5t-70 182.5q0 114 69.5 183.5t188.5 69.5q117 0 194 -67l-64 -84q-57 50 -130 50q-64 0 -104 -41t-40 -111q0 -67 41.5 -108t122.5 -41q64 0 122 40l55 -90q-70 -51 -188 -51z" />
    <glyph glyph-name="Ccircumflex" unicode="&#x108;" horiz-adv-x="719" 
d="M242 775l111 133h117l108 -133h-109l-57 71h-2l-57 -71h-111zM413 -8q-160 0 -259 99t-99 262q0 158 97 261.5t269 103.5q163 0 267 -111l-80 -89q-77 86 -196 86q-102 0 -166.5 -69.5t-64.5 -181.5q0 -108 64.5 -177t176.5 -69q113 0 198 70l62 -99q-41 -38 -111.5 -62
t-157.5 -24z" />
    <glyph glyph-name="ccircumflex" unicode="&#x109;" horiz-adv-x="522" 
d="M133 554l109 145h117l105 -145h-109l-54 77h-2l-55 -77h-111zM311 -8q-127 0 -197 67.5t-70 182.5q0 114 69.5 183.5t188.5 69.5q117 0 194 -67l-64 -84q-57 50 -130 50q-64 0 -104 -41t-40 -111q0 -67 41.5 -108t122.5 -41q64 0 122 40l55 -90q-70 -51 -188 -51z" />
    <glyph glyph-name="Cdotaccent" unicode="&#x10a;" horiz-adv-x="719" 
d="M412 773q-31 0 -53 22t-22 53q0 30 22 52t53 22t53.5 -22t22.5 -52q0 -31 -22.5 -53t-53.5 -22zM413 -8q-160 0 -259 99t-99 262q0 158 97 261.5t269 103.5q163 0 267 -111l-80 -89q-77 86 -196 86q-102 0 -166.5 -69.5t-64.5 -181.5q0 -108 64.5 -177t176.5 -69
q113 0 198 70l62 -99q-41 -38 -111.5 -62t-157.5 -24z" />
    <glyph glyph-name="cdotaccent" unicode="&#x10b;" horiz-adv-x="522" 
d="M299 560q-31 0 -53 22t-22 53q0 30 22 52t53 22t53.5 -22t22.5 -52q0 -31 -22.5 -53t-53.5 -22zM311 -8q-127 0 -197 67.5t-70 182.5q0 114 69.5 183.5t188.5 69.5q117 0 194 -67l-64 -84q-57 50 -130 50q-64 0 -104 -41t-40 -111q0 -67 41.5 -108t122.5 -41q64 0 122 40
l55 -90q-70 -51 -188 -51z" />
    <glyph glyph-name="Ccaron" unicode="&#x10c;" horiz-adv-x="719" 
d="M350 775l-108 133h109l57 -71h2l57 71h111l-111 -133h-117zM413 -8q-160 0 -259 99t-99 262q0 158 97 261.5t269 103.5q163 0 267 -111l-80 -89q-77 86 -196 86q-102 0 -166.5 -69.5t-64.5 -181.5q0 -108 64.5 -177t176.5 -69q113 0 198 70l62 -99q-41 -38 -111.5 -62
t-157.5 -24z" />
    <glyph glyph-name="ccaron" unicode="&#x10d;" horiz-adv-x="522" 
d="M238 552l-105 145h109l54 -77h2l55 77h111l-109 -145h-117zM311 -8q-127 0 -197 67.5t-70 182.5q0 114 69.5 183.5t188.5 69.5q117 0 194 -67l-64 -84q-57 50 -130 50q-64 0 -104 -41t-40 -111q0 -67 41.5 -108t122.5 -41q64 0 122 40l55 -90q-70 -51 -188 -51z" />
    <glyph glyph-name="Dcaron" unicode="&#x10e;" horiz-adv-x="736" 
d="M301 775l-108 133h109l57 -71h2l57 71h111l-111 -133h-117zM87 0v710h226q167 0 268 -98.5t101 -257.5t-98.5 -256.5t-267.5 -97.5h-229zM208 108h101q111 0 179.5 69.5t68.5 176.5q0 108 -67.5 178t-174.5 70h-107v-494z" />
    <glyph glyph-name="dcaron" unicode="&#x10f;" horiz-adv-x="703" 
d="M612 583l30 198h108l-58 -198h-80zM280 -8q-103 0 -170 69t-67 181q0 110 67.5 181.5t168.5 71.5q100 0 156 -67h1v308h111v-736h-107v66h-1q-57 -74 -159 -74zM297 94q61 0 102 41t41 106q0 66 -40 109.5t-102 43.5q-60 0 -100.5 -42t-40.5 -111q0 -65 39.5 -106
t100.5 -41z" />
    <glyph glyph-name="Dcroat" unicode="&#x110;" horiz-adv-x="736" 
d="M313 710q167 0 268 -98.5t101 -257.5t-98.5 -256.5t-267.5 -97.5h-229v301h-59v103h59v306h226zM309 108q111 0 179.5 69.5t68.5 176.5q0 108 -67.5 178t-174.5 70h-107v-198h168v-103h-168v-193h101z" />
    <glyph glyph-name="dcroat" unicode="&#x111;" horiz-adv-x="609" 
d="M609 638v-76h-62v-562h-107v66h-1q-57 -74 -159 -74q-103 0 -170 69t-67 181q0 110 67.5 181.5t168.5 71.5q100 0 156 -67h1v134h-186v76h186v98h111v-98h62zM297 94q61 0 102 41t41 106q0 66 -40 109.5t-102 43.5q-60 0 -100.5 -42t-40.5 -111q0 -65 39.5 -106
t100.5 -41z" />
    <glyph glyph-name="Emacron" unicode="&#x112;" horiz-adv-x="643" 
d="M189 797v89h298v-89h-298zM87 0v710h486v-108h-365v-196h334v-108h-334v-190h379v-108h-500z" />
    <glyph glyph-name="emacron" unicode="&#x113;" horiz-adv-x="557" 
d="M142 584v94h298v-94h-298zM518 253q0 -31 -3 -46h-356q20 -117 157 -117q80 0 139 36l52 -87q-77 -47 -199 -47q-127 0 -195.5 67.5t-68.5 184.5q0 112 68.5 181.5t178.5 69.5q111 0 169 -66.5t58 -175.5zM287 394q-46 0 -79 -27t-45 -72h244q-19 99 -120 99z" />
    <glyph glyph-name="Ebreve" unicode="&#x114;" horiz-adv-x="643" 
d="M338 768q-70 0 -110.5 38t-45.5 102h88q2 -24 19.5 -39t48.5 -15q30 0 48 15.5t20 38.5h88q-5 -64 -45.5 -102t-110.5 -38zM87 0v710h486v-108h-365v-196h334v-108h-334v-190h379v-108h-500z" />
    <glyph glyph-name="ebreve" unicode="&#x115;" horiz-adv-x="557" 
d="M291 548q-71 0 -111 39.5t-45 109.5h88q2 -26 20 -44.5t48 -18.5t48 18.5t20 44.5h88q-5 -70 -45 -109.5t-111 -39.5zM518 253q0 -31 -3 -46h-356q20 -117 157 -117q80 0 139 36l52 -87q-77 -47 -199 -47q-127 0 -195.5 67.5t-68.5 184.5q0 112 68.5 181.5t178.5 69.5
q111 0 169 -66.5t58 -175.5zM287 394q-46 0 -79 -27t-45 -72h244q-19 99 -120 99z" />
    <glyph glyph-name="Edotaccent" unicode="&#x116;" horiz-adv-x="643" 
d="M339 773q-31 0 -53 22t-22 53q0 30 22 52t53 22t53.5 -22t22.5 -52q0 -31 -22.5 -53t-53.5 -22zM87 0v710h486v-108h-365v-196h334v-108h-334v-190h379v-108h-500z" />
    <glyph glyph-name="edotaccent" unicode="&#x117;" horiz-adv-x="557" 
d="M291 560q-31 0 -53 22t-22 53q0 30 22 52t53 22t53.5 -22t22.5 -52q0 -31 -22.5 -53t-53.5 -22zM518 253q0 -31 -3 -46h-356q20 -117 157 -117q80 0 139 36l52 -87q-77 -47 -199 -47q-127 0 -195.5 67.5t-68.5 184.5q0 112 68.5 181.5t178.5 69.5q111 0 169 -66.5
t58 -175.5zM287 394q-46 0 -79 -27t-45 -72h244q-19 99 -120 99z" />
    <glyph glyph-name="Eogonek" unicode="&#x118;" horiz-adv-x="643" 
d="M574 0q-36 -8 -57.5 -29.5t-21.5 -45.5q0 -41 43 -41q23 0 41 8l7 -68q-28 -12 -72 -12q-49 0 -78.5 24t-29.5 64q0 55 64 100h-383v710h486v-108h-365v-196h334v-108h-334v-190h379v-108h-13z" />
    <glyph glyph-name="eogonek" unicode="&#x119;" horiz-adv-x="557" 
d="M518 253q0 -31 -3 -46h-356q20 -117 157 -117q80 0 139 36l52 -87q-66 -39 -146 -45q-59 -28 -59 -64q0 -16 11.5 -26.5t31.5 -10.5q22 0 41 7l7 -71q-27 -13 -72 -13q-55 0 -86 24.5t-31 64.5q0 47 50 88v3q-102 14 -156 79.5t-54 168.5q0 112 68.5 181.5t178.5 69.5
q111 0 169 -66.5t58 -175.5zM163 295h244q-19 99 -120 99q-46 0 -79 -27t-45 -72z" />
    <glyph glyph-name="Ecaron" unicode="&#x11a;" horiz-adv-x="643" 
d="M277 775l-108 133h109l57 -71h2l57 71h111l-111 -133h-117zM87 0v710h486v-108h-365v-196h334v-108h-334v-190h379v-108h-500z" />
    <glyph glyph-name="ecaron" unicode="&#x11b;" horiz-adv-x="557" 
d="M347 552h-117l-105 145h109l54 -77h2l55 77h111zM518 253q0 -31 -3 -46h-356q20 -117 157 -117q80 0 139 36l52 -87q-77 -47 -199 -47q-127 0 -195.5 67.5t-68.5 184.5q0 112 68.5 181.5t178.5 69.5q111 0 169 -66.5t58 -175.5zM287 394q-46 0 -79 -27t-45 -72h244
q-19 99 -120 99z" />
    <glyph glyph-name="Gcircumflex" unicode="&#x11c;" horiz-adv-x="760" 
d="M237 775l111 133h117l108 -133h-109l-57 71h-2l-57 -71h-111zM413 -6q-162 0 -260 96.5t-98 262.5q0 158 97 261.5t269 103.5q163 0 267 -111l-80 -89q-77 86 -196 86q-102 0 -166.5 -69.5t-64.5 -181.5t59 -180.5t175 -68.5q100 0 166 44v123h-174v108h294v-296
q-49 -40 -127.5 -64.5t-160.5 -24.5z" />
    <glyph glyph-name="gcircumflex" unicode="&#x11d;" horiz-adv-x="607" 
d="M127 554l109 145h117l105 -145h-109l-54 77h-2l-55 -77h-111zM291 -205q-136 0 -219 50l44 93q84 -42 169 -42q69 0 107 34.5t38 85.5v51h-2q-59 -59 -148 -59q-103 0 -170.5 67t-67.5 174t65.5 176.5t166.5 69.5q90 0 152 -59h2v52h112v-438q0 -118 -60 -186.5
t-189 -68.5zM295 111q61 0 99.5 40.5t38.5 102.5q0 61 -39.5 100t-98.5 39q-62 0 -100.5 -39.5t-38.5 -101.5q0 -64 39.5 -102.5t99.5 -38.5z" />
    <glyph glyph-name="Gbreve" unicode="&#x11e;" horiz-adv-x="760" 
d="M406 768q-70 0 -110.5 38t-45.5 102h88q2 -24 19.5 -39t48.5 -15q30 0 48 15.5t20 38.5h88q-5 -64 -45.5 -102t-110.5 -38zM413 -6q-162 0 -260 96.5t-98 262.5q0 158 97 261.5t269 103.5q163 0 267 -111l-80 -89q-77 86 -196 86q-102 0 -166.5 -69.5t-64.5 -181.5
t59 -180.5t175 -68.5q100 0 166 44v123h-174v108h294v-296q-49 -40 -127.5 -64.5t-160.5 -24.5z" />
    <glyph glyph-name="gbreve" unicode="&#x11f;" horiz-adv-x="607" 
d="M293 548q-71 0 -111 39.5t-45 109.5h88q2 -26 20 -44.5t48 -18.5t48 18.5t20 44.5h88q-5 -70 -45 -109.5t-111 -39.5zM291 -205q-136 0 -219 50l44 93q84 -42 169 -42q69 0 107 34.5t38 85.5v51h-2q-59 -59 -148 -59q-103 0 -170.5 67t-67.5 174t65.5 176.5t166.5 69.5
q90 0 152 -59h2v52h112v-438q0 -118 -60 -186.5t-189 -68.5zM295 111q61 0 99.5 40.5t38.5 102.5q0 61 -39.5 100t-98.5 39q-62 0 -100.5 -39.5t-38.5 -101.5q0 -64 39.5 -102.5t99.5 -38.5z" />
    <glyph glyph-name="Gdotaccent" unicode="&#x120;" horiz-adv-x="760" 
d="M407 773q-31 0 -53 22t-22 53q0 30 22 52t53 22t53.5 -22t22.5 -52q0 -31 -22.5 -53t-53.5 -22zM413 -6q-162 0 -260 96.5t-98 262.5q0 158 97 261.5t269 103.5q163 0 267 -111l-80 -89q-77 86 -196 86q-102 0 -166.5 -69.5t-64.5 -181.5t59 -180.5t175 -68.5
q100 0 166 44v123h-174v108h294v-296q-49 -40 -127.5 -64.5t-160.5 -24.5z" />
    <glyph glyph-name="gdotaccent" unicode="&#x121;" horiz-adv-x="607" 
d="M293 560q-31 0 -53 22t-22 53q0 30 22 52t53 22t53.5 -22t22.5 -52q0 -31 -22.5 -53t-53.5 -22zM291 -205q-136 0 -219 50l44 93q84 -42 169 -42q69 0 107 34.5t38 85.5v51h-2q-59 -59 -148 -59q-103 0 -170.5 67t-67.5 174t65.5 176.5t166.5 69.5q90 0 152 -59h2v52h112
v-438q0 -118 -60 -186.5t-189 -68.5zM295 111q61 0 99.5 40.5t38.5 102.5q0 61 -39.5 100t-98.5 39q-62 0 -100.5 -39.5t-38.5 -101.5q0 -64 39.5 -102.5t99.5 -38.5z" />
    <glyph glyph-name="Gcommaaccent" unicode="&#x122;" horiz-adv-x="760" 
d="M413 -6q-162 0 -260 96.5t-98 262.5q0 158 97 261.5t269 103.5q163 0 267 -111l-80 -89q-77 86 -196 86q-102 0 -166.5 -69.5t-64.5 -181.5t59 -180.5t175 -68.5q100 0 166 44v123h-174v108h294v-296q-49 -40 -127.5 -64.5t-160.5 -24.5zM336 -219l-26 65
q30 11 42.5 24.5t12.5 37.5q0 14 -6 39h102q4 -20 4 -47q0 -54 -36.5 -83.5t-92.5 -35.5z" />
    <glyph glyph-name="gcommaaccent" unicode="&#x123;" horiz-adv-x="607" 
d="M371 725l26 -65q-30 -11 -42.5 -24.5t-12.5 -37.5q0 -14 6 -39h-102q-4 20 -4 47q0 54 36.5 83.5t92.5 35.5zM291 -205q-136 0 -219 50l44 93q84 -42 169 -42q69 0 107 34.5t38 85.5v51h-2q-59 -59 -148 -59q-103 0 -170.5 67t-67.5 174t65.5 176.5t166.5 69.5
q90 0 152 -59h2v52h112v-438q0 -118 -60 -186.5t-189 -68.5zM295 111q61 0 99.5 40.5t38.5 102.5q0 61 -39.5 100t-98.5 39q-62 0 -100.5 -39.5t-38.5 -101.5q0 -64 39.5 -102.5t99.5 -38.5z" />
    <glyph glyph-name="Hcircumflex" unicode="&#x124;" horiz-adv-x="736" 
d="M202 775l111 133h117l108 -133h-109l-57 71h-2l-57 -71h-111zM87 0v710h121v-317h320v317h121v-710h-121v285h-320v-285h-121z" />
    <glyph glyph-name="hcircumflex" unicode="&#x125;" horiz-adv-x="598" 
d="M72 785l111 133h117l108 -133h-109l-57 71h-2l-57 -71h-111zM73 0v736h112v-309h1q62 68 166 68q85 0 133.5 -49t48.5 -154v-292h-112v263q0 70 -26.5 100.5t-79.5 30.5q-62 0 -96.5 -37.5t-34.5 -108.5v-248h-112z" />
    <glyph glyph-name="Hbar" unicode="&#x126;" horiz-adv-x="738" 
d="M705 599v-83h-54v-516h-121v285h-320v-285h-121v516h-52v83h52v111h121v-111h320v111h121v-111h54zM530 393v123h-320v-123h320z" />
    <glyph glyph-name="hbar" unicode="&#x127;" horiz-adv-x="598" 
d="M352 495q85 0 133.5 -49t48.5 -154v-292h-112v263q0 70 -26.5 100.5t-79.5 30.5q-62 0 -96.5 -37.5t-34.5 -108.5v-248h-112v562h-67v76h67v98h112v-98h174v-76h-174v-135h1q62 68 166 68z" />
    <glyph glyph-name="Itilde" unicode="&#x128;" horiz-adv-x="304" 
d="M228 775q-34 0 -84 29q-42 24 -63 24q-33 0 -54 -52l-68 31q36 103 114 103q38 0 89 -29q42 -24 59 -24q30 0 51 52l68 -23q-33 -111 -112 -111zM91 0v710h121v-710h-121z" />
    <glyph glyph-name="itilde" unicode="&#x129;" horiz-adv-x="272" 
d="M24 558l-68 31q34 104 107 104q36 0 77 -24q42 -25 57 -25q36 0 57 52l68 -23q-34 -113 -111 -113q-34 0 -80 28q-41 24 -59 22q-30 -4 -48 -52zM80 0v488h112v-488h-112z" />
    <glyph glyph-name="Imacron" unicode="&#x12a;" horiz-adv-x="304" 
d="M1 797v89h298v-89h-298zM91 0v710h121v-710h-121z" />
    <glyph glyph-name="imacron" unicode="&#x12b;" horiz-adv-x="272" 
d="M-13 584v94h298v-94h-298zM80 0v488h112v-488h-112z" />
    <glyph glyph-name="Ibreve" unicode="&#x12c;" horiz-adv-x="304" 
d="M150 768q-70 0 -110.5 38t-45.5 102h88q2 -24 19.5 -39t48.5 -15q30 0 48 15.5t20 38.5h88q-5 -64 -45.5 -102t-110.5 -38zM91 0v710h121v-710h-121z" />
    <glyph glyph-name="ibreve" unicode="&#x12d;" horiz-adv-x="272" 
d="M136 551q-58 0 -97.5 38.5t-44.5 107.5h88q2 -30 16 -49t38 -19q22 0 36.5 18.5t16.5 49.5h88q-5 -65 -42 -105.5t-99 -40.5zM80 0v488h112v-488h-112z" />
    <glyph glyph-name="Iogonek" unicode="&#x12e;" horiz-adv-x="304" 
d="M193 0q-36 -8 -57.5 -29.5t-21.5 -45.5q0 -41 43 -41q23 0 41 8l7 -68q-28 -12 -72 -12q-49 0 -78.5 24t-29.5 64q0 56 66 101v709h121v-710h-19z" />
    <glyph glyph-name="iogonek" unicode="&#x12f;" horiz-adv-x="272" 
d="M136 560q-31 0 -53 22t-22 53q0 30 22 52t53 22t53.5 -22t22.5 -52q0 -31 -22.5 -53t-53.5 -22zM145 -116q23 0 41 8l7 -68q-29 -12 -72 -12q-49 0 -78.5 24t-29.5 64q0 25 17.5 53t49.5 49v486h112v-488h-11q-36 -8 -57.5 -29.5t-21.5 -45.5q0 -41 43 -41z" />
    <glyph glyph-name="Idotaccent" unicode="&#x130;" horiz-adv-x="304" 
d="M151 773q-31 0 -53 22t-22 53q0 30 22 52t53 22t53.5 -22t22.5 -52q0 -31 -22.5 -53t-53.5 -22zM91 0v710h121v-710h-121z" />
    <glyph glyph-name="dotlessi" unicode="&#x131;" horiz-adv-x="272" 
d="M80 0v488h112v-488h-112z" />
    <glyph glyph-name="IJ" unicode="&#x132;" horiz-adv-x="839" 
d="M91 0v710h121v-710h-121zM537 -6q-65 0 -126.5 25t-99.5 67l76 92q65 -73 144 -73q111 0 111 139v466h121v-465q0 -131 -55.5 -191t-170.5 -60z" />
    <glyph glyph-name="ij" unicode="&#x133;" horiz-adv-x="531" 
d="M136 560q-31 0 -53 22t-22 53q0 30 22 52t53 22t53.5 -22t22.5 -52q0 -31 -22.5 -53t-53.5 -22zM407 560q-31 0 -53 22t-22 53q0 30 22 52t53 22t53.5 -22t22.5 -52q0 -31 -22.5 -53t-53.5 -22zM80 0v488h112v-488h-112zM327 -205q-53 0 -94 18l19 97q22 -14 51 -14
q49 0 49 72v520h112v-525q0 -168 -137 -168z" />
    <glyph glyph-name="Jcircumflex" unicode="&#x134;" horiz-adv-x="535" 
d="M229 775l111 133h117l108 -133h-109l-57 71h-2l-57 -71h-111zM233 -6q-65 0 -126.5 25t-99.5 67l76 92q65 -73 144 -73q111 0 111 139v466h121v-465q0 -131 -55.5 -191t-170.5 -60z" />
    <glyph glyph-name="jcircumflex" unicode="&#x135;" horiz-adv-x="259" 
d="M-31 554l109 145h117l105 -145h-109l-54 77h-2l-55 -77h-111zM55 -205q-53 0 -94 18l19 97q22 -14 51 -14q49 0 49 72v520h112v-525q0 -168 -137 -168z" />
    <glyph glyph-name="Kcommaaccent" unicode="&#x136;" horiz-adv-x="671" 
d="M384 396q77 -75 149.5 -186t110.5 -210h-133q-33 79 -91 166t-117 148l-95 -112v-202h-121v710h121v-348h2l280 348h155zM288 -53h102q4 -20 4 -47q0 -54 -36.5 -83.5t-92.5 -35.5l-26 65q30 11 42.5 24.5t12.5 37.5q0 14 -6 39z" />
    <glyph glyph-name="kcommaaccent" unicode="&#x137;" horiz-adv-x="559" 
d="M345 282q58 -62 110.5 -139t79.5 -143h-125q-48 110 -143 217l-82 -90v-127h-112v736h112v-483l2 -1l204 236h137zM233 -53h102q4 -20 4 -47q0 -54 -36.5 -83.5t-92.5 -35.5l-26 65q30 11 42.5 24.5t12.5 37.5q0 14 -6 39z" />
    <glyph glyph-name="kgreenlandic" unicode="&#x138;" horiz-adv-x="559" 
d="M535 0h-125q-48 110 -143 217l-82 -90v-127h-112v488h112v-235l2 -1l204 236h137l-183 -206q58 -62 110.5 -139t79.5 -143z" />
    <glyph glyph-name="Lacute" unicode="&#x139;" horiz-adv-x="603" 
d="M193 775l112 133h125l-126 -133h-111zM87 0v710h121v-602h359v-108h-480z" />
    <glyph glyph-name="lacute" unicode="&#x13a;" horiz-adv-x="341" 
d="M72 788l112 133h125l-126 -133h-111zM219 -8q-78 0 -112 41.5t-34 125.5v577h112v-570q0 -76 54 -76q36 0 74 16l15 -94q-45 -20 -109 -20z" />
    <glyph glyph-name="Lcommaaccent" unicode="&#x13b;" horiz-adv-x="603" 
d="M87 0v710h121v-602h359v-108h-480zM260 -219l-26 65q30 11 42.5 24.5t12.5 37.5q0 14 -6 39h102q4 -20 4 -47q0 -54 -36.5 -83.5t-92.5 -35.5z" />
    <glyph glyph-name="lcommaaccent" unicode="&#x13c;" horiz-adv-x="341" 
d="M219 -8q-78 0 -112 41.5t-34 125.5v577h112v-570q0 -76 54 -76q36 0 74 16l15 -94q-45 -20 -109 -20zM129 -219l-26 65q30 11 42.5 24.5t12.5 37.5q0 14 -6 39h102q4 -20 4 -47q0 -54 -36.5 -83.5t-92.5 -35.5z" />
    <glyph glyph-name="Lcaron" unicode="&#x13d;" horiz-adv-x="603" 
d="M320 582l30 198h108l-58 -198h-80zM87 0v710h121v-602h359v-108h-480z" />
    <glyph glyph-name="lcaron" unicode="&#x13e;" horiz-adv-x="346" 
d="M257 583l30 198h108l-58 -198h-80zM219 -8q-78 0 -112 41.5t-34 125.5v577h112v-570q0 -76 54 -76q36 0 74 16l15 -94q-45 -20 -109 -20z" />
    <glyph glyph-name="Ldot" unicode="&#x13f;" horiz-adv-x="603" 
d="M87 0v710h121v-602h359v-108h-480zM443 265q-32 0 -54 21.5t-22 52.5t22.5 53t53.5 22t53 -22t22 -53t-22 -52.5t-53 -21.5z" />
    <glyph glyph-name="ldot" unicode="&#x140;" horiz-adv-x="453" 
d="M219 -8q-78 0 -112 41.5t-34 125.5v577h112v-570q0 -76 54 -76q36 0 74 16l15 -94q-45 -20 -109 -20zM360 221q-32 0 -54 21.5t-22 52.5t22.5 53t53.5 22t53 -22t22 -53t-22 -52.5t-53 -21.5z" />
    <glyph glyph-name="Lslash" unicode="&#x141;" horiz-adv-x="609" 
d="M214 108h359v-108h-480v270l-72 -31v98l72 31v342h121v-289l118 51v-100l-118 -50v-214z" />
    <glyph glyph-name="lslash" unicode="&#x142;" horiz-adv-x="363" 
d="M335 106l15 -94q-45 -20 -109 -20q-78 0 -112 41.5t-34 125.5v90l-67 -29v88l67 29v399h112v-351l77 33v-88l-77 -33v-131q0 -76 54 -76q36 0 74 16z" />
    <glyph glyph-name="Nacute" unicode="&#x143;" horiz-adv-x="773" 
d="M280 775l112 133h125l-126 -133h-111zM87 0v710h116l361 -513h2v513h120v-710h-119l-358 505h-2v-505h-120z" />
    <glyph glyph-name="nacute" unicode="&#x144;" horiz-adv-x="593" 
d="M226 556l115 144l123 1l-124 -145h-114zM73 0v488h112v-67h2q62 74 163 74q84 0 131.5 -51t47.5 -157v-287h-112v258q0 74 -26.5 105t-79.5 31q-58 0 -92 -39t-34 -110v-245h-112z" />
    <glyph glyph-name="Ncommaaccent" unicode="&#x145;" horiz-adv-x="773" 
d="M87 0v710h116l361 -513h2v513h120v-710h-119l-358 505h-2v-505h-120zM303 -219l-26 65q30 11 42.5 24.5t12.5 37.5q0 14 -6 39h102q4 -20 4 -47q0 -54 -36.5 -83.5t-92.5 -35.5z" />
    <glyph glyph-name="ncommaaccent" unicode="&#x146;" horiz-adv-x="593" 
d="M73 0v488h112v-67h2q62 74 163 74q84 0 131.5 -51t47.5 -157v-287h-112v258q0 74 -26.5 105t-79.5 31q-58 0 -92 -39t-34 -110v-245h-112zM235 -219l-26 65q30 11 42.5 24.5t12.5 37.5q0 14 -6 39h102q4 -20 4 -47q0 -54 -36.5 -83.5t-92.5 -35.5z" />
    <glyph glyph-name="Ncaron" unicode="&#x147;" horiz-adv-x="773" 
d="M320 775l-108 133h109l57 -71h2l57 71h111l-111 -133h-117zM87 0v710h116l361 -513h2v513h120v-710h-119l-358 505h-2v-505h-120z" />
    <glyph glyph-name="ncaron" unicode="&#x148;" horiz-adv-x="593" 
d="M235 552l-105 145h109l54 -77h2l55 77h111l-109 -145h-117zM73 0v488h112v-67h2q62 74 163 74q84 0 131.5 -51t47.5 -157v-287h-112v258q0 74 -26.5 105t-79.5 31q-58 0 -92 -39t-34 -110v-245h-112z" />
    <glyph glyph-name="napostrophe" unicode="&#x149;" horiz-adv-x="676" 
d="M-9 502l30 208h108l-58 -208h-80zM156 0v488h112v-67h2q62 74 163 74q84 0 131.5 -51t47.5 -157v-287h-112v258q0 74 -26.5 105t-79.5 31q-58 0 -92 -39t-34 -110v-245h-112z" />
    <glyph glyph-name="Eng" unicode="&#x14a;" horiz-adv-x="773" 
d="M566 710h120v-713q0 -58 -16.5 -99.5t-46 -63t-61.5 -30.5t-71 -9q-46 0 -88 14l9 98q23 -11 58 -11q50 0 72.5 28t22.5 68v11l-356 502h-2v-505h-120v710h116l361 -513h2v513z" />
    <glyph glyph-name="eng" unicode="&#x14b;" horiz-adv-x="589" 
d="M348 -205q-39 0 -75 14l8 89q26 -10 52 -10q44 0 62 22t18 70v278q0 74 -26.5 105t-79.5 31q-55 0 -88.5 -39t-33.5 -110v-245h-112v488h112v-67h2q62 74 159 74q84 0 131.5 -51t47.5 -157v-296q0 -196 -177 -196z" />
    <glyph glyph-name="Omacron" unicode="&#x14c;" horiz-adv-x="827" 
d="M266 797v89h298v-89h-298zM414 -8q-159 0 -259 102.5t-100 260.5t100 260.5t259 102.5q155 0 256.5 -101t101.5 -262t-101.5 -262t-256.5 -101zM414 105q99 0 165.5 71t66.5 179q0 109 -66.5 179.5t-165.5 70.5q-103 0 -168.5 -72t-65.5 -178t65.5 -178t168.5 -72z" />
    <glyph glyph-name="omacron" unicode="&#x14d;" horiz-adv-x="600" 
d="M151 584v94h298v-94h-298zM300 -8q-114 0 -185 71t-71 180t71 180.5t185 71.5q113 0 184.5 -70t71.5 -182q0 -111 -71.5 -181t-184.5 -70zM300 94q60 0 101 42t41 107q0 67 -40.5 109t-101.5 42q-63 0 -102.5 -43t-39.5 -108q0 -63 40 -106t102 -43z" />
    <glyph glyph-name="Obreve" unicode="&#x14e;" horiz-adv-x="827" 
d="M415 768q-70 0 -110.5 38t-45.5 102h88q2 -24 19.5 -39t48.5 -15q30 0 48 15.5t20 38.5h88q-5 -64 -45.5 -102t-110.5 -38zM414 -8q-159 0 -259 102.5t-100 260.5t100 260.5t259 102.5q155 0 256.5 -101t101.5 -262t-101.5 -262t-256.5 -101zM414 105q99 0 165.5 71
t66.5 179q0 109 -66.5 179.5t-165.5 70.5q-103 0 -168.5 -72t-65.5 -178t65.5 -178t168.5 -72z" />
    <glyph glyph-name="obreve" unicode="&#x14f;" horiz-adv-x="600" 
d="M300 548q-71 0 -111 39.5t-45 109.5h88q2 -26 20 -44.5t48 -18.5t48 18.5t20 44.5h88q-5 -70 -45 -109.5t-111 -39.5zM300 -8q-114 0 -185 71t-71 180t71 180.5t185 71.5q113 0 184.5 -70t71.5 -182q0 -111 -71.5 -181t-184.5 -70zM300 94q60 0 101 42t41 107
q0 67 -40.5 109t-101.5 42q-63 0 -102.5 -43t-39.5 -108q0 -63 40 -106t102 -43z" />
    <glyph glyph-name="Ohungarumlaut" unicode="&#x150;" horiz-adv-x="827" 
d="M267 775l115 144l114 1l-124 -145h-105zM458 775l114 144l114 1l-124 -145h-104zM414 -8q-159 0 -259 102.5t-100 260.5t100 260.5t259 102.5q155 0 256.5 -101t101.5 -262t-101.5 -262t-256.5 -101zM414 105q99 0 165.5 71t66.5 179q0 109 -66.5 179.5t-165.5 70.5
q-103 0 -168.5 -72t-65.5 -178t65.5 -178t168.5 -72z" />
    <glyph glyph-name="ohungarumlaut" unicode="&#x151;" horiz-adv-x="600" 
d="M152 556l115 144l114 1l-124 -145h-105zM343 556l114 144l114 1l-124 -145h-104zM300 -8q-114 0 -185 71t-71 180t71 180.5t185 71.5q113 0 184.5 -70t71.5 -182q0 -111 -71.5 -181t-184.5 -70zM300 94q60 0 101 42t41 107q0 67 -40.5 109t-101.5 42q-63 0 -102.5 -43
t-39.5 -108q0 -63 40 -106t102 -43z" />
    <glyph glyph-name="OE" unicode="&#x152;" horiz-adv-x="1002" 
d="M572 108h374v-108h-540q-158 0 -254.5 101t-96.5 255t96 254t255 100h526v-108h-360v-196h329v-108h-329v-190zM406 111l48 1v486h-48q-99 0 -162.5 -68.5t-63.5 -173.5t63.5 -175t162.5 -70z" />
    <glyph glyph-name="oe" unicode="&#x153;" horiz-adv-x="875" 
d="M848 253q0 -33 -3 -45h-339q20 -118 158 -118q63 0 121 36l52 -87q-77 -47 -173 -47q-146 0 -217 89h-2q-25 -43 -78 -66t-108 -23q-104 0 -167.5 67.5t-63.5 183.5t66 184t174 68q52 0 103 -23.5t78 -73.5h1q60 97 189 97q99 0 154 -67t55 -175zM266 90q53 0 88.5 42
t35.5 109q0 71 -34 113.5t-89 42.5q-58 0 -91.5 -41.5t-33.5 -114.5q0 -70 33 -110.5t91 -40.5zM636 394q-49 0 -82 -28t-45 -73h229q-12 101 -102 101z" />
    <glyph glyph-name="Racute" unicode="&#x154;" horiz-adv-x="657" 
d="M464 908l-126 -133h-111l112 133h125zM436 281q122 -120 188 -281h-135q-70 152 -181 253h-100v-253h-121v710h262q122 0 182.5 -59.5t60.5 -162.5q0 -79 -40.5 -132t-115.5 -75zM323 362q70 0 107 32.5t37 87.5q0 57 -35.5 88.5t-100.5 31.5h-123v-240h115z" />
    <glyph glyph-name="racute" unicode="&#x155;" horiz-adv-x="438" 
d="M152 556l115 144l123 1l-124 -145h-114zM73 0v488h112v-71h2q27 36 70.5 57t91.5 21q47 0 84 -16l-21 -108q-44 16 -100 16q-59 0 -93 -37.5t-34 -111.5v-238h-112z" />
    <glyph glyph-name="Rcommaaccent" unicode="&#x156;" horiz-adv-x="657" 
d="M436 281q122 -120 188 -281h-135q-70 152 -181 253h-100v-253h-121v710h262q122 0 182.5 -59.5t60.5 -162.5q0 -79 -40.5 -132t-115.5 -75zM323 362q70 0 107 32.5t37 87.5q0 57 -35.5 88.5t-100.5 31.5h-123v-240h115zM273 -53h102q4 -20 4 -47q0 -54 -36.5 -83.5
t-92.5 -35.5l-26 65q30 11 42.5 24.5t12.5 37.5q0 14 -6 39z" />
    <glyph glyph-name="rcommaaccent" unicode="&#x157;" horiz-adv-x="438" 
d="M73 0v488h112v-71h2q27 36 70.5 57t91.5 21q47 0 84 -16l-21 -108q-44 16 -100 16q-59 0 -93 -37.5t-34 -111.5v-238h-112zM54 -219l-26 65q30 11 42.5 24.5t12.5 37.5q0 14 -6 39h102q4 -20 4 -47q0 -54 -36.5 -83.5t-92.5 -35.5z" />
    <glyph glyph-name="Rcaron" unicode="&#x158;" horiz-adv-x="657" 
d="M384 775h-117l-108 133h109l57 -71h2l57 71h111zM436 281q122 -120 188 -281h-135q-70 152 -181 253h-100v-253h-121v710h262q122 0 182.5 -59.5t60.5 -162.5q0 -79 -40.5 -132t-115.5 -75zM323 362q70 0 107 32.5t37 87.5q0 57 -35.5 88.5t-100.5 31.5h-123v-240h115z
" />
    <glyph glyph-name="rcaron" unicode="&#x159;" horiz-adv-x="438" 
d="M191 552l-105 145h109l54 -77h2l55 77h111l-109 -145h-117zM73 0v488h112v-71h2q27 36 70.5 57t91.5 21q47 0 84 -16l-21 -108q-44 16 -100 16q-59 0 -93 -37.5t-34 -111.5v-238h-112z" />
    <glyph glyph-name="Sacute" unicode="&#x15a;" horiz-adv-x="591" 
d="M222 775l112 133h125l-126 -133h-111zM300 -8q-151 0 -251 70l57 110q90 -70 197 -70q61 0 94.5 24.5t33.5 63.5q0 31 -19 51.5t-39.5 29.5t-79.5 29q-13 5 -20 7q-41 14 -62.5 22t-55 26.5t-51 37.5t-31 51t-13.5 71q0 96 65 149.5t170 53.5q153 0 249 -79l-67 -99
q-37 31 -87.5 50.5t-96.5 19.5q-49 0 -78.5 -22t-29.5 -62q0 -37 29 -56t107 -47q44 -15 66 -23.5t55 -24t49 -29.5t34 -35t25 -47t7 -59q0 -213 -257 -213z" />
    <glyph glyph-name="sacute" unicode="&#x15b;" horiz-adv-x="461" 
d="M154 556l115 144l123 1l-124 -145h-114zM222 -8q-108 0 -184 45l49 95q76 -42 150 -42q80 0 80 44q0 23 -22.5 36t-73.5 23q-87 17 -131 53.5t-44 102.5q0 64 43.5 105t136.5 41q109 0 182 -44l-53 -90q-53 36 -122 36q-76 0 -76 -47q0 -20 22 -33.5t94 -28.5
q84 -18 120 -51t36 -96q0 -149 -207 -149z" />
    <glyph glyph-name="Scircumflex" unicode="&#x15c;" horiz-adv-x="591" 
d="M123 775l111 133h117l108 -133h-109l-57 71h-2l-57 -71h-111zM300 -8q-151 0 -251 70l57 110q90 -70 197 -70q61 0 94.5 24.5t33.5 63.5q0 31 -19 51.5t-39.5 29.5t-79.5 29q-13 5 -20 7q-41 14 -62.5 22t-55 26.5t-51 37.5t-31 51t-13.5 71q0 96 65 149.5t170 53.5
q153 0 249 -79l-67 -99q-37 31 -87.5 50.5t-96.5 19.5q-49 0 -78.5 -22t-29.5 -62q0 -37 29 -56t107 -47q44 -15 66 -23.5t55 -24t49 -29.5t34 -35t25 -47t7 -59q0 -213 -257 -213z" />
    <glyph glyph-name="scircumflex" unicode="&#x15d;" horiz-adv-x="461" 
d="M70 554l109 145h117l105 -145h-109l-54 77h-2l-55 -77h-111zM222 -8q-108 0 -184 45l49 95q76 -42 150 -42q80 0 80 44q0 23 -22.5 36t-73.5 23q-87 17 -131 53.5t-44 102.5q0 64 43.5 105t136.5 41q109 0 182 -44l-53 -90q-53 36 -122 36q-76 0 -76 -47q0 -20 22 -33.5
t94 -28.5q84 -18 120 -51t36 -96q0 -149 -207 -149z" />
    <glyph glyph-name="Scedilla" unicode="&#x15e;" horiz-adv-x="591" 
d="M311 -8l-10 -22v-2q92 -3 92 -80q0 -35 -29.5 -56.5t-89.5 -21.5q-29 0 -59 6v55q21 -7 50 -7q20 0 35.5 7.5t15.5 22.5q0 14 -22.5 24t-61.5 10v36l14 31q-118 12 -197 67l57 110q90 -70 197 -70q61 0 94.5 24.5t33.5 63.5q0 31 -19 51.5t-39.5 29.5t-79.5 29
q-13 5 -20 7q-41 14 -62.5 22t-55 26.5t-51 37.5t-31 51t-13.5 71q0 96 65 149.5t170 53.5q153 0 249 -79l-67 -99q-37 31 -87.5 50.5t-96.5 19.5q-49 0 -78.5 -22t-29.5 -62q0 -37 29 -56t107 -47q44 -15 66 -23.5t55 -24t49 -29.5t34 -35t25 -47t7 -59q0 -208 -246 -213z
" />
    <glyph glyph-name="scedilla" unicode="&#x15f;" horiz-adv-x="461" 
d="M235 -8l-10 -22v-2q92 -3 92 -80q0 -35 -29.5 -56.5t-89.5 -21.5q-29 0 -59 6v55q21 -7 50 -7q20 0 35.5 7.5t15.5 22.5q0 14 -22.5 24t-61.5 10v36l14 31q-72 7 -132 42l49 95q76 -42 150 -42q80 0 80 44q0 23 -22.5 36t-73.5 23q-87 17 -131 53.5t-44 102.5
q0 64 43.5 105t136.5 41q109 0 182 -44l-53 -90q-53 36 -122 36q-76 0 -76 -47q0 -20 22 -33.5t94 -28.5q84 -18 120 -51t36 -96q0 -143 -194 -149z" />
    <glyph glyph-name="Scaron" unicode="&#x160;" horiz-adv-x="591" 
d="M231 775l-108 133h109l57 -71h2l57 71h111l-111 -133h-117zM300 -8q-151 0 -251 70l57 110q90 -70 197 -70q61 0 94.5 24.5t33.5 63.5q0 31 -19 51.5t-39.5 29.5t-79.5 29q-13 5 -20 7q-41 14 -62.5 22t-55 26.5t-51 37.5t-31 51t-13.5 71q0 96 65 149.5t170 53.5
q153 0 249 -79l-67 -99q-37 31 -87.5 50.5t-96.5 19.5q-49 0 -78.5 -22t-29.5 -62q0 -37 29 -56t107 -47q44 -15 66 -23.5t55 -24t49 -29.5t34 -35t25 -47t7 -59q0 -213 -257 -213z" />
    <glyph glyph-name="scaron" unicode="&#x161;" horiz-adv-x="461" 
d="M175 552l-105 145h109l54 -77h2l55 77h111l-109 -145h-117zM222 -8q-108 0 -184 45l49 95q76 -42 150 -42q80 0 80 44q0 23 -22.5 36t-73.5 23q-87 17 -131 53.5t-44 102.5q0 64 43.5 105t136.5 41q109 0 182 -44l-53 -90q-53 36 -122 36q-76 0 -76 -47q0 -20 22 -33.5
t94 -28.5q84 -18 120 -51t36 -96q0 -149 -207 -149z" />
    <glyph glyph-name="uni0162" unicode="&#x162;" horiz-adv-x="589" 
d="M299 0l-14 -30v-2q92 -3 92 -80q0 -35 -29.5 -56.5t-89.5 -21.5q-29 0 -59 6v55q21 -7 50 -7q20 0 35.5 7.5t15.5 22.5q0 14 -22.5 24t-61.5 10v36l17 38v600h-201v108h526v-108h-204v-602h-55z" />
    <glyph glyph-name="uni0163" unicode="&#x163;" horiz-adv-x="422" 
d="M245 -32q92 -3 92 -80q0 -35 -29.5 -56.5t-89.5 -21.5q-29 0 -59 6v55q21 -7 50 -7q20 0 35.5 7.5t15.5 22.5q0 14 -22.5 24t-61.5 10v36l16 36q-91 27 -91 154v239h-91v95h91v172l112 12v-184h163v-95h-163v-228q0 -76 60 -76q37 0 84 27l40 -90q-56 -34 -138 -34h-4
l-10 -22v-2z" />
    <glyph glyph-name="Tcaron" unicode="&#x164;" horiz-adv-x="589" 
d="M232 775l-108 133h109l57 -71h2l57 71h111l-111 -133h-117zM233 0v602h-201v108h526v-108h-204v-602h-121z" />
    <glyph glyph-name="tcaron" unicode="&#x165;" horiz-adv-x="422" 
d="M255 583l30 198h108l-58 -198h-80zM259 -8q-83 0 -120.5 39t-37.5 123v239h-91v95h91v172l112 12v-184h163v-95h-163v-228q0 -76 60 -76q37 0 84 27l40 -90q-56 -34 -138 -34z" />
    <glyph glyph-name="Tbar" unicode="&#x166;" horiz-adv-x="589" 
d="M558 602h-204v-219h122v-94h-122v-289h-121v289h-116v94h116v219h-201v108h526v-108z" />
    <glyph glyph-name="tbar" unicode="&#x167;" horiz-adv-x="422" 
d="M357 116l40 -90q-56 -34 -138 -34q-83 0 -120.5 39t-37.5 123v73h-73v76h73v90h-91v95h91v172l112 12v-184h163v-95h-163v-90h97v-76h-97v-62q0 -76 60 -76q37 0 84 27z" />
    <glyph glyph-name="Utilde" unicode="&#x168;" horiz-adv-x="719" 
d="M437 775q-34 0 -84 29q-42 24 -63 24q-33 0 -54 -52l-68 31q36 103 114 103q38 0 89 -29q42 -24 59 -24q30 0 51 52l68 -23q-33 -111 -112 -111zM359 -8q-130 0 -206 72.5t-76 217.5v428h120v-419q0 -88 43 -136.5t119 -48.5q74 0 119 46.5t45 138.5v419h120v-428
q0 -143 -75 -216.5t-209 -73.5z" />
    <glyph glyph-name="utilde" unicode="&#x169;" horiz-adv-x="578" 
d="M366 553q-37 0 -88 32q-35 22 -56 22q-37 0 -58 -52l-68 31q34 110 114 110q40 0 84 -28q40 -25 58 -25q36 0 57 52l68 -23q-15 -56 -44 -87.5t-67 -31.5zM246 -8q-183 0 -183 199v297h112v-267q0 -71 22.5 -99t74.5 -28t88.5 42.5t36.5 117.5v234h112v-488h-112v61l-2 1
q-58 -70 -149 -70z" />
    <glyph glyph-name="Umacron" unicode="&#x16a;" horiz-adv-x="719" 
d="M210 797v89h298v-89h-298zM359 -8q-130 0 -206 72.5t-76 217.5v428h120v-419q0 -88 43 -136.5t119 -48.5q74 0 119 46.5t45 138.5v419h120v-428q0 -143 -75 -216.5t-209 -73.5z" />
    <glyph glyph-name="umacron" unicode="&#x16b;" horiz-adv-x="578" 
d="M138 584v94h298v-94h-298zM246 -8q-183 0 -183 199v297h112v-267q0 -71 22.5 -99t74.5 -28t88.5 42.5t36.5 117.5v234h112v-488h-112v61l-2 1q-58 -70 -149 -70z" />
    <glyph glyph-name="Ubreve" unicode="&#x16c;" horiz-adv-x="719" 
d="M359 768q-70 0 -110.5 38t-45.5 102h88q2 -24 19.5 -39t48.5 -15q30 0 48 15.5t20 38.5h88q-5 -64 -45.5 -102t-110.5 -38zM359 -8q-130 0 -206 72.5t-76 217.5v428h120v-419q0 -88 43 -136.5t119 -48.5q74 0 119 46.5t45 138.5v419h120v-428q0 -143 -75 -216.5
t-209 -73.5z" />
    <glyph glyph-name="ubreve" unicode="&#x16d;" horiz-adv-x="578" 
d="M287 548q-71 0 -111 39.5t-45 109.5h88q2 -26 20 -44.5t48 -18.5t48 18.5t20 44.5h88q-5 -70 -45 -109.5t-111 -39.5zM246 -8q-183 0 -183 199v297h112v-267q0 -71 22.5 -99t74.5 -28t88.5 42.5t36.5 117.5v234h112v-488h-112v61l-2 1q-58 -70 -149 -70z" />
    <glyph glyph-name="Uring" unicode="&#x16e;" horiz-adv-x="719" 
d="M358 748q-44 0 -76 30.5t-32 74.5q0 43 31 74t77 31q45 0 77 -30t32 -75q0 -44 -31 -74.5t-78 -30.5zM358 816q16 0 27.5 11t11.5 27t-11.5 27t-27.5 11t-27 -11.5t-11 -26.5q0 -16 11 -27t27 -11zM359 -8q-130 0 -206 72.5t-76 217.5v428h120v-419q0 -88 43 -136.5
t119 -48.5q74 0 119 46.5t45 138.5v419h120v-428q0 -143 -75 -216.5t-209 -73.5z" />
    <glyph glyph-name="uring" unicode="&#x16f;" horiz-adv-x="578" 
d="M286 540q-44 0 -76 30.5t-32 74.5q0 43 31 74t77 31q45 0 77 -30t32 -75q0 -44 -31 -74.5t-78 -30.5zM286 608q16 0 27.5 11t11.5 27t-11.5 27t-27.5 11t-27 -11.5t-11 -26.5q0 -16 11 -27t27 -11zM246 -8q-183 0 -183 199v297h112v-267q0 -71 22.5 -99t74.5 -28
t88.5 42.5t36.5 117.5v234h112v-488h-112v61l-2 1q-58 -70 -149 -70z" />
    <glyph glyph-name="Uhungarumlaut" unicode="&#x170;" horiz-adv-x="719" 
d="M211 775l115 144l114 1l-124 -145h-105zM402 775l114 144l114 1l-124 -145h-104zM359 -8q-130 0 -206 72.5t-76 217.5v428h120v-419q0 -88 43 -136.5t119 -48.5q74 0 119 46.5t45 138.5v419h120v-428q0 -143 -75 -216.5t-209 -73.5z" />
    <glyph glyph-name="uhungarumlaut" unicode="&#x171;" horiz-adv-x="578" 
d="M139 556l115 144l114 1l-124 -145h-105zM330 556l114 144l114 1l-124 -145h-104zM246 -8q-183 0 -183 199v297h112v-267q0 -71 22.5 -99t74.5 -28t88.5 42.5t36.5 117.5v234h112v-488h-112v61l-2 1q-58 -70 -149 -70z" />
    <glyph glyph-name="Uogonek" unicode="&#x172;" horiz-adv-x="719" 
d="M523 710h120v-428q0 -120 -53.5 -191t-151.5 -91q-68 -26 -68 -70q0 -41 43 -41q26 0 41 7l6 -67q-27 -13 -71 -13q-50 0 -79 24.5t-29 64.5q0 45 47 86l-1 2q-116 9 -183 81t-67 208v428h120v-419q0 -88 43 -136.5t119 -48.5q74 0 119 46.5t45 138.5v419z" />
    <glyph glyph-name="uogonek" unicode="&#x173;" horiz-adv-x="578" 
d="M497 0q-36 -8 -57.5 -29.5t-21.5 -45.5q0 -41 43 -41q23 0 41 8l7 -68q-29 -12 -72 -12q-49 0 -78.5 24t-29.5 64q0 25 18 53t50 49v59l-2 1q-58 -70 -149 -70q-183 0 -183 199v297h112v-267q0 -71 22.5 -99t74.5 -28t88.5 42.5t36.5 117.5v234h112v-488h-12z" />
    <glyph glyph-name="Wcircumflex" unicode="&#x174;" horiz-adv-x="1035" 
d="M350 775l111 133h117l108 -133h-109l-57 71h-2l-57 -71h-111zM259 0l-227 710h132l148 -516h2l140 516h128l137 -516h2l151 516h131l-231 -710h-104l-149 543h-2l-155 -543h-103z" />
    <glyph glyph-name="wcircumflex" unicode="&#x175;" horiz-adv-x="771" 
d="M219 554l109 145h117l105 -145h-109l-54 77h-2l-55 -77h-111zM186 0l-163 488h117l101 -333h2l96 333h93l98 -333h2l101 333h115l-163 -488h-101l-99 314h-1l-99 -314h-99z" />
    <glyph glyph-name="Ycircumflex" unicode="&#x176;" horiz-adv-x="625" 
d="M145 775l111 133h117l108 -133h-109l-57 71h-2l-57 -71h-111zM251 0v314l-237 396h138l159 -280h2l158 280h140l-239 -396v-314h-121z" />
    <glyph glyph-name="ycircumflex" unicode="&#x177;" horiz-adv-x="535" 
d="M102 554l109 145h117l105 -145h-109l-54 77h-2l-55 -77h-111zM130 -205q-68 0 -119 33l43 92q36 -25 72 -25q27 0 43 20.5t35 67.5l14 36l-199 469h120l133 -338h2l126 338h115l-204 -521q-33 -84 -72.5 -128t-108.5 -44z" />
    <glyph glyph-name="Ydieresis" unicode="&#x178;" horiz-adv-x="625" 
d="M215 775q-31 0 -52.5 22t-21.5 52q0 29 21.5 50.5t52.5 21.5t53 -22t22 -51q0 -30 -22 -51.5t-53 -21.5zM414 775q-31 0 -52.5 22t-21.5 52q0 29 21.5 50.5t52.5 21.5t53 -22t22 -51q0 -30 -22 -51.5t-53 -21.5zM251 0v314l-237 396h138l159 -280h2l158 280h140
l-239 -396v-314h-121z" />
    <glyph glyph-name="Zacute" unicode="&#x179;" horiz-adv-x="626" 
d="M212 775l112 133h125l-126 -133h-111zM57 0v95l349 505l-1 2h-332v108h492v-93l-355 -506l2 -3h355v-108h-510z" />
    <glyph glyph-name="zacute" unicode="&#x17a;" horiz-adv-x="493" 
d="M167 556l115 144l123 1l-124 -145h-114zM41 0v79l251 311l-1 3h-233v95h388v-77l-253 -314l1 -2h262v-95h-415z" />
    <glyph glyph-name="Zdotaccent" unicode="&#x17b;" horiz-adv-x="626" 
d="M314 773q-31 0 -53 22t-22 53q0 30 22 52t53 22t53.5 -22t22.5 -52q0 -31 -22.5 -53t-53.5 -22zM57 0v95l349 505l-1 2h-332v108h492v-93l-355 -506l2 -3h355v-108h-510z" />
    <glyph glyph-name="zdotaccent" unicode="&#x17c;" horiz-adv-x="493" 
d="M248 560q-31 0 -53 22t-22 53q0 30 22 52t53 22t53.5 -22t22.5 -52q0 -31 -22.5 -53t-53.5 -22zM41 0v79l251 311l-1 3h-233v95h388v-77l-253 -314l1 -2h262v-95h-415z" />
    <glyph glyph-name="Zcaron" unicode="&#x17d;" horiz-adv-x="626" 
d="M252 775l-108 133h109l57 -71h2l57 71h111l-111 -133h-117zM57 0v95l349 505l-1 2h-332v108h492v-93l-355 -506l2 -3h355v-108h-510z" />
    <glyph glyph-name="zcaron" unicode="&#x17e;" horiz-adv-x="493" 
d="M187 552l-105 145h109l54 -77h2l55 77h111l-109 -145h-117zM41 0v79l251 311l-1 3h-233v95h388v-77l-253 -314l1 -2h262v-95h-415z" />
    <glyph glyph-name="longs" unicode="&#x17f;" horiz-adv-x="343" 
d="M97 0v393h-87v95h87v89q0 82 38 124.5t110 42.5q75 0 123 -34l-31 -91q-42 22 -76 22q-52 0 -52 -76v-565h-112z" />
    <glyph glyph-name="uni018F" unicode="&#x18f;" horiz-adv-x="780" 
d="M371 718q172 0 263.5 -101t91.5 -259q0 -170 -98 -268t-250 -98q-155 0 -244.5 90t-89.5 244q0 23 4 61h553q-8 103 -69.5 160t-172.5 57q-112 2 -206 -62l-67 94q110 82 285 82zM375 105q82 0 141 44.5t78 130.5h-427q4 -81 60 -128t148 -47z" />
    <glyph glyph-name="florin" unicode="&#x192;" horiz-adv-x="549" 
d="M110 -143q-98 0 -140 42l40 79q40 -20 79 -20q71 0 83 91l42 325h-76l14 95h76l14 109q22 166 175 166q91 0 140 -42l-41 -79q-41 19 -80 19q-71 0 -82 -91l-10 -82h138l-13 -95h-139l-46 -351q-21 -166 -174 -166z" />
    <glyph glyph-name="uni019D" unicode="&#x19d;" horiz-adv-x="773" 
d="M566 710h120v-710h-119l-358 505h-1v-516q0 -194 -147 -194q-44 0 -86 14l9 98q32 -10 48 -10q55 0 55 67v746h121v-7l356 -506h2v513z" />
    <glyph glyph-name="Ohorn" unicode="&#x1a0;" horiz-adv-x="870" 
d="M732 774h114v-71q0 -142 -110 -180q36 -77 36 -168q0 -161 -101.5 -262t-256.5 -101q-159 0 -259 102.5t-100 260.5t100 260.5t259 102.5q176 0 279 -125q14 7 22.5 17.5t12 29.5t4 31t0.5 39v64zM414 105q99 0 165.5 71t66.5 179q0 109 -66.5 179.5t-165.5 70.5
q-103 0 -168.5 -72t-65.5 -178t65.5 -178t168.5 -72z" />
    <glyph glyph-name="ohorn" unicode="&#x1a1;" horiz-adv-x="681" 
d="M555 565h114v-71q0 -72 -31 -120t-90 -64q8 -34 8 -67q0 -111 -71.5 -181t-184.5 -70q-114 0 -185 71t-71 180t71 180.5t185 71.5q71 0 127.5 -29.5t89.5 -81.5q18 9 27 29.5t10 36.5t1 51v64zM300 94q60 0 101 42t41 107q0 67 -40.5 109t-101.5 42q-63 0 -102.5 -43
t-39.5 -108q0 -63 40 -106t102 -43z" />
    <glyph glyph-name="Uhorn" unicode="&#x1af;" horiz-adv-x="819" 
d="M703 774h114v-71q0 -86 -45 -137.5t-129 -53.5v-230q0 -143 -75 -216.5t-209 -73.5q-130 0 -206 72.5t-76 217.5v428h120v-419q0 -88 43 -136.5t119 -48.5q74 0 119 46.5t45 138.5v419h120v-124q22 5 35 15t18 30.5t6 33.5t1 45v64z" />
    <glyph glyph-name="uhorn" unicode="&#x1b0;" horiz-adv-x="687" 
d="M562 565h114v-71q0 -85 -43 -136t-124 -55v-303h-112v61l-2 1q-58 -70 -149 -70q-183 0 -183 199v297h112v-267q0 -71 22.5 -99t74.5 -28t88.5 42.5t36.5 117.5v234h112v-110q13 4 23 10t15.5 17t8.5 18t4.5 24.5t1.5 24.5v29v64z" />
    <glyph glyph-name="Gcaron" unicode="&#x1e6;" horiz-adv-x="760" 
d="M345 775l-108 133h109l57 -71h2l57 71h111l-111 -133h-117zM413 -6q-162 0 -260 96.5t-98 262.5q0 158 97 261.5t269 103.5q163 0 267 -111l-80 -89q-77 86 -196 86q-102 0 -166.5 -69.5t-64.5 -181.5t59 -180.5t175 -68.5q100 0 166 44v123h-174v108h294v-296
q-49 -40 -127.5 -64.5t-160.5 -24.5z" />
    <glyph glyph-name="gcaron" unicode="&#x1e7;" horiz-adv-x="607" 
d="M232 552l-105 145h109l54 -77h2l55 77h111l-109 -145h-117zM291 -205q-136 0 -219 50l44 93q84 -42 169 -42q69 0 107 34.5t38 85.5v51h-2q-59 -59 -148 -59q-103 0 -170.5 67t-67.5 174t65.5 176.5t166.5 69.5q90 0 152 -59h2v52h112v-438q0 -118 -60 -186.5t-189 -68.5
zM295 111q61 0 99.5 40.5t38.5 102.5q0 61 -39.5 100t-98.5 39q-62 0 -100.5 -39.5t-38.5 -101.5q0 -64 39.5 -102.5t99.5 -38.5z" />
    <glyph glyph-name="uni01EA" unicode="&#x1ea;" horiz-adv-x="827" 
d="M474 -4q-30 -10 -48 -29.5t-18 -41.5q0 -41 43 -41q23 0 41 8l7 -68q-29 -12 -72 -12q-49 0 -78.5 24t-29.5 64q0 49 54 92v2q-143 14 -230.5 114t-87.5 247q0 158 100 260.5t259 102.5q155 0 256.5 -101t101.5 -262q0 -144 -83 -241.5t-215 -117.5zM180 355
q0 -106 65.5 -178t168.5 -72q99 0 165.5 71t66.5 179q0 109 -66.5 179.5t-165.5 70.5q-103 0 -168.5 -72t-65.5 -178z" />
    <glyph glyph-name="uni01EB" unicode="&#x1eb;" horiz-adv-x="600" 
d="M338 -6q-28 -10 -44 -29t-16 -40q0 -41 43 -41q23 0 41 8l7 -68q-29 -12 -72 -12q-49 0 -78.5 24t-29.5 64q0 52 57 95v2q-92 16 -147 84t-55 162q0 109 71 180.5t185 71.5q113 0 184.5 -70t71.5 -182q0 -101 -60 -169t-158 -80zM158 243q0 -63 40 -106t102 -43
q60 0 101 42t41 107q0 67 -40.5 109t-101.5 42q-63 0 -102.5 -43t-39.5 -108z" />
    <glyph glyph-name="Aringacute" unicode="&#x1fa;" horiz-adv-x="695" 
d="M346 748q-44 0 -76 30.5t-32 74.5q0 43 31 74t77 31q47 0 79 -32l59 44l126 1l-155 -120q-1 -43 -32 -73t-77 -30zM346 892q-16 0 -27 -11.5t-11 -26.5q0 -16 11 -27t27 -11t27.5 11t11.5 27t-11.5 27t-27.5 11zM406 710l266 -710h-126l-54 153h-290l-53 -153h-126
l265 710h118zM239 257h217l-108 308h-2z" />
    <glyph glyph-name="aringacute" unicode="&#x1fb;" horiz-adv-x="558" 
d="M282 540q-44 0 -76 30.5t-32 74.5q0 43 31 74t77 31q47 0 79 -32l55 41h127l-152 -117q-1 -43 -31.5 -72.5t-77.5 -29.5zM282 684q-16 0 -27 -11.5t-11 -26.5q0 -16 11 -27t27 -11t27.5 11t11.5 27t-11.5 27t-27.5 11zM505 86q10 0 26 2l6 -88q-25 -6 -51 -6
q-79 0 -109 58h-2q-24 -28 -67 -44t-91 -16q-76 0 -122 37.5t-46 109.5q0 159 195 159h117v2q0 97 -109 97q-68 0 -143 -32l-32 92q86 38 192 38q103 0 150.5 -50.5t47.5 -154.5v-153q0 -51 38 -51zM239 87q46 0 83 22.5t37 55.5v51h-102q-46 0 -70.5 -18t-24.5 -48
q0 -63 77 -63z" />
    <glyph glyph-name="AEacute" unicode="&#x1fc;" horiz-adv-x="970" 
d="M411 775l112 133h125l-126 -133h-111zM11 0l354 710h545v-108h-355v-196h324v-108h-324v-190h369v-108h-490v153h-225l-75 -153h-123zM263 257h171v353h-2z" />
    <glyph glyph-name="aeacute" unicode="&#x1fd;" horiz-adv-x="826" 
d="M571 701l-124 -145h-114l115 144zM797 253q0 -33 -3 -45h-349q18 -118 158 -118q72 0 131 36l52 -87q-77 -47 -183 -47q-139 0 -203 78h-2q-52 -78 -193 -78q-80 0 -128.5 39.5t-48.5 108.5q0 158 195 158h116v2q0 48 -25 72.5t-83 24.5q-67 0 -142 -32l-32 92
q82 38 181 38q125 0 171 -75h2q59 75 167 75q106 0 162.5 -67t56.5 -175zM576 394q-49 0 -82.5 -27t-45.5 -74h240q-6 51 -32 76t-80 25zM218 87q49 0 84.5 21.5t35.5 56.5v51h-102q-46 0 -70.5 -18t-24.5 -48q0 -63 77 -63z" />
    <glyph glyph-name="Oslashacute" unicode="&#x1fe;" horiz-adv-x="827" 
d="M587 908l-126 -133h-111l112 133h125zM785 677l-85 -93q72 -96 72 -229q0 -161 -101.5 -262t-256.5 -101q-116 0 -205 58l-78 -85l-69 64l77 83q-84 98 -84 243q0 158 100 260.5t259 102.5q126 0 220 -69l83 90zM180 355q0 -86 44 -150l328 355q-61 45 -138 45
q-103 0 -168.5 -72t-65.5 -178zM646 355q0 75 -34 134l-321 -350q54 -34 123 -34q99 0 165.5 71t66.5 179z" />
    <glyph glyph-name="oslashacute" unicode="&#x1ff;" horiz-adv-x="600" 
d="M478 701l-124 -145h-114l115 144zM569 459l-59 -63q46 -67 46 -153q0 -111 -71.5 -181t-184.5 -70q-76 0 -135 34l-51 -55l-60 56l47 51q-57 68 -57 165q0 109 71 180.5t185 71.5q88 0 151 -43l59 63zM158 243q0 -44 22 -82l197 211q-35 22 -77 22q-63 0 -102.5 -43
t-39.5 -108zM442 243q0 35 -13 66l-189 -202q26 -13 60 -13q60 0 101 42t41 107z" />
    <glyph glyph-name="Scommaaccent" unicode="&#x218;" horiz-adv-x="591" 
d="M300 -8q-151 0 -251 70l57 110q90 -70 197 -70q61 0 94.5 24.5t33.5 63.5q0 31 -19 51.5t-39.5 29.5t-79.5 29q-13 5 -20 7q-41 14 -62.5 22t-55 26.5t-51 37.5t-31 51t-13.5 71q0 96 65 149.5t170 53.5q153 0 249 -79l-67 -99q-37 31 -87.5 50.5t-96.5 19.5
q-49 0 -78.5 -22t-29.5 -62q0 -37 29 -56t107 -47q44 -15 66 -23.5t55 -24t49 -29.5t34 -35t25 -47t7 -59q0 -213 -257 -213zM230 -219l-26 65q30 11 42.5 24.5t12.5 37.5q0 14 -6 39h102q4 -20 4 -47q0 -54 -36.5 -83.5t-92.5 -35.5z" />
    <glyph glyph-name="scommaaccent" unicode="&#x219;" horiz-adv-x="461" 
d="M222 -8q-108 0 -184 45l49 95q76 -42 150 -42q80 0 80 44q0 23 -22.5 36t-73.5 23q-87 17 -131 53.5t-44 102.5q0 64 43.5 105t136.5 41q109 0 182 -44l-53 -90q-53 36 -122 36q-76 0 -76 -47q0 -20 22 -33.5t94 -28.5q84 -18 120 -51t36 -96q0 -149 -207 -149zM154 -219
l-26 65q30 11 42.5 24.5t12.5 37.5q0 14 -6 39h102q4 -20 4 -47q0 -54 -36.5 -83.5t-92.5 -35.5z" />
    <glyph glyph-name="uni021A" unicode="&#x21a;" horiz-adv-x="589" 
d="M233 0v602h-201v108h526v-108h-204v-602h-121zM214 -219l-26 65q30 11 42.5 24.5t12.5 37.5q0 14 -6 39h102q4 -20 4 -47q0 -54 -36.5 -83.5t-92.5 -35.5z" />
    <glyph glyph-name="uni021B" unicode="&#x21b;" horiz-adv-x="422" 
d="M259 -8q-83 0 -120.5 39t-37.5 123v239h-91v95h91v172l112 12v-184h163v-95h-163v-228q0 -76 60 -76q37 0 84 27l40 -90q-56 -34 -138 -34zM174 -219l-26 65q30 11 42.5 24.5t12.5 37.5q0 14 -6 39h102q4 -20 4 -47q0 -54 -36.5 -83.5t-92.5 -35.5z" />
    <glyph glyph-name="uni0232" unicode="&#x232;" horiz-adv-x="625" 
d="M165 797v89h298v-89h-298zM251 0v314l-237 396h138l159 -280h2l158 280h140l-239 -396v-314h-121z" />
    <glyph glyph-name="uni0233" unicode="&#x233;" horiz-adv-x="535" 
d="M119 584v94h298v-94h-298zM130 -205q-68 0 -119 33l43 92q36 -25 72 -25q27 0 43 20.5t35 67.5l14 36l-199 469h120l133 -338h2l126 338h115l-204 -521q-33 -84 -72.5 -128t-108.5 -44z" />
    <glyph glyph-name="uni0237" unicode="&#x237;" horiz-adv-x="259" 
d="M55 -205q-53 0 -94 18l19 97q22 -14 51 -14q49 0 49 72v520h112v-525q0 -168 -137 -168z" />
    <glyph glyph-name="uni0259" unicode="&#x259;" horiz-adv-x="560" 
d="M256 495q117 0 188.5 -67.5t71.5 -189.5q0 -113 -65 -179.5t-172 -66.5q-110 0 -174.5 60.5t-64.5 159.5q0 45 5 70h357q-13 55 -53.5 85t-101.5 30q-74 0 -143 -30l-32 94q83 34 184 34zM279 94q47 0 80.5 24.5t43.5 73.5h-250q3 -46 37 -72t89 -26z" />
    <glyph glyph-name="uni0272" unicode="&#x272;" horiz-adv-x="593" 
d="M350 495q84 0 131.5 -51t47.5 -157v-287h-112v258q0 74 -26.5 105t-79.5 31q-58 0 -92 -39t-34 -110v-264q0 -92 -38 -139t-110 -47q-39 0 -75 14l8 89q26 -10 46 -10q57 0 57 82v518h112v-67h2q62 74 163 74z" />
    <glyph glyph-name="circumflex" unicode="&#x2c6;" horiz-adv-x="477" 
d="M73 536l109 145h117l105 -145h-109l-54 77h-2l-55 -77h-111z" />
    <glyph glyph-name="caron" unicode="&#x2c7;" horiz-adv-x="477" 
d="M178 534l-105 145h109l54 -77h2l55 77h111l-109 -145h-117z" />
    <glyph glyph-name="breve" unicode="&#x2d8;" horiz-adv-x="460" 
d="M230 530q-71 0 -111 39.5t-45 109.5h88q2 -26 20 -44.5t48 -18.5t48 18.5t20 44.5h88q-5 -70 -45 -109.5t-111 -39.5z" />
    <glyph glyph-name="dotaccent" unicode="&#x2d9;" horiz-adv-x="500" 
d="M250 542q-31 0 -53 22t-22 53q0 30 22 52t53 22t53.5 -22t22.5 -52q0 -31 -22.5 -53t-53.5 -22z" />
    <glyph glyph-name="ring" unicode="&#x2da;" horiz-adv-x="471" 
d="M235 512q-44 0 -76 30.5t-32 74.5q0 43 30.5 74t77.5 31q45 0 77 -30t32 -75q0 -44 -31 -74.5t-78 -30.5zM235 580q16 0 27.5 11t11.5 27t-11.5 27t-27.5 11t-27 -11.5t-11 -26.5q0 -16 11 -27t27 -11z" />
    <glyph glyph-name="ogonek" unicode="&#x2db;" horiz-adv-x="469" 
d="M272 -188q-49 0 -78.5 24t-29.5 64q0 29 23.5 61t64.5 53l85 -13q-38 -7 -61 -29t-23 -47q0 -41 43 -41q23 0 41 8l7 -68q-28 -12 -72 -12z" />
    <glyph glyph-name="tilde" unicode="&#x2dc;" horiz-adv-x="495" 
d="M327 535q-37 0 -88 32q-35 22 -56 22q-37 0 -58 -52l-68 31q34 110 114 110q40 0 84 -28q40 -25 58 -25q36 0 57 52l68 -23q-15 -56 -44 -87.5t-67 -31.5z" />
    <glyph glyph-name="hungarumlaut" unicode="&#x2dd;" horiz-adv-x="518" 
d="M52 538l115 144l114 1l-124 -145h-105zM243 538l114 144l114 1l-124 -145h-104z" />
    <glyph glyph-name="gravecomb" unicode="&#x300;" 
d="M-500 536l-124 144l125 -1l110 -143h-111z" />
    <glyph glyph-name="acutecomb" unicode="&#x301;" 
d="M-600 538l115 144l123 1l-124 -145h-114z" />
    <glyph glyph-name="uni0302" unicode="&#x302;" 
d="M-666 536l109 145h117l105 -145h-109l-54 77h-2l-55 -77h-111z" />
    <glyph glyph-name="tildecomb" unicode="&#x303;" 
d="M-421 535q-37 0 -88 32q-35 22 -56 22q-37 0 -58 -52l-68 31q34 110 114 110q40 0 84 -28q40 -25 58 -25q36 0 57 52l68 -23q-15 -56 -44 -87.5t-67 -31.5z" />
    <glyph glyph-name="uni0304" unicode="&#x304;" 
d="M-649 566v94h298v-94h-298z" />
    <glyph glyph-name="uni0306" unicode="&#x306;" 
d="M-500 530q-71 0 -111 39.5t-45 109.5h88q2 -26 20 -44.5t48 -18.5t48 18.5t20 44.5h88q-5 -70 -45 -109.5t-111 -39.5z" />
    <glyph glyph-name="uni0307" unicode="&#x307;" 
d="M-500 542q-31 0 -53 22t-22 53q0 30 22 52t53 22t53.5 -22t22.5 -52q0 -31 -22.5 -53t-53.5 -22z" />
    <glyph glyph-name="uni0308" unicode="&#x308;" 
d="M-600 544q-31 0 -52.5 22t-21.5 52q0 29 21.5 50.5t52.5 21.5t53 -22t22 -51q0 -30 -22 -51.5t-53 -21.5zM-401 544q-31 0 -52.5 22t-21.5 52q0 29 21.5 50.5t52.5 21.5t53 -22t22 -51q0 -30 -22 -51.5t-53 -21.5z" />
    <glyph glyph-name="hookabovecomb" unicode="&#x309;" 
d="M-540 536q72 51 70 86q0 21 -29 21q-38 0 -88 -34l-26 58q51 53 141 53q43 0 68.5 -20.5t25.5 -61.5q0 -34 -25.5 -62t-54.5 -40h-82z" />
    <glyph glyph-name="uni030A" unicode="&#x30a;" 
d="M-501 522q-44 0 -76 30.5t-32 74.5q0 43 30.5 74t77.5 31q45 0 77 -30t32 -75q0 -44 -31 -74.5t-78 -30.5zM-501 590q16 0 27.5 11t11.5 27t-11.5 27t-27.5 11t-27 -11.5t-11 -26.5q0 -16 11 -27t27 -11z" />
    <glyph glyph-name="uni030B" unicode="&#x30b;" 
d="M-648 538l115 144l114 1l-124 -145h-105zM-457 538l114 144l114 1l-124 -145h-104z" />
    <glyph glyph-name="uni030C" unicode="&#x30c;" 
d="M-561 534l-105 145h109l54 -77h2l55 77h111l-109 -145h-117z" />
    <glyph glyph-name="uni0312" unicode="&#x312;" 
d="M-547 541q-4 20 -4 47q0 54 36.5 83.5t92.5 35.5l26 -65q-30 -11 -42.5 -25t-12.5 -37q0 -13 6 -39h-102z" />
    <glyph glyph-name="uni0313" unicode="&#x313;" 
d="M-441 697q4 -20 4 -47q0 -54 -36.5 -83.5t-92.5 -35.5l-26 65q30 11 42.5 25t12.5 37q0 14 -6 39h102z" />
    <glyph glyph-name="uni031B" unicode="&#x31b;" 
d="M-521 448l-2 71q24 2 40 10t24 17t11.5 29t4 31.5t0.5 39.5v64h114v-71q0 -91 -49.5 -143t-142.5 -48z" />
    <glyph glyph-name="dotbelowcomb" unicode="&#x323;" 
d="M-500 -78q31 0 53 -22t22 -53q0 -30 -22 -52t-53 -22t-53.5 22t-22.5 52q0 31 22.5 53t53.5 22z" />
    <glyph glyph-name="uni0326" unicode="&#x326;" 
d="M-578 -219l-26 65q30 11 42.5 24.5t12.5 37.5q0 14 -6 39h102q4 -20 4 -47q0 -54 -36.5 -83.5t-92.5 -35.5z" />
    <glyph glyph-name="uni0327" unicode="&#x327;" 
d="M-534 -190q-29 0 -59 6v55q21 -7 50 -7q20 0 35.5 7.5t15.5 22.5q0 14 -22.5 24t-61.5 10v36l19 42h67l-17 -36v-2q92 -3 92 -80q0 -35 -29.5 -56.5t-89.5 -21.5z" />
    <glyph glyph-name="uni0328" unicode="&#x328;" 
d="M-572 -188q-49 0 -78.5 24t-29.5 64q0 29 23.5 61t64.5 53l85 -13q-38 -7 -61 -29t-23 -47q0 -41 43 -41q23 0 41 8l7 -68q-28 -12 -72 -12z" />
    <glyph glyph-name="uni0335" unicode="&#x335;" 
d="M-639 226v77h282v-77h-282z" />
    <glyph glyph-name="Wgrave" unicode="&#x1e80;" horiz-adv-x="1035" 
d="M468 775l-126 133h125l112 -133h-111zM259 0l-227 710h132l148 -516h2l140 516h128l137 -516h2l151 516h131l-231 -710h-104l-149 543h-2l-155 -543h-103z" />
    <glyph glyph-name="wgrave" unicode="&#x1e81;" horiz-adv-x="771" 
d="M329 554l-124 144l125 -1l110 -143h-111zM186 0l-163 488h117l101 -333h2l96 333h93l98 -333h2l101 333h115l-163 -488h-101l-99 314h-1l-99 -314h-99z" />
    <glyph glyph-name="Wacute" unicode="&#x1e82;" horiz-adv-x="1035" 
d="M468 775l112 133h125l-126 -133h-111zM259 0l-227 710h132l148 -516h2l140 516h128l137 -516h2l151 516h131l-231 -710h-104l-149 543h-2l-155 -543h-103z" />
    <glyph glyph-name="wacute" unicode="&#x1e83;" horiz-adv-x="771" 
d="M330 556l115 144l123 1l-124 -145h-114zM186 0l-163 488h117l101 -333h2l96 333h93l98 -333h2l101 333h115l-163 -488h-101l-99 314h-1l-99 -314h-99z" />
    <glyph glyph-name="Wdieresis" unicode="&#x1e84;" horiz-adv-x="1035" 
d="M420 775q-31 0 -52.5 22t-21.5 52q0 29 21.5 50.5t52.5 21.5t53 -22t22 -51q0 -30 -22 -51.5t-53 -21.5zM619 775q-31 0 -52.5 22t-21.5 52q0 29 21.5 50.5t52.5 21.5t53 -22t22 -51q0 -30 -22 -51.5t-53 -21.5zM259 0l-227 710h132l148 -516h2l140 516h128l137 -516h2
l151 516h131l-231 -710h-104l-149 543h-2l-155 -543h-103z" />
    <glyph glyph-name="wdieresis" unicode="&#x1e85;" horiz-adv-x="771" 
d="M285 562q-31 0 -52.5 22t-21.5 52q0 29 21.5 50.5t52.5 21.5t53 -22t22 -51q0 -30 -22 -51.5t-53 -21.5zM484 562q-31 0 -52.5 22t-21.5 52q0 29 21.5 50.5t52.5 21.5t53 -22t22 -51q0 -30 -22 -51.5t-53 -21.5zM186 0l-163 488h117l101 -333h2l96 333h93l98 -333h2
l101 333h115l-163 -488h-101l-99 314h-1l-99 -314h-99z" />
    <glyph glyph-name="uni1E9E" unicode="&#x1e9e;" horiz-adv-x="762" 
d="M523 421q102 -43 132 -63q84 -56 84 -161q0 -101 -63.5 -153t-169.5 -52q-132 0 -234 62l56 109q78 -59 172 -59q56 0 84.5 25t28.5 64t-32 63t-105 48q-44 15 -112 47l123 242l-1 4q-96 12 -139 12q-80 0 -117.5 -31t-38.5 -105v-473h-121l1 479q0 239 262 239
q119 0 321 -47z" />
    <glyph glyph-name="uni1EA0" unicode="&#x1ea0;" horiz-adv-x="695" 
d="M23 0l265 710h118l266 -710h-126l-54 153h-290l-53 -153h-126zM239 257h217l-108 308h-2zM349 -78q31 0 53 -22t22 -53q0 -30 -22 -52t-53 -22t-53.5 22t-22.5 52q0 31 22.5 53t53.5 22z" />
    <glyph glyph-name="uni1EA1" unicode="&#x1ea1;" horiz-adv-x="558" 
d="M531 88l6 -88q-25 -6 -51 -6q-79 0 -109 58h-2q-24 -28 -67 -44t-91 -16q-76 0 -122 37.5t-46 109.5q0 159 195 159h117v2q0 97 -109 97q-68 0 -143 -32l-32 92q86 38 192 38q103 0 150.5 -50.5t47.5 -154.5v-153q0 -51 38 -51q10 0 26 2zM239 87q46 0 83 22.5t37 55.5
v51h-102q-46 0 -70.5 -18t-24.5 -48q0 -63 77 -63zM274 -78q31 0 53 -22t22 -53q0 -30 -22 -52t-53 -22t-53.5 22t-22.5 52q0 31 22.5 53t53.5 22z" />
    <glyph glyph-name="uni1EA2" unicode="&#x1ea2;" horiz-adv-x="695" 
d="M307 775q25 18 36 26.5t22.5 22t11.5 24.5q0 20 -29 20q-33 0 -89 -32l-26 58q54 47 142 47q42 0 68 -20t26 -58q0 -55 -80 -88h-82zM23 0l265 710h118l266 -710h-126l-54 153h-290l-53 -153h-126zM239 257h217l-108 308h-2z" />
    <glyph glyph-name="uni1EA3" unicode="&#x1ea3;" horiz-adv-x="558" 
d="M284 661q-38 0 -88 -34l-26 58q51 53 141 53q43 0 68.5 -20.5t25.5 -61.5q0 -34 -25.5 -62t-54.5 -40h-82q72 51 70 86q0 21 -29 21zM531 88l6 -88q-25 -6 -51 -6q-79 0 -109 58h-2q-24 -28 -67 -44t-91 -16q-76 0 -122 37.5t-46 109.5q0 159 195 159h117v2q0 97 -109 97
q-68 0 -143 -32l-32 92q86 38 192 38q103 0 150.5 -50.5t47.5 -154.5v-153q0 -51 38 -51q10 0 26 2zM239 87q46 0 83 22.5t37 55.5v51h-102q-46 0 -70.5 -18t-24.5 -48q0 -63 77 -63z" />
    <glyph glyph-name="uni1EA4" unicode="&#x1ea4;" horiz-adv-x="695" 
d="M500 831l82 135h123l-122 -135h-83zM178 775l111 133h117l108 -133h-109l-57 71h-2l-57 -71h-111zM23 0l265 710h118l266 -710h-126l-54 153h-290l-53 -153h-126zM239 257h217l-108 308h-2z" />
    <glyph glyph-name="uni1EA5" unicode="&#x1ea5;" horiz-adv-x="558" 
d="M625 790l-123 -145h-83l83 145h123zM284 631l-55 -77h-111l109 145h117l105 -145h-109l-54 77h-2zM505 86q10 0 26 2l6 -88q-25 -6 -51 -6q-79 0 -109 58h-2q-24 -28 -67 -44t-91 -16q-76 0 -122 37.5t-46 109.5q0 159 195 159h117v2q0 97 -109 97q-68 0 -143 -32l-32 92
q86 38 192 38q103 0 150.5 -50.5t47.5 -154.5v-153q0 -51 38 -51zM239 87q46 0 83 22.5t37 55.5v51h-102q-46 0 -70.5 -18t-24.5 -48q0 -63 77 -63z" />
    <glyph glyph-name="uni1EA6" unicode="&#x1ea6;" horiz-adv-x="695" 
d="M551 830l-122 135h123l82 -135h-83zM178 775l111 133h117l108 -133h-109l-57 71h-2l-57 -71h-111zM23 0l265 710h118l266 -710h-126l-54 153h-290l-53 -153h-126zM239 257h217l-108 308h-2z" />
    <glyph glyph-name="uni1EA7" unicode="&#x1ea7;" horiz-adv-x="558" 
d="M530 645h-83l-123 145h123zM284 631l-55 -77h-111l109 145h117l105 -145h-109l-54 77h-2zM531 88l6 -88q-25 -6 -51 -6q-79 0 -109 58h-2q-24 -28 -67 -44t-91 -16q-76 0 -122 37.5t-46 109.5q0 159 195 159h117v2q0 97 -109 97q-68 0 -143 -32l-32 92q86 38 192 38
q103 0 150.5 -50.5t47.5 -154.5v-153q0 -51 38 -51q10 0 26 2zM239 87q46 0 83 22.5t37 55.5v51h-102q-46 0 -70.5 -18t-24.5 -48q0 -63 77 -63z" />
    <glyph glyph-name="uni1EA8" unicode="&#x1ea8;" horiz-adv-x="695" 
d="M509 840q50 38 59 52q4 8 4 14q0 18 -26 18q-32 0 -80 -29l-24 52q48 43 128 43q38 0 61.5 -18t23.5 -52q0 -50 -72 -80h-74zM178 775l111 133h117l108 -133h-109l-57 71h-2l-57 -71h-111zM23 0l265 710h118l266 -710h-126l-54 153h-290l-53 -153h-126zM239 257h217
l-108 308h-2z" />
    <glyph glyph-name="uni1EA9" unicode="&#x1ea9;" horiz-adv-x="558" 
d="M497 830q40 0 64.5 -19.5t24.5 -58.5q0 -32 -24 -58.5t-52 -38.5h-78q68 49 66 82q0 20 -27 20q-36 0 -84 -32l-24 55q50 50 134 50zM283 631l-55 -77h-111l109 145h117l105 -145h-109l-54 77h-2zM505 86q10 0 26 2l6 -88q-25 -6 -51 -6q-79 0 -109 58h-2
q-24 -28 -67 -44t-91 -16q-76 0 -122 37.5t-46 109.5q0 159 195 159h117v2q0 97 -109 97q-68 0 -143 -32l-32 92q86 38 192 38q103 0 150.5 -50.5t47.5 -154.5v-153q0 -51 38 -51zM239 87q46 0 83 22.5t37 55.5v51h-102q-46 0 -70.5 -18t-24.5 -48q0 -63 77 -63z" />
    <glyph glyph-name="uni1EAA" unicode="&#x1eaa;" horiz-adv-x="695" 
d="M420 930q-31 0 -79 27q-38 22 -59 22q-30 0 -51 -48l-64 29q34 96 108 96q36 0 83 -27q42 -23 56 -23q28 0 48 49l64 -22q-32 -103 -106 -103zM178 775l111 133h117l108 -133h-109l-57 71h-2l-57 -71h-111zM23 0l265 710h118l266 -710h-126l-54 153h-290l-53 -153h-126z
M239 257h217l-108 308h-2z" />
    <glyph glyph-name="uni1EAB" unicode="&#x1eab;" horiz-adv-x="558" 
d="M220 792q-30 -4 -48 -52l-68 31q34 104 107 104q36 0 77 -24q42 -25 57 -25q36 0 57 52l68 -23q-34 -113 -111 -113q-34 0 -80 28q-41 24 -59 22zM227 699h117l105 -145h-109l-54 77h-2l-55 -77h-111zM531 88l6 -88q-25 -6 -51 -6q-79 0 -109 58h-2q-24 -28 -67 -44
t-91 -16q-76 0 -122 37.5t-46 109.5q0 159 195 159h117v2q0 97 -109 97q-68 0 -143 -32l-32 92q86 38 192 38q103 0 150.5 -50.5t47.5 -154.5v-153q0 -51 38 -51q10 0 26 2zM239 87q46 0 83 22.5t37 55.5v51h-102q-46 0 -70.5 -18t-24.5 -48q0 -63 77 -63z" />
    <glyph glyph-name="uni1EAC" unicode="&#x1eac;" horiz-adv-x="695" 
d="M178 775l111 133h117l108 -133h-109l-57 71h-2l-57 -71h-111zM23 0l265 710h118l266 -710h-126l-54 153h-290l-53 -153h-126zM239 257h217l-108 308h-2zM349 -78q31 0 53 -22t22 -53q0 -30 -22 -52t-53 -22t-53.5 22t-22.5 52q0 31 22.5 53t53.5 22z" />
    <glyph glyph-name="uni1EAD" unicode="&#x1ead;" horiz-adv-x="558" 
d="M283 631l-55 -77h-111l109 145h117l105 -145h-109l-54 77h-2zM531 88l6 -88q-25 -6 -51 -6q-79 0 -109 58h-2q-24 -28 -67 -44t-91 -16q-76 0 -122 37.5t-46 109.5q0 159 195 159h117v2q0 97 -109 97q-68 0 -143 -32l-32 92q86 38 192 38q103 0 150.5 -50.5t47.5 -154.5
v-153q0 -51 38 -51q10 0 26 2zM239 87q46 0 83 22.5t37 55.5v51h-102q-46 0 -70.5 -18t-24.5 -48q0 -63 77 -63zM274 -78q31 0 53 -22t22 -53q0 -30 -22 -52t-53 -22t-53.5 22t-22.5 52q0 31 22.5 53t53.5 22z" />
    <glyph glyph-name="uni1EAE" unicode="&#x1eae;" horiz-adv-x="695" 
d="M307 896l82 135h123l-122 -135h-83zM347 765q-74 0 -117 35t-48 94h93q2 -22 20.5 -35.5t51.5 -13.5q32 0 51 14t21 35h93q-5 -59 -48 -94t-117 -35zM23 0l265 710h118l266 -710h-126l-54 153h-290l-53 -153h-126zM239 257h217l-108 308h-2z" />
    <glyph glyph-name="uni1EAF" unicode="&#x1eaf;" horiz-adv-x="558" 
d="M442 855l-123 -145h-83l83 145h123zM283 548q-71 0 -111 39.5t-45 109.5h88q2 -26 20 -44.5t48 -18.5t48 18.5t20 44.5h88q-5 -70 -45 -109.5t-111 -39.5zM531 88l6 -88q-25 -6 -51 -6q-79 0 -109 58h-2q-24 -28 -67 -44t-91 -16q-76 0 -122 37.5t-46 109.5
q0 159 195 159h117v2q0 97 -109 97q-68 0 -143 -32l-32 92q86 38 192 38q103 0 150.5 -50.5t47.5 -154.5v-153q0 -51 38 -51q10 0 26 2zM239 87q46 0 83 22.5t37 55.5v51h-102q-46 0 -70.5 -18t-24.5 -48q0 -63 77 -63z" />
    <glyph glyph-name="uni1EB0" unicode="&#x1eb0;" horiz-adv-x="695" 
d="M314 896l-122 135h123l82 -135h-83zM347 765q-74 0 -117 35t-48 94h93q2 -22 20.5 -35.5t51.5 -13.5q32 0 51 14t21 35h93q-5 -59 -48 -94t-117 -35zM23 0l265 710h118l266 -710h-126l-54 153h-290l-53 -153h-126zM239 257h217l-108 308h-2z" />
    <glyph glyph-name="uni1EB1" unicode="&#x1eb1;" horiz-adv-x="558" 
d="M330 710h-83l-123 145h123zM215 697q2 -26 20 -44.5t48 -18.5t48 18.5t20 44.5h88q-5 -70 -45 -109.5t-111 -39.5t-111 39.5t-45 109.5h88zM531 88l6 -88q-25 -6 -51 -6q-79 0 -109 58h-2q-24 -28 -67 -44t-91 -16q-76 0 -122 37.5t-46 109.5q0 159 195 159h117v2
q0 97 -109 97q-68 0 -143 -32l-32 92q86 38 192 38q103 0 150.5 -50.5t47.5 -154.5v-153q0 -51 38 -51q10 0 26 2zM239 87q46 0 83 22.5t37 55.5v51h-102q-46 0 -70.5 -18t-24.5 -48q0 -63 77 -63z" />
    <glyph glyph-name="uni1EB2" unicode="&#x1eb2;" horiz-adv-x="695" 
d="M299 889q50 38 59 52q4 7 4 14q0 18 -26 18q-32 0 -80 -29l-24 52q48 43 128 43q38 0 61.5 -18t23.5 -52q0 -50 -72 -80h-74zM347 765q-74 0 -117 35t-48 94h93q2 -22 20.5 -35.5t51.5 -13.5q32 0 51 14t21 35h93q-5 -59 -48 -94t-117 -35zM23 0l265 710h118l266 -710
h-126l-54 153h-290l-53 -153h-126zM239 257h217l-108 308h-2z" />
    <glyph glyph-name="uni1EB3" unicode="&#x1eb3;" horiz-adv-x="558" 
d="M277 799q-36 0 -84 -32l-24 55q50 50 134 50q40 0 64.5 -19.5t24.5 -58.5q0 -32 -24 -58.5t-52 -38.5h-78q68 49 66 82q0 20 -27 20zM283 550q-74 0 -115.5 37t-46.5 103h91q2 -25 20.5 -42t50.5 -17t50.5 17t20.5 42h91q-5 -66 -46.5 -103t-115.5 -37zM531 88l6 -88
q-25 -6 -51 -6q-79 0 -109 58h-2q-24 -28 -67 -44t-91 -16q-76 0 -122 37.5t-46 109.5q0 159 195 159h117v2q0 97 -109 97q-68 0 -143 -32l-32 92q86 38 192 38q103 0 150.5 -50.5t47.5 -154.5v-153q0 -51 38 -51q10 0 26 2zM239 87q46 0 83 22.5t37 55.5v51h-102
q-46 0 -70.5 -18t-24.5 -48q0 -63 77 -63z" />
    <glyph glyph-name="uni1EB4" unicode="&#x1eb4;" horiz-adv-x="695" 
d="M419 914q-31 0 -79 27q-39 22 -59 22q-30 0 -51 -48l-64 29q34 96 108 96q36 0 83 -27q42 -23 56 -23q28 0 48 49l64 -22q-32 -103 -106 -103zM347 765q-74 0 -117 35t-48 94h93q2 -22 20.5 -35.5t51.5 -13.5q32 0 51 14t21 35h93q-5 -59 -48 -94t-117 -35zM23 0l265 710
h118l266 -710h-126l-54 153h-290l-53 -153h-126zM239 257h217l-108 308h-2z" />
    <glyph glyph-name="uni1EB5" unicode="&#x1eb5;" horiz-adv-x="558" 
d="M218 789q-30 -4 -48 -52l-68 31q34 104 107 104q36 0 77 -24q42 -25 57 -25q36 0 57 52l68 -23q-34 -113 -111 -113q-34 0 -80 28q-41 24 -59 22zM282 634q30 0 48 18.5t20 44.5h88q-5 -70 -45 -109.5t-111 -39.5t-111 39.5t-45 109.5h88q2 -26 20 -44.5t48 -18.5z
M531 88l6 -88q-25 -6 -51 -6q-79 0 -109 58h-2q-24 -28 -67 -44t-91 -16q-76 0 -122 37.5t-46 109.5q0 159 195 159h117v2q0 97 -109 97q-68 0 -143 -32l-32 92q86 38 192 38q103 0 150.5 -50.5t47.5 -154.5v-153q0 -51 38 -51q10 0 26 2zM239 87q46 0 83 22.5t37 55.5v51
h-102q-46 0 -70.5 -18t-24.5 -48q0 -63 77 -63z" />
    <glyph glyph-name="uni1EB6" unicode="&#x1eb6;" horiz-adv-x="695" 
d="M347 768q-70 0 -110.5 38t-45.5 102h88q2 -24 19.5 -39t48.5 -15q30 0 48 15.5t20 38.5h88q-5 -64 -45.5 -102t-110.5 -38zM23 0l265 710h118l266 -710h-126l-54 153h-290l-53 -153h-126zM239 257h217l-108 308h-2zM349 -78q31 0 53 -22t22 -53q0 -30 -22 -52t-53 -22
t-53.5 22t-22.5 52q0 31 22.5 53t53.5 22z" />
    <glyph glyph-name="uni1EB7" unicode="&#x1eb7;" horiz-adv-x="558" 
d="M283 548q-71 0 -111 39.5t-45 109.5h88q2 -26 20 -44.5t48 -18.5t48 18.5t20 44.5h88q-5 -70 -45 -109.5t-111 -39.5zM531 88l6 -88q-25 -6 -51 -6q-79 0 -109 58h-2q-24 -28 -67 -44t-91 -16q-76 0 -122 37.5t-46 109.5q0 159 195 159h117v2q0 97 -109 97
q-68 0 -143 -32l-32 92q86 38 192 38q103 0 150.5 -50.5t47.5 -154.5v-153q0 -51 38 -51q10 0 26 2zM239 87q46 0 83 22.5t37 55.5v51h-102q-46 0 -70.5 -18t-24.5 -48q0 -63 77 -63zM274 -78q31 0 53 -22t22 -53q0 -30 -22 -52t-53 -22t-53.5 22t-22.5 52q0 31 22.5 53
t53.5 22z" />
    <glyph glyph-name="uni1EB8" unicode="&#x1eb8;" horiz-adv-x="643" 
d="M87 0v710h486v-108h-365v-196h334v-108h-334v-190h379v-108h-500zM346 -78q31 0 53 -22t22 -53q0 -30 -22 -52t-53 -22t-53.5 22t-22.5 52q0 31 22.5 53t53.5 22z" />
    <glyph glyph-name="uni1EB9" unicode="&#x1eb9;" horiz-adv-x="557" 
d="M518 253q0 -31 -3 -46h-356q20 -117 157 -117q80 0 139 36l52 -87q-77 -47 -199 -47q-127 0 -195.5 67.5t-68.5 184.5q0 112 68.5 181.5t178.5 69.5q111 0 169 -66.5t58 -175.5zM287 394q-46 0 -79 -27t-45 -72h244q-19 99 -120 99zM296 -78q31 0 53 -22t22 -53
q0 -30 -22 -52t-53 -22t-53.5 22t-22.5 52q0 31 22.5 53t53.5 22z" />
    <glyph glyph-name="uni1EBA" unicode="&#x1eba;" horiz-adv-x="643" 
d="M298 775q25 18 36 26.5t22.5 22t11.5 24.5q0 20 -29 20q-33 0 -89 -32l-26 58q54 47 142 47q42 0 68 -20t26 -58q0 -55 -80 -88h-82zM87 0v710h486v-108h-365v-196h334v-108h-334v-190h379v-108h-500z" />
    <glyph glyph-name="uni1EBB" unicode="&#x1ebb;" horiz-adv-x="557" 
d="M251 554q72 51 70 86q0 21 -29 21q-38 0 -88 -34l-26 58q51 53 141 53q43 0 68.5 -20.5t25.5 -61.5q0 -34 -25.5 -62t-54.5 -40h-82zM518 253q0 -31 -3 -46h-356q20 -117 157 -117q80 0 139 36l52 -87q-77 -47 -199 -47q-127 0 -195.5 67.5t-68.5 184.5q0 112 68.5 181.5
t178.5 69.5q111 0 169 -66.5t58 -175.5zM287 394q-46 0 -79 -27t-45 -72h244q-19 99 -120 99z" />
    <glyph glyph-name="uni1EBC" unicode="&#x1ebc;" horiz-adv-x="643" 
d="M416 775q-34 0 -84 29q-42 24 -63 24q-33 0 -54 -52l-68 31q36 103 114 103q38 0 89 -29q42 -24 59 -24q30 0 51 52l68 -23q-33 -111 -112 -111zM87 0v710h486v-108h-365v-196h334v-108h-334v-190h379v-108h-500z" />
    <glyph glyph-name="uni1EBD" unicode="&#x1ebd;" horiz-adv-x="557" 
d="M370 553q-37 0 -88 32q-35 22 -56 22q-37 0 -58 -52l-68 31q34 110 114 110q40 0 84 -28q40 -25 58 -25q36 0 57 52l68 -23q-15 -56 -44 -87.5t-67 -31.5zM518 253q0 -31 -3 -46h-356q20 -117 157 -117q80 0 139 36l52 -87q-77 -47 -199 -47q-127 0 -195.5 67.5
t-68.5 184.5q0 112 68.5 181.5t178.5 69.5q111 0 169 -66.5t58 -175.5zM287 394q-46 0 -79 -27t-45 -72h244q-19 99 -120 99z" />
    <glyph glyph-name="uni1EBE" unicode="&#x1ebe;" horiz-adv-x="643" 
d="M491 831l82 135h123l-122 -135h-83zM169 775l111 133h117l108 -133h-109l-57 71h-2l-57 -71h-111zM87 0v710h486v-108h-365v-196h334v-108h-334v-190h379v-108h-500z" />
    <glyph glyph-name="uni1EBF" unicode="&#x1ebf;" horiz-adv-x="557" 
d="M633 790l-123 -145h-83l83 145h123zM292 631l-55 -77h-111l109 145h117l105 -145h-109l-54 77h-2zM291 495q111 0 169 -66.5t58 -175.5q0 -31 -3 -46h-356q20 -117 157 -117q80 0 139 36l52 -87q-77 -47 -199 -47q-127 0 -195.5 67.5t-68.5 184.5q0 112 68.5 181.5
t178.5 69.5zM287 394q-46 0 -79 -27t-45 -72h244q-19 99 -120 99z" />
    <glyph glyph-name="uni1EC0" unicode="&#x1ec0;" horiz-adv-x="643" 
d="M542 830l-122 135h123l82 -135h-83zM169 775l111 133h117l108 -133h-109l-57 71h-2l-57 -71h-111zM87 0v710h486v-108h-365v-196h334v-108h-334v-190h379v-108h-500z" />
    <glyph glyph-name="uni1EC1" unicode="&#x1ec1;" horiz-adv-x="557" 
d="M455 645l-123 145h123l83 -145h-83zM126 554l109 145h117l105 -145h-109l-54 77h-2l-55 -77h-111zM518 253q0 -31 -3 -46h-356q20 -117 157 -117q80 0 139 36l52 -87q-77 -47 -199 -47q-127 0 -195.5 67.5t-68.5 184.5q0 112 68.5 181.5t178.5 69.5q111 0 169 -66.5
t58 -175.5zM287 394q-46 0 -79 -27t-45 -72h244q-19 99 -120 99z" />
    <glyph glyph-name="uni1EC2" unicode="&#x1ec2;" horiz-adv-x="643" 
d="M500 840q50 38 59 52q4 8 4 14q0 18 -26 18q-32 0 -80 -29l-24 52q48 43 128 43q38 0 61.5 -18t23.5 -52q0 -50 -72 -80h-74zM169 775l111 133h117l108 -133h-109l-57 71h-2l-57 -71h-111zM87 0v710h486v-108h-365v-196h334v-108h-334v-190h379v-108h-500z" />
    <glyph glyph-name="uni1EC3" unicode="&#x1ec3;" horiz-adv-x="557" 
d="M440 655q68 49 66 82q0 20 -27 20q-36 0 -84 -32l-24 55q50 50 134 50q40 0 64.5 -19.5t24.5 -58.5q0 -32 -24 -58.5t-52 -38.5h-78zM125 554l109 145h117l105 -145h-109l-54 77h-2l-55 -77h-111zM518 253q0 -31 -3 -46h-356q20 -117 157 -117q80 0 139 36l52 -87
q-77 -47 -199 -47q-127 0 -195.5 67.5t-68.5 184.5q0 112 68.5 181.5t178.5 69.5q111 0 169 -66.5t58 -175.5zM287 394q-46 0 -79 -27t-45 -72h244q-19 99 -120 99z" />
    <glyph glyph-name="uni1EC4" unicode="&#x1ec4;" horiz-adv-x="643" 
d="M411 930q-31 0 -79 27q-38 22 -59 22q-30 0 -51 -48l-64 29q34 96 108 96q36 0 83 -27q42 -23 56 -23q28 0 48 49l64 -22q-32 -103 -106 -103zM169 775l111 133h117l108 -133h-109l-57 71h-2l-57 -71h-111zM87 0v710h486v-108h-365v-196h334v-108h-334v-190h379v-108
h-500z" />
    <glyph glyph-name="uni1EC5" unicode="&#x1ec5;" horiz-adv-x="557" 
d="M180 740l-68 31q34 104 107 104q36 0 77 -24q42 -25 57 -25q36 0 57 52l68 -23q-34 -113 -111 -113q-34 0 -80 28q-41 24 -59 22q-30 -4 -48 -52zM126 554l109 145h117l105 -145h-109l-54 77h-2l-55 -77h-111zM518 253q0 -31 -3 -46h-356q20 -117 157 -117q80 0 139 36
l52 -87q-77 -47 -199 -47q-127 0 -195.5 67.5t-68.5 184.5q0 112 68.5 181.5t178.5 69.5q111 0 169 -66.5t58 -175.5zM287 394q-46 0 -79 -27t-45 -72h244q-19 99 -120 99z" />
    <glyph glyph-name="uni1EC6" unicode="&#x1ec6;" horiz-adv-x="643" 
d="M169 775l111 133h117l108 -133h-109l-57 71h-2l-57 -71h-111zM87 0v710h486v-108h-365v-196h334v-108h-334v-190h379v-108h-500zM346 -78q31 0 53 -22t22 -53q0 -30 -22 -52t-53 -22t-53.5 22t-22.5 52q0 31 22.5 53t53.5 22z" />
    <glyph glyph-name="uni1EC7" unicode="&#x1ec7;" horiz-adv-x="557" 
d="M125 554l109 145h117l105 -145h-109l-54 77h-2l-55 -77h-111zM518 253q0 -31 -3 -46h-356q20 -117 157 -117q80 0 139 36l52 -87q-77 -47 -199 -47q-127 0 -195.5 67.5t-68.5 184.5q0 112 68.5 181.5t178.5 69.5q111 0 169 -66.5t58 -175.5zM287 394q-46 0 -79 -27
t-45 -72h244q-19 99 -120 99zM296 -78q31 0 53 -22t22 -53q0 -30 -22 -52t-53 -22t-53.5 22t-22.5 52q0 31 22.5 53t53.5 22z" />
    <glyph glyph-name="uni1EC8" unicode="&#x1ec8;" horiz-adv-x="304" 
d="M110 775q25 18 36 26.5t22.5 22t11.5 24.5q0 20 -29 20q-33 0 -89 -32l-26 58q54 47 142 47q42 0 68 -20t26 -58q0 -55 -80 -88h-82zM91 0v710h121v-710h-121z" />
    <glyph glyph-name="uni1EC9" unicode="&#x1ec9;" horiz-adv-x="272" 
d="M96 554q72 51 70 86q0 21 -29 21q-38 0 -88 -34l-26 58q51 53 141 53q43 0 68.5 -20.5t25.5 -61.5q0 -34 -25.5 -62t-54.5 -40h-82zM80 0v488h112v-488h-112z" />
    <glyph glyph-name="uni1ECA" unicode="&#x1eca;" horiz-adv-x="304" 
d="M91 0v710h121v-710h-121zM154 -78q31 0 53 -22t22 -53q0 -30 -22 -52t-53 -22t-53.5 22t-22.5 52q0 31 22.5 53t53.5 22z" />
    <glyph glyph-name="uni1ECB" unicode="&#x1ecb;" horiz-adv-x="272" 
d="M136 560q-31 0 -53 22t-22 53q0 30 22 52t53 22t53.5 -22t22.5 -52q0 -31 -22.5 -53t-53.5 -22zM80 0v488h112v-488h-112zM136 -78q31 0 53 -22t22 -53q0 -30 -22 -52t-53 -22t-53.5 22t-22.5 52q0 31 22.5 53t53.5 22z" />
    <glyph glyph-name="uni1ECC" unicode="&#x1ecc;" horiz-adv-x="827" 
d="M414 -8q-159 0 -259 102.5t-100 260.5t100 260.5t259 102.5q155 0 256.5 -101t101.5 -262t-101.5 -262t-256.5 -101zM414 105q99 0 165.5 71t66.5 179q0 109 -66.5 179.5t-165.5 70.5q-103 0 -168.5 -72t-65.5 -178t65.5 -178t168.5 -72zM414 -78q31 0 53 -22t22 -53
q0 -30 -22 -52t-53 -22t-53.5 22t-22.5 52q0 31 22.5 53t53.5 22z" />
    <glyph glyph-name="uni1ECD" unicode="&#x1ecd;" horiz-adv-x="600" 
d="M300 -8q-114 0 -185 71t-71 180t71 180.5t185 71.5q113 0 184.5 -70t71.5 -182q0 -111 -71.5 -181t-184.5 -70zM300 94q60 0 101 42t41 107q0 67 -40.5 109t-101.5 42q-63 0 -102.5 -43t-39.5 -108q0 -63 40 -106t102 -43zM300 -78q31 0 53 -22t22 -53q0 -30 -22 -52
t-53 -22t-53.5 22t-22.5 52q0 31 22.5 53t53.5 22z" />
    <glyph glyph-name="uni1ECE" unicode="&#x1ece;" horiz-adv-x="827" 
d="M375 775q25 18 36 26.5t22.5 22t11.5 24.5q0 20 -29 20q-33 0 -89 -32l-26 58q54 47 142 47q42 0 68 -20t26 -58q0 -55 -80 -88h-82zM414 -8q-159 0 -259 102.5t-100 260.5t100 260.5t259 102.5q155 0 256.5 -101t101.5 -262t-101.5 -262t-256.5 -101zM414 105
q99 0 165.5 71t66.5 179q0 109 -66.5 179.5t-165.5 70.5q-103 0 -168.5 -72t-65.5 -178t65.5 -178t168.5 -72z" />
    <glyph glyph-name="uni1ECF" unicode="&#x1ecf;" horiz-adv-x="600" 
d="M260 554q72 51 70 86q0 21 -29 21q-38 0 -88 -34l-26 58q51 53 141 53q43 0 68.5 -20.5t25.5 -61.5q0 -34 -25.5 -62t-54.5 -40h-82zM300 -8q-114 0 -185 71t-71 180t71 180.5t185 71.5q113 0 184.5 -70t71.5 -182q0 -111 -71.5 -181t-184.5 -70zM300 94q60 0 101 42
t41 107q0 67 -40.5 109t-101.5 42q-63 0 -102.5 -43t-39.5 -108q0 -63 40 -106t102 -43z" />
    <glyph glyph-name="uni1ED0" unicode="&#x1ed0;" horiz-adv-x="827" 
d="M568 831l82 135h123l-122 -135h-83zM246 775l111 133h117l108 -133h-109l-57 71h-2l-57 -71h-111zM414 -8q-159 0 -259 102.5t-100 260.5t100 260.5t259 102.5q155 0 256.5 -101t101.5 -262t-101.5 -262t-256.5 -101zM414 105q99 0 165.5 71t66.5 179q0 109 -66.5 179.5
t-165.5 70.5q-103 0 -168.5 -72t-65.5 -178t65.5 -178t168.5 -72z" />
    <glyph glyph-name="uni1ED1" unicode="&#x1ed1;" horiz-adv-x="600" 
d="M436 645l83 145h123l-123 -145h-83zM135 554l109 145h117l105 -145h-109l-54 77h-2l-55 -77h-111zM300 -8q-114 0 -185 71t-71 180t71 180.5t185 71.5q113 0 184.5 -70t71.5 -182q0 -111 -71.5 -181t-184.5 -70zM300 94q60 0 101 42t41 107q0 67 -40.5 109t-101.5 42
q-63 0 -102.5 -43t-39.5 -108q0 -63 40 -106t102 -43z" />
    <glyph glyph-name="uni1ED2" unicode="&#x1ed2;" horiz-adv-x="827" 
d="M619 830l-122 135h123l82 -135h-83zM246 775l111 133h117l108 -133h-109l-57 71h-2l-57 -71h-111zM414 -8q-159 0 -259 102.5t-100 260.5t100 260.5t259 102.5q155 0 256.5 -101t101.5 -262t-101.5 -262t-256.5 -101zM414 105q99 0 165.5 71t66.5 179q0 109 -66.5 179.5
t-165.5 70.5q-103 0 -168.5 -72t-65.5 -178t65.5 -178t168.5 -72z" />
    <glyph glyph-name="uni1ED3" unicode="&#x1ed3;" horiz-adv-x="600" 
d="M464 645l-123 145h123l83 -145h-83zM135 554l109 145h117l105 -145h-109l-54 77h-2l-55 -77h-111zM300 -8q-114 0 -185 71t-71 180t71 180.5t185 71.5q113 0 184.5 -70t71.5 -182q0 -111 -71.5 -181t-184.5 -70zM300 94q60 0 101 42t41 107q0 67 -40.5 109t-101.5 42
q-63 0 -102.5 -43t-39.5 -108q0 -63 40 -106t102 -43z" />
    <glyph glyph-name="uni1ED4" unicode="&#x1ed4;" horiz-adv-x="827" 
d="M577 840q50 38 59 52q4 8 4 14q0 18 -26 18q-32 0 -80 -29l-24 52q48 43 128 43q38 0 61.5 -18t23.5 -52q0 -50 -72 -80h-74zM246 775l111 133h117l108 -133h-109l-57 71h-2l-57 -71h-111zM414 -8q-159 0 -259 102.5t-100 260.5t100 260.5t259 102.5q155 0 256.5 -101
t101.5 -262t-101.5 -262t-256.5 -101zM414 105q99 0 165.5 71t66.5 179q0 109 -66.5 179.5t-165.5 70.5q-103 0 -168.5 -72t-65.5 -178t65.5 -178t168.5 -72z" />
    <glyph glyph-name="uni1ED5" unicode="&#x1ed5;" horiz-adv-x="600" 
d="M449 655q68 49 66 82q0 20 -27 20q-36 0 -84 -32l-24 55q50 50 134 50q40 0 64.5 -19.5t24.5 -58.5q0 -32 -24 -58.5t-52 -38.5h-78zM134 554l109 145h117l105 -145h-109l-54 77h-2l-55 -77h-111zM300 -8q-114 0 -185 71t-71 180t71 180.5t185 71.5q113 0 184.5 -70
t71.5 -182q0 -111 -71.5 -181t-184.5 -70zM300 94q60 0 101 42t41 107q0 67 -40.5 109t-101.5 42q-63 0 -102.5 -43t-39.5 -108q0 -63 40 -106t102 -43z" />
    <glyph glyph-name="uni1ED6" unicode="&#x1ed6;" horiz-adv-x="827" 
d="M488 930q-31 0 -79 27q-38 22 -59 22q-30 0 -51 -48l-64 29q34 96 108 96q36 0 83 -27q42 -23 56 -23q28 0 48 49l64 -22q-32 -103 -106 -103zM246 775l111 133h117l108 -133h-109l-57 71h-2l-57 -71h-111zM414 -8q-159 0 -259 102.5t-100 260.5t100 260.5t259 102.5
q155 0 256.5 -101t101.5 -262t-101.5 -262t-256.5 -101zM414 105q99 0 165.5 71t66.5 179q0 109 -66.5 179.5t-165.5 70.5q-103 0 -168.5 -72t-65.5 -178t65.5 -178t168.5 -72z" />
    <glyph glyph-name="uni1ED7" unicode="&#x1ed7;" horiz-adv-x="600" 
d="M189 740l-68 31q34 104 107 104q36 0 77 -24q42 -25 57 -25q36 0 57 52l68 -23q-34 -113 -111 -113q-34 0 -80 28q-41 24 -59 22q-30 -4 -48 -52zM135 554l109 145h117l105 -145h-109l-54 77h-2l-55 -77h-111zM300 -8q-114 0 -185 71t-71 180t71 180.5t185 71.5
q113 0 184.5 -70t71.5 -182q0 -111 -71.5 -181t-184.5 -70zM300 94q60 0 101 42t41 107q0 67 -40.5 109t-101.5 42q-63 0 -102.5 -43t-39.5 -108q0 -63 40 -106t102 -43z" />
    <glyph glyph-name="uni1ED8" unicode="&#x1ed8;" horiz-adv-x="827" 
d="M246 775l111 133h117l108 -133h-109l-57 71h-2l-57 -71h-111zM414 -8q-159 0 -259 102.5t-100 260.5t100 260.5t259 102.5q155 0 256.5 -101t101.5 -262t-101.5 -262t-256.5 -101zM414 105q99 0 165.5 71t66.5 179q0 109 -66.5 179.5t-165.5 70.5q-103 0 -168.5 -72
t-65.5 -178t65.5 -178t168.5 -72zM414 -78q31 0 53 -22t22 -53q0 -30 -22 -52t-53 -22t-53.5 22t-22.5 52q0 31 22.5 53t53.5 22z" />
    <glyph glyph-name="uni1ED9" unicode="&#x1ed9;" horiz-adv-x="600" 
d="M134 554l109 145h117l105 -145h-109l-54 77h-2l-55 -77h-111zM300 -8q-114 0 -185 71t-71 180t71 180.5t185 71.5q113 0 184.5 -70t71.5 -182q0 -111 -71.5 -181t-184.5 -70zM300 94q60 0 101 42t41 107q0 67 -40.5 109t-101.5 42q-63 0 -102.5 -43t-39.5 -108
q0 -63 40 -106t102 -43zM300 -78q31 0 53 -22t22 -53q0 -30 -22 -52t-53 -22t-53.5 22t-22.5 52q0 31 22.5 53t53.5 22z" />
    <glyph glyph-name="uni1EDA" unicode="&#x1eda;" horiz-adv-x="870" 
d="M590 908l-126 -133h-111l112 133h125zM732 774h114v-71q0 -142 -110 -180q36 -77 36 -168q0 -161 -101.5 -262t-256.5 -101q-159 0 -259 102.5t-100 260.5t100 260.5t259 102.5q176 0 279 -125q14 7 22.5 17.5t12 29.5t4 31t0.5 39v64zM414 105q99 0 165.5 71t66.5 179
q0 109 -66.5 179.5t-165.5 70.5q-103 0 -168.5 -72t-65.5 -178t65.5 -178t168.5 -72z" />
    <glyph glyph-name="uni1EDB" unicode="&#x1edb;" horiz-adv-x="681" 
d="M478 701l-124 -145h-114l115 144zM555 565h114v-71q0 -72 -31 -120t-90 -64q8 -34 8 -67q0 -111 -71.5 -181t-184.5 -70q-114 0 -185 71t-71 180t71 180.5t185 71.5q71 0 127.5 -29.5t89.5 -81.5q18 9 27 29.5t10 36.5t1 51v64zM300 94q60 0 101 42t41 107
q0 67 -40.5 109t-101.5 42q-63 0 -102.5 -43t-39.5 -108q0 -63 40 -106t102 -43z" />
    <glyph glyph-name="uni1EDC" unicode="&#x1edc;" horiz-adv-x="870" 
d="M484 775h-111l-126 133h125zM732 774h114v-71q0 -142 -110 -180q36 -77 36 -168q0 -161 -101.5 -262t-256.5 -101q-159 0 -259 102.5t-100 260.5t100 260.5t259 102.5q176 0 279 -125q14 7 22.5 17.5t12 29.5t4 31t0.5 39v64zM414 105q99 0 165.5 71t66.5 179
q0 109 -66.5 179.5t-165.5 70.5q-103 0 -168.5 -72t-65.5 -178t65.5 -178t168.5 -72z" />
    <glyph glyph-name="uni1EDD" unicode="&#x1edd;" horiz-adv-x="681" 
d="M372 554h-111l-124 144l125 -1zM555 565h114v-71q0 -72 -31 -120t-90 -64q8 -34 8 -67q0 -111 -71.5 -181t-184.5 -70q-114 0 -185 71t-71 180t71 180.5t185 71.5q71 0 127.5 -29.5t89.5 -81.5q18 9 27 29.5t10 36.5t1 51v64zM300 94q60 0 101 42t41 107q0 67 -40.5 109
t-101.5 42q-63 0 -102.5 -43t-39.5 -108q0 -63 40 -106t102 -43z" />
    <glyph glyph-name="uni1EDE" unicode="&#x1ede;" horiz-adv-x="870" 
d="M416 868q-33 0 -89 -32l-26 58q54 47 142 47q42 0 68 -20t26 -58q0 -55 -80 -88h-82q25 18 36 26.5t22.5 22t11.5 24.5q0 20 -29 20zM732 774h114v-71q0 -142 -110 -180q36 -77 36 -168q0 -161 -101.5 -262t-256.5 -101q-159 0 -259 102.5t-100 260.5t100 260.5
t259 102.5q176 0 279 -125q14 7 22.5 17.5t12 29.5t4 31t0.5 39v64zM414 105q99 0 165.5 71t66.5 179q0 109 -66.5 179.5t-165.5 70.5q-103 0 -168.5 -72t-65.5 -178t65.5 -178t168.5 -72z" />
    <glyph glyph-name="uni1EDF" unicode="&#x1edf;" horiz-adv-x="681" 
d="M301 661q-38 0 -88 -34l-26 58q51 53 141 53q43 0 68.5 -20.5t25.5 -61.5q0 -34 -25.5 -62t-54.5 -40h-82q72 51 70 86q0 21 -29 21zM555 565h114v-71q0 -72 -31 -120t-90 -64q8 -34 8 -67q0 -111 -71.5 -181t-184.5 -70q-114 0 -185 71t-71 180t71 180.5t185 71.5
q71 0 127.5 -29.5t89.5 -81.5q18 9 27 29.5t10 36.5t1 51v64zM300 94q60 0 101 42t41 107q0 67 -40.5 109t-101.5 42q-63 0 -102.5 -43t-39.5 -108q0 -63 40 -106t102 -43z" />
    <glyph glyph-name="uni1EE0" unicode="&#x1ee0;" horiz-adv-x="870" 
d="M346 828q-33 0 -54 -52l-68 31q36 103 114 103q38 0 89 -29q42 -24 59 -24q30 0 51 52l68 -23q-33 -111 -112 -111q-34 0 -84 29q-42 24 -63 24zM732 774h114v-71q0 -142 -110 -180q36 -77 36 -168q0 -161 -101.5 -262t-256.5 -101q-159 0 -259 102.5t-100 260.5
t100 260.5t259 102.5q176 0 279 -125q14 7 22.5 17.5t12 29.5t4 31t0.5 39v64zM414 105q99 0 165.5 71t66.5 179q0 109 -66.5 179.5t-165.5 70.5q-103 0 -168.5 -72t-65.5 -178t65.5 -178t168.5 -72z" />
    <glyph glyph-name="uni1EE1" unicode="&#x1ee1;" horiz-adv-x="681" 
d="M235 607q-37 0 -58 -52l-68 31q34 110 114 110q40 0 84 -28q40 -25 58 -25q36 0 57 52l68 -23q-15 -56 -44 -87.5t-67 -31.5q-37 0 -88 32q-35 22 -56 22zM555 565h114v-71q0 -72 -31 -120t-90 -64q8 -34 8 -67q0 -111 -71.5 -181t-184.5 -70q-114 0 -185 71t-71 180
t71 180.5t185 71.5q71 0 127.5 -29.5t89.5 -81.5q18 9 27 29.5t10 36.5t1 51v64zM300 94q60 0 101 42t41 107q0 67 -40.5 109t-101.5 42q-63 0 -102.5 -43t-39.5 -108q0 -63 40 -106t102 -43z" />
    <glyph glyph-name="uni1EE2" unicode="&#x1ee2;" horiz-adv-x="870" 
d="M732 774h114v-71q0 -142 -110 -180q36 -77 36 -168q0 -161 -101.5 -262t-256.5 -101q-159 0 -259 102.5t-100 260.5t100 260.5t259 102.5q176 0 279 -125q14 7 22.5 17.5t12 29.5t4 31t0.5 39v64zM414 105q99 0 165.5 71t66.5 179q0 109 -66.5 179.5t-165.5 70.5
q-103 0 -168.5 -72t-65.5 -178t65.5 -178t168.5 -72zM414 -78q31 0 53 -22t22 -53q0 -30 -22 -52t-53 -22t-53.5 22t-22.5 52q0 31 22.5 53t53.5 22z" />
    <glyph glyph-name="uni1EE3" unicode="&#x1ee3;" horiz-adv-x="681" 
d="M555 565h114v-71q0 -72 -31 -120t-90 -64q8 -34 8 -67q0 -111 -71.5 -181t-184.5 -70q-114 0 -185 71t-71 180t71 180.5t185 71.5q71 0 127.5 -29.5t89.5 -81.5q18 9 27 29.5t10 36.5t1 51v64zM300 94q60 0 101 42t41 107q0 67 -40.5 109t-101.5 42q-63 0 -102.5 -43
t-39.5 -108q0 -63 40 -106t102 -43zM300 -78q31 0 53 -22t22 -53q0 -30 -22 -52t-53 -22t-53.5 22t-22.5 52q0 31 22.5 53t53.5 22z" />
    <glyph glyph-name="uni1EE4" unicode="&#x1ee4;" horiz-adv-x="719" 
d="M359 -8q-130 0 -206 72.5t-76 217.5v428h120v-419q0 -88 43 -136.5t119 -48.5q74 0 119 46.5t45 138.5v419h120v-428q0 -143 -75 -216.5t-209 -73.5zM359 -78q31 0 53 -22t22 -53q0 -30 -22 -52t-53 -22t-53.5 22t-22.5 52q0 31 22.5 53t53.5 22z" />
    <glyph glyph-name="uni1EE5" unicode="&#x1ee5;" horiz-adv-x="578" 
d="M246 -8q-183 0 -183 199v297h112v-267q0 -71 22.5 -99t74.5 -28t88.5 42.5t36.5 117.5v234h112v-488h-112v61l-2 1q-58 -70 -149 -70zM292 -78q31 0 53 -22t22 -53q0 -30 -22 -52t-53 -22t-53.5 22t-22.5 52q0 31 22.5 53t53.5 22z" />
    <glyph glyph-name="uni1EE6" unicode="&#x1ee6;" horiz-adv-x="719" 
d="M319 775q25 18 36 26.5t22.5 22t11.5 24.5q0 20 -29 20q-33 0 -89 -32l-26 58q54 47 142 47q42 0 68 -20t26 -58q0 -55 -80 -88h-82zM359 -8q-130 0 -206 72.5t-76 217.5v428h120v-419q0 -88 43 -136.5t119 -48.5q74 0 119 46.5t45 138.5v419h120v-428q0 -143 -75 -216.5
t-209 -73.5z" />
    <glyph glyph-name="uni1EE7" unicode="&#x1ee7;" horiz-adv-x="578" 
d="M247 554q72 51 70 86q0 21 -29 21q-38 0 -88 -34l-26 58q51 53 141 53q43 0 68.5 -20.5t25.5 -61.5q0 -34 -25.5 -62t-54.5 -40h-82zM246 -8q-183 0 -183 199v297h112v-267q0 -71 22.5 -99t74.5 -28t88.5 42.5t36.5 117.5v234h112v-488h-112v61l-2 1q-58 -70 -149 -70z
" />
    <glyph glyph-name="uni1EE8" unicode="&#x1ee8;" horiz-adv-x="819" 
d="M521 908l-126 -133h-111l112 133h125zM703 774h114v-71q0 -86 -45 -137.5t-129 -53.5v-230q0 -143 -75 -216.5t-209 -73.5q-130 0 -206 72.5t-76 217.5v428h120v-419q0 -88 43 -136.5t119 -48.5q74 0 119 46.5t45 138.5v419h120v-124q22 5 35 15t18 30.5t6 33.5t1 45v64z
" />
    <glyph glyph-name="uni1EE9" unicode="&#x1ee9;" horiz-adv-x="687" 
d="M467 701l-124 -145h-114l115 144zM562 565h114v-71q0 -85 -43 -136t-124 -55v-303h-112v61l-2 1q-58 -70 -149 -70q-183 0 -183 199v297h112v-267q0 -71 22.5 -99t74.5 -28t88.5 42.5t36.5 117.5v234h112v-110q13 4 23 10t15.5 17t8.5 18t4.5 24.5t1.5 24.5v29v64z" />
    <glyph glyph-name="uni1EEA" unicode="&#x1eea;" horiz-adv-x="819" 
d="M432 775h-111l-126 133h125zM703 774h114v-71q0 -86 -45 -137.5t-129 -53.5v-230q0 -143 -75 -216.5t-209 -73.5q-130 0 -206 72.5t-76 217.5v428h120v-419q0 -88 43 -136.5t119 -48.5q74 0 119 46.5t45 138.5v419h120v-124q22 5 35 15t18 30.5t6 33.5t1 45v64z" />
    <glyph glyph-name="uni1EEB" unicode="&#x1eeb;" horiz-adv-x="687" 
d="M364 554h-111l-124 144l125 -1zM562 565h114v-71q0 -85 -43 -136t-124 -55v-303h-112v61l-2 1q-58 -70 -149 -70q-183 0 -183 199v297h112v-267q0 -71 22.5 -99t74.5 -28t88.5 42.5t36.5 117.5v234h112v-110q13 4 23 10t15.5 17t8.5 18t4.5 24.5t1.5 24.5v29v64z" />
    <glyph glyph-name="uni1EEC" unicode="&#x1eec;" horiz-adv-x="819" 
d="M360 868q-33 0 -89 -32l-26 58q54 47 142 47q42 0 68 -20t26 -58q0 -55 -80 -88h-82q25 18 36 26.5t22.5 22t11.5 24.5q0 20 -29 20zM703 774h114v-71q0 -86 -45 -137.5t-129 -53.5v-230q0 -143 -75 -216.5t-209 -73.5q-130 0 -206 72.5t-76 217.5v428h120v-419
q0 -88 43 -136.5t119 -48.5q74 0 119 46.5t45 138.5v419h120v-124q22 5 35 15t18 30.5t6 33.5t1 45v64z" />
    <glyph glyph-name="uni1EED" unicode="&#x1eed;" horiz-adv-x="687" 
d="M288 661q-38 0 -88 -34l-26 58q51 53 141 53q43 0 68.5 -20.5t25.5 -61.5q0 -34 -25.5 -62t-54.5 -40h-82q72 51 70 86q0 21 -29 21zM562 565h114v-71q0 -85 -43 -136t-124 -55v-303h-112v61l-2 1q-58 -70 -149 -70q-183 0 -183 199v297h112v-267q0 -71 22.5 -99
t74.5 -28t88.5 42.5t36.5 117.5v234h112v-110q13 4 23 10t15.5 17t8.5 18t4.5 24.5t1.5 24.5v29v64z" />
    <glyph glyph-name="uni1EEE" unicode="&#x1eee;" horiz-adv-x="819" 
d="M290 828q-33 0 -54 -52l-68 31q36 103 114 103q38 0 89 -29q42 -24 59 -24q30 0 51 52l68 -23q-33 -111 -112 -111q-34 0 -84 29q-42 24 -63 24zM703 774h114v-71q0 -86 -45 -137.5t-129 -53.5v-230q0 -143 -75 -216.5t-209 -73.5q-130 0 -206 72.5t-76 217.5v428h120
v-419q0 -88 43 -136.5t119 -48.5q74 0 119 46.5t45 138.5v419h120v-124q22 5 35 15t18 30.5t6 33.5t1 45v64z" />
    <glyph glyph-name="uni1EEF" unicode="&#x1eef;" horiz-adv-x="687" 
d="M222 607q-37 0 -58 -52l-68 31q34 110 114 110q40 0 84 -28q40 -25 58 -25q36 0 57 52l68 -23q-15 -56 -44 -87.5t-67 -31.5q-37 0 -88 32q-35 22 -56 22zM562 565h114v-71q0 -85 -43 -136t-124 -55v-303h-112v61l-2 1q-58 -70 -149 -70q-183 0 -183 199v297h112v-267
q0 -71 22.5 -99t74.5 -28t88.5 42.5t36.5 117.5v234h112v-110q13 4 23 10t15.5 17t8.5 18t4.5 24.5t1.5 24.5v29v64z" />
    <glyph glyph-name="uni1EF0" unicode="&#x1ef0;" horiz-adv-x="819" 
d="M703 774h114v-71q0 -86 -45 -137.5t-129 -53.5v-230q0 -143 -75 -216.5t-209 -73.5q-130 0 -206 72.5t-76 217.5v428h120v-419q0 -88 43 -136.5t119 -48.5q74 0 119 46.5t45 138.5v419h120v-124q22 5 35 15t18 30.5t6 33.5t1 45v64zM359 -78q31 0 53 -22t22 -53
q0 -30 -22 -52t-53 -22t-53.5 22t-22.5 52q0 31 22.5 53t53.5 22z" />
    <glyph glyph-name="uni1EF1" unicode="&#x1ef1;" horiz-adv-x="687" 
d="M562 565h114v-71q0 -85 -43 -136t-124 -55v-303h-112v61l-2 1q-58 -70 -149 -70q-183 0 -183 199v297h112v-267q0 -71 22.5 -99t74.5 -28t88.5 42.5t36.5 117.5v234h112v-110q13 4 23 10t15.5 17t8.5 18t4.5 24.5t1.5 24.5v29v64zM292 -78q31 0 53 -22t22 -53
q0 -30 -22 -52t-53 -22t-53.5 22t-22.5 52q0 31 22.5 53t53.5 22z" />
    <glyph glyph-name="Ygrave" unicode="&#x1ef2;" horiz-adv-x="625" 
d="M286 775l-126 133h125l112 -133h-111zM251 0v314l-237 396h138l159 -280h2l158 280h140l-239 -396v-314h-121z" />
    <glyph glyph-name="ygrave" unicode="&#x1ef3;" horiz-adv-x="535" 
d="M228 554l-124 144l125 -1l110 -143h-111zM130 -205q-68 0 -119 33l43 92q36 -25 72 -25q27 0 43 20.5t35 67.5l14 36l-199 469h120l133 -338h2l126 338h115l-204 -521q-33 -84 -72.5 -128t-108.5 -44z" />
    <glyph glyph-name="uni1EF4" unicode="&#x1ef4;" horiz-adv-x="625" 
d="M251 0v314l-237 396h138l159 -280h2l158 280h140l-239 -396v-314h-121zM312 -78q31 0 53 -22t22 -53q0 -30 -22 -52t-53 -22t-53.5 22t-22.5 52q0 31 22.5 53t53.5 22z" />
    <glyph glyph-name="uni1EF5" unicode="&#x1ef5;" horiz-adv-x="535" 
d="M130 -205q-68 0 -119 33l43 92q36 -25 72 -25q27 0 43 20.5t35 67.5l14 36l-199 469h120l133 -338h2l126 338h115l-204 -521q-33 -84 -72.5 -128t-108.5 -44zM403 -78q31 0 53 -22t22 -53q0 -30 -22 -52t-53 -22t-53.5 22t-22.5 52q0 31 22.5 53t53.5 22z" />
    <glyph glyph-name="uni1EF6" unicode="&#x1ef6;" horiz-adv-x="625" 
d="M274 775q25 18 36 26.5t22.5 22t11.5 24.5q0 20 -29 20q-33 0 -89 -32l-26 58q54 47 142 47q42 0 68 -20t26 -58q0 -55 -80 -88h-82zM251 0v314l-237 396h138l159 -280h2l158 280h140l-239 -396v-314h-121z" />
    <glyph glyph-name="uni1EF7" unicode="&#x1ef7;" horiz-adv-x="535" 
d="M228 554q72 51 70 86q0 21 -29 21q-38 0 -88 -34l-26 58q51 53 141 53q43 0 68.5 -20.5t25.5 -61.5q0 -34 -25.5 -62t-54.5 -40h-82zM130 -205q-68 0 -119 33l43 92q36 -25 72 -25q27 0 43 20.5t35 67.5l14 36l-199 469h120l133 -338h2l126 338h115l-204 -521
q-33 -84 -72.5 -128t-108.5 -44z" />
    <glyph glyph-name="uni1EF8" unicode="&#x1ef8;" horiz-adv-x="625" 
d="M392 775q-34 0 -84 29q-42 24 -63 24q-33 0 -54 -52l-68 31q36 103 114 103q38 0 89 -29q42 -24 59 -24q30 0 51 52l68 -23q-33 -111 -112 -111zM251 0v314l-237 396h138l159 -280h2l158 280h140l-239 -396v-314h-121z" />
    <glyph glyph-name="uni1EF9" unicode="&#x1ef9;" horiz-adv-x="535" 
d="M347 553q-37 0 -88 32q-35 22 -56 22q-37 0 -58 -52l-68 31q34 110 114 110q40 0 84 -28q40 -25 58 -25q36 0 57 52l68 -23q-15 -56 -44 -87.5t-67 -31.5zM130 -205q-68 0 -119 33l43 92q36 -25 72 -25q27 0 43 20.5t35 67.5l14 36l-199 469h120l133 -338h2l126 338h115
l-204 -521q-33 -84 -72.5 -128t-108.5 -44z" />
    <glyph glyph-name="uni2002" unicode="&#x2002;" horiz-adv-x="467" 
 />
    <glyph glyph-name="uni2003" unicode="&#x2003;" horiz-adv-x="934" 
 />
    <glyph glyph-name="uni2007" unicode="&#x2007;" horiz-adv-x="586" 
 />
    <glyph glyph-name="uni2009" unicode="&#x2009;" horiz-adv-x="29" 
 />
    <glyph glyph-name="uni2010" unicode="&#x2010;" horiz-adv-x="407" 
d="M53 254v109h301v-109h-301z" />
    <glyph glyph-name="figuredash" unicode="&#x2012;" horiz-adv-x="586" 
d="M53 248v100h480v-100h-480z" />
    <glyph glyph-name="endash" unicode="&#x2013;" horiz-adv-x="573" 
d="M53 248v100h467v-100h-467z" />
    <glyph glyph-name="emdash" unicode="&#x2014;" horiz-adv-x="1040" 
d="M53 248v100h934v-100h-934z" />
    <glyph glyph-name="uni2015" unicode="&#x2015;" horiz-adv-x="1199" 
d="M53 248v100h1093v-100h-1093z" />
    <glyph glyph-name="quoteleft" unicode="&#x2018;" horiz-adv-x="215" 
d="M183 709l-31 -253h-120l60 253h91z" />
    <glyph glyph-name="quoteright" unicode="&#x2019;" horiz-adv-x="215" 
d="M32 457l31 253h120l-60 -253h-91z" />
    <glyph glyph-name="quotesinglbase" unicode="&#x201a;" horiz-adv-x="238" 
d="M27 -78l32 253h120l-70 -253h-82z" />
    <glyph glyph-name="quotedblleft" unicode="&#x201c;" horiz-adv-x="387" 
d="M183 710l-31 -253h-120l60 253h91zM355 710l-31 -253h-120l60 253h91z" />
    <glyph glyph-name="quotedblright" unicode="&#x201d;" horiz-adv-x="387" 
d="M32 457l31 253h120l-60 -253h-91zM204 457l31 253h120l-60 -253h-91z" />
    <glyph glyph-name="quotedblbase" unicode="&#x201e;" horiz-adv-x="409" 
d="M27 -78l31 253h120l-60 -253h-91zM199 -78l31 253h120l-60 -253h-91z" />
    <glyph glyph-name="dagger" unicode="&#x2020;" horiz-adv-x="400" 
d="M201 234l-34 58l4 129l-1 109h-19l-96 -5v68l96 -4h19l-3 97h69l-5 -97h19l96 5v-69l-96 5h-20v-109l6 -129z" />
    <glyph glyph-name="daggerdbl" unicode="&#x2021;" horiz-adv-x="400" 
d="M167 55l3 95h-19l-96 -4v68l95 -4h21v70l-4 92l4 92v66h-20l-96 -4v67l95 -5h20l-4 98h69l-5 -98h19l97 5v-67l-97 4h-19v-66l5 -92l-6 -92l1 -70h19l97 4v-67l-97 3h-19l5 -95h-68z" />
    <glyph glyph-name="bullet" unicode="&#x2022;" horiz-adv-x="426" 
d="M213 205q-47 0 -79.5 32.5t-32.5 78.5t32.5 79t79.5 33t80 -33t33 -79t-33 -78.5t-80 -32.5z" />
    <glyph glyph-name="ellipsis" unicode="&#x2026;" horiz-adv-x="1000" 
d="M167 -8q-32 0 -54 21.5t-22 52.5t22.5 53t53.5 22t53 -22t22 -53t-22 -52.5t-53 -21.5zM500 -8q-32 0 -54 21.5t-22 52.5t22.5 53t53.5 22t53 -22t22 -53t-22 -52.5t-53 -21.5zM834 -8q-32 0 -54 21.5t-22 52.5t22.5 53t53.5 22t53 -22t22 -53t-22 -52.5t-53 -21.5z" />
    <glyph glyph-name="perthousand" unicode="&#x2030;" horiz-adv-x="1284" 
d="M241 0l-79 58l485 645l79 -58zM221 332q-78 0 -131.5 50.5t-53.5 131.5q0 77 51.5 129t133.5 52q77 0 130.5 -50.5t53.5 -130.5q0 -76 -51.5 -129t-132.5 -53zM221 421q39 0 63.5 26.5t24.5 65.5q0 41 -25 66.5t-63 25.5t-62 -26.5t-24 -65.5q0 -40 25 -66t61 -26z
M659 -8q-78 0 -131.5 50.5t-53.5 131.5q0 77 51.5 129t133.5 52q77 0 130.5 -50.5t53.5 -130.5q0 -76 -51.5 -129t-132.5 -53zM1060 -8q-78 0 -131.5 50.5t-53.5 131.5q0 77 51.5 129t133.5 52q77 0 130.5 -50.5t53.5 -130.5q0 -76 -51.5 -129t-132.5 -53zM659 81
q39 0 63.5 26.5t24.5 65.5q0 41 -25 66.5t-63 25.5t-62 -26.5t-24 -65.5q0 -40 25 -66t61 -26zM1060 81q39 0 63.5 26.5t24.5 65.5q0 41 -25 66.5t-63 25.5t-62 -26.5t-24 -65.5q0 -40 25 -66t61 -26z" />
    <glyph glyph-name="minute" unicode="&#x2032;" horiz-adv-x="259" 
d="M32 457l75 253h120l-104 -253h-91z" />
    <glyph glyph-name="second" unicode="&#x2033;" horiz-adv-x="443" 
d="M32 457l75 253h120l-104 -253h-91zM216 457l75 253h120l-104 -253h-91z" />
    <glyph glyph-name="guilsinglleft" unicode="&#x2039;" horiz-adv-x="310" 
d="M274 463l-122 -213l123 -217h-111l-123 217l121 213h112z" />
    <glyph glyph-name="guilsinglright" unicode="&#x203a;" horiz-adv-x="310" 
d="M36 33l122 213l-123 217h111l123 -217l-121 -213h-112z" />
    <glyph glyph-name="uni203D" unicode="&#x203d;" horiz-adv-x="463" 
d="M214 744q86 0 146.5 -50.5t60.5 -142.5q0 -55 -23 -94.5t-65 -80.5q-7 -7 -23.5 -22t-24.5 -22.5t-18 -19.5t-14.5 -22.5t-5.5 -21.5l-3 -44h-92l-20 334h127l-6 -105l3 -1q39 46 39 84q0 48 -24.5 72.5t-65.5 24.5q-29 0 -58 -16t-47 -43l-84 78q73 92 198 92zM197 141
q31 0 53 -22t22 -53t-22 -52.5t-53 -21.5q-32 0 -54 21.5t-22 52.5t22.5 53t53.5 22z" />
    <glyph glyph-name="uni2042" unicode="&#x2042;" horiz-adv-x="838" 
d="M379 386l4 108l-90 -57l-36 62l95 48l-96 51l37 62l90 -57l-4 107h71l-5 -107l92 56l35 -61l-95 -50l95 -49l-35 -62l-90 57l3 -108h-71zM168 51l4 108l-90 -57l-36 62l95 48l-96 51l37 62l90 -57l-4 107h71l-5 -107l92 56l35 -61l-95 -50l95 -49l-35 -62l-90 57l3 -108
h-71zM599 51l4 108l-90 -57l-36 62l95 48l-96 51l37 62l90 -57l-4 107h71l-5 -107l92 56l35 -61l-95 -50l95 -49l-35 -62l-90 57l3 -108h-71z" />
    <glyph glyph-name="fraction" unicode="&#x2044;" horiz-adv-x="223" 
d="M16 -22l-90 39l313 708l91 -39z" />
    <glyph glyph-name="uni2051" unicode="&#x2051;" horiz-adv-x="407" 
d="M168 386l4 108l-90 -57l-36 62l95 48l-96 51l37 62l90 -57l-4 107h71l-5 -107l92 56l35 -61l-95 -50l95 -49l-35 -62l-90 57l3 -108h-71zM168 31l4 108l-90 -57l-36 62l95 48l-96 51l37 62l90 -57l-4 107h71l-5 -107l92 56l35 -61l-95 -50l95 -49l-35 -62l-90 57l3 -108
h-71z" />
    <glyph glyph-name="uni2070" unicode="&#x2070;" horiz-adv-x="412" 
d="M206 428q-83 0 -130.5 58t-47.5 156q0 100 49 157t129 57q82 0 129.5 -58t47.5 -156q0 -100 -48.5 -157t-128.5 -57zM206 516q38 0 60 33t22 93t-22.5 93.5t-59.5 33.5q-39 0 -61 -33t-22 -94q0 -60 22.5 -93t60.5 -33z" />
    <glyph glyph-name="uni2074" unicode="&#x2074;" horiz-adv-x="365" 
d="M286 586h57v-81h-57v-69h-93v69h-182v58l202 285h73v-262zM103 578h103v146z" />
    <glyph glyph-name="uni2075" unicode="&#x2075;" horiz-adv-x="351" 
d="M193 702q60 0 95.5 -36.5t35.5 -95.5q0 -65 -43 -103t-121 -38q-80 0 -137 41l43 78q44 -36 92 -36q70 0 70 62q0 59 -66 59q-33 0 -72 -22l-45 16l17 221h240v-83h-166l-9 -74q35 11 66 11z" />
    <glyph glyph-name="uni2076" unicode="&#x2076;" horiz-adv-x="364" 
d="M202 703q64 0 101.5 -36t37.5 -100q0 -62 -43.5 -100t-108.5 -38q-76 0 -118.5 53t-42.5 150q0 64 16 110t43.5 69.5t56.5 33.5t61 10q62 0 109 -22l-30 -78q-35 19 -79 19q-76 0 -87 -92l2 -1q38 22 82 22zM189 512q27 0 44.5 16.5t17.5 40.5q0 27 -17.5 43.5
t-45.5 16.5q-43 0 -72 -35q10 -82 73 -82z" />
    <glyph glyph-name="uni2077" unicode="&#x2077;" horiz-adv-x="328" 
d="M59 436l137 326h-169v86h273v-63l-139 -349h-102z" />
    <glyph glyph-name="uni2078" unicode="&#x2078;" horiz-adv-x="379" 
d="M190 429q-75 0 -118 32.5t-43 88.5q0 37 20 65.5t51 40.5v2q-20 10 -35.5 31.5t-15.5 49.5q0 54 40 84.5t101 30.5q63 0 101 -30.5t38 -84.5q0 -28 -15 -49.5t-34 -31.5v-2q32 -11 51.5 -39.5t19.5 -66.5q0 -56 -44 -88.5t-117 -32.5zM189 687q24 0 39.5 12.5t15.5 33.5
q0 20 -15.5 32.5t-39.5 12.5q-23 0 -38.5 -13t-15.5 -32q0 -21 15 -33.5t39 -12.5zM190 509q29 0 47 15.5t18 38.5t-18.5 39.5t-46.5 15.5q-29 -1 -47 -16.5t-18 -38.5q0 -24 18 -39t47 -15z" />
    <glyph glyph-name="uni2079" unicode="&#x2079;" horiz-adv-x="364" 
d="M175 854q76 0 118.5 -53t42.5 -150q0 -64 -16 -110t-43.5 -69.5t-56.5 -33.5t-62 -10q-67 0 -116 24l26 83q37 -24 88 -24q78 0 91 91l-3 1q-37 -23 -84 -23q-62 0 -99.5 35t-37.5 96q0 65 43.5 104t108.5 39zM113 713q0 -26 17.5 -42.5t45.5 -16.5q44 0 72 36
q-9 81 -73 81q-27 0 -44.5 -16.5t-17.5 -41.5z" />
    <glyph glyph-name="uni207A" unicode="&#x207a;" horiz-adv-x="353" 
d="M313 671v-76h-97v-99h-80v99h-98v76h98v99h80v-99h97z" />
    <glyph glyph-name="uni207B" unicode="&#x207b;" horiz-adv-x="359" 
d="M42 592v82h274v-82h-274z" />
    <glyph glyph-name="uni207C" unicode="&#x207c;" horiz-adv-x="378" 
d="M51 668v73h275v-73h-275zM51 505v73h275v-73h-275z" />
    <glyph glyph-name="uni207D" unicode="&#x207d;" horiz-adv-x="213" 
d="M118 368q-73 132 -73 273q0 157 78 273l66 -28q-25 -38 -44.5 -107t-19.5 -138q0 -136 62 -248z" />
    <glyph glyph-name="uni207E" unicode="&#x207e;" horiz-adv-x="213" 
d="M95 368l-69 25q62 112 62 248q0 69 -19.5 138t-44.5 107l66 28q78 -116 78 -273q0 -141 -73 -273z" />
    <glyph glyph-name="uni207F" unicode="&#x207f;" horiz-adv-x="364" 
d="M36 -66v294h83v-37h2q39 41 98 41q112 0 112 -127v-171h-83v149q0 74 -59 74q-33 0 -51.5 -19.5t-18.5 -56.5v-147h-83z" />
    <glyph glyph-name="uni2080" unicode="&#x2080;" horiz-adv-x="412" 
d="M206 -74q-83 0 -130.5 58t-47.5 156q0 100 49 157t129 57q82 0 129.5 -58t47.5 -156q0 -100 -48.5 -157t-128.5 -57zM206 14q38 0 60 33t22 93t-22.5 93.5t-59.5 33.5q-39 0 -61 -33t-22 -94q0 -60 22.5 -93t60.5 -33z" />
    <glyph glyph-name="uni2081" unicode="&#x2081;" horiz-adv-x="282" 
d="M131 -66v295l-67 -46l-46 72l134 91h73v-412h-94z" />
    <glyph glyph-name="uni2082" unicode="&#x2082;" horiz-adv-x="344" 
d="M27 -66l-2 63l134 132q54 54 54 88q0 47 -54 47q-44 0 -96 -41l-44 79q72 50 147 50q71 0 108 -33t37 -94q0 -69 -74 -136l-75 -68l1 -2h152v-85h-288z" />
    <glyph glyph-name="uni2083" unicode="&#x2083;" horiz-adv-x="351" 
d="M172 -73q-87 0 -147 41l43 79q46 -36 97 -36q63 0 63 47q0 52 -77 52h-27v71h34q33 0 49 13.5t16 31.5q0 42 -57 42q-49 0 -91 -31l-41 75q69 40 141 40q62 0 100.5 -29t38.5 -80q0 -64 -57 -93v-2q68 -31 68 -104q0 -54 -38.5 -85.5t-114.5 -31.5z" />
    <glyph glyph-name="uni2084" unicode="&#x2084;" horiz-adv-x="365" 
d="M286 84h57v-81h-57v-69h-93v69h-182v58l202 285h73v-262zM103 76h103v146z" />
    <glyph glyph-name="uni2085" unicode="&#x2085;" horiz-adv-x="351" 
d="M193 200q60 0 95.5 -36.5t35.5 -95.5q0 -65 -43 -103t-121 -38q-80 0 -137 41l43 78q44 -36 92 -36q70 0 70 62q0 59 -66 59q-33 0 -72 -22l-45 16l17 221h240v-83h-166l-9 -74q35 11 66 11z" />
    <glyph glyph-name="uni2086" unicode="&#x2086;" horiz-adv-x="364" 
d="M202 201q64 0 101.5 -36t37.5 -100q0 -62 -43.5 -100t-108.5 -38q-76 0 -118.5 53t-42.5 150q0 64 16 110t43.5 69.5t56.5 33.5t61 10q62 0 109 -22l-30 -78q-35 19 -79 19q-76 0 -87 -92l2 -1q38 22 82 22zM189 10q27 0 44.5 16.5t17.5 40.5q0 27 -17.5 43.5t-45.5 16.5
q-43 0 -72 -35q10 -82 73 -82z" />
    <glyph glyph-name="uni2087" unicode="&#x2087;" horiz-adv-x="328" 
d="M59 -66l137 326h-169v86h273v-63l-139 -349h-102z" />
    <glyph glyph-name="uni2088" unicode="&#x2088;" horiz-adv-x="379" 
d="M190 -73q-75 0 -118 32.5t-43 88.5q0 37 20 65.5t51 40.5v2q-20 10 -35.5 31.5t-15.5 49.5q0 54 40 84.5t101 30.5q63 0 101 -30.5t38 -84.5q0 -28 -15 -49.5t-34 -31.5v-2q32 -11 51.5 -39.5t19.5 -66.5q0 -56 -44 -88.5t-117 -32.5zM189 185q24 0 39.5 12.5t15.5 33.5
q0 20 -15.5 32.5t-39.5 12.5q-23 0 -38.5 -13t-15.5 -32q0 -21 15 -33.5t39 -12.5zM190 7q29 0 47 15.5t18 38.5t-18.5 39.5t-46.5 15.5q-29 -1 -47 -16.5t-18 -38.5q0 -24 18 -39t47 -15z" />
    <glyph glyph-name="uni2089" unicode="&#x2089;" horiz-adv-x="364" 
d="M175 352q76 0 118.5 -53t42.5 -150q0 -64 -16 -110t-43.5 -69.5t-56.5 -33.5t-62 -10q-67 0 -116 24l26 83q37 -24 88 -24q78 0 91 91l-3 1q-37 -23 -84 -23q-62 0 -99.5 35t-37.5 96q0 65 43.5 104t108.5 39zM113 211q0 -26 17.5 -42.5t45.5 -16.5q44 0 72 36
q-9 81 -73 81q-27 0 -44.5 -16.5t-17.5 -41.5z" />
    <glyph glyph-name="uni208A" unicode="&#x208a;" horiz-adv-x="352" 
d="M313 163v-76h-97v-99h-80v99h-98v76h98v99h80v-99h97z" />
    <glyph glyph-name="uni208B" unicode="&#x208b;" horiz-adv-x="361" 
d="M43 83v82h274v-82h-274z" />
    <glyph glyph-name="uni208C" unicode="&#x208c;" horiz-adv-x="375" 
d="M50 176v73h275v-73h-275zM50 13v73h275v-73h-275z" />
    <glyph glyph-name="uni208D" unicode="&#x208d;" horiz-adv-x="222" 
d="M119 -138q-73 134 -73 273q0 157 79 274l69 -31q-24 -36 -43.5 -105t-19.5 -138q0 -133 61 -246z" />
    <glyph glyph-name="uni208E" unicode="&#x208e;" horiz-adv-x="222" 
d="M103 -138l-73 27q61 113 61 246q0 69 -19.5 138t-43.5 105l69 31q79 -117 79 -274q0 -139 -73 -273z" />
    <glyph glyph-name="uni2090" unicode="&#x2090;" horiz-adv-x="395" 
d="M173 -72q-64 0 -103.5 42t-39.5 110q0 66 38.5 109t100.5 43q58 0 102 -44h1v39h79v-293h-79v33h-2q-36 -39 -97 -39zM192 3q33 0 55.5 21.5t22.5 55.5q0 33 -22 55.5t-56 22.5t-57.5 -22t-23.5 -56t23 -55.5t58 -21.5z" />
    <glyph glyph-name="uni2091" unicode="&#x2091;" horiz-adv-x="362" 
d="M335 82q0 -21 -2 -27h-217q14 -56 97 -56q45 0 82 19l31 -67q-51 -23 -120 -23q-83 0 -129.5 38.5t-46.5 110.5q0 69 43 111.5t110 42.5q73 0 112.5 -41t39.5 -108zM186 164q-55 0 -70 -55h138q-11 55 -68 55z" />
    <glyph glyph-name="uni2092" unicode="&#x2092;" horiz-adv-x="372" 
d="M186 -72q-72 0 -115 42.5t-43 109.5t43 109t115 42q71 0 114.5 -41.5t43.5 -109.5t-43.5 -110t-114.5 -42zM186 2q31 0 52 22t21 56t-20.5 56t-52.5 22t-52.5 -22t-20.5 -56q0 -33 20.5 -55.5t52.5 -22.5z" />
    <glyph glyph-name="uni2093" unicode="&#x2093;" horiz-adv-x="318" 
d="M3 -66l107 151l-105 143h96l57 -80h2l57 80h95l-107 -143l109 -151h-92l-62 80h-2l-63 -80h-92z" />
    <glyph glyph-name="peseta" unicode="&#x20a7;" horiz-adv-x="649" 
d="M627 501v-79h-72q-22 -178 -239 -178h-99v-244h-120v422h-75v79h75v186h233q102 0 159 -49.5t67 -136.5h71zM217 582v-81h219q-21 81 -115 81h-104zM323 345q96 0 114 77h-220v-77h106z" />
    <glyph glyph-name="dong" unicode="&#x20ab;" horiz-adv-x="609" 
d="M609 638v-76h-62v-562h-107v66h-1q-57 -74 -159 -74q-103 0 -170 69t-67 181q0 110 67.5 181.5t168.5 71.5q100 0 156 -67h1v134h-186v76h186v98h111v-98h62zM297 94q61 0 102 41t41 106q0 66 -40 109.5t-102 43.5q-60 0 -100.5 -42t-40.5 -111q0 -65 39.5 -106
t100.5 -41zM72 -160v102h473v-102h-473z" />
    <glyph glyph-name="Euro" unicode="&#x20ac;" horiz-adv-x="602" 
d="M510 140l65 -87q-87 -60 -191 -60q-110 0 -193.5 58.5t-111.5 178.5h-68v79h57q-1 10 -1 32q0 24 1 36h-57v79h69q27 112 106 174t198 62q102 0 186 -58l-68 -86q-54 37 -118 37q-62 0 -109 -32.5t-69 -96.5h248v-79h-264q-1 -11 -1 -36q0 -22 1 -32h264v-79h-249
q22 -65 70 -97t109 -32q71 0 126 39z" />
    <glyph glyph-name="uni20B1" unicode="&#x20b1;" horiz-adv-x="649" 
d="M626 553v-71h-68v-18v-15h68v-71h-80q-42 -134 -230 -134h-99v-244h-120v378h-75v71h75v33h-75v71h75v134h233q169 0 215 -134h81zM335 582h-118v-35h207q-25 35 -89 35zM217 482v-33h228v10q0 16 -1 23h-227zM337 345q70 0 94 39h-214v-39h120z" />
    <glyph glyph-name="uni20B9" unicode="&#x20b9;" horiz-adv-x="605" 
d="M554 599h-141v-1q29 -29 41 -70h100v-88h-95q-20 -151 -214 -172v-2l291 -266h-156l-303 278v88h127q105 0 126 74h-253v88h252q-25 71 -116 71h-136v88h477v-88z" />
    <glyph glyph-name="uni20BA" unicode="&#x20ba;" horiz-adv-x="563" 
d="M452 252l97 -38q-43 -117 -107.5 -165.5t-161.5 -48.5h-189v186l-70 -35l-32 71l102 50v69l-70 -35l-31 70l101 50v261h121v-201l161 80l31 -71l-192 -95v-68l161 80l31 -71l-192 -95v-148h55q72 0 112.5 34t72.5 120z" />
    <glyph glyph-name="uni2113" unicode="&#x2113;" horiz-adv-x="462" 
d="M403 119l36 -25q-65 -102 -173 -102q-77 0 -119.5 38.5t-50.5 108.5q-9 -7 -27.5 -21t-27.5 -21l-23 31q10 8 36.5 29t39.5 32l2 264q1 118 45 172t119 54q54 0 84 -40.5t30 -105.5q0 -146 -184 -317v-22q0 -82 28.5 -115t68.5 -33q64 0 116 73zM271 622q-34 0 -58 -38.5
t-24 -125.5l1 -189q143 148 143 258q0 95 -62 95z" />
    <glyph glyph-name="uni2116" unicode="&#x2116;" horiz-adv-x="1119" 
d="M902 410q-69 0 -113 43t-44 110q0 66 44 108.5t113 42.5t113.5 -42.5t44.5 -108.5q0 -68 -44.5 -110.5t-113.5 -42.5zM87 0v710h116l361 -513h2v513h120v-710h-119l-358 505h-2v-505h-120zM902 484q31 0 52 22.5t21 56.5t-20.5 56t-52.5 22t-52 -22.5t-20 -55.5
q0 -34 20 -56.5t52 -22.5zM755 279v80h304v-80h-304z" />
    <glyph glyph-name="uni2117" unicode="&#x2117;" horiz-adv-x="717" 
d="M358 2q-130 0 -221.5 93t-91.5 223q0 129 91.5 222.5t222.5 93.5q132 0 222.5 -93t90.5 -223q0 -129 -91 -222.5t-223 -93.5zM358 78q100 0 168.5 70.5t68.5 169.5q0 100 -68 170t-168 70t-168.5 -71t-68.5 -170t68 -169t168 -70zM247 158v324h123q56 0 84 -29.5
t28 -78.5q0 -52 -31.5 -79t-86.5 -27h-51v-110h-66zM314 328h41q28 0 43 13t15 34t-15 33.5t-41 12.5h-43v-93z" />
    <glyph glyph-name="trademark" unicode="&#x2122;" horiz-adv-x="690" 
d="M109 387v259h-86v64h245v-64h-87v-259h-72zM313 387v323h73l93 -177l92 177h73v-323h-71v191l-72 -129h-46l-73 129v-191h-69z" />
    <glyph glyph-name="uni2126" unicode="&#x2126;" horiz-adv-x="772" 
d="M63 0v108h119l1 2q-130 109 -130 277q0 143 92.5 237t240.5 94t240.5 -94t92.5 -237q0 -168 -130 -277l1 -2h120v-108h-274v108q158 117 158 277q0 98 -57.5 159t-150.5 61q-93 -1 -150 -61.5t-57 -158.5q0 -161 157 -277v-108h-273z" />
    <glyph glyph-name="estimated" unicode="&#x212e;" horiz-adv-x="795" 
d="M397 -10q-145 0 -243.5 93.5t-98.5 227.5q0 137 99.5 229t242.5 92q146 0 245 -93.5t99 -227.5v-9h-520v-224q75 -55 177 -55q131 0 209 84h55q-45 -54 -116 -85.5t-149 -31.5zM221 340h352v207q-67 51 -175 51q-109 0 -177 -55v-203z" />
    <glyph glyph-name="oneeighth" unicode="&#x215b;" horiz-adv-x="850" 
d="M291 -22l-90 39l313 708l91 -39zM131 299v295l-67 -46l-46 72l134 91h73v-412h-94zM661 -7q-75 0 -118 32.5t-43 88.5q0 37 20 65.5t51 40.5v2q-20 10 -35.5 31.5t-15.5 49.5q0 54 40 84.5t101 30.5q63 0 101 -30.5t38 -84.5q0 -28 -15 -49.5t-34 -31.5v-2
q32 -11 51.5 -39.5t19.5 -66.5q0 -56 -44 -88.5t-117 -32.5zM660 251q24 0 39.5 12.5t15.5 33.5q0 20 -15.5 32.5t-39.5 12.5q-23 0 -38.5 -13t-15.5 -32q0 -21 15 -33.5t39 -12.5zM661 73q29 0 47 15.5t18 38.5t-18.5 39.5t-46.5 15.5q-29 -1 -47 -16.5t-18 -38.5
q0 -24 18 -39t47 -15z" />
    <glyph glyph-name="threeeighths" unicode="&#x215c;" horiz-adv-x="899" 
d="M340 -22l-90 39l313 708l91 -39zM172 292q-87 0 -147 41l43 79q46 -36 97 -36q63 0 63 47q0 52 -77 52h-27v71h34q33 0 49 13.5t16 31.5q0 42 -57 42q-49 0 -91 -31l-41 75q69 40 141 40q62 0 100.5 -29t38.5 -80q0 -64 -57 -93v-2q68 -31 68 -104q0 -54 -38.5 -85.5
t-114.5 -31.5zM710 -7q-75 0 -118 32.5t-43 88.5q0 37 20 65.5t51 40.5v2q-20 10 -35.5 31.5t-15.5 49.5q0 54 40 84.5t101 30.5q63 0 101 -30.5t38 -84.5q0 -28 -15 -49.5t-34 -31.5v-2q32 -11 51.5 -39.5t19.5 -66.5q0 -56 -44 -88.5t-117 -32.5zM709 251q24 0 39.5 12.5
t15.5 33.5q0 20 -15.5 32.5t-39.5 12.5q-23 0 -38.5 -13t-15.5 -32q0 -21 15 -33.5t39 -12.5zM710 73q29 0 47 15.5t18 38.5t-18.5 39.5t-46.5 15.5q-29 -1 -47 -16.5t-18 -38.5q0 -24 18 -39t47 -15z" />
    <glyph glyph-name="fiveeighths" unicode="&#x215d;" horiz-adv-x="894" 
d="M558 725l91 -39l-314 -708l-90 39zM324 433q0 -65 -43 -103t-121 -38q-80 0 -137 41l43 78q44 -36 92 -36q70 0 70 62q0 59 -66 59q-33 0 -72 -22l-45 16l17 221h240v-83h-166l-9 -74q35 11 66 11q60 0 95.5 -36.5t35.5 -95.5zM795 220q32 -11 51.5 -39.5t19.5 -66.5
q0 -56 -44 -88.5t-117 -32.5q-75 0 -118 32.5t-43 88.5q0 37 20 65.5t51 40.5v2q-20 10 -35.5 31.5t-15.5 49.5q0 54 40 84.5t101 30.5q63 0 101 -30.5t38 -84.5q0 -28 -15 -49.5t-34 -31.5v-2zM704 342q-23 0 -38.5 -13t-15.5 -32q0 -21 15 -33.5t39 -12.5t39.5 12.5
t15.5 33.5q0 20 -15.5 32.5t-39.5 12.5zM705 73q29 0 47 15.5t18 38.5t-18.5 39.5t-46.5 15.5q-29 -1 -47 -16.5t-18 -38.5q0 -24 18 -39t47 -15z" />
    <glyph glyph-name="seveneighths" unicode="&#x215e;" horiz-adv-x="830" 
d="M271 -22l-90 39l313 708l91 -39zM59 299l137 326h-169v86h273v-63l-139 -349h-102zM641 -7q-75 0 -118 32.5t-43 88.5q0 37 20 65.5t51 40.5v2q-20 10 -35.5 31.5t-15.5 49.5q0 54 40 84.5t101 30.5q63 0 101 -30.5t38 -84.5q0 -28 -15 -49.5t-34 -31.5v-2
q32 -11 51.5 -39.5t19.5 -66.5q0 -56 -44 -88.5t-117 -32.5zM640 251q24 0 39.5 12.5t15.5 33.5q0 20 -15.5 32.5t-39.5 12.5q-23 0 -38.5 -13t-15.5 -32q0 -21 15 -33.5t39 -12.5zM641 73q29 0 47 15.5t18 38.5t-18.5 39.5t-46.5 15.5q-29 -1 -47 -16.5t-18 -38.5
q0 -24 18 -39t47 -15z" />
    <glyph glyph-name="arrowleft" unicode="&#x2190;" horiz-adv-x="883" 
d="M853 411v-112h-628l297 -299h-155l-352 355l352 355h154l-300 -299h632z" />
    <glyph glyph-name="arrowup" unicode="&#x2191;" horiz-adv-x="770" 
d="M740 485v-155l-299 297v-628h-112v632l-299 -300v154l355 352z" />
    <glyph glyph-name="arrowright" unicode="&#x2192;" horiz-adv-x="883" 
d="M516 710l352 -355l-352 -355h-155l297 299h-628v112h632l-300 299h154z" />
    <glyph glyph-name="arrowdown" unicode="&#x2193;" horiz-adv-x="770" 
d="M441 79l299 300v-154l-355 -352l-355 352v155l299 -297v628h112v-632z" />
    <glyph glyph-name="arrowboth" unicode="&#x2194;" horiz-adv-x="1288" 
d="M921 710l352 -355l-352 -355h-155l297 299h-838l297 -299h-155l-352 355l352 355h154l-300 -299h846l-300 299h154z" />
    <glyph glyph-name="arrowupdn" unicode="&#x2195;" horiz-adv-x="770" 
d="M441 -71l299 300v-154l-355 -352l-355 352v155l299 -297v838l-299 -297v155l355 352l355 -352v-154l-299 300v-846z" />
    <glyph glyph-name="uni2196" unicode="&#x2196;" horiz-adv-x="719" 
d="M693 156l-79 -79l-447 447l2 -424l-109 110v500h501l109 -109l-424 2z" />
    <glyph glyph-name="uni2197" unicode="&#x2197;" horiz-adv-x="719" 
d="M159 711h501v-500l-109 -110l2 424l-447 -447l-79 79l447 447l-424 -2z" />
    <glyph glyph-name="uni2198" unicode="&#x2198;" horiz-adv-x="719" 
d="M550 610l109 -110v-500h-501l-109 109l424 -2l-447 447l79 79l447 -447z" />
    <glyph glyph-name="uni2199" unicode="&#x2199;" horiz-adv-x="719" 
d="M693 554l-447 -447l424 2l-109 -109h-501v500l109 110l-2 -424l447 447z" />
    <glyph glyph-name="partialdiff" unicode="&#x2202;" horiz-adv-x="587" 
d="M281 694q76 0 130 -40.5t79.5 -106t36 -127t10.5 -126.5q0 -147 -69 -224.5t-177 -77.5q-103 0 -172.5 63.5t-69.5 162.5q0 104 63.5 164t155.5 60q90 0 146 -44l2 1q-26 189 -151 189q-40 0 -138 -35l-34 98q101 43 188 43zM292 104q57 0 93.5 43.5t37.5 117.5
q-23 33 -58.5 53.5t-76.5 20.5q-54 0 -86 -31t-32 -87q0 -48 34.5 -82.5t87.5 -34.5z" />
    <glyph glyph-name="emptyset" unicode="&#x2205;" horiz-adv-x="718" 
d="M602 510q65 -84 65 -192q0 -127 -90 -219t-219 -92q-107 0 -192 67l-48 -48l-47 47l48 48q-69 87 -69 197q0 127 90 218.5t219 91.5q112 0 196 -71l44 44l47 -47zM140 317q0 -73 43 -132l308 308q-58 45 -132 45q-92 0 -155.5 -65t-63.5 -156zM358 97q92 0 155.5 65
t63.5 156q0 69 -40 127l-307 -307q57 -41 128 -41z" />
    <glyph glyph-name="uni2206" unicode="&#x2206;" horiz-adv-x="683" 
d="M38 0v93l242 617h121l244 -617v-93h-607zM174 108h333l-165 453h-2z" />
    <glyph glyph-name="product" unicode="&#x220f;" horiz-adv-x="709" 
d="M87 -104v814h535v-814h-121v706h-293v-706h-121z" />
    <glyph glyph-name="summation" unicode="&#x2211;" horiz-adv-x="614" 
d="M52 -80v86l221 310l-221 306v88h513v-108h-349l-2 -3l197 -283l-196 -283l1 -4h349v-109h-513z" />
    <glyph glyph-name="minus" unicode="&#x2212;" horiz-adv-x="573" 
d="M50 226v102h473v-102h-473z" />
    <glyph glyph-name="radical" unicode="&#x221a;" horiz-adv-x="717" 
d="M313 0l-167 500h-113v98h206l142 -439h2l308 663h85l-385 -822h-78z" />
    <glyph glyph-name="infinity" unicode="&#x221e;" horiz-adv-x="783" 
d="M559 445q69 0 117 -48t48 -120q0 -74 -48.5 -121t-116.5 -47q-93 0 -168 95q-75 -95 -167 -95q-70 0 -117.5 48.5t-47.5 119.5q0 74 48.5 121t116.5 47q95 0 167 -95q77 95 168 95zM226 198q51 0 109 79q-58 80 -109 80q-32 0 -54 -22t-22 -58q0 -35 22 -57t54 -22z
M560 198q30 0 51 22t21 57q0 36 -21 58t-51 22q-56 0 -113 -80q59 -79 113 -79z" />
    <glyph glyph-name="integral" unicode="&#x222b;" horiz-adv-x="398" 
d="M49 -171q-30 -2 -76 4l12 86h9q46 0 59 19t24 89l79 529q11 67 46.5 103.5t85.5 39.5q45 2 97 -10l-12 -80q-7 0 -17 0.5t-14 0.5q-46 0 -58.5 -18.5t-23.5 -91.5l-80 -529q-10 -66 -45 -102t-86 -40z" />
    <glyph glyph-name="uni2236" unicode="&#x2236;" horiz-adv-x="270" 
d="M131 404q-32 0 -54 21.5t-22 52.5t22.5 53t53.5 22t53 -22t22 -53t-22 -52.5t-53 -21.5zM131 50q-32 0 -54 21.5t-22 52.5t22.5 53t53.5 22t53 -22t22 -53t-22 -52.5t-53 -21.5z" />
    <glyph glyph-name="approxequal" unicode="&#x2248;" horiz-adv-x="590" 
d="M409 313q-33 0 -99 24.5t-105 24.5q-59 0 -118 -39l-32 78q18 19 57.5 40t81.5 21t106 -24.5t97 -24.5q54 0 104 44l34 -79q-56 -65 -126 -65zM409 93q-33 0 -99 24.5t-105 24.5q-59 0 -118 -39l-32 77q17 19 56.5 40.5t82.5 21.5t106.5 -25t96.5 -25q55 0 104 45l34 -80
q-55 -64 -126 -64z" />
    <glyph glyph-name="notequal" unicode="&#x2260;" horiz-adv-x="591" 
d="M532 340h-166l-58 -126h224v-102h-272l-52 -112l-75 29l39 83h-113v102h160l59 126h-219v102h266l56 120l75 -30l-42 -90h118v-102z" />
    <glyph glyph-name="lessequal" unicode="&#x2264;" horiz-adv-x="587" 
d="M520 158l-460 201v84l460 205v-113l-309 -133l309 -133v-111zM521 0h-465v102h465v-102z" />
    <glyph glyph-name="greaterequal" unicode="&#x2265;" horiz-adv-x="586" 
d="M67 158v111l309 133l-309 133v113l460 -205v-84zM66 0v102h465v-102h-465z" />
    <glyph glyph-name="filledbox" unicode="&#x25a0;" horiz-adv-x="643" 
d="M45 0v551h552v-551h-552z" />
    <glyph glyph-name="uni25A1" unicode="&#x25a1;" horiz-adv-x="643" 
d="M45 0v551h552v-551h-552zM135 90h371v371h-371v-371z" />
    <glyph glyph-name="triagup" unicode="&#x25b2;" horiz-adv-x="642" 
d="M7 0l314 580l313 -580h-627z" />
    <glyph glyph-name="uni25B3" unicode="&#x25b3;" horiz-adv-x="642" 
d="M7 0l314 580l313 -580h-627zM158 90h325l-162 301z" />
    <glyph glyph-name="uni25B6" unicode="&#x25b6;" horiz-adv-x="637" 
d="M50 -38v627l579 -314z" />
    <glyph glyph-name="uni25B7" unicode="&#x25b7;" horiz-adv-x="637" 
d="M50 -38v627l579 -314zM140 113l300 162l-300 163v-325z" />
    <glyph glyph-name="triagdn" unicode="&#x25bc;" horiz-adv-x="642" 
d="M321 -28l-314 579h627z" />
    <glyph glyph-name="uni25BD" unicode="&#x25bd;" horiz-adv-x="642" 
d="M321 -28l-314 579h627zM321 161l162 300h-325z" />
    <glyph glyph-name="uni25C0" unicode="&#x25c0;" horiz-adv-x="637" 
d="M587 -38l-580 313l580 314v-627z" />
    <glyph glyph-name="uni25C1" unicode="&#x25c1;" horiz-adv-x="637" 
d="M587 -38l-580 313l580 314v-627zM497 113v325l-301 -163z" />
    <glyph glyph-name="uni25C6" unicode="&#x25c6;" horiz-adv-x="693" 
d="M347 -64l-340 339l340 340l339 -340z" />
    <glyph glyph-name="uni25C7" unicode="&#x25c7;" horiz-adv-x="693" 
d="M347 -64l-340 339l340 340l339 -340zM347 63l212 212l-212 213l-213 -213z" />
    <glyph glyph-name="lozenge" unicode="&#x25ca;" horiz-adv-x="495" 
d="M244 0l-203 338l203 339l210 -339zM245 177l90 161l-90 164l-88 -164z" />
    <glyph glyph-name="circle" unicode="&#x25cb;" horiz-adv-x="646" 
d="M323 -8q-117 0 -199.5 83t-82.5 200q0 118 82.5 201t199.5 83q116 0 198.5 -83t82.5 -201q0 -117 -82.5 -200t-198.5 -83zM323 86q77 0 132.5 55.5t55.5 133.5q0 79 -55.5 134.5t-132.5 55.5q-78 0 -133 -55.5t-55 -134.5q0 -78 55 -133.5t133 -55.5z" />
    <glyph glyph-name="uni25CF" unicode="&#x25cf;" horiz-adv-x="646" 
d="M323 -8q-117 0 -199.5 83t-82.5 200q0 118 82.5 201t199.5 83q116 0 198.5 -83t82.5 -201q0 -117 -82.5 -200t-198.5 -83z" />
    <glyph glyph-name="uni2605" unicode="&#x2605;" horiz-adv-x="756" 
d="M150 -37l87 267l-228 167h282l86 268l88 -268h282l-229 -167l88 -267l-229 165z" />
    <glyph glyph-name="uni2606" unicode="&#x2606;" horiz-adv-x="756" 
d="M150 -37l87 267l-228 167h282l86 268l88 -268h282l-229 -167l88 -267l-229 165zM281 137l96 71l98 -71l-37 113l100 73h-122l-38 114l-37 -114h-123l99 -73z" />
    <glyph glyph-name="uni2610" unicode="&#x2610;" horiz-adv-x="762" 
d="M45 0v551h552v-551h-552zM135 90h371v371h-371v-371z" />
    <glyph glyph-name="uni2713" unicode="&#x2713;" horiz-adv-x="627" 
d="M596 705l70 -57l-454 -571l-194 201l65 63l122 -128z" />
    <glyph glyph-name="uni2715" unicode="&#x2715;" horiz-adv-x="627" 
d="M179 67l-61 61l112 113l-113 113l62 60l111 -112l113 113l62 -61l-113 -115l113 -112l-61 -60l-112 111z" />
    <glyph glyph-name="uni2780" unicode="&#x2780;" horiz-adv-x="764" 
d="M382 -10q-148 0 -253 104.5t-105 252.5t105 253t253 105t253 -105t105 -253t-105 -252.5t-253 -104.5zM382 71q115 0 196 80.5t81 195.5t-81 196t-196 81t-196 -81t-81 -196t81 -195.5t196 -80.5zM349 143v295l-67 -46l-46 72l134 91h73v-412h-94z" />
    <glyph glyph-name="uni2781" unicode="&#x2781;" horiz-adv-x="764" 
d="M382 -10q-148 0 -253 104.5t-105 252.5t105 253t253 105t253 -105t105 -253t-105 -252.5t-253 -104.5zM382 71q115 0 196 80.5t81 195.5t-81 196t-196 81t-196 -81t-81 -196t81 -195.5t196 -80.5zM245 143l-2 63l134 132q54 54 54 88q0 47 -54 47q-44 0 -96 -41l-44 79
q72 50 147 50q71 0 108 -33t37 -94q0 -69 -74 -136l-75 -68l1 -2h152v-85h-288z" />
    <glyph glyph-name="uni2782" unicode="&#x2782;" horiz-adv-x="764" 
d="M382 -10q-148 0 -253 104.5t-105 252.5t105 253t253 105t253 -105t105 -253t-105 -252.5t-253 -104.5zM382 71q115 0 196 80.5t81 195.5t-81 196t-196 81t-196 -81t-81 -196t81 -195.5t196 -80.5zM384 136q-87 0 -147 41l43 79q46 -36 97 -36q63 0 63 47q0 52 -77 52h-27
v71h34q33 0 49 13.5t16 31.5q0 42 -57 42q-49 0 -91 -31l-41 75q69 40 141 40q62 0 100.5 -29t38.5 -80q0 -64 -57 -93v-2q68 -31 68 -104q0 -54 -38.5 -85.5t-114.5 -31.5z" />
    <glyph glyph-name="uni2783" unicode="&#x2783;" horiz-adv-x="764" 
d="M382 705q148 0 253 -105t105 -253t-105 -252.5t-253 -104.5t-253 104.5t-105 252.5t105 253t253 105zM382 71q115 0 196 80.5t81 195.5t-81 196t-196 81t-196 -81t-81 -196t81 -195.5t196 -80.5zM478 555v-262h57v-81h-57v-69h-93v69h-182v58l202 285h73zM295 285h103
v146z" />
    <glyph glyph-name="uni2784" unicode="&#x2784;" horiz-adv-x="764" 
d="M382 705q148 0 253 -105t105 -253t-105 -252.5t-253 -104.5t-253 104.5t-105 252.5t105 253t253 105zM382 71q115 0 196 80.5t81 195.5t-81 196t-196 81t-196 -81t-81 -196t81 -195.5t196 -80.5zM407 409q60 0 95.5 -36.5t35.5 -95.5q0 -65 -43 -103t-121 -38
q-80 0 -137 41l43 78q44 -36 92 -36q70 0 70 62q0 59 -66 59q-33 0 -72 -22l-45 16l17 221h240v-83h-166l-9 -74q35 11 66 11z" />
    <glyph glyph-name="uni2785" unicode="&#x2785;" horiz-adv-x="764" 
d="M382 705q148 0 253 -105t105 -253t-105 -252.5t-253 -104.5t-253 104.5t-105 252.5t105 253t253 105zM382 71q115 0 196 80.5t81 195.5t-81 196t-196 81t-196 -81t-81 -196t81 -195.5t196 -80.5zM396 409q64 0 101.5 -36t37.5 -100q0 -62 -43.5 -100t-108.5 -38
q-76 0 -118.5 53t-42.5 150q0 64 16 110t43.5 69.5t56.5 33.5t61 10q62 0 109 -22l-30 -78q-35 19 -79 19q-76 0 -87 -92l2 -1q38 22 82 22zM383 218q27 0 44.5 16.5t17.5 40.5q0 27 -17.5 43.5t-45.5 16.5q-43 0 -72 -35q10 -82 73 -82z" />
    <glyph glyph-name="uni2786" unicode="&#x2786;" horiz-adv-x="764" 
d="M382 -10q-148 0 -253 104.5t-105 252.5t105 253t253 105t253 -105t105 -253t-105 -252.5t-253 -104.5zM382 71q115 0 196 80.5t81 195.5t-81 196t-196 81t-196 -81t-81 -196t81 -195.5t196 -80.5zM286 143l137 326h-169v86h273v-63l-139 -349h-102z" />
    <glyph glyph-name="uni2787" unicode="&#x2787;" horiz-adv-x="764" 
d="M382 -10q-148 0 -253 104.5t-105 252.5t105 253t253 105t253 -105t105 -253t-105 -252.5t-253 -104.5zM382 71q115 0 196 80.5t81 195.5t-81 196t-196 81t-196 -81t-81 -196t81 -195.5t196 -80.5zM383 136q-75 0 -118 32.5t-43 88.5q0 37 20 65.5t51 40.5v2
q-20 10 -35.5 31.5t-15.5 49.5q0 54 40 84.5t101 30.5q63 0 101 -30.5t38 -84.5q0 -28 -15 -49.5t-34 -31.5v-2q32 -11 51.5 -39.5t19.5 -66.5q0 -56 -44 -88.5t-117 -32.5zM382 394q24 0 39.5 12.5t15.5 33.5q0 20 -15.5 32.5t-39.5 12.5q-23 0 -38.5 -13t-15.5 -32
q0 -21 15 -33.5t39 -12.5zM383 216q29 0 47 15t18 39q0 23 -18.5 39.5t-46.5 15.5q-29 -1 -47 -16.5t-18 -38.5q0 -24 18 -39t47 -15z" />
    <glyph glyph-name="uni2788" unicode="&#x2788;" horiz-adv-x="764" 
d="M382 705q148 0 253 -105t105 -253t-105 -252.5t-253 -104.5t-253 104.5t-105 252.5t105 253t253 105zM382 71q115 0 196 80.5t81 195.5t-81 196t-196 81t-196 -81t-81 -196t81 -195.5t196 -80.5zM387 561q76 0 118.5 -53t42.5 -150q0 -64 -16 -110t-43.5 -69.5
t-56.5 -33.5t-62 -10q-67 0 -116 24l26 83q37 -24 88 -24q78 0 91 91l-3 1q-37 -23 -84 -23q-62 0 -99.5 35t-37.5 96q0 65 43.5 104t108.5 39zM325 420q0 -26 17.5 -42.5t45.5 -16.5q44 0 72 36q-9 81 -73 81q-27 0 -44.5 -16.5t-17.5 -41.5z" />
    <glyph glyph-name="uni278A" unicode="&#x278a;" horiz-adv-x="764" 
d="M382 -10q-148 0 -253 104.5t-105 252.5t105 253t253 105t253 -105t105 -253t-105 -252.5t-253 -104.5zM349 143h94v412h-73l-134 -91l46 -72l67 46v-295z" />
    <glyph glyph-name="uni278B" unicode="&#x278b;" horiz-adv-x="764" 
d="M382 -10q-148 0 -253 104.5t-105 252.5t105 253t253 105t253 -105t105 -253t-105 -252.5t-253 -104.5zM245 143h288v85h-152l-1 2l75 68q74 67 74 136q0 61 -37 94t-108 33q-75 0 -147 -50l44 -79q52 41 96 41q54 0 54 -47q0 -34 -54 -88l-134 -132z" />
    <glyph glyph-name="uni278C" unicode="&#x278c;" horiz-adv-x="764" 
d="M382 -10q-148 0 -253 104.5t-105 252.5t105 253t253 105t253 -105t105 -253t-105 -252.5t-253 -104.5zM387 136q74 0 112 31.5t38 85.5q0 73 -68 104v2q57 29 57 92q0 52 -38.5 81t-100.5 29q-72 0 -141 -40l41 -75q42 31 91 31q57 0 57 -44q0 -17 -16 -30t-49 -13h-27
v-71h20q77 0 77 -51q0 -48 -59 -48q-54 0 -100 36l-43 -79q60 -41 149 -41z" />
    <glyph glyph-name="uni278D" unicode="&#x278d;" horiz-adv-x="764" 
d="M382 -10q-148 0 -253 104.5t-105 252.5t105 253t253 105t253 -105t105 -253t-105 -252.5t-253 -104.5zM381 143h93v69h57v81h-57v262h-73l-193 -285v-58h173v-69zM300 287l92 138v-138h-92z" />
    <glyph glyph-name="uni278E" unicode="&#x278e;" horiz-adv-x="764" 
d="M382 -10q-148 0 -253 104.5t-105 252.5t105 253t253 105t253 -105t105 -253t-105 -252.5t-253 -104.5zM383 136q72 0 113.5 38.5t41.5 103.5q0 58 -36 94t-97 36q-29 0 -64 -11l9 75h166v83h-240l-17 -221l45 -16q39 22 72 22q66 0 66 -61q0 -28 -17.5 -44t-50.5 -16
q-50 0 -94 36l-43 -78q57 -41 146 -41z" />
    <glyph glyph-name="uni278F" unicode="&#x278f;" horiz-adv-x="764" 
d="M382 -10q-148 0 -253 104.5t-105 252.5t105 253t253 105t253 -105t105 -253t-105 -252.5t-253 -104.5zM381 135q65 0 108.5 38t43.5 100q0 64 -37.5 100t-101.5 36q-46 0 -83 -24h-1q11 95 87 95q41 0 76 -17l30 77q-40 21 -106 21q-32 0 -61 -10t-56.5 -33.5
t-43.5 -69.5t-16 -110q0 -97 42.5 -150t118.5 -53zM381 218q-63 0 -73 82q29 35 72 35q28 0 45.5 -16.5t17.5 -43.5q0 -24 -17.5 -40.5t-44.5 -16.5z" />
    <glyph glyph-name="uni2790" unicode="&#x2790;" horiz-adv-x="764" 
d="M382 -10q-148 0 -253 104.5t-105 252.5t105 253t253 105t253 -105t105 -253t-105 -252.5t-253 -104.5zM286 143h102l139 349v63h-273v-86h169z" />
    <glyph glyph-name="uni2791" unicode="&#x2791;" horiz-adv-x="764" 
d="M382 -10q-148 0 -253 104.5t-105 252.5t105 253t253 105t253 -105t105 -253t-105 -252.5t-253 -104.5zM383 136q73 0 117 32.5t44 88.5q0 38 -19.5 66.5t-51.5 39.5v2q19 10 34 31.5t15 49.5q0 54 -38 84.5t-101 30.5q-61 0 -101 -30.5t-40 -84.5q0 -28 15.5 -49.5
t35.5 -31.5v-2q-31 -12 -51 -40.5t-20 -65.5q0 -56 43 -88.5t118 -32.5zM382 394q-24 0 -39 12.5t-15 33.5q0 19 15.5 32t38.5 13q24 0 39.5 -12.5t15.5 -32.5q0 -21 -15.5 -33.5t-39.5 -12.5zM383 216q-29 0 -47 15t-18 39q0 23 18 38.5t47 16.5q28 1 46.5 -15.5
t18.5 -39.5q0 -24 -18 -39t-47 -15z" />
    <glyph glyph-name="uni2792" unicode="&#x2792;" horiz-adv-x="764" 
d="M382 -10q-148 0 -253 104.5t-105 252.5t105 253t253 105t253 -105t105 -253t-105 -252.5t-253 -104.5zM370 135q33 0 62 10t56.5 33.5t43.5 69.5t16 110q0 97 -42.5 150t-118.5 53q-65 0 -108.5 -39t-43.5 -104q0 -61 37.5 -96t99.5 -35q46 0 86 24h2q-7 -43 -27.5 -68
t-64.5 -25q-51 0 -88 24l-26 -83q49 -24 116 -24zM388 361q-28 0 -45.5 16.5t-17.5 42.5q0 25 17.5 41.5t44.5 16.5q64 0 73 -81q-28 -36 -72 -36z" />
    <glyph glyph-name="uni2E18" unicode="&#x2e18;" horiz-adv-x="447" 
d="M266 347q-31 0 -53 22t-22 53t22 52.5t53 21.5q32 0 54 -21.5t22 -52.5t-22.5 -53t-53.5 -22zM363 -86l84 -78q-73 -92 -198 -92q-86 0 -146.5 50.5t-60.5 142.5q0 55 23 94.5t65 80.5q7 7 23.5 22t24.5 22.5t18 19.5t14.5 22.5t5.5 21.5l3 44h92l20 -334h-127l6 105
l-3 1q-39 -46 -39 -84q0 -48 24.5 -72.5t65.5 -24.5q29 0 58 16t47 43z" />
    <glyph glyph-name="u1F10B" unicode="&#x1f10b;" horiz-adv-x="764" 
d="M382 -10q-148 0 -253 104.5t-105 252.5t105 253t253 105t253 -105t105 -253t-105 -252.5t-253 -104.5zM382 71q115 0 196 80.5t81 195.5t-81 196t-196 81t-196 -81t-81 -196t81 -195.5t196 -80.5zM382 135q-83 0 -130.5 58t-47.5 156q0 100 49 157t129 57q82 0 129.5 -58
t47.5 -156q0 -100 -48.5 -157t-128.5 -57zM382 223q38 0 60 33t22 93t-22.5 93.5t-59.5 33.5q-39 0 -61 -33t-22 -94q0 -60 22.5 -93t60.5 -33z" />
    <glyph glyph-name="u1F10C" unicode="&#x1f10c;" horiz-adv-x="764" 
d="M382 -10q-148 0 -253 104.5t-105 252.5t105 253t253 105t253 -105t105 -253t-105 -252.5t-253 -104.5zM382 135q80 0 128.5 57t48.5 157q0 98 -47.5 156t-129.5 58q-80 0 -129 -57t-49 -157q0 -98 47.5 -156t130.5 -58zM382 223q-38 0 -60.5 33t-22.5 93q0 61 22 94
t61 33q37 0 59.5 -33.5t22.5 -93.5t-22 -93t-60 -33z" />
    <glyph glyph-name="uni00A40301" horiz-adv-x="535" 
d="M347 775l112 133h125l-126 -133h-111zM233 -6q-65 0 -126.5 25t-99.5 67l76 92q65 -73 144 -73q111 0 111 139v466h121v-465q0 -131 -55.5 -191t-170.5 -60z" />
    <glyph glyph-name="C.ita" horiz-adv-x="692" 
d="M358 -8q-132 0 -211.5 76.5t-79.5 220.5q0 180 103.5 304.5t266.5 124.5q166 0 242 -134l-94 -79q-54 101 -154 101q-106 0 -173.5 -93t-67.5 -214q0 -94 44.5 -144.5t129.5 -50.5q54 0 92.5 19t83.5 60l72 -90q-104 -101 -254 -101z" />
    <glyph glyph-name="I.ita" horiz-adv-x="311" 
d="M66 0l87 710h119l-87 -710h-119z" />
    <glyph glyph-name="i.loclTRK" horiz-adv-x="272" 
d="M136 560q-31 0 -53 22t-22 53q0 30 22 52t53 22t53.5 -22t22.5 -52q0 -31 -22.5 -53t-53.5 -22zM80 0v488h112v-488h-112z" />
    <glyph glyph-name="uni006A0301" horiz-adv-x="259" 
d="M74 565l115 144l123 1l-124 -145h-114zM55 -205q-53 0 -94 18l19 97q22 -14 51 -14q49 0 49 72v520h112v-525q0 -168 -137 -168z" />
    <glyph glyph-name="f.calt" horiz-adv-x="369" 
d="M97 0v393h-87v95h87v72q0 88 42.5 136t125.5 48q49 0 97 -17l-32 -91q-30 11 -56 11q-65 0 -65 -94v-65h136v-95h-136v-393h-112z" />
    <glyph glyph-name="j.calt" horiz-adv-x="259" 
d="M135 560q-31 0 -53 22t-22 53q0 30 22 52t53 22t53.5 -22t22.5 -52q0 -31 -22.5 -53t-53.5 -22zM56 -206q-32 0 -53 5l12 97q3 -1 23 -1q23 0 32.5 17t9.5 55v521h112v-521q0 -84 -37 -128.5t-99 -44.5z" />
    <glyph glyph-name="uni0237.calt" horiz-adv-x="259" 
d="M56 -206q-32 0 -53 5l12 97q3 -1 23 -1q23 0 32.5 17t9.5 55v521h112v-521q0 -84 -37 -128.5t-99 -44.5z" />
    <glyph glyph-name="jcircumflex.calt" horiz-adv-x="259" 
d="M-31 554l109 145h117l105 -145h-109l-54 77h-2l-55 -77h-111zM56 -206q-32 0 -53 5l12 97q3 -1 23 -1q23 0 32.5 17t9.5 55v521h112v-521q0 -84 -37 -128.5t-99 -44.5z" />
    <glyph glyph-name="germandbls.calt" horiz-adv-x="762" 
d="M523 421q102 -43 132 -63q84 -56 84 -161q0 -101 -63.5 -153t-169.5 -52q-132 0 -234 62l56 109q78 -59 172 -59q56 0 84.5 25t28.5 64t-32 63t-105 48q-44 15 -112 47l123 242l-1 4q-96 12 -139 12q-80 0 -117.5 -31t-38.5 -105v-473h-121l1 479q0 239 262 239
q119 0 321 -47z" />
    <glyph glyph-name="zero.tf" horiz-adv-x="586" 
d="M295 -8q-123 0 -195 92.5t-72 258.5q0 160 70 255.5t197 95.5q124 0 195.5 -92.5t71.5 -258.5q0 -159 -69.5 -255t-197.5 -96zM295 100q71 0 110 64t39 179t-39.5 179.5t-109.5 64.5t-109.5 -64.5t-39.5 -179.5q0 -113 40 -178t109 -65z" />
    <glyph glyph-name="one.tf" horiz-adv-x="586" 
d="M385 106h130v-106h-394v106h148v442l-144 -93l-56 86l222 146h94v-581z" />
    <glyph glyph-name="two.tf" horiz-adv-x="586" 
d="M80 0l-2 77l221 233q49 52 73 90t24 80q0 46 -29.5 75.5t-83.5 29.5q-78 0 -151 -67l-62 93q105 82 227 82q95 0 156 -54.5t61 -146.5q0 -114 -114 -232l-145 -151l1 -3h265v-106h-441z" />
    <glyph glyph-name="three.tf" horiz-adv-x="586" 
d="M287 -8q-139 0 -238 67l57 101q83 -62 178 -60q58 1 91.5 27t33.5 71q0 47 -33.5 77t-95.5 30h-65v98h76q51 0 75.5 26t24.5 65q0 43 -29.5 68t-84.5 25q-84 0 -149 -58l-62 93q95 72 219 72q99 0 161 -48t62 -134q0 -105 -91 -154v-3q110 -54 110 -169q0 -90 -61 -142
t-179 -52z" />
    <glyph glyph-name="four.tf" horiz-adv-x="586" 
d="M339 0v131h-317v79l336 477h97v-453h95v-103h-95v-131h-116zM155 227h193v272z" />
    <glyph glyph-name="five.tf" horiz-adv-x="586" 
d="M306 441q102 0 163.5 -59t61.5 -162q0 -108 -68 -168t-189 -60q-123 0 -222 67l58 102q83 -62 166 -62q63 0 100 34.5t37 87.5q0 56 -40.5 88.5t-97.5 32.5q-59 0 -129 -35l-57 30l20 350h388v-107h-279l-9 -156q45 17 97 17z" />
    <glyph glyph-name="six.tf" horiz-adv-x="586" 
d="M326 444q97 0 158.5 -59.5t61.5 -164.5q0 -103 -67.5 -165.5t-173.5 -62.5q-123 0 -192 87.5t-69 247.5q0 86 18 152t46.5 106t67.5 65.5t76.5 35t79.5 9.5q41 0 91 -10t78 -23l-46 -102q-57 29 -123 29q-148 0 -171 -201l3 -1q66 57 162 57zM305 100q55 0 89 33t34 86
q0 54 -34.5 87t-90.5 33q-44 0 -81 -22t-61 -55q10 -81 48.5 -121.5t95.5 -40.5z" />
    <glyph glyph-name="seven.tf" horiz-adv-x="586" 
d="M147 0l242 581h-307v106h437v-77l-247 -610h-125z" />
    <glyph glyph-name="eight.tf" horiz-adv-x="586" 
d="M292 -7q-116 0 -182 51.5t-66 144.5q0 67 32 114t84 68v2q-34 16 -59 55.5t-25 88.5q0 83 60 130t156 47q98 0 158 -48t60 -129q0 -50 -26 -90t-59 -54v-2q52 -20 85 -67t33 -115q0 -96 -67.5 -146t-183.5 -50zM292 418q48 0 76.5 23.5t28.5 62.5q0 40 -28.5 64t-76.5 24
q-47 0 -75.5 -24.5t-28.5 -63.5t28.5 -62.5t75.5 -23.5zM292 96q60 0 96 30t36 79q0 50 -36 81t-96 31q-59 0 -94.5 -31t-35.5 -81t36.5 -79.5t93.5 -29.5z" />
    <glyph glyph-name="nine.tf" horiz-adv-x="586" 
d="M279 695q122 0 190.5 -89t68.5 -256q0 -83 -18 -147.5t-47 -103.5t-69.5 -64t-79.5 -34t-83 -9q-103 0 -173 39l49 98q52 -31 116 -31q168 0 189 202l-3 1q-68 -58 -163 -58t-156.5 59t-61.5 162q0 105 67.5 168t173.5 63zM279 348q85 0 140 74q-12 83 -49.5 124
t-92.5 41q-53 0 -87 -33.5t-34 -86.5t34.5 -86t88.5 -33z" />
    <glyph glyph-name="zero.tf.zero" horiz-adv-x="586" 
d="M295 -8q-123 0 -195 92.5t-72 258.5q0 160 70 255.5t197 95.5q124 0 195.5 -92.5t71.5 -258.5q0 -159 -69.5 -255t-197.5 -96zM295 100q71 0 110 64t39 179t-39.5 179.5t-109.5 64.5t-109.5 -64.5t-39.5 -179.5q0 -113 40 -178t109 -65zM293 271q-28 0 -48 19.5t-20 46.5
q0 28 20 48t48 20t48 -20t20 -48q0 -27 -20 -46.5t-48 -19.5z" />
    <glyph glyph-name="zero.zero" horiz-adv-x="638" 
d="M319 -8q-123 0 -195 92.5t-72 258.5q0 160 70 255.5t197 95.5q124 0 195.5 -92.5t71.5 -258.5q0 -159 -69.5 -255t-197.5 -96zM319 100q71 0 110 64t39 179t-39.5 179.5t-109.5 64.5t-109.5 -64.5t-39.5 -179.5q0 -113 40 -178t109 -65zM317 271q-28 0 -48 19.5t-20 46.5
q0 28 20 48t48 20t48 -20t20 -48q0 -27 -20 -46.5t-48 -19.5z" />
    <glyph glyph-name="zero.dnom" horiz-adv-x="412" 
d="M206 -8q-83 0 -130.5 58t-47.5 156q0 100 49 157t129 57q82 0 129.5 -58t47.5 -156q0 -100 -48.5 -157t-128.5 -57zM206 80q38 0 60 33t22 93t-22.5 93.5t-59.5 33.5q-39 0 -61 -33t-22 -94q0 -60 22.5 -93t60.5 -33z" />
    <glyph glyph-name="one.dnom" horiz-adv-x="282" 
d="M131 0v295l-67 -46l-46 72l134 91h73v-412h-94z" />
    <glyph glyph-name="two.dnom" horiz-adv-x="344" 
d="M27 0l-2 63l134 132q54 54 54 88q0 47 -54 47q-44 0 -96 -41l-44 79q72 50 147 50q71 0 108 -33t37 -94q0 -69 -74 -136l-75 -68l1 -2h152v-85h-288z" />
    <glyph glyph-name="three.dnom" horiz-adv-x="351" 
d="M172 -7q-87 0 -147 41l43 79q46 -36 97 -36q63 0 63 47q0 52 -77 52h-27v71h34q33 0 49 13.5t16 31.5q0 42 -57 42q-49 0 -91 -31l-41 75q69 40 141 40q62 0 100.5 -29t38.5 -80q0 -64 -57 -93v-2q68 -31 68 -104q0 -54 -38.5 -85.5t-114.5 -31.5z" />
    <glyph glyph-name="four.dnom" horiz-adv-x="365" 
d="M286 150h57v-81h-57v-69h-93v69h-182v58l202 285h73v-262zM103 142h103v146z" />
    <glyph glyph-name="five.dnom" horiz-adv-x="351" 
d="M193 266q60 0 95.5 -36.5t35.5 -95.5q0 -65 -43 -103t-121 -38q-80 0 -137 41l43 78q44 -36 92 -36q70 0 70 62q0 59 -66 59q-33 0 -72 -22l-45 16l17 221h240v-83h-166l-9 -74q35 11 66 11z" />
    <glyph glyph-name="six.dnom" horiz-adv-x="364" 
d="M202 266q64 0 101.5 -36t37.5 -100q0 -62 -43.5 -100t-108.5 -38q-76 0 -118.5 53t-42.5 150q0 64 16 110t43.5 69.5t56.5 33.5t61 10q62 0 109 -22l-30 -78q-35 19 -79 19q-76 0 -87 -92l2 -1q38 22 82 22zM189 75q27 0 44.5 16.5t17.5 40.5q0 27 -17.5 43.5t-45.5 16.5
q-43 0 -72 -35q10 -82 73 -82z" />
    <glyph glyph-name="seven.dnom" horiz-adv-x="328" 
d="M59 0l137 326h-169v86h273v-63l-139 -349h-102z" />
    <glyph glyph-name="eight.dnom" horiz-adv-x="379" 
d="M190 -7q-75 0 -118 32.5t-43 88.5q0 37 20 65.5t51 40.5v2q-20 10 -35.5 31.5t-15.5 49.5q0 54 40 84.5t101 30.5q63 0 101 -30.5t38 -84.5q0 -28 -15 -49.5t-34 -31.5v-2q32 -11 51.5 -39.5t19.5 -66.5q0 -56 -44 -88.5t-117 -32.5zM189 251q24 0 39.5 12.5t15.5 33.5
q0 20 -15.5 32.5t-39.5 12.5q-23 0 -38.5 -13t-15.5 -32q0 -21 15 -33.5t39 -12.5zM190 73q29 0 47 15.5t18 38.5t-18.5 39.5t-46.5 15.5q-29 -1 -47 -16.5t-18 -38.5q0 -24 18 -39t47 -15z" />
    <glyph glyph-name="nine.dnom" horiz-adv-x="364" 
d="M175 418q76 0 118.5 -53t42.5 -150q0 -64 -16 -110t-43.5 -69.5t-56.5 -33.5t-62 -10q-67 0 -116 24l26 83q37 -24 88 -24q78 0 91 91l-3 1q-37 -23 -84 -23q-62 0 -99.5 35t-37.5 96q0 65 43.5 104t108.5 39zM113 277q0 -26 17.5 -42.5t45.5 -16.5q44 0 72 36
q-9 81 -73 81q-27 0 -44.5 -16.5t-17.5 -41.5z" />
    <glyph glyph-name="zero.numr" horiz-adv-x="412" 
d="M206 291q-83 0 -130.5 58t-47.5 156q0 100 49 157t129 57q82 0 129.5 -58t47.5 -156q0 -100 -48.5 -157t-128.5 -57zM206 379q38 0 60 33t22 93t-22.5 93.5t-59.5 33.5q-39 0 -61 -33t-22 -94q0 -60 22.5 -93t60.5 -33z" />
    <glyph glyph-name="one.numr" horiz-adv-x="282" 
d="M131 299v295l-67 -46l-46 72l134 91h73v-412h-94z" />
    <glyph glyph-name="two.numr" horiz-adv-x="344" 
d="M27 299l-2 63l134 132q54 54 54 88q0 47 -54 47q-44 0 -96 -41l-44 79q72 50 147 50q71 0 108 -33t37 -94q0 -69 -74 -136l-75 -68l1 -2h152v-85h-288z" />
    <glyph glyph-name="three.numr" horiz-adv-x="351" 
d="M172 292q-87 0 -147 41l43 79q46 -36 97 -36q63 0 63 47q0 52 -77 52h-27v71h34q33 0 49 13.5t16 31.5q0 42 -57 42q-49 0 -91 -31l-41 75q69 40 141 40q62 0 100.5 -29t38.5 -80q0 -64 -57 -93v-2q68 -31 68 -104q0 -54 -38.5 -85.5t-114.5 -31.5z" />
    <glyph glyph-name="four.numr" horiz-adv-x="365" 
d="M286 449h57v-81h-57v-69h-93v69h-182v58l202 285h73v-262zM103 441h103v146z" />
    <glyph glyph-name="five.numr" horiz-adv-x="351" 
d="M193 565q60 0 95.5 -36.5t35.5 -95.5q0 -65 -43 -103t-121 -38q-80 0 -137 41l43 78q44 -36 92 -36q70 0 70 62q0 59 -66 59q-33 0 -72 -22l-45 16l17 221h240v-83h-166l-9 -74q35 11 66 11z" />
    <glyph glyph-name="six.numr" horiz-adv-x="364" 
d="M202 566q64 0 101.5 -36t37.5 -100q0 -62 -43.5 -100t-108.5 -38q-76 0 -118.5 53t-42.5 150q0 64 16 110t43.5 69.5t56.5 33.5t61 10q62 0 109 -22l-30 -78q-35 19 -79 19q-76 0 -87 -92l2 -1q38 22 82 22zM189 375q27 0 44.5 16.5t17.5 40.5q0 27 -17.5 43.5
t-45.5 16.5q-43 0 -72 -35q10 -82 73 -82z" />
    <glyph glyph-name="seven.numr" horiz-adv-x="328" 
d="M59 299l137 326h-169v86h273v-63l-139 -349h-102z" />
    <glyph glyph-name="eight.numr" horiz-adv-x="379" 
d="M190 292q-75 0 -118 32.5t-43 88.5q0 37 20 65.5t51 40.5v2q-20 10 -35.5 31.5t-15.5 49.5q0 54 40 84.5t101 30.5q63 0 101 -30.5t38 -84.5q0 -28 -15 -49.5t-34 -31.5v-2q32 -11 51.5 -39.5t19.5 -66.5q0 -56 -44 -88.5t-117 -32.5zM189 550q24 0 39.5 12.5t15.5 33.5
q0 20 -15.5 32.5t-39.5 12.5q-23 0 -38.5 -13t-15.5 -32q0 -21 15 -33.5t39 -12.5zM190 372q29 0 47 15t18 39q0 23 -18.5 39.5t-46.5 15.5q-29 -1 -47 -16.5t-18 -38.5q0 -24 18 -39t47 -15z" />
    <glyph glyph-name="nine.numr" horiz-adv-x="364" 
d="M175 717q76 0 118.5 -53t42.5 -150q0 -64 -16 -110t-43.5 -69.5t-56.5 -33.5t-62 -10q-67 0 -116 24l26 83q37 -24 88 -24q78 0 91 91l-3 1q-37 -23 -84 -23q-62 0 -99.5 35t-37.5 96q0 65 43.5 104t108.5 39zM113 576q0 -26 17.5 -42.5t45.5 -16.5q44 0 72 36
q-9 81 -73 81q-27 0 -44.5 -16.5t-17.5 -41.5z" />
    <glyph glyph-name="bullet.case" horiz-adv-x="425" 
d="M213 228q-47 0 -79.5 32.5t-32.5 78.5q0 47 32.5 79.5t79.5 32.5t80 -33t33 -79t-33 -78.5t-80 -32.5z" />
    <glyph glyph-name="exclamdown.case" horiz-adv-x="270" 
d="M135 744q31 0 53 -21.5t22 -52.5t-22 -53t-53 -22t-53.5 22t-22.5 53t22 52.5t54 21.5zM94 512h87l20 -512h-127z" />
    <glyph glyph-name="periodcentered.loclCAT.case" horiz-adv-x="232" 
d="M76 265q-32 0 -54 21.5t-22 52.5t22.5 53t53.5 22t53 -22t22 -53t-22 -52.5t-53 -21.5z" />
    <glyph glyph-name="questiondown.case" horiz-adv-x="463" 
d="M266 744q32 0 54 -21.5t22 -52.5t-22.5 -53t-53.5 -22t-53 22t-22 53t22 52.5t53 21.5zM318 512v-50q0 -10 -1 -19.5t-5 -19.5t-6.5 -17t-9.5 -17.5l-10 -15t-13 -16t-12.5 -14t-14.5 -15t-14 -14.5q-31 -34 -47.5 -61.5t-16.5 -61.5q0 -42 25 -65t65 -23q29 0 58 16
t47 43l84 -78q-73 -92 -198 -92q-86 0 -146.5 50.5t-60.5 142.5q0 89 88 175q7 7 23.5 22t24.5 22.5t18 19.5t14.5 22.5t5.5 21.5l3 44h99z" />
    <glyph glyph-name="uni2E18.case" horiz-adv-x="463" 
d="M266 595q-31 0 -53 22t-22 53t22 52.5t53 21.5q32 0 54 -21.5t22 -52.5t-22.5 -53t-53.5 -22zM363 162l84 -78q-73 -92 -198 -92q-86 0 -146.5 50.5t-60.5 142.5q0 55 23 94.5t65 80.5q7 7 23.5 22t24.5 22.5t18 19.5t14.5 22.5t5.5 21.5l3 44h92l20 -334h-127l6 105
l-3 1q-39 -46 -39 -84q0 -48 24.5 -72.5t65.5 -24.5q29 0 58 16t47 43z" />
    <glyph glyph-name="periodcentered.loclCAT" horiz-adv-x="153" 
d="M76 221q-32 0 -54 21.5t-22 52.5t22.5 53t53.5 22t53 -22t22 -53t-22 -52.5t-53 -21.5z" />
    <glyph glyph-name="colon.tf" horiz-adv-x="293" 
d="M147 346q-32 0 -54 21.5t-22 52.5t22.5 53t53.5 22t53 -22t22 -53t-22 -52.5t-53 -21.5zM147 -8q-32 0 -54 21.5t-22 52.5t22.5 53t53.5 22t53 -22t22 -53t-22 -52.5t-53 -21.5z" />
    <glyph glyph-name="comma.tf" horiz-adv-x="293" 
d="M72 -132l32 253h120l-70 -253h-82z" />
    <glyph glyph-name="numbersign.tf" horiz-adv-x="586" 
d="M94 -19l31 194h-101v84h114l22 147h-113v84h126l29 187h78l-30 -187h133l29 187h77l-29 -187h105l-1 -84h-117l-22 -147h116l-1 -84h-128l-30 -194h-77l29 194h-131l-31 -194h-78zM215 259h133l22 147h-132z" />
    <glyph glyph-name="period.tf" horiz-adv-x="293" 
d="M147 -8q-32 0 -54 21.5t-22 52.5t22.5 53t53.5 22t53 -22t22 -53t-22 -52.5t-53 -21.5z" />
    <glyph glyph-name="braceleft.case" horiz-adv-x="330" 
d="M246 -100q-49 0 -81.5 33.5t-32.5 88.5v194q0 19 -1.5 29t-9 23t-25 18.5t-46.5 6.5v86q29 1 47 8t25 20t8.5 23t1.5 27v199q0 52 31.5 87t82.5 35h66v-77h-23q-31 0 -45.5 -20.5t-14.5 -45.5v-193q0 -45 -12.5 -69.5t-42.5 -34.5v-2q32 -11 43.5 -31t11.5 -74v-181
q0 -38 13 -55.5t47 -17.5h23v-77h-66z" />
    <glyph glyph-name="braceright.case" horiz-adv-x="330" 
d="M84 -100h-66v77h23q34 0 47 17.5t13 55.5v181q0 54 11.5 74t43.5 31v2q-30 10 -42.5 34.5t-12.5 69.5v193q0 25 -14.5 45.5t-45.5 20.5h-23v77h66q51 0 82.5 -35t31.5 -87v-199q0 -17 1.5 -27t8.5 -23t25 -20t47 -8v-86q-29 -1 -46.5 -6.5t-25 -18.5t-9 -23t-1.5 -29
v-194q0 -55 -32.5 -88.5t-81.5 -33.5z" />
    <glyph glyph-name="bracketleft.case" horiz-adv-x="301" 
d="M59 -103v879h224v-86h-125v-706h125v-87h-224z" />
    <glyph glyph-name="bracketright.case" horiz-adv-x="301" 
d="M242 -103h-224v87h125v706h-125v86h224v-879z" />
    <glyph glyph-name="parenleft.case" horiz-adv-x="282" 
d="M172 -109q-117 194 -117 449q0 265 120 451l85 -39q-101 -183 -101 -412q0 -218 99 -411z" />
    <glyph glyph-name="parenright.case" horiz-adv-x="282" 
d="M110 -109l-86 38q99 193 99 411q0 229 -101 412l85 39q120 -186 120 -451q0 -255 -117 -449z" />
    <glyph glyph-name="emdash.case" horiz-adv-x="1023" 
d="M44 274v100h934v-100h-934z" />
    <glyph glyph-name="endash.case" horiz-adv-x="556" 
d="M44 274v100h467v-100h-467z" />
    <glyph glyph-name="uni2015.case" horiz-adv-x="1182" 
d="M44 274v100h1093v-100h-1093z" />
    <glyph glyph-name="hyphen.case" horiz-adv-x="378" 
d="M44 282v104h289v-104h-289z" />
    <glyph glyph-name="hyphen.tf" horiz-adv-x="586" 
d="M56 226v102h473v-102h-473z" />
    <glyph glyph-name="guillemotleft.case" horiz-adv-x="501" 
d="M274 77h-112l-121 213l123 217h111l-123 -217zM465 77h-112l-121 213l123 217h111l-123 -217z" />
    <glyph glyph-name="guillemotright.case" horiz-adv-x="501" 
d="M36 77l122 213l-123 217h111l123 -217l-121 -213h-112zM227 77l122 213l-123 217h111l123 -217l-121 -213h-112z" />
    <glyph glyph-name="cent.tf" horiz-adv-x="586" 
d="M525 132q-60 -68 -168 -83v-97h-81v96q-96 11 -156 79.5t-60 169.5t59 168.5t157 80.5v97h81v-96q106 -15 166 -89l-76 -65q-50 55 -125 55q-66 0 -107 -41.5t-41 -107.5t41 -108.5t107 -42.5q78 0 126 53z" />
    <glyph glyph-name="dollar.tf" horiz-adv-x="586" 
d="M533 190q0 -80 -52 -131.5t-142 -60.5v-120h-88v120q-118 11 -197 74l60 99q72 -66 192 -66q45 0 72.5 20.5t27.5 55.5q0 38 -28.5 59t-98.5 43q-51 16 -81.5 28.5t-64.5 34.5t-50 55t-16 77q0 76 49 127t135 60v126h88v-127q104 -10 176 -66l-67 -93q-71 51 -160 51
q-44 0 -69.5 -18.5t-25.5 -51.5t28 -52t92 -39q59 -19 91 -32t66 -36.5t48.5 -56.5t14.5 -80z" />
    <glyph glyph-name="dong.tf" horiz-adv-x="586" 
d="M265 -8q-105 0 -170.5 68.5t-65.5 181.5q0 111 65.5 182t169.5 71q91 0 145 -65l2 1v131h-108v76h108v98h112v-98h52v-76h-52v-562h-107v62l-2 1q-54 -71 -149 -71zM283 94q54 0 93.5 41.5t39.5 105.5q0 65 -38.5 109t-94.5 44q-62 0 -101 -41.5t-39 -111.5
q0 -65 38 -106t102 -41zM59 -161v103h463v-103h-463z" />
    <glyph glyph-name="Euro.tf" horiz-adv-x="586" 
d="M510 140l65 -87q-87 -60 -191 -60q-110 0 -193.5 58.5t-111.5 178.5h-68v79h57q-1 10 -1 32q0 24 1 36h-57v79h69q27 112 106 174t198 62q102 0 186 -58l-68 -86q-54 37 -118 37q-62 0 -109 -32.5t-69 -96.5h248v-79h-264q-1 -11 -1 -36q0 -22 1 -32h264v-79h-249
q22 -65 70 -97t109 -32q71 0 126 39z" />
    <glyph glyph-name="florin.tf" horiz-adv-x="586" 
d="M170 -143q-97 0 -143 42l36 79q40 -20 80 -20q71 0 76 91l19 325h-75l7 95h76l6 109q10 166 164 166q91 0 143 -42l-36 -79q-41 19 -81 19q-71 0 -76 -91l-4 -82h138l-6 -95h-140l-21 -351q-9 -166 -163 -166z" />
    <glyph glyph-name="uni20BA.tf" horiz-adv-x="586" 
d="M476 252l97 -38q-43 -117 -107.5 -165.5t-161.5 -48.5h-189v186l-70 -35l-32 71l102 50v69l-70 -35l-31 70l101 50v261h121v-201l161 80l31 -71l-192 -95v-68l161 80l31 -71l-192 -95v-148h55q72 0 112.5 34t72.5 120z" />
    <glyph glyph-name="peseta.tf" horiz-adv-x="586" 
d="M564 501v-79h-49q-22 -178 -239 -178h-79v-244h-120v422h-55v79h55v186h213q102 0 159 -49.5t67 -136.5h48zM197 582v-81h199q-21 81 -115 81h-84zM283 345q96 0 114 77h-200v-77h86z" />
    <glyph glyph-name="uni20B1.tf" horiz-adv-x="586" 
d="M564 553v-71h-46v-18v-15h46v-71h-58q-42 -134 -230 -134h-79v-244h-120v378h-55v71h55v33h-55v71h55v134h213q169 0 215 -134h59zM295 582h-98v-35h187q-25 35 -89 35zM197 482v-33h208v10q0 16 -1 23h-207zM297 345q70 0 94 39h-194v-39h100z" />
    <glyph glyph-name="sterling.tf" horiz-adv-x="586" 
d="M46 0v108h71v209h-58v82h58v59q0 120 57.5 177.5t147.5 57.5q119 0 191 -92l-78 -76q-42 56 -97 56q-102 0 -102 -136v-46h162v-82h-160v-209h301v-108h-493z" />
    <glyph glyph-name="yen.tf" horiz-adv-x="586" 
d="M561 686l-168 -322h113v-79h-152v-60h152v-78h-152v-147h-122v147h-160v78h160v60h-160v79h121l-169 323h140l128 -277h2l127 277z" />
    <glyph glyph-name="uni20B9.tf" horiz-adv-x="586" 
d="M535 599h-141v-1q29 -29 41 -70h100v-88h-95q-20 -151 -214 -172v-2l291 -266h-156l-303 278v88h127q105 0 126 74h-253v88h252q-25 71 -116 71h-136v88h477v-88z" />
    <glyph glyph-name="plus.case" horiz-adv-x="578" 
d="M237 92v184h-185v102h185v185h103v-185h185v-102h-185v-184h-103z" />
    <glyph glyph-name="plus.tf" horiz-adv-x="586" 
d="M241 42v184h-185v102h185v185h103v-185h185v-102h-185v-184h-103z" />
    <glyph glyph-name="multiply.tf" horiz-adv-x="586" 
d="M153 66l-72 71l141 140l-141 140l71 72l140 -141l141 141l72 -71l-141 -142l140 -140l-71 -70l-140 140z" />
    <glyph glyph-name="divide.tf" horiz-adv-x="586" 
d="M290 396q-31 0 -53 22t-22 53q0 30 22 52t53 22t53.5 -22t22.5 -52q0 -31 -22.5 -53t-53.5 -22zM57 226v102h473v-102h-473zM290 -3q-31 0 -53 22t-22 53q0 30 22 52t53 22t53.5 -22t22.5 -52q0 -31 -22.5 -53t-53.5 -22z" />
    <glyph glyph-name="equal.tf" horiz-adv-x="586" 
d="M57 340v102h473v-102h-473zM57 112v102h473v-102h-473z" />
    <glyph glyph-name="notequal.tf" horiz-adv-x="586" 
d="M530 340h-166l-58 -126h224v-102h-272l-52 -112l-75 29l39 83h-113v102h160l59 126h-219v102h266l56 120l75 -30l-42 -90h118v-102z" />
    <glyph glyph-name="greater.tf" horiz-adv-x="586" 
d="M63 31v111l309 133l-309 133v113l460 -205v-84z" />
    <glyph glyph-name="less.tf" horiz-adv-x="586" 
d="M523 31l-460 201v84l460 205v-113l-309 -133l309 -133v-111z" />
    <glyph glyph-name="greaterequal.tf" horiz-adv-x="586" 
d="M64 158v111l309 133l-309 133v113l460 -205v-84zM63 0v102h465v-102h-465z" />
    <glyph glyph-name="lessequal.tf" horiz-adv-x="586" 
d="M521 158l-460 201v84l460 205v-113l-309 -133l309 -133v-111zM522 0h-465v102h465v-102z" />
    <glyph glyph-name="approxequal.tf" horiz-adv-x="586" 
d="M407 313q-33 0 -99 24.5t-105 24.5q-59 0 -118 -39l-32 78q18 19 57.5 40t81.5 21t106 -24.5t97 -24.5q54 0 104 44l34 -79q-56 -65 -126 -65zM407 93q-33 0 -99 24.5t-105 24.5q-59 0 -118 -39l-32 77q17 19 56.5 40.5t82.5 21.5t106.5 -25t96.5 -25q55 0 104 45l34 -80
q-55 -64 -126 -64z" />
    <glyph glyph-name="uni2236.tf" horiz-adv-x="293" 
d="M147 404q-32 0 -54 21.5t-22 52.5t22.5 53t53.5 22t53 -22t22 -53t-22 -52.5t-53 -21.5zM147 50q-32 0 -54 21.5t-22 52.5t22.5 53t53.5 22t53 -22t22 -53t-22 -52.5t-53 -21.5z" />
    <glyph glyph-name="at.case" horiz-adv-x="896" 
d="M423 -73q-166 0 -272 106t-106 278q0 56 14 112.5t47.5 113t82 99t125 69.5t169.5 27q168 0 270 -103t102 -262q0 -39 -10 -79t-33 -81t-68 -67t-106 -26q-59 0 -87 33q-15 20 -22 48h-3q-44 -71 -132 -71q-74 0 -120.5 52.5t-46.5 137.5q0 35 10.5 72.5t31.5 74.5
t60.5 61t89.5 24q82 0 121 -71l2 1l7 63h114l-27 -262q-1 -10 -1 -25q0 -29 9 -39.5t28 -10.5q43 0 69.5 55t26.5 109q0 121 -79 203.5t-207 82.5q-85 0 -153.5 -29.5t-110.5 -79t-64 -109.5t-22 -124q0 -122 78.5 -211t212.5 -89q106 0 199 51l37 -61q-94 -73 -236 -73z
M428 225q48 0 79 37t31 86q0 42 -24.5 69.5t-60.5 27.5q-49 0 -80.5 -35.5t-31.5 -85.5q0 -44 24.5 -71.5t62.5 -27.5z" />
    <glyph glyph-name="degree.tf" horiz-adv-x="586" 
d="M210 441q-58 0 -99.5 40.5t-41.5 97.5q0 56 42.5 97.5t98.5 41.5q57 0 99 -41.5t42 -98.5q0 -56 -41.5 -96.5t-99.5 -40.5zM210 515q27 0 45.5 18.5t18.5 45.5t-19 46t-45 19t-45.5 -19.5t-19.5 -45.5q0 -27 19 -45.5t46 -18.5z" />
    <glyph glyph-name="caroncomb.alt" 
d="M-216 583l30 198h108l-58 -198h-80z" />
    <glyph glyph-name="uni0308.case" 
d="M-356 526q-31 0 -52.5 22t-21.5 52q0 29 21.5 50.5t52.5 21.5t53 -22t22 -51q0 -30 -22 -51.5t-53 -21.5zM-157 526q-31 0 -52.5 22t-21.5 52q0 29 21.5 50.5t52.5 21.5t53 -22t22 -51q0 -30 -22 -51.5t-53 -21.5z" />
    <glyph glyph-name="uni0307.case" 
d="M-249 524q-31 0 -53 22t-22 53q0 30 22 52t53 22t53.5 -22t22.5 -52q0 -31 -22.5 -53t-53.5 -22z" />
    <glyph glyph-name="gravecomb.case" 
d="M-500 526l-126 133h125l112 -133h-111z" />
    <glyph glyph-name="acutecomb.case" 
d="M-601 526l112 133h125l-126 -133h-111z" />
    <glyph glyph-name="uni030B.case" 
d="M-648 526l115 144l114 1l-124 -145h-105zM-457 526l114 144l114 1l-124 -145h-104z" />
    <glyph glyph-name="uni0302.case" 
d="M-669 526l111 133h117l108 -133h-109l-57 71h-2l-57 -71h-111z" />
    <glyph glyph-name="uni030C.case" 
d="M-561 526l-108 133h109l57 -71h2l57 71h111l-111 -133h-117z" />
    <glyph glyph-name="uni0306.case" 
d="M-500 519q-70 0 -110.5 38t-45.5 102h88q2 -24 19.5 -39t48.5 -15q30 0 48 15.5t20 38.5h88q-5 -64 -45.5 -102t-110.5 -38z" />
    <glyph glyph-name="uni030A.case" 
d="M-501 499q-44 0 -76 30.5t-32 74.5t30.5 74.5t77.5 30.5q45 0 77 -30t32 -75q0 -44 -31 -74.5t-78 -30.5zM-501 567q16 0 27.5 11t11.5 27t-11.5 27t-27.5 11t-27 -11.5t-11 -26.5q0 -16 11 -27t27 -11z" />
    <glyph glyph-name="tildecomb.case" 
d="M-422 526q-34 0 -84 29q-42 24 -63 24q-33 0 -54 -52l-68 31q36 103 114 103q38 0 89 -29q42 -24 59 -24q30 0 51 52l68 -23q-33 -111 -112 -111z" />
    <glyph glyph-name="uni0304.case" 
d="M-649 548v89h298v-89h-298z" />
    <glyph glyph-name="hookabovecomb.case" 
d="M-540 526q25 18 36 26.5t22.5 22t11.5 24.5q0 20 -29 20q-33 0 -89 -32l-26 58q54 47 142 47q42 0 68 -20t26 -58q0 -56 -80 -88h-82z" />
    <glyph glyph-name="dieresis.short" horiz-adv-x="515" 
d="M171 542q-32 0 -54 22t-22 53q0 30 22 52t54 22q31 0 53 -22t22 -52q0 -31 -22 -53t-53 -22zM347 544q-31 0 -53 21.5t-22 51.5q0 29 22 51t53 22q30 0 52 -22t22 -51q0 -30 -22 -51.5t-52 -21.5z" />
    <glyph glyph-name="tilde.short" horiz-adv-x="495" 
d="M135 540l-68 31q34 104 107 104q36 0 77 -24q42 -25 57 -25q36 0 57 52l68 -23q-34 -113 -111 -113q-34 0 -80 28q-41 24 -59 22q-30 -4 -48 -52z" />
    <glyph glyph-name="uni03060301" 
d="M-547 692l83 145h123l-123 -145h-83zM-500 530q-71 0 -111 39.5t-45 109.5h88q2 -26 20 -44.5t48 -18.5t48 18.5t20 44.5h88q-5 -70 -45 -109.5t-111 -39.5z" />
    <glyph glyph-name="uni03060300" 
d="M-536 692l-123 145h123l83 -145h-83zM-500 530q-71 0 -111 39.5t-45 109.5h88q2 -26 20 -44.5t48 -18.5t48 18.5t20 44.5h88q-5 -70 -45 -109.5t-111 -39.5z" />
    <glyph glyph-name="uni03060309" 
d="M-545 679q68 49 66 82q0 20 -27 20q-36 0 -84 -32l-24 55q50 50 134 50q40 0 64.5 -19.5t24.5 -58.5q0 -32 -24 -58.5t-52 -38.5h-78zM-500 532q-74 0 -115.5 37t-46.5 103h91q2 -25 20.5 -42t50.5 -17t50.5 17t20.5 42h91q-5 -66 -46.5 -103t-115.5 -37z" />
    <glyph glyph-name="uni03060303" 
d="M-613 719l-68 31q34 104 107 104q36 0 77 -24q42 -25 57 -25q36 0 57 52l68 -23q-34 -113 -111 -113q-34 0 -80 28q-41 24 -59 22q-30 -4 -48 -52zM-501 530q-71 0 -111 39.5t-45 109.5h88q2 -26 20 -44.5t48 -18.5t48 18.5t20 44.5h88q-5 -70 -45 -109.5t-111 -39.5z
" />
    <glyph glyph-name="uni03020301" 
d="M-364 627l83 145h123l-123 -145h-83zM-665 536l109 145h117l105 -145h-109l-54 77h-2l-55 -77h-111z" />
    <glyph glyph-name="uni03020300" 
d="M-336 627l-123 145h123l83 -145h-83zM-665 536l109 145h117l105 -145h-109l-54 77h-2l-55 -77h-111z" />
    <glyph glyph-name="uni03020309" 
d="M-351 637q68 49 66 82q0 20 -27 20q-36 0 -84 -32l-24 55q50 50 134 50q40 0 64.5 -19.5t24.5 -58.5q0 -32 -24 -58.5t-52 -38.5h-78zM-666 536l109 145h117l105 -145h-109l-54 77h-2l-55 -77h-111z" />
    <glyph glyph-name="uni03020303" 
d="M-611 722l-68 31q34 104 107 104q36 0 77 -24q42 -25 57 -25q36 0 57 52l68 -23q-34 -113 -111 -113q-34 0 -80 28q-41 24 -59 22q-30 -4 -48 -52zM-665 536l109 145h117l105 -145h-109l-54 77h-2l-55 -77h-111z" />
    <glyph glyph-name="uni03060301.case" 
d="M-540 647l82 135h123l-122 -135h-83zM-500 516q-74 0 -117 35t-48 94h93q2 -22 20.5 -35.5t51.5 -13.5q32 0 51 14t21 35h93q-5 -59 -48 -94t-117 -35z" />
    <glyph glyph-name="uni03060300.case" 
d="M-563 647l-122 135h123l82 -135h-83zM-530 516q-74 0 -117 35t-48 94h93q2 -22 20.5 -35.5t51.5 -13.5q32 0 51 14t21 35h93q-5 -59 -48 -94t-117 -35z" />
    <glyph glyph-name="uni03060309.case" 
d="M-578 640q50 38 59 52q4 8 4 14q0 18 -26 18q-32 0 -80 -29l-24 52q48 43 128 43q38 0 61.5 -18t23.5 -52q0 -50 -72 -80h-74zM-530 516q-74 0 -117 35t-48 94h93q2 -22 20.5 -35.5t51.5 -13.5q32 0 51 14t21 35h93q-5 -59 -48 -94t-117 -35z" />
    <glyph glyph-name="uni03060303.case" 
d="M-428 665q-31 0 -79 27q-39 22 -59 22q-30 0 -51 -48l-64 29q34 96 108 96q36 0 83 -27q42 -23 56 -23q28 0 48 49l64 -22q-32 -103 -106 -103zM-500 516q-74 0 -117 35t-48 94h93q2 -22 20.5 -35.5t51.5 -13.5q32 0 51 14t21 35h93q-5 -59 -48 -94t-117 -35z" />
    <glyph glyph-name="uni03020301.case" 
d="M-347 582l82 135h123l-122 -135h-83zM-669 526l111 133h117l108 -133h-109l-57 71h-2l-57 -71h-111z" />
    <glyph glyph-name="uni03020300.case" 
d="M-296 581l-122 135h123l82 -135h-83zM-669 526l111 133h117l108 -133h-109l-57 71h-2l-57 -71h-111z" />
    <glyph glyph-name="uni03020309.case" 
d="M-338 591q50 38 59 52q4 7 4 14q0 18 -26 18q-32 0 -80 -29l-24 52q48 43 128 43q38 0 61.5 -18t23.5 -52q0 -50 -72 -80h-74zM-669 526l111 133h117l108 -133h-109l-57 71h-2l-57 -71h-111z" />
    <glyph glyph-name="uni03020303.case" 
d="M-427 681q-31 0 -79 27q-38 22 -59 22q-30 0 -51 -48l-64 29q34 96 108 96q36 0 83 -27q42 -23 56 -23q28 0 48 49l64 -22q-32 -103 -106 -103zM-669 526l111 133h117l108 -133h-109l-57 71h-2l-57 -71h-111z" />
    <glyph glyph-name="_slashshortcomb.case" horiz-adv-x="579" 
d="M21 239v98l311 135v-100z" />
    <glyph glyph-name="NULL" 
 />
    <glyph glyph-name="KB" horiz-adv-x="924" 
d="M473 -1q-94 0 -160 36.5t-94 94.5l21 9q71 -94 200 -94q53 0 87.5 25t34.5 76q0 43 -43.5 86t-117.5 71q-14 -51 -19 -74q42 -7 71 -17l-5 -36h-248l-1 34q49 34 98 50l73 382l-65 19l-2 30q47 29 117 29l70 -35l-63 -194l-66 -189l10 -2q35 131 90.5 187.5t130.5 56.5
q56 0 89 -24t33 -74q0 -60 -49 -98t-146 -38q-37 0 -69 4v-9q51 -6 86.5 -13.5t79.5 -24t67.5 -45.5t23.5 -69q0 -67 -62 -110.5t-172 -43.5zM410 330q90 3 131.5 40.5t41.5 83.5q0 21 -11 35.5t-30 14.5q-26 0 -63.5 -42.5t-68.5 -131.5z" />
    </font>
</defs>
</svg>
