<?xml version="1.0" standalone="no"?>
<!DOCTYPE svg PUBLIC "-//W3C//DTD SVG 1.1//EN" "http://www.w3.org/Graphics/SVG/1.1/DTD/svg11.dtd" >
<svg xmlns="http://www.w3.org/2000/svg" xmlns:xlink="http://www.w3.org/1999/xlink" version="1.1">
<metadata>
Created by FontForge 20190801 at Mon Sep 18 11:15:53 2017
 By www-data
Copyright (c) 2017 by Kostas Bartsokas. All rights reserved.
</metadata>
<defs>
<font id="CWCMediumItalic" horiz-adv-x="0" >
  <font-face 
    font-family="CWCMediumItalic"
    font-weight="600"
    font-style="italic"
    font-stretch="normal"
    units-per-em="1000"
    panose-1="0 0 7 0 0 0 0 0 0 0"
    ascent="800"
    descent="-200"
    x-height="488"
    cap-height="710"
    bbox="-716 -370 1273 1051"
    underline-thickness="49"
    underline-position="-84"
    slope="-7"
    unicode-range="U+000D-1F10C"
  />
<missing-glyph horiz-adv-x="404" 
 />
    <glyph glyph-name=".notdef" horiz-adv-x="404" 
 />
    <glyph glyph-name=".null" 
 />
    <glyph glyph-name="nonmarkingreturn" horiz-adv-x="333" 
 />
    <glyph glyph-name="CR" unicode="&#xd;" 
 />
    <glyph glyph-name="space" unicode=" " horiz-adv-x="203" 
 />
    <glyph glyph-name="exclam" unicode="!" horiz-adv-x="274" 
d="M100 223l42 513h121l-83 -513h-80zM125 -8q-31 0 -51 20.5t-20 50.5q0 32 21 53.5t53 21.5q31 0 51.5 -20.5t20.5 -51.5q0 -32 -21.5 -53t-53.5 -21z" />
    <glyph glyph-name="quotedbl" unicode="&#x22;" horiz-adv-x="377" 
d="M60 458l59 252h117l-89 -252h-87zM225 458l59 252h117l-89 -252h-87z" />
    <glyph glyph-name="numbersign" unicode="#" horiz-adv-x="591" 
d="M74 -40l51 195h-97l10 82h110l38 148h-107l9 83h121l48 188h77l-48 -188h127l48 188h77l-48 -188h100l-10 -83h-114l-37 -148h110l-11 -82h-123l-50 -195h-77l51 195h-127l-50 -195h-78zM225 237h128l36 148h-126z" />
    <glyph glyph-name="dollar" unicode="$" horiz-adv-x="538" 
d="M307 396q13 -8 42.5 -24.5t43.5 -25t35.5 -26t32 -33.5t18.5 -40t8 -52q0 -89 -57.5 -142t-147.5 -59l-14 -116h-82l15 119q-122 19 -173 102l76 84q21 -36 67.5 -59.5t92.5 -23.5t74.5 24.5t28.5 60.5q0 14 -4 24t-17 20.5t-21 16t-32.5 19t-36.5 20.5q-3 2 -25 14.5
t-27 16t-23.5 15.5t-24.5 18.5t-20 18.5t-19 22.5t-12.5 24.5t-10 29t-2.5 32q0 78 52 129.5t132 61.5l15 124h82l-15 -125q112 -16 169 -88l-81 -78q-26 36 -65.5 50t-72.5 14q-43 0 -69.5 -21.5t-25.5 -53.5q1 -18 14 -34t27 -25.5t53 -33.5z" />
    <glyph glyph-name="percent" unicode="%" horiz-adv-x="884" 
d="M215 0l-68 57l561 645l68 -57zM230 332q-72 0 -118 43t-46 114q0 85 59 145.5t148 60.5q70 0 117 -43.5t47 -113.5q0 -84 -59.5 -145t-147.5 -61zM241 417q44 0 74 32t30 76q0 37 -23.5 60.5t-59.5 23.5q-42 0 -71.5 -32.5t-29.5 -78.5q0 -35 22.5 -58t57.5 -23zM634 -8
q-72 0 -118 43t-46 114q0 85 59 145.5t148 60.5q70 0 117 -43.5t47 -113.5q0 -84 -59.5 -145t-147.5 -61zM645 77q44 0 74 32t30 76q0 37 -23.5 60.5t-59.5 23.5q-42 0 -71.5 -32.5t-29.5 -78.5q0 -35 22.5 -58t57.5 -23z" />
    <glyph glyph-name="ampersand" unicode="&#x26;" horiz-adv-x="741" 
d="M251 -8q-94 0 -149.5 51t-55.5 136q0 70 37.5 130t106.5 91q-50 45 -50 117q0 89 60 145t153 56q56 0 103.5 -19.5t72.5 -58.5l-84 -74q-33 54 -93 54q-42 0 -70 -27.5t-28 -72.5q0 -34 18 -56t54 -22h412l-12 -98h-152q-20 -158 -103 -255t-220 -97zM262 97
q81 0 136.5 74t68.5 173h-144q-69 0 -113 -49t-44 -108q0 -41 25 -65.5t71 -24.5z" />
    <glyph glyph-name="quotesingle" unicode="'" horiz-adv-x="211" 
d="M60 458l59 252h117l-89 -252h-87z" />
    <glyph glyph-name="parenleft" unicode="(" horiz-adv-x="298" 
d="M116 -156q-60 138 -60 316q0 159 45.5 313.5t128.5 269.5l77 -34q-71 -113 -109.5 -253.5t-38.5 -280.5q0 -154 47 -289z" />
    <glyph glyph-name="parenright" unicode=")" horiz-adv-x="298" 
d="M82 -152l-77 34q71 118 108.5 258t37.5 277q0 158 -47 288l88 42q63 -129 63 -317q0 -331 -173 -582z" />
    <glyph glyph-name="asterisk" unicode="*" horiz-adv-x="387" 
d="M175 387l18 109l-84 -58l-29 61l87 49l-76 51l43 61l71 -58l10 108h71l-18 -108l84 57l29 -60l-87 -50l76 -50l-43 -61l-70 58l-11 -109h-71z" />
    <glyph glyph-name="plus" unicode="+" horiz-adv-x="537" 
d="M193 42l22 185h-162l12 100h163l22 186h102l-23 -186h163l-13 -100h-163l-22 -185h-101z" />
    <glyph glyph-name="comma" unicode="," horiz-adv-x="235" 
d="M-17 -132l59 252h116l-94 -252h-81z" />
    <glyph glyph-name="hyphen" unicode="-" horiz-adv-x="384" 
d="M57 255l13 107h273l-13 -107h-273z" />
    <glyph glyph-name="period" unicode="." horiz-adv-x="271" 
d="M112 -8q-31 0 -51 20.5t-20 50.5q0 32 21 53.5t53 21.5q31 0 51.5 -20.5t20.5 -51.5q0 -32 -21.5 -53t-53.5 -21z" />
    <glyph glyph-name="slash" unicode="/" horiz-adv-x="380" 
d="M3 -112l-76 41l448 853l75 -41z" />
    <glyph glyph-name="zero" unicode="0" horiz-adv-x="592" 
d="M269 -8q-97 0 -152 68.5t-55 197.5q0 114 31.5 211t99.5 161t159 64q96 0 149 -67.5t53 -197.5q0 -115 -32 -213t-98 -161t-155 -63zM270 98q56 0 96 53.5t56.5 127t16.5 156.5q0 154 -95 154q-56 0 -95 -54.5t-55.5 -128.5t-16.5 -154q0 -76 24 -115t69 -39z" />
    <glyph glyph-name="one" unicode="1" horiz-adv-x="385" 
d="M260 687h90l-85 -687h-114l67 534l-109 -80l-54 88z" />
    <glyph glyph-name="two" unicode="2" horiz-adv-x="507" 
d="M14 0l7 76l229 232q114 116 114 200q0 36 -19.5 58t-57.5 22q-72 0 -146 -68l-62 85q93 89 217 89q82 0 133 -47t51 -130q0 -134 -134 -263l-154 -148v-2h246l-14 -104h-410z" />
    <glyph glyph-name="three" unicode="3" horiz-adv-x="519" 
d="M216 -8q-63 0 -119.5 22.5t-91.5 63.5l69 88q24 -33 63 -50.5t80 -17.5q59 0 93 35.5t34 92.5q0 80 -92 80h-66l12 96h58q52 0 82 37.5t30 80.5q0 69 -81 69q-65 0 -136 -59l-64 83q90 81 211 81q83 0 133.5 -41t50.5 -118q0 -58 -27.5 -105t-75.5 -73v-1q81 -40 81 -143
q0 -99 -67.5 -160t-176.5 -61z" />
    <glyph glyph-name="four" unicode="4" horiz-adv-x="543" 
d="M415 233h90l-13 -101h-90l-16 -132h-113l16 132h-273l9 78l356 477h89zM152 225h156l32 255z" />
    <glyph glyph-name="five" unicode="5" horiz-adv-x="529" 
d="M487 583h-249l-27 -157q54 14 99 14q77 0 121.5 -48t44.5 -139q0 -118 -70.5 -189.5t-180.5 -71.5q-62 0 -118 22.5t-91 63.5l69 88q24 -33 62.5 -50.5t77.5 -17.5q60 0 98 42t38 105q0 98 -102 98q-52 0 -115 -38l-59 29l64 353h352z" />
    <glyph glyph-name="six" unicode="6" horiz-adv-x="560" 
d="M343 438q76 0 124 -48t48 -141q0 -109 -68.5 -183t-180.5 -74q-99 0 -153 66.5t-54 191.5q0 67 11 129.5t36.5 120.5t62 101t91.5 68.5t122 25.5q92 0 137 -23l-54 -101q-39 19 -85 19q-83 0 -132.5 -59t-67.5 -154l3 -1q74 62 160 62zM271 98q56 0 92.5 41.5t36.5 103.5
q0 92 -85 92q-83 0 -144 -72q0 -165 100 -165z" />
    <glyph glyph-name="seven" unicode="7" horiz-adv-x="476" 
d="M60 0l279 583h-273l13 104h403l-8 -76l-288 -611h-126z" />
    <glyph glyph-name="eight" unicode="8" horiz-adv-x="540" 
d="M244 -7q-99 0 -153.5 46t-54.5 132q0 72 36.5 124.5t92.5 76.5v2q-63 37 -63 129q0 87 62 139t155 52q84 0 132 -43t49 -117q0 -60 -29.5 -103t-65.5 -59v-2q88 -40 88 -151q0 -103 -68.5 -164.5t-180.5 -61.5zM293 417q41 0 69 27.5t28 68.5q0 37 -22 58t-57 21
q-41 1 -70 -27.5t-29 -69.5q0 -36 22.5 -57t58.5 -21zM256 94q54 0 87 34t34 86q0 48 -26 75.5t-76 27.5q-55 0 -89.5 -35t-34.5 -88q0 -47 28 -73.5t77 -26.5z" />
    <glyph glyph-name="nine" unicode="9" horiz-adv-x="557" 
d="M313 695q99 0 153 -66.5t54 -191.5q0 -67 -11 -129.5t-36.5 -120.5t-62 -101t-91.5 -68.5t-122 -25.5q-94 0 -144 31l54 101q44 -27 92 -27q84 0 133.5 59t66.5 154l-2 1q-74 -62 -161 -62q-76 0 -124 48t-48 141q0 109 68.5 183t180.5 74zM179 444q0 -92 85 -92
q83 0 144 72q0 165 -100 165q-56 0 -92.5 -41.5t-36.5 -103.5z" />
    <glyph glyph-name="colon" unicode=":" horiz-adv-x="276" 
d="M162 349q-31 0 -51 20.5t-20 50.5q0 32 21 53.5t53 21.5q31 0 51.5 -20.5t20.5 -51.5q0 -32 -21.5 -53t-53.5 -21zM116 -8q-31 0 -51 20.5t-20 50.5q0 32 21 53.5t53 21.5q31 0 51.5 -20.5t20.5 -51.5q0 -32 -21.5 -53t-53.5 -21z" />
    <glyph glyph-name="semicolon" unicode=";" horiz-adv-x="251" 
d="M145 349q-31 0 -51 20.5t-20 50.5q0 32 21 53.5t53 21.5q31 0 51.5 -20.5t20.5 -51.5q0 -32 -21.5 -53t-53.5 -21zM-9 -132l59 252h116l-94 -252h-81z" />
    <glyph glyph-name="less" unicode="&#x3c;" horiz-adv-x="544" 
d="M452 32l-393 201l9 82l443 205l-13 -110l-283 -135l249 -135z" />
    <glyph glyph-name="equal" unicode="=" horiz-adv-x="558" 
d="M96 341l12 100h427l-12 -100h-427zM65 113l12 100h427l-12 -100h-427z" />
    <glyph glyph-name="greater" unicode="&#x3e;" horiz-adv-x="545" 
d="M42 32l12 108l284 135l-250 135l13 110l393 -205l-9 -82z" />
    <glyph glyph-name="question" unicode="?" horiz-adv-x="437" 
d="M132 223l5 48q1 11 4.5 22t6 19t10.5 19.5t11 16.5t14.5 18.5t14 16.5t17.5 18.5t17 17.5q37 40 55.5 70.5t18.5 69.5q0 36 -18 56t-50 20q-55 0 -98 -57l-73 72q34 44 88.5 69t113.5 25q69 0 116.5 -41t47.5 -118q0 -104 -107 -205q-28 -26 -40.5 -39.5t-26.5 -33.5
t-17 -37l-9 -47h-101zM168 -8q-31 0 -51 20.5t-20 50.5q0 32 21 53.5t53 21.5q31 0 51.5 -20.5t20.5 -51.5q0 -32 -21.5 -53t-53.5 -21z" />
    <glyph glyph-name="at" unicode="@" horiz-adv-x="901" 
d="M414 -145q-161 0 -263 101t-102 272q0 56 14.5 113t48.5 115t83.5 102.5t126.5 72.5t170 28q168 0 267 -100.5t99 -259.5q0 -30 -5.5 -62t-21 -68t-39 -64t-62.5 -46t-88 -18q-63 0 -96 41q-19 24 -24 52h-2q-55 -82 -145 -82q-61 0 -101.5 44.5t-40.5 123.5
q0 107 61 180t149 73q68 0 107 -37l3 1l4 30h110l-27 -220q-8 -63 -8 -74q0 -46 44 -46q30 0 53 30.5t33.5 69t10.5 71.5q0 122 -76.5 202.5t-204.5 80.5q-74 0 -135 -21.5t-102 -57t-69 -82.5t-40.5 -95t-12.5 -97q0 -131 81.5 -211.5t199.5 -80.5q111 0 211 51l37 -60
q-110 -72 -248 -72zM407 151q43 0 83 48.5t48 116.5l4 27q-38 30 -85 30q-46 0 -78.5 -44.5t-32.5 -98.5q0 -40 18 -59.5t43 -19.5z" />
    <glyph glyph-name="A" unicode="A" horiz-adv-x="647" 
d="M-4 0l324 710h123l150 -710h-123l-29 154h-256l-67 -154h-122zM229 257h192l-58 305h-2z" />
    <glyph glyph-name="B" unicode="B" horiz-adv-x="613" 
d="M62 0l87 710h229q191 0 191 -151q0 -53 -30.5 -104t-83.5 -76v-2q104 -34 104 -144q0 -112 -69 -172.5t-197 -60.5h-231zM231 415h99q53 0 85.5 31.5t32.5 90.5q0 36 -24 51.5t-74 15.5h-96zM193 106h102q68 0 105 34t37 99q0 74 -107 74h-111z" />
    <glyph glyph-name="C" unicode="C" horiz-adv-x="677" 
d="M358 -8q-132 0 -211.5 76.5t-79.5 220.5q0 180 103.5 304.5t266.5 124.5q166 0 242 -134l-94 -79q-54 101 -154 101q-106 0 -173.5 -93t-67.5 -214q0 -94 44.5 -144.5t129.5 -50.5q54 0 92.5 19t83.5 60l72 -90q-104 -101 -254 -101z" />
    <glyph glyph-name="D" unicode="D" horiz-adv-x="693" 
d="M62 0l87 710h212q142 0 216.5 -77.5t74.5 -215.5q0 -190 -101 -303.5t-274 -113.5h-215zM193 106h96q109 0 174.5 87t65.5 224q0 86 -46 136.5t-131 50.5h-98z" />
    <glyph glyph-name="E" unicode="E" horiz-adv-x="595" 
d="M62 0l87 710h432l-14 -106h-314l-24 -199h287l-13 -106h-287l-24 -193h330l-13 -106h-447z" />
    <glyph glyph-name="F" unicode="F" horiz-adv-x="574" 
d="M62 0l87 710h435l-13 -106h-317l-27 -215h275l-13 -106h-275l-34 -283h-118z" />
    <glyph glyph-name="G" unicode="G" horiz-adv-x="713" 
d="M358 -8q-132 0 -211.5 76.5t-79.5 220.5q0 180 104 304.5t269 124.5q168 0 244 -121l-94 -78q-26 42 -68.5 64.5t-92.5 22.5q-104 0 -171.5 -93t-67.5 -214q0 -97 44 -148t127 -51q87 0 150 45l19 127h-149l14 106h266l-37 -301q-46 -39 -119.5 -62t-146.5 -23z" />
    <glyph glyph-name="H" unicode="H" horiz-adv-x="699" 
d="M62 0l87 710h118l-39 -318h280l39 318h118l-87 -710h-119l36 286h-280l-35 -286h-118z" />
    <glyph glyph-name="I" unicode="I" horiz-adv-x="311" 
d="M66 0l87 710h119l-87 -710h-119z" />
    <glyph glyph-name="J" unicode="J" horiz-adv-x="510" 
d="M202 -8q-62 0 -115.5 24t-80.5 66l76 91q16 -27 48 -48t69 -21q95 0 115 159l55 447h119l-56 -453q-16 -132 -71 -198.5t-159 -66.5z" />
    <glyph glyph-name="K" unicode="K" horiz-adv-x="637" 
d="M670 710l-268 -312q64 -77 115 -185t71 -213h-123q-19 88 -59 175.5t-89 144.5l-112 -118l-25 -202h-118l87 710h118l-43 -348h2l298 348h146z" />
    <glyph glyph-name="L" unicode="L" horiz-adv-x="571" 
d="M62 0l87 710h118l-74 -604h318l-13 -106h-436z" />
    <glyph glyph-name="M" unicode="M" horiz-adv-x="832" 
d="M62 0l87 710h120l152 -425h3l255 425h118l-87 -710h-118l56 465l-3 1l-200 -329h-81l-123 346l-2 -1l-59 -482h-118z" />
    <glyph glyph-name="N" unicode="N" horiz-adv-x="730" 
d="M62 0l87 710h119l244 -512l3 2l63 510h118l-88 -710h-116l-247 504h-3l-62 -504h-118z" />
    <glyph glyph-name="O" unicode="O" horiz-adv-x="765" 
d="M352 -8q-130 0 -207.5 79.5t-77.5 219.5q0 113 45.5 210t132 157t194.5 60q129 0 207.5 -79.5t78.5 -218.5q0 -115 -44 -211.5t-130 -156.5t-199 -60zM361 102q103 0 172 94.5t69 220.5q0 95 -46.5 143.5t-129.5 48.5q-101 0 -168.5 -96t-67.5 -219q0 -94 45.5 -143
t125.5 -49z" />
    <glyph glyph-name="P" unicode="P" horiz-adv-x="596" 
d="M62 0l87 710h239q101 0 147.5 -48.5t46.5 -142.5q0 -125 -72.5 -194.5t-208.5 -69.5h-90l-31 -255h-118zM224 361h93q67 0 104.5 40t37.5 118q0 39 -27 62t-71 23h-107z" />
    <glyph glyph-name="Q" unicode="Q" horiz-adv-x="783" 
d="M725 420q0 -166 -88 -285l66 -71l-76 -84l-69 76q-90 -64 -206 -64q-130 0 -207.5 79.5t-77.5 219.5q0 113 45.5 209.5t131.5 156.5t195 60q130 0 208 -79t78 -218zM361 102q65 0 119 41l-58 65l74 80l57 -61q49 85 49 190q0 95 -46.5 142.5t-129.5 47.5
q-101 0 -168.5 -95t-67.5 -218q0 -94 45.5 -143t125.5 -49z" />
    <glyph glyph-name="R" unicode="R" horiz-adv-x="626" 
d="M587 519q0 -92 -42.5 -155t-124.5 -89q103 -129 136 -275h-127q-41 140 -138 255h-80l-31 -255h-118l87 710h244q101 0 147.5 -48.5t46.5 -142.5zM224 361h98q66 0 104 41.5t38 116.5q0 39 -27 62t-71 23h-112z" />
    <glyph glyph-name="S" unicode="S" horiz-adv-x="565" 
d="M264 -8q-80 0 -143.5 28t-96.5 81l79 87q22 -38 67 -62.5t95 -24.5q55 0 88 28.5t32 69.5q0 10 -2.5 18.5t-5.5 15t-11 14.5t-13 12.5t-18.5 12.5t-19.5 11.5t-24.5 13.5t-26.5 14q-87 48 -119 77q-57 55 -57 131q0 89 65 144t168 55q63 0 123 -23t95 -68l-83 -80
q-43 64 -136 64q-53 0 -81 -23t-28 -58q0 -32 24.5 -54.5t80.5 -53.5q15 -8 47 -25t47 -25t38.5 -26t34 -34.5t19 -42.5t8.5 -57q0 -101 -67.5 -160.5t-178.5 -59.5z" />
    <glyph glyph-name="T" unicode="T" horiz-adv-x="546" 
d="M184 0l74 604h-180l12 106h480l-13 -106h-181l-74 -604h-118z" />
    <glyph glyph-name="U" unicode="U" horiz-adv-x="680" 
d="M312 -8q-129 0 -185.5 84t-38.5 227l50 407h118l-50 -406q-11 -89 15 -144.5t96 -55.5q147 0 170 190l51 416h118l-51 -416q-19 -155 -91 -228.5t-202 -73.5z" />
    <glyph glyph-name="V" unicode="V" horiz-adv-x="643" 
d="M242 0l-153 710h125l98 -559h2l233 559h128l-326 -710h-107z" />
    <glyph glyph-name="W" unicode="W" horiz-adv-x="949" 
d="M207 0l-116 710h120l74 -523h3l178 523h126l58 -517h3l197 517h124l-293 -710h-104l-69 532h-2l-185 -532h-114z" />
    <glyph glyph-name="X" unicode="X" horiz-adv-x="620" 
d="M-13 0l255 359l-159 351h133l116 -266h4l177 266h143l-250 -355l167 -355h-138l-121 267h-4l-186 -267h-137z" />
    <glyph glyph-name="Y" unicode="Y" horiz-adv-x="581" 
d="M200 0l39 314l-166 396h130l106 -284h3l176 284h137l-267 -396l-40 -314h-118z" />
    <glyph glyph-name="Z" unicode="Z" horiz-adv-x="590" 
d="M30 0l11 93l377 508l-1 3h-301l13 106h454l-10 -91l-384 -509l2 -4h319l-13 -106h-467z" />
    <glyph glyph-name="bracketleft" unicode="[" horiz-adv-x="325" 
d="M14 -147l108 879h210l-10 -85h-113l-87 -709h112l-10 -85h-210z" />
    <glyph glyph-name="backslash" unicode="\" horiz-adv-x="396" 
d="M291 -112l-238 853l90 40l239 -853z" />
    <glyph glyph-name="bracketright" unicode="]" horiz-adv-x="329" 
d="M5 -147l11 85h116l87 709h-116l10 85h214l-108 -879h-214z" />
    <glyph glyph-name="asciicircum" unicode="^" horiz-adv-x="444" 
d="M88 500l148 210h83l98 -210h-94l-52 136l-89 -136h-94z" />
    <glyph glyph-name="underscore" unicode="_" horiz-adv-x="479" 
d="M-45 -103l9 76h484l-9 -76h-484z" />
    <glyph glyph-name="grave" unicode="`" horiz-adv-x="458" 
d="M248 538l-94 145l122 -1l83 -144h-111z" />
    <glyph glyph-name="a" unicode="a" horiz-adv-x="562" 
d="M207 -8q-83 0 -125.5 55.5t-42.5 142.5q0 121 67.5 213t172.5 92q82 0 128 -47l3 1l5 38h109l-60 -487h-109l11 89l-3 1q-33 -48 -74.5 -73t-81.5 -25zM228 89q54 0 104 67.5t64 175.5l2 18q-47 45 -111 45q-61 0 -99 -63.5t-38 -143.5q0 -46 20 -72.5t58 -26.5z" />
    <glyph glyph-name="b" unicode="b" horiz-adv-x="573" 
d="M253 -8q-115 0 -204 56l85 688h109l-40 -330l2 -1q69 90 161 90q81 0 123.5 -58.5t42.5 -148.5q0 -56 -17.5 -107.5t-50.5 -94.5t-87.5 -68.5t-123.5 -25.5zM242 91q83 0 130.5 60.5t47.5 148.5q0 39 -21 67t-57 28q-60 0 -108 -65t-62 -174l-7 -54q37 -11 77 -11z" />
    <glyph glyph-name="c" unicode="c" horiz-adv-x="491" 
d="M250 -8q-99 0 -154 53t-55 157q0 122 71 207.5t190 85.5q56 0 103.5 -20.5t72.5 -59.5l-84 -76q-33 56 -95 56q-65 0 -106 -52.5t-41 -126.5q0 -64 30 -94t73 -30q60 0 107 50l78 -74q-73 -76 -190 -76z" />
    <glyph glyph-name="d" unicode="d" horiz-adv-x="572" 
d="M208 -8q-83 0 -125.5 55.5t-42.5 142.5q0 121 67.5 213t172.5 92q82 0 132 -47l3 1l35 287h110l-91 -736h-110l12 91l-3 1q-68 -100 -160 -100zM229 89q56 0 106.5 67t64.5 174l3 22q-40 43 -115 43q-61 0 -99 -64t-38 -143q0 -46 20 -72.5t58 -26.5z" />
    <glyph glyph-name="e" unicode="e" horiz-adv-x="480" 
d="M253 93q63 0 109 50l78 -74q-73 -76 -190 -76q-99 0 -154 53t-55 156q0 121 70 207t191 86q70 0 113.5 -33.5t43.5 -94.5q0 -159 -307 -193q9 -40 37 -60.5t64 -20.5zM299 396q-46 0 -88 -36t-56 -98q193 21 193 95q0 39 -49 39z" />
    <glyph glyph-name="f" unicode="f" horiz-adv-x="361" 
d="M72 0l48 395h-75l11 93h76l10 82q11 89 57.5 131.5t115.5 42.5t119 -34l-43 -90q-31 24 -64 24q-26 0 -48.5 -18.5t-28.5 -67.5l-9 -70h115l-11 -93h-115l-48 -395h-110z" />
    <glyph glyph-name="g" unicode="g" horiz-adv-x="566" 
d="M205 -205q-106 0 -179 45l49 92q58 -37 128 -37q71 0 110 36t52 138l5 41l-2 1q-69 -103 -161 -103q-82 0 -124 55.5t-42 142.5q0 110 67.5 199.5t171.5 89.5q83 0 130 -46l2 1l5 38h109l-52 -427q-10 -79 -35 -133t-63 -82t-78.5 -39.5t-92.5 -11.5zM229 105
q51 0 101 60t64 151l5 33q-46 46 -110 46q-61 0 -99 -61t-38 -130q0 -46 20 -72.5t57 -26.5z" />
    <glyph glyph-name="h" unicode="h" horiz-adv-x="556" 
d="M42 0l91 736h109l-41 -332l2 -1q74 92 176 92q77 0 106 -49.5t15 -151.5l-40 -294h-110l39 285q8 56 -2 83.5t-45 27.5q-49 0 -103 -64.5t-65 -152.5l-22 -179h-110z" />
    <glyph glyph-name="i" unicode="i" horiz-adv-x="258" 
d="M180 562q-31 0 -51 20.5t-20 50.5q0 32 21 53t53 21q31 0 51.5 -20t20.5 -51q0 -32 -21.5 -53t-53.5 -21zM44 0l60 488h110l-60 -488h-110z" />
    <glyph glyph-name="j" unicode="j" horiz-adv-x="240" 
d="M165 562q-31 0 -51 20.5t-20 50.5q0 32 21 53t53 21q31 0 51.5 -20t20.5 -51q0 -32 -21.5 -53t-53.5 -21zM-19 -205q-44 0 -82 23l28 86q19 -15 41 -15q26 0 40 20.5t19 69.5l63 509h110l-65 -524q-20 -169 -154 -169z" />
    <glyph glyph-name="k" unicode="k" horiz-adv-x="518" 
d="M433 -6q-16 -2 -23 -2q-23 0 -41 8.5t-29 17t-24.5 33.5t-19.5 38.5t-22 52.5l-10 25q-51 -35 -100 -57l-13 -110h-109l91 736h109l-62 -507l2 -1q151 93 201 260h111q-28 -136 -145 -251l26 -65q20 -51 38.5 -69t51.5 -25z" />
    <glyph glyph-name="l" unicode="l" horiz-adv-x="304" 
d="M176 -8q-134 0 -114 167l71 577h109l-70 -570q-9 -72 31 -72q35 0 68 28l23 -91q-42 -39 -118 -39z" />
    <glyph glyph-name="m" unicode="m" horiz-adv-x="832" 
d="M43 0l61 488h109l-10 -81l3 -1q73 89 162 89q93 0 114 -88l4 -1q71 89 171 89q75 0 103.5 -49.5t14.5 -151.5l-40 -294h-110l39 285q14 111 -39 111q-41 0 -93 -60.5t-64 -146.5l-25 -189h-109l38 285q14 111 -39 111q-42 0 -94.5 -64.5t-63.5 -149.5l-22 -182h-110z" />
    <glyph glyph-name="n" unicode="n" horiz-adv-x="556" 
d="M42 0l61 488h109l-10 -84l2 -1q76 92 175 92q77 0 106 -49.5t15 -151.5l-40 -294h-109l38 285q8 56 -2 83.5t-45 27.5q-48 0 -102.5 -63.5t-65.5 -150.5l-22 -182h-110z" />
    <glyph glyph-name="o" unicode="o" horiz-adv-x="548" 
d="M246 -8q-94 0 -149.5 54t-55.5 155q0 126 69.5 210t191.5 84q94 0 149.5 -54t55.5 -155q0 -126 -69.5 -210t-191.5 -84zM252 92q62 0 103 54t41 129q0 67 -30.5 93.5t-69.5 26.5q-62 0 -103 -54t-41 -129q0 -67 30 -93.5t70 -26.5z" />
    <glyph glyph-name="p" unicode="p" horiz-adv-x="571" 
d="M19 -198l84 686h109l-11 -91l2 -2q67 100 171 100q76 0 116.5 -57t40.5 -141q0 -121 -67.5 -213t-174.5 -92q-83 0 -130 43l-2 -1l-29 -232h-109zM261 91q72 0 116 59t44 138q0 47 -18.5 78t-54.5 31q-59 0 -111 -66t-65 -168l-3 -24q27 -48 92 -48z" />
    <glyph glyph-name="q" unicode="q" horiz-adv-x="561" 
d="M331 -198l36 289l-3 1q-33 -49 -75 -74.5t-82 -25.5q-83 0 -125.5 55.5t-42.5 142.5q0 121 67.5 213t172.5 92q80 0 129 -45l2 1l5 37h109l-84 -686h-109zM228 89q53 0 103.5 67.5t63.5 168.5l3 25q-46 46 -111 46q-61 0 -99 -64t-38 -144q0 -46 20 -72.5t58 -26.5z" />
    <glyph glyph-name="r" unicode="r" horiz-adv-x="398" 
d="M43 0l61 488h109l-11 -89h2q65 93 159 93q37 0 71 -15l-46 -101q-33 11 -63 11q-64 0 -102 -61.5t-49 -152.5l-21 -173h-110z" />
    <glyph glyph-name="s" unicode="s" horiz-adv-x="427" 
d="M189 -8q-55 0 -102.5 17t-71.5 50l62 79q40 -50 115 -50q33 0 55 12.5t22 34.5q0 18 -16.5 30t-56.5 30q-5 2 -8.5 3.5t-7.5 3.5q-121 53 -121 144q0 66 50.5 107.5t126.5 41.5q104 0 167 -61l-78 -80q-39 47 -97 47q-26 0 -42 -12t-16 -31q0 -21 20.5 -37.5t59.5 -35.5
l30 -15t27.5 -15.5t29 -20.5t20.5 -22t18 -29.5t5 -33.5q1 -75 -51 -116t-140 -41z" />
    <glyph glyph-name="t" unicode="t" horiz-adv-x="369" 
d="M195 -8q-65 0 -94 40t-21 111l31 252h-72l11 93h72l20 152l111 22l-21 -174h139l-11 -93h-139l-30 -240q-7 -60 34 -60q38 0 82 39l30 -84q-25 -31 -66 -44.5t-76 -13.5z" />
    <glyph glyph-name="u" unicode="u" horiz-adv-x="545" 
d="M186 -8q-78 0 -110.5 47t-18.5 149l42 300h109l-39 -290q-8 -58 4.5 -82t46.5 -24q43 0 93 55.5t60 132.5l25 208h110l-60 -488h-110l11 87h-2q-63 -95 -161 -95z" />
    <glyph glyph-name="v" unicode="v" horiz-adv-x="507" 
d="M202 -8q-169 0 -143 216l35 280h110l-34 -271q-8 -67 1.5 -96t42.5 -29q41 0 83.5 50t60.5 144q17 92 1 202h112q21 -115 -3 -231q-28 -134 -100.5 -199.5t-165.5 -65.5z" />
    <glyph glyph-name="w" unicode="w" horiz-adv-x="784" 
d="M178 -8q-148 0 -120 208l39 288h109l-36 -280q-8 -63 5 -89.5t43 -26.5q16 0 34 8.5t38 28t36.5 58.5t22.5 91l26 210h110l-36 -290q-7 -58 4.5 -82t40.5 -24q39 0 81.5 50t59.5 144q17 92 1 202h112q21 -115 -3 -231q-27 -134 -99.5 -199.5t-163.5 -65.5q-57 0 -93.5 28
t-44.5 68h-2q-23 -43 -73.5 -69.5t-90.5 -26.5z" />
    <glyph glyph-name="x" unicode="x" horiz-adv-x="480" 
d="M-7 0l183 249l-120 239h126l67 -157h2l106 157h132l-183 -244l124 -244h-126l-71 160h-2l-113 -160h-125z" />
    <glyph glyph-name="y" unicode="y" horiz-adv-x="545" 
d="M401 488h108l-52 -427q-32 -266 -263 -266q-100 0 -178 44l49 93q60 -38 131 -38q64 0 102.5 37t50.5 138l2 17l-2 1q-64 -95 -168 -95q-153 0 -126 196l41 300h109l-38 -290q-7 -58 5 -81.5t46 -24.5q47 0 98 59t60 139z" />
    <glyph glyph-name="z" unicode="z" horiz-adv-x="466" 
d="M375 -29q-46 14 -115 21t-112.5 7.5t-135.5 0.5l9 77l259 317v1h-204l11 93h355l-8 -76l-263 -317v-2q143 -4 234 -32z" />
    <glyph glyph-name="braceleft" unicode="{" horiz-adv-x="346" 
d="M187 -146q-45 0 -72 34.5t-20 88.5l24 196q2 20 2 36.5t-16 27t-50 11.5l7 85q34 1 54 15t24.5 28t7.5 36l25 201q6 52 38 85.5t80 33.5h67l-9 -76h-23q-27 0 -42.5 -21t-18.5 -47l-25 -195q-5 -44 -19 -67.5t-41 -34.5v-2q25 -11 33 -32.5t1 -73.5l-22 -183
q-4 -37 5 -53.5t36 -16.5h27l-10 -76h-63z" />
    <glyph glyph-name="bar" unicode="|" horiz-adv-x="325" 
d="M71 -115l104 852h95l-104 -852h-95z" />
    <glyph glyph-name="braceright" unicode="}" horiz-adv-x="346" 
d="M0 -146l10 76h23q30 0 43.5 18.5t18.5 56.5l22 183q6 53 19 72.5t43 30.5v2q-46 21 -35 105l23 194q7 64 -42 64h-26l9 76h63q48 0 73.5 -36t19.5 -88l-25 -200q-1 -18 -2 -34t15.5 -28t50.5 -13l-7 -85q-35 -1 -54.5 -14t-24.5 -27t-8 -39l-23 -195q-7 -55 -40 -87
t-78 -32h-68z" />
    <glyph glyph-name="asciitilde" unicode="~" horiz-adv-x="535" 
d="M352 202q-42 0 -84 23q-45 25 -63 25q-40 0 -71 -50l-78 36q54 118 138 118q13 0 23.5 -1.5t21 -5.5t15 -5.5t14.5 -7.5l11 -7q36 -22 60 -22q41 0 71 50l78 -31q-23 -56 -59 -89t-77 -33z" />
    <glyph glyph-name="uni00A0" unicode="&#xa0;" horiz-adv-x="203" 
 />
    <glyph glyph-name="exclamdown" unicode="&#xa1;" horiz-adv-x="268" 
d="M143 496q31 0 51 -20.5t20 -50.5q0 -32 -21 -53.5t-53 -21.5q-31 0 -51.5 20.5t-20.5 51.5q0 32 21.5 53t53.5 21zM168 265l-42 -513h-121l83 513h80z" />
    <glyph glyph-name="cent" unicode="&#xa2;" horiz-adv-x="505" 
d="M252 146q63 0 115 53l86 -62q-74 -74 -156 -87l-13 -98h-77l12 97q-79 8 -124 61.5t-45 139.5q0 114 61.5 198.5t164.5 98.5l12 98h77l-12 -99q91 -13 133 -78l-86 -64q-30 46 -88 46q-66 0 -108.5 -55.5t-42.5 -137.5q0 -52 27.5 -81.5t63.5 -29.5z" />
    <glyph glyph-name="sterling" unicode="&#xa3;" horiz-adv-x="515" 
d="M18 0l13 106h59l27 213h-49l10 81h51l10 79q14 112 70.5 163.5t132.5 51.5q115 0 169 -98l-73 -79q-35 66 -94 66q-73 0 -88 -110l-10 -73h136l-10 -81h-136l-28 -213h260l-13 -106h-437z" />
    <glyph glyph-name="currency" unicode="&#xa4;" horiz-adv-x="473" 
d="M423 411q0 -72 -42 -128l60 -77l-58 -51l-61 77q-42 -25 -93 -25q-50 0 -88 24l-75 -75l-49 51l79 78q-14 31 -14 70q0 76 41 134l-62 78l59 51l60 -75q43 27 94 27q52 0 88 -27l75 76l49 -51l-79 -79q16 -35 16 -78zM240 283q45 0 75.5 35t30.5 83q0 42 -23 67.5
t-58 25.5q-45 0 -75.5 -36.5t-30.5 -88.5q0 -39 22 -62.5t59 -23.5z" />
    <glyph glyph-name="yen" unicode="&#xa5;" horiz-adv-x="546" 
d="M590 687l-207 -325h100l-9 -73h-137l-8 -64h137l-9 -73h-138l-19 -152h-118l19 152h-140l9 73h140l8 64h-140l9 73h103l-124 325h134l91 -282h3l156 282h140z" />
    <glyph glyph-name="brokenbar" unicode="&#xa6;" horiz-adv-x="325" 
d="M132 385l43 352h95l-43 -352h-95zM71 -114l43 352h95l-43 -352h-95z" />
    <glyph glyph-name="section" unicode="&#xa7;" horiz-adv-x="520" 
d="M317 433q5 -2 24 -11.5t23.5 -11.5t20 -10.5t20 -12.5t16.5 -12.5t16 -14.5t11.5 -16t9.5 -19.5t4.5 -21.5t2.5 -26q0 -98 -90 -143q43 -37 43 -99q0 -82 -57.5 -135t-146.5 -53q-119 0 -193 96l71 76q25 -35 59.5 -52t65.5 -17q34 0 57 21.5t23 53.5q0 27 -19.5 42.5
t-81.5 44.5q-66 31 -99 63.5t-33 92.5q0 94 89 139q-44 39 -44 103q0 79 55 128t139 49q54 0 104 -21.5t79 -55.5l-69 -77q-49 49 -109 49q-38 0 -58 -17.5t-20 -48.5q0 -24 17.5 -40.5t69.5 -42.5zM261 198q17 -8 30 -15q29 8 45 30.5t16 50.5q0 25 -17 39.5t-74 40.5
l-26 12q-27 -6 -42 -28t-15 -49q0 -25 17.5 -40.5t65.5 -40.5z" />
    <glyph glyph-name="dieresis" unicode="&#xa8;" horiz-adv-x="477" 
d="M188 544q-31 0 -51.5 20.5t-20.5 50.5q0 32 21.5 53t53.5 21q30 0 50.5 -20t20.5 -51q0 -32 -21 -53t-53 -21zM378 544q-31 0 -51.5 20.5t-20.5 50.5q0 32 21.5 53t53.5 21q30 0 50.5 -20t20.5 -51q0 -32 -21 -53t-53 -21z" />
    <glyph glyph-name="copyright" unicode="&#xa9;" horiz-adv-x="721" 
d="M358 2q-130 0 -221.5 93t-91.5 223q0 129 91.5 222.5t222.5 93.5q132 0 222.5 -93t90.5 -223q0 -129 -91 -222.5t-223 -93.5zM358 78q100 0 168.5 70.5t68.5 169.5q0 100 -68 170t-168 70t-168.5 -71t-68.5 -170t68 -169t168 -70zM365 153q-70 0 -117 43t-47 120
q0 70 43.5 117t120.5 47q78 0 129 -62l-50 -43q-33 40 -79 40q-41 0 -67 -27t-26 -72q0 -44 25.5 -70.5t67.5 -26.5q49 0 79 38l50 -43q-50 -61 -129 -61z" />
    <glyph glyph-name="ordfeminine" unicode="&#xaa;" horiz-adv-x="377" 
d="M165 389q-43 0 -72.5 31.5t-29.5 90.5q0 74 46.5 127.5t109.5 53.5q43 0 68 -25h2l3 20h76l-36 -293h-77l6 44h-3q-42 -49 -93 -49zM180 462q31 0 61.5 34t37.5 90l1 8q-14 25 -54 25q-36 0 -59.5 -34t-23.5 -74q0 -49 37 -49z" />
    <glyph glyph-name="guillemotleft" unicode="&#xab;" horiz-adv-x="484" 
d="M131 33l-84 213l138 217h105l-136 -217l83 -213h-106zM320 33l-85 213l139 217h105l-137 -217l83 -213h-105z" />
    <glyph glyph-name="logicalnot" unicode="&#xac;" horiz-adv-x="515" 
d="M352 153l19 160h-309l11 99h409l-31 -259h-99z" />
    <glyph glyph-name="registered" unicode="&#xae;" horiz-adv-x="721" 
d="M359 634q132 0 222.5 -93t90.5 -223q0 -129 -91 -222.5t-223 -93.5q-130 0 -221.5 93t-91.5 223q0 129 91.5 222.5t222.5 93.5zM358 78q100 0 168.5 70.5t68.5 169.5q0 100 -68 170t-168 70t-168.5 -71t-68.5 -170t68 -169t168 -70zM482 374q0 -74 -63 -97l79 -119h-78
l-72 110h-35v-110h-66v324h123q56 0 84 -29.5t28 -78.5zM314 421v-93h41q28 0 43 13t15 34t-15 33.5t-41 12.5h-43z" />
    <glyph glyph-name="macron" unicode="&#xaf;" horiz-adv-x="404" 
d="M105 567l11 92h274l-11 -92h-274z" />
    <glyph glyph-name="degree" unicode="&#xb0;" horiz-adv-x="380" 
d="M213 442q-55 0 -85.5 31t-30.5 82q0 68 42.5 115t107.5 47q52 0 84.5 -32.5t32.5 -87.5q0 -63 -42 -109t-109 -46zM222 516q30 0 49.5 21.5t19.5 52.5q0 25 -14 40t-38 15q-30 0 -49 -22.5t-19 -57.5q0 -49 51 -49z" />
    <glyph glyph-name="plusminus" unicode="&#xb1;" horiz-adv-x="553" 
d="M220 170l22 185h-162l12 100h163l22 186h102l-23 -186h163l-13 -100h-163l-22 -185h-101zM36 -2l12 100h427l-12 -100h-427z" />
    <glyph glyph-name="uni00B2" unicode="&#xb2;" horiz-adv-x="319" 
d="M52 436l6 64l127 127q67 67 67 104q0 17 -11 27t-30 10q-32 0 -77 -35l-46 68q63 53 140 53q57 0 88 -26.5t31 -78.5q0 -82 -84 -161l-71 -67l1 -2h130l-10 -83h-261z" />
    <glyph glyph-name="uni00B3" unicode="&#xb3;" horiz-adv-x="326" 
d="M179 429q-82 0 -130 40l52 77q33 -35 74 -35q28 0 46.5 15.5t18.5 42.5q0 43 -46 43h-30l9 69h35q23 0 37 14t14 36q0 41 -45 41q-34 0 -77 -34l-42 63q63 53 141 53q52 0 81.5 -24.5t29.5 -70.5q0 -74 -60 -110v-1q49 -25 49 -85q0 -61 -43.5 -97.5t-113.5 -36.5z" />
    <glyph glyph-name="acute" unicode="&#xb4;" horiz-adv-x="453" 
d="M168 538l119 144l121 1l-129 -145h-111z" />
    <glyph glyph-name="uni00B5" unicode="&#xb5;" horiz-adv-x="558" 
d="M508 92l17 -76q-35 -24 -89 -24q-39 0 -62 21.5t-28 57.5l-1 1q-51 -80 -125 -80q-52 0 -74 35l-2 -1q5 -56 -3 -110l-15 -114h-108l84 686h109l-35 -287q-7 -56 9.5 -82.5t46.5 -26.5q45 0 82 39t46 113l30 244h109l-42 -343q-5 -32 0.5 -43.5t25.5 -11.5q5 0 25 2z" />
    <glyph glyph-name="paragraph" unicode="&#xb6;" horiz-adv-x="519" 
d="M306 -151l91 741h-59l-72 -590h-71l41 319q-71 1 -115.5 38.5t-44.5 103.5q0 85 58 144t158 59h183l-100 -815h-69z" />
    <glyph glyph-name="periodcentered" unicode="&#xb7;" horiz-adv-x="278" 
d="M144 172q-31 0 -51 20.5t-20 50.5q0 32 21 53.5t53 21.5q31 0 51.5 -20.5t20.5 -51.5q0 -32 -21.5 -53t-53.5 -21z" />
    <glyph glyph-name="cedilla" unicode="&#xb8;" horiz-adv-x="299" 
d="M64 -191q-24 0 -48 6l3 55q14 -7 36 -7q26 0 42.5 9.5t16.5 28.5q0 27 -69 27l2 36l24 42h65l-24 -37l1 -1q75 -3 75 -66q0 -45 -34 -69t-90 -24z" />
    <glyph glyph-name="uni00B9" unicode="&#xb9;" horiz-adv-x="272" 
d="M214 848h72l-51 -412h-92l37 294l-61 -44l-38 71z" />
    <glyph glyph-name="ordmasculine" unicode="&#xba;" horiz-adv-x="337" 
d="M188 390q-57 0 -90.5 32t-33.5 92q0 73 42 125.5t117 52.5q54 0 88.5 -30.5t34.5 -91.5q0 -73 -41.5 -126.5t-116.5 -53.5zM191 462q29 0 50.5 30t21.5 72q0 30 -14 43t-31 13q-29 0 -50 -30t-21 -68q0 -26 12.5 -43t31.5 -17z" />
    <glyph glyph-name="guillemotright" unicode="&#xbb;" horiz-adv-x="481" 
d="M6 33l136 213l-84 217h105l86 -217l-137 -213h-106zM197 33l135 213l-84 217h105l86 -217l-137 -213h-105z" />
    <glyph glyph-name="onequarter" unicode="&#xbc;" horiz-adv-x="743" 
d="M519 727l87 -41l-370 -707l-86 40zM224 299h-92l37 294l-61 -44l-38 71l133 91h72zM674 149h50l-10 -80h-50l-9 -69h-92l8 69h-160l6 57l217 286h72zM512 141h86l17 142z" />
    <glyph glyph-name="onehalf" unicode="&#xbd;" horiz-adv-x="779" 
d="M519 727l87 -41l-370 -707l-86 40zM224 299h-92l37 294l-61 -44l-38 71l133 91h72zM604 85l1 -2h130l-10 -83h-261l6 64l127 127q67 67 67 104q0 17 -11 27t-30 10q-32 0 -77 -35l-46 68q63 53 140 53q57 0 88 -26.5t31 -78.5q0 -82 -84 -161z" />
    <glyph glyph-name="threequarters" unicode="&#xbe;" horiz-adv-x="781" 
d="M556 727l87 -41l-370 -707l-86 40zM325 426q0 -61 -43.5 -97.5t-113.5 -36.5q-82 0 -130 40l52 77q33 -35 74 -35q28 0 46.5 15.5t18.5 42.5q0 43 -46 43h-30l9 69h35q23 0 37 14t14 36q0 41 -45 41q-34 0 -77 -34l-42 63q63 53 141 53q52 0 81.5 -24.5t29.5 -70.5
q0 -74 -60 -110v-1q49 -25 49 -85zM712 149h50l-10 -80h-50l-9 -69h-92l8 69h-160l6 57l217 286h72zM550 141h86l17 142z" />
    <glyph glyph-name="questiondown" unicode="&#xbf;" horiz-adv-x="420" 
d="M268 495q31 0 51 -20.5t20 -50.5q0 -32 -21 -53.5t-53 -21.5q-31 0 -51.5 20.5t-20.5 51.5q0 32 21.5 53t53.5 21zM304 264l-5 -48q-1 -11 -4.5 -22t-6 -19t-10.5 -19.5t-11 -16.5t-14.5 -18.5t-14 -16.5t-17.5 -18.5t-17 -17.5q-37 -40 -55.5 -70.5t-18.5 -69.5
q0 -36 18 -56t50 -20q55 0 98 57l73 -72q-34 -44 -88.5 -69t-113.5 -25q-69 0 -116.5 41t-47.5 118q0 104 107 205q28 26 40.5 39.5t26.5 33.5t17 37l9 47h101z" />
    <glyph glyph-name="Agrave" unicode="&#xc0;" horiz-adv-x="647" 
d="M340 775l-98 133l122 -1l85 -132h-109zM-4 0l324 710h123l150 -710h-123l-29 154h-256l-67 -154h-122zM229 257h192l-58 305h-2z" />
    <glyph glyph-name="Aacute" unicode="&#xc1;" horiz-adv-x="647" 
d="M341 775l115 132l124 1l-130 -133h-109zM-4 0l324 710h123l150 -710h-123l-29 154h-256l-67 -154h-122zM229 257h192l-58 305h-2z" />
    <glyph glyph-name="Acircumflex" unicode="&#xc2;" horiz-adv-x="647" 
d="M239 775l120 133h106l84 -133h-103l-42 68h-3l-59 -68h-103zM-4 0l324 710h123l150 -710h-123l-29 154h-256l-67 -154h-122zM229 257h192l-58 305h-2z" />
    <glyph glyph-name="Atilde" unicode="&#xc3;" horiz-adv-x="647" 
d="M474 774q-36 0 -79 32q-29 22 -46 22q-33 0 -57 -54l-68 35q48 98 116 98q12 0 21.5 -1.5t18.5 -6t13.5 -6.5t13 -8.5t10.5 -7.5q33 -23 47 -23q35 0 58 53l68 -26q-21 -49 -51.5 -78t-64.5 -29zM-4 0l324 710h123l150 -710h-123l-29 154h-256l-67 -154h-122zM229 257
h192l-58 305h-2z" />
    <glyph glyph-name="Adieresis" unicode="&#xc4;" horiz-adv-x="647" 
d="M307 775q-31 0 -51.5 20.5t-20.5 50.5q0 32 21.5 53t53.5 21q30 0 50.5 -20t20.5 -51t-21.5 -52.5t-52.5 -21.5zM497 775q-31 0 -51.5 20.5t-20.5 50.5q0 32 21.5 53t53.5 21q30 0 50.5 -20t20.5 -51t-21.5 -52.5t-52.5 -21.5zM-4 0l324 710h123l150 -710h-123l-29 154
h-256l-67 -154h-122zM229 257h192l-58 305h-2z" />
    <glyph glyph-name="Aring" unicode="&#xc5;" horiz-adv-x="647" 
d="M403 762q-44 0 -73.5 29.5t-29.5 73.5q0 45 30.5 75t76.5 30q44 0 73.5 -29t29.5 -73q0 -46 -30.5 -76t-76.5 -30zM405 828q17 0 28 11t11 28q0 16 -11 27t-27 11t-27.5 -11.5t-11.5 -27.5t10.5 -27t27.5 -11zM-4 0l324 710h123l150 -710h-123l-29 154h-256l-67 -154
h-122zM229 257h192l-58 305h-2z" />
    <glyph glyph-name="AE" unicode="&#xc6;" horiz-adv-x="893" 
d="M-23 0l407 710h496l-13 -106h-316l-25 -198h288l-14 -106h-287l-23 -194h330l-13 -106h-445l19 154h-189l-86 -154h-129zM249 257h145l40 329h-2z" />
    <glyph glyph-name="Ccedilla" unicode="&#xc7;" horiz-adv-x="677" 
d="M612 93q-104 -101 -252 -101l-15 -23l1 -1q75 -3 75 -66q0 -45 -34 -69t-90 -24q-24 0 -48 6l3 55q14 -7 36 -7q26 0 42.5 9.5t16.5 28.5q0 27 -69 27l2 36l18 32q-107 16 -169 91t-62 202q0 180 103.5 304.5t266.5 124.5q166 0 242 -134l-94 -79q-54 101 -154 101
q-106 0 -173.5 -93t-67.5 -214q0 -94 44.5 -144.5t129.5 -50.5q54 0 92.5 19t83.5 60z" />
    <glyph glyph-name="Egrave" unicode="&#xc8;" horiz-adv-x="595" 
d="M366 775l-98 133l122 -1l85 -132h-109zM62 0l87 710h432l-14 -106h-314l-24 -199h287l-13 -106h-287l-24 -193h330l-13 -106h-447z" />
    <glyph glyph-name="Eacute" unicode="&#xc9;" horiz-adv-x="595" 
d="M284 775l115 132l124 1l-130 -133h-109zM62 0l87 710h432l-14 -106h-314l-24 -199h287l-13 -106h-287l-24 -193h330l-13 -106h-447z" />
    <glyph glyph-name="Ecircumflex" unicode="&#xca;" horiz-adv-x="595" 
d="M225 775l120 133h106l84 -133h-103l-42 68h-3l-59 -68h-103zM62 0l87 710h432l-14 -106h-314l-24 -199h287l-13 -106h-287l-24 -193h330l-13 -106h-447z" />
    <glyph glyph-name="Edieresis" unicode="&#xcb;" horiz-adv-x="595" 
d="M293 775q-31 0 -51.5 20.5t-20.5 50.5q0 32 21.5 53t53.5 21q30 0 50.5 -20t20.5 -51t-21.5 -52.5t-52.5 -21.5zM483 775q-31 0 -51.5 20.5t-20.5 50.5q0 32 21.5 53t53.5 21q30 0 50.5 -20t20.5 -51t-21.5 -52.5t-52.5 -21.5zM62 0l87 710h432l-14 -106h-314l-24 -199
h287l-13 -106h-287l-24 -193h330l-13 -106h-447z" />
    <glyph glyph-name="Igrave" unicode="&#xcc;" horiz-adv-x="311" 
d="M171 775l-98 133l122 -1l85 -132h-109zM66 0l87 710h119l-87 -710h-119z" />
    <glyph glyph-name="Iacute" unicode="&#xcd;" horiz-adv-x="311" 
d="M173 775l115 132l124 1l-130 -133h-109zM66 0l87 710h119l-87 -710h-119z" />
    <glyph glyph-name="Icircumflex" unicode="&#xce;" horiz-adv-x="311" 
d="M65 775l120 133h106l84 -133h-103l-42 68h-3l-59 -68h-103zM66 0l87 710h119l-87 -710h-119z" />
    <glyph glyph-name="Idieresis" unicode="&#xcf;" horiz-adv-x="311" 
d="M133 775q-31 0 -51.5 20.5t-20.5 50.5q0 32 21.5 53t53.5 21q30 0 50.5 -20t20.5 -51t-21.5 -52.5t-52.5 -21.5zM323 775q-31 0 -51.5 20.5t-20.5 50.5q0 32 21.5 53t53.5 21q30 0 50.5 -20t20.5 -51t-21.5 -52.5t-52.5 -21.5zM66 0l87 710h119l-87 -710h-119z" />
    <glyph glyph-name="Eth" unicode="&#xd0;" horiz-adv-x="695" 
d="M363 710q142 0 216.5 -77.5t74.5 -215.5q0 -190 -101 -303.5t-274 -113.5h-215l37 302h-57l15 101h54l38 307h212zM291 106q109 0 174.5 87t65.5 224q0 86 -46 136.5t-131 50.5h-98l-25 -201h142l-15 -101h-139l-24 -196h96z" />
    <glyph glyph-name="Ntilde" unicode="&#xd1;" horiz-adv-x="730" 
d="M516 774q-36 0 -79 32q-29 22 -46 22q-33 0 -57 -54l-68 35q48 98 116 98q12 0 21.5 -1.5t18.5 -6t13.5 -6.5t13 -8.5t10.5 -7.5q33 -23 47 -23q35 0 58 53l68 -26q-21 -49 -51.5 -78t-64.5 -29zM62 0l87 710h119l244 -512l3 2l63 510h118l-88 -710h-116l-247 504h-3
l-62 -504h-118z" />
    <glyph glyph-name="Ograve" unicode="&#xd2;" horiz-adv-x="765" 
d="M409 775l-98 133l122 -1l85 -132h-109zM352 -8q-130 0 -207.5 79.5t-77.5 219.5q0 113 45.5 210t132 157t194.5 60q129 0 207.5 -79.5t78.5 -218.5q0 -115 -44 -211.5t-130 -156.5t-199 -60zM361 102q103 0 172 94.5t69 220.5q0 95 -46.5 143.5t-129.5 48.5
q-101 0 -168.5 -96t-67.5 -219q0 -94 45.5 -143t125.5 -49z" />
    <glyph glyph-name="Oacute" unicode="&#xd3;" horiz-adv-x="765" 
d="M403 775l115 132l124 1l-130 -133h-109zM352 -8q-130 0 -207.5 79.5t-77.5 219.5q0 113 45.5 210t132 157t194.5 60q129 0 207.5 -79.5t78.5 -218.5q0 -115 -44 -211.5t-130 -156.5t-199 -60zM361 102q103 0 172 94.5t69 220.5q0 95 -46.5 143.5t-129.5 48.5
q-101 0 -168.5 -96t-67.5 -219q0 -94 45.5 -143t125.5 -49z" />
    <glyph glyph-name="Ocircumflex" unicode="&#xd4;" horiz-adv-x="765" 
d="M316 775l120 133h106l84 -133h-103l-42 68h-3l-59 -68h-103zM352 -8q-130 0 -207.5 79.5t-77.5 219.5q0 113 45.5 210t132 157t194.5 60q129 0 207.5 -79.5t78.5 -218.5q0 -115 -44 -211.5t-130 -156.5t-199 -60zM361 102q103 0 172 94.5t69 220.5q0 95 -46.5 143.5
t-129.5 48.5q-101 0 -168.5 -96t-67.5 -219q0 -94 45.5 -143t125.5 -49z" />
    <glyph glyph-name="Otilde" unicode="&#xd5;" horiz-adv-x="765" 
d="M551 774q-36 0 -79 32q-29 22 -46 22q-33 0 -57 -54l-68 35q48 98 116 98q12 0 21.5 -1.5t18.5 -6t13.5 -6.5t13 -8.5t10.5 -7.5q33 -23 47 -23q35 0 58 53l68 -26q-21 -49 -51.5 -78t-64.5 -29zM352 -8q-130 0 -207.5 79.5t-77.5 219.5q0 113 45.5 210t132 157t194.5 60
q129 0 207.5 -79.5t78.5 -218.5q0 -115 -44 -211.5t-130 -156.5t-199 -60zM361 102q103 0 172 94.5t69 220.5q0 95 -46.5 143.5t-129.5 48.5q-101 0 -168.5 -96t-67.5 -219q0 -94 45.5 -143t125.5 -49z" />
    <glyph glyph-name="Odieresis" unicode="&#xd6;" horiz-adv-x="765" 
d="M384 775q-31 0 -51.5 20.5t-20.5 50.5q0 32 21.5 53t53.5 21q30 0 50.5 -20t20.5 -51t-21 -52.5t-53 -21.5zM574 775q-31 0 -51.5 20.5t-20.5 50.5q0 32 21.5 53t53.5 21q30 0 50.5 -20t20.5 -51t-21 -52.5t-53 -21.5zM352 -8q-130 0 -207.5 79.5t-77.5 219.5
q0 113 45.5 210t132 157t194.5 60q129 0 207.5 -79.5t78.5 -218.5q0 -115 -44 -211.5t-130 -156.5t-199 -60zM361 102q103 0 172 94.5t69 220.5q0 95 -46.5 143.5t-129.5 48.5q-101 0 -168.5 -96t-67.5 -219q0 -94 45.5 -143t125.5 -49z" />
    <glyph glyph-name="multiply" unicode="&#xd7;" horiz-adv-x="496" 
d="M105 67l-65 69l141 141l-107 141l80 70l105 -141l140 141l66 -70l-141 -142l105 -141l-78 -68l-106 140z" />
    <glyph glyph-name="Oslash" unicode="&#xd8;" horiz-adv-x="768" 
d="M757 682l-77 -81q48 -74 48 -181q0 -115 -44 -211.5t-130 -156.5t-199 -60q-116 0 -191 64l-80 -85l-58 60l85 89q-41 70 -41 171q0 113 45.5 210t132 157t194.5 60t182 -57l75 79zM193 294q0 -44 10 -77l339 358q-43 34 -113 34q-101 0 -168.5 -96t-67.5 -219zM605 417
q0 50 -14 90l-344 -364q44 -41 117 -41q103 0 172 94.5t69 220.5z" />
    <glyph glyph-name="Ugrave" unicode="&#xd9;" horiz-adv-x="680" 
d="M358 775l-98 133l122 -1l85 -132h-109zM312 -8q-129 0 -185.5 84t-38.5 227l50 407h118l-50 -406q-11 -89 15 -144.5t96 -55.5q147 0 170 190l51 416h118l-51 -416q-19 -155 -91 -228.5t-202 -73.5z" />
    <glyph glyph-name="Uacute" unicode="&#xda;" horiz-adv-x="680" 
d="M345 775l115 132l124 1l-130 -133h-109zM312 -8q-129 0 -185.5 84t-38.5 227l50 407h118l-50 -406q-11 -89 15 -144.5t96 -55.5q147 0 170 190l51 416h118l-51 -416q-19 -155 -91 -228.5t-202 -73.5z" />
    <glyph glyph-name="Ucircumflex" unicode="&#xdb;" horiz-adv-x="680" 
d="M256 775l120 133h106l84 -133h-103l-42 68h-3l-59 -68h-103zM312 -8q-129 0 -185.5 84t-38.5 227l50 407h118l-50 -406q-11 -89 15 -144.5t96 -55.5q147 0 170 190l51 416h118l-51 -416q-19 -155 -91 -228.5t-202 -73.5z" />
    <glyph glyph-name="Udieresis" unicode="&#xdc;" horiz-adv-x="680" 
d="M324 775q-31 0 -51.5 20.5t-20.5 50.5q0 32 21.5 53t53.5 21q30 0 50.5 -20t20.5 -51t-21 -52.5t-53 -21.5zM514 775q-31 0 -51.5 20.5t-20.5 50.5q0 32 21.5 53t53.5 21q30 0 50.5 -20t20.5 -51t-21 -52.5t-53 -21.5zM312 -8q-129 0 -185.5 84t-38.5 227l50 407h118
l-50 -406q-11 -89 15 -144.5t96 -55.5q147 0 170 190l51 416h118l-51 -416q-19 -155 -91 -228.5t-202 -73.5z" />
    <glyph glyph-name="Yacute" unicode="&#xdd;" horiz-adv-x="581" 
d="M294 775l115 132l124 1l-130 -133h-109zM200 0l39 314l-166 396h130l106 -284h3l176 284h137l-267 -396l-40 -314h-118z" />
    <glyph glyph-name="Thorn" unicode="&#xde;" horiz-adv-x="614" 
d="M62 0l87 710h118l-16 -130h135q198 0 198 -191q0 -122 -72.5 -193t-208.5 -71h-108l-15 -125h-118zM208 231h112q66 0 103.5 41t37.5 117q0 39 -26.5 62t-71.5 23h-125z" />
    <glyph glyph-name="germandbls" unicode="&#xdf;" horiz-adv-x="618" 
d="M401 -8q-57 0 -105 17.5t-73 49.5l62 79q40 -50 113 -50q36 0 57.5 15t21.5 38q0 18 -14.5 30.5t-49.5 31.5l-12 6q-62 36 -91 66.5t-29 75.5q0 24 11.5 46.5t23.5 35t36 33.5t33 30q42 40 42 86q0 28 -21.5 45.5t-59.5 17.5q-113 0 -130 -126l-63 -519h-110l66 532
q12 103 74.5 157.5t154.5 54.5q99 0 149.5 -44t50.5 -116q0 -47 -22 -80.5t-65 -68.5q-22 -18 -31 -25.5t-18.5 -20.5t-9.5 -24q0 -14 14 -29t56 -40q70 -41 89 -60q37 -36 37 -90q0 -74 -50.5 -114t-136.5 -40z" />
    <glyph glyph-name="agrave" unicode="&#xe0;" horiz-adv-x="562" 
d="M286 556l-94 145l122 -1l83 -144h-111zM207 -8q-83 0 -125.5 55.5t-42.5 142.5q0 121 67.5 213t172.5 92q82 0 128 -47l3 1l5 38h109l-60 -487h-109l11 89l-3 1q-33 -48 -74.5 -73t-81.5 -25zM228 89q54 0 104 67.5t64 175.5l2 18q-47 45 -111 45q-61 0 -99 -63.5
t-38 -143.5q0 -46 20 -72.5t58 -26.5z" />
    <glyph glyph-name="aacute" unicode="&#xe1;" horiz-adv-x="562" 
d="M257 556l119 144l121 1l-129 -145h-111zM207 -8q-83 0 -125.5 55.5t-42.5 142.5q0 121 67.5 213t172.5 92q82 0 128 -47l3 1l5 38h109l-60 -487h-109l11 89l-3 1q-33 -48 -74.5 -73t-81.5 -25zM228 89q54 0 104 67.5t64 175.5l2 18q-47 45 -111 45q-61 0 -99 -63.5
t-38 -143.5q0 -46 20 -72.5t58 -26.5z" />
    <glyph glyph-name="acircumflex" unicode="&#xe2;" horiz-adv-x="562" 
d="M173 554l118 147h104l87 -147h-106l-36 76h-2l-55 -76h-110zM207 -8q-83 0 -125.5 55.5t-42.5 142.5q0 121 67.5 213t172.5 92q82 0 128 -47l3 1l5 38h109l-60 -487h-109l11 89l-3 1q-33 -48 -74.5 -73t-81.5 -25zM228 89q54 0 104 67.5t64 175.5l2 18q-47 45 -111 45
q-61 0 -99 -63.5t-38 -143.5q0 -46 20 -72.5t58 -26.5z" />
    <glyph glyph-name="atilde" unicode="&#xe3;" horiz-adv-x="562" 
d="M408 554q-10 0 -19.5 2t-18.5 6.5t-14 7.5t-13.5 8.5t-10.5 7.5q-29 22 -46 22q-36 0 -60 -54l-68 35q45 107 118 107q14 0 26 -3.5t17.5 -6.5t17 -11t12.5 -9q33 -23 47 -23q37 0 60 53l68 -26q-20 -55 -50.5 -85.5t-65.5 -30.5zM207 -8q-83 0 -125.5 55.5t-42.5 142.5
q0 121 67.5 213t172.5 92q82 0 128 -47l3 1l5 38h109l-60 -487h-109l11 89l-3 1q-33 -48 -74.5 -73t-81.5 -25zM228 89q54 0 104 67.5t64 175.5l2 18q-47 45 -111 45q-61 0 -99 -63.5t-38 -143.5q0 -46 20 -72.5t58 -26.5z" />
    <glyph glyph-name="adieresis" unicode="&#xe4;" horiz-adv-x="562" 
d="M243 562q-31 0 -51.5 20.5t-20.5 50.5q0 32 21.5 53t53.5 21q30 0 50.5 -20t20.5 -51q0 -32 -21.5 -53t-52.5 -21zM433 562q-31 0 -51.5 20.5t-20.5 50.5q0 32 21.5 53t53.5 21q30 0 50.5 -20t20.5 -51q0 -32 -21.5 -53t-52.5 -21zM207 -8q-83 0 -125.5 55.5t-42.5 142.5
q0 121 67.5 213t172.5 92q82 0 128 -47l3 1l5 38h109l-60 -487h-109l11 89l-3 1q-33 -48 -74.5 -73t-81.5 -25zM228 89q54 0 104 67.5t64 175.5l2 18q-47 45 -111 45q-61 0 -99 -63.5t-38 -143.5q0 -46 20 -72.5t58 -26.5z" />
    <glyph glyph-name="aring" unicode="&#xe5;" horiz-adv-x="562" 
d="M339 540q-44 0 -73.5 29.5t-29.5 73.5q0 45 30.5 75t76.5 30q44 0 73.5 -29t29.5 -73q0 -46 -30.5 -76t-76.5 -30zM341 606q17 0 28 11t11 28q0 16 -11 27t-27 11t-27.5 -11.5t-11.5 -27.5t10.5 -27t27.5 -11zM207 -8q-83 0 -125.5 55.5t-42.5 142.5q0 121 67.5 213
t172.5 92q82 0 128 -47l3 1l5 38h109l-60 -487h-109l11 89l-3 1q-33 -48 -74.5 -73t-81.5 -25zM228 89q54 0 104 67.5t64 175.5l2 18q-47 45 -111 45q-61 0 -99 -63.5t-38 -143.5q0 -46 20 -72.5t58 -26.5z" />
    <glyph glyph-name="ae" unicode="&#xe6;" horiz-adv-x="696" 
d="M481 93q63 0 109 50l78 -74q-73 -76 -184 -76q-136 0 -173 110q-22 -52 -59 -81.5t-86 -29.5q-67 0 -105 52.5t-38 134.5q0 125 74 217t191 92q63 0 113 -35q58 42 134 42q67 0 106.5 -35t39.5 -95q0 -82 -78.5 -131t-217.5 -61q6 -39 33 -59.5t63 -20.5zM526 396
q-40 0 -80.5 -38t-55.5 -101q86 11 133 37.5t47 62.5q0 17 -11.5 28t-32.5 11zM183 91q13 0 24 6.5t21.5 23t17 27.5t16.5 39t13 37t12 40q17 66 48 117q-22 7 -44 7q-71 0 -113.5 -67t-42.5 -151q0 -79 48 -79z" />
    <glyph glyph-name="ccedilla" unicode="&#xe7;" horiz-adv-x="491" 
d="M255 92q60 0 107 50l78 -74q-72 -74 -183 -76l-15 -23l1 -1q75 -3 75 -66q0 -45 -34 -69t-90 -24q-24 0 -48 6l3 55q14 -7 36 -7q26 0 42.5 9.5t16.5 28.5q0 27 -69 27l2 36l19 33q-74 13 -114.5 65t-40.5 140q0 122 71 207.5t190 85.5q56 0 103.5 -20.5t72.5 -59.5
l-84 -76q-33 56 -95 56q-65 0 -106 -52.5t-41 -126.5q0 -64 30 -94t73 -30z" />
    <glyph glyph-name="egrave" unicode="&#xe8;" horiz-adv-x="480" 
d="M377 556h-111l-94 145l122 -1zM253 93q63 0 109 50l78 -74q-73 -76 -190 -76q-99 0 -154 53t-55 156q0 121 70 207t191 86q70 0 113.5 -33.5t43.5 -94.5q0 -159 -307 -193q9 -40 37 -60.5t64 -20.5zM299 396q-46 0 -88 -36t-56 -98q193 21 193 95q0 39 -49 39z" />
    <glyph glyph-name="eacute" unicode="&#xe9;" horiz-adv-x="480" 
d="M480 701l-129 -145h-111l119 144zM459 367q0 -159 -307 -193q9 -40 37 -60.5t64 -20.5q63 0 109 50l78 -74q-73 -76 -190 -76q-99 0 -154 53t-55 156q0 121 70 207t191 86q70 0 113.5 -33.5t43.5 -94.5zM155 262q193 21 193 95q0 39 -49 39q-46 0 -88 -36t-56 -98z" />
    <glyph glyph-name="ecircumflex" unicode="&#xea;" horiz-adv-x="480" 
d="M306 630l-55 -76h-110l118 147h104l87 -147h-106l-36 76h-2zM253 93q63 0 109 50l78 -74q-73 -76 -190 -76q-99 0 -154 53t-55 156q0 121 70 207t191 86q70 0 113.5 -33.5t43.5 -94.5q0 -159 -307 -193q9 -40 37 -60.5t64 -20.5zM299 396q-46 0 -88 -36t-56 -98
q193 21 193 95q0 39 -49 39z" />
    <glyph glyph-name="edieresis" unicode="&#xeb;" horiz-adv-x="480" 
d="M211 562q-31 0 -51.5 20.5t-20.5 50.5q0 32 21.5 53t53.5 21q30 0 50.5 -20t20.5 -51q0 -32 -21.5 -53t-52.5 -21zM401 562q-31 0 -51.5 20.5t-20.5 50.5q0 32 21.5 53t53.5 21q30 0 50.5 -20t20.5 -51q0 -32 -21.5 -53t-52.5 -21zM459 367q0 -159 -307 -193
q9 -40 37 -60.5t64 -20.5q63 0 109 50l78 -74q-73 -76 -190 -76q-99 0 -154 53t-55 156q0 121 70 207t191 86q70 0 113.5 -33.5t43.5 -94.5zM155 262q193 21 193 95q0 39 -49 39q-46 0 -88 -36t-56 -98z" />
    <glyph glyph-name="igrave" unicode="&#xec;" horiz-adv-x="260" 
d="M112 565l-59 145l122 -1l50 -144h-113zM44 0l60 488h110l-60 -488h-110z" />
    <glyph glyph-name="iacute" unicode="&#xed;" horiz-adv-x="258" 
d="M117 556l119 144l121 1l-129 -145h-111zM44 0l60 488h110l-60 -488h-110z" />
    <glyph glyph-name="icircumflex" unicode="&#xee;" horiz-adv-x="258" 
d="M14 554l118 147h104l87 -147h-106l-36 76h-2l-55 -76h-110zM44 0l60 488h110l-60 -488h-110z" />
    <glyph glyph-name="idieresis" unicode="&#xef;" horiz-adv-x="258" 
d="M91 562q-29 0 -49.5 20.5t-20.5 50.5q0 32 21 53t52 21q27 0 47 -20.5t20 -50.5q0 -31 -20.5 -52.5t-49.5 -21.5zM269 562q-29 0 -49.5 20.5t-20.5 50.5q0 32 21 53t52 21q27 0 47 -20.5t20 -50.5q0 -31 -20.5 -52.5t-49.5 -21.5zM44 0l60 488h110l-60 -488h-110z" />
    <glyph glyph-name="eth" unicode="&#xf0;" horiz-adv-x="543" 
d="M448 550q57 -103 57 -238q0 -64 -15.5 -119.5t-46 -101t-82 -72t-117.5 -26.5q-91 0 -148 54.5t-57 143.5q0 116 70 199.5t168 83.5q62 0 106 -31q-10 33 -26 64q-15 27 -33 48l-41 -47l-60 52l42 49q-31 22 -92 55l51 76q57 -21 105 -57l69 80l63 -51l-71 -82
q35 -38 58 -80zM246 93q42 0 72.5 21.5t47.5 57.5t24.5 77.5t6.5 86.5v9q-34 31 -93 31q-65 0 -110 -49.5t-45 -122.5q0 -52 28.5 -81.5t68.5 -29.5z" />
    <glyph glyph-name="ntilde" unicode="&#xf1;" horiz-adv-x="556" 
d="M407 554q-10 0 -19.5 2t-18.5 6.5t-14 7.5t-13.5 8.5t-10.5 7.5q-29 22 -46 22q-36 0 -60 -54l-68 35q45 107 118 107q14 0 26 -3.5t17.5 -6.5t17 -11t12.5 -9q33 -23 47 -23q37 0 60 53l68 -26q-20 -55 -50.5 -85.5t-65.5 -30.5zM42 0l61 488h109l-10 -84l2 -1
q76 92 175 92q77 0 106 -49.5t15 -151.5l-40 -294h-109l38 285q8 56 -2 83.5t-45 27.5q-48 0 -102.5 -63.5t-65.5 -150.5l-22 -182h-110z" />
    <glyph glyph-name="ograve" unicode="&#xf2;" horiz-adv-x="548" 
d="M265 556l-94 145l122 -1l83 -144h-111zM246 -8q-94 0 -149.5 54t-55.5 155q0 126 69.5 210t191.5 84q94 0 149.5 -54t55.5 -155q0 -126 -69.5 -210t-191.5 -84zM252 92q62 0 103 54t41 129q0 67 -30.5 93.5t-69.5 26.5q-62 0 -103 -54t-41 -129q0 -67 30 -93.5t70 -26.5z
" />
    <glyph glyph-name="oacute" unicode="&#xf3;" horiz-adv-x="548" 
d="M260 556l119 144l121 1l-129 -145h-111zM246 -8q-94 0 -149.5 54t-55.5 155q0 126 69.5 210t191.5 84q94 0 149.5 -54t55.5 -155q0 -126 -69.5 -210t-191.5 -84zM252 92q62 0 103 54t41 129q0 67 -30.5 93.5t-69.5 26.5q-62 0 -103 -54t-41 -129q0 -67 30 -93.5t70 -26.5
z" />
    <glyph glyph-name="ocircumflex" unicode="&#xf4;" horiz-adv-x="548" 
d="M162 554l118 147h104l87 -147h-106l-36 76h-2l-55 -76h-110zM246 -8q-94 0 -149.5 54t-55.5 155q0 126 69.5 210t191.5 84q94 0 149.5 -54t55.5 -155q0 -126 -69.5 -210t-191.5 -84zM252 92q62 0 103 54t41 129q0 67 -30.5 93.5t-69.5 26.5q-62 0 -103 -54t-41 -129
q0 -67 30 -93.5t70 -26.5z" />
    <glyph glyph-name="otilde" unicode="&#xf5;" horiz-adv-x="548" 
d="M397 554q-10 0 -19.5 2t-18.5 6.5t-14 7.5t-13.5 8.5t-10.5 7.5q-29 22 -46 22q-36 0 -60 -54l-68 35q45 107 118 107q14 0 26 -3.5t17.5 -6.5t17 -11t12.5 -9q33 -23 47 -23q37 0 60 53l68 -26q-20 -55 -50.5 -85.5t-65.5 -30.5zM246 -8q-94 0 -149.5 54t-55.5 155
q0 126 69.5 210t191.5 84q94 0 149.5 -54t55.5 -155q0 -126 -69.5 -210t-191.5 -84zM252 92q62 0 103 54t41 129q0 67 -30.5 93.5t-69.5 26.5q-62 0 -103 -54t-41 -129q0 -67 30 -93.5t70 -26.5z" />
    <glyph glyph-name="odieresis" unicode="&#xf6;" horiz-adv-x="548" 
d="M232 562q-31 0 -51.5 20.5t-20.5 50.5q0 32 21.5 53t53.5 21q30 0 50.5 -20t20.5 -51q0 -32 -21 -53t-53 -21zM422 562q-31 0 -51.5 20.5t-20.5 50.5q0 32 21.5 53t53.5 21q30 0 50.5 -20t20.5 -51q0 -32 -21 -53t-53 -21zM246 -8q-94 0 -149.5 54t-55.5 155
q0 126 69.5 210t191.5 84q94 0 149.5 -54t55.5 -155q0 -126 -69.5 -210t-191.5 -84zM252 92q62 0 103 54t41 129q0 67 -30.5 93.5t-69.5 26.5q-62 0 -103 -54t-41 -129q0 -67 30 -93.5t70 -26.5z" />
    <glyph glyph-name="divide" unicode="&#xf7;" horiz-adv-x="535" 
d="M310 398q-31 0 -51 20.5t-20 50.5q0 32 21 53t53 21q31 0 51.5 -20t20.5 -51q0 -32 -21.5 -53t-53.5 -21zM70 227l12 100h427l-12 -100h-427zM261 -1q-31 0 -51 20.5t-20 50.5q0 32 21 53t53 21q31 0 51.5 -20t20.5 -51q0 -32 -21.5 -53t-53.5 -21z" />
    <glyph glyph-name="oslash" unicode="&#xf8;" horiz-adv-x="552" 
d="M532 460l-53 -55q28 -50 28 -119q0 -126 -69.5 -210t-191.5 -84q-78 0 -127 36l-51 -53l-49 50l52 54q-30 51 -30 122q0 126 69.5 210t191.5 84q78 0 130 -38l51 53zM152 212q0 -19 4 -43l199 208q-24 18 -59 18q-62 0 -103 -54t-41 -129zM396 275q0 24 -4 39l-197 -206
q24 -16 57 -16q62 0 103 54t41 129z" />
    <glyph glyph-name="ugrave" unicode="&#xf9;" horiz-adv-x="545" 
d="M263 556l-94 145l122 -1l83 -144h-111zM186 -8q-78 0 -110.5 47t-18.5 149l42 300h109l-39 -290q-8 -58 4.5 -82t46.5 -24q43 0 93 55.5t60 132.5l25 208h110l-60 -488h-110l11 87h-2q-63 -95 -161 -95z" />
    <glyph glyph-name="uacute" unicode="&#xfa;" horiz-adv-x="545" 
d="M250 556l119 144l121 1l-129 -145h-111zM186 -8q-78 0 -110.5 47t-18.5 149l42 300h109l-39 -290q-8 -58 4.5 -82t46.5 -24q43 0 93 55.5t60 132.5l25 208h110l-60 -488h-110l11 87h-2q-63 -95 -161 -95z" />
    <glyph glyph-name="ucircumflex" unicode="&#xfb;" horiz-adv-x="545" 
d="M157 554l118 147h104l87 -147h-106l-36 76h-2l-55 -76h-110zM186 -8q-78 0 -110.5 47t-18.5 149l42 300h109l-39 -290q-8 -58 4.5 -82t46.5 -24q43 0 93 55.5t60 132.5l25 208h110l-60 -488h-110l11 87h-2q-63 -95 -161 -95z" />
    <glyph glyph-name="udieresis" unicode="&#xfc;" horiz-adv-x="545" 
d="M227 562q-31 0 -51.5 20.5t-20.5 50.5q0 32 21.5 53t53.5 21q30 0 50.5 -20t20.5 -51q0 -32 -21.5 -53t-52.5 -21zM417 562q-31 0 -51.5 20.5t-20.5 50.5q0 32 21.5 53t53.5 21q30 0 50.5 -20t20.5 -51q0 -32 -21.5 -53t-52.5 -21zM186 -8q-78 0 -110.5 47t-18.5 149
l42 300h109l-39 -290q-8 -58 4.5 -82t46.5 -24q43 0 93 55.5t60 132.5l25 208h110l-60 -488h-110l11 87h-2q-63 -95 -161 -95z" />
    <glyph glyph-name="yacute" unicode="&#xfd;" horiz-adv-x="545" 
d="M484 701l-129 -145h-111l119 144zM401 488h108l-52 -427q-32 -266 -263 -266q-100 0 -178 44l49 93q60 -38 131 -38q64 0 102.5 37t50.5 138l2 17l-2 1q-64 -95 -168 -95q-153 0 -126 196l41 300h109l-38 -290q-7 -58 5 -81.5t46 -24.5q47 0 98 59t60 139z" />
    <glyph glyph-name="thorn" unicode="&#xfe;" horiz-adv-x="571" 
d="M19 -198l114 934h109l-42 -339l3 -2q67 100 171 100q76 0 116.5 -57t40.5 -141q0 -121 -67.5 -213t-174.5 -92q-83 0 -130 43l-2 -1l-29 -232h-109zM261 91q72 0 116 59t44 138q0 47 -18.5 78t-54.5 31q-59 0 -111 -66t-65 -168l-3 -24q27 -48 92 -48z" />
    <glyph glyph-name="ydieresis" unicode="&#xff;" horiz-adv-x="545" 
d="M227 562q-31 0 -51.5 20.5t-20.5 50.5q0 32 21.5 53t53.5 21q30 0 50.5 -20t20.5 -51q0 -32 -21.5 -53t-52.5 -21zM417 562q-31 0 -51.5 20.5t-20.5 50.5q0 32 21.5 53t53.5 21q30 0 50.5 -20t20.5 -51q0 -32 -21.5 -53t-52.5 -21zM401 488h108l-52 -427
q-32 -266 -263 -266q-100 0 -178 44l49 93q60 -38 131 -38q64 0 102.5 37t50.5 138l2 17l-2 1q-64 -95 -168 -95q-153 0 -126 196l41 300h109l-38 -290q-7 -58 5 -81.5t46 -24.5q47 0 98 59t60 139z" />
    <glyph glyph-name="Amacron" unicode="&#x100;" horiz-adv-x="647" 
d="M261 797l11 87h274l-11 -87h-274zM-4 0l324 710h123l150 -710h-123l-29 154h-256l-67 -154h-122zM229 257h192l-58 305h-2z" />
    <glyph glyph-name="amacron" unicode="&#x101;" horiz-adv-x="562" 
d="M196 585l11 92h274l-11 -92h-274zM207 -8q-83 0 -125.5 55.5t-42.5 142.5q0 121 67.5 213t172.5 92q82 0 128 -47l3 1l5 38h109l-60 -487h-109l11 89l-3 1q-33 -48 -74.5 -73t-81.5 -25zM228 89q54 0 104 67.5t64 175.5l2 18q-47 45 -111 45q-61 0 -99 -63.5t-38 -143.5
q0 -46 20 -72.5t58 -26.5z" />
    <glyph glyph-name="Abreve" unicode="&#x102;" horiz-adv-x="647" 
d="M397 768q-69 0 -103 37t-28 102h85q-3 -22 9 -38.5t40 -16.5q26 0 46.5 17t27.5 38h85q-13 -63 -56 -101t-106 -38zM-4 0l324 710h123l150 -710h-123l-29 154h-256l-67 -154h-122zM229 257h192l-58 305h-2z" />
    <glyph glyph-name="abreve" unicode="&#x103;" horiz-adv-x="562" 
d="M332 549q-69 0 -103 38.5t-28 109.5h85q-7 -64 49 -64q27 0 47.5 18.5t26.5 45.5h85q-13 -69 -56 -108.5t-106 -39.5zM207 -8q-83 0 -125.5 55.5t-42.5 142.5q0 121 67.5 213t172.5 92q82 0 128 -47l3 1l5 38h109l-60 -487h-109l11 89l-3 1q-33 -48 -74.5 -73t-81.5 -25z
M228 89q54 0 104 67.5t64 175.5l2 18q-47 45 -111 45q-61 0 -99 -63.5t-38 -143.5q0 -46 20 -72.5t58 -26.5z" />
    <glyph glyph-name="Aogonek" unicode="&#x104;" horiz-adv-x="647" 
d="M587 0q-40 -8 -66.5 -33.5t-26.5 -53.5q0 -30 28 -30q26 0 40 8l2 -68q-23 -11 -69 -11q-92 0 -92 75q0 65 67 113l-29 154h-256l-67 -154h-122l324 710h123l150 -710h-6zM229 257h192l-58 305h-2z" />
    <glyph glyph-name="aogonek" unicode="&#x105;" horiz-adv-x="562" 
d="M415 487h109l-60 -487h-3q-40 -8 -66.5 -33.5t-26.5 -53.5q0 -30 28 -30q26 0 40 8l2 -68q-23 -11 -69 -11q-92 0 -92 75q0 34 22.5 67.5t56.5 53.5l10 81l-3 1q-33 -48 -74.5 -73t-81.5 -25q-83 0 -125.5 55.5t-42.5 142.5q0 121 67.5 213t172.5 92q82 0 128 -47l3 1z
M228 89q54 0 104 67.5t64 175.5l2 18q-47 45 -111 45q-61 0 -99 -63.5t-38 -143.5q0 -46 20 -72.5t58 -26.5z" />
    <glyph glyph-name="Cacute" unicode="&#x106;" horiz-adv-x="677" 
d="M384 775l115 132l124 1l-130 -133h-109zM358 -8q-132 0 -211.5 76.5t-79.5 220.5q0 180 103.5 304.5t266.5 124.5q166 0 242 -134l-94 -79q-54 101 -154 101q-106 0 -173.5 -93t-67.5 -214q0 -94 44.5 -144.5t129.5 -50.5q54 0 92.5 19t83.5 60l72 -90
q-104 -101 -254 -101z" />
    <glyph glyph-name="cacute" unicode="&#x107;" horiz-adv-x="491" 
d="M246 556l119 144l121 1l-129 -145h-111zM250 -8q-99 0 -154 53t-55 157q0 122 71 207.5t190 85.5q56 0 103.5 -20.5t72.5 -59.5l-84 -76q-33 56 -95 56q-65 0 -106 -52.5t-41 -126.5q0 -64 30 -94t73 -30q60 0 107 50l78 -74q-73 -76 -190 -76z" />
    <glyph glyph-name="Ccircumflex" unicode="&#x108;" horiz-adv-x="677" 
d="M307 775l120 133h106l84 -133h-103l-42 68h-3l-59 -68h-103zM358 -8q-132 0 -211.5 76.5t-79.5 220.5q0 180 103.5 304.5t266.5 124.5q166 0 242 -134l-94 -79q-54 101 -154 101q-106 0 -173.5 -93t-67.5 -214q0 -94 44.5 -144.5t129.5 -50.5q54 0 92.5 19t83.5 60
l72 -90q-104 -101 -254 -101z" />
    <glyph glyph-name="ccircumflex" unicode="&#x109;" horiz-adv-x="491" 
d="M167 554l118 147h104l87 -147h-106l-36 76h-2l-55 -76h-110zM250 -8q-99 0 -154 53t-55 157q0 122 71 207.5t190 85.5q56 0 103.5 -20.5t72.5 -59.5l-84 -76q-33 56 -95 56q-65 0 -106 -52.5t-41 -126.5q0 -64 30 -94t73 -30q60 0 107 50l78 -74q-73 -76 -190 -76z" />
    <glyph glyph-name="Cdotaccent" unicode="&#x10a;" horiz-adv-x="677" 
d="M468 775q-31 0 -51 20.5t-20 50.5q0 32 21 53t53 21q31 0 51.5 -20t20.5 -51q0 -32 -21.5 -53t-53.5 -21zM358 -8q-132 0 -211.5 76.5t-79.5 220.5q0 180 103.5 304.5t266.5 124.5q166 0 242 -134l-94 -79q-54 101 -154 101q-106 0 -173.5 -93t-67.5 -214
q0 -94 44.5 -144.5t129.5 -50.5q54 0 92.5 19t83.5 60l72 -90q-104 -101 -254 -101z" />
    <glyph glyph-name="cdotaccent" unicode="&#x10b;" horiz-adv-x="491" 
d="M333 562q-31 0 -51 20.5t-20 50.5q0 32 21 53t53 21q31 0 51.5 -20t20.5 -51q0 -32 -21.5 -53t-53.5 -21zM250 -8q-99 0 -154 53t-55 157q0 122 71 207.5t190 85.5q56 0 103.5 -20.5t72.5 -59.5l-84 -76q-33 56 -95 56q-65 0 -106 -52.5t-41 -126.5q0 -64 30 -94t73 -30
q60 0 107 50l78 -74q-73 -76 -190 -76z" />
    <glyph glyph-name="Ccaron" unicode="&#x10c;" horiz-adv-x="677" 
d="M407 775l-84 133h103l42 -68h3l59 68h103l-120 -133h-106zM358 -8q-132 0 -211.5 76.5t-79.5 220.5q0 180 103.5 304.5t266.5 124.5q166 0 242 -134l-94 -79q-54 101 -154 101q-106 0 -173.5 -93t-67.5 -214q0 -94 44.5 -144.5t129.5 -50.5q54 0 92.5 19t83.5 60l72 -90
q-104 -101 -254 -101z" />
    <glyph glyph-name="ccaron" unicode="&#x10d;" horiz-adv-x="491" 
d="M267 552l-79 145h102l38 -75h3l57 75h103l-118 -145h-106zM250 -8q-99 0 -154 53t-55 157q0 122 71 207.5t190 85.5q56 0 103.5 -20.5t72.5 -59.5l-84 -76q-33 56 -95 56q-65 0 -106 -52.5t-41 -126.5q0 -64 30 -94t73 -30q60 0 107 50l78 -74q-73 -76 -190 -76z" />
    <glyph glyph-name="Dcaron" unicode="&#x10e;" horiz-adv-x="693" 
d="M356 775l-84 133h103l42 -68h3l59 68h103l-120 -133h-106zM62 0l87 710h212q142 0 216.5 -77.5t74.5 -215.5q0 -190 -101 -303.5t-274 -113.5h-215zM193 106h96q109 0 174.5 87t65.5 224q0 86 -46 136.5t-131 50.5h-98z" />
    <glyph glyph-name="dcaron" unicode="&#x10f;" horiz-adv-x="626" 
d="M604 583l52 198h113l-82 -198h-83zM208 -8q-83 0 -125.5 55.5t-42.5 142.5q0 121 67.5 213t172.5 92q82 0 132 -47l3 1l35 287h110l-91 -736h-110l12 91l-3 1q-68 -100 -160 -100zM229 89q56 0 106.5 67t64.5 174l3 22q-40 43 -115 43q-61 0 -99 -64t-38 -143
q0 -46 20 -72.5t58 -26.5z" />
    <glyph glyph-name="Dcroat" unicode="&#x110;" horiz-adv-x="695" 
d="M363 710q142 0 216.5 -77.5t74.5 -215.5q0 -190 -101 -303.5t-274 -113.5h-215l37 302h-57l15 101h54l38 307h212zM291 106q109 0 174.5 87t65.5 224q0 86 -46 136.5t-131 50.5h-98l-25 -201h142l-15 -101h-139l-24 -196h96z" />
    <glyph glyph-name="dcroat" unicode="&#x111;" horiz-adv-x="551" 
d="M601 637l-10 -75h-53l-69 -562h-110l12 91l-3 1q-68 -100 -160 -100q-83 0 -125.5 55.5t-42.5 142.5q0 121 67.5 213t172.5 92q82 0 132 -47l3 1l14 113h-172l9 75h172l12 99h110l-12 -99h53zM400 330l3 22q-40 43 -115 43q-61 0 -99 -64t-38 -143q0 -46 20 -72.5
t58 -26.5q56 0 106.5 67t64.5 174z" />
    <glyph glyph-name="Emacron" unicode="&#x112;" horiz-adv-x="595" 
d="M247 797l11 87h274l-11 -87h-274zM62 0l87 710h432l-14 -106h-314l-24 -199h287l-13 -106h-287l-24 -193h330l-13 -106h-447z" />
    <glyph glyph-name="emacron" unicode="&#x113;" horiz-adv-x="480" 
d="M449 677l-11 -92h-274l11 92h274zM253 93q63 0 109 50l78 -74q-73 -76 -190 -76q-99 0 -154 53t-55 156q0 121 70 207t191 86q70 0 113.5 -33.5t43.5 -94.5q0 -159 -307 -193q9 -40 37 -60.5t64 -20.5zM299 396q-46 0 -88 -36t-56 -98q193 21 193 95q0 39 -49 39z" />
    <glyph glyph-name="Ebreve" unicode="&#x114;" horiz-adv-x="595" 
d="M383 768q-69 0 -103 37t-28 102h85q-3 -22 9 -38.5t40 -16.5q26 0 46.5 17t27.5 38h85q-13 -63 -56 -101t-106 -38zM62 0l87 710h432l-14 -106h-314l-24 -199h287l-13 -106h-287l-24 -193h330l-13 -106h-447z" />
    <glyph glyph-name="ebreve" unicode="&#x115;" horiz-adv-x="480" 
d="M300 549q-69 0 -103 38.5t-28 109.5h85q-7 -64 49 -64q27 0 47.5 18.5t26.5 45.5h85q-13 -69 -56 -108.5t-106 -39.5zM459 367q0 -159 -307 -193q9 -40 37 -60.5t64 -20.5q63 0 109 50l78 -74q-73 -76 -190 -76q-99 0 -154 53t-55 156q0 121 70 207t191 86
q70 0 113.5 -33.5t43.5 -94.5zM155 262q193 21 193 95q0 39 -49 39q-46 0 -88 -36t-56 -98z" />
    <glyph glyph-name="Edotaccent" unicode="&#x116;" horiz-adv-x="595" 
d="M386 775q-31 0 -51 20.5t-20 50.5q0 32 21 53t53 21q31 0 51.5 -20t20.5 -51q0 -32 -21.5 -53t-53.5 -21zM62 0l87 710h432l-14 -106h-314l-24 -199h287l-13 -106h-287l-24 -193h330l-13 -106h-447z" />
    <glyph glyph-name="edotaccent" unicode="&#x117;" horiz-adv-x="480" 
d="M307 562q-31 0 -51 20.5t-20 50.5q0 32 21 53t53 21q31 0 51.5 -20t20.5 -51q0 -32 -21.5 -53t-53.5 -21zM253 93q63 0 109 50l78 -74q-73 -76 -190 -76q-99 0 -154 53t-55 156q0 121 70 207t191 86q70 0 113.5 -33.5t43.5 -94.5q0 -159 -307 -193q9 -40 37 -60.5
t64 -20.5zM299 396q-46 0 -88 -36t-56 -98q193 21 193 95q0 39 -49 39z" />
    <glyph glyph-name="Eogonek" unicode="&#x118;" horiz-adv-x="595" 
d="M567 604h-314l-24 -199h287l-13 -106h-287l-24 -193h330l-13 -106h-3q-40 -8 -66.5 -33.5t-26.5 -53.5q0 -30 28 -30q26 0 40 8l2 -68q-23 -11 -69 -11q-92 0 -92 75q0 31 18.5 61.5t47.5 51.5h-326l87 710h432z" />
    <glyph glyph-name="eogonek" unicode="&#x119;" horiz-adv-x="480" 
d="M253 93q63 0 109 50l78 -74q-49 -52 -118 -68q-38 -14 -62.5 -38.5t-24.5 -49.5q0 -30 32 -30q20 0 36 8l1 -68q-23 -11 -68 -11q-92 0 -92 75q0 60 59 107l-1 3q-77 11 -119 63t-42 142q0 121 70 207t191 86q70 0 113.5 -33.5t43.5 -94.5q0 -159 -307 -193
q9 -40 37 -60.5t64 -20.5zM299 396q-46 0 -88 -36t-56 -98q193 21 193 95q0 39 -49 39z" />
    <glyph glyph-name="Ecaron" unicode="&#x11a;" horiz-adv-x="595" 
d="M325 775l-84 133h103l42 -68h3l59 68h103l-120 -133h-106zM62 0l87 710h432l-14 -106h-314l-24 -199h287l-13 -106h-287l-24 -193h330l-13 -106h-447z" />
    <glyph glyph-name="ecaron" unicode="&#x11b;" horiz-adv-x="480" 
d="M347 552h-106l-79 145h102l38 -75h3l57 75h103zM459 367q0 -159 -307 -193q9 -40 37 -60.5t64 -20.5q63 0 109 50l78 -74q-73 -76 -190 -76q-99 0 -154 53t-55 156q0 121 70 207t191 86q70 0 113.5 -33.5t43.5 -94.5zM155 262q193 21 193 95q0 39 -49 39q-46 0 -88 -36
t-56 -98z" />
    <glyph glyph-name="Gcircumflex" unicode="&#x11c;" horiz-adv-x="713" 
d="M299 775l120 133h106l84 -133h-103l-42 68h-3l-59 -68h-103zM358 -8q-132 0 -211.5 76.5t-79.5 220.5q0 180 104 304.5t269 124.5q168 0 244 -121l-94 -78q-26 42 -68.5 64.5t-92.5 22.5q-104 0 -171.5 -93t-67.5 -214q0 -97 44 -148t127 -51q87 0 150 45l19 127h-149
l14 106h266l-37 -301q-46 -39 -119.5 -62t-146.5 -23z" />
    <glyph glyph-name="gcircumflex" unicode="&#x11d;" horiz-adv-x="566" 
d="M172 554l118 147h104l87 -147h-106l-36 76h-2l-55 -76h-110zM205 -205q-106 0 -179 45l49 92q58 -37 128 -37q71 0 110 36t52 138l5 41l-2 1q-69 -103 -161 -103q-82 0 -124 55.5t-42 142.5q0 110 67.5 199.5t171.5 89.5q83 0 130 -46l2 1l5 38h109l-52 -427
q-10 -79 -35 -133t-63 -82t-78.5 -39.5t-92.5 -11.5zM229 105q51 0 101 60t64 151l5 33q-46 46 -110 46q-61 0 -99 -61t-38 -130q0 -46 20 -72.5t57 -26.5z" />
    <glyph glyph-name="Gbreve" unicode="&#x11e;" horiz-adv-x="713" 
d="M457 768q-69 0 -103 37t-28 102h85q-3 -22 9 -38.5t40 -16.5q26 0 46.5 17t27.5 38h85q-13 -63 -56 -101t-106 -38zM358 -8q-132 0 -211.5 76.5t-79.5 220.5q0 180 104 304.5t269 124.5q168 0 244 -121l-94 -78q-26 42 -68.5 64.5t-92.5 22.5q-104 0 -171.5 -93
t-67.5 -214q0 -97 44 -148t127 -51q87 0 150 45l19 127h-149l14 106h266l-37 -301q-46 -39 -119.5 -62t-146.5 -23z" />
    <glyph glyph-name="gbreve" unicode="&#x11f;" horiz-adv-x="566" 
d="M331 549q-69 0 -103 38.5t-28 109.5h85q-7 -64 49 -64q27 0 47.5 18.5t26.5 45.5h85q-13 -69 -56 -108.5t-106 -39.5zM205 -205q-106 0 -179 45l49 92q58 -37 128 -37q71 0 110 36t52 138l5 41l-2 1q-69 -103 -161 -103q-82 0 -124 55.5t-42 142.5q0 110 67.5 199.5
t171.5 89.5q83 0 130 -46l2 1l5 38h109l-52 -427q-10 -79 -35 -133t-63 -82t-78.5 -39.5t-92.5 -11.5zM229 105q51 0 101 60t64 151l5 33q-46 46 -110 46q-61 0 -99 -61t-38 -130q0 -46 20 -72.5t57 -26.5z" />
    <glyph glyph-name="Gdotaccent" unicode="&#x120;" horiz-adv-x="713" 
d="M460 775q-31 0 -51 20.5t-20 50.5q0 32 21 53t53 21q31 0 51.5 -20t20.5 -51q0 -32 -21.5 -53t-53.5 -21zM358 -8q-132 0 -211.5 76.5t-79.5 220.5q0 180 104 304.5t269 124.5q168 0 244 -121l-94 -78q-26 42 -68.5 64.5t-92.5 22.5q-104 0 -171.5 -93t-67.5 -214
q0 -97 44 -148t127 -51q87 0 150 45l19 127h-149l14 106h266l-37 -301q-46 -39 -119.5 -62t-146.5 -23z" />
    <glyph glyph-name="gdotaccent" unicode="&#x121;" horiz-adv-x="566" 
d="M338 562q-31 0 -51 20.5t-20 50.5q0 32 21 53t53 21q31 0 51.5 -20t20.5 -51q0 -32 -21.5 -53t-53.5 -21zM205 -205q-106 0 -179 45l49 92q58 -37 128 -37q71 0 110 36t52 138l5 41l-2 1q-69 -103 -161 -103q-82 0 -124 55.5t-42 142.5q0 110 67.5 199.5t171.5 89.5
q83 0 130 -46l2 1l5 38h109l-52 -427q-10 -79 -35 -133t-63 -82t-78.5 -39.5t-92.5 -11.5zM229 105q51 0 101 60t64 151l5 33q-46 46 -110 46q-61 0 -99 -61t-38 -130q0 -46 20 -72.5t57 -26.5z" />
    <glyph glyph-name="Gcommaaccent" unicode="&#x122;" horiz-adv-x="713" 
d="M358 -8q-132 0 -211.5 76.5t-79.5 220.5q0 180 104 304.5t269 124.5q168 0 244 -121l-94 -78q-26 42 -68.5 64.5t-92.5 22.5q-104 0 -171.5 -93t-67.5 -214q0 -97 44 -148t127 -51q87 0 150 45l19 127h-149l14 106h266l-37 -301q-46 -39 -119.5 -62t-146.5 -23zM259 -219
l-16 65q32 12 45.5 29t13.5 48q0 4 -2 24h98v-22q0 -62 -36 -99.5t-103 -44.5z" />
    <glyph glyph-name="gcommaaccent" unicode="&#x123;" horiz-adv-x="566" 
d="M424 725l16 -65q-32 -12 -45.5 -29t-13.5 -48q0 -4 2 -24h-98v22q0 62 36 99.5t103 44.5zM205 -205q-106 0 -179 45l49 92q58 -37 128 -37q71 0 110 36t52 138l5 41l-2 1q-69 -103 -161 -103q-82 0 -124 55.5t-42 142.5q0 110 67.5 199.5t171.5 89.5q83 0 130 -46l2 1
l5 38h109l-52 -427q-10 -79 -35 -133t-63 -82t-78.5 -39.5t-92.5 -11.5zM229 105q51 0 101 60t64 151l5 33q-46 46 -110 46q-61 0 -99 -61t-38 -130q0 -46 20 -72.5t57 -26.5z" />
    <glyph glyph-name="Hcircumflex" unicode="&#x124;" horiz-adv-x="699" 
d="M262 775l120 133h106l84 -133h-103l-42 68h-3l-59 -68h-103zM62 0l87 710h118l-39 -318h280l39 318h118l-87 -710h-119l36 286h-280l-35 -286h-118z" />
    <glyph glyph-name="hcircumflex" unicode="&#x125;" horiz-adv-x="556" 
d="M183 785l120 133h106l84 -133h-103l-42 68h-3l-59 -68h-103zM42 0l91 736h109l-41 -332l2 -1q74 92 176 92q77 0 106 -49.5t15 -151.5l-40 -294h-110l39 285q8 56 -2 83.5t-45 27.5q-49 0 -103 -64.5t-65 -152.5l-22 -179h-110z" />
    <glyph glyph-name="Hbar" unicode="&#x126;" horiz-adv-x="706" 
d="M698 598l-9 -81h-48l-63 -517h-119l36 286h-280l-35 -286h-118l63 517h-44l10 81h44l14 112h118l-14 -112h280l14 112h118l-14 -112h47zM508 392l15 125h-280l-15 -125h280z" />
    <glyph glyph-name="hbar" unicode="&#x127;" horiz-adv-x="556" 
d="M379 495q77 0 106 -49.5t15 -151.5l-40 -294h-110l39 285q8 56 -2 83.5t-45 27.5q-49 0 -103 -64.5t-65 -152.5l-22 -179h-110l69 562h-57l9 75h58l12 99h109l-12 -99h167l-9 -75h-167l-20 -158l2 -1q74 92 176 92z" />
    <glyph glyph-name="Itilde" unicode="&#x128;" horiz-adv-x="311" 
d="M300 774q-36 0 -79 32q-29 22 -46 22q-33 0 -57 -54l-68 35q48 98 116 98q12 0 21.5 -1.5t18.5 -6t13.5 -6.5t13 -8.5t10.5 -7.5q33 -23 47 -23q35 0 58 53l68 -26q-21 -49 -51.5 -78t-64.5 -29zM66 0l87 710h119l-87 -710h-119z" />
    <glyph glyph-name="itilde" unicode="&#x129;" horiz-adv-x="258" 
d="M242 557q-10 0 -18 1.5t-16 6t-11.5 7t-11.5 9.5t-9 7q-28 22 -43 22q-31 0 -56 -53l-62 34q44 100 110 100q11 0 20.5 -1.5t18 -5.5t12.5 -6t12.5 -8.5t9.5 -7.5q3 -2 10.5 -8t11 -8.5t9.5 -5t11 -2.5q31 0 54 53l63 -26q-20 -50 -50.5 -79t-64.5 -29zM44 0l60 488h110
l-60 -488h-110z" />
    <glyph glyph-name="Imacron" unicode="&#x12a;" horiz-adv-x="311" 
d="M87 797l11 87h274l-11 -87h-274zM66 0l87 710h119l-87 -710h-119z" />
    <glyph glyph-name="imacron" unicode="&#x12b;" horiz-adv-x="258" 
d="M37 585l11 92h274l-11 -92h-274zM44 0l60 488h110l-60 -488h-110z" />
    <glyph glyph-name="Ibreve" unicode="&#x12c;" horiz-adv-x="311" 
d="M223 768q-69 0 -103 37t-28 102h85q-3 -22 9 -38.5t40 -16.5q26 0 46.5 17t27.5 38h85q-13 -63 -56 -101t-106 -38zM66 0l87 710h119l-87 -710h-119z" />
    <glyph glyph-name="ibreve" unicode="&#x12d;" horiz-adv-x="258" 
d="M176 551q-56 0 -89 39t-28 107h81q-4 -32 6 -50.5t33 -18.5q24 0 39 19.5t16 49.5h85q-11 -67 -49 -106.5t-94 -39.5zM44 0l60 488h110l-60 -488h-110z" />
    <glyph glyph-name="Iogonek" unicode="&#x12e;" horiz-adv-x="311" 
d="M153 710h119l-87 -710h-2q-40 -8 -66.5 -33.5t-26.5 -53.5q0 -30 28 -30q26 0 40 8l2 -68q-23 -11 -69 -11q-92 0 -92 75q0 65 67 113z" />
    <glyph glyph-name="iogonek" unicode="&#x12f;" horiz-adv-x="258" 
d="M183 707q31 0 51.5 -20t20.5 -51q0 -32 -21.5 -53t-53.5 -21q-31 0 -51 20.5t-20 50.5q0 32 21 53t53 21zM45 8l59 480h110l-60 -488h-3q-40 -8 -66.5 -33.5t-26.5 -53.5q0 -30 28 -30q26 0 40 8l2 -68q-23 -11 -69 -11q-92 0 -92 75q0 34 22 67t56 54z" />
    <glyph glyph-name="Idotaccent" unicode="&#x130;" horiz-adv-x="311" 
d="M226 775q-31 0 -51 20.5t-20 50.5q0 32 21 53t53 21q31 0 51.5 -20t20.5 -51q0 -32 -21.5 -53t-53.5 -21zM66 0l87 710h119l-87 -710h-119z" />
    <glyph glyph-name="dotlessi" unicode="&#x131;" horiz-adv-x="258" 
d="M44 0l60 488h110l-60 -488h-110z" />
    <glyph glyph-name="IJ" unicode="&#x132;" horiz-adv-x="821" 
d="M66 0l87 710h119l-87 -710h-119zM513 -8q-62 0 -115.5 24t-80.5 66l76 91q16 -27 48 -48t69 -21q95 0 115 159l55 447h119l-56 -453q-16 -132 -71 -198.5t-159 -66.5z" />
    <glyph glyph-name="ij" unicode="&#x133;" horiz-adv-x="498" 
d="M180 562q-31 0 -51 20.5t-20 50.5q0 32 21 53t53 21q31 0 51.5 -20t20.5 -51q0 -32 -21.5 -53t-53.5 -21zM423 562q-31 0 -51 20.5t-20 50.5q0 32 21 53t53 21q31 0 51.5 -20t20.5 -51q0 -32 -21.5 -53t-53.5 -21zM44 0l60 488h110l-60 -488h-110zM239 -205q-44 0 -82 23
l28 86q19 -15 41 -15q26 0 40 20.5t19 69.5l63 509h110l-65 -524q-20 -169 -154 -169z" />
    <glyph glyph-name="Jcircumflex" unicode="&#x134;" horiz-adv-x="510" 
d="M281 775l120 133h106l84 -133h-103l-42 68h-3l-59 -68h-103zM202 -8q-62 0 -115.5 24t-80.5 66l76 91q16 -27 48 -48t69 -21q95 0 115 159l55 447h119l-56 -453q-16 -132 -71 -198.5t-159 -66.5z" />
    <glyph glyph-name="jcircumflex" unicode="&#x135;" horiz-adv-x="240" 
d="M-1 554l118 147h104l87 -147h-106l-36 76h-2l-55 -76h-110zM-19 -205q-44 0 -82 23l28 86q19 -15 41 -15q26 0 40 20.5t19 69.5l63 509h110l-65 -524q-20 -169 -154 -169z" />
    <glyph glyph-name="Kcommaaccent" unicode="&#x136;" horiz-adv-x="637" 
d="M670 710l-268 -312q64 -77 115 -185t71 -213h-123q-19 88 -59 175.5t-89 144.5l-112 -118l-25 -202h-118l87 710h118l-43 -348h2l298 348h146zM257 -77q0 4 -2 24h98v-22q0 -62 -36 -99.5t-103 -44.5l-16 65q32 12 45.5 29t13.5 48z" />
    <glyph glyph-name="kcommaaccent" unicode="&#x137;" horiz-adv-x="518" 
d="M433 -6q-16 -2 -23 -2q-23 0 -41 8.5t-29 17t-24.5 33.5t-19.5 38.5t-22 52.5l-10 25q-51 -35 -100 -57l-13 -110h-109l91 736h109l-62 -507l2 -1q151 93 201 260h111q-28 -136 -145 -251l26 -65q20 -51 38.5 -69t51.5 -25zM140 -219l-16 65q32 12 45.5 29t13.5 48
q0 4 -2 24h98v-22q0 -62 -36 -99.5t-103 -44.5z" />
    <glyph glyph-name="kgreenlandic" unicode="&#x138;" horiz-adv-x="518" 
d="M433 -6q-16 -2 -23 -2q-23 0 -41 8.5t-29 17t-24.5 33.5t-19.5 38.5t-22 52.5l-10 25q-51 -35 -100 -57l-13 -110h-109l61 488h108l-31 -257l3 -2q151 94 200 259h111q-28 -136 -145 -251l26 -65q20 -51 38.5 -69t51.5 -25z" />
    <glyph glyph-name="Lacute" unicode="&#x139;" horiz-adv-x="571" 
d="M274 775l115 132l124 1l-130 -133h-109zM62 0l87 710h118l-74 -604h318l-13 -106h-436z" />
    <glyph glyph-name="lacute" unicode="&#x13a;" horiz-adv-x="304" 
d="M145 788l115 132l124 1l-130 -133h-109zM176 -8q-134 0 -114 167l71 577h109l-70 -570q-9 -72 31 -72q35 0 68 28l23 -91q-42 -39 -118 -39z" />
    <glyph glyph-name="Lcommaaccent" unicode="&#x13b;" horiz-adv-x="571" 
d="M62 0l87 710h118l-74 -604h318l-13 -106h-436zM197 -219l-16 65q32 12 45.5 29t13.5 48q0 4 -2 24h98v-22q0 -62 -36 -99.5t-103 -44.5z" />
    <glyph glyph-name="lcommaaccent" unicode="&#x13c;" horiz-adv-x="304" 
d="M176 -8q-134 0 -114 167l71 577h109l-70 -570q-9 -72 31 -72q35 0 68 28l23 -91q-42 -39 -118 -39zM61 -219l-16 65q32 12 45.5 29t13.5 48q0 4 -2 24h98v-22q0 -62 -36 -99.5t-103 -44.5z" />
    <glyph glyph-name="Lcaron" unicode="&#x13d;" horiz-adv-x="571" 
d="M368 582l52 198h113l-82 -198h-83zM62 0l87 710h118l-74 -604h318l-13 -106h-436z" />
    <glyph glyph-name="lcaron" unicode="&#x13e;" horiz-adv-x="308" 
d="M286 583l52 198h113l-82 -198h-83zM176 -8q-134 0 -114 167l71 577h109l-70 -570q-9 -72 31 -72q35 0 68 28l23 -91q-42 -39 -118 -39z" />
    <glyph glyph-name="Ldot" unicode="&#x13f;" horiz-adv-x="571" 
d="M62 0l87 710h118l-74 -604h318l-13 -106h-436zM429 266q-31 0 -51 20.5t-20 50.5q0 32 21 53.5t53 21.5q31 0 51.5 -20.5t20.5 -51.5q0 -32 -21.5 -53t-53.5 -21z" />
    <glyph glyph-name="ldot" unicode="&#x140;" horiz-adv-x="387" 
d="M176 -8q-134 0 -114 167l71 577h109l-70 -570q-9 -72 31 -72q35 0 68 28l23 -91q-42 -39 -118 -39zM330 222q-31 0 -51 20.5t-20 50.5q0 32 21 53.5t53 21.5q31 0 51.5 -20.5t20.5 -51.5q0 -32 -21.5 -53t-53.5 -21z" />
    <glyph glyph-name="Lslash" unicode="&#x141;" horiz-adv-x="572" 
d="M194 106h318l-13 -106h-436l33 272l-76 -33l13 97l75 32l42 342h118l-35 -288l104 45l-12 -98l-104 -44z" />
    <glyph glyph-name="lslash" unicode="&#x142;" horiz-adv-x="321" 
d="M288 122l23 -91q-42 -39 -118 -39q-134 0 -114 167l11 87l-64 -27l11 88l64 27l49 402h109l-43 -353l78 34l-11 -88l-78 -33l-16 -130q-9 -72 31 -72q35 0 68 28z" />
    <glyph glyph-name="Nacute" unicode="&#x143;" horiz-adv-x="730" 
d="M340 775l115 132l124 1l-130 -133h-109zM62 0l87 710h119l244 -512l3 2l63 510h118l-88 -710h-116l-247 504h-3l-62 -504h-118z" />
    <glyph glyph-name="nacute" unicode="&#x144;" horiz-adv-x="556" 
d="M230 556l119 144l121 1l-129 -145h-111zM42 0l61 488h109l-10 -84l2 -1q76 92 175 92q77 0 106 -49.5t15 -151.5l-40 -294h-109l38 285q8 56 -2 83.5t-45 27.5q-48 0 -102.5 -63.5t-65.5 -150.5l-22 -182h-110z" />
    <glyph glyph-name="Ncommaaccent" unicode="&#x145;" horiz-adv-x="730" 
d="M62 0l87 710h119l244 -512l3 2l63 510h118l-88 -710h-116l-247 504h-3l-62 -504h-118zM245 -219l-16 65q32 12 45.5 29t13.5 48q0 4 -2 24h98v-22q0 -62 -36 -99.5t-103 -44.5z" />
    <glyph glyph-name="ncommaaccent" unicode="&#x146;" horiz-adv-x="556" 
d="M42 0l61 488h109l-10 -84l2 -1q76 92 175 92q77 0 106 -49.5t15 -151.5l-40 -294h-109l38 285q8 56 -2 83.5t-45 27.5q-48 0 -102.5 -63.5t-65.5 -150.5l-22 -182h-110zM157 -219l-16 65q32 12 45.5 29t13.5 48q0 4 -2 24h98v-22q0 -62 -36 -99.5t-103 -44.5z" />
    <glyph glyph-name="Ncaron" unicode="&#x147;" horiz-adv-x="730" 
d="M381 775l-84 133h103l42 -68h3l59 68h103l-120 -133h-106zM62 0l87 710h119l244 -512l3 2l63 510h118l-88 -710h-116l-247 504h-3l-62 -504h-118z" />
    <glyph glyph-name="ncaron" unicode="&#x148;" horiz-adv-x="556" 
d="M272 552l-79 145h102l38 -75h3l57 75h103l-118 -145h-106zM42 0l61 488h109l-10 -84l2 -1q76 92 175 92q77 0 106 -49.5t15 -151.5l-40 -294h-109l38 285q8 56 -2 83.5t-45 27.5q-48 0 -102.5 -63.5t-65.5 -150.5l-22 -182h-110z" />
    <glyph glyph-name="napostrophe" unicode="&#x149;" horiz-adv-x="668" 
d="M22 503l52 207h113l-82 -207h-83zM154 0l61 488h109l-10 -84l2 -1q76 92 175 92q77 0 106 -49.5t15 -151.5l-40 -294h-109l38 285q8 56 -2 83.5t-45 27.5q-48 0 -102.5 -63.5t-65.5 -150.5l-22 -182h-110z" />
    <glyph glyph-name="Eng" unicode="&#x14a;" horiz-adv-x="730" 
d="M578 710h118l-88 -710q-24 -203 -219 -203q-35 0 -60 7l16 95q25 -5 40 -5q50 0 74 26.5t30 79.5l1 5l-245 499h-3l-62 -504h-118l87 710h119l244 -512l3 2z" />
    <glyph glyph-name="eng" unicode="&#x14b;" horiz-adv-x="551" 
d="M258 -205q-29 0 -52 8l18 84q16 -2 21 -2q86 0 104 135l35 265q8 56 -2 83.5t-45 27.5q-48 0 -100 -63.5t-63 -150.5l-22 -182h-110l61 488h109l-10 -84l2 -1q68 92 170 92q77 0 106 -49.5t15 -151.5l-39 -294q-14 -104 -66 -154.5t-132 -50.5z" />
    <glyph glyph-name="Omacron" unicode="&#x14c;" horiz-adv-x="765" 
d="M338 797l11 87h274l-11 -87h-274zM352 -8q-130 0 -207.5 79.5t-77.5 219.5q0 113 45.5 210t132 157t194.5 60q129 0 207.5 -79.5t78.5 -218.5q0 -115 -44 -211.5t-130 -156.5t-199 -60zM361 102q103 0 172 94.5t69 220.5q0 95 -46.5 143.5t-129.5 48.5q-101 0 -168.5 -96
t-67.5 -219q0 -94 45.5 -143t125.5 -49z" />
    <glyph glyph-name="omacron" unicode="&#x14d;" horiz-adv-x="548" 
d="M185 585l11 92h274l-11 -92h-274zM246 -8q-94 0 -149.5 54t-55.5 155q0 126 69.5 210t191.5 84q94 0 149.5 -54t55.5 -155q0 -126 -69.5 -210t-191.5 -84zM252 92q62 0 103 54t41 129q0 67 -30.5 93.5t-69.5 26.5q-62 0 -103 -54t-41 -129q0 -67 30 -93.5t70 -26.5z" />
    <glyph glyph-name="Obreve" unicode="&#x14e;" horiz-adv-x="765" 
d="M474 768q-69 0 -103 37t-28 102h85q-3 -22 9 -38.5t40 -16.5q27 0 47 17t27 38h85q-13 -63 -56 -101t-106 -38zM352 -8q-130 0 -207.5 79.5t-77.5 219.5q0 113 45.5 210t132 157t194.5 60q129 0 207.5 -79.5t78.5 -218.5q0 -115 -44 -211.5t-130 -156.5t-199 -60z
M361 102q103 0 172 94.5t69 220.5q0 95 -46.5 143.5t-129.5 48.5q-101 0 -168.5 -96t-67.5 -219q0 -94 45.5 -143t125.5 -49z" />
    <glyph glyph-name="obreve" unicode="&#x14f;" horiz-adv-x="548" 
d="M321 549q-69 0 -103 38.5t-28 109.5h85q-7 -64 49 -64q27 0 47.5 18.5t26.5 45.5h85q-13 -69 -56 -108.5t-106 -39.5zM246 -8q-94 0 -149.5 54t-55.5 155q0 126 69.5 210t191.5 84q94 0 149.5 -54t55.5 -155q0 -126 -69.5 -210t-191.5 -84zM252 92q62 0 103 54t41 129
q0 67 -30.5 93.5t-69.5 26.5q-62 0 -103 -54t-41 -129q0 -67 30 -93.5t70 -26.5z" />
    <glyph glyph-name="Ohungarumlaut" unicode="&#x150;" horiz-adv-x="765" 
d="M321 772l119 144l116 1l-129 -145h-106zM505 772l118 144l116 1l-129 -145h-105zM352 -8q-130 0 -207.5 79.5t-77.5 219.5q0 113 45.5 210t132 157t194.5 60q129 0 207.5 -79.5t78.5 -218.5q0 -115 -44 -211.5t-130 -156.5t-199 -60zM361 102q103 0 172 94.5t69 220.5
q0 95 -46.5 143.5t-129.5 48.5q-101 0 -168.5 -96t-67.5 -219q0 -94 45.5 -143t125.5 -49z" />
    <glyph glyph-name="ohungarumlaut" unicode="&#x151;" horiz-adv-x="548" 
d="M175 556l119 144l116 1l-129 -145h-106zM359 556l118 144l116 1l-129 -145h-105zM246 -8q-94 0 -149.5 54t-55.5 155q0 126 69.5 210t191.5 84q94 0 149.5 -54t55.5 -155q0 -126 -69.5 -210t-191.5 -84zM252 92q62 0 103 54t41 129q0 67 -30.5 93.5t-69.5 26.5
q-62 0 -103 -54t-41 -129q0 -67 30 -93.5t70 -26.5z" />
    <glyph glyph-name="OE" unicode="&#x152;" horiz-adv-x="920" 
d="M894 604h-316l-25 -198h288l-14 -106h-286l-24 -194h330l-13 -106h-482q-130 0 -207.5 78t-77.5 213q0 114 46 209t133 152.5t198 57.5h463zM362 107h40l62 499h-34q-105 0 -172.5 -92.5t-67.5 -219.5q0 -91 46 -139t126 -48z" />
    <glyph glyph-name="oe" unicode="&#x153;" horiz-adv-x="767" 
d="M554 93q63 0 109 50l78 -74q-73 -76 -187 -76q-115 0 -172 77h-3q-64 -77 -166 -77q-92 0 -139.5 55t-47.5 152q0 121 68 208t187 87q104 0 143 -77h4q71 77 171 77q73 0 114 -34.5t41 -95.5q0 -82 -78.5 -131t-217.5 -61q6 -39 33 -59.5t63 -20.5zM221 93q55 0 93.5 55
t38.5 133q0 56 -21 85.5t-58 29.5q-59 0 -98 -58.5t-39 -133.5q0 -56 23 -83.5t61 -27.5zM599 396q-40 0 -80.5 -38t-55.5 -101q86 11 133 37.5t47 62.5q0 17 -11.5 28t-32.5 11z" />
    <glyph glyph-name="Racute" unicode="&#x154;" horiz-adv-x="626" 
d="M523 908l-130 -133h-109l115 132zM587 519q0 -92 -42.5 -155t-124.5 -89q103 -129 136 -275h-127q-41 140 -138 255h-80l-31 -255h-118l87 710h244q101 0 147.5 -48.5t46.5 -142.5zM224 361h98q66 0 104 41.5t38 116.5q0 39 -27 62t-71 23h-112z" />
    <glyph glyph-name="racute" unicode="&#x155;" horiz-adv-x="398" 
d="M160 556l119 144l121 1l-129 -145h-111zM43 0l61 488h109l-11 -89h2q65 93 159 93q37 0 71 -15l-46 -101q-33 11 -63 11q-64 0 -102 -61.5t-49 -152.5l-21 -173h-110z" />
    <glyph glyph-name="Rcommaaccent" unicode="&#x156;" horiz-adv-x="626" 
d="M587 519q0 -92 -42.5 -155t-124.5 -89q103 -129 136 -275h-127q-41 140 -138 255h-80l-31 -255h-118l87 710h244q101 0 147.5 -48.5t46.5 -142.5zM224 361h98q66 0 104 41.5t38 116.5q0 39 -27 62t-71 23h-112zM238 -77q0 4 -2 24h98v-22q0 -62 -36 -99.5t-103 -44.5
l-16 65q32 12 45.5 29t13.5 48z" />
    <glyph glyph-name="rcommaaccent" unicode="&#x157;" horiz-adv-x="398" 
d="M43 0l61 488h109l-11 -89h2q65 93 159 93q37 0 71 -15l-46 -101q-33 11 -63 11q-64 0 -102 -61.5t-49 -152.5l-21 -173h-110zM0 -219l-16 65q32 12 45.5 29t13.5 48q0 4 -2 24h98v-22q0 -62 -36 -99.5t-103 -44.5z" />
    <glyph glyph-name="Rcaron" unicode="&#x158;" horiz-adv-x="626" 
d="M431 775h-106l-84 133h103l42 -68h3l59 68h103zM587 519q0 -92 -42.5 -155t-124.5 -89q103 -129 136 -275h-127q-41 140 -138 255h-80l-31 -255h-118l87 710h244q101 0 147.5 -48.5t46.5 -142.5zM224 361h98q66 0 104 41.5t38 116.5q0 39 -27 62t-71 23h-112z" />
    <glyph glyph-name="rcaron" unicode="&#x159;" horiz-adv-x="398" 
d="M224 552l-79 145h102l38 -75h3l57 75h103l-118 -145h-106zM43 0l61 488h109l-11 -89h2q65 93 159 93q37 0 71 -15l-46 -101q-33 11 -63 11q-64 0 -102 -61.5t-49 -152.5l-21 -173h-110z" />
    <glyph glyph-name="Sacute" unicode="&#x15a;" horiz-adv-x="565" 
d="M284 775l115 132l124 1l-130 -133h-109zM264 -8q-80 0 -143.5 28t-96.5 81l79 87q22 -38 67 -62.5t95 -24.5q55 0 88 28.5t32 69.5q0 10 -2.5 18.5t-5.5 15t-11 14.5t-13 12.5t-18.5 12.5t-19.5 11.5t-24.5 13.5t-26.5 14q-87 48 -119 77q-57 55 -57 131q0 89 65 144
t168 55q63 0 123 -23t95 -68l-83 -80q-43 64 -136 64q-53 0 -81 -23t-28 -58q0 -32 24.5 -54.5t80.5 -53.5q15 -8 47 -25t47 -25t38.5 -26t34 -34.5t19 -42.5t8.5 -57q0 -101 -67.5 -160.5t-178.5 -59.5z" />
    <glyph glyph-name="sacute" unicode="&#x15b;" horiz-adv-x="427" 
d="M180 556l119 144l121 1l-129 -145h-111zM189 -8q-55 0 -102.5 17t-71.5 50l62 79q40 -50 115 -50q33 0 55 12.5t22 34.5q0 18 -16.5 30t-56.5 30q-5 2 -8.5 3.5t-7.5 3.5q-121 53 -121 144q0 66 50.5 107.5t126.5 41.5q104 0 167 -61l-78 -80q-39 47 -97 47
q-26 0 -42 -12t-16 -31q0 -21 20.5 -37.5t59.5 -35.5l30 -15t27.5 -15.5t29 -20.5t20.5 -22t18 -29.5t5 -33.5q1 -75 -51 -116t-140 -41z" />
    <glyph glyph-name="Scircumflex" unicode="&#x15c;" horiz-adv-x="565" 
d="M184 775l120 133h106l84 -133h-103l-42 68h-3l-59 -68h-103zM264 -8q-80 0 -143.5 28t-96.5 81l79 87q22 -38 67 -62.5t95 -24.5q55 0 88 28.5t32 69.5q0 10 -2.5 18.5t-5.5 15t-11 14.5t-13 12.5t-18.5 12.5t-19.5 11.5t-24.5 13.5t-26.5 14q-87 48 -119 77
q-57 55 -57 131q0 89 65 144t168 55q63 0 123 -23t95 -68l-83 -80q-43 64 -136 64q-53 0 -81 -23t-28 -58q0 -32 24.5 -54.5t80.5 -53.5q15 -8 47 -25t47 -25t38.5 -26t34 -34.5t19 -42.5t8.5 -57q0 -101 -67.5 -160.5t-178.5 -59.5z" />
    <glyph glyph-name="scircumflex" unicode="&#x15d;" horiz-adv-x="427" 
d="M98 554l118 147h104l87 -147h-106l-36 76h-2l-55 -76h-110zM189 -8q-55 0 -102.5 17t-71.5 50l62 79q40 -50 115 -50q33 0 55 12.5t22 34.5q0 18 -16.5 30t-56.5 30q-5 2 -8.5 3.5t-7.5 3.5q-121 53 -121 144q0 66 50.5 107.5t126.5 41.5q104 0 167 -61l-78 -80
q-39 47 -97 47q-26 0 -42 -12t-16 -31q0 -21 20.5 -37.5t59.5 -35.5l30 -15t27.5 -15.5t29 -20.5t20.5 -22t18 -29.5t5 -33.5q1 -75 -51 -116t-140 -41z" />
    <glyph glyph-name="Scedilla" unicode="&#x15e;" horiz-adv-x="565" 
d="M316 422q15 -8 47 -25t47 -25t38.5 -26t34 -34.5t19 -42.5t8.5 -57q0 -100 -66.5 -159.5t-176.5 -60.5l-15 -23l1 -1q75 -3 75 -66q0 -45 -34 -69t-90 -24q-24 0 -48 6l3 55q14 -7 36 -7q26 0 42.5 9.5t16.5 28.5q0 27 -69 27l2 36l18 32q-127 19 -181 105l79 87
q22 -38 67 -62.5t95 -24.5q55 0 88 28.5t32 69.5q0 10 -2.5 18.5t-5.5 15t-11 14.5t-13 12.5t-18.5 12.5t-19.5 11.5t-24.5 13.5t-26.5 14q-87 48 -119 77q-57 55 -57 131q0 89 65 144t168 55q63 0 123 -23t95 -68l-83 -80q-43 64 -136 64q-53 0 -81 -23t-28 -58
q0 -32 24.5 -54.5t80.5 -53.5z" />
    <glyph glyph-name="scedilla" unicode="&#x15f;" horiz-adv-x="427" 
d="M250 285l30 -15t27.5 -15.5t29 -20.5t20.5 -22t18 -29.5t5 -33.5q1 -75 -51 -116t-140 -41l-15 -23l1 -1q75 -3 75 -66q0 -45 -34 -69t-90 -24q-24 0 -48 6l3 55q14 -7 36 -7q26 0 42.5 9.5t16.5 28.5q0 27 -69 27l2 36l19 33q-79 15 -113 62l62 79q40 -50 115 -50
q33 0 55 12.5t22 34.5q0 18 -16.5 30t-56.5 30q-5 2 -8.5 3.5t-7.5 3.5q-121 53 -121 144q0 66 50.5 107.5t126.5 41.5q104 0 167 -61l-78 -80q-39 47 -97 47q-26 0 -42 -12t-16 -31q0 -21 20.5 -37.5t59.5 -35.5z" />
    <glyph glyph-name="Scaron" unicode="&#x160;" horiz-adv-x="565" 
d="M284 775l-84 133h103l42 -68h3l59 68h103l-120 -133h-106zM264 -8q-80 0 -143.5 28t-96.5 81l79 87q22 -38 67 -62.5t95 -24.5q55 0 88 28.5t32 69.5q0 10 -2.5 18.5t-5.5 15t-11 14.5t-13 12.5t-18.5 12.5t-19.5 11.5t-24.5 13.5t-26.5 14q-87 48 -119 77
q-57 55 -57 131q0 89 65 144t168 55q63 0 123 -23t95 -68l-83 -80q-43 64 -136 64q-53 0 -81 -23t-28 -58q0 -32 24.5 -54.5t80.5 -53.5q15 -8 47 -25t47 -25t38.5 -26t34 -34.5t19 -42.5t8.5 -57q0 -101 -67.5 -160.5t-178.5 -59.5z" />
    <glyph glyph-name="scaron" unicode="&#x161;" horiz-adv-x="427" 
d="M198 552l-79 145h102l38 -75h3l57 75h103l-118 -145h-106zM189 -8q-55 0 -102.5 17t-71.5 50l62 79q40 -50 115 -50q33 0 55 12.5t22 34.5q0 18 -16.5 30t-56.5 30q-5 2 -8.5 3.5t-7.5 3.5q-121 53 -121 144q0 66 50.5 107.5t126.5 41.5q104 0 167 -61l-78 -80
q-39 47 -97 47q-26 0 -42 -12t-16 -31q0 -21 20.5 -37.5t59.5 -35.5l30 -15t27.5 -15.5t29 -20.5t20.5 -22t18 -29.5t5 -33.5q1 -75 -51 -116t-140 -41z" />
    <glyph glyph-name="uni0162" unicode="&#x162;" horiz-adv-x="546" 
d="M90 710h480l-13 -106h-181l-74 -604h-48l-20 -31l1 -1q75 -3 75 -66q0 -45 -34 -69t-90 -24q-24 0 -48 6l3 55q14 -7 36 -7q26 0 42.5 9.5t16.5 28.5q0 27 -69 27l2 36l21 36h-6l74 604h-180z" />
    <glyph glyph-name="uni0163" unicode="&#x163;" horiz-adv-x="369" 
d="M221 395l-30 -240q-7 -60 34 -60q38 0 82 39l30 -84q-42 -51 -130 -58l-15 -23l1 -1q75 -3 75 -66q0 -45 -34 -69t-90 -24q-24 0 -48 6l3 55q14 -7 36 -7q26 0 42.5 9.5t16.5 28.5q0 27 -69 27l2 36l20 35q-81 27 -67 144l31 252h-72l11 93h72l20 152l111 22l-21 -174
h139l-11 -93h-139z" />
    <glyph glyph-name="Tcaron" unicode="&#x164;" horiz-adv-x="546" 
d="M283 775l-84 133h103l42 -68h3l59 68h103l-120 -133h-106zM184 0l74 604h-180l12 106h480l-13 -106h-181l-74 -604h-118z" />
    <glyph glyph-name="tcaron" unicode="&#x165;" horiz-adv-x="369" 
d="M282 583l52 198h113l-82 -198h-83zM195 -8q-65 0 -94 40t-21 111l31 252h-72l11 93h72l20 152l111 22l-21 -174h139l-11 -93h-139l-30 -240q-7 -60 34 -60q38 0 82 39l30 -84q-25 -31 -66 -44.5t-76 -13.5z" />
    <glyph glyph-name="Tbar" unicode="&#x166;" horiz-adv-x="546" 
d="M557 604h-181l-27 -224h105l-11 -89h-105l-36 -291h-118l36 291h-104l11 89h104l27 224h-180l12 106h480z" />
    <glyph glyph-name="tbar" unicode="&#x167;" horiz-adv-x="369" 
d="M360 395h-139l-11 -92h82l-10 -75h-82l-9 -73q-7 -60 34 -60q38 0 82 39l30 -84q-25 -31 -66 -44.5t-76 -13.5q-65 0 -94 40t-21 111l10 85h-63l10 75h63l11 92h-72l11 93h72l20 152l111 22l-21 -174h139z" />
    <glyph glyph-name="Utilde" unicode="&#x168;" horiz-adv-x="680" 
d="M491 774q-36 0 -79 32q-29 22 -46 22q-33 0 -57 -54l-68 35q48 98 116 98q12 0 21.5 -1.5t18.5 -6t13.5 -6.5t13 -8.5t10.5 -7.5q33 -23 47 -23q35 0 58 53l68 -26q-21 -49 -51.5 -78t-64.5 -29zM312 -8q-129 0 -185.5 84t-38.5 227l50 407h118l-50 -406
q-11 -89 15 -144.5t96 -55.5q147 0 170 190l51 416h118l-51 -416q-19 -155 -91 -228.5t-202 -73.5z" />
    <glyph glyph-name="utilde" unicode="&#x169;" horiz-adv-x="545" 
d="M392 554q-10 0 -19.5 2t-18.5 6.5t-14 7.5t-13.5 8.5t-10.5 7.5q-29 22 -46 22q-36 0 -60 -54l-68 35q45 107 118 107q14 0 26 -3.5t17.5 -6.5t17 -11t12.5 -9q33 -23 47 -23q37 0 60 53l68 -26q-20 -55 -50.5 -85.5t-65.5 -30.5zM186 -8q-78 0 -110.5 47t-18.5 149
l42 300h109l-39 -290q-8 -58 4.5 -82t46.5 -24q43 0 93 55.5t60 132.5l25 208h110l-60 -488h-110l11 87h-2q-63 -95 -161 -95z" />
    <glyph glyph-name="Umacron" unicode="&#x16a;" horiz-adv-x="680" 
d="M278 797l11 87h274l-11 -87h-274zM312 -8q-129 0 -185.5 84t-38.5 227l50 407h118l-50 -406q-11 -89 15 -144.5t96 -55.5q147 0 170 190l51 416h118l-51 -416q-19 -155 -91 -228.5t-202 -73.5z" />
    <glyph glyph-name="umacron" unicode="&#x16b;" horiz-adv-x="545" 
d="M180 585l11 92h274l-11 -92h-274zM186 -8q-78 0 -110.5 47t-18.5 149l42 300h109l-39 -290q-8 -58 4.5 -82t46.5 -24q43 0 93 55.5t60 132.5l25 208h110l-60 -488h-110l11 87h-2q-63 -95 -161 -95z" />
    <glyph glyph-name="Ubreve" unicode="&#x16c;" horiz-adv-x="680" 
d="M414 768q-69 0 -103 37t-28 102h85q-3 -22 9 -38.5t40 -16.5q27 0 47 17t27 38h85q-13 -63 -56 -101t-106 -38zM312 -8q-129 0 -185.5 84t-38.5 227l50 407h118l-50 -406q-11 -89 15 -144.5t96 -55.5q147 0 170 190l51 416h118l-51 -416q-19 -155 -91 -228.5t-202 -73.5z
" />
    <glyph glyph-name="ubreve" unicode="&#x16d;" horiz-adv-x="545" 
d="M316 549q-69 0 -103 38.5t-28 109.5h85q-7 -64 49 -64q27 0 47.5 18.5t26.5 45.5h85q-13 -69 -56 -108.5t-106 -39.5zM186 -8q-78 0 -110.5 47t-18.5 149l42 300h109l-39 -290q-8 -58 4.5 -82t46.5 -24q43 0 93 55.5t60 132.5l25 208h110l-60 -488h-110l11 87h-2
q-63 -95 -161 -95z" />
    <glyph glyph-name="Uring" unicode="&#x16e;" horiz-adv-x="680" 
d="M420 762q-44 0 -73.5 29.5t-29.5 73.5q0 45 30.5 75t76.5 30q44 0 73.5 -29t29.5 -73q0 -46 -30.5 -76t-76.5 -30zM422 828q16 0 27.5 11t11.5 28q0 16 -11 27t-27 11t-27.5 -11.5t-11.5 -27.5t11 -27t27 -11zM312 -8q-129 0 -185.5 84t-38.5 227l50 407h118l-50 -406
q-11 -89 15 -144.5t96 -55.5q147 0 170 190l51 416h118l-51 -416q-19 -155 -91 -228.5t-202 -73.5z" />
    <glyph glyph-name="uring" unicode="&#x16f;" horiz-adv-x="545" 
d="M323 540q-44 0 -73.5 29.5t-29.5 73.5q0 45 30.5 75t76.5 30q44 0 73.5 -29t29.5 -73q0 -46 -30.5 -76t-76.5 -30zM325 606q17 0 28 11t11 28q0 16 -11 27t-27 11t-27.5 -11.5t-11.5 -27.5t10.5 -27t27.5 -11zM186 -8q-78 0 -110.5 47t-18.5 149l42 300h109l-39 -290
q-8 -58 4.5 -82t46.5 -24q43 0 93 55.5t60 132.5l25 208h110l-60 -488h-110l11 87h-2q-63 -95 -161 -95z" />
    <glyph glyph-name="Uhungarumlaut" unicode="&#x170;" horiz-adv-x="680" 
d="M261 772l119 144l116 1l-129 -145h-106zM445 772l118 144l116 1l-129 -145h-105zM312 -8q-129 0 -185.5 84t-38.5 227l50 407h118l-50 -406q-11 -89 15 -144.5t96 -55.5q147 0 170 190l51 416h118l-51 -416q-19 -155 -91 -228.5t-202 -73.5z" />
    <glyph glyph-name="uhungarumlaut" unicode="&#x171;" horiz-adv-x="545" 
d="M170 556l119 144l116 1l-129 -145h-106zM354 556l118 144l116 1l-129 -145h-105zM186 -8q-78 0 -110.5 47t-18.5 149l42 300h109l-39 -290q-8 -58 4.5 -82t46.5 -24q43 0 93 55.5t60 132.5l25 208h110l-60 -488h-110l11 87h-2q-63 -95 -161 -95z" />
    <glyph glyph-name="Uogonek" unicode="&#x172;" horiz-adv-x="680" 
d="M538 710h118l-51 -416q-29 -247 -203 -292q-40 -13 -67.5 -38t-27.5 -51q0 -14 7.5 -22t19.5 -8q22 0 41 8l1 -68q-23 -11 -68 -11q-92 0 -92 75q0 58 55 104l-1 4q-107 13 -152.5 95t-29.5 213l50 407h118l-50 -406q-11 -89 15 -144.5t96 -55.5q147 0 170 190z" />
    <glyph glyph-name="uogonek" unicode="&#x173;" horiz-adv-x="545" 
d="M398 488h110l-60 -488h-3q-40 -8 -66.5 -33.5t-26.5 -53.5q0 -30 28 -30q26 0 40 8l2 -68q-23 -11 -69 -11q-92 0 -92 75q0 34 22 67t56 54l10 79h-2q-63 -95 -161 -95q-78 0 -110.5 47t-18.5 149l42 300h109l-39 -290q-8 -58 4.5 -82t46.5 -24q43 0 93 55.5t60 132.5z
" />
    <glyph glyph-name="Wcircumflex" unicode="&#x174;" horiz-adv-x="949" 
d="M387 775l120 133h106l84 -133h-103l-42 68h-3l-59 -68h-103zM207 0l-116 710h120l74 -523h3l178 523h126l58 -517h3l197 517h124l-293 -710h-104l-69 532h-2l-185 -532h-114z" />
    <glyph glyph-name="wcircumflex" unicode="&#x175;" horiz-adv-x="784" 
d="M283 554l118 147h104l87 -147h-106l-36 76h-2l-55 -76h-110zM178 -8q-148 0 -120 208l39 288h109l-36 -280q-8 -63 5 -89.5t43 -26.5q16 0 34 8.5t38 28t36.5 58.5t22.5 91l26 210h110l-36 -290q-7 -58 4.5 -82t40.5 -24q39 0 81.5 50t59.5 144q17 92 1 202h112
q21 -115 -3 -231q-27 -134 -99.5 -199.5t-163.5 -65.5q-57 0 -93.5 28t-44.5 68h-2q-23 -43 -73.5 -69.5t-90.5 -26.5z" />
    <glyph glyph-name="Ycircumflex" unicode="&#x176;" horiz-adv-x="581" 
d="M197 775l120 133h106l84 -133h-103l-42 68h-3l-59 -68h-103zM200 0l39 314l-166 396h130l106 -284h3l176 284h137l-267 -396l-40 -314h-118z" />
    <glyph glyph-name="ycircumflex" unicode="&#x177;" horiz-adv-x="545" 
d="M322 630l-55 -76h-110l118 147h104l87 -147h-106l-36 76h-2zM401 488h108l-52 -427q-32 -266 -263 -266q-100 0 -178 44l49 93q60 -38 131 -38q64 0 102.5 37t50.5 138l2 17l-2 1q-64 -95 -168 -95q-153 0 -126 196l41 300h109l-38 -290q-7 -58 5 -81.5t46 -24.5
q47 0 98 59t60 139z" />
    <glyph glyph-name="Ydieresis" unicode="&#x178;" horiz-adv-x="581" 
d="M265 775q-31 0 -51.5 20.5t-20.5 50.5q0 32 21.5 53t53.5 21q30 0 50.5 -20t20.5 -51t-21.5 -52.5t-52.5 -21.5zM455 775q-31 0 -51.5 20.5t-20.5 50.5q0 32 21.5 53t53.5 21q30 0 50.5 -20t20.5 -51t-21.5 -52.5t-52.5 -21.5zM200 0l39 314l-166 396h130l106 -284h3
l176 284h137l-267 -396l-40 -314h-118z" />
    <glyph glyph-name="Zacute" unicode="&#x179;" horiz-adv-x="590" 
d="M263 775l115 132l124 1l-130 -133h-109zM30 0l11 93l377 508l-1 3h-301l13 106h454l-10 -91l-384 -509l2 -4h319l-13 -106h-467z" />
    <glyph glyph-name="zacute" unicode="&#x17a;" horiz-adv-x="466" 
d="M176 556l119 144l121 1l-129 -145h-111zM375 -29q-46 14 -115 21t-112.5 7.5t-135.5 0.5l9 77l259 317v1h-204l11 93h355l-8 -76l-263 -317v-2q143 -4 234 -32z" />
    <glyph glyph-name="Zdotaccent" unicode="&#x17b;" horiz-adv-x="590" 
d="M365 775q-31 0 -51 20.5t-20 50.5q0 32 21 53t53 21q31 0 51.5 -20t20.5 -51q0 -32 -21.5 -53t-53.5 -21zM30 0l11 93l377 508l-1 3h-301l13 106h454l-10 -91l-384 -509l2 -4h319l-13 -106h-467z" />
    <glyph glyph-name="zdotaccent" unicode="&#x17c;" horiz-adv-x="466" 
d="M282 562q-31 0 -51 20.5t-20 50.5q0 32 21 53t53 21q31 0 51.5 -20t20.5 -51q0 -32 -21.5 -53t-53.5 -21zM375 -29q-46 14 -115 21t-112.5 7.5t-135.5 0.5l9 77l259 317v1h-204l11 93h355l-8 -76l-263 -317v-2q143 -4 234 -32z" />
    <glyph glyph-name="Zcaron" unicode="&#x17d;" horiz-adv-x="590" 
d="M304 775l-84 133h103l42 -68h3l59 68h103l-120 -133h-106zM30 0l11 93l377 508l-1 3h-301l13 106h454l-10 -91l-384 -509l2 -4h319l-13 -106h-467z" />
    <glyph glyph-name="zcaron" unicode="&#x17e;" horiz-adv-x="466" 
d="M216 552l-79 145h102l38 -75h3l57 75h103l-118 -145h-106zM375 -29q-46 14 -115 21t-112.5 7.5t-135.5 0.5l9 77l259 317v1h-204l11 93h355l-8 -76l-263 -317v-2q143 -4 234 -32z" />
    <glyph glyph-name="longs" unicode="&#x17f;" horiz-adv-x="332" 
d="M72 0l48 395h-75l11 93h76l12 101q10 77 47 116t98 39q65 0 111 -33l-29 -91q-34 24 -63 24q-23 0 -37 -16t-20 -60l-70 -568h-109z" />
    <glyph glyph-name="uni018F" unicode="&#x18f;" horiz-adv-x="719" 
d="M404 718q128 0 203 -79t75 -219q0 -115 -41.5 -211.5t-124 -156.5t-190.5 -60q-127 0 -202.5 78t-75.5 212q0 38 12 98h497q2 24 2 37q0 94 -46 142.5t-122 48.5q-90 0 -173 -65l-69 88q114 87 255 87zM335 102q67 0 120 48.5t81 126.5h-370q2 -84 47.5 -129.5
t121.5 -45.5z" />
    <glyph glyph-name="florin" unicode="&#x192;" horiz-adv-x="498" 
d="M57 -142q-98 0 -130 44l48 74q29 -18 63 -18q38 0 60 21.5t34 72.5l76 323h-72l25 94h73l26 112q40 163 171 163q92 0 131 -44l-49 -75q-31 19 -64 19q-64 0 -84 -94l-18 -81h124l-25 -94h-125l-84 -354q-19 -84 -63.5 -123.5t-116.5 -39.5z" />
    <glyph glyph-name="uni019D" unicode="&#x19d;" horiz-adv-x="721" 
d="M14 -203q-35 0 -69 7l16 95q25 -5 38 -5q23 0 36.5 14.5t17.5 33t9 58.5l87 710h119l231 -512l3 2l67 510h118l-92 -710h-120l-230 504h-3l-66 -534q-12 -98 -52 -135.5t-110 -37.5z" />
    <glyph glyph-name="Ohorn" unicode="&#x1a0;" horiz-adv-x="810" 
d="M737 774h104l-12 -91q-19 -143 -115 -170q11 -44 11 -93q0 -115 -44 -211.5t-130 -156.5t-199 -60q-130 0 -207.5 79.5t-77.5 219.5q0 113 45.5 210t132 157t194.5 60q85 0 149.5 -35.5t99.5 -101.5q18 11 25.5 38.5t14.5 81.5zM361 102q103 0 172 94.5t69 220.5
q0 95 -46.5 143.5t-129.5 48.5q-101 0 -168.5 -96t-67.5 -219q0 -94 45.5 -143t125.5 -49z" />
    <glyph glyph-name="ohorn" unicode="&#x1a1;" horiz-adv-x="636" 
d="M553 565h104l-12 -91q-22 -161 -138 -174v-14q0 -126 -69.5 -210t-191.5 -84q-94 0 -149.5 54t-55.5 155q0 126 69.5 210t191.5 84q72 0 122.5 -32.5t70.5 -94.5q23 6 32 35t17 89zM252 92q62 0 103 54t41 129q0 67 -30.5 93.5t-69.5 26.5q-62 0 -103 -54t-41 -129
q0 -67 30 -93.5t70 -26.5z" />
    <glyph glyph-name="Uhorn" unicode="&#x1af;" horiz-adv-x="766" 
d="M723 774h104l-12 -91q-12 -88 -52.5 -131.5t-104.5 -43.5q-11 0 -26 3l-27 -217q-19 -155 -91 -228.5t-202 -73.5q-129 0 -185.5 84t-38.5 227l50 407h118l-50 -406q-11 -89 15 -144.5t96 -55.5q147 0 170 190l51 416h118l-16 -132q5 -2 14 -2q16 0 26.5 8.5t17 29.5
t9.5 37t7 50z" />
    <glyph glyph-name="uhorn" unicode="&#x1b0;" horiz-adv-x="648" 
d="M571 565h104l-12 -91q-12 -88 -52.5 -131.5t-104.5 -43.5q-13 0 -21 2l-37 -301h-110l11 87h-2q-63 -95 -161 -95q-78 0 -110.5 47t-18.5 149l42 300h109l-39 -290q-8 -58 4.5 -82t46.5 -24q43 0 93 55.5t60 132.5l25 208h110l-15 -120q3 -1 9 -1q16 0 26.5 8.5t17 29.5
t9.5 37t7 50z" />
    <glyph glyph-name="uni01D0" unicode="&#x1d0;" horiz-adv-x="258" 
d="M114 552l-79 145h102l38 -75h3l57 75h103l-118 -145h-106zM44 0l60 488h110l-60 -488h-110z" />
    <glyph glyph-name="Gcaron" unicode="&#x1e6;" horiz-adv-x="713" 
d="M399 775l-84 133h103l42 -68h3l59 68h103l-120 -133h-106zM358 -8q-132 0 -211.5 76.5t-79.5 220.5q0 180 104 304.5t269 124.5q168 0 244 -121l-94 -78q-26 42 -68.5 64.5t-92.5 22.5q-104 0 -171.5 -93t-67.5 -214q0 -97 44 -148t127 -51q87 0 150 45l19 127h-149
l14 106h266l-37 -301q-46 -39 -119.5 -62t-146.5 -23z" />
    <glyph glyph-name="gcaron" unicode="&#x1e7;" horiz-adv-x="566" 
d="M272 552l-79 145h102l38 -75h3l57 75h103l-118 -145h-106zM205 -205q-106 0 -179 45l49 92q58 -37 128 -37q71 0 110 36t52 138l5 41l-2 1q-69 -103 -161 -103q-82 0 -124 55.5t-42 142.5q0 110 67.5 199.5t171.5 89.5q83 0 130 -46l2 1l5 38h109l-52 -427
q-10 -79 -35 -133t-63 -82t-78.5 -39.5t-92.5 -11.5zM229 105q51 0 101 60t64 151l5 33q-46 46 -110 46q-61 0 -99 -61t-38 -130q0 -46 20 -72.5t57 -26.5z" />
    <glyph glyph-name="uni01EA" unicode="&#x1ea;" horiz-adv-x="765" 
d="M418 -2q-37 -10 -60 -34.5t-23 -50.5q0 -30 28 -30q26 0 40 8l2 -68q-23 -11 -69 -11q-92 0 -92 75q0 59 58 106l-1 2q-108 15 -171 92.5t-63 203.5q0 113 45.5 210t132 157t194.5 60q129 0 207.5 -79.5t78.5 -218.5q0 -159 -83 -278t-224 -144zM190 294q0 -94 45.5 -143
t125.5 -49q103 0 172 94.5t69 220.5q0 95 -46.5 143.5t-129.5 48.5q-101 0 -168.5 -96t-67.5 -219z" />
    <glyph glyph-name="uni01EB" unicode="&#x1eb;" horiz-adv-x="548" 
d="M285 -5q-32 -12 -52.5 -35t-20.5 -47q0 -30 28 -30q26 0 40 8l2 -68q-23 -11 -69 -11q-92 0 -92 75q0 60 62 110l-1 2q-66 17 -103.5 68.5t-37.5 133.5q0 126 69.5 210t191.5 84q94 0 149.5 -54t55.5 -155q0 -114 -58.5 -195.5t-163.5 -95.5zM296 395q-62 0 -103 -54
t-41 -129q0 -67 30 -93.5t70 -26.5q62 0 103 54t41 129q0 67 -30.5 93.5t-69.5 26.5z" />
    <glyph glyph-name="Aringacute" unicode="&#x1fa;" horiz-adv-x="647" 
d="M403 762q-44 0 -73.5 29.5t-29.5 73.5q0 45 30.5 75t76.5 30q45 0 76 -31l56 43h122l-151 -114q0 -46 -30.5 -76t-76.5 -30zM406 905q-16 0 -27.5 -11.5t-11.5 -27.5t10.5 -27t27.5 -11t28 11t11 28q0 16 -11 27t-27 11zM320 710h123l150 -710h-123l-29 154h-256
l-67 -154h-122zM229 257h192l-58 305h-2z" />
    <glyph glyph-name="aringacute" unicode="&#x1fb;" horiz-adv-x="562" 
d="M339 540q-44 0 -73.5 29.5t-29.5 73.5q0 45 30.5 75t76.5 30t74 -30l54 40h125l-150 -109v-3q0 -46 -30.5 -76t-76.5 -30zM342 683q-16 0 -27.5 -11.5t-11.5 -27.5t10.5 -27t27.5 -11t28 11t11 28q0 16 -11 27t-27 11zM410 449l5 38h109l-60 -487h-109l11 89l-3 1
q-33 -48 -74.5 -73t-81.5 -25q-83 0 -125.5 55.5t-42.5 142.5q0 121 67.5 213t172.5 92q82 0 128 -47zM396 332l2 18q-47 45 -111 45q-61 0 -99 -63.5t-38 -143.5q0 -46 20 -72.5t58 -26.5q54 0 104 67.5t64 175.5z" />
    <glyph glyph-name="AEacute" unicode="&#x1fc;" horiz-adv-x="893" 
d="M425 775l115 132l124 1l-130 -133h-109zM-23 0l407 710h496l-13 -106h-316l-25 -198h288l-14 -106h-287l-23 -194h330l-13 -106h-445l19 154h-189l-86 -154h-129zM249 257h145l40 329h-2z" />
    <glyph glyph-name="aeacute" unicode="&#x1fd;" horiz-adv-x="696" 
d="M593 701l-129 -145h-111l119 144zM481 93q63 0 109 50l78 -74q-73 -76 -184 -76q-136 0 -173 110q-22 -52 -59 -81.5t-86 -29.5q-67 0 -105 52.5t-38 134.5q0 125 74 217t191 92q63 0 113 -35q58 42 134 42q67 0 106.5 -35t39.5 -95q0 -82 -78.5 -131t-217.5 -61
q6 -39 33 -59.5t63 -20.5zM526 396q-40 0 -80.5 -38t-55.5 -101q86 11 133 37.5t47 62.5q0 17 -11.5 28t-32.5 11zM183 91q13 0 24 6.5t21.5 23t17 27.5t16.5 39t13 37t12 40q17 66 48 117q-22 7 -44 7q-71 0 -113.5 -67t-42.5 -151q0 -79 48 -79z" />
    <glyph glyph-name="Oslashacute" unicode="&#x1fe;" horiz-adv-x="768" 
d="M639 908l-130 -133h-109l115 132zM757 682l-77 -81q48 -74 48 -181q0 -115 -44 -211.5t-130 -156.5t-199 -60q-116 0 -191 64l-80 -85l-58 60l85 89q-41 70 -41 171q0 113 45.5 210t132 157t194.5 60t182 -57l75 79zM193 294q0 -44 10 -77l339 358q-43 34 -113 34
q-101 0 -168.5 -96t-67.5 -219zM605 417q0 50 -14 90l-344 -364q44 -41 117 -41q103 0 172 94.5t69 220.5z" />
    <glyph glyph-name="oslashacute" unicode="&#x1ff;" horiz-adv-x="552" 
d="M500 701l-129 -145h-111l119 144zM532 460l-53 -55q28 -50 28 -119q0 -126 -69.5 -210t-191.5 -84q-78 0 -127 36l-51 -53l-49 50l52 54q-30 51 -30 122q0 126 69.5 210t191.5 84q78 0 130 -38l51 53zM152 212q0 -19 4 -43l199 208q-24 18 -59 18q-62 0 -103 -54
t-41 -129zM396 275q0 24 -4 39l-197 -206q24 -16 57 -16q62 0 103 54t41 129z" />
    <glyph glyph-name="Scommaaccent" unicode="&#x218;" horiz-adv-x="565" 
d="M264 -8q-80 0 -143.5 28t-96.5 81l79 87q22 -38 67 -62.5t95 -24.5q55 0 88 28.5t32 69.5q0 10 -2.5 18.5t-5.5 15t-11 14.5t-13 12.5t-18.5 12.5t-19.5 11.5t-24.5 13.5t-26.5 14q-87 48 -119 77q-57 55 -57 131q0 89 65 144t168 55q63 0 123 -23t95 -68l-83 -80
q-43 64 -136 64q-53 0 -81 -23t-28 -58q0 -32 24.5 -54.5t80.5 -53.5q15 -8 47 -25t47 -25t38.5 -26t34 -34.5t19 -42.5t8.5 -57q0 -101 -67.5 -160.5t-178.5 -59.5zM163 -219l-16 65q32 12 45.5 29t13.5 48q0 4 -2 24h98v-22q0 -62 -36 -99.5t-103 -44.5z" />
    <glyph glyph-name="scommaaccent" unicode="&#x219;" horiz-adv-x="427" 
d="M189 -8q-55 0 -102.5 17t-71.5 50l62 79q40 -50 115 -50q33 0 55 12.5t22 34.5q0 18 -16.5 30t-56.5 30q-5 2 -8.5 3.5t-7.5 3.5q-121 53 -121 144q0 66 50.5 107.5t126.5 41.5q104 0 167 -61l-78 -80q-39 47 -97 47q-26 0 -42 -12t-16 -31q0 -21 20.5 -37.5t59.5 -35.5
l30 -15t27.5 -15.5t29 -20.5t20.5 -22t18 -29.5t5 -33.5q1 -75 -51 -116t-140 -41zM85 -219l-16 65q32 12 45.5 29t13.5 48q0 4 -2 24h98v-22q0 -62 -36 -99.5t-103 -44.5z" />
    <glyph glyph-name="uni021A" unicode="&#x21a;" horiz-adv-x="546" 
d="M184 0l74 604h-180l12 106h480l-13 -106h-181l-74 -604h-118zM145 -219l-16 65q32 12 45.5 29t13.5 48q0 4 -2 24h98v-22q0 -62 -36 -99.5t-103 -44.5z" />
    <glyph glyph-name="uni021B" unicode="&#x21b;" horiz-adv-x="369" 
d="M195 -8q-65 0 -94 40t-21 111l31 252h-72l11 93h72l20 152l111 22l-21 -174h139l-11 -93h-139l-30 -240q-7 -60 34 -60q38 0 82 39l30 -84q-25 -31 -66 -44.5t-76 -13.5zM103 -219l-16 65q32 12 45.5 29t13.5 48q0 4 -2 24h98v-22q0 -62 -36 -99.5t-103 -44.5z" />
    <glyph glyph-name="uni0232" unicode="&#x232;" horiz-adv-x="581" 
d="M219 797l11 87h274l-11 -87h-274zM200 0l39 314l-166 396h130l106 -284h3l176 284h137l-267 -396l-40 -314h-118z" />
    <glyph glyph-name="uni0233" unicode="&#x233;" horiz-adv-x="545" 
d="M465 677l-11 -92h-274l11 92h274zM401 488h108l-52 -427q-32 -266 -263 -266q-100 0 -178 44l49 93q60 -38 131 -38q64 0 102.5 37t50.5 138l2 17l-2 1q-64 -95 -168 -95q-153 0 -126 196l41 300h109l-38 -290q-7 -58 5 -81.5t46 -24.5q47 0 98 59t60 139z" />
    <glyph glyph-name="uni0237" unicode="&#x237;" horiz-adv-x="240" 
d="M-19 -205q-44 0 -82 23l28 86q19 -15 41 -15q26 0 40 20.5t19 69.5l63 509h110l-65 -524q-20 -169 -154 -169z" />
    <glyph glyph-name="uni0259" unicode="&#x259;" horiz-adv-x="486" 
d="M249 495q90 0 145 -57.5t55 -153.5q0 -128 -67 -209.5t-191 -81.5q-70 0 -113.5 37t-43.5 99q0 169 307 194q-15 72 -95 72q-57 0 -108 -41l-61 77q75 64 172 64zM200 93q56 0 90.5 37t46.5 100q-192 -16 -192 -96q0 -41 55 -41z" />
    <glyph glyph-name="uni0272" unicode="&#x272;" horiz-adv-x="556" 
d="M379 495q77 0 106 -49.5t15 -151.5l-40 -294h-109l38 285q8 56 -2 83.5t-45 27.5q-47 0 -99.5 -59.5t-66.5 -142.5l-24 -194q-14 -111 -58.5 -158t-124.5 -47q-29 0 -52 8l18 84q16 -2 21 -2q39 0 57.5 24t28.5 91l22 176l38 312h110l-10 -84l2 -1q76 92 175 92z" />
    <glyph glyph-name="circumflex" unicode="&#x2c6;" horiz-adv-x="428" 
d="M94 536l118 147h104l87 -147h-106l-36 76h-2l-55 -76h-110z" />
    <glyph glyph-name="caron" unicode="&#x2c7;" horiz-adv-x="429" 
d="M194 534l-79 145h102l38 -75h3l57 75h103l-118 -145h-106z" />
    <glyph glyph-name="breve" unicode="&#x2d8;" horiz-adv-x="418" 
d="M247 531q-69 0 -103 38.5t-28 109.5h85q-7 -64 49 -64q27 0 47.5 18.5t26.5 45.5h85q-13 -69 -56 -108.5t-106 -39.5z" />
    <glyph glyph-name="dotaccent" unicode="&#x2d9;" horiz-adv-x="465" 
d="M277 544q-31 0 -51 20.5t-20 50.5q0 32 21 53t53 21q31 0 51.5 -20t20.5 -51q0 -32 -21.5 -53t-53.5 -21z" />
    <glyph glyph-name="ring" unicode="&#x2da;" horiz-adv-x="440" 
d="M264 513q-44 0 -73.5 29.5t-29.5 73.5q0 45 30.5 75t76.5 30q44 0 73.5 -29t29.5 -73q0 -46 -30.5 -76t-76.5 -30zM266 579q16 0 27.5 11.5t11.5 27.5t-11 27t-27 11t-27.5 -11.5t-11.5 -27.5q0 -17 11 -27.5t27 -10.5z" />
    <glyph glyph-name="ogonek" unicode="&#x2db;" horiz-adv-x="436" 
d="M199 -188q-92 0 -92 75q0 37 25.5 72t63.5 55l95 -14q-40 -8 -66.5 -33.5t-26.5 -53.5q0 -30 28 -30q26 0 40 8l2 -68q-23 -11 -69 -11z" />
    <glyph glyph-name="tilde" unicode="&#x2dc;" horiz-adv-x="450" 
d="M337 536q-10 0 -19.5 2t-18.5 6.5t-14 7.5t-13.5 8.5t-10.5 7.5q-29 22 -46 22q-36 0 -60 -54l-68 35q45 107 118 107q14 0 26 -3.5t17.5 -6.5t17 -11t12.5 -9q33 -23 47 -23q37 0 60 53l68 -26q-20 -55 -50.5 -85.5t-65.5 -30.5z" />
    <glyph glyph-name="hungarumlaut" unicode="&#x2dd;" horiz-adv-x="475" 
d="M77 538l119 144l116 1l-129 -145h-106zM261 538l118 144l116 1l-129 -145h-105z" />
    <glyph glyph-name="gravecomb" unicode="&#x300;" 
d="M-477 538l-94 145l122 -1l83 -144h-111z" />
    <glyph glyph-name="acutecomb" unicode="&#x301;" 
d="M-560 538l119 144l121 1l-129 -145h-111z" />
    <glyph glyph-name="uni0302" unicode="&#x302;" 
d="M-620 536l118 147h104l87 -147h-106l-36 76h-2l-55 -76h-110z" />
    <glyph glyph-name="tildecomb" unicode="&#x303;" 
d="M-386 536q-10 0 -19.5 2t-18.5 6.5t-14 7.5t-13.5 8.5t-10.5 7.5q-29 22 -46 22q-36 0 -60 -54l-68 35q45 107 118 107q14 0 26 -3.5t17.5 -6.5t17 -11t12.5 -9q33 -23 47 -23q37 0 60 53l68 -26q-20 -55 -50.5 -85.5t-65.5 -30.5z" />
    <glyph glyph-name="uni0304" unicode="&#x304;" 
d="M-597 567l11 92h274l-11 -92h-274z" />
    <glyph glyph-name="uni0306" unicode="&#x306;" 
d="M-462 531q-69 0 -103 38.5t-28 109.5h85q-7 -64 49 -64q27 0 47.5 18.5t26.5 45.5h85q-13 -69 -56 -108.5t-106 -39.5z" />
    <glyph glyph-name="uni0307" unicode="&#x307;" 
d="M-453 544q-31 0 -51 20.5t-20 50.5q0 32 21 53t53 21q31 0 51.5 -20t20.5 -51q0 -32 -21.5 -53t-53.5 -21z" />
    <glyph glyph-name="uni0308" unicode="&#x308;" 
d="M-550 544q-31 0 -51.5 20.5t-20.5 50.5q0 32 21.5 53t53.5 21q30 0 50.5 -20t20.5 -51q0 -32 -21 -53t-53 -21zM-360 544q-31 0 -51.5 20.5t-20.5 50.5q0 32 21.5 53t53.5 21q30 0 50.5 -20t20.5 -51q0 -32 -21 -53t-53 -21z" />
    <glyph glyph-name="hookabovecomb" unicode="&#x309;" 
d="M-436 535l-73 1q29 21 51.5 46.5t22.5 44.5q0 18 -24 18q-34 0 -84 -34l-17 56q56 51 135 51q33 0 54 -16t21 -48q0 -39 -28 -72.5t-58 -46.5z" />
    <glyph glyph-name="uni030A" unicode="&#x30a;" 
d="M-454 522q-44 0 -73.5 29.5t-29.5 73.5q0 45 30.5 75t76.5 30q44 0 73.5 -29t29.5 -73q0 -46 -30.5 -76t-76.5 -30zM-452 588q16 0 27.5 11t11.5 28q0 16 -11 27t-27 11t-27.5 -11.5t-11.5 -27.5t11 -27t27 -11z" />
    <glyph glyph-name="uni030B" unicode="&#x30b;" 
d="M-607 538l119 144l116 1l-129 -145h-106zM-423 538l118 144l116 1l-129 -145h-105z" />
    <glyph glyph-name="uni030C" unicode="&#x30c;" 
d="M-520 534l-79 145h102l38 -75h3l57 75h103l-118 -145h-106z" />
    <glyph glyph-name="uni0312" unicode="&#x312;" 
d="M-507 541q-1 4 -1 22q0 61 36 99t103 45l16 -65q-32 -12 -45 -29t-13 -49q0 -13 1 -23h-97z" />
    <glyph glyph-name="uni0313" unicode="&#x313;" 
d="M-481 697q1 -4 1 -22q0 -61 -36 -99t-103 -45l-16 65q32 12 45 29t13 49q0 13 -1 23h97z" />
    <glyph glyph-name="uni031B" unicode="&#x31b;" 
d="M-457 444q-20 0 -50 9l15 66q17 -7 31 -7q16 0 26.5 8.5t17 29.5t9.5 37t7 50l9 73h104l-12 -91q-12 -88 -52.5 -131.5t-104.5 -43.5z" />
    <glyph glyph-name="dotbelowcomb" unicode="&#x323;" 
d="M-549 -80q31 0 51 -20.5t20 -50.5q0 -32 -21 -53t-53 -21q-31 0 -51.5 20t-20.5 51q0 32 21.5 53t53.5 21z" />
    <glyph glyph-name="uni0326" unicode="&#x326;" 
d="M-632 -219l-16 65q32 12 45.5 29t13.5 48q0 4 -2 24h98v-22q0 -62 -36 -99.5t-103 -44.5z" />
    <glyph glyph-name="uni0327" unicode="&#x327;" 
d="M-591 -191q-24 0 -48 6l3 55q14 -7 36 -7q26 0 42.5 9.5t16.5 28.5q0 27 -69 27l2 36l24 42h65l-24 -37l1 -1q75 -3 75 -66q0 -45 -34 -69t-90 -24z" />
    <glyph glyph-name="uni0328" unicode="&#x328;" 
d="M-624 -188q-92 0 -92 75q0 37 25.5 72t63.5 55l95 -14q-40 -8 -66.5 -33.5t-26.5 -53.5q0 -30 28 -30q26 0 40 8l2 -68q-23 -11 -69 -11z" />
    <glyph glyph-name="uni0335" unicode="&#x335;" 
d="M-627 228l9 75h255l-10 -75h-254z" />
    <glyph glyph-name="Wgrave" unicode="&#x1e80;" horiz-adv-x="949" 
d="M482 775l-98 133l122 -1l85 -132h-109zM207 0l-116 710h120l74 -523h3l178 523h126l58 -517h3l197 517h124l-293 -710h-104l-69 532h-2l-185 -532h-114z" />
    <glyph glyph-name="wgrave" unicode="&#x1e81;" horiz-adv-x="784" 
d="M382 556l-94 145l122 -1l83 -144h-111zM178 -8q-148 0 -120 208l39 288h109l-36 -280q-8 -63 5 -89.5t43 -26.5q16 0 34 8.5t38 28t36.5 58.5t22.5 91l26 210h110l-36 -290q-7 -58 4.5 -82t40.5 -24q39 0 81.5 50t59.5 144q17 92 1 202h112q21 -115 -3 -231
q-27 -134 -99.5 -199.5t-163.5 -65.5q-57 0 -93.5 28t-44.5 68h-2q-23 -43 -73.5 -69.5t-90.5 -26.5z" />
    <glyph glyph-name="Wacute" unicode="&#x1e82;" horiz-adv-x="949" 
d="M485 775l115 132l124 1l-130 -133h-109zM207 0l-116 710h120l74 -523h3l178 523h126l58 -517h3l197 517h124l-293 -710h-104l-69 532h-2l-185 -532h-114z" />
    <glyph glyph-name="wacute" unicode="&#x1e83;" horiz-adv-x="784" 
d="M384 556l119 144l121 1l-129 -145h-111zM178 -8q-148 0 -120 208l39 288h109l-36 -280q-8 -63 5 -89.5t43 -26.5q16 0 34 8.5t38 28t36.5 58.5t22.5 91l26 210h110l-36 -290q-7 -58 4.5 -82t40.5 -24q39 0 81.5 50t59.5 144q17 92 1 202h112q21 -115 -3 -231
q-27 -134 -99.5 -199.5t-163.5 -65.5q-57 0 -93.5 28t-44.5 68h-2q-23 -43 -73.5 -69.5t-90.5 -26.5z" />
    <glyph glyph-name="Wdieresis" unicode="&#x1e84;" horiz-adv-x="949" 
d="M455 775q-31 0 -51.5 20.5t-20.5 50.5q0 32 21.5 53t53.5 21q30 0 50.5 -20t20.5 -51t-21.5 -52.5t-52.5 -21.5zM645 775q-31 0 -51.5 20.5t-20.5 50.5q0 32 21.5 53t53.5 21q30 0 50.5 -20t20.5 -51t-21.5 -52.5t-52.5 -21.5zM207 0l-116 710h120l74 -523h3l178 523h126
l58 -517h3l197 517h124l-293 -710h-104l-69 532h-2l-185 -532h-114z" />
    <glyph glyph-name="wdieresis" unicode="&#x1e85;" horiz-adv-x="784" 
d="M353 562q-31 0 -51.5 20.5t-20.5 50.5q0 32 21.5 53t53.5 21q30 0 50.5 -20t20.5 -51q0 -32 -21.5 -53t-52.5 -21zM543 562q-31 0 -51.5 20.5t-20.5 50.5q0 32 21.5 53t53.5 21q30 0 50.5 -20t20.5 -51q0 -32 -21.5 -53t-52.5 -21zM178 -8q-148 0 -120 208l39 288h109
l-36 -280q-8 -63 5 -89.5t43 -26.5q16 0 34 8.5t38 28t36.5 58.5t22.5 91l26 210h110l-36 -290q-7 -58 4.5 -82t40.5 -24q39 0 81.5 50t59.5 144q17 92 1 202h112q21 -115 -3 -231q-27 -134 -99.5 -199.5t-163.5 -65.5q-57 0 -93.5 28t-44.5 68h-2q-23 -43 -73.5 -69.5
t-90.5 -26.5z" />
    <glyph glyph-name="uni1E9E" unicode="&#x1e9e;" horiz-adv-x="731" 
d="M524 405q10 -6 33.5 -19t33.5 -19t29.5 -19t28.5 -22t22 -23.5t19 -29t10.5 -33.5t4.5 -41q0 -96 -65.5 -151.5t-169.5 -55.5q-67 0 -126 24.5t-91 74.5l79 87q21 -36 61 -57.5t79 -21.5q52 0 80.5 28.5t28.5 69.5q0 17 -7 31.5t-13.5 23.5t-26.5 21.5t-27 16l-33 16.5
q-65 32 -98 52l148 235l-1 5q-85 11 -133 11q-77 0 -117.5 -31t-49.5 -105l-59 -473h-117l59 479q15 123 88 181t189 58q123 0 313 -47z" />
    <glyph glyph-name="uni1EA0" unicode="&#x1ea0;" horiz-adv-x="647" 
d="M-4 0l324 710h123l150 -710h-123l-29 154h-256l-67 -154h-122zM229 257h192l-58 305h-2zM279 -80q31 0 51 -20.5t20 -50.5q0 -32 -21 -53t-53 -21q-31 0 -51.5 20t-20.5 51q0 32 21.5 53t53.5 21z" />
    <glyph glyph-name="uni1EA1" unicode="&#x1ea1;" horiz-adv-x="562" 
d="M207 -8q-83 0 -125.5 55.5t-42.5 142.5q0 121 67.5 213t172.5 92q82 0 128 -47l3 1l5 38h109l-60 -487h-109l11 89l-3 1q-33 -48 -74.5 -73t-81.5 -25zM228 89q54 0 104 67.5t64 175.5l2 18q-47 45 -111 45q-61 0 -99 -63.5t-38 -143.5q0 -46 20 -72.5t58 -26.5zM233 -80
q31 0 51 -20.5t20 -50.5q0 -32 -21 -53t-53 -21q-31 0 -51.5 20t-20.5 51q0 32 21.5 53t53.5 21z" />
    <glyph glyph-name="uni1EA2" unicode="&#x1ea2;" horiz-adv-x="647" 
d="M423 784l-73 1q29 21 51.5 46.5t22.5 44.5q0 18 -24 18q-34 0 -84 -34l-17 56q56 51 135 51q33 0 54 -16t21 -48q0 -39 -28 -72.5t-58 -46.5zM-4 0l324 710h123l150 -710h-123l-29 154h-256l-67 -154h-122zM229 257h192l-58 305h-2z" />
    <glyph glyph-name="uni1EA3" unicode="&#x1ea3;" horiz-adv-x="562" 
d="M357 553l-73 1q29 21 51.5 46.5t22.5 44.5q0 18 -24 18q-34 0 -84 -34l-17 56q56 51 135 51q33 0 54 -16t21 -48q0 -39 -28 -72.5t-58 -46.5zM207 -8q-83 0 -125.5 55.5t-42.5 142.5q0 121 67.5 213t172.5 92q82 0 128 -47l3 1l5 38h109l-60 -487h-109l11 89l-3 1
q-33 -48 -74.5 -73t-81.5 -25zM228 89q54 0 104 67.5t64 175.5l2 18q-47 45 -111 45q-61 0 -99 -63.5t-38 -143.5q0 -46 20 -72.5t58 -26.5z" />
    <glyph glyph-name="uni1EA4" unicode="&#x1ea4;" horiz-adv-x="647" 
d="M546 832l108 134l120 1l-147 -135h-81zM240 775l120 133h106l84 -133h-103l-42 68h-3l-59 -68h-103zM-4 0l324 710h123l150 -710h-123l-29 154h-256l-67 -154h-122zM229 257h192l-58 305h-2z" />
    <glyph glyph-name="uni1EA5" unicode="&#x1ea5;" horiz-adv-x="562" 
d="M449 644l115 145h120l-154 -145h-81zM174 554l118 147h104l87 -147h-106l-36 76h-2l-55 -76h-110zM207 -8q-83 0 -125.5 55.5t-42.5 142.5q0 121 67.5 213t172.5 92q82 0 128 -47l3 1l5 38h109l-60 -487h-109l11 89l-3 1q-33 -48 -74.5 -73t-81.5 -25zM228 89
q54 0 104 67.5t64 175.5l2 18q-47 45 -111 45q-61 0 -99 -63.5t-38 -143.5q0 -46 20 -72.5t58 -26.5z" />
    <glyph glyph-name="uni1EA6" unicode="&#x1ea6;" horiz-adv-x="647" 
d="M569 830l-94 135h111l58 -135h-75zM240 775l120 133h106l84 -133h-103l-42 68h-3l-59 -68h-103zM-4 0l324 710h123l150 -710h-123l-29 154h-256l-67 -154h-122zM229 257h192l-58 305h-2z" />
    <glyph glyph-name="uni1EA7" unicode="&#x1ea7;" horiz-adv-x="562" 
d="M477 645l-94 145h112l58 -145h-76zM174 554l118 147h104l87 -147h-106l-36 76h-2l-55 -76h-110zM207 -8q-83 0 -125.5 55.5t-42.5 142.5q0 121 67.5 213t172.5 92q82 0 128 -47l3 1l5 38h109l-60 -487h-109l11 89l-3 1q-33 -48 -74.5 -73t-81.5 -25zM228 89
q54 0 104 67.5t64 175.5l2 18q-47 45 -111 45q-61 0 -99 -63.5t-38 -143.5q0 -46 20 -72.5t58 -26.5z" />
    <glyph glyph-name="uni1EA8" unicode="&#x1ea8;" horiz-adv-x="647" 
d="M613 840l-66 1q4 3 13 9.5t14 9.5t12.5 9t11.5 10t8 9.5t6 10.5t2 10q0 16 -22 16q-31 0 -76 -31l-15 49q51 46 122 46q30 0 48.5 -14.5t18.5 -43.5q0 -55 -77 -91zM240 775l120 133h106l84 -133h-103l-42 68h-3l-59 -68h-103zM-4 0l324 710h123l150 -710h-123l-29 154
h-256l-67 -154h-122zM229 257h192l-58 305h-2z" />
    <glyph glyph-name="uni1EA9" unicode="&#x1ea9;" horiz-adv-x="562" 
d="M542 654l-70 1q28 20 49.5 44t21.5 43q0 17 -23 17q-32 0 -80 -33l-16 54q53 48 128 48q32 0 51.5 -15.5t19.5 -45.5q0 -37 -26.5 -68.5t-54.5 -44.5zM174 554l118 147h104l87 -147h-106l-36 76h-2l-55 -76h-110zM207 -8q-83 0 -125.5 55.5t-42.5 142.5q0 121 67.5 213
t172.5 92q82 0 128 -47l3 1l5 38h109l-60 -487h-109l11 89l-3 1q-33 -48 -74.5 -73t-81.5 -25zM228 89q54 0 104 67.5t64 175.5l2 18q-47 45 -111 45q-61 0 -99 -63.5t-38 -143.5q0 -46 20 -72.5t58 -26.5z" />
    <glyph glyph-name="uni1EAA" unicode="&#x1eaa;" horiz-adv-x="647" 
d="M488 927q-33 0 -74 30q-27 20 -43 20q-32 0 -54 -50l-64 33q46 91 109 91q11 0 20.5 -1.5t17.5 -5.5t12.5 -6.5t12.5 -8t10 -6.5q31 -21 44 -21q33 0 54 49l64 -24q-19 -46 -48 -73t-61 -27zM240 775l120 133h106l84 -133h-103l-42 68h-3l-59 -68h-103zM-4 0l324 710h123
l150 -710h-123l-29 154h-256l-67 -154h-122zM229 257h192l-58 305h-2z" />
    <glyph glyph-name="uni1EAB" unicode="&#x1eab;" horiz-adv-x="562" 
d="M424 742q-10 0 -18 1.5t-16 6t-11.5 7t-11.5 9.5t-9 7q-27 22 -43 22q-31 0 -56 -53l-62 34q44 100 110 100q11 0 20.5 -1.5t18 -5.5t12.5 -6t12.5 -8.5t9.5 -7.5q3 -2 10.5 -8t11 -8.5t9.5 -5t11 -2.5q31 0 54 53l63 -26q-20 -50 -50.5 -79t-64.5 -29zM175 554l118 147
h104l87 -147h-106l-36 76h-2l-55 -76h-110zM207 -8q-83 0 -125.5 55.5t-42.5 142.5q0 121 67.5 213t172.5 92q82 0 128 -47l3 1l5 38h109l-60 -487h-109l11 89l-3 1q-33 -48 -74.5 -73t-81.5 -25zM228 89q54 0 104 67.5t64 175.5l2 18q-47 45 -111 45q-61 0 -99 -63.5
t-38 -143.5q0 -46 20 -72.5t58 -26.5z" />
    <glyph glyph-name="uni1EAC" unicode="&#x1eac;" horiz-adv-x="647" 
d="M239 775l120 133h106l84 -133h-103l-42 68h-3l-59 -68h-103zM-4 0l324 710h123l150 -710h-123l-29 154h-256l-67 -154h-122zM229 257h192l-58 305h-2zM279 -80q31 0 51 -20.5t20 -50.5q0 -32 -21 -53t-53 -21q-31 0 -51.5 20t-20.5 51q0 32 21.5 53t53.5 21z" />
    <glyph glyph-name="uni1EAD" unicode="&#x1ead;" horiz-adv-x="562" 
d="M173 554l118 147h104l87 -147h-106l-36 76h-2l-55 -76h-110zM207 -8q-83 0 -125.5 55.5t-42.5 142.5q0 121 67.5 213t172.5 92q82 0 128 -47l3 1l5 38h109l-60 -487h-109l11 89l-3 1q-33 -48 -74.5 -73t-81.5 -25zM228 89q54 0 104 67.5t64 175.5l2 18q-47 45 -111 45
q-61 0 -99 -63.5t-38 -143.5q0 -46 20 -72.5t58 -26.5zM233 -80q31 0 51 -20.5t20 -50.5q0 -32 -21 -53t-53 -21q-31 0 -51.5 20t-20.5 51q0 32 21.5 53t53.5 21z" />
    <glyph glyph-name="uni1EAE" unicode="&#x1eae;" horiz-adv-x="647" 
d="M370 896l108 134l120 1l-147 -135h-81zM398 765q-73 0 -109 34t-30 94h90q-3 -20 10 -35t42 -15t50 15.5t29 34.5h90q-14 -57 -60 -92.5t-112 -35.5zM-4 0l324 710h123l150 -710h-123l-29 154h-256l-67 -154h-122zM229 257h192l-58 305h-2z" />
    <glyph glyph-name="uni1EAF" unicode="&#x1eaf;" horiz-adv-x="562" 
d="M305 710l115 145h120l-154 -145h-81zM331 549q-69 0 -103 38.5t-28 109.5h85q-7 -64 49 -64q27 0 47.5 18.5t26.5 45.5h85q-13 -69 -56 -108.5t-106 -39.5zM207 -8q-83 0 -125.5 55.5t-42.5 142.5q0 121 67.5 213t172.5 92q82 0 128 -47l3 1l5 38h109l-60 -487h-109
l11 89l-3 1q-33 -48 -74.5 -73t-81.5 -25zM228 89q54 0 104 67.5t64 175.5l2 18q-47 45 -111 45q-61 0 -99 -63.5t-38 -143.5q0 -46 20 -72.5t58 -26.5z" />
    <glyph glyph-name="uni1EB0" unicode="&#x1eb0;" horiz-adv-x="647" 
d="M377 896l-94 135h111l58 -135h-75zM398 765q-73 0 -109 34t-30 94h90q-3 -20 10 -35t42 -15t50 15.5t29 34.5h90q-14 -57 -60 -92.5t-112 -35.5zM-4 0l324 710h123l150 -710h-123l-29 154h-256l-67 -154h-122zM229 257h192l-58 305h-2z" />
    <glyph glyph-name="uni1EB1" unicode="&#x1eb1;" horiz-adv-x="562" 
d="M315 710l-94 145h112l58 -145h-76zM331 549q-69 0 -103 38.5t-28 109.5h85q-7 -64 49 -64q27 0 47.5 18.5t26.5 45.5h85q-13 -69 -56 -108.5t-106 -39.5zM207 -8q-83 0 -125.5 55.5t-42.5 142.5q0 121 67.5 213t172.5 92q82 0 128 -47l3 1l5 38h109l-60 -487h-109l11 89
l-3 1q-33 -48 -74.5 -73t-81.5 -25zM228 89q54 0 104 67.5t64 175.5l2 18q-47 45 -111 45q-61 0 -99 -63.5t-38 -143.5q0 -46 20 -72.5t58 -26.5z" />
    <glyph glyph-name="uni1EB2" unicode="&#x1eb2;" horiz-adv-x="647" 
d="M437 889l-66 1q4 3 13 9.5t14 9.5t12.5 9t11.5 10t8 9.5t6 10.5t2 10q0 16 -22 16q-31 0 -76 -31l-15 49q51 46 122 46q30 0 48.5 -14.5t18.5 -43.5q0 -55 -77 -91zM398 765q-73 0 -109 34t-30 94h90q-3 -20 10 -35t42 -15t50 15.5t29 34.5h90q-14 -57 -60 -92.5
t-112 -35.5zM-4 0l324 710h123l150 -710h-123l-29 154h-256l-67 -154h-122zM229 257h192l-58 305h-2z" />
    <glyph glyph-name="uni1EB3" unicode="&#x1eb3;" horiz-adv-x="562" 
d="M379 696l-70 1q28 20 49.5 44t21.5 43q0 17 -23 17q-32 0 -80 -33l-16 54q53 48 128 48q32 0 51.5 -15.5t19.5 -45.5q0 -37 -26.5 -68.5t-54.5 -44.5zM334 551q-72 0 -107.5 36t-29.5 103h89q-7 -60 51 -60q28 0 49 17.5t28 42.5h88q-14 -64 -58.5 -101.5t-109.5 -37.5z
M207 -8q-83 0 -125.5 55.5t-42.5 142.5q0 121 67.5 213t172.5 92q82 0 128 -47l3 1l5 38h109l-60 -487h-109l11 89l-3 1q-33 -48 -74.5 -73t-81.5 -25zM228 89q54 0 104 67.5t64 175.5l2 18q-47 45 -111 45q-61 0 -99 -63.5t-38 -143.5q0 -46 20 -72.5t58 -26.5z" />
    <glyph glyph-name="uni1EB4" unicode="&#x1eb4;" horiz-adv-x="647" 
d="M484 913q-33 0 -74 30q-27 20 -43 20q-32 0 -54 -50l-64 33q46 91 109 91q11 0 20.5 -1.5t17.5 -5.5t12.5 -6.5t12.5 -8t10 -6.5q31 -21 44 -21q33 0 54 49l64 -24q-19 -46 -48 -73t-61 -27zM398 765q-73 0 -109 34t-30 94h90q-3 -20 10 -35t42 -15t50 15.5t29 34.5h90
q-14 -57 -60 -92.5t-112 -35.5zM-4 0l324 710h123l150 -710h-123l-29 154h-256l-67 -154h-122zM229 257h192l-58 305h-2z" />
    <glyph glyph-name="uni1EB5" unicode="&#x1eb5;" horiz-adv-x="562" 
d="M422 739q-10 0 -18 1.5t-16 6t-11.5 7t-11.5 9.5t-9 7q-28 22 -43 22q-31 0 -56 -53l-62 34q44 100 110 100q11 0 20.5 -1.5t18 -5.5t12.5 -6t12.5 -8.5t9.5 -7.5q3 -2 10.5 -8t11 -8.5t9.5 -5t11 -2.5q31 0 54 53l63 -26q-20 -50 -50.5 -79t-64.5 -29zM330 549
q-69 0 -103 38.5t-28 109.5h85q-7 -64 49 -64q27 0 47.5 18.5t26.5 45.5h85q-13 -69 -56 -108.5t-106 -39.5zM207 -8q-83 0 -125.5 55.5t-42.5 142.5q0 121 67.5 213t172.5 92q82 0 128 -47l3 1l5 38h109l-60 -487h-109l11 89l-3 1q-33 -48 -74.5 -73t-81.5 -25zM228 89
q54 0 104 67.5t64 175.5l2 18q-47 45 -111 45q-61 0 -99 -63.5t-38 -143.5q0 -46 20 -72.5t58 -26.5z" />
    <glyph glyph-name="uni1EB6" unicode="&#x1eb6;" horiz-adv-x="647" 
d="M397 768q-69 0 -103 37t-28 102h85q-3 -22 9 -38.5t40 -16.5q26 0 46.5 17t27.5 38h85q-13 -63 -56 -101t-106 -38zM-4 0l324 710h123l150 -710h-123l-29 154h-256l-67 -154h-122zM229 257h192l-58 305h-2zM279 -80q31 0 51 -20.5t20 -50.5q0 -32 -21 -53t-53 -21
q-31 0 -51.5 20t-20.5 51q0 32 21.5 53t53.5 21z" />
    <glyph glyph-name="uni1EB7" unicode="&#x1eb7;" horiz-adv-x="562" 
d="M332 549q-69 0 -103 38.5t-28 109.5h85q-7 -64 49 -64q27 0 47.5 18.5t26.5 45.5h85q-13 -69 -56 -108.5t-106 -39.5zM207 -8q-83 0 -125.5 55.5t-42.5 142.5q0 121 67.5 213t172.5 92q82 0 128 -47l3 1l5 38h109l-60 -487h-109l11 89l-3 1q-33 -48 -74.5 -73t-81.5 -25z
M228 89q54 0 104 67.5t64 175.5l2 18q-47 45 -111 45q-61 0 -99 -63.5t-38 -143.5q0 -46 20 -72.5t58 -26.5zM233 -80q31 0 51 -20.5t20 -50.5q0 -32 -21 -53t-53 -21q-31 0 -51.5 20t-20.5 51q0 32 21.5 53t53.5 21z" />
    <glyph glyph-name="uni1EB8" unicode="&#x1eb8;" horiz-adv-x="595" 
d="M62 0l87 710h432l-14 -106h-314l-24 -199h287l-13 -106h-287l-24 -193h330l-13 -106h-447zM279 -80q31 0 51 -20.5t20 -50.5q0 -32 -21 -53t-53 -21q-31 0 -51.5 20t-20.5 51q0 32 21.5 53t53.5 21z" />
    <glyph glyph-name="uni1EB9" unicode="&#x1eb9;" horiz-adv-x="480" 
d="M253 93q63 0 109 50l78 -74q-73 -76 -190 -76q-99 0 -154 53t-55 156q0 121 70 207t191 86q70 0 113.5 -33.5t43.5 -94.5q0 -159 -307 -193q9 -40 37 -60.5t64 -20.5zM299 396q-46 0 -88 -36t-56 -98q193 21 193 95q0 39 -49 39zM222 -80q31 0 51 -20.5t20 -50.5
q0 -32 -21 -53t-53 -21q-31 0 -51.5 20t-20.5 51q0 32 21.5 53t53.5 21z" />
    <glyph glyph-name="uni1EBA" unicode="&#x1eba;" horiz-adv-x="595" 
d="M408 775l-73 1q5 3 15 10l15 10.5t13 10t12.5 11t9.5 10.5t7 11.5t2 11.5q0 18 -24 18q-34 0 -84 -34l-17 54q56 51 135 51q33 0 54 -16t21 -48q0 -63 -86 -101zM62 0l87 710h432l-14 -106h-314l-24 -199h287l-13 -106h-287l-24 -193h330l-13 -106h-447z" />
    <glyph glyph-name="uni1EBB" unicode="&#x1ebb;" horiz-adv-x="480" 
d="M302 663q-34 0 -84 -34l-17 56q56 51 135 51q33 0 54 -16t21 -48q0 -39 -28 -72.5t-58 -46.5l-73 1q29 21 51.5 46.5t22.5 44.5q0 18 -24 18zM253 93q63 0 109 50l78 -74q-73 -76 -190 -76q-99 0 -154 53t-55 156q0 121 70 207t191 86q70 0 113.5 -33.5t43.5 -94.5
q0 -159 -307 -193q9 -40 37 -60.5t64 -20.5zM299 396q-46 0 -88 -36t-56 -98q193 21 193 95q0 39 -49 39z" />
    <glyph glyph-name="uni1EBC" unicode="&#x1ebc;" horiz-adv-x="595" 
d="M460 774q-36 0 -79 32q-29 22 -46 22q-33 0 -57 -54l-68 35q48 98 116 98q12 0 21.5 -1.5t18.5 -6t13.5 -6.5t13 -8.5t10.5 -7.5q33 -23 47 -23q35 0 58 53l68 -26q-21 -49 -51.5 -78t-64.5 -29zM62 0l87 710h432l-14 -106h-314l-24 -199h287l-13 -106h-287l-24 -193h330
l-13 -106h-447z" />
    <glyph glyph-name="uni1EBD" unicode="&#x1ebd;" horiz-adv-x="480" 
d="M254 608q-36 0 -60 -54l-68 35q45 107 118 107q14 0 26 -3.5t17.5 -6.5t17 -11t12.5 -9q33 -23 47 -23q37 0 60 53l68 -26q-20 -55 -50.5 -85.5t-65.5 -30.5q-10 0 -19.5 2t-18.5 6.5t-14 7.5t-13.5 8.5t-10.5 7.5q-29 22 -46 22zM459 367q0 -159 -307 -193
q9 -40 37 -60.5t64 -20.5q63 0 109 50l78 -74q-73 -76 -190 -76q-99 0 -154 53t-55 156q0 121 70 207t191 86q70 0 113.5 -33.5t43.5 -94.5zM155 262q193 21 193 95q0 39 -49 39q-46 0 -88 -36t-56 -98z" />
    <glyph glyph-name="uni1EBE" unicode="&#x1ebe;" horiz-adv-x="595" 
d="M532 832l108 134l120 1l-147 -135h-81zM226 775l120 133h106l84 -133h-103l-42 68h-3l-59 -68h-103zM62 0l87 710h432l-14 -106h-314l-24 -199h287l-13 -106h-287l-24 -193h330l-13 -106h-447z" />
    <glyph glyph-name="uni1EBF" unicode="&#x1ebf;" horiz-adv-x="480" 
d="M532 789h120l-154 -145h-81zM307 630l-55 -76h-110l118 147h104l87 -147h-106l-36 76h-2zM459 367q0 -159 -307 -193q9 -40 37 -60.5t64 -20.5q63 0 109 50l78 -74q-73 -76 -190 -76q-99 0 -154 53t-55 156q0 121 70 207t191 86q70 0 113.5 -33.5t43.5 -94.5zM155 262
q193 21 193 95q0 39 -49 39q-46 0 -88 -36t-56 -98z" />
    <glyph glyph-name="uni1EC0" unicode="&#x1ec0;" horiz-adv-x="595" 
d="M555 830l-94 135h111l58 -135h-75zM226 775l120 133h106l84 -133h-103l-42 68h-3l-59 -68h-103zM62 0l87 710h432l-14 -106h-314l-24 -199h287l-13 -106h-287l-24 -193h330l-13 -106h-447z" />
    <glyph glyph-name="uni1EC1" unicode="&#x1ec1;" horiz-adv-x="480" 
d="M521 645h-76l-94 145h112zM307 630l-55 -76h-110l118 147h104l87 -147h-106l-36 76h-2zM459 367q0 -159 -307 -193q9 -40 37 -60.5t64 -20.5q63 0 109 50l78 -74q-73 -76 -190 -76q-99 0 -154 53t-55 156q0 121 70 207t191 86q70 0 113.5 -33.5t43.5 -94.5zM155 262
q193 21 193 95q0 39 -49 39q-46 0 -88 -36t-56 -98z" />
    <glyph glyph-name="uni1EC2" unicode="&#x1ec2;" horiz-adv-x="595" 
d="M599 840l-66 1q4 3 13 9.5t14 9.5t12.5 9t11.5 10t8 9.5t6 10.5t2 10q0 16 -22 16q-31 0 -76 -31l-15 49q51 46 122 46q30 0 48.5 -14.5t18.5 -43.5q0 -55 -77 -91zM226 775l120 133h106l84 -133h-103l-42 68h-3l-59 -68h-103zM62 0l87 710h432l-14 -106h-314l-24 -199
h287l-13 -106h-287l-24 -193h330l-13 -106h-447z" />
    <glyph glyph-name="uni1EC3" unicode="&#x1ec3;" horiz-adv-x="480" 
d="M520 828q32 0 51.5 -15.5t19.5 -45.5q0 -37 -26.5 -68.5t-54.5 -44.5l-70 1q28 20 49.5 44t21.5 43q0 17 -23 17q-32 0 -80 -33l-16 54q53 48 128 48zM307 630l-55 -76h-110l118 147h104l87 -147h-106l-36 76h-2zM459 367q0 -159 -307 -193q9 -40 37 -60.5t64 -20.5
q63 0 109 50l78 -74q-73 -76 -190 -76q-99 0 -154 53t-55 156q0 121 70 207t191 86q70 0 113.5 -33.5t43.5 -94.5zM155 262q193 21 193 95q0 39 -49 39q-46 0 -88 -36t-56 -98z" />
    <glyph glyph-name="uni1EC4" unicode="&#x1ec4;" horiz-adv-x="595" 
d="M474 927q-33 0 -74 30q-27 20 -43 20q-32 0 -54 -50l-64 33q46 91 109 91q11 0 20.5 -1.5t17.5 -5.5t12.5 -6.5t12.5 -8t10 -6.5q31 -21 44 -21q33 0 54 49l64 -24q-19 -46 -48 -73t-61 -27zM226 775l120 133h106l84 -133h-103l-42 68h-3l-59 -68h-103zM62 0l87 710h432
l-14 -106h-314l-24 -199h287l-13 -106h-287l-24 -193h330l-13 -106h-447z" />
    <glyph glyph-name="uni1EC5" unicode="&#x1ec5;" horiz-adv-x="480" 
d="M444 876l63 -26q-20 -50 -50.5 -79t-64.5 -29q-10 0 -18 1.5t-16 6t-11.5 7t-11.5 9.5t-9 7q-28 22 -43 22q-31 0 -56 -53l-62 34q44 100 110 100q11 0 20.5 -1.5t18 -5.5t12.5 -6t12.5 -8.5t9.5 -7.5q3 -2 10.5 -8t11 -8.5t9.5 -5t11 -2.5q31 0 54 53zM310 630h-2
l-55 -76h-110l118 147h104l87 -147h-106zM459 367q0 -159 -307 -193q9 -40 37 -60.5t64 -20.5q63 0 109 50l78 -74q-73 -76 -190 -76q-99 0 -154 53t-55 156q0 121 70 207t191 86q70 0 113.5 -33.5t43.5 -94.5zM155 262q193 21 193 95q0 39 -49 39q-46 0 -88 -36t-56 -98z
" />
    <glyph glyph-name="uni1EC6" unicode="&#x1ec6;" horiz-adv-x="595" 
d="M225 775l120 133h106l84 -133h-103l-42 68h-3l-59 -68h-103zM62 0l87 710h432l-14 -106h-314l-24 -199h287l-13 -106h-287l-24 -193h330l-13 -106h-447zM279 -80q31 0 51 -20.5t20 -50.5q0 -32 -21 -53t-53 -21q-31 0 -51.5 20t-20.5 51q0 32 21.5 53t53.5 21z" />
    <glyph glyph-name="uni1EC7" unicode="&#x1ec7;" horiz-adv-x="480" 
d="M306 630l-55 -76h-110l118 147h104l87 -147h-106l-36 76h-2zM253 93q63 0 109 50l78 -74q-73 -76 -190 -76q-99 0 -154 53t-55 156q0 121 70 207t191 86q70 0 113.5 -33.5t43.5 -94.5q0 -159 -307 -193q9 -40 37 -60.5t64 -20.5zM299 396q-46 0 -88 -36t-56 -98
q193 21 193 95q0 39 -49 39zM222 -80q31 0 51 -20.5t20 -50.5q0 -32 -21 -53t-53 -21q-31 0 -51.5 20t-20.5 51q0 32 21.5 53t53.5 21z" />
    <glyph glyph-name="uni1EC8" unicode="&#x1ec8;" horiz-adv-x="311" 
d="M248 775l-73 1q5 3 15 10l15 10.5t13 10t12.5 11t9.5 10.5t7 11.5t2 11.5q0 18 -24 18q-34 0 -84 -34l-17 54q56 51 135 51q33 0 54 -16t21 -48q0 -63 -86 -101zM66 0l87 710h119l-87 -710h-119z" />
    <glyph glyph-name="uni1EC9" unicode="&#x1ec9;" horiz-adv-x="258" 
d="M198 553l-73 1q29 21 51.5 46.5t22.5 44.5q0 18 -24 18q-34 0 -84 -34l-17 56q56 51 135 51q33 0 54 -16t21 -48q0 -39 -28 -72.5t-58 -46.5zM44 0l60 488h110l-60 -488h-110z" />
    <glyph glyph-name="uni1ECA" unicode="&#x1eca;" horiz-adv-x="311" 
d="M66 0l87 710h119l-87 -710h-119zM107 -80q31 0 51 -20.5t20 -50.5q0 -32 -21 -53t-53 -21q-31 0 -51.5 20t-20.5 51q0 32 21.5 53t53.5 21z" />
    <glyph glyph-name="uni1ECB" unicode="&#x1ecb;" horiz-adv-x="258" 
d="M180 562q-31 0 -51 20.5t-20 50.5q0 32 21 53t53 21q31 0 51.5 -20t20.5 -51q0 -32 -21.5 -53t-53.5 -21zM44 0l60 488h110l-60 -488h-110zM82 -80q31 0 51 -20.5t20 -50.5q0 -32 -21 -53t-53 -21q-31 0 -51.5 20t-20.5 51q0 32 21.5 53t53.5 21z" />
    <glyph glyph-name="uni1ECC" unicode="&#x1ecc;" horiz-adv-x="765" 
d="M352 -8q-130 0 -207.5 79.5t-77.5 219.5q0 113 45.5 210t132 157t194.5 60q129 0 207.5 -79.5t78.5 -218.5q0 -115 -44 -211.5t-130 -156.5t-199 -60zM361 102q103 0 172 94.5t69 220.5q0 95 -46.5 143.5t-129.5 48.5q-101 0 -168.5 -96t-67.5 -219q0 -94 45.5 -143
t125.5 -49zM333 -80q31 0 51 -20.5t20 -50.5q0 -32 -21 -53t-53 -21q-31 0 -51.5 20t-20.5 51q0 32 21.5 53t53.5 21z" />
    <glyph glyph-name="uni1ECD" unicode="&#x1ecd;" horiz-adv-x="548" 
d="M246 -8q-94 0 -149.5 54t-55.5 155q0 126 69.5 210t191.5 84q94 0 149.5 -54t55.5 -155q0 -126 -69.5 -210t-191.5 -84zM252 92q62 0 103 54t41 129q0 67 -30.5 93.5t-69.5 26.5q-62 0 -103 -54t-41 -129q0 -67 30 -93.5t70 -26.5zM224 -80q31 0 51 -20.5t20 -50.5
q0 -32 -21 -53t-53 -21q-31 0 -51.5 20t-20.5 51q0 32 21.5 53t53.5 21z" />
    <glyph glyph-name="uni1ECE" unicode="&#x1ece;" horiz-adv-x="765" 
d="M499 775l-73 1q5 3 15 10l15 10.5t13 10t12.5 11t9.5 10.5t7 11.5t2 11.5q0 18 -24 18q-34 0 -84 -34l-17 54q56 51 135 51q33 0 54 -16t21 -48q0 -63 -86 -101zM352 -8q-130 0 -207.5 79.5t-77.5 219.5q0 113 45.5 210t132 157t194.5 60q129 0 207.5 -79.5t78.5 -218.5
q0 -115 -44 -211.5t-130 -156.5t-199 -60zM361 102q103 0 172 94.5t69 220.5q0 95 -46.5 143.5t-129.5 48.5q-101 0 -168.5 -96t-67.5 -219q0 -94 45.5 -143t125.5 -49z" />
    <glyph glyph-name="uni1ECF" unicode="&#x1ecf;" horiz-adv-x="548" 
d="M346 553l-73 1q29 21 51.5 46.5t22.5 44.5q0 18 -24 18q-34 0 -84 -34l-17 56q56 51 135 51q33 0 54 -16t21 -48q0 -39 -28 -72.5t-58 -46.5zM246 -8q-94 0 -149.5 54t-55.5 155q0 126 69.5 210t191.5 84q94 0 149.5 -54t55.5 -155q0 -126 -69.5 -210t-191.5 -84zM252 92
q62 0 103 54t41 129q0 67 -30.5 93.5t-69.5 26.5q-62 0 -103 -54t-41 -129q0 -67 30 -93.5t70 -26.5z" />
    <glyph glyph-name="uni1ED0" unicode="&#x1ed0;" horiz-adv-x="765" 
d="M623 832l108 134l120 1l-147 -135h-81zM317 775l120 133h106l84 -133h-103l-42 68h-3l-59 -68h-103zM352 -8q-130 0 -207.5 79.5t-77.5 219.5q0 113 45.5 210t132 157t194.5 60q129 0 207.5 -79.5t78.5 -218.5q0 -115 -44 -211.5t-130 -156.5t-199 -60zM361 102
q103 0 172 94.5t69 220.5q0 95 -46.5 143.5t-129.5 48.5q-101 0 -168.5 -96t-67.5 -219q0 -94 45.5 -143t125.5 -49z" />
    <glyph glyph-name="uni1ED1" unicode="&#x1ed1;" horiz-adv-x="548" 
d="M438 644l115 145h120l-154 -145h-81zM163 554l118 147h104l87 -147h-106l-36 76h-2l-55 -76h-110zM246 -8q-94 0 -149.5 54t-55.5 155q0 126 69.5 210t191.5 84q94 0 149.5 -54t55.5 -155q0 -126 -69.5 -210t-191.5 -84zM252 92q62 0 103 54t41 129q0 67 -30.5 93.5
t-69.5 26.5q-62 0 -103 -54t-41 -129q0 -67 30 -93.5t70 -26.5z" />
    <glyph glyph-name="uni1ED2" unicode="&#x1ed2;" horiz-adv-x="765" 
d="M646 830l-94 135h111l58 -135h-75zM317 775l120 133h106l84 -133h-103l-42 68h-3l-59 -68h-103zM352 -8q-130 0 -207.5 79.5t-77.5 219.5q0 113 45.5 210t132 157t194.5 60q129 0 207.5 -79.5t78.5 -218.5q0 -115 -44 -211.5t-130 -156.5t-199 -60zM361 102
q103 0 172 94.5t69 220.5q0 95 -46.5 143.5t-129.5 48.5q-101 0 -168.5 -96t-67.5 -219q0 -94 45.5 -143t125.5 -49z" />
    <glyph glyph-name="uni1ED3" unicode="&#x1ed3;" horiz-adv-x="548" 
d="M466 645l-94 145h112l58 -145h-76zM163 554l118 147h104l87 -147h-106l-36 76h-2l-55 -76h-110zM246 -8q-94 0 -149.5 54t-55.5 155q0 126 69.5 210t191.5 84q94 0 149.5 -54t55.5 -155q0 -126 -69.5 -210t-191.5 -84zM252 92q62 0 103 54t41 129q0 67 -30.5 93.5
t-69.5 26.5q-62 0 -103 -54t-41 -129q0 -67 30 -93.5t70 -26.5z" />
    <glyph glyph-name="uni1ED4" unicode="&#x1ed4;" horiz-adv-x="765" 
d="M690 840l-66 1q4 3 13 9.5t14 9.5t12.5 9t11.5 10t8 9.5t6 10.5t2 10q0 16 -22 16q-31 0 -76 -31l-15 49q51 46 122 46q30 0 48.5 -14.5t18.5 -43.5q0 -55 -77 -91zM317 775l120 133h106l84 -133h-103l-42 68h-3l-59 -68h-103zM352 -8q-130 0 -207.5 79.5t-77.5 219.5
q0 113 45.5 210t132 157t194.5 60q129 0 207.5 -79.5t78.5 -218.5q0 -115 -44 -211.5t-130 -156.5t-199 -60zM361 102q103 0 172 94.5t69 220.5q0 95 -46.5 143.5t-129.5 48.5q-101 0 -168.5 -96t-67.5 -219q0 -94 45.5 -143t125.5 -49z" />
    <glyph glyph-name="uni1ED5" unicode="&#x1ed5;" horiz-adv-x="548" 
d="M531 654l-70 1q28 20 49.5 44t21.5 43q0 17 -23 17q-32 0 -80 -33l-16 54q53 48 128 48q32 0 51.5 -15.5t19.5 -45.5q0 -37 -26.5 -68.5t-54.5 -44.5zM163 554l118 147h104l87 -147h-106l-36 76h-2l-55 -76h-110zM246 -8q-94 0 -149.5 54t-55.5 155q0 126 69.5 210
t191.5 84q94 0 149.5 -54t55.5 -155q0 -126 -69.5 -210t-191.5 -84zM252 92q62 0 103 54t41 129q0 67 -30.5 93.5t-69.5 26.5q-62 0 -103 -54t-41 -129q0 -67 30 -93.5t70 -26.5z" />
    <glyph glyph-name="uni1ED6" unicode="&#x1ed6;" horiz-adv-x="765" 
d="M565 927q-33 0 -74 30q-27 20 -43 20q-32 0 -54 -50l-64 33q46 91 109 91q11 0 20.5 -1.5t17.5 -5.5t12.5 -6.5t12.5 -8t10 -6.5q31 -21 44 -21q33 0 54 49l64 -24q-19 -46 -48 -73t-61 -27zM317 775l120 133h106l84 -133h-103l-42 68h-3l-59 -68h-103zM352 -8
q-130 0 -207.5 79.5t-77.5 219.5q0 113 45.5 210t132 157t194.5 60q129 0 207.5 -79.5t78.5 -218.5q0 -115 -44 -211.5t-130 -156.5t-199 -60zM361 102q103 0 172 94.5t69 220.5q0 95 -46.5 143.5t-129.5 48.5q-101 0 -168.5 -96t-67.5 -219q0 -94 45.5 -143t125.5 -49z" />
    <glyph glyph-name="uni1ED7" unicode="&#x1ed7;" horiz-adv-x="548" 
d="M413 742q-10 0 -18 1.5t-16 6t-11.5 7t-11.5 9.5t-9 7q-28 22 -43 22q-31 0 -56 -53l-62 34q44 100 110 100q11 0 20.5 -1.5t18 -5.5t12.5 -6t12.5 -8.5t9.5 -7.5q3 -2 10.5 -8t11 -8.5t9.5 -5t11 -2.5q31 0 54 53l63 -26q-20 -50 -50.5 -79t-64.5 -29zM164 554l118 147
h104l87 -147h-106l-36 76h-2l-55 -76h-110zM246 -8q-94 0 -149.5 54t-55.5 155q0 126 69.5 210t191.5 84q94 0 149.5 -54t55.5 -155q0 -126 -69.5 -210t-191.5 -84zM252 92q62 0 103 54t41 129q0 67 -30.5 93.5t-69.5 26.5q-62 0 -103 -54t-41 -129q0 -67 30 -93.5t70 -26.5
z" />
    <glyph glyph-name="uni1ED8" unicode="&#x1ed8;" horiz-adv-x="765" 
d="M316 775l120 133h106l84 -133h-103l-42 68h-3l-59 -68h-103zM352 -8q-130 0 -207.5 79.5t-77.5 219.5q0 113 45.5 210t132 157t194.5 60q129 0 207.5 -79.5t78.5 -218.5q0 -115 -44 -211.5t-130 -156.5t-199 -60zM361 102q103 0 172 94.5t69 220.5q0 95 -46.5 143.5
t-129.5 48.5q-101 0 -168.5 -96t-67.5 -219q0 -94 45.5 -143t125.5 -49zM333 -80q31 0 51 -20.5t20 -50.5q0 -32 -21 -53t-53 -21q-31 0 -51.5 20t-20.5 51q0 32 21.5 53t53.5 21z" />
    <glyph glyph-name="uni1ED9" unicode="&#x1ed9;" horiz-adv-x="548" 
d="M162 554l118 147h104l87 -147h-106l-36 76h-2l-55 -76h-110zM246 -8q-94 0 -149.5 54t-55.5 155q0 126 69.5 210t191.5 84q94 0 149.5 -54t55.5 -155q0 -126 -69.5 -210t-191.5 -84zM252 92q62 0 103 54t41 129q0 67 -30.5 93.5t-69.5 26.5q-62 0 -103 -54t-41 -129
q0 -67 30 -93.5t70 -26.5zM224 -80q31 0 51 -20.5t20 -50.5q0 -32 -21 -53t-53 -21q-31 0 -51.5 20t-20.5 51q0 32 21.5 53t53.5 21z" />
    <glyph glyph-name="uni1EDA" unicode="&#x1eda;" horiz-adv-x="810" 
d="M642 908l-130 -133h-109l115 132zM737 774h104l-12 -91q-19 -143 -115 -170q11 -44 11 -93q0 -115 -44 -211.5t-130 -156.5t-199 -60q-130 0 -207.5 79.5t-77.5 219.5q0 113 45.5 210t132 157t194.5 60q85 0 149.5 -35.5t99.5 -101.5q18 11 25.5 38.5t14.5 81.5zM361 102
q103 0 172 94.5t69 220.5q0 95 -46.5 143.5t-129.5 48.5q-101 0 -168.5 -96t-67.5 -219q0 -94 45.5 -143t125.5 -49z" />
    <glyph glyph-name="uni1EDB" unicode="&#x1edb;" horiz-adv-x="636" 
d="M500 701l-129 -145h-111l119 144zM553 565h104l-12 -91q-22 -161 -138 -174v-14q0 -126 -69.5 -210t-191.5 -84q-94 0 -149.5 54t-55.5 155q0 126 69.5 210t191.5 84q72 0 122.5 -32.5t70.5 -94.5q23 6 32 35t17 89zM252 92q62 0 103 54t41 129q0 67 -30.5 93.5
t-69.5 26.5q-62 0 -103 -54t-41 -129q0 -67 30 -93.5t70 -26.5z" />
    <glyph glyph-name="uni1EDC" unicode="&#x1edc;" horiz-adv-x="810" 
d="M518 775h-109l-98 133l122 -1zM737 774h104l-12 -91q-19 -143 -115 -170q11 -44 11 -93q0 -115 -44 -211.5t-130 -156.5t-199 -60q-130 0 -207.5 79.5t-77.5 219.5q0 113 45.5 210t132 157t194.5 60q85 0 149.5 -35.5t99.5 -101.5q18 11 25.5 38.5t14.5 81.5zM361 102
q103 0 172 94.5t69 220.5q0 95 -46.5 143.5t-129.5 48.5q-101 0 -168.5 -96t-67.5 -219q0 -94 45.5 -143t125.5 -49z" />
    <glyph glyph-name="uni1EDD" unicode="&#x1edd;" horiz-adv-x="636" 
d="M376 556h-111l-94 145l122 -1zM553 565h104l-12 -91q-22 -161 -138 -174v-14q0 -126 -69.5 -210t-191.5 -84q-94 0 -149.5 54t-55.5 155q0 126 69.5 210t191.5 84q72 0 122.5 -32.5t70.5 -94.5q23 6 32 35t17 89zM252 92q62 0 103 54t41 129q0 67 -30.5 93.5t-69.5 26.5
q-62 0 -103 -54t-41 -129q0 -67 30 -93.5t70 -26.5z" />
    <glyph glyph-name="uni1EDE" unicode="&#x1ede;" horiz-adv-x="810" 
d="M476 869q-34 0 -84 -34l-17 54q56 51 135 51q33 0 54 -16t21 -48q0 -63 -86 -101l-73 1q5 3 15 10l15 10.5t13 10t12.5 11t9.5 10.5t7 11.5t2 11.5q0 18 -24 18zM737 774h104l-12 -91q-19 -143 -115 -170q11 -44 11 -93q0 -115 -44 -211.5t-130 -156.5t-199 -60
q-130 0 -207.5 79.5t-77.5 219.5q0 113 45.5 210t132 157t194.5 60q85 0 149.5 -35.5t99.5 -101.5q18 11 25.5 38.5t14.5 81.5zM361 102q103 0 172 94.5t69 220.5q0 95 -46.5 143.5t-129.5 48.5q-101 0 -168.5 -96t-67.5 -219q0 -94 45.5 -143t125.5 -49z" />
    <glyph glyph-name="uni1EDF" unicode="&#x1edf;" horiz-adv-x="636" 
d="M323 663q-34 0 -84 -34l-17 56q56 51 135 51q33 0 54 -16t21 -48q0 -39 -28 -72.5t-58 -46.5l-73 1q29 21 51.5 46.5t22.5 44.5q0 18 -24 18zM553 565h104l-12 -91q-22 -161 -138 -174v-14q0 -126 -69.5 -210t-191.5 -84q-94 0 -149.5 54t-55.5 155q0 126 69.5 210
t191.5 84q72 0 122.5 -32.5t70.5 -94.5q23 6 32 35t17 89zM252 92q62 0 103 54t41 129q0 67 -30.5 93.5t-69.5 26.5q-62 0 -103 -54t-41 -129q0 -67 30 -93.5t70 -26.5z" />
    <glyph glyph-name="uni1EE0" unicode="&#x1ee0;" horiz-adv-x="810" 
d="M426 828q-33 0 -57 -54l-68 35q48 98 116 98q12 0 21.5 -1.5t18.5 -6t13.5 -6.5t13 -8.5t10.5 -7.5q33 -23 47 -23q35 0 58 53l68 -26q-21 -49 -51.5 -78t-64.5 -29q-36 0 -79 32q-29 22 -46 22zM737 774h104l-12 -91q-19 -143 -115 -170q11 -44 11 -93
q0 -115 -44 -211.5t-130 -156.5t-199 -60q-130 0 -207.5 79.5t-77.5 219.5q0 113 45.5 210t132 157t194.5 60q85 0 149.5 -35.5t99.5 -101.5q18 11 25.5 38.5t14.5 81.5zM361 102q103 0 172 94.5t69 220.5q0 95 -46.5 143.5t-129.5 48.5q-101 0 -168.5 -96t-67.5 -219
q0 -94 45.5 -143t125.5 -49z" />
    <glyph glyph-name="uni1EE1" unicode="&#x1ee1;" horiz-adv-x="636" 
d="M275 608q-36 0 -60 -54l-68 35q45 107 118 107q14 0 26 -3.5t17.5 -6.5t17 -11t12.5 -9q33 -23 47 -23q37 0 60 53l68 -26q-20 -55 -50.5 -85.5t-65.5 -30.5q-10 0 -19.5 2t-18.5 6.5t-14 7.5t-13.5 8.5t-10.5 7.5q-29 22 -46 22zM553 565h104l-12 -91
q-22 -161 -138 -174v-14q0 -126 -69.5 -210t-191.5 -84q-94 0 -149.5 54t-55.5 155q0 126 69.5 210t191.5 84q72 0 122.5 -32.5t70.5 -94.5q23 6 32 35t17 89zM252 92q62 0 103 54t41 129q0 67 -30.5 93.5t-69.5 26.5q-62 0 -103 -54t-41 -129q0 -67 30 -93.5t70 -26.5z" />
    <glyph glyph-name="uni1EE2" unicode="&#x1ee2;" horiz-adv-x="810" 
d="M737 774h104l-12 -91q-19 -143 -115 -170q11 -44 11 -93q0 -115 -44 -211.5t-130 -156.5t-199 -60q-130 0 -207.5 79.5t-77.5 219.5q0 113 45.5 210t132 157t194.5 60q85 0 149.5 -35.5t99.5 -101.5q18 11 25.5 38.5t14.5 81.5zM361 102q103 0 172 94.5t69 220.5
q0 95 -46.5 143.5t-129.5 48.5q-101 0 -168.5 -96t-67.5 -219q0 -94 45.5 -143t125.5 -49zM333 -80q31 0 51 -20.5t20 -50.5q0 -32 -21 -53t-53 -21q-31 0 -51.5 20t-20.5 51q0 32 21.5 53t53.5 21z" />
    <glyph glyph-name="uni1EE3" unicode="&#x1ee3;" horiz-adv-x="636" 
d="M553 565h104l-12 -91q-22 -161 -138 -174v-14q0 -126 -69.5 -210t-191.5 -84q-94 0 -149.5 54t-55.5 155q0 126 69.5 210t191.5 84q72 0 122.5 -32.5t70.5 -94.5q23 6 32 35t17 89zM252 92q62 0 103 54t41 129q0 67 -30.5 93.5t-69.5 26.5q-62 0 -103 -54t-41 -129
q0 -67 30 -93.5t70 -26.5zM224 -80q31 0 51 -20.5t20 -50.5q0 -32 -21 -53t-53 -21q-31 0 -51.5 20t-20.5 51q0 32 21.5 53t53.5 21z" />
    <glyph glyph-name="uni1EE4" unicode="&#x1ee4;" horiz-adv-x="680" 
d="M312 -8q-129 0 -185.5 84t-38.5 227l50 407h118l-50 -406q-11 -89 15 -144.5t96 -55.5q147 0 170 190l51 416h118l-51 -416q-19 -155 -91 -228.5t-202 -73.5zM293 -80q31 0 51 -20.5t20 -50.5q0 -32 -21 -53t-53 -21q-31 0 -51.5 20t-20.5 51q0 32 21.5 53t53.5 21z" />
    <glyph glyph-name="uni1EE5" unicode="&#x1ee5;" horiz-adv-x="545" 
d="M186 -8q-78 0 -110.5 47t-18.5 149l42 300h109l-39 -290q-8 -58 4.5 -82t46.5 -24q43 0 93 55.5t60 132.5l25 208h110l-60 -488h-110l11 87h-2q-63 -95 -161 -95zM228 -80q31 0 51 -20.5t20 -50.5q0 -32 -21 -53t-53 -21q-31 0 -51.5 20t-20.5 51q0 32 21.5 53t53.5 21z
" />
    <glyph glyph-name="uni1EE6" unicode="&#x1ee6;" horiz-adv-x="680" 
d="M439 775l-73 1q5 3 15 10l15 10.5t13 10t12.5 11t9.5 10.5t7 11.5t2 11.5q0 18 -24 18q-34 0 -84 -34l-17 54q56 51 135 51q33 0 54 -16t21 -48q0 -63 -86 -101zM312 -8q-129 0 -185.5 84t-38.5 227l50 407h118l-50 -406q-11 -89 15 -144.5t96 -55.5q147 0 170 190
l51 416h118l-51 -416q-19 -155 -91 -228.5t-202 -73.5z" />
    <glyph glyph-name="uni1EE7" unicode="&#x1ee7;" horiz-adv-x="545" 
d="M341 553l-73 1q29 21 51.5 46.5t22.5 44.5q0 18 -24 18q-34 0 -84 -34l-17 56q56 51 135 51q33 0 54 -16t21 -48q0 -39 -28 -72.5t-58 -46.5zM186 -8q-78 0 -110.5 47t-18.5 149l42 300h109l-39 -290q-8 -58 4.5 -82t46.5 -24q43 0 93 55.5t60 132.5l25 208h110l-60 -488
h-110l11 87h-2q-63 -95 -161 -95z" />
    <glyph glyph-name="uni1EE8" unicode="&#x1ee8;" horiz-adv-x="766" 
d="M584 908l-130 -133h-109l115 132zM723 774h104l-12 -91q-12 -88 -52.5 -131.5t-104.5 -43.5q-11 0 -26 3l-27 -217q-19 -155 -91 -228.5t-202 -73.5q-129 0 -185.5 84t-38.5 227l50 407h118l-50 -406q-11 -89 15 -144.5t96 -55.5q147 0 170 190l51 416h118l-16 -132
q5 -2 14 -2q16 0 26.5 8.5t17 29.5t9.5 37t7 50z" />
    <glyph glyph-name="uni1EE9" unicode="&#x1ee9;" horiz-adv-x="648" 
d="M490 701l-129 -145h-111l119 144zM571 565h104l-12 -91q-12 -88 -52.5 -131.5t-104.5 -43.5q-13 0 -21 2l-37 -301h-110l11 87h-2q-63 -95 -161 -95q-78 0 -110.5 47t-18.5 149l42 300h109l-39 -290q-8 -58 4.5 -82t46.5 -24q43 0 93 55.5t60 132.5l25 208h110l-15 -120
q3 -1 9 -1q16 0 26.5 8.5t17 29.5t9.5 37t7 50z" />
    <glyph glyph-name="uni1EEA" unicode="&#x1eea;" horiz-adv-x="766" 
d="M467 775h-109l-98 133l122 -1zM723 774h104l-12 -91q-12 -88 -52.5 -131.5t-104.5 -43.5q-11 0 -26 3l-27 -217q-19 -155 -91 -228.5t-202 -73.5q-129 0 -185.5 84t-38.5 227l50 407h118l-50 -406q-11 -89 15 -144.5t96 -55.5q147 0 170 190l51 416h118l-16 -132
q5 -2 14 -2q16 0 26.5 8.5t17 29.5t9.5 37t7 50z" />
    <glyph glyph-name="uni1EEB" unicode="&#x1eeb;" horiz-adv-x="648" 
d="M374 556h-111l-94 145l122 -1zM571 565h104l-12 -91q-12 -88 -52.5 -131.5t-104.5 -43.5q-13 0 -21 2l-37 -301h-110l11 87h-2q-63 -95 -161 -95q-78 0 -110.5 47t-18.5 149l42 300h109l-39 -290q-8 -58 4.5 -82t46.5 -24q43 0 93 55.5t60 132.5l25 208h110l-15 -120
q3 -1 9 -1q16 0 26.5 8.5t17 29.5t9.5 37t7 50z" />
    <glyph glyph-name="uni1EEC" unicode="&#x1eec;" horiz-adv-x="766" 
d="M416 869q-34 0 -84 -34l-17 54q56 51 135 51q33 0 54 -16t21 -48q0 -63 -86 -101l-73 1q5 3 15 10l15 10.5t13 10t12.5 11t9.5 10.5t7 11.5t2 11.5q0 18 -24 18zM723 774h104l-12 -91q-12 -88 -52.5 -131.5t-104.5 -43.5q-11 0 -26 3l-27 -217q-19 -155 -91 -228.5
t-202 -73.5q-129 0 -185.5 84t-38.5 227l50 407h118l-50 -406q-11 -89 15 -144.5t96 -55.5q147 0 170 190l51 416h118l-16 -132q5 -2 14 -2q16 0 26.5 8.5t17 29.5t9.5 37t7 50z" />
    <glyph glyph-name="uni1EED" unicode="&#x1eed;" horiz-adv-x="648" 
d="M318 663q-34 0 -84 -34l-17 56q56 51 135 51q33 0 54 -16t21 -48q0 -39 -28 -72.5t-58 -46.5l-73 1q29 21 51.5 46.5t22.5 44.5q0 18 -24 18zM571 565h104l-12 -91q-12 -88 -52.5 -131.5t-104.5 -43.5q-13 0 -21 2l-37 -301h-110l11 87h-2q-63 -95 -161 -95
q-78 0 -110.5 47t-18.5 149l42 300h109l-39 -290q-8 -58 4.5 -82t46.5 -24q43 0 93 55.5t60 132.5l25 208h110l-15 -120q3 -1 9 -1q16 0 26.5 8.5t17 29.5t9.5 37t7 50z" />
    <glyph glyph-name="uni1EEE" unicode="&#x1eee;" horiz-adv-x="766" 
d="M366 828q-33 0 -57 -54l-68 35q48 98 116 98q12 0 21.5 -1.5t18.5 -6t13.5 -6.5t13 -8.5t10.5 -7.5q33 -23 47 -23q35 0 58 53l68 -26q-21 -49 -51.5 -78t-64.5 -29q-36 0 -79 32q-29 22 -46 22zM723 774h104l-12 -91q-12 -88 -52.5 -131.5t-104.5 -43.5q-11 0 -26 3
l-27 -217q-19 -155 -91 -228.5t-202 -73.5q-129 0 -185.5 84t-38.5 227l50 407h118l-50 -406q-11 -89 15 -144.5t96 -55.5q147 0 170 190l51 416h118l-16 -132q5 -2 14 -2q16 0 26.5 8.5t17 29.5t9.5 37t7 50z" />
    <glyph glyph-name="uni1EEF" unicode="&#x1eef;" horiz-adv-x="648" 
d="M270 608q-36 0 -60 -54l-68 35q45 107 118 107q14 0 26 -3.5t17.5 -6.5t17 -11t12.5 -9q33 -23 47 -23q37 0 60 53l68 -26q-20 -55 -50.5 -85.5t-65.5 -30.5q-10 0 -19.5 2t-18.5 6.5t-14 7.5t-13.5 8.5t-10.5 7.5q-29 22 -46 22zM571 565h104l-12 -91
q-12 -88 -52.5 -131.5t-104.5 -43.5q-13 0 -21 2l-37 -301h-110l11 87h-2q-63 -95 -161 -95q-78 0 -110.5 47t-18.5 149l42 300h109l-39 -290q-8 -58 4.5 -82t46.5 -24q43 0 93 55.5t60 132.5l25 208h110l-15 -120q3 -1 9 -1q16 0 26.5 8.5t17 29.5t9.5 37t7 50z" />
    <glyph glyph-name="uni1EF0" unicode="&#x1ef0;" horiz-adv-x="766" 
d="M723 774h104l-12 -91q-12 -88 -52.5 -131.5t-104.5 -43.5q-11 0 -26 3l-27 -217q-19 -155 -91 -228.5t-202 -73.5q-129 0 -185.5 84t-38.5 227l50 407h118l-50 -406q-11 -89 15 -144.5t96 -55.5q147 0 170 190l51 416h118l-16 -132q5 -2 14 -2q16 0 26.5 8.5t17 29.5
t9.5 37t7 50zM293 -80q31 0 51 -20.5t20 -50.5q0 -32 -21 -53t-53 -21q-31 0 -51.5 20t-20.5 51q0 32 21.5 53t53.5 21z" />
    <glyph glyph-name="uni1EF1" unicode="&#x1ef1;" horiz-adv-x="648" 
d="M571 565h104l-12 -91q-12 -88 -52.5 -131.5t-104.5 -43.5q-13 0 -21 2l-37 -301h-110l11 87h-2q-63 -95 -161 -95q-78 0 -110.5 47t-18.5 149l42 300h109l-39 -290q-8 -58 4.5 -82t46.5 -24q43 0 93 55.5t60 132.5l25 208h110l-15 -120q3 -1 9 -1q16 0 26.5 8.5t17 29.5
t9.5 37t7 50zM228 -80q31 0 51 -20.5t20 -50.5q0 -32 -21 -53t-53 -21q-31 0 -51.5 20t-20.5 51q0 32 21.5 53t53.5 21z" />
    <glyph glyph-name="Ygrave" unicode="&#x1ef2;" horiz-adv-x="581" 
d="M312 775l-98 133l122 -1l85 -132h-109zM200 0l39 314l-166 396h130l106 -284h3l176 284h137l-267 -396l-40 -314h-118z" />
    <glyph glyph-name="ygrave" unicode="&#x1ef3;" horiz-adv-x="545" 
d="M373 556h-111l-94 145l122 -1zM401 488h108l-52 -427q-32 -266 -263 -266q-100 0 -178 44l49 93q60 -38 131 -38q64 0 102.5 37t50.5 138l2 17l-2 1q-64 -95 -168 -95q-153 0 -126 196l41 300h109l-38 -290q-7 -58 5 -81.5t46 -24.5q47 0 98 59t60 139z" />
    <glyph glyph-name="uni1EF4" unicode="&#x1ef4;" horiz-adv-x="581" 
d="M200 0l39 314l-166 396h130l106 -284h3l176 284h137l-267 -396l-40 -314h-118zM244 -80q31 0 51 -20.5t20 -50.5q0 -32 -21 -53t-53 -21q-31 0 -51.5 20t-20.5 51q0 32 21.5 53t53.5 21z" />
    <glyph glyph-name="uni1EF5" unicode="&#x1ef5;" horiz-adv-x="545" 
d="M401 488h108l-52 -427q-32 -266 -263 -266q-100 0 -178 44l49 93q60 -38 131 -38q64 0 102.5 37t50.5 138l2 17l-2 1q-64 -95 -168 -95q-153 0 -126 196l41 300h109l-38 -290q-7 -58 5 -81.5t46 -24.5q47 0 98 59t60 139zM214 -225q31 0 51 -20.5t20 -50.5q0 -32 -21 -53
t-53 -21q-31 0 -51.5 20t-20.5 51q0 32 21.5 53t53.5 21z" />
    <glyph glyph-name="uni1EF6" unicode="&#x1ef6;" horiz-adv-x="581" 
d="M380 775l-73 1q5 3 15 10l15 10.5t13 10t12.5 11t9.5 10.5t7 11.5t2 11.5q0 18 -24 18q-34 0 -84 -34l-17 54q56 51 135 51q33 0 54 -16t21 -48q0 -63 -86 -101zM200 0l39 314l-166 396h130l106 -284h3l176 284h137l-267 -396l-40 -314h-118z" />
    <glyph glyph-name="uni1EF7" unicode="&#x1ef7;" horiz-adv-x="545" 
d="M318 663q-34 0 -84 -34l-17 56q56 51 135 51q33 0 54 -16t21 -48q0 -39 -28 -72.5t-58 -46.5l-73 1q29 21 51.5 46.5t22.5 44.5q0 18 -24 18zM401 488h108l-52 -427q-32 -266 -263 -266q-100 0 -178 44l49 93q60 -38 131 -38q64 0 102.5 37t50.5 138l2 17l-2 1
q-64 -95 -168 -95q-153 0 -126 196l41 300h109l-38 -290q-7 -58 5 -81.5t46 -24.5q47 0 98 59t60 139z" />
    <glyph glyph-name="uni1EF8" unicode="&#x1ef8;" horiz-adv-x="581" 
d="M432 774q-36 0 -79 32q-29 22 -46 22q-33 0 -57 -54l-68 35q48 98 116 98q12 0 21.5 -1.5t18.5 -6t13.5 -6.5t13 -8.5t10.5 -7.5q33 -23 47 -23q35 0 58 53l68 -26q-21 -49 -51.5 -78t-64.5 -29zM200 0l39 314l-166 396h130l106 -284h3l176 284h137l-267 -396l-40 -314
h-118z" />
    <glyph glyph-name="uni1EF9" unicode="&#x1ef9;" horiz-adv-x="545" 
d="M270 608q-36 0 -60 -54l-68 35q45 107 118 107q14 0 26 -3.5t17.5 -6.5t17 -11t12.5 -9q33 -23 47 -23q37 0 60 53l68 -26q-20 -55 -50.5 -85.5t-65.5 -30.5q-10 0 -19.5 2t-18.5 6.5t-14 7.5t-13.5 8.5t-10.5 7.5q-29 22 -46 22zM401 488h108l-52 -427
q-32 -266 -263 -266q-100 0 -178 44l49 93q60 -38 131 -38q64 0 102.5 37t50.5 138l2 17l-2 1q-64 -95 -168 -95q-153 0 -126 196l41 300h109l-38 -290q-7 -58 5 -81.5t46 -24.5q47 0 98 59t60 139z" />
    <glyph glyph-name="uni2002" unicode="&#x2002;" horiz-adv-x="467" 
 />
    <glyph glyph-name="uni2003" unicode="&#x2003;" horiz-adv-x="934" 
 />
    <glyph glyph-name="uni2007" unicode="&#x2007;" horiz-adv-x="586" 
 />
    <glyph glyph-name="uni2009" unicode="&#x2009;" horiz-adv-x="25" 
 />
    <glyph glyph-name="uni2010" unicode="&#x2010;" horiz-adv-x="384" 
d="M57 255l13 107h273l-13 -107h-273z" />
    <glyph glyph-name="figuredash" unicode="&#x2012;" horiz-adv-x="586" 
d="M58 249l11 98h474l-12 -98h-473z" />
    <glyph glyph-name="endash" unicode="&#x2013;" horiz-adv-x="578" 
d="M57 249l11 98h468l-13 -98h-466z" />
    <glyph glyph-name="emdash" unicode="&#x2014;" horiz-adv-x="1044" 
d="M57 249l11 98h934l-12 -98h-933z" />
    <glyph glyph-name="uni2015" unicode="&#x2015;" horiz-adv-x="1204" 
d="M56 249l12 98h1094l-13 -98h-1093z" />
    <glyph glyph-name="quoteleft" unicode="&#x2018;" horiz-adv-x="210" 
d="M233 709l-59 -252h-117l89 252h87z" />
    <glyph glyph-name="quoteright" unicode="&#x2019;" horiz-adv-x="211" 
d="M60 458l59 252h117l-89 -252h-87z" />
    <glyph glyph-name="quotesinglbase" unicode="&#x201a;" horiz-adv-x="235" 
d="M-17 -132l59 252h116l-94 -252h-81z" />
    <glyph glyph-name="quotedblleft" unicode="&#x201c;" horiz-adv-x="376" 
d="M233 709l-59 -252h-117l89 252h87zM398 709l-59 -252h-117l89 252h87z" />
    <glyph glyph-name="quotedblright" unicode="&#x201d;" horiz-adv-x="377" 
d="M61 458l59 252h117l-89 -252h-87zM226 458l59 252h117l-89 -252h-87z" />
    <glyph glyph-name="quotedblbase" unicode="&#x201e;" horiz-adv-x="401" 
d="M-9 -78l59 252h117l-89 -252h-87zM156 -78l59 252h117l-89 -252h-87z" />
    <glyph glyph-name="dagger" unicode="&#x2020;" horiz-adv-x="379" 
d="M190 235l-27 57l20 129l12 110h-17l-86 -5l9 67l84 -4h16l10 97h67l-15 -97h16l86 4l-9 -67l-84 5h-17l-14 -110l-11 -129z" />
    <glyph glyph-name="daggerdbl" unicode="&#x2021;" horiz-adv-x="380" 
d="M134 55l14 96h-17l-85 -4l8 66l84 -3h18l9 71l7 91l15 91l8 68h-17l-86 -4l9 65l84 -4h17l8 98h68l-16 -98h17l86 4l-9 -65l-85 4h-16l-9 -68l-7 -91l-16 -91l-8 -71h17l86 4l-8 -66l-85 3h-17l-7 -96h-67z" />
    <glyph glyph-name="bullet" unicode="&#x2022;" horiz-adv-x="433" 
d="M223 205q-46 0 -77 31t-31 78t32 79t81 32q46 0 77 -30.5t31 -76.5q0 -49 -32.5 -81t-80.5 -32z" />
    <glyph glyph-name="ellipsis" unicode="&#x2026;" horiz-adv-x="1000" 
d="M144 -8q-31 0 -51 20.5t-20 50.5q0 32 21 53.5t53 21.5q31 0 51.5 -20.5t20.5 -51.5q0 -32 -21.5 -53t-53.5 -21zM477 -8q-31 0 -51 20.5t-20 50.5q0 32 21 53.5t53 21.5q31 0 51.5 -20.5t20.5 -51.5q0 -32 -21.5 -53t-53.5 -21zM811 -8q-31 0 -51 20.5t-20 50.5
q0 32 21 53.5t53 21.5q31 0 51.5 -20.5t20.5 -51.5q0 -32 -21.5 -53t-53.5 -21z" />
    <glyph glyph-name="perthousand" unicode="&#x2030;" horiz-adv-x="1296" 
d="M215 0l-68 57l561 645l68 -57zM230 332q-72 0 -118 43t-46 114q0 85 59 145.5t148 60.5q70 0 117 -43.5t47 -113.5q0 -84 -59.5 -145t-147.5 -61zM241 417q44 0 74 32t30 76q0 37 -23.5 60.5t-59.5 23.5q-42 0 -71.5 -32.5t-29.5 -78.5q0 -35 22.5 -58t57.5 -23zM634 -8
q-72 0 -118 43t-46 114q0 85 59 145.5t148 60.5q70 0 117 -43.5t47 -113.5q0 -84 -59.5 -145t-147.5 -61zM1046 -8q-72 0 -118 43t-46 114q0 85 59 145.5t148 60.5q70 0 117 -43.5t47 -113.5q0 -84 -59.5 -145t-147.5 -61zM645 77q44 0 74 32t30 76q0 37 -23.5 60.5
t-59.5 23.5q-42 0 -71.5 -32.5t-29.5 -78.5q0 -35 22.5 -58t57.5 -23zM1057 77q44 0 74 32t30 76q0 37 -23.5 60.5t-59.5 23.5q-42 0 -71.5 -32.5t-29.5 -78.5q0 -35 22.5 -58t57.5 -23z" />
    <glyph glyph-name="minute" unicode="&#x2032;" horiz-adv-x="259" 
d="M56 458l103 252h117l-133 -252h-87z" />
    <glyph glyph-name="second" unicode="&#x2033;" horiz-adv-x="423" 
d="M56 458l103 252h117l-133 -252h-87zM220 458l103 252h117l-133 -252h-87z" />
    <glyph glyph-name="guilsinglleft" unicode="&#x2039;" horiz-adv-x="296" 
d="M132 33l-85 213l139 217h105l-137 -217l83 -213h-105z" />
    <glyph glyph-name="guilsinglright" unicode="&#x203a;" horiz-adv-x="291" 
d="M6 33l136 213l-84 217h105l86 -217l-137 -213h-106z" />
    <glyph glyph-name="uni203D" unicode="&#x203d;" horiz-adv-x="437" 
d="M266 744q69 0 118 -41.5t49 -116.5q0 -63 -27 -111t-80 -95q-38 -35 -58.5 -59.5t-25.5 -50.5l-9 -47h-97l21 337h123l-21 -117q27 28 40 53t13 60q0 79 -74 79q-55 0 -97 -57l-74 72q33 43 86.5 68.5t112.5 25.5zM176 138q31 0 51.5 -20.5t20.5 -51.5q0 -32 -21.5 -53
t-53.5 -21q-31 0 -51 20.5t-20 50.5q0 32 21 53.5t53 21.5z" />
    <glyph glyph-name="uni2042" unicode="&#x2042;" horiz-adv-x="775" 
d="M365 387l18 109l-84 -58l-29 61l87 49l-76 51l43 61l71 -58l10 108h71l-18 -108l84 57l29 -60l-87 -50l76 -50l-43 -61l-70 58l-11 -109h-71zM134 52l18 109l-84 -58l-29 61l87 49l-76 51l43 61l71 -58l10 108h71l-18 -108l84 57l29 -60l-87 -50l76 -50l-43 -61l-70 58
l-11 -109h-71zM522 52l18 109l-84 -58l-29 61l87 49l-76 51l43 61l71 -58l10 108h71l-18 -108l84 57l29 -60l-87 -50l76 -50l-43 -61l-70 58l-11 -109h-71z" />
    <glyph glyph-name="fraction" unicode="&#x2044;" horiz-adv-x="183" 
d="M-20 -21l-86 40l369 708l87 -41z" />
    <glyph glyph-name="uni2051" unicode="&#x2051;" horiz-adv-x="387" 
d="M175 387l18 109l-83 -58l-29 61l86 49l-76 51l43 61l71 -58l10 108h71l-18 -108l84 57l30 -60l-88 -50l77 -50l-43 -61l-70 58l-11 -109h-72zM132 32l17 109l-83 -58l-29 61l87 49l-77 51l44 61l71 -58l10 109h71l-18 -109l84 57l29 -60l-87 -50l76 -50l-43 -61l-70 58
l-11 -109h-71z" />
    <glyph glyph-name="uni2070" unicode="&#x2070;" horiz-adv-x="383" 
d="M218 428q-67 0 -104 45t-37 128q0 104 49.5 179.5t135.5 75.5q67 0 104.5 -46t37.5 -126q0 -106 -50 -181t-136 -75zM221 515q43 0 67 52.5t24 117.5q0 85 -51 85q-44 0 -68 -53t-24 -118q0 -84 52 -84z" />
    <glyph glyph-name="uni2074" unicode="&#x2074;" horiz-adv-x="342" 
d="M312 585h50l-10 -80h-50l-9 -69h-92l8 69h-160l6 57l217 286h72zM150 577h86l17 142z" />
    <glyph glyph-name="uni2075" unicode="&#x2075;" horiz-adv-x="325" 
d="M340 764h-145l-12 -70q30 8 52 8q45 0 73.5 -28t28.5 -85q0 -70 -44.5 -114t-119.5 -44q-80 0 -126 38l50 80q31 -34 76 -34q33 0 50.5 20.5t17.5 48.5q0 48 -48 48q-34 0 -57 -21l-46 19l38 218h222z" />
    <glyph glyph-name="uni2076" unicode="&#x2076;" horiz-adv-x="350" 
d="M257 701q46 0 78.5 -30.5t32.5 -83.5q0 -64 -39 -109.5t-110 -45.5q-68 0 -105 46t-37 127q0 100 50.5 174t146.5 75q50 1 104 -23l-41 -75q-35 14 -65 14q-72 0 -93 -87l3 -2q35 20 75 20zM222 515q23 0 37.5 19t14.5 46q0 23 -14 35.5t-37 12.5q-33 0 -58 -28
q-1 -3 -1 -10q0 -31 16 -53t42 -22z" />
    <glyph glyph-name="uni2077" unicode="&#x2077;" horiz-adv-x="312" 
d="M102 848h253l-7 -62l-164 -350h-99l157 328h-151z" />
    <glyph glyph-name="uni2078" unicode="&#x2078;" horiz-adv-x="349" 
d="M199 430q-61 0 -96.5 27.5t-35.5 75.5q0 44 25 76.5t64 44.5v2q-22 7 -36.5 27.5t-14.5 48.5q0 57 40 89.5t105 32.5q53 0 85.5 -23.5t32.5 -67.5q0 -38 -21.5 -67.5t-53.5 -39.5v-1q29 -10 46.5 -34.5t17.5 -56.5q0 -59 -44.5 -96.5t-113.5 -37.5zM231 692q20 0 33 14
t13 36q0 40 -37 40q-20 0 -32.5 -13t-12.5 -36q0 -41 36 -41zM207 506q25 0 40.5 18t15.5 47q0 47 -45 47q-25 0 -40.5 -16.5t-16.5 -44.5q0 -23 12 -37t34 -14z" />
    <glyph glyph-name="uni2079" unicode="&#x2079;" horiz-adv-x="345" 
d="M224 853q68 0 105 -46t37 -127q0 -100 -50 -173t-147 -76q-52 -1 -105 25l41 75q35 -16 66 -16q73 0 93 88l-2 1q-33 -20 -72 -20q-49 0 -82 30.5t-33 85.5q0 63 39.5 108t109.5 45zM169 707q0 -25 14 -37.5t37 -12.5q34 0 58 28q1 3 1 10q0 31 -16 53t-41 22
q-23 0 -38 -18.5t-15 -44.5z" />
    <glyph glyph-name="uni207A" unicode="&#x207a;" horiz-adv-x="331" 
d="M340 671l-8 -75h-85l-12 -99h-80l12 99h-84l9 75h85l12 100h80l-12 -100h83z" />
    <glyph glyph-name="uni207B" unicode="&#x207b;" horiz-adv-x="337" 
d="M87 593l11 81h247l-10 -81h-248z" />
    <glyph glyph-name="uni207C" unicode="&#x207c;" horiz-adv-x="356" 
d="M106 669l9 71h248l-9 -71h-248zM86 505l9 72h248l-9 -72h-248z" />
    <glyph glyph-name="uni207D" unicode="&#x207d;" horiz-adv-x="208" 
d="M127 366q-36 96 -36 197q0 92 29 185t82 164l58 -24q-40 -59 -64.5 -147.5t-24.5 -165.5q0 -93 29 -180z" />
    <glyph glyph-name="uni207E" unicode="&#x207e;" horiz-adv-x="207" 
d="M107 370l-62 21q88 150 88 312q0 113 -30 181l69 32q41 -85 41 -201q0 -178 -106 -345z" />
    <glyph glyph-name="uni207F" unicode="&#x207f;" horiz-adv-x="341" 
d="M0 -66l36 293h85l-6 -50h2q44 54 104 54q84 0 69 -120l-24 -177h-85l23 171q7 53 -29 53q-23 0 -47 -32t-30 -82l-14 -110h-84z" />
    <glyph glyph-name="uni2080" unicode="&#x2080;" horiz-adv-x="383" 
d="M156 -74q-67 0 -104 45t-37 128q0 104 49.5 179.5t135.5 75.5q67 0 104.5 -46t37.5 -126q0 -106 -50 -181t-136 -75zM159 13q43 0 67 52.5t24 117.5q0 85 -51 85q-44 0 -68 -53t-24 -118q0 -84 52 -84z" />
    <glyph glyph-name="uni2081" unicode="&#x2081;" horiz-adv-x="271" 
d="M152 346h72l-51 -412h-92l37 294l-61 -44l-38 71z" />
    <glyph glyph-name="uni2082" unicode="&#x2082;" horiz-adv-x="320" 
d="M-9 -66l6 64l127 127q67 67 67 104q0 17 -11 27t-30 10q-32 0 -77 -35l-46 68q63 53 140 53q57 0 88 -26.5t31 -78.5q0 -82 -84 -161l-71 -67l1 -2h130l-10 -83h-261z" />
    <glyph glyph-name="uni2083" unicode="&#x2083;" horiz-adv-x="326" 
d="M117 -73q-82 0 -130 40l52 77q33 -35 74 -35q28 0 46.5 15.5t18.5 42.5q0 43 -46 43h-30l9 69h35q23 0 37 14t14 36q0 41 -45 41q-34 0 -77 -34l-42 63q63 53 141 53q52 0 81.5 -24.5t29.5 -70.5q0 -74 -60 -110v-1q49 -25 49 -85q0 -61 -43.5 -97.5t-113.5 -36.5z" />
    <glyph glyph-name="uni2084" unicode="&#x2084;" horiz-adv-x="342" 
d="M250 83h50l-10 -80h-50l-9 -69h-92l8 69h-160l6 57l217 286h72zM88 75h86l17 142z" />
    <glyph glyph-name="uni2085" unicode="&#x2085;" horiz-adv-x="325" 
d="M278 262h-145l-12 -70q30 8 52 8q45 0 73.5 -28t28.5 -85q0 -70 -44.5 -114t-119.5 -44q-80 0 -126 38l50 80q31 -34 76 -34q33 0 50.5 20.5t17.5 48.5q0 48 -48 48q-34 0 -57 -21l-46 19l38 218h222z" />
    <glyph glyph-name="uni2086" unicode="&#x2086;" horiz-adv-x="350" 
d="M195 199q46 0 78.5 -30.5t32.5 -83.5q0 -64 -39 -109.5t-110 -45.5q-68 0 -105 46t-37 127q0 100 50.5 174t146.5 75q50 1 104 -23l-41 -75q-35 14 -65 14q-72 0 -93 -87l3 -2q35 20 75 20zM160 13q23 0 37.5 19t14.5 46q0 23 -14 35.5t-37 12.5q-33 0 -58 -28
q-1 -3 -1 -10q0 -31 16 -53t42 -22z" />
    <glyph glyph-name="uni2087" unicode="&#x2087;" horiz-adv-x="312" 
d="M40 346h253l-7 -62l-164 -350h-99l157 328h-151z" />
    <glyph glyph-name="uni2088" unicode="&#x2088;" horiz-adv-x="348" 
d="M137 -72q-61 0 -96.5 27.5t-35.5 75.5q0 44 25 76.5t64 44.5v2q-22 7 -36.5 27.5t-14.5 48.5q0 57 40 89.5t105 32.5q53 0 85.5 -23.5t32.5 -67.5q0 -38 -21.5 -67.5t-53.5 -39.5v-1q29 -10 46.5 -34.5t17.5 -56.5q0 -59 -44.5 -96.5t-113.5 -37.5zM169 190q20 0 33 14
t13 36q0 40 -37 40q-20 0 -32.5 -13t-12.5 -36q0 -41 36 -41zM145 4q25 0 40.5 18t15.5 47q0 47 -45 47q-25 0 -40.5 -16.5t-16.5 -44.5q0 -23 12 -37t34 -14z" />
    <glyph glyph-name="uni2089" unicode="&#x2089;" horiz-adv-x="346" 
d="M163 351q68 0 105 -46t37 -127q0 -100 -50 -173t-147 -76q-52 -1 -105 25l41 75q35 -16 66 -16q73 0 93 88l-2 1q-33 -20 -72 -20q-49 0 -82 30.5t-33 85.5q0 63 39.5 108t109.5 45zM108 205q0 -25 14 -37.5t37 -12.5q33 0 58 28q1 3 1 10q0 31 -16 53t-41 22
q-23 0 -38 -18.5t-15 -44.5z" />
    <glyph glyph-name="uni208A" unicode="&#x208a;" horiz-adv-x="329" 
d="M278 162l-8 -75h-85l-12 -99h-80l12 99h-84l9 75h85l12 100h80l-12 -100h83z" />
    <glyph glyph-name="uni208B" unicode="&#x208b;" horiz-adv-x="339" 
d="M25 83l11 81h247l-10 -81h-248z" />
    <glyph glyph-name="uni208C" unicode="&#x208c;" horiz-adv-x="354" 
d="M44 177l9 71h248l-9 -71h-248zM24 13l9 72h248l-9 -72h-248z" />
    <glyph glyph-name="uni208D" unicode="&#x208d;" horiz-adv-x="214" 
d="M70 -138q-36 96 -36 197q0 92 29 185t82 164l58 -24q-40 -59 -64.5 -147.5t-24.5 -165.5q0 -93 29 -180z" />
    <glyph glyph-name="uni208E" unicode="&#x208e;" horiz-adv-x="212" 
d="M54 -137l-62 21q88 150 88 312q0 114 -30 181l69 32q41 -85 41 -201q0 -178 -106 -345z" />
    <glyph glyph-name="uni2090" unicode="&#x2090;" horiz-adv-x="362" 
d="M111 -71q-43 0 -72.5 31.5t-29.5 90.5q0 74 46.5 127.5t109.5 53.5q43 0 68 -25h2l3 20h76l-36 -293h-77l6 44h-3q-42 -49 -93 -49zM126 2q31 0 61.5 34t37.5 90l1 8q-14 25 -54 25q-36 0 -59.5 -34t-23.5 -74q0 -49 37 -49z" />
    <glyph glyph-name="uni2091" unicode="&#x2091;" horiz-adv-x="320" 
d="M134 0q42 0 73 29l53 -47q-27 -28 -55.5 -41t-75.5 -13q-56 0 -88 32.5t-32 89.5q0 72 45 126.5t120 54.5q42 0 68.5 -20t26.5 -55q0 -51 -50 -84t-128 -44q12 -28 43 -28zM169 163q-28 0 -49.5 -21t-29.5 -55q46 8 74.5 24.5t28.5 33.5q0 18 -24 18z" />
    <glyph glyph-name="uni2092" unicode="&#x2092;" horiz-adv-x="337" 
d="M131 -72q-56 0 -89.5 32.5t-33.5 91.5q0 73 42 125.5t117 52.5q54 0 88.5 -30.5t34.5 -91.5q0 -73 -41.5 -126.5t-117.5 -53.5zM135 0q28 0 50 30t22 72q0 30 -14 43t-31 13q-29 0 -50 -30t-21 -68q0 -26 12 -43t32 -17z" />
    <glyph glyph-name="uni2093" unicode="&#x2093;" horiz-adv-x="291" 
d="M-35 -66l112 150l-77 144h92l37 -85h2l58 85h96l-116 -147l76 -147h-89l-39 80h-1l-59 -80h-92z" />
    <glyph glyph-name="peseta" unicode="&#x20a7;" horiz-adv-x="622" 
d="M623 501l-9 -75h-67q-34 -187 -265 -187h-70l-29 -239h-115l52 426h-68l9 75h68l23 186h183q110 0 162.5 -46.5t54.5 -139.5h71zM254 582l-10 -81h188q-4 39 -30 60t-67 21h-81zM282 341q119 0 144 85h-191l-11 -85h58z" />
    <glyph glyph-name="dong" unicode="&#x20ab;" horiz-adv-x="551" 
d="M601 637l-10 -75h-53l-69 -562h-110l12 91l-3 1q-68 -100 -160 -100q-83 0 -125.5 55.5t-42.5 142.5q0 121 67.5 213t172.5 92q82 0 132 -47l3 1l14 113h-172l9 75h172l12 99h110l-12 -99h53zM400 330l3 22q-40 43 -115 43q-61 0 -99 -64t-38 -143q0 -46 20 -72.5
t58 -26.5q56 0 106.5 67t64.5 174zM19 -159l12 100h427l-12 -100h-427z" />
    <glyph glyph-name="Euro" unicode="&#x20ac;" horiz-adv-x="550" 
d="M326 99q63 0 114 41l61 -89q-81 -58 -180 -58q-97 0 -165 61.5t-82 181.5h-62l9 74h49q0 30 5 65h-46l9 74h54q35 110 115 177t190 67q98 0 168 -60l-80 -80q-36 35 -88 35q-61 0 -107 -38t-72 -101h222l-9 -74h-235q-5 -28 -7 -65h234l-9 -74h-220q11 -68 46 -102.5
t86 -34.5z" />
    <glyph glyph-name="uni20B1" unicode="&#x20b1;" horiz-adv-x="649" 
d="M618 483h-66q0 -11 -2 -33h64l-8 -71h-72q-52 -140 -252 -140h-70l-29 -239h-115l46 379h-68l8 71h69l4 33h-69l9 71h69l16 133h183q181 0 211 -133h81zM339 582h-85l-5 -38h172q-24 38 -82 38zM242 483l-4 -33h197q2 20 2 33h-195zM286 341q91 0 126 48h-182l-6 -48h62z
" />
    <glyph glyph-name="uni20B9" unicode="&#x20b9;" horiz-adv-x="500" 
d="M520 605h-142l-1 -2q32 -27 39 -76h95l-10 -82h-86q-15 -73 -74 -120t-149 -57l213 -268h-139l-215 278l11 88h73q133 0 160 79h-223l10 82h218q-6 40 -33.5 59t-90.5 19h-85l10 82h429z" />
    <glyph glyph-name="uni20BA" unicode="&#x20ba;" horiz-adv-x="587" 
d="M468 252l93 -38q-57 -117 -127.5 -165.5t-168.5 -48.5h-174l24 198l-70 -33l-24 71l105 49l8 67l-71 -33l-22 71l104 48l30 249h118l-23 -190l141 66l23 -71l-175 -82l-8 -67l141 65l23 -70l-175 -82l-19 -158h43q72 0 117.5 34.5t86.5 119.5z" />
    <glyph glyph-name="uni2113" unicode="&#x2113;" horiz-adv-x="463" 
d="M405 119l36 -25q-65 -102 -174 -102q-78 0 -120 39t-50 109q-29 -24 -55 -43l-22 31q9 8 35.5 29t39.5 32l2 264q1 118 45.5 172t119.5 54q56 0 84.5 -40t28.5 -106q0 -144 -184 -318v-21q0 -82 28.5 -115t69.5 -33q62 0 116 73zM272 622q-34 0 -58 -39t-23 -125v-188
q143 145 143 257q0 95 -62 95z" />
    <glyph glyph-name="uni2116" unicode="&#x2116;" horiz-adv-x="990" 
d="M830 412q-57 0 -90.5 32t-33.5 92q0 73 42 125.5t117 52.5q54 0 88.5 -30.5t34.5 -91.5q0 -73 -41.5 -126.5t-116.5 -53.5zM62 0l87 710h119l244 -512l3 2l63 510h118l-88 -710h-116l-247 504h-3l-62 -504h-118zM833 484q29 0 50.5 30t21.5 72q0 30 -14 43t-31 13
q-29 0 -50 -30t-21 -68q0 -26 12.5 -43t31.5 -17zM687 290l6 73h258l-7 -73h-257z" />
    <glyph glyph-name="uni2117" unicode="&#x2117;" horiz-adv-x="721" 
d="M358 2q-130 0 -221.5 93t-91.5 223q0 129 91.5 222.5t222.5 93.5q132 0 222.5 -93t90.5 -223q0 -129 -91 -222.5t-223 -93.5zM358 78q100 0 168.5 70.5t68.5 169.5q0 100 -68 170t-168 70t-168.5 -71t-68.5 -170t68 -169t168 -70zM247 158v324h123q56 0 84 -29.5
t28 -78.5q0 -52 -31.5 -79t-86.5 -27h-51v-110h-66zM314 328h41q28 0 43 13t15 34t-15 33.5t-41 12.5h-43v-93z" />
    <glyph glyph-name="trademark" unicode="&#x2122;" horiz-adv-x="635" 
d="M81 710h223l-8 -63h-76l-32 -260h-70l32 260h-77zM570 710h74l-40 -323h-69l24 193l-74 -131h-46l-43 133l-24 -195h-69l39 323h73l55 -178z" />
    <glyph glyph-name="uni2126" unicode="&#x2126;" horiz-adv-x="712" 
d="M33 0l13 106h117v1q-90 96 -90 237q0 159 94.5 266.5t241.5 107.5q120 0 194.5 -80t74.5 -202q0 -97 -40.5 -182.5t-110.5 -146.5v-1h104l-13 -106h-250l13 106q173 126 173 328q0 79 -40.5 126t-109.5 47q-94 0 -151.5 -79t-57.5 -188q0 -134 102 -234l-13 -106h-251z
" />
    <glyph glyph-name="estimated" unicode="&#x212e;" horiz-adv-x="801" 
d="M400 -10q-146 0 -244.5 93.5t-98.5 227.5q0 137 100 229t243 92q146 0 244.5 -93.5t98.5 -227.5v-9h-519v-211q65 -68 177 -68q131 0 209 84h55q-46 -54 -117 -85.5t-148 -31.5zM223 340h352v194q-68 64 -174 64q-110 0 -177 -68z" />
    <glyph glyph-name="oneeighth" unicode="&#x215b;" horiz-adv-x="807" 
d="M513 727l87 -41l-370 -707l-86 40zM218 299h-92l37 294l-61 -44l-38 71l133 91h72zM671 219q29 -10 46.5 -34.5t17.5 -56.5q0 -59 -44.5 -96.5t-113.5 -37.5q-61 0 -96.5 27.5t-35.5 75.5q0 44 25 76.5t64 44.5v2q-22 7 -36.5 27.5t-14.5 48.5q0 57 40 89.5t105 32.5
q53 0 85.5 -23.5t32.5 -67.5q0 -38 -21.5 -67.5t-53.5 -39.5v-1zM609 256q20 0 33 14t13 36q0 40 -37 40q-20 0 -32.5 -13t-12.5 -36q0 -41 36 -41zM585 70q25 0 40.5 18t15.5 47q0 47 -45 47q-25 0 -40.5 -16.5t-16.5 -44.5q0 -23 12 -37t34 -14z" />
    <glyph glyph-name="threeeighths" unicode="&#x215c;" horiz-adv-x="813" 
d="M268 -21l-86 40l369 708l87 -41zM162 292q-82 0 -130 40l52 77q33 -35 74 -35q28 0 46.5 15.5t18.5 42.5q0 43 -46 43h-30l9 69h35q23 0 37 14t14 36q0 41 -45 41q-34 0 -77 -34l-42 63q63 53 141 53q52 0 81.5 -24.5t29.5 -70.5q0 -74 -60 -110v-1q49 -25 49 -85
q0 -61 -43.5 -97.5t-113.5 -36.5zM616 -6q-61 0 -96.5 27.5t-35.5 75.5q0 44 25 76.5t64 44.5v2q-22 7 -36.5 27.5t-14.5 48.5q0 57 40 89.5t105 32.5q53 0 85.5 -23.5t32.5 -67.5q0 -38 -21.5 -67.5t-53.5 -39.5v-1q29 -10 46.5 -34.5t17.5 -56.5q0 -59 -44.5 -96.5
t-113.5 -37.5zM648 256q20 0 33 14t13 36q0 40 -37 40q-20 0 -32.5 -13t-12.5 -36q0 -41 36 -41zM624 70q25 0 40.5 18t15.5 47q0 47 -45 47q-25 0 -40.5 -16.5t-16.5 -44.5q0 -23 12 -37t34 -14z" />
    <glyph glyph-name="fiveeighths" unicode="&#x215d;" horiz-adv-x="808" 
d="M545 727l87 -41l-370 -707l-86 40zM320 452q0 -70 -44.5 -114t-119.5 -44q-80 0 -126 38l50 80q31 -34 76 -34q33 0 50.5 20.5t17.5 48.5q0 48 -48 48q-34 0 -57 -21l-46 19l38 218h222l-10 -84h-145l-12 -70q30 8 52 8q45 0 73.5 -28t28.5 -85zM704 219
q29 -10 46.5 -34.5t17.5 -56.5q0 -59 -44.5 -96.5t-113.5 -37.5q-61 0 -96.5 27.5t-35.5 75.5q0 44 25 76.5t64 44.5v2q-22 7 -36.5 27.5t-14.5 48.5q0 57 40 89.5t105 32.5q53 0 85.5 -23.5t32.5 -67.5q0 -38 -21.5 -67.5t-53.5 -39.5v-1zM642 256q20 0 33 14t13 36
q0 40 -37 40q-20 0 -32.5 -13t-12.5 -36q0 -41 36 -41zM618 70q25 0 40.5 18t15.5 47q0 47 -45 47q-25 0 -40.5 -16.5t-16.5 -44.5q0 -23 12 -37t34 -14z" />
    <glyph glyph-name="seveneighths" unicode="&#x215e;" horiz-adv-x="741" 
d="M476 727l87 -41l-370 -707l-86 40zM167 299h-99l157 328h-151l11 84h253l-7 -62zM635 219q29 -10 46.5 -34.5t17.5 -56.5q0 -59 -44.5 -96.5t-113.5 -37.5q-61 0 -96.5 27.5t-35.5 75.5q0 44 25 76.5t64 44.5v2q-22 7 -36.5 27.5t-14.5 48.5q0 57 40 89.5t105 32.5
q53 0 85.5 -23.5t32.5 -67.5q0 -38 -21.5 -67.5t-53.5 -39.5v-1zM573 256q20 0 33 14t13 36q0 40 -37 40q-20 0 -32.5 -13t-12.5 -36q0 -41 36 -41zM549 70q25 0 40.5 18t15.5 47q0 47 -45 47q-25 0 -40.5 -16.5t-16.5 -44.5q0 -23 12 -37t34 -14z" />
    <glyph glyph-name="arrowleft" unicode="&#x2190;" horiz-adv-x="883" 
d="M853 411v-112h-628l297 -299h-155l-352 355l352 355h154l-300 -299h632z" />
    <glyph glyph-name="arrowup" unicode="&#x2191;" horiz-adv-x="770" 
d="M740 485v-155l-299 297v-628h-112v632l-299 -300v154l355 352z" />
    <glyph glyph-name="arrowright" unicode="&#x2192;" horiz-adv-x="883" 
d="M516 710l352 -355l-352 -355h-155l297 299h-628v112h632l-300 299h154z" />
    <glyph glyph-name="arrowdown" unicode="&#x2193;" horiz-adv-x="770" 
d="M441 79l299 300v-154l-355 -352l-355 352v155l299 -297v628h112v-632z" />
    <glyph glyph-name="arrowboth" unicode="&#x2194;" horiz-adv-x="1288" 
d="M921 710l352 -355l-352 -355h-155l297 299h-838l297 -299h-155l-352 355l352 355h154l-300 -299h846l-300 299h154z" />
    <glyph glyph-name="arrowupdn" unicode="&#x2195;" horiz-adv-x="819" 
d="M458 -71l299 300v-154l-355 -352l-355 352v155l299 -297v838l-299 -297v155l355 352l355 -352v-154l-299 300v-846z" />
    <glyph glyph-name="uni2196" unicode="&#x2196;" horiz-adv-x="719" 
d="M693 156l-79 -79l-447 447l2 -424l-109 110v500h501l109 -109l-424 2z" />
    <glyph glyph-name="uni2197" unicode="&#x2197;" horiz-adv-x="719" 
d="M159 711h501v-500l-109 -110l2 424l-447 -447l-79 79l447 447l-424 -2z" />
    <glyph glyph-name="uni2198" unicode="&#x2198;" horiz-adv-x="719" 
d="M550 610l109 -110v-500h-501l-109 109l424 -2l-447 447l79 79l447 -447z" />
    <glyph glyph-name="uni2199" unicode="&#x2199;" horiz-adv-x="719" 
d="M693 554l-447 -447l424 2l-109 -109h-501v500l109 110l-2 -424l447 447z" />
    <glyph glyph-name="partialdiff" unicode="&#x2202;" horiz-adv-x="548" 
d="M236 -8q-83 0 -136 52.5t-53 137.5q0 113 64 186.5t162 73.5q74 0 119 -51l3 1v12q2 186 -102 186q-67 0 -133 -34l-18 94q87 44 185 44q53 0 90.5 -24.5t57 -67t27.5 -89t8 -101.5q0 -81 -16 -153.5t-48 -133.5t-86 -97t-124 -36zM247 102q48 0 81.5 46.5t50.5 122.5
q-34 70 -95 70q-57 0 -88 -38.5t-31 -95.5q0 -47 20.5 -76t61.5 -29z" />
    <glyph glyph-name="emptyset" unicode="&#x2205;" horiz-adv-x="723" 
d="M604 510q65 -84 65 -192q0 -127 -90 -219t-219 -92q-107 0 -192 67l-48 -48l-47 47l48 48q-69 87 -69 197q0 127 90 218.5t219 91.5q112 0 196 -71l44 44l47 -47zM142 317q0 -73 43 -132l308 308q-58 45 -132 45q-92 0 -155.5 -65t-63.5 -156zM360 97q92 0 155.5 65
t63.5 156q0 69 -40 127l-307 -307q57 -41 128 -41z" />
    <glyph glyph-name="uni2206" unicode="&#x2206;" horiz-adv-x="617" 
d="M10 0l11 91l283 619h123l132 -619l-12 -91h-537zM151 106h283l-84 458h-1z" />
    <glyph glyph-name="product" unicode="&#x220f;" horiz-adv-x="672" 
d="M49 -104l99 814h490l-99 -814h-118l86 708h-254l-86 -708h-118z" />
    <glyph glyph-name="summation" unicode="&#x2211;" horiz-adv-x="574" 
d="M15 -80l9 84l237 312l-158 308l9 86h468l-13 -106h-313v-2l141 -286l-209 -288v-2h310l-13 -106h-468z" />
    <glyph glyph-name="minus" unicode="&#x2212;" horiz-adv-x="532" 
d="M51 227l12 100h427l-12 -100h-427z" />
    <glyph glyph-name="radical" unicode="&#x221a;" horiz-adv-x="653" 
d="M258 0l-90 500h-103l12 96h197l69 -434h2l356 660h86l-452 -822h-77z" />
    <glyph glyph-name="infinity" unicode="&#x221e;" horiz-adv-x="724" 
d="M531 445q60 0 98 -42t38 -106q0 -76 -49 -131.5t-119 -55.5q-86 0 -140 97q-81 -97 -159 -97q-60 0 -97.5 41.5t-37.5 105.5q0 76 49 132t118 56q85 0 139 -98q85 98 160 98zM209 196q47 0 105 85q-19 38 -36 57.5t-40 19.5q-37 0 -60.5 -30.5t-23.5 -69.5
q0 -29 15 -45.5t40 -16.5zM496 196q32 0 56 28.5t24 71.5q0 28 -14.5 45t-37.5 17q-49 0 -107 -85q37 -77 79 -77z" />
    <glyph glyph-name="integral" unicode="&#x222b;" horiz-adv-x="294" 
d="M-1 -170q-30 -3 -76 3l12 84h8q47 0 59.5 19t23.5 89l80 532q11 67 46 103.5t84 38.5q25 1 46 -1.5t34 -5.5t16 -3l-12 -78h-30q-46 0 -58.5 -18t-23.5 -91l-81 -532q-9 -65 -43.5 -101t-84.5 -39z" />
    <glyph glyph-name="uni2236" unicode="&#x2236;" horiz-adv-x="276" 
d="M169 407q-31 0 -51 20.5t-20 50.5q0 32 21 53.5t53 21.5q31 0 51.5 -20.5t20.5 -51.5q0 -32 -21.5 -53t-53.5 -21zM123 50q-31 0 -51 20.5t-20 50.5q0 32 21 53.5t53 21.5q31 0 51.5 -20.5t20.5 -51.5q0 -32 -21.5 -53t-53.5 -21z" />
    <glyph glyph-name="approxequal" unicode="&#x2248;" horiz-adv-x="551" 
d="M391 314q-32 0 -87.5 24.5t-89.5 24.5q-53 0 -112 -41l-27 80q16 18 55 38.5t77 20.5q39 0 93 -24.5t82 -24.5q51 0 101 46l28 -81q-54 -63 -120 -63zM364 94q-32 0 -87.5 24.5t-88.5 24.5q-58 0 -113 -41l-27 79q16 18 55 39t76 21q39 0 93.5 -25t82.5 -25q49 0 101 46
l27 -81q-53 -62 -119 -62z" />
    <glyph glyph-name="notequal" unicode="&#x2260;" horiz-adv-x="558" 
d="M523 341h-171l-69 -128h221l-12 -100h-264l-61 -113l-72 29l46 84h-76l12 100h118l70 128h-169l12 100h211l66 121l71 -30l-49 -91h128z" />
    <glyph glyph-name="lessequal" unicode="&#x2264;" horiz-adv-x="549" 
d="M471 158l-393 201l9 82l443 205l-13 -110l-283 -135l249 -135zM33 0l12 101h418l-12 -101h-418z" />
    <glyph glyph-name="greaterequal" unicode="&#x2265;" horiz-adv-x="555" 
d="M67 159l12 108l284 135l-250 135l13 110l393 -205l-9 -82zM47 0l12 100h418l-12 -100h-418z" />
    <glyph glyph-name="filledbox" unicode="&#x25a0;" horiz-adv-x="643" 
d="M45 0v551h552v-551h-552z" />
    <glyph glyph-name="uni25A1" unicode="&#x25a1;" horiz-adv-x="643" 
d="M45 0v551h552v-551h-552zM135 90h371v371h-371v-371z" />
    <glyph glyph-name="triagup" unicode="&#x25b2;" horiz-adv-x="642" 
d="M7 0l314 580l313 -580h-627z" />
    <glyph glyph-name="uni25B3" unicode="&#x25b3;" horiz-adv-x="642" 
d="M7 0l314 580l313 -580h-627zM158 90h325l-162 301z" />
    <glyph glyph-name="uni25B6" unicode="&#x25b6;" horiz-adv-x="637" 
d="M50 -38v627l579 -314z" />
    <glyph glyph-name="uni25B7" unicode="&#x25b7;" horiz-adv-x="637" 
d="M50 -38v627l579 -314zM140 113l300 162l-300 163v-325z" />
    <glyph glyph-name="triagdn" unicode="&#x25bc;" horiz-adv-x="642" 
d="M321 -28l-314 579h627z" />
    <glyph glyph-name="uni25BD" unicode="&#x25bd;" horiz-adv-x="642" 
d="M321 -28l-314 579h627zM321 161l162 300h-325z" />
    <glyph glyph-name="uni25C0" unicode="&#x25c0;" horiz-adv-x="637" 
d="M587 -38l-580 313l580 314v-627z" />
    <glyph glyph-name="uni25C1" unicode="&#x25c1;" horiz-adv-x="637" 
d="M587 -38l-580 313l580 314v-627zM497 113v325l-301 -163z" />
    <glyph glyph-name="uni25C6" unicode="&#x25c6;" horiz-adv-x="693" 
d="M347 -64l-340 339l340 340l339 -340z" />
    <glyph glyph-name="uni25C7" unicode="&#x25c7;" horiz-adv-x="693" 
d="M347 -64l-340 339l340 340l339 -340zM347 63l212 212l-212 213l-213 -213z" />
    <glyph glyph-name="lozenge" unicode="&#x25ca;" horiz-adv-x="466" 
d="M201 0l-146 338l226 339l154 -339zM220 174l98 164l-54 168l-96 -168z" />
    <glyph glyph-name="circle" unicode="&#x25cb;" horiz-adv-x="646" 
d="M323 -8q-117 0 -199.5 83t-82.5 200q0 118 82.5 201t199.5 83q116 0 198.5 -83t82.5 -201q0 -117 -82.5 -200t-198.5 -83zM323 86q77 0 132.5 55.5t55.5 133.5q0 79 -55.5 134.5t-132.5 55.5q-78 0 -133 -55.5t-55 -134.5q0 -78 55 -133.5t133 -55.5z" />
    <glyph glyph-name="uni25CF" unicode="&#x25cf;" horiz-adv-x="646" 
d="M323 -8q-117 0 -199.5 83t-82.5 200q0 118 82.5 201t199.5 83q116 0 198.5 -83t82.5 -201q0 -117 -82.5 -200t-198.5 -83z" />
    <glyph glyph-name="uni2605" unicode="&#x2605;" horiz-adv-x="756" 
d="M150 -37l87 267l-228 167h282l86 268l88 -268h282l-229 -167l88 -267l-229 165z" />
    <glyph glyph-name="uni2606" unicode="&#x2606;" horiz-adv-x="756" 
d="M150 -37l87 267l-228 167h282l86 268l88 -268h282l-229 -167l88 -267l-229 165zM281 137l96 71l98 -71l-37 113l100 73h-122l-38 114l-37 -114h-123l99 -73z" />
    <glyph glyph-name="uni2610" unicode="&#x2610;" horiz-adv-x="739" 
d="M45 0v551h552v-551h-552zM135 90h371v371h-371v-371z" />
    <glyph glyph-name="uni2713" unicode="&#x2713;" horiz-adv-x="606" 
d="M634 704l63 -56l-519 -571l-171 201l71 62l109 -130z" />
    <glyph glyph-name="uni2715" unicode="&#x2715;" horiz-adv-x="606" 
d="M149 67l-54 61l125 113l-100 113l69 60l98 -112l126 113l55 -61l-126 -115l100 -112l-68 -60l-99 111z" />
    <glyph glyph-name="uni2780" unicode="&#x2780;" horiz-adv-x="764" 
d="M432 707q136 0 227.5 -92.5t91.5 -229.5q0 -162 -116 -280t-281 -118q-136 0 -226.5 92t-90.5 229q0 160 118.5 279.5t276.5 119.5zM356 74q129 0 219 93.5t90 219.5q0 100 -67 166.5t-167 66.5q-123 0 -215.5 -94.5t-92.5 -219.5q0 -100 66.5 -166t166.5 -66zM277 464
l133 91h72l-51 -412h-92l37 294l-61 -44z" />
    <glyph glyph-name="uni2781" unicode="&#x2781;" horiz-adv-x="764" 
d="M354 -13q-136 0 -226.5 92t-90.5 229q0 160 118.5 279.5t276.5 119.5q136 0 227.5 -92.5t91.5 -229.5q0 -162 -116 -280t-281 -118zM356 74q129 0 219 93.5t90 219.5q0 100 -67 166.5t-167 66.5q-123 0 -215.5 -94.5t-92.5 -219.5q0 -100 66.5 -166t166.5 -66zM247 143
l6 64l127 127q67 67 67 104q0 17 -11 27t-30 10q-32 0 -77 -35l-46 68q63 53 140 53q57 0 88 -26.5t31 -78.5q0 -82 -84 -161l-71 -67l1 -2h130l-10 -83h-261z" />
    <glyph glyph-name="uni2782" unicode="&#x2782;" horiz-adv-x="764" 
d="M354 -13q-136 0 -226.5 92t-90.5 229q0 160 118.5 279.5t276.5 119.5q136 0 227.5 -92.5t91.5 -229.5q0 -162 -116 -280t-281 -118zM356 74q129 0 219 93.5t90 219.5q0 100 -67 166.5t-167 66.5q-123 0 -215.5 -94.5t-92.5 -219.5q0 -100 66.5 -166t166.5 -66zM371 136
q-82 0 -130 40l52 77q33 -35 74 -35q28 0 46.5 15.5t18.5 42.5q0 43 -46 43h-30l9 69h35q23 0 37 14t14 36q0 41 -45 41q-34 0 -77 -34l-42 63q63 53 141 53q52 0 81.5 -24.5t29.5 -70.5q0 -74 -60 -110v-1q49 -25 49 -85q0 -61 -43.5 -97.5t-113.5 -36.5z" />
    <glyph glyph-name="uni2783" unicode="&#x2783;" horiz-adv-x="764" 
d="M432 707q136 0 227.5 -92.5t91.5 -229.5q0 -162 -116 -280t-281 -118q-136 0 -226.5 92t-90.5 229q0 160 118.5 279.5t276.5 119.5zM356 74q129 0 219 93.5t90 219.5q0 100 -67 166.5t-167 66.5q-123 0 -215.5 -94.5t-92.5 -219.5q0 -100 66.5 -166t166.5 -66zM512 555
l-32 -263h50l-10 -80h-50l-9 -69h-92l8 69h-160l6 57l217 286h72zM318 284h86l17 142z" />
    <glyph glyph-name="uni2784" unicode="&#x2784;" horiz-adv-x="764" 
d="M432 707q136 0 227.5 -92.5t91.5 -229.5q0 -162 -116 -280t-281 -118q-136 0 -226.5 92t-90.5 229q0 160 118.5 279.5t276.5 119.5zM356 74q129 0 219 93.5t90 219.5q0 100 -67 166.5t-167 66.5q-123 0 -215.5 -94.5t-92.5 -219.5q0 -100 66.5 -166t166.5 -66zM284 337
l38 218h222l-10 -84h-145l-12 -70q30 8 52 8q45 0 73.5 -28t28.5 -85q0 -70 -44.5 -114t-119.5 -44q-80 0 -126 38l50 80q31 -34 76 -34q33 0 50.5 20.5t17.5 48.5q0 48 -48 48q-34 0 -57 -21z" />
    <glyph glyph-name="uni2785" unicode="&#x2785;" horiz-adv-x="764" 
d="M432 707q136 0 227.5 -92.5t91.5 -229.5q0 -162 -116 -280t-281 -118q-136 0 -226.5 92t-90.5 229q0 160 118.5 279.5t276.5 119.5zM356 74q129 0 219 93.5t90 219.5q0 100 -67 166.5t-167 66.5q-123 0 -215.5 -94.5t-92.5 -219.5q0 -100 66.5 -166t166.5 -66zM434 476
q-72 0 -93 -87l3 -2q35 20 75 20q46 0 78.5 -30.5t32.5 -83.5q0 -64 -39 -109.5t-110 -45.5q-68 0 -105 46t-37 127q0 100 50.5 174t146.5 75q50 1 104 -23l-41 -75q-35 14 -65 14zM436 286q0 23 -14 35.5t-37 12.5q-33 0 -58 -28q-1 -3 -1 -10q0 -31 16 -53t42 -22
q23 0 37.5 19t14.5 46z" />
    <glyph glyph-name="uni2786" unicode="&#x2786;" horiz-adv-x="764" 
d="M432 707q136 0 227.5 -92.5t91.5 -229.5q0 -162 -116 -280t-281 -118q-136 0 -226.5 92t-90.5 229q0 160 118.5 279.5t276.5 119.5zM356 74q129 0 219 93.5t90 219.5q0 100 -67 166.5t-167 66.5q-123 0 -215.5 -94.5t-92.5 -219.5q0 -100 66.5 -166t166.5 -66zM297 471
l11 84h253l-7 -62l-164 -350h-99l157 328h-151z" />
    <glyph glyph-name="uni2787" unicode="&#x2787;" horiz-adv-x="764" 
d="M354 -13q-136 0 -226.5 92t-90.5 229q0 160 118.5 279.5t276.5 119.5q136 0 227.5 -92.5t91.5 -229.5q0 -162 -116 -280t-281 -118zM356 74q129 0 219 93.5t90 219.5q0 100 -67 166.5t-167 66.5q-123 0 -215.5 -94.5t-92.5 -219.5q0 -100 66.5 -166t166.5 -66zM377 137
q-61 0 -96.5 27.5t-35.5 75.5q0 44 25 76.5t64 44.5v2q-22 7 -36.5 27.5t-14.5 48.5q0 57 40 89.5t105 32.5q53 0 85.5 -23.5t32.5 -67.5q0 -38 -21.5 -67.5t-53.5 -39.5v-1q29 -10 46.5 -34.5t17.5 -56.5q0 -59 -44.5 -96.5t-113.5 -37.5zM409 399q20 0 33 14t13 36
q0 40 -37 40q-20 0 -32.5 -13t-12.5 -36q0 -41 36 -41zM385 213q25 0 40.5 18t15.5 47q0 47 -45 47q-25 0 -40.5 -16.5t-16.5 -44.5q0 -23 12 -37t34 -14z" />
    <glyph glyph-name="uni2788" unicode="&#x2788;" horiz-adv-x="764" 
d="M432 707q136 0 227.5 -92.5t91.5 -229.5q0 -162 -116 -280t-281 -118q-136 0 -226.5 92t-90.5 229q0 160 118.5 279.5t276.5 119.5zM356 74q129 0 219 93.5t90 219.5q0 100 -67 166.5t-167 66.5q-123 0 -215.5 -94.5t-92.5 -219.5q0 -100 66.5 -166t166.5 -66zM414 560
q68 0 105 -46t37 -127q0 -100 -50 -173t-147 -76q-52 -1 -105 25l41 75q35 -16 66 -16q73 0 93 88l-2 1q-33 -20 -72 -20q-49 0 -82 30.5t-33 85.5q0 63 39.5 108t109.5 45zM359 414q0 -25 14 -37.5t37 -12.5q33 0 58 28q1 3 1 10q0 31 -16 53t-41 22q-23 0 -38 -18.5
t-15 -44.5z" />
    <glyph glyph-name="uni278A" unicode="&#x278a;" horiz-adv-x="764" 
d="M354 -13q-136 0 -226.5 92t-90.5 229q0 160 118.5 279.5t276.5 119.5q136 0 227.5 -92.5t91.5 -229.5q0 -162 -116 -280t-281 -118zM339 143h92l50 412h-71l-134 -91l38 -71l62 44z" />
    <glyph glyph-name="uni278B" unicode="&#x278b;" horiz-adv-x="764" 
d="M354 -13q-136 0 -226.5 92t-90.5 229q0 160 118.5 279.5t276.5 119.5q136 0 227.5 -92.5t91.5 -229.5q0 -162 -116 -280t-281 -118zM247 143h261l10 83h-130l-1 2l71 67q84 79 84 161q0 52 -31 78.5t-88 26.5q-77 0 -140 -53l46 -68q45 35 77 35q19 0 30 -10t11 -27
q0 -37 -67 -104l-127 -127z" />
    <glyph glyph-name="uni278C" unicode="&#x278c;" horiz-adv-x="764" 
d="M354 -13q-136 0 -226.5 92t-90.5 229q0 160 118.5 279.5t276.5 119.5q136 0 227.5 -92.5t91.5 -229.5q0 -162 -116 -280t-281 -118zM371 136q70 0 113.5 36.5t43.5 97.5q0 60 -49 85v1q60 36 60 110q0 46 -29.5 70.5t-81.5 24.5q-78 0 -141 -53l42 -63q43 34 77 34
q45 0 45 -41q0 -22 -14 -36t-37 -14h-35l-9 -69h30q46 0 46 -43q0 -27 -18.5 -42.5t-46.5 -15.5q-41 0 -74 35l-52 -77q48 -40 130 -40z" />
    <glyph glyph-name="uni278D" unicode="&#x278d;" horiz-adv-x="764" 
d="M354 -13q-136 0 -226.5 92t-90.5 229q0 160 118.5 279.5t276.5 119.5q136 0 227.5 -92.5t91.5 -229.5q0 -162 -116 -280t-281 -118zM369 143h92l9 69h50l10 80h-50l32 263h-72l-217 -286l-6 -57h160zM318 284l103 142l-17 -142h-86z" />
    <glyph glyph-name="uni278E" unicode="&#x278e;" horiz-adv-x="764" 
d="M354 -13q-136 0 -226.5 92t-90.5 229q0 160 118.5 279.5t276.5 119.5q136 0 227.5 -92.5t91.5 -229.5q0 -162 -116 -280t-281 -118zM367 138q75 0 119.5 44t44.5 114q0 57 -28.5 85t-73.5 28q-22 0 -52 -8l12 70h145l10 84h-222l-38 -218l46 -19q23 21 57 21q48 0 48 -48
q0 -28 -17.5 -48.5t-50.5 -20.5q-45 0 -76 34l-50 -80q46 -38 126 -38z" />
    <glyph glyph-name="uni278F" unicode="&#x278f;" horiz-adv-x="764" 
d="M354 -13q-136 0 -226.5 92t-90.5 229q0 160 118.5 279.5t276.5 119.5q136 0 227.5 -92.5t91.5 -229.5q0 -162 -116 -280t-281 -118zM381 138q71 0 110 45.5t39 109.5q0 53 -32.5 83.5t-78.5 30.5q-40 0 -75 -20l-3 2q21 87 93 87q30 0 65 -14l41 75q-54 24 -104 23
q-96 -1 -146.5 -75t-50.5 -174q0 -81 37 -127t105 -46zM384 221q-29 0 -45 27t-12 58q25 28 58 28q23 0 37 -12.5t14 -35.5q0 -27 -14.5 -46t-37.5 -19z" />
    <glyph glyph-name="uni2790" unicode="&#x2790;" horiz-adv-x="764" 
d="M354 -13q-136 0 -226.5 92t-90.5 229q0 160 118.5 279.5t276.5 119.5q136 0 227.5 -92.5t91.5 -229.5q0 -162 -116 -280t-281 -118zM291 143h99l164 350l7 62h-253l-11 -84h151z" />
    <glyph glyph-name="uni2791" unicode="&#x2791;" horiz-adv-x="764" 
d="M354 -13q-136 0 -226.5 92t-90.5 229q0 160 118.5 279.5t276.5 119.5q136 0 227.5 -92.5t91.5 -229.5q0 -162 -116 -280t-281 -118zM377 137q69 0 113.5 37.5t44.5 96.5q0 32 -17.5 56.5t-46.5 34.5v1q32 10 53.5 39.5t21.5 67.5q0 44 -32.5 67.5t-85.5 23.5
q-65 0 -105 -32.5t-40 -89.5q0 -28 14.5 -48.5t36.5 -27.5v-2q-39 -12 -64 -44.5t-25 -76.5q0 -48 35.5 -75.5t96.5 -27.5zM409 399q-36 0 -36 41q0 23 12.5 36t32.5 13q37 0 37 -40q0 -22 -13 -36t-33 -14zM385 213q-22 0 -34 14t-12 37q1 28 16.5 44.5t40.5 16.5
q45 0 45 -47q0 -29 -15.5 -47t-40.5 -18z" />
    <glyph glyph-name="uni2792" unicode="&#x2792;" horiz-adv-x="764" 
d="M354 -13q-136 0 -226.5 92t-90.5 229q0 160 118.5 279.5t276.5 119.5q136 0 227.5 -92.5t91.5 -229.5q0 -162 -116 -280t-281 -118zM359 138q97 3 147 76t50 173q0 81 -37 127t-105 46q-70 0 -109.5 -45t-39.5 -108q0 -55 33 -85.5t82 -30.5q39 0 72 20l2 -1
q-20 -88 -93 -88q-31 0 -66 16l-41 -75q53 -26 105 -25zM410 364q-23 0 -37 12.5t-14 37.5q0 26 15 44.5t38 18.5q28 0 42.5 -23t13.5 -62q-25 -28 -58 -28z" />
    <glyph glyph-name="uni2E18" unicode="&#x2e18;" horiz-adv-x="420" 
d="M260 350q-31 0 -51.5 20.5t-20.5 51.5q0 32 21.5 53t53.5 21q31 0 51 -20.5t20 -50.5q0 -32 -21 -53.5t-53 -21.5zM295 -90l74 -72q-33 -43 -86.5 -68.5t-112.5 -25.5q-69 0 -118 41.5t-49 116.5q0 63 27 111t80 95q38 35 58.5 59.5t25.5 50.5l9 47h97l-21 -337h-123
l21 117q-27 -28 -40 -53t-13 -60q0 -79 74 -79q55 0 97 57z" />
    <glyph glyph-name="u1F10B" unicode="&#x1f10b;" horiz-adv-x="764" 
d="M354 -13q-136 0 -226.5 92t-90.5 229q0 160 118.5 279.5t276.5 119.5q136 0 227.5 -92.5t91.5 -229.5q0 -162 -116 -280t-281 -118zM356 74q129 0 219 93.5t90 219.5q0 100 -67 166.5t-167 66.5q-123 0 -215.5 -94.5t-92.5 -219.5q0 -100 66.5 -166t166.5 -66zM373 135
q-67 0 -104 45t-37 128q0 104 49.5 179.5t135.5 75.5q67 0 104.5 -46t37.5 -126q0 -106 -50 -181t-136 -75zM376 222q43 0 67 52.5t24 117.5q0 85 -51 85q-44 0 -68 -53t-24 -118q0 -84 52 -84z" />
    <glyph glyph-name="u1F10C" unicode="&#x1f10c;" horiz-adv-x="764" 
d="M354 -13q-136 0 -226.5 92t-90.5 229q0 160 118.5 279.5t276.5 119.5q136 0 227.5 -92.5t91.5 -229.5q0 -162 -116 -280t-281 -118zM373 135q86 0 136 75t50 181q0 80 -37.5 126t-104.5 46q-86 0 -135.5 -75.5t-49.5 -179.5q0 -83 37 -128t104 -45zM376 222q-52 0 -52 84
q0 65 24 118t68 53q51 0 51 -85q0 -65 -24 -117.5t-67 -52.5z" />
    <glyph glyph-name="uni00A40301" horiz-adv-x="510" 
d="M379 775l115 132l124 1l-130 -133h-109zM202 -8q-62 0 -115.5 24t-80.5 66l76 91q16 -27 48 -48t69 -21q95 0 115 159l55 447h119l-56 -453q-16 -132 -71 -198.5t-159 -66.5z" />
    <glyph glyph-name="i.loclTRK" horiz-adv-x="258" 
d="M180 562q-31 0 -51 20.5t-20 50.5q0 32 21 53t53 21q31 0 51.5 -20t20.5 -51q0 -32 -21.5 -53t-53.5 -21zM44 0l60 488h110l-60 -488h-110z" />
    <glyph glyph-name="uni006A0301" horiz-adv-x="240" 
d="M101 556l119 144l121 1l-129 -145h-111zM-19 -205q-44 0 -82 23l28 86q19 -15 41 -15q26 0 40 20.5t19 69.5l63 509h110l-65 -524q-20 -169 -154 -169z" />
    <glyph glyph-name="f.calt" horiz-adv-x="368" 
d="M72 0l48 395h-75l11 93h76l10 82q11 89 57.5 131.5t115.5 42.5q39 0 78 -13l-34 -93q-15 6 -32 6q-26 0 -48.5 -18.5t-28.5 -67.5l-9 -70h115l-11 -93h-115l-48 -395h-110z" />
    <glyph glyph-name="germandbls.calt" horiz-adv-x="731" 
d="M524 405q10 -6 33.5 -19t33.5 -19t29.5 -19t28.5 -22t22 -23.5t19 -29t10.5 -33.5t4.5 -41q0 -96 -65.5 -151.5t-169.5 -55.5q-67 0 -126 24.5t-91 74.5l79 87q21 -36 61 -57.5t79 -21.5q52 0 80.5 28.5t28.5 69.5q0 17 -7 31.5t-13.5 23.5t-26.5 21.5t-27 16l-33 16.5
q-65 32 -98 52l148 235l-1 5q-85 11 -133 11q-77 0 -117.5 -31t-49.5 -105l-59 -473h-117l59 479q15 123 88 181t189 58q123 0 313 -47z" />
    <glyph glyph-name="zero.tf" horiz-adv-x="586" 
d="M266 -8q-97 0 -152 68.5t-55 197.5q0 114 31.5 211t99.5 161t159 64q96 0 149 -67.5t53 -197.5q0 -115 -32 -213t-98 -161t-155 -63zM267 98q56 0 96 53.5t56.5 127t16.5 156.5q0 154 -95 154q-56 0 -95 -54.5t-55.5 -128.5t-16.5 -154q0 -76 24 -115t69 -39z" />
    <glyph glyph-name="one.tf" horiz-adv-x="586" 
d="M368 104h114l-13 -104h-363l13 104h135l54 435l-130 -84l-54 87l226 145h89z" />
    <glyph glyph-name="two.tf" horiz-adv-x="586" 
d="M65 0l7 76l229 232q114 116 114 200q0 36 -19.5 58t-57.5 22q-72 0 -146 -68l-62 85q93 89 217 89q82 0 133 -47t51 -130q0 -134 -134 -263l-154 -148v-2h246l-14 -104h-410z" />
    <glyph glyph-name="three.tf" horiz-adv-x="586" 
d="M270 -8q-63 0 -119.5 22.5t-91.5 63.5l69 88q24 -33 63 -50.5t80 -17.5q59 0 93 35.5t34 92.5q0 80 -92 80h-66l12 96h58q52 0 82 37.5t30 80.5q0 69 -81 69q-65 0 -136 -59l-64 83q90 81 211 81q83 0 133.5 -41t50.5 -118q0 -58 -27.5 -105t-75.5 -73v-1q81 -40 81 -143
q0 -99 -67.5 -160t-176.5 -61z" />
    <glyph glyph-name="four.tf" horiz-adv-x="586" 
d="M440 233h90l-13 -101h-90l-16 -132h-113l16 132h-273l9 78l356 477h89zM177 225h156l32 255z" />
    <glyph glyph-name="five.tf" horiz-adv-x="586" 
d="M524 583h-249l-27 -157q54 14 99 14q77 0 121.5 -48t44.5 -139q0 -118 -70.5 -189.5t-180.5 -71.5q-62 0 -118 22.5t-91 63.5l69 88q24 -33 62.5 -50.5t77.5 -17.5q60 0 98 42t38 105q0 98 -102 98q-52 0 -115 -38l-59 29l64 353h352z" />
    <glyph glyph-name="six.tf" horiz-adv-x="586" 
d="M363 438q76 0 124 -48t48 -141q0 -109 -68.5 -183t-180.5 -74q-99 0 -153 66.5t-54 191.5q0 67 11 129.5t36.5 120.5t62 101t91.5 68.5t122 25.5q92 0 137 -23l-54 -101q-39 19 -85 19q-83 0 -132.5 -59t-67.5 -154l3 -1q74 62 160 62zM291 98q56 0 92.5 41.5t36.5 103.5
q0 92 -85 92q-83 0 -144 -72q0 -165 100 -165z" />
    <glyph glyph-name="seven.tf" horiz-adv-x="586" 
d="M119 0l279 583h-273l13 104h403l-8 -76l-288 -611h-126z" />
    <glyph glyph-name="eight.tf" horiz-adv-x="586" 
d="M268 -7q-99 0 -153.5 46t-54.5 132q0 72 36.5 124.5t92.5 76.5v2q-63 37 -63 129q0 87 62 139t155 52q84 0 132 -43t49 -117q0 -60 -29.5 -103t-65.5 -59v-2q88 -40 88 -151q0 -103 -68.5 -164.5t-180.5 -61.5zM317 417q41 0 69 27.5t28 68.5q0 37 -22 58t-57 21
q-41 1 -70 -27.5t-29 -69.5q0 -36 22.5 -57t58.5 -21zM280 94q54 0 87 34t34 86q0 48 -26 75.5t-76 27.5q-55 0 -89.5 -35t-34.5 -88q0 -47 28 -73.5t77 -26.5z" />
    <glyph glyph-name="nine.tf" horiz-adv-x="586" 
d="M336 695q99 0 153 -66.5t54 -191.5q0 -67 -11 -129.5t-36.5 -120.5t-62 -101t-91.5 -68.5t-122 -25.5q-94 0 -144 31l54 101q44 -27 92 -27q84 0 133.5 59t66.5 154l-2 1q-74 -62 -161 -62q-76 0 -124 48t-48 141q0 109 68.5 183t180.5 74zM202 444q0 -92 85 -92
q83 0 144 72q0 165 -100 165q-56 0 -92.5 -41.5t-36.5 -103.5z" />
    <glyph glyph-name="zero.tf.zero" horiz-adv-x="586" 
d="M266 -8q-97 0 -152 68.5t-55 197.5q0 114 31.5 211t99.5 161t159 64q96 0 149 -67.5t53 -197.5q0 -115 -32 -213t-98 -161t-155 -63zM267 98q56 0 96 53.5t56.5 127t16.5 156.5q0 154 -95 154q-56 0 -95 -54.5t-55.5 -128.5t-16.5 -154q0 -76 24 -115t69 -39zM308 272
q-28 0 -46 18.5t-18 45.5q0 29 19 48t47 19t46.5 -18.5t18.5 -46.5t-19.5 -47t-47.5 -19z" />
    <glyph glyph-name="zero.zero" horiz-adv-x="592" 
d="M269 -8q-97 0 -152 68.5t-55 197.5q0 114 31.5 211t99.5 161t159 64q96 0 149 -67.5t53 -197.5q0 -115 -32 -213t-98 -161t-155 -63zM270 98q56 0 96 53.5t56.5 127t16.5 156.5q0 154 -95 154q-56 0 -95 -54.5t-55.5 -128.5t-16.5 -154q0 -76 24 -115t69 -39zM311 272
q-28 0 -46 18.5t-18 45.5q0 29 19 48t47 19t46.5 -18.5t18.5 -46.5t-19.5 -47t-47.5 -19z" />
    <glyph glyph-name="zero.dnom" horiz-adv-x="382" 
d="M164 -8q-67 0 -104 45t-37 128q0 104 49.5 179.5t135.5 75.5q67 0 104.5 -46t37.5 -126q0 -106 -50 -181t-136 -75zM167 79q43 0 67 52.5t24 117.5q0 85 -51 85q-44 0 -68 -53t-24 -118q0 -84 52 -84z" />
    <glyph glyph-name="one.dnom" horiz-adv-x="272" 
d="M161 412h72l-51 -412h-92l37 294l-61 -44l-38 71z" />
    <glyph glyph-name="two.dnom" horiz-adv-x="320" 
d="M-1 0l6 64l127 127q67 67 67 104q0 17 -11 27t-30 10q-32 0 -77 -35l-46 68q63 53 140 53q57 0 88 -26.5t31 -78.5q0 -82 -84 -161l-71 -67l1 -2h130l-10 -83h-261z" />
    <glyph glyph-name="three.dnom" horiz-adv-x="325" 
d="M125 -7q-82 0 -130 40l52 77q33 -35 74 -35q28 0 46.5 15.5t18.5 42.5q0 43 -46 43h-30l9 69h35q23 0 37 14t14 36q0 41 -45 41q-34 0 -77 -34l-42 63q63 53 141 53q52 0 81.5 -24.5t29.5 -70.5q0 -74 -60 -110v-1q49 -25 49 -85q0 -61 -43.5 -97.5t-113.5 -36.5z" />
    <glyph glyph-name="four.dnom" horiz-adv-x="343" 
d="M259 149h50l-10 -80h-50l-9 -69h-92l8 69h-160l6 57l217 286h72zM97 141h86l17 142z" />
    <glyph glyph-name="five.dnom" horiz-adv-x="325" 
d="M286 328h-145l-12 -70q30 8 52 8q45 0 73.5 -28t28.5 -85q0 -70 -44.5 -114t-119.5 -44q-80 0 -126 38l50 80q31 -34 76 -34q33 0 50.5 20.5t17.5 48.5q0 48 -48 48q-34 0 -57 -21l-46 19l38 218h222z" />
    <glyph glyph-name="six.dnom" horiz-adv-x="350" 
d="M203 264q46 0 78.5 -30.5t32.5 -83.5q0 -64 -39 -109.5t-110 -45.5q-68 0 -105 46t-37 127q0 100 50.5 174t146.5 75q50 1 104 -23l-41 -75q-35 14 -65 14q-72 0 -93 -87l3 -2q35 20 75 20zM168 78q23 0 37.5 19t14.5 46q0 23 -14 35.5t-37 12.5q-33 0 -58 -28
q-1 -3 -1 -10q0 -31 16 -53t42 -22z" />
    <glyph glyph-name="seven.dnom" horiz-adv-x="312" 
d="M48 412h253l-7 -62l-164 -350h-99l157 328h-151z" />
    <glyph glyph-name="eight.dnom" horiz-adv-x="348" 
d="M145 -6q-61 0 -96.5 27.5t-35.5 75.5q0 44 25 76.5t64 44.5v2q-22 7 -36.5 27.5t-14.5 48.5q0 57 40 89.5t105 32.5q53 0 85.5 -23.5t32.5 -67.5q0 -38 -21.5 -67.5t-53.5 -39.5v-1q29 -10 46.5 -34.5t17.5 -56.5q0 -59 -44.5 -96.5t-113.5 -37.5zM177 256q20 0 33 14
t13 36q0 40 -37 40q-20 0 -32.5 -13t-12.5 -36q0 -41 36 -41zM153 70q25 0 40.5 18t15.5 47q0 47 -45 47q-25 0 -40.5 -16.5t-16.5 -44.5q0 -23 12 -37t34 -14z" />
    <glyph glyph-name="nine.dnom" horiz-adv-x="346" 
d="M171 417q68 0 105 -46t37 -127q0 -100 -50 -173t-147 -76q-52 -1 -105 25l41 75q35 -16 66 -16q73 0 93 88l-2 1q-33 -20 -72 -20q-49 0 -82 30.5t-33 85.5q0 63 39.5 108t109.5 45zM116 271q0 -25 14 -37.5t37 -12.5q33 0 58 28q1 3 1 10q0 31 -16 53t-41 22
q-23 0 -38 -18.5t-15 -44.5z" />
    <glyph glyph-name="zero.numr" horiz-adv-x="383" 
d="M201 291q-67 0 -104 45t-37 128q0 104 49.5 179.5t135.5 75.5q67 0 104.5 -46t37.5 -126q0 -106 -50 -181t-136 -75zM204 378q43 0 67 52.5t24 117.5q0 85 -51 85q-44 0 -68 -53t-24 -118q0 -84 52 -84z" />
    <glyph glyph-name="one.numr" horiz-adv-x="272" 
d="M197 711h72l-51 -412h-92l37 294l-61 -44l-38 71z" />
    <glyph glyph-name="two.numr" horiz-adv-x="320" 
d="M36 299l6 64l127 127q67 67 67 104q0 17 -11 27t-30 10q-32 0 -77 -35l-46 68q63 53 140 53q57 0 88 -26.5t31 -78.5q0 -82 -84 -161l-71 -67l1 -2h130l-10 -83h-261z" />
    <glyph glyph-name="three.numr" horiz-adv-x="326" 
d="M162 292q-82 0 -130 40l52 77q33 -35 74 -35q28 0 46.5 15.5t18.5 42.5q0 43 -46 43h-30l9 69h35q23 0 37 14t14 36q0 41 -45 41q-34 0 -77 -34l-42 63q63 53 141 53q52 0 81.5 -24.5t29.5 -70.5q0 -74 -60 -110v-1q49 -25 49 -85q0 -61 -43.5 -97.5t-113.5 -36.5z" />
    <glyph glyph-name="four.numr" horiz-adv-x="342" 
d="M295 448h50l-10 -80h-50l-9 -69h-92l8 69h-160l6 57l217 286h72zM133 440h86l17 142z" />
    <glyph glyph-name="five.numr" horiz-adv-x="325" 
d="M323 627h-145l-12 -70q30 8 52 8q45 0 73.5 -28t28.5 -85q0 -70 -44.5 -114t-119.5 -44q-80 0 -126 38l50 80q31 -34 76 -34q33 0 50.5 20.5t17.5 48.5q0 48 -48 48q-34 0 -57 -21l-46 19l38 218h222z" />
    <glyph glyph-name="six.numr" horiz-adv-x="350" 
d="M240 564q46 0 78.5 -30.5t32.5 -83.5q0 -64 -39 -109.5t-110 -45.5q-68 0 -105 46t-37 127q0 100 50.5 174t146.5 75q50 1 104 -23l-41 -75q-35 14 -65 14q-72 0 -93 -87l3 -2q35 20 75 20zM205 378q23 0 37.5 19t14.5 46q0 23 -14 35.5t-37 12.5q-34 0 -58 -28
q-1 -3 -1 -10q0 -31 16 -53t42 -22z" />
    <glyph glyph-name="seven.numr" horiz-adv-x="312" 
d="M85 711h253l-7 -62l-164 -350h-99l157 328h-151z" />
    <glyph glyph-name="eight.numr" horiz-adv-x="349" 
d="M182 293q-61 0 -96.5 27.5t-35.5 75.5q0 44 25 76.5t64 44.5v2q-22 7 -36.5 27.5t-14.5 48.5q0 57 40 89.5t105 32.5q53 0 85.5 -23.5t32.5 -67.5q0 -38 -21.5 -67.5t-53.5 -39.5v-1q29 -10 46.5 -34.5t17.5 -56.5q0 -59 -44.5 -96.5t-113.5 -37.5zM214 555q20 0 33 14
t13 36q0 40 -37 40q-20 0 -32.5 -13t-12.5 -36q0 -41 36 -41zM190 369q25 0 40.5 18t15.5 47q0 47 -45 47q-25 0 -40.5 -16.5t-16.5 -44.5q0 -23 12 -37t34 -14z" />
    <glyph glyph-name="nine.numr" horiz-adv-x="346" 
d="M208 716q68 0 105 -46t37 -127q0 -100 -50 -173t-147 -76q-52 -1 -105 25l41 75q35 -16 66 -16q73 0 93 88l-2 1q-33 -20 -72 -20q-49 0 -82 30.5t-33 85.5q0 63 39.5 108t109.5 45zM153 570q0 -25 14 -37.5t37 -12.5q33 0 58 28q1 3 1 10q0 31 -16 53t-41 22
q-23 0 -38 -18.5t-15 -44.5z" />
    <glyph glyph-name="bullet.case" horiz-adv-x="425" 
d="M223 228q-46 0 -77 31t-31 78t32 79t81 32q46 0 77 -30.5t31 -76.5q0 -49 -32.5 -81t-80.5 -32z" />
    <glyph glyph-name="exclamdown.case" horiz-adv-x="268" 
d="M186 744q31 0 51 -20.5t20 -50.5q0 -32 -21 -53.5t-53 -21.5q-31 0 -51.5 20.5t-20.5 51.5q0 32 21.5 53t53.5 21zM211 513l-42 -513h-121l83 513h80z" />
    <glyph glyph-name="periodcentered.loclCAT.case" horiz-adv-x="166" 
d="M53 265q-31 0 -51 20.5t-20 50.5q0 32 21 53.5t53 21.5q31 0 51.5 -20.5t20.5 -51.5q0 -32 -21.5 -53t-53.5 -21z" />
    <glyph glyph-name="questiondown.case" horiz-adv-x="424" 
d="M279 744q31 0 51 -20.5t20 -50.5q0 -32 -21 -53.5t-53 -21.5q-31 0 -51.5 20.5t-20.5 51.5q0 32 21.5 53t53.5 21zM315 513l-5 -48q-1 -11 -4.5 -22t-6 -19t-10.5 -19.5t-11 -16.5t-14.5 -18.5t-14 -16.5t-17.5 -18.5t-17 -17.5q-37 -40 -55.5 -70.5t-18.5 -69.5
q0 -36 18 -56t50 -20q55 0 98 57l73 -72q-34 -44 -88.5 -69t-113.5 -25q-69 0 -116.5 41t-47.5 118q0 104 107 205q28 26 40.5 39.5t26.5 33.5t17 37l9 47h101z" />
    <glyph glyph-name="uni2E18.case" horiz-adv-x="425" 
d="M272 598q-31 0 -51.5 20.5t-20.5 51.5q0 32 21.5 53t53.5 21q31 0 51 -20.5t20 -50.5q0 -32 -21 -53.5t-53 -21.5zM307 158l74 -72q-33 -43 -86.5 -68.5t-112.5 -25.5q-69 0 -118 41.5t-49 116.5q0 63 27 111t80 95q38 35 58.5 59.5t25.5 50.5l9 47h97l-21 -337h-123
l21 117q-27 -28 -40 -53t-13 -60q0 -79 74 -79q55 0 97 57z" />
    <glyph glyph-name="periodcentered.loclCAT" horiz-adv-x="146" 
d="M77 220q-31 0 -51 20.5t-20 50.5q0 32 21 53.5t53 21.5q31 0 51.5 -20.5t20.5 -51.5q0 -32 -21.5 -53t-53.5 -21z" />
    <glyph glyph-name="colon.tf" horiz-adv-x="293" 
d="M167 349q-31 0 -51 20.5t-20 50.5q0 32 21 53.5t53 21.5q31 0 51.5 -20.5t20.5 -51.5q0 -32 -21.5 -53t-53.5 -21zM121 -8q-31 0 -51 20.5t-20 50.5q0 32 21 53.5t53 21.5q31 0 51.5 -20.5t20.5 -51.5q0 -32 -21.5 -53t-53.5 -21z" />
    <glyph glyph-name="comma.tf" horiz-adv-x="293" 
d="M28 -132l59 252h116l-94 -252h-81z" />
    <glyph glyph-name="numbersign.tf" horiz-adv-x="586" 
d="M69 -19l51 195h-97l10 82h110l38 148h-107l9 83h121l48 188h77l-48 -188h127l48 188h77l-48 -188h100l-10 -83h-114l-37 -148h110l-11 -82h-123l-50 -195h-77l51 195h-127l-50 -195h-78zM220 258h128l36 148h-126z" />
    <glyph glyph-name="period.tf" horiz-adv-x="293" 
d="M123 -8q-31 0 -51 20.5t-20 50.5q0 32 21 53.5t53 21.5q31 0 51.5 -20.5t20.5 -51.5q0 -32 -21.5 -53t-53.5 -21z" />
    <glyph glyph-name="braceleft.case" horiz-adv-x="317" 
d="M195 -100q-45 0 -72 34.5t-20 88.5l24 196q2 20 2 36.5t-16 27t-50 11.5l7 85q34 1 54 15t24.5 28t7.5 36l25 201q6 52 38 85.5t80 33.5h67l-9 -76h-23q-27 0 -42.5 -21t-18.5 -47l-25 -195q-5 -44 -19 -67.5t-41 -34.5v-2q25 -11 33 -32.5t1 -73.5l-22 -183
q-4 -37 5 -53.5t36 -16.5h27l-10 -76h-63z" />
    <glyph glyph-name="braceright.case" horiz-adv-x="320" 
d="M-21 -100l10 76h23q30 0 43.5 18.5t18.5 56.5l22 183q6 53 19 72.5t43 30.5v2q-46 21 -35 105l23 194q7 64 -42 64h-26l9 76h63q48 0 73.5 -36t19.5 -88l-25 -200q-1 -18 -2 -34t15.5 -28t50.5 -13l-7 -85q-35 -1 -54.5 -14t-24.5 -27t-8 -39l-23 -195q-7 -55 -40 -87
t-78 -32h-68z" />
    <glyph glyph-name="bracketleft.case" horiz-adv-x="292" 
d="M22 -103l108 879h210l-10 -85h-113l-87 -709h112l-10 -85h-210z" />
    <glyph glyph-name="bracketright.case" horiz-adv-x="298" 
d="M-20 -102l11 85h116l87 709h-116l10 85h214l-108 -879h-214z" />
    <glyph glyph-name="parenleft.case" horiz-adv-x="273" 
d="M124 -111q-60 138 -60 316q0 159 45.5 313.5t128.5 269.5l77 -34q-71 -113 -109.5 -253.5t-38.5 -280.5q0 -154 47 -289z" />
    <glyph glyph-name="parenright.case" horiz-adv-x="273" 
d="M65 -107l-77 34q71 118 108.5 258t37.5 277q0 158 -47 288l88 42q63 -129 63 -317q0 -331 -173 -582z" />
    <glyph glyph-name="emdash.case" horiz-adv-x="1028" 
d="M51 275l11 98h934l-12 -98h-933z" />
    <glyph glyph-name="endash.case" horiz-adv-x="562" 
d="M51 275l11 98h468l-13 -98h-466z" />
    <glyph glyph-name="uni2015.case" horiz-adv-x="1188" 
d="M50 275l12 98h1094l-13 -98h-1093z" />
    <glyph glyph-name="hyphen.case" horiz-adv-x="356" 
d="M51 281l12 102h262l-12 -102h-262z" />
    <glyph glyph-name="hyphen.tf" horiz-adv-x="586" 
d="M77 227l12 100h427l-12 -100h-427z" />
    <glyph glyph-name="guillemotleft.case" horiz-adv-x="479" 
d="M138 77l-84 213l138 217h105l-136 -217l83 -213h-106zM327 77l-85 213l139 217h105l-137 -217l83 -213h-105z" />
    <glyph glyph-name="guillemotright.case" horiz-adv-x="480" 
d="M11 77l136 213l-84 217h105l86 -217l-137 -213h-106zM202 77l135 213l-84 217h105l86 -217l-137 -213h-105z" />
    <glyph glyph-name="cent.tf" horiz-adv-x="586" 
d="M288 146q63 0 115 53l86 -62q-74 -74 -156 -87l-13 -98h-77l12 97q-79 8 -124 61.5t-45 139.5q0 114 61.5 198.5t164.5 98.5l12 98h77l-12 -99q91 -13 133 -78l-86 -64q-30 46 -88 46q-66 0 -108.5 -55.5t-42.5 -137.5q0 -52 27.5 -81.5t63.5 -29.5z" />
    <glyph glyph-name="dollar.tf" horiz-adv-x="586" 
d="M326 396q13 -8 42.5 -24.5t43.5 -25t35.5 -26t32 -33.5t18.5 -40t8 -52q0 -89 -57.5 -142t-147.5 -59l-14 -116h-82l15 119q-122 19 -173 102l76 84q21 -36 67.5 -59.5t92.5 -23.5t74.5 24.5t28.5 60.5q0 14 -4 24t-17 20.5t-21 16t-32.5 19t-36.5 20.5q-3 2 -25 14.5
t-27 16t-23.5 15.5t-24.5 18.5t-20 18.5t-19 22.5t-12.5 24.5t-10 29t-2.5 32q0 78 52 129.5t132 61.5l15 124h82l-15 -125q112 -16 169 -88l-81 -78q-26 36 -65.5 50t-72.5 14q-43 0 -69.5 -21.5t-25.5 -53.5q1 -18 14 -34t27 -25.5t53 -33.5z" />
    <glyph glyph-name="dong.tf" horiz-adv-x="586" 
d="M602 637l-10 -75h-53l-69 -562h-110l12 91l-3 1q-68 -100 -160 -100q-83 0 -125.5 55.5t-42.5 142.5q0 121 67.5 213t172.5 92q82 0 132 -47l3 1l14 113h-172l9 75h172l12 99h110l-12 -99h53zM401 330l3 22q-40 43 -115 43q-61 0 -99 -64t-38 -143q0 -46 20 -72.5
t58 -26.5q56 0 106.5 67t64.5 174zM20 -159l12 100h427l-12 -100h-427z" />
    <glyph glyph-name="Euro.tf" horiz-adv-x="586" 
d="M351 99q63 0 114 41l61 -89q-81 -58 -180 -58q-97 0 -165 61.5t-82 181.5h-62l9 74h49q0 30 5 65h-46l9 74h54q35 110 115 177t190 67q98 0 168 -60l-80 -80q-36 35 -88 35q-61 0 -107 -38t-72 -101h222l-9 -74h-235q-5 -28 -7 -65h234l-9 -74h-220q11 -68 46 -102.5
t86 -34.5z" />
    <glyph glyph-name="florin.tf" horiz-adv-x="586" 
d="M113 -142q-98 0 -130 44l48 74q29 -18 63 -18q38 0 60 21.5t34 72.5l76 323h-72l25 94h73l26 112q40 163 171 163q92 0 131 -44l-49 -75q-31 19 -64 19q-64 0 -84 -94l-18 -81h124l-25 -94h-125l-84 -354q-19 -84 -63.5 -123.5t-116.5 -39.5z" />
    <glyph glyph-name="uni20BA.tf" horiz-adv-x="586" 
d="M468 252l93 -38q-57 -117 -127.5 -165.5t-168.5 -48.5h-174l24 198l-70 -33l-24 71l105 49l8 67l-71 -33l-22 71l104 48l30 249h118l-23 -190l141 66l23 -71l-175 -82l-8 -67l141 65l23 -70l-175 -82l-19 -158h43q72 0 117.5 34.5t86.5 119.5z" />
    <glyph glyph-name="peseta.tf" horiz-adv-x="586" 
d="M595 501l-9 -75h-65q-34 -187 -265 -187h-54l-29 -239h-115l52 426h-66l9 75h66l23 186h167q110 0 162.5 -46.5t54.5 -139.5h69zM244 582l-10 -81h172q-4 39 -30 60t-67 21h-65zM256 341q119 0 144 85h-175l-11 -85h42z" />
    <glyph glyph-name="uni20B1.tf" horiz-adv-x="586" 
d="M593 483h-66q0 -11 -2 -33h64l-8 -71h-72q-52 -140 -252 -140h-55l-29 -239h-115l46 379h-65l8 71h66l4 33h-66l9 71h66l16 133h168q181 0 211 -133h81zM314 582h-70l-5 -38h157q-24 38 -82 38zM232 483l-4 -33h182q2 20 2 33h-180zM261 341q91 0 126 48h-167l-6 -48h47z
" />
    </font>
</defs>
</svg>
