<?xml version="1.0" standalone="no"?>
<!DOCTYPE svg PUBLIC "-//W3C//DTD SVG 1.1//EN" "http://www.w3.org/Graphics/SVG/1.1/DTD/svg11.dtd" >
<svg xmlns="http://www.w3.org/2000/svg" xmlns:xlink="http://www.w3.org/1999/xlink" version="1.1">
<metadata>
Created by FontForge 20190801 at Mon Sep 18 11:16:08 2017
 By www-data
Copyright (c) 2017 by Kostas Bartsokas. All rights reserved.
</metadata>
<defs>
<font id="CWCRegular" horiz-adv-x="0" >
  <font-face 
    font-family="CWCRegular"
    font-weight="400"
    font-stretch="normal"
    units-per-em="1000"
    panose-1="0 0 5 0 0 0 0 0 0 0"
    ascent="800"
    descent="-200"
    x-height="487"
    cap-height="710"
    bbox="-680 -277 1273 1041"
    underline-thickness="38"
    underline-position="-83"
    unicode-range="U+000D-1F10C"
  />
<missing-glyph horiz-adv-x="446" 
 />
    <glyph glyph-name=".notdef" horiz-adv-x="446" 
 />
    <glyph glyph-name=".null" 
 />
    <glyph glyph-name="nonmarkingreturn" horiz-adv-x="333" 
 />
    <glyph glyph-name="CR" unicode="&#xd;" 
 />
    <glyph glyph-name="space" unicode=" " horiz-adv-x="279" 
 />
    <glyph glyph-name="exclam" unicode="!" horiz-adv-x="247" 
d="M95 209l-14 527h92l-14 -527h-64zM125 -7q-25 0 -42.5 17t-17.5 42t17.5 42t42.5 17t42 -17t17 -42t-17 -42t-42 -17z" />
    <glyph glyph-name="quotedbl" unicode="&#x22;" horiz-adv-x="343" 
d="M41 469l32 241h88l-54 -241h-66zM182 469l32 241h88l-54 -241h-66z" />
    <glyph glyph-name="numbersign" unicode="#" horiz-adv-x="634" 
d="M129 -35l31 204h-118v63h127l25 161h-131v62h141l31 201h58l-31 -201h163l31 201h58l-30 -201h122l-1 -62h-132l-24 -161h134v-63h-144l-31 -204h-58l32 204h-164l-31 -204h-58zM227 232h164l24 161h-163z" />
    <glyph glyph-name="dollar" unicode="$" horiz-adv-x="567" 
d="M520 181q0 -78 -52 -127.5t-144 -55.5v-121h-66v122q-123 8 -202 76l43 73q75 -72 202 -72q56 0 92 26.5t36 72.5q0 50 -34.5 75t-115.5 51q-41 13 -64.5 21.5t-55 25t-48.5 34t-29 45.5t-12 62q0 74 49.5 123t138.5 54v125h66v-127q107 -11 175 -64l-49 -68
q-74 54 -171 54q-53 0 -85.5 -24.5t-32.5 -67.5t34 -65t109 -47q46 -15 71 -24.5t57.5 -26.5t48 -35.5t27.5 -48t12 -66.5z" />
    <glyph glyph-name="percent" unicode="%" horiz-adv-x="856" 
d="M212 -1l-59 42l495 657l58 -42zM216 338q-77 0 -129 49.5t-52 128.5q0 75 50.5 126.5t130.5 51.5q75 0 127.5 -49.5t52.5 -128.5q0 -74 -50.5 -126t-129.5 -52zM216 404q48 0 78.5 32t30.5 80t-31 79.5t-78 31.5q-48 0 -78.5 -31.5t-30.5 -79.5q0 -49 31 -80.5t78 -31.5z
M639 -7q-77 0 -129.5 50t-52.5 129q0 75 51 126t131 51q75 0 127.5 -49.5t52.5 -127.5q0 -74 -50.5 -126.5t-129.5 -52.5zM639 59q48 0 78.5 32t30.5 80t-31 79.5t-78 31.5q-48 0 -78.5 -31.5t-30.5 -79.5q0 -49 31 -80.5t78 -31.5z" />
    <glyph glyph-name="ampersand" unicode="&#x26;" horiz-adv-x="661" 
d="M534 123l119 -123h-100l-70 70h-2q-79 -76 -206 -76q-100 0 -163.5 52.5t-63.5 142.5q0 127 133 194l-7 8q-71 72 -71 154q0 72 52 122t141 50q79 0 130.5 -41.5t51.5 -116.5q0 -130 -176 -194l175 -181h3q35 56 35 145l80 1q0 -119 -61 -204v-3zM297 643
q-48 0 -80.5 -28.5t-32.5 -75.5q0 -55 58 -113l11 -11q73 29 108 59.5t35 78.5q0 43 -27.5 66.5t-71.5 23.5zM430 125v2l-201 207q-96 -46 -96 -136q0 -58 42 -92.5t112 -34.5q86 0 143 54z" />
    <glyph glyph-name="quotesingle" unicode="'" horiz-adv-x="201" 
d="M41 469l32 241h88l-54 -241h-66z" />
    <glyph glyph-name="parenleft" unicode="(" horiz-adv-x="284" 
d="M174 -148q-111 200 -111 444q0 257 115 445l62 -29q-102 -186 -102 -416q0 -215 99 -416z" />
    <glyph glyph-name="parenright" unicode=")" horiz-adv-x="284" 
d="M110 -148l-63 28q99 201 99 416q0 230 -102 416l62 29q115 -188 115 -445q0 -244 -111 -444z" />
    <glyph glyph-name="asterisk" unicode="*" horiz-adv-x="411" 
d="M178 393l4 119l-100 -63l-27 48l105 54l-106 56l28 47l100 -62l-4 118h55l-5 -118l101 62l27 -47l-105 -56l105 -54l-27 -48l-100 63l4 -119h-55z" />
    <glyph glyph-name="plus" unicode="+" horiz-adv-x="585" 
d="M255 43v196h-197v75h197v197h75v-197h196v-75h-196v-196h-75z" />
    <glyph glyph-name="comma" unicode="," horiz-adv-x="215" 
d="M32 -131l33 241h88l-61 -241h-60z" />
    <glyph glyph-name="hyphen" unicode="-" horiz-adv-x="411" 
d="M57 268v80h297v-80h-297z" />
    <glyph glyph-name="period" unicode="." horiz-adv-x="242" 
d="M121 -7q-25 0 -42.5 17t-17.5 42t17.5 42t42.5 17t42 -17t17 -42t-17 -42t-42 -17z" />
    <glyph glyph-name="slash" unicode="/" horiz-adv-x="409" 
d="M39 -113l-65 30l385 853l64 -31z" />
    <glyph glyph-name="zero" unicode="0" horiz-adv-x="638" 
d="M319 -6q-121 0 -192.5 92t-71.5 257q0 157 69 253.5t195 96.5q121 0 192 -92t71 -258q0 -157 -68.5 -253t-194.5 -96zM319 72q86 0 132 73t46 198q0 129 -48 200.5t-130 71.5q-85 0 -131.5 -73t-46.5 -199q0 -129 48 -200t130 -71z" />
    <glyph glyph-name="one" unicode="1" horiz-adv-x="379" 
d="M200 0v586l-137 -104l-41 63l192 142h70v-687h-84z" />
    <glyph glyph-name="two" unicode="2" horiz-adv-x="522" 
d="M41 0l-2 58l234 237q53 55 80 98t27 92q0 57 -36.5 92.5t-100.5 35.5q-85 0 -164 -69l-45 67q102 81 218 81q94 0 154 -54t60 -145q0 -115 -121 -236l-177 -177l1 -3h304v-77h-432z" />
    <glyph glyph-name="three" unicode="3" horiz-adv-x="548" 
d="M260 -6q-136 0 -231 68l41 73q83 -63 188 -63q73 1 112.5 33t39.5 87q0 56 -39.5 92t-113.5 36h-69v72h79q62 0 93.5 32t31.5 78q0 52 -36.5 82.5t-100.5 30.5q-92 0 -165 -62l-45 68q95 72 215 72q96 0 156.5 -47.5t60.5 -132.5q0 -51 -26.5 -92t-74.5 -62v-3
q119 -48 119 -172q0 -88 -59.5 -139t-175.5 -51z" />
    <glyph glyph-name="four" unicode="4" horiz-adv-x="584" 
d="M367 0v144h-338v59l350 484h72v-468h99v-75h-99v-144h-84zM126 215h247v335z" />
    <glyph glyph-name="five" unicode="5" horiz-adv-x="559" 
d="M281 436q102 0 165.5 -58.5t63.5 -160.5q0 -106 -68.5 -164.5t-184.5 -58.5q-121 0 -221 67l42 74q85 -63 180 -63q76 0 121.5 40t45.5 106q0 67 -47.5 106t-116.5 39q-68 0 -142 -37l-45 22l20 339h383v-78h-304l-12 -197q59 24 120 24z" />
    <glyph glyph-name="six" unicode="6" horiz-adv-x="592" 
d="M329 438q95 0 157 -58.5t62 -161.5q0 -100 -67 -162t-168 -62q-121 0 -189.5 87.5t-68.5 247.5q0 85 18 150.5t46 105t67 64.5t76.5 34.5t78.5 9.5q97 0 163 -32l-34 -74q-60 29 -129 29q-98 0 -147.5 -72t-54.5 -189h1q71 83 189 83zM313 72q65 0 107.5 40.5t42.5 105.5
t-42.5 104t-107.5 39q-58 0 -102 -29t-69 -73q12 -92 57.5 -139.5t113.5 -47.5z" />
    <glyph glyph-name="seven" unicode="7" horiz-adv-x="501" 
d="M102 0l265 610h-341v77h435v-59l-268 -628h-91z" />
    <glyph glyph-name="eight" unicode="8" horiz-adv-x="583" 
d="M290 -6q-113 0 -178 51t-65 142q0 68 36 116t95 67v2q-41 14 -71.5 54.5t-30.5 94.5q0 79 59 125.5t155 46.5q98 0 157 -46.5t59 -125.5q0 -54 -31 -95.5t-71 -53.5v-2q59 -18 95 -66t36 -117q0 -93 -66 -143t-179 -50zM290 404q59 0 96 29.5t37 78.5q0 50 -36 78t-97 28
q-60 0 -96 -28.5t-36 -77.5t37 -78.5t95 -29.5zM290 70q75 0 117 35t42 93q0 59 -43.5 95.5t-115.5 36.5q-71 0 -114 -36.5t-43 -95.5t42.5 -93.5t114.5 -34.5z" />
    <glyph glyph-name="nine" unicode="9" horiz-adv-x="595" 
d="M286 693q119 0 186.5 -88.5t67.5 -253.5q0 -103 -26.5 -176.5t-71.5 -111t-92 -53.5t-101 -16q-101 0 -168 37l36 72q56 -32 127 -32q106 0 157.5 71t56.5 190l-2 1q-71 -84 -187 -84q-96 0 -158 58t-62 160t67.5 164t169.5 62zM284 326q57 0 100.5 29t68.5 72
q-13 93 -57 140.5t-111 47.5q-65 0 -108 -40.5t-43 -105.5t42.5 -104t107.5 -39z" />
    <glyph glyph-name="colon" unicode=":" horiz-adv-x="236" 
d="M117 375q-25 0 -42.5 17t-17.5 42t17.5 42t42.5 17t42 -17t17 -42t-17 -42t-42 -17zM117 -7q-25 0 -42.5 17t-17.5 42t17.5 42t42.5 17t42 -17t17 -42t-17 -42t-42 -17z" />
    <glyph glyph-name="semicolon" unicode=";" horiz-adv-x="227" 
d="M118 375q-25 0 -42.5 17t-17.5 42t17.5 42t42.5 17t42 -17t17 -42t-17 -42t-42 -17zM41 -131l33 241h88l-61 -241h-60z" />
    <glyph glyph-name="less" unicode="&#x3c;" horiz-adv-x="578" 
d="M507 43l-449 204v60l449 207v-82l-338 -154l338 -154v-81z" />
    <glyph glyph-name="equal" unicode="=" horiz-adv-x="583" 
d="M67 352v75h469v-75h-469zM67 126v75h469v-75h-469z" />
    <glyph glyph-name="greater" unicode="&#x3e;" horiz-adv-x="575" 
d="M71 43v81l338 154l-338 154v82l449 -207v-60z" />
    <glyph glyph-name="question" unicode="?" horiz-adv-x="450" 
d="M161 207v54q0 29 16.5 59.5t28 43t45.5 48.5q23 24 36 41.5t24.5 44.5t11.5 54q0 51 -32.5 80.5t-80.5 29.5q-35 0 -69 -18.5t-55 -50.5l-61 57q71 93 191 93q84 0 140.5 -51t56.5 -136q0 -54 -24 -96t-66 -84q-6 -6 -21 -20.5t-21 -21t-17 -18.5t-15.5 -20t-9 -18.5
t-4.5 -20.5l-2 -50h-72zM200 -7q-25 0 -42.5 17t-17.5 42t17.5 42t42.5 17t42 -17t17 -42t-17 -42t-42 -17z" />
    <glyph glyph-name="at" unicode="@" horiz-adv-x="903" 
d="M420 -140q-162 0 -266 104t-104 271q0 55 14 111t47 112.5t81 99.5t124 70.5t169 27.5q165 0 267 -100.5t102 -259.5q0 -38 -10 -79t-32 -82t-64 -67t-98 -26q-67 0 -84 53q-11 19 -14 42h-2q-22 -40 -61 -62t-87 -22q-75 0 -123.5 52.5t-48.5 137.5q0 36 11.5 73.5
t34 73.5t63 58.5t91.5 22.5q94 0 135 -86h1l9 80h82l-27 -270q-1 -12 -1 -29q0 -34 10.5 -46t32.5 -12q54 0 85.5 62t31.5 125q0 131 -85 216t-220 85q-92 0 -165 -32.5t-116 -85.5t-65.5 -115.5t-22.5 -128.5q0 -130 84 -221t221 -91q114 0 207 52l29 -47q-94 -67 -236 -67
zM425 127q62 0 99 46.5t37 102.5q0 52 -30 86t-78 34q-64 0 -102.5 -43t-38.5 -102q0 -54 32 -89t81 -35z" />
    <glyph glyph-name="A" unicode="A" horiz-adv-x="679" 
d="M26 0l269 710h87l270 -710h-91l-64 173h-316l-63 -173h-92zM208 249h262l-130 356h-2z" />
    <glyph glyph-name="B" unicode="B" horiz-adv-x="642" 
d="M92 0v710h232q108 0 168.5 -42.5t60.5 -130.5q0 -54 -29 -98.5t-84 -63.5v-2q66 -13 107 -59.5t41 -120.5q0 -88 -60 -140.5t-177 -52.5h-259zM179 404h146q61 0 100 28t39 88q0 112 -149 112l-136 -1v-227zM179 79h164q72 0 113 30.5t41 90.5q0 61 -43 94.5t-124 33.5
h-151v-249z" />
    <glyph glyph-name="C" unicode="C" horiz-adv-x="721" 
d="M414 -6q-158 0 -256 97t-98 262q0 157 95 260.5t264 103.5q163 0 269 -114l-58 -65q-86 96 -217 96q-119 0 -190.5 -78.5t-71.5 -202.5q0 -125 73 -200.5t196 -75.5q131 0 218 81l45 -72q-94 -92 -269 -92z" />
    <glyph glyph-name="D" unicode="D" horiz-adv-x="733" 
d="M92 0v710h212q167 0 268 -98.5t101 -257.5t-99 -256.5t-267 -97.5h-215zM179 79h123q128 0 204.5 76.5t76.5 198.5t-77 199.5t-201 77.5h-126v-552z" />
    <glyph glyph-name="E" unicode="E" horiz-adv-x="632" 
d="M92 0v710h473v-79h-386v-238h353v-79h-353v-235h399v-79h-486z" />
    <glyph glyph-name="F" unicode="F" horiz-adv-x="599" 
d="M92 0v710h467v-79h-380v-250h337v-78h-337v-303h-87z" />
    <glyph glyph-name="G" unicode="G" horiz-adv-x="767" 
d="M415 -5q-163 0 -259 97t-96 261q0 157 95 260.5t263 103.5q164 0 270 -114l-58 -65q-86 96 -219 96q-118 0 -189 -78.5t-71 -202.5q0 -125 68 -201.5t197 -76.5q119 0 198 54v158h-207v79h294v-283q-50 -41 -126 -64.5t-160 -23.5z" />
    <glyph glyph-name="H" unicode="H" horiz-adv-x="729" 
d="M92 0v710h87v-333h371v333h87v-710h-87v298h-371v-298h-87z" />
    <glyph glyph-name="I" unicode="I" horiz-adv-x="282" 
d="M97 0v710h87v-710h-87z" />
    <glyph glyph-name="J" unicode="J" horiz-adv-x="539" 
d="M243 -5q-69 0 -129 26.5t-100 73.5l55 66q37 -43 76.5 -64t93.5 -21q133 0 133 161v473h87v-472q0 -125 -54 -184t-162 -59z" />
    <glyph glyph-name="K" unicode="K" horiz-adv-x="664" 
d="M356 393q79 -73 154.5 -180.5t121.5 -212.5h-98q-41 89 -106 180.5t-132 153.5l-117 -136v-198h-87v710h87v-395h2l331 395h113z" />
    <glyph glyph-name="L" unicode="L" horiz-adv-x="591" 
d="M92 0v710h87v-631h380v-79h-467z" />
    <glyph glyph-name="M" unicode="M" horiz-adv-x="884" 
d="M92 0v710h88l261 -459h2l261 459h87v-710h-87v541h-1l-232 -398h-59l-231 398h-1v-541h-88z" />
    <glyph glyph-name="N" unicode="N" horiz-adv-x="769" 
d="M92 0v710h83l413 -567h2v567h87v-710h-86l-411 562h-2v-562h-86z" />
    <glyph glyph-name="O" unicode="O" horiz-adv-x="831" 
d="M416 -6q-155 0 -255.5 101.5t-100.5 259.5t100.5 260t255.5 102q152 0 253.5 -101t101.5 -261t-101.5 -260.5t-253.5 -100.5zM416 76q112 0 188 78.5t76 200.5t-76 201t-188 79q-115 0 -190.5 -79.5t-75.5 -200.5q0 -120 75.5 -199.5t190.5 -79.5z" />
    <glyph glyph-name="P" unicode="P" horiz-adv-x="619" 
d="M92 0v710h249q118 0 176 -60t58 -160q0 -109 -67.5 -164t-182.5 -55h-146v-271h-87zM179 350h138q85 0 126.5 38.5t41.5 103.5q0 67 -41 103t-113 36h-152v-281z" />
    <glyph glyph-name="Q" unicode="Q" horiz-adv-x="847" 
d="M788 47l-50 -62l-95 86q-96 -77 -227 -77q-157 0 -256.5 102.5t-99.5 258.5t99.5 259t256.5 103q152 0 253.5 -101t101.5 -261q0 -133 -73 -228zM150 355q0 -120 75.5 -199.5t190.5 -79.5q93 0 162 55l-82 75l49 58l86 -76q49 71 49 167q0 121 -74.5 200.5t-189.5 79.5
t-190.5 -80t-75.5 -200z" />
    <glyph glyph-name="R" unicode="R" horiz-adv-x="647" 
d="M406 289q127 -121 203 -289h-99q-79 166 -201 271h-130v-271h-87v710h252q118 0 176.5 -57.5t58.5 -156.5q0 -86 -45 -137.5t-128 -69.5zM321 350q84 0 126 39t42 103q0 67 -41.5 103t-115.5 36h-153v-281h142z" />
    <glyph glyph-name="S" unicode="S" horiz-adv-x="585" 
d="M299 -6q-154 0 -248 78l42 79q87 -77 209 -77q71 0 112.5 29t41.5 80q0 36 -22.5 61.5t-47 36.5t-83.5 32q-16 6 -25 9q-36 13 -53 20t-47 21t-45.5 27.5t-33 33.5t-25 45.5t-7.5 56.5q0 89 62.5 140t160.5 51q147 0 238 -76l-49 -72q-39 32 -90 50.5t-100 18.5
q-56 0 -94 -27.5t-38 -77.5q0 -25 9.5 -43.5t34.5 -33.5t45.5 -24t65.5 -26q118 -44 155 -68q80 -52 80 -145q0 -99 -63.5 -149t-184.5 -50z" />
    <glyph glyph-name="T" unicode="T" horiz-adv-x="576" 
d="M243 0v631h-212v79h514v-79h-215v-631h-87z" />
    <glyph glyph-name="U" unicode="U" horiz-adv-x="714" 
d="M357 -6q-126 0 -200.5 72.5t-74.5 212.5v431h87v-425q0 -99 50.5 -154t137.5 -55q85 0 137 53.5t52 155.5v425h87v-431q0 -139 -74 -212t-202 -73z" />
    <glyph glyph-name="V" unicode="V" horiz-adv-x="673" 
d="M300 0l-269 710h96l212 -593h1l210 593h95l-268 -710h-77z" />
    <glyph glyph-name="W" unicode="W" horiz-adv-x="1023" 
d="M262 0l-228 710h96l172 -571h2l161 571h94l159 -571h2l174 571h95l-231 -710h-78l-167 589h-2l-171 -589h-78z" />
    <glyph glyph-name="X" unicode="X" horiz-adv-x="666" 
d="M34 0l242 353l-239 357h102l194 -296h1l195 296h100l-240 -357l244 -353h-103l-197 290h-2l-196 -290h-101z" />
    <glyph glyph-name="Y" unicode="Y" horiz-adv-x="603" 
d="M257 0v317l-241 393h100l184 -308h2l183 308h102l-243 -393v-317h-87z" />
    <glyph glyph-name="Z" unicode="Z" horiz-adv-x="618" 
d="M59 0v69l378 561l-1 1h-357v79h473v-69l-382 -560l2 -2h383v-79h-496z" />
    <glyph glyph-name="bracketleft" unicode="[" horiz-adv-x="313" 
d="M71 -145v874h195v-63h-123v-747h123v-64h-195z" />
    <glyph glyph-name="backslash" unicode="\" horiz-adv-x="414" 
d="M374 -113l-384 852l64 31l385 -853z" />
    <glyph glyph-name="bracketright" unicode="]" horiz-adv-x="313" 
d="M242 -145h-195v64h123v747h-123v63h195v-874z" />
    <glyph glyph-name="asciicircum" unicode="^" horiz-adv-x="470" 
d="M63 500l140 210h64l141 -210h-74l-100 153l-100 -153h-71z" />
    <glyph glyph-name="underscore" unicode="_" horiz-adv-x="523" 
d="M-4 -85v58h531v-58h-531z" />
    <glyph glyph-name="grave" unicode="`" horiz-adv-x="505" 
d="M256 542l-121 138l92 -1l111 -137h-82z" />
    <glyph glyph-name="a" unicode="a" horiz-adv-x="548" 
d="M528 67l5 -65q-21 -7 -49 -7q-40 0 -66 19t-35 52h-2q-26 -33 -72 -53t-98 -20q-77 0 -121.5 38.5t-44.5 106.5q0 152 189 152h138v6q0 62 -28.5 93.5t-94.5 31.5q-72 0 -150 -32l-24 67q87 37 186 37t143.5 -51.5t44.5 -152.5v-157q0 -69 47 -69q14 0 32 4zM225 63
q57 0 101.5 30.5t44.5 71.5v64h-129q-54 0 -84.5 -22t-30.5 -62q0 -36 23.5 -59t74.5 -23z" />
    <glyph glyph-name="b" unicode="b" horiz-adv-x="619" 
d="M336 -6q-119 0 -177 94h-2v-88h-77v736h81v-334h1q58 91 174 91q103 0 169.5 -72t66.5 -181q0 -110 -67 -178t-169 -68zM324 68q73 0 119.5 49t46.5 123q0 80 -48 129.5t-119 49.5q-73 0 -119.5 -51.5t-46.5 -127.5t48 -124t119 -48z" />
    <glyph glyph-name="c" unicode="c" horiz-adv-x="520" 
d="M305 -6q-123 0 -190.5 67t-67.5 181q0 112 68 181.5t181 69.5t191 -67l-47 -62q-66 55 -144 55q-74 0 -120 -49t-46 -128t46.5 -127t135.5 -48q82 0 137 45l40 -66q-64 -52 -184 -52z" />
    <glyph glyph-name="d" unicode="d" horiz-adv-x="619" 
d="M285 -6q-102 0 -170.5 68.5t-68.5 177.5q0 108 68 180.5t170 72.5q116 0 174 -93h1v336h81v-736h-78v90h-1q-57 -96 -176 -96zM296 68q70 0 118 48t48 124t-46.5 127.5t-118.5 51.5q-71 0 -119.5 -50t-48.5 -129q0 -74 46.5 -123t120.5 -49z" />
    <glyph glyph-name="e" unicode="e" horiz-adv-x="551" 
d="M510 254q0 -25 -2 -35h-379q7 -72 55 -112.5t129 -40.5q92 0 149 41l38 -64q-70 -49 -193 -49q-124 0 -192 67.5t-68 181.5q0 110 67.5 180t173.5 70q107 0 164.5 -66t57.5 -173zM286 419q-59 0 -101 -37t-53 -97h298q-8 64 -44.5 99t-99.5 35z" />
    <glyph glyph-name="f" unicode="f" horiz-adv-x="355" 
d="M103 0v417h-86v70h86v84q0 85 41.5 128.5t117.5 43.5q75 0 136 -34l-33 -63q-49 25 -98 25q-38 0 -61 -25.5t-23 -79.5v-79h156v-70h-156v-417h-80z" />
    <glyph glyph-name="g" unicode="g" horiz-adv-x="605" 
d="M293 -204q-134 0 -217 50l32 68q85 -44 181 -44q81 0 122.5 40.5t41.5 105.5v78h-2q-59 -85 -169 -85q-101 0 -168.5 67t-67.5 174q0 105 65.5 174t167.5 69q109 0 171 -84h2v78h81v-451q0 -111 -58.5 -175.5t-181.5 -64.5zM292 84q73 0 118 48t45 122q0 72 -46.5 118
t-115.5 46q-73 0 -119 -47t-46 -119q0 -76 46.5 -122t117.5 -46z" />
    <glyph glyph-name="h" unicode="h" horiz-adv-x="588" 
d="M80 0v736h81v-334h1q60 91 180 91q82 0 129 -50t47 -151v-292h-80v269q0 150 -120 150q-73 0 -115 -46t-42 -128v-245h-81z" />
    <glyph glyph-name="i" unicode="i" horiz-adv-x="254" 
d="M127 576q-25 0 -42 17t-17 41t17 41t42 17t42 -17t17 -41t-17 -41t-42 -17zM86 0v487h81v-487h-81z" />
    <glyph glyph-name="j" unicode="j" horiz-adv-x="232" 
d="M119 576q-25 0 -42 17t-17 41t17 41t42 17t42 -17t17 -41t-17 -41t-42 -17zM36 -204q-45 0 -84 17l14 72q24 -15 55 -15q59 0 59 80v537h81v-541q0 -150 -125 -150z" />
    <glyph glyph-name="k" unicode="k" horiz-adv-x="545" 
d="M320 280q59 -57 113.5 -133.5t85.5 -146.5h-90q-59 127 -166 231l-102 -112v-119h-81v736h81v-522l1 -1l246 274h100z" />
    <glyph glyph-name="l" unicode="l" horiz-adv-x="329" 
d="M216 -7q-71 0 -103.5 39t-32.5 118v586h81v-582q0 -89 68 -89q40 0 77 19l12 -69q-40 -22 -102 -22z" />
    <glyph glyph-name="m" unicode="m" horiz-adv-x="892" 
d="M80 0v487h81v-88h1q28 44 71 69t92 25q113 0 150 -104h2q28 49 75 76.5t103 27.5q82 0 125 -54.5t43 -158.5v-280h-81v258q0 161 -110 161q-59 0 -98 -48.5t-39 -128.5v-242h-81v258q0 78 -29 119.5t-84 41.5q-61 0 -100.5 -48.5t-39.5 -128.5v-242h-81z" />
    <glyph glyph-name="n" unicode="n" horiz-adv-x="583" 
d="M80 0v487h81v-88h1q61 94 177 94q81 0 127.5 -51.5t46.5 -152.5v-289h-80v266q0 153 -120 153q-70 0 -111 -47t-41 -129v-243h-81z" />
    <glyph glyph-name="o" unicode="o" horiz-adv-x="598" 
d="M299 -6q-112 0 -182 71t-70 178t70 178.5t182 71.5q109 0 180 -70t71 -180t-71 -179.5t-180 -69.5zM299 68q71 0 119.5 49t48.5 126t-48.5 126.5t-119.5 49.5q-75 0 -122 -51t-47 -125t47.5 -124.5t121.5 -50.5z" />
    <glyph glyph-name="p" unicode="p" horiz-adv-x="620" 
d="M80 -198v685h81v-86h1q59 92 173 92q103 0 170 -72t67 -181t-67.5 -177.5t-169.5 -68.5q-115 0 -173 90h-1v-282h-81zM324 68q73 0 119.5 49t46.5 123q0 79 -48 129t-119 50q-73 0 -119.5 -51.5t-46.5 -127.5t48 -124t119 -48z" />
    <glyph glyph-name="q" unicode="q" horiz-adv-x="617" 
d="M460 -198v282h-1q-58 -90 -173 -90q-102 0 -170 68.5t-68 177.5t67 181t170 72q116 0 174 -93h1v87h81v-685h-81zM297 68q70 0 118 48t48 124t-46.5 127.5t-118.5 51.5q-71 0 -119 -49.5t-48 -129.5q0 -74 46.5 -123t119.5 -49z" />
    <glyph glyph-name="r" unicode="r" horiz-adv-x="425" 
d="M80 0v487h81v-88h2q25 43 73 68.5t103 25.5q42 0 80 -14l-15 -78q-38 13 -89 13q-66 0 -110 -42.5t-44 -124.5v-247h-81z" />
    <glyph glyph-name="s" unicode="s" horiz-adv-x="455" 
d="M225 -6q-105 0 -185 47l36 69q79 -44 158 -44q104 0 104 64q0 33 -28.5 49.5t-93.5 31.5q-82 18 -125 51.5t-43 94.5t44 98.5t130 37.5q101 0 176 -46l-39 -65q-59 39 -132 39q-98 0 -98 -63q0 -28 27 -45t97 -33q87 -20 126.5 -52t39.5 -94q0 -140 -194 -140z" />
    <glyph glyph-name="t" unicode="t" horiz-adv-x="419" 
d="M252 -6q-79 0 -113.5 37.5t-34.5 114.5v271h-89v70h89v173l81 9v-182h188v-70h-188v-260q0 -47 17.5 -69.5t58.5 -22.5q53 0 98 28l30 -66q-54 -33 -137 -33z" />
    <glyph glyph-name="u" unicode="u" horiz-adv-x="568" 
d="M251 -6q-87 0 -135 50.5t-48 152.5v290h81v-267q0 -80 29.5 -116t89.5 -36q61 0 103.5 49.5t42.5 133.5v236h81v-487h-81v84h-2q-27 -43 -69.5 -66.5t-91.5 -23.5z" />
    <glyph glyph-name="v" unicode="v" horiz-adv-x="523" 
d="M223 0l-199 487h88l149 -387h2l149 387h86l-198 -487h-77z" />
    <glyph glyph-name="w" unicode="w" horiz-adv-x="767" 
d="M195 0l-166 487h84l121 -372h2l113 372h70l114 -372h2l121 372h83l-166 -487h-74l-115 361h-1l-116 -361h-72z" />
    <glyph glyph-name="x" unicode="x" horiz-adv-x="509" 
d="M30 0l177 247l-177 240h96l126 -178h2l128 178h95l-176 -241l178 -246h-92l-132 177h-1l-132 -177h-92z" />
    <glyph glyph-name="y" unicode="y" horiz-adv-x="525" 
d="M113 -204q-66 0 -116 35l32 67q38 -29 81 -29q36 0 58.5 26t46.5 88l12 31l-206 473h88l157 -377h2l148 377h85l-209 -519q-35 -87 -73 -129.5t-106 -42.5z" />
    <glyph glyph-name="z" unicode="z" horiz-adv-x="479" 
d="M40 0v59l282 355l-1 3h-266v70h379v-58l-284 -358v-1h296v-70h-406z" />
    <glyph glyph-name="braceleft" unicode="{" horiz-adv-x="338" 
d="M234 -144q-46 0 -77 30.5t-31 80.5v214q0 18 -1.5 27.5t-8.5 22t-24 18.5t-45 7v64q28 2 45 9t24 19.5t8.5 22t1.5 26.5v221q0 47 29.5 79t78.5 32h52v-57h-24q-31 0 -48 -20t-17 -48v-215q0 -44 -12.5 -67t-44.5 -32v-2q33 -9 45 -29.5t12 -70.5v-196q0 -41 15 -60
t50 -19h24v-57h-52z" />
    <glyph glyph-name="bar" unicode="|" horiz-adv-x="300" 
d="M114 -115v852h71v-852h-71z" />
    <glyph glyph-name="braceright" unicode="}" horiz-adv-x="338" 
d="M104 -144h-52v57h24q35 0 50 19t15 60v196q0 50 12 70.5t45 29.5v2q-32 9 -44.5 32t-12.5 67v215q0 28 -17 48t-48 20h-24v57h52q49 0 78.5 -32t29.5 -79v-221q0 -17 1.5 -26.5t8.5 -22t24 -19.5t45 -9v-64q-28 -1 -45 -7t-24 -18.5t-8.5 -22t-1.5 -27.5v-214
q0 -50 -31 -80.5t-77 -30.5z" />
    <glyph glyph-name="asciitilde" unicode="~" horiz-adv-x="565" 
d="M380 211q-9 0 -17 1t-17.5 3.5t-15.5 4t-16 5.5t-13.5 5.5t-15.5 7t-14 6.5q-41 22 -74 22q-49 0 -76 -52l-58 23q39 106 124 106q43 0 103 -28q52 -27 81 -27q48 0 73 52l58 -20q-17 -50 -50 -79.5t-72 -29.5z" />
    <glyph glyph-name="uni00A0" unicode="&#xa0;" horiz-adv-x="272" 
 />
    <glyph glyph-name="exclamdown" unicode="&#xa1;" horiz-adv-x="248" 
d="M128 493q25 0 42 -17t17 -42t-17 -42t-42 -17t-42.5 17t-17.5 42t17.5 42t42.5 17zM98 277h64l14 -527h-92z" />
    <glyph glyph-name="cent" unicode="&#xa2;" horiz-adv-x="545" 
d="M507 130q-61 -68 -171 -80v-103h-61v102q-100 9 -161.5 77t-61.5 171q0 102 61.5 170t161.5 78v106h61v-106q106 -10 169 -85l-55 -48q-56 61 -142 61q-77 0 -125 -49t-48 -126q0 -78 48 -127t125 -49q89 0 143 59z" />
    <glyph glyph-name="sterling" unicode="&#xa3;" horiz-adv-x="563" 
d="M47 0v79h79v248h-63v61h63v76q0 116 56 172t142 56q117 0 184 -94l-57 -55q-45 68 -117 68q-122 0 -122 -156v-67h168v-61h-167v-248h323v-79h-489z" />
    <glyph glyph-name="currency" unicode="&#xa4;" horiz-adv-x="505" 
d="M434 386q0 -60 -36 -109l77 -77l-39 -40l-77 78q-49 -35 -109 -35q-61 0 -108 36l-78 -78l-40 40l78 78q-35 48 -35 107q0 60 35 108l-78 79l40 39l78 -78q49 36 108 36t108 -36l78 79l40 -40l-78 -78q36 -51 36 -109zM250 264q51 0 87.5 36.5t36.5 86.5q-1 51 -37 87.5
t-87 36.5q-50 -1 -86.5 -37t-36.5 -86q1 -51 37 -87.5t86 -36.5z" />
    <glyph glyph-name="yen" unicode="&#xa5;" horiz-adv-x="560" 
d="M549 687l-190 -332h130v-60h-164l-1 -2v-70h165v-59h-165v-164h-87v164h-171v59h171v70l-1 2h-170v60h136l-189 332h100l167 -307h2l166 307h101z" />
    <glyph glyph-name="brokenbar" unicode="&#xa6;" horiz-adv-x="300" 
d="M114 385v352h72v-352h-72zM114 -114v353h72v-353h-72z" />
    <glyph glyph-name="section" unicode="&#xa7;" horiz-adv-x="540" 
d="M400 129q67 -43 67 -121q0 -76 -53.5 -118.5t-147.5 -42.5q-98 0 -190 50l31 78q82 -51 161 -51q48 0 79 22.5t31 62.5q0 36 -28 55.5t-95 44.5q-41 15 -63 24t-52 25t-45 32t-26.5 39.5t-11.5 52.5q0 90 86 128q-63 43 -63 119q0 70 50 114t141 44q101 0 179 -50
l-37 -67q-68 39 -139 39q-46 0 -75.5 -19.5t-29.5 -58.5q0 -27 17 -46.5t37 -29t63 -26.5q108 -42 136 -60q61 -39 61 -107q0 -92 -83 -133zM140 294q0 -38 31 -60.5t107 -50.5q34 -12 49 -19q34 8 53.5 29.5t19.5 51.5q0 21 -7.5 36t-28.5 28t-40 21t-61 24l-46 18
q-36 -7 -56.5 -27.5t-20.5 -50.5z" />
    <glyph glyph-name="dieresis" unicode="&#xa8;" horiz-adv-x="509" 
d="M164 561q-25 0 -41.5 17t-16.5 41q0 23 16.5 39.5t41.5 16.5q24 0 41 -17t17 -40t-17 -40t-41 -17zM345 561q-24 0 -41 17t-17 41q0 23 17 39.5t41 16.5t41 -17t17 -40t-17 -40t-41 -17z" />
    <glyph glyph-name="copyright" unicode="&#xa9;" horiz-adv-x="703" 
d="M351 12q-127 0 -215.5 90.5t-88.5 215.5t89 215.5t216 90.5t215 -90t88 -216q0 -125 -88.5 -215.5t-215.5 -90.5zM351 69q103 0 174.5 73.5t71.5 175.5q0 103 -71 176t-174 73q-104 0 -175.5 -73.5t-71.5 -176.5q0 -102 71.5 -175t174.5 -73zM358 153q-70 0 -116 43
t-46 120q0 71 43 117.5t119 46.5q77 0 128 -62l-39 -33q-35 45 -89 45q-49 0 -78.5 -31.5t-29.5 -82.5q0 -52 30 -82t78 -30q56 0 89 43l39 -33q-50 -61 -128 -61z" />
    <glyph glyph-name="ordfeminine" unicode="&#xaa;" horiz-adv-x="422" 
d="M187 390q-64 0 -104 41.5t-40 108.5q0 65 39.5 108t101.5 43q68 0 110 -53h1v49h60v-292h-60v44h-2q-38 -49 -106 -49zM201 447q39 0 66 25.5t27 67.5q0 40 -26.5 67.5t-66.5 27.5q-41 0 -69 -27t-28 -68q0 -40 27 -66.5t70 -26.5z" />
    <glyph glyph-name="guillemotleft" unicode="&#xab;" horiz-adv-x="476" 
d="M246 26h-81l-124 219l126 221h80l-125 -221zM423 26h-81l-124 219l125 221h81l-125 -221z" />
    <glyph glyph-name="logicalnot" unicode="&#xac;" horiz-adv-x="565" 
d="M432 164v158h-373v73h446v-231h-73z" />
    <glyph glyph-name="registered" unicode="&#xae;" horiz-adv-x="703" 
d="M352 624q127 0 215 -90t88 -216q0 -125 -88.5 -215.5t-215.5 -90.5t-215.5 90.5t-88.5 215.5t89 215.5t216 90.5zM351 69q103 0 174.5 73.5t71.5 175.5q0 103 -71 176t-174 73q-104 0 -175.5 -73.5t-71.5 -176.5q0 -102 71.5 -175t174.5 -73zM471 380q0 -78 -71 -97
l86 -125h-60l-82 120h-47v-120h-51v324h117q54 0 81 -28t27 -74zM297 434v-109h54q67 0 67 56q0 24 -16.5 38.5t-46.5 14.5h-58z" />
    <glyph glyph-name="macron" unicode="&#xaf;" horiz-adv-x="457" 
d="M85 580v69h288v-69h-288z" />
    <glyph glyph-name="degree" unicode="&#xb0;" horiz-adv-x="395" 
d="M197 445q-56 0 -97 40t-41 95q0 56 41.5 96.5t96.5 40.5q56 0 97.5 -40.5t41.5 -97.5q0 -55 -41 -94.5t-98 -39.5zM197 501q34 0 57.5 23t23.5 56t-24.5 57t-56.5 24t-56 -24t-24 -57t23.5 -56t56.5 -23z" />
    <glyph glyph-name="plusminus" unicode="&#xb1;" horiz-adv-x="591" 
d="M261 160v196h-197v75h197v197h75v-197h196v-75h-196v-196h-75zM63 0v75h469v-75h-469z" />
    <glyph glyph-name="uni00B2" unicode="&#xb2;" horiz-adv-x="340" 
d="M26 436l-1 47l143 137q63 60 63 102q0 30 -19.5 48t-54.5 18q-51 0 -103 -43l-33 58q69 50 141 50q66 0 103.5 -33.5t37.5 -92.5q0 -68 -80 -139l-95 -87l1 -2h179v-63h-282z" />
    <glyph glyph-name="uni00B3" unicode="&#xb3;" horiz-adv-x="347" 
d="M170 430q-88 0 -147 43l32 59q48 -39 110 -39q82 0 82 63q0 66 -95 66h-29v54h36q40 0 61 17t21 41q0 26 -19 41t-56 15q-58 0 -101 -34l-31 56q66 41 138 41q61 0 98 -28.5t37 -79.5q0 -66 -64 -93v-2q75 -24 75 -103q0 -53 -37 -85t-111 -32z" />
    <glyph glyph-name="acute" unicode="&#xb4;" horiz-adv-x="505" 
d="M164 541l118 141l91 1l-124 -142h-85z" />
    <glyph glyph-name="uni00B5" unicode="&#xb5;" horiz-adv-x="577" 
d="M76 -198v685h81v-258q0 -161 124 -161q61 0 100.5 48t39.5 128v243h81v-487h-74l-5 84h-2q-57 -90 -156 -90q-76 0 -110 54l-3 -1q5 -58 5 -108v-137h-81z" />
    <glyph glyph-name="paragraph" unicode="&#xb6;" horiz-adv-x="475" 
d="M326 -150v746h-62v-596h-54v351q-73 3 -118 42t-45 107q0 71 46 112t127 41h159v-803h-53z" />
    <glyph glyph-name="periodcentered" unicode="&#xb7;" horiz-adv-x="234" 
d="M120 184q-25 0 -42.5 17t-17.5 42t17.5 42t42.5 17t42 -17t17 -42t-17 -42t-42 -17z" />
    <glyph glyph-name="cedilla" unicode="&#xb8;" horiz-adv-x="385" 
d="M167 -188q-26 0 -56 6v44q21 -7 48 -7q23 0 39.5 9.5t16.5 27.5t-21.5 30t-61.5 12l1 30l19 42h51l-17 -37v-2q40 -2 64 -22.5t24 -56.5q0 -34 -27 -55t-80 -21z" />
    <glyph glyph-name="uni00B9" unicode="&#xb9;" horiz-adv-x="264" 
d="M131 436v325l-79 -54l-34 53l128 88h54v-412h-69z" />
    <glyph glyph-name="ordmasculine" unicode="&#xba;" horiz-adv-x="402" 
d="M197 390q-68 0 -111 42.5t-43 108.5q0 65 43 107.5t111 42.5q67 0 111 -42t44 -108q0 -67 -44 -109t-111 -42zM197 446q39 0 65.5 27t26.5 68t-26.5 68t-65.5 27q-40 0 -65.5 -27.5t-25.5 -67.5t25.5 -67.5t65.5 -27.5z" />
    <glyph glyph-name="guillemotright" unicode="&#xbb;" horiz-adv-x="476" 
d="M53 26l124 219l-125 221h81l125 -221l-124 -219h-81zM230 26l124 219l-125 221h80l126 -221l-124 -219h-81z" />
    <glyph glyph-name="onequarter" unicode="&#xbc;" horiz-adv-x="772" 
d="M496 722l67 -28l-311 -711l-66 28zM200 299h-69v325l-79 -54l-34 53l128 88h54v-412zM687 138h62v-60h-62v-78h-68v78h-197v45l211 289h54v-274zM492 133h136v186z" />
    <glyph glyph-name="onehalf" unicode="&#xbd;" horiz-adv-x="802" 
d="M252 -17l-66 28l310 711l67 -28zM131 299v325l-79 -54l-34 53l128 88h54v-412h-69zM488 0l-1 47l143 137q63 60 63 102q0 30 -19.5 48t-54.5 18q-51 0 -103 -43l-33 58q69 50 141 50q66 0 103.5 -33.5t37.5 -92.5q0 -68 -80 -139l-95 -87l1 -2h179v-63h-282z" />
    <glyph glyph-name="threequarters" unicode="&#xbe;" horiz-adv-x="837" 
d="M561 722l67 -28l-311 -711l-66 28zM318 410q0 -53 -37 -85t-111 -32q-88 0 -147 43l32 59q48 -39 110 -39q82 0 82 63q0 66 -95 66h-29v54h36q40 0 61 17t21 41q0 26 -19 41t-56 15q-58 0 -101 -34l-31 56q66 41 138 41q61 0 98 -28.5t37 -79.5q0 -66 -64 -93v-2
q75 -24 75 -103zM752 138h62v-60h-62v-78h-68v78h-197v45l211 289h54v-274zM557 133h136v186z" />
    <glyph glyph-name="questiondown" unicode="&#xbf;" horiz-adv-x="424" 
d="M250 493q25 0 42.5 -17t17.5 -42t-17.5 -42t-42.5 -17t-42 17t-17 42t17 42t42 17zM289 279v-54q0 -29 -16.5 -59.5t-28 -43t-45.5 -48.5q-23 -24 -36 -41.5t-24.5 -44.5t-11.5 -54q0 -51 32.5 -80.5t80.5 -29.5q35 0 69 18.5t55 50.5l61 -57q-71 -93 -191 -93
q-84 0 -140.5 51t-56.5 136q0 54 24 96t66 84q6 6 21 20.5t21 21t17 18.5t15.5 20t9 18.5t4.5 20.5l2 50h72z" />
    <glyph glyph-name="Agrave" unicode="&#xc0;" horiz-adv-x="679" 
d="M304 782l-122 129h92l112 -129h-82zM26 0l269 710h87l270 -710h-91l-64 173h-316l-63 -173h-92zM208 249h262l-130 356h-2z" />
    <glyph glyph-name="Aacute" unicode="&#xc1;" horiz-adv-x="679" 
d="M296 782l112 129h93l-122 -129h-83zM26 0l269 710h87l270 -710h-91l-64 173h-316l-63 -173h-92zM208 249h262l-130 356h-2z" />
    <glyph glyph-name="Acircumflex" unicode="&#xc2;" horiz-adv-x="679" 
d="M181 782l116 124h85l113 -124h-81l-74 78h-2l-74 -78h-83zM26 0l269 710h87l270 -710h-91l-64 173h-316l-63 -173h-92zM208 249h262l-130 356h-2z" />
    <glyph glyph-name="Atilde" unicode="&#xc3;" horiz-adv-x="679" 
d="M417 782q-35 0 -85 33q-41 25 -63 25q-35 0 -58 -55l-52 22q32 94 104 94q36 0 85 -30q4 -2 12.5 -7.5t13 -8t12 -6t13.5 -5t13 -1.5q34 0 54 55l52 -17q-30 -99 -101 -99zM26 0l269 710h87l270 -710h-91l-64 173h-316l-63 -173h-92zM208 249h262l-130 356h-2z" />
    <glyph glyph-name="Adieresis" unicode="&#xc4;" horiz-adv-x="679" 
d="M249 793q-25 0 -41.5 17t-16.5 41q0 23 16.5 39.5t41.5 16.5q24 0 41 -17t17 -40t-17 -40t-41 -17zM430 793q-24 0 -41 17t-17 41q0 23 17 39.5t41 16.5t41 -17t17 -40t-17 -40t-41 -17zM26 0l269 710h87l270 -710h-91l-64 173h-316l-63 -173h-92zM208 249h262l-130 356
h-2z" />
    <glyph glyph-name="Aring" unicode="&#xc5;" horiz-adv-x="679" 
d="M338 760q-39 0 -67 27.5t-28 66.5t27.5 66.5t67.5 27.5q41 0 69 -27t28 -67q0 -38 -28 -66t-69 -28zM338 813q19 0 31.5 12.5t12.5 29.5t-12.5 29.5t-31.5 12.5q-17 0 -29.5 -12.5t-12.5 -29.5q0 -18 12.5 -30t29.5 -12zM26 0l269 710h87l270 -710h-91l-64 173h-316
l-63 -173h-92zM208 249h262l-130 356h-2z" />
    <glyph glyph-name="AE" unicode="&#xc6;" horiz-adv-x="953" 
d="M9 0l374 710h512v-79h-374v-238h341v-79h-341v-235h388v-79h-475v173h-243l-91 -173h-91zM231 249h203v388h-2z" />
    <glyph glyph-name="Ccedilla" unicode="&#xc7;" horiz-adv-x="721" 
d="M414 -6l-11 -25v-2q40 -2 64 -22.5t24 -56.5q0 -34 -27 -55t-80 -21q-26 0 -56 6v44q21 -7 48 -7q23 0 39.5 9.5t16.5 27.5t-21.5 30t-61.5 12l1 30l15 33q-138 15 -221.5 110t-83.5 246q0 157 95 260.5t264 103.5q163 0 269 -114l-58 -65q-86 96 -217 96
q-119 0 -190.5 -78.5t-71.5 -202.5q0 -125 73 -200.5t196 -75.5q131 0 218 81l45 -72q-94 -92 -269 -92z" />
    <glyph glyph-name="Egrave" unicode="&#xc8;" horiz-adv-x="632" 
d="M348 782l-122 129h92l112 -129h-82zM92 0v710h473v-79h-386v-238h353v-79h-353v-235h399v-79h-486z" />
    <glyph glyph-name="Eacute" unicode="&#xc9;" horiz-adv-x="632" 
d="M245 782l112 129h93l-122 -129h-83zM92 0v710h473v-79h-386v-238h353v-79h-353v-235h399v-79h-486z" />
    <glyph glyph-name="Ecircumflex" unicode="&#xca;" horiz-adv-x="632" 
d="M177 782l116 124h85l113 -124h-81l-74 78h-2l-74 -78h-83zM92 0v710h473v-79h-386v-238h353v-79h-353v-235h399v-79h-486z" />
    <glyph glyph-name="Edieresis" unicode="&#xcb;" horiz-adv-x="632" 
d="M245 793q-25 0 -41.5 17t-16.5 41q0 23 16.5 39.5t41.5 16.5q24 0 41 -17t17 -40t-17 -40t-41 -17zM426 793q-24 0 -41 17t-17 41q0 23 17 39.5t41 16.5t41 -17t17 -40t-17 -40t-41 -17zM92 0v710h473v-79h-386v-238h353v-79h-353v-235h399v-79h-486z" />
    <glyph glyph-name="Igrave" unicode="&#xcc;" horiz-adv-x="282" 
d="M101 782l-122 129h92l112 -129h-82zM97 0v710h87v-710h-87z" />
    <glyph glyph-name="Iacute" unicode="&#xcd;" horiz-adv-x="277" 
d="M100 782l112 129h93l-122 -129h-83zM97 0v710h87v-710h-87z" />
    <glyph glyph-name="Icircumflex" unicode="&#xce;" horiz-adv-x="282" 
d="M-18 782l116 124h85l113 -124h-81l-74 78h-2l-74 -78h-83zM97 0v710h87v-710h-87z" />
    <glyph glyph-name="Idieresis" unicode="&#xcf;" horiz-adv-x="282" 
d="M50 793q-25 0 -41.5 17t-16.5 41q0 23 16.5 39.5t41.5 16.5q24 0 41 -17t17 -40t-17 -40t-41 -17zM231 793q-24 0 -41 17t-17 41q0 23 17 39.5t41 16.5t41 -17t17 -40t-17 -40t-41 -17zM97 0v710h87v-710h-87z" />
    <glyph glyph-name="Eth" unicode="&#xd0;" horiz-adv-x="733" 
d="M304 710q167 0 268 -98.5t101 -257.5t-99 -256.5t-267 -97.5h-215v316h-70v77h70v317h212zM302 79q128 0 204.5 76.5t76.5 198.5t-77 199.5t-201 77.5h-126v-238h190v-77h-190v-237h123z" />
    <glyph glyph-name="Ntilde" unicode="&#xd1;" horiz-adv-x="769" 
d="M457 782q-35 0 -85 33q-41 25 -63 25q-35 0 -58 -55l-52 22q32 94 104 94q36 0 85 -30q4 -2 12.5 -7.5t13 -8t12 -6t13.5 -5t13 -1.5q34 0 54 55l52 -17q-30 -99 -101 -99zM92 0v710h83l413 -567h2v567h87v-710h-86l-411 562h-2v-562h-86z" />
    <glyph glyph-name="Ograve" unicode="&#xd2;" horiz-adv-x="831" 
d="M393 782l-122 129h92l112 -129h-82zM416 -6q-155 0 -255.5 101.5t-100.5 259.5t100.5 260t255.5 102q152 0 253.5 -101t101.5 -261t-101.5 -260.5t-253.5 -100.5zM416 76q112 0 188 78.5t76 200.5t-76 201t-188 79q-115 0 -190.5 -79.5t-75.5 -200.5q0 -120 75.5 -199.5
t190.5 -79.5z" />
    <glyph glyph-name="Oacute" unicode="&#xd3;" horiz-adv-x="831" 
d="M364 782l112 129h93l-122 -129h-83zM416 -6q-155 0 -255.5 101.5t-100.5 259.5t100.5 260t255.5 102q152 0 253.5 -101t101.5 -261t-101.5 -260.5t-253.5 -100.5zM416 76q112 0 188 78.5t76 200.5t-76 201t-188 79q-115 0 -190.5 -79.5t-75.5 -200.5q0 -120 75.5 -199.5
t190.5 -79.5z" />
    <glyph glyph-name="Ocircumflex" unicode="&#xd4;" horiz-adv-x="831" 
d="M259 782l116 124h85l113 -124h-81l-74 78h-2l-74 -78h-83zM416 -6q-155 0 -255.5 101.5t-100.5 259.5t100.5 260t255.5 102q152 0 253.5 -101t101.5 -261t-101.5 -260.5t-253.5 -100.5zM416 76q112 0 188 78.5t76 200.5t-76 201t-188 79q-115 0 -190.5 -79.5
t-75.5 -200.5q0 -120 75.5 -199.5t190.5 -79.5z" />
    <glyph glyph-name="Otilde" unicode="&#xd5;" horiz-adv-x="831" 
d="M495 782q-35 0 -85 33q-41 25 -63 25q-35 0 -58 -55l-52 22q32 94 104 94q36 0 85 -30q4 -2 12.5 -7.5t13 -8t12 -6t13.5 -5t13 -1.5q34 0 54 55l52 -17q-30 -99 -101 -99zM416 -6q-155 0 -255.5 101.5t-100.5 259.5t100.5 260t255.5 102q152 0 253.5 -101t101.5 -261
t-101.5 -260.5t-253.5 -100.5zM416 76q112 0 188 78.5t76 200.5t-76 201t-188 79q-115 0 -190.5 -79.5t-75.5 -200.5q0 -120 75.5 -199.5t190.5 -79.5z" />
    <glyph glyph-name="Odieresis" unicode="&#xd6;" horiz-adv-x="831" 
d="M327 793q-25 0 -41.5 17t-16.5 41q0 23 16.5 39.5t41.5 16.5q24 0 41 -17t17 -40t-17 -40t-41 -17zM508 793q-24 0 -41 17t-17 41q0 23 17 39.5t41 16.5t41 -17t17 -40t-17 -40t-41 -17zM416 -6q-155 0 -255.5 101.5t-100.5 259.5t100.5 260t255.5 102q152 0 253.5 -101
t101.5 -261t-101.5 -260.5t-253.5 -100.5zM416 76q112 0 188 78.5t76 200.5t-76 201t-188 79q-115 0 -190.5 -79.5t-75.5 -200.5q0 -120 75.5 -199.5t190.5 -79.5z" />
    <glyph glyph-name="multiply" unicode="&#xd7;" horiz-adv-x="514" 
d="M109 77l-53 51l149 149l-149 148l52 53l148 -149l149 149l53 -52l-149 -150l148 -148l-52 -51l-149 148z" />
    <glyph glyph-name="Oslash" unicode="&#xd8;" horiz-adv-x="829" 
d="M773 684l-83 -89q82 -98 82 -240q0 -160 -101.5 -260.5t-253.5 -100.5q-125 0 -218 69l-82 -89l-52 47l83 89q-87 100 -87 245q0 158 100.5 260t255.5 102q130 0 224 -75l81 87zM151 355q0 -104 58 -179l373 402q-71 57 -165 57q-115 0 -190.5 -79.5t-75.5 -200.5z
M681 355q0 100 -53 173l-369 -401q69 -51 158 -51q112 0 188 78.5t76 200.5z" />
    <glyph glyph-name="Ugrave" unicode="&#xd9;" horiz-adv-x="714" 
d="M337 782l-122 129h92l112 -129h-82zM357 -6q-126 0 -200.5 72.5t-74.5 212.5v431h87v-425q0 -99 50.5 -154t137.5 -55q85 0 137 53.5t52 155.5v425h87v-431q0 -139 -74 -212t-202 -73z" />
    <glyph glyph-name="Uacute" unicode="&#xda;" horiz-adv-x="714" 
d="M289 782l112 129h93l-122 -129h-83zM357 -6q-126 0 -200.5 72.5t-74.5 212.5v431h87v-425q0 -99 50.5 -154t137.5 -55q85 0 137 53.5t52 155.5v425h87v-431q0 -139 -74 -212t-202 -73z" />
    <glyph glyph-name="Ucircumflex" unicode="&#xdb;" horiz-adv-x="714" 
d="M199 782l116 124h85l113 -124h-81l-74 78h-2l-74 -78h-83zM357 -6q-126 0 -200.5 72.5t-74.5 212.5v431h87v-425q0 -99 50.5 -154t137.5 -55q85 0 137 53.5t52 155.5v425h87v-431q0 -139 -74 -212t-202 -73z" />
    <glyph glyph-name="Udieresis" unicode="&#xdc;" horiz-adv-x="714" 
d="M267 793q-25 0 -41.5 17t-16.5 41q0 23 16.5 39.5t41.5 16.5q24 0 41 -17t17 -40t-17 -40t-41 -17zM448 793q-24 0 -41 17t-17 41q0 23 17 39.5t41 16.5t41 -17t17 -40t-17 -40t-41 -17zM357 -6q-126 0 -200.5 72.5t-74.5 212.5v431h87v-425q0 -99 50.5 -154t137.5 -55
q85 0 137 53.5t52 155.5v425h87v-431q0 -139 -74 -212t-202 -73z" />
    <glyph glyph-name="Yacute" unicode="&#xdd;" horiz-adv-x="603" 
d="M250 782l112 129h93l-122 -129h-83zM257 0v317l-241 393h100l184 -308h2l183 308h102l-243 -393v-317h-87z" />
    <glyph glyph-name="Thorn" unicode="&#xde;" horiz-adv-x="638" 
d="M92 0v710h87v-140h181q119 0 176.5 -60t57.5 -160q0 -108 -67 -162.5t-183 -54.5h-165v-133h-87zM179 211h159q84 0 125 38.5t41 102.5q0 67 -40.5 103t-113.5 36h-171v-280z" />
    <glyph glyph-name="germandbls" unicode="&#xdf;" horiz-adv-x="613" 
d="M249 -6v73h84q68 0 113.5 43t45.5 112q0 66 -46.5 113.5t-124.5 47.5h-47v70h43q40 0 68.5 12t41 30.5t17.5 34.5t5 31q0 47 -37 77.5t-107 30.5q-74 0 -109 -41.5t-35 -133.5v-494h-81v492q0 251 226 251q105 0 164 -48.5t59 -126.5q0 -40 -20.5 -78.5t-69.5 -60.5v-2
q63 -25 99 -81.5t36 -125.5q0 -106 -66 -166t-171 -60h-88z" />
    <glyph glyph-name="agrave" unicode="&#xe0;" horiz-adv-x="548" 
d="M341 558h-82l-121 138l92 -1zM528 67l5 -65q-21 -7 -49 -7q-40 0 -66 19t-35 52h-2q-26 -33 -72 -53t-98 -20q-77 0 -121.5 38.5t-44.5 106.5q0 152 189 152h138v6q0 62 -28.5 93.5t-94.5 31.5q-72 0 -150 -32l-24 67q87 37 186 37t143.5 -51.5t44.5 -152.5v-157
q0 -69 47 -69q14 0 32 4zM225 63q57 0 101.5 30.5t44.5 71.5v64h-129q-54 0 -84.5 -22t-30.5 -62q0 -36 23.5 -59t74.5 -23z" />
    <glyph glyph-name="aacute" unicode="&#xe1;" horiz-adv-x="548" 
d="M409 696l-124 -142h-85l118 141zM528 67l5 -65q-21 -7 -49 -7q-40 0 -66 19t-35 52h-2q-26 -33 -72 -53t-98 -20q-77 0 -121.5 38.5t-44.5 106.5q0 152 189 152h138v6q0 62 -28.5 93.5t-94.5 31.5q-72 0 -150 -32l-24 67q87 37 186 37t143.5 -51.5t44.5 -152.5v-157
q0 -69 47 -69q14 0 32 4zM225 63q57 0 101.5 30.5t44.5 71.5v64h-129q-54 0 -84.5 -22t-30.5 -62q0 -36 23.5 -59t74.5 -23z" />
    <glyph glyph-name="acircumflex" unicode="&#xe2;" horiz-adv-x="548" 
d="M270 645l-73 -89h-83l115 140h85l111 -140h-81l-72 89h-2zM528 67l5 -65q-21 -7 -49 -7q-40 0 -66 19t-35 52h-2q-26 -33 -72 -53t-98 -20q-77 0 -121.5 38.5t-44.5 106.5q0 152 189 152h138v6q0 62 -28.5 93.5t-94.5 31.5q-72 0 -150 -32l-24 67q87 37 186 37
t143.5 -51.5t44.5 -152.5v-157q0 -69 47 -69q14 0 32 4zM225 63q57 0 101.5 30.5t44.5 71.5v64h-129q-54 0 -84.5 -22t-30.5 -62q0 -36 23.5 -59t74.5 -23z" />
    <glyph glyph-name="atilde" unicode="&#xe3;" horiz-adv-x="548" 
d="M202 622q-39 0 -60 -56l-52 23q31 98 104 98q38 0 81 -29l12 -8t13.5 -8.5t11.5 -6t13.5 -5t13.5 -1.5q38 0 58 55l51 -17q-13 -50 -40 -77.5t-60 -27.5q-35 0 -88 36q-37 24 -58 24zM528 67l5 -65q-21 -7 -49 -7q-40 0 -66 19t-35 52h-2q-26 -33 -72 -53t-98 -20
q-77 0 -121.5 38.5t-44.5 106.5q0 152 189 152h138v6q0 62 -28.5 93.5t-94.5 31.5q-72 0 -150 -32l-24 67q87 37 186 37t143.5 -51.5t44.5 -152.5v-157q0 -69 47 -69q14 0 32 4zM225 63q57 0 101.5 30.5t44.5 71.5v64h-129q-54 0 -84.5 -22t-30.5 -62q0 -36 23.5 -59
t74.5 -23z" />
    <glyph glyph-name="adieresis" unicode="&#xe4;" horiz-adv-x="548" 
d="M179 577q-25 0 -41.5 17t-16.5 41q0 23 16.5 39.5t41.5 16.5q24 0 41 -17t17 -40t-17 -40t-41 -17zM360 577q-24 0 -41 17t-17 41q0 23 17 39.5t41 16.5t41 -17t17 -40t-17 -40t-41 -17zM528 67l5 -65q-21 -7 -49 -7q-40 0 -66 19t-35 52h-2q-26 -33 -72 -53t-98 -20
q-77 0 -121.5 38.5t-44.5 106.5q0 152 189 152h138v6q0 62 -28.5 93.5t-94.5 31.5q-72 0 -150 -32l-24 67q87 37 186 37t143.5 -51.5t44.5 -152.5v-157q0 -69 47 -69q14 0 32 4zM225 63q57 0 101.5 30.5t44.5 71.5v64h-129q-54 0 -84.5 -22t-30.5 -62q0 -36 23.5 -59
t74.5 -23z" />
    <glyph glyph-name="aring" unicode="&#xe5;" horiz-adv-x="548" 
d="M269 545q-39 0 -67 27.5t-28 66.5t27.5 66.5t67.5 27.5q41 0 69 -27t28 -67q0 -38 -28 -66t-69 -28zM269 682q-17 0 -29.5 -12.5t-12.5 -29.5q0 -18 12.5 -30t29.5 -12q19 0 31.5 12.5t12.5 29.5t-12.5 29.5t-31.5 12.5zM528 67l5 -65q-21 -7 -49 -7q-40 0 -66 19t-35 52
h-2q-26 -33 -72 -53t-98 -20q-77 0 -121.5 38.5t-44.5 106.5q0 152 189 152h138v6q0 62 -28.5 93.5t-94.5 31.5q-72 0 -150 -32l-24 67q87 37 186 37t143.5 -51.5t44.5 -152.5v-157q0 -69 47 -69q14 0 32 4zM225 63q57 0 101.5 30.5t44.5 71.5v64h-129q-54 0 -84.5 -22
t-30.5 -62q0 -36 23.5 -59t74.5 -23z" />
    <glyph glyph-name="ae" unicode="&#xe6;" horiz-adv-x="832" 
d="M801 254q0 -26 -2 -34h-368q7 -74 53.5 -114t125.5 -40q86 0 143 41l38 -64q-70 -49 -181 -49q-147 0 -209 100h-2q-22 -49 -74.5 -75t-121.5 -26q-81 1 -127 40.5t-46 104.5q0 71 47 110t142 39h136v9q0 62 -28.5 93.5t-95.5 31.5q-69 0 -146 -32l-24 67q84 37 175 37
q133 0 171 -99h2q58 99 179 99q102 0 157.5 -66t55.5 -173zM586 419q-60 0 -101 -37.5t-52 -98.5h289q-13 136 -136 136zM211 64q61 0 102 29.5t41 71.5v60h-127q-54 0 -84.5 -21.5t-30.5 -59.5q0 -35 24 -57.5t75 -22.5z" />
    <glyph glyph-name="ccedilla" unicode="&#xe7;" horiz-adv-x="520" 
d="M288 -33q40 -2 64 -22.5t24 -56.5q0 -34 -27 -55t-80 -21q-26 0 -56 6v44q21 -7 48 -7q23 0 39.5 9.5t16.5 27.5t-21.5 30t-61.5 12l1 30l15 34q-97 15 -150 79.5t-53 164.5q0 112 68 181.5t181 69.5t191 -67l-47 -62q-66 55 -144 55q-74 0 -120 -49t-46 -128t46.5 -127
t135.5 -48q82 0 137 45l40 -66q-64 -52 -184 -52h-5l-12 -25v-2z" />
    <glyph glyph-name="egrave" unicode="&#xe8;" horiz-adv-x="551" 
d="M352 558h-82l-121 138l92 -1zM510 254q0 -25 -2 -35h-379q7 -72 55 -112.5t129 -40.5q92 0 149 41l38 -64q-70 -49 -193 -49q-124 0 -192 67.5t-68 181.5q0 110 67.5 180t173.5 70q107 0 164.5 -66t57.5 -173zM286 419q-59 0 -101 -37t-53 -97h298q-8 64 -44.5 99
t-99.5 35z" />
    <glyph glyph-name="eacute" unicode="&#xe9;" horiz-adv-x="551" 
d="M445 699l-124 -142h-85l118 141zM510 254q0 -25 -2 -35h-379q7 -72 55 -112.5t129 -40.5q92 0 149 41l38 -64q-70 -49 -193 -49q-124 0 -192 67.5t-68 181.5q0 110 67.5 180t173.5 70q107 0 164.5 -66t57.5 -173zM286 419q-59 0 -101 -37t-53 -97h298q-8 64 -44.5 99
t-99.5 35z" />
    <glyph glyph-name="ecircumflex" unicode="&#xea;" horiz-adv-x="551" 
d="M289 645l-73 -89h-83l115 140h85l111 -140h-81l-72 89h-2zM510 254q0 -25 -2 -35h-379q7 -72 55 -112.5t129 -40.5q92 0 149 41l38 -64q-70 -49 -193 -49q-124 0 -192 67.5t-68 181.5q0 110 67.5 180t173.5 70q107 0 164.5 -66t57.5 -173zM286 419q-59 0 -101 -37
t-53 -97h298q-8 64 -44.5 99t-99.5 35z" />
    <glyph glyph-name="edieresis" unicode="&#xeb;" horiz-adv-x="551" 
d="M198 577q-25 0 -41.5 17t-16.5 41q0 23 16.5 39.5t41.5 16.5q24 0 41 -17t17 -40t-17 -40t-41 -17zM379 577q-24 0 -41 17t-17 41q0 23 17 39.5t41 16.5t41 -17t17 -40t-17 -40t-41 -17zM510 254q0 -25 -2 -35h-379q7 -72 55 -112.5t129 -40.5q92 0 149 41l38 -64
q-70 -49 -193 -49q-124 0 -192 67.5t-68 181.5q0 110 67.5 180t173.5 70q107 0 164.5 -66t57.5 -173zM286 419q-59 0 -101 -37t-53 -97h298q-8 64 -44.5 99t-99.5 35z" />
    <glyph glyph-name="igrave" unicode="&#xec;" horiz-adv-x="254" 
d="M83 557l-90 142l91 -1l83 -141h-84zM86 0v487h81v-487h-81z" />
    <glyph glyph-name="iacute" unicode="&#xed;" horiz-adv-x="246" 
d="M89 557l118 141l91 1l-124 -142h-85zM86 0v487h81v-487h-81z" />
    <glyph glyph-name="icircumflex" unicode="&#xee;" horiz-adv-x="254" 
d="M-29 556l115 140h85l111 -140h-81l-72 89h-2l-73 -89h-83zM86 0v487h81v-487h-81z" />
    <glyph glyph-name="idieresis" unicode="&#xef;" horiz-adv-x="254" 
d="M36 577q-25 0 -41.5 17t-16.5 41q0 23 16.5 39.5t41.5 16.5q24 0 41 -17t17 -40t-17 -40t-41 -17zM217 577q-24 0 -41 17t-17 41q0 23 17 39.5t41 16.5t41 -17t17 -40t-17 -40t-41 -17zM86 0v487h81v-487h-81z" />
    <glyph glyph-name="eth" unicode="&#xf0;" horiz-adv-x="588" 
d="M434 564q109 -135 109 -302q0 -126 -68.5 -197t-182.5 -71q-105 0 -176 68t-71 173q0 107 65.5 176.5t160.5 69.5q105 0 168 -70l1 2q-24 58 -65 107q-20 25 -57 58l-51 -60l-54 40l51 60q-51 35 -122 62l32 60q70 -23 137 -66l67 80l55 -38l-69 -82q35 -28 70 -70z
M292 68q74 0 121 49.5t47 125.5q0 71 -48 118t-119 47q-72 0 -119 -49t-47 -119q0 -75 47.5 -123.5t117.5 -48.5z" />
    <glyph glyph-name="ntilde" unicode="&#xf1;" horiz-adv-x="583" 
d="M373 562q-35 0 -88 36q-37 24 -58 24q-39 0 -60 -56l-52 23q31 98 104 98q38 0 81 -29l12 -8t13.5 -8.5t11.5 -6t13.5 -5t13.5 -1.5q38 0 58 55l51 -17q-13 -50 -40 -77.5t-60 -27.5zM80 0v487h81v-88h1q61 94 177 94q81 0 127.5 -51.5t46.5 -152.5v-289h-80v266
q0 153 -120 153q-70 0 -111 -47t-41 -129v-243h-81z" />
    <glyph glyph-name="ograve" unicode="&#xf2;" horiz-adv-x="598" 
d="M274 558l-121 138l92 -1l111 -137h-82zM299 -6q-112 0 -182 71t-70 178t70 178.5t182 71.5q109 0 180 -70t71 -180t-71 -179.5t-180 -69.5zM299 68q71 0 119.5 49t48.5 126t-48.5 126.5t-119.5 49.5q-75 0 -122 -51t-47 -125t47.5 -124.5t121.5 -50.5z" />
    <glyph glyph-name="oacute" unicode="&#xf3;" horiz-adv-x="598" 
d="M252 557l118 141l91 1l-124 -142h-85zM299 -6q-112 0 -182 71t-70 178t70 178.5t182 71.5q109 0 180 -70t71 -180t-71 -179.5t-180 -69.5zM299 68q71 0 119.5 49t48.5 126t-48.5 126.5t-119.5 49.5q-75 0 -122 -51t-47 -125t47.5 -124.5t121.5 -50.5z" />
    <glyph glyph-name="ocircumflex" unicode="&#xf4;" horiz-adv-x="598" 
d="M143 556l115 140h85l111 -140h-81l-72 89h-2l-73 -89h-83zM299 -6q-112 0 -182 71t-70 178t70 178.5t182 71.5q109 0 180 -70t71 -180t-71 -179.5t-180 -69.5zM299 68q71 0 119.5 49t48.5 126t-48.5 126.5t-119.5 49.5q-75 0 -122 -51t-47 -125t47.5 -124.5t121.5 -50.5z
" />
    <glyph glyph-name="otilde" unicode="&#xf5;" horiz-adv-x="598" 
d="M377 562q-35 0 -88 36q-37 24 -58 24q-39 0 -60 -56l-52 23q31 98 104 98q38 0 81 -29l12 -8t13.5 -8.5t11.5 -6t13.5 -5t13.5 -1.5q38 0 58 55l51 -17q-13 -50 -40 -77.5t-60 -27.5zM299 -6q-112 0 -182 71t-70 178t70 178.5t182 71.5q109 0 180 -70t71 -180t-71 -179.5
t-180 -69.5zM299 68q71 0 119.5 49t48.5 126t-48.5 126.5t-119.5 49.5q-75 0 -122 -51t-47 -125t47.5 -124.5t121.5 -50.5z" />
    <glyph glyph-name="odieresis" unicode="&#xf6;" horiz-adv-x="598" 
d="M208 577q-25 0 -41.5 17t-16.5 41q0 23 16.5 39.5t41.5 16.5q24 0 41 -17t17 -40t-17 -40t-41 -17zM389 577q-24 0 -41 17t-17 41q0 23 17 39.5t41 16.5t41 -17t17 -40t-17 -40t-41 -17zM299 -6q-112 0 -182 71t-70 178t70 178.5t182 71.5q109 0 180 -70t71 -180
t-71 -179.5t-180 -69.5zM299 68q71 0 119.5 49t48.5 126t-48.5 126.5t-119.5 49.5q-75 0 -122 -51t-47 -125t47.5 -124.5t121.5 -50.5z" />
    <glyph glyph-name="divide" unicode="&#xf7;" horiz-adv-x="583" 
d="M298 412q-25 0 -42 17t-17 41t17 41t42 17t42 -17t17 -41t-17 -41t-42 -17zM66 239v75h469v-75h-469zM298 18q-25 0 -42 17t-17 41t17 41t42 17t42 -17t17 -41t-17 -41t-42 -17z" />
    <glyph glyph-name="oslash" unicode="&#xf8;" horiz-adv-x="596" 
d="M557 465l-59 -62q53 -65 53 -160q0 -110 -71 -179.5t-180 -69.5q-84 0 -146 42l-54 -58l-46 42l53 57q-59 68 -59 166q0 107 70 178.5t182 71.5q89 0 154 -48l58 62zM131 243q0 -60 33 -107l235 251q-41 32 -99 32q-75 0 -122 -51t-47 -125zM468 243q0 55 -27 99
l-233 -248q40 -26 92 -26q71 0 119.5 49t48.5 126z" />
    <glyph glyph-name="ugrave" unicode="&#xf9;" horiz-adv-x="568" 
d="M264 558l-121 138l92 -1l111 -137h-82zM251 -6q-87 0 -135 50.5t-48 152.5v290h81v-267q0 -80 29.5 -116t89.5 -36q61 0 103.5 49.5t42.5 133.5v236h81v-487h-81v84h-2q-27 -43 -69.5 -66.5t-91.5 -23.5z" />
    <glyph glyph-name="uacute" unicode="&#xfa;" horiz-adv-x="568" 
d="M233 557l118 141l91 1l-124 -142h-85zM251 -6q-87 0 -135 50.5t-48 152.5v290h81v-267q0 -80 29.5 -116t89.5 -36q61 0 103.5 49.5t42.5 133.5v236h81v-487h-81v84h-2q-27 -43 -69.5 -66.5t-91.5 -23.5z" />
    <glyph glyph-name="ucircumflex" unicode="&#xfb;" horiz-adv-x="568" 
d="M126 556l115 140h85l111 -140h-81l-72 89h-2l-73 -89h-83zM251 -6q-87 0 -135 50.5t-48 152.5v290h81v-267q0 -80 29.5 -116t89.5 -36q61 0 103.5 49.5t42.5 133.5v236h81v-487h-81v84h-2q-27 -43 -69.5 -66.5t-91.5 -23.5z" />
    <glyph glyph-name="udieresis" unicode="&#xfc;" horiz-adv-x="568" 
d="M191 577q-25 0 -41.5 17t-16.5 41q0 23 16.5 39.5t41.5 16.5q24 0 41 -17t17 -40t-17 -40t-41 -17zM372 577q-24 0 -41 17t-17 41q0 23 17 39.5t41 16.5t41 -17t17 -40t-17 -40t-41 -17zM251 -6q-87 0 -135 50.5t-48 152.5v290h81v-267q0 -80 29.5 -116t89.5 -36
q61 0 103.5 49.5t42.5 133.5v236h81v-487h-81v84h-2q-27 -43 -69.5 -66.5t-91.5 -23.5z" />
    <glyph glyph-name="yacute" unicode="&#xfd;" horiz-adv-x="525" 
d="M204 557l118 141l91 1l-124 -142h-85zM113 -204q-66 0 -116 35l32 67q38 -29 81 -29q36 0 58.5 26t46.5 88l12 31l-206 473h88l157 -377h2l148 377h85l-209 -519q-35 -87 -73 -129.5t-106 -42.5z" />
    <glyph glyph-name="thorn" unicode="&#xfe;" horiz-adv-x="620" 
d="M80 -198v934h81v-334h1q58 91 173 91q103 0 170 -72t67 -181q0 -110 -67.5 -178t-170.5 -68q-116 0 -172 90l-1 -1v-281h-81zM323 68q74 0 120.5 49t46.5 123q0 79 -48.5 129t-119.5 50q-72 0 -118.5 -51.5t-46.5 -127.5t48 -124t118 -48z" />
    <glyph glyph-name="ydieresis" unicode="&#xff;" horiz-adv-x="525" 
d="M171 577q-25 0 -41.5 17t-16.5 41q0 23 16.5 39.5t41.5 16.5q24 0 41 -17t17 -40t-17 -40t-41 -17zM352 577q-24 0 -41 17t-17 41q0 23 17 39.5t41 16.5t41 -17t17 -40t-17 -40t-41 -17zM113 -204q-66 0 -116 35l32 67q38 -29 81 -29q36 0 58.5 26t46.5 88l12 31
l-206 473h88l157 -377h2l148 377h85l-209 -519q-35 -87 -73 -129.5t-106 -42.5z" />
    <glyph glyph-name="Amacron" unicode="&#x100;" horiz-adv-x="679" 
d="M195 809v67h288v-67h-288zM26 0l269 710h87l270 -710h-91l-64 173h-316l-63 -173h-92zM208 249h262l-130 356h-2z" />
    <glyph glyph-name="amacron" unicode="&#x101;" horiz-adv-x="548" 
d="M414 665v-69h-288v69h288zM528 67l5 -65q-21 -7 -49 -7q-40 0 -66 19t-35 52h-2q-26 -33 -72 -53t-98 -20q-77 0 -121.5 38.5t-44.5 106.5q0 152 189 152h138v6q0 62 -28.5 93.5t-94.5 31.5q-72 0 -150 -32l-24 67q87 37 186 37t143.5 -51.5t44.5 -152.5v-157
q0 -69 47 -69q14 0 32 4zM225 63q57 0 101.5 30.5t44.5 71.5v64h-129q-54 0 -84.5 -22t-30.5 -62q0 -36 23.5 -59t74.5 -23z" />
    <glyph glyph-name="Abreve" unicode="&#x102;" horiz-adv-x="679" 
d="M339 776q-62 0 -100.5 35.5t-43.5 94.5h65q2 -28 23 -47.5t56 -19.5t56 19.5t23 47.5h65q-5 -59 -43.5 -94.5t-100.5 -35.5zM26 0l269 710h87l270 -710h-91l-64 173h-316l-63 -173h-92zM208 249h262l-130 356h-2z" />
    <glyph glyph-name="abreve" unicode="&#x103;" horiz-adv-x="548" 
d="M270 552q-63 0 -101.5 37.5t-42.5 104.5h65q2 -33 23 -55.5t56 -22.5t56 22.5t23 55.5h65q-4 -67 -42.5 -104.5t-101.5 -37.5zM528 67l5 -65q-21 -7 -49 -7q-40 0 -66 19t-35 52h-2q-26 -33 -72 -53t-98 -20q-77 0 -121.5 38.5t-44.5 106.5q0 152 189 152h138v6
q0 62 -28.5 93.5t-94.5 31.5q-72 0 -150 -32l-24 67q87 37 186 37t143.5 -51.5t44.5 -152.5v-157q0 -69 47 -69q14 0 32 4zM225 63q57 0 101.5 30.5t44.5 71.5v64h-129q-54 0 -84.5 -22t-30.5 -62q0 -36 23.5 -59t74.5 -23z" />
    <glyph glyph-name="Aogonek" unicode="&#x104;" horiz-adv-x="679" 
d="M653 -121l6 -52q-29 -13 -69 -13q-46 0 -72.5 22.5t-26.5 61.5q0 26 18 54.5t51 50.5l-63 170h-316l-63 -173h-92l269 710h87l270 -710h-16q-36 -12 -57.5 -36t-21.5 -49q0 -45 49 -45q28 0 47 9zM208 249h262l-130 356h-2z" />
    <glyph glyph-name="aogonek" unicode="&#x105;" horiz-adv-x="548" 
d="M463 -130q27 0 47 9l6 -52q-29 -13 -69 -13q-46 0 -72.5 22.5t-26.5 61.5q0 28 20.5 58.5t57.5 52.5q-33 18 -43 57h-2q-26 -33 -72 -53t-98 -20q-77 0 -121.5 38.5t-44.5 106.5q0 152 189 152h138v6q0 62 -28.5 93.5t-94.5 31.5q-72 0 -150 -32l-24 67q87 37 186 37
t143.5 -51.5t44.5 -152.5v-157q0 -69 47 -69q14 0 32 4l5 -65q-21 -7 -49 -7h-4q-30 -13 -48 -35t-18 -45q0 -45 49 -45zM225 63q57 0 101.5 30.5t44.5 71.5v64h-129q-54 0 -84.5 -22t-30.5 -62q0 -36 23.5 -59t74.5 -23z" />
    <glyph glyph-name="Cacute" unicode="&#x106;" horiz-adv-x="721" 
d="M348 782l112 129h93l-122 -129h-83zM414 -6q-158 0 -256 97t-98 262q0 157 95 260.5t264 103.5q163 0 269 -114l-58 -65q-86 96 -217 96q-119 0 -190.5 -78.5t-71.5 -202.5q0 -125 73 -200.5t196 -75.5q131 0 218 81l45 -72q-94 -92 -269 -92z" />
    <glyph glyph-name="cacute" unicode="&#x107;" horiz-adv-x="520" 
d="M240 557l118 141l91 1l-124 -142h-85zM305 -6q-123 0 -190.5 67t-67.5 181q0 112 68 181.5t181 69.5t191 -67l-47 -62q-66 55 -144 55q-74 0 -120 -49t-46 -128t46.5 -127t135.5 -48q82 0 137 45l40 -66q-64 -52 -184 -52z" />
    <glyph glyph-name="Ccircumflex" unicode="&#x108;" horiz-adv-x="721" 
d="M255 782l116 124h85l113 -124h-81l-74 78h-2l-74 -78h-83zM414 -6q-158 0 -256 97t-98 262q0 157 95 260.5t264 103.5q163 0 269 -114l-58 -65q-86 96 -217 96q-119 0 -190.5 -78.5t-71.5 -202.5q0 -125 73 -200.5t196 -75.5q131 0 218 81l45 -72q-94 -92 -269 -92z" />
    <glyph glyph-name="ccircumflex" unicode="&#x109;" horiz-adv-x="520" 
d="M136 556l115 140h85l111 -140h-81l-72 89h-2l-73 -89h-83zM305 -6q-123 0 -190.5 67t-67.5 181q0 112 68 181.5t181 69.5t191 -67l-47 -62q-66 55 -144 55q-74 0 -120 -49t-46 -128t46.5 -127t135.5 -48q82 0 137 45l40 -66q-64 -52 -184 -52z" />
    <glyph glyph-name="Cdotaccent" unicode="&#x10a;" horiz-adv-x="721" 
d="M413 792q-25 0 -42 17t-17 41t17 41t42 17t42 -17t17 -41t-17 -41t-42 -17zM414 -6q-158 0 -256 97t-98 262q0 157 95 260.5t264 103.5q163 0 269 -114l-58 -65q-86 96 -217 96q-119 0 -190.5 -78.5t-71.5 -202.5q0 -125 73 -200.5t196 -75.5q131 0 218 81l45 -72
q-94 -92 -269 -92z" />
    <glyph glyph-name="cdotaccent" unicode="&#x10b;" horiz-adv-x="520" 
d="M292 576q-25 0 -42 17t-17 41t17 41t42 17t42 -17t17 -41t-17 -41t-42 -17zM305 -6q-123 0 -190.5 67t-67.5 181q0 112 68 181.5t181 69.5t191 -67l-47 -62q-66 55 -144 55q-74 0 -120 -49t-46 -128t46.5 -127t135.5 -48q82 0 137 45l40 -66q-64 -52 -184 -52z" />
    <glyph glyph-name="Ccaron" unicode="&#x10c;" horiz-adv-x="721" 
d="M368 782l-113 124h82l73 -78h2l75 78h82l-116 -124h-85zM414 -6q-158 0 -256 97t-98 262q0 157 95 260.5t264 103.5q163 0 269 -114l-58 -65q-86 96 -217 96q-119 0 -190.5 -78.5t-71.5 -202.5q0 -125 73 -200.5t196 -75.5q131 0 218 81l45 -72q-94 -92 -269 -92z" />
    <glyph glyph-name="ccaron" unicode="&#x10d;" horiz-adv-x="520" 
d="M247 555l-111 139h82l72 -88h2l72 88h83l-115 -139h-85zM305 -6q-123 0 -190.5 67t-67.5 181q0 112 68 181.5t181 69.5t191 -67l-47 -62q-66 55 -144 55q-74 0 -120 -49t-46 -128t46.5 -127t135.5 -48q82 0 137 45l40 -66q-64 -52 -184 -52z" />
    <glyph glyph-name="Dcaron" unicode="&#x10e;" horiz-adv-x="733" 
d="M307 782l-113 124h82l73 -78h2l75 78h82l-116 -124h-85zM92 0v710h212q167 0 268 -98.5t101 -257.5t-99 -256.5t-267 -97.5h-215zM179 79h123q128 0 204.5 76.5t76.5 198.5t-77 199.5t-201 77.5h-126v-552z" />
    <glyph glyph-name="dcaron" unicode="&#x10f;" horiz-adv-x="685" 
d="M612 588l29 184h80l-49 -184h-60zM285 -6q-102 0 -170.5 68.5t-68.5 177.5q0 108 68 180.5t170 72.5q116 0 174 -93h1v336h81v-736h-78v90h-1q-57 -96 -176 -96zM296 68q70 0 118 48t48 124t-46.5 127.5t-118.5 51.5q-71 0 -119.5 -50t-48.5 -129q0 -74 46.5 -123
t120.5 -49z" />
    <glyph glyph-name="Dcroat" unicode="&#x110;" horiz-adv-x="733" 
d="M304 710q167 0 268 -98.5t101 -257.5t-99 -256.5t-267 -97.5h-215v316h-70v77h70v317h212zM302 79q128 0 204.5 76.5t76.5 198.5t-77 199.5t-201 77.5h-126v-238h190v-77h-190v-237h123z" />
    <glyph glyph-name="dcroat" unicode="&#x111;" horiz-adv-x="606" 
d="M600 628v-58h-60v-570h-78v90h-1q-57 -96 -176 -96q-102 0 -170.5 68.5t-68.5 177.5q0 108 68 180.5t170 72.5q116 0 174 -93h1v170h-207v58h207v108h81v-108h60zM296 68q70 0 118 48t48 124t-46.5 127.5t-118.5 51.5q-71 0 -119.5 -50t-48.5 -129q0 -74 46.5 -123
t120.5 -49z" />
    <glyph glyph-name="Emacron" unicode="&#x112;" horiz-adv-x="632" 
d="M191 809v67h288v-67h-288zM92 0v710h473v-79h-386v-238h353v-79h-353v-235h399v-79h-486z" />
    <glyph glyph-name="emacron" unicode="&#x113;" horiz-adv-x="551" 
d="M433 665v-69h-288v69h288zM510 254q0 -25 -2 -35h-379q7 -72 55 -112.5t129 -40.5q92 0 149 41l38 -64q-70 -49 -193 -49q-124 0 -192 67.5t-68 181.5q0 110 67.5 180t173.5 70q107 0 164.5 -66t57.5 -173zM286 419q-59 0 -101 -37t-53 -97h298q-8 64 -44.5 99t-99.5 35z
" />
    <glyph glyph-name="Ebreve" unicode="&#x114;" horiz-adv-x="632" 
d="M335 776q-62 0 -100.5 35.5t-43.5 94.5h65q2 -28 23 -47.5t56 -19.5t56 19.5t23 47.5h65q-5 -59 -43.5 -94.5t-100.5 -35.5zM92 0v710h473v-79h-386v-238h353v-79h-353v-235h399v-79h-486z" />
    <glyph glyph-name="ebreve" unicode="&#x115;" horiz-adv-x="551" 
d="M289 552q-63 0 -101.5 37.5t-42.5 104.5h65q2 -33 23 -55.5t56 -22.5t56 22.5t23 55.5h65q-4 -67 -42.5 -104.5t-101.5 -37.5zM510 254q0 -25 -2 -35h-379q7 -72 55 -112.5t129 -40.5q92 0 149 41l38 -64q-70 -49 -193 -49q-124 0 -192 67.5t-68 181.5q0 110 67.5 180
t173.5 70q107 0 164.5 -66t57.5 -173zM286 419q-59 0 -101 -37t-53 -97h298q-8 64 -44.5 99t-99.5 35z" />
    <glyph glyph-name="Edotaccent" unicode="&#x116;" horiz-adv-x="632" 
d="M335 792q-25 0 -42 17t-17 41t17 41t42 17t42 -17t17 -41t-17 -41t-42 -17zM92 0v710h473v-79h-386v-238h353v-79h-353v-235h399v-79h-486z" />
    <glyph glyph-name="edotaccent" unicode="&#x117;" horiz-adv-x="551" 
d="M289 576q-25 0 -42 17t-17 41t17 41t42 17t42 -17t17 -41t-17 -41t-42 -17zM510 254q0 -25 -2 -35h-379q7 -72 55 -112.5t129 -40.5q92 0 149 41l38 -64q-70 -49 -193 -49q-124 0 -192 67.5t-68 181.5q0 110 67.5 180t173.5 70q107 0 164.5 -66t57.5 -173zM286 419
q-59 0 -101 -37t-53 -97h298q-8 64 -44.5 99t-99.5 35z" />
    <glyph glyph-name="Eogonek" unicode="&#x118;" horiz-adv-x="632" 
d="M587 -121l6 -52q-29 -13 -69 -13q-46 0 -72.5 22.5t-26.5 61.5q0 56 64 102h-397v710h473v-79h-386v-238h353v-79h-353v-235h399v-79h-8q-36 -12 -57.5 -36t-21.5 -49q0 -45 49 -45q28 0 47 9z" />
    <glyph glyph-name="eogonek" unicode="&#x119;" horiz-adv-x="551" 
d="M510 254q0 -25 -2 -35h-379q7 -72 55 -112.5t129 -40.5q92 0 149 41l38 -64q-58 -41 -153 -48q-66 -33 -66 -76t50 -43q27 0 47 9l6 -55q-29 -13 -69 -13q-49 0 -77 23t-28 62q0 49 52 92v3q-103 12 -159 77.5t-56 168.5q0 110 67.5 180t173.5 70q107 0 164.5 -66
t57.5 -173zM286 419q-59 0 -101 -37t-53 -97h298q-8 64 -44.5 99t-99.5 35z" />
    <glyph glyph-name="Ecaron" unicode="&#x11a;" horiz-adv-x="632" 
d="M290 782l-113 124h82l73 -78h2l75 78h82l-116 -124h-85zM92 0v710h473v-79h-386v-238h353v-79h-353v-235h399v-79h-486z" />
    <glyph glyph-name="ecaron" unicode="&#x11b;" horiz-adv-x="551" 
d="M329 555h-85l-111 139h82l72 -88h2l72 88h83zM510 254q0 -25 -2 -35h-379q7 -72 55 -112.5t129 -40.5q92 0 149 41l38 -64q-70 -49 -193 -49q-124 0 -192 67.5t-68 181.5q0 110 67.5 180t173.5 70q107 0 164.5 -66t57.5 -173zM286 419q-59 0 -101 -37t-53 -97h298
q-8 64 -44.5 99t-99.5 35z" />
    <glyph glyph-name="Gcircumflex" unicode="&#x11c;" horiz-adv-x="767" 
d="M250 782l116 124h85l113 -124h-81l-74 78h-2l-74 -78h-83zM415 -5q-163 0 -259 97t-96 261q0 157 95 260.5t263 103.5q164 0 270 -114l-58 -65q-86 96 -219 96q-118 0 -189 -78.5t-71 -202.5q0 -125 68 -201.5t197 -76.5q119 0 198 54v158h-207v79h294v-283
q-50 -41 -126 -64.5t-160 -23.5z" />
    <glyph glyph-name="gcircumflex" unicode="&#x11d;" horiz-adv-x="605" 
d="M135 556l115 140h85l111 -140h-81l-72 89h-2l-73 -89h-83zM293 -204q-134 0 -217 50l32 68q85 -44 181 -44q81 0 122.5 40.5t41.5 105.5v78h-2q-59 -85 -169 -85q-101 0 -168.5 67t-67.5 174q0 105 65.5 174t167.5 69q109 0 171 -84h2v78h81v-451q0 -111 -58.5 -175.5
t-181.5 -64.5zM292 84q73 0 118 48t45 122q0 72 -46.5 118t-115.5 46q-73 0 -119 -47t-46 -119q0 -76 46.5 -122t117.5 -46z" />
    <glyph glyph-name="Gbreve" unicode="&#x11e;" horiz-adv-x="767" 
d="M408 776q-62 0 -100.5 35.5t-43.5 94.5h65q2 -28 23 -47.5t56 -19.5t56 19.5t23 47.5h65q-5 -59 -43.5 -94.5t-100.5 -35.5zM415 -5q-163 0 -259 97t-96 261q0 157 95 260.5t263 103.5q164 0 270 -114l-58 -65q-86 96 -219 96q-118 0 -189 -78.5t-71 -202.5
q0 -125 68 -201.5t197 -76.5q119 0 198 54v158h-207v79h294v-283q-50 -41 -126 -64.5t-160 -23.5z" />
    <glyph glyph-name="gbreve" unicode="&#x11f;" horiz-adv-x="605" 
d="M291 552q-63 0 -101.5 37.5t-42.5 104.5h65q2 -33 23 -55.5t56 -22.5t56 22.5t23 55.5h65q-4 -67 -42.5 -104.5t-101.5 -37.5zM293 -204q-134 0 -217 50l32 68q85 -44 181 -44q81 0 122.5 40.5t41.5 105.5v78h-2q-59 -85 -169 -85q-101 0 -168.5 67t-67.5 174
q0 105 65.5 174t167.5 69q109 0 171 -84h2v78h81v-451q0 -111 -58.5 -175.5t-181.5 -64.5zM292 84q73 0 118 48t45 122q0 72 -46.5 118t-115.5 46q-73 0 -119 -47t-46 -119q0 -76 46.5 -122t117.5 -46z" />
    <glyph glyph-name="Gdotaccent" unicode="&#x120;" horiz-adv-x="767" 
d="M408 792q-25 0 -42 17t-17 41t17 41t42 17t42 -17t17 -41t-17 -41t-42 -17zM415 -5q-163 0 -259 97t-96 261q0 157 95 260.5t263 103.5q164 0 270 -114l-58 -65q-86 96 -219 96q-118 0 -189 -78.5t-71 -202.5q0 -125 68 -201.5t197 -76.5q119 0 198 54v158h-207v79h294
v-283q-50 -41 -126 -64.5t-160 -23.5z" />
    <glyph glyph-name="gdotaccent" unicode="&#x121;" horiz-adv-x="605" 
d="M291 576q-25 0 -42 17t-17 41t17 41t42 17t42 -17t17 -41t-17 -41t-42 -17zM293 -204q-134 0 -217 50l32 68q85 -44 181 -44q81 0 122.5 40.5t41.5 105.5v78h-2q-59 -85 -169 -85q-101 0 -168.5 67t-67.5 174q0 105 65.5 174t167.5 69q109 0 171 -84h2v78h81v-451
q0 -111 -58.5 -175.5t-181.5 -64.5zM292 84q73 0 118 48t45 122q0 72 -46.5 118t-115.5 46q-73 0 -119 -47t-46 -119q0 -76 46.5 -122t117.5 -46z" />
    <glyph glyph-name="Gcommaaccent" unicode="&#x122;" horiz-adv-x="767" 
d="M415 -5q-163 0 -259 97t-96 261q0 157 95 260.5t263 103.5q164 0 270 -114l-58 -65q-86 96 -219 96q-118 0 -189 -78.5t-71 -202.5q0 -125 68 -201.5t197 -76.5q119 0 198 54v158h-207v79h294v-283q-50 -41 -126 -64.5t-160 -23.5zM336 -212l-20 49q33 7 46 22.5t13 41.5
q0 17 -5 45h74q4 -20 4 -49q0 -48 -30.5 -76t-81.5 -33z" />
    <glyph glyph-name="gcommaaccent" unicode="&#x123;" horiz-adv-x="605" 
d="M369 715l20 -49q-33 -7 -46 -22.5t-13 -41.5q0 -17 5 -45h-74q-4 20 -4 49q0 48 30.5 76t81.5 33zM293 -204q-134 0 -217 50l32 68q85 -44 181 -44q81 0 122.5 40.5t41.5 105.5v78h-2q-59 -85 -169 -85q-101 0 -168.5 67t-67.5 174q0 105 65.5 174t167.5 69
q109 0 171 -84h2v78h81v-451q0 -111 -58.5 -175.5t-181.5 -64.5zM292 84q73 0 118 48t45 122q0 72 -46.5 118t-115.5 46q-73 0 -119 -47t-46 -119q0 -76 46.5 -122t117.5 -46z" />
    <glyph glyph-name="Hcircumflex" unicode="&#x124;" horiz-adv-x="729" 
d="M208 782l116 124h85l113 -124h-81l-74 78h-2l-74 -78h-83zM92 0v710h87v-333h371v333h87v-710h-87v298h-371v-298h-87z" />
    <glyph glyph-name="hcircumflex" unicode="&#x125;" horiz-adv-x="588" 
d="M79 793l116 124h85l113 -124h-81l-74 78h-2l-74 -78h-83zM80 0v736h81v-334h1q60 91 180 91q82 0 129 -50t47 -151v-292h-80v269q0 150 -120 150q-73 0 -115 -46t-42 -128v-245h-81z" />
    <glyph glyph-name="Hbar" unicode="&#x126;" horiz-adv-x="724" 
d="M695 586v-61h-56v-525h-87v298h-371v-298h-87v525h-67v61h67v124h87v-124h371v124h87v-124h56zM552 377v148h-371v-148h371z" />
    <glyph glyph-name="hbar" unicode="&#x127;" horiz-adv-x="588" 
d="M342 493q82 0 129 -50t47 -151v-292h-80v269q0 150 -120 150q-73 0 -115 -46t-42 -128v-245h-81v570h-75v58h75v108h81v-108h185v-58h-185v-168h1q60 91 180 91z" />
    <glyph glyph-name="Itilde" unicode="&#x128;" horiz-adv-x="282" 
d="M218 782q-35 0 -85 33q-41 25 -63 25q-35 0 -58 -55l-52 22q32 94 104 94q36 0 85 -30q4 -2 12.5 -7.5t13 -8t12 -6t13.5 -5t13 -1.5q34 0 54 55l52 -17q-30 -99 -101 -99zM97 0v710h87v-710h-87z" />
    <glyph glyph-name="itilde" unicode="&#x129;" horiz-adv-x="254" 
d="M205 562q-35 0 -88 36q-37 24 -58 24q-39 0 -60 -56l-52 23q31 98 104 98q38 0 81 -29l12 -8t13.5 -8.5t11.5 -6t13.5 -5t13.5 -1.5q38 0 58 55l51 -17q-13 -50 -40 -77.5t-60 -27.5zM86 0v487h81v-487h-81z" />
    <glyph glyph-name="Imacron" unicode="&#x12a;" horiz-adv-x="282" 
d="M-4 809v67h288v-67h-288zM97 0v710h87v-710h-87z" />
    <glyph glyph-name="imacron" unicode="&#x12b;" horiz-adv-x="254" 
d="M-17 596v69h288v-69h-288zM86 0v487h81v-487h-81z" />
    <glyph glyph-name="Ibreve" unicode="&#x12c;" horiz-adv-x="282" 
d="M140 776q-62 0 -100.5 35.5t-43.5 94.5h65q2 -28 23 -47.5t56 -19.5t56 19.5t23 47.5h65q-5 -59 -43.5 -94.5t-100.5 -35.5zM97 0v710h87v-710h-87z" />
    <glyph glyph-name="ibreve" unicode="&#x12d;" horiz-adv-x="254" 
d="M127 554q-54 0 -91 37t-41 103h65q2 -37 19 -59t48 -22q30 0 47 22t19 59h65q-4 -64 -39 -102t-92 -38zM86 0v487h81v-487h-81z" />
    <glyph glyph-name="Iogonek" unicode="&#x12e;" horiz-adv-x="282" 
d="M189 -121l6 -52q-29 -13 -69 -13q-46 0 -72.5 22.5t-26.5 61.5q0 27 18.5 55.5t51.5 50.5v706h87v-710h-12q-36 -12 -57.5 -36t-21.5 -49q0 -45 49 -45q28 0 47 9z" />
    <glyph glyph-name="iogonek" unicode="&#x12f;" horiz-adv-x="254" 
d="M127 576q-25 0 -42 17t-17 41t17 41t42 17t42 -17t17 -41t-17 -41t-42 -17zM129 -130q27 0 47 9l6 -52q-29 -13 -69 -13q-46 0 -72.5 22.5t-26.5 61.5q0 27 19 56t53 51v482h81v-487h-8q-36 -12 -57.5 -36t-21.5 -49q0 -45 49 -45z" />
    <glyph glyph-name="Idotaccent" unicode="&#x130;" horiz-adv-x="282" 
d="M140 792q-25 0 -42 17t-17 41t17 41t42 17t42 -17t17 -41t-17 -41t-42 -17zM97 0v710h87v-710h-87z" />
    <glyph glyph-name="dotlessi" unicode="&#x131;" horiz-adv-x="254" 
d="M86 0v487h81v-487h-81z" />
    <glyph glyph-name="IJ" unicode="&#x132;" horiz-adv-x="821" 
d="M97 0v710h87v-710h-87zM525 -5q-69 0 -129 26.5t-100 73.5l55 66q37 -43 76.5 -64t93.5 -21q133 0 133 161v473h87v-472q0 -125 -54 -184t-162 -59z" />
    <glyph glyph-name="ij" unicode="&#x133;" horiz-adv-x="486" 
d="M127 576q-25 0 -42 17t-17 41t17 41t42 17t42 -17t17 -41t-17 -41t-42 -17zM373 576q-25 0 -42 17t-17 41t17 41t42 17t42 -17t17 -41t-17 -41t-42 -17zM86 0v487h81v-487h-81zM290 -204q-45 0 -84 17l14 72q24 -15 55 -15q59 0 59 80v537h81v-541q0 -150 -125 -150z" />
    <glyph glyph-name="Jcircumflex" unicode="&#x134;" horiz-adv-x="539" 
d="M258 782l116 124h85l113 -124h-81l-74 78h-2l-74 -78h-83zM243 -5q-69 0 -129 26.5t-100 73.5l55 66q37 -43 76.5 -64t93.5 -21q133 0 133 161v473h87v-472q0 -125 -54 -184t-162 -59z" />
    <glyph glyph-name="jcircumflex" unicode="&#x135;" horiz-adv-x="232" 
d="M-37 556l115 140h85l111 -140h-81l-72 89h-2l-73 -89h-83zM36 -204q-45 0 -84 17l14 72q24 -15 55 -15q59 0 59 80v537h81v-541q0 -150 -125 -150z" />
    <glyph glyph-name="Kcommaaccent" unicode="&#x136;" horiz-adv-x="664" 
d="M356 393q79 -73 154.5 -180.5t121.5 -212.5h-98q-41 89 -106 180.5t-132 153.5l-117 -136v-198h-87v710h87v-395h2l331 395h113zM296 -54h74q4 -20 4 -49q0 -48 -30.5 -76t-81.5 -33l-20 49q33 7 46 22.5t13 41.5q0 17 -5 45z" />
    <glyph glyph-name="kcommaaccent" unicode="&#x137;" horiz-adv-x="545" 
d="M320 280q59 -57 113.5 -133.5t85.5 -146.5h-90q-59 127 -166 231l-102 -112v-119h-81v736h81v-522l1 -1l246 274h100zM238 -54h74q4 -20 4 -49q0 -48 -30.5 -76t-81.5 -33l-20 49q33 7 46 22.5t13 41.5q0 17 -5 45z" />
    <glyph glyph-name="kgreenlandic" unicode="&#x138;" horiz-adv-x="545" 
d="M519 0h-90q-59 125 -164 232l-104 -113v-119h-81v487h81v-273l1 -1l246 274h100l-187 -206q59 -58 113.5 -134.5t84.5 -146.5z" />
    <glyph glyph-name="Lacute" unicode="&#x139;" horiz-adv-x="591" 
d="M195 782l112 129h93l-122 -129h-83zM92 0v710h87v-631h380v-79h-467z" />
    <glyph glyph-name="lacute" unicode="&#x13a;" horiz-adv-x="329" 
d="M78 795l112 129h93l-122 -129h-83zM216 -7q-71 0 -103.5 39t-32.5 118v586h81v-582q0 -89 68 -89q40 0 77 19l12 -69q-40 -22 -102 -22z" />
    <glyph glyph-name="Lcommaaccent" unicode="&#x13b;" horiz-adv-x="591" 
d="M92 0v710h87v-631h380v-79h-467zM257 -212l-20 49q33 7 46 22.5t13 41.5q0 17 -5 45h74q4 -20 4 -49q0 -48 -30.5 -76t-81.5 -33z" />
    <glyph glyph-name="lcommaaccent" unicode="&#x13c;" horiz-adv-x="329" 
d="M216 -7q-71 0 -103.5 39t-32.5 118v586h81v-582q0 -89 68 -89q40 0 77 19l12 -69q-40 -22 -102 -22zM132 -212l-20 49q33 7 46 22.5t13 41.5q0 17 -5 45h74q4 -20 4 -49q0 -48 -30.5 -76t-81.5 -33z" />
    <glyph glyph-name="Lcaron" unicode="&#x13d;" horiz-adv-x="591" 
d="M304 587l29 184h80l-49 -184h-60zM92 0v710h87v-631h380v-79h-467z" />
    <glyph glyph-name="lcaron" unicode="&#x13e;" horiz-adv-x="327" 
d="M237 588l29 184h80l-49 -184h-60zM216 -7q-71 0 -103.5 39t-32.5 118v586h81v-582q0 -89 68 -89q40 0 77 19l12 -69q-40 -22 -102 -22z" />
    <glyph glyph-name="Ldot" unicode="&#x13f;" horiz-adv-x="591" 
d="M92 0v710h87v-631h380v-79h-467zM425 280q-25 0 -42.5 17t-17.5 42t17.5 42t42.5 17t42 -17t17 -42t-17 -42t-42 -17z" />
    <glyph glyph-name="ldot" unicode="&#x140;" horiz-adv-x="399" 
d="M216 -7q-71 0 -103.5 39t-32.5 118v586h81v-582q0 -89 68 -89q40 0 77 19l12 -69q-40 -22 -102 -22zM325 243q-25 0 -42.5 17t-17.5 42t17.5 42t42.5 17t42 -17t17 -42t-17 -42t-42 -17z" />
    <glyph glyph-name="Lslash" unicode="&#x141;" horiz-adv-x="606" 
d="M194 79h380v-79h-467v283l-84 -36v73l84 36v354h87v-316l115 50v-74l-115 -49v-242z" />
    <glyph glyph-name="lslash" unicode="&#x142;" horiz-adv-x="348" 
d="M325 84l12 -69q-40 -22 -102 -22q-71 0 -103.5 39t-32.5 118v121l-75 -32v66l75 32v399h81v-365l79 33v-66l-79 -33v-151q0 -89 68 -89q40 0 77 19z" />
    <glyph glyph-name="Nacute" unicode="&#x143;" horiz-adv-x="769" 
d="M289 782l112 129h93l-122 -129h-83zM92 0v710h83l413 -567h2v567h87v-710h-86l-411 562h-2v-562h-86z" />
    <glyph glyph-name="nacute" unicode="&#x144;" horiz-adv-x="583" 
d="M232 557l118 141l91 1l-124 -142h-85zM80 0v487h81v-88h1q61 94 177 94q81 0 127.5 -51.5t46.5 -152.5v-289h-80v266q0 153 -120 153q-70 0 -111 -47t-41 -129v-243h-81z" />
    <glyph glyph-name="Ncommaaccent" unicode="&#x145;" horiz-adv-x="769" 
d="M92 0v710h83l413 -567h2v567h87v-710h-86l-411 562h-2v-562h-86zM306 -212l-20 49q33 7 46 22.5t13 41.5q0 17 -5 45h74q4 -20 4 -49q0 -48 -30.5 -76t-81.5 -33z" />
    <glyph glyph-name="ncommaaccent" unicode="&#x146;" horiz-adv-x="583" 
d="M80 0v487h81v-88h1q61 94 177 94q81 0 127.5 -51.5t46.5 -152.5v-289h-80v266q0 153 -120 153q-70 0 -111 -47t-41 -129v-243h-81zM230 -212l-20 49q33 7 46 22.5t13 41.5q0 17 -5 45h74q4 -20 4 -49q0 -48 -30.5 -76t-81.5 -33z" />
    <glyph glyph-name="Ncaron" unicode="&#x147;" horiz-adv-x="769" 
d="M334 782l-113 124h82l73 -78h2l75 78h82l-116 -124h-85zM92 0v710h83l413 -567h2v567h87v-710h-86l-411 562h-2v-562h-86z" />
    <glyph glyph-name="ncaron" unicode="&#x148;" horiz-adv-x="583" 
d="M250 555l-111 139h82l72 -88h2l72 88h83l-115 -139h-85zM80 0v487h81v-88h1q61 94 177 94q81 0 127.5 -51.5t46.5 -152.5v-289h-80v266q0 153 -120 153q-70 0 -111 -47t-41 -129v-243h-81z" />
    <glyph glyph-name="napostrophe" unicode="&#x149;" horiz-adv-x="655" 
d="M5 516l28 194h80l-49 -194h-59zM153 0v487h81v-88h1q61 94 177 94q81 0 127.5 -51.5t46.5 -152.5v-289h-80v266q0 153 -120 153q-70 0 -111 -47t-41 -129v-243h-81z" />
    <glyph glyph-name="Eng" unicode="&#x14a;" horiz-adv-x="769" 
d="M590 710h87v-721q0 -193 -180 -193q-44 0 -83 14l7 73q25 -13 62 -13q106 0 106 116v16l-409 560h-2v-562h-86v710h83l413 -567h2v567z" />
    <glyph glyph-name="eng" unicode="&#x14b;" horiz-adv-x="580" 
d="M348 -204q-36 0 -72 14l7 66q27 -11 55 -11q49 0 70.5 24t21.5 83v294q0 153 -120 153q-68 0 -108.5 -47t-40.5 -129v-243h-81v487h81v-88h1q61 94 174 94q81 0 128 -51.5t47 -152.5v-310q0 -93 -39.5 -138t-123.5 -45z" />
    <glyph glyph-name="Omacron" unicode="&#x14c;" horiz-adv-x="831" 
d="M273 809v67h288v-67h-288zM416 -6q-155 0 -255.5 101.5t-100.5 259.5t100.5 260t255.5 102q152 0 253.5 -101t101.5 -261t-101.5 -260.5t-253.5 -100.5zM416 76q112 0 188 78.5t76 200.5t-76 201t-188 79q-115 0 -190.5 -79.5t-75.5 -200.5q0 -120 75.5 -199.5
t190.5 -79.5z" />
    <glyph glyph-name="omacron" unicode="&#x14d;" horiz-adv-x="598" 
d="M155 596v69h288v-69h-288zM299 -6q-112 0 -182 71t-70 178t70 178.5t182 71.5q109 0 180 -70t71 -180t-71 -179.5t-180 -69.5zM299 68q71 0 119.5 49t48.5 126t-48.5 126.5t-119.5 49.5q-75 0 -122 -51t-47 -125t47.5 -124.5t121.5 -50.5z" />
    <glyph glyph-name="Obreve" unicode="&#x14e;" horiz-adv-x="831" 
d="M417 776q-62 0 -100.5 35.5t-43.5 94.5h65q2 -28 23 -47.5t56 -19.5t56 19.5t23 47.5h65q-5 -59 -43.5 -94.5t-100.5 -35.5zM416 -6q-155 0 -255.5 101.5t-100.5 259.5t100.5 260t255.5 102q152 0 253.5 -101t101.5 -261t-101.5 -260.5t-253.5 -100.5zM416 76
q112 0 188 78.5t76 200.5t-76 201t-188 79q-115 0 -190.5 -79.5t-75.5 -200.5q0 -120 75.5 -199.5t190.5 -79.5z" />
    <glyph glyph-name="obreve" unicode="&#x14f;" horiz-adv-x="598" 
d="M299 552q-63 0 -101.5 37.5t-42.5 104.5h65q2 -33 23 -55.5t56 -22.5t56 22.5t23 55.5h65q-4 -67 -42.5 -104.5t-101.5 -37.5zM299 -6q-112 0 -182 71t-70 178t70 178.5t182 71.5q109 0 180 -70t71 -180t-71 -179.5t-180 -69.5zM299 68q71 0 119.5 49t48.5 126
t-48.5 126.5t-119.5 49.5q-75 0 -122 -51t-47 -125t47.5 -124.5t121.5 -50.5z" />
    <glyph glyph-name="Ohungarumlaut" unicode="&#x150;" horiz-adv-x="831" 
d="M293 781l118 141l85 1l-124 -142h-79zM461 781l117 141l85 1l-124 -142h-78zM416 -6q-155 0 -255.5 101.5t-100.5 259.5t100.5 260t255.5 102q152 0 253.5 -101t101.5 -261t-101.5 -260.5t-253.5 -100.5zM416 76q112 0 188 78.5t76 200.5t-76 201t-188 79
q-115 0 -190.5 -79.5t-75.5 -200.5q0 -120 75.5 -199.5t190.5 -79.5z" />
    <glyph glyph-name="ohungarumlaut" unicode="&#x151;" horiz-adv-x="598" 
d="M175 557l118 141l85 1l-124 -142h-79zM343 557l117 141l85 1l-124 -142h-78zM299 -6q-112 0 -182 71t-70 178t70 178.5t182 71.5q109 0 180 -70t71 -180t-71 -179.5t-180 -69.5zM299 68q71 0 119.5 49t48.5 126t-48.5 126.5t-119.5 49.5q-75 0 -122 -51t-47 -125
t47.5 -124.5t121.5 -50.5z" />
    <glyph glyph-name="OE" unicode="&#x152;" horiz-adv-x="994" 
d="M550 79h391v-79h-529q-163 0 -257.5 101t-94.5 255t94.5 254t257.5 100h515v-79h-377v-238h344v-79h-344v-235zM412 81l53 1v547h-53q-118 0 -190 -76.5t-72 -196.5q0 -121 72 -198t190 -77z" />
    <glyph glyph-name="oe" unicode="&#x153;" horiz-adv-x="891" 
d="M864 254q0 -26 -2 -34h-361q7 -73 54 -113.5t125 -40.5q80 0 136 41l38 -64q-70 -49 -174 -49q-154 0 -221 114h-1q-24 -54 -77.5 -84t-118.5 -30q-103 0 -165.5 68t-62.5 181t64.5 181.5t169.5 68.5q62 0 114.5 -30.5t78.5 -89.5h1q27 58 79 89t116 31q99 0 153 -66
t54 -173zM267 66q67 0 109 48t42 127q0 82 -41 131t-109 49q-70 0 -110.5 -48.5t-40.5 -131.5q0 -80 40.5 -127.5t109.5 -47.5zM655 419q-61 0 -101.5 -37.5t-50.5 -98.5h282q-13 136 -130 136z" />
    <glyph glyph-name="Racute" unicode="&#x154;" horiz-adv-x="647" 
d="M437 911l-122 -129h-83l112 129h93zM406 289q127 -121 203 -289h-99q-79 166 -201 271h-130v-271h-87v710h252q118 0 176.5 -57.5t58.5 -156.5q0 -86 -45 -137.5t-128 -69.5zM321 350q84 0 126 39t42 103q0 67 -41.5 103t-115.5 36h-153v-281h142z" />
    <glyph glyph-name="racute" unicode="&#x155;" horiz-adv-x="425" 
d="M156 557l118 141l91 1l-124 -142h-85zM80 0v487h81v-88h2q25 43 73 68.5t103 25.5q42 0 80 -14l-15 -78q-38 13 -89 13q-66 0 -110 -42.5t-44 -124.5v-247h-81z" />
    <glyph glyph-name="Rcommaaccent" unicode="&#x156;" horiz-adv-x="647" 
d="M406 289q127 -121 203 -289h-99q-79 166 -201 271h-130v-271h-87v710h252q118 0 176.5 -57.5t58.5 -156.5q0 -86 -45 -137.5t-128 -69.5zM321 350q84 0 126 39t42 103q0 67 -41.5 103t-115.5 36h-153v-281h142zM281 -54h74q4 -20 4 -49q0 -48 -30.5 -76t-81.5 -33l-20 49
q33 7 46 22.5t13 41.5q0 17 -5 45z" />
    <glyph glyph-name="rcommaaccent" unicode="&#x157;" horiz-adv-x="425" 
d="M80 0v487h81v-88h2q25 43 73 68.5t103 25.5q42 0 80 -14l-15 -78q-38 13 -89 13q-66 0 -110 -42.5t-44 -124.5v-247h-81zM49 -212l-20 49q33 7 46 22.5t13 41.5q0 17 -5 45h74q4 -20 4 -49q0 -48 -30.5 -76t-81.5 -33z" />
    <glyph glyph-name="Rcaron" unicode="&#x158;" horiz-adv-x="647" 
d="M362 782h-85l-113 124h82l73 -78h2l75 78h82zM406 289q127 -121 203 -289h-99q-79 166 -201 271h-130v-271h-87v710h252q118 0 176.5 -57.5t58.5 -156.5q0 -86 -45 -137.5t-128 -69.5zM321 350q84 0 126 39t42 103q0 67 -41.5 103t-115.5 36h-153v-281h142z" />
    <glyph glyph-name="rcaron" unicode="&#x159;" horiz-adv-x="425" 
d="M200 555l-111 139h82l72 -88h2l72 88h83l-115 -139h-85zM80 0v487h81v-88h2q25 43 73 68.5t103 25.5q42 0 80 -14l-15 -78q-38 13 -89 13q-66 0 -110 -42.5t-44 -124.5v-247h-81z" />
    <glyph glyph-name="Sacute" unicode="&#x15a;" horiz-adv-x="585" 
d="M230 782l112 129h93l-122 -129h-83zM299 -6q-154 0 -248 78l42 79q87 -77 209 -77q71 0 112.5 29t41.5 80q0 36 -22.5 61.5t-47 36.5t-83.5 32q-16 6 -25 9q-36 13 -53 20t-47 21t-45.5 27.5t-33 33.5t-25 45.5t-7.5 56.5q0 89 62.5 140t160.5 51q147 0 238 -76l-49 -72
q-39 32 -90 50.5t-100 18.5q-56 0 -94 -27.5t-38 -77.5q0 -25 9.5 -43.5t34.5 -33.5t45.5 -24t65.5 -26q118 -44 155 -68q80 -52 80 -145q0 -99 -63.5 -149t-184.5 -50z" />
    <glyph glyph-name="sacute" unicode="&#x15b;" horiz-adv-x="455" 
d="M169 557l118 141l91 1l-124 -142h-85zM225 -6q-105 0 -185 47l36 69q79 -44 158 -44q104 0 104 64q0 33 -28.5 49.5t-93.5 31.5q-82 18 -125 51.5t-43 94.5t44 98.5t130 37.5q101 0 176 -46l-39 -65q-59 39 -132 39q-98 0 -98 -63q0 -28 27 -45t97 -33q87 -20 126.5 -52
t39.5 -94q0 -140 -194 -140z" />
    <glyph glyph-name="Scircumflex" unicode="&#x15c;" horiz-adv-x="585" 
d="M133 782l116 124h85l113 -124h-81l-74 78h-2l-74 -78h-83zM299 -6q-154 0 -248 78l42 79q87 -77 209 -77q71 0 112.5 29t41.5 80q0 36 -22.5 61.5t-47 36.5t-83.5 32q-16 6 -25 9q-36 13 -53 20t-47 21t-45.5 27.5t-33 33.5t-25 45.5t-7.5 56.5q0 89 62.5 140t160.5 51
q147 0 238 -76l-49 -72q-39 32 -90 50.5t-100 18.5q-56 0 -94 -27.5t-38 -77.5q0 -25 9.5 -43.5t34.5 -33.5t45.5 -24t65.5 -26q118 -44 155 -68q80 -52 80 -145q0 -99 -63.5 -149t-184.5 -50z" />
    <glyph glyph-name="scircumflex" unicode="&#x15d;" horiz-adv-x="455" 
d="M77 556l115 140h85l111 -140h-81l-72 89h-2l-73 -89h-83zM225 -6q-105 0 -185 47l36 69q79 -44 158 -44q104 0 104 64q0 33 -28.5 49.5t-93.5 31.5q-82 18 -125 51.5t-43 94.5t44 98.5t130 37.5q101 0 176 -46l-39 -65q-59 39 -132 39q-98 0 -98 -63q0 -28 27 -45t97 -33
q87 -20 126.5 -52t39.5 -94q0 -140 -194 -140z" />
    <glyph glyph-name="Scedilla" unicode="&#x15e;" horiz-adv-x="585" 
d="M307 -6l-12 -25v-2q40 -2 64 -22.5t24 -56.5q0 -34 -27 -55t-80 -21q-26 0 -56 6v44q21 -7 48 -7q23 0 39.5 9.5t16.5 27.5t-21.5 30t-61.5 12l1 30l14 32q-128 11 -205 76l42 79q87 -77 209 -77q71 0 112.5 29t41.5 80q0 36 -22.5 61.5t-47 36.5t-83.5 32q-16 6 -25 9
q-36 13 -53 20t-47 21t-45.5 27.5t-33 33.5t-25 45.5t-7.5 56.5q0 89 62.5 140t160.5 51q147 0 238 -76l-49 -72q-39 32 -90 50.5t-100 18.5q-56 0 -94 -27.5t-38 -77.5q0 -25 9.5 -43.5t34.5 -33.5t45.5 -24t65.5 -26q118 -44 155 -68q80 -52 80 -145q0 -98 -61.5 -147.5
t-178.5 -51.5z" />
    <glyph glyph-name="scedilla" unicode="&#x15f;" horiz-adv-x="455" 
d="M229 -6l-11 -25v-2q40 -2 64 -22.5t24 -56.5q0 -34 -27 -55t-80 -21q-26 0 -56 6v44q21 -7 48 -7q23 0 39.5 9.5t16.5 27.5t-21.5 30t-61.5 12l1 30l15 32q-79 9 -140 45l36 69q79 -44 158 -44q104 0 104 64q0 33 -28.5 49.5t-93.5 31.5q-82 18 -125 51.5t-43 94.5
t44 98.5t130 37.5q101 0 176 -46l-39 -65q-59 39 -132 39q-98 0 -98 -63q0 -28 27 -45t97 -33q87 -20 126.5 -52t39.5 -94q0 -139 -190 -140z" />
    <glyph glyph-name="Scaron" unicode="&#x160;" horiz-adv-x="585" 
d="M246 782l-113 124h82l73 -78h2l75 78h82l-116 -124h-85zM299 -6q-154 0 -248 78l42 79q87 -77 209 -77q71 0 112.5 29t41.5 80q0 36 -22.5 61.5t-47 36.5t-83.5 32q-16 6 -25 9q-36 13 -53 20t-47 21t-45.5 27.5t-33 33.5t-25 45.5t-7.5 56.5q0 89 62.5 140t160.5 51
q147 0 238 -76l-49 -72q-39 32 -90 50.5t-100 18.5q-56 0 -94 -27.5t-38 -77.5q0 -25 9.5 -43.5t34.5 -33.5t45.5 -24t65.5 -26q118 -44 155 -68q80 -52 80 -145q0 -99 -63.5 -149t-184.5 -50z" />
    <glyph glyph-name="scaron" unicode="&#x161;" horiz-adv-x="455" 
d="M188 555l-111 139h82l72 -88h2l72 88h83l-115 -139h-85zM225 -6q-105 0 -185 47l36 69q79 -44 158 -44q104 0 104 64q0 33 -28.5 49.5t-93.5 31.5q-82 18 -125 51.5t-43 94.5t44 98.5t130 37.5q101 0 176 -46l-39 -65q-59 39 -132 39q-98 0 -98 -63q0 -28 27 -45t97 -33
q87 -20 126.5 -52t39.5 -94q0 -140 -194 -140z" />
    <glyph glyph-name="uni0162" unicode="&#x162;" horiz-adv-x="576" 
d="M293 0l-14 -31v-2q40 -2 64 -22.5t24 -56.5q0 -34 -27 -55t-80 -21q-26 0 -56 6v44q21 -7 48 -7q23 0 39.5 9.5t16.5 27.5t-21.5 30t-61.5 12l1 30l17 38v629h-212v79h514v-79h-215v-631h-37z" />
    <glyph glyph-name="uni0163" unicode="&#x163;" horiz-adv-x="419" 
d="M236 -33q40 -2 64 -22.5t24 -56.5q0 -34 -27 -55t-80 -21q-26 0 -56 6v44q21 -7 48 -7q23 0 39.5 9.5t16.5 27.5t-21.5 30t-61.5 12l1 30l16 35q-95 22 -95 147v271h-89v70h89v173l81 9v-182h188v-70h-188v-260q0 -47 17.5 -69.5t58.5 -22.5q53 0 98 28l30 -66
q-54 -33 -137 -33h-4l-12 -25v-2z" />
    <glyph glyph-name="Tcaron" unicode="&#x164;" horiz-adv-x="576" 
d="M241 782l-113 124h82l73 -78h2l75 78h82l-116 -124h-85zM243 0v631h-212v79h514v-79h-215v-631h-87z" />
    <glyph glyph-name="tcaron" unicode="&#x165;" horiz-adv-x="418" 
d="M239 588l29 184h80l-49 -184h-60zM252 -6q-79 0 -113.5 37.5t-34.5 114.5v271h-89v70h89v173l81 9v-182h188v-70h-188v-260q0 -47 17.5 -69.5t58.5 -22.5q53 0 98 28l30 -66q-54 -33 -137 -33z" />
    <glyph glyph-name="Tbar" unicode="&#x166;" horiz-adv-x="576" 
d="M545 631h-215v-247h121v-67h-121v-317h-87v317h-117v67h117v247h-212v79h514v-79z" />
    <glyph glyph-name="tbar" unicode="&#x167;" horiz-adv-x="419" 
d="M359 93l30 -66q-54 -33 -137 -33q-79 0 -113.5 37.5t-34.5 114.5v97h-70v58h70v116h-89v70h89v173l81 9v-182h188v-70h-188v-116h119v-58h-119v-86q0 -47 17.5 -69.5t58.5 -22.5q53 0 98 28z" />
    <glyph glyph-name="Utilde" unicode="&#x168;" horiz-adv-x="714" 
d="M435 782q-35 0 -85 33q-41 25 -63 25q-35 0 -58 -55l-52 22q32 94 104 94q36 0 85 -30q4 -2 12.5 -7.5t13 -8t12 -6t13.5 -5t13 -1.5q34 0 54 55l52 -17q-30 -99 -101 -99zM357 -6q-126 0 -200.5 72.5t-74.5 212.5v431h87v-425q0 -99 50.5 -154t137.5 -55q85 0 137 53.5
t52 155.5v425h87v-431q0 -139 -74 -212t-202 -73z" />
    <glyph glyph-name="utilde" unicode="&#x169;" horiz-adv-x="568" 
d="M360 562q-35 0 -88 36q-37 24 -58 24q-39 0 -60 -56l-52 23q31 98 104 98q38 0 81 -29l12 -8t13.5 -8.5t11.5 -6t13.5 -5t13.5 -1.5q38 0 58 55l51 -17q-13 -50 -40 -77.5t-60 -27.5zM251 -6q-87 0 -135 50.5t-48 152.5v290h81v-267q0 -80 29.5 -116t89.5 -36
q61 0 103.5 49.5t42.5 133.5v236h81v-487h-81v84h-2q-27 -43 -69.5 -66.5t-91.5 -23.5z" />
    <glyph glyph-name="Umacron" unicode="&#x16a;" horiz-adv-x="714" 
d="M213 809v67h288v-67h-288zM357 -6q-126 0 -200.5 72.5t-74.5 212.5v431h87v-425q0 -99 50.5 -154t137.5 -55q85 0 137 53.5t52 155.5v425h87v-431q0 -139 -74 -212t-202 -73z" />
    <glyph glyph-name="umacron" unicode="&#x16b;" horiz-adv-x="568" 
d="M138 596v69h288v-69h-288zM251 -6q-87 0 -135 50.5t-48 152.5v290h81v-267q0 -80 29.5 -116t89.5 -36q61 0 103.5 49.5t42.5 133.5v236h81v-487h-81v84h-2q-27 -43 -69.5 -66.5t-91.5 -23.5z" />
    <glyph glyph-name="Ubreve" unicode="&#x16c;" horiz-adv-x="714" 
d="M357 776q-62 0 -100.5 35.5t-43.5 94.5h65q2 -28 23 -47.5t56 -19.5t56 19.5t23 47.5h65q-5 -59 -43.5 -94.5t-100.5 -35.5zM357 -6q-126 0 -200.5 72.5t-74.5 212.5v431h87v-425q0 -99 50.5 -154t137.5 -55q85 0 137 53.5t52 155.5v425h87v-431q0 -139 -74 -212
t-202 -73z" />
    <glyph glyph-name="ubreve" unicode="&#x16d;" horiz-adv-x="568" 
d="M282 552q-63 0 -101.5 37.5t-42.5 104.5h65q2 -33 23 -55.5t56 -22.5t56 22.5t23 55.5h65q-4 -67 -42.5 -104.5t-101.5 -37.5zM251 -6q-87 0 -135 50.5t-48 152.5v290h81v-267q0 -80 29.5 -116t89.5 -36q61 0 103.5 49.5t42.5 133.5v236h81v-487h-81v84h-2
q-27 -43 -69.5 -66.5t-91.5 -23.5z" />
    <glyph glyph-name="Uring" unicode="&#x16e;" horiz-adv-x="714" 
d="M356 760q-39 0 -67 27.5t-28 66.5t27.5 66.5t67.5 27.5q41 0 69 -27t28 -67q0 -38 -28 -66t-69 -28zM356 813q19 0 31.5 12.5t12.5 29.5t-12.5 29.5t-31.5 12.5q-17 0 -29.5 -12.5t-12.5 -29.5q0 -18 12.5 -30t29.5 -12zM357 -6q-126 0 -200.5 72.5t-74.5 212.5v431h87
v-425q0 -99 50.5 -154t137.5 -55q85 0 137 53.5t52 155.5v425h87v-431q0 -139 -74 -212t-202 -73z" />
    <glyph glyph-name="uring" unicode="&#x16f;" horiz-adv-x="568" 
d="M281 545q-39 0 -67 27.5t-28 66.5t27.5 66.5t67.5 27.5q41 0 69 -27t28 -67q0 -38 -28 -66t-69 -28zM281 598q19 0 31.5 12.5t12.5 29.5t-12.5 29.5t-31.5 12.5q-17 0 -29.5 -12.5t-12.5 -29.5q0 -18 12.5 -30t29.5 -12zM251 -6q-87 0 -135 50.5t-48 152.5v290h81v-267
q0 -80 29.5 -116t89.5 -36q61 0 103.5 49.5t42.5 133.5v236h81v-487h-81v84h-2q-27 -43 -69.5 -66.5t-91.5 -23.5z" />
    <glyph glyph-name="Uhungarumlaut" unicode="&#x170;" horiz-adv-x="714" 
d="M233 781l118 141l85 1l-124 -142h-79zM401 781l117 141l85 1l-124 -142h-78zM357 -6q-126 0 -200.5 72.5t-74.5 212.5v431h87v-425q0 -99 50.5 -154t137.5 -55q85 0 137 53.5t52 155.5v425h87v-431q0 -139 -74 -212t-202 -73z" />
    <glyph glyph-name="uhungarumlaut" unicode="&#x171;" horiz-adv-x="568" 
d="M158 557l118 141l85 1l-124 -142h-79zM326 557l117 141l85 1l-124 -142h-78zM251 -6q-87 0 -135 50.5t-48 152.5v290h81v-267q0 -80 29.5 -116t89.5 -36q61 0 103.5 49.5t42.5 133.5v236h81v-487h-81v84h-2q-27 -43 -69.5 -66.5t-91.5 -23.5z" />
    <glyph glyph-name="Uogonek" unicode="&#x172;" horiz-adv-x="714" 
d="M546 710h87v-431q0 -119 -55 -190t-153 -89q-34 -15 -53.5 -36.5t-19.5 -44.5q0 -46 49 -46q27 0 47 9l5 -52q-29 -13 -68 -13q-46 0 -73 23t-27 62q0 47 49 88l-1 5q-116 7 -183.5 79t-67.5 205v431h87v-425q0 -99 50.5 -154t137.5 -55q85 0 137 53.5t52 155.5v425z" />
    <glyph glyph-name="uogonek" unicode="&#x173;" horiz-adv-x="568" 
d="M504 -121l6 -52q-29 -13 -69 -13q-46 0 -72.5 22.5t-26.5 61.5q0 27 19 56t53 51v79h-2q-27 -43 -69.5 -66.5t-91.5 -23.5q-87 0 -135 50.5t-48 152.5v290h81v-267q0 -80 29.5 -116t89.5 -36q61 0 103.5 49.5t42.5 133.5v236h81v-487h-8q-36 -12 -57.5 -36t-21.5 -49
q0 -45 49 -45q28 0 47 9z" />
    <glyph glyph-name="Wcircumflex" unicode="&#x174;" horiz-adv-x="1023" 
d="M354 782l116 124h85l113 -124h-81l-74 78h-2l-74 -78h-83zM262 0l-228 710h96l172 -571h2l161 571h94l159 -571h2l174 571h95l-231 -710h-78l-167 589h-2l-171 -589h-78z" />
    <glyph glyph-name="wcircumflex" unicode="&#x175;" horiz-adv-x="767" 
d="M228 556l115 140h85l111 -140h-81l-72 89h-2l-73 -89h-83zM195 0l-166 487h84l121 -372h2l113 372h70l114 -372h2l121 372h83l-166 -487h-74l-115 361h-1l-116 -361h-72z" />
    <glyph glyph-name="Ycircumflex" unicode="&#x176;" horiz-adv-x="603" 
d="M144 782l116 124h85l113 -124h-81l-74 78h-2l-74 -78h-83zM257 0v317l-241 393h100l184 -308h2l183 308h102l-243 -393v-317h-87z" />
    <glyph glyph-name="ycircumflex" unicode="&#x177;" horiz-adv-x="525" 
d="M106 556l115 140h85l111 -140h-81l-72 89h-2l-73 -89h-83zM113 -204q-66 0 -116 35l32 67q38 -29 81 -29q36 0 58.5 26t46.5 88l12 31l-206 473h88l157 -377h2l148 377h85l-209 -519q-35 -87 -73 -129.5t-106 -42.5z" />
    <glyph glyph-name="Ydieresis" unicode="&#x178;" horiz-adv-x="603" 
d="M212 793q-25 0 -41.5 17t-16.5 41q0 23 16.5 39.5t41.5 16.5q24 0 41 -17t17 -40t-17 -40t-41 -17zM393 793q-24 0 -41 17t-17 41q0 23 17 39.5t41 16.5t41 -17t17 -40t-17 -40t-41 -17zM257 0v317l-241 393h100l184 -308h2l183 308h102l-243 -393v-317h-87z" />
    <glyph glyph-name="Zacute" unicode="&#x179;" horiz-adv-x="618" 
d="M217 782l112 129h93l-122 -129h-83zM59 0v69l378 561l-1 1h-357v79h473v-69l-382 -560l2 -2h383v-79h-496z" />
    <glyph glyph-name="zacute" unicode="&#x17a;" horiz-adv-x="479" 
d="M182 557l118 141l91 1l-124 -142h-85zM40 0v59l282 355l-1 3h-266v70h379v-58l-284 -358v-1h296v-70h-406z" />
    <glyph glyph-name="Zdotaccent" unicode="&#x17b;" horiz-adv-x="618" 
d="M307 792q-25 0 -42 17t-17 41t17 41t42 17t42 -17t17 -41t-17 -41t-42 -17zM59 0v69l378 561l-1 1h-357v79h473v-69l-382 -560l2 -2h383v-79h-496z" />
    <glyph glyph-name="zdotaccent" unicode="&#x17c;" horiz-adv-x="479" 
d="M239 576q-25 0 -42 17t-17 41t17 41t42 17t42 -17t17 -41t-17 -41t-42 -17zM40 0v59l282 355l-1 3h-266v70h379v-58l-284 -358v-1h296v-70h-406z" />
    <glyph glyph-name="Zcaron" unicode="&#x17d;" horiz-adv-x="618" 
d="M262 782l-113 124h82l73 -78h2l75 78h82l-116 -124h-85zM59 0v69l378 561l-1 1h-357v79h473v-69l-382 -560l2 -2h383v-79h-496z" />
    <glyph glyph-name="zcaron" unicode="&#x17e;" horiz-adv-x="479" 
d="M194 555l-111 139h82l72 -88h2l72 88h83l-115 -139h-85zM40 0v59l282 355l-1 3h-266v70h379v-58l-284 -358v-1h296v-70h-406z" />
    <glyph glyph-name="longs" unicode="&#x17f;" horiz-adv-x="325" 
d="M103 0v417h-86v70h86v99q0 77 35.5 117t101.5 40q64 0 112 -31l-23 -67q-40 23 -79 23q-67 0 -67 -90v-578h-80z" />
    <glyph glyph-name="uni018F" unicode="&#x18f;" horiz-adv-x="780" 
d="M369 717q166 0 258.5 -101.5t92.5 -258.5q0 -165 -96 -264t-246 -99q-149 0 -240 88.5t-91 243.5q0 16 2 44h582q-5 120 -75.5 192t-194.5 72q-121 1 -221 -69l-49 68q114 84 278 84zM376 76q97 0 165 57t85 159h-491q4 -99 70 -157.5t171 -58.5z" />
    <glyph glyph-name="florin" unicode="&#x192;" horiz-adv-x="532" 
d="M98 -125q-89 0 -130 41l31 58q38 -25 86 -25q78 0 91 101l46 348h-77l10 70h77l16 117q20 158 160 158q80 0 130 -41l-32 -58q-42 24 -86 24q-79 0 -92 -101l-12 -99h149l-10 -70h-149l-49 -365q-19 -158 -159 -158z" />
    <glyph glyph-name="uni019D" unicode="&#x19d;" horiz-adv-x="769" 
d="M590 710h87v-710h-86l-411 562h-1v-599q0 -167 -131 -167q-39 0 -78 14l6 73q27 -12 53 -12q63 0 63 76v763h87v-5l409 -562h2v567z" />
    <glyph glyph-name="Ohorn" unicode="&#x1a0;" horiz-adv-x="872" 
d="M753 774h83v-73q0 -141 -105 -170q40 -78 40 -176q0 -160 -101.5 -260.5t-253.5 -100.5q-155 0 -255.5 101.5t-100.5 259.5t100.5 260t255.5 102q87 0 161 -35.5t122 -98.5q32 10 43 38.5t11 83.5v69zM416 76q112 0 188 78.5t76 200.5t-76 201t-188 79
q-115 0 -190.5 -79.5t-75.5 -200.5q0 -120 75.5 -199.5t190.5 -79.5z" />
    <glyph glyph-name="ohorn" unicode="&#x1a1;" horiz-adv-x="671" 
d="M568 565h83v-73q0 -146 -112 -172q11 -38 11 -77q0 -110 -71 -179.5t-180 -69.5q-112 0 -182 71t-70 178t70 178.5t182 71.5q71 0 128 -31.5t89 -86.5q32 10 42 38t10 83v69zM299 68q71 0 119.5 49t48.5 126t-48.5 126.5t-119.5 49.5q-75 0 -122 -51t-47 -125
t47.5 -124.5t121.5 -50.5z" />
    <glyph glyph-name="Uhorn" unicode="&#x1af;" horiz-adv-x="796" 
d="M701 774h83v-73q0 -85 -38.5 -130t-112.5 -47v-245q0 -139 -74 -212t-202 -73q-126 0 -200.5 72.5t-74.5 212.5v431h87v-425q0 -99 50.5 -154t137.5 -55q85 0 137 53.5t52 155.5v425h87v-130q41 6 54.5 35t13.5 90v69z" />
    <glyph glyph-name="uhorn" unicode="&#x1b0;" horiz-adv-x="658" 
d="M556 565h83v-73q0 -82 -37 -127t-107 -50v-315h-81v84h-2q-27 -43 -69.5 -66.5t-91.5 -23.5q-87 0 -135 50.5t-48 152.5v290h81v-267q0 -80 29.5 -116t89.5 -36q61 0 103.5 49.5t42.5 133.5v236h81v-115q37 8 49 37t12 87v69z" />
    <glyph glyph-name="Gcaron" unicode="&#x1e6;" horiz-adv-x="767" 
d="M363 782l-113 124h82l73 -78h2l75 78h82l-116 -124h-85zM415 -5q-163 0 -259 97t-96 261q0 157 95 260.5t263 103.5q164 0 270 -114l-58 -65q-86 96 -219 96q-118 0 -189 -78.5t-71 -202.5q0 -125 68 -201.5t197 -76.5q119 0 198 54v158h-207v79h294v-283
q-50 -41 -126 -64.5t-160 -23.5z" />
    <glyph glyph-name="gcaron" unicode="&#x1e7;" horiz-adv-x="605" 
d="M246 555l-111 139h82l72 -88h2l72 88h83l-115 -139h-85zM293 -204q-134 0 -217 50l32 68q85 -44 181 -44q81 0 122.5 40.5t41.5 105.5v78h-2q-59 -85 -169 -85q-101 0 -168.5 67t-67.5 174q0 105 65.5 174t167.5 69q109 0 171 -84h2v78h81v-451q0 -111 -58.5 -175.5
t-181.5 -64.5zM292 84q73 0 118 48t45 122q0 72 -46.5 118t-115.5 46q-73 0 -119 -47t-46 -119q0 -76 46.5 -122t117.5 -46z" />
    <glyph glyph-name="uni01EA" unicode="&#x1ea;" horiz-adv-x="831" 
d="M467 -3q-33 -13 -52 -35.5t-19 -46.5q0 -45 49 -45q27 0 47 9l6 -52q-29 -13 -69 -13q-46 0 -72.5 22.5t-26.5 61.5q0 52 54 94l-1 3q-142 11 -232.5 111t-90.5 249q0 158 100.5 260t255.5 102q152 0 253.5 -101t101.5 -261q0 -145 -85 -242.5t-219 -115.5zM150 355
q0 -120 75.5 -199.5t190.5 -79.5q112 0 188 78.5t76 200.5t-76 201t-188 79q-115 0 -190.5 -79.5t-75.5 -200.5z" />
    <glyph glyph-name="uni01EB" unicode="&#x1eb;" horiz-adv-x="598" 
d="M334 -4q-31 -13 -49.5 -35.5t-18.5 -45.5q0 -45 49 -45q27 0 47 9l6 -52q-29 -13 -69 -13q-46 0 -72.5 22.5t-26.5 61.5q0 54 57 97l-1 2q-94 14 -151.5 82.5t-57.5 163.5q0 107 70 178.5t182 71.5q109 0 180 -70t71 -180q0 -101 -60 -168.5t-156 -78.5zM130 243
q0 -74 47.5 -124.5t121.5 -50.5q71 0 119.5 49t48.5 126t-48.5 126.5t-119.5 49.5q-75 0 -122 -51t-47 -125z" />
    <glyph glyph-name="Aringacute" unicode="&#x1fa;" horiz-adv-x="679" 
d="M338 760q-39 0 -67 27.5t-28 66.5t27.5 66.5t67.5 27.5q44 0 74 -33l69 49h96l-142 -105v-5q0 -38 -28 -66t-69 -28zM338 897q-17 0 -29.5 -12.5t-12.5 -29.5q0 -18 12.5 -30t29.5 -12q19 0 31.5 12.5t12.5 29.5t-12.5 29.5t-31.5 12.5zM382 710l270 -710h-91l-64 173
h-316l-63 -173h-92l269 710h87zM208 249h262l-130 356h-2z" />
    <glyph glyph-name="aringacute" unicode="&#x1fb;" horiz-adv-x="545" 
d="M269 545q-39 0 -67 27.5t-28 66.5t27.5 66.5t67.5 27.5q44 0 73 -32l67 47h97l-140 -102v-7q0 -38 -28 -66t-69 -28zM269 682q-17 0 -29.5 -12.5t-12.5 -29.5q0 -18 12.5 -30t29.5 -12q19 0 31.5 12.5t12.5 29.5t-12.5 29.5t-31.5 12.5zM528 67l5 -65q-21 -7 -49 -7
q-40 0 -66 19t-35 52h-2q-26 -33 -72 -53t-98 -20q-77 0 -121.5 38.5t-44.5 106.5q0 152 189 152h138v6q0 62 -28.5 93.5t-94.5 31.5q-72 0 -150 -32l-24 67q87 37 186 37t143.5 -51.5t44.5 -152.5v-157q0 -69 47 -69q14 0 32 4zM225 63q57 0 101.5 30.5t44.5 71.5v64h-129
q-54 0 -84.5 -22t-30.5 -62q0 -36 23.5 -59t74.5 -23z" />
    <glyph glyph-name="AEacute" unicode="&#x1fc;" horiz-adv-x="953" 
d="M419 782l112 129h93l-122 -129h-83zM9 0l374 710h512v-79h-374v-238h341v-79h-341v-235h388v-79h-475v173h-243l-91 -173h-91zM231 249h203v388h-2z" />
    <glyph glyph-name="aeacute" unicode="&#x1fd;" horiz-adv-x="832" 
d="M560 699l-124 -142h-85l118 141zM801 254q0 -26 -2 -34h-368q7 -74 53.5 -114t125.5 -40q86 0 143 41l38 -64q-70 -49 -181 -49q-147 0 -209 100h-2q-22 -49 -74.5 -75t-121.5 -26q-81 1 -127 40.5t-46 104.5q0 71 47 110t142 39h136v9q0 62 -28.5 93.5t-95.5 31.5
q-69 0 -146 -32l-24 67q84 37 175 37q133 0 171 -99h2q58 99 179 99q102 0 157.5 -66t55.5 -173zM586 419q-60 0 -101 -37.5t-52 -98.5h289q-13 136 -136 136zM211 64q61 0 102 29.5t41 71.5v60h-127q-54 0 -84.5 -21.5t-30.5 -59.5q0 -35 24 -57.5t75 -22.5z" />
    <glyph glyph-name="Oslashacute" unicode="&#x1fe;" horiz-adv-x="829" 
d="M566 911l-122 -129h-83l112 129h93zM773 684l-83 -89q82 -98 82 -240q0 -160 -101.5 -260.5t-253.5 -100.5q-125 0 -218 69l-82 -89l-52 47l83 89q-87 100 -87 245q0 158 100.5 260t255.5 102q130 0 224 -75l81 87zM151 355q0 -104 58 -179l373 402q-71 57 -165 57
q-115 0 -190.5 -79.5t-75.5 -200.5zM681 355q0 100 -53 173l-369 -401q69 -51 158 -51q112 0 188 78.5t76 200.5z" />
    <glyph glyph-name="oslashacute" unicode="&#x1ff;" horiz-adv-x="596" 
d="M461 699l-124 -142h-85l118 141zM557 465l-59 -62q53 -65 53 -160q0 -110 -71 -179.5t-180 -69.5q-84 0 -146 42l-54 -58l-46 42l53 57q-59 68 -59 166q0 107 70 178.5t182 71.5q89 0 154 -48l58 62zM131 243q0 -60 33 -107l235 251q-41 32 -99 32q-75 0 -122 -51
t-47 -125zM468 243q0 55 -27 99l-233 -248q40 -26 92 -26q71 0 119.5 49t48.5 126z" />
    <glyph glyph-name="Scommaaccent" unicode="&#x218;" horiz-adv-x="585" 
d="M299 -6q-154 0 -248 78l42 79q87 -77 209 -77q71 0 112.5 29t41.5 80q0 36 -22.5 61.5t-47 36.5t-83.5 32q-16 6 -25 9q-36 13 -53 20t-47 21t-45.5 27.5t-33 33.5t-25 45.5t-7.5 56.5q0 89 62.5 140t160.5 51q147 0 238 -76l-49 -72q-39 32 -90 50.5t-100 18.5
q-56 0 -94 -27.5t-38 -77.5q0 -25 9.5 -43.5t34.5 -33.5t45.5 -24t65.5 -26q118 -44 155 -68q80 -52 80 -145q0 -99 -63.5 -149t-184.5 -50zM228 -212l-20 49q33 7 46 22.5t13 41.5q0 17 -5 45h74q4 -20 4 -49q0 -48 -30.5 -76t-81.5 -33z" />
    <glyph glyph-name="scommaaccent" unicode="&#x219;" horiz-adv-x="455" 
d="M225 -6q-105 0 -185 47l36 69q79 -44 158 -44q104 0 104 64q0 33 -28.5 49.5t-93.5 31.5q-82 18 -125 51.5t-43 94.5t44 98.5t130 37.5q101 0 176 -46l-39 -65q-59 39 -132 39q-98 0 -98 -63q0 -28 27 -45t97 -33q87 -20 126.5 -52t39.5 -94q0 -140 -194 -140zM151 -212
l-20 49q33 7 46 22.5t13 41.5q0 17 -5 45h74q4 -20 4 -49q0 -48 -30.5 -76t-81.5 -33z" />
    <glyph glyph-name="uni021A" unicode="&#x21a;" horiz-adv-x="576" 
d="M243 0v631h-212v79h514v-79h-215v-631h-87zM212 -212l-20 49q33 7 46 22.5t13 41.5q0 17 -5 45h74q4 -20 4 -49q0 -48 -30.5 -76t-81.5 -33z" />
    <glyph glyph-name="uni021B" unicode="&#x21b;" horiz-adv-x="419" 
d="M252 -6q-79 0 -113.5 37.5t-34.5 114.5v271h-89v70h89v173l81 9v-182h188v-70h-188v-260q0 -47 17.5 -69.5t58.5 -22.5q53 0 98 28l30 -66q-54 -33 -137 -33zM169 -212l-20 49q33 7 46 22.5t13 41.5q0 17 -5 45h74q4 -20 4 -49q0 -48 -30.5 -76t-81.5 -33z" />
    <glyph glyph-name="uni0232" unicode="&#x232;" horiz-adv-x="603" 
d="M158 809v67h288v-67h-288zM257 0v317l-241 393h100l184 -308h2l183 308h102l-243 -393v-317h-87z" />
    <glyph glyph-name="uni0233" unicode="&#x233;" horiz-adv-x="525" 
d="M118 596v69h288v-69h-288zM113 -204q-66 0 -116 35l32 67q38 -29 81 -29q36 0 58.5 26t46.5 88l12 31l-206 473h88l157 -377h2l148 377h85l-209 -519q-35 -87 -73 -129.5t-106 -42.5z" />
    <glyph glyph-name="uni0237" unicode="&#x237;" horiz-adv-x="232" 
d="M36 -204q-45 0 -84 17l14 72q24 -15 55 -15q59 0 59 80v537h81v-541q0 -150 -125 -150z" />
    <glyph glyph-name="uni0259" unicode="&#x259;" horiz-adv-x="556" 
d="M250 493q118 0 188 -68t70 -185q0 -112 -62.5 -179t-169.5 -67t-170.5 59t-63.5 155q0 36 4 60h381q-9 72 -57 112.5t-125 40.5t-147 -31l-24 69q83 34 176 34zM276 68q62 0 102 34.5t49 99.5h-303v-3q0 -60 41.5 -95.5t110.5 -35.5z" />
    <glyph glyph-name="uni0272" unicode="&#x272;" horiz-adv-x="583" 
d="M339 493q81 0 127.5 -51.5t46.5 -152.5v-289h-80v266q0 153 -120 153q-70 0 -111 -47t-41 -129v-285q0 -162 -131 -162q-36 0 -71 14l6 66q26 -11 52 -11q63 0 63 86v536h81v-88h1q61 94 177 94z" />
    <glyph glyph-name="circumflex" unicode="&#x2c6;" horiz-adv-x="495" 
d="M92 540l115 140h85l111 -140h-81l-72 89h-2l-73 -89h-83z" />
    <glyph glyph-name="caron" unicode="&#x2c7;" horiz-adv-x="495" 
d="M203 539l-111 139h82l72 -88h2l72 88h83l-115 -139h-85z" />
    <glyph glyph-name="breve" unicode="&#x2d8;" horiz-adv-x="466" 
d="M233 536q-63 0 -101.5 37.5t-42.5 104.5h65q2 -33 23 -55.5t56 -22.5t56 22.5t23 55.5h65q-4 -67 -42.5 -104.5t-101.5 -37.5z" />
    <glyph glyph-name="dotaccent" unicode="&#x2d9;" horiz-adv-x="493" 
d="M247 560q-25 0 -42 17t-17 41t17 41t42 17t42 -17t17 -41t-17 -41t-42 -17z" />
    <glyph glyph-name="ring" unicode="&#x2da;" horiz-adv-x="458" 
d="M228 522q-39 0 -67 27.5t-28 66.5t27.5 66.5t67.5 27.5q41 0 69 -27t28 -67q0 -38 -28 -66t-69 -28zM228 575q19 0 31.5 12.5t12.5 29.5t-12.5 29.5t-31.5 12.5q-17 0 -29.5 -12.5t-12.5 -29.5q0 -18 12.5 -30t29.5 -12z" />
    <glyph glyph-name="ogonek" unicode="&#x2db;" horiz-adv-x="468" 
d="M271 -186q-46 0 -72.5 22.5t-26.5 61.5q0 30 23 62t64 54l61 -13q-37 -12 -59.5 -36t-22.5 -50q0 -45 49 -45q27 0 47 9l6 -52q-29 -13 -69 -13z" />
    <glyph glyph-name="tilde" unicode="&#x2dc;" horiz-adv-x="506" 
d="M332 546q-35 0 -88 36q-37 24 -58 24q-39 0 -60 -56l-52 23q31 98 104 98q38 0 81 -29l12 -8t13.5 -8.5t11.5 -6t13.5 -5t13.5 -1.5q38 0 58 55l51 -17q-13 -50 -40 -77.5t-60 -27.5z" />
    <glyph glyph-name="hungarumlaut" unicode="&#x2dd;" horiz-adv-x="518" 
d="M75 541l118 141l85 1l-124 -142h-79zM243 541l117 141l85 1l-124 -142h-78z" />
    <glyph glyph-name="gravecomb" unicode="&#x300;" 
d="M-487 542l-121 138l92 -1l111 -137h-82z" />
    <glyph glyph-name="acutecomb" unicode="&#x301;" 
d="M-589 541l118 141l91 1l-124 -142h-85z" />
    <glyph glyph-name="uni0302" unicode="&#x302;" 
d="M-656 540l115 140h85l111 -140h-81l-72 89h-2l-73 -89h-83z" />
    <glyph glyph-name="tildecomb" unicode="&#x303;" 
d="M-422 546q-35 0 -88 36q-37 24 -58 24q-39 0 -60 -56l-52 23q31 98 104 98q38 0 81 -29l12 -8t13.5 -8.5t11.5 -6t13.5 -5t13.5 -1.5q38 0 58 55l51 -17q-13 -50 -40 -77.5t-60 -27.5z" />
    <glyph glyph-name="uni0304" unicode="&#x304;" 
d="M-644 580v69h288v-69h-288z" />
    <glyph glyph-name="uni0306" unicode="&#x306;" 
d="M-500 536q-63 0 -101.5 37.5t-42.5 104.5h65q2 -33 23 -55.5t56 -22.5t56 22.5t23 55.5h65q-4 -67 -42.5 -104.5t-101.5 -37.5z" />
    <glyph glyph-name="uni0307" unicode="&#x307;" 
d="M-500 560q-25 0 -42 17t-17 41t17 41t42 17t42 -17t17 -41t-17 -41t-42 -17z" />
    <glyph glyph-name="uni0308" unicode="&#x308;" 
d="M-591 561q-25 0 -41.5 17t-16.5 41q0 23 16.5 39.5t41.5 16.5q24 0 41 -17t17 -40t-17 -40t-41 -17zM-410 561q-24 0 -41 17t-17 41q0 23 17 39.5t41 16.5t41 -17t17 -40t-17 -40t-41 -17z" />
    <glyph glyph-name="hookabovecomb" unicode="&#x309;" 
d="M-534 538q82 60 81 93q0 29 -40 29q-47 0 -88 -33l-20 47q50 44 126 44q41 0 65.5 -19t24.5 -58q0 -33 -26 -60t-57 -43h-66z" />
    <glyph glyph-name="uni030A" unicode="&#x30a;" 
d="M-501 529q-39 0 -67 27.5t-28 66.5t27.5 66.5t67.5 27.5q41 0 69 -27t28 -67q0 -38 -28 -66t-69 -28zM-501 582q19 0 31.5 12.5t12.5 29.5t-12.5 29.5t-31.5 12.5q-17 0 -29.5 -12.5t-12.5 -29.5q0 -18 12.5 -30t29.5 -12z" />
    <glyph glyph-name="uni030B" unicode="&#x30b;" 
d="M-624 541l118 141l85 1l-124 -142h-79zM-456 541l117 141l85 1l-124 -142h-78z" />
    <glyph glyph-name="uni030C" unicode="&#x30c;" 
d="M-545 539l-111 139h82l72 -88h2l72 88h83l-115 -139h-85z" />
    <glyph glyph-name="uni0312" unicode="&#x312;" 
d="M-530 540q-4 21 -4 50q0 48 30.5 76t81.5 33l20 -49q-33 -8 -46 -23.5t-13 -41.5q0 -15 5 -45h-74z" />
    <glyph glyph-name="uni0313" unicode="&#x313;" 
d="M-454 692q4 -21 4 -50q0 -48 -30.5 -76t-81.5 -33l-20 49q33 8 46 23.5t13 41.5q0 15 -5 45h74z" />
    <glyph glyph-name="uni031B" unicode="&#x31b;" 
d="M-513 460l-1 54q52 3 68.5 32t16.5 95v69h83v-73q0 -89 -43 -134t-124 -43z" />
    <glyph glyph-name="dotbelowcomb" unicode="&#x323;" 
d="M-500 -94q25 0 42 -17t17 -41t-17 -41t-42 -17t-42 17t-17 41t17 41t42 17z" />
    <glyph glyph-name="uni0326" unicode="&#x326;" 
d="M-578 -212l-20 49q33 7 46 22.5t13 41.5q0 17 -5 45h74q4 -20 4 -49q0 -48 -30.5 -76t-81.5 -33z" />
    <glyph glyph-name="uni0327" unicode="&#x327;" 
d="M-530 -188q-26 0 -56 6v44q21 -7 48 -7q23 0 39.5 9.5t16.5 27.5t-21.5 30t-61.5 12l1 30l19 42h51l-17 -37v-2q40 -2 64 -22.5t24 -56.5q0 -34 -27 -55t-80 -21z" />
    <glyph glyph-name="uni0328" unicode="&#x328;" 
d="M-554 -186q-46 0 -72.5 22.5t-26.5 61.5q0 30 23 62t64 54l61 -13q-37 -12 -59.5 -36t-22.5 -50q0 -45 49 -45q27 0 47 9l6 -52q-29 -13 -69 -13z" />
    <glyph glyph-name="uni0335" unicode="&#x335;" 
d="M-633 243v58h270v-58h-270z" />
    <glyph glyph-name="Wgrave" unicode="&#x1e80;" horiz-adv-x="1023" 
d="M474 782l-122 129h92l112 -129h-82zM262 0l-228 710h96l172 -571h2l161 571h94l159 -571h2l174 571h95l-231 -710h-78l-167 589h-2l-171 -589h-78z" />
    <glyph glyph-name="wgrave" unicode="&#x1e81;" horiz-adv-x="767" 
d="M342 558l-121 138l92 -1l111 -137h-82zM195 0l-166 487h84l121 -372h2l113 372h70l114 -372h2l121 372h83l-166 -487h-74l-115 361h-1l-116 -361h-72z" />
    <glyph glyph-name="Wacute" unicode="&#x1e82;" horiz-adv-x="1023" 
d="M472 782l112 129h93l-122 -129h-83zM262 0l-228 710h96l172 -571h2l161 571h94l159 -571h2l174 571h95l-231 -710h-78l-167 589h-2l-171 -589h-78z" />
    <glyph glyph-name="wacute" unicode="&#x1e83;" horiz-adv-x="767" 
d="M340 557l118 141l91 1l-124 -142h-85zM195 0l-166 487h84l121 -372h2l113 372h70l114 -372h2l121 372h83l-166 -487h-74l-115 361h-1l-116 -361h-72z" />
    <glyph glyph-name="Wdieresis" unicode="&#x1e84;" horiz-adv-x="1023" 
d="M422 793q-25 0 -41.5 17t-16.5 41q0 23 16.5 39.5t41.5 16.5q24 0 41 -17t17 -40t-17 -40t-41 -17zM603 793q-24 0 -41 17t-17 41q0 23 17 39.5t41 16.5t41 -17t17 -40t-17 -40t-41 -17zM262 0l-228 710h96l172 -571h2l161 571h94l159 -571h2l174 571h95l-231 -710h-78
l-167 589h-2l-171 -589h-78z" />
    <glyph glyph-name="wdieresis" unicode="&#x1e85;" horiz-adv-x="767" 
d="M293 577q-25 0 -41.5 17t-16.5 41q0 23 16.5 39.5t41.5 16.5q24 0 41 -17t17 -40t-17 -40t-41 -17zM474 577q-24 0 -41 17t-17 41q0 23 17 39.5t41 16.5t41 -17t17 -40t-17 -40t-41 -17zM195 0l-166 487h84l121 -372h2l113 372h70l114 -372h2l121 372h83l-166 -487h-74
l-115 361h-1l-116 -361h-72z" />
    <glyph glyph-name="uni1E9E" unicode="&#x1e9e;" horiz-adv-x="746" 
d="M498 405q104 -43 132 -60q84 -60 87 -156q0 -92 -62 -143.5t-167 -51.5q-140 0 -237 72l41 79q78 -70 192 -70q65 0 103.5 30.5t38.5 80.5t-37 77t-122 57q-45 17 -102 44l133 254l-1 3q-93 16 -164 16q-89 0 -130 -35t-42 -115v-487h-87l1 492q0 225 248 225
q113 0 297 -42l-140 -263q12 -4 18 -7z" />
    <glyph glyph-name="uni1EA0" unicode="&#x1ea0;" horiz-adv-x="679" 
d="M26 0l269 710h87l270 -710h-91l-64 173h-316l-63 -173h-92zM208 249h262l-130 356h-2zM340 -94q25 0 42 -17t17 -41t-17 -41t-42 -17t-42 17t-17 41t17 41t42 17z" />
    <glyph glyph-name="uni1EA1" unicode="&#x1ea1;" horiz-adv-x="548" 
d="M528 67l5 -65q-21 -7 -49 -7q-40 0 -66 19t-35 52h-2q-26 -33 -72 -53t-98 -20q-77 0 -121.5 38.5t-44.5 106.5q0 152 189 152h138v6q0 62 -28.5 93.5t-94.5 31.5q-72 0 -150 -32l-24 67q87 37 186 37t143.5 -51.5t44.5 -152.5v-157q0 -69 47 -69q14 0 32 4zM225 63
q57 0 101.5 30.5t44.5 71.5v64h-129q-54 0 -84.5 -22t-30.5 -62q0 -36 23.5 -59t74.5 -23zM265 -94q25 0 42 -17t17 -41t-17 -41t-42 -17t-42 17t-17 41t17 41t42 17z" />
    <glyph glyph-name="uni1EA2" unicode="&#x1ea2;" horiz-adv-x="679" 
d="M307 778q4 3 16 11.5t16.5 11.5t14 10.5t13.5 12t9.5 11t7.5 12t2 11.5q0 28 -40 28q-44 0 -89 -32l-20 47q53 40 127 40q40 0 64.5 -18.5t24.5 -55.5q0 -22 -15 -41t-29 -28t-36 -20h-66zM26 0l269 710h87l270 -710h-91l-64 173h-316l-63 -173h-92zM208 249h262
l-130 356h-2z" />
    <glyph glyph-name="uni1EA3" unicode="&#x1ea3;" horiz-adv-x="548" 
d="M277 676q-47 0 -88 -33l-20 47q50 44 126 44q41 0 65.5 -19t24.5 -58q0 -33 -26 -60t-57 -43h-66q82 60 81 93q0 29 -40 29zM528 67l5 -65q-21 -7 -49 -7q-40 0 -66 19t-35 52h-2q-26 -33 -72 -53t-98 -20q-77 0 -121.5 38.5t-44.5 106.5q0 152 189 152h138v6
q0 62 -28.5 93.5t-94.5 31.5q-72 0 -150 -32l-24 67q87 37 186 37t143.5 -51.5t44.5 -152.5v-157q0 -69 47 -69q14 0 32 4zM225 63q57 0 101.5 30.5t44.5 71.5v64h-129q-54 0 -84.5 -22t-30.5 -62q0 -36 23.5 -59t74.5 -23z" />
    <glyph glyph-name="uni1EA4" unicode="&#x1ea4;" horiz-adv-x="679" 
d="M483 839l96 135h91l-123 -135h-64zM181 782l116 124h85l113 -124h-81l-74 78h-2l-74 -78h-83zM26 0l269 710h87l270 -710h-91l-64 173h-316l-63 -173h-92zM208 249h262l-130 356h-2z" />
    <glyph glyph-name="uni1EA5" unicode="&#x1ea5;" horiz-adv-x="548" 
d="M581 785l-124 -142h-64l96 142h92zM271 645l-73 -89h-83l115 140h85l111 -140h-81l-72 89h-2zM496 63q14 0 32 4l5 -65q-21 -7 -49 -7q-40 0 -66 19t-35 52h-2q-26 -33 -72 -53t-98 -20q-77 0 -121.5 38.5t-44.5 106.5q0 152 189 152h138v6q0 62 -28.5 93.5t-94.5 31.5
q-72 0 -150 -32l-24 67q87 37 186 37t143.5 -51.5t44.5 -152.5v-157q0 -69 47 -69zM225 63q57 0 101.5 30.5t44.5 71.5v64h-129q-54 0 -84.5 -22t-30.5 -62q0 -36 23.5 -59t74.5 -23z" />
    <glyph glyph-name="uni1EA6" unicode="&#x1ea6;" horiz-adv-x="679" 
d="M527 838l-123 135h91l97 -135h-65zM181 782l116 124h85l113 -124h-81l-74 78h-2l-74 -78h-83zM26 0l269 710h87l270 -710h-91l-64 173h-316l-63 -173h-92zM208 249h262l-130 356h-2z" />
    <glyph glyph-name="uni1EA7" unicode="&#x1ea7;" horiz-adv-x="548" 
d="M499 643h-65l-123 142h91zM270 646l-73 -89h-83l115 140h85l111 -140h-81l-72 89h-2zM528 67l5 -65q-21 -7 -49 -7q-40 0 -66 19t-35 52h-2q-26 -33 -72 -53t-98 -20q-77 0 -121.5 38.5t-44.5 106.5q0 152 189 152h138v6q0 62 -28.5 93.5t-94.5 31.5q-72 0 -150 -32
l-24 67q87 37 186 37t143.5 -51.5t44.5 -152.5v-157q0 -69 47 -69q14 0 32 4zM225 63q57 0 101.5 30.5t44.5 71.5v64h-129q-54 0 -84.5 -22t-30.5 -62q0 -36 23.5 -59t74.5 -23z" />
    <glyph glyph-name="uni1EA8" unicode="&#x1ea8;" horiz-adv-x="679" 
d="M486 845q4 3 11.5 8.5t11.5 8t11 7.5t10.5 8.5t9 8t8 8.5t5.5 8t4 8.5t1 8.5q0 25 -37 25q-38 0 -81 -29l-19 43q50 36 117 36q36 0 59 -17t23 -50q0 -44 -74 -82h-60zM181 782l116 124h85l113 -124h-81l-74 78h-2l-74 -78h-83zM26 0l269 710h87l270 -710h-91l-64 173
h-316l-63 -173h-92zM208 249h262l-130 356h-2z" />
    <glyph glyph-name="uni1EA9" unicode="&#x1ea9;" horiz-adv-x="548" 
d="M447 764q-46 0 -84 -31l-19 45q48 42 120 42q38 0 62 -18.5t24 -55.5q0 -31 -25 -57t-54 -41h-63q78 56 77 89q0 27 -38 27zM270 645l-73 -89h-83l115 140h85l111 -140h-81l-72 89h-2zM496 63q14 0 32 4l5 -65q-21 -7 -49 -7q-40 0 -66 19t-35 52h-2q-26 -33 -72 -53
t-98 -20q-77 0 -121.5 38.5t-44.5 106.5q0 152 189 152h138v6q0 62 -28.5 93.5t-94.5 31.5q-72 0 -150 -32l-24 67q87 37 186 37t143.5 -51.5t44.5 -152.5v-157q0 -69 47 -69zM225 63q57 0 101.5 30.5t44.5 71.5v64h-129q-54 0 -84.5 -22t-30.5 -62q0 -36 23.5 -59t74.5 -23
z" />
    <glyph glyph-name="uni1EAA" unicode="&#x1eaa;" horiz-adv-x="679" 
d="M416 928q-34 0 -82 31q-41 24 -60 24q-35 0 -56 -53l-50 21q30 90 100 90q35 0 82 -28q2 -1 11.5 -7.5t13 -8t11 -5.5t13.5 -5t12 -1q34 0 52 52l50 -16q-28 -94 -97 -94zM181 782l116 124h85l113 -124h-81l-74 78h-2l-74 -78h-83zM26 0l269 710h87l270 -710h-91l-64 173
h-316l-63 -173h-92zM208 249h262l-130 356h-2z" />
    <glyph glyph-name="uni1EAB" unicode="&#x1eab;" horiz-adv-x="548" 
d="M203 804q-34 -3 -54 -56l-52 23q31 94 100 94q35 0 76 -26q46 -29 63 -29q39 0 58 56l52 -18q-29 -100 -101 -100q-33 0 -83 32q-38 25 -59 24zM230 696h85l111 -140h-81l-72 89h-2l-73 -89h-83zM528 67l5 -65q-21 -7 -49 -7q-40 0 -66 19t-35 52h-2q-26 -33 -72 -53
t-98 -20q-77 0 -121.5 38.5t-44.5 106.5q0 152 189 152h138v6q0 62 -28.5 93.5t-94.5 31.5q-72 0 -150 -32l-24 67q87 37 186 37t143.5 -51.5t44.5 -152.5v-157q0 -69 47 -69q14 0 32 4zM225 63q57 0 101.5 30.5t44.5 71.5v64h-129q-54 0 -84.5 -22t-30.5 -62
q0 -36 23.5 -59t74.5 -23z" />
    <glyph glyph-name="uni1EAC" unicode="&#x1eac;" horiz-adv-x="679" 
d="M181 782l116 124h85l113 -124h-81l-74 78h-2l-74 -78h-83zM26 0l269 710h87l270 -710h-91l-64 173h-316l-63 -173h-92zM208 249h262l-130 356h-2zM340 -94q25 0 42 -17t17 -41t-17 -41t-42 -17t-42 17t-17 41t17 41t42 17z" />
    <glyph glyph-name="uni1EAD" unicode="&#x1ead;" horiz-adv-x="548" 
d="M270 645l-73 -89h-83l115 140h85l111 -140h-81l-72 89h-2zM528 67l5 -65q-21 -7 -49 -7q-40 0 -66 19t-35 52h-2q-26 -33 -72 -53t-98 -20q-77 0 -121.5 38.5t-44.5 106.5q0 152 189 152h138v6q0 62 -28.5 93.5t-94.5 31.5q-72 0 -150 -32l-24 67q87 37 186 37
t143.5 -51.5t44.5 -152.5v-157q0 -69 47 -69q14 0 32 4zM225 63q57 0 101.5 30.5t44.5 71.5v64h-129q-54 0 -84.5 -22t-30.5 -62q0 -36 23.5 -59t74.5 -23zM265 -94q25 0 42 -17t17 -41t-17 -41t-42 -17t-42 17t-17 41t17 41t42 17z" />
    <glyph glyph-name="uni1EAE" unicode="&#x1eae;" horiz-adv-x="679" 
d="M307 892l96 135h91l-123 -135h-64zM339 773q-66 0 -107 32.5t-46 86.5h69q2 -26 24 -43.5t60 -17.5q37 0 59.5 18t24.5 43h69q-5 -54 -46 -86.5t-107 -32.5zM26 0l269 710h87l270 -710h-91l-64 173h-316l-63 -173h-92zM208 249h262l-130 356h-2z" />
    <glyph glyph-name="uni1EAF" unicode="&#x1eaf;" horiz-adv-x="548" 
d="M419 845l-123 -142h-65l97 142h91zM270 552q-63 0 -101.5 37.5t-42.5 104.5h65q2 -33 23 -55.5t56 -22.5t56 22.5t23 55.5h65q-4 -67 -42.5 -104.5t-101.5 -37.5zM528 67l5 -65q-21 -7 -49 -7q-40 0 -66 19t-35 52h-2q-26 -33 -72 -53t-98 -20q-77 0 -121.5 38.5
t-44.5 106.5q0 152 189 152h138v6q0 62 -28.5 93.5t-94.5 31.5q-72 0 -150 -32l-24 67q87 37 186 37t143.5 -51.5t44.5 -152.5v-157q0 -69 47 -69q14 0 32 4zM225 63q57 0 101.5 30.5t44.5 71.5v64h-129q-54 0 -84.5 -22t-30.5 -62q0 -36 23.5 -59t74.5 -23z" />
    <glyph glyph-name="uni1EB0" unicode="&#x1eb0;" horiz-adv-x="679" 
d="M314 892l-123 135h92l96 -135h-65zM339 773q-66 0 -107 32.5t-46 86.5h69q2 -26 24 -43.5t60 -17.5q37 0 59.5 18t24.5 43h69q-5 -54 -46 -86.5t-107 -32.5zM26 0l269 710h87l270 -710h-91l-64 173h-316l-63 -173h-92zM208 249h262l-130 356h-2z" />
    <glyph glyph-name="uni1EB1" unicode="&#x1eb1;" horiz-adv-x="548" 
d="M313 703h-65l-124 142h92zM191 694q2 -33 23 -55.5t56 -22.5t56 22.5t23 55.5h65q-4 -67 -42.5 -104.5t-101.5 -37.5t-101.5 37.5t-42.5 104.5h65zM528 67l5 -65q-21 -7 -49 -7q-40 0 -66 19t-35 52h-2q-26 -33 -72 -53t-98 -20q-77 0 -121.5 38.5t-44.5 106.5
q0 152 189 152h138v6q0 62 -28.5 93.5t-94.5 31.5q-72 0 -150 -32l-24 67q87 37 186 37t143.5 -51.5t44.5 -152.5v-157q0 -69 47 -69q14 0 32 4zM225 63q57 0 101.5 30.5t44.5 71.5v64h-129q-54 0 -84.5 -22t-30.5 -62q0 -36 23.5 -59t74.5 -23z" />
    <glyph glyph-name="uni1EB2" unicode="&#x1eb2;" horiz-adv-x="679" 
d="M298 890q3 2 11 7.5t11.5 8.5t10.5 8t10.5 8t9 7.5t8 8t5.5 8t4 8.5t1 8q0 25 -36 25q-39 0 -80 -28l-18 42q49 36 114 36q36 0 58.5 -17t22.5 -50q0 -15 -6.5 -27.5t-20.5 -23.5t-21 -15.5t-24 -13.5h-60zM339 773q-66 0 -107 32.5t-46 86.5h69q2 -26 24 -43.5t60 -17.5
q37 0 59.5 18t24.5 43h69q-5 -54 -46 -86.5t-107 -32.5zM26 0l269 710h87l270 -710h-91l-64 173h-316l-63 -173h-92zM208 249h262l-130 356h-2z" />
    <glyph glyph-name="uni1EB3" unicode="&#x1eb3;" horiz-adv-x="548" 
d="M271 805q-46 0 -84 -31l-19 45q48 42 120 42q38 0 62 -18.5t24 -55.5q0 -31 -25 -57t-54 -41h-63q78 56 77 89q0 27 -38 27zM270 553q-65 0 -104.5 36t-43.5 100h67q2 -31 24 -53t57 -22q36 0 57.5 21.5t23.5 53.5h67q-4 -64 -43.5 -100t-104.5 -36zM528 67l5 -65
q-21 -7 -49 -7q-40 0 -66 19t-35 52h-2q-26 -33 -72 -53t-98 -20q-77 0 -121.5 38.5t-44.5 106.5q0 152 189 152h138v6q0 62 -28.5 93.5t-94.5 31.5q-72 0 -150 -32l-24 67q87 37 186 37t143.5 -51.5t44.5 -152.5v-157q0 -69 47 -69q14 0 32 4zM225 63q57 0 101.5 30.5
t44.5 71.5v64h-129q-54 0 -84.5 -22t-30.5 -62q0 -36 23.5 -59t74.5 -23z" />
    <glyph glyph-name="uni1EB4" unicode="&#x1eb4;" horiz-adv-x="679" 
d="M415 913q-34 0 -82 31q-41 24 -60 24q-35 0 -56 -53l-50 21q30 90 100 90q35 0 82 -28q2 -1 11.5 -7.5t13 -8t11 -5.5t13.5 -5t12 -1q34 0 52 52l50 -16q-28 -94 -97 -94zM339 773q-66 0 -107 32.5t-46 86.5h69q2 -26 24 -43.5t60 -17.5q37 0 59.5 18t24.5 43h69
q-5 -54 -46 -86.5t-107 -32.5zM26 0l269 710h87l270 -710h-91l-64 173h-316l-63 -173h-92zM208 249h262l-130 356h-2z" />
    <glyph glyph-name="uni1EB5" unicode="&#x1eb5;" horiz-adv-x="548" 
d="M202 796q-34 -3 -54 -56l-52 23q31 94 100 94q35 0 76 -26q46 -29 63 -29q39 0 58 56l52 -18q-29 -100 -101 -100q-33 0 -83 32q-38 25 -59 24zM269 616q35 0 56 22.5t23 55.5h65q-4 -67 -42.5 -104.5t-101.5 -37.5t-101.5 37.5t-42.5 104.5h65q2 -33 23 -55.5t56 -22.5z
M528 67l5 -65q-21 -7 -49 -7q-40 0 -66 19t-35 52h-2q-26 -33 -72 -53t-98 -20q-77 0 -121.5 38.5t-44.5 106.5q0 152 189 152h138v6q0 62 -28.5 93.5t-94.5 31.5q-72 0 -150 -32l-24 67q87 37 186 37t143.5 -51.5t44.5 -152.5v-157q0 -69 47 -69q14 0 32 4zM225 63
q57 0 101.5 30.5t44.5 71.5v64h-129q-54 0 -84.5 -22t-30.5 -62q0 -36 23.5 -59t74.5 -23z" />
    <glyph glyph-name="uni1EB6" unicode="&#x1eb6;" horiz-adv-x="679" 
d="M339 776q-62 0 -100.5 35.5t-43.5 94.5h65q2 -28 23 -47.5t56 -19.5t56 19.5t23 47.5h65q-5 -59 -43.5 -94.5t-100.5 -35.5zM26 0l269 710h87l270 -710h-91l-64 173h-316l-63 -173h-92zM208 249h262l-130 356h-2zM340 -94q25 0 42 -17t17 -41t-17 -41t-42 -17t-42 17
t-17 41t17 41t42 17z" />
    <glyph glyph-name="uni1EB7" unicode="&#x1eb7;" horiz-adv-x="548" 
d="M270 552q-63 0 -101.5 37.5t-42.5 104.5h65q2 -33 23 -55.5t56 -22.5t56 22.5t23 55.5h65q-4 -67 -42.5 -104.5t-101.5 -37.5zM528 67l5 -65q-21 -7 -49 -7q-40 0 -66 19t-35 52h-2q-26 -33 -72 -53t-98 -20q-77 0 -121.5 38.5t-44.5 106.5q0 152 189 152h138v6
q0 62 -28.5 93.5t-94.5 31.5q-72 0 -150 -32l-24 67q87 37 186 37t143.5 -51.5t44.5 -152.5v-157q0 -69 47 -69q14 0 32 4zM225 63q57 0 101.5 30.5t44.5 71.5v64h-129q-54 0 -84.5 -22t-30.5 -62q0 -36 23.5 -59t74.5 -23zM265 -94q25 0 42 -17t17 -41t-17 -41t-42 -17
t-42 17t-17 41t17 41t42 17z" />
    <glyph glyph-name="uni1EB8" unicode="&#x1eb8;" horiz-adv-x="632" 
d="M92 0v710h473v-79h-386v-238h353v-79h-353v-235h399v-79h-486zM344 -94q25 0 42 -17t17 -41t-17 -41t-42 -17t-42 17t-17 41t17 41t42 17z" />
    <glyph glyph-name="uni1EB9" unicode="&#x1eb9;" horiz-adv-x="551" 
d="M510 254q0 -25 -2 -35h-379q7 -72 55 -112.5t129 -40.5q92 0 149 41l38 -64q-70 -49 -193 -49q-124 0 -192 67.5t-68 181.5q0 110 67.5 180t173.5 70q107 0 164.5 -66t57.5 -173zM286 419q-59 0 -101 -37t-53 -97h298q-8 64 -44.5 99t-99.5 35zM294 -94q25 0 42 -17
t17 -41t-17 -41t-42 -17t-42 17t-17 41t17 41t42 17z" />
    <glyph glyph-name="uni1EBA" unicode="&#x1eba;" horiz-adv-x="632" 
d="M303 778q4 3 16 11.5t16.5 11.5t14 10.5t13.5 12t9.5 11t7.5 12t2 11.5q0 28 -40 28q-44 0 -89 -32l-20 47q53 40 127 40q40 0 64.5 -18.5t24.5 -55.5q0 -22 -15 -41t-29 -28t-36 -20h-66zM92 0v710h473v-79h-386v-238h353v-79h-353v-235h399v-79h-486z" />
    <glyph glyph-name="uni1EBB" unicode="&#x1ebb;" horiz-adv-x="551" 
d="M296 676q-47 0 -88 -33l-20 47q50 44 126 44q41 0 65.5 -19t24.5 -58q0 -33 -26 -60t-57 -43h-66q82 60 81 93q0 29 -40 29zM510 254q0 -25 -2 -35h-379q7 -72 55 -112.5t129 -40.5q92 0 149 41l38 -64q-70 -49 -193 -49q-124 0 -192 67.5t-68 181.5q0 110 67.5 180
t173.5 70q107 0 164.5 -66t57.5 -173zM286 419q-59 0 -101 -37t-53 -97h298q-8 64 -44.5 99t-99.5 35z" />
    <glyph glyph-name="uni1EBC" unicode="&#x1ebc;" horiz-adv-x="632" 
d="M413 782q-35 0 -85 33q-41 25 -63 25q-35 0 -58 -55l-52 22q32 94 104 94q36 0 85 -30q4 -2 12.5 -7.5t13 -8t12 -6t13.5 -5t13 -1.5q34 0 54 55l52 -17q-30 -99 -101 -99zM92 0v710h473v-79h-386v-238h353v-79h-353v-235h399v-79h-486z" />
    <glyph glyph-name="uni1EBD" unicode="&#x1ebd;" horiz-adv-x="551" 
d="M221 622q-39 0 -60 -56l-52 23q31 98 104 98q38 0 81 -29l12 -8t13.5 -8.5t11.5 -6t13.5 -5t13.5 -1.5q38 0 58 55l51 -17q-13 -50 -40 -77.5t-60 -27.5q-35 0 -88 36q-37 24 -58 24zM510 254q0 -25 -2 -35h-379q7 -72 55 -112.5t129 -40.5q92 0 149 41l38 -64
q-70 -49 -193 -49q-124 0 -192 67.5t-68 181.5q0 110 67.5 180t173.5 70q107 0 164.5 -66t57.5 -173zM286 419q-59 0 -101 -37t-53 -97h298q-8 64 -44.5 99t-99.5 35z" />
    <glyph glyph-name="uni1EBE" unicode="&#x1ebe;" horiz-adv-x="632" 
d="M479 839l96 135h91l-123 -135h-64zM177 782l116 124h85l113 -124h-81l-74 78h-2l-74 -78h-83zM92 0v710h473v-79h-386v-238h353v-79h-353v-235h399v-79h-486z" />
    <glyph glyph-name="uni1EBF" unicode="&#x1ebf;" horiz-adv-x="551" 
d="M600 785l-124 -142h-64l96 142h92zM290 645l-73 -89h-83l115 140h85l111 -140h-81l-72 89h-2zM288 493q107 0 164.5 -66t57.5 -173q0 -25 -2 -35h-379q7 -72 55 -112.5t129 -40.5q92 0 149 41l38 -64q-70 -49 -193 -49q-124 0 -192 67.5t-68 181.5q0 110 67.5 180
t173.5 70zM286 419q-59 0 -101 -37t-53 -97h298q-8 64 -44.5 99t-99.5 35z" />
    <glyph glyph-name="uni1EC0" unicode="&#x1ec0;" horiz-adv-x="632" 
d="M523 838l-123 135h91l97 -135h-65zM177 782l116 124h85l113 -124h-81l-74 78h-2l-74 -78h-83zM92 0v710h473v-79h-386v-238h353v-79h-353v-235h399v-79h-486z" />
    <glyph glyph-name="uni1EC1" unicode="&#x1ec1;" horiz-adv-x="551" 
d="M518 643h-65l-123 142h91zM289 646l-73 -89h-83l115 140h85l111 -140h-81l-72 89h-2zM288 493q107 0 164.5 -66t57.5 -173q0 -25 -2 -35h-379q7 -72 55 -112.5t129 -40.5q92 0 149 41l38 -64q-70 -49 -193 -49q-124 0 -192 67.5t-68 181.5q0 110 67.5 180t173.5 70z
M286 419q-59 0 -101 -37t-53 -97h298q-8 64 -44.5 99t-99.5 35z" />
    <glyph glyph-name="uni1EC2" unicode="&#x1ec2;" horiz-adv-x="632" 
d="M482 845q4 3 11.5 8.5t11.5 8t11 7.5t10.5 8.5t9 8t8 8.5t5.5 8t4 8.5t1 8.5q0 25 -37 25q-38 0 -81 -29l-19 43q49 36 117 36q36 0 59 -17t23 -50q0 -44 -74 -82h-60zM177 782l116 124h85l113 -124h-81l-74 78h-2l-74 -78h-83zM92 0v710h473v-79h-386v-238h353v-79h-353
v-235h399v-79h-486z" />
    <glyph glyph-name="uni1EC3" unicode="&#x1ec3;" horiz-adv-x="551" 
d="M483 820q38 0 62 -18.5t24 -55.5q0 -31 -25 -57t-54 -41h-63q78 56 77 89q0 27 -38 27q-46 0 -84 -31l-19 45q48 42 120 42zM289 645l-73 -89h-83l115 140h85l111 -140h-81l-72 89h-2zM288 493q107 0 164.5 -66t57.5 -173q0 -25 -2 -35h-379q7 -72 55 -112.5t129 -40.5
q92 0 149 41l38 -64q-70 -49 -193 -49q-124 0 -192 67.5t-68 181.5q0 110 67.5 180t173.5 70zM286 419q-59 0 -101 -37t-53 -97h298q-8 64 -44.5 99t-99.5 35z" />
    <glyph glyph-name="uni1EC4" unicode="&#x1ec4;" horiz-adv-x="632" 
d="M412 928q-34 0 -82 31q-41 24 -60 24q-35 0 -56 -53l-50 21q30 90 100 90q35 0 82 -28q2 -1 11.5 -7.5t13 -8t11 -5.5t13.5 -5t12 -1q34 0 52 52l50 -16q-28 -94 -97 -94zM177 782l116 124h85l113 -124h-81l-74 78h-2l-74 -78h-83zM92 0v710h473v-79h-386v-238h353v-79
h-353v-235h399v-79h-486z" />
    <glyph glyph-name="uni1EC5" unicode="&#x1ec5;" horiz-adv-x="551" 
d="M222 804q-34 -3 -54 -56l-52 23q31 94 100 94q35 0 76 -26q46 -29 63 -29q39 0 58 56l52 -18q-29 -100 -101 -100q-33 0 -83 32q-38 25 -59 24zM249 696h85l111 -140h-81l-72 89h-2l-73 -89h-83zM510 254q0 -25 -2 -35h-379q7 -72 55 -112.5t129 -40.5q92 0 149 41
l38 -64q-70 -49 -193 -49q-124 0 -192 67.5t-68 181.5q0 110 67.5 180t173.5 70q107 0 164.5 -66t57.5 -173zM286 419q-59 0 -101 -37t-53 -97h298q-8 64 -44.5 99t-99.5 35z" />
    <glyph glyph-name="uni1EC6" unicode="&#x1ec6;" horiz-adv-x="632" 
d="M177 782l116 124h85l113 -124h-81l-74 78h-2l-74 -78h-83zM92 0v710h473v-79h-386v-238h353v-79h-353v-235h399v-79h-486zM344 -94q25 0 42 -17t17 -41t-17 -41t-42 -17t-42 17t-17 41t17 41t42 17z" />
    <glyph glyph-name="uni1EC7" unicode="&#x1ec7;" horiz-adv-x="551" 
d="M289 645l-73 -89h-83l115 140h85l111 -140h-81l-72 89h-2zM510 254q0 -25 -2 -35h-379q7 -72 55 -112.5t129 -40.5q92 0 149 41l38 -64q-70 -49 -193 -49q-124 0 -192 67.5t-68 181.5q0 110 67.5 180t173.5 70q107 0 164.5 -66t57.5 -173zM286 419q-59 0 -101 -37
t-53 -97h298q-8 64 -44.5 99t-99.5 35zM294 -94q25 0 42 -17t17 -41t-17 -41t-42 -17t-42 17t-17 41t17 41t42 17z" />
    <glyph glyph-name="uni1EC8" unicode="&#x1ec8;" horiz-adv-x="282" 
d="M108 778q4 3 16 11.5t16.5 11.5t14 10.5t13.5 12t9.5 11t7.5 12t2 11.5q0 28 -40 28q-44 0 -89 -32l-20 47q53 40 127 40q40 0 64.5 -18.5t24.5 -55.5q0 -22 -15 -41t-29 -28t-36 -20h-66zM97 0v710h87v-710h-87z" />
    <glyph glyph-name="uni1EC9" unicode="&#x1ec9;" horiz-adv-x="254" 
d="M93 554q82 60 81 93q0 29 -40 29q-47 0 -88 -33l-20 47q50 44 126 44q41 0 65.5 -19t24.5 -58q0 -33 -26 -60t-57 -43h-66zM86 0v487h81v-487h-81z" />
    <glyph glyph-name="uni1ECA" unicode="&#x1eca;" horiz-adv-x="282" 
d="M97 0v710h87v-710h-87zM143 -94q25 0 42 -17t17 -41t-17 -41t-42 -17t-42 17t-17 41t17 41t42 17z" />
    <glyph glyph-name="uni1ECB" unicode="&#x1ecb;" horiz-adv-x="254" 
d="M127 576q-25 0 -42 17t-17 41t17 41t42 17t42 -17t17 -41t-17 -41t-42 -17zM86 0v487h81v-487h-81zM127 -94q25 0 42 -17t17 -41t-17 -41t-42 -17t-42 17t-17 41t17 41t42 17z" />
    <glyph glyph-name="uni1ECC" unicode="&#x1ecc;" horiz-adv-x="831" 
d="M416 -6q-155 0 -255.5 101.5t-100.5 259.5t100.5 260t255.5 102q152 0 253.5 -101t101.5 -261t-101.5 -260.5t-253.5 -100.5zM416 76q112 0 188 78.5t76 200.5t-76 201t-188 79q-115 0 -190.5 -79.5t-75.5 -200.5q0 -120 75.5 -199.5t190.5 -79.5zM416 -94q25 0 42 -17
t17 -41t-17 -41t-42 -17t-42 17t-17 41t17 41t42 17z" />
    <glyph glyph-name="uni1ECD" unicode="&#x1ecd;" horiz-adv-x="598" 
d="M299 -6q-112 0 -182 71t-70 178t70 178.5t182 71.5q109 0 180 -70t71 -180t-71 -179.5t-180 -69.5zM299 68q71 0 119.5 49t48.5 126t-48.5 126.5t-119.5 49.5q-75 0 -122 -51t-47 -125t47.5 -124.5t121.5 -50.5zM299 -94q25 0 42 -17t17 -41t-17 -41t-42 -17t-42 17
t-17 41t17 41t42 17z" />
    <glyph glyph-name="uni1ECE" unicode="&#x1ece;" horiz-adv-x="831" 
d="M385 778q4 3 16 11.5t16.5 11.5t14 10.5t13.5 12t9.5 11t7.5 12t2 11.5q0 28 -40 28q-44 0 -89 -32l-20 47q53 40 127 40q40 0 64.5 -18.5t24.5 -55.5q0 -22 -15 -41t-29 -28t-36 -20h-66zM416 -6q-155 0 -255.5 101.5t-100.5 259.5t100.5 260t255.5 102
q152 0 253.5 -101t101.5 -261t-101.5 -260.5t-253.5 -100.5zM416 76q112 0 188 78.5t76 200.5t-76 201t-188 79q-115 0 -190.5 -79.5t-75.5 -200.5q0 -120 75.5 -199.5t190.5 -79.5z" />
    <glyph glyph-name="uni1ECF" unicode="&#x1ecf;" horiz-adv-x="598" 
d="M265 554q82 60 81 93q0 29 -40 29q-47 0 -88 -33l-20 47q50 44 126 44q41 0 65.5 -19t24.5 -58q0 -33 -26 -60t-57 -43h-66zM299 -6q-112 0 -182 71t-70 178t70 178.5t182 71.5q109 0 180 -70t71 -180t-71 -179.5t-180 -69.5zM299 68q71 0 119.5 49t48.5 126t-48.5 126.5
t-119.5 49.5q-75 0 -122 -51t-47 -125t47.5 -124.5t121.5 -50.5z" />
    <glyph glyph-name="uni1ED0" unicode="&#x1ed0;" horiz-adv-x="831" 
d="M561 839l96 135h91l-123 -135h-64zM259 782l116 124h85l113 -124h-81l-74 78h-2l-74 -78h-83zM416 -6q-155 0 -255.5 101.5t-100.5 259.5t100.5 260t255.5 102q152 0 253.5 -101t101.5 -261t-101.5 -260.5t-253.5 -100.5zM416 76q112 0 188 78.5t76 200.5t-76 201
t-188 79q-115 0 -190.5 -79.5t-75.5 -200.5q0 -120 75.5 -199.5t190.5 -79.5z" />
    <glyph glyph-name="uni1ED1" unicode="&#x1ed1;" horiz-adv-x="598" 
d="M422 643l96 142h92l-124 -142h-64zM144 556l115 140h85l111 -140h-81l-72 89h-2l-73 -89h-83zM299 -6q-112 0 -182 71t-70 178t70 178.5t182 71.5q109 0 180 -70t71 -180t-71 -179.5t-180 -69.5zM299 68q71 0 119.5 49t48.5 126t-48.5 126.5t-119.5 49.5q-75 0 -122 -51
t-47 -125t47.5 -124.5t121.5 -50.5z" />
    <glyph glyph-name="uni1ED2" unicode="&#x1ed2;" horiz-adv-x="831" 
d="M605 838l-123 135h91l97 -135h-65zM259 782l116 124h85l113 -124h-81l-74 78h-2l-74 -78h-83zM416 -6q-155 0 -255.5 101.5t-100.5 259.5t100.5 260t255.5 102q152 0 253.5 -101t101.5 -261t-101.5 -260.5t-253.5 -100.5zM416 76q112 0 188 78.5t76 200.5t-76 201
t-188 79q-115 0 -190.5 -79.5t-75.5 -200.5q0 -120 75.5 -199.5t190.5 -79.5z" />
    <glyph glyph-name="uni1ED3" unicode="&#x1ed3;" horiz-adv-x="598" 
d="M463 643l-123 142h91l97 -142h-65zM143 557l115 140h85l111 -140h-81l-72 89h-2l-73 -89h-83zM299 -6q-112 0 -182 71t-70 178t70 178.5t182 71.5q109 0 180 -70t71 -180t-71 -179.5t-180 -69.5zM299 68q71 0 119.5 49t48.5 126t-48.5 126.5t-119.5 49.5q-75 0 -122 -51
t-47 -125t47.5 -124.5t121.5 -50.5z" />
    <glyph glyph-name="uni1ED4" unicode="&#x1ed4;" horiz-adv-x="831" 
d="M564 845q4 3 11.5 8.5t11.5 8t11 7.5t10.5 8.5t9 8t8 8.5t5.5 8t4 8.5t1 8.5q0 25 -37 25q-38 0 -81 -29l-19 43q50 36 117 36q36 0 59 -17t23 -50q0 -44 -74 -82h-60zM259 782l116 124h85l113 -124h-81l-74 78h-2l-74 -78h-83zM416 -6q-155 0 -255.5 101.5t-100.5 259.5
t100.5 260t255.5 102q152 0 253.5 -101t101.5 -261t-101.5 -260.5t-253.5 -100.5zM416 76q112 0 188 78.5t76 200.5t-76 201t-188 79q-115 0 -190.5 -79.5t-75.5 -200.5q0 -120 75.5 -199.5t190.5 -79.5z" />
    <glyph glyph-name="uni1ED5" unicode="&#x1ed5;" horiz-adv-x="598" 
d="M437 648q78 56 77 89q0 27 -38 27q-46 0 -84 -31l-19 45q48 42 120 42q38 0 62 -18.5t24 -55.5q0 -31 -25 -57t-54 -41h-63zM143 556l115 140h85l111 -140h-81l-72 89h-2l-73 -89h-83zM299 -6q-112 0 -182 71t-70 178t70 178.5t182 71.5q109 0 180 -70t71 -180
t-71 -179.5t-180 -69.5zM299 68q71 0 119.5 49t48.5 126t-48.5 126.5t-119.5 49.5q-75 0 -122 -51t-47 -125t47.5 -124.5t121.5 -50.5z" />
    <glyph glyph-name="uni1ED6" unicode="&#x1ed6;" horiz-adv-x="831" 
d="M494 928q-34 0 -82 31q-41 24 -60 24q-35 0 -56 -53l-50 21q30 90 100 90q35 0 82 -28q2 -1 11.5 -7.5t13 -8t11 -5.5t13.5 -5t12 -1q34 0 52 52l50 -16q-28 -94 -97 -94zM259 782l116 124h85l113 -124h-81l-74 78h-2l-74 -78h-83zM416 -6q-155 0 -255.5 101.5
t-100.5 259.5t100.5 260t255.5 102q152 0 253.5 -101t101.5 -261t-101.5 -260.5t-253.5 -100.5zM416 76q112 0 188 78.5t76 200.5t-76 201t-188 79q-115 0 -190.5 -79.5t-75.5 -200.5q0 -120 75.5 -199.5t190.5 -79.5z" />
    <glyph glyph-name="uni1ED7" unicode="&#x1ed7;" horiz-adv-x="598" 
d="M178 748l-52 23q31 94 100 94q35 0 76 -26q46 -29 63 -29q39 0 58 56l52 -18q-29 -100 -101 -100q-33 0 -83 32q-38 25 -59 24q-34 -3 -54 -56zM144 556l115 140h85l111 -140h-81l-72 89h-2l-73 -89h-83zM299 -6q-112 0 -182 71t-70 178t70 178.5t182 71.5q109 0 180 -70
t71 -180t-71 -179.5t-180 -69.5zM299 68q71 0 119.5 49t48.5 126t-48.5 126.5t-119.5 49.5q-75 0 -122 -51t-47 -125t47.5 -124.5t121.5 -50.5z" />
    <glyph glyph-name="uni1ED8" unicode="&#x1ed8;" horiz-adv-x="831" 
d="M259 782l116 124h85l113 -124h-81l-74 78h-2l-74 -78h-83zM416 -6q-155 0 -255.5 101.5t-100.5 259.5t100.5 260t255.5 102q152 0 253.5 -101t101.5 -261t-101.5 -260.5t-253.5 -100.5zM416 76q112 0 188 78.5t76 200.5t-76 201t-188 79q-115 0 -190.5 -79.5
t-75.5 -200.5q0 -120 75.5 -199.5t190.5 -79.5zM416 -94q25 0 42 -17t17 -41t-17 -41t-42 -17t-42 17t-17 41t17 41t42 17z" />
    <glyph glyph-name="uni1ED9" unicode="&#x1ed9;" horiz-adv-x="598" 
d="M143 556l115 140h85l111 -140h-81l-72 89h-2l-73 -89h-83zM299 -6q-112 0 -182 71t-70 178t70 178.5t182 71.5q109 0 180 -70t71 -180t-71 -179.5t-180 -69.5zM299 68q71 0 119.5 49t48.5 126t-48.5 126.5t-119.5 49.5q-75 0 -122 -51t-47 -125t47.5 -124.5t121.5 -50.5z
M299 -94q25 0 42 -17t17 -41t-17 -41t-42 -17t-42 17t-17 41t17 41t42 17z" />
    <glyph glyph-name="uni1EDA" unicode="&#x1eda;" horiz-adv-x="872" 
d="M569 911l-122 -129h-83l112 129h93zM753 774h83v-73q0 -141 -105 -170q40 -78 40 -176q0 -160 -101.5 -260.5t-253.5 -100.5q-155 0 -255.5 101.5t-100.5 259.5t100.5 260t255.5 102q87 0 161 -35.5t122 -98.5q32 10 43 38.5t11 83.5v69zM416 76q112 0 188 78.5t76 200.5
t-76 201t-188 79q-115 0 -190.5 -79.5t-75.5 -200.5q0 -120 75.5 -199.5t190.5 -79.5z" />
    <glyph glyph-name="uni1EDB" unicode="&#x1edb;" horiz-adv-x="671" 
d="M461 699l-124 -142h-85l118 141zM568 565h83v-73q0 -146 -112 -172q11 -38 11 -77q0 -110 -71 -179.5t-180 -69.5q-112 0 -182 71t-70 178t70 178.5t182 71.5q71 0 128 -31.5t89 -86.5q32 10 42 38t10 83v69zM299 68q71 0 119.5 49t48.5 126t-48.5 126.5t-119.5 49.5
q-75 0 -122 -51t-47 -125t47.5 -124.5t121.5 -50.5z" />
    <glyph glyph-name="uni1EDC" unicode="&#x1edc;" horiz-adv-x="872" 
d="M468 782h-82l-122 129h92zM753 774h83v-73q0 -141 -105 -170q40 -78 40 -176q0 -160 -101.5 -260.5t-253.5 -100.5q-155 0 -255.5 101.5t-100.5 259.5t100.5 260t255.5 102q87 0 161 -35.5t122 -98.5q32 10 43 38.5t11 83.5v69zM416 76q112 0 188 78.5t76 200.5t-76 201
t-188 79q-115 0 -190.5 -79.5t-75.5 -200.5q0 -120 75.5 -199.5t190.5 -79.5z" />
    <glyph glyph-name="uni1EDD" unicode="&#x1edd;" horiz-adv-x="671" 
d="M355 558h-82l-121 138l92 -1zM568 565h83v-73q0 -146 -112 -172q11 -38 11 -77q0 -110 -71 -179.5t-180 -69.5q-112 0 -182 71t-70 178t70 178.5t182 71.5q71 0 128 -31.5t89 -86.5q32 10 42 38t10 83v69zM299 68q71 0 119.5 49t48.5 126t-48.5 126.5t-119.5 49.5
q-75 0 -122 -51t-47 -125t47.5 -124.5t121.5 -50.5z" />
    <glyph glyph-name="uni1EDE" unicode="&#x1ede;" horiz-adv-x="872" 
d="M424 886q-44 0 -89 -32l-20 47q53 40 127 40q40 0 64.5 -18.5t24.5 -55.5q0 -22 -15 -41t-29 -28t-36 -20h-66q4 3 16 11.5t16.5 11.5t14 10.5t13.5 12t9.5 11t7.5 12t2 11.5q0 28 -40 28zM753 774h83v-73q0 -141 -105 -170q40 -78 40 -176q0 -160 -101.5 -260.5
t-253.5 -100.5q-155 0 -255.5 101.5t-100.5 259.5t100.5 260t255.5 102q87 0 161 -35.5t122 -98.5q32 10 43 38.5t11 83.5v69zM416 76q112 0 188 78.5t76 200.5t-76 201t-188 79q-115 0 -190.5 -79.5t-75.5 -200.5q0 -120 75.5 -199.5t190.5 -79.5z" />
    <glyph glyph-name="uni1EDF" unicode="&#x1edf;" horiz-adv-x="671" 
d="M306 676q-47 0 -88 -33l-20 47q50 44 126 44q41 0 65.5 -19t24.5 -58q0 -33 -26 -60t-57 -43h-66q82 60 81 93q0 29 -40 29zM568 565h83v-73q0 -146 -112 -172q11 -38 11 -77q0 -110 -71 -179.5t-180 -69.5q-112 0 -182 71t-70 178t70 178.5t182 71.5q71 0 128 -31.5
t89 -86.5q32 10 42 38t10 83v69zM299 68q71 0 119.5 49t48.5 126t-48.5 126.5t-119.5 49.5q-75 0 -122 -51t-47 -125t47.5 -124.5t121.5 -50.5z" />
    <glyph glyph-name="uni1EE0" unicode="&#x1ee0;" horiz-adv-x="872" 
d="M347 840q-35 0 -58 -55l-52 22q32 94 104 94q36 0 85 -30q4 -2 12.5 -7.5t13 -8t12 -6t13.5 -5t13 -1.5q34 0 54 55l52 -17q-30 -99 -101 -99q-35 0 -85 33q-41 25 -63 25zM753 774h83v-73q0 -141 -105 -170q40 -78 40 -176q0 -160 -101.5 -260.5t-253.5 -100.5
q-155 0 -255.5 101.5t-100.5 259.5t100.5 260t255.5 102q87 0 161 -35.5t122 -98.5q32 10 43 38.5t11 83.5v69zM416 76q112 0 188 78.5t76 200.5t-76 201t-188 79q-115 0 -190.5 -79.5t-75.5 -200.5q0 -120 75.5 -199.5t190.5 -79.5z" />
    <glyph glyph-name="uni1EE1" unicode="&#x1ee1;" horiz-adv-x="671" 
d="M231 622q-39 0 -60 -56l-52 23q31 98 104 98q38 0 81 -29l12 -8t13.5 -8.5t11.5 -6t13.5 -5t13.5 -1.5q38 0 58 55l51 -17q-13 -50 -40 -77.5t-60 -27.5q-35 0 -88 36q-37 24 -58 24zM568 565h83v-73q0 -146 -112 -172q11 -38 11 -77q0 -110 -71 -179.5t-180 -69.5
q-112 0 -182 71t-70 178t70 178.5t182 71.5q71 0 128 -31.5t89 -86.5q32 10 42 38t10 83v69zM299 68q71 0 119.5 49t48.5 126t-48.5 126.5t-119.5 49.5q-75 0 -122 -51t-47 -125t47.5 -124.5t121.5 -50.5z" />
    <glyph glyph-name="uni1EE2" unicode="&#x1ee2;" horiz-adv-x="872" 
d="M753 774h83v-73q0 -141 -105 -170q40 -78 40 -176q0 -160 -101.5 -260.5t-253.5 -100.5q-155 0 -255.5 101.5t-100.5 259.5t100.5 260t255.5 102q87 0 161 -35.5t122 -98.5q32 10 43 38.5t11 83.5v69zM416 76q112 0 188 78.5t76 200.5t-76 201t-188 79
q-115 0 -190.5 -79.5t-75.5 -200.5q0 -120 75.5 -199.5t190.5 -79.5zM416 -94q25 0 42 -17t17 -41t-17 -41t-42 -17t-42 17t-17 41t17 41t42 17z" />
    <glyph glyph-name="uni1EE3" unicode="&#x1ee3;" horiz-adv-x="671" 
d="M568 565h83v-73q0 -146 -112 -172q11 -38 11 -77q0 -110 -71 -179.5t-180 -69.5q-112 0 -182 71t-70 178t70 178.5t182 71.5q71 0 128 -31.5t89 -86.5q32 10 42 38t10 83v69zM299 68q71 0 119.5 49t48.5 126t-48.5 126.5t-119.5 49.5q-75 0 -122 -51t-47 -125
t47.5 -124.5t121.5 -50.5zM299 -94q25 0 42 -17t17 -41t-17 -41t-42 -17t-42 17t-17 41t17 41t42 17z" />
    <glyph glyph-name="uni1EE4" unicode="&#x1ee4;" horiz-adv-x="714" 
d="M357 -6q-126 0 -200.5 72.5t-74.5 212.5v431h87v-425q0 -99 50.5 -154t137.5 -55q85 0 137 53.5t52 155.5v425h87v-431q0 -139 -74 -212t-202 -73zM357 -94q25 0 42 -17t17 -41t-17 -41t-42 -17t-42 17t-17 41t17 41t42 17z" />
    <glyph glyph-name="uni1EE5" unicode="&#x1ee5;" horiz-adv-x="568" 
d="M251 -6q-87 0 -135 50.5t-48 152.5v290h81v-267q0 -80 29.5 -116t89.5 -36q61 0 103.5 49.5t42.5 133.5v236h81v-487h-81v84h-2q-27 -43 -69.5 -66.5t-91.5 -23.5zM286 -94q25 0 42 -17t17 -41t-17 -41t-42 -17t-42 17t-17 41t17 41t42 17z" />
    <glyph glyph-name="uni1EE6" unicode="&#x1ee6;" horiz-adv-x="714" 
d="M325 778q4 3 16 11.5t16.5 11.5t14 10.5t13.5 12t9.5 11t7.5 12t2 11.5q0 28 -40 28q-44 0 -89 -32l-20 47q53 40 127 40q40 0 64.5 -18.5t24.5 -55.5q0 -22 -15 -41t-29 -28t-36 -20h-66zM357 -6q-126 0 -200.5 72.5t-74.5 212.5v431h87v-425q0 -99 50.5 -154t137.5 -55
q85 0 137 53.5t52 155.5v425h87v-431q0 -139 -74 -212t-202 -73z" />
    <glyph glyph-name="uni1EE7" unicode="&#x1ee7;" horiz-adv-x="568" 
d="M248 554q82 60 81 93q0 29 -40 29q-47 0 -88 -33l-20 47q50 44 126 44q41 0 65.5 -19t24.5 -58q0 -33 -26 -60t-57 -43h-66zM251 -6q-87 0 -135 50.5t-48 152.5v290h81v-267q0 -80 29.5 -116t89.5 -36q61 0 103.5 49.5t42.5 133.5v236h81v-487h-81v84h-2
q-27 -43 -69.5 -66.5t-91.5 -23.5z" />
    <glyph glyph-name="uni1EE8" unicode="&#x1ee8;" horiz-adv-x="796" 
d="M494 911l-122 -129h-83l112 129h93zM701 774h83v-73q0 -85 -38.5 -130t-112.5 -47v-245q0 -139 -74 -212t-202 -73q-126 0 -200.5 72.5t-74.5 212.5v431h87v-425q0 -99 50.5 -154t137.5 -55q85 0 137 53.5t52 155.5v425h87v-130q41 6 54.5 35t13.5 90v69z" />
    <glyph glyph-name="uni1EE9" unicode="&#x1ee9;" horiz-adv-x="658" 
d="M442 699l-124 -142h-85l118 141zM556 565h83v-73q0 -82 -37 -127t-107 -50v-315h-81v84h-2q-27 -43 -69.5 -66.5t-91.5 -23.5q-87 0 -135 50.5t-48 152.5v290h81v-267q0 -80 29.5 -116t89.5 -36q61 0 103.5 49.5t42.5 133.5v236h81v-115q37 8 49 37t12 87v69z" />
    <glyph glyph-name="uni1EEA" unicode="&#x1eea;" horiz-adv-x="796" 
d="M416 782h-82l-122 129h92zM701 774h83v-73q0 -85 -38.5 -130t-112.5 -47v-245q0 -139 -74 -212t-202 -73q-126 0 -200.5 72.5t-74.5 212.5v431h87v-425q0 -99 50.5 -154t137.5 -55q85 0 137 53.5t52 155.5v425h87v-130q41 6 54.5 35t13.5 90v69z" />
    <glyph glyph-name="uni1EEB" unicode="&#x1eeb;" horiz-adv-x="658" 
d="M339 558h-82l-121 138l92 -1zM556 565h83v-73q0 -82 -37 -127t-107 -50v-315h-81v84h-2q-27 -43 -69.5 -66.5t-91.5 -23.5q-87 0 -135 50.5t-48 152.5v290h81v-267q0 -80 29.5 -116t89.5 -36q61 0 103.5 49.5t42.5 133.5v236h81v-115q37 8 49 37t12 87v69z" />
    <glyph glyph-name="uni1EEC" unicode="&#x1eec;" horiz-adv-x="796" 
d="M364 886q-44 0 -89 -32l-20 47q53 40 127 40q40 0 64.5 -18.5t24.5 -55.5q0 -22 -15 -41t-29 -28t-36 -20h-66q4 3 16 11.5t16.5 11.5t14 10.5t13.5 12t9.5 11t7.5 12t2 11.5q0 28 -40 28zM701 774h83v-73q0 -85 -38.5 -130t-112.5 -47v-245q0 -139 -74 -212t-202 -73
q-126 0 -200.5 72.5t-74.5 212.5v431h87v-425q0 -99 50.5 -154t137.5 -55q85 0 137 53.5t52 155.5v425h87v-130q41 6 54.5 35t13.5 90v69z" />
    <glyph glyph-name="uni1EED" unicode="&#x1eed;" horiz-adv-x="658" 
d="M289 676q-47 0 -88 -33l-20 47q50 44 126 44q41 0 65.5 -19t24.5 -58q0 -33 -26 -60t-57 -43h-66q82 60 81 93q0 29 -40 29zM556 565h83v-73q0 -82 -37 -127t-107 -50v-315h-81v84h-2q-27 -43 -69.5 -66.5t-91.5 -23.5q-87 0 -135 50.5t-48 152.5v290h81v-267
q0 -80 29.5 -116t89.5 -36q61 0 103.5 49.5t42.5 133.5v236h81v-115q37 8 49 37t12 87v69z" />
    <glyph glyph-name="uni1EEE" unicode="&#x1eee;" horiz-adv-x="796" 
d="M287 840q-35 0 -58 -55l-52 22q32 94 104 94q36 0 85 -30q4 -2 12.5 -7.5t13 -8t12 -6t13.5 -5t13 -1.5q34 0 54 55l52 -17q-30 -99 -101 -99q-35 0 -85 33q-41 25 -63 25zM701 774h83v-73q0 -85 -38.5 -130t-112.5 -47v-245q0 -139 -74 -212t-202 -73
q-126 0 -200.5 72.5t-74.5 212.5v431h87v-425q0 -99 50.5 -154t137.5 -55q85 0 137 53.5t52 155.5v425h87v-130q41 6 54.5 35t13.5 90v69z" />
    <glyph glyph-name="uni1EEF" unicode="&#x1eef;" horiz-adv-x="658" 
d="M214 622q-39 0 -60 -56l-52 23q31 98 104 98q38 0 81 -29l12 -8t13.5 -8.5t11.5 -6t13.5 -5t13.5 -1.5q38 0 58 55l51 -17q-13 -50 -40 -77.5t-60 -27.5q-35 0 -88 36q-37 24 -58 24zM556 565h83v-73q0 -82 -37 -127t-107 -50v-315h-81v84h-2q-27 -43 -69.5 -66.5
t-91.5 -23.5q-87 0 -135 50.5t-48 152.5v290h81v-267q0 -80 29.5 -116t89.5 -36q61 0 103.5 49.5t42.5 133.5v236h81v-115q37 8 49 37t12 87v69z" />
    <glyph glyph-name="uni1EF0" unicode="&#x1ef0;" horiz-adv-x="796" 
d="M701 774h83v-73q0 -85 -38.5 -130t-112.5 -47v-245q0 -139 -74 -212t-202 -73q-126 0 -200.5 72.5t-74.5 212.5v431h87v-425q0 -99 50.5 -154t137.5 -55q85 0 137 53.5t52 155.5v425h87v-130q41 6 54.5 35t13.5 90v69zM357 -94q25 0 42 -17t17 -41t-17 -41t-42 -17
t-42 17t-17 41t17 41t42 17z" />
    <glyph glyph-name="uni1EF1" unicode="&#x1ef1;" horiz-adv-x="658" 
d="M556 565h83v-73q0 -82 -37 -127t-107 -50v-315h-81v84h-2q-27 -43 -69.5 -66.5t-91.5 -23.5q-87 0 -135 50.5t-48 152.5v290h81v-267q0 -80 29.5 -116t89.5 -36q61 0 103.5 49.5t42.5 133.5v236h81v-115q37 8 49 37t12 87v69zM286 -94q25 0 42 -17t17 -41t-17 -41
t-42 -17t-42 17t-17 41t17 41t42 17z" />
    <glyph glyph-name="Ygrave" unicode="&#x1ef2;" horiz-adv-x="603" 
d="M290 782l-122 129h92l112 -129h-82zM257 0v317l-241 393h100l184 -308h2l183 308h102l-243 -393v-317h-87z" />
    <glyph glyph-name="ygrave" unicode="&#x1ef3;" horiz-adv-x="525" 
d="M242 558l-121 138l92 -1l111 -137h-82zM113 -204q-66 0 -116 35l32 67q38 -29 81 -29q36 0 58.5 26t46.5 88l12 31l-206 473h88l157 -377h2l148 377h85l-209 -519q-35 -87 -73 -129.5t-106 -42.5z" />
    <glyph glyph-name="uni1EF4" unicode="&#x1ef4;" horiz-adv-x="603" 
d="M257 0v317l-241 393h100l184 -308h2l183 308h102l-243 -393v-317h-87zM301 -94q25 0 42 -17t17 -41t-17 -41t-42 -17t-42 17t-17 41t17 41t42 17z" />
    <glyph glyph-name="uni1EF5" unicode="&#x1ef5;" horiz-adv-x="525" 
d="M113 -204q-66 0 -116 35l32 67q38 -29 81 -29q36 0 58.5 26t46.5 88l12 31l-206 473h88l157 -377h2l148 377h85l-209 -519q-35 -87 -73 -129.5t-106 -42.5zM390 -94q25 0 42 -17t17 -41t-17 -41t-42 -17t-42 17t-17 41t17 41t42 17z" />
    <glyph glyph-name="uni1EF6" unicode="&#x1ef6;" horiz-adv-x="603" 
d="M270 778q4 3 16 11.5t16.5 11.5t14 10.5t13.5 12t9.5 11t7.5 12t2 11.5q0 28 -40 28q-44 0 -89 -32l-20 47q53 40 127 40q40 0 64.5 -18.5t24.5 -55.5q0 -22 -15 -41t-29 -28t-36 -20h-66zM257 0v317l-241 393h100l184 -308h2l183 308h102l-243 -393v-317h-87z" />
    <glyph glyph-name="uni1EF7" unicode="&#x1ef7;" horiz-adv-x="525" 
d="M228 554q82 60 81 93q0 29 -40 29q-47 0 -88 -33l-20 47q50 44 126 44q41 0 65.5 -19t24.5 -58q0 -33 -26 -60t-57 -43h-66zM113 -204q-66 0 -116 35l32 67q38 -29 81 -29q36 0 58.5 26t46.5 88l12 31l-206 473h88l157 -377h2l148 377h85l-209 -519q-35 -87 -73 -129.5
t-106 -42.5z" />
    <glyph glyph-name="uni1EF8" unicode="&#x1ef8;" horiz-adv-x="603" 
d="M380 782q-35 0 -85 33q-41 25 -63 25q-35 0 -58 -55l-52 22q32 94 104 94q36 0 85 -30q4 -2 12.5 -7.5t13 -8t12 -6t13.5 -5t13 -1.5q34 0 54 55l52 -17q-30 -99 -101 -99zM257 0v317l-241 393h100l184 -308h2l183 308h102l-243 -393v-317h-87z" />
    <glyph glyph-name="uni1EF9" unicode="&#x1ef9;" horiz-adv-x="525" 
d="M340 562q-35 0 -88 36q-37 24 -58 24q-39 0 -60 -56l-52 23q31 98 104 98q38 0 81 -29l12 -8t13.5 -8.5t11.5 -6t13.5 -5t13.5 -1.5q38 0 58 55l51 -17q-13 -50 -40 -77.5t-60 -27.5zM113 -204q-66 0 -116 35l32 67q38 -29 81 -29q36 0 58.5 26t46.5 88l12 31l-206 473
h88l157 -377h2l148 377h85l-209 -519q-35 -87 -73 -129.5t-106 -42.5z" />
    <glyph glyph-name="uni2002" unicode="&#x2002;" horiz-adv-x="467" 
 />
    <glyph glyph-name="uni2003" unicode="&#x2003;" horiz-adv-x="934" 
 />
    <glyph glyph-name="uni2007" unicode="&#x2007;" horiz-adv-x="586" 
 />
    <glyph glyph-name="uni2009" unicode="&#x2009;" horiz-adv-x="27" 
 />
    <glyph glyph-name="uni2010" unicode="&#x2010;" horiz-adv-x="411" 
d="M57 268v80h297v-80h-297z" />
    <glyph glyph-name="figuredash" unicode="&#x2012;" horiz-adv-x="592" 
d="M57 261v73h477v-73h-477z" />
    <glyph glyph-name="endash" unicode="&#x2013;" horiz-adv-x="581" 
d="M57 261v73h467v-73h-467z" />
    <glyph glyph-name="emdash" unicode="&#x2014;" horiz-adv-x="1048" 
d="M57 261v73h934v-73h-934z" />
    <glyph glyph-name="uni2015" unicode="&#x2015;" horiz-adv-x="1200" 
d="M57 261v73h1086v-73h-1086z" />
    <glyph glyph-name="quoteleft" unicode="&#x2018;" horiz-adv-x="201" 
d="M160 710l-32 -241h-88l54 241h66z" />
    <glyph glyph-name="quoteright" unicode="&#x2019;" horiz-adv-x="201" 
d="M41 469l32 241h88l-54 -241h-66z" />
    <glyph glyph-name="quotesinglbase" unicode="&#x201a;" horiz-adv-x="215" 
d="M32 -77l33 241h88l-61 -241h-60z" />
    <glyph glyph-name="quotedblleft" unicode="&#x201c;" horiz-adv-x="343" 
d="M161 710l-32 -241h-88l54 241h66zM302 710l-32 -241h-88l54 241h66z" />
    <glyph glyph-name="quotedblright" unicode="&#x201d;" horiz-adv-x="343" 
d="M41 469l32 241h88l-54 -241h-66zM182 469l32 241h88l-54 -241h-66z" />
    <glyph glyph-name="quotedblbase" unicode="&#x201e;" horiz-adv-x="355" 
d="M32 -77l32 241h88l-54 -241h-66zM173 -77l32 241h88l-54 -241h-66z" />
    <glyph glyph-name="dagger" unicode="&#x2020;" horiz-adv-x="403" 
d="M202 248l-26 47l3 134v111h-20l-101 -4v54l101 -4h19l-2 99h54l-4 -99h19l100 4v-54l-100 4h-20v-111l5 -134z" />
    <glyph glyph-name="daggerdbl" unicode="&#x2021;" horiz-adv-x="403" 
d="M176 58l2 97h-19l-101 -3v54l100 -4h21v91l-3 82l3 82v83h-20l-101 -4v54l100 -4h20l-2 99h53l-4 -99h19l101 3v-53l-101 4h-19v-83l4 -82l-5 -82l1 -91h19l101 4v-53l-101 2h-19l4 -97h-53z" />
    <glyph glyph-name="bullet" unicode="&#x2022;" horiz-adv-x="416" 
d="M208 214q-43 0 -73 29.5t-30 72.5t30 72.5t73 29.5t73.5 -29.5t30.5 -72.5t-30.5 -72.5t-73.5 -29.5z" />
    <glyph glyph-name="ellipsis" unicode="&#x2026;" horiz-adv-x="1010" 
d="M172 -7q-25 0 -42.5 17t-17.5 42t17.5 42t42.5 17t42 -17t17 -42t-17 -42t-42 -17zM505 -7q-25 0 -42.5 17t-17.5 42t17.5 42t42.5 17t42 -17t17 -42t-17 -42t-42 -17zM839 -7q-25 0 -42.5 17t-17.5 42t17.5 42t42.5 17t42 -17t17 -42t-17 -42t-42 -17z" />
    <glyph glyph-name="perthousand" unicode="&#x2030;" horiz-adv-x="1259" 
d="M212 -1l-59 42l495 657l58 -42zM216 338q-77 0 -129 49.5t-52 128.5q0 75 50.5 126.5t130.5 51.5q75 0 127.5 -49.5t52.5 -128.5q0 -74 -50.5 -126t-129.5 -52zM216 404q48 0 78.5 32t30.5 80t-31 79.5t-78 31.5q-48 0 -78.5 -31.5t-30.5 -79.5q0 -49 31 -80.5t78 -31.5z
M639 -7q-77 0 -129.5 50t-52.5 129q0 75 51 126t131 51q75 0 127.5 -49.5t52.5 -127.5q0 -74 -50.5 -126.5t-129.5 -52.5zM1041 -7q-77 0 -129 50t-52 129q0 75 50.5 126t130.5 51q75 0 127.5 -49.5t52.5 -127.5q0 -75 -50.5 -127t-129.5 -52zM639 59q48 0 78.5 32t30.5 80
t-31 79.5t-78 31.5q-48 0 -78.5 -31.5t-30.5 -79.5q0 -49 31 -80.5t78 -31.5zM1041 59q48 0 78.5 32t30.5 80t-31 79.5t-78 31.5q-48 0 -78 -31.5t-30 -79.5q0 -49 30.5 -80.5t77.5 -31.5z" />
    <glyph glyph-name="minute" unicode="&#x2032;" horiz-adv-x="240" 
d="M41 469l74 241h88l-96 -241h-66z" />
    <glyph glyph-name="second" unicode="&#x2033;" horiz-adv-x="393" 
d="M41 469l74 241h88l-96 -241h-66zM194 469l74 241h88l-96 -241h-66z" />
    <glyph glyph-name="guilsinglleft" unicode="&#x2039;" horiz-adv-x="302" 
d="M245 467l-124 -219l125 -221h-81l-125 221l124 219h81z" />
    <glyph glyph-name="guilsinglright" unicode="&#x203a;" horiz-adv-x="299" 
d="M53 26l124 219l-125 221h81l125 -221l-124 -219h-81z" />
    <glyph glyph-name="uni203D" unicode="&#x203d;" horiz-adv-x="450" 
d="M213 743q84 0 140.5 -51t56.5 -136q0 -55 -23.5 -96t-66.5 -84q-6 -6 -25 -24t-25.5 -25.5t-17.5 -21.5t-15.5 -25t-4.5 -23l-2 -50h-67l-14 374h92l-7 -178l2 -1l2 2q28 30 42 46t26.5 42.5t12.5 53.5q0 55 -31.5 85.5t-80.5 30.5q-36 0 -69.5 -18t-55.5 -51l-60 57
q69 93 191 93zM199 111q25 0 42 -17t17 -42t-17 -42t-42 -17t-42.5 17t-17.5 42t17.5 42t42.5 17z" />
    <glyph glyph-name="uni2042" unicode="&#x2042;" horiz-adv-x="842" 
d="M389 393l4 119l-100 -63l-27 48l105 54l-106 56l28 47l100 -62l-4 118h55l-5 -118l101 62l27 -47l-105 -56l105 -54l-27 -48l-100 63l4 -119h-55zM178 58l4 119l-100 -63l-27 48l105 54l-106 56l28 47l100 -62l-4 118h55l-5 -118l101 62l27 -47l-105 -56l105 -54l-27 -48
l-100 63l4 -119h-55zM609 58l4 119l-100 -63l-27 48l105 54l-106 56l28 47l100 -62l-4 118h55l-5 -118l101 62l27 -47l-105 -56l105 -54l-27 -48l-100 63l4 -119h-55z" />
    <glyph glyph-name="fraction" unicode="&#x2044;" horiz-adv-x="221" 
d="M-1 -17l-66 28l310 711l67 -28z" />
    <glyph glyph-name="uni2051" unicode="&#x2051;" horiz-adv-x="411" 
d="M178 393l4 119l-100 -63l-27 48l105 54l-106 56l28 47l100 -62l-4 118h55l-5 -118l101 62l27 -47l-105 -56l105 -54l-27 -48l-100 63l4 -119h-55zM178 41l4 119l-100 -63l-27 48l105 54l-106 56l28 48l100 -63l-4 118h55l-5 -118l101 62l27 -47l-105 -55l105 -55l-27 -47
l-100 62l4 -119h-55z" />
    <glyph glyph-name="uni2070" unicode="&#x2070;" horiz-adv-x="403" 
d="M202 430q-79 0 -126 57t-47 155q0 97 47 154.5t126 57.5t125.5 -57t46.5 -155q0 -97 -47 -154.5t-125 -57.5zM202 495q47 0 74.5 39t27.5 108q0 70 -28 109t-74 39q-49 0 -76 -39.5t-27 -108.5q0 -70 28 -108.5t75 -38.5z" />
    <glyph glyph-name="uni2074" unicode="&#x2074;" horiz-adv-x="362" 
d="M277 574h62v-60h-62v-78h-68v78h-197v45l211 289h54v-274zM82 569h136v186z" />
    <glyph glyph-name="uni2075" unicode="&#x2075;" horiz-adv-x="347" 
d="M184 699q61 0 99 -36t38 -96q0 -63 -41.5 -100t-117.5 -37q-81 0 -138 43l32 58q49 -39 104 -39q44 0 67 20.5t23 57.5t-23.5 56.5t-63.5 19.5q-45 0 -82 -23l-35 12l15 213h239v-62h-183l-10 -101q35 14 77 14z" />
    <glyph glyph-name="uni2076" unicode="&#x2076;" horiz-adv-x="358" 
d="M199 700q63 0 100 -35t37 -97q0 -60 -41 -99t-107 -39q-75 0 -117 53t-42 149q0 64 16 110t43.5 69t56 33t60.5 10q58 0 105 -20l-23 -59q-35 18 -82 18q-98 0 -109 -129q44 36 103 36zM188 492q36 0 59 21.5t23 55.5t-22 54t-59 20q-61 0 -93 -49q5 -50 29 -76t63 -26z
" />
    <glyph glyph-name="uni2077" unicode="&#x2077;" horiz-adv-x="326" 
d="M64 436l159 348h-199v64h275v-47l-160 -365h-75z" />
    <glyph glyph-name="uni2078" unicode="&#x2078;" horiz-adv-x="372" 
d="M186 430q-74 0 -115.5 33t-41.5 87q0 38 22.5 67t55.5 39v2q-23 8 -41 31t-18 52q0 52 38.5 82t99.5 30q63 0 100 -30t37 -82q0 -29 -17.5 -52t-40.5 -31v-2q34 -10 56 -38.5t22 -67.5q0 -55 -42 -87.5t-115 -32.5zM186 681q33 0 53.5 15.5t20.5 41.5q0 24 -19.5 41
t-54.5 17q-34 0 -54 -17t-20 -41q0 -26 20.5 -41.5t53.5 -15.5zM186 490q39 0 63 19.5t24 49.5t-24 50t-63 19t-63 -20t-24 -49q0 -31 24 -50t63 -19z" />
    <glyph glyph-name="uni2079" unicode="&#x2079;" horiz-adv-x="358" 
d="M170 853q75 0 117 -53t42 -149q0 -52 -11 -92t-28.5 -64t-41.5 -39.5t-47.5 -21t-48.5 -5.5q-62 0 -109 22l20 61q36 -21 88 -21q101 0 112 129q-43 -37 -105 -37t-99 34.5t-37 94.5q0 62 41 101.5t107 39.5zM169 640q61 0 94 50q-12 101 -93 101q-36 0 -58.5 -21.5
t-22.5 -56.5q0 -33 21.5 -53t58.5 -20z" />
    <glyph glyph-name="uni207A" unicode="&#x207a;" horiz-adv-x="351" 
d="M313 660v-58h-106v-107h-60v107h-107v58h107v107h60v-107h106z" />
    <glyph glyph-name="uni207B" unicode="&#x207b;" horiz-adv-x="355" 
d="M43 601v61h272v-61h-272z" />
    <glyph glyph-name="uni207C" unicode="&#x207c;" horiz-adv-x="377" 
d="M54 679v55h273v-55h-273zM54 514v55h273v-55h-273z" />
    <glyph glyph-name="uni207D" unicode="&#x207d;" horiz-adv-x="188" 
d="M109 369q-71 131 -71 273q0 157 76 273l50 -22q-28 -44 -47 -112.5t-19 -138.5q0 -135 63 -253z" />
    <glyph glyph-name="uni207E" unicode="&#x207e;" horiz-adv-x="188" 
d="M79 369l-52 20q63 118 63 253q0 70 -19 138.5t-47 112.5l50 22q76 -116 76 -273q0 -142 -71 -273z" />
    <glyph glyph-name="uni207F" unicode="&#x207f;" horiz-adv-x="359" 
d="M42 -66v293h61v-48h2q43 52 110 52q51 0 79.5 -30.5t28.5 -91.5v-175h-62v158q0 82 -66 82q-40 0 -66 -25t-26 -69v-146h-61z" />
    <glyph glyph-name="uni2080" unicode="&#x2080;" horiz-adv-x="403" 
d="M202 -72q-79 0 -126 57t-47 155q0 97 47 154.5t126 57.5t125.5 -57t46.5 -155q0 -97 -47 -154.5t-125 -57.5zM202 -7q47 0 74.5 39t27.5 108q0 70 -28 109t-74 39q-49 0 -76 -39.5t-27 -108.5q0 -70 28 -108.5t75 -38.5z" />
    <glyph glyph-name="uni2081" unicode="&#x2081;" horiz-adv-x="264" 
d="M131 -66v325l-79 -54l-34 53l128 88h54v-412h-69z" />
    <glyph glyph-name="uni2082" unicode="&#x2082;" horiz-adv-x="340" 
d="M26 -66l-1 47l143 137q63 60 63 102q0 30 -19.5 48t-54.5 18q-51 0 -103 -43l-33 58q69 50 141 50q66 0 103.5 -33.5t37.5 -92.5q0 -68 -80 -139l-95 -87l1 -2h179v-63h-282z" />
    <glyph glyph-name="uni2083" unicode="&#x2083;" horiz-adv-x="347" 
d="M170 -72q-88 0 -147 43l32 59q48 -39 110 -39q82 0 82 63q0 66 -95 66h-29v54h36q40 0 61 17t21 41q0 26 -19 41t-56 15q-58 0 -101 -34l-31 56q66 41 138 41q61 0 98 -28.5t37 -79.5q0 -66 -64 -93v-2q75 -24 75 -103q0 -53 -37 -85t-111 -32z" />
    <glyph glyph-name="uni2084" unicode="&#x2084;" horiz-adv-x="362" 
d="M277 72h62v-60h-62v-78h-68v78h-197v45l211 289h54v-274zM82 67h136v186z" />
    <glyph glyph-name="uni2085" unicode="&#x2085;" horiz-adv-x="347" 
d="M184 197q61 0 99 -36t38 -96q0 -63 -41.5 -100t-117.5 -37q-81 0 -138 43l32 58q49 -39 104 -39q44 0 67 20.5t23 57.5t-23.5 56.5t-63.5 19.5q-45 0 -82 -23l-35 12l15 213h239v-62h-183l-10 -101q35 14 77 14z" />
    <glyph glyph-name="uni2086" unicode="&#x2086;" horiz-adv-x="358" 
d="M199 198q63 0 100 -35t37 -97q0 -60 -41 -99t-107 -39q-75 0 -117 53t-42 149q0 64 16 110t43.5 69t56 33t60.5 10q58 0 105 -20l-23 -59q-35 18 -82 18q-98 0 -109 -129q44 36 103 36zM188 -10q36 0 59 21.5t23 55.5t-22 54t-59 20q-61 0 -93 -49q5 -50 29 -76t63 -26z
" />
    <glyph glyph-name="uni2087" unicode="&#x2087;" horiz-adv-x="326" 
d="M64 -66l159 348h-199v64h275v-47l-160 -365h-75z" />
    <glyph glyph-name="uni2088" unicode="&#x2088;" horiz-adv-x="372" 
d="M186 -72q-74 0 -115.5 33t-41.5 87q0 38 22.5 67t55.5 39v2q-23 8 -41 31t-18 52q0 52 38.5 82t99.5 30q63 0 100 -30t37 -82q0 -29 -17.5 -52t-40.5 -31v-2q34 -10 56 -38.5t22 -67.5q0 -55 -42 -87.5t-115 -32.5zM186 179q33 0 53.5 15.5t20.5 41.5q0 24 -19.5 41
t-54.5 17q-34 0 -54 -17t-20 -41q0 -26 20.5 -41.5t53.5 -15.5zM186 -12q39 0 63 19.5t24 49.5t-24 50t-63 19t-63 -20t-24 -49q0 -31 24 -50t63 -19z" />
    <glyph glyph-name="uni2089" unicode="&#x2089;" horiz-adv-x="358" 
d="M170 351q75 0 117 -53t42 -149q0 -52 -11 -92t-28.5 -64t-41.5 -39.5t-47.5 -21t-48.5 -5.5q-62 0 -109 22l20 61q36 -21 88 -21q101 0 112 129q-43 -37 -105 -37t-99 34.5t-37 94.5q0 62 41 101.5t107 39.5zM169 138q61 0 94 50q-12 101 -93 101q-36 0 -58.5 -21.5
t-22.5 -56.5q0 -33 21.5 -53t58.5 -20z" />
    <glyph glyph-name="uni208A" unicode="&#x208a;" horiz-adv-x="351" 
d="M312 152v-58h-106v-107h-60v107h-107v58h107v107h60v-107h106z" />
    <glyph glyph-name="uni208B" unicode="&#x208b;" horiz-adv-x="357" 
d="M42 92v61h272v-61h-272z" />
    <glyph glyph-name="uni208C" unicode="&#x208c;" horiz-adv-x="376" 
d="M51 184v55h273v-55h-273zM51 19v55h273v-55h-273z" />
    <glyph glyph-name="uni208D" unicode="&#x208d;" horiz-adv-x="194" 
d="M110 -135q-72 133 -72 273q0 155 78 274l51 -25q-27 -41 -46 -110t-19 -139q0 -136 63 -252z" />
    <glyph glyph-name="uni208E" unicode="&#x208e;" horiz-adv-x="194" 
d="M84 -135l-55 21q63 116 63 252q0 70 -19 139t-46 110l51 25q78 -119 78 -274q0 -140 -72 -273z" />
    <glyph glyph-name="uni2090" unicode="&#x2090;" horiz-adv-x="388" 
d="M173 -71q-63 0 -103.5 42t-40.5 108q0 65 39.5 108t102.5 43q67 0 109 -53h1v49h60v-292h-60v44h-1q-40 -49 -107 -49zM187 -14q39 0 66 26t27 67q0 40 -26.5 67.5t-66.5 27.5q-41 0 -69 -26.5t-28 -68.5q0 -40 27 -66.5t70 -26.5z" />
    <glyph glyph-name="uni2091" unicode="&#x2091;" horiz-adv-x="353" 
d="M326 83q0 -17 -1 -21h-234q10 -79 113 -79q46 0 88 21l23 -51q-49 -24 -116 -24q-82 0 -127 39t-45 109q0 68 43 110t109 42q69 0 108 -40.5t39 -105.5zM181 178q-34 0 -57.5 -19.5t-30.5 -53.5h172q-5 34 -27.5 53.5t-56.5 19.5z" />
    <glyph glyph-name="uni2092" unicode="&#x2092;" horiz-adv-x="371" 
d="M186 -71q-70 0 -112.5 42.5t-42.5 108.5q0 65 42.5 107.5t112.5 42.5q68 0 111.5 -41.5t43.5 -108.5t-43.5 -109t-111.5 -42zM186 -15q39 0 65 26.5t26 68.5q0 41 -26 67.5t-65 26.5q-41 0 -66.5 -27t-25.5 -67t25.5 -67.5t66.5 -27.5z" />
    <glyph glyph-name="uni2093" unicode="&#x2093;" horiz-adv-x="309" 
d="M7 -66l111 149l-110 144h73l73 -96h2l73 96h72l-111 -143l112 -150h-70l-76 97h-2l-77 -97h-70z" />
    <glyph glyph-name="peseta" unicode="&#x20a7;" horiz-adv-x="645" 
d="M622 501v-60h-74q-18 -181 -236 -181h-121v-260h-87v441h-80v60h80v186h223q102 0 157.5 -49.5t63.5 -136.5h74zM191 610v-109h271q-8 54 -44 81.5t-95 27.5h-132zM316 334q131 0 146 107h-271v-107h125z" />
    <glyph glyph-name="dong" unicode="&#x20ab;" horiz-adv-x="608" 
d="M540 628h60v-58h-60v-570h-78v90h-1q-57 -96 -176 -96q-102 0 -170.5 68.5t-68.5 177.5q0 108 68 180.5t170 72.5q116 0 174 -93h1v170h-207v58h207v108h81v-108zM296 68q70 0 118 48t48 124t-46.5 127.5t-118.5 51.5q-71 0 -119.5 -50t-48.5 -129q0 -74 46.5 -123
t120.5 -49zM74 -147v75h469v-75h-469z" />
    <glyph glyph-name="Euro" unicode="&#x20ac;" horiz-adv-x="597" 
d="M522 118l47 -64q-87 -60 -192 -60q-109 0 -192 62t-108 188h-65v60h57q-1 12 -1 37q0 27 1 40h-57v60h65q24 119 103 185t197 66q104 0 187 -58l-49 -63q-63 43 -138 43q-77 0 -132.5 -44.5t-76.5 -128.5h284v-60h-293q-2 -26 -2 -40q0 -25 1 -37h294v-60h-284
q21 -86 78.5 -128.5t130.5 -42.5q84 0 145 45z" />
    <glyph glyph-name="uni20B1" unicode="&#x20b1;" horiz-adv-x="645" 
d="M622 551v-55h-74q1 -8 1 -24t-1 -24h74v-54h-84q-40 -134 -226 -134h-121v-260h-87v394h-80v54h80v48h-80v55h80v136h223q172 0 212 -136h83zM333 610h-142v-63h261q-27 63 -119 63zM191 496v-48h274q1 7 1 21q0 19 -1 27h-274zM325 334q101 0 129 64h-263v-64h134z" />
    <glyph glyph-name="uni20B9" unicode="&#x20b9;" horiz-adv-x="590" 
d="M544 621h-164v-1q45 -32 59 -89h105v-66h-99q-6 -89 -70.5 -136.5t-177.5 -49.5l305 -279h-114l-314 289v65h128q138 0 151 111h-279v66h275q-12 41 -47 65.5t-91 24.5h-137v66h470v-66z" />
    <glyph glyph-name="uni20BA" unicode="&#x20ba;" horiz-adv-x="540" 
d="M449 219l71 -28q-38 -104 -101 -147.5t-155 -43.5h-177v206l-67 -33l-24 54l91 45v72l-67 -33l-24 54l91 45v277h87v-234l185 91l23 -54l-208 -103v-72l185 92l23 -54l-208 -103v-178h80q78 0 122 34t73 113z" />
    <glyph glyph-name="uni2113" unicode="&#x2113;" horiz-adv-x="453" 
d="M401 111l29 -21q-63 -96 -170 -96q-75 0 -116 40.5t-46 111.5q-9 -7 -27.5 -21t-27.5 -21l-19 26q55 42 73 59l2 267q1 117 44.5 170t114.5 53q53 0 81.5 -39.5t28.5 -106.5q0 -146 -191 -322v-23q0 -82 29.5 -117t71.5 -35q36 0 68.5 22.5t54.5 52.5zM265 634
q-38 0 -63 -39.5t-25 -131.5v-207q156 156 156 274q0 104 -68 104z" />
    <glyph glyph-name="uni2116" unicode="&#x2116;" horiz-adv-x="1131" 
d="M910 412q-68 0 -111 42.5t-43 108.5q0 65 43 107.5t111 42.5q67 0 111 -42t44 -108q0 -67 -44 -109t-111 -42zM92 0v710h83l413 -567h2v567h87v-710h-86l-411 562h-2v-562h-86zM910 468q39 0 65.5 27t26.5 68t-26.5 68t-65.5 27q-40 0 -65.5 -27.5t-25.5 -67.5
t25.5 -67.5t65.5 -27.5zM764 292v63h299v-63h-299z" />
    <glyph glyph-name="uni2117" unicode="&#x2117;" horiz-adv-x="703" 
d="M351 12q-127 0 -215.5 90.5t-88.5 215.5t89 215.5t216 90.5t215 -90t88 -216q0 -125 -88.5 -215.5t-215.5 -90.5zM351 69q103 0 174.5 73.5t71.5 175.5q0 103 -71 176t-174 73q-104 0 -175.5 -73.5t-71.5 -176.5q0 -102 71.5 -175t174.5 -73zM246 158v324h117
q54 0 81 -28t27 -74q0 -50 -31 -76t-84 -26h-59v-120h-51zM297 325h54q67 0 67 56q0 24 -16.5 38.5t-46.5 14.5h-58v-109z" />
    <glyph glyph-name="trademark" unicode="&#x2122;" horiz-adv-x="682" 
d="M114 387v274h-92v49h239v-49h-92v-274h-55zM310 387v323h56l106 -194l106 194h56v-323h-54v222l-90 -158h-37l-91 158v-222h-52z" />
    <glyph glyph-name="uni2126" unicode="&#x2126;" horiz-adv-x="781" 
d="M69 0v79h148l1 1q-75 52 -117 129t-42 170q0 145 92.5 241t238.5 96q147 0 239.5 -96t92.5 -241q0 -92 -41.5 -169.5t-116.5 -129.5v-1h148v-79h-266v79q186 112 186 299q0 112 -67.5 184t-174.5 72t-173.5 -71.5t-66.5 -184.5q0 -189 185 -299v-79h-266z" />
    <glyph glyph-name="estimated" unicode="&#x212e;" horiz-adv-x="793" 
d="M396 -10q-145 0 -240.5 93.5t-95.5 227.5q0 139 97.5 230t238.5 91q145 0 241 -93.5t96 -227.5v-9h-537v-204q38 -40 92.5 -59.5t108.5 -19.5q62 0 117 22.5t91 62.5h47q-43 -53 -112.5 -83.5t-143.5 -30.5zM196 335h398v194q-35 36 -89 54.5t-108 18.5q-57 0 -111.5 -20
t-88.5 -59z" />
    <glyph glyph-name="oneeighth" unicode="&#x215b;" horiz-adv-x="809" 
d="M252 -17l-66 28l310 711l67 -28zM131 299v325l-79 -54l-34 53l128 88h54v-412h-69zM623 -6q-74 0 -115.5 33t-41.5 87q0 38 22.5 67t55.5 39v2q-23 8 -41 31t-18 52q0 52 38.5 82t99.5 30q63 0 100 -30t37 -82q0 -29 -17.5 -52t-40.5 -31v-2q34 -10 56 -38.5t22 -67.5
q0 -55 -42 -87.5t-115 -32.5zM623 245q33 0 53.5 15.5t20.5 41.5q0 24 -19.5 41t-54.5 17q-34 0 -54 -17t-20 -41q0 -26 20.5 -41.5t53.5 -15.5zM623 54q39 0 63 19.5t24 49.5t-24 50t-63 19t-63 -20t-24 -49q0 -31 24 -50t63 -19z" />
    <glyph glyph-name="threeeighths" unicode="&#x215c;" horiz-adv-x="874" 
d="M317 -17l-66 28l310 711l67 -28zM170 293q-88 0 -147 43l32 59q48 -39 110 -39q82 0 82 63q0 66 -95 66h-29v54h36q40 0 61 17t21 41q0 26 -19 41t-56 15q-58 0 -101 -34l-31 56q66 41 138 41q61 0 98 -28.5t37 -79.5q0 -66 -64 -93v-2q75 -24 75 -103q0 -53 -37 -85
t-111 -32zM688 -6q-74 0 -115.5 33t-41.5 87q0 38 22.5 67t55.5 39v2q-23 8 -41 31t-18 52q0 52 38.5 82t99.5 30q63 0 100 -30t37 -82q0 -29 -17.5 -52t-40.5 -31v-2q34 -10 56 -38.5t22 -67.5q0 -55 -42 -87.5t-115 -32.5zM688 245q33 0 53.5 15.5t20.5 41.5
q0 24 -19.5 41t-54.5 17q-34 0 -54 -17t-20 -41q0 -26 20.5 -41.5t53.5 -15.5zM688 54q39 0 63 19.5t24 49.5t-24 50t-63 19t-63 -20t-24 -49q0 -31 24 -50t63 -19z" />
    <glyph glyph-name="fiveeighths" unicode="&#x215d;" horiz-adv-x="871" 
d="M558 722l67 -28l-311 -711l-66 28zM321 430q0 -63 -41.5 -100t-117.5 -37q-81 0 -138 43l32 58q49 -39 104 -39q44 0 67 20.5t23 57.5t-23.5 56.5t-63.5 19.5q-45 0 -82 -23l-35 12l15 213h239v-62h-183l-10 -101q35 14 77 14q61 0 99 -36t38 -96zM764 220
q34 -10 56 -38.5t22 -67.5q0 -55 -42 -87.5t-115 -32.5q-74 0 -115.5 33t-41.5 87q0 38 22.5 67t55.5 39v2q-23 8 -41 31t-18 52q0 52 38.5 82t99.5 30q63 0 100 -30t37 -82q0 -29 -17.5 -52t-40.5 -31v-2zM685 360q-34 0 -54 -17t-20 -41q0 -26 20.5 -41.5t53.5 -15.5
t53.5 15.5t20.5 41.5q0 24 -19.5 41t-54.5 17zM685 54q39 0 63 19.5t24 49.5t-24 50t-63 19t-63 -20t-24 -49q0 -31 24 -50t63 -19z" />
    <glyph glyph-name="seveneighths" unicode="&#x215e;" horiz-adv-x="803" 
d="M246 -17l-66 28l310 711l67 -28zM64 299l159 348h-199v64h275v-47l-160 -365h-75zM617 -6q-74 0 -115.5 33t-41.5 87q0 38 22.5 67t55.5 39v2q-23 8 -41 31t-18 52q0 52 38.5 82t99.5 30q63 0 100 -30t37 -82q0 -29 -17.5 -52t-40.5 -31v-2q34 -10 56 -38.5t22 -67.5
q0 -55 -42 -87.5t-115 -32.5zM617 245q33 0 53.5 15.5t20.5 41.5q0 24 -19.5 41t-54.5 17q-34 0 -54 -17t-20 -41q0 -26 20.5 -41.5t53.5 -15.5zM617 54q39 0 63 19.5t24 49.5t-24 50t-63 19t-63 -20t-24 -49q0 -31 24 -50t63 -19z" />
    <glyph glyph-name="arrowleft" unicode="&#x2190;" horiz-adv-x="883" 
d="M853 396v-82h-684l313 -314h-113l-354 356l354 354h113l-316 -314h687z" />
    <glyph glyph-name="arrowup" unicode="&#x2191;" horiz-adv-x="770" 
d="M740 483v-113l-314 313v-684h-82v687l-314 -316v113l354 354z" />
    <glyph glyph-name="arrowright" unicode="&#x2192;" horiz-adv-x="883" 
d="M514 710l354 -354l-354 -356h-113l313 314h-684v82h687l-316 314h113z" />
    <glyph glyph-name="arrowdown" unicode="&#x2193;" horiz-adv-x="770" 
d="M426 24l314 316v-113l-354 -354l-356 354v113l314 -313v684h82v-687z" />
    <glyph glyph-name="arrowboth" unicode="&#x2194;" horiz-adv-x="1288" 
d="M919 710l354 -354l-354 -356h-113l313 314h-950l313 -314h-113l-354 356l354 354h113l-316 -314h956l-316 314h113z" />
    <glyph glyph-name="arrowupdn" unicode="&#x2195;" horiz-adv-x="770" 
d="M426 -126l314 316v-113l-354 -354l-356 354v113l314 -313v950l-314 -313v113l356 354l354 -354v-113l-314 316v-956z" />
    <glyph glyph-name="uni2196" unicode="&#x2196;" horiz-adv-x="719" 
d="M684 146l-59 -58l-485 485l1 -445l-79 80v502l501 -1l80 -79l-445 1z" />
    <glyph glyph-name="uni2197" unicode="&#x2197;" horiz-adv-x="719" 
d="M157 710l501 1v-502l-79 -80l1 445l-485 -485l-59 58l486 485l-445 -1z" />
    <glyph glyph-name="uni2198" unicode="&#x2198;" horiz-adv-x="719" 
d="M578 582l79 -80v-502l-501 1l-80 79l445 -1l-486 485l59 58l485 -485z" />
    <glyph glyph-name="uni2199" unicode="&#x2199;" horiz-adv-x="719" 
d="M684 564l-486 -485l445 1l-80 -79l-501 -1v502l79 80l-1 -445l485 485z" />
    <glyph glyph-name="partialdiff" unicode="&#x2202;" horiz-adv-x="576" 
d="M279 693q58 0 103.5 -27.5t72 -69.5t44 -98t23.5 -106t6 -100q0 -145 -67.5 -221.5t-174.5 -76.5q-103 0 -170 62t-67 159q0 102 62 162.5t156 60.5q109 0 174 -71q-26 249 -174 249q-48 0 -146 -41l-25 72q100 46 183 46zM286 75q68 0 112 50t47 137q-25 44 -68 72
t-97 28q-66 0 -105 -39t-39 -106q0 -60 42 -101t108 -41z" />
    <glyph glyph-name="emptyset" unicode="&#x2205;" horiz-adv-x="706" 
d="M586 511q68 -84 68 -193q0 -124 -88 -213.5t-214 -89.5q-109 0 -192 70l-45 -45l-37 37l45 45q-71 86 -71 196q0 124 88 213t213 89q113 0 196 -72l40 40l37 -37zM119 317q0 -83 51 -148l332 332q-64 53 -149 53q-98 0 -166 -69.5t-68 -167.5zM352 81q98 0 166.5 70
t68.5 167q0 82 -49 145l-331 -331q62 -51 145 -51z" />
    <glyph glyph-name="uni2206" unicode="&#x2206;" horiz-adv-x="665" 
d="M36 0v68l251 642h89l253 -642v-68h-593zM134 79h396l-197 524h-2z" />
    <glyph glyph-name="product" unicode="&#x220f;" horiz-adv-x="697" 
d="M89 -102v812h520v-812h-87v733h-346v-733h-87z" />
    <glyph glyph-name="summation" unicode="&#x2211;" horiz-adv-x="603" 
d="M56 -85v63l224 336l-224 331v65h503v-79h-385l-2 -2l208 -315l-207 -317l1 -3h385v-79h-503z" />
    <glyph glyph-name="minus" unicode="&#x2212;" horiz-adv-x="587" 
d="M59 239v75h469v-75h-469z" />
    <glyph glyph-name="radical" unicode="&#x221a;" horiz-adv-x="692" 
d="M311 0l-167 500h-110v72h177l149 -455h2l319 705h64l-375 -822h-59z" />
    <glyph glyph-name="infinity" unicode="&#x221e;" horiz-adv-x="779" 
d="M560 437q67 0 114 -46.5t47 -115.5q0 -70 -47.5 -116t-113.5 -46q-96 0 -171 105q-77 -105 -170 -105q-68 0 -114.5 47t-46.5 115q0 70 47.5 116t113.5 46q95 0 170 -106q77 106 171 106zM221 179q64 0 127 96q-64 96 -127 96q-40 0 -67.5 -27t-27.5 -69t27.5 -69
t67.5 -27zM560 179q38 0 65.5 27.5t27.5 68.5q0 42 -27.5 69t-65.5 27q-66 0 -130 -96q65 -96 130 -96z" />
    <glyph glyph-name="integral" unicode="&#x222b;" horiz-adv-x="354" 
d="M22 -170q-20 -1 -52 3l8 63h9q46 0 59 19t24 89l83 556q11 70 40.5 102t81.5 34q18 1 67 -6l-8 -59h-23q-46 0 -58.5 -18t-23.5 -91l-84 -557q-11 -69 -40 -101t-83 -34z" />
    <glyph glyph-name="uni2236" unicode="&#x2236;" horiz-adv-x="242" 
d="M121 435q-25 0 -42.5 17t-17.5 42t17.5 42t42.5 17t42 -17t17 -42t-17 -42t-42 -17zM121 53q-25 0 -42.5 17t-17.5 42t17.5 42t42.5 17t42 -17t17 -42t-17 -42t-42 -17z" />
    <glyph glyph-name="approxequal" unicode="&#x2248;" horiz-adv-x="596" 
d="M411 323q-34 0 -100.5 24t-105.5 24q-62 0 -119 -38l-23 57q19 18 56.5 36.5t79.5 18.5q43 0 107 -24.5t99 -24.5q52 0 104 46l25 -58q-57 -61 -123 -61zM411 105q-34 0 -100.5 24t-105.5 24q-64 0 -119 -39l-23 57q18 18 55.5 37t80.5 19q44 -1 107.5 -25.5t98.5 -24.5
q53 0 104 47l25 -59q-58 -60 -123 -60z" />
    <glyph glyph-name="notequal" unicode="&#x2260;" horiz-adv-x="582" 
d="M532 352h-172l-71 -151h243v-75h-278l-57 -123l-56 23l47 100h-125v75h160l70 151h-230v75h265l60 128l56 -23l-49 -105h137v-75z" />
    <glyph glyph-name="lessequal" unicode="&#x2264;" horiz-adv-x="584" 
d="M508 150l-449 204v60l449 207v-82l-338 -154l338 -154v-81zM510 0h-453v75h453v-75z" />
    <glyph glyph-name="greaterequal" unicode="&#x2265;" horiz-adv-x="582" 
d="M76 150v81l338 154l-338 154v82l449 -207v-60zM74 0v75h453v-75h-453z" />
    <glyph glyph-name="filledbox" unicode="&#x25a0;" horiz-adv-x="648" 
d="M47 0v551h552v-551h-552z" />
    <glyph glyph-name="uni25A1" unicode="&#x25a1;" horiz-adv-x="648" 
d="M47 0v551h552v-551h-552zM114 67h418v417h-418v-417z" />
    <glyph glyph-name="triagup" unicode="&#x25b2;" horiz-adv-x="643" 
d="M7 0l314 580l313 -580h-627z" />
    <glyph glyph-name="uni25B3" unicode="&#x25b3;" horiz-adv-x="643" 
d="M7 0l314 580l313 -580h-627zM119 67h404l-202 373z" />
    <glyph glyph-name="uni25B6" unicode="&#x25b6;" horiz-adv-x="640" 
d="M52 -38v627l579 -314z" />
    <glyph glyph-name="uni25B7" unicode="&#x25b7;" horiz-adv-x="640" 
d="M52 -38v627l579 -314zM119 74l373 201l-373 202v-403z" />
    <glyph glyph-name="triagdn" unicode="&#x25bc;" horiz-adv-x="643" 
d="M321 -28l-314 579h627z" />
    <glyph glyph-name="uni25BD" unicode="&#x25bd;" horiz-adv-x="643" 
d="M321 -28l-314 579h627zM321 112l202 372h-404z" />
    <glyph glyph-name="uni25C0" unicode="&#x25c0;" horiz-adv-x="640" 
d="M587 -38l-580 313l580 314v-627z" />
    <glyph glyph-name="uni25C1" unicode="&#x25c1;" horiz-adv-x="640" 
d="M587 -38l-580 313l580 314v-627zM521 74v403l-374 -202z" />
    <glyph glyph-name="uni25C6" unicode="&#x25c6;" horiz-adv-x="694" 
d="M347 -64l-340 339l340 340l339 -340z" />
    <glyph glyph-name="uni25C7" unicode="&#x25c7;" horiz-adv-x="694" 
d="M347 -64l-340 339l340 340l339 -340zM347 30l245 245l-245 246l-246 -246z" />
    <glyph glyph-name="lozenge" unicode="&#x25ca;" horiz-adv-x="472" 
d="M233 0l-190 338l190 339l196 -339zM234 133l108 205l-108 207l-106 -207z" />
    <glyph glyph-name="circle" unicode="&#x25cb;" horiz-adv-x="645" 
d="M322 -6q-115 0 -197 82.5t-82 198.5q0 117 82 200t197 83q116 0 198 -83t82 -200q0 -116 -82 -198.5t-198 -82.5zM322 63q87 0 149 62t62 150t-62 150.5t-149 62.5t-148.5 -62.5t-61.5 -150.5t61.5 -150t148.5 -62z" />
    <glyph glyph-name="uni25CF" unicode="&#x25cf;" horiz-adv-x="645" 
d="M322 -6q-115 0 -197 82.5t-82 198.5q0 117 82 200t197 83q116 0 198 -83t82 -200q0 -116 -82 -198.5t-198 -82.5z" />
    <glyph glyph-name="uni2605" unicode="&#x2605;" horiz-adv-x="757" 
d="M150 -37l87 267l-228 167h282l86 268l88 -268h282l-229 -167l88 -267l-229 165z" />
    <glyph glyph-name="uni2606" unicode="&#x2606;" horiz-adv-x="757" 
d="M150 -37l87 267l-228 167h282l86 268l88 -268h282l-229 -167l88 -267l-229 165zM251 97l126 93l129 -93l-49 149l130 95h-159l-50 150l-48 -150h-161l130 -95z" />
    <glyph glyph-name="uni2610" unicode="&#x2610;" horiz-adv-x="771" 
d="M47 0v551h552v-551h-552zM114 67h418v417h-418v-417z" />
    <glyph glyph-name="uni2713" unicode="&#x2713;" horiz-adv-x="645" 
d="M614 692l52 -42l-455 -570l-188 195l48 46l135 -141z" />
    <glyph glyph-name="uni2715" unicode="&#x2715;" horiz-adv-x="645" 
d="M164 70l-45 46l125 125l-126 126l46 45l124 -126l126 126l47 -45l-127 -127l126 -125l-45 -45l-125 124z" />
    <glyph glyph-name="uni2780" unicode="&#x2780;" horiz-adv-x="766" 
d="M383 -10q-148 0 -253 104.5t-105 252.5t105 253t253 105t253 -105t105 -253t-105 -252.5t-253 -104.5zM383 51q123 0 210 86.5t87 209.5t-87 210t-210 87t-210 -87t-87 -210t87 -209.5t210 -86.5zM360 143v325l-79 -54l-34 53l128 88h54v-412h-69z" />
    <glyph glyph-name="uni2781" unicode="&#x2781;" horiz-adv-x="766" 
d="M383 -10q-148 0 -253 104.5t-105 252.5t105 253t253 105t253 -105t105 -253t-105 -252.5t-253 -104.5zM383 51q123 0 210 86.5t87 209.5t-87 210t-210 87t-210 -87t-87 -210t87 -209.5t210 -86.5zM248 143l-1 47l143 137q63 60 63 102q0 30 -19.5 48t-54.5 18
q-51 0 -103 -43l-33 58q69 50 141 50q66 0 103.5 -33.5t37.5 -92.5q0 -68 -80 -139l-95 -87l1 -2h179v-63h-282z" />
    <glyph glyph-name="uni2782" unicode="&#x2782;" horiz-adv-x="766" 
d="M383 -10q-148 0 -253 104.5t-105 252.5t105 253t253 105t253 -105t105 -253t-105 -252.5t-253 -104.5zM383 51q123 0 210 86.5t87 209.5t-87 210t-210 87t-210 -87t-87 -210t87 -209.5t210 -86.5zM386 137q-88 0 -147 43l32 59q48 -39 110 -39q82 0 82 63q0 66 -95 66
h-29v54h36q40 0 61 17t21 41q0 26 -19 41t-56 15q-58 0 -101 -34l-31 56q66 41 138 41q61 0 98 -28.5t37 -79.5q0 -66 -64 -93v-2q75 -24 75 -103q0 -53 -37 -85t-111 -32z" />
    <glyph glyph-name="uni2783" unicode="&#x2783;" horiz-adv-x="766" 
d="M383 705q148 0 253 -105t105 -253t-105 -252.5t-253 -104.5t-253 104.5t-105 252.5t105 253t253 105zM383 51q123 0 210 86.5t87 209.5t-87 210t-210 87t-210 -87t-87 -210t87 -209.5t210 -86.5zM470 555v-274h62v-60h-62v-78h-68v78h-197v45l211 289h54zM275 276h136
v186z" />
    <glyph glyph-name="uni2784" unicode="&#x2784;" horiz-adv-x="766" 
d="M383 705q148 0 253 -105t105 -253t-105 -252.5t-253 -104.5t-253 104.5t-105 252.5t105 253t253 105zM383 51q123 0 210 86.5t87 209.5t-87 210t-210 87t-210 -87t-87 -210t87 -209.5t210 -86.5zM399 406q61 0 99 -36t38 -96q0 -63 -41.5 -100t-117.5 -37q-81 0 -138 43
l32 58q49 -39 104 -39q44 0 67 20.5t23 57.5t-23.5 56.5t-63.5 19.5q-45 0 -82 -23l-35 12l15 213h239v-62h-183l-10 -101q35 14 77 14z" />
    <glyph glyph-name="uni2785" unicode="&#x2785;" horiz-adv-x="766" 
d="M383 705q148 0 253 -105t105 -253t-105 -252.5t-253 -104.5t-253 104.5t-105 252.5t105 253t253 105zM383 51q123 0 210 86.5t87 209.5t-87 210t-210 87t-210 -87t-87 -210t87 -209.5t210 -86.5zM395 406q63 0 100 -35t37 -97q0 -60 -41 -99t-107 -39q-75 0 -117 53
t-42 149q0 64 16 110t43.5 69t56 33t60.5 10q58 0 105 -20l-23 -59q-35 18 -82 18q-98 0 -109 -129q44 36 103 36zM384 198q36 0 59 21.5t23 55.5t-22 54t-59 20q-61 0 -93 -49q5 -50 29 -76t63 -26z" />
    <glyph glyph-name="uni2786" unicode="&#x2786;" horiz-adv-x="766" 
d="M383 -10q-148 0 -253 104.5t-105 252.5t105 253t253 105t253 -105t105 -253t-105 -252.5t-253 -104.5zM383 51q123 0 210 86.5t87 209.5t-87 210t-210 87t-210 -87t-87 -210t87 -209.5t210 -86.5zM294 143l159 348h-199v64h275v-47l-160 -365h-75z" />
    <glyph glyph-name="uni2787" unicode="&#x2787;" horiz-adv-x="766" 
d="M383 -10q-148 0 -253 104.5t-105 252.5t105 253t253 105t253 -105t105 -253t-105 -252.5t-253 -104.5zM383 51q123 0 210 86.5t87 209.5t-87 210t-210 87t-210 -87t-87 -210t87 -209.5t210 -86.5zM385 137q-74 0 -115.5 33t-41.5 87q0 38 22.5 67t55.5 39v2q-23 8 -41 31
t-18 52q0 52 38.5 82t99.5 30q63 0 100 -30t37 -82q0 -29 -17.5 -52t-40.5 -31v-2q34 -10 56 -38.5t22 -67.5q0 -55 -42 -87.5t-115 -32.5zM385 388q33 0 53.5 15.5t20.5 41.5q0 24 -19.5 41t-54.5 17q-34 0 -54 -17t-20 -41q0 -26 20.5 -41.5t53.5 -15.5zM385 197
q39 0 63 19.5t24 49.5t-24 50t-63 19t-63 -20t-24 -49q0 -31 24 -50t63 -19z" />
    <glyph glyph-name="uni2788" unicode="&#x2788;" horiz-adv-x="766" 
d="M383 705q148 0 253 -105t105 -253t-105 -252.5t-253 -104.5t-253 104.5t-105 252.5t105 253t253 105zM383 51q123 0 210 86.5t87 209.5t-87 210t-210 87t-210 -87t-87 -210t87 -209.5t210 -86.5zM388 560q75 0 117 -53t42 -149q0 -52 -11 -92t-28.5 -64t-41.5 -39.5
t-47.5 -21t-48.5 -5.5q-62 0 -109 22l20 61q36 -21 88 -21q101 0 112 129q-43 -37 -105 -37t-99 34.5t-37 94.5q0 62 41 101.5t107 39.5zM387 347q61 0 94 50q-12 101 -93 101q-36 0 -58.5 -21.5t-22.5 -56.5q0 -33 21.5 -53t58.5 -20z" />
    <glyph glyph-name="uni278A" unicode="&#x278a;" horiz-adv-x="766" 
d="M383 -10q-148 0 -253 104.5t-105 252.5t105 253t253 105t253 -105t105 -253t-105 -252.5t-253 -104.5zM359 143h69v412h-54l-128 -88l34 -53l79 54v-325z" />
    <glyph glyph-name="uni278B" unicode="&#x278b;" horiz-adv-x="766" 
d="M383 -10q-148 0 -253 104.5t-105 252.5t105 253t253 105t253 -105t105 -253t-105 -252.5t-253 -104.5zM248 143h281v63h-178l-1 2l95 87q80 73 80 139q0 59 -37.5 92.5t-104.5 33.5q-71 0 -141 -50l33 -58q54 43 103 43q35 0 55 -18t20 -48q0 -43 -64 -102l-142 -137z
" />
    <glyph glyph-name="uni278C" unicode="&#x278c;" horiz-adv-x="766" 
d="M383 -10q-148 0 -253 104.5t-105 252.5t105 253t253 105t253 -105t105 -253t-105 -252.5t-253 -104.5zM387 137q73 0 110 32t37 85q0 79 -75 103v2q64 27 64 93q0 51 -37.5 79.5t-98.5 28.5q-72 0 -138 -41l31 -56q43 34 101 34q75 0 75 -57q0 -24 -20.5 -40.5
t-61.5 -16.5h-31v-54h24q95 0 95 -65q0 -64 -79 -64q-64 0 -112 39l-32 -59q59 -43 148 -43z" />
    <glyph glyph-name="uni278D" unicode="&#x278d;" horiz-adv-x="766" 
d="M383 -10q-148 0 -253 104.5t-105 252.5t105 253t253 105t253 -105t105 -253t-105 -252.5t-253 -104.5zM399 143h68v78h61v60h-61v274h-54l-206 -289v-45h192v-78zM277 277l129 180v-180h-129z" />
    <glyph glyph-name="uni278E" unicode="&#x278e;" horiz-adv-x="766" 
d="M383 -10q-148 0 -253 104.5t-105 252.5t105 253t253 105t253 -105t105 -253t-105 -252.5t-253 -104.5zM382 137q72 0 112.5 37.5t40.5 100.5q0 60 -37.5 95t-100.5 35q-41 0 -75 -14l9 102h183v62h-238l-16 -213l36 -12q35 23 81 23q40 0 63.5 -19.5t23.5 -57.5
q0 -36 -23 -56.5t-65 -20.5q-57 0 -106 39l-32 -58q57 -43 144 -43z" />
    <glyph glyph-name="uni278F" unicode="&#x278f;" horiz-adv-x="766" 
d="M383 -10q-148 0 -253 104.5t-105 252.5t105 253t253 105t253 -105t105 -253t-105 -252.5t-253 -104.5zM381 136q66 0 107.5 39t41.5 99q0 62 -37 97t-101 35q-61 0 -102 -41h-1q7 134 110 134q44 0 80 -16l22 57q-42 20 -102 20q-25 0 -48.5 -5.5t-47.5 -21t-41.5 -39.5
t-28.5 -64t-11 -92q0 -96 42 -149t117 -53zM381 198q-80 0 -92 100q32 51 93 51q37 0 59 -20t22 -54q0 -35 -22.5 -56t-59.5 -21z" />
    <glyph glyph-name="uni2790" unicode="&#x2790;" horiz-adv-x="766" 
d="M383 -10q-148 0 -253 104.5t-105 252.5t105 253t253 105t253 -105t105 -253t-105 -252.5t-253 -104.5zM293 143h75l161 365v47h-276v-64h199z" />
    <glyph glyph-name="uni2791" unicode="&#x2791;" horiz-adv-x="766" 
d="M383 -10q-148 0 -253 104.5t-105 252.5t105 253t253 105t253 -105t105 -253t-105 -252.5t-253 -104.5zM384 137q72 0 114.5 33t42.5 87q0 39 -22 67.5t-56 38.5v2q23 8 40.5 31t17.5 52q0 52 -37 82t-100 30q-61 0 -99.5 -30t-38.5 -82q0 -29 18 -52t41 -31v-2
q-33 -10 -55.5 -39t-22.5 -67q0 -54 41.5 -87t115.5 -33zM383 388q-33 0 -53 15.5t-20 41.5q0 24 19.5 41t53.5 17q35 0 55 -16.5t20 -41.5q0 -26 -20.5 -41.5t-54.5 -15.5zM384 197q-39 0 -63 19t-24 50q0 30 24 49t63 20t63 -19t24 -50t-24 -49.5t-63 -19.5z" />
    <glyph glyph-name="uni2792" unicode="&#x2792;" horiz-adv-x="766" 
d="M383 -10q-148 0 -253 104.5t-105 252.5t105 253t253 105t253 -105t105 -253t-105 -252.5t-253 -104.5zM370 136q25 0 48.5 5.5t47.5 21t41.5 39.5t28.5 64t11 92q0 96 -42 149t-117 53q-66 0 -107.5 -39.5t-41.5 -101.5q0 -60 37 -94.5t100 -34.5q60 0 104 41h2
q-10 -133 -114 -133q-51 0 -88 21l-19 -61q45 -22 109 -22zM387 347q-37 0 -59 20t-22 53q0 35 22.5 56.5t59.5 21.5q38 0 62.5 -25t29.5 -74q-30 -52 -93 -52z" />
    <glyph glyph-name="uni2E18" unicode="&#x2e18;" horiz-adv-x="424" 
d="M248 376q-25 0 -42 17t-17 42t17 42t42 17t42.5 -17t17.5 -42t-17.5 -42t-42.5 -17zM365 -106l60 -57q-69 -93 -191 -93q-84 0 -140.5 51t-56.5 136q0 55 23.5 96t66.5 84q6 6 25 24t25.5 25.5t17.5 21.5t15.5 25t4.5 23l2 50h67l14 -374h-92l7 178l-2 1l-2 -2
q-28 -30 -42 -46t-26.5 -42.5t-12.5 -53.5q0 -55 31.5 -85.5t80.5 -30.5q36 0 69.5 18t55.5 51z" />
    <glyph glyph-name="u1F10B" unicode="&#x1f10b;" horiz-adv-x="766" 
d="M383 -10q-148 0 -253 104.5t-105 252.5t105 253t253 105t253 -105t105 -253t-105 -252.5t-253 -104.5zM383 51q123 0 210 86.5t87 209.5t-87 210t-210 87t-210 -87t-87 -210t87 -209.5t210 -86.5zM385 137q-79 0 -126 57t-47 155q0 97 47 154.5t126 57.5t125.5 -57
t46.5 -155q0 -97 -47 -154.5t-125 -57.5zM385 202q47 0 74.5 39t27.5 108q0 70 -28 109t-74 39q-49 0 -76 -39.5t-27 -108.5q0 -70 28 -108.5t75 -38.5z" />
    <glyph glyph-name="u1F10C" unicode="&#x1f10c;" horiz-adv-x="766" 
d="M383 -10q-148 0 -253 104.5t-105 252.5t105 253t253 105t253 -105t105 -253t-105 -252.5t-253 -104.5zM383 137q79 0 125.5 57.5t46.5 154.5q0 98 -46.5 155t-125.5 57t-125.5 -57.5t-46.5 -154.5q0 -98 46.5 -155t125.5 -57zM383 202q-46 0 -74.5 38.5t-28.5 108.5
q0 69 27.5 108.5t75.5 39.5q46 0 74 -39t28 -109q0 -69 -27 -108t-75 -39z" />
    <glyph glyph-name="uni00A40301" horiz-adv-x="534" 
d="M376 782l112 129h93l-122 -129h-83zM243 -5q-69 0 -129 26.5t-100 73.5l55 66q37 -43 76.5 -64t93.5 -21q133 0 133 161v473h87v-472q0 -125 -54 -184t-162 -59z" />
    <glyph glyph-name="C.ita" horiz-adv-x="692" 
d="M352 -6q-128 0 -205 78t-77 220q0 114 45 210.5t129.5 155.5t190.5 59q161 0 243 -137l-68 -57q-68 112 -179 112q-118 0 -195 -101.5t-77 -234.5q0 -107 51.5 -165.5t146.5 -58.5q106 0 196 87l53 -65q-105 -103 -254 -103z" />
    <glyph glyph-name="I.ita" horiz-adv-x="282" 
d="M68 0l87 710h86l-87 -710h-86z" />
    <glyph glyph-name="i.loclTRK" horiz-adv-x="254" 
d="M127 576q-25 0 -42 17t-17 41t17 41t42 17t42 -17t17 -41t-17 -41t-42 -17zM86 0v487h81v-487h-81z" />
    <glyph glyph-name="uni006A0301" horiz-adv-x="227" 
d="M75 568l118 141l91 1l-124 -142h-85zM36 -204q-45 0 -84 17l14 72q24 -15 55 -15q59 0 59 80v537h81v-541q0 -150 -125 -150z" />
    <glyph glyph-name="f.calt" horiz-adv-x="360" 
d="M103 0v417h-86v70h86v84q0 85 40 128.5t115 43.5q43 0 90 -15l-24 -67q-30 10 -60 10q-81 0 -81 -105v-79h156v-70h-156v-417h-80z" />
    <glyph glyph-name="j.calt" horiz-adv-x="235" 
d="M122 576q-25 0 -42 17t-17 41t17 41t42 17t42 -17t17 -41t-17 -41t-42 -17zM48 -204q-28 0 -47 5l9 71q8 -3 26 -3q46 0 46 78v540h81v-540q0 -72 -30 -111.5t-85 -39.5z" />
    <glyph glyph-name="uni0237.calt" horiz-adv-x="235" 
d="M48 -204q-28 0 -47 5l9 71q8 -3 26 -3q46 0 46 78v540h81v-540q0 -72 -30 -111.5t-85 -39.5z" />
    <glyph glyph-name="jcircumflex.calt" horiz-adv-x="235" 
d="M-34 556l115 140h85l111 -140h-81l-72 89h-2l-73 -89h-83zM48 -204q-28 0 -47 5l9 71q8 -3 26 -3q46 0 46 78v540h81v-540q0 -72 -30 -111.5t-85 -39.5z" />
    <glyph glyph-name="germandbls.calt" horiz-adv-x="746" 
d="M498 405q104 -43 132 -60q84 -60 87 -156q0 -92 -62 -143.5t-167 -51.5q-140 0 -237 72l41 79q78 -70 192 -70q65 0 103.5 30.5t38.5 80.5t-37 77t-122 57q-45 17 -102 44l133 254l-1 3q-93 16 -164 16q-89 0 -130 -35t-42 -115v-487h-87l1 492q0 225 248 225
q113 0 297 -42l-140 -263q12 -4 18 -7z" />
    <glyph glyph-name="zero.tf" horiz-adv-x="586" 
d="M295 -6q-121 0 -192.5 92t-71.5 257q0 157 69 253.5t195 96.5q121 0 192 -92t71 -258q0 -157 -68.5 -253t-194.5 -96zM295 72q86 0 132 73t46 198q0 129 -48 200.5t-130 71.5q-85 0 -131.5 -73t-46.5 -199q0 -129 48 -200t130 -71z" />
    <glyph glyph-name="one.tf" horiz-adv-x="586" 
d="M367 77h140v-77h-389v77h165v509l-160 -104l-42 63l217 142h69v-610z" />
    <glyph glyph-name="two.tf" horiz-adv-x="586" 
d="M81 0l-2 58l234 237q53 55 80 98t27 92q0 57 -36.5 92.5t-100.5 35.5q-85 0 -164 -69l-45 67q102 81 218 81q94 0 154 -54t60 -145q0 -115 -121 -236l-177 -177l1 -3h304v-77h-432z" />
    <glyph glyph-name="three.tf" horiz-adv-x="586" 
d="M285 -6q-136 0 -231 68l41 73q83 -63 188 -63q73 1 112.5 33t39.5 87q0 56 -39.5 92t-113.5 36h-69v72h79q62 0 93.5 32t31.5 78q0 52 -36.5 82.5t-100.5 30.5q-92 0 -165 -62l-45 68q95 72 215 72q96 0 156.5 -47.5t60.5 -132.5q0 -51 -26.5 -92t-74.5 -62v-3
q119 -48 119 -172q0 -88 -59.5 -139t-175.5 -51z" />
    <glyph glyph-name="four.tf" horiz-adv-x="586" 
d="M364 0v144h-338v59l350 484h72v-468h99v-75h-99v-144h-84zM123 215h247v335z" />
    <glyph glyph-name="five.tf" horiz-adv-x="586" 
d="M296 436q102 0 165.5 -58.5t63.5 -160.5q0 -106 -68.5 -164.5t-184.5 -58.5q-121 0 -221 67l42 74q85 -63 180 -63q76 0 121.5 40t45.5 106q0 67 -47.5 106t-116.5 39q-68 0 -142 -37l-45 22l20 339h383v-78h-304l-12 -197q59 24 120 24z" />
    <glyph glyph-name="six.tf" horiz-adv-x="586" 
d="M321 438q95 0 157 -58.5t62 -161.5q0 -100 -67 -162t-168 -62q-121 0 -189.5 87.5t-68.5 247.5q0 85 18 150.5t46 105t67 64.5t76.5 34.5t78.5 9.5q97 0 163 -32l-34 -74q-60 29 -129 29q-98 0 -147.5 -72t-54.5 -189h1q71 83 189 83zM305 72q65 0 107.5 40.5t42.5 105.5
t-42.5 104t-107.5 39q-58 0 -102 -29t-69 -73q12 -92 57.5 -139.5t113.5 -47.5z" />
    <glyph glyph-name="seven.tf" horiz-adv-x="586" 
d="M158 0l265 610h-341v77h435v-59l-268 -628h-91z" />
    <glyph glyph-name="eight.tf" horiz-adv-x="586" 
d="M292 -6q-113 0 -178 51t-65 142q0 68 36 116t95 67v2q-41 14 -71.5 54.5t-30.5 94.5q0 79 59 125.5t155 46.5q98 0 157 -46.5t59 -125.5q0 -54 -31 -95.5t-71 -53.5v-2q59 -18 95 -66t36 -117q0 -93 -66 -143t-179 -50zM292 404q59 0 96 29.5t37 78.5q0 50 -36 78t-97 28
q-60 0 -96 -28.5t-36 -77.5t37 -78.5t95 -29.5zM292 70q75 0 117 35t42 93q0 59 -43.5 95.5t-115.5 36.5q-71 0 -114 -36.5t-43 -95.5t42.5 -93.5t114.5 -34.5z" />
    <glyph glyph-name="nine.tf" horiz-adv-x="586" 
d="M279 693q119 0 186.5 -88.5t67.5 -253.5q0 -103 -26.5 -176.5t-71.5 -111t-92 -53.5t-101 -16q-101 0 -168 37l36 72q56 -32 127 -32q106 0 157.5 71t56.5 190l-2 1q-71 -84 -187 -84q-96 0 -158 58t-62 160t67.5 164t169.5 62zM277 326q57 0 100.5 29t68.5 72
q-13 93 -57 140.5t-111 47.5q-65 0 -108 -40.5t-43 -105.5t42.5 -104t107.5 -39z" />
    <glyph glyph-name="zero.tf.zero" horiz-adv-x="586" 
d="M295 -6q-121 0 -192.5 92t-71.5 257q0 157 69 253.5t195 96.5q121 0 192 -92t71 -258q0 -157 -68.5 -253t-194.5 -96zM295 72q86 0 132 73t46 198q0 129 -48 200.5t-130 71.5q-85 0 -131.5 -73t-46.5 -199q0 -129 48 -200t130 -71zM296 285q-24 0 -40 16t-16 39t16 39
t40 16q23 0 39 -16t16 -39t-16 -39t-39 -16z" />
    <glyph glyph-name="zero.zero" horiz-adv-x="638" 
d="M319 -6q-121 0 -192.5 92t-71.5 257q0 157 69 253.5t195 96.5q121 0 192 -92t71 -258q0 -157 -68.5 -253t-194.5 -96zM319 72q86 0 132 73t46 198q0 129 -48 200.5t-130 71.5q-85 0 -131.5 -73t-46.5 -199q0 -129 48 -200t130 -71zM320 285q-24 0 -40 16t-16 39t16 39
t40 16q23 0 39 -16t16 -39t-16 -39t-39 -16z" />
    <glyph glyph-name="zero.dnom" horiz-adv-x="403" 
d="M202 -6q-79 0 -126 57t-47 155q0 97 47 154.5t126 57.5t125.5 -57t46.5 -155q0 -97 -47 -154.5t-125 -57.5zM202 59q47 0 74.5 39t27.5 108q0 70 -28 109t-74 39q-49 0 -76 -39.5t-27 -108.5q0 -70 28 -108.5t75 -38.5z" />
    <glyph glyph-name="one.dnom" horiz-adv-x="264" 
d="M131 0v325l-79 -54l-34 53l128 88h54v-412h-69z" />
    <glyph glyph-name="two.dnom" horiz-adv-x="340" 
d="M26 0l-1 47l143 137q63 60 63 102q0 30 -19.5 48t-54.5 18q-51 0 -103 -43l-33 58q69 50 141 50q66 0 103.5 -33.5t37.5 -92.5q0 -68 -80 -139l-95 -87l1 -2h179v-63h-282z" />
    <glyph glyph-name="three.dnom" horiz-adv-x="347" 
d="M170 -6q-88 0 -147 43l32 59q48 -39 110 -39q82 0 82 63q0 66 -95 66h-29v54h36q40 0 61 17t21 41q0 26 -19 41t-56 15q-58 0 -101 -34l-31 56q66 41 138 41q61 0 98 -28.5t37 -79.5q0 -66 -64 -93v-2q75 -24 75 -103q0 -53 -37 -85t-111 -32z" />
    <glyph glyph-name="four.dnom" horiz-adv-x="362" 
d="M277 138h62v-60h-62v-78h-68v78h-197v45l211 289h54v-274zM82 133h136v186z" />
    <glyph glyph-name="five.dnom" horiz-adv-x="347" 
d="M184 263q61 0 99 -36t38 -96q0 -63 -41.5 -100t-117.5 -37q-81 0 -138 43l32 58q49 -39 104 -39q44 0 67 20.5t23 57.5t-23.5 56.5t-63.5 19.5q-45 0 -82 -23l-35 12l15 213h239v-62h-183l-10 -101q35 14 77 14z" />
    <glyph glyph-name="six.dnom" horiz-adv-x="358" 
d="M199 263q63 0 100 -35t37 -97q0 -60 -41 -99t-107 -39q-75 0 -117 53t-42 149q0 64 16 110t43.5 69t56 33t60.5 10q58 0 105 -20l-23 -59q-35 18 -82 18q-98 0 -109 -129q44 36 103 36zM188 55q36 0 59 21.5t23 55.5t-22 54t-59 20q-61 0 -93 -49q5 -50 29 -76t63 -26z
" />
    <glyph glyph-name="seven.dnom" horiz-adv-x="326" 
d="M64 0l159 348h-199v64h275v-47l-160 -365h-75z" />
    <glyph glyph-name="eight.dnom" horiz-adv-x="372" 
d="M186 -6q-74 0 -115.5 33t-41.5 87q0 38 22.5 67t55.5 39v2q-23 8 -41 31t-18 52q0 52 38.5 82t99.5 30q63 0 100 -30t37 -82q0 -29 -17.5 -52t-40.5 -31v-2q34 -10 56 -38.5t22 -67.5q0 -55 -42 -87.5t-115 -32.5zM186 245q33 0 53.5 15.5t20.5 41.5q0 24 -19.5 41
t-54.5 17q-34 0 -54 -17t-20 -41q0 -26 20.5 -41.5t53.5 -15.5zM186 54q39 0 63 19.5t24 49.5t-24 50t-63 19t-63 -20t-24 -49q0 -31 24 -50t63 -19z" />
    <glyph glyph-name="nine.dnom" horiz-adv-x="358" 
d="M170 417q75 0 117 -53t42 -149q0 -52 -11 -92t-28.5 -64t-41.5 -39.5t-47.5 -21t-48.5 -5.5q-62 0 -109 22l20 61q36 -21 88 -21q101 0 112 129q-43 -37 -105 -37t-99 34.5t-37 94.5q0 62 41 101.5t107 39.5zM169 204q61 0 94 50q-12 101 -93 101q-36 0 -58.5 -21.5
t-22.5 -56.5q0 -33 21.5 -53t58.5 -20z" />
    <glyph glyph-name="zero.numr" horiz-adv-x="403" 
d="M202 293q-79 0 -126 57t-47 155q0 97 47 154.5t126 57.5t125.5 -57t46.5 -155q0 -97 -47 -154.5t-125 -57.5zM202 358q47 0 74.5 39t27.5 108q0 70 -28 109t-74 39q-49 0 -76 -39.5t-27 -108.5q0 -70 28 -108.5t75 -38.5z" />
    <glyph glyph-name="one.numr" horiz-adv-x="264" 
d="M131 299v325l-79 -54l-34 53l128 88h54v-412h-69z" />
    <glyph glyph-name="two.numr" horiz-adv-x="340" 
d="M26 299l-1 47l143 137q63 60 63 102q0 30 -19.5 48t-54.5 18q-51 0 -103 -43l-33 58q69 50 141 50q66 0 103.5 -33.5t37.5 -92.5q0 -68 -80 -139l-95 -87l1 -2h179v-63h-282z" />
    <glyph glyph-name="three.numr" horiz-adv-x="347" 
d="M170 293q-88 0 -147 43l32 59q48 -39 110 -39q82 0 82 63q0 66 -95 66h-29v54h36q40 0 61 17t21 41q0 26 -19 41t-56 15q-58 0 -101 -34l-31 56q66 41 138 41q61 0 98 -28.5t37 -79.5q0 -66 -64 -93v-2q75 -24 75 -103q0 -53 -37 -85t-111 -32z" />
    <glyph glyph-name="four.numr" horiz-adv-x="362" 
d="M277 437h62v-60h-62v-78h-68v78h-197v45l211 289h54v-274zM82 432h136v186z" />
    <glyph glyph-name="five.numr" horiz-adv-x="347" 
d="M184 562q61 0 99 -36t38 -96q0 -63 -41.5 -100t-117.5 -37q-81 0 -138 43l32 58q49 -39 104 -39q44 0 67 20.5t23 57.5t-23.5 56.5t-63.5 19.5q-45 0 -82 -23l-35 12l15 213h239v-62h-183l-10 -101q35 14 77 14z" />
    <glyph glyph-name="six.numr" horiz-adv-x="358" 
d="M199 563q63 0 100 -35t37 -97q0 -60 -41 -99t-107 -39q-75 0 -117 53t-42 149q0 64 16 110t43.5 69t56 33t60.5 10q58 0 105 -20l-23 -59q-35 18 -82 18q-98 0 -109 -129q44 36 103 36zM188 355q36 0 59 21.5t23 55.5t-22 54t-59 20q-61 0 -93 -49q5 -50 29 -76t63 -26z
" />
    <glyph glyph-name="seven.numr" horiz-adv-x="326" 
d="M64 299l159 348h-199v64h275v-47l-160 -365h-75z" />
    <glyph glyph-name="eight.numr" horiz-adv-x="372" 
d="M186 293q-74 0 -115.5 33t-41.5 87q0 38 22.5 67t55.5 39v2q-23 8 -41 31t-18 52q0 52 38.5 82t99.5 30q63 0 100 -30t37 -82q0 -29 -17.5 -52t-40.5 -31v-2q34 -10 56 -38.5t22 -67.5q0 -55 -42 -87.5t-115 -32.5zM186 544q33 0 53.5 15.5t20.5 41.5q0 24 -19.5 41
t-54.5 17q-34 0 -54 -17t-20 -41q0 -26 20.5 -41.5t53.5 -15.5zM186 353q39 0 63 19.5t24 49.5t-24 50t-63 19t-63 -20t-24 -49q0 -31 24 -50t63 -19z" />
    <glyph glyph-name="nine.numr" horiz-adv-x="358" 
d="M170 716q75 0 117 -53t42 -149q0 -52 -11 -92t-28.5 -64t-41.5 -39.5t-47.5 -21t-48.5 -5.5q-62 0 -109 22l20 61q36 -21 88 -21q101 0 112 129q-43 -37 -105 -37t-99 34.5t-37 94.5q0 62 41 101.5t107 39.5zM169 503q61 0 94 50q-12 101 -93 101q-36 0 -58.5 -21.5
t-22.5 -56.5q0 -33 21.5 -53t58.5 -20z" />
    <glyph glyph-name="bullet.case" horiz-adv-x="432" 
d="M212 238q-43 0 -73 29.5t-30 72.5t30 72.5t73 29.5t73.5 -29.5t30.5 -72.5t-30.5 -72.5t-73.5 -29.5z" />
    <glyph glyph-name="exclamdown.case" horiz-adv-x="249" 
d="M125 743q25 0 42 -17t17 -42t-17 -42t-42 -17t-42.5 17t-17.5 42t17.5 42t42.5 17zM95 527h64l14 -527h-92z" />
    <glyph glyph-name="periodcentered.loclCAT.case" horiz-adv-x="222" 
d="M60 280q-25 0 -42.5 17t-17.5 42t17.5 42t42.5 17t42 -17t17 -42t-17 -42t-42 -17z" />
    <glyph glyph-name="questiondown.case" horiz-adv-x="450" 
d="M250 743q25 0 42.5 -17t17.5 -42t-17.5 -42t-42.5 -17t-42 17t-17 42t17 42t42 17zM289 529v-54q0 -29 -16.5 -59.5t-28 -43t-45.5 -48.5q-23 -24 -36 -41.5t-24.5 -44.5t-11.5 -54q0 -51 32.5 -80.5t80.5 -29.5q35 0 69 18.5t55 50.5l61 -57q-71 -93 -191 -93
q-84 0 -140.5 51t-56.5 136q0 54 24 96t66 84q6 6 21 20.5t21 21t17 18.5t15.5 20t9 18.5t4.5 20.5l2 50h72z" />
    <glyph glyph-name="uni2E18.case" horiz-adv-x="450" 
d="M248 625q-25 0 -42 17t-17 42t17 42t42 17t42.5 -17t17.5 -42t-17.5 -42t-42.5 -17zM365 143l60 -57q-69 -93 -191 -93q-84 0 -140.5 51t-56.5 136q0 55 23.5 96t66.5 84q6 6 25 24t25.5 25.5t17.5 21.5t15.5 25t4.5 23l2 50h67l14 -374h-92l7 178l-2 1l-2 -2
q-28 -30 -42 -46t-26.5 -42.5t-12.5 -53.5q0 -55 31.5 -85.5t80.5 -30.5q36 0 69.5 18t55.5 51z" />
    <glyph glyph-name="periodcentered.loclCAT" horiz-adv-x="131" 
d="M58 240q-25 0 -42.5 17t-17.5 42t17.5 42t42.5 17t42 -17t17 -42t-17 -42t-42 -17z" />
    <glyph glyph-name="colon.tf" horiz-adv-x="293" 
d="M145 375q-25 0 -42.5 17t-17.5 42t17.5 42t42.5 17t42 -17t17 -42t-17 -42t-42 -17zM145 -7q-25 0 -42.5 17t-17.5 42t17.5 42t42.5 17t42 -17t17 -42t-17 -42t-42 -17z" />
    <glyph glyph-name="comma.tf" horiz-adv-x="293" 
d="M86 -131l33 241h88l-61 -241h-60z" />
    <glyph glyph-name="numbersign.tf" horiz-adv-x="586" 
d="M104 -13l32 204h-110v62h120l24 161h-123v63h133l31 200h58l-31 -200h150l31 200h58l-31 -200h115l-1 -63h-124l-24 -161h126v-62h-136l-31 -204h-58l31 204h-149l-32 -204h-59zM204 253h150l25 161h-151z" />
    <glyph glyph-name="period.tf" horiz-adv-x="293" 
d="M145 -7q-25 0 -42.5 17t-17.5 42t17.5 42t42.5 17t42 -17t17 -42t-17 -42t-42 -17z" />
    <glyph glyph-name="braceleft.case" horiz-adv-x="305" 
d="M235 -98q-46 0 -77 30.5t-31 80.5v214q0 18 -1.5 27.5t-8.5 22t-24 18.5t-45 7v64q28 2 45 9t24 19.5t8.5 22t1.5 26.5v221q0 47 29.5 79t78.5 32h52v-57h-24q-31 0 -48 -20t-17 -48v-215q0 -44 -12.5 -67t-44.5 -32v-2q33 -9 45 -29.5t12 -70.5v-196q0 -41 15 -60
t50 -19h24v-57h-52z" />
    <glyph glyph-name="braceright.case" horiz-adv-x="305" 
d="M69 -98h-52v57h24q35 0 50 19t15 60v196q0 50 12 70.5t45 29.5v2q-32 9 -44.5 32t-12.5 67v215q0 28 -17 48t-48 20h-24v57h52q49 0 78.5 -32t29.5 -79v-221q0 -17 1.5 -26.5t8.5 -22t24 -19.5t45 -9v-64q-28 -1 -45 -7t-24 -18.5t-8.5 -22t-1.5 -27.5v-214
q0 -50 -31 -80.5t-77 -30.5z" />
    <glyph glyph-name="bracketleft.case" horiz-adv-x="284" 
d="M74 -101v874h195v-63h-123v-747h123v-64h-195z" />
    <glyph glyph-name="bracketright.case" horiz-adv-x="284" 
d="M210 -101h-195v64h123v747h-123v63h195v-874z" />
    <glyph glyph-name="parenleft.case" horiz-adv-x="271" 
d="M177 -103q-111 200 -111 444q0 257 115 445l62 -29q-102 -186 -102 -416q0 -215 99 -416z" />
    <glyph glyph-name="parenright.case" horiz-adv-x="272" 
d="M95 -103l-63 28q99 201 99 416q0 230 -102 416l62 29q115 -188 115 -445q0 -244 -111 -444z" />
    <glyph glyph-name="emdash.case" horiz-adv-x="1030" 
d="M47 285v73h934v-73h-934z" />
    <glyph glyph-name="endash.case" horiz-adv-x="563" 
d="M47 285v73h467v-73h-467z" />
    <glyph glyph-name="uni2015.case" horiz-adv-x="1183" 
d="M47 285v73h1087v-73h-1087z" />
    <glyph glyph-name="hyphen.case" horiz-adv-x="381" 
d="M47 291v76h285v-76h-285z" />
    <glyph glyph-name="hyphen.tf" horiz-adv-x="586" 
d="M56 239v75h469v-75h-469z" />
    <glyph glyph-name="guillemotleft.case" horiz-adv-x="476" 
d="M246 70h-81l-124 219l126 221h80l-125 -221zM423 70h-81l-124 219l125 221h81l-125 -221z" />
    <glyph glyph-name="guillemotright.case" horiz-adv-x="476" 
d="M53 70l124 219l-125 221h81l125 -221l-124 -219h-81zM230 70l124 219l-125 221h80l126 -221l-124 -219h-81z" />
    <glyph glyph-name="cent.tf" horiz-adv-x="586" 
d="M518 130q-61 -68 -171 -80v-103h-61v102q-100 9 -161.5 77t-61.5 171q0 102 61.5 170t161.5 78v106h61v-106q106 -10 169 -85l-55 -48q-56 61 -142 61q-77 0 -125 -49t-48 -126q0 -78 48 -127t125 -49q89 0 143 59z" />
    <glyph glyph-name="dollar.tf" horiz-adv-x="586" 
d="M523 181q0 -78 -52 -127.5t-144 -55.5v-121h-66v122q-123 8 -202 76l43 73q75 -72 202 -72q56 0 92 26.5t36 72.5q0 50 -34.5 75t-115.5 51q-41 13 -64.5 21.5t-55 25t-48.5 34t-29 45.5t-12 62q0 74 49.5 123t138.5 54v125h66v-127q107 -11 175 -64l-49 -68
q-74 54 -171 54q-53 0 -85.5 -24.5t-32.5 -67.5t34 -65t109 -47q46 -15 71 -24.5t57.5 -26.5t48 -35.5t27.5 -48t12 -66.5z" />
    <glyph glyph-name="dong.tf" horiz-adv-x="586" 
d="M271 -6q-103 0 -169.5 68t-66.5 178q0 109 66.5 181t169.5 72q110 0 166 -91l2 1v168h-127v57h127v108h81v-108h52v-57h-52v-571h-77v86l-2 1q-56 -93 -170 -93zM283 68q66 0 113 48.5t47 123.5t-45.5 126.5t-114.5 51.5q-72 0 -119 -49t-47 -129q0 -75 45.5 -123.5
t120.5 -48.5zM59 -147v75h462v-75h-462z" />
    <glyph glyph-name="Euro.tf" horiz-adv-x="586" 
d="M522 118l47 -64q-87 -60 -192 -60q-109 0 -192 62t-108 188h-65v60h57q-1 12 -1 37q0 27 1 40h-57v60h65q24 119 103 185t197 66q104 0 187 -58l-49 -63q-63 43 -138 43q-77 0 -132.5 -44.5t-76.5 -128.5h284v-60h-293q-2 -26 -2 -40q0 -25 1 -37h294v-60h-284
q21 -86 78.5 -128.5t130.5 -42.5q84 0 145 45z" />
    <glyph glyph-name="florin.tf" horiz-adv-x="586" 
d="M162 -125q-86 0 -133 41l29 58q38 -25 86 -25q78 0 85 101l21 348h-76l5 70h77l7 117q10 158 150 158q79 0 133 -41l-29 -58q-43 24 -87 24q-78 0 -85 -101l-5 -99h148l-4 -70h-150l-22 -365q-10 -158 -150 -158z" />
    <glyph glyph-name="uni20BA.tf" horiz-adv-x="586" 
d="M483 219l71 -28q-38 -104 -101 -147.5t-155 -43.5h-177v206l-67 -33l-24 54l91 45v72l-67 -33l-24 54l91 45v277h87v-234l185 91l23 -54l-208 -103v-72l185 92l23 -54l-208 -103v-178h80q78 0 122 34t73 113z" />
    <glyph glyph-name="peseta.tf" horiz-adv-x="586" 
d="M563 501v-60h-53q-18 -181 -236 -181h-103v-260h-86v441h-62v60h62v186h205q102 0 157 -49t63 -137h53zM171 610v-109h253q-8 54 -44 81.5t-94 27.5h-115zM279 334q130 0 145 107h-253v-107h108z" />
    <glyph glyph-name="uni20B1.tf" horiz-adv-x="586" 
d="M563 551v-55h-53q1 -8 1 -24t-1 -24h53v-54h-63q-40 -134 -226 -134h-103v-260h-86v394h-62v54h62v48h-62v55h62v136h205q172 0 211 -136h62zM295 610h-124v-63h244q-27 63 -120 63zM171 496v-48h257q1 7 1 21q0 19 -1 27h-257zM288 334q101 0 129 64h-246v-64h117z" />
    <glyph glyph-name="sterling.tf" horiz-adv-x="586" 
d="M46 0v79h79v248h-63v61h63v76q0 116 56 172t142 56q117 0 184 -94l-57 -55q-45 68 -117 68q-122 0 -122 -156v-67h168v-61h-167v-248h323v-79h-489z" />
    <glyph glyph-name="yen.tf" horiz-adv-x="586" 
d="M552 686l-181 -331h130v-60h-163l-1 -2v-70h164v-59h-164v-164h-88v164h-170v59h170v70l-1 2h-169v60h136l-181 332h101l157 -306h2l157 306z" />
    <glyph glyph-name="uni20B9.tf" horiz-adv-x="586" 
d="M529 621h-164v-1q45 -32 59 -89h105v-66h-99q-6 -89 -70.5 -136.5t-177.5 -49.5l305 -279h-114l-314 289v65h128q138 0 151 111h-279v66h275q-12 41 -47 65.5t-91 24.5h-137v66h470v-66z" />
    <glyph glyph-name="plus.case" horiz-adv-x="588" 
d="M257 91v196h-197v75h197v197h75v-197h196v-75h-196v-196h-75z" />
    <glyph glyph-name="plus.tf" horiz-adv-x="586" 
d="M254 43v196h-197v75h197v197h75v-197h196v-75h-196v-196h-75z" />
    <glyph glyph-name="multiply.tf" horiz-adv-x="586" 
d="M143 77l-53 51l149 149l-149 148l52 53l148 -149l149 149l53 -52l-149 -150l148 -148l-52 -51l-149 148z" />
    <glyph glyph-name="divide.tf" horiz-adv-x="586" 
d="M289 412q-25 0 -42 17t-17 41t17 41t42 17t42 -17t17 -41t-17 -41t-42 -17zM57 239v75h469v-75h-469zM289 18q-25 0 -42 17t-17 41t17 41t42 17t42 -17t17 -41t-17 -41t-42 -17z" />
    <glyph glyph-name="equal.tf" horiz-adv-x="586" 
d="M57 352v75h469v-75h-469zM57 126v75h469v-75h-469z" />
    <glyph glyph-name="notequal.tf" horiz-adv-x="586" 
d="M526 352h-172l-71 -151h243v-75h-278l-57 -123l-56 23l47 100h-125v75h160l70 151h-230v75h265l60 128l56 -23l-49 -105h137v-75z" />
    <glyph glyph-name="greater.tf" horiz-adv-x="586" 
d="M67 43v81l338 154l-338 154v82l449 -207v-60z" />
    <glyph glyph-name="less.tf" horiz-adv-x="586" 
d="M519 43l-449 204v60l449 207v-82l-338 -154l338 -154v-81z" />
    <glyph glyph-name="greaterequal.tf" horiz-adv-x="586" 
d="M67 150v81l338 154l-338 154v82l449 -207v-60zM65 0v75h453v-75h-453z" />
    <glyph glyph-name="lessequal.tf" horiz-adv-x="586" 
d="M513 150l-449 204v60l449 207v-82l-338 -154l338 -154v-81zM515 0h-453v75h453v-75z" />
    <glyph glyph-name="approxequal.tf" horiz-adv-x="586" 
d="M404 323q-34 0 -100.5 24t-105.5 24q-62 0 -119 -38l-23 57q19 18 56.5 36.5t79.5 18.5q44 0 108 -24.5t98 -24.5q52 0 104 46l25 -58q-57 -61 -123 -61zM404 105q-34 0 -100.5 24t-105.5 24q-64 0 -119 -39l-23 57q18 18 55.5 37t80.5 19q44 -1 107.5 -25.5t98.5 -24.5
q53 0 104 47l25 -59q-58 -60 -123 -60z" />
    <glyph glyph-name="uni2236.tf" horiz-adv-x="293" 
d="M147 435q-25 0 -42.5 17t-17.5 42t17.5 42t42.5 17t42 -17t17 -42t-17 -42t-42 -17zM147 53q-25 0 -42.5 17t-17.5 42t17.5 42t42.5 17t42 -17t17 -42t-17 -42t-42 -17z" />
    <glyph glyph-name="at.case" horiz-adv-x="900" 
d="M422 -68q-162 0 -266 104t-104 271q0 55 14 111t47 112.5t81 99.5t124 70.5t169 27.5q165 0 267 -100.5t102 -259.5q0 -38 -10 -79t-32 -82t-64 -67t-98 -26q-67 0 -84 53q-11 19 -14 42h-2q-22 -40 -61 -62t-87 -22q-75 0 -123.5 52.5t-48.5 137.5q0 36 11.5 73.5
t34 73.5t63 58.5t91.5 22.5q94 0 135 -86h1l9 80h82l-27 -270q-1 -12 -1 -29q0 -34 10.5 -46t32.5 -12q54 0 85.5 62t31.5 125q0 131 -85 216t-220 85q-92 0 -165 -32.5t-116 -85.5t-65.5 -115.5t-22.5 -128.5q0 -130 84 -221t221 -91q114 0 207 52l29 -47q-94 -67 -236 -67
zM427 199q62 0 99 46.5t37 102.5q0 52 -30 86t-78 34q-64 0 -102.5 -43t-38.5 -102q0 -54 32 -89t81 -35z" />
    <glyph glyph-name="degree.tf" horiz-adv-x="586" 
d="M208 445q-56 0 -97 40t-41 95q0 56 41.5 96.5t96.5 40.5q56 0 97.5 -40.5t41.5 -97.5q0 -55 -41 -94.5t-98 -39.5zM208 501q34 0 57.5 23t23.5 56t-24.5 57t-56.5 24t-56 -24t-24 -57t23.5 -56t56.5 -23z" />
    <glyph glyph-name="caroncomb.alt" 
d="M-207 588l29 184h80l-49 -184h-60z" />
    <glyph glyph-name="uni0308.case" 
d="M-344 543q-25 0 -41.5 17t-16.5 41q0 23 16.5 39.5t41.5 16.5q24 0 41 -17t17 -40t-17 -40t-41 -17zM-163 543q-24 0 -41 17t-17 41q0 23 17 39.5t41 16.5t41 -17t17 -40t-17 -40t-41 -17z" />
    <glyph glyph-name="uni0307.case" 
d="M-246 542q-25 0 -42 17t-17 41t17 41t42 17t42 -17t17 -41t-17 -41t-42 -17z" />
    <glyph glyph-name="gravecomb.case" 
d="M-487 532l-122 129h92l112 -129h-82z" />
    <glyph glyph-name="acutecomb.case" 
d="M-590 532l112 129h93l-122 -129h-83z" />
    <glyph glyph-name="uni030B.case" 
d="M-624 531l118 141l85 1l-124 -142h-79zM-456 531l117 141l85 1l-124 -142h-78z" />
    <glyph glyph-name="uni0302.case" 
d="M-658 532l116 124h85l113 -124h-81l-74 78h-2l-74 -78h-83z" />
    <glyph glyph-name="uni030C.case" 
d="M-545 532l-113 124h82l73 -78h2l75 78h82l-116 -124h-85z" />
    <glyph glyph-name="uni0306.case" 
d="M-500 526q-62 0 -100.5 35.5t-43.5 94.5h65q2 -28 23 -47.5t56 -19.5t56 19.5t23 47.5h65q-5 -59 -43.5 -94.5t-100.5 -35.5z" />
    <glyph glyph-name="uni030A.case" 
d="M-501 510q-39 0 -67 27.5t-28 66.5t27.5 66.5t67.5 27.5q41 0 69 -27t28 -67q0 -38 -28 -66t-69 -28zM-501 563q19 0 31.5 12.5t12.5 29.5t-12.5 29.5t-31.5 12.5q-17 0 -29.5 -12.5t-12.5 -29.5q0 -18 12.5 -30t29.5 -12z" />
    <glyph glyph-name="tildecomb.case" 
d="M-422 532q-35 0 -85 33q-41 25 -63 25q-35 0 -58 -55l-52 22q32 94 104 94q36 0 85 -30q4 -2 12.5 -7.5t13 -8t12 -6t13.5 -5t13 -1.5q34 0 54 55l52 -17q-30 -99 -101 -99z" />
    <glyph glyph-name="uni0304.case" 
d="M-644 559v67h288v-67h-288z" />
    <glyph glyph-name="hookabovecomb.case" 
d="M-532 528q4 3 16 11.5t16.5 11.5t14 10.5t13.5 12t9.5 11t7.5 12t2 11.5q0 28 -40 28q-44 0 -89 -32l-20 47q53 40 127 40q40 0 64.5 -18.5t24.5 -55.5q0 -22 -15 -41t-29 -28t-36 -20h-66z" />
    <glyph glyph-name="dieresis.short" horiz-adv-x="509" 
d="M172 560q-25 0 -42 17t-17 41t17 41t42 17t42 -17t17 -41t-17 -41t-42 -17zM338 561q-24 0 -41 17t-17 40t17 40t41 17t41.5 -17t17.5 -40t-17.5 -40t-41.5 -17z" />
    <glyph glyph-name="tilde.short" horiz-adv-x="506" 
d="M132 552l-52 23q31 94 100 94q35 0 76 -26q46 -29 63 -29q39 0 58 56l52 -18q-29 -100 -101 -100q-33 0 -83 32q-38 25 -59 24q-34 -3 -54 -56z" />
    <glyph glyph-name="uni03060301" 
d="M-539 687l97 142h91l-123 -142h-65zM-500 536q-63 0 -101.5 37.5t-42.5 104.5h65q2 -33 23 -55.5t56 -22.5t56 22.5t23 55.5h65q-4 -67 -42.5 -104.5t-101.5 -37.5z" />
    <glyph glyph-name="uni03060300" 
d="M-522 687l-124 142h92l97 -142h-65zM-500 536q-63 0 -101.5 37.5t-42.5 104.5h65q2 -33 23 -55.5t56 -22.5t56 22.5t23 55.5h65q-4 -67 -42.5 -104.5t-101.5 -37.5z" />
    <glyph glyph-name="uni03060309" 
d="M-538 673q78 56 77 89q0 27 -38 27q-46 0 -84 -31l-19 45q48 42 120 42q38 0 62 -18.5t24 -55.5q0 -31 -25 -57t-54 -41h-63zM-500 537q-65 0 -104.5 36t-43.5 100h67q2 -31 24 -53t57 -22q36 0 57.5 21.5t23.5 53.5h67q-4 -64 -43.5 -100t-104.5 -36z" />
    <glyph glyph-name="uni03060303" 
d="M-622 724l-52 23q31 94 100 94q35 0 76 -26q46 -29 63 -29q39 0 58 56l52 -18q-29 -100 -101 -100q-33 0 -83 32q-38 25 -59 24q-34 -3 -54 -56zM-501 536q-63 0 -101.5 37.5t-42.5 104.5h65q2 -33 23 -55.5t56 -22.5t56 22.5t23 55.5h65q-4 -67 -42.5 -104.5
t-101.5 -37.5z" />
    <glyph glyph-name="uni03020301" 
d="M-377 627l96 142h92l-124 -142h-64zM-655 540l115 140h85l111 -140h-81l-72 89h-2l-73 -89h-83z" />
    <glyph glyph-name="uni03020300" 
d="M-336 627l-123 142h91l97 -142h-65zM-656 541l115 140h85l111 -140h-81l-72 89h-2l-73 -89h-83z" />
    <glyph glyph-name="uni03020309" 
d="M-362 632q78 56 77 89q0 27 -38 27q-46 0 -84 -31l-19 45q48 42 120 42q38 0 62 -18.5t24 -55.5q0 -31 -25 -57t-54 -41h-63zM-656 540l115 140h85l111 -140h-81l-72 89h-2l-73 -89h-83z" />
    <glyph glyph-name="uni03020303" 
d="M-621 732l-52 23q31 94 100 94q35 0 76 -26q46 -29 63 -29q39 0 58 56l52 -18q-29 -100 -101 -100q-33 0 -83 32q-38 25 -59 24q-34 -3 -54 -56zM-655 540l115 140h85l111 -140h-81l-72 89h-2l-73 -89h-83z" />
    <glyph glyph-name="uni03060301.case" 
d="M-532 642l96 135h91l-123 -135h-64zM-500 523q-66 0 -107 32.5t-46 86.5h69q2 -26 24 -43.5t60 -17.5q37 0 59.5 18t24.5 43h69q-5 -54 -46 -86.5t-107 -32.5z" />
    <glyph glyph-name="uni03060300.case" 
d="M-545 642l-123 135h92l96 -135h-65zM-520 523q-66 0 -107 32.5t-46 86.5h69q2 -26 24 -43.5t60 -17.5q37 0 59.5 18t24.5 43h69q-5 -54 -46 -86.5t-107 -32.5z" />
    <glyph glyph-name="uni03060309.case" 
d="M-561 640q3 2 11 7.5t11.5 8.5t10.5 8t10.5 8t9 7.5t8 8t5.5 8t4 8.5t1 8q0 25 -36 25q-39 0 -80 -28l-18 42q50 36 114 36q36 0 58.5 -17t22.5 -50q0 -15 -6.5 -27.5t-20.5 -23.5t-21 -15.5t-24 -13.5h-60zM-520 523q-66 0 -107 32.5t-46 86.5h69q2 -26 24 -43.5
t60 -17.5q37 0 59.5 18t24.5 43h69q-5 -54 -46 -86.5t-107 -32.5z" />
    <glyph glyph-name="uni03060303.case" 
d="M-424 663q-34 0 -82 31q-41 24 -60 24q-35 0 -56 -53l-50 21q30 90 100 90q35 0 82 -28q2 -1 11.5 -7.5t13 -8t11 -5.5t13.5 -5t12 -1q34 0 52 52l50 -16q-28 -94 -97 -94zM-500 523q-66 0 -107 32.5t-46 86.5h69q2 -26 24 -43.5t60 -17.5q37 0 59.5 18t24.5 43h69
q-5 -54 -46 -86.5t-107 -32.5z" />
    <glyph glyph-name="uni03020301.case" 
d="M-356 589l96 135h91l-123 -135h-64zM-658 532l116 124h85l113 -124h-81l-74 78h-2l-74 -78h-83z" />
    <glyph glyph-name="uni03020300.case" 
d="M-312 588l-123 135h91l97 -135h-65zM-658 532l116 124h85l113 -124h-81l-74 78h-2l-74 -78h-83z" />
    <glyph glyph-name="uni03020309.case" 
d="M-353 595q4 3 11.5 8.5t11.5 8t11 7.5t10.5 8.5t9 8t8 8.5t5.5 8t4 8.5t1 8.5q0 25 -37 25q-38 0 -81 -29l-19 43q50 36 117 36q36 0 59 -17t23 -50q0 -44 -74 -82h-60zM-658 532l116 124h85l113 -124h-81l-74 78h-2l-74 -78h-83z" />
    <glyph glyph-name="uni03020303.case" 
d="M-423 678q-34 0 -82 31q-41 24 -60 24q-35 0 -56 -53l-50 21q30 90 100 90q35 0 82 -28q2 -1 11.5 -7.5t13 -8t11 -5.5t13.5 -5t12 -1q34 0 52 52l50 -16q-28 -94 -97 -94zM-658 532l116 124h85l113 -124h-81l-74 78h-2l-74 -78h-83z" />
    <glyph glyph-name="_slashshortcomb.case" horiz-adv-x="572" 
d="M22 247v73l286 124v-74z" />
    <glyph glyph-name="NULL" 
 />
    <glyph glyph-name="KB" horiz-adv-x="921" 
d="M471 -1q-94 0 -160 36.5t-94 94.5l21 9q71 -94 201 -94q53 0 87 25t34 76q0 43 -43 86t-118 71q-14 -51 -19 -74q42 -7 71 -17l-5 -36h-248l-1 34q49 34 98 50l73 382l-65 19l-2 30q47 29 118 29l69 -35l-63 -194l-66 -189l10 -2q36 132 91 188t130 56q56 0 89 -24
t33 -74q0 -60 -49 -98t-146 -38q-37 0 -69 4v-9q51 -6 86.5 -13.5t79.5 -24t67.5 -45.5t23.5 -69q0 -67 -61.5 -110.5t-172.5 -43.5zM408 330q90 3 131.5 40.5t41.5 83.5q0 21 -11 35.5t-30 14.5q-26 0 -63.5 -42.5t-68.5 -131.5z" />
    </font>
</defs>
</svg>
