<?xml version="1.0" standalone="no"?>
<!DOCTYPE svg PUBLIC "-//W3C//DTD SVG 1.1//EN" "http://www.w3.org/Graphics/SVG/1.1/DTD/svg11.dtd" >
<svg xmlns="http://www.w3.org/2000/svg" xmlns:xlink="http://www.w3.org/1999/xlink" version="1.1">
<metadata>
Created by FontForge 20190801 at Mon Sep 18 11:15:49 2017
 By www-data
Copyright (c) 2017 by Kostas Bartsokas. All rights reserved.
</metadata>
<defs>
<font id="CWCRegularItalic" horiz-adv-x="586" >
  <font-face 
    font-family="CWCRegularItalic"
    font-weight="400"
    font-style="italic"
    font-stretch="normal"
    units-per-em="1000"
    panose-1="0 0 5 0 0 0 0 0 0 0"
    ascent="800"
    descent="-200"
    x-height="487"
    cap-height="710"
    bbox="-688.044 -349 1273 1039"
    underline-thickness="38"
    underline-position="-83"
    slope="-7"
    unicode-range="U+000D-1F10C"
  />
<missing-glyph horiz-adv-x="401" 
 />
    <glyph glyph-name=".notdef" horiz-adv-x="401" 
 />
    <glyph glyph-name=".null" horiz-adv-x="0" 
 />
    <glyph glyph-name="nonmarkingreturn" horiz-adv-x="333" 
 />
    <glyph glyph-name="CR" unicode="&#xd;" horiz-adv-x="0" 
 />
    <glyph glyph-name="space" unicode=" " horiz-adv-x="223" 
 />
    <glyph glyph-name="exclam" unicode="!" horiz-adv-x="253" 
d="M101 208l50 528h88l-79 -528h-59zM115 -7q-24 0 -39.5 16t-15.5 40q0 25 16.5 42t41.5 17q24 0 40 -16t16 -40q0 -26 -17 -42.5t-42 -16.5z" />
    <glyph glyph-name="quotedbl" unicode="&#x22;" horiz-adv-x="334" 
d="M70 470l59 240h86l-81 -240h-64zM205 470l58 240h86l-80 -240h-64z" />
    <glyph glyph-name="numbersign" unicode="#" horiz-adv-x="584" 
d="M86 -35l53 205h-104l7 61h114l42 162h-115l7 62h125l51 201h58l-51 -201h142l52 201h58l-52 -201h108l-7 -62h-119l-40 -162h118l-8 -61h-129l-52 -205h-58l53 205h-142l-53 -205h-58zM214 231h143l41 162h-143z" />
    <glyph glyph-name="dollar" unicode="$" horiz-adv-x="532" 
d="M300 380q10 -6 31.5 -18t32 -18.5t29 -18.5t28 -21t22 -23t18.5 -27.5t10.5 -31t4.5 -37.5q0 -85 -58 -136.5t-148 -54.5l-14 -117h-61l14 121q-119 16 -178 101l56 61q28 -40 77 -64t99 -24q55 0 90.5 30.5t35.5 75.5q0 12 -3 22.5t-10.5 20.5t-13.5 16.5t-20 16t-22 14
t-28 16t-29 16.5q-84 47 -111 73q-51 48 -51 114q0 75 52.5 124.5t133.5 55.5l15 124h61l-15 -126q107 -14 165 -83l-59 -58q-27 35 -69 51t-79 16q-52 0 -85 -27t-32 -68q0 -26 17 -47.5t33.5 -32t60.5 -36.5z" />
    <glyph glyph-name="percent" unicode="%" horiz-adv-x="856" 
d="M182 -1l-51 41l572 658l51 -42zM227 338q-70 0 -115.5 42.5t-45.5 111.5q0 83 58.5 142.5t144.5 59.5q69 0 115 -42.5t46 -111.5q0 -82 -58.5 -142t-144.5 -60zM235 401q53 0 90 38t37 91q0 44 -28.5 72t-72.5 28q-52 0 -88 -38t-36 -93q0 -43 27.5 -70.5t70.5 -27.5z
M610 -7q-70 0 -115.5 42.5t-45.5 111.5q0 83 58.5 142.5t144.5 59.5q69 0 115 -42.5t46 -111.5q0 -82 -58.5 -142t-144.5 -60zM618 57q52 0 89.5 37.5t37.5 90.5q0 44 -28.5 72t-72.5 28q-52 0 -88.5 -38t-36.5 -93q0 -43 27.5 -70t71.5 -27z" />
    <glyph glyph-name="ampersand" unicode="&#x26;" horiz-adv-x="733" 
d="M243 -6q-91 0 -144 49.5t-53 133.5q0 72 39.5 133t107.5 91q-57 41 -57 119q0 85 58.5 141t149.5 56q54 0 100 -19.5t71 -57.5l-61 -54q-36 58 -111 58q-55 0 -90 -34.5t-35 -87.5q0 -38 20.5 -63.5t57.5 -25.5h431l-9 -72h-161q-16 -163 -96.5 -265t-217.5 -102zM250 70
q94 0 156 83.5t74 207.5h-180q-70 0 -119 -55.5t-49 -123.5q0 -51 30.5 -81.5t87.5 -30.5z" />
    <glyph glyph-name="quotesingle" unicode="'" horiz-adv-x="198" 
d="M70 470l59 240h86l-81 -240h-64z" />
    <glyph glyph-name="parenleft" unicode="(" horiz-adv-x="277" 
d="M118 -149q-55 144 -55 311q0 155 44 307.5t125 269.5l56 -26q-72 -115 -111 -256.5t-39 -283.5q0 -150 47 -291z" />
    <glyph glyph-name="parenright" unicode=")" horiz-adv-x="277" 
d="M61 -146l-57 25q147 252 147 540q0 162 -47 292l64 31q59 -129 59 -314q0 -314 -166 -574z" />
    <glyph glyph-name="asterisk" unicode="*" horiz-adv-x="390" 
d="M186 394l19 119l-94 -64l-22 48l98 54l-86 57l33 46l80 -63l12 119h53l-19 -119l95 63l22 -46l-98 -56l85 -55l-32 -47l-80 63l-12 -119h-54z" />
    <glyph glyph-name="plus" unicode="+" horiz-adv-x="544" 
d="M210 43l24 197h-174l9 73h175l23 198h75l-25 -198h174l-9 -73h-174l-24 -197h-74z" />
    <glyph glyph-name="comma" unicode="," horiz-adv-x="213" 
d="M-12 -131l58 241h86l-85 -241h-59z" />
    <glyph glyph-name="hyphen" unicode="-" horiz-adv-x="387" 
d="M63 269l9 78h268l-9 -78h-268z" />
    <glyph glyph-name="period" unicode="." horiz-adv-x="243" 
d="M96 -7q-24 0 -39.5 16t-15.5 40q0 25 16.5 42t41.5 17q24 0 40 -16t16 -40q0 -26 -16.5 -42.5t-42.5 -16.5z" />
    <glyph glyph-name="slash" unicode="/" horiz-adv-x="363" 
d="M-15 -113l-56 30l450 853l55 -31z" />
    <glyph glyph-name="zero" unicode="0" 
d="M264 -6q-91 0 -144.5 67t-53.5 196q0 112 30.5 209t97 162t156.5 65q91 0 143 -67t52 -196q0 -84 -18 -161t-52 -139t-88.5 -99t-122.5 -37zM265 71q50 0 88.5 32.5t61.5 86.5t34.5 116t11.5 128q0 182 -116 182q-65 0 -111 -58t-65.5 -137.5t-19.5 -167.5
q0 -89 31.5 -135.5t84.5 -46.5z" />
    <glyph glyph-name="one" unicode="1" horiz-adv-x="364" 
d="M253 687h67l-84 -687h-83l71 575l-125 -94l-40 64z" />
    <glyph glyph-name="two" unicode="2" horiz-adv-x="494" 
d="M11 0l5 57l237 233q131 129 131 226q0 44 -25 71.5t-77 27.5q-79 0 -159 -75l-45 62q95 91 210 91q82 0 131 -46t49 -125q0 -131 -146 -272l-181 -172v-2h283l-10 -76h-403z" />
    <glyph glyph-name="three" unicode="3" horiz-adv-x="505" 
d="M209 -6q-131 0 -203 83l50 64q55 -70 154 -70q70 0 111 41.5t41 109.5q0 98 -111 98h-69l8 71h65q60 0 96 41.5t36 96.5q0 41 -26.5 64t-75.5 23q-79 0 -152 -64l-47 60q88 81 206 81q81 0 129.5 -40t48.5 -114q0 -62 -29.5 -109.5t-81.5 -71.5v-1q87 -38 87 -145
q0 -98 -65.5 -158t-171.5 -60z" />
    <glyph glyph-name="four" unicode="4" horiz-adv-x="527" 
d="M398 219h92l-9 -75h-93l-18 -144h-81l17 144h-290l7 59l366 484h65zM116 213h204l40 324z" />
    <glyph glyph-name="five" unicode="5" horiz-adv-x="517" 
d="M483 611h-268l-33 -194q60 19 111 19q81 0 127 -47.5t46 -138.5q0 -115 -68.5 -185.5t-178.5 -70.5q-59 0 -112 21.5t-88 61.5l50 64q55 -70 151 -70q74 0 118 49.5t44 124.5q0 119 -122 119q-68 0 -126 -40l-45 21l61 342h343z" />
    <glyph glyph-name="six" unicode="6" horiz-adv-x="556" 
d="M334 434q78 0 126 -47.5t48 -137.5q0 -108 -67 -181.5t-174 -73.5q-96 0 -150 66.5t-54 191.5q0 84 18.5 160t55 140.5t99 102.5t142.5 38q89 0 136 -25l-39 -74q-44 23 -98 23q-96 0 -153.5 -73.5t-73.5 -194.5v-2l5 -2q78 89 179 89zM271 71q66 0 109.5 50t43.5 124
q0 113 -108 113q-48 0 -94.5 -26t-77.5 -75q1 -87 32 -136.5t95 -49.5z" />
    <glyph glyph-name="seven" unicode="7" horiz-adv-x="472" 
d="M72 0l308 611h-307l10 76h400l-6 -58l-313 -629h-92z" />
    <glyph glyph-name="eight" unicode="8" horiz-adv-x="538" 
d="M242 -6q-96 0 -149.5 44.5t-53.5 127.5q0 74 40.5 129t102.5 75v2q-33 15 -55 48.5t-22 83.5q0 86 61 137.5t154 51.5q83 0 130 -41t48 -112q0 -64 -34.5 -109t-76.5 -60l-1 -2q46 -16 73 -55t27 -97q0 -102 -67.5 -162.5t-176.5 -60.5zM290 404q54 0 91 34t37 87
q0 44 -28.5 68.5t-75.5 24.5q-56 1 -92.5 -32.5t-36.5 -85.5q0 -44 29 -70t76 -26zM250 68q69 0 110.5 40t41.5 104q0 55 -32.5 86.5t-92.5 31.5q-68 0 -111 -42t-43 -106q0 -53 33 -83.5t94 -30.5z" />
    <glyph glyph-name="nine" unicode="9" horiz-adv-x="554" 
d="M309 693q96 0 150.5 -66.5t54.5 -191.5q0 -66 -11 -128.5t-36 -119.5t-61 -99.5t-89.5 -68t-117.5 -25.5q-91 0 -141 31l39 73q48 -28 103 -28q96 0 154 73.5t73 194.5v2l-4 3q-81 -90 -180 -90q-79 0 -127 47.5t-48 137.5q0 108 67 181.5t174 73.5zM261 329
q47 0 93 25.5t78 73.5q0 88 -31 138t-95 50q-66 0 -110 -50t-44 -124q0 -55 28 -84t81 -29z" />
    <glyph glyph-name="colon" unicode=":" horiz-adv-x="244" 
d="M148 378q-24 0 -39.5 16t-15.5 40q0 25 16.5 42t41.5 17q24 0 40 -16t16 -40q0 -25 -16.5 -42t-42.5 -17zM100 -7q-24 0 -39.5 16t-15.5 40q0 25 16.5 42t41.5 17q24 0 40 -16t16 -40q0 -26 -16.5 -42.5t-42.5 -16.5z" />
    <glyph glyph-name="semicolon" unicode=";" horiz-adv-x="228" 
d="M140 378q-24 0 -39.5 16t-15.5 40q0 25 16.5 42t41.5 17q24 0 40 -16t16 -40q0 -25 -16.5 -42t-42.5 -17zM-2 -131l58 241h86l-85 -241h-59z" />
    <glyph glyph-name="less" unicode="&#x3c;" horiz-adv-x="539" 
d="M442 43l-382 204l7 60l432 206l-9 -80l-316 -155l277 -155z" />
    <glyph glyph-name="equal" unicode="=" horiz-adv-x="549" 
d="M95 353l9 73h423l-9 -73h-423zM66 127l9 73h423l-9 -73h-423z" />
    <glyph glyph-name="greater" unicode="&#x3e;" horiz-adv-x="539" 
d="M49 43l9 80l316 155l-277 155l9 80l382 -206l-6 -60z" />
    <glyph glyph-name="question" unicode="?" horiz-adv-x="421" 
d="M143 207l6 52q2 13 5 24.5t10.5 24t11 19.5t16.5 22t16 19t20 21.5t20 20.5q42 45 62.5 80t20.5 80t-23 69t-63 24q-70 0 -118 -67l-53 53q34 45 85 69.5t107 24.5q67 0 111.5 -41.5t44.5 -116.5q0 -60 -29 -108.5t-79 -97.5q-32 -31 -43.5 -43t-27 -35t-18.5 -43l-9 -51
h-73zM166 -7q-24 0 -39.5 16t-15.5 40q0 25 16.5 42t41.5 17q24 0 40 -16t16 -40q0 -26 -16.5 -42.5t-42.5 -16.5z" />
    <glyph glyph-name="at" unicode="@" horiz-adv-x="903" 
d="M412 -140q-157 0 -258 100.5t-101 266.5q0 55 14.5 111.5t48 114t82.5 102.5t125.5 73t169.5 28q164 0 263.5 -99t99.5 -258q0 -40 -10 -81t-31 -82.5t-61.5 -67.5t-94.5 -26q-75 0 -97 70q-11 17 -16 40h-2q-27 -45 -68.5 -71.5t-91.5 -26.5q-64 0 -104 43.5t-40 122.5
q0 105 60 177.5t154 72.5q79 0 119 -42l3 1l4 36h80l-27 -222q-7 -50 -7 -64q-2 -72 54 -72q53 0 83 63t30 128q0 132 -82.5 215.5t-217.5 83.5q-77 0 -141.5 -23t-107 -60.5t-72.5 -86.5t-43 -99.5t-13 -100.5q0 -137 85 -221.5t211 -84.5q120 0 217 52l29 -46
q-106 -67 -246 -67zM406 127q52 0 98.5 52.5t55.5 126.5l8 52q-41 38 -104 38t-102.5 -51t-39.5 -118q0 -49 22.5 -74.5t61.5 -25.5z" />
    <glyph glyph-name="A" unicode="A" horiz-adv-x="628" 
d="M-2 0l328 710h90l155 -710h-89l-36 174h-281l-78 -174h-89zM198 249h233l-73 354h-2z" />
    <glyph glyph-name="B" unicode="B" horiz-adv-x="605" 
d="M66 0l87 710h220q181 0 181 -146q0 -57 -32 -109.5t-89 -76.5v-1q112 -31 112 -146q0 -111 -70 -171t-195 -60h-214zM201 405h126q62 0 101 39t39 105q0 44 -27.5 64t-86.5 20h-124zM161 77h121q81 0 128 40t47 116q0 97 -130 97h-135z" />
    <glyph glyph-name="C" unicode="C" horiz-adv-x="678" 
d="M355 -6q-128 0 -205.5 78t-77.5 220q0 175 103 300t262 125q162 0 244 -137l-69 -57q-66 112 -179 112q-118 0 -195 -101.5t-77 -234.5q0 -107 52 -165.5t146 -58.5q105 0 197 87l52 -65q-105 -103 -253 -103z" />
    <glyph glyph-name="D" unicode="D" horiz-adv-x="687" 
d="M66 0l87 710h200q140 0 214.5 -77t74.5 -214q0 -188 -103 -303.5t-274 -115.5h-199zM161 77h111q126 0 203.5 96t77.5 245q0 100 -53.5 157.5t-152.5 57.5h-117z" />
    <glyph glyph-name="E" unicode="E" 
d="M66 0l87 710h424l-10 -77h-338l-30 -241h309l-9 -77h-309l-29 -238h352l-9 -77h-438z" />
    <glyph glyph-name="F" unicode="F" horiz-adv-x="563" 
d="M66 0l87 710h425l-9 -77h-340l-31 -252h300l-10 -78h-300l-36 -303h-86z" />
    <glyph glyph-name="G" unicode="G" horiz-adv-x="718" 
d="M360 -6q-132 0 -210 78t-78 220q0 176 103.5 300.5t263.5 124.5q158 0 241 -122l-69 -57q-65 97 -179 97q-79 0 -142 -49t-96 -125.5t-33 -161.5q0 -108 52.5 -167.5t149.5 -59.5q104 0 180 56l21 160h-180l11 77h264l-35 -285q-47 -40 -119.5 -63t-144.5 -23z" />
    <glyph glyph-name="H" unicode="H" horiz-adv-x="689" 
d="M66 0l87 710h86l-41 -334h327l41 334h85l-87 -710h-86l37 299h-327l-36 -299h-86z" />
    <glyph glyph-name="I" unicode="I" horiz-adv-x="289" 
d="M72 0l87 710h85l-87 -710h-85z" />
    <glyph glyph-name="J" unicode="J" horiz-adv-x="507" 
d="M201 -6q-132 0 -194 94l55 66q53 -79 137 -79q119 0 139 169l57 466h86l-58 -470q-30 -246 -222 -246z" />
    <glyph glyph-name="K" unicode="K" horiz-adv-x="628" 
d="M647 710l-279 -316q66 -74 120.5 -180t81.5 -214h-89q-26 95 -73 185.5t-102 150.5l-130 -138l-24 -198h-86l87 710h86l-49 -394h2l349 394h106z" />
    <glyph glyph-name="L" unicode="L" horiz-adv-x="556" 
d="M66 0l87 710h86l-78 -633h339l-9 -77h-425z" />
    <glyph glyph-name="M" unicode="M" horiz-adv-x="826" 
d="M66 0l87 710h87l174 -459h3l285 459h85l-87 -710h-85l64 531l-3 1l-244 -389h-60l-152 401l-2 -1l-66 -543h-86z" />
    <glyph glyph-name="N" unicode="N" horiz-adv-x="726" 
d="M66 0l87 710h85l292 -565l3 1l69 564h85l-88 -710h-83l-293 560h-3l-68 -560h-86z" />
    <glyph glyph-name="O" unicode="O" horiz-adv-x="764" 
d="M352 -6q-128 0 -204.5 79t-76.5 218q0 112 45 209t130 157t192 60q128 0 205.5 -79t77.5 -218q0 -178 -101.5 -302t-267.5 -124zM358 74q79 0 143 48.5t97.5 126.5t33.5 168q0 108 -53.5 164t-149.5 56q-116 0 -192.5 -103.5t-76.5 -240.5q0 -106 53 -162.5t145 -56.5z
" />
    <glyph glyph-name="P" unicode="P" horiz-adv-x="583" 
d="M66 0l87 710h229q188 0 188 -182q0 -119 -69.5 -187.5t-196.5 -68.5h-119l-33 -272h-86zM194 350h121q78 0 122 46.5t44 131.5q0 50 -32 77.5t-85 27.5h-135z" />
    <glyph glyph-name="Q" unicode="Q" horiz-adv-x="782" 
d="M722 420q0 -175 -96 -296l70 -77l-56 -61l-72 81q-90 -73 -214 -73q-128 0 -205 79t-77 218q0 112 45 208.5t130 156.5t193 60q128 0 205 -78.5t77 -217.5zM360 74q85 0 152 56l-67 75l54 58l67 -74q67 97 67 228q0 107 -53.5 163t-149.5 56q-116 0 -192.5 -103
t-76.5 -240q0 -106 53 -162.5t146 -56.5z" />
    <glyph glyph-name="R" unicode="R" horiz-adv-x="614" 
d="M573 528q0 -95 -46.5 -158.5t-134.5 -84.5q104 -125 148 -285h-92q-49 160 -152 272h-111l-33 -272h-86l87 710h233q187 0 187 -182zM194 350h125q76 0 120.5 47.5t44.5 130.5q0 50 -32 77.5t-85 27.5h-138z" />
    <glyph glyph-name="S" unicode="S" horiz-adv-x="558" 
d="M265 -6q-163 0 -239 106l57 64q30 -42 78.5 -66.5t104.5 -24.5q64 0 103 33t39 85q0 22 -7.5 39t-28 33t-35.5 25t-51 28q-3 2 -5 3l-5 2.5l-5 2.5q-42 22 -64.5 36t-53.5 39.5t-45 56.5t-14 70q0 85 62.5 138t162.5 53q60 0 116 -22t91 -64l-60 -59q-50 67 -149 67
q-62 0 -98 -29.5t-36 -75.5q0 -41 30 -68t95 -61q10 -6 35 -19t36 -18.5t31 -18.5t29.5 -22t23 -23.5t19.5 -29t11 -33.5t5 -41q0 -94 -64 -150t-169 -56z" />
    <glyph glyph-name="T" unicode="T" horiz-adv-x="531" 
d="M193 0l77 633h-190l9 77h467l-9 -77h-192l-77 -633h-85z" />
    <glyph glyph-name="U" unicode="U" horiz-adv-x="672" 
d="M306 -6q-125 0 -178.5 81t-35.5 221l51 414h85l-51 -413q-13 -101 19 -161.5t114 -60.5q172 0 197 214l52 421h85l-52 -422q-35 -294 -286 -294z" />
    <glyph glyph-name="V" unicode="V" horiz-adv-x="622" 
d="M246 0l-156 710h90l116 -597h2l261 597h92l-328 -710h-77z" />
    <glyph glyph-name="W" unicode="W" horiz-adv-x="936" 
d="M211 0l-118 710h87l87 -574h3l207 574h92l73 -570h2l225 570h89l-293 -710h-77l-80 580h-2l-212 -580h-83z" />
    <glyph glyph-name="X" unicode="X" horiz-adv-x="600" 
d="M-5 0l261 357l-169 353h97l136 -289h3l204 289h104l-258 -356l173 -354h-100l-139 289h-3l-209 -289h-100z" />
    <glyph glyph-name="Y" unicode="Y" horiz-adv-x="557" 
d="M205 0l39 317l-169 393h94l125 -310h3l202 310h99l-268 -393l-40 -317h-85z" />
    <glyph glyph-name="Z" unicode="Z" horiz-adv-x="580" 
d="M32 0l8 68l409 562l-1 3h-322l9 77h433l-7 -68l-414 -561l2 -4h344l-10 -77h-451z" />
    <glyph glyph-name="bracketleft" unicode="[" horiz-adv-x="304" 
d="M26 -145l107 874h182l-7 -63h-111l-92 -748h110l-8 -63h-181z" />
    <glyph glyph-name="backslash" unicode="\" horiz-adv-x="373" 
d="M292 -113l-241 852l66 30l241 -852z" />
    <glyph glyph-name="bracketright" unicode="]" horiz-adv-x="307" 
d="M2 -145l8 63h113l92 748h-113l7 63h184l-107 -874h-184z" />
    <glyph glyph-name="asciicircum" unicode="^" horiz-adv-x="444" 
d="M96 500l151 210h63l100 -210h-71l-66 154l-106 -154h-71z" />
    <glyph glyph-name="underscore" unicode="_" horiz-adv-x="471" 
d="M-45 -85l7 58h480l-7 -58h-480z" />
    <glyph glyph-name="grave" unicode="`" horiz-adv-x="463" 
d="M266 541l-94 142l90 -1l87 -141h-83z" />
    <glyph glyph-name="a" unicode="a" horiz-adv-x="555" 
d="M211 -6q-81 0 -124 55t-43 141q0 123 68.5 213t175.5 90q88 0 137 -52l3 1l6 44h79l-60 -486h-79l14 111l-3 1q-72 -118 -174 -118zM225 65q66 0 120.5 72t67.5 179l6 50q-22 26 -58 39.5t-68 13.5q-75 0 -122 -69.5t-47 -161.5q0 -56 26.5 -89.5t74.5 -33.5z" />
    <glyph glyph-name="b" unicode="b" horiz-adv-x="568" 
d="M251 -6q-113 0 -195 53l85 689h79l-43 -356l2 -1q73 114 177 114q81 0 124 -57.5t43 -148.5q0 -76 -29.5 -141t-93 -108.5t-149.5 -43.5zM244 66q91 0 144.5 67t53.5 163q0 54 -26 88.5t-76 34.5q-69 0 -122 -70.5t-67 -178.5l-11 -84q45 -20 104 -20z" />
    <glyph glyph-name="c" unicode="c" horiz-adv-x="489" 
d="M248 -6q-94 0 -148.5 53.5t-54.5 155.5q0 120 70 205t186 85q53 0 99.5 -20t71.5 -58l-60 -56q-38 60 -113 60q-77 0 -125 -61t-48 -145q0 -72 35.5 -109t90.5 -37q70 0 125 58l56 -54q-74 -77 -185 -77z" />
    <glyph glyph-name="d" unicode="d" horiz-adv-x="566" 
d="M212 -6q-81 0 -124.5 55t-43.5 141q0 122 68.5 212.5t176.5 90.5q89 0 141 -53l2 1l36 295h80l-91 -736h-80l15 113l-3 1q-33 -57 -79 -88.5t-98 -31.5zM226 65q67 0 122 72t68 179l7 50q-40 53 -129 53q-75 0 -122 -69.5t-47 -161.5q0 -56 26.5 -89.5t74.5 -33.5z" />
    <glyph glyph-name="e" unicode="e" horiz-adv-x="477" 
d="M250 67q72 0 126 58l56 -54q-73 -77 -185 -77q-93 0 -147.5 53.5t-54.5 155.5q0 119 70.5 204.5t186.5 85.5q64 0 108 -31t44 -92q0 -159 -330 -188q7 -55 42 -85t84 -30zM300 420q-62 0 -112 -47.5t-62 -125.5q248 21 248 116q0 30 -21 43.5t-53 13.5z" />
    <glyph glyph-name="f" unicode="f" horiz-adv-x="351" 
d="M75 0l51 418h-75l8 69h76l11 89q11 87 54.5 127t108.5 40q67 0 114 -33l-32 -66q-32 25 -74 25q-80 0 -93 -103l-10 -79h135l-8 -69h-135l-51 -418h-80z" />
    <glyph glyph-name="g" unicode="g" horiz-adv-x="559" 
d="M198 -204q-100 0 -173 43l36 68q62 -38 136 -38q79 0 125 42t61 158l8 61l-2 1q-35 -57 -81 -89.5t-97 -32.5q-81 0 -123.5 55t-42.5 141q0 113 68.5 200.5t174.5 87.5q90 0 139 -52l2 1l6 45h79l-52 -424q-8 -64 -26 -111.5t-42 -77t-56.5 -47.5t-65.5 -24.5t-74 -6.5z
M226 81q63 0 117.5 65.5t67.5 157.5l8 62q-22 26 -58 39.5t-68 13.5q-74 0 -121 -66.5t-47 -148.5q0 -56 26.5 -89.5t74.5 -33.5z" />
    <glyph glyph-name="h" unicode="h" horiz-adv-x="554" 
d="M50 0l91 736h79l-45 -361h2q37 56 88 87t105 31q74 0 103.5 -49t16.5 -151l-39 -293h-80l39 287q10 70 -6.5 101.5t-58.5 31.5q-59 0 -120 -68.5t-72 -161.5l-23 -190h-80z" />
    <glyph glyph-name="i" unicode="i" horiz-adv-x="246" 
d="M173 577q-24 0 -40 16t-16 40q0 25 16.5 41.5t41.5 16.5q24 0 40 -16t16 -40q0 -25 -16.5 -41.5t-41.5 -16.5zM53 0l60 487h80l-60 -487h-80z" />
    <glyph glyph-name="j" unicode="j" horiz-adv-x="213" 
d="M149 577q-24 0 -40 16t-16 40q0 25 16.5 41.5t41.5 16.5q24 0 40 -16t16 -40q0 -25 -16.5 -41.5t-41.5 -16.5zM-36 -204q-41 0 -73 21l20 64q21 -15 45 -15q29 0 46 21.5t23 76.5l64 523h80l-66 -533q-19 -158 -139 -158z" />
    <glyph glyph-name="k" unicode="k" horiz-adv-x="502" 
d="M423 -5q-12 -2 -23 0q-18 2 -32.5 10.5t-23 16t-20.5 30.5t-17 34t-19 45l-24 55q-57 -45 -122 -77l-13 -109h-79l91 736h79l-67 -539l2 -1q91 54 154.5 131.5t89.5 159.5h80q-32 -134 -153 -250l35 -83q22 -54 39 -72.5t46 -24.5z" />
    <glyph glyph-name="l" unicode="l" horiz-adv-x="293" 
d="M172 -7q-59 0 -86 39.5t-18 113.5l73 590h79l-72 -585q-6 -41 6 -62t36 -21q36 0 70 27l16 -68q-43 -34 -104 -34z" />
    <glyph glyph-name="m" unicode="m" horiz-adv-x="831" 
d="M51 0l60 487h79l-13 -106l2 -1q36 54 82 83.5t93 29.5q103 0 116 -111h3q73 111 179 111q143 0 117 -200l-39 -293h-80l39 287q17 133 -58 133q-51 0 -107 -65t-69 -160l-25 -195h-79l38 287q17 133 -58 133q-52 0 -109 -68.5t-68 -159.5l-24 -192h-79z" />
    <glyph glyph-name="n" unicode="n" horiz-adv-x="554" 
d="M50 0l61 487h79l-14 -110l2 -1q38 56 88 86.5t104 30.5q74 0 103.5 -49t16.5 -151l-39 -293h-79l38 287q10 70 -6.5 101.5t-58.5 31.5q-59 0 -120 -67.5t-72 -160.5l-23 -192h-80z" />
    <glyph glyph-name="o" unicode="o" horiz-adv-x="547" 
d="M246 -6q-92 0 -147 54t-55 152q0 124 69.5 208.5t188.5 84.5q92 0 146.5 -53.5t54.5 -151.5q0 -126 -69 -210t-188 -84zM250 67q75 0 123.5 61.5t48.5 152.5q0 72 -35.5 105t-88.5 33q-75 0 -124 -62t-49 -150q0 -72 36 -106t89 -34z" />
    <glyph glyph-name="p" unicode="p" horiz-adv-x="567" 
d="M26 -198l84 685h79l-14 -113l2 -1q72 120 185 120q76 0 118.5 -56.5t42.5 -140.5q0 -122 -69 -212t-178 -90q-90 0 -139 49l-2 -1l-30 -240h-79zM259 66q82 0 133 66.5t51 158.5q0 56 -26 93t-73 37q-68 0 -123.5 -71t-69.5 -175l-7 -53q33 -56 115 -56z" />
    <glyph glyph-name="q" unicode="q" horiz-adv-x="557" 
d="M350 -198l38 311l-2 1q-33 -57 -79 -88.5t-96 -31.5q-81 0 -124 55t-43 141q0 123 68.5 213t175.5 90q86 0 138 -50l2 1l6 43h79l-84 -685h-79zM225 65q65 0 119.5 72.5t68.5 176.5l6 52q-22 27 -57.5 40.5t-68.5 13.5q-75 0 -122 -70t-47 -162q0 -56 26.5 -89.5
t74.5 -33.5z" />
    <glyph glyph-name="r" unicode="r" horiz-adv-x="385" 
d="M51 0l60 487h79l-14 -109h2q69 113 172 113q36 0 67 -13l-32 -74q-27 10 -60 10q-71 0 -116 -67t-56 -164l-23 -183h-79z" />
    <glyph glyph-name="s" unicode="s" horiz-adv-x="417" 
d="M185 -6q-115 0 -169 63l46 58q48 -51 124 -51q43 0 71 18t28 49q0 27 -21 42.5t-68 36.5q-9 4 -14 6q-56 24 -87.5 55.5t-31.5 81.5q0 62 47.5 101t118.5 39q98 0 159 -60l-56 -58q-44 48 -110 48q-34 0 -56.5 -17.5t-22.5 -45.5q0 -26 22.5 -44.5t65.5 -38.5
q73 -35 96 -55q37 -35 38 -81q1 -70 -49.5 -108.5t-130.5 -38.5z" />
    <glyph glyph-name="t" unicode="t" horiz-adv-x="371" 
d="M193 -7q-59 0 -86.5 37t-19.5 107l35 281h-74l9 69h73l21 160l80 15l-21 -175h153l-7 -69h-155l-33 -273q-10 -77 45 -77q44 0 92 42l22 -63q-50 -54 -134 -54z" />
    <glyph glyph-name="u" unicode="u" horiz-adv-x="539" 
d="M192 -6q-77 0 -110 47t-19 149l41 297h79l-39 -290q-10 -72 8.5 -101t61.5 -29q53 0 109 61t67 146l26 213h79l-59 -487h-80l14 110h-2q-31 -54 -76.5 -85t-99.5 -31z" />
    <glyph glyph-name="v" unicode="v" horiz-adv-x="498" 
d="M198 -6q-160 0 -133 212l35 281h79l-35 -274q-9 -80 6.5 -113t55.5 -33q49 0 98.5 55t70.5 152q20 99 3 213h82q20 -120 -6 -236q-29 -128 -100.5 -192.5t-155.5 -64.5z" />
    <glyph glyph-name="w" unicode="w" horiz-adv-x="781" 
d="M184 -6q-147 0 -120 204l38 289h79l-37 -284q-17 -136 66 -136q44 0 92 54.5t60 153.5l26 212h80l-35 -287q-17 -133 60 -133q47 0 96 55t69 152q22 99 3 213h82q20 -120 -6 -236q-28 -128 -99.5 -192.5t-152.5 -64.5q-58 0 -91.5 31t-38.5 85h-2q-26 -51 -76.5 -83.5
t-92.5 -32.5z" />
    <glyph glyph-name="x" unicode="x" horiz-adv-x="465" 
d="M-2 0l188 247l-127 240h92l88 -179h2l132 179h96l-188 -244l128 -243h-91l-90 181h-2l-136 -181h-92z" />
    <glyph glyph-name="y" unicode="y" horiz-adv-x="538" 
d="M417 487h78l-52 -424q-9 -79 -33.5 -133.5t-61 -82.5t-74.5 -39.5t-85 -11.5q-94 0 -170 42l36 69q61 -38 136 -38q71 0 115.5 42.5t58.5 157.5l5 40l-2 1q-31 -54 -77.5 -85t-102.5 -31q-154 0 -127 196l40 297h79l-39 -290q-9 -72 9.5 -101t61.5 -29q57 0 113 64.5
t66 151.5z" />
    <glyph glyph-name="z" unicode="z" horiz-adv-x="448" 
d="M364 -26q-41 13 -103.5 19t-105.5 6.5t-145 0.5l6 58l294 359v1h-235l8 69h344l-6 -57l-296 -359v-2q183 -4 261 -29z" />
    <glyph glyph-name="braceleft" unicode="{" horiz-adv-x="325" 
d="M174 -144q-43 0 -68 31t-18 81l26 215q1 20 1 35.5t-15 26t-48 12.5l5 63q34 2 52.5 15.5t23 26.5t7.5 36l28 222q5 47 35 78t75 31h53l-7 -57h-24q-27 0 -44.5 -20.5t-20.5 -48.5l-27 -216q-5 -44 -18.5 -66.5t-43.5 -31.5v-2q27 -9 35.5 -30.5t1.5 -69.5l-24 -198
q-5 -41 5.5 -58.5t39.5 -17.5h27l-7 -57h-50z" />
    <glyph glyph-name="bar" unicode="|" horiz-adv-x="308" 
d="M75 -115l104 852h70l-104 -852h-70z" />
    <glyph glyph-name="braceright" unicode="}" horiz-adv-x="325" 
d="M6 -144l7 57h24q31 0 46.5 19t20.5 60l24 198q6 49 19 69t44 30v2q-49 17 -37 99l25 216q3 29 -8 47.5t-39 18.5h-26l7 57h50q45 0 69 -33t18 -79l-28 -222q-1 -18 -1.5 -34t15 -27.5t48.5 -13.5l-5 -63q-25 -1 -42 -8t-25 -19t-11 -23t-5 -28l-26 -214q-7 -51 -38 -80
t-73 -29h-53z" />
    <glyph glyph-name="asciitilde" unicode="~" horiz-adv-x="531" 
d="M352 212q-37 0 -86 28q-46 27 -70 27q-44 0 -75 -54l-57 26q49 104 126 104q12 0 22 -1.5t20.5 -5.5t14.5 -6t15 -8l12 -7q47 -28 71 -28q44 0 73 54l57 -23q-21 -49 -54 -77.5t-69 -28.5z" />
    <glyph glyph-name="uni00A0" unicode="&#xa0;" horiz-adv-x="215" 
 />
    <glyph glyph-name="exclamdown" unicode="&#xa1;" horiz-adv-x="247" 
d="M133 494q24 0 39.5 -16t15.5 -40q0 -25 -16.5 -42t-41.5 -17q-24 0 -40 16t-16 40q0 25 17 42t42 17zM147 279l-50 -528h-88l79 528h59z" />
    <glyph glyph-name="cent" unicode="&#xa2;" horiz-adv-x="500" 
d="M251 121q80 0 135 61l63 -45q-67 -74 -160 -87l-13 -103h-57l13 102q-78 5 -126 58t-48 142q0 117 63.5 201.5t169.5 95.5l13 107h57l-13 -108q93 -12 136 -78l-63 -47q-34 54 -104 54q-79 0 -128.5 -63.5t-49.5 -156.5q0 -60 33 -96.5t79 -36.5z" />
    <glyph glyph-name="sterling" unicode="&#xa3;" horiz-adv-x="514" 
d="M20 0l9 77h68l31 251h-54l7 61h56l11 85q14 115 69 166.5t130 51.5q111 0 160 -98l-54 -57q-36 75 -105 75q-98 0 -116 -143l-10 -80h144l-7 -61h-145l-32 -251h283l-10 -77h-435z" />
    <glyph glyph-name="currency" unicode="&#xa4;" horiz-adv-x="466" 
d="M420 410q0 -78 -49 -136l59 -75l-43 -39l-60 75q-45 -29 -101 -29q-55 0 -95 29l-75 -74l-37 39l78 76q-18 33 -18 78q0 82 47 142l-61 77l44 38l59 -74q48 32 103 32q56 0 94 -32l75 75l37 -38l-78 -78q21 -34 21 -86zM137 363q0 -45 26 -72t70 -27q55 0 91.5 41
t36.5 99q0 48 -27 77.5t-69 29.5q-54 0 -91 -43t-37 -105z" />
    <glyph glyph-name="yen" unicode="&#xa5;" horiz-adv-x="522" 
d="M563 687l-214 -334h115l-7 -55h-144l-3 -5l-9 -70h147l-7 -55h-147l-21 -168h-85l21 168h-151l6 55h151l9 70l-2 5h-148l7 55h120l-131 334h97l110 -309h2l183 309h101z" />
    <glyph glyph-name="brokenbar" unicode="&#xa6;" horiz-adv-x="308" 
d="M229 566l-44 -353l-19 -155h-69l19 155h-1l43 353h71z" />
    <glyph glyph-name="section" unicode="&#xa7;" horiz-adv-x="506" 
d="M300 423q83 -38 107 -58q42 -35 42 -92q0 -99 -98 -145q52 -37 52 -102q0 -80 -54.5 -129.5t-141.5 -49.5q-118 0 -184 93l52 56q23 -37 60 -55t74 -18q47 0 77 26t30 69q0 18 -6 31.5t-23.5 26t-32 20t-49.5 23.5q-36 17 -54.5 28t-41.5 29.5t-33 41.5t-10 53
q0 48 25.5 84.5t70.5 56.5q-49 39 -49 103q0 75 52.5 123t130.5 48q51 0 97.5 -20t74.5 -52l-51 -56q-48 51 -117 51q-45 0 -72.5 -24t-27.5 -65q0 -32 22 -51t78 -46zM288 165q36 11 57.5 37t21.5 61q0 32 -22 49.5t-84 44.5q-6 3 -18 8.5t-18 8.5q-35 -8 -56 -35t-21 -60
q0 -31 21.5 -49t80.5 -47q18 -10 38 -18z" />
    <glyph glyph-name="dieresis" unicode="&#xa8;" horiz-adv-x="471" 
d="M195 561q-24 0 -40 16t-16 40q0 25 17 41.5t42 16.5q23 0 39 -16t16 -40q0 -25 -16.5 -41.5t-41.5 -16.5zM366 561q-25 0 -41 16t-16 40q0 25 17 41.5t42 16.5q23 0 39 -16t16 -40q0 -25 -16.5 -41.5t-40.5 -16.5z" />
    <glyph glyph-name="copyright" unicode="&#xa9;" horiz-adv-x="705" 
d="M351 12q-127 0 -215.5 90.5t-88.5 215.5t89 215.5t216 90.5t215 -90t88 -216q0 -125 -88.5 -215.5t-215.5 -90.5zM351 69q103 0 174.5 73.5t71.5 175.5q0 103 -71 176t-174 73q-104 0 -175.5 -73.5t-71.5 -176.5q0 -102 71.5 -175t174.5 -73zM358 153q-70 0 -116 43
t-46 120q0 71 43 117.5t119 46.5q77 0 128 -62l-39 -33q-35 45 -89 45q-49 0 -78.5 -31.5t-29.5 -82.5q0 -52 30 -82t78 -30q56 0 89 43l39 -33q-50 -61 -128 -61z" />
    <glyph glyph-name="ordfeminine" unicode="&#xaa;" horiz-adv-x="375" 
d="M174 391q-44 0 -73 31.5t-29 89.5q0 74 45 126.5t110 52.5q48 0 78 -27h2l3 23h58l-36 -292h-58l7 57h-2q-43 -61 -105 -61zM185 447q37 0 70.5 36t40.5 94l4 29q-8 14 -27.5 22t-39.5 8q-44 0 -72.5 -37.5t-28.5 -86.5q0 -65 53 -65z" />
    <glyph glyph-name="guillemotleft" unicode="&#xab;" horiz-adv-x="447" 
d="M132 26l-86 219l141 221h76l-139 -221l85 -219h-77zM301 26l-87 219l142 221h76l-139 -221l85 -219h-77z" />
    <glyph glyph-name="logicalnot" unicode="&#xac;" horiz-adv-x="527" 
d="M383 165l19 157h-330l8 73h403l-28 -230h-72z" />
    <glyph glyph-name="registered" unicode="&#xae;" horiz-adv-x="705" 
d="M352 624q127 0 215 -90t88 -216q0 -125 -88.5 -215.5t-215.5 -90.5t-215.5 90.5t-88.5 215.5t89 215.5t216 90.5zM351 69q103 0 174.5 73.5t71.5 175.5q0 103 -71 176t-174 73q-104 0 -175.5 -73.5t-71.5 -176.5q0 -102 71.5 -175t174.5 -73zM471 380q0 -78 -71 -97
l86 -125h-60l-82 120h-47v-120h-51v324h117q54 0 81 -28t27 -74zM297 434v-109h54q67 0 67 56q0 24 -16.5 38.5t-46.5 14.5h-58z" />
    <glyph glyph-name="macron" unicode="&#xaf;" horiz-adv-x="417" 
d="M119 580l8 69h262l-8 -69h-262z" />
    <glyph glyph-name="degree" unicode="&#xb0;" horiz-adv-x="381" 
d="M214 445q-53 0 -83 30.5t-30 80.5q0 67 41.5 113.5t104.5 46.5q51 0 83 -32t32 -86q0 -62 -41.5 -107.5t-106.5 -45.5zM220 502q37 0 61.5 26.5t24.5 64.5q0 30 -17 49t-47 19q-37 0 -61 -28t-24 -70q0 -29 16.5 -45t46.5 -16z" />
    <glyph glyph-name="plusminus" unicode="&#xb1;" horiz-adv-x="549" 
d="M232 159l24 197h-174l9 73h175l23 198h75l-25 -198h174l-9 -73h-174l-24 -197h-74zM37 -1l9 73h423l-9 -73h-423z" />
    <glyph glyph-name="uni00B2" unicode="&#xb2;" horiz-adv-x="315" 
d="M51 436l5 48l136 132q77 75 77 122q0 23 -14.5 37t-42.5 14q-40 0 -88 -40l-35 50q62 54 135 54q55 0 85 -26.5t30 -76.5q0 -79 -90 -164l-94 -86l1 -2h157l-8 -62h-254z" />
    <glyph glyph-name="uni00B3" unicode="&#xb3;" horiz-adv-x="319" 
d="M178 431q-80 0 -127 42l39 57q35 -38 85 -38q37 0 60 20t23 55q0 54 -60 54h-36l7 53h39q30 0 49 19t19 48q0 51 -59 51q-43 0 -87 -37l-33 46q60 52 135 52q51 0 80 -24t29 -70q0 -76 -66 -109v-1q54 -24 54 -87q0 -59 -42 -95t-109 -36z" />
    <glyph glyph-name="acute" unicode="&#xb4;" horiz-adv-x="460" 
d="M186 541l121 141l90 1l-128 -142h-83z" />
    <glyph glyph-name="uni00B5" unicode="&#xb5;" horiz-adv-x="552" 
d="M504 69l13 -57q-29 -18 -72 -18q-44 0 -64 26.5t-18 70.5q-56 -97 -147 -97q-66 0 -89 53l-2 -1q2 -52 -5 -107l-18 -137h-78l84 685h79l-36 -291q-8 -67 14 -98t59 -31q55 0 99.5 47t55.5 133l29 240h79l-43 -351q-5 -39 1 -54.5t32 -15.5q12 0 27 3z" />
    <glyph glyph-name="paragraph" unicode="&#xb6;" horiz-adv-x="464" 
d="M264 -150l91 746h-56l-73 -596h-54l44 353q-60 0 -98.5 32.5t-38.5 89.5q0 74 50 125.5t135 51.5h151l-99 -802h-52z" />
    <glyph glyph-name="periodcentered" unicode="&#xb7;" horiz-adv-x="241" 
d="M127 185q-24 0 -39.5 16t-15.5 40q0 25 16.5 42t41.5 17q24 0 40 -16t16 -40q0 -26 -17 -42.5t-42 -16.5z" />
    <glyph glyph-name="cedilla" unicode="&#xb8;" horiz-adv-x="307" 
d="M72 -188q-22 0 -44 6l3 43q15 -6 35 -6q28 0 46 12.5t18 34.5q0 31 -69 32l2 30l24 42h50l-24 -39l1 -1q72 -5 72 -64q0 -42 -31.5 -66t-82.5 -24z" />
    <glyph glyph-name="uni00B9" unicode="&#xb9;" horiz-adv-x="254" 
d="M208 848h54l-51 -412h-68l41 323l-74 -52l-28 53z" />
    <glyph glyph-name="ordmasculine" unicode="&#xba;" horiz-adv-x="348" 
d="M194 392q-56 0 -88.5 32t-32.5 91q0 72 42 124t114 52q54 0 86.5 -30.5t32.5 -89.5q0 -73 -41.5 -126t-112.5 -53zM196 447q38 0 64 34t26 85q0 36 -17.5 53t-43.5 17q-38 0 -64 -34t-26 -81q0 -33 16.5 -53.5t44.5 -20.5z" />
    <glyph glyph-name="guillemotright" unicode="&#xbb;" horiz-adv-x="445" 
d="M16 26l139 219l-86 221h77l87 -221l-140 -219h-77zM186 26l139 219l-86 221h77l87 -221l-140 -219h-77z" />
    <glyph glyph-name="onequarter" unicode="&#xbc;" horiz-adv-x="706" 
d="M506 724l63 -30l-367 -710l-63 29zM198 299h-68l41 323l-74 -52l-28 53l126 88h54zM625 138h54l-8 -60h-54l-10 -78h-67l9 78h-176l5 44l227 290h53zM449 132h119l22 182z" />
    <glyph glyph-name="onehalf" unicode="&#xbd;" horiz-adv-x="737" 
d="M506 724l63 -30l-367 -710l-63 29zM198 299h-68l41 323l-74 -52l-28 53l126 88h54zM528 64l1 -2h157l-8 -62h-254l5 48l136 132q77 75 77 122q0 23 -14.5 37t-42.5 14q-40 0 -88 -40l-35 50q62 54 135 54q55 0 85 -26.5t30 -76.5q0 -79 -90 -164z" />
    <glyph glyph-name="threequarters" unicode="&#xbe;" horiz-adv-x="756" 
d="M556 724l63 -30l-367 -710l-63 29zM316 425q0 -59 -42 -95t-109 -36q-80 0 -127 42l39 57q35 -38 85 -38q37 0 60 20t23 55q0 54 -60 54h-36l7 53h39q31 0 49.5 18.5t18.5 48.5q0 51 -59 51q-43 0 -87 -37l-33 46q60 52 135 52q51 0 80 -24t29 -70q0 -76 -66 -109v-1
q54 -24 54 -87zM675 138h54l-8 -60h-54l-10 -78h-67l9 78h-176l5 44l227 290h53zM499 132h119l22 182z" />
    <glyph glyph-name="questiondown" unicode="&#xbf;" horiz-adv-x="398" 
d="M259 493q24 0 39.5 -16t15.5 -40q0 -25 -16.5 -42t-41.5 -17q-24 0 -40 16t-16 40q0 26 17 42.5t42 16.5zM282 279l-6 -52q-2 -13 -5 -24.5t-10.5 -24t-11 -19.5t-16.5 -22t-16 -19t-20 -21.5t-20 -20.5q-42 -45 -62.5 -80t-20.5 -80t23 -69t63 -24q70 0 118 67l53 -53
q-34 -45 -85 -69.5t-107 -24.5q-67 0 -111.5 41.5t-44.5 116.5q0 60 29 108.5t79 97.5q32 31 43.5 43t27 35t18.5 43l9 51h73z" />
    <glyph glyph-name="Agrave" unicode="&#xc0;" horiz-adv-x="628" 
d="M343 782l-98 129h89l90 -129h-81zM-2 0l328 710h90l155 -710h-89l-36 174h-281l-78 -174h-89zM198 249h233l-73 354h-2z" />
    <glyph glyph-name="Aacute" unicode="&#xc1;" horiz-adv-x="628" 
d="M344 782l119 129h92l-130 -129h-81zM-2 0l328 710h90l155 -710h-89l-36 174h-281l-78 -174h-89zM198 249h233l-73 354h-2z" />
    <glyph glyph-name="Acircumflex" unicode="&#xc2;" horiz-adv-x="628" 
d="M238 782l123 124h77l88 -124h-77l-55 75h-2l-76 -75h-78zM-2 0l328 710h90l155 -710h-89l-36 174h-281l-78 -174h-89zM198 249h233l-73 354h-2z" />
    <glyph glyph-name="Atilde" unicode="&#xc3;" horiz-adv-x="628" 
d="M462 781q-33 0 -78 35q-30 24 -48 24q-36 0 -60 -57l-51 26q42 90 105 90q10 0 18.5 -1.5t17.5 -6t12.5 -6t13.5 -9.5l11 -7q34 -28 52 -28q35 0 59 56l51 -20q-19 -45 -46 -70.5t-57 -25.5zM-2 0l328 710h90l155 -710h-89l-36 174h-281l-78 -174h-89zM198 249h233
l-73 354h-2z" />
    <glyph glyph-name="Adieresis" unicode="&#xc4;" horiz-adv-x="628" 
d="M305 793q-24 0 -40 16t-16 40q0 25 17 41.5t42 16.5q23 0 39 -16t16 -40q0 -25 -16.5 -41.5t-41.5 -16.5zM476 793q-25 0 -41 16t-16 40q0 25 17 41.5t42 16.5q23 0 39 -16t16 -40q0 -25 -16.5 -41.5t-40.5 -16.5zM-2 0l328 710h90l155 -710h-89l-36 174h-281l-78 -174
h-89zM198 249h233l-73 354h-2z" />
    <glyph glyph-name="Aring" unicode="&#xc5;" horiz-adv-x="628" 
d="M390 770q-39 0 -65.5 26.5t-26.5 66.5t27.5 67t68.5 27q39 0 65.5 -26.5t26.5 -65.5q0 -41 -27.5 -68t-68.5 -27zM391 822q19 0 31.5 12t12.5 31q0 17 -12 29t-30 12q-19 0 -31.5 -12.5t-12.5 -30.5t12 -29.5t30 -11.5zM-2 0l328 710h90l155 -710h-89l-36 174h-281
l-78 -174h-89zM198 249h233l-73 354h-2z" />
    <glyph glyph-name="AE" unicode="&#xc6;" horiz-adv-x="877" 
d="M-23 0l425 710h466l-9 -77h-337l-29 -241h306l-10 -77h-306l-29 -238h350l-9 -77h-433l21 174h-209l-103 -174h-94zM216 249h177l44 370h-1z" />
    <glyph glyph-name="Ccedilla" unicode="&#xc7;" horiz-adv-x="678" 
d="M433 635q-118 0 -195 -101.5t-77 -234.5q0 -107 52 -165.5t146 -58.5q105 0 197 87l52 -65q-105 -103 -251 -103l-17 -27l1 -1q72 -5 72 -64q0 -42 -31.5 -66t-82.5 -24q-21 0 -44 6l3 43q15 -6 35 -6q28 0 46 12.5t18 34.5q0 31 -69 32l2 30l19 33q-109 14 -173 90.5
t-64 204.5q0 175 103 300t262 125q162 0 244 -137l-69 -57q-66 112 -179 112z" />
    <glyph glyph-name="Egrave" unicode="&#xc8;" 
d="M384 783l-98 129h89l90 -129h-81zM66 0l87 710h424l-10 -77h-338l-30 -241h309l-9 -77h-309l-29 -238h352l-9 -77h-438z" />
    <glyph glyph-name="Eacute" unicode="&#xc9;" 
d="M295 783l119 129h92l-130 -129h-81zM66 0l87 710h424l-10 -77h-338l-30 -241h309l-9 -77h-309l-29 -238h352l-9 -77h-438z" />
    <glyph glyph-name="Ecircumflex" unicode="&#xca;" 
d="M236 783l123 124h77l88 -124h-77l-55 75h-2l-76 -75h-78zM66 0l87 710h424l-10 -77h-338l-30 -241h309l-9 -77h-309l-29 -238h352l-9 -77h-438z" />
    <glyph glyph-name="Edieresis" unicode="&#xcb;" 
d="M303 794q-24 0 -40 16t-16 40q0 25 17 41.5t42 16.5q23 0 39 -16t16 -40q0 -25 -16.5 -41.5t-41.5 -16.5zM474 794q-25 0 -41 16t-16 40q0 25 17 41.5t42 16.5q23 0 39 -16t16 -40q0 -25 -16.5 -41.5t-40.5 -16.5zM66 0l87 710h424l-10 -77h-338l-30 -241h309l-9 -77
h-309l-29 -238h352l-9 -77h-438z" />
    <glyph glyph-name="Igrave" unicode="&#xcc;" horiz-adv-x="289" 
d="M173 782l-98 129h89l90 -129h-81zM72 0l87 710h85l-87 -710h-85z" />
    <glyph glyph-name="Iacute" unicode="&#xcd;" horiz-adv-x="284" 
d="M175 782l119 129h92l-130 -129h-81zM72 0l87 710h85l-87 -710h-85z" />
    <glyph glyph-name="Icircumflex" unicode="&#xce;" horiz-adv-x="289" 
d="M65 782l123 124h77l88 -124h-77l-55 75h-2l-76 -75h-78zM72 0l87 710h85l-87 -710h-85z" />
    <glyph glyph-name="Idieresis" unicode="&#xcf;" horiz-adv-x="289" 
d="M132 793q-24 0 -40 16t-16 40q0 25 17 41.5t42 16.5q23 0 39 -16t16 -40q0 -25 -16.5 -41.5t-41.5 -16.5zM303 793q-25 0 -41 16t-16 40q0 25 17 41.5t42 16.5q23 0 39 -16t16 -40q0 -25 -16.5 -41.5t-40.5 -16.5zM72 0l87 710h85l-87 -710h-85z" />
    <glyph glyph-name="Eth" unicode="&#xd0;" horiz-adv-x="688" 
d="M354 710q140 0 214.5 -77t74.5 -214q0 -188 -103 -303.5t-274 -115.5h-199l39 317h-66l10 75h65l39 318h200zM273 77q126 0 203.5 96t77.5 245q0 100 -53.5 157.5t-152.5 57.5h-117l-30 -241h158l-10 -75h-157l-30 -240h111z" />
    <glyph glyph-name="Ntilde" unicode="&#xd1;" horiz-adv-x="726" 
d="M514 781q-33 0 -78 35q-30 24 -48 24q-36 0 -60 -57l-51 26q42 90 105 90q10 0 18.5 -1.5t17.5 -6t12.5 -6t13.5 -9.5l11 -7q34 -28 52 -28q35 0 59 56l51 -20q-19 -45 -46 -70.5t-57 -25.5zM66 0l87 710h85l292 -565l3 1l69 564h85l-88 -710h-83l-293 560h-3l-68 -560
h-86z" />
    <glyph glyph-name="Ograve" unicode="&#xd2;" horiz-adv-x="764" 
d="M430 782l-98 129h89l90 -129h-81zM352 -6q-128 0 -204.5 79t-76.5 218q0 112 45 209t130 157t192 60q128 0 205.5 -79t77.5 -218q0 -178 -101.5 -302t-267.5 -124zM358 74q79 0 143 48.5t97.5 126.5t33.5 168q0 108 -53.5 164t-149.5 56q-116 0 -192.5 -103.5
t-76.5 -240.5q0 -106 53 -162.5t145 -56.5z" />
    <glyph glyph-name="Oacute" unicode="&#xd3;" horiz-adv-x="764" 
d="M417 782l119 129h92l-130 -129h-81zM352 -6q-128 0 -204.5 79t-76.5 218q0 112 45 209t130 157t192 60q128 0 205.5 -79t77.5 -218q0 -178 -101.5 -302t-267.5 -124zM358 74q79 0 143 48.5t97.5 126.5t33.5 168q0 108 -53.5 164t-149.5 56q-116 0 -192.5 -103.5
t-76.5 -240.5q0 -106 53 -162.5t145 -56.5z" />
    <glyph glyph-name="Ocircumflex" unicode="&#xd4;" horiz-adv-x="764" 
d="M324 782l123 124h77l88 -124h-77l-55 75h-2l-76 -75h-78zM352 -6q-128 0 -204.5 79t-76.5 218q0 112 45 209t130 157t192 60q128 0 205.5 -79t77.5 -218q0 -178 -101.5 -302t-267.5 -124zM358 74q79 0 143 48.5t97.5 126.5t33.5 168q0 108 -53.5 164t-149.5 56
q-116 0 -192.5 -103.5t-76.5 -240.5q0 -106 53 -162.5t145 -56.5z" />
    <glyph glyph-name="Otilde" unicode="&#xd5;" horiz-adv-x="764" 
d="M548 781q-33 0 -78 35q-30 24 -48 24q-36 0 -60 -57l-51 26q42 90 105 90q10 0 18.5 -1.5t17.5 -6t12.5 -6t13.5 -9.5l11 -7q34 -28 52 -28q35 0 59 56l51 -20q-19 -45 -46 -70.5t-57 -25.5zM352 -6q-128 0 -204.5 79t-76.5 218q0 112 45 209t130 157t192 60
q128 0 205.5 -79t77.5 -218q0 -178 -101.5 -302t-267.5 -124zM358 74q79 0 143 48.5t97.5 126.5t33.5 168q0 108 -53.5 164t-149.5 56q-116 0 -192.5 -103.5t-76.5 -240.5q0 -106 53 -162.5t145 -56.5z" />
    <glyph glyph-name="Odieresis" unicode="&#xd6;" horiz-adv-x="764" 
d="M391 793q-24 0 -40 16t-16 40q0 25 17 41.5t42 16.5q23 0 39 -16t16 -40q0 -25 -16.5 -41.5t-41.5 -16.5zM562 793q-25 0 -41 16t-16 40q0 25 17 41.5t42 16.5q23 0 39 -16t16 -40q0 -25 -16.5 -41.5t-40.5 -16.5zM352 -6q-128 0 -204.5 79t-76.5 218q0 112 45 209
t130 157t192 60q128 0 205.5 -79t77.5 -218q0 -178 -101.5 -302t-267.5 -124zM358 74q79 0 143 48.5t97.5 126.5t33.5 168q0 108 -53.5 164t-149.5 56q-116 0 -192.5 -103.5t-76.5 -240.5q0 -106 53 -162.5t145 -56.5z" />
    <glyph glyph-name="multiply" unicode="&#xd7;" horiz-adv-x="485" 
d="M92 77l-48 51l150 149l-113 149l58 51l112 -149l150 149l48 -51l-151 -150l113 -149l-57 -50l-113 148z" />
    <glyph glyph-name="Oslash" unicode="&#xd8;" horiz-adv-x="766" 
d="M745 687l-74 -80q52 -76 52 -187q0 -178 -101.5 -302t-267.5 -124q-115 0 -191 65l-75 -81l-44 44l78 84q-49 76 -49 185q0 112 45 209t130 157t192 60q117 0 190 -64l72 77zM162 293q0 -69 24 -119l385 416q-52 47 -140 47q-116 0 -192.5 -103.5t-76.5 -240.5zM634 417
q0 71 -25 123l-387 -417q52 -49 138 -49q79 0 143 48.5t97.5 126.5t33.5 168z" />
    <glyph glyph-name="Ugrave" unicode="&#xd9;" horiz-adv-x="672" 
d="M367 781l-98 129h89l90 -129h-81zM306 -6q-125 0 -178.5 81t-35.5 221l51 414h85l-51 -413q-13 -101 19 -161.5t114 -60.5q172 0 197 214l52 421h85l-52 -422q-35 -294 -286 -294z" />
    <glyph glyph-name="Uacute" unicode="&#xda;" horiz-adv-x="672" 
d="M349 782l119 129h92l-130 -129h-81zM306 -6q-125 0 -178.5 81t-35.5 221l51 414h85l-51 -413q-13 -101 19 -161.5t114 -60.5q172 0 197 214l52 421h85l-52 -422q-35 -294 -286 -294z" />
    <glyph glyph-name="Ucircumflex" unicode="&#xdb;" horiz-adv-x="672" 
d="M261 782l123 124h77l88 -124h-77l-55 75h-2l-76 -75h-78zM306 -6q-125 0 -178.5 81t-35.5 221l51 414h85l-51 -413q-13 -101 19 -161.5t114 -60.5q172 0 197 214l52 421h85l-52 -422q-35 -294 -286 -294z" />
    <glyph glyph-name="Udieresis" unicode="&#xdc;" horiz-adv-x="672" 
d="M328 793q-24 0 -40 16t-16 40q0 25 17 41.5t42 16.5q23 0 39 -16t16 -40q0 -25 -16.5 -41.5t-41.5 -16.5zM499 793q-25 0 -41 16t-16 40q0 25 17 41.5t42 16.5q23 0 39 -16t16 -40q0 -25 -16.5 -41.5t-40.5 -16.5zM306 -6q-125 0 -178.5 81t-35.5 221l51 414h85l-51 -413
q-13 -101 19 -161.5t114 -60.5q172 0 197 214l52 421h85l-52 -422q-35 -294 -286 -294z" />
    <glyph glyph-name="Yacute" unicode="&#xdd;" horiz-adv-x="557" 
d="M294 782l119 129h92l-130 -129h-81zM205 0l39 317l-169 393h94l125 -310h3l202 310h99l-268 -393l-40 -317h-85z" />
    <glyph glyph-name="Thorn" unicode="&#xde;" horiz-adv-x="600" 
d="M66 0l87 710h85l-16 -139h157q190 0 190 -182q0 -118 -69.5 -187t-195.5 -69h-136l-16 -133h-86zM177 210h139q76 0 120 48t44 131q0 50 -31.5 77t-84.5 27h-152z" />
    <glyph glyph-name="germandbls" unicode="&#xdf;" horiz-adv-x="602" 
d="M392 -6q-114 0 -171 63l46 58q48 -51 123 -51q44 0 72 20t28 53q0 27 -19 43t-71 44q-41 23 -63 38.5t-39 42t-16 58.5q0 19 6.5 35.5t20.5 31.5t24.5 24t31.5 25t30 23q56 44 56 94q0 33 -28.5 53.5t-77.5 20.5q-57 0 -98.5 -32.5t-51.5 -105.5l-65 -532h-79l67 543
q11 97 73 148.5t149 51.5q91 0 141 -39.5t50 -105.5q0 -45 -23 -78t-67 -65q-56 -39 -68 -55q-10 -14 -11 -28q-1 -22 16.5 -39.5t63.5 -44.5q33 -19 41.5 -24t32 -22t31 -28.5t15.5 -31t8 -42.5q0 -70 -49.5 -108t-128.5 -38z" />
    <glyph glyph-name="agrave" unicode="&#xe0;" horiz-adv-x="555" 
d="M301 557l-94 142l90 -1l87 -141h-83zM211 -6q-81 0 -124 55t-43 141q0 123 68.5 213t175.5 90q88 0 137 -52l3 1l6 44h79l-60 -486h-79l14 111l-3 1q-72 -118 -174 -118zM225 65q66 0 120.5 72t67.5 179l6 50q-22 26 -58 39.5t-68 13.5q-75 0 -122 -69.5t-47 -161.5
q0 -56 26.5 -89.5t74.5 -33.5z" />
    <glyph glyph-name="aacute" unicode="&#xe1;" horiz-adv-x="555" 
d="M269 557l121 141l90 1l-128 -142h-83zM211 -6q-81 0 -124 55t-43 141q0 123 68.5 213t175.5 90q88 0 137 -52l3 1l6 44h79l-60 -486h-79l14 111l-3 1q-72 -118 -174 -118zM225 65q66 0 120.5 72t67.5 179l6 50q-22 26 -58 39.5t-68 13.5q-75 0 -122 -69.5t-47 -161.5
q0 -56 26.5 -89.5t74.5 -33.5z" />
    <glyph glyph-name="acircumflex" unicode="&#xe2;" horiz-adv-x="555" 
d="M190 556l121 143h76l90 -143h-79l-51 90h-2l-73 -90h-82zM211 -6q-81 0 -124 55t-43 141q0 123 68.5 213t175.5 90q88 0 137 -52l3 1l6 44h79l-60 -486h-79l14 111l-3 1q-72 -118 -174 -118zM225 65q66 0 120.5 72t67.5 179l6 50q-22 26 -58 39.5t-68 13.5
q-75 0 -122 -69.5t-47 -161.5q0 -56 26.5 -89.5t74.5 -33.5z" />
    <glyph glyph-name="atilde" unicode="&#xe3;" horiz-adv-x="555" 
d="M412 563q-8 0 -16.5 2t-14.5 4t-13.5 6.5t-11 7.5t-11 8.5t-9.5 6.5q-29 24 -48 24q-38 0 -62 -57l-51 26q41 96 106 96q8 0 16 -1.5t13.5 -3t12 -5.5t9.5 -6t10 -7.5t9 -6.5q3 -2 10.5 -7.5t11 -8t9.5 -6t11 -5t10 -1.5q37 0 61 56l51 -20q-39 -102 -103 -102zM211 -6
q-81 0 -124 55t-43 141q0 123 68.5 213t175.5 90q88 0 137 -52l3 1l6 44h79l-60 -486h-79l14 111l-3 1q-72 -118 -174 -118zM225 65q66 0 120.5 72t67.5 179l6 50q-22 26 -58 39.5t-68 13.5q-75 0 -122 -69.5t-47 -161.5q0 -56 26.5 -89.5t74.5 -33.5z" />
    <glyph glyph-name="adieresis" unicode="&#xe4;" horiz-adv-x="555" 
d="M257 577q-24 0 -40 16t-16 40q0 25 17 41.5t42 16.5q23 0 39 -16t16 -40q0 -25 -16.5 -41.5t-41.5 -16.5zM428 577q-25 0 -41 16t-16 40q0 25 17 41.5t42 16.5q23 0 39 -16t16 -40q0 -25 -16.5 -41.5t-40.5 -16.5zM211 -6q-81 0 -124 55t-43 141q0 123 68.5 213t175.5 90
q88 0 137 -52l3 1l6 44h79l-60 -486h-79l14 111l-3 1q-72 -118 -174 -118zM225 65q66 0 120.5 72t67.5 179l6 50q-22 26 -58 39.5t-68 13.5q-75 0 -122 -69.5t-47 -161.5q0 -56 26.5 -89.5t74.5 -33.5z" />
    <glyph glyph-name="aring" unicode="&#xe5;" horiz-adv-x="555" 
d="M343 546q-39 0 -65.5 26.5t-26.5 66.5t27.5 67t68.5 27q39 0 65.5 -26.5t26.5 -65.5q0 -41 -27.5 -68t-68.5 -27zM344 598q19 0 31.5 12t12.5 31q0 17 -12 29t-30 12q-19 0 -31.5 -12.5t-12.5 -30.5t12 -29.5t30 -11.5zM211 -6q-81 0 -124 55t-43 141q0 123 68.5 213
t175.5 90q88 0 137 -52l3 1l6 44h79l-60 -486h-79l14 111l-3 1q-72 -118 -174 -118zM225 65q66 0 120.5 72t67.5 179l6 50q-22 26 -58 39.5t-68 13.5q-75 0 -122 -69.5t-47 -161.5q0 -56 26.5 -89.5t74.5 -33.5z" />
    <glyph glyph-name="ae" unicode="&#xe6;" horiz-adv-x="695" 
d="M481 67q72 0 127 58l56 -54q-74 -77 -181 -77q-68 0 -112 32t-59 92q-23 -58 -62 -91.5t-88 -33.5q-63 0 -100 51t-37 133q0 124 73.5 217t192.5 93q68 0 117 -36q58 42 134 42q64 0 101.5 -32.5t37.5 -87.5q0 -82 -86.5 -131t-227.5 -60q4 -55 35.5 -85t78.5 -30z
M536 420q-60 0 -107 -49t-59 -127q104 11 167 43.5t63 80.5q0 26 -18.5 39t-45.5 13zM174 66q69 0 117 163q16 104 66 172q-26 13 -65 13q-85 0 -135 -75.5t-50 -168.5q0 -50 18.5 -77t48.5 -27z" />
    <glyph glyph-name="ccedilla" unicode="&#xe7;" horiz-adv-x="489" 
d="M252 67q70 0 125 58l56 -54q-73 -75 -179 -77l-17 -27l1 -1q72 -5 72 -64q0 -42 -31.5 -66t-82.5 -24q-22 0 -44 6l3 43q15 -6 35 -6q28 0 46 12.5t18 34.5q0 31 -69 32l2 30l19 33q-76 12 -118.5 64t-42.5 142q0 120 70 205t186 85q53 0 99.5 -20t71.5 -58l-60 -56
q-38 60 -113 60q-77 0 -125 -61t-48 -145q0 -72 35.5 -109t90.5 -37z" />
    <glyph glyph-name="egrave" unicode="&#xe8;" horiz-adv-x="477" 
d="M366 557h-83l-94 142l90 -1zM250 67q72 0 126 58l56 -54q-73 -77 -185 -77q-93 0 -147.5 53.5t-54.5 155.5q0 119 70.5 204.5t186.5 85.5q64 0 108 -31t44 -92q0 -159 -330 -188q7 -55 42 -85t84 -30zM300 420q-62 0 -112 -47.5t-62 -125.5q248 21 248 116q0 30 -21 43.5
t-53 13.5z" />
    <glyph glyph-name="eacute" unicode="&#xe9;" horiz-adv-x="477" 
d="M469 699l-128 -142h-83l121 141zM454 370q0 -159 -330 -188q7 -55 42 -85t84 -30q72 0 126 58l56 -54q-73 -77 -185 -77q-93 0 -147.5 53.5t-54.5 155.5q0 119 70.5 204.5t186.5 85.5q64 0 108 -31t44 -92zM126 247q248 21 248 116q0 30 -21 43.5t-53 13.5
q-62 0 -112 -47.5t-62 -125.5z" />
    <glyph glyph-name="ecircumflex" unicode="&#xea;" horiz-adv-x="477" 
d="M310 646l-73 -90h-82l121 143h76l90 -143h-79l-51 90h-2zM250 67q72 0 126 58l56 -54q-73 -77 -185 -77q-93 0 -147.5 53.5t-54.5 155.5q0 119 70.5 204.5t186.5 85.5q64 0 108 -31t44 -92q0 -159 -330 -188q7 -55 42 -85t84 -30zM300 420q-62 0 -112 -47.5t-62 -125.5
q248 21 248 116q0 30 -21 43.5t-53 13.5z" />
    <glyph glyph-name="edieresis" unicode="&#xeb;" horiz-adv-x="477" 
d="M222 577q-24 0 -40 16t-16 40q0 25 17 41.5t42 16.5q23 0 39 -16t16 -40q0 -25 -16.5 -41.5t-41.5 -16.5zM393 577q-25 0 -41 16t-16 40q0 25 17 41.5t42 16.5q23 0 39 -16t16 -40q0 -25 -16.5 -41.5t-40.5 -16.5zM250 67q72 0 126 58l56 -54q-73 -77 -185 -77
q-93 0 -147.5 53.5t-54.5 155.5q0 119 70.5 204.5t186.5 85.5q64 0 108 -31t44 -92q0 -159 -330 -188q7 -55 42 -85t84 -30zM300 420q-62 0 -112 -47.5t-62 -125.5q248 21 248 116q0 30 -21 43.5t-53 13.5z" />
    <glyph glyph-name="igrave" unicode="&#xec;" horiz-adv-x="247" 
d="M120 564l-61 142l89 -1l55 -141h-83zM53 0l60 487h80l-60 -487h-80z" />
    <glyph glyph-name="iacute" unicode="&#xed;" horiz-adv-x="239" 
d="M125 557l121 141l90 1l-128 -142h-83zM53 0l60 487h80l-60 -487h-80z" />
    <glyph glyph-name="icircumflex" unicode="&#xee;" horiz-adv-x="246" 
d="M18 556l121 143h76l90 -143h-79l-51 90h-2l-73 -90h-82zM53 0l60 487h80l-60 -487h-80z" />
    <glyph glyph-name="idieresis" unicode="&#xef;" horiz-adv-x="246" 
d="M91 577q-23 0 -39 16t-16 40q0 25 16.5 41.5t40.5 16.5q22 0 37.5 -16t15.5 -40q0 -25 -16 -41.5t-39 -16.5zM253 577q-23 0 -39 16t-16 40q0 25 16.5 41.5t40.5 16.5q22 0 37.5 -16t15.5 -40q0 -25 -16 -41.5t-39 -16.5zM53 0l60 487h80l-60 -487h-80z" />
    <glyph glyph-name="eth" unicode="&#xf0;" horiz-adv-x="545" 
d="M447 548q56 -104 56 -234q0 -135 -67.5 -227.5t-191.5 -92.5q-90 0 -145.5 54.5t-55.5 144.5q0 118 70.5 202t173.5 84q74 0 125 -43q-13 46 -31 80q-17 32 -46 65l-54 -60l-45 39l55 62q-40 31 -101 61l36 57q61 -24 113 -65l72 81l46 -38l-74 -83q39 -42 64 -87z
M246 67q89 0 134.5 77.5t44.5 184.5q0 19 -1 28q-44 50 -119 50q-78 0 -130 -59.5t-52 -145.5q0 -63 34.5 -99t88.5 -36z" />
    <glyph glyph-name="ntilde" unicode="&#xf1;" horiz-adv-x="554" 
d="M408 563q-8 0 -16.5 2t-14.5 4t-13.5 6.5t-11 7.5t-11 8.5t-9.5 6.5q-29 24 -48 24q-38 0 -62 -57l-51 26q41 96 106 96q8 0 16 -1.5t13.5 -3t12 -5.5t9.5 -6t10 -7.5t9 -6.5q3 -2 10.5 -7.5t11 -8t9.5 -6t11 -5t10 -1.5q37 0 61 56l51 -20q-39 -102 -103 -102zM50 0
l61 487h79l-14 -110l2 -1q38 56 88 86.5t104 30.5q74 0 103.5 -49t16.5 -151l-39 -293h-79l38 287q10 70 -6.5 101.5t-58.5 31.5q-59 0 -120 -67.5t-72 -160.5l-23 -192h-80z" />
    <glyph glyph-name="ograve" unicode="&#xf2;" horiz-adv-x="547" 
d="M285 557l-94 142l90 -1l87 -141h-83zM246 -6q-92 0 -147 54t-55 152q0 124 69.5 208.5t188.5 84.5q92 0 146.5 -53.5t54.5 -151.5q0 -126 -69 -210t-188 -84zM250 67q75 0 123.5 61.5t48.5 152.5q0 72 -35.5 105t-88.5 33q-75 0 -124 -62t-49 -150q0 -72 36 -106t89 -34z
" />
    <glyph glyph-name="oacute" unicode="&#xf3;" horiz-adv-x="547" 
d="M276 557l121 141l90 1l-128 -142h-83zM246 -6q-92 0 -147 54t-55 152q0 124 69.5 208.5t188.5 84.5q92 0 146.5 -53.5t54.5 -151.5q0 -126 -69 -210t-188 -84zM250 67q75 0 123.5 61.5t48.5 152.5q0 72 -35.5 105t-88.5 33q-75 0 -124 -62t-49 -150q0 -72 36 -106t89 -34
z" />
    <glyph glyph-name="ocircumflex" unicode="&#xf4;" horiz-adv-x="547" 
d="M174 556l121 143h76l90 -143h-79l-51 90h-2l-73 -90h-82zM246 -6q-92 0 -147 54t-55 152q0 124 69.5 208.5t188.5 84.5q92 0 146.5 -53.5t54.5 -151.5q0 -126 -69 -210t-188 -84zM250 67q75 0 123.5 61.5t48.5 152.5q0 72 -35.5 105t-88.5 33q-75 0 -124 -62t-49 -150
q0 -72 36 -106t89 -34z" />
    <glyph glyph-name="otilde" unicode="&#xf5;" horiz-adv-x="547" 
d="M396 563q-8 0 -16.5 2t-14.5 4t-13.5 6.5t-11 7.5t-11 8.5t-9.5 6.5q-29 24 -48 24q-38 0 -62 -57l-51 26q41 96 106 96q8 0 16 -1.5t13.5 -3t12 -5.5t9.5 -6t10 -7.5t9 -6.5q3 -2 10.5 -7.5t11 -8t9.5 -6t11 -5t10 -1.5q37 0 61 56l51 -20q-39 -102 -103 -102zM246 -6
q-92 0 -147 54t-55 152q0 124 69.5 208.5t188.5 84.5q92 0 146.5 -53.5t54.5 -151.5q0 -126 -69 -210t-188 -84zM250 67q75 0 123.5 61.5t48.5 152.5q0 72 -35.5 105t-88.5 33q-75 0 -124 -62t-49 -150q0 -72 36 -106t89 -34z" />
    <glyph glyph-name="odieresis" unicode="&#xf6;" horiz-adv-x="547" 
d="M241 577q-24 0 -40 16t-16 40q0 25 17 41.5t42 16.5q23 0 39 -16t16 -40q0 -25 -16.5 -41.5t-41.5 -16.5zM412 577q-25 0 -41 16t-16 40q0 25 17 41.5t42 16.5q23 0 39 -16t16 -40q0 -25 -16.5 -41.5t-40.5 -16.5zM246 -6q-92 0 -147 54t-55 152q0 124 69.5 208.5
t188.5 84.5q92 0 146.5 -53.5t54.5 -151.5q0 -126 -69 -210t-188 -84zM250 67q75 0 123.5 61.5t48.5 152.5q0 72 -35.5 105t-88.5 33q-75 0 -124 -62t-49 -150q0 -72 36 -106t89 -34z" />
    <glyph glyph-name="divide" unicode="&#xf7;" horiz-adv-x="545" 
d="M313 413q-24 0 -40 16t-16 40q0 25 16.5 41.5t41.5 16.5q24 0 40 -16t16 -40q0 -25 -16.5 -41.5t-41.5 -16.5zM79 240l9 73h423l-9 -73h-423zM268 19q-24 0 -40 16t-16 40q0 25 16.5 41.5t41.5 16.5q24 0 40 -16t16 -40q0 -25 -16.5 -41.5t-41.5 -16.5z" />
    <glyph glyph-name="oslash" unicode="&#xf8;" horiz-adv-x="550" 
d="M527 466l-53 -55q31 -51 31 -123q0 -126 -69 -210t-188 -84q-83 0 -135 43l-54 -57l-38 37l57 59q-32 49 -32 124q0 124 69.5 208.5t188.5 84.5q81 0 135 -43l51 53zM127 207q0 -41 12 -68l243 253q-31 27 -82 27q-75 0 -124 -62t-49 -150zM424 281q0 39 -11 67
l-244 -253q32 -28 83 -28q75 0 123.5 61.5t48.5 152.5z" />
    <glyph glyph-name="ugrave" unicode="&#xf9;" horiz-adv-x="539" 
d="M274 557l-94 142l90 -1l87 -141h-83zM192 -6q-77 0 -110 47t-19 149l41 297h79l-39 -290q-10 -72 8.5 -101t61.5 -29q53 0 109 61t67 146l26 213h79l-59 -487h-80l14 110h-2q-31 -54 -76.5 -85t-99.5 -31z" />
    <glyph glyph-name="uacute" unicode="&#xfa;" horiz-adv-x="539" 
d="M257 557l121 141l90 1l-128 -142h-83zM192 -6q-77 0 -110 47t-19 149l41 297h79l-39 -290q-10 -72 8.5 -101t61.5 -29q53 0 109 61t67 146l26 213h79l-59 -487h-80l14 110h-2q-31 -54 -76.5 -85t-99.5 -31z" />
    <glyph glyph-name="ucircumflex" unicode="&#xfb;" horiz-adv-x="539" 
d="M162 556l121 143h76l90 -143h-79l-51 90h-2l-73 -90h-82zM192 -6q-77 0 -110 47t-19 149l41 297h79l-39 -290q-10 -72 8.5 -101t61.5 -29q53 0 109 61t67 146l26 213h79l-59 -487h-80l14 110h-2q-31 -54 -76.5 -85t-99.5 -31z" />
    <glyph glyph-name="udieresis" unicode="&#xfc;" horiz-adv-x="539" 
d="M229 577q-24 0 -40 16t-16 40q0 25 17 41.5t42 16.5q23 0 39 -16t16 -40q0 -25 -16.5 -41.5t-41.5 -16.5zM400 577q-25 0 -41 16t-16 40q0 25 17 41.5t42 16.5q23 0 39 -16t16 -40q0 -25 -16.5 -41.5t-40.5 -16.5zM192 -6q-77 0 -110 47t-19 149l41 297h79l-39 -290
q-10 -72 8.5 -101t61.5 -29q53 0 109 61t67 146l26 213h79l-59 -487h-80l14 110h-2q-31 -54 -76.5 -85t-99.5 -31z" />
    <glyph glyph-name="yacute" unicode="&#xfd;" horiz-adv-x="538" 
d="M467 699l-128 -142h-83l121 141zM417 487h78l-52 -424q-9 -79 -33.5 -133.5t-61 -82.5t-74.5 -39.5t-85 -11.5q-94 0 -170 42l36 69q61 -38 136 -38q71 0 115.5 42.5t58.5 157.5l5 40l-2 1q-31 -54 -77.5 -85t-102.5 -31q-154 0 -127 196l40 297h79l-39 -290
q-9 -72 9.5 -101t61.5 -29q57 0 113 64.5t66 151.5z" />
    <glyph glyph-name="thorn" unicode="&#xfe;" horiz-adv-x="567" 
d="M26 -198l115 934h79l-45 -362l2 -1q72 120 185 120q76 0 118.5 -56.5t42.5 -140.5q0 -122 -69 -212t-178 -90q-90 0 -139 49l-2 -1l-30 -240h-79zM259 66q82 0 133 66.5t51 158.5q0 56 -25.5 92.5t-73.5 36.5q-68 0 -123.5 -70.5t-69.5 -174.5l-7 -53q33 -56 115 -56z
" />
    <glyph glyph-name="ydieresis" unicode="&#xff;" horiz-adv-x="538" 
d="M229 577q-24 0 -40 16t-16 40q0 25 17 41.5t42 16.5q23 0 39 -16t16 -40q0 -25 -16.5 -41.5t-41.5 -16.5zM400 577q-25 0 -41 16t-16 40q0 25 17 41.5t42 16.5q23 0 39 -16t16 -40q0 -25 -16.5 -41.5t-40.5 -16.5zM417 487h78l-52 -424q-9 -79 -33.5 -133.5t-61 -82.5
t-74.5 -39.5t-85 -11.5q-94 0 -170 42l36 69q61 -38 136 -38q71 0 115.5 42.5t58.5 157.5l5 40l-2 1q-31 -54 -77.5 -85t-102.5 -31q-154 0 -127 196l40 297h79l-39 -290q-9 -72 9.5 -101t61.5 -29q57 0 113 64.5t66 151.5z" />
    <glyph glyph-name="Amacron" unicode="&#x100;" horiz-adv-x="628" 
d="M257 809l8 67h262l-8 -67h-262zM-2 0l328 710h90l155 -710h-89l-36 174h-281l-78 -174h-89zM198 249h233l-73 354h-2z" />
    <glyph glyph-name="amacron" unicode="&#x101;" horiz-adv-x="555" 
d="M208 596l8 69h262l-8 -69h-262zM211 -6q-81 0 -124 55t-43 141q0 123 68.5 213t175.5 90q88 0 137 -52l3 1l6 44h79l-60 -486h-79l14 111l-3 1q-72 -118 -174 -118zM225 65q66 0 120.5 72t67.5 179l6 50q-22 26 -58 39.5t-68 13.5q-75 0 -122 -69.5t-47 -161.5
q0 -56 26.5 -89.5t74.5 -33.5z" />
    <glyph glyph-name="Abreve" unicode="&#x102;" horiz-adv-x="628" 
d="M384 776q-61 0 -91.5 34.5t-25.5 95.5h63q-3 -28 11 -48t46 -20t55 20.5t30 47.5h63q-12 -59 -53 -94.5t-98 -35.5zM-2 0l328 710h90l155 -710h-89l-36 174h-281l-78 -174h-89zM198 249h233l-73 354h-2z" />
    <glyph glyph-name="abreve" unicode="&#x103;" horiz-adv-x="555" 
d="M335 553q-62 0 -92 36.5t-25 104.5l63 -1q-7 -78 56 -78q33 0 56 22.5t30 56.5l63 -1q-12 -65 -52.5 -102.5t-98.5 -37.5zM211 -6q-81 0 -124 55t-43 141q0 123 68.5 213t175.5 90q88 0 137 -52l3 1l6 44h79l-60 -486h-79l14 111l-3 1q-72 -118 -174 -118zM225 65
q66 0 120.5 72t67.5 179l6 50q-22 26 -58 39.5t-68 13.5q-75 0 -122 -69.5t-47 -161.5q0 -56 26.5 -89.5t74.5 -33.5z" />
    <glyph glyph-name="Aogonek" unicode="&#x104;" horiz-adv-x="628" 
d="M567 0q-39 -16 -63.5 -42.5t-26.5 -53.5q0 -35 35 -35q28 0 45 10l2 -53q-23 -12 -65 -12q-41 0 -62.5 19t-20.5 54q1 62 71 114l-36 173h-281l-78 -174h-89l328 710h90l155 -710h-4zM198 249h233l-73 354h-2z" />
    <glyph glyph-name="aogonek" unicode="&#x105;" horiz-adv-x="555" 
d="M434 486h79l-60 -486h-2q-39 -16 -63.5 -42.5t-26.5 -53.5q0 -35 35 -35q28 0 45 10l2 -53q-23 -12 -65 -12q-41 0 -62.5 19t-20.5 54q1 33 23 65t57 56l13 103l-3 1q-72 -118 -174 -118q-81 0 -124 55t-43 141q0 123 68.5 213t175.5 90q88 0 137 -52l3 1zM225 65
q66 0 120.5 72t67.5 179l6 50q-22 26 -58 39.5t-68 13.5q-75 0 -122 -69.5t-47 -161.5q0 -56 26.5 -89.5t74.5 -33.5z" />
    <glyph glyph-name="Cacute" unicode="&#x106;" horiz-adv-x="678" 
d="M402 782l119 129h92l-130 -129h-81zM355 -6q-128 0 -205.5 78t-77.5 220q0 175 103 300t262 125q162 0 244 -137l-69 -57q-66 112 -179 112q-118 0 -195 -101.5t-77 -234.5q0 -107 52 -165.5t146 -58.5q105 0 197 87l52 -65q-105 -103 -253 -103z" />
    <glyph glyph-name="cacute" unicode="&#x107;" horiz-adv-x="489" 
d="M265 557l121 141l90 1l-128 -142h-83zM248 -6q-94 0 -148.5 53.5t-54.5 155.5q0 120 70 205t186 85q53 0 99.5 -20t71.5 -58l-60 -56q-38 60 -113 60q-77 0 -125 -61t-48 -145q0 -72 35.5 -109t90.5 -37q70 0 125 58l56 -54q-74 -77 -185 -77z" />
    <glyph glyph-name="Ccircumflex" unicode="&#x108;" horiz-adv-x="678" 
d="M319 782l123 124h77l88 -124h-77l-55 75h-2l-76 -75h-78zM355 -6q-128 0 -205.5 78t-77.5 220q0 175 103 300t262 125q162 0 244 -137l-69 -57q-66 112 -179 112q-118 0 -195 -101.5t-77 -234.5q0 -107 52 -165.5t146 -58.5q105 0 197 87l52 -65q-105 -103 -253 -103z
" />
    <glyph glyph-name="ccircumflex" unicode="&#x109;" horiz-adv-x="489" 
d="M177 556l121 143h76l90 -143h-79l-51 90h-2l-73 -90h-82zM248 -6q-94 0 -148.5 53.5t-54.5 155.5q0 120 70 205t186 85q53 0 99.5 -20t71.5 -58l-60 -56q-38 60 -113 60q-77 0 -125 -61t-48 -145q0 -72 35.5 -109t90.5 -37q70 0 125 58l56 -54q-74 -77 -185 -77z" />
    <glyph glyph-name="Cdotaccent" unicode="&#x10a;" horiz-adv-x="678" 
d="M472 793q-24 0 -40 16t-16 40q0 25 16.5 41.5t41.5 16.5q24 0 40 -16t16 -40q0 -25 -16.5 -41.5t-41.5 -16.5zM355 -6q-128 0 -205.5 78t-77.5 220q0 175 103 300t262 125q162 0 244 -137l-69 -57q-66 112 -179 112q-118 0 -195 -101.5t-77 -234.5q0 -107 52 -165.5
t146 -58.5q105 0 197 87l52 -65q-105 -103 -253 -103z" />
    <glyph glyph-name="cdotaccent" unicode="&#x10b;" horiz-adv-x="489" 
d="M332 577q-24 0 -40 16t-16 40q0 25 16.5 41.5t41.5 16.5q24 0 40 -16t16 -40q0 -25 -16.5 -41.5t-41.5 -16.5zM248 -6q-94 0 -148.5 53.5t-54.5 155.5q0 120 70 205t186 85q53 0 99.5 -20t71.5 -58l-60 -56q-38 60 -113 60q-77 0 -125 -61t-48 -145q0 -72 35.5 -109
t90.5 -37q70 0 125 58l56 -54q-74 -77 -185 -77z" />
    <glyph glyph-name="Ccaron" unicode="&#x10c;" horiz-adv-x="678" 
d="M424 782l-87 124h77l54 -75h3l76 75h78l-123 -124h-78zM355 -6q-128 0 -205.5 78t-77.5 220q0 175 103 300t262 125q162 0 244 -137l-69 -57q-66 112 -179 112q-118 0 -195 -101.5t-77 -234.5q0 -107 52 -165.5t146 -58.5q105 0 197 87l52 -65q-105 -103 -253 -103z" />
    <glyph glyph-name="ccaron" unicode="&#x10d;" horiz-adv-x="489" 
d="M280 555l-84 139h76l52 -86h3l75 86h77l-121 -139h-78zM248 -6q-94 0 -148.5 53.5t-54.5 155.5q0 120 70 205t186 85q53 0 99.5 -20t71.5 -58l-60 -56q-38 60 -113 60q-77 0 -125 -61t-48 -145q0 -72 35.5 -109t90.5 -37q70 0 125 58l56 -54q-74 -77 -185 -77z" />
    <glyph glyph-name="Dcaron" unicode="&#x10e;" horiz-adv-x="687" 
d="M369 782l-87 124h77l54 -75h3l76 75h78l-123 -124h-78zM66 0l87 710h200q140 0 214.5 -77t74.5 -214q0 -188 -103 -303.5t-274 -115.5h-199zM161 77h111q126 0 203.5 96t77.5 245q0 100 -53.5 157.5t-152.5 57.5h-117z" />
    <glyph glyph-name="dcaron" unicode="&#x10f;" horiz-adv-x="609" 
d="M596 587l48 185h83l-70 -185h-61zM212 -6q-81 0 -124.5 55t-43.5 141q0 122 68.5 212.5t176.5 90.5q89 0 141 -53l2 1l36 295h80l-91 -736h-80l15 113l-3 1q-33 -57 -79 -88.5t-98 -31.5zM226 65q67 0 122 72t68 179l7 50q-40 53 -129 53q-75 0 -122 -69.5t-47 -161.5
q0 -56 26.5 -89.5t74.5 -33.5z" />
    <glyph glyph-name="Dcroat" unicode="&#x110;" horiz-adv-x="688" 
d="M354 710q140 0 214.5 -77t74.5 -214q0 -188 -103 -303.5t-274 -115.5h-199l39 317h-66l10 75h65l39 318h200zM273 77q126 0 203.5 96t77.5 245q0 100 -53.5 157.5t-152.5 57.5h-117l-30 -241h158l-10 -75h-157l-30 -240h111z" />
    <glyph glyph-name="dcroat" unicode="&#x111;" horiz-adv-x="547" 
d="M588 628l-8 -57h-52l-71 -571h-80l15 113l-3 1q-33 -57 -79 -88.5t-98 -31.5q-81 0 -124.5 55t-43.5 141q0 122 68.5 212.5t176.5 90.5q89 0 141 -53l2 1l16 130h-189l7 57h189l13 108h80l-13 -108h53zM416 316l7 50q-40 53 -129 53q-75 0 -122 -69.5t-47 -161.5
q0 -56 26.5 -89.5t74.5 -33.5q67 0 122 72t68 179z" />
    <glyph glyph-name="Emacron" unicode="&#x112;" 
d="M255 810l8 67h262l-8 -67h-262zM66 0l87 710h424l-10 -77h-338l-30 -241h309l-9 -77h-309l-29 -238h352l-9 -77h-438z" />
    <glyph glyph-name="emacron" unicode="&#x113;" horiz-adv-x="477" 
d="M443 665l-8 -69h-262l8 69h262zM250 67q72 0 126 58l56 -54q-73 -77 -185 -77q-93 0 -147.5 53.5t-54.5 155.5q0 119 70.5 204.5t186.5 85.5q64 0 108 -31t44 -92q0 -159 -330 -188q7 -55 42 -85t84 -30zM300 420q-62 0 -112 -47.5t-62 -125.5q248 21 248 116
q0 30 -21 43.5t-53 13.5z" />
    <glyph glyph-name="Ebreve" unicode="&#x114;" 
d="M382 777q-61 0 -91.5 34.5t-25.5 95.5h63q-3 -28 11 -48t46 -20t55 20.5t30 47.5h63q-12 -59 -53 -94.5t-98 -35.5zM66 0l87 710h424l-10 -77h-338l-30 -241h309l-9 -77h-309l-29 -238h352l-9 -77h-438z" />
    <glyph glyph-name="ebreve" unicode="&#x115;" horiz-adv-x="477" 
d="M300 553q-62 0 -92 36.5t-25 104.5l63 -1q-7 -78 56 -78q33 0 56 22.5t30 56.5l63 -1q-12 -65 -52.5 -102.5t-98.5 -37.5zM250 67q72 0 126 58l56 -54q-73 -77 -185 -77q-93 0 -147.5 53.5t-54.5 155.5q0 119 70.5 204.5t186.5 85.5q64 0 108 -31t44 -92
q0 -159 -330 -188q7 -55 42 -85t84 -30zM300 420q-62 0 -112 -47.5t-62 -125.5q248 21 248 116q0 30 -21 43.5t-53 13.5z" />
    <glyph glyph-name="Edotaccent" unicode="&#x116;" 
d="M389 794q-24 0 -40 16t-16 40q0 25 16.5 41.5t41.5 16.5q24 0 40 -16t16 -40q0 -25 -16.5 -41.5t-41.5 -16.5zM66 0l87 710h424l-10 -77h-338l-30 -241h309l-9 -77h-309l-29 -238h352l-9 -77h-438z" />
    <glyph glyph-name="edotaccent" unicode="&#x117;" horiz-adv-x="477" 
d="M310 577q-24 0 -40 16t-16 40q0 25 16.5 41.5t41.5 16.5q24 0 40 -16t16 -40q0 -25 -16.5 -41.5t-41.5 -16.5zM250 67q72 0 126 58l56 -54q-73 -77 -185 -77q-93 0 -147.5 53.5t-54.5 155.5q0 119 70.5 204.5t186.5 85.5q64 0 108 -31t44 -92q0 -159 -330 -188
q7 -55 42 -85t84 -30zM300 420q-62 0 -112 -47.5t-62 -125.5q248 21 248 116q0 30 -21 43.5t-53 13.5z" />
    <glyph glyph-name="Eogonek" unicode="&#x118;" 
d="M567 633h-338l-30 -241h309l-9 -77h-309l-29 -238h352l-9 -77h-2q-39 -16 -63.5 -42.5t-26.5 -53.5q0 -35 35 -35q28 0 45 10l2 -53q-23 -12 -65 -12q-41 0 -62.5 19t-20.5 54q1 61 69 113h-349l87 710h424z" />
    <glyph glyph-name="eogonek" unicode="&#x119;" horiz-adv-x="477" 
d="M250 67q72 0 126 58l56 -54q-50 -52 -120 -70q-39 -15 -65.5 -42.5t-26.5 -55.5q0 -34 37 -34q24 0 43 10l1 -53q-24 -12 -64 -12q-84 0 -84 71q0 30 18 59.5t47 50.5h-1q-80 9 -126 62t-46 146q0 119 70.5 204.5t186.5 85.5q64 0 108 -31t44 -92q0 -159 -330 -188
q7 -55 42 -85t84 -30zM300 420q-62 0 -112 -47.5t-62 -125.5q248 21 248 116q0 30 -21 43.5t-53 13.5z" />
    <glyph glyph-name="Ecaron" unicode="&#x11a;" 
d="M341 783l-87 124h77l54 -75h3l76 75h78l-123 -124h-78zM66 0l87 710h424l-10 -77h-338l-30 -241h309l-9 -77h-309l-29 -238h352l-9 -77h-438z" />
    <glyph glyph-name="ecaron" unicode="&#x11b;" horiz-adv-x="477" 
d="M336 555h-78l-84 139h76l52 -86h3l75 86h77zM454 370q0 -159 -330 -188q7 -55 42 -85t84 -30q72 0 126 58l56 -54q-73 -77 -185 -77q-93 0 -147.5 53.5t-54.5 155.5q0 119 70.5 204.5t186.5 85.5q64 0 108 -31t44 -92zM126 247q248 21 248 116q0 30 -21 43.5t-53 13.5
q-62 0 -112 -47.5t-62 -125.5z" />
    <glyph glyph-name="Gcircumflex" unicode="&#x11c;" horiz-adv-x="718" 
d="M310 782l123 124h77l88 -124h-77l-55 75h-2l-76 -75h-78zM360 -6q-132 0 -210 78t-78 220q0 176 103.5 300.5t263.5 124.5q158 0 241 -122l-69 -57q-65 97 -179 97q-79 0 -142 -49t-96 -125.5t-33 -161.5q0 -108 52.5 -167.5t149.5 -59.5q104 0 180 56l21 160h-180l11 77
h264l-35 -285q-47 -40 -119.5 -63t-144.5 -23z" />
    <glyph glyph-name="gcircumflex" unicode="&#x11d;" horiz-adv-x="559" 
d="M183 556l121 143h76l90 -143h-79l-51 90h-2l-73 -90h-82zM198 -204q-100 0 -173 43l36 68q62 -38 136 -38q79 0 125 42t61 158l8 61l-2 1q-35 -57 -81 -89.5t-97 -32.5q-81 0 -123.5 55t-42.5 141q0 113 68.5 200.5t174.5 87.5q90 0 139 -52l2 1l6 45h79l-52 -424
q-8 -64 -26 -111.5t-42 -77t-56.5 -47.5t-65.5 -24.5t-74 -6.5zM226 81q63 0 117.5 65.5t67.5 157.5l8 62q-22 26 -58 39.5t-68 13.5q-74 0 -121 -66.5t-47 -148.5q0 -56 26.5 -89.5t74.5 -33.5z" />
    <glyph glyph-name="Gbreve" unicode="&#x11e;" horiz-adv-x="718" 
d="M456 776q-61 0 -91.5 34.5t-25.5 95.5h63q-3 -28 11 -48t46 -20t55 20.5t30 47.5h63q-12 -59 -53 -94.5t-98 -35.5zM360 -6q-132 0 -210 78t-78 220q0 176 103.5 300.5t263.5 124.5q158 0 241 -122l-69 -57q-65 97 -179 97q-79 0 -142 -49t-96 -125.5t-33 -161.5
q0 -108 52.5 -167.5t149.5 -59.5q104 0 180 56l21 160h-180l11 77h264l-35 -285q-47 -40 -119.5 -63t-144.5 -23z" />
    <glyph glyph-name="gbreve" unicode="&#x11f;" horiz-adv-x="559" 
d="M328 553q-62 0 -92 36.5t-25 104.5l63 -1q-7 -78 56 -78q33 0 56 22.5t30 56.5l63 -1q-12 -65 -52.5 -102.5t-98.5 -37.5zM198 -204q-100 0 -173 43l36 68q62 -38 136 -38q79 0 125 42t61 158l8 61l-2 1q-35 -57 -81 -89.5t-97 -32.5q-81 0 -123.5 55t-42.5 141
q0 113 68.5 200.5t174.5 87.5q90 0 139 -52l2 1l6 45h79l-52 -424q-8 -64 -26 -111.5t-42 -77t-56.5 -47.5t-65.5 -24.5t-74 -6.5zM226 81q63 0 117.5 65.5t67.5 157.5l8 62q-22 26 -58 39.5t-68 13.5q-74 0 -121 -66.5t-47 -148.5q0 -56 26.5 -89.5t74.5 -33.5z" />
    <glyph glyph-name="Gdotaccent" unicode="&#x120;" horiz-adv-x="718" 
d="M463 793q-24 0 -40 16t-16 40q0 25 16.5 41.5t41.5 16.5q24 0 40 -16t16 -40q0 -25 -16.5 -41.5t-41.5 -16.5zM360 -6q-132 0 -210 78t-78 220q0 176 103.5 300.5t263.5 124.5q158 0 241 -122l-69 -57q-65 97 -179 97q-79 0 -142 -49t-96 -125.5t-33 -161.5
q0 -108 52.5 -167.5t149.5 -59.5q104 0 180 56l21 160h-180l11 77h264l-35 -285q-47 -40 -119.5 -63t-144.5 -23z" />
    <glyph glyph-name="gdotaccent" unicode="&#x121;" horiz-adv-x="559" 
d="M338 577q-24 0 -40 16t-16 40q0 25 16.5 41.5t41.5 16.5q24 0 40 -16t16 -40q0 -25 -16.5 -41.5t-41.5 -16.5zM198 -204q-100 0 -173 43l36 68q62 -38 136 -38q79 0 125 42t61 158l8 61l-2 1q-35 -57 -81 -89.5t-97 -32.5q-81 0 -123.5 55t-42.5 141q0 113 68.5 200.5
t174.5 87.5q90 0 139 -52l2 1l6 45h79l-52 -424q-8 -64 -26 -111.5t-42 -77t-56.5 -47.5t-65.5 -24.5t-74 -6.5zM226 81q63 0 117.5 65.5t67.5 157.5l8 62q-22 26 -58 39.5t-68 13.5q-74 0 -121 -66.5t-47 -148.5q0 -56 26.5 -89.5t74.5 -33.5z" />
    <glyph glyph-name="Gcommaaccent" unicode="&#x122;" horiz-adv-x="718" 
d="M360 -6q-132 0 -210 78t-78 220q0 176 103.5 300.5t263.5 124.5q158 0 241 -122l-69 -57q-65 97 -179 97q-79 0 -142 -49t-96 -125.5t-33 -161.5q0 -108 52.5 -167.5t149.5 -59.5q104 0 180 56l21 160h-180l11 77h264l-35 -285q-47 -40 -119.5 -63t-144.5 -23zM265 -212
l-12 49q34 8 49 28t15 59q0 4 -0.5 11t-0.5 11h71v-21q0 -60 -30.5 -96t-91.5 -41z" />
    <glyph glyph-name="gcommaaccent" unicode="&#x123;" horiz-adv-x="559" 
d="M421 715l12 -49q-34 -8 -49 -28t-15 -59q0 -4 0.5 -11t0.5 -11h-71v21q0 60 30.5 96t91.5 41zM198 -204q-100 0 -173 43l36 68q62 -38 136 -38q79 0 125 42t61 158l8 61l-2 1q-35 -57 -81 -89.5t-97 -32.5q-81 0 -123.5 55t-42.5 141q0 113 68.5 200.5t174.5 87.5
q90 0 139 -52l2 1l6 45h79l-52 -424q-8 -64 -26 -111.5t-42 -77t-56.5 -47.5t-65.5 -24.5t-74 -6.5zM226 81q63 0 117.5 65.5t67.5 157.5l8 62q-22 26 -58 39.5t-68 13.5q-74 0 -121 -66.5t-47 -148.5q0 -56 26.5 -89.5t74.5 -33.5z" />
    <glyph glyph-name="Hcircumflex" unicode="&#x124;" horiz-adv-x="689" 
d="M269 782l123 124h77l88 -124h-77l-55 75h-2l-76 -75h-78zM66 0l87 710h86l-41 -334h327l41 334h85l-87 -710h-86l37 299h-327l-36 -299h-86z" />
    <glyph glyph-name="hcircumflex" unicode="&#x125;" horiz-adv-x="554" 
d="M174 793l123 124h77l88 -124h-77l-55 75h-2l-76 -75h-78zM50 0l91 736h79l-45 -361h2q37 56 88 87t105 31q74 0 103.5 -49t16.5 -151l-39 -293h-80l39 287q10 70 -6.5 101.5t-58.5 31.5q-59 0 -120 -68.5t-72 -161.5l-23 -190h-80z" />
    <glyph glyph-name="Hbar" unicode="&#x126;" horiz-adv-x="690" 
d="M685 587l-7 -61h-49l-64 -526h-86l37 299h-327l-36 -299h-86l64 526h-55l8 61h55l15 123h86l-15 -123h327l15 123h85l-15 -123h48zM526 376l18 150h-327l-18 -150h327z" />
    <glyph glyph-name="hbar" unicode="&#x127;" horiz-adv-x="554" 
d="M370 493q74 0 103.5 -49t16.5 -151l-39 -293h-80l39 287q10 70 -6.5 101.5t-58.5 31.5q-59 0 -120 -68.5t-72 -161.5l-23 -190h-80l71 571h-71l7 57h71l13 108h79l-13 -108h176l-7 -57h-177l-24 -196h2q37 56 88 87t105 31z" />
    <glyph glyph-name="Itilde" unicode="&#x128;" horiz-adv-x="289" 
d="M289 781q-33 0 -78 35q-30 24 -48 24q-36 0 -60 -57l-51 26q42 90 105 90q10 0 18.5 -1.5t17.5 -6t12.5 -6t14.5 -9.5l10 -7q34 -28 52 -28q35 0 59 56l51 -20q-19 -45 -46 -70.5t-57 -25.5zM72 0l87 710h85l-87 -710h-85z" />
    <glyph glyph-name="itilde" unicode="&#x129;" horiz-adv-x="246" 
d="M234 565q-8 0 -15.5 2t-12.5 3.5t-12 6.5t-9.5 7l-10 8t-8.5 7q-29 25 -47 25q-33 0 -59 -57l-47 25q40 92 101 92q7 0 13.5 -0.5t13 -3t10 -3.5t10 -5.5t8 -5.5t8 -6t7.5 -6q3 -2 9.5 -7.5t10.5 -8t9 -6t10 -5t10 -1.5q34 0 57 56l48 -20q-19 -46 -46.5 -71.5
t-57.5 -25.5zM53 0l60 487h80l-60 -487h-80z" />
    <glyph glyph-name="Imacron" unicode="&#x12a;" horiz-adv-x="289" 
d="M84 809l8 67h262l-8 -67h-262zM72 0l87 710h85l-87 -710h-85z" />
    <glyph glyph-name="imacron" unicode="&#x12b;" horiz-adv-x="246" 
d="M36 596l8 69h262l-8 -69h-262zM53 0l60 487h80l-60 -487h-80z" />
    <glyph glyph-name="Ibreve" unicode="&#x12c;" horiz-adv-x="289" 
d="M211 776q-61 0 -91.5 34.5t-25.5 95.5h63q-3 -28 11 -48t46 -20t55 20.5t30 47.5h63q-12 -59 -53 -94.5t-98 -35.5zM72 0l87 710h85l-87 -710h-85z" />
    <glyph glyph-name="ibreve" unicode="&#x12d;" horiz-adv-x="246" 
d="M167 554q-52 0 -82 37t-25 103l60 -1q-4 -37 8.5 -59t40.5 -22q29 0 47.5 23t20.5 59l64 -1q-11 -65 -47 -102t-87 -37zM53 0l60 487h80l-60 -487h-80z" />
    <glyph glyph-name="Iogonek" unicode="&#x12e;" horiz-adv-x="289" 
d="M159 710h85l-87 -710h-1q-39 -16 -63.5 -42.5t-26.5 -53.5q0 -35 35 -35q28 0 45 10l2 -53q-23 -12 -65 -12q-41 0 -62.5 19t-20.5 54q1 64 72 115z" />
    <glyph glyph-name="iogonek" unicode="&#x12f;" horiz-adv-x="246" 
d="M175 691q24 0 40 -16t16 -40q0 -25 -16.5 -41.5t-41.5 -16.5q-24 0 -40 16t-16 40q0 25 16.5 41.5t41.5 16.5zM54 7l59 480h80l-60 -487h-2q-39 -16 -63.5 -42.5t-26.5 -53.5q0 -35 35 -35q28 0 45 10l2 -53q-23 -12 -65 -12q-41 0 -62.5 19t-20.5 54q1 66 79 120z" />
    <glyph glyph-name="Idotaccent" unicode="&#x130;" horiz-adv-x="289" 
d="M218 793q-24 0 -40 16t-16 40q0 25 16.5 41.5t41.5 16.5q24 0 40 -16t16 -40q0 -25 -16.5 -41.5t-41.5 -16.5zM72 0l87 710h85l-87 -710h-85z" />
    <glyph glyph-name="dotlessi" unicode="&#x131;" horiz-adv-x="246" 
d="M53 0l60 487h80l-60 -487h-80z" />
    <glyph glyph-name="IJ" unicode="&#x132;" horiz-adv-x="796" 
d="M72 0l87 710h85l-87 -710h-85zM490 -6q-132 0 -194 94l55 66q53 -79 137 -79q119 0 139 169l57 466h86l-58 -470q-30 -246 -222 -246z" />
    <glyph glyph-name="ij" unicode="&#x133;" horiz-adv-x="459" 
d="M173 577q-24 0 -40 16t-16 40q0 25 16.5 41.5t41.5 16.5q24 0 40 -16t16 -40q0 -25 -16.5 -41.5t-41.5 -16.5zM395 577q-24 0 -40 16t-16 40q0 25 16.5 41.5t41.5 16.5q24 0 40 -16t16 -40q0 -25 -16.5 -41.5t-41.5 -16.5zM53 0l60 487h80l-60 -487h-80zM210 -204
q-42 0 -73 21l20 64q21 -15 45 -15q29 0 46 21.5t23 76.5l64 523h80l-66 -533q-19 -158 -139 -158z" />
    <glyph glyph-name="Jcircumflex" unicode="&#x134;" horiz-adv-x="507" 
d="M301 782l123 124h77l88 -124h-77l-55 75h-2l-76 -75h-78zM201 -6q-132 0 -194 94l55 66q53 -79 137 -79q119 0 139 169l57 466h86l-58 -470q-30 -246 -222 -246z" />
    <glyph glyph-name="jcircumflex" unicode="&#x135;" horiz-adv-x="213" 
d="M-6 556l121 143h76l90 -143h-79l-51 90h-2l-73 -90h-82zM-36 -204q-41 0 -73 21l20 64q21 -15 45 -15q29 0 46 21.5t23 76.5l64 523h80l-66 -533q-19 -158 -139 -158z" />
    <glyph glyph-name="Kcommaaccent" unicode="&#x136;" horiz-adv-x="628" 
d="M647 710l-279 -316q66 -74 120.5 -180t81.5 -214h-89q-26 95 -73 185.5t-102 150.5l-130 -138l-24 -198h-86l87 710h86l-49 -394h2l349 394h106zM264 -76q0 4 -0.5 11t-0.5 11h71v-21q0 -60 -30.5 -96t-91.5 -41l-12 49q34 8 49 28t15 59z" />
    <glyph glyph-name="kcommaaccent" unicode="&#x137;" horiz-adv-x="502" 
d="M423 -5q-12 -2 -23 0q-18 2 -32.5 10.5t-23 16t-20.5 30.5t-17 34t-19 45l-24 55q-57 -45 -122 -77l-13 -109h-79l91 736h79l-67 -539l2 -1q91 54 154.5 131.5t89.5 159.5h80q-32 -134 -153 -250l35 -83q22 -54 39 -72.5t46 -24.5zM133 -212l-12 49q34 8 49 28t15 59
q0 4 -0.5 11t-0.5 11h71v-21q0 -60 -30.5 -96t-91.5 -41z" />
    <glyph glyph-name="kgreenlandic" unicode="&#x138;" horiz-adv-x="502" 
d="M423 -5q-12 -2 -23 0q-18 2 -32.5 10.5t-23 16t-20.5 30.5t-17 34t-19 45l-24 55q-57 -45 -122 -77l-13 -109h-79l60 487h79l-36 -288l3 -2q91 54 154 131t89 159h80q-32 -134 -153 -250l35 -83q22 -54 39 -72.5t46 -24.5z" />
    <glyph glyph-name="Lacute" unicode="&#x139;" horiz-adv-x="556" 
d="M263 782l119 129h92l-130 -129h-81zM66 0l87 710h86l-78 -633h339l-9 -77h-425z" />
    <glyph glyph-name="lacute" unicode="&#x13a;" horiz-adv-x="293" 
d="M151 795l119 129h92l-130 -129h-81zM172 -7q-59 0 -86 39.5t-18 113.5l73 590h79l-72 -585q-6 -41 6 -62t36 -21q36 0 70 27l16 -68q-43 -34 -104 -34z" />
    <glyph glyph-name="Lcommaaccent" unicode="&#x13b;" horiz-adv-x="556" 
d="M66 0l87 710h86l-78 -633h339l-9 -77h-425zM198 -212l-12 49q34 8 49 28t15 59q0 4 -0.5 11t-0.5 11h71v-21q0 -60 -30.5 -96t-91.5 -41z" />
    <glyph glyph-name="lcommaaccent" unicode="&#x13c;" horiz-adv-x="293" 
d="M172 -7q-59 0 -86 39.5t-18 113.5l73 590h79l-72 -585q-6 -41 6 -62t36 -21q36 0 70 27l16 -68q-43 -34 -104 -34zM60 -212l-12 49q34 8 49 28t15 59q0 4 -0.5 11t-0.5 11h71v-21q0 -60 -30.5 -96t-91.5 -41z" />
    <glyph glyph-name="Lcaron" unicode="&#x13d;" horiz-adv-x="556" 
d="M345 586l48 185h83l-70 -185h-61zM66 0l87 710h86l-78 -633h339l-9 -77h-425z" />
    <glyph glyph-name="lcaron" unicode="&#x13e;" horiz-adv-x="280" 
d="M266 587l48 185h83l-70 -185h-61zM172 -7q-59 0 -86 39.5t-18 113.5l73 590h79l-72 -585q-6 -41 6 -62t36 -21q36 0 70 27l16 -68q-43 -34 -104 -34z" />
    <glyph glyph-name="Ldot" unicode="&#x13f;" horiz-adv-x="556" 
d="M66 0l87 710h86l-78 -633h339l-9 -77h-425zM419 281q-24 0 -39.5 16t-15.5 40q0 25 16.5 42t41.5 17q24 0 40 -16t16 -40q0 -26 -17 -42.5t-42 -16.5z" />
    <glyph glyph-name="ldot" unicode="&#x140;" horiz-adv-x="347" 
d="M172 -7q-59 0 -86 39.5t-18 113.5l73 590h79l-72 -585q-6 -41 6 -62t36 -21q36 0 70 27l16 -68q-43 -34 -104 -34zM306 244q-24 0 -39.5 16t-15.5 40q0 25 16.5 42t41.5 17q24 0 40 -16t16 -40q0 -25 -16.5 -42t-42.5 -17z" />
    <glyph glyph-name="Lslash" unicode="&#x141;" horiz-adv-x="556" 
d="M162 77h339l-9 -77h-425l35 282l-81 -35l10 73l79 34l44 356h86l-39 -317l108 47l-9 -72l-108 -47z" />
    <glyph glyph-name="lslash" unicode="&#x142;" horiz-adv-x="304" 
d="M271 95l16 -68q-43 -34 -104 -34q-59 0 -86 39.5t-18 113.5l15 122l-69 -29l8 66l69 29l50 402h79l-45 -367l81 34l-8 -66l-81 -34l-19 -152q-6 -41 6 -62t36 -21q36 0 70 27z" />
    <glyph glyph-name="Nacute" unicode="&#x143;" horiz-adv-x="726" 
d="M349 782l119 129h92l-130 -129h-81zM66 0l87 710h85l292 -565l3 1l69 564h85l-88 -710h-83l-293 560h-3l-68 -560h-86z" />
    <glyph glyph-name="nacute" unicode="&#x144;" horiz-adv-x="554" 
d="M253 557l121 141l90 1l-128 -142h-83zM50 0l61 487h79l-14 -110l2 -1q38 56 88 86.5t104 30.5q74 0 103.5 -49t16.5 -151l-39 -293h-79l38 287q10 70 -6.5 101.5t-58.5 31.5q-59 0 -120 -67.5t-72 -160.5l-23 -192h-80z" />
    <glyph glyph-name="Ncommaaccent" unicode="&#x145;" horiz-adv-x="726" 
d="M66 0l87 710h85l292 -565l3 1l69 564h85l-88 -710h-83l-293 560h-3l-68 -560h-86zM244 -212l-12 49q34 8 49 28t15 59q0 4 -0.5 11t-0.5 11h71v-21q0 -60 -30.5 -96t-91.5 -41z" />
    <glyph glyph-name="ncommaaccent" unicode="&#x146;" horiz-adv-x="554" 
d="M50 0l61 487h79l-14 -110l2 -1q38 56 88 86.5t104 30.5q74 0 103.5 -49t16.5 -151l-39 -293h-79l38 287q10 70 -6.5 101.5t-58.5 31.5q-59 0 -120 -67.5t-72 -160.5l-23 -192h-80zM156 -212l-12 49q34 8 49 28t15 59q0 4 -0.5 11t-0.5 11h71v-21q0 -60 -30.5 -96
t-91.5 -41z" />
    <glyph glyph-name="Ncaron" unicode="&#x147;" horiz-adv-x="726" 
d="M395 782l-87 124h77l54 -75h3l76 75h78l-123 -124h-78zM66 0l87 710h85l292 -565l3 1l69 564h85l-88 -710h-83l-293 560h-3l-68 -560h-86z" />
    <glyph glyph-name="ncaron" unicode="&#x148;" horiz-adv-x="554" 
d="M289 555l-84 139h76l52 -86h3l75 86h77l-121 -139h-78zM50 0l61 487h79l-14 -110l2 -1q38 56 88 86.5t104 30.5q74 0 103.5 -49t16.5 -151l-39 -293h-79l38 287q10 70 -6.5 101.5t-58.5 31.5q-59 0 -120 -67.5t-72 -160.5l-23 -192h-80z" />
    <glyph glyph-name="napostrophe" unicode="&#x149;" horiz-adv-x="660" 
d="M38 516l48 194h83l-70 -194h-61zM157 0l61 487h79l-14 -110l2 -1q38 56 88 86.5t104 30.5q74 0 103.5 -49t16.5 -151l-39 -293h-79l38 287q10 70 -6.5 101.5t-58.5 31.5q-59 0 -120 -67.5t-72 -160.5l-23 -192h-80z" />
    <glyph glyph-name="Eng" unicode="&#x14a;" horiz-adv-x="726" 
d="M602 710h85l-89 -719q-12 -104 -62.5 -148.5t-135.5 -44.5q-36 0 -61 8l11 70q28 -7 48 -7q52 0 79.5 28.5t34.5 93.5l1 12l-290 557h-3l-68 -560h-86l87 710h85l292 -565l3 1z" />
    <glyph glyph-name="eng" unicode="&#x14b;" horiz-adv-x="549" 
d="M262 -204q-27 0 -50 8l13 63q15 -4 30 -4q47 0 75.5 33.5t39.5 116.5l36 274q17 133 -65 133q-59 0 -117.5 -67t-70.5 -160l-23 -193h-80l61 487h79l-14 -110h2q35 55 84 85.5t103 30.5q75 0 104.5 -49t16.5 -151l-39 -293q-27 -204 -185 -204z" />
    <glyph glyph-name="Omacron" unicode="&#x14c;" horiz-adv-x="764" 
d="M343 809l8 67h262l-8 -67h-262zM352 -6q-128 0 -204.5 79t-76.5 218q0 112 45 209t130 157t192 60q128 0 205.5 -79t77.5 -218q0 -178 -101.5 -302t-267.5 -124zM358 74q79 0 143 48.5t97.5 126.5t33.5 168q0 108 -53.5 164t-149.5 56q-116 0 -192.5 -103.5t-76.5 -240.5
q0 -106 53 -162.5t145 -56.5z" />
    <glyph glyph-name="omacron" unicode="&#x14d;" horiz-adv-x="547" 
d="M192 596l8 69h262l-8 -69h-262zM246 -6q-92 0 -147 54t-55 152q0 124 69.5 208.5t188.5 84.5q92 0 146.5 -53.5t54.5 -151.5q0 -126 -69 -210t-188 -84zM250 67q75 0 123.5 61.5t48.5 152.5q0 72 -35.5 105t-88.5 33q-75 0 -124 -62t-49 -150q0 -72 36 -106t89 -34z" />
    <glyph glyph-name="Obreve" unicode="&#x14e;" horiz-adv-x="764" 
d="M470 776q-61 0 -91.5 34.5t-25.5 95.5h63q-3 -28 11 -48t46 -20t55 20.5t30 47.5h63q-12 -59 -53 -94.5t-98 -35.5zM352 -6q-128 0 -204.5 79t-76.5 218q0 112 45 209t130 157t192 60q128 0 205.5 -79t77.5 -218q0 -178 -101.5 -302t-267.5 -124zM358 74q79 0 143 48.5
t97.5 126.5t33.5 168q0 108 -53.5 164t-149.5 56q-116 0 -192.5 -103.5t-76.5 -240.5q0 -106 53 -162.5t145 -56.5z" />
    <glyph glyph-name="obreve" unicode="&#x14f;" horiz-adv-x="547" 
d="M319 553q-62 0 -92 36.5t-25 104.5l63 -1q-7 -78 56 -78q33 0 56 22.5t30 56.5l63 -1q-12 -65 -52.5 -102.5t-98.5 -37.5zM246 -6q-92 0 -147 54t-55 152q0 124 69.5 208.5t188.5 84.5q92 0 146.5 -53.5t54.5 -151.5q0 -126 -69 -210t-188 -84zM250 67q75 0 123.5 61.5
t48.5 152.5q0 72 -35.5 105t-88.5 33q-75 0 -124 -62t-49 -150q0 -72 36 -106t89 -34z" />
    <glyph glyph-name="Ohungarumlaut" unicode="&#x150;" horiz-adv-x="764" 
d="M346 777l122 141l86 1l-129 -142h-79zM506 777l121 141l86 1l-129 -142h-78zM352 -6q-128 0 -204.5 79t-76.5 218q0 112 45 209t130 157t192 60q128 0 205.5 -79t77.5 -218q0 -178 -101.5 -302t-267.5 -124zM358 74q79 0 143 48.5t97.5 126.5t33.5 168q0 108 -53.5 164
t-149.5 56q-116 0 -192.5 -103.5t-76.5 -240.5q0 -106 53 -162.5t145 -56.5z" />
    <glyph glyph-name="ohungarumlaut" unicode="&#x151;" horiz-adv-x="547" 
d="M200 557l122 141l86 1l-129 -142h-79zM360 557l121 141l86 1l-129 -142h-78zM246 -6q-92 0 -147 54t-55 152q0 124 69.5 208.5t188.5 84.5q92 0 146.5 -53.5t54.5 -151.5q0 -126 -69 -210t-188 -84zM250 67q75 0 123.5 61.5t48.5 152.5q0 72 -35.5 105t-88.5 33
q-75 0 -124 -62t-49 -150q0 -72 36 -106t89 -34z" />
    <glyph glyph-name="OE" unicode="&#x152;" horiz-adv-x="913" 
d="M895 633h-337l-29 -241h306l-10 -77h-305l-30 -238h350l-9 -77h-480q-128 0 -204 78.5t-76 214.5q0 174 103 295.5t265 121.5h465zM358 78h50l69 556h-47q-118 0 -194 -100t-76 -239q0 -103 52.5 -160t145.5 -57z" />
    <glyph glyph-name="oe" unicode="&#x153;" horiz-adv-x="777" 
d="M563 67q72 0 127 58l55 -54q-73 -77 -182 -77q-125 0 -170 104h-3q-63 -104 -179 -104q-86 0 -135 55t-49 150q0 120 67.5 207t180.5 87q54 0 95 -26t57 -78h3q69 104 186 104q69 0 108 -32.5t39 -87.5q0 -82 -86.5 -131t-227.5 -60q4 -55 35.5 -85t78.5 -30zM374 274
q2 72 -26 109t-77 37q-69 0 -116 -65t-47 -153q0 -66 30.5 -100.5t78.5 -34.5q65 0 110 59.5t47 147.5zM616 420q-59 0 -105.5 -49t-58.5 -127q104 11 167 43.5t63 80.5q0 26 -18.5 39t-47.5 13z" />
    <glyph glyph-name="Racute" unicode="&#x154;" horiz-adv-x="614" 
d="M497 911l-130 -129h-81l119 129h92zM573 528q0 -95 -46.5 -158.5t-134.5 -84.5q104 -125 148 -285h-92q-49 160 -152 272h-111l-33 -272h-86l87 710h233q187 0 187 -182zM194 350h125q76 0 120.5 47.5t44.5 130.5q0 50 -32 77.5t-85 27.5h-138z" />
    <glyph glyph-name="racute" unicode="&#x155;" horiz-adv-x="385" 
d="M164 557l121 141l90 1l-128 -142h-83zM51 0l60 487h79l-14 -109h2q69 113 172 113q36 0 67 -13l-32 -74q-27 10 -60 10q-71 0 -116 -67t-56 -164l-23 -183h-79z" />
    <glyph glyph-name="Rcommaaccent" unicode="&#x156;" horiz-adv-x="614" 
d="M573 528q0 -95 -46.5 -158.5t-134.5 -84.5q104 -125 148 -285h-92q-49 160 -152 272h-111l-33 -272h-86l87 710h233q187 0 187 -182zM194 350h125q76 0 120.5 47.5t44.5 130.5q0 50 -32 77.5t-85 27.5h-138zM236 -76q0 4 -0.5 11t-0.5 11h71v-21q0 -60 -30.5 -96
t-91.5 -41l-12 49q34 8 49 28t15 59z" />
    <glyph glyph-name="rcommaaccent" unicode="&#x157;" horiz-adv-x="385" 
d="M51 0l60 487h79l-14 -109h2q69 113 172 113q36 0 67 -13l-32 -74q-27 10 -60 10q-71 0 -116 -67t-56 -164l-23 -183h-79zM-4 -212l-12 49q34 8 49 28t15 59q0 4 -0.5 11t-0.5 11h71v-21q0 -60 -30.5 -96t-91.5 -41z" />
    <glyph glyph-name="Rcaron" unicode="&#x158;" horiz-adv-x="614" 
d="M410 782h-78l-87 124h77l54 -75h3l76 75h78zM573 528q0 -95 -46.5 -158.5t-134.5 -84.5q104 -125 148 -285h-92q-49 160 -152 272h-111l-33 -272h-86l87 710h233q187 0 187 -182zM194 350h125q76 0 120.5 47.5t44.5 130.5q0 50 -32 77.5t-85 27.5h-138z" />
    <glyph glyph-name="rcaron" unicode="&#x159;" horiz-adv-x="385" 
d="M231 555l-84 139h76l52 -86h3l75 86h77l-121 -139h-78zM51 0l60 487h79l-14 -109h2q69 113 172 113q36 0 67 -13l-32 -74q-27 10 -60 10q-71 0 -116 -67t-56 -164l-23 -183h-79z" />
    <glyph glyph-name="Sacute" unicode="&#x15a;" horiz-adv-x="558" 
d="M299 782l119 129h92l-130 -129h-81zM265 -6q-163 0 -239 106l57 64q30 -42 78.5 -66.5t104.5 -24.5q64 0 103 33t39 85q0 22 -7.5 39t-28 33t-35.5 25t-51 28q-3 2 -5 3l-5 2.5l-5 2.5q-42 22 -64.5 36t-53.5 39.5t-45 56.5t-14 70q0 85 62.5 138t162.5 53q60 0 116 -22
t91 -64l-60 -59q-50 67 -149 67q-62 0 -98 -29.5t-36 -75.5q0 -41 30 -68t95 -61q10 -6 35 -19t36 -18.5t31 -18.5t29.5 -22t23 -23.5t19.5 -29t11 -33.5t5 -41q0 -94 -64 -150t-169 -56z" />
    <glyph glyph-name="sacute" unicode="&#x15b;" horiz-adv-x="417" 
d="M196 557l121 141l90 1l-128 -142h-83zM185 -6q-115 0 -169 63l46 58q48 -51 124 -51q43 0 71 18t28 49q0 27 -21 42.5t-68 36.5q-9 4 -14 6q-56 24 -87.5 55.5t-31.5 81.5q0 62 47.5 101t118.5 39q98 0 159 -60l-56 -58q-44 48 -110 48q-34 0 -56.5 -17.5t-22.5 -45.5
q0 -26 22.5 -44.5t65.5 -38.5q73 -35 96 -55q37 -35 38 -81q1 -70 -49.5 -108.5t-130.5 -38.5z" />
    <glyph glyph-name="Scircumflex" unicode="&#x15c;" horiz-adv-x="558" 
d="M188 782l123 124h77l88 -124h-77l-55 75h-2l-76 -75h-78zM265 -6q-163 0 -239 106l57 64q30 -42 78.5 -66.5t104.5 -24.5q64 0 103 33t39 85q0 22 -7.5 39t-28 33t-35.5 25t-51 28q-3 2 -5 3l-5 2.5l-5 2.5q-42 22 -64.5 36t-53.5 39.5t-45 56.5t-14 70q0 85 62.5 138
t162.5 53q60 0 116 -22t91 -64l-60 -59q-50 67 -149 67q-62 0 -98 -29.5t-36 -75.5q0 -41 30 -68t95 -61q10 -6 35 -19t36 -18.5t31 -18.5t29.5 -22t23 -23.5t19.5 -29t11 -33.5t5 -41q0 -94 -64 -150t-169 -56z" />
    <glyph glyph-name="scircumflex" unicode="&#x15d;" horiz-adv-x="417" 
d="M104 556l121 143h76l90 -143h-79l-51 90h-2l-73 -90h-82zM185 -6q-115 0 -169 63l46 58q48 -51 124 -51q43 0 71 18t28 49q0 27 -21 42.5t-68 36.5q-9 4 -14 6q-56 24 -87.5 55.5t-31.5 81.5q0 62 47.5 101t118.5 39q98 0 159 -60l-56 -58q-44 48 -110 48
q-34 0 -56.5 -17.5t-22.5 -45.5q0 -26 22.5 -44.5t65.5 -38.5q73 -35 96 -55q37 -35 38 -81q1 -70 -49.5 -108.5t-130.5 -38.5z" />
    <glyph glyph-name="Scedilla" unicode="&#x15e;" horiz-adv-x="558" 
d="M308 405q10 -6 35 -19t36 -18.5t31 -18.5t29.5 -22t23 -23.5t19.5 -29t11 -33.5t5 -41q0 -94 -64 -150t-169 -56h-2l-17 -27l1 -1q72 -5 72 -64q0 -42 -31.5 -66t-82.5 -24q-21 0 -44 6l3 43q15 -6 35 -6q28 0 46 12.5t18 34.5q0 31 -69 32l2 30l19 33q-126 16 -189 103
l57 64q30 -42 78.5 -66.5t104.5 -24.5q64 0 103 33t39 85q0 22 -7.5 39t-28 33t-35.5 25t-51 28q-3 2 -5 3l-5 2.5l-5 2.5q-42 22 -64.5 36t-53.5 39.5t-45 56.5t-14 70q0 85 62.5 138t162.5 53q60 0 116 -22t91 -64l-60 -59q-50 67 -149 67q-62 0 -98 -29.5t-36 -75.5
q0 -41 30 -68t95 -61z" />
    <glyph glyph-name="scedilla" unicode="&#x15f;" horiz-adv-x="417" 
d="M231 277q73 -35 96 -55q37 -35 38 -81q1 -70 -49.5 -108.5t-130.5 -38.5l-17 -27l1 -1q72 -5 72 -64q0 -42 -31.5 -66t-82.5 -24q-21 0 -44 6l3 43q15 -6 35 -6q28 0 46 12.5t18 34.5q0 31 -69 32l2 30l19 33q-81 13 -121 60l46 58q48 -51 124 -51q43 0 71 18t28 49
q0 27 -21 42.5t-68 36.5q-9 4 -14 6q-56 24 -87.5 55.5t-31.5 81.5q0 62 47.5 101t118.5 39q98 0 159 -60l-56 -58q-44 48 -110 48q-34 0 -56.5 -17.5t-22.5 -45.5q0 -26 22.5 -44.5t65.5 -38.5z" />
    <glyph glyph-name="Scaron" unicode="&#x160;" horiz-adv-x="558" 
d="M293 782l-87 124h77l54 -75h3l76 75h78l-123 -124h-78zM265 -6q-163 0 -239 106l57 64q30 -42 78.5 -66.5t104.5 -24.5q64 0 103 33t39 85q0 22 -7.5 39t-28 33t-35.5 25t-51 28q-3 2 -5 3l-5 2.5l-5 2.5q-42 22 -64.5 36t-53.5 39.5t-45 56.5t-14 70q0 85 62.5 138
t162.5 53q60 0 116 -22t91 -64l-60 -59q-50 67 -149 67q-62 0 -98 -29.5t-36 -75.5q0 -41 30 -68t95 -61q10 -6 35 -19t36 -18.5t31 -18.5t29.5 -22t23 -23.5t19.5 -29t11 -33.5t5 -41q0 -94 -64 -150t-169 -56z" />
    <glyph glyph-name="scaron" unicode="&#x161;" horiz-adv-x="417" 
d="M207 555l-84 139h76l52 -86h3l75 86h77l-121 -139h-78zM185 -6q-115 0 -169 63l46 58q48 -51 124 -51q43 0 71 18t28 49q0 27 -21 42.5t-68 36.5q-9 4 -14 6q-56 24 -87.5 55.5t-31.5 81.5q0 62 47.5 101t118.5 39q98 0 159 -60l-56 -58q-44 48 -110 48
q-34 0 -56.5 -17.5t-22.5 -45.5q0 -26 22.5 -44.5t65.5 -38.5q73 -35 96 -55q37 -35 38 -81q1 -70 -49.5 -108.5t-130.5 -38.5z" />
    <glyph glyph-name="uni0162" unicode="&#x162;" horiz-adv-x="531" 
d="M89 710h467l-9 -77h-192l-77 -633h-31l-20 -33l1 -1q72 -5 72 -64q0 -42 -31.5 -66t-82.5 -24q-22 0 -44 6l3 43q15 -6 35 -6q28 0 46 12.5t18 34.5q0 31 -69 32l2 30l21 36h-5l77 633h-190z" />
    <glyph glyph-name="uni0163" unicode="&#x163;" horiz-adv-x="371" 
d="M201 418l-33 -273q-10 -77 45 -77q44 0 92 42l22 -63q-46 -49 -125 -54l-16 -26l1 -1q72 -5 72 -64q0 -42 -31.5 -66t-82.5 -24q-21 0 -44 6l3 43q15 -6 35 -6q28 0 46 12.5t18 34.5q0 31 -69 32l2 30l19 34q-82 22 -68 139l35 281h-74l9 69h73l21 160l80 15l-21 -175
h153l-7 -69h-155z" />
    <glyph glyph-name="Tcaron" unicode="&#x164;" horiz-adv-x="531" 
d="M291 782l-87 124h77l54 -75h3l76 75h78l-123 -124h-78zM193 0l77 633h-190l9 77h467l-9 -77h-192l-77 -633h-85z" />
    <glyph glyph-name="tcaron" unicode="&#x165;" horiz-adv-x="371" 
d="M275 587l48 185h83l-70 -185h-61zM193 -7q-59 0 -86.5 37t-19.5 107l35 281h-74l9 69h73l21 160l80 15l-21 -175h153l-7 -69h-155l-33 -273q-10 -77 45 -77q44 0 92 42l22 -63q-50 -54 -134 -54z" />
    <glyph glyph-name="Tbar" unicode="&#x166;" horiz-adv-x="531" 
d="M547 633h-192l-30 -250h105l-7 -66h-106l-39 -317h-85l39 317h-104l7 66h105l30 250h-190l9 77h467z" />
    <glyph glyph-name="tbar" unicode="&#x167;" horiz-adv-x="371" 
d="M356 418h-155l-14 -117h100l-7 -56h-100l-12 -100q-10 -77 45 -77q44 0 92 42l22 -63q-50 -54 -134 -54q-59 0 -86.5 37t-19.5 107l13 108h-65l8 56h64l15 117h-74l9 69h73l21 160l80 15l-21 -175h153z" />
    <glyph glyph-name="Utilde" unicode="&#x168;" horiz-adv-x="672" 
d="M485 781q-33 0 -78 35q-30 24 -48 24q-36 0 -60 -57l-51 26q42 90 105 90q10 0 18.5 -1.5t17.5 -6t12.5 -6t14.5 -9.5l10 -7q34 -28 52 -28q35 0 59 56l51 -20q-19 -45 -46 -70.5t-57 -25.5zM306 -6q-125 0 -178.5 81t-35.5 221l51 414h85l-51 -413q-13 -101 19 -161.5
t114 -60.5q172 0 197 214l52 421h85l-52 -422q-35 -294 -286 -294z" />
    <glyph glyph-name="utilde" unicode="&#x169;" horiz-adv-x="539" 
d="M384 563q-8 0 -16.5 2t-14.5 4t-13.5 6.5t-11 7.5t-11 8.5t-9.5 6.5q-29 24 -48 24q-38 0 -62 -57l-51 26q41 96 106 96q8 0 16 -1.5t13.5 -3t12 -5.5t9.5 -6t10 -7.5t9 -6.5q3 -2 10.5 -7.5t11 -8t9.5 -6t11 -5t10 -1.5q37 0 61 56l51 -20q-39 -102 -103 -102zM192 -6
q-77 0 -110 47t-19 149l41 297h79l-39 -290q-10 -72 8.5 -101t61.5 -29q53 0 109 61t67 146l26 213h79l-59 -487h-80l14 110h-2q-31 -54 -76.5 -85t-99.5 -31z" />
    <glyph glyph-name="Umacron" unicode="&#x16a;" horiz-adv-x="672" 
d="M280 809l8 67h262l-8 -67h-262zM306 -6q-125 0 -178.5 81t-35.5 221l51 414h85l-51 -413q-13 -101 19 -161.5t114 -60.5q172 0 197 214l52 421h85l-52 -422q-35 -294 -286 -294z" />
    <glyph glyph-name="umacron" unicode="&#x16b;" horiz-adv-x="539" 
d="M180 596l8 69h262l-8 -69h-262zM192 -6q-77 0 -110 47t-19 149l41 297h79l-39 -290q-10 -72 8.5 -101t61.5 -29q53 0 109 61t67 146l26 213h79l-59 -487h-80l14 110h-2q-31 -54 -76.5 -85t-99.5 -31z" />
    <glyph glyph-name="Ubreve" unicode="&#x16c;" horiz-adv-x="672" 
d="M407 776q-61 0 -91.5 34.5t-25.5 95.5h63q-3 -28 11 -48t46 -20t55 20.5t30 47.5h63q-12 -59 -53 -94.5t-98 -35.5zM306 -6q-125 0 -178.5 81t-35.5 221l51 414h85l-51 -413q-13 -101 19 -161.5t114 -60.5q172 0 197 214l52 421h85l-52 -422q-35 -294 -286 -294z" />
    <glyph glyph-name="ubreve" unicode="&#x16d;" horiz-adv-x="539" 
d="M307 553q-62 0 -92 36.5t-25 104.5l63 -1q-7 -78 56 -78q33 0 56 22.5t30 56.5l63 -1q-12 -65 -52.5 -102.5t-98.5 -37.5zM192 -6q-77 0 -110 47t-19 149l41 297h79l-39 -290q-10 -72 8.5 -101t61.5 -29q53 0 109 61t67 146l26 213h79l-59 -487h-80l14 110h-2
q-31 -54 -76.5 -85t-99.5 -31z" />
    <glyph glyph-name="Uring" unicode="&#x16e;" horiz-adv-x="672" 
d="M413 770q-39 0 -65.5 26.5t-26.5 66.5t27.5 67t68.5 27q39 0 65.5 -26.5t26.5 -65.5q0 -41 -27.5 -68t-68.5 -27zM414 822q19 0 31.5 12t12.5 31q0 17 -12 29t-30 12q-19 0 -31.5 -12.5t-12.5 -30.5t12 -29.5t30 -11.5zM306 -6q-125 0 -178.5 81t-35.5 221l51 414h85
l-51 -413q-13 -101 19 -161.5t114 -60.5q172 0 197 214l52 421h85l-52 -422q-35 -294 -286 -294z" />
    <glyph glyph-name="uring" unicode="&#x16f;" horiz-adv-x="539" 
d="M315 546q-39 0 -65.5 26.5t-26.5 66.5t27.5 67t68.5 27q39 0 65.5 -26.5t26.5 -65.5q0 -41 -27.5 -68t-68.5 -27zM316 598q19 0 31.5 12t12.5 31q0 17 -12 29t-30 12q-19 0 -31.5 -12.5t-12.5 -30.5t12 -29.5t30 -11.5zM192 -6q-77 0 -110 47t-19 149l41 297h79l-39 -290
q-10 -72 8.5 -101t61.5 -29q53 0 109 61t67 146l26 213h79l-59 -487h-80l14 110h-2q-31 -54 -76.5 -85t-99.5 -31z" />
    <glyph glyph-name="Uhungarumlaut" unicode="&#x170;" horiz-adv-x="672" 
d="M283 777l122 141l86 1l-129 -142h-79zM443 777l121 141l86 1l-129 -142h-78zM306 -6q-125 0 -178.5 81t-35.5 221l51 414h85l-51 -413q-13 -101 19 -161.5t114 -60.5q172 0 197 214l52 421h85l-52 -422q-35 -294 -286 -294z" />
    <glyph glyph-name="uhungarumlaut" unicode="&#x171;" horiz-adv-x="539" 
d="M188 557l122 141l86 1l-129 -142h-79zM348 557l121 141l86 1l-129 -142h-78zM192 -6q-77 0 -110 47t-19 149l41 297h79l-39 -290q-10 -72 8.5 -101t61.5 -29q53 0 109 61t67 146l26 213h79l-59 -487h-80l14 110h-2q-31 -54 -76.5 -85t-99.5 -31z" />
    <glyph glyph-name="Uogonek" unicode="&#x172;" horiz-adv-x="672" 
d="M559 710h85l-52 -422q-29 -245 -208 -286q-42 -18 -69.5 -45t-28.5 -53q-1 -16 8.5 -25.5t25.5 -9.5q24 0 45 10l2 -53q-24 -12 -65 -12q-42 0 -63 20t-20 53q0 58 64 105l-1 3q-112 8 -159.5 88.5t-30.5 212.5l51 414h85l-51 -413q-13 -101 19 -161.5t114 -60.5
q172 0 197 214z" />
    <glyph glyph-name="uogonek" unicode="&#x173;" horiz-adv-x="539" 
d="M416 487h79l-59 -487h-2q-39 -16 -63.5 -42.5t-26.5 -53.5q0 -35 35 -35q28 0 45 10l2 -53q-23 -12 -65 -12q-41 0 -62.5 19t-20.5 54q1 66 79 120l13 103h-2q-31 -54 -76.5 -85t-99.5 -31q-77 0 -110 47t-19 149l41 297h79l-39 -290q-10 -72 8.5 -101t61.5 -29
q53 0 109 61t67 146z" />
    <glyph glyph-name="Wcircumflex" unicode="&#x174;" horiz-adv-x="936" 
d="M390 782l123 124h77l88 -124h-77l-55 75h-2l-76 -75h-78zM211 0l-118 710h87l87 -574h3l207 574h92l73 -570h2l225 570h89l-293 -710h-77l-80 580h-2l-212 -580h-83z" />
    <glyph glyph-name="wcircumflex" unicode="&#x175;" horiz-adv-x="781" 
d="M293 556l121 143h76l90 -143h-79l-51 90h-2l-73 -90h-82zM184 -6q-147 0 -120 204l38 289h79l-37 -284q-17 -136 66 -136q44 0 92 54.5t60 153.5l26 212h80l-35 -287q-17 -133 60 -133q47 0 96 55t69 152q22 99 3 213h82q20 -120 -6 -236q-28 -128 -99.5 -192.5
t-152.5 -64.5q-58 0 -91.5 31t-38.5 85h-2q-26 -51 -76.5 -83.5t-92.5 -32.5z" />
    <glyph glyph-name="Ycircumflex" unicode="&#x176;" horiz-adv-x="557" 
d="M196 782l123 124h77l88 -124h-77l-55 75h-2l-76 -75h-78zM205 0l39 317l-169 393h94l125 -310h3l202 310h99l-268 -393l-40 -317h-85z" />
    <glyph glyph-name="ycircumflex" unicode="&#x177;" horiz-adv-x="538" 
d="M317 646l-73 -90h-82l121 143h76l90 -143h-79l-51 90h-2zM417 487h78l-52 -424q-9 -79 -33.5 -133.5t-61 -82.5t-74.5 -39.5t-85 -11.5q-94 0 -170 42l36 69q61 -38 136 -38q71 0 115.5 42.5t58.5 157.5l5 40l-2 1q-31 -54 -77.5 -85t-102.5 -31q-154 0 -127 196l40 297
h79l-39 -290q-9 -72 9.5 -101t61.5 -29q57 0 113 64.5t66 151.5z" />
    <glyph glyph-name="Ydieresis" unicode="&#x178;" horiz-adv-x="557" 
d="M263 793q-24 0 -40 16t-16 40q0 25 17 41.5t42 16.5q23 0 39 -16t16 -40q0 -25 -16.5 -41.5t-41.5 -16.5zM434 793q-25 0 -41 16t-16 40q0 25 17 41.5t42 16.5q23 0 39 -16t16 -40q0 -25 -16.5 -41.5t-40.5 -16.5zM205 0l39 317l-169 393h94l125 -310h3l202 310h99
l-268 -393l-40 -317h-85z" />
    <glyph glyph-name="Zacute" unicode="&#x179;" horiz-adv-x="580" 
d="M269 782l119 129h92l-130 -129h-81zM32 0l8 68l409 562l-1 3h-322l9 77h433l-7 -68l-414 -561l2 -4h344l-10 -77h-451z" />
    <glyph glyph-name="zacute" unicode="&#x17a;" horiz-adv-x="448" 
d="M176 557l121 141l90 1l-128 -142h-83zM364 -26q-41 13 -103.5 19t-105.5 6.5t-145 0.5l6 58l294 359v1h-235l8 69h344l-6 -57l-296 -359v-2q183 -4 261 -29z" />
    <glyph glyph-name="Zdotaccent" unicode="&#x17b;" horiz-adv-x="580" 
d="M363 793q-24 0 -40 16t-16 40q0 25 16.5 41.5t41.5 16.5q24 0 40 -16t16 -40q0 -25 -16.5 -41.5t-41.5 -16.5zM32 0l8 68l409 562l-1 3h-322l9 77h433l-7 -68l-414 -561l2 -4h344l-10 -77h-451z" />
    <glyph glyph-name="zdotaccent" unicode="&#x17c;" horiz-adv-x="448" 
d="M273 577q-24 0 -40 16t-16 40q0 25 16.5 41.5t41.5 16.5q24 0 40 -16t16 -40q0 -25 -16.5 -41.5t-41.5 -16.5zM364 -26q-41 13 -103.5 19t-105.5 6.5t-145 0.5l6 58l294 359v1h-235l8 69h344l-6 -57l-296 -359v-2q183 -4 261 -29z" />
    <glyph glyph-name="Zcaron" unicode="&#x17d;" horiz-adv-x="580" 
d="M315 782l-87 124h77l54 -75h3l76 75h78l-123 -124h-78zM32 0l8 68l409 562l-1 3h-322l9 77h433l-7 -68l-414 -561l2 -4h344l-10 -77h-451z" />
    <glyph glyph-name="zcaron" unicode="&#x17e;" horiz-adv-x="448" 
d="M221 555l-84 139h76l52 -86h3l75 86h77l-121 -139h-78zM364 -26q-41 13 -103.5 19t-105.5 6.5t-145 0.5l6 58l294 359v1h-235l8 69h344l-6 -57l-296 -359v-2q183 -4 261 -29z" />
    <glyph glyph-name="longs" unicode="&#x17f;" horiz-adv-x="308" 
d="M75 0l51 418h-75l8 69h76l13 105q18 151 137 151q58 0 102 -30l-22 -68q-33 24 -68 24q-29 0 -47.5 -20.5t-24.5 -72.5l-71 -576h-79z" />
    <glyph glyph-name="uni018F" unicode="&#x18f;" horiz-adv-x="721" 
d="M401 717q127 0 202 -78.5t75 -218.5q0 -115 -42 -211t-123.5 -155.5t-188.5 -59.5q-124 0 -198.5 78t-74.5 213q0 36 9 81h527q3 26 3 51q0 107 -53.5 163.5t-144.5 56.5q-104 0 -188 -70l-51 64q108 86 248 86zM330 74q86 0 150 60t92 156h-436v-3q0 -101 52.5 -157
t141.5 -56z" />
    <glyph glyph-name="florin" unicode="&#x192;" horiz-adv-x="481" 
d="M46 -124q-85 0 -119 42l37 54q30 -23 70 -23q38 0 62.5 24t37.5 80l83 345h-72l18 70h73l28 119q38 156 159 156q80 0 119 -43l-37 -55q-30 24 -71 24q-70 0 -94 -103l-22 -98h133l-18 -70h-134l-88 -366q-19 -81 -59.5 -118.5t-105.5 -37.5z" />
    <glyph glyph-name="uni019D" unicode="&#x19d;" horiz-adv-x="709" 
d="M-1 -202q-34 0 -65 7l12 71q19 -7 43 -7q33 0 48 25t22 84l90 732h85l276 -565l3 1l72 564h85l-91 -710h-86l-275 560h-2l-74 -602q-11 -86 -45.5 -123t-97.5 -37z" />
    <glyph glyph-name="Ohorn" unicode="&#x1a0;" horiz-adv-x="810" 
d="M755 774h76l-12 -95q-19 -140 -111 -156q13 -50 13 -103q0 -178 -101.5 -302t-267.5 -124q-128 0 -204.5 79t-76.5 218q0 112 45 209t130 157t192 60q86 0 151.5 -37t99.5 -106q25 4 36.5 32t18.5 85zM358 74q79 0 143 48.5t97.5 126.5t33.5 168q0 108 -53.5 164
t-149.5 56q-116 0 -192.5 -103.5t-76.5 -240.5q0 -106 53 -162.5t145 -56.5z" />
    <glyph glyph-name="ohorn" unicode="&#x1a1;" horiz-adv-x="626" 
d="M565 565h76l-12 -95q-20 -152 -127 -158q1 -8 1 -24q0 -126 -69 -210t-188 -84q-92 0 -147 54t-55 152q0 124 69.5 208.5t188.5 84.5q72 0 122 -33.5t69 -95.5q28 1 41 29.5t20 88.5zM250 67q75 0 123.5 61.5t48.5 152.5q0 72 -35.5 105t-88.5 33q-75 0 -124 -62
t-49 -150q0 -72 36 -106t89 -34z" />
    <glyph glyph-name="Uhorn" unicode="&#x1af;" horiz-adv-x="740" 
d="M716 774h76l-12 -95q-21 -158 -136 -158q-7 0 -23 2l-29 -235q-35 -294 -286 -294q-125 0 -178.5 81t-35.5 221l51 414h85l-51 -413q-13 -101 19 -161.5t114 -60.5q172 0 197 214l52 421h85l-17 -136q5 -1 14 -1q30 0 43.5 28t20.5 90z" />
    <glyph glyph-name="uhorn" unicode="&#x1b0;" horiz-adv-x="619" 
d="M567 565h76l-12 -95q-21 -158 -136 -158q-5 0 -21 2l-38 -314h-80l14 110h-2q-31 -54 -76.5 -85t-99.5 -31q-77 0 -110 47t-19 149l41 297h79l-39 -290q-10 -72 8.5 -101t61.5 -29q53 0 109 61t67 146l26 213h79l-15 -122q4 -1 12 -1q30 0 43.5 28t20.5 90z" />
    <glyph glyph-name="uni01D0" unicode="&#x1d0;" horiz-adv-x="246" 
d="M121 555l-84 139h76l52 -86h3l75 86h77l-121 -139h-78zM53 0l60 487h80l-60 -487h-80z" />
    <glyph glyph-name="Gcaron" unicode="&#x1e6;" horiz-adv-x="718" 
d="M415 782l-87 124h77l54 -75h3l76 75h78l-123 -124h-78zM360 -6q-132 0 -210 78t-78 220q0 176 103.5 300.5t263.5 124.5q158 0 241 -122l-69 -57q-65 97 -179 97q-79 0 -142 -49t-96 -125.5t-33 -161.5q0 -108 52.5 -167.5t149.5 -59.5q104 0 180 56l21 160h-180l11 77
h264l-35 -285q-47 -40 -119.5 -63t-144.5 -23z" />
    <glyph glyph-name="gcaron" unicode="&#x1e7;" horiz-adv-x="559" 
d="M286 555l-84 139h76l52 -86h3l75 86h77l-121 -139h-78zM198 -204q-100 0 -173 43l36 68q62 -38 136 -38q79 0 125 42t61 158l8 61l-2 1q-35 -57 -81 -89.5t-97 -32.5q-81 0 -123.5 55t-42.5 141q0 113 68.5 200.5t174.5 87.5q90 0 139 -52l2 1l6 45h79l-52 -424
q-8 -64 -26 -111.5t-42 -77t-56.5 -47.5t-65.5 -24.5t-74 -6.5zM226 81q63 0 117.5 65.5t67.5 157.5l8 62q-22 26 -58 39.5t-68 13.5q-74 0 -121 -66.5t-47 -148.5q0 -56 26.5 -89.5t74.5 -33.5z" />
    <glyph glyph-name="uni01EA" unicode="&#x1ea;" horiz-adv-x="764" 
d="M406 -2q-37 -16 -60 -42t-25 -52q0 -35 35 -35q28 0 45 10l2 -53q-23 -12 -65 -12q-41 0 -62.5 19t-20.5 54q1 56 60 106v3q-113 11 -178.5 88.5t-65.5 206.5q0 112 45 209t130 157t192 60q128 0 205.5 -79t77.5 -218q0 -162 -85.5 -282t-229.5 -140zM160 293
q0 -106 53 -162.5t145 -56.5q79 0 143 48.5t97.5 126.5t33.5 168q0 108 -53.5 164t-149.5 56q-116 0 -192.5 -103.5t-76.5 -240.5z" />
    <glyph glyph-name="uni01EB" unicode="&#x1eb;" horiz-adv-x="547" 
d="M281 -4q-36 -16 -57.5 -41t-23.5 -51q0 -35 35 -35q28 0 45 10l2 -53q-23 -12 -65 -12q-41 0 -62.5 19t-20.5 54q1 57 63 108l-1 3q-71 14 -111.5 66t-40.5 136q0 124 69.5 208.5t188.5 84.5q92 0 146.5 -53.5t54.5 -151.5q0 -116 -59.5 -197.5t-162.5 -94.5zM125 207
q0 -72 36 -106t89 -34q75 0 123.5 61.5t48.5 152.5q0 72 -35.5 105t-88.5 33q-75 0 -124 -62t-49 -150z" />
    <glyph glyph-name="Aringacute" unicode="&#x1fa;" horiz-adv-x="628" 
d="M390 770q-39 0 -65.5 26.5t-26.5 66.5t27.5 67t68.5 27q43 0 69 -31l67 49h93l-137 -100v-10q0 -41 -27.5 -68t-68.5 -27zM393 906q-19 0 -31.5 -12.5t-12.5 -30.5t12 -29.5t30 -11.5q19 0 31.5 12t12.5 31q0 17 -12 29t-30 12zM326 710h90l155 -710h-89l-36 174h-281
l-78 -174h-89zM198 249h233l-73 354h-2z" />
    <glyph glyph-name="aringacute" unicode="&#x1fb;" horiz-adv-x="553" 
d="M341 546q-39 0 -65.5 26.5t-26.5 66.5t27.5 67t68.5 27q42 0 69 -30l64 45h94l-136 -96q1 -3 1 -11q0 -41 -27.5 -68t-68.5 -27zM344 682q-19 0 -31.5 -12.5t-12.5 -30.5t12 -29.5t30 -11.5q19 0 31.5 12t12.5 31q0 17 -12 29t-30 12zM428 442l6 44h79l-60 -486h-79
l14 111l-3 1q-72 -118 -174 -118q-81 0 -124 55t-43 141q0 123 68.5 213t175.5 90q88 0 137 -52zM413 316l6 50q-22 26 -58 39.5t-68 13.5q-75 0 -122 -69.5t-47 -161.5q0 -56 26.5 -89.5t74.5 -33.5q66 0 120.5 72t67.5 179z" />
    <glyph glyph-name="AEacute" unicode="&#x1fc;" horiz-adv-x="877" 
d="M443 782l119 129h92l-130 -129h-81zM-23 0l425 710h466l-9 -77h-337l-29 -241h306l-10 -77h-306l-29 -238h350l-9 -77h-433l21 174h-209l-103 -174h-94zM216 249h177l44 370h-1z" />
    <glyph glyph-name="aeacute" unicode="&#x1fd;" horiz-adv-x="695" 
d="M583 699l-128 -142h-83l121 141zM481 67q72 0 127 58l56 -54q-74 -77 -181 -77q-68 0 -112 32t-59 92q-23 -58 -62 -91.5t-88 -33.5q-63 0 -100 51t-37 133q0 124 73.5 217t192.5 93q68 0 117 -36q58 42 134 42q64 0 101.5 -32.5t37.5 -87.5q0 -82 -86.5 -131t-227.5 -60
q4 -55 35.5 -85t78.5 -30zM536 420q-60 0 -107 -49t-59 -127q104 11 167 43.5t63 80.5q0 26 -18.5 39t-45.5 13zM174 66q69 0 117 163q16 104 66 172q-26 13 -65 13q-85 0 -135 -75.5t-50 -168.5q0 -50 18.5 -77t48.5 -27z" />
    <glyph glyph-name="Oslashacute" unicode="&#x1fe;" horiz-adv-x="766" 
d="M621 911l-130 -129h-81l119 129h92zM745 687l-74 -80q52 -76 52 -187q0 -178 -101.5 -302t-267.5 -124q-115 0 -191 65l-75 -81l-44 44l78 84q-49 76 -49 185q0 112 45 209t130 157t192 60q117 0 190 -64l72 77zM162 293q0 -69 24 -119l385 416q-52 47 -140 47
q-116 0 -192.5 -103.5t-76.5 -240.5zM634 417q0 71 -25 123l-387 -417q52 -49 138 -49q79 0 143 48.5t97.5 126.5t33.5 168z" />
    <glyph glyph-name="oslashacute" unicode="&#x1ff;" horiz-adv-x="548" 
d="M487 699l-128 -142h-83l121 141zM527 466l-53 -55q31 -51 31 -123q0 -126 -69 -210t-188 -84q-83 0 -135 43l-54 -57l-38 37l57 59q-32 49 -32 124q0 124 69.5 208.5t188.5 84.5q81 0 135 -43l51 53zM127 207q0 -41 12 -68l243 253q-31 27 -82 27q-75 0 -124 -62
t-49 -150zM424 281q0 39 -11 67l-244 -253q32 -28 83 -28q75 0 123.5 61.5t48.5 152.5z" />
    <glyph glyph-name="Scommaaccent" unicode="&#x218;" horiz-adv-x="558" 
d="M265 -6q-163 0 -239 106l57 64q30 -42 78.5 -66.5t104.5 -24.5q64 0 103 33t39 85q0 22 -7.5 39t-28 33t-35.5 25t-51 28q-3 2 -5 3l-5 2.5l-5 2.5q-42 22 -64.5 36t-53.5 39.5t-45 56.5t-14 70q0 85 62.5 138t162.5 53q60 0 116 -22t91 -64l-60 -59q-50 67 -149 67
q-62 0 -98 -29.5t-36 -75.5q0 -41 30 -68t95 -61q10 -6 35 -19t36 -18.5t31 -18.5t29.5 -22t23 -23.5t19.5 -29t11 -33.5t5 -41q0 -94 -64 -150t-169 -56zM160 -212l-12 49q34 8 49 28t15 59q0 4 -0.5 11t-0.5 11h71v-21q0 -60 -30.5 -96t-91.5 -41z" />
    <glyph glyph-name="scommaaccent" unicode="&#x219;" horiz-adv-x="417" 
d="M185 -6q-115 0 -169 63l46 58q48 -51 124 -51q43 0 71 18t28 49q0 27 -21 42.5t-68 36.5q-9 4 -14 6q-56 24 -87.5 55.5t-31.5 81.5q0 62 47.5 101t118.5 39q98 0 159 -60l-56 -58q-44 48 -110 48q-34 0 -56.5 -17.5t-22.5 -45.5q0 -26 22.5 -44.5t65.5 -38.5
q73 -35 96 -55q37 -35 38 -81q1 -70 -49.5 -108.5t-130.5 -38.5zM82 -212l-12 49q34 8 49 28t15 59q0 4 -0.5 11t-0.5 11h71v-21q0 -60 -30.5 -96t-91.5 -41z" />
    <glyph glyph-name="uni021A" unicode="&#x21a;" horiz-adv-x="531" 
d="M193 0l77 633h-190l9 77h467l-9 -77h-192l-77 -633h-85zM141 -212l-12 49q34 8 49 28t15 59q0 4 -0.5 11t-0.5 11h71v-21q0 -60 -30.5 -96t-91.5 -41z" />
    <glyph glyph-name="uni021B" unicode="&#x21b;" horiz-adv-x="371" 
d="M193 -7q-59 0 -86.5 37t-19.5 107l35 281h-74l9 69h73l21 160l80 15l-21 -175h153l-7 -69h-155l-33 -273q-10 -77 45 -77q44 0 92 42l22 -63q-50 -54 -134 -54zM100 -212l-12 49q34 8 49 28t15 59q0 4 -0.5 11t-0.5 11h71v-21q0 -60 -30.5 -96t-91.5 -41z" />
    <glyph glyph-name="uni0232" unicode="&#x232;" horiz-adv-x="557" 
d="M215 809l8 67h262l-8 -67h-262zM205 0l39 317l-169 393h94l125 -310h3l202 310h99l-268 -393l-40 -317h-85z" />
    <glyph glyph-name="uni0233" unicode="&#x233;" horiz-adv-x="538" 
d="M450 665l-8 -69h-262l8 69h262zM417 487h78l-52 -424q-9 -79 -33.5 -133.5t-61 -82.5t-74.5 -39.5t-85 -11.5q-94 0 -170 42l36 69q61 -38 136 -38q71 0 115.5 42.5t58.5 157.5l5 40l-2 1q-31 -54 -77.5 -85t-102.5 -31q-154 0 -127 196l40 297h79l-39 -290
q-9 -72 9.5 -101t61.5 -29q57 0 113 64.5t66 151.5z" />
    <glyph glyph-name="uni0237" unicode="&#x237;" horiz-adv-x="213" 
d="M-36 -204q-41 0 -73 21l20 64q21 -15 45 -15q29 0 46 21.5t23 76.5l64 523h80l-66 -533q-19 -158 -139 -158z" />
    <glyph glyph-name="uni0259" unicode="&#x259;" horiz-adv-x="485" 
d="M249 493q87 0 140.5 -56.5t53.5 -152.5q0 -127 -68.5 -208.5t-190.5 -81.5q-65 0 -106 35.5t-41 92.5q0 49 28 85.5t77.5 58t103.5 33.5t118 16q-6 48 -37 76t-80 28q-65 0 -118 -45l-45 57q32 28 76.5 45t88.5 17zM191 67q72 0 116.5 50t54.5 131q-109 -9 -177 -39
t-68 -84q0 -27 20 -42.5t54 -15.5z" />
    <glyph glyph-name="uni0272" unicode="&#x272;" horiz-adv-x="554" 
d="M370 493q74 0 103.5 -49t16.5 -151l-39 -293h-79l38 287q10 70 -6.5 101.5t-58.5 31.5q-56 0 -114 -61t-75 -148l-26 -211q-14 -109 -52 -156.5t-113 -47.5q-27 0 -50 8l13 63q15 -4 30 -4q42 0 62 29t30 108l18 141l42 346h80l-14 -110l2 -1q38 56 88 86.5t104 30.5z
" />
    <glyph glyph-name="circumflex" unicode="&#x2c6;" horiz-adv-x="448" 
d="M116 540l121 143h76l90 -143h-79l-51 90h-2l-73 -90h-82z" />
    <glyph glyph-name="caron" unicode="&#x2c7;" horiz-adv-x="449" 
d="M219 539l-84 139h76l52 -86h3l75 86h77l-121 -139h-78z" />
    <glyph glyph-name="breve" unicode="&#x2d8;" horiz-adv-x="425" 
d="M249 537q-62 0 -92 36.5t-25 104.5l63 -1q-7 -78 56 -78q33 0 56 22.5t30 56.5l63 -1q-12 -65 -52.5 -102.5t-98.5 -37.5z" />
    <glyph glyph-name="dotaccent" unicode="&#x2d9;" horiz-adv-x="461" 
d="M276 561q-24 0 -40 16t-16 40q0 25 16.5 41.5t41.5 16.5q24 0 40 -16t16 -40q0 -25 -16.5 -41.5t-41.5 -16.5z" />
    <glyph glyph-name="ring" unicode="&#x2da;" horiz-adv-x="432" 
d="M260 523q-39 0 -65.5 26.5t-26.5 66.5t27.5 67t68.5 27q39 0 65.5 -26.5t26.5 -65.5q0 -41 -27.5 -68t-68.5 -27zM261 575q19 0 31.5 12t12.5 31q0 17 -12 29t-30 12q-19 0 -31.5 -12.5t-12.5 -30.5t12 -29.5t30 -11.5z" />
    <glyph glyph-name="ogonek" unicode="&#x2db;" horiz-adv-x="435" 
d="M199 -186q-41 0 -62.5 19t-20.5 54q1 36 26.5 70t63.5 57l66 -14q-39 -16 -63.5 -42.5t-26.5 -53.5q0 -35 35 -35q28 0 45 10l2 -53q-23 -12 -65 -12z" />
    <glyph glyph-name="tilde" unicode="&#x2dc;" horiz-adv-x="461" 
d="M343 547q-8 0 -16.5 2t-14.5 4t-13.5 6.5t-11 7.5t-11 8.5t-9.5 6.5q-29 24 -48 24q-38 0 -62 -57l-51 26q41 96 106 96q8 0 16 -1.5t13.5 -3t12 -5.5t9.5 -6t10 -7.5t9 -6.5q3 -2 10.5 -7.5t11 -8t9.5 -6t11 -5t10 -1.5q37 0 61 56l51 -20q-39 -102 -103 -102z" />
    <glyph glyph-name="hungarumlaut" unicode="&#x2dd;" horiz-adv-x="475" 
d="M101 541l122 141l86 1l-129 -142h-79zM261 541l121 141l86 1l-129 -142h-78z" />
    <glyph glyph-name="gravecomb" unicode="&#x300;" horiz-adv-x="0" 
d="M-460 541l-94 142l90 -1l87 -141h-83z" />
    <glyph glyph-name="acutecomb" unicode="&#x301;" horiz-adv-x="0" 
d="M-550 541l121 141l90 1l-128 -142h-83z" />
    <glyph glyph-name="uni0302" unicode="&#x302;" horiz-adv-x="0" 
d="M-608 540l121 143h76l90 -143h-79l-51 90h-2l-73 -90h-82z" />
    <glyph glyph-name="tildecomb" unicode="&#x303;" horiz-adv-x="0" 
d="M-387 547q-8 0 -16.5 2t-14.5 4t-13.5 6.5t-11 7.5t-11 8.5t-9.5 6.5q-29 24 -48 24q-38 0 -62 -57l-51 26q41 96 106 96q8 0 16 -1.5t13.5 -3t12 -5.5t9.5 -6t10 -7.5t9 -6.5q3 -2 10.5 -7.5t11 -8t9.5 -6t11 -5t10 -1.5q37 0 61 56l51 -20q-39 -102 -103 -102z" />
    <glyph glyph-name="uni0304" unicode="&#x304;" horiz-adv-x="0" 
d="M-590 580l8 69h262l-8 -69h-262z" />
    <glyph glyph-name="uni0306" unicode="&#x306;" horiz-adv-x="0" 
d="M-464 537q-62 0 -92 36.5t-25 104.5l63 -1q-7 -78 56 -78q33 0 56 22.5t30 56.5l63 -1q-12 -65 -52.5 -102.5t-98.5 -37.5z" />
    <glyph glyph-name="uni0307" unicode="&#x307;" horiz-adv-x="0" 
d="M-453 561q-24 0 -40 16t-16 40q0 25 16.5 41.5t41.5 16.5q24 0 40 -16t16 -40q0 -25 -16.5 -41.5t-41.5 -16.5z" />
    <glyph glyph-name="uni0308" unicode="&#x308;" horiz-adv-x="0" 
d="M-541 561q-24 0 -40 16t-16 40q0 25 17 41.5t42 16.5q23 0 39 -16t16 -40q0 -25 -16.5 -41.5t-41.5 -16.5zM-370 561q-25 0 -41 16t-16 40q0 25 17 41.5t42 16.5q23 0 39 -16t16 -40q0 -25 -16.5 -41.5t-40.5 -16.5z" />
    <glyph glyph-name="hookabovecomb" unicode="&#x309;" horiz-adv-x="0" 
d="M-443 537l-58 1q85 61 85 100q0 24 -33 24q-40 0 -84 -33l-12 44q52 44 120 44q32 0 52 -15.5t20 -45.5q0 -36 -28.5 -68t-61.5 -51z" />
    <glyph glyph-name="uni030A" unicode="&#x30a;" horiz-adv-x="0" 
d="M-455 530q-39 0 -65.5 26.5t-26.5 66.5t27.5 67t68.5 27q39 0 65.5 -26.5t26.5 -65.5q0 -41 -27.5 -68t-68.5 -27zM-454 582q19 0 31.5 12t12.5 31q0 17 -12 29t-30 12q-19 0 -31.5 -12.5t-12.5 -30.5t12 -29.5t30 -11.5z" />
    <glyph glyph-name="uni030B" unicode="&#x30b;" horiz-adv-x="0" 
d="M-582 541l122 141l86 1l-129 -142h-79zM-422 541l121 141l86 1l-129 -142h-78z" />
    <glyph glyph-name="uni030C" unicode="&#x30c;" horiz-adv-x="0" 
d="M-505 539l-84 139h76l52 -86h3l75 86h77l-121 -139h-78z" />
    <glyph glyph-name="uni0312" unicode="&#x312;" horiz-adv-x="0" 
d="M-490 540q-1 4 -1 22q0 60 31 95.5t91 41.5l12 -49q-34 -8 -48.5 -28t-14.5 -60q0 -13 1 -22h-71z" />
    <glyph glyph-name="uni0313" unicode="&#x313;" horiz-adv-x="0" 
d="M-494 692q1 -4 1 -22q0 -60 -31 -95.5t-91 -41.5l-12 49q34 8 48.5 28t14.5 60q0 13 -1 22h71z" />
    <glyph glyph-name="uni031B" unicode="&#x31b;" horiz-adv-x="0" 
d="M-450 457q-20 0 -45 7l13 50q14 -5 29 -5q30 0 43.5 28t20.5 90l11 83h76l-12 -95q-21 -158 -136 -158z" />
    <glyph glyph-name="dotbelowcomb" unicode="&#x323;" horiz-adv-x="0" 
d="M-549 -95q24 0 40 -16t16 -40q0 -25 -16.5 -41.5t-41.5 -16.5q-24 0 -40 16t-16 40q0 25 16.5 41.5t41.5 16.5z" />
    <glyph glyph-name="uni0326" unicode="&#x326;" horiz-adv-x="0" 
d="M-630 -212l-12 49q34 8 49 28t15 59q0 4 -0.5 11t-0.5 11h71v-21q0 -60 -30.5 -96t-91.5 -41z" />
    <glyph glyph-name="uni0327" unicode="&#x327;" horiz-adv-x="0" 
d="M-585 -188q-21 0 -44 6l3 43q15 -6 35 -6q28 0 46 12.5t18 34.5q0 31 -69 32l2 30l24 42h50l-24 -39l1 -1q72 -5 72 -64q0 -42 -31.5 -66t-82.5 -24z" />
    <glyph glyph-name="uni0328" unicode="&#x328;" horiz-adv-x="0" 
d="M-605 -186q-41 0 -62.5 19t-20.5 54q1 36 26.5 70t63.5 57l66 -14q-39 -16 -63.5 -42.5t-26.5 -53.5q0 -35 35 -35q28 0 45 10l2 -53q-23 -12 -65 -12z" />
    <glyph glyph-name="uni0335" unicode="&#x335;" horiz-adv-x="0" 
d="M-619 245l7 56h244l-8 -56h-243z" />
    <glyph glyph-name="Wgrave" unicode="&#x1e80;" horiz-adv-x="936" 
d="M490 781l-98 129h89l90 -129h-81zM211 0l-118 710h87l87 -574h3l207 574h92l73 -570h2l225 570h89l-293 -710h-77l-80 580h-2l-212 -580h-83z" />
    <glyph glyph-name="wgrave" unicode="&#x1e81;" horiz-adv-x="781" 
d="M392 557l-94 142l90 -1l87 -141h-83zM184 -6q-147 0 -120 204l38 289h79l-37 -284q-17 -136 66 -136q44 0 92 54.5t60 153.5l26 212h80l-35 -287q-17 -133 60 -133q47 0 96 55t69 152q22 99 3 213h82q20 -120 -6 -236q-28 -128 -99.5 -192.5t-152.5 -64.5q-58 0 -91.5 31
t-38.5 85h-2q-26 -51 -76.5 -83.5t-92.5 -32.5z" />
    <glyph glyph-name="Wacute" unicode="&#x1e82;" horiz-adv-x="936" 
d="M493 782l119 129h92l-130 -129h-81zM211 0l-118 710h87l87 -574h3l207 574h92l73 -570h2l225 570h89l-293 -710h-77l-80 580h-2l-212 -580h-83z" />
    <glyph glyph-name="wacute" unicode="&#x1e83;" horiz-adv-x="781" 
d="M394 557l121 141l90 1l-128 -142h-83zM184 -6q-147 0 -120 204l38 289h79l-37 -284q-17 -136 66 -136q44 0 92 54.5t60 153.5l26 212h80l-35 -287q-17 -133 60 -133q47 0 96 55t69 152q22 99 3 213h82q20 -120 -6 -236q-28 -128 -99.5 -192.5t-152.5 -64.5
q-58 0 -91.5 31t-38.5 85h-2q-26 -51 -76.5 -83.5t-92.5 -32.5z" />
    <glyph glyph-name="Wdieresis" unicode="&#x1e84;" horiz-adv-x="936" 
d="M457 793q-24 0 -40 16t-16 40q0 25 17 41.5t42 16.5q23 0 39 -16t16 -40q0 -25 -16.5 -41.5t-41.5 -16.5zM628 793q-25 0 -41 16t-16 40q0 25 17 41.5t42 16.5q23 0 39 -16t16 -40q0 -25 -16.5 -41.5t-40.5 -16.5zM211 0l-118 710h87l87 -574h3l207 574h92l73 -570h2
l225 570h89l-293 -710h-77l-80 580h-2l-212 -580h-83z" />
    <glyph glyph-name="wdieresis" unicode="&#x1e85;" horiz-adv-x="781" 
d="M360 577q-24 0 -40 16t-16 40q0 25 17 41.5t42 16.5q23 0 39 -16t16 -40q0 -25 -16.5 -41.5t-41.5 -16.5zM531 577q-25 0 -41 16t-16 40q0 25 17 41.5t42 16.5q23 0 39 -16t16 -40q0 -25 -16.5 -41.5t-40.5 -16.5zM184 -6q-147 0 -120 204l38 289h79l-37 -284
q-17 -136 66 -136q44 0 92 54.5t60 153.5l26 212h80l-35 -287q-17 -133 60 -133q47 0 96 55t69 152q22 99 3 213h82q20 -120 -6 -236q-28 -128 -99.5 -192.5t-152.5 -64.5q-58 0 -91.5 31t-38.5 85h-2q-26 -51 -76.5 -83.5t-92.5 -32.5z" />
    <glyph glyph-name="uni1E9E" unicode="&#x1e9e;" horiz-adv-x="719" 
d="M506 399q8 -5 38.5 -22t40 -23.5t33.5 -22.5t32.5 -27.5t21.5 -29.5t17.5 -38.5t4.5 -44.5q0 -91 -63 -144t-164 -53q-148 0 -218 98l57 64q29 -40 72 -62t90 -22q63 0 100 33t37 84q0 25 -9.5 44.5t-30.5 36t-38 26.5t-49 26q-59 31 -90 51l157 245l-1 4q-84 15 -158 15
q-87 0 -132 -35t-55 -115l-60 -487h-84l60 492q27 225 266 225q118 0 291 -42l-176 -270q6 -4 10 -6z" />
    <glyph glyph-name="uni1EA0" unicode="&#x1ea0;" horiz-adv-x="628" 
d="M-2 0l328 710h90l155 -710h-89l-36 174h-281l-78 -174h-89zM198 249h233l-73 354h-2zM270 -95q24 0 40 -16t16 -40q0 -25 -16.5 -41.5t-41.5 -16.5q-24 0 -40 16t-16 40q0 25 16.5 41.5t41.5 16.5z" />
    <glyph glyph-name="uni1EA1" unicode="&#x1ea1;" horiz-adv-x="555" 
d="M211 -6q-81 0 -124 55t-43 141q0 123 68.5 213t175.5 90q88 0 137 -52l3 1l6 44h79l-60 -486h-79l14 111l-3 1q-72 -118 -174 -118zM225 65q66 0 120.5 72t67.5 179l6 50q-22 26 -58 39.5t-68 13.5q-75 0 -122 -69.5t-47 -161.5q0 -56 26.5 -89.5t74.5 -33.5zM233 -95
q24 0 40 -16t16 -40q0 -25 -16.5 -41.5t-41.5 -16.5q-24 0 -40 16t-16 40q0 25 16.5 41.5t41.5 16.5z" />
    <glyph glyph-name="uni1EA2" unicode="&#x1ea2;" horiz-adv-x="628" 
d="M405 787l-58 1q85 61 85 100q0 24 -33 24q-40 0 -84 -33l-12 44q52 44 120 44q32 0 52 -15.5t20 -45.5q0 -36 -28.5 -68t-61.5 -51zM-2 0l328 710h90l155 -710h-89l-36 174h-281l-78 -174h-89zM198 249h233l-73 354h-2z" />
    <glyph glyph-name="uni1EA3" unicode="&#x1ea3;" horiz-adv-x="555" 
d="M355 553l-58 1q85 61 85 100q0 24 -33 24q-40 0 -84 -33l-12 44q52 44 120 44q32 0 52 -15.5t20 -45.5q0 -36 -28.5 -68t-61.5 -51zM211 -6q-81 0 -124 55t-43 141q0 123 68.5 213t175.5 90q88 0 137 -52l3 1l6 44h79l-60 -486h-79l14 111l-3 1q-72 -118 -174 -118z
M225 65q66 0 120.5 72t67.5 179l6 50q-22 26 -58 39.5t-68 13.5q-75 0 -122 -69.5t-47 -161.5q0 -56 26.5 -89.5t74.5 -33.5z" />
    <glyph glyph-name="uni1EA4" unicode="&#x1ea4;" horiz-adv-x="628" 
d="M521 840l115 134l88 1l-141 -135h-62zM239 782l123 124h77l88 -124h-77l-55 75h-2l-76 -75h-78zM-2 0l328 710h90l155 -710h-89l-36 174h-281l-78 -174h-89zM198 249h233l-73 354h-2z" />
    <glyph glyph-name="uni1EA5" unicode="&#x1ea5;" horiz-adv-x="555" 
d="M446 642l117 142h89l-144 -142h-62zM191 556l121 143h76l90 -143h-79l-51 90h-2l-73 -90h-82zM211 -6q-81 0 -124 55t-43 141q0 123 68.5 213t175.5 90q88 0 137 -52l3 1l6 44h79l-60 -486h-79l14 111l-3 1q-72 -118 -174 -118zM225 65q66 0 120.5 72t67.5 179l6 50
q-22 26 -58 39.5t-68 13.5q-75 0 -122 -69.5t-47 -161.5q0 -56 26.5 -89.5t74.5 -33.5z" />
    <glyph glyph-name="uni1EA6" unicode="&#x1ea6;" horiz-adv-x="628" 
d="M550 838l-95 135h82l72 -135h-59zM239 782l123 124h77l88 -124h-77l-55 75h-2l-76 -75h-78zM-2 0l328 710h90l155 -710h-89l-36 174h-281l-78 -174h-89zM198 249h233l-73 354h-2z" />
    <glyph glyph-name="uni1EA7" unicode="&#x1ea7;" horiz-adv-x="555" 
d="M482 643l-95 142h83l71 -142h-59zM191 556l121 143h76l90 -143h-79l-51 90h-2l-73 -90h-82zM211 -6q-81 0 -124 55t-43 141q0 123 68.5 213t175.5 90q88 0 137 -52l3 1l6 44h79l-60 -486h-79l14 111l-3 1q-72 -118 -174 -118zM225 65q66 0 120.5 72t67.5 179l6 50
q-22 26 -58 39.5t-68 13.5q-75 0 -122 -69.5t-47 -161.5q0 -56 26.5 -89.5t74.5 -33.5z" />
    <glyph glyph-name="uni1EA8" unicode="&#x1ea8;" horiz-adv-x="628" 
d="M576 845l-53 1q3 2 11 7.5t11.5 8t11 7.5t11 8.5t9.5 8.5t9 9t6 9t4.5 9.5t1.5 9.5q0 22 -30 22q-36 0 -78 -30l-11 40q53 39 110 39q30 0 48.5 -14t18.5 -42q0 -52 -80 -93zM239 782l123 124h77l88 -124h-77l-55 75h-2l-76 -75h-78zM-2 0l328 710h90l155 -710h-89
l-36 174h-281l-78 -174h-89zM198 249h233l-73 354h-2z" />
    <glyph glyph-name="uni1EA9" unicode="&#x1ea9;" horiz-adv-x="555" 
d="M523 647l-55 1q81 60 81 95q0 23 -31 23q-39 0 -80 -31l-12 42q50 42 115 42q30 0 49 -15t19 -44q0 -34 -27.5 -64.5t-58.5 -48.5zM191 556l121 143h76l90 -143h-79l-51 90h-2l-73 -90h-82zM211 -6q-81 0 -124 55t-43 141q0 123 68.5 213t175.5 90q88 0 137 -52l3 1l6 44
h79l-60 -486h-79l14 111l-3 1q-72 -118 -174 -118zM225 65q66 0 120.5 72t67.5 179l6 50q-22 26 -58 39.5t-68 13.5q-75 0 -122 -69.5t-47 -161.5q0 -56 26.5 -89.5t74.5 -33.5z" />
    <glyph glyph-name="uni1EAA" unicode="&#x1eaa;" horiz-adv-x="628" 
d="M479 926q-32 0 -75 33q-31 23 -46 23q-35 0 -58 -54l-49 24q40 86 101 86q8 0 16 -1.5t13 -3t12 -5t10 -5.5t10 -7t9 -6q31 -27 50 -27q33 0 57 53l49 -19q-40 -91 -99 -91zM239 782l123 124h77l88 -124h-77l-55 75h-2l-76 -75h-78zM-2 0l328 710h90l155 -710h-89
l-36 174h-281l-78 -174h-89zM198 249h233l-73 354h-2z" />
    <glyph glyph-name="uni1EAB" unicode="&#x1eab;" horiz-adv-x="555" 
d="M428 741q-8 0 -15.5 2t-12.5 3.5t-12 6.5t-9.5 7l-10 8t-8.5 7q-29 25 -47 25q-33 0 -59 -57l-47 25q40 92 101 92q7 0 13.5 -0.5t13 -3t10 -3.5t10 -5.5t8 -5.5t8 -6t7.5 -6q3 -2 9.5 -7.5t10.5 -8t9 -6t10 -5t10 -1.5q34 0 57 56l48 -20q-19 -46 -46.5 -71.5
t-57.5 -25.5zM192 556l121 143h76l90 -143h-79l-51 90h-2l-73 -90h-82zM211 -6q-81 0 -124 55t-43 141q0 123 68.5 213t175.5 90q88 0 137 -52l3 1l6 44h79l-60 -486h-79l14 111l-3 1q-72 -118 -174 -118zM225 65q66 0 120.5 72t67.5 179l6 50q-22 26 -58 39.5t-68 13.5
q-75 0 -122 -69.5t-47 -161.5q0 -56 26.5 -89.5t74.5 -33.5z" />
    <glyph glyph-name="uni1EAC" unicode="&#x1eac;" horiz-adv-x="628" 
d="M238 782l123 124h77l88 -124h-77l-55 75h-2l-76 -75h-78zM-2 0l328 710h90l155 -710h-89l-36 174h-281l-78 -174h-89zM198 249h233l-73 354h-2zM270 -95q24 0 40 -16t16 -40q0 -25 -16.5 -41.5t-41.5 -16.5q-24 0 -40 16t-16 40q0 25 16.5 41.5t41.5 16.5z" />
    <glyph glyph-name="uni1EAD" unicode="&#x1ead;" horiz-adv-x="555" 
d="M190 556l121 143h76l90 -143h-79l-51 90h-2l-73 -90h-82zM211 -6q-81 0 -124 55t-43 141q0 123 68.5 213t175.5 90q88 0 137 -52l3 1l6 44h79l-60 -486h-79l14 111l-3 1q-72 -118 -174 -118zM225 65q66 0 120.5 72t67.5 179l6 50q-22 26 -58 39.5t-68 13.5
q-75 0 -122 -69.5t-47 -161.5q0 -56 26.5 -89.5t74.5 -33.5zM233 -95q24 0 40 -16t16 -40q0 -25 -16.5 -41.5t-41.5 -16.5q-24 0 -40 16t-16 40q0 25 16.5 41.5t41.5 16.5z" />
    <glyph glyph-name="uni1EAE" unicode="&#x1eae;" horiz-adv-x="628" 
d="M367 892l115 135h89l-141 -135h-63zM385 773q-65 0 -97 32t-27 87h67q-3 -26 11.5 -44t48.5 -18t58.5 19t31.5 43h67q-13 -54 -56 -86.5t-104 -32.5zM-2 0l328 710h90l155 -710h-89l-36 174h-281l-78 -174h-89zM198 249h233l-73 354h-2z" />
    <glyph glyph-name="uni1EAF" unicode="&#x1eaf;" horiz-adv-x="555" 
d="M318 703l117 142h89l-144 -142h-62zM334 553q-62 0 -92 36.5t-25 104.5l63 -1q-7 -78 56 -78q33 0 56 22.5t30 56.5l63 -1q-12 -65 -52.5 -102.5t-98.5 -37.5zM211 -6q-81 0 -124 55t-43 141q0 123 68.5 213t175.5 90q88 0 137 -52l3 1l6 44h79l-60 -486h-79l14 111l-3 1
q-72 -118 -174 -118zM225 65q66 0 120.5 72t67.5 179l6 50q-22 26 -58 39.5t-68 13.5q-75 0 -122 -69.5t-47 -161.5q0 -56 26.5 -89.5t74.5 -33.5z" />
    <glyph glyph-name="uni1EB0" unicode="&#x1eb0;" horiz-adv-x="628" 
d="M373 892l-95 135h82l71 -135h-58zM385 773q-65 0 -97 32t-27 87h67q-3 -26 11.5 -44t48.5 -18t58.5 19t31.5 43h67q-13 -54 -56 -86.5t-104 -32.5zM-2 0l328 710h90l155 -710h-89l-36 174h-281l-78 -174h-89zM198 249h233l-73 354h-2z" />
    <glyph glyph-name="uni1EB1" unicode="&#x1eb1;" horiz-adv-x="555" 
d="M327 703l-95 142h83l71 -142h-59zM334 553q-62 0 -92 36.5t-25 104.5l63 -1q-7 -78 56 -78q33 0 56 22.5t30 56.5l63 -1q-12 -65 -52.5 -102.5t-98.5 -37.5zM211 -6q-81 0 -124 55t-43 141q0 123 68.5 213t175.5 90q88 0 137 -52l3 1l6 44h79l-60 -486h-79l14 111l-3 1
q-72 -118 -174 -118zM225 65q66 0 120.5 72t67.5 179l6 50q-22 26 -58 39.5t-68 13.5q-75 0 -122 -69.5t-47 -161.5q0 -56 26.5 -89.5t74.5 -33.5z" />
    <glyph glyph-name="uni1EB2" unicode="&#x1eb2;" horiz-adv-x="628" 
d="M418 890l-51 1q2 2 10.5 7.5t12 8l10.5 7.5t10.5 8t9.5 8.5t8.5 9t5.5 8.5t4.5 9.5t1.5 9.5q0 21 -29 21q-33 0 -76 -29l-11 39q49 38 108 38q65 0 65 -55q0 -50 -79 -91zM385 773q-65 0 -97 32t-27 87h67q-3 -26 11.5 -44t48.5 -18t58.5 19t31.5 43h67
q-13 -54 -56 -86.5t-104 -32.5zM-2 0l328 710h90l155 -710h-89l-36 174h-281l-78 -174h-89zM198 249h233l-73 354h-2z" />
    <glyph glyph-name="uni1EB3" unicode="&#x1eb3;" horiz-adv-x="555" 
d="M371 688l-55 1q81 60 81 95q0 23 -31 23q-39 0 -80 -31l-12 42q50 42 115 42q30 0 49 -15t19 -44q0 -34 -27.5 -64.5t-58.5 -48.5zM336 554q-63 0 -94 35t-26 100l65 -1q-4 -33 10 -54t47 -21q34 0 57.5 22t30.5 54l65 -1q-13 -63 -54.5 -98.5t-100.5 -35.5zM211 -6
q-81 0 -124 55t-43 141q0 123 68.5 213t175.5 90q88 0 137 -52l3 1l6 44h79l-60 -486h-79l14 111l-3 1q-72 -118 -174 -118zM225 65q66 0 120.5 72t67.5 179l6 50q-22 26 -58 39.5t-68 13.5q-75 0 -122 -69.5t-47 -161.5q0 -56 26.5 -89.5t74.5 -33.5z" />
    <glyph glyph-name="uni1EB4" unicode="&#x1eb4;" horiz-adv-x="628" 
d="M477 913q-32 0 -75 33q-31 23 -46 23q-35 0 -58 -54l-49 24q40 86 101 86q8 0 16 -1.5t13 -3t12 -5t10 -5.5t10 -7t9 -6q31 -27 50 -27q33 0 57 53l49 -19q-40 -91 -99 -91zM386 773q-65 0 -97 32t-27 87h67q-3 -26 11.5 -44t48.5 -18t58.5 19t31.5 43h67
q-13 -54 -56 -86.5t-104 -32.5zM-2 0l328 710h90l155 -710h-89l-36 174h-281l-78 -174h-89zM198 249h233l-73 354h-2z" />
    <glyph glyph-name="uni1EB5" unicode="&#x1eb5;" horiz-adv-x="555" 
d="M427 741q-8 0 -15.5 2t-12.5 3.5t-12 6.5t-9.5 7l-10 8t-8.5 7q-29 25 -47 25q-33 0 -59 -57l-47 25q40 92 101 92q7 0 13.5 -0.5t13 -3t10 -3.5t10 -5.5t8 -5.5t8 -6t7.5 -6q3 -2 9.5 -7.5t10.5 -8t9 -6t10 -5t10 -1.5q34 0 57 56l48 -20q-19 -46 -46.5 -71.5
t-57.5 -25.5zM333 553q-62 0 -92 36.5t-25 104.5l63 -1q-7 -78 56 -78q33 0 56 22.5t30 56.5l63 -1q-12 -65 -52.5 -102.5t-98.5 -37.5zM211 -6q-81 0 -124 55t-43 141q0 123 68.5 213t175.5 90q88 0 137 -52l3 1l6 44h79l-60 -486h-79l14 111l-3 1q-72 -118 -174 -118z
M225 65q66 0 120.5 72t67.5 179l6 50q-22 26 -58 39.5t-68 13.5q-75 0 -122 -69.5t-47 -161.5q0 -56 26.5 -89.5t74.5 -33.5z" />
    <glyph glyph-name="uni1EB6" unicode="&#x1eb6;" horiz-adv-x="628" 
d="M384 776q-61 0 -91.5 34.5t-25.5 95.5h63q-3 -28 11 -48t46 -20t55 20.5t30 47.5h63q-12 -59 -53 -94.5t-98 -35.5zM-2 0l328 710h90l155 -710h-89l-36 174h-281l-78 -174h-89zM198 249h233l-73 354h-2zM270 -95q24 0 40 -16t16 -40q0 -25 -16.5 -41.5t-41.5 -16.5
q-24 0 -40 16t-16 40q0 25 16.5 41.5t41.5 16.5z" />
    <glyph glyph-name="uni1EB7" unicode="&#x1eb7;" horiz-adv-x="555" 
d="M335 553q-62 0 -92 36.5t-25 104.5l63 -1q-7 -78 56 -78q33 0 56 22.5t30 56.5l63 -1q-12 -65 -52.5 -102.5t-98.5 -37.5zM211 -6q-81 0 -124 55t-43 141q0 123 68.5 213t175.5 90q88 0 137 -52l3 1l6 44h79l-60 -486h-79l14 111l-3 1q-72 -118 -174 -118zM225 65
q66 0 120.5 72t67.5 179l6 50q-22 26 -58 39.5t-68 13.5q-75 0 -122 -69.5t-47 -161.5q0 -56 26.5 -89.5t74.5 -33.5zM233 -95q24 0 40 -16t16 -40q0 -25 -16.5 -41.5t-41.5 -16.5q-24 0 -40 16t-16 40q0 25 16.5 41.5t41.5 16.5z" />
    <glyph glyph-name="uni1EB8" unicode="&#x1eb8;" 
d="M66 0l87 710h424l-10 -77h-338l-30 -241h309l-9 -77h-309l-29 -238h352l-9 -77h-438zM278 -95q24 0 40 -16t16 -40q0 -25 -16.5 -41.5t-41.5 -16.5q-24 0 -40 16t-16 40q0 25 16.5 41.5t41.5 16.5z" />
    <glyph glyph-name="uni1EB9" unicode="&#x1eb9;" horiz-adv-x="477" 
d="M250 67q72 0 126 58l56 -54q-73 -77 -185 -77q-93 0 -147.5 53.5t-54.5 155.5q0 119 70.5 204.5t186.5 85.5q64 0 108 -31t44 -92q0 -159 -330 -188q7 -55 42 -85t84 -30zM300 420q-62 0 -112 -47.5t-62 -125.5q248 21 248 116q0 30 -21 43.5t-53 13.5zM221 -95
q24 0 40 -16t16 -40q0 -25 -16.5 -41.5t-41.5 -16.5q-24 0 -40 16t-16 40q0 25 16.5 41.5t41.5 16.5z" />
    <glyph glyph-name="uni1EBA" unicode="&#x1eba;" 
d="M402 779l-57 1l12 8t12.5 8.5t12 8.5t12 9.5t10 9t9.5 10t6.5 9.5t5 10.5t1.5 10.5q0 24 -32 24q-38 0 -85 -33l-12 44q55 42 120 42q72 0 72 -61q0 -58 -87 -101zM66 0l87 710h424l-10 -77h-338l-30 -241h309l-9 -77h-309l-29 -238h352l-9 -77h-438z" />
    <glyph glyph-name="uni1EBB" unicode="&#x1ebb;" horiz-adv-x="477" 
d="M314 678q-40 0 -84 -33l-12 44q52 44 120 44q32 0 52 -15.5t20 -45.5q0 -36 -28.5 -68t-61.5 -51l-58 1q85 61 85 100q0 24 -33 24zM250 67q72 0 126 58l56 -54q-73 -77 -185 -77q-93 0 -147.5 53.5t-54.5 155.5q0 119 70.5 204.5t186.5 85.5q64 0 108 -31t44 -92
q0 -159 -330 -188q7 -55 42 -85t84 -30zM300 420q-62 0 -112 -47.5t-62 -125.5q248 21 248 116q0 30 -21 43.5t-53 13.5z" />
    <glyph glyph-name="uni1EBC" unicode="&#x1ebc;" 
d="M460 782q-33 0 -78 35q-30 24 -48 24q-36 0 -60 -57l-51 26q42 90 105 90q10 0 18.5 -1.5t17.5 -6t12.5 -6t13.5 -8.5l11 -8q34 -28 52 -28q35 0 59 56l51 -20q-19 -45 -46 -70.5t-57 -25.5zM66 0l87 710h424l-10 -77h-338l-30 -241h309l-9 -77h-309l-29 -238h352l-9 -77
h-438z" />
    <glyph glyph-name="uni1EBD" unicode="&#x1ebd;" horiz-adv-x="477" 
d="M253 622q-38 0 -62 -57l-51 26q41 96 106 96q8 0 16 -1.5t13.5 -3t12 -5.5t9.5 -6t10 -7.5t9 -6.5q3 -2 10.5 -7.5t11 -8t9.5 -6t11 -5t10 -1.5q37 0 61 56l51 -20q-39 -102 -103 -102q-8 0 -16.5 2t-14.5 4t-13.5 6.5t-11 7.5t-11 8.5t-9.5 6.5q-29 24 -48 24zM454 370
q0 -159 -330 -188q7 -55 42 -85t84 -30q72 0 126 58l56 -54q-73 -77 -185 -77q-93 0 -147.5 53.5t-54.5 155.5q0 119 70.5 204.5t186.5 85.5q64 0 108 -31t44 -92zM126 247q248 21 248 116q0 30 -21 43.5t-53 13.5q-62 0 -112 -47.5t-62 -125.5z" />
    <glyph glyph-name="uni1EBE" unicode="&#x1ebe;" 
d="M519 841l115 134l88 1l-141 -135h-62zM237 783l123 124h77l88 -124h-77l-55 75h-2l-76 -75h-78zM66 0l87 710h424l-10 -77h-338l-30 -241h309l-9 -77h-309l-29 -238h352l-9 -77h-438z" />
    <glyph glyph-name="uni1EBF" unicode="&#x1ebf;" horiz-adv-x="477" 
d="M528 784h89l-144 -142h-62zM311 646l-73 -90h-82l121 143h76l90 -143h-79l-51 90h-2zM454 370q0 -159 -330 -188q7 -55 42 -85t84 -30q72 0 126 58l56 -54q-73 -77 -185 -77q-93 0 -147.5 53.5t-54.5 155.5q0 119 70.5 204.5t186.5 85.5q64 0 108 -31t44 -92zM126 247
q248 21 248 116q0 30 -21 43.5t-53 13.5q-62 0 -112 -47.5t-62 -125.5z" />
    <glyph glyph-name="uni1EC0" unicode="&#x1ec0;" 
d="M548 839l-95 135h82l72 -135h-59zM237 783l123 124h77l88 -124h-77l-55 75h-2l-76 -75h-78zM66 0l87 710h424l-10 -77h-338l-30 -241h309l-9 -77h-309l-29 -238h352l-9 -77h-438z" />
    <glyph glyph-name="uni1EC1" unicode="&#x1ec1;" horiz-adv-x="477" 
d="M506 643h-59l-95 142h83zM311 646l-73 -90h-82l121 143h76l90 -143h-79l-51 90h-2zM454 370q0 -159 -330 -188q7 -55 42 -85t84 -30q72 0 126 58l56 -54q-73 -77 -185 -77q-93 0 -147.5 53.5t-54.5 155.5q0 119 70.5 204.5t186.5 85.5q64 0 108 -31t44 -92zM126 247
q248 21 248 116q0 30 -21 43.5t-53 13.5q-62 0 -112 -47.5t-62 -125.5z" />
    <glyph glyph-name="uni1EC2" unicode="&#x1ec2;" 
d="M574 846l-53 1q3 2 11 7.5t11.5 8t11 7.5t11 8.5t9.5 8.5t9 9t6 9t4.5 9.5t1.5 9.5q0 22 -30 22q-36 0 -78 -30l-11 40q53 39 110 39q30 0 48.5 -14t18.5 -42q0 -52 -80 -93zM237 783l123 124h77l88 -124h-77l-55 75h-2l-76 -75h-78zM66 0l87 710h424l-10 -77h-338
l-30 -241h309l-9 -77h-309l-29 -238h352l-9 -77h-438z" />
    <glyph glyph-name="uni1EC3" unicode="&#x1ec3;" horiz-adv-x="477" 
d="M506 819q30 0 49 -15t19 -44q0 -34 -27.5 -64.5t-58.5 -48.5l-55 1q81 60 81 95q0 23 -31 23q-39 0 -80 -31l-12 42q50 42 115 42zM311 646l-73 -90h-82l121 143h76l90 -143h-79l-51 90h-2zM454 370q0 -159 -330 -188q7 -55 42 -85t84 -30q72 0 126 58l56 -54
q-73 -77 -185 -77q-93 0 -147.5 53.5t-54.5 155.5q0 119 70.5 204.5t186.5 85.5q64 0 108 -31t44 -92zM126 247q248 21 248 116q0 30 -21 43.5t-53 13.5q-62 0 -112 -47.5t-62 -125.5z" />
    <glyph glyph-name="uni1EC4" unicode="&#x1ec4;" 
d="M477 927q-32 0 -75 33q-31 23 -46 23q-35 0 -58 -54l-49 24q40 86 101 86q8 0 16 -1.5t13 -3t12 -5t10 -5.5t10 -7t9 -6q31 -27 50 -27q33 0 57 53l49 -19q-40 -91 -99 -91zM237 783l123 124h77l88 -124h-77l-55 75h-2l-76 -75h-78zM66 0l87 710h424l-10 -77h-338
l-30 -241h309l-9 -77h-309l-29 -238h352l-9 -77h-438z" />
    <glyph glyph-name="uni1EC5" unicode="&#x1ec5;" horiz-adv-x="477" 
d="M449 858l48 -20q-19 -46 -46.5 -71.5t-57.5 -25.5q-8 0 -15.5 2t-12.5 3.5t-12 6.5t-9.5 7l-10 8t-8.5 7q-29 25 -47 25q-33 0 -59 -57l-47 25q40 92 101 92q7 0 13.5 -0.5t13 -3t10 -3.5t10 -5.5t8 -5.5t8 -6t7.5 -6q3 -2 9.5 -7.5t10.5 -8t9 -6t10 -5t10 -1.5
q34 0 57 56zM314 646h-2l-73 -90h-82l121 143h76l90 -143h-79zM454 370q0 -159 -330 -188q7 -55 42 -85t84 -30q72 0 126 58l56 -54q-73 -77 -185 -77q-93 0 -147.5 53.5t-54.5 155.5q0 119 70.5 204.5t186.5 85.5q64 0 108 -31t44 -92zM126 247q248 21 248 116
q0 30 -21 43.5t-53 13.5q-62 0 -112 -47.5t-62 -125.5z" />
    <glyph glyph-name="uni1EC6" unicode="&#x1ec6;" 
d="M236 783l123 124h77l88 -124h-77l-55 75h-2l-76 -75h-78zM66 0l87 710h424l-10 -77h-338l-30 -241h309l-9 -77h-309l-29 -238h352l-9 -77h-438zM278 -95q24 0 40 -16t16 -40q0 -25 -16.5 -41.5t-41.5 -16.5q-24 0 -40 16t-16 40q0 25 16.5 41.5t41.5 16.5z" />
    <glyph glyph-name="uni1EC7" unicode="&#x1ec7;" horiz-adv-x="477" 
d="M310 646l-73 -90h-82l121 143h76l90 -143h-79l-51 90h-2zM250 67q72 0 126 58l56 -54q-73 -77 -185 -77q-93 0 -147.5 53.5t-54.5 155.5q0 119 70.5 204.5t186.5 85.5q64 0 108 -31t44 -92q0 -159 -330 -188q7 -55 42 -85t84 -30zM300 420q-62 0 -112 -47.5t-62 -125.5
q248 21 248 116q0 30 -21 43.5t-53 13.5zM221 -95q24 0 40 -16t16 -40q0 -25 -16.5 -41.5t-41.5 -16.5q-24 0 -40 16t-16 40q0 25 16.5 41.5t41.5 16.5z" />
    <glyph glyph-name="uni1EC8" unicode="&#x1ec8;" horiz-adv-x="289" 
d="M231 778l-57 1l12 8t12.5 8.5t12 8.5t12 9.5t10 9t9.5 10t6.5 9.5t5 10.5t1.5 10.5q0 24 -32 24q-39 0 -85 -33l-12 44q55 42 120 42q72 0 72 -61q0 -57 -87 -101zM72 0l87 710h85l-87 -710h-85z" />
    <glyph glyph-name="uni1EC9" unicode="&#x1ec9;" horiz-adv-x="246" 
d="M183 553l-58 1q85 61 85 100q0 24 -33 24q-40 0 -84 -33l-12 44q52 44 120 44q32 0 52 -15.5t20 -45.5q0 -36 -28.5 -68t-61.5 -51zM53 0l60 487h80l-60 -487h-80z" />
    <glyph glyph-name="uni1ECA" unicode="&#x1eca;" horiz-adv-x="289" 
d="M72 0l87 710h85l-87 -710h-85zM96 -95q24 0 40 -16t16 -40q0 -25 -16.5 -41.5t-41.5 -16.5q-24 0 -40 16t-16 40q0 25 16.5 41.5t41.5 16.5z" />
    <glyph glyph-name="uni1ECB" unicode="&#x1ecb;" horiz-adv-x="246" 
d="M173 577q-24 0 -40 16t-16 40q0 25 16.5 41.5t41.5 16.5q24 0 40 -16t16 -40q0 -25 -16.5 -41.5t-41.5 -16.5zM53 0l60 487h80l-60 -487h-80zM75 -95q24 0 40 -16t16 -40q0 -25 -16.5 -41.5t-41.5 -16.5q-24 0 -40 16t-16 40q0 25 16.5 41.5t41.5 16.5z" />
    <glyph glyph-name="uni1ECC" unicode="&#x1ecc;" horiz-adv-x="764" 
d="M352 -6q-128 0 -204.5 79t-76.5 218q0 112 45 209t130 157t192 60q128 0 205.5 -79t77.5 -218q0 -178 -101.5 -302t-267.5 -124zM358 74q79 0 143 48.5t97.5 126.5t33.5 168q0 108 -53.5 164t-149.5 56q-116 0 -192.5 -103.5t-76.5 -240.5q0 -106 53 -162.5t145 -56.5z
M333 -95q24 0 40 -16t16 -40q0 -25 -16.5 -41.5t-41.5 -16.5q-24 0 -40 16t-16 40q0 25 16.5 41.5t41.5 16.5z" />
    <glyph glyph-name="uni1ECD" unicode="&#x1ecd;" horiz-adv-x="547" 
d="M246 -6q-92 0 -147 54t-55 152q0 124 69.5 208.5t188.5 84.5q92 0 146.5 -53.5t54.5 -151.5q0 -126 -69 -210t-188 -84zM250 67q75 0 123.5 61.5t48.5 152.5q0 72 -35.5 105t-88.5 33q-75 0 -124 -62t-49 -150q0 -72 36 -106t89 -34zM225 -95q24 0 40 -16t16 -40
q0 -25 -16.5 -41.5t-41.5 -16.5q-24 0 -40 16t-16 40q0 25 16.5 41.5t41.5 16.5z" />
    <glyph glyph-name="uni1ECE" unicode="&#x1ece;" horiz-adv-x="764" 
d="M490 778l-57 1l12 8t12.5 8.5t12 8.5t12 9.5t10 9t9.5 10t6.5 9.5t5 10.5t1.5 10.5q0 24 -32 24q-38 0 -85 -33l-12 44q55 42 120 42q72 0 72 -61q0 -57 -87 -101zM352 -6q-128 0 -204.5 79t-76.5 218q0 112 45 209t130 157t192 60q128 0 205.5 -79t77.5 -218
q0 -178 -101.5 -302t-267.5 -124zM358 74q79 0 143 48.5t97.5 126.5t33.5 168q0 108 -53.5 164t-149.5 56q-116 0 -192.5 -103.5t-76.5 -240.5q0 -106 53 -162.5t145 -56.5z" />
    <glyph glyph-name="uni1ECF" unicode="&#x1ecf;" horiz-adv-x="547" 
d="M339 553l-58 1q85 61 85 100q0 24 -33 24q-40 0 -84 -33l-12 44q52 44 120 44q32 0 52 -15.5t20 -45.5q0 -36 -28.5 -68t-61.5 -51zM246 -6q-92 0 -147 54t-55 152q0 124 69.5 208.5t188.5 84.5q92 0 146.5 -53.5t54.5 -151.5q0 -126 -69 -210t-188 -84zM250 67
q75 0 123.5 61.5t48.5 152.5q0 72 -35.5 105t-88.5 33q-75 0 -124 -62t-49 -150q0 -72 36 -106t89 -34z" />
    <glyph glyph-name="uni1ED0" unicode="&#x1ed0;" horiz-adv-x="764" 
d="M607 840l115 134l88 1l-141 -135h-62zM325 782l123 124h77l88 -124h-77l-55 75h-2l-76 -75h-78zM352 -6q-128 0 -204.5 79t-76.5 218q0 112 45 209t130 157t192 60q128 0 205.5 -79t77.5 -218q0 -178 -101.5 -302t-267.5 -124zM358 74q79 0 143 48.5t97.5 126.5t33.5 168
q0 108 -53.5 164t-149.5 56q-116 0 -192.5 -103.5t-76.5 -240.5q0 -106 53 -162.5t145 -56.5z" />
    <glyph glyph-name="uni1ED1" unicode="&#x1ed1;" horiz-adv-x="547" 
d="M430 642l117 142h89l-144 -142h-62zM175 556l121 143h76l90 -143h-79l-51 90h-2l-73 -90h-82zM246 -6q-92 0 -147 54t-55 152q0 124 69.5 208.5t188.5 84.5q92 0 146.5 -53.5t54.5 -151.5q0 -126 -69 -210t-188 -84zM250 67q75 0 123.5 61.5t48.5 152.5q0 72 -35.5 105
t-88.5 33q-75 0 -124 -62t-49 -150q0 -72 36 -106t89 -34z" />
    <glyph glyph-name="uni1ED2" unicode="&#x1ed2;" horiz-adv-x="764" 
d="M636 838l-95 135h82l72 -135h-59zM325 782l123 124h77l88 -124h-77l-55 75h-2l-76 -75h-78zM352 -6q-128 0 -204.5 79t-76.5 218q0 112 45 209t130 157t192 60q128 0 205.5 -79t77.5 -218q0 -178 -101.5 -302t-267.5 -124zM358 74q79 0 143 48.5t97.5 126.5t33.5 168
q0 108 -53.5 164t-149.5 56q-116 0 -192.5 -103.5t-76.5 -240.5q0 -106 53 -162.5t145 -56.5z" />
    <glyph glyph-name="uni1ED3" unicode="&#x1ed3;" horiz-adv-x="547" 
d="M466 643l-95 142h83l71 -142h-59zM175 556l121 143h76l90 -143h-79l-51 90h-2l-73 -90h-82zM246 -6q-92 0 -147 54t-55 152q0 124 69.5 208.5t188.5 84.5q92 0 146.5 -53.5t54.5 -151.5q0 -126 -69 -210t-188 -84zM250 67q75 0 123.5 61.5t48.5 152.5q0 72 -35.5 105
t-88.5 33q-75 0 -124 -62t-49 -150q0 -72 36 -106t89 -34z" />
    <glyph glyph-name="uni1ED4" unicode="&#x1ed4;" horiz-adv-x="764" 
d="M662 845l-53 1q3 2 11 7.5t11.5 8t11 7.5t11 8.5t9.5 8.5t9 9t6 9t4.5 9.5t1.5 9.5q0 22 -30 22q-36 0 -78 -30l-11 40q53 39 110 39q30 0 48.5 -14t18.5 -42q0 -52 -80 -93zM325 782l123 124h77l88 -124h-77l-55 75h-2l-76 -75h-78zM352 -6q-128 0 -204.5 79t-76.5 218
q0 112 45 209t130 157t192 60q128 0 205.5 -79t77.5 -218q0 -178 -101.5 -302t-267.5 -124zM358 74q79 0 143 48.5t97.5 126.5t33.5 168q0 108 -53.5 164t-149.5 56q-116 0 -192.5 -103.5t-76.5 -240.5q0 -106 53 -162.5t145 -56.5z" />
    <glyph glyph-name="uni1ED5" unicode="&#x1ed5;" horiz-adv-x="547" 
d="M507 647l-55 1q81 60 81 95q0 23 -31 23q-39 0 -80 -31l-12 42q50 42 115 42q30 0 49 -15t19 -44q0 -34 -27.5 -64.5t-58.5 -48.5zM175 556l121 143h76l90 -143h-79l-51 90h-2l-73 -90h-82zM246 -6q-92 0 -147 54t-55 152q0 124 69.5 208.5t188.5 84.5q92 0 146.5 -53.5
t54.5 -151.5q0 -126 -69 -210t-188 -84zM250 67q75 0 123.5 61.5t48.5 152.5q0 72 -35.5 105t-88.5 33q-75 0 -124 -62t-49 -150q0 -72 36 -106t89 -34z" />
    <glyph glyph-name="uni1ED6" unicode="&#x1ed6;" horiz-adv-x="764" 
d="M565 926q-32 0 -75 33q-31 23 -46 23q-35 0 -58 -54l-49 24q40 86 101 86q8 0 16 -1.5t13 -3t12 -5t10 -5.5t10 -7t9 -6q31 -27 50 -27q33 0 57 53l49 -19q-40 -91 -99 -91zM325 782l123 124h77l88 -124h-77l-55 75h-2l-76 -75h-78zM352 -6q-128 0 -204.5 79t-76.5 218
q0 112 45 209t130 157t192 60q128 0 205.5 -79t77.5 -218q0 -178 -101.5 -302t-267.5 -124zM358 74q79 0 143 48.5t97.5 126.5t33.5 168q0 108 -53.5 164t-149.5 56q-116 0 -192.5 -103.5t-76.5 -240.5q0 -106 53 -162.5t145 -56.5z" />
    <glyph glyph-name="uni1ED7" unicode="&#x1ed7;" horiz-adv-x="547" 
d="M412 741q-8 0 -15.5 2t-12.5 3.5t-12 6.5t-9.5 7l-10 8t-8.5 7q-29 25 -47 25q-33 0 -59 -57l-47 25q40 92 101 92q7 0 13.5 -0.5t13 -3t10 -3.5t10 -5.5t8 -5.5t8 -6t7.5 -6q3 -2 9.5 -7.5t10.5 -8t9 -6t10 -5t10 -1.5q34 0 57 56l48 -20q-19 -46 -46.5 -71.5
t-57.5 -25.5zM176 556l121 143h76l90 -143h-79l-51 90h-2l-73 -90h-82zM246 -6q-92 0 -147 54t-55 152q0 124 69.5 208.5t188.5 84.5q92 0 146.5 -53.5t54.5 -151.5q0 -126 -69 -210t-188 -84zM250 67q75 0 123.5 61.5t48.5 152.5q0 72 -35.5 105t-88.5 33q-75 0 -124 -62
t-49 -150q0 -72 36 -106t89 -34z" />
    <glyph glyph-name="uni1ED8" unicode="&#x1ed8;" horiz-adv-x="764" 
d="M324 782l123 124h77l88 -124h-77l-55 75h-2l-76 -75h-78zM352 -6q-128 0 -204.5 79t-76.5 218q0 112 45 209t130 157t192 60q128 0 205.5 -79t77.5 -218q0 -178 -101.5 -302t-267.5 -124zM358 74q79 0 143 48.5t97.5 126.5t33.5 168q0 108 -53.5 164t-149.5 56
q-116 0 -192.5 -103.5t-76.5 -240.5q0 -106 53 -162.5t145 -56.5zM333 -95q24 0 40 -16t16 -40q0 -25 -16.5 -41.5t-41.5 -16.5q-24 0 -40 16t-16 40q0 25 16.5 41.5t41.5 16.5z" />
    <glyph glyph-name="uni1ED9" unicode="&#x1ed9;" horiz-adv-x="547" 
d="M174 556l121 143h76l90 -143h-79l-51 90h-2l-73 -90h-82zM246 -6q-92 0 -147 54t-55 152q0 124 69.5 208.5t188.5 84.5q92 0 146.5 -53.5t54.5 -151.5q0 -126 -69 -210t-188 -84zM250 67q75 0 123.5 61.5t48.5 152.5q0 72 -35.5 105t-88.5 33q-75 0 -124 -62t-49 -150
q0 -72 36 -106t89 -34zM225 -95q24 0 40 -16t16 -40q0 -25 -16.5 -41.5t-41.5 -16.5q-24 0 -40 16t-16 40q0 25 16.5 41.5t41.5 16.5z" />
    <glyph glyph-name="uni1EDA" unicode="&#x1eda;" horiz-adv-x="810" 
d="M628 911l-130 -129h-81l119 129h92zM755 774h76l-12 -95q-19 -140 -111 -156q13 -50 13 -103q0 -178 -101.5 -302t-267.5 -124q-128 0 -204.5 79t-76.5 218q0 112 45 209t130 157t192 60q86 0 151.5 -37t99.5 -106q25 4 36.5 32t18.5 85zM358 74q79 0 143 48.5
t97.5 126.5t33.5 168q0 108 -53.5 164t-149.5 56q-116 0 -192.5 -103.5t-76.5 -240.5q0 -106 53 -162.5t145 -56.5z" />
    <glyph glyph-name="uni1EDB" unicode="&#x1edb;" horiz-adv-x="626" 
d="M487 699l-128 -142h-83l121 141zM565 565h76l-12 -95q-20 -152 -127 -158q1 -8 1 -24q0 -126 -69 -210t-188 -84q-92 0 -147 54t-55 152q0 124 69.5 208.5t188.5 84.5q72 0 122 -33.5t69 -95.5q28 1 41 29.5t20 88.5zM250 67q75 0 123.5 61.5t48.5 152.5q0 72 -35.5 105
t-88.5 33q-75 0 -124 -62t-49 -150q0 -72 36 -106t89 -34z" />
    <glyph glyph-name="uni1EDC" unicode="&#x1edc;" horiz-adv-x="810" 
d="M508 782h-81l-98 129h89zM755 774h76l-12 -95q-19 -140 -111 -156q13 -50 13 -103q0 -178 -101.5 -302t-267.5 -124q-128 0 -204.5 79t-76.5 218q0 112 45 209t130 157t192 60q86 0 151.5 -37t99.5 -106q25 4 36.5 32t18.5 85zM358 74q79 0 143 48.5t97.5 126.5t33.5 168
q0 108 -53.5 164t-149.5 56q-116 0 -192.5 -103.5t-76.5 -240.5q0 -106 53 -162.5t145 -56.5z" />
    <glyph glyph-name="uni1EDD" unicode="&#x1edd;" horiz-adv-x="626" 
d="M368 557h-83l-94 142l90 -1zM565 565h76l-12 -95q-20 -152 -127 -158q1 -8 1 -24q0 -126 -69 -210t-188 -84q-92 0 -147 54t-55 152q0 124 69.5 208.5t188.5 84.5q72 0 122 -33.5t69 -95.5q28 1 41 29.5t20 88.5zM250 67q75 0 123.5 61.5t48.5 152.5q0 72 -35.5 105
t-88.5 33q-75 0 -124 -62t-49 -150q0 -72 36 -106t89 -34z" />
    <glyph glyph-name="uni1EDE" unicode="&#x1ede;" horiz-adv-x="810" 
d="M482 887q-38 0 -85 -33l-12 44q55 42 120 42q72 0 72 -61q0 -57 -87 -101l-57 1l12 8t12.5 8.5t12 8.5t12 9.5t10 9t9.5 10t6.5 9.5t5 10.5t1.5 10.5q0 24 -32 24zM755 774h76l-12 -95q-19 -140 -111 -156q13 -50 13 -103q0 -178 -101.5 -302t-267.5 -124
q-128 0 -204.5 79t-76.5 218q0 112 45 209t130 157t192 60q86 0 151.5 -37t99.5 -106q25 4 36.5 32t18.5 85zM358 74q79 0 143 48.5t97.5 126.5t33.5 168q0 108 -53.5 164t-149.5 56q-116 0 -192.5 -103.5t-76.5 -240.5q0 -106 53 -162.5t145 -56.5z" />
    <glyph glyph-name="uni1EDF" unicode="&#x1edf;" horiz-adv-x="626" 
d="M333 678q-40 0 -84 -33l-12 44q52 44 120 44q32 0 52 -15.5t20 -45.5q0 -36 -28.5 -68t-61.5 -51l-58 1q85 61 85 100q0 24 -33 24zM565 565h76l-12 -95q-20 -152 -127 -158q1 -8 1 -24q0 -126 -69 -210t-188 -84q-92 0 -147 54t-55 152q0 124 69.5 208.5t188.5 84.5
q72 0 122 -33.5t69 -95.5q28 1 41 29.5t20 88.5zM250 67q75 0 123.5 61.5t48.5 152.5q0 72 -35.5 105t-88.5 33q-75 0 -124 -62t-49 -150q0 -72 36 -106t89 -34z" />
    <glyph glyph-name="uni1EE0" unicode="&#x1ee0;" horiz-adv-x="810" 
d="M422 840q-36 0 -60 -57l-51 26q42 90 105 90q10 0 18.5 -1.5t17.5 -6t12.5 -6t13.5 -9.5l11 -7q34 -28 52 -28q35 0 59 56l51 -20q-19 -45 -46 -70.5t-57 -25.5q-33 0 -78 35q-30 24 -48 24zM755 774h76l-12 -95q-19 -140 -111 -156q13 -50 13 -103q0 -178 -101.5 -302
t-267.5 -124q-128 0 -204.5 79t-76.5 218q0 112 45 209t130 157t192 60q86 0 151.5 -37t99.5 -106q25 4 36.5 32t18.5 85zM358 74q79 0 143 48.5t97.5 126.5t33.5 168q0 108 -53.5 164t-149.5 56q-116 0 -192.5 -103.5t-76.5 -240.5q0 -106 53 -162.5t145 -56.5z" />
    <glyph glyph-name="uni1EE1" unicode="&#x1ee1;" horiz-adv-x="626" 
d="M272 622q-38 0 -62 -57l-51 26q41 96 106 96q8 0 16 -1.5t13.5 -3t12 -5.5t9.5 -6t10 -7.5t9 -6.5q3 -2 10.5 -7.5t11 -8t9.5 -6t11 -5t10 -1.5q37 0 61 56l51 -20q-39 -102 -103 -102q-8 0 -16.5 2t-14.5 4t-13.5 6.5t-11 7.5t-11 8.5t-9.5 6.5q-29 24 -48 24zM565 565
h76l-12 -95q-20 -152 -127 -158q1 -8 1 -24q0 -126 -69 -210t-188 -84q-92 0 -147 54t-55 152q0 124 69.5 208.5t188.5 84.5q72 0 122 -33.5t69 -95.5q28 1 41 29.5t20 88.5zM250 67q75 0 123.5 61.5t48.5 152.5q0 72 -35.5 105t-88.5 33q-75 0 -124 -62t-49 -150
q0 -72 36 -106t89 -34z" />
    <glyph glyph-name="uni1EE2" unicode="&#x1ee2;" horiz-adv-x="810" 
d="M755 774h76l-12 -95q-19 -140 -111 -156q13 -50 13 -103q0 -178 -101.5 -302t-267.5 -124q-128 0 -204.5 79t-76.5 218q0 112 45 209t130 157t192 60q86 0 151.5 -37t99.5 -106q25 4 36.5 32t18.5 85zM358 74q79 0 143 48.5t97.5 126.5t33.5 168q0 108 -53.5 164
t-149.5 56q-116 0 -192.5 -103.5t-76.5 -240.5q0 -106 53 -162.5t145 -56.5zM333 -95q24 0 40 -16t16 -40q0 -25 -16.5 -41.5t-41.5 -16.5q-24 0 -40 16t-16 40q0 25 16.5 41.5t41.5 16.5z" />
    <glyph glyph-name="uni1EE3" unicode="&#x1ee3;" horiz-adv-x="626" 
d="M565 565h76l-12 -95q-20 -152 -127 -158q1 -8 1 -24q0 -126 -69 -210t-188 -84q-92 0 -147 54t-55 152q0 124 69.5 208.5t188.5 84.5q72 0 122 -33.5t69 -95.5q28 1 41 29.5t20 88.5zM250 67q75 0 123.5 61.5t48.5 152.5q0 72 -35.5 105t-88.5 33q-75 0 -124 -62
t-49 -150q0 -72 36 -106t89 -34zM225 -95q24 0 40 -16t16 -40q0 -25 -16.5 -41.5t-41.5 -16.5q-24 0 -40 16t-16 40q0 25 16.5 41.5t41.5 16.5z" />
    <glyph glyph-name="uni1EE4" unicode="&#x1ee4;" horiz-adv-x="672" 
d="M306 -6q-125 0 -178.5 81t-35.5 221l51 414h85l-51 -413q-13 -101 19 -161.5t114 -60.5q172 0 197 214l52 421h85l-52 -422q-35 -294 -286 -294zM287 -95q24 0 40 -16t16 -40q0 -25 -16.5 -41.5t-41.5 -16.5q-24 0 -40 16t-16 40q0 25 16.5 41.5t41.5 16.5z" />
    <glyph glyph-name="uni1EE5" unicode="&#x1ee5;" horiz-adv-x="539" 
d="M192 -6q-77 0 -110 47t-19 149l41 297h79l-39 -290q-10 -72 8.5 -101t61.5 -29q53 0 109 61t67 146l26 213h79l-59 -487h-80l14 110h-2q-31 -54 -76.5 -85t-99.5 -31zM227 -95q24 0 40 -16t16 -40q0 -25 -16.5 -41.5t-41.5 -16.5q-24 0 -40 16t-16 40q0 25 16.5 41.5
t41.5 16.5z" />
    <glyph glyph-name="uni1EE6" unicode="&#x1ee6;" horiz-adv-x="672" 
d="M427 778l-57 1l12 8t12.5 8.5t12 8.5t12 9.5t10 9t9.5 10t6.5 9.5t5 10.5t1.5 10.5q0 24 -32 24q-39 0 -85 -33l-12 44q55 42 120 42q72 0 72 -61q0 -57 -87 -101zM306 -6q-125 0 -178.5 81t-35.5 221l51 414h85l-51 -413q-13 -101 19 -161.5t114 -60.5q172 0 197 214
l52 421h85l-52 -422q-35 -294 -286 -294z" />
    <glyph glyph-name="uni1EE7" unicode="&#x1ee7;" horiz-adv-x="539" 
d="M327 553l-58 1q85 61 85 100q0 24 -33 24q-40 0 -84 -33l-12 44q52 44 120 44q32 0 52 -15.5t20 -45.5q0 -36 -28.5 -68t-61.5 -51zM192 -6q-77 0 -110 47t-19 149l41 297h79l-39 -290q-10 -72 8.5 -101t61.5 -29q53 0 109 61t67 146l26 213h79l-59 -487h-80l14 110h-2
q-31 -54 -76.5 -85t-99.5 -31z" />
    <glyph glyph-name="uni1EE8" unicode="&#x1ee8;" horiz-adv-x="740" 
d="M560 911l-130 -129h-81l119 129h92zM716 774h76l-12 -95q-21 -158 -136 -158q-7 0 -23 2l-29 -235q-35 -294 -286 -294q-125 0 -178.5 81t-35.5 221l51 414h85l-51 -413q-13 -101 19 -161.5t114 -60.5q172 0 197 214l52 421h85l-17 -136q5 -1 14 -1q30 0 43.5 28t20.5 90
z" />
    <glyph glyph-name="uni1EE9" unicode="&#x1ee9;" horiz-adv-x="619" 
d="M468 699l-128 -142h-83l121 141zM567 565h76l-12 -95q-21 -158 -136 -158q-5 0 -21 2l-38 -314h-80l14 110h-2q-31 -54 -76.5 -85t-99.5 -31q-77 0 -110 47t-19 149l41 297h79l-39 -290q-10 -72 8.5 -101t61.5 -29q53 0 109 61t67 146l26 213h79l-15 -122q4 -1 12 -1
q30 0 43.5 28t20.5 90z" />
    <glyph glyph-name="uni1EEA" unicode="&#x1eea;" horiz-adv-x="740" 
d="M448 781h-81l-98 129h89zM716 774h76l-12 -95q-21 -158 -136 -158q-7 0 -23 2l-29 -235q-35 -294 -286 -294q-125 0 -178.5 81t-35.5 221l51 414h85l-51 -413q-13 -101 19 -161.5t114 -60.5q172 0 197 214l52 421h85l-17 -136q5 -1 14 -1q30 0 43.5 28t20.5 90z" />
    <glyph glyph-name="uni1EEB" unicode="&#x1eeb;" horiz-adv-x="619" 
d="M357 557h-83l-94 142l90 -1zM567 565h76l-12 -95q-21 -158 -136 -158q-5 0 -21 2l-38 -314h-80l14 110h-2q-31 -54 -76.5 -85t-99.5 -31q-77 0 -110 47t-19 149l41 297h79l-39 -290q-10 -72 8.5 -101t61.5 -29q53 0 109 61t67 146l26 213h79l-15 -122q4 -1 12 -1
q30 0 43.5 28t20.5 90z" />
    <glyph glyph-name="uni1EEC" unicode="&#x1eec;" horiz-adv-x="740" 
d="M419 887q-39 0 -85 -33l-12 44q55 42 120 42q72 0 72 -61q0 -57 -87 -101l-57 1l12 8t12.5 8.5t12 8.5t12 9.5t10 9t9.5 10t6.5 9.5t5 10.5t1.5 10.5q0 24 -32 24zM716 774h76l-12 -95q-21 -158 -136 -158q-7 0 -23 2l-29 -235q-35 -294 -286 -294q-125 0 -178.5 81
t-35.5 221l51 414h85l-51 -413q-13 -101 19 -161.5t114 -60.5q172 0 197 214l52 421h85l-17 -136q5 -1 14 -1q30 0 43.5 28t20.5 90z" />
    <glyph glyph-name="uni1EED" unicode="&#x1eed;" horiz-adv-x="619" 
d="M321 678q-40 0 -84 -33l-12 44q52 44 120 44q32 0 52 -15.5t20 -45.5q0 -36 -28.5 -68t-61.5 -51l-58 1q85 61 85 100q0 24 -33 24zM567 565h76l-12 -95q-21 -158 -136 -158q-5 0 -21 2l-38 -314h-80l14 110h-2q-31 -54 -76.5 -85t-99.5 -31q-77 0 -110 47t-19 149
l41 297h79l-39 -290q-10 -72 8.5 -101t61.5 -29q53 0 109 61t67 146l26 213h79l-15 -122q4 -1 12 -1q30 0 43.5 28t20.5 90z" />
    <glyph glyph-name="uni1EEE" unicode="&#x1eee;" horiz-adv-x="740" 
d="M359 840q-36 0 -60 -57l-51 26q42 90 105 90q10 0 18.5 -1.5t17.5 -6t12.5 -6t14.5 -9.5l10 -7q34 -28 52 -28q35 0 59 56l51 -20q-19 -45 -46 -70.5t-57 -25.5q-33 0 -78 35q-30 24 -48 24zM716 774h76l-12 -95q-21 -158 -136 -158q-7 0 -23 2l-29 -235
q-35 -294 -286 -294q-125 0 -178.5 81t-35.5 221l51 414h85l-51 -413q-13 -101 19 -161.5t114 -60.5q172 0 197 214l52 421h85l-17 -136q5 -1 14 -1q30 0 43.5 28t20.5 90z" />
    <glyph glyph-name="uni1EEF" unicode="&#x1eef;" horiz-adv-x="619" 
d="M260 622q-38 0 -62 -57l-51 26q41 96 106 96q8 0 16 -1.5t13.5 -3t12 -5.5t9.5 -6t10 -7.5t9 -6.5q3 -2 10.5 -7.5t11 -8t9.5 -6t11 -5t10 -1.5q37 0 61 56l51 -20q-39 -102 -103 -102q-8 0 -16.5 2t-14.5 4t-13.5 6.5t-11 7.5t-11 8.5t-9.5 6.5q-29 24 -48 24zM567 565
h76l-12 -95q-21 -158 -136 -158q-5 0 -21 2l-38 -314h-80l14 110h-2q-31 -54 -76.5 -85t-99.5 -31q-77 0 -110 47t-19 149l41 297h79l-39 -290q-10 -72 8.5 -101t61.5 -29q53 0 109 61t67 146l26 213h79l-15 -122q4 -1 12 -1q30 0 43.5 28t20.5 90z" />
    <glyph glyph-name="uni1EF0" unicode="&#x1ef0;" horiz-adv-x="740" 
d="M716 774h76l-12 -95q-21 -158 -136 -158q-7 0 -23 2l-29 -235q-35 -294 -286 -294q-125 0 -178.5 81t-35.5 221l51 414h85l-51 -413q-13 -101 19 -161.5t114 -60.5q172 0 197 214l52 421h85l-17 -136q5 -1 14 -1q30 0 43.5 28t20.5 90zM287 -95q24 0 40 -16t16 -40
q0 -25 -16.5 -41.5t-41.5 -16.5q-24 0 -40 16t-16 40q0 25 16.5 41.5t41.5 16.5z" />
    <glyph glyph-name="uni1EF1" unicode="&#x1ef1;" horiz-adv-x="619" 
d="M567 565h76l-12 -95q-21 -158 -136 -158q-5 0 -21 2l-38 -314h-80l14 110h-2q-31 -54 -76.5 -85t-99.5 -31q-77 0 -110 47t-19 149l41 297h79l-39 -290q-10 -72 8.5 -101t61.5 -29q53 0 109 61t67 146l26 213h79l-15 -122q4 -1 12 -1q30 0 43.5 28t20.5 90zM227 -95
q24 0 40 -16t16 -40q0 -25 -16.5 -41.5t-41.5 -16.5q-24 0 -40 16t-16 40q0 25 16.5 41.5t41.5 16.5z" />
    <glyph glyph-name="Ygrave" unicode="&#x1ef2;" horiz-adv-x="557" 
d="M318 781l-98 129h89l90 -129h-81zM205 0l39 317l-169 393h94l125 -310h3l202 310h99l-268 -393l-40 -317h-85z" />
    <glyph glyph-name="ygrave" unicode="&#x1ef3;" horiz-adv-x="538" 
d="M355 557h-83l-94 142l90 -1zM417 487h78l-52 -424q-9 -79 -33.5 -133.5t-61 -82.5t-74.5 -39.5t-85 -11.5q-94 0 -170 42l36 69q61 -38 136 -38q71 0 115.5 42.5t58.5 157.5l5 40l-2 1q-31 -54 -77.5 -85t-102.5 -31q-154 0 -127 196l40 297h79l-39 -290q-9 -72 9.5 -101
t61.5 -29q57 0 113 64.5t66 151.5z" />
    <glyph glyph-name="uni1EF4" unicode="&#x1ef4;" horiz-adv-x="557" 
d="M205 0l39 317l-169 393h94l125 -310h3l202 310h99l-268 -393l-40 -317h-85zM231 -95q24 0 40 -16t16 -40q0 -25 -16.5 -41.5t-41.5 -16.5q-24 0 -40 16t-16 40q0 25 16.5 41.5t41.5 16.5z" />
    <glyph glyph-name="uni1EF5" unicode="&#x1ef5;" horiz-adv-x="538" 
d="M417 487h78l-52 -424q-9 -79 -33.5 -133.5t-61 -82.5t-74.5 -39.5t-85 -11.5q-94 0 -170 42l36 69q61 -38 136 -38q71 0 115.5 42.5t58.5 157.5l5 40l-2 1q-31 -54 -77.5 -85t-102.5 -31q-154 0 -127 196l40 297h79l-39 -290q-9 -72 9.5 -101t61.5 -29q57 0 113 64.5
t66 151.5zM206 -235q24 0 40 -16t16 -40q0 -25 -16.5 -41.5t-41.5 -16.5q-24 0 -40 16t-16 40q0 25 16.5 41.5t41.5 16.5z" />
    <glyph glyph-name="uni1EF6" unicode="&#x1ef6;" horiz-adv-x="557" 
d="M362 778l-57 1l12 8t12.5 8.5t12 8.5t12 9.5t10 9t9.5 10t6.5 9.5t5 10.5t1.5 10.5q0 24 -32 24q-38 0 -85 -33l-12 44q55 42 120 42q72 0 72 -61q0 -57 -87 -101zM205 0l39 317l-169 393h94l125 -310h3l202 310h99l-268 -393l-40 -317h-85z" />
    <glyph glyph-name="uni1EF7" unicode="&#x1ef7;" horiz-adv-x="538" 
d="M321 678q-40 0 -84 -33l-12 44q52 44 120 44q32 0 52 -15.5t20 -45.5q0 -36 -28.5 -68t-61.5 -51l-58 1q85 61 85 100q0 24 -33 24zM417 487h78l-52 -424q-9 -79 -33.5 -133.5t-61 -82.5t-74.5 -39.5t-85 -11.5q-94 0 -170 42l36 69q61 -38 136 -38q71 0 115.5 42.5
t58.5 157.5l5 40l-2 1q-31 -54 -77.5 -85t-102.5 -31q-154 0 -127 196l40 297h79l-39 -290q-9 -72 9.5 -101t61.5 -29q57 0 113 64.5t66 151.5z" />
    <glyph glyph-name="uni1EF8" unicode="&#x1ef8;" horiz-adv-x="557" 
d="M420 781q-33 0 -78 35q-30 24 -48 24q-36 0 -60 -57l-51 26q42 90 105 90q10 0 18.5 -1.5t17.5 -6t12.5 -6t13.5 -9.5l11 -7q34 -28 52 -28q35 0 59 56l51 -20q-19 -45 -46 -70.5t-57 -25.5zM205 0l39 317l-169 393h94l125 -310h3l202 310h99l-268 -393l-40 -317h-85z
" />
    <glyph glyph-name="uni1EF9" unicode="&#x1ef9;" horiz-adv-x="538" 
d="M260 622q-38 0 -62 -57l-51 26q41 96 106 96q8 0 16 -1.5t13.5 -3t12 -5.5t9.5 -6t10 -7.5t9 -6.5q3 -2 10.5 -7.5t11 -8t9.5 -6t11 -5t10 -1.5q37 0 61 56l51 -20q-39 -102 -103 -102q-8 0 -16.5 2t-14.5 4t-13.5 6.5t-11 7.5t-11 8.5t-9.5 6.5q-29 24 -48 24zM417 487
h78l-52 -424q-9 -79 -33.5 -133.5t-61 -82.5t-74.5 -39.5t-85 -11.5q-94 0 -170 42l36 69q61 -38 136 -38q71 0 115.5 42.5t58.5 157.5l5 40l-2 1q-31 -54 -77.5 -85t-102.5 -31q-154 0 -127 196l40 297h79l-39 -290q-9 -72 9.5 -101t61.5 -29q57 0 113 64.5t66 151.5z" />
    <glyph glyph-name="uni2002" unicode="&#x2002;" horiz-adv-x="467" 
 />
    <glyph glyph-name="uni2003" unicode="&#x2003;" horiz-adv-x="934" 
 />
    <glyph glyph-name="uni2007" unicode="&#x2007;" 
 />
    <glyph glyph-name="uni2009" unicode="&#x2009;" horiz-adv-x="23" 
 />
    <glyph glyph-name="uni2010" unicode="&#x2010;" horiz-adv-x="387" 
d="M63 269l9 78h268l-9 -78h-268z" />
    <glyph glyph-name="figuredash" unicode="&#x2012;" horiz-adv-x="590" 
d="M63 262l8 71h471l-9 -71h-470z" />
    <glyph glyph-name="endash" unicode="&#x2013;" 
d="M62 262l8 71h468l-9 -71h-467z" />
    <glyph glyph-name="emdash" unicode="&#x2014;" horiz-adv-x="1052" 
d="M62 262l8 71h934l-8 -71h-934z" />
    <glyph glyph-name="uni2015" unicode="&#x2015;" horiz-adv-x="1205" 
d="M62 262l8 71h1087l-9 -71h-1086z" />
    <glyph glyph-name="quoteleft" unicode="&#x2018;" horiz-adv-x="195" 
d="M212 709l-59 -240h-86l81 240h64z" />
    <glyph glyph-name="quoteright" unicode="&#x2019;" horiz-adv-x="198" 
d="M70 470l59 240h86l-81 -240h-64z" />
    <glyph glyph-name="quotesinglbase" unicode="&#x201a;" horiz-adv-x="213" 
d="M-12 -131l58 241h86l-85 -241h-59z" />
    <glyph glyph-name="quotedblleft" unicode="&#x201c;" horiz-adv-x="330" 
d="M212 709l-58 -240h-86l80 240h64zM347 709l-59 -240h-86l81 240h64z" />
    <glyph glyph-name="quotedblright" unicode="&#x201d;" horiz-adv-x="329" 
d="M71 470l59 240h86l-81 -240h-64zM206 470l58 240h86l-80 -240h-64z" />
    <glyph glyph-name="quotedblbase" unicode="&#x201e;" horiz-adv-x="343" 
d="M-4 -76l59 240h86l-81 -240h-64zM131 -76l58 240h86l-80 -240h-64z" />
    <glyph glyph-name="dagger" unicode="&#x2020;" horiz-adv-x="380" 
d="M192 249l-21 46l20 134l13 112h-18l-90 -5l7 54l89 -4h16l11 99h53l-16 -99h17l90 3l-7 -53l-89 5h-17l-14 -112l-12 -134z" />
    <glyph glyph-name="daggerdbl" unicode="&#x2021;" horiz-adv-x="381" 
d="M142 58l14 98h-17l-90 -3l7 52l88 -3h19l11 92l6 81l14 82l10 84h-18l-90 -4l7 52l89 -3h17l10 99h53l-16 -99h17l90 3l-7 -52l-89 4h-17l-11 -84l-6 -82l-14 -81l-11 -92h17l90 4l-6 -52l-89 2h-17l-8 -98h-53z" />
    <glyph glyph-name="bullet" unicode="&#x2022;" horiz-adv-x="423" 
d="M218 214q-43 0 -71 28.5t-28 71.5q0 44 29.5 73t74.5 29q43 0 71 -28t28 -70q0 -45 -30 -74.5t-74 -29.5z" />
    <glyph glyph-name="ellipsis" unicode="&#x2026;" horiz-adv-x="1010" 
d="M148 -7q-24 0 -39.5 16t-15.5 40q0 25 16.5 42t41.5 17q24 0 40 -16t16 -40q0 -26 -16.5 -42.5t-42.5 -16.5zM481 -7q-24 0 -39.5 16t-15.5 40q0 25 16.5 42t41.5 17q24 0 40 -16t16 -40q0 -26 -17 -42.5t-42 -16.5zM815 -7q-24 0 -39.5 16t-15.5 40q0 25 16.5 42
t41.5 17q24 0 40 -16t16 -40q0 -26 -17 -42.5t-42 -16.5z" />
    <glyph glyph-name="perthousand" unicode="&#x2030;" horiz-adv-x="1262" 
d="M182 -1l-51 41l572 658l51 -42zM227 338q-70 0 -115.5 42.5t-45.5 111.5q0 83 58.5 142.5t144.5 59.5q69 0 115 -42.5t46 -111.5q0 -82 -58.5 -142t-144.5 -60zM235 401q53 0 90 38t37 91q0 44 -28.5 72t-72.5 28q-52 0 -88 -38t-36 -93q0 -43 27.5 -70.5t70.5 -27.5z
M610 -7q-70 0 -115.5 42.5t-45.5 111.5q0 83 58.5 142.5t144.5 59.5q69 0 115 -42.5t46 -111.5q0 -82 -58.5 -142t-144.5 -60zM1016 -7q-70 0 -115.5 42.5t-45.5 111.5q0 83 58.5 142.5t144.5 59.5q69 0 115 -42.5t46 -111.5q0 -82 -58.5 -142t-144.5 -60zM618 57
q52 0 89.5 37.5t37.5 90.5q0 44 -28.5 72t-72.5 28q-52 0 -88.5 -38t-36.5 -93q0 -43 27.5 -70t71.5 -27zM1024 57q52 0 89 37.5t37 90.5q0 44 -28 72t-72 28q-52 0 -88.5 -38t-36.5 -93q0 -43 27.5 -70t71.5 -27z" />
    <glyph glyph-name="minute" unicode="&#x2032;" horiz-adv-x="240" 
d="M64 470l101 240h86l-123 -240h-64z" />
    <glyph glyph-name="second" unicode="&#x2033;" horiz-adv-x="379" 
d="M64 470l101 240h86l-123 -240h-64zM203 470l101 240h86l-123 -240h-64z" />
    <glyph glyph-name="guilsinglleft" unicode="&#x2039;" horiz-adv-x="278" 
d="M133 26l-87 219l141 221h77l-140 -221l85 -219h-76z" />
    <glyph glyph-name="guilsinglright" unicode="&#x203a;" horiz-adv-x="275" 
d="M16 26l139 219l-86 221h77l87 -221l-140 -219h-77z" />
    <glyph glyph-name="uni203D" unicode="&#x203d;" horiz-adv-x="421" 
d="M263 743q67 0 112.5 -42t45.5 -113q0 -63 -27 -111t-80 -98q-29 -27 -43.5 -42t-29 -37t-17.5 -42l-8 -51h-70l31 376h90l-29 -185l4 4q35 36 50.5 54t28.5 48t13 64q0 47 -24 71t-67 24q-69 0 -116 -67l-53 53q33 44 83.5 69t105.5 25zM171 108q24 0 40 -16t16 -40
q0 -26 -16.5 -42.5t-42.5 -16.5q-24 0 -39.5 16t-15.5 40q0 25 16.5 42t41.5 17z" />
    <glyph glyph-name="uni2042" unicode="&#x2042;" horiz-adv-x="778" 
d="M373 394l19 119l-94 -64l-22 48l98 54l-86 57l33 46l80 -63l12 119h53l-19 -119l95 63l22 -46l-98 -56l85 -55l-32 -47l-80 63l-12 -119h-54zM145 59l19 119l-94 -64l-22 48l98 54l-86 57l33 46l80 -63l12 119h53l-19 -119l95 63l22 -46l-98 -56l85 -55l-32 -47l-80 63
l-12 -119h-54zM533 59l19 119l-94 -64l-22 48l98 54l-86 57l33 46l80 -63l12 119h53l-19 -119l95 63l22 -46l-98 -56l85 -55l-32 -47l-80 63l-12 -119h-54z" />
    <glyph glyph-name="fraction" unicode="&#x2044;" horiz-adv-x="184" 
d="M-35 -16l-63 29l367 711l63 -30z" />
    <glyph glyph-name="uni2051" unicode="&#x2051;" horiz-adv-x="390" 
d="M186 394l19 119l-94 -64l-21 48l97 54l-86 57l33 46l80 -63l12 119h53l-19 -119l95 63l23 -46l-99 -56l86 -55l-33 -47l-79 63l-12 -119h-55zM144 42l18 119l-94 -64l-22 48l98 55l-86 56l33 47l80 -63l12 119h53l-18 -119l94 62l22 -46l-98 -56l85 -55l-32 -47l-80 63
l-12 -119h-53z" />
    <glyph glyph-name="uni2070" unicode="&#x2070;" horiz-adv-x="374" 
d="M213 430q-64 0 -100 44t-36 125q0 103 49 179t133 76q64 0 100 -45t36 -124q0 -105 -49 -180t-133 -75zM215 494q53 0 82.5 58.5t29.5 133.5q0 51 -18.5 77.5t-50.5 26.5q-54 0 -83.5 -58.5t-29.5 -133.5q0 -104 70 -104z" />
    <glyph glyph-name="uni2074" unicode="&#x2074;" horiz-adv-x="341" 
d="M304 574h54l-8 -60h-54l-10 -78h-67l9 78h-176l5 44l227 290h53zM128 568h119l22 182z" />
    <glyph glyph-name="uni2075" unicode="&#x2075;" horiz-adv-x="320" 
d="M340 785h-158l-17 -96q37 10 62 10q48 0 77 -28t29 -84q0 -69 -43 -112t-115 -43q-77 0 -123 41l37 59q34 -37 86 -37q41 0 64.5 25.5t23.5 62.5q0 63 -65 63q-40 0 -68 -22l-35 14l37 210h216z" />
    <glyph glyph-name="uni2076" unicode="&#x2076;" horiz-adv-x="343" 
d="M249 698q47 0 78.5 -29t31.5 -82q0 -64 -39.5 -109t-106.5 -45q-64 0 -100 44.5t-36 122.5q0 103 49.5 177.5t144.5 75.5q48 1 96 -21l-30 -56q-32 14 -68 14q-95 0 -118 -126q44 34 98 34zM215 495q33 0 54 25t21 62q0 29 -17.5 45t-46.5 16q-48 0 -84 -45v-8
q0 -42 19.5 -68.5t53.5 -26.5z" />
    <glyph glyph-name="uni2077" unicode="&#x2077;" horiz-adv-x="306" 
d="M100 848h253l-5 -46l-187 -366h-73l181 349h-178z" />
    <glyph glyph-name="uni2078" unicode="&#x2078;" horiz-adv-x="343" 
d="M196 431q-59 0 -93.5 27t-34.5 75q0 45 26 77.5t67 44.5v2q-23 6 -39 27.5t-16 50.5q0 55 39.5 86.5t101.5 31.5q52 0 83 -23t31 -66q0 -40 -23 -69t-55 -38v-2q31 -9 49 -33t18 -58q0 -59 -43 -96t-111 -37zM227 683q28 0 47.5 18.5t19.5 47.5q0 24 -15 36.5t-40 12.5
q-29 0 -47.5 -17t-18.5 -46q0 -23 14.5 -37.5t39.5 -14.5zM202 489q36 0 57.5 21.5t21.5 57.5q0 28 -17 44t-47 16q-35 0 -57 -22t-23 -57q0 -27 16.5 -43.5t48.5 -16.5z" />
    <glyph glyph-name="uni2079" unicode="&#x2079;" horiz-adv-x="338" 
d="M223 852q64 0 100 -44.5t36 -122.5q0 -65 -19.5 -120t-64.5 -93.5t-109 -39.5q-50 -1 -98 22l30 56q33 -15 69 -15q95 0 118 126q-43 -34 -95 -34q-49 0 -81 29.5t-32 83.5q0 63 39.5 107.5t106.5 44.5zM146 705q0 -31 17.5 -47t46.5 -16q50 0 85 47v6q0 41 -20 68
t-54 27q-32 0 -53.5 -25t-21.5 -60z" />
    <glyph glyph-name="uni207A" unicode="&#x207a;" horiz-adv-x="329" 
d="M338 660l-6 -57h-93l-13 -107h-60l13 107h-94l7 57h94l13 108h60l-13 -108h92z" />
    <glyph glyph-name="uni207B" unicode="&#x207b;" horiz-adv-x="333" 
d="M89 602l8 60h246l-8 -60h-246z" />
    <glyph glyph-name="uni207C" unicode="&#x207c;" horiz-adv-x="354" 
d="M109 679l7 54h245l-6 -54h-246zM89 514l6 55h246l-7 -55h-245z" />
    <glyph glyph-name="uni207D" unicode="&#x207d;" horiz-adv-x="182" 
d="M118 367q-35 98 -35 196q0 92 29 185.5t80 165.5l44 -20q-42 -62 -67.5 -151t-25.5 -170q0 -89 30 -183z" />
    <glyph glyph-name="uni207E" unicode="&#x207e;" horiz-adv-x="182" 
d="M92 370l-47 17q91 153 91 320q0 111 -32 184l52 25q40 -85 40 -199q0 -178 -104 -347z" />
    <glyph glyph-name="uni207F" unicode="&#x207f;" horiz-adv-x="335" 
d="M6 -66l36 293h63l-7 -59h1q47 62 113 62q85 0 70 -118l-24 -178h-63l23 174q9 67 -37 67q-32 0 -62 -35t-36 -90l-15 -116h-62z" />
    <glyph glyph-name="uni2080" unicode="&#x2080;" horiz-adv-x="374" 
d="M151 -72q-64 0 -100 44t-36 125q0 103 49 179t133 76q64 0 100 -45t36 -124q0 -105 -49 -180t-133 -75zM153 -8q53 0 82.5 58.5t29.5 133.5q0 51 -18.5 77.5t-50.5 26.5q-54 0 -83.5 -58.5t-29.5 -133.5q0 -104 70 -104z" />
    <glyph glyph-name="uni2081" unicode="&#x2081;" horiz-adv-x="253" 
d="M146 346h54l-51 -412h-68l41 323l-74 -52l-28 53z" />
    <glyph glyph-name="uni2082" unicode="&#x2082;" horiz-adv-x="316" 
d="M-10 -66l5 48l136 132q77 75 77 122q0 23 -14.5 37t-42.5 14q-40 0 -88 -40l-35 50q62 54 135 54q55 0 85 -26.5t30 -76.5q0 -79 -90 -164l-94 -86l1 -2h157l-8 -62h-254z" />
    <glyph glyph-name="uni2083" unicode="&#x2083;" horiz-adv-x="319" 
d="M116 -71q-80 0 -127 42l39 57q35 -38 85 -38q37 0 60 20t23 55q0 54 -60 54h-36l7 53h39q30 0 49 19t19 48q0 51 -59 51q-43 0 -87 -37l-33 46q60 52 135 52q51 0 80 -24t29 -70q0 -76 -66 -109v-1q54 -24 54 -87q0 -59 -42 -95t-109 -36z" />
    <glyph glyph-name="uni2084" unicode="&#x2084;" horiz-adv-x="341" 
d="M242 72h54l-8 -60h-54l-10 -78h-67l9 78h-176l5 44l227 290h53zM66 66h119l22 182z" />
    <glyph glyph-name="uni2085" unicode="&#x2085;" horiz-adv-x="320" 
d="M278 283h-158l-17 -96q37 10 62 10q48 0 77 -28t29 -84q0 -69 -43 -112t-115 -43q-77 0 -123 41l37 59q34 -37 86 -37q41 0 64.5 25.5t23.5 62.5q0 63 -65 63q-40 0 -68 -22l-35 14l37 210h216z" />
    <glyph glyph-name="uni2086" unicode="&#x2086;" horiz-adv-x="343" 
d="M187 196q47 0 78.5 -29t31.5 -82q0 -64 -39.5 -109t-106.5 -45q-64 0 -100 44.5t-36 122.5q0 103 49.5 177.5t144.5 75.5q48 1 96 -21l-30 -56q-32 14 -68 14q-95 0 -118 -126q44 34 98 34zM153 -7q33 0 54 25t21 62q0 29 -17.5 45t-46.5 16q-48 0 -84 -45v-8
q0 -42 19.5 -68.5t53.5 -26.5z" />
    <glyph glyph-name="uni2087" unicode="&#x2087;" horiz-adv-x="306" 
d="M38 346h253l-5 -46l-187 -366h-73l181 349h-178z" />
    <glyph glyph-name="uni2088" unicode="&#x2088;" horiz-adv-x="342" 
d="M134 -71q-59 0 -93.5 27t-34.5 75q0 45 26 77.5t67 44.5v2q-23 6 -39 27.5t-16 50.5q0 55 39.5 86.5t101.5 31.5q52 0 83 -23t31 -66q0 -40 -23 -69t-55 -38v-2q31 -9 49 -33t18 -58q0 -59 -43 -96t-111 -37zM165 181q28 0 47.5 18.5t19.5 47.5q0 24 -15 36.5t-40 12.5
q-29 0 -47.5 -17t-18.5 -46q0 -23 14.5 -37.5t39.5 -14.5zM140 -13q36 0 57.5 21.5t21.5 57.5q0 28 -17 44t-47 16q-35 0 -57 -22t-23 -57q0 -27 16.5 -43.5t48.5 -16.5z" />
    <glyph glyph-name="uni2089" unicode="&#x2089;" horiz-adv-x="339" 
d="M162 350q64 0 100 -44.5t36 -122.5q0 -65 -19.5 -120t-64.5 -93.5t-109 -39.5q-50 -1 -98 22l30 56q33 -15 69 -15q95 0 118 126q-42 -34 -95 -34q-49 0 -81 29.5t-32 83.5q0 63 39.5 107.5t106.5 44.5zM85 203q0 -31 17.5 -47t46.5 -16q50 0 85 47v6q0 41 -20 68t-54 27
q-32 0 -53.5 -25t-21.5 -60z" />
    <glyph glyph-name="uni208A" unicode="&#x208a;" horiz-adv-x="328" 
d="M275 151l-6 -57h-93l-13 -107h-60l13 107h-94l7 57h94l13 108h60l-13 -108h92z" />
    <glyph glyph-name="uni208B" unicode="&#x208b;" horiz-adv-x="334" 
d="M25 92l8 60h246l-8 -60h-246z" />
    <glyph glyph-name="uni208C" unicode="&#x208c;" horiz-adv-x="353" 
d="M46 184l7 54h245l-6 -54h-246zM26 19l6 55h246l-7 -55h-245z" />
    <glyph glyph-name="uni208D" unicode="&#x208d;" horiz-adv-x="188" 
d="M62 -136q-35 98 -35 196q0 92 29 185.5t80 165.5l44 -20q-42 -62 -67.5 -151t-25.5 -170q0 -89 30 -183z" />
    <glyph glyph-name="uni208E" unicode="&#x208e;" horiz-adv-x="186" 
d="M39 -135l-47 17q91 153 91 320q0 111 -32 184l52 25q40 -85 40 -199q0 -178 -104 -347z" />
    <glyph glyph-name="uni2090" unicode="&#x2090;" horiz-adv-x="355" 
d="M111 -70q-44 0 -73 31.5t-29 89.5q0 74 44.5 126.5t110.5 52.5q48 0 78 -28h2l3 24h57l-36 -292h-57l7 57h-3q-43 -61 -104 -61zM122 -14q37 0 70.5 36t40.5 94l4 28q-17 30 -67 30q-45 0 -73 -36.5t-28 -86.5q0 -65 53 -65z" />
    <glyph glyph-name="uni2091" unicode="&#x2091;" horiz-adv-x="310" 
d="M130 -16q46 0 79 33l40 -37q-48 -51 -122 -51q-56 0 -88 32t-32 89q0 73 44.5 126t117.5 53q39 0 65.5 -18.5t26.5 -54.5q0 -52 -55.5 -83t-137.5 -40q9 -49 62 -49zM166 177q-36 0 -63 -27t-35 -70q62 8 99 27t37 42q0 28 -38 28z" />
    <glyph glyph-name="uni2092" unicode="&#x2092;" horiz-adv-x="336" 
d="M131 -71q-55 0 -88 32t-33 91q0 72 42 124t114 52q53 0 86.5 -31t33.5 -90q0 -73 -41.5 -125.5t-113.5 -52.5zM134 -16q37 0 63.5 34.5t26.5 84.5q0 36 -17.5 53t-43.5 17q-38 0 -64.5 -34.5t-26.5 -81.5q0 -33 17 -53t45 -20z" />
    <glyph glyph-name="uni2093" unicode="&#x2093;" horiz-adv-x="283" 
d="M-31 -66l116 149l-81 144h70l50 -98h2l75 98h72l-118 -146l80 -147h-68l-51 96h-2l-75 -96h-70z" />
    <glyph glyph-name="peseta" unicode="&#x20a7;" horiz-adv-x="608" 
d="M611 501l-7 -57h-70q-16 -91 -80 -138.5t-171 -47.5h-97l-32 -258h-83l54 444h-73l7 57h73l23 186h184q200 0 200 -184v-2h72zM229 610l-14 -109h237q0 54 -31 81.5t-83 27.5h-109zM284 333q136 0 162 111h-238l-14 -111h90z" />
    <glyph glyph-name="dong" unicode="&#x20ab;" horiz-adv-x="549" 
d="M588 628l-8 -57h-52l-71 -571h-80l15 113l-3 1q-33 -57 -79 -88.5t-98 -31.5q-81 0 -124.5 55t-43.5 141q0 122 68.5 212.5t176.5 90.5q89 0 141 -53l2 1l16 130h-189l7 57h189l13 108h80l-13 -108h53zM416 316l7 50q-40 53 -129 53q-75 0 -122 -69.5t-47 -161.5
q0 -56 26.5 -89.5t74.5 -33.5q67 0 122 72t68 179zM19 -146l9 73h423l-9 -73h-423z" />
    <glyph glyph-name="Euro" unicode="&#x20ac;" horiz-adv-x="545" 
d="M392 615q-75 0 -130 -49.5t-82 -130.5h252l-7 -56h-259q-6 -30 -8 -75h258l-7 -57h-249q9 -86 52 -130.5t106 -44.5q73 0 132 46l44 -65q-83 -59 -180 -59t-163.5 64.5t-77.5 188.5h-59l7 57h50q2 43 7 75h-48l7 56h53q32 116 112.5 186.5t189.5 70.5q97 0 166 -60
l-57 -58q-45 41 -109 41z" />
    <glyph glyph-name="uni20B1" unicode="&#x20b1;" horiz-adv-x="626" 
d="M609 497h-70q0 -17 -4 -47h68l-6 -54h-76q-52 -138 -238 -138h-97l-32 -258h-83l48 396h-73l6 54h74l6 47h-74l7 55h73l17 135h184q171 0 196 -135h81zM341 610h-112l-8 -65h227q-24 65 -107 65zM215 497l-6 -47h241q5 23 5 47h-240zM286 333q106 0 146 69h-229l-9 -69
h92z" />
    <glyph glyph-name="uni20B9" unicode="&#x20b9;" horiz-adv-x="494" 
d="M520 625h-160l-1 -1q44 -27 52 -94h97l-7 -62h-91q-12 -85 -79.5 -136.5t-171.5 -51.5l229 -280h-102l-231 289l8 65h86q152 0 175 114h-246l7 62h242q-5 48 -36.5 71.5t-95.5 23.5h-98l7 62h423z" />
    <glyph glyph-name="uni20BA" unicode="&#x20ba;" horiz-adv-x="563" 
d="M459 219l69 -28q-51 -104 -119 -147.5t-161 -43.5h-160l26 214l-67 -31l-17 54l92 43l9 71l-67 -31l-17 54l92 43l33 270h85l-28 -228l170 80l17 -54l-195 -91l-9 -72l170 79l17 -54l-195 -91l-22 -184h65q77 0 124.5 34t87.5 113z" />
    <glyph glyph-name="uni2113" unicode="&#x2113;" horiz-adv-x="457" 
d="M405 111l29 -21q-63 -96 -171 -96q-74 0 -115 40.5t-46 112.5l-55 -43l-19 26q67 54 73 59l2 267q1 117 44.5 170t114.5 53q54 0 82 -39.5t28 -106.5q0 -144 -191 -322v-23q0 -82 29 -117t72 -35q67 0 123 75zM268 634q-38 0 -63 -39.5t-24 -131.5v-206q155 153 155 273
q0 104 -68 104z" />
    <glyph glyph-name="uni2116" unicode="&#x2116;" horiz-adv-x="990" 
d="M829 414q-56 0 -88.5 32t-32.5 91q0 72 42 124t114 52q54 0 86.5 -30.5t32.5 -89.5q0 -73 -41.5 -126t-112.5 -53zM66 0l87 710h85l292 -565l3 1l69 564h85l-88 -710h-83l-293 560h-3l-68 -560h-86zM831 469q38 0 64 34t26 85q0 36 -17.5 53t-43.5 17q-38 0 -64 -34
t-26 -81q0 -33 16.5 -53.5t44.5 -20.5zM688 303l5 59h252l-5 -59h-252z" />
    <glyph glyph-name="uni2117" unicode="&#x2117;" horiz-adv-x="705" 
d="M351 12q-127 0 -215.5 90.5t-88.5 215.5t89 215.5t216 90.5t215 -90t88 -216q0 -125 -88.5 -215.5t-215.5 -90.5zM351 69q103 0 174.5 73.5t71.5 175.5q0 103 -71 176t-174 73q-104 0 -175.5 -73.5t-71.5 -176.5q0 -102 71.5 -175t174.5 -73zM246 158v324h117
q54 0 81 -28t27 -74q0 -50 -31 -76t-84 -26h-59v-120h-51zM297 325h54q67 0 67 56q0 24 -16.5 38.5t-46.5 14.5h-58v-109z" />
    <glyph glyph-name="trademark" unicode="&#x2122;" horiz-adv-x="626" 
d="M74 661l6 49h217l-6 -49h-82l-34 -274h-53l34 274h-82zM578 710h56l-40 -323h-53l27 224l-95 -160h-35l-58 162l-28 -226h-52l39 323h56l67 -195z" />
    <glyph glyph-name="uni2126" unicode="&#x2126;" horiz-adv-x="720" 
d="M40 0l9 77h140v1q-112 98 -112 259q0 160 94 269.5t242 109.5q120 0 193.5 -80t73.5 -204q0 -109 -48.5 -201t-132.5 -153v-1h131l-10 -77h-242l10 77q94 58 148.5 148t54.5 205q0 93 -49.5 149.5t-131.5 56.5q-110 0 -177 -89t-67 -212q0 -163 126 -258l-10 -77h-242z
" />
    <glyph glyph-name="estimated" unicode="&#x212e;" horiz-adv-x="798" 
d="M398 -10q-145 0 -241 93.5t-96 227.5q0 139 98 230t239 91q145 0 240.5 -93.5t95.5 -227.5v-9h-536v-195q71 -88 201 -88q61 0 116.5 22.5t91.5 62.5h47q-43 -53 -112.5 -83.5t-143.5 -30.5zM197 335h398v186q-35 39 -88.5 60t-107.5 21q-58 0 -112.5 -22.5t-88.5 -65.5z
" />
    <glyph glyph-name="oneeighth" unicode="&#x215b;" horiz-adv-x="758" 
d="M502 724l63 -30l-367 -710l-63 29zM194 299h-68l41 323l-74 -52l-28 53l126 88h54zM627 219q31 -9 49 -33t18 -58q0 -59 -43 -96t-111 -37q-59 0 -93.5 27t-34.5 75q0 45 26 77.5t67 44.5v2q-23 6 -39 27.5t-16 50.5q0 55 39.5 86.5t101.5 31.5q52 0 83 -23t31 -66
q0 -40 -23 -69t-55 -38v-2zM583 362q-29 0 -47.5 -17t-18.5 -46q0 -23 14.5 -37.5t39.5 -14.5q28 0 47.5 18.5t19.5 47.5q0 24 -15 36.5t-40 12.5zM546 53q36 0 57.5 21.5t21.5 57.5q0 28 -17 44t-47 16q-35 0 -57 -22t-23 -57q0 -27 16.5 -43.5t48.5 -16.5z" />
    <glyph glyph-name="threeeighths" unicode="&#x215c;" horiz-adv-x="787" 
d="M249 -16l-63 29l367 711l63 -30zM161 294q-80 0 -127 42l39 57q35 -38 85 -38q37 0 60 20t23 55q0 54 -60 54h-36l7 53h39q31 0 49.5 18.5t18.5 48.5q0 51 -59 51q-43 0 -87 -37l-33 46q60 52 135 52q51 0 80 -24t29 -70q0 -76 -66 -109v-1q54 -24 54 -87q0 -59 -42 -95
t-109 -36zM591 -5q-59 0 -93.5 27t-34.5 75q0 45 26 77.5t67 44.5v2q-23 6 -39 27.5t-16 50.5q0 55 39.5 86.5t101.5 31.5q52 0 83 -23t31 -66q0 -40 -23 -69t-55 -38v-2q31 -9 49 -33t18 -58q0 -59 -43 -96t-111 -37zM622 247q28 0 47.5 18.5t19.5 47.5q0 24 -15 36.5
t-40 12.5q-29 0 -47.5 -17t-18.5 -46q0 -23 14.5 -37.5t39.5 -14.5zM597 53q36 0 57.5 21.5t21.5 57.5q0 28 -17 44t-47 16q-35 0 -57 -22t-23 -57q0 -27 16.5 -43.5t48.5 -16.5z" />
    <glyph glyph-name="fiveeighths" unicode="&#x215d;" horiz-adv-x="785" 
d="M550 724l63 -30l-367 -710l-63 29zM316 450q0 -69 -43 -112t-115 -43q-77 0 -123 41l37 59q34 -37 86 -37q41 0 64.5 25.5t23.5 62.5q0 63 -65 63q-41 0 -68 -22l-35 14l37 210h216l-8 -63h-158l-17 -96q37 10 62 10q48 0 77 -28t29 -84zM675 219q31 -9 49 -33t18 -58
q0 -59 -43 -96t-111 -37q-59 0 -93.5 27t-34.5 75q0 45 26 77.5t67 44.5v2q-23 6 -39 27.5t-16 50.5q0 55 39.5 86.5t101.5 31.5q52 0 83 -23t31 -66q0 -40 -23 -69t-55 -38v-2zM631 362q-29 0 -47.5 -17t-18.5 -46q0 -23 14.5 -37.5t39.5 -14.5q28 0 47.5 18.5t19.5 47.5
q0 24 -15 36.5t-40 12.5zM594 53q36 0 57.5 21.5t21.5 57.5q0 28 -17 44t-47 16q-35 0 -57 -22t-23 -57q0 -27 16.5 -43.5t48.5 -16.5z" />
    <glyph glyph-name="seveneighths" unicode="&#x215e;" horiz-adv-x="715" 
d="M479 724l63 -30l-367 -710l-63 29zM144 299h-73l181 349h-178l9 63h253l-5 -46zM604 219q31 -9 49 -33t18 -58q0 -59 -43 -96t-111 -37q-59 0 -93.5 27t-34.5 75q0 45 26 77.5t67 44.5v2q-23 6 -39 27.5t-16 50.5q0 55 39.5 86.5t101.5 31.5q52 0 83 -23t31 -66
q0 -40 -23 -69t-55 -38v-2zM560 362q-29 0 -47.5 -17t-18.5 -46q0 -23 14.5 -37.5t39.5 -14.5q28 0 47.5 18.5t19.5 47.5q0 24 -15 36.5t-40 12.5zM523 53q36 0 57.5 21.5t21.5 57.5q0 28 -17 44t-47 16q-35 0 -57 -22t-23 -57q0 -27 16.5 -43.5t48.5 -16.5z" />
    <glyph glyph-name="arrowleft" unicode="&#x2190;" horiz-adv-x="883" 
d="M853 396v-82h-684l313 -314h-113l-354 356l354 354h113l-316 -314h687z" />
    <glyph glyph-name="arrowup" unicode="&#x2191;" horiz-adv-x="770" 
d="M740 483v-113l-314 313v-684h-82v687l-314 -316v113l354 354z" />
    <glyph glyph-name="arrowright" unicode="&#x2192;" horiz-adv-x="883" 
d="M514 710l354 -354l-354 -356h-113l313 314h-684v82h687l-316 314h113z" />
    <glyph glyph-name="arrowdown" unicode="&#x2193;" horiz-adv-x="770" 
d="M426 24l314 316v-113l-354 -354l-356 354v113l314 -313v684h82v-687z" />
    <glyph glyph-name="arrowboth" unicode="&#x2194;" horiz-adv-x="1288" 
d="M919 710l354 -354l-354 -356h-113l313 314h-950l313 -314h-113l-354 356l354 354h113l-316 -314h956l-316 314h113z" />
    <glyph glyph-name="arrowupdn" unicode="&#x2195;" horiz-adv-x="825" 
d="M443 -126l314 316v-113l-354 -354l-356 354v113l314 -313v950l-314 -313v113l356 354l354 -354v-113l-314 316v-956z" />
    <glyph glyph-name="uni2196" unicode="&#x2196;" horiz-adv-x="719" 
d="M684 146l-59 -58l-485 485l1 -445l-79 80v502l501 -1l80 -79l-445 1z" />
    <glyph glyph-name="uni2197" unicode="&#x2197;" horiz-adv-x="719" 
d="M157 710l501 1v-502l-79 -80l1 445l-485 -485l-59 58l486 485l-445 -1z" />
    <glyph glyph-name="uni2198" unicode="&#x2198;" horiz-adv-x="719" 
d="M578 582l79 -80v-502l-501 1l-80 79l445 -1l-486 485l59 58l485 -485z" />
    <glyph glyph-name="uni2199" unicode="&#x2199;" horiz-adv-x="719" 
d="M684 564l-486 -485l445 1l-80 -79l-501 -1v502l79 80l-1 -445l485 485z" />
    <glyph glyph-name="partialdiff" unicode="&#x2202;" horiz-adv-x="536" 
d="M232 -6q-82 0 -134 52t-52 137q0 109 63 182t162 73q91 0 140 -77l2 1q2 13 2 40q2 215 -121 215q-68 0 -137 -40l-13 69q83 47 174 47q42 0 74.5 -17t52.5 -44t32.5 -65.5t17 -76.5t4.5 -82q0 -109 -26.5 -200t-89 -152.5t-151.5 -61.5zM240 74q61 0 101.5 53t58.5 140
q-15 42 -46.5 69t-76.5 27q-67 0 -106.5 -47.5t-39.5 -115.5q0 -57 28.5 -91.5t80.5 -34.5z" />
    <glyph glyph-name="emptyset" unicode="&#x2205;" horiz-adv-x="710" 
d="M587 511q68 -84 68 -193q0 -124 -88 -213.5t-214 -89.5q-109 0 -192 70l-45 -45l-37 37l45 45q-71 86 -71 196q0 124 88 213t213 89q113 0 196 -72l40 40l37 -37zM120 317q0 -83 51 -148l332 332q-64 53 -149 53q-98 0 -166 -69.5t-68 -167.5zM353 81q98 0 166.5 70
t68.5 167q0 82 -49 145l-331 -331q62 -51 145 -51z" />
    <glyph glyph-name="uni2206" unicode="&#x2206;" horiz-adv-x="603" 
d="M8 0l8 67l297 643h90l141 -643l-9 -67h-527zM110 77h344l-107 528h-1z" />
    <glyph glyph-name="product" unicode="&#x220f;" horiz-adv-x="658" 
d="M50 -102l99 812h474l-99 -812h-85l90 735h-304l-90 -735h-85z" />
    <glyph glyph-name="summation" unicode="&#x2211;" horiz-adv-x="561" 
d="M18 -85l7 62l243 337l-159 332l7 64h456l-9 -77h-346v-2l148 -317l-224 -320v-2h343l-9 -77h-457z" />
    <glyph glyph-name="minus" unicode="&#x2212;" horiz-adv-x="546" 
d="M61 240l9 73h423l-9 -73h-423z" />
    <glyph glyph-name="radical" unicode="&#x221a;" horiz-adv-x="629" 
d="M256 0l-90 500h-100l9 70h167l75 -451h2l372 703h65l-442 -822h-58z" />
    <glyph glyph-name="infinity" unicode="&#x221e;" horiz-adv-x="718" 
d="M532 437q57 0 94 -40t37 -102q0 -73 -48 -127t-116 -54q-88 0 -142 107q-81 -107 -163 -107q-57 0 -94 40t-37 101q0 73 48.5 127.5t115.5 54.5q85 0 140 -107q85 107 165 107zM200 178q57 0 124 100q-20 45 -42 69.5t-52 24.5q-42 0 -71 -35t-29 -81q0 -35 19.5 -56.5
t50.5 -21.5zM497 178q39 0 68.5 34.5t29.5 81.5q0 35 -19 56.5t-49 21.5q-59 0 -126 -100q42 -94 96 -94z" />
    <glyph glyph-name="integral" unicode="&#x222b;" horiz-adv-x="252" 
d="M-26 -169q-21 -2 -53 2l8 62h8q47 0 59.5 19t23.5 89l84 557q10 69 39 101.5t80 34.5q17 1 31.5 -0.5t24 -3.5t12.5 -2l-8 -58h-23q-46 0 -58.5 -18t-23.5 -91l-84 -559q-11 -69 -39.5 -100t-80.5 -33z" />
    <glyph glyph-name="uni2236" unicode="&#x2236;" horiz-adv-x="244" 
d="M157 436q-24 0 -39.5 16t-15.5 40q0 25 16.5 42t41.5 17q24 0 40 -16t16 -40q0 -25 -17 -42t-42 -17zM109 51q-24 0 -39.5 16t-15.5 40q0 25 16.5 42t41.5 17q24 0 40 -16t16 -40q0 -26 -17 -42.5t-42 -16.5z" />
    <glyph glyph-name="approxequal" unicode="&#x2248;" horiz-adv-x="557" 
d="M393 323q-32 0 -88.5 24.5t-90.5 24.5q-57 0 -113 -40l-20 59q18 17 55 35t74 18q40 0 94 -24.5t84 -24.5q49 0 101 48l21 -60q-56 -60 -117 -60zM366 105q-32 0 -88.5 24.5t-89.5 24.5q-58 0 -114 -40l-19 58q17 17 53.5 35.5t74.5 18.5q40 0 94.5 -24.5t84.5 -24.5
q48 0 101 47l19 -59q-54 -60 -116 -60z" />
    <glyph glyph-name="notequal" unicode="&#x2260;" horiz-adv-x="549" 
d="M521 353h-173l-82 -153h235l-9 -73h-266l-67 -124l-54 23l55 101h-91l9 73h122l83 153h-185l9 73h216l70 129l52 -23l-57 -106h142z" />
    <glyph glyph-name="lessequal" unicode="&#x2264;" horiz-adv-x="543" 
d="M458 149l-382 205l6 59l433 207l-10 -81l-315 -155l277 -155zM31 0l9 73h409l-9 -73h-409z" />
    <glyph glyph-name="greaterequal" unicode="&#x2265;" horiz-adv-x="551" 
d="M76 150l9 80l316 155l-277 155l9 80l382 -206l-6 -60zM57 0l9 73h409l-9 -73h-409z" />
    <glyph glyph-name="filledbox" unicode="&#x25a0;" horiz-adv-x="643" 
d="M45 0v551h552v-551h-552z" />
    <glyph glyph-name="uni25A1" unicode="&#x25a1;" horiz-adv-x="643" 
d="M45 0v551h552v-551h-552zM112 67h418v417h-418v-417z" />
    <glyph glyph-name="triagup" unicode="&#x25b2;" horiz-adv-x="642" 
d="M7 0l314 580l313 -580h-627z" />
    <glyph glyph-name="uni25B3" unicode="&#x25b3;" horiz-adv-x="642" 
d="M7 0l314 580l313 -580h-627zM119 67h403l-201 373z" />
    <glyph glyph-name="uni25B6" unicode="&#x25b6;" horiz-adv-x="637" 
d="M50 -38v627l579 -314z" />
    <glyph glyph-name="uni25B7" unicode="&#x25b7;" horiz-adv-x="637" 
d="M50 -38v627l579 -314zM117 74l372 201l-372 202v-403z" />
    <glyph glyph-name="triagdn" unicode="&#x25bc;" horiz-adv-x="642" 
d="M321 -28l-314 579h627z" />
    <glyph glyph-name="uni25BD" unicode="&#x25bd;" horiz-adv-x="642" 
d="M321 -28l-314 579h627zM321 112l201 372h-403z" />
    <glyph glyph-name="uni25C0" unicode="&#x25c0;" horiz-adv-x="637" 
d="M587 -38l-580 313l580 314v-627z" />
    <glyph glyph-name="uni25C1" unicode="&#x25c1;" horiz-adv-x="637" 
d="M587 -38l-580 313l580 314v-627zM520 74v403l-373 -202z" />
    <glyph glyph-name="uni25C6" unicode="&#x25c6;" horiz-adv-x="693" 
d="M347 -64l-340 339l340 340l339 -340z" />
    <glyph glyph-name="uni25C7" unicode="&#x25c7;" horiz-adv-x="693" 
d="M347 -64l-340 339l340 340l339 -340zM347 30l245 245l-245 246l-246 -246z" />
    <glyph glyph-name="lozenge" unicode="&#x25ca;" horiz-adv-x="440" 
d="M189 0l-134 338l214 339l140 -339zM203 131l120 207l-67 209l-118 -209z" />
    <glyph glyph-name="circle" unicode="&#x25cb;" horiz-adv-x="642" 
d="M321 -6q-116 0 -198 82.5t-82 198.5q0 117 82 200t198 83q115 0 197 -83t82 -200q0 -116 -82 -198.5t-197 -82.5zM321 63q86 0 148 62t62 150t-61.5 150.5t-148.5 62.5t-149 -62.5t-62 -150.5t62 -150t149 -62z" />
    <glyph glyph-name="uni25CF" unicode="&#x25cf;" horiz-adv-x="642" 
d="M321 -6q-116 0 -198 82.5t-82 198.5q0 117 82 200t198 83q115 0 197 -83t82 -200q0 -116 -82 -198.5t-197 -82.5z" />
    <glyph glyph-name="uni2605" unicode="&#x2605;" horiz-adv-x="756" 
d="M150 -37l87 267l-228 167h282l86 268l88 -268h282l-229 -167l88 -267l-229 165z" />
    <glyph glyph-name="uni2606" unicode="&#x2606;" horiz-adv-x="756" 
d="M150 -37l87 267l-228 167h282l86 268l88 -268h282l-229 -167l88 -267l-229 165zM250 97l127 93l129 -93l-49 149l130 95h-160l-49 150l-49 -150h-160l129 -95z" />
    <glyph glyph-name="uni2610" unicode="&#x2610;" horiz-adv-x="740" 
d="M45 0v551h552v-551h-552zM112 67h418v417h-418v-417z" />
    <glyph glyph-name="uni2713" unicode="&#x2713;" horiz-adv-x="632" 
d="M661 691l46 -41l-519 -570l-166 195l52 45l120 -142z" />
    <glyph glyph-name="uni2715" unicode="&#x2715;" horiz-adv-x="632" 
d="M149 70l-40 46l140 125l-112 126l51 45l110 -126l140 126l41 -45l-140 -127l111 -125l-50 -44l-111 124z" />
    <glyph glyph-name="uni2780" unicode="&#x2780;" horiz-adv-x="766" 
d="M433 707q136 0 227.5 -92.5t91.5 -229.5q0 -162 -116 -280t-281 -118q-136 0 -226.5 92t-90.5 229q0 160 118.5 279.5t276.5 119.5zM356 52q138 0 235 99t97 235q0 110 -73 183t-183 73q-132 0 -231 -100.5t-99 -234.5q0 -109 72.5 -182t181.5 -73zM290 467l126 88h54
l-51 -412h-68l41 323l-74 -52z" />
    <glyph glyph-name="uni2781" unicode="&#x2781;" horiz-adv-x="766" 
d="M355 -13q-136 0 -226.5 92t-90.5 229q0 160 118.5 279.5t276.5 119.5q136 0 227.5 -92.5t91.5 -229.5q0 -162 -116 -280t-281 -118zM356 52q138 0 235 99t97 235q0 110 -73 183t-183 73q-132 0 -231 -100.5t-99 -234.5q0 -109 72.5 -182t181.5 -73zM250 143l5 48l136 132
q77 75 77 122q0 23 -14.5 37t-42.5 14q-40 0 -88 -40l-35 50q62 54 135 54q55 0 85 -26.5t30 -76.5q0 -79 -90 -164l-94 -86l1 -2h157l-8 -62h-254z" />
    <glyph glyph-name="uni2782" unicode="&#x2782;" horiz-adv-x="766" 
d="M355 -13q-136 0 -226.5 92t-90.5 229q0 160 118.5 279.5t276.5 119.5q136 0 227.5 -92.5t91.5 -229.5q0 -162 -116 -280t-281 -118zM356 52q138 0 235 99t97 235q0 110 -73 183t-183 73q-132 0 -231 -100.5t-99 -234.5q0 -109 72.5 -182t181.5 -73zM374 138
q-80 0 -127 42l39 57q35 -38 85 -38q37 0 60 20t23 55q0 54 -60 54h-36l7 53h39q30 0 49 18.5t19 48.5q0 51 -59 51q-43 0 -87 -37l-33 46q60 52 135 52q51 0 80 -24t29 -70q0 -76 -66 -109v-1q54 -24 54 -87q0 -59 -42 -95t-109 -36z" />
    <glyph glyph-name="uni2783" unicode="&#x2783;" horiz-adv-x="766" 
d="M433 707q136 0 227.5 -92.5t91.5 -229.5q0 -162 -116 -280t-281 -118q-136 0 -226.5 92t-90.5 229q0 160 118.5 279.5t276.5 119.5zM356 52q138 0 235 99t97 235q0 110 -73 183t-183 73q-132 0 -231 -100.5t-99 -234.5q0 -109 72.5 -182t181.5 -73zM505 555l-33 -274h54
l-8 -60h-54l-10 -78h-67l9 78h-176l5 44l227 290h53zM296 275h119l22 182z" />
    <glyph glyph-name="uni2784" unicode="&#x2784;" horiz-adv-x="766" 
d="M433 707q136 0 227.5 -92.5t91.5 -229.5q0 -162 -116 -280t-281 -118q-136 0 -226.5 92t-90.5 229q0 160 118.5 279.5t276.5 119.5zM356 52q138 0 235 99t97 235q0 110 -73 183t-183 73q-132 0 -231 -100.5t-99 -234.5q0 -109 72.5 -182t181.5 -73zM289 345l37 210h216
l-8 -63h-158l-17 -96q37 10 62 10q48 0 77 -28t29 -84q0 -69 -43 -112t-115 -43q-77 0 -123 41l37 59q34 -37 86 -37q41 0 64.5 25.5t23.5 62.5q0 63 -65 63q-41 0 -68 -22z" />
    <glyph glyph-name="uni2785" unicode="&#x2785;" horiz-adv-x="766" 
d="M433 707q136 0 227.5 -92.5t91.5 -229.5q0 -162 -116 -280t-281 -118q-136 0 -226.5 92t-90.5 229q0 160 118.5 279.5t276.5 119.5zM356 52q138 0 235 99t97 235q0 110 -73 183t-183 73q-132 0 -231 -100.5t-99 -234.5q0 -109 72.5 -182t181.5 -73zM435 496
q-95 0 -118 -126q44 34 98 34q47 0 78.5 -29t31.5 -82q0 -64 -39.5 -109t-106.5 -45q-64 0 -100 44.5t-36 122.5q0 103 49.5 177.5t144.5 75.5q48 1 96 -21l-30 -56q-32 14 -68 14zM456 288q0 29 -17.5 45t-46.5 16q-48 0 -84 -45v-8q0 -42 19.5 -68.5t53.5 -26.5
q33 0 54 25t21 62z" />
    <glyph glyph-name="uni2786" unicode="&#x2786;" horiz-adv-x="766" 
d="M433 707q136 0 227.5 -92.5t91.5 -229.5q0 -162 -116 -280t-281 -118q-136 0 -226.5 92t-90.5 229q0 160 118.5 279.5t276.5 119.5zM356 52q138 0 235 99t97 235q0 110 -73 183t-183 73q-132 0 -231 -100.5t-99 -234.5q0 -109 72.5 -182t181.5 -73zM298 492l9 63h253
l-5 -46l-187 -366h-73l181 349h-178z" />
    <glyph glyph-name="uni2787" unicode="&#x2787;" horiz-adv-x="766" 
d="M355 -13q-136 0 -226.5 92t-90.5 229q0 160 118.5 279.5t276.5 119.5q136 0 227.5 -92.5t91.5 -229.5q0 -162 -116 -280t-281 -118zM356 52q138 0 235 99t97 235q0 110 -73 183t-183 73q-132 0 -231 -100.5t-99 -234.5q0 -109 72.5 -182t181.5 -73zM376 138
q-59 0 -93.5 27t-34.5 75q0 45 26 77.5t67 44.5v2q-23 6 -39 27.5t-16 50.5q0 55 39.5 86.5t101.5 31.5q52 0 83 -23t31 -66q0 -40 -23 -69t-55 -38v-2q31 -9 49 -33t18 -58q0 -59 -43 -96t-111 -37zM407 390q28 0 47.5 18.5t19.5 47.5q0 24 -15 36.5t-40 12.5
q-29 0 -47.5 -17t-18.5 -46q0 -23 14.5 -37.5t39.5 -14.5zM382 196q36 0 57.5 21.5t21.5 57.5q0 28 -17 44t-47 16q-35 0 -57 -22t-23 -57q0 -27 16.5 -43.5t48.5 -16.5z" />
    <glyph glyph-name="uni2788" unicode="&#x2788;" horiz-adv-x="766" 
d="M433 707q136 0 227.5 -92.5t91.5 -229.5q0 -162 -116 -280t-281 -118q-136 0 -226.5 92t-90.5 229q0 160 118.5 279.5t276.5 119.5zM356 52q138 0 235 99t97 235q0 110 -73 183t-183 73q-132 0 -231 -100.5t-99 -234.5q0 -109 72.5 -182t181.5 -73zM413 559
q64 0 100 -44.5t36 -122.5q0 -65 -19.5 -120t-64.5 -93.5t-109 -39.5q-50 -1 -98 22l30 56q33 -15 69 -15q95 0 118 126q-43 -34 -95 -34q-49 0 -81 29.5t-32 83.5q0 63 39.5 107.5t106.5 44.5zM336 412q0 -31 17.5 -47t46.5 -16q50 0 85 47v6q0 41 -20 68t-54 27
q-32 0 -53.5 -25t-21.5 -60z" />
    <glyph glyph-name="uni278A" unicode="&#x278a;" horiz-adv-x="766" 
d="M355 -13q-136 0 -226.5 92t-90.5 229q0 160 118.5 279.5t276.5 119.5q136 0 227.5 -92.5t91.5 -229.5q0 -162 -116 -280t-281 -118zM350 143h68l50 412h-52l-128 -88l28 -53l75 53z" />
    <glyph glyph-name="uni278B" unicode="&#x278b;" horiz-adv-x="766" 
d="M355 -13q-136 0 -226.5 92t-90.5 229q0 160 118.5 279.5t276.5 119.5q136 0 227.5 -92.5t91.5 -229.5q0 -162 -116 -280t-281 -118zM249 143h255l7 62h-157l-1 2l94 86q90 85 90 164q0 50 -30 76.5t-85 26.5q-73 0 -135 -54l35 -50q48 40 88 40q28 0 42.5 -14t14.5 -37
q0 -47 -77 -122l-136 -132z" />
    <glyph glyph-name="uni278C" unicode="&#x278c;" horiz-adv-x="766" 
d="M355 -13q-136 0 -226.5 92t-90.5 229q0 160 118.5 279.5t276.5 119.5q136 0 227.5 -92.5t91.5 -229.5q0 -162 -116 -280t-281 -118zM373 138q67 0 109 36t42 95q0 63 -54 87v1q66 33 66 109q0 46 -28.5 70t-80.5 24q-75 0 -134 -52l32 -46q44 37 88 37q58 0 58 -51
q0 -30 -18.5 -48.5t-49.5 -18.5h-39l-7 -53h36q60 0 60 -54q0 -35 -23 -55t-60 -20q-50 0 -85 38l-38 -57q45 -42 126 -42z" />
    <glyph glyph-name="uni278D" unicode="&#x278d;" horiz-adv-x="766" 
d="M355 -13q-136 0 -226.5 92t-90.5 229q0 160 118.5 279.5t276.5 119.5q136 0 227.5 -92.5t91.5 -229.5q0 -162 -116 -280t-281 -118zM386 143h68l10 78h54l8 60h-55l34 274h-54l-227 -290l-5 -44h177zM296 275l140 181l-22 -181h-118z" />
    <glyph glyph-name="uni278E" unicode="&#x278e;" horiz-adv-x="766" 
d="M355 -13q-136 0 -226.5 92t-90.5 229q0 160 118.5 279.5t276.5 119.5q136 0 227.5 -92.5t91.5 -229.5q0 -162 -116 -280t-281 -118zM368 139q72 0 115.5 43.5t43.5 111.5q0 56 -29.5 84t-77.5 28q-30 0 -62 -12l17 98h159l7 63h-216l-37 -210l35 -14q27 22 68 22
q65 0 65 -63q0 -37 -23 -62.5t-65 -25.5q-53 0 -85 37l-38 -59q46 -41 123 -41z" />
    <glyph glyph-name="uni278F" unicode="&#x278f;" horiz-adv-x="766" 
d="M355 -13q-136 0 -226.5 92t-90.5 229q0 160 118.5 279.5t276.5 119.5q136 0 227.5 -92.5t91.5 -229.5q0 -162 -116 -280t-281 -118zM379 139q67 0 106.5 45t39.5 109q0 53 -32 82t-79 29q-53 0 -94 -37l-3 2q22 127 118 127q35 0 67 -14l31 56q-48 22 -97 21
q-95 -1 -144.5 -76t-49.5 -177q0 -78 36.5 -122.5t100.5 -44.5zM381 201q-35 0 -55 29t-18 70q29 49 83 49q30 0 47.5 -16t17.5 -45q0 -36 -21.5 -61.5t-53.5 -25.5z" />
    <glyph glyph-name="uni2790" unicode="&#x2790;" horiz-adv-x="766" 
d="M355 -13q-136 0 -226.5 92t-90.5 229q0 160 118.5 279.5t276.5 119.5q136 0 227.5 -92.5t91.5 -229.5q0 -162 -116 -280t-281 -118zM295 143h73l186 366l5 46h-253l-8 -63h178z" />
    <glyph glyph-name="uni2791" unicode="&#x2791;" horiz-adv-x="766" 
d="M355 -13q-136 0 -226.5 92t-90.5 229q0 160 118.5 279.5t276.5 119.5q136 0 227.5 -92.5t91.5 -229.5q0 -162 -116 -280t-281 -118zM375 138q68 0 111 37t43 96q0 34 -18 58t-49 33v2q32 9 55 38t23 69q0 43 -31 66t-83 23q-62 0 -101.5 -31.5t-39.5 -86.5
q0 -29 16 -50.5t39 -27.5v-2q-41 -12 -67 -44.5t-26 -77.5q0 -48 34.5 -75t93.5 -27zM406 390q-25 0 -39.5 14.5t-14.5 37.5q0 29 18.5 46t47.5 17q25 0 40 -12.5t15 -36.5q0 -29 -19.5 -47.5t-47.5 -18.5zM381 196q-32 0 -48.5 16.5t-16.5 43.5q1 35 23 57t57 22
q30 0 47 -16t17 -44q0 -36 -21.5 -57.5t-57.5 -21.5z" />
    <glyph glyph-name="uni2792" unicode="&#x2792;" horiz-adv-x="766" 
d="M355 -13q-136 0 -226.5 92t-90.5 229q0 160 118.5 279.5t276.5 119.5q136 0 227.5 -92.5t91.5 -229.5q0 -162 -116 -280t-281 -118zM355 139q64 1 109 39.5t64.5 93.5t19.5 120q0 78 -36 122.5t-100 44.5q-67 0 -106.5 -44.5t-39.5 -107.5q0 -54 32 -83.5t81 -29.5
q53 0 92 37l2 -1q-20 -128 -117 -128q-36 0 -69 15l-30 -56q48 -23 98 -22zM399 349q-29 0 -46.5 16t-17.5 47q0 35 21.5 60t53.5 25q35 0 54 -26.5t19 -72.5q-30 -49 -84 -49z" />
    <glyph glyph-name="uni2E18" unicode="&#x2e18;" horiz-adv-x="398" 
d="M253 379q-24 0 -40 16t-16 40q0 25 16.5 42t42.5 17q24 0 39.5 -16t15.5 -40q0 -25 -16.5 -42t-41.5 -17zM297 -109l53 -53q-33 -44 -83.5 -69t-105.5 -25q-67 0 -112.5 42t-45.5 113q0 63 27 111t80 98q29 27 43.5 42t29 37t17.5 42l8 51h70l-31 -376h-90l29 185l-4 -4
q-35 -36 -50.5 -54t-28.5 -48t-13 -64q0 -47 24 -71t67 -24q69 0 116 67z" />
    <glyph glyph-name="u1F10B" unicode="&#x1f10b;" horiz-adv-x="766" 
d="M355 -13q-136 0 -226.5 92t-90.5 229q0 160 118.5 279.5t276.5 119.5q136 0 227.5 -92.5t91.5 -229.5q0 -162 -116 -280t-281 -118zM356 52q138 0 235 99t97 235q0 110 -73 183t-183 73q-132 0 -231 -100.5t-99 -234.5q0 -109 72.5 -182t181.5 -73zM374 137
q-64 0 -100 44t-36 125q0 103 49 179t133 76q64 0 100 -45t36 -124q0 -105 -49 -180t-133 -75zM376 201q53 0 82.5 58.5t29.5 133.5q0 51 -18.5 77.5t-50.5 26.5q-54 0 -83.5 -58.5t-29.5 -133.5q0 -104 70 -104z" />
    <glyph glyph-name="u1F10C" unicode="&#x1f10c;" horiz-adv-x="766" 
d="M355 -13q-136 0 -226.5 92t-90.5 229q0 160 118.5 279.5t276.5 119.5q136 0 227.5 -92.5t91.5 -229.5q0 -162 -116 -280t-281 -118zM373 137q84 0 133 75t49 180q0 79 -36.5 124t-100.5 45q-83 0 -132 -76t-49 -179q0 -81 36 -125t100 -44zM375 201q-70 0 -70 104
q0 75 29.5 133.5t83.5 58.5q32 0 50.5 -26.5t18.5 -77.5q0 -74 -30 -133t-82 -59z" />
    <glyph glyph-name="uni00A40301" horiz-adv-x="502" 
d="M402 782l119 129h92l-130 -129h-81zM201 -6q-132 0 -194 94l55 66q53 -79 137 -79q119 0 139 169l57 466h86l-58 -470q-30 -246 -222 -246z" />
    <glyph glyph-name="i.loclTRK" horiz-adv-x="246" 
d="M173 577q-24 0 -40 16t-16 40q0 25 16.5 41.5t41.5 16.5q24 0 40 -16t16 -40q0 -25 -16.5 -41.5t-41.5 -16.5zM53 0l60 487h80l-60 -487h-80z" />
    <glyph glyph-name="uni006A0301" horiz-adv-x="209" 
d="M100 557l121 141l90 1l-128 -142h-83zM-36 -204q-41 0 -73 21l20 64q21 -15 45 -15q29 0 46 21.5t23 76.5l64 523h80l-66 -533q-19 -158 -139 -158z" />
    <glyph glyph-name="f.calt" horiz-adv-x="356" 
d="M75 0l51 418h-75l8 69h76l11 89q10 86 54 126.5t109 40.5q34 0 75 -13l-25 -68q-23 7 -42 7q-81 0 -93 -103l-10 -79h135l-8 -69h-135l-51 -418h-80z" />
    <glyph glyph-name="germandbls.calt" horiz-adv-x="719" 
d="M506 399q8 -5 38.5 -22t40 -23.5t33.5 -22.5t32.5 -27.5t21.5 -29.5t17.5 -38.5t4.5 -44.5q0 -91 -63 -144t-164 -53q-148 0 -218 98l57 64q29 -40 72 -62t90 -22q63 0 100 33t37 84q0 25 -9.5 44.5t-30.5 36t-38 26.5t-49 26q-59 31 -90 51l157 245l-1 4q-84 15 -158 15
q-87 0 -132 -35t-55 -115l-60 -487h-84l60 492q27 225 266 225q118 0 291 -42l-176 -270q6 -4 10 -6z" />
    <glyph glyph-name="zero.tf" 
d="M264 -6q-91 0 -144.5 67t-53.5 196q0 112 30.5 209t97 162t156.5 65q91 0 143 -67t52 -196q0 -84 -18 -161t-52 -139t-88.5 -99t-122.5 -37zM265 71q50 0 88.5 32.5t61.5 86.5t34.5 116t11.5 128q0 182 -116 182q-65 0 -111 -58t-65.5 -137.5t-19.5 -167.5
q0 -89 31.5 -135.5t84.5 -46.5z" />
    <glyph glyph-name="one.tf" 
d="M348 76h123l-10 -76h-355l9 76h151l62 504l-150 -98l-39 63l218 142h66z" />
    <glyph glyph-name="two.tf" 
d="M66 0l5 57l237 233q131 129 131 226q0 44 -25 71.5t-77 27.5q-79 0 -159 -75l-45 62q95 91 210 91q82 0 131 -46t49 -125q0 -131 -146 -272l-181 -172v-2h283l-10 -76h-403z" />
    <glyph glyph-name="three.tf" 
d="M266 -6q-131 0 -203 83l50 64q55 -70 154 -70q70 0 111 41.5t41 109.5q0 98 -111 98h-69l8 71h65q60 0 96 41.5t36 96.5q0 41 -26.5 64t-75.5 23q-79 0 -152 -64l-47 60q88 81 206 81q81 0 129.5 -40t48.5 -114q0 -62 -29.5 -109.5t-81.5 -71.5v-1q87 -38 87 -145
q0 -98 -65.5 -158t-171.5 -60z" />
    <glyph glyph-name="four.tf" 
d="M429 219h92l-9 -75h-93l-18 -144h-81l17 144h-290l7 59l366 484h65zM147 213h204l40 324z" />
    <glyph glyph-name="five.tf" 
d="M522 611h-268l-33 -194q60 19 111 19q81 0 127 -47.5t46 -138.5q0 -115 -68.5 -185.5t-178.5 -70.5q-59 0 -112 21.5t-88 61.5l50 64q55 -70 151 -70q74 0 118 49.5t44 124.5q0 119 -122 119q-68 0 -126 -40l-45 21l61 342h343z" />
    <glyph glyph-name="six.tf" 
d="M352 434q78 0 126 -47.5t48 -137.5q0 -108 -67 -181.5t-174 -73.5q-96 0 -150 66.5t-54 191.5q0 84 18.5 160t55 140.5t99 102.5t142.5 38q89 0 136 -25l-39 -74q-44 23 -98 23q-96 0 -153.5 -73.5t-73.5 -194.5v-2l5 -2q78 89 179 89zM289 71q66 0 109.5 50t43.5 124
q0 113 -108 113q-48 0 -94.5 -26t-77.5 -75q1 -87 32 -136.5t95 -49.5z" />
    <glyph glyph-name="seven.tf" 
d="M130 0l308 611h-307l10 76h400l-6 -58l-313 -629h-92z" />
    <glyph glyph-name="eight.tf" 
d="M266 -6q-96 0 -149.5 44.5t-53.5 127.5q0 74 40.5 129t102.5 75v2q-33 15 -55 48.5t-22 83.5q0 86 61 137.5t154 51.5q83 0 130 -41t48 -112q0 -64 -34.5 -109t-76.5 -60l-1 -2q46 -16 73 -55t27 -97q0 -102 -67.5 -162.5t-176.5 -60.5zM314 404q54 0 91 34t37 87
q0 44 -28.5 68.5t-75.5 24.5q-56 1 -92.5 -32.5t-36.5 -85.5q0 -44 29 -70t76 -26zM274 68q69 0 110.5 40t41.5 104q0 55 -32.5 86.5t-92.5 31.5q-68 0 -111 -42t-43 -106q0 -53 33 -83.5t94 -30.5z" />
    <glyph glyph-name="nine.tf" 
d="M332 693q96 0 150.5 -66.5t54.5 -191.5q0 -66 -11 -128.5t-36 -119.5t-61 -99.5t-89.5 -68t-117.5 -25.5q-91 0 -141 31l39 73q48 -28 103 -28q96 0 154 73.5t73 194.5v2l-4 3q-81 -90 -180 -90q-79 0 -127 47.5t-48 137.5q0 108 67 181.5t174 73.5zM284 329
q47 0 93 25.5t78 73.5q0 88 -31 138t-95 50q-66 0 -110 -50t-44 -124q0 -55 28 -84t81 -29z" />
    <glyph glyph-name="zero.tf.zero" 
d="M264 -6q-91 0 -144.5 67t-53.5 196q0 112 30.5 209t97 162t156.5 65q91 0 143 -67t52 -196q0 -84 -18 -161t-52 -139t-88.5 -99t-122.5 -37zM265 71q50 0 88.5 32.5t61.5 86.5t34.5 116t11.5 128q0 182 -116 182q-65 0 -111 -58t-65.5 -137.5t-19.5 -167.5
q0 -89 31.5 -135.5t84.5 -46.5zM312 286q-22 0 -37 15t-15 37q0 24 15.5 39.5t38.5 15.5t38 -15t15 -37q0 -24 -16 -39.5t-39 -15.5z" />
    <glyph glyph-name="zero.zero" 
d="M264 -6q-91 0 -144.5 67t-53.5 196q0 112 30.5 209t97 162t156.5 65q91 0 143 -67t52 -196q0 -84 -18 -161t-52 -139t-88.5 -99t-122.5 -37zM265 71q50 0 88.5 32.5t61.5 86.5t34.5 116t11.5 128q0 182 -116 182q-65 0 -111 -58t-65.5 -137.5t-19.5 -167.5
q0 -89 31.5 -135.5t84.5 -46.5zM312 286q-22 0 -37 15t-15 37q0 24 15.5 39.5t38.5 15.5t38 -15t15 -37q0 -24 -16 -39.5t-39 -15.5z" />
    <glyph glyph-name="zero.dnom" horiz-adv-x="373" 
d="M159 -6q-64 0 -100 44t-36 125q0 103 49 179t133 76q64 0 100 -45t36 -124q0 -105 -49 -180t-133 -75zM161 58q53 0 82.5 58.5t29.5 133.5q0 51 -18.5 77.5t-50.5 26.5q-54 0 -83.5 -58.5t-29.5 -133.5q0 -104 70 -104z" />
    <glyph glyph-name="one.dnom" horiz-adv-x="254" 
d="M155 412h54l-51 -412h-68l41 323l-74 -52l-28 53z" />
    <glyph glyph-name="two.dnom" horiz-adv-x="316" 
d="M-2 0l5 48l136 132q77 75 77 122q0 23 -14.5 37t-42.5 14q-40 0 -88 -40l-35 50q62 54 135 54q55 0 85 -26.5t30 -76.5q0 -79 -90 -164l-94 -86l1 -2h157l-8 -62h-254z" />
    <glyph glyph-name="three.dnom" horiz-adv-x="319" 
d="M124 -5q-80 0 -127 42l39 57q35 -38 85 -38q37 0 60 20t23 55q0 54 -60 54h-36l7 53h39q30 0 49 19t19 48q0 51 -59 51q-43 0 -87 -37l-33 46q60 52 135 52q51 0 80 -24t29 -70q0 -76 -66 -109v-1q54 -24 54 -87q0 -59 -42 -95t-109 -36z" />
    <glyph glyph-name="four.dnom" horiz-adv-x="341" 
d="M251 138h54l-8 -60h-54l-10 -78h-67l9 78h-176l5 44l227 290h53zM75 132h119l22 182z" />
    <glyph glyph-name="five.dnom" horiz-adv-x="320" 
d="M286 349h-158l-17 -96q37 10 62 10q48 0 77 -28t29 -84q0 -69 -43 -112t-115 -43q-77 0 -123 41l37 59q34 -37 86 -37q41 0 64.5 25.5t23.5 62.5q0 63 -65 63q-40 0 -68 -22l-35 14l37 210h216z" />
    <glyph glyph-name="six.dnom" horiz-adv-x="343" 
d="M195 261q47 0 78.5 -29t31.5 -82q0 -64 -39.5 -109t-106.5 -45q-64 0 -100 44.5t-36 122.5q0 103 49.5 177.5t144.5 75.5q48 1 96 -21l-30 -56q-32 14 -68 14q-95 0 -118 -126q44 34 98 34zM161 58q33 0 54 25t21 62q0 29 -17.5 45t-46.5 16q-48 0 -84 -45v-8
q0 -42 19.5 -68.5t53.5 -26.5z" />
    <glyph glyph-name="seven.dnom" horiz-adv-x="306" 
d="M46 412h253l-5 -46l-187 -366h-73l181 349h-178z" />
    <glyph glyph-name="eight.dnom" horiz-adv-x="342" 
d="M142 -5q-59 0 -93.5 27t-34.5 75q0 45 26 77.5t67 44.5v2q-23 6 -39 27.5t-16 50.5q0 55 39.5 86.5t101.5 31.5q52 0 83 -23t31 -66q0 -40 -23 -69t-55 -38v-2q31 -9 49 -33t18 -58q0 -59 -43 -96t-111 -37zM173 247q28 0 47.5 18.5t19.5 47.5q0 24 -15 36.5t-40 12.5
q-29 0 -47.5 -17t-18.5 -46q0 -23 14.5 -37.5t39.5 -14.5zM148 53q36 0 57.5 21.5t21.5 57.5q0 28 -17 44t-47 16q-35 0 -57 -22t-23 -57q0 -27 16.5 -43.5t48.5 -16.5z" />
    <glyph glyph-name="nine.dnom" horiz-adv-x="339" 
d="M170 416q64 0 100 -44.5t36 -122.5q0 -65 -19.5 -120t-64.5 -93.5t-109 -39.5q-50 -1 -98 22l30 56q33 -15 69 -15q95 0 118 126q-42 -34 -95 -34q-49 0 -81 29.5t-32 83.5q0 63 39.5 107.5t106.5 44.5zM93 269q0 -31 17.5 -47t46.5 -16q50 0 85 47v6q0 41 -20 68t-54 27
q-32 0 -53.5 -25t-21.5 -60z" />
    <glyph glyph-name="zero.numr" horiz-adv-x="374" 
d="M196 293q-64 0 -100 44t-36 125q0 103 49 179t133 76q64 0 100 -45t36 -124q0 -105 -49 -180t-133 -75zM198 357q53 0 82.5 58.5t29.5 133.5q0 51 -18.5 77.5t-50.5 26.5q-54 0 -83.5 -58.5t-29.5 -133.5q0 -104 70 -104z" />
    <glyph glyph-name="one.numr" horiz-adv-x="254" 
d="M191 711h54l-51 -412h-68l41 323l-74 -52l-28 53z" />
    <glyph glyph-name="two.numr" horiz-adv-x="316" 
d="M35 299l5 48l136 132q77 75 77 122q0 23 -14.5 37t-42.5 14q-40 0 -88 -40l-35 50q62 54 135 54q55 0 85 -26.5t30 -76.5q0 -79 -90 -164l-94 -86l1 -2h157l-8 -62h-254z" />
    <glyph glyph-name="three.numr" horiz-adv-x="319" 
d="M161 294q-80 0 -127 42l39 57q35 -38 85 -38q37 0 60 20t23 55q0 54 -60 54h-36l7 53h39q31 0 49.5 18.5t18.5 48.5q0 51 -59 51q-43 0 -87 -37l-33 46q60 52 135 52q51 0 80 -24t29 -70q0 -76 -66 -109v-1q54 -24 54 -87q0 -59 -42 -95t-109 -36z" />
    <glyph glyph-name="four.numr" horiz-adv-x="341" 
d="M287 437h54l-8 -60h-54l-10 -78h-67l9 78h-176l5 44l227 290h53zM111 431h119l22 182z" />
    <glyph glyph-name="five.numr" horiz-adv-x="320" 
d="M323 648h-158l-17 -96q37 10 62 10q48 0 77 -28t29 -84q0 -69 -43 -112t-115 -43q-77 0 -123 41l37 59q34 -37 86 -37q41 0 64.5 25.5t23.5 62.5q0 63 -65 63q-41 0 -68 -22l-35 14l37 210h216z" />
    <glyph glyph-name="six.numr" horiz-adv-x="343" 
d="M232 561q47 0 78.5 -29t31.5 -82q0 -64 -39.5 -109t-106.5 -45q-64 0 -100 44.5t-36 122.5q0 103 49.5 177.5t144.5 75.5q48 1 96 -21l-30 -56q-32 14 -68 14q-95 0 -118 -126q44 34 98 34zM198 358q33 0 54 25t21 62q0 29 -17.5 45t-46.5 16q-48 0 -84 -45v-8
q0 -42 19.5 -68.5t53.5 -26.5z" />
    <glyph glyph-name="seven.numr" horiz-adv-x="306" 
d="M83 711h253l-5 -46l-187 -366h-73l181 349h-178z" />
    <glyph glyph-name="eight.numr" horiz-adv-x="343" 
d="M179 294q-59 0 -93.5 27t-34.5 75q0 45 26 77.5t67 44.5v2q-23 6 -39 27.5t-16 50.5q0 55 39.5 86.5t101.5 31.5q52 0 83 -23t31 -66q0 -40 -23 -69t-55 -38v-2q31 -9 49 -33t18 -58q0 -59 -43 -96t-111 -37zM210 546q28 0 47.5 18.5t19.5 47.5q0 24 -15 36.5t-40 12.5
q-29 0 -47.5 -17t-18.5 -46q0 -23 14.5 -37.5t39.5 -14.5zM185 352q36 0 57.5 21.5t21.5 57.5q0 28 -17 44t-47 16q-35 0 -57 -22t-23 -57q0 -27 16.5 -43.5t48.5 -16.5z" />
    <glyph glyph-name="nine.numr" horiz-adv-x="339" 
d="M207 715q64 0 100 -44.5t36 -122.5q0 -65 -19.5 -120t-64.5 -93.5t-109 -39.5q-50 -1 -98 22l30 56q33 -15 69 -15q95 0 118 126q-42 -34 -95 -34q-49 0 -81 29.5t-32 83.5q0 63 39.5 107.5t106.5 44.5zM130 568q0 -31 17.5 -47t46.5 -16q50 0 85 47v6q0 41 -20 68
t-54 27q-32 0 -53.5 -25t-21.5 -60z" />
    <glyph glyph-name="bullet.case" horiz-adv-x="431" 
d="M223 238q-43 0 -71 28.5t-28 71.5q0 44 29.5 73t74.5 29q43 0 71 -28t28 -70q0 -45 -30 -74.5t-74 -29.5z" />
    <glyph glyph-name="exclamdown.case" horiz-adv-x="252" 
d="M178 743q24 0 39.5 -16t15.5 -40q0 -25 -16.5 -42t-41.5 -17q-24 0 -40 16t-16 40q0 26 16.5 42.5t42.5 16.5zM192 528l-50 -528h-88l79 528h59z" />
    <glyph glyph-name="periodcentered.loclCAT.case" horiz-adv-x="162" 
d="M37 279q-24 0 -39.5 16t-15.5 40q0 25 16.5 42t41.5 17q24 0 40 -16t16 -40q0 -26 -17 -42.5t-42 -16.5z" />
    <glyph glyph-name="questiondown.case" horiz-adv-x="415" 
d="M274 743q24 0 39.5 -16t15.5 -40q0 -25 -16.5 -42t-41.5 -17q-24 0 -40 16t-16 40q0 26 16.5 42.5t42.5 16.5zM297 529l-6 -52q-2 -13 -5 -24.5t-10.5 -24t-11 -19.5t-16.5 -22t-16 -19t-20 -21.5t-20 -20.5q-42 -45 -62.5 -80t-20.5 -80t23 -69t63 -24q70 0 118 67
l53 -53q-34 -45 -85 -69.5t-107 -24.5q-67 0 -111.5 41.5t-44.5 116.5q0 60 29 108.5t79 97.5q32 31 43.5 43t27 35t18.5 43l9 51h73z" />
    <glyph glyph-name="uni2E18.case" horiz-adv-x="415" 
d="M269 628q-24 0 -40 16t-16 40q0 26 16.5 42.5t42.5 16.5q24 0 39.5 -16t15.5 -40q0 -25 -16.5 -42t-41.5 -17zM313 140l53 -53q-33 -44 -83.5 -69t-105.5 -25q-67 0 -112.5 42t-45.5 113q0 63 27 111t80 98q29 27 43.5 42t29 37t17.5 42l8 51h70l-31 -376h-90l29 185
l-4 -4q-35 -36 -50.5 -54t-28.5 -48t-13 -64q0 -47 24 -71t67 -24q69 0 116 67z" />
    <glyph glyph-name="periodcentered.loclCAT" horiz-adv-x="114" 
d="M61 240q-24 0 -39.5 16t-15.5 40q0 25 16.5 42t41.5 17q24 0 40 -16t16 -40q0 -25 -17 -42t-42 -17z" />
    <glyph glyph-name="colon.tf" horiz-adv-x="293" 
d="M169 378q-24 0 -39.5 16t-15.5 40q0 25 16.5 42t41.5 17q24 0 40 -16t16 -40q0 -25 -17 -42t-42 -17zM121 -7q-24 0 -39.5 16t-15.5 40q0 25 16.5 42t41.5 17q24 0 40 -16t16 -40q0 -26 -17 -42.5t-42 -16.5z" />
    <glyph glyph-name="comma.tf" horiz-adv-x="293" 
d="M45 -131l58 241h86l-85 -241h-59z" />
    <glyph glyph-name="numbersign.tf" 
d="M85 -14l53 205h-104l7 61h114l42 162h-115l7 62h125l51 201h58l-51 -201h142l52 201h58l-52 -201h108l-7 -62h-119l-40 -162h118l-8 -61h-129l-52 -205h-58l53 205h-142l-53 -205h-58zM213 252h143l41 162h-143z" />
    <glyph glyph-name="period.tf" horiz-adv-x="293" 
d="M120 -7q-24 0 -39.5 16t-15.5 40q0 25 16.5 42t41.5 17q24 0 40 -16t16 -40q0 -26 -16.5 -42.5t-42.5 -16.5z" />
    <glyph glyph-name="braceleft.case" horiz-adv-x="285" 
d="M181 -98q-43 0 -68 31t-18 81l26 215q1 20 1 35.5t-15 26t-48 12.5l5 63q34 2 52.5 15.5t23 26.5t7.5 36l28 222q5 47 35 78t75 31h53l-7 -57h-24q-27 0 -44.5 -20.5t-20.5 -48.5l-27 -216q-5 -44 -18.5 -66.5t-43.5 -31.5v-2q27 -9 35.5 -30.5t1.5 -69.5l-24 -198
q-5 -41 5.5 -58.5t39.5 -17.5h27l-7 -57h-50z" />
    <glyph glyph-name="braceright.case" horiz-adv-x="291" 
d="M-22 -98l7 57h24q31 0 46.5 19t20.5 60l24 198q6 49 19 69t44 30v2q-49 17 -37 99l25 216q3 29 -8 47.5t-39 18.5h-26l7 57h50q45 0 69 -33t18 -79l-28 -222q-1 -18 -1.5 -34t15 -27.5t48.5 -13.5l-5 -63q-25 -1 -42 -8t-25 -19t-11 -23t-5 -28l-26 -214q-7 -51 -38 -80
t-73 -29h-53z" />
    <glyph glyph-name="bracketleft.case" horiz-adv-x="262" 
d="M33 -101l107 874h182l-7 -63h-111l-92 -748h110l-8 -63h-181z" />
    <glyph glyph-name="bracketright.case" horiz-adv-x="272" 
d="M-27 -100l8 63h113l92 748h-113l7 63h184l-107 -874h-184z" />
    <glyph glyph-name="parenleft.case" horiz-adv-x="247" 
d="M125 -104q-55 144 -55 311q0 155 44 307.5t125 269.5l56 -26q-72 -115 -111 -256.5t-39 -283.5q0 -150 47 -291z" />
    <glyph glyph-name="parenright.case" horiz-adv-x="260" 
d="M59 -101l-57 25q147 252 147 540q0 162 -47 292l64 31q59 -129 59 -314q0 -314 -166 -574z" />
    <glyph glyph-name="emdash.case" horiz-adv-x="1031" 
d="M54 286l8 71h934l-8 -71h-934z" />
    <glyph glyph-name="endash.case" horiz-adv-x="564" 
d="M54 286l8 71h468l-9 -71h-467z" />
    <glyph glyph-name="uni2015.case" horiz-adv-x="1184" 
d="M54 286l8 71h1087l-9 -71h-1086z" />
    <glyph glyph-name="hyphen.case" horiz-adv-x="355" 
d="M55 291l8 74h258l-9 -74h-257z" />
    <glyph glyph-name="hyphen.tf" 
d="M81 240l9 73h423l-9 -73h-423z" />
    <glyph glyph-name="guillemotleft.case" horiz-adv-x="441" 
d="M140 73l-86 219l141 221h76l-139 -221l85 -219h-77zM309 73l-87 219l142 221h76l-139 -221l85 -219h-77z" />
    <glyph glyph-name="guillemotright.case" horiz-adv-x="445" 
d="M21 70l139 219l-86 221h77l87 -221l-140 -219h-77zM191 70l139 219l-86 221h77l87 -221l-140 -219h-77z" />
    <glyph glyph-name="cent.tf" 
d="M286 121q80 0 135 61l63 -45q-67 -74 -160 -87l-13 -103h-57l13 102q-78 5 -126 58t-48 142q0 117 63.5 201.5t169.5 95.5l13 107h57l-13 -108q93 -12 136 -78l-63 -47q-34 54 -104 54q-79 0 -128.5 -63.5t-49.5 -156.5q0 -60 33 -96.5t79 -36.5z" />
    <glyph glyph-name="dollar.tf" 
d="M322 380q10 -6 31.5 -18t32 -18.5t29 -18.5t28 -21t22 -23t18.5 -27.5t10.5 -31t4.5 -37.5q0 -85 -58 -136.5t-148 -54.5l-14 -117h-61l14 121q-119 16 -178 101l56 61q28 -40 77 -64t99 -24q55 0 90.5 30.5t35.5 75.5q0 12 -3 22.5t-10.5 20.5t-13.5 16.5t-20 16t-22 14
t-28 16t-29 16.5q-84 47 -111 73q-51 49 -51 114q0 75 52.5 124.5t133.5 55.5l15 124h61l-15 -126q107 -14 165 -83l-59 -58q-27 35 -69 51t-79 16q-52 0 -85 -27t-32 -68q0 -26 17 -47.5t33.5 -32t60.5 -36.5z" />
    <glyph glyph-name="dong.tf" 
d="M592 628l-8 -57h-52l-71 -571h-80l15 113l-3 1q-33 -57 -79 -88.5t-98 -31.5q-81 0 -124.5 55t-43.5 141q0 122 68.5 212.5t176.5 90.5q89 0 141 -53l2 1l16 130h-189l7 57h189l13 108h80l-13 -108h53zM420 316l7 50q-40 53 -129 53q-75 0 -122 -69.5t-47 -161.5
q0 -56 26.5 -89.5t74.5 -33.5q67 0 122 72t68 179zM23 -146l9 73h423l-9 -73h-423z" />
    <glyph glyph-name="Euro.tf" 
d="M418 615q-75 0 -130 -49.5t-82 -130.5h252l-7 -56h-259q-6 -30 -8 -75h258l-7 -57h-249q9 -86 52 -130.5t106 -44.5q73 0 132 46l44 -65q-83 -59 -180 -59t-163.5 64.5t-77.5 188.5h-59l7 57h50q2 43 7 75h-48l7 56h53q32 116 112.5 186.5t189.5 70.5q97 0 166 -60
l-57 -58q-45 41 -109 41z" />
    <glyph glyph-name="florin.tf" 
d="M111 -124q-85 0 -119 42l37 54q30 -23 70 -23q38 0 62.5 24t37.5 80l83 345h-72l18 70h73l28 119q38 156 159 156q80 0 119 -43l-37 -55q-30 24 -71 24q-70 0 -94 -103l-22 -98h133l-18 -70h-134l-88 -366q-19 -81 -59.5 -118.5t-105.5 -37.5z" />
    <glyph glyph-name="uni20BA.tf" 
d="M470 219l69 -28q-51 -104 -119 -147.5t-161 -43.5h-160l26 214l-67 -31l-17 54l92 43l9 71l-67 -31l-17 54l92 43l33 270h85l-28 -228l170 80l17 -54l-195 -91l-9 -72l170 79l17 -54l-195 -91l-22 -184h65q77 0 124.5 34t87.5 113z" />
    <glyph glyph-name="peseta.tf" 
d="M594 501l-7 -57h-69q-16 -91 -80 -138.5t-171 -47.5h-86l-32 -258h-83l54 444h-72l7 57h72l23 186h173q200 0 200 -184v-2h71zM224 610l-14 -109h226q0 54 -31 81.5t-83 27.5h-98zM268 333q136 0 162 111h-227l-14 -111h79z" />
    <glyph glyph-name="uni20B1.tf" 
d="M594 497h-71q0 -17 -4 -47h69l-7 -54h-76q-51 -138 -237 -138h-87l-32 -258h-83l48 396h-72l7 54h72l6 47h-72l7 55h71l17 135h173q171 0 196 -135h82zM325 610h-101l-8 -65h217q-24 65 -108 65zM210 497l-6 -47h231q5 23 5 47h-230zM271 333q106 0 146 69h-219l-9 -69
h82z" />
    <glyph glyph-name="sterling.tf" 
d="M44 0l9 77h68l31 251h-54l7 61h56l11 85q14 115 69 166.5t130 51.5q111 0 160 -98l-54 -57q-36 75 -105 75q-98 0 -116 -143l-10 -80h144l-7 -61h-145l-32 -251h283l-10 -77h-435z" />
    <glyph glyph-name="yen.tf" 
d="M595 687l-214 -334h115l-7 -55h-144l-3 -5l-9 -70h147l-7 -55h-147l-21 -168h-85l21 168h-151l6 55h151l9 70l-2 5h-148l7 55h120l-131 334h97l110 -309h2l183 309h101z" />
    <glyph glyph-name="uni20B9.tf" 
d="M552 625h-160l-1 -1q44 -27 52 -94h97l-7 -62h-91q-12 -85 -79.5 -136.5t-171.5 -51.5l229 -280h-102l-231 289l8 65h86q152 0 175 114h-246l7 62h242q-5 48 -36.5 71.5t-95.5 23.5h-98l7 62h423z" />
    <glyph glyph-name="plus.case" horiz-adv-x="544" 
d="M218 91l24 197h-174l9 73h175l23 198h75l-25 -198h174l-9 -73h-174l-24 -197h-74z" />
    <glyph glyph-name="plus.tf" 
d="M231 43l24 197h-174l9 73h175l23 198h75l-25 -198h174l-9 -73h-174l-24 -197h-74z" />
    <glyph glyph-name="multiply.tf" 
d="M143 77l-48 51l150 149l-113 149l58 51l112 -149l150 149l48 -51l-151 -150l113 -149l-57 -50l-113 148z" />
    </font>
</defs>
</svg>
