<?xml version="1.0" standalone="no"?>
<!DOCTYPE svg PUBLIC "-//W3C//DTD SVG 1.1//EN" "http://www.w3.org/Graphics/SVG/1.1/DTD/svg11.dtd" >
<svg xmlns="http://www.w3.org/2000/svg" xmlns:xlink="http://www.w3.org/1999/xlink" version="1.1">
<metadata></metadata>
<defs>
<font id="championsregular" horiz-adv-x="1085" >
<font-face units-per-em="2048" ascent="1638" descent="-410" />
<missing-glyph horiz-adv-x="358" />
<glyph unicode="&#xfb01;" horiz-adv-x="1067" d="M25 903v72h168v86q0 158 98 243t262 85q57 0 129 -12.5t115 -28.5l-11 -109q-39 12 -94 21.5t-92 9.5q-115 0 -175 -53.5t-60 -151.5v-90h575v-975h-172v870h-403v-870h-172v872z" />
<glyph unicode="&#xfb02;" horiz-adv-x="1077" d="M25 903v72h168v86q0 158 100 243t266 85q195 0 391 -68v-1321h-172v1245q-37 10 -90 17.5t-88 7.5q-117 0 -176 -53.5t-59 -151.5v-90h303l-31 -105h-272v-870h-172v872z" />
<glyph horiz-adv-x="0" />
<glyph unicode="&#xd;" horiz-adv-x="0" />
<glyph unicode=" "  horiz-adv-x="358" />
<glyph unicode="&#x09;" horiz-adv-x="358" />
<glyph unicode="&#xa0;" horiz-adv-x="358" />
<glyph unicode="!" horiz-adv-x="503" d="M166 0v133l172 35v-168h-172zM166 336v942l172 33v-975h-172z" />
<glyph unicode="&#x22;" horiz-adv-x="788" d="M188 1311h162l-51 -430h-76zM469 1311h162l-51 -430h-76z" />
<glyph unicode="#" horiz-adv-x="1273" d="M41 381l22 106h236l68 314h-238l23 106h237l88 377h117l-80 -377h338l80 377h125l-80 -377h256l-51 -106h-228l-67 -314h258l-51 -106h-230l-82 -381h-125l82 381h-338l-82 -381h-124l81 381h-235zM424 487h338l67 314h-337z" />
<glyph unicode="$" horiz-adv-x="1024" d="M115 961q0 147 99 237t251 109v178l129 22v-198q133 -10 244 -56l-17 -143q-61 27 -132 42t-132 15q-111 0 -182.5 -47t-71.5 -131q0 -78 62 -129q45 -37 157 -92l82 -39q158 -74 236 -168t78 -213q0 -152 -87.5 -242t-236.5 -116v-203h-129v190q-178 0 -342 70l12 156 q164 -80 326 -80q127 0 207 50t80 149q0 86 -61.5 140t-184.5 109l-49 23q-102 47 -171 90t-118 111.5t-49 165.5z" />
<glyph unicode="%" horiz-adv-x="1923" d="M135 973q0 176 84 297t232 121q150 0 233.5 -121t83.5 -297q0 -113 -37 -208t-108.5 -151.5t-171.5 -56.5q-99 0 -170.5 56.5t-108.5 151.5t-37 208zM272 973q0 -150 48.5 -226.5t130.5 -76.5q86 0 133 75.5t47 227.5q0 154 -47 229.5t-133 75.5q-82 0 -130.5 -77 t-48.5 -228zM592 -23l551 1307h157l-550 -1307h-158zM1155 373q0 176 84 297t231 121q150 0 234 -121t84 -297q0 -113 -37 -208t-108.5 -151.5t-172.5 -56.5q-98 0 -169.5 56.5t-108.5 151.5t-37 208zM1292 373q0 -150 48.5 -226.5t129.5 -76.5q86 0 133.5 75.5t47.5 227.5 q0 154 -47.5 229.5t-133.5 75.5q-82 0 -130 -77t-48 -228z" />
<glyph unicode="&#x26;" horiz-adv-x="1230" d="M76 287q0 96 66.5 185t226.5 183q-92 106 -129 182t-37 156q0 92 45 164t124 113t177 41q150 0 242 -88t92 -228q0 -109 -75 -191.5t-210 -170.5l281 -295q27 43 61.5 123t46.5 129l100 -29q-45 -172 -131 -309q92 -98 135.5 -128t92.5 -32l-33 -115h-31q-57 0 -112.5 32 t-147.5 128q-68 -74 -170 -117t-209 -43q-198 0 -301.5 88.5t-103.5 221.5zM262 291q0 -94 56.5 -143.5t185.5 -53.5q67 -2 142 30t136 91l-315 336q-205 -115 -205 -260zM356 1006q0 -57 31 -117t113 -154q127 80 185 140.5t58 134.5q0 88 -50 138t-144 50 q-90 0 -141.5 -46t-51.5 -146z" />
<glyph unicode="'" horiz-adv-x="442" d="M147 1311h162l-51 -430h-76z" />
<glyph unicode="(" horiz-adv-x="593" d="M166 557q0 223 75.5 470t194.5 437h125q-100 -227 -150.5 -459.5t-50.5 -447.5q0 -217 49.5 -448.5t149.5 -458.5h-125q-119 190 -193.5 436t-74.5 471z" />
<glyph unicode=")" horiz-adv-x="593" d="M33 -350q100 227 150 459.5t50 447.5q0 217 -49 448.5t-149 458.5h125q119 -190 193.5 -436t74.5 -471q0 -223 -76 -470t-194 -437h-125z" />
<glyph unicode="*" horiz-adv-x="884" d="M92 782l283 136l-281 135l103 131l217 -215l-47 315h161l-59 -317l225 217l97 -131l-281 -135l283 -136l-99 -131l-225 215l57 -313h-159l47 311l-215 -211z" />
<glyph unicode="+" d="M117 494v139h356v356h139v-356h359v-139h-359v-359h-139v359h-356z" />
<glyph unicode="," horiz-adv-x="462" d="M145 141l172 35v-207l-112 -336h-60v508z" />
<glyph unicode="-" horiz-adv-x="661" d="M131 494v139h399v-139h-399z" />
<glyph unicode="." horiz-adv-x="462" d="M145 0v147l172 35v-182h-172z" />
<glyph unicode="/" horiz-adv-x="743" d="M53 -88l473 1499h164l-475 -1499h-162z" />
<glyph unicode="0" d="M90 643q0 305 118 486.5t333 181.5q217 0 334.5 -181.5t117.5 -486.5t-117.5 -486.5t-334.5 -181.5q-215 0 -333 181.5t-118 486.5zM279 643q0 -262 60 -399.5t202 -137.5q143 0 203.5 137.5t60.5 399.5t-60.5 399.5t-203.5 137.5q-141 0 -201.5 -137.5t-60.5 -399.5z " />
<glyph unicode="1" d="M279 0v145h217v969l-207 -47v147l387 84v-1153h244l-33 -145h-608z" />
<glyph unicode="2" d="M158 0v76l32 41q182 229 340 448q88 123 130 199t53.5 120t11.5 91q0 96 -58.5 150.5t-177.5 54.5q-123 0 -268 -76l-12 123q68 39 150.5 61.5t168.5 22.5q180 0 282.5 -91.5t102.5 -234.5q0 -111 -54 -224.5t-208 -303.5l-248 -310h537l-41 -147h-741z" />
<glyph unicode="3" d="M139 1135l35 149h660v-102l-291 -391q174 -4 278.5 -110t104.5 -282q0 -135 -64.5 -230t-172 -143.5t-236.5 -48.5q-80 0 -159 20.5t-140 55.5l12 133q141 -78 266 -77q147 0 226 75.5t79 216.5q0 133 -72.5 206t-207.5 73q-53 0 -101 -14l-30 59l297 410h-484z" />
<glyph unicode="4" d="M59 311v97l324 876h182l-305 -825h391v487l180 35v-522h232l-41 -148h-191v-311h-180v311h-592z" />
<glyph unicode="5" d="M152 66l12 127q66 -39 138.5 -61.5t133.5 -22.5q152 0 237 78.5t85 213.5q0 141 -74 220t-213 79q-106 0 -199 -61l-55 45l49 600h662l-39 -156h-490l-26 -327q63 23 149 22q123 0 219.5 -53t150.5 -150.5t54 -228.5q0 -109 -53 -204t-159.5 -152.5t-260.5 -57.5 q-84 0 -171 24t-150 65z" />
<glyph unicode="6" d="M119 428q0 147 88 387l170 469h178l-156 -453q88 39 195 39q180 0 286.5 -118.5t106.5 -321.5q0 -127 -49 -229.5t-146.5 -163t-238.5 -60.5q-205 0 -319.5 123t-114.5 328zM307 426q0 -326 246 -326t246 326t-246 326q-119 0 -182.5 -82t-63.5 -244z" />
<glyph unicode="7" d="M145 1128l39 156h754v-94l-461 -1190h-182l438 1128h-588z" />
<glyph unicode="8" d="M111 377q0 100 48 187t126 128v2q-133 88 -133 262q0 166 109.5 260.5t283.5 94.5t282.5 -94.5t108.5 -260.5q0 -172 -137 -264q80 -43 129 -129t49 -186q0 -190 -120 -295t-312 -105q-195 0 -314.5 104.5t-119.5 295.5zM299 369q0 -127 63.5 -193.5t182.5 -66.5 q114 0 178.5 66.5t64.5 193.5q0 260 -243 260q-121 0 -183.5 -62.5t-62.5 -197.5zM319 956q0 -111 58.5 -167t167.5 -56q106 0 164.5 56.5t58.5 166.5q0 113 -58.5 168.5t-164.5 55.5q-109 0 -167.5 -55.5t-58.5 -168.5z" />
<glyph unicode="9" d="M100 854q0 127 49.5 229.5t146.5 163t239 60.5q205 0 319.5 -123t114.5 -328q0 -147 -88 -387l-170 -469h-179l156 453q-88 -39 -194 -39q-180 0 -287 118.5t-107 321.5zM289 858q0 -326 246 -326q118 0 181.5 82t63.5 244q0 326 -245 326q-246 0 -246 -326z" />
<glyph unicode=":" horiz-adv-x="462" d="M145 0v147l172 35v-182h-172zM145 664v147l172 35v-182h-172z" />
<glyph unicode=";" horiz-adv-x="464" d="M145 664v147l172 35v-182h-172zM147 133l172 35v-199l-112 -336h-60v500z" />
<glyph unicode="&#x3c;" d="M152 543v106l796 357v-144l-633 -264l633 -289v-139z" />
<glyph unicode="=" d="M156 344v139h772v-139h-772zM156 705v139h772v-139h-772z" />
<glyph unicode="&#x3e;" d="M137 170v139l631 289l-631 264v144l797 -357v-106z" />
<glyph unicode="?" horiz-adv-x="950" d="M106 1223q66 39 152 63.5t174 24.5q178 0 275.5 -88t97.5 -222q0 -84 -41 -158.5t-141 -168.5l-80 -74q-72 -66 -92.5 -101.5t-20.5 -105.5v-57h-172v76q0 63 28.5 119.5t106.5 125.5l78 70q72 63 107.5 128t35.5 122q0 98 -57 149.5t-166 51.5q-70 0 -144.5 -24 t-129.5 -62zM258 0v133l172 35v-168h-172z" />
<glyph unicode="@" horiz-adv-x="1628" d="M82 541q0 225 108.5 409.5t302 290t437.5 105.5q281 0 448.5 -141.5t167.5 -403.5q0 -145 -52 -263t-143 -186.5t-204 -68.5q-76 0 -125 30.5t-61 83.5q-39 -53 -103.5 -87t-146.5 -34q-123 0 -197 77t-74 212q0 121 57.5 226.5t154 170t206.5 64.5q98 0 172 -53l27 35 h100l-63 -355q-27 -150 -27 -188q0 -100 84 -100q63 0 115.5 57t83 154.5t30.5 211.5q0 229 -122.5 350.5t-339.5 121.5q-201 0 -352.5 -99.5t-233.5 -263.5t-82 -356q0 -254 143.5 -381t394.5 -127q219 0 457 86l17 -86q-111 -39 -244 -62.5t-260 -23.5q-312 0 -494 150.5 t-182 443.5zM588 563q0 -201 149 -201q84 0 135.5 74t81.5 244l37 207q-51 53 -127 53q-74 0 -137 -51t-101 -138t-38 -188z" />
<glyph unicode="A" horiz-adv-x="1169" d="M27 0l491 1272l121 28l504 -1300h-201l-131 352h-489l-127 -352h-168zM375 492h383l-195 518z" />
<glyph unicode="B" horiz-adv-x="1112" d="M145 0v1284h347q242 0 346 -77t104 -228q0 -98 -61.5 -180t-169.5 -103v-4q102 -6 178 -53t115.5 -121t39.5 -156q0 -362 -503 -362h-396zM326 141h217q158 0 229.5 57.5t71.5 174.5t-73 174t-239 57h-206v-463zM326 748h149q150 0 215.5 50t65.5 148q0 100 -63.5 149.5 t-213.5 49.5h-153v-397z" />
<glyph unicode="C" horiz-adv-x="1112" d="M74 643q0 176 73.5 329.5t211 246t321.5 92.5q90 0 176 -19.5t148 -50.5l-15 -145q-133 63 -289 63q-207 0 -316.5 -140t-109.5 -360q0 -258 107.5 -397t318.5 -139q154 0 316 70l16 -136q-66 -35 -160 -57.5t-192 -22.5q-92 0 -182 23t-154 63q-129 84 -199.5 236 t-70.5 344z" />
<glyph unicode="D" horiz-adv-x="1257" d="M145 0v1284h318q168 0 273.5 -21.5t178.5 -66.5q131 -78 200 -223.5t69 -329.5q0 -186 -73 -332.5t-202 -222.5q-72 -43 -174 -65.5t-211 -22.5h-379zM326 141h170q117 0 208 24.5t156 88.5q63 63 93 158.5t30 236.5q0 104 -30.5 197.5t-88.5 163.5q-115 133 -379 133 h-159v-1002z" />
<glyph unicode="E" horiz-adv-x="964" d="M145 0v1284h729l-40 -139h-508v-449h446l-33 -139h-413v-418h579l-35 -139h-725z" />
<glyph unicode="F" horiz-adv-x="894" d="M145 0v1284h729l-40 -139h-508v-449h446l-33 -139h-413v-557h-181z" />
<glyph unicode="G" horiz-adv-x="1253" d="M74 643q0 170 75.5 323.5t220 249t343.5 95.5q100 0 191 -17.5t153 -50.5l-15 -153q-143 73 -307 73h-4q-141 0 -244.5 -68.5t-158 -187.5t-54.5 -262q0 -184 64.5 -301t162 -168t201.5 -51q57 0 122 11t120 34v387h-215l45 139h350v-602q-70 -47 -185.5 -82t-225.5 -35 q-195 0 -339.5 79t-222 229.5t-77.5 357.5z" />
<glyph unicode="H" horiz-adv-x="1261" d="M145 0v1284h181v-588h610v588h180v-1284h-180v557h-610v-557h-181z" />
<glyph unicode="I" horiz-adv-x="479" d="M150 0v1284h180v-1284h-180z" />
<glyph unicode="J" horiz-adv-x="710" d="M57 133q74 -16 162 -16q90 0 130 43t40 141v983h182v-932q0 -190 -78.5 -282.5t-246.5 -92.5q-33 0 -83 9.5t-81 19.5z" />
<glyph unicode="K" horiz-adv-x="1054" d="M145 0v1284h181v-633l465 633h190l-436 -598l479 -686h-215l-383 539h-100v-539h-181z" />
<glyph unicode="L" horiz-adv-x="931" d="M145 0v1284h181v-1145h551l-35 -139h-697z" />
<glyph unicode="M" horiz-adv-x="1529" d="M129 0l49 1284h158l442 -811l410 811h164l53 -1284h-193l-30 977h-4l-209 -422l-176 -352h-74l-412 758h-4q-4 -156 -16 -480l-19 -481h-139z" />
<glyph unicode="N" horiz-adv-x="1284" d="M145 0v1284h136l704 -956v956h154v-1284h-135l-705 942v-942h-154z" />
<glyph unicode="O" horiz-adv-x="1288" d="M74 643q0 186 66.5 338t195.5 241t307 89q180 0 309 -89t195.5 -241t66.5 -338t-66.5 -337.5t-195.5 -241t-309 -89.5q-178 0 -307 89.5t-195.5 241t-66.5 337.5zM274 643q0 -236 95.5 -378t273.5 -142t274.5 142.5t96.5 377.5q0 233 -96.5 376.5t-274.5 143.5 t-273.5 -143t-95.5 -377z" />
<glyph unicode="P" horiz-adv-x="1079" d="M145 0v1284h353q129 0 214 -19.5t148 -62.5q74 -49 116 -131t42 -186q0 -195 -120 -300.5t-345 -105.5h-227v-479h-181zM326 621h188q158 0 233.5 60t75.5 198q0 139 -74.5 201.5t-228.5 62.5h-194v-522z" />
<glyph unicode="Q" horiz-adv-x="1294" d="M74 643q0 186 66.5 338t195.5 241t307 89q180 0 309 -89t195.5 -241t66.5 -338q0 -178 -66.5 -328.5t-186.5 -240.5q51 -6 243 -13l13 -145q-103 4 -267 29q-176 25 -291 30q-256 12 -393 144q-94 90 -143 227t-49 297zM274 643q0 -236 95.5 -378t273.5 -142t274.5 142.5 t96.5 377.5q0 233 -96.5 376.5t-274.5 143.5t-273.5 -143t-95.5 -377z" />
<glyph unicode="R" horiz-adv-x="1101" d="M145 0v1284h308q254 0 376 -72q80 -47 119 -126.5t39 -184.5q0 -129 -56.5 -226t-160.5 -140l297 -535h-203l-274 500h-266v-500h-179zM324 641h178q150 0 221.5 57.5t71.5 192.5t-74 193.5t-223 58.5h-174v-502z" />
<glyph unicode="S" horiz-adv-x="983" d="M92 961q0 111 57.5 189.5t152.5 119.5t204 41q80 0 163 -15.5t146 -42.5l-16 -143q-61 27 -132 42t-132 15q-111 0 -182.5 -47t-71.5 -131q0 -78 61 -129q45 -37 158 -92l82 -39q158 -74 235.5 -168t77.5 -213q0 -182 -124 -276.5t-327 -94.5q-176 0 -344 70l13 156 q164 -80 325 -80q127 0 207 50t80 149q0 86 -61.5 140t-184.5 109l-49 23q-102 47 -171 90t-118 111.5t-49 165.5z" />
<glyph unicode="T" horiz-adv-x="1064" d="M39 1143l22 141h969l-20 -141h-389v-1143h-183v1143h-399z" />
<glyph unicode="U" horiz-adv-x="1259" d="M139 469v815h178v-803q0 -180 74 -269t244 -89q195 0 261.5 101.5t66.5 254.5v805h159v-807q0 -250 -119.5 -375t-377.5 -125q-267 0 -376.5 129.5t-109.5 362.5z" />
<glyph unicode="V" horiz-adv-x="1122" d="M27 1284h202l355 -993l344 993h168l-461 -1284h-125z" />
<glyph unicode="W" horiz-adv-x="1705" d="M27 1284h202l299 -965l254 715l-90 250h203l330 -973l293 973h165l-413 -1284h-123l-291 827l-299 -827h-117z" />
<glyph unicode="X" horiz-adv-x="1060" d="M39 0l387 657l-373 627h209l283 -496l284 496h175l-369 -620l399 -664h-211l-317 526l-295 -526h-172z" />
<glyph unicode="Y" horiz-adv-x="1017" d="M25 1284h202l312 -620l303 620h159l-391 -784v-500h-182v502z" />
<glyph unicode="Z" horiz-adv-x="976" d="M63 0v98l594 1047h-561v139h799v-94l-612 -1051h637l-35 -139h-822z" />
<glyph unicode="[" horiz-adv-x="573" d="M135 -365v1819h406l-15 -129h-231v-1561h246l-15 -129h-391z" />
<glyph unicode="\" horiz-adv-x="688" d="M35 1411h158l473 -1499h-156z" />
<glyph unicode="]" horiz-adv-x="573" d="M33 -236h246v1561h-232l-14 129h405v-1819h-391z" />
<glyph unicode="^" horiz-adv-x="1214" d="M246 782l309 447h147l308 -447h-162l-221 348l-234 -348h-147z" />
<glyph unicode="_" horiz-adv-x="1075" d="M57 -160h961v-119h-961v119z" />
<glyph unicode="`" horiz-adv-x="819" d="M198 1298l101 150l370 -264l-53 -78zM199 1106z" />
<glyph unicode="a" horiz-adv-x="985" d="M66 274q0 172 173 258t461 86q0 133 -49 189q-60 65 -203 65h-4q-61 0 -138 -15t-148 -46l-17 117q165 65 343 65h5q102 0 179 -28.5t125 -81.5q43 -49 61 -118t18 -163v-602h-77l-62 135q-55 -88 -149.5 -124t-180.5 -36q-143 0 -240 78t-97 221zM258 281 q0 -86 49 -134.5t135 -48.5q115 0 186.5 65.5t71.5 192.5v160q-211 -6 -326.5 -64.5t-115.5 -170.5z" />
<glyph unicode="b" horiz-adv-x="1052" d="M119 0v1276l172 35v-449q55 74 137 102.5t154 28.5q158 0 262 -108q66 -68 99.5 -169.5t33.5 -217.5q0 -131 -46 -250t-143.5 -195t-246.5 -76q-154 1 -295 132l-49 -109h-78zM291 219q27 -53 91 -93t122 -40q145 0 212.5 113.5t67.5 289.5t-53 279q-29 53 -80 84 t-116 31q-59 0 -109.5 -23.5t-81.5 -66.5q-29 -39 -41 -94.5t-12 -141.5v-338z" />
<glyph unicode="c" horiz-adv-x="882" d="M76 473q0 104 30.5 197.5t88.5 163.5q61 74 154 116.5t200 42.5q162 0 274 -61l-14 -111q-51 27 -113.5 43.5t-117.5 16.5q-145 0 -225.5 -106.5t-80.5 -289.5q0 -186 71 -289.5t222 -103.5q135 0 246 58l18 -97q-55 -33 -136 -54.5t-152 -21.5q-207 0 -330 119 q-66 66 -100.5 164t-34.5 213z" />
<glyph unicode="d" horiz-adv-x="1058" d="M76 471q0 131 43 234.5t117 173.5q57 55 131.5 84.5t152.5 29.5q139 0 248 -63v346l172 35v-1311h-80l-57 125q-8 -16 -29 -41q-47 -53 -118.5 -80t-153.5 -27q-197 0 -311.5 135.5t-114.5 358.5zM268 477q0 -166 59.5 -278.5t211.5 -112.5q127 0 178 85t51 232v404 q-39 35 -95.5 55.5t-113.5 20.5q-100 0 -165.5 -57.5t-96.5 -151.5q-29 -80 -29 -197z" />
<glyph unicode="e" horiz-adv-x="1001" d="M76 496q0 141 58.5 254.5t160.5 178t231 64.5q193 0 298.5 -126t105.5 -322q0 -59 -2 -88h-660q6 -162 92 -261.5t238 -99.5q74 0 141.5 15.5t141.5 50.5l14 -109q-63 -35 -156.5 -55.5t-185.5 -20.5q-141 0 -249.5 61.5t-168 178.5t-59.5 279zM272 563h473 q0 145 -44 235.5t-175 90.5q-119 0 -182 -98.5t-72 -227.5z" />
<glyph unicode="f" horiz-adv-x="673" d="M25 903v72h168v86q0 164 75.5 246t233.5 82q55 0 118.5 -12.5t108.5 -28.5l-10 -109q-96 31 -164 31q-190 0 -190 -205v-90h280l-31 -105h-249v-870h-172v872z" />
<glyph unicode="g" horiz-adv-x="985" d="M76 -172q0 61 20 102l86 47q-86 20 -86 101q0 23 22.5 60.5t80.5 119.5l49 68q-72 47 -111 129t-39 176q0 104 48.5 187t136.5 129t202 46q127 0 230 -63l30 45h209v-80l-149 -47q31 -47 47 -104.5t16 -112.5q0 -104 -47 -187.5t-135 -130.5t-203 -47q-59 0 -123 15 l-96 -152l174 -6l99 -4q162 -6 257 -56.5t95 -181.5q0 -137 -107.5 -206.5t-335.5 -69.5q-59 0 -105 7t-103 23q-74 25 -118 76t-44 117zM229 -125q0 -82 57.5 -121t182.5 -39q149 0 210.5 37t61.5 94t-49 83t-176 30l-100 4q-129 4 -148 6q-16 -23 -27.5 -48t-11.5 -46z M285 629q0 -137 49 -198.5t151 -61.5q99 0 148 61.5t49 198.5q0 256 -197 256q-94 0 -147 -62.5t-53 -193.5z" />
<glyph unicode="h" horiz-adv-x="1067" d="M121 0v1274l172 37v-451q53 66 136 99.5t177 33.5q82 0 152.5 -28.5t113.5 -79.5q51 -61 66.5 -140t15.5 -223v-522h-172v528q0 111 -7 165.5t-40 99.5q-29 41 -77 62.5t-103 21.5q-47 0 -95 -17.5t-83 -52.5q-57 -55 -70.5 -125t-13.5 -203v-479h-172z" />
<glyph unicode="i" horiz-adv-x="425" d="M127 0v975h172v-975h-172zM127 1128v148l172 35v-183h-172z" />
<glyph unicode="j" horiz-adv-x="417" d="M-127 -281q102 2 160.5 39t77.5 113q8 39 10 127t2 219v758h172v-764q0 -199 -11.5 -286t-39.5 -146q-84 -174 -340 -174zM123 1128v148l172 35v-183h-172z" />
<glyph unicode="k" horiz-adv-x="880" d="M119 0v1276l172 35v-742l330 406h194l-315 -385l354 -590h-199l-282 487h-82v-487h-172z" />
<glyph unicode="l" horiz-adv-x="425" d="M127 0v1276l172 35v-1311h-172z" />
<glyph unicode="m" horiz-adv-x="1667" d="M119 0v975h78l65 -137q51 72 137 113.5t183 41.5q68 0 136 -27.5t116 -82.5q27 -33 43 -70q47 82 138 131t202 49q74 0 140 -25.5t107 -72.5q55 -63 72.5 -146t17.5 -227v-522h-172v528q0 111 -6 168.5t-33 98.5t-71.5 61.5t-97.5 20.5q-121 0 -195 -91q-31 -45 -43 -103 t-12 -161v-522h-172v528q0 102 -8.5 163t-34.5 104q-53 82 -170 82q-55 0 -106.5 -21.5t-88.5 -69.5q-35 -45 -44 -108.5t-9 -196.5v-481h-172z" />
<glyph unicode="n" horiz-adv-x="1064" d="M119 0v975h78l69 -146q53 80 143.5 122t194.5 42q82 0 152.5 -28.5t113.5 -79.5q51 -61 66.5 -140t15.5 -223v-522h-172v528q0 111 -7 165.5t-40 99.5q-29 41 -77 62.5t-103 21.5q-47 0 -95 -17.5t-83 -52.5q-57 -55 -70.5 -125t-13.5 -203v-479h-172z" />
<glyph unicode="o" horiz-adv-x="1077" d="M76 483q0 147 58.5 264t163.5 181.5t241 64.5q135 0 240.5 -63.5t163.5 -178t58 -264.5q0 -147 -58 -264t-163.5 -181.5t-240.5 -64.5q-136 0 -241 63.5t-163.5 179.5t-58.5 263zM268 485q0 -186 71 -290.5t200 -104.5t199.5 104.5t70.5 290.5t-70.5 291t-199.5 105 t-200 -104.5t-71 -291.5z" />
<glyph unicode="p" horiz-adv-x="1052" d="M119 -367v1342h88l49 -160q39 78 130 128t187 50q82 0 154 -27.5t121 -78.5q63 -68 96 -169.5t33 -219.5q0 -131 -46 -250t-143.5 -195t-246.5 -76q-61 0 -129 20.5t-121 59.5v-424h-172zM291 190q37 -47 97.5 -72.5t117.5 -25.5q145 0 211.5 109.5t66.5 285.5 q0 170 -45 261q-33 63 -88 99t-123 36q-57 0 -105 -24.5t-79 -67.5q-29 -39 -41 -94.5t-12 -141.5v-365z" />
<glyph unicode="q" horiz-adv-x="1046" d="M76 471q0 129 47 249t146.5 196.5t248.5 76.5q158 0 285 -108l43 90h82v-1342h-172v455q-10 -16 -29 -31q-94 -80 -250 -80q-125 0 -216 68t-138 180.5t-47 245.5zM268 479q0 -182 62.5 -286.5t187.5 -104.5q57 0 108.5 25.5t86.5 74.5q43 59 43 179v424 q-39 45 -97.5 69.5t-113.5 24.5q-143 0 -210 -115t-67 -291z" />
<glyph unicode="r" horiz-adv-x="591" d="M111 0v975h79l68 -158q29 47 72 88q98 88 237 88l-10 -151l-27 2q-61 0 -100 -14.5t-72 -47.5q-47 -47 -62 -123.5t-15 -177.5v-481h-170z" />
<glyph unicode="s" horiz-adv-x="794" d="M94 729q0 74 40 134.5t111.5 95t164.5 34.5q139 0 254 -49l-11 -121q-127 55 -223 56q-74 0 -124 -28t-50 -89q0 -45 33 -79t119 -79l47 -24q127 -66 198.5 -135.5t71.5 -182.5q0 -61 -22.5 -113.5t-63.5 -89.5q-41 -39 -108.5 -60.5t-139.5 -21.5q-157 1 -282 54l6 129 q68 -29 136 -45.5t124 -16.5q90 0 145 33t55 92q0 57 -40.5 97t-155.5 96q-147 72 -216 139.5t-69 173.5z" />
<glyph unicode="t" horiz-adv-x="722" d="M12 903v72h166v227l172 35v-262h297l-31 -105h-266v-569q0 -98 41 -151.5t137 -53.5q86 0 166 33l13 -109q-43 -20 -104.5 -31.5t-121.5 -11.5q-155 0 -229 82t-74 246v567z" />
<glyph unicode="u" horiz-adv-x="1036" d="M113 449v526h172v-533q0 -125 6 -175t37 -93q51 -78 161 -78q113 0 179 66q33 31 49 64.5t22 93t6 174.5v481h173v-975h-78l-66 133q-51 -72 -141 -114t-187 -42q-81 0 -148 28t-110 79q-49 61 -62 138t-13 227z" />
<glyph unicode="v" horiz-adv-x="890" d="M31 975h184l248 -701l250 701h147l-358 -975h-103z" />
<glyph unicode="w" horiz-adv-x="1366" d="M31 975h176l219 -680l211 680h106l228 -680l217 680h147l-329 -975h-99l-229 678l-217 -678h-99z" />
<glyph unicode="x" horiz-adv-x="866" d="M31 975h186l211 -357l217 357h146l-283 -459l328 -516h-197l-227 377l-228 -377h-149l299 479z" />
<glyph unicode="y" horiz-adv-x="921" d="M31 975h184l283 -742l243 742h152l-344 -1014q-47 -137 -95 -213t-114 -109.5t-166 -33.5l-29 125h27q59 0 96 19.5t67 65.5t60 134l23 65z" />
<glyph unicode="z" horiz-adv-x="806" d="M57 0v70l469 790h-446v115h649v-70l-471 -790h485q-4 -20 -20 -70l-12 -45h-654z" />
<glyph unicode="{" horiz-adv-x="583" d="M84 487v82q66 12 96.5 78t30.5 166q0 51 -21 195q-18 111 -18 151q0 158 86 226.5t246 68.5l16 -104q-197 0 -196 -197q0 -47 20 -174q20 -139 21 -191q0 -106 -44.5 -170.5t-115.5 -89.5q72 -25 116 -89t44 -171q0 -51 -21 -190q-20 -127 -20 -174q0 -197 196 -197 l-16 -104q-160 0 -246 68.5t-86 226.5q0 41 18 151q20 143 21 195q0 100 -30.5 165.5t-96.5 77.5z" />
<glyph unicode="|" horiz-adv-x="434" d="M143 -422v1882h148v-1882h-148z" />
<glyph unicode="}" horiz-adv-x="583" d="M63 -293q197 0 197 197q0 47 -20 174q-20 139 -21 190q0 106 44 171t116 89q-72 25 -116 89.5t-44 170.5q0 51 21 191q20 127 20 174q0 197 -197 197l17 104q160 0 246 -68.5t86 -226.5q0 -41 -19 -151q-20 -143 -20 -195q0 -100 30.5 -165.5t96.5 -78.5v-82 q-66 -12 -96.5 -77.5t-30.5 -165.5q0 -51 20 -195q18 -111 19 -151q0 -158 -86 -226.5t-246 -68.5z" />
<glyph unicode="~" horiz-adv-x="1214" d="M102 461q35 113 118 180.5t186 67.5q104 0 235 -66q158 -82 240 -82q70 0 113.5 25.5t76.5 89.5l84 -53q-33 -98 -103.5 -152.5t-172.5 -54.5q-57 0 -110.5 17.5t-125.5 49.5q-57 29 -125.5 52.5t-109.5 23.5q-145 0 -224 -149z" />
<glyph unicode="&#xa1;" horiz-adv-x="503" d="M166 0zM166 -336v975h172v-942zM166 807v168h172v-133z" />
<glyph unicode="&#xa2;" horiz-adv-x="1024" d="M137 473q0 104 31 197.5t88 163.5q51 61 124 101t159 52v170l129 23v-189q119 -8 217 -59l-15 -111q-51 27 -113.5 43.5t-117.5 16.5q-145 0 -225 -106.5t-80 -289.5q0 -186 70.5 -289.5t222.5 -103.5q135 0 245 58l19 -97q-41 -25 -101.5 -43t-121.5 -26v-197h-129v195 q-164 14 -267 114q-66 66 -100.5 164t-34.5 213z" />
<glyph unicode="&#xa3;" horiz-adv-x="1024" d="M111 0v61q137 119 184 207t47 189q0 45 -12 102l-187 51v60h154l-39 90q-35 70 -53.5 124t-18.5 115q0 82 47.5 154t136.5 115t208 43q178 0 311 -54l-17 -151q-143 55 -268 55q-109 0 -172 -46t-63 -138q0 -31 11 -65.5t38 -96.5q45 -117 53 -145h342l-31 -113h-290 q8 -41 8 -84q0 -94 -34 -177t-87 -138h557l-14 -54q-12 -55 -29 -104h-782z" />
<glyph unicode="&#xa4;" horiz-adv-x="1261" d="M152 248l133 133q-94 111 -95 276q0 158 97 277l-127 131l73 74l127 -131q111 80 271 79q160 0 272 -79l127 131l72 -72l-127 -133q96 -123 96 -277q0 -162 -94 -276l133 -133l-74 -74l-133 133q-117 -78 -272 -78q-158 0 -273 78l-133 -133zM334 657q0 -139 80 -222 t217 -83t217 83t80 222q0 141 -80 224.5t-217 83.5t-217 -83t-80 -225z" />
<glyph unicode="&#xa5;" horiz-adv-x="1024" d="M20 1284h205l314 -625l301 625h164l-277 -551h203l-41 -115h-219l-62 -118v-105h273l-41 -114h-232v-281h-180v281h-256v114h256v107l-63 116h-234v115h174z" />
<glyph unicode="&#xa6;" horiz-adv-x="434" d="M143 295h148v-717h-148v717zM143 743v717h148v-717h-148z" />
<glyph unicode="&#xa7;" horiz-adv-x="1089" d="M135 532q0 72 48 140.5t139 120.5q-90 88 -91 223q0 115 87.5 191.5t228.5 76.5q139 0 254 -49l-10 -121q-127 55 -224 55q-80 0 -127 -29.5t-47 -86.5q0 -55 33 -99.5t139 -117.5l123 -86q131 -92 182.5 -163t51.5 -157q0 -72 -46.5 -138.5t-140.5 -121.5 q76 -68 105.5 -124t29.5 -130q0 -61 -22.5 -113.5t-63.5 -89.5q-41 -39 -108.5 -60.5t-138.5 -21.5q-158 1 -283 54l6 129q68 -29 136.5 -45.5t123.5 -16.5q90 0 145.5 33t55.5 92q0 51 -49 97t-193 145l-117 80q-127 90 -177 164.5t-50 168.5zM297 569q0 -47 31.5 -87 t132.5 -111l51 -37l139 -96q66 38 92.5 74t26.5 79q0 33 -29.5 68t-124.5 102l-217 156q-49 -29 -75.5 -69t-26.5 -79z" />
<glyph unicode="&#xa8;" horiz-adv-x="819" d="M139 1118v170h178v-170h-178zM139 1118zM502 1118v170h178v-170h-178z" />
<glyph unicode="&#xa9;" horiz-adv-x="1517" d="M137 647q0 190 82 336.5t230.5 228.5t338.5 82t338 -82t230 -228t82 -337q0 -190 -82 -338.5t-229.5 -230.5t-338.5 -82q-190 0 -338.5 82t-230.5 230.5t-82 338.5zM225 647q0 -166 71 -296t199 -202.5t293 -72.5q166 0 293 72.5t198 202.5t71 296t-71 295t-198 200.5 t-293 71.5t-293.5 -71.5t-198.5 -200.5t-71 -295zM494 647q0 94 38.5 174t110.5 127t168 47q57 0 108.5 -13t84.5 -34l-11 -121q-82 53 -174 54q-84 0 -129 -59.5t-45 -168.5q0 -244 184 -243q94 0 179 45l10 -107q-37 -25 -92.5 -39t-116.5 -14q-145 0 -230 99.5t-85 252.5 z" />
<glyph unicode="&#xaa;" horiz-adv-x="675" d="M94 1040q0 94 95.5 148.5t273.5 54.5q0 80 -31 111t-115 30q-76 0 -170 -36l-10 77q43 16 100.5 26.5t106.5 10.5q117 0 172 -55q29 -29 41 -71t12 -107v-350h-53l-35 75q-29 -43 -77 -66.5t-111 -23.5q-90 0 -144.5 48.5t-54.5 127.5zM213 1042q0 -49 26.5 -74.5 t75.5 -25.5q72 0 110 39t38 106v89q-129 -2 -189.5 -38t-60.5 -96z" />
<glyph unicode="&#xab;" horiz-adv-x="1095" d="M121 473v51l340 361l76 -84l-291 -301l293 -303l-74 -84zM532 473v51l340 361l76 -84l-291 -301l293 -303l-73 -84z" />
<glyph unicode="&#xac;" horiz-adv-x="1214" d="M244 705v139h772v-498h-129v359h-643z" />
<glyph unicode="&#xad;" horiz-adv-x="704" d="M131 494v139h399v-139h-399zM131 494z" />
<glyph unicode="&#xae;" horiz-adv-x="1513" d="M106 647q0 190 82 336.5t230.5 228.5t339.5 82q190 0 337.5 -82t229.5 -228t82 -337q0 -190 -82 -338.5t-229.5 -230.5t-337.5 -82q-191 0 -339.5 82t-230.5 230.5t-82 338.5zM195 647q0 -166 70.5 -296t198.5 -202.5t294 -72.5t293 72.5t197.5 202.5t70.5 296t-70.5 295 t-197.5 200.5t-293 71.5t-294 -71.5t-198.5 -200.5t-70.5 -295zM532 305v674h154q170 0 241.5 -52.5t71.5 -152.5q0 -57 -26.5 -102t-81.5 -80l162 -287h-152l-133 250h-100v-250h-136zM668 664h65q61 0 90 23.5t29 78.5t-28.5 79.5t-90.5 24.5h-65v-206z" />
<glyph unicode="&#xaf;" horiz-adv-x="819" d="M143 1161l17 121h514l-17 -121h-514zM143 1161z" />
<glyph unicode="&#xb0;" horiz-adv-x="860" d="M145 1018q0 129 81 211t214 82t216 -82t83 -211t-83 -211t-216 -82t-214 82t-81 211zM254 1018q0 -90 51 -142.5t135 -52.5t137.5 52.5t53.5 142.5t-53.5 142t-137.5 52t-135 -52t-51 -142z" />
<glyph unicode="&#xb1;" d="M117 0v139h854v-139h-854zM117 815v139h356v357h139v-357h359v-139h-359v-358h-139v358h-356z" />
<glyph unicode="&#xb2;" horiz-adv-x="811" d="M147 502v49l23 27q113 137 203 268q74 102 95 151.5t21 89.5q0 53 -32.5 85t-98.5 32q-72 0 -172 -55l-8 86q39 27 94.5 41t108.5 14q115 0 178.5 -55t63.5 -141q0 -51 -42 -136.5t-116 -181.5l-143 -178h319l-27 -96h-467z" />
<glyph unicode="&#xb3;" horiz-adv-x="770" d="M133 1186l21 96h415v-65l-170 -228q49 -4 92.5 -22.5t67.5 -46.5q66 -76 66 -168q0 -121 -84 -187.5t-209 -66.5q-111 0 -191 49l9 90q104 -55 169 -55q82 0 126 45t44 127q0 76 -39.5 117.5t-115.5 41.5q-37 0 -68 -14l-24 45l176 242h-285z" />
<glyph unicode="&#xb4;" horiz-adv-x="819" d="M149 1182l369 262l98 -146l-420 -192zM150 1106z" />
<glyph unicode="&#xb5;" horiz-adv-x="1036" d="M113 -397v1372h172v-531q0 -125 6 -175t37 -93q51 -78 161 -78q113 0 179 66q33 31 49 64.5t22 93t6 174.5v479h173v-975h-78l-66 135q-51 -72 -141 -113.5t-187 -41.5q-160 0 -245 92l75 -469h-163z" />
<glyph unicode="&#xb6;" horiz-adv-x="1247" d="M111 891q0 119 54 203t143 127t192 43h633l-19 -107h-149v-1552h-129v1552h-185v-1552h-129v915q-104 0 -199.5 43t-153.5 127t-58 201z" />
<glyph unicode="&#xb7;" horiz-adv-x="462" d="M145 483v148l172 35v-183h-172z" />
<glyph unicode="&#xb8;" horiz-adv-x="819" d="M215 0zM215 -293q61 -18 137 -18q61 0 94 21.5t33 60.5q0 86 -133 86q-41 0 -80 -9l-22 23l34 195h97l-31 -146q16 4 45 4q94 0 154.5 -41t60.5 -110q0 -80 -58.5 -124t-166.5 -44q-82 -1 -152 28z" />
<glyph unicode="&#xb9;" horiz-adv-x="507" d="M188 504v756l129 26v-782h-129z" />
<glyph unicode="&#xba;" horiz-adv-x="731" d="M92 1157q0 131 76 216t199 85t197.5 -83t74.5 -214t-76 -216t-196 -85q-123 0 -199 84t-76 213zM213 1159q0 -106 40 -165.5t114 -59.5q73 0 113 59.5t40 165.5t-40 165.5t-113 59.5q-74 0 -114 -59t-40 -166z" />
<glyph unicode="&#xbb;" horiz-adv-x="1095" d="M145 197l293 303l-291 301l76 84l340 -361v-51l-344 -360zM557 197l293 303l-291 301l76 84l340 -361v-51l-344 -360z" />
<glyph unicode="&#xbc;" horiz-adv-x="1536" d="M188 504v756l129 26v-782h-129zM276 -25l504 1309h156l-506 -1309h-154zM774 199v65l205 559h143l-192 -524h221v311l137 21v-332h150l-27 -100h-123v-199h-137v199h-377z" />
<glyph unicode="&#xbd;" horiz-adv-x="1445" d="M188 0zM188 504v756l129 26v-782h-129zM277 -25l504 1309h155l-506 -1309h-153zM835 0v49l23 27q113 137 203 268q74 102 95 151.5t21 89.5q0 53 -32.5 85t-98.5 32q-72 0 -172 -55l-8 86q39 27 94.5 41t108.5 14q115 0 178.5 -55t63.5 -141q0 -51 -42 -136.5 t-116 -181.5l-143 -178h319l-27 -96h-467z" />
<glyph unicode="&#xbe;" horiz-adv-x="1536" d="M20 1186l21 96h416v-65l-170 -228q49 -4 92 -22.5t67 -46.5q66 -76 66 -168q0 -121 -84 -187.5t-209 -66.5q-110 0 -190 49l8 90q104 -55 170 -55q82 0 126 45t44 127q0 76 -40 117.5t-116 41.5q-37 0 -67 -14l-25 45l176 242h-285zM387 -25l504 1309h156l-506 -1309 h-154zM885 199v65l205 559h143l-193 -524h222v311l137 21v-332h149l-26 -100h-123v-199h-137v199h-377z" />
<glyph unicode="&#xbf;" horiz-adv-x="950" d="M106 0zM106 -26q0 84 41 158.5t141 168.5l80 74q72 66 92.5 101.5t20.5 105.5v57h172v-76q0 -63 -28.5 -119.5t-106.5 -125.5l-78 -70q-72 -63 -107.5 -128t-35.5 -122q0 -98 57 -149.5t166 -51.5q70 0 144.5 24t129.5 62l11 -131q-66 -39 -152 -63.5t-174 -24.5 q-178 0 -275.5 88t-97.5 222zM481 807v168h172v-133z" />
<glyph unicode="&#xc0;" horiz-adv-x="1169" d="M27 0l491 1272l121 28l504 -1300h-201l-131 352h-489l-127 -352h-168zM27 0zM350 1602l100 149l371 -264l-53 -78zM375 492h383l-195 518z" />
<glyph unicode="&#xc1;" horiz-adv-x="1169" d="M27 0l491 1272l121 28l504 -1300h-201l-131 352h-489l-127 -352h-168zM27 0zM352 1485l369 262l98 -145l-420 -193zM375 492h383l-195 518z" />
<glyph unicode="&#xc2;" horiz-adv-x="1169" d="M27 0l491 1272l121 28l504 -1300h-201l-131 352h-489l-127 -352h-168zM27 0zM278 1473l240 233h133l240 -233l-68 -62l-238 186l-239 -186zM375 492h383l-195 518z" />
<glyph unicode="&#xc3;" horiz-adv-x="1169" d="M27 0l491 1272l121 28l504 -1300h-201l-131 352h-489l-127 -352h-168zM27 0zM260 1481q16 59 71.5 100t122.5 41q57 0 148 -47q35 -18 60.5 -28.5t49.5 -10.5q84 0 131 72l66 -56q-23 -59 -75 -97t-122 -38q-34 0 -63 11.5t-76 33.5q-49 25 -71.5 34t-47.5 9 q-86 0 -133 -84zM375 492h383l-195 518z" />
<glyph unicode="&#xc4;" horiz-adv-x="1169" d="M27 0l491 1272l121 28l504 -1300h-201l-131 352h-489l-127 -352h-168zM27 0zM315 1417v170h178v-170h-178zM375 492h383l-195 518zM678 1417v170h178v-170h-178z" />
<glyph unicode="&#xc5;" horiz-adv-x="1169" d="M27 0l491 1272l121 28l504 -1300h-201l-131 352h-489l-127 -352h-168zM27 0zM375 492h383l-195 518zM403 1571q0 82 49 129t133 47q82 0 132.5 -48t50.5 -128q0 -82 -50.5 -130t-132.5 -48q-84 0 -133 48t-49 130zM501 1571q0 -41 21.5 -63.5t62.5 -22.5q39 0 60.5 22.5 t21.5 63.5q0 82 -82 82q-84 0 -84 -82z" />
<glyph unicode="&#xc6;" horiz-adv-x="1615" d="M27 0l657 1284h844l-41 -139h-508v-449h446l-32 -139h-414v-418h580l-35 -139h-725v399h-387l-207 -399h-178zM477 535h322v610h-13z" />
<glyph unicode="&#xc7;" horiz-adv-x="1112" d="M74 0zM74 643q0 176 73.5 329.5t211 246t321.5 92.5q90 0 176 -19.5t148 -50.5l-15 -145q-133 63 -289 63q-207 0 -316.5 -140t-109.5 -360q0 -258 107.5 -397t318.5 -139q154 0 316 70l16 -136q-66 -35 -160 -57.5t-192 -22.5q-92 0 -182 23t-154 63q-129 84 -199.5 236 t-70.5 344zM506 -293q61 -18 137 -18q61 0 94 21.5t33 60.5q0 86 -133 86q-41 0 -80 -9l-22 23l34 195h97l-31 -146q16 4 45 4q94 0 154.5 -41t60.5 -110q0 -80 -58.5 -124t-166.5 -44q-82 -1 -152 28z" />
<glyph unicode="&#xc8;" horiz-adv-x="964" d="M145 0v1284h729l-40 -139h-508v-449h446l-33 -139h-413v-418h579l-35 -139h-725zM145 0zM227 1602l100 149l371 -264l-53 -78z" />
<glyph unicode="&#xc9;" horiz-adv-x="964" d="M145 0v1284h729l-40 -139h-508v-449h446l-33 -139h-413v-418h579l-35 -139h-725zM145 0zM278 1485l369 262l98 -145l-420 -193z" />
<glyph unicode="&#xca;" horiz-adv-x="964" d="M145 0v1284h729l-40 -139h-508v-449h446l-33 -139h-413v-418h579l-35 -139h-725zM145 0zM205 1473l240 233h133l240 -233l-68 -62l-238 186l-239 -186z" />
<glyph unicode="&#xcb;" horiz-adv-x="964" d="M145 0v1284h729l-40 -139h-508v-449h446l-33 -139h-413v-418h579l-35 -139h-725zM145 0zM242 1417v170h178v-170h-178zM605 1417v170h178v-170h-178z" />
<glyph unicode="&#xcc;" horiz-adv-x="479" d="M4 0zM4 1602l100 149l371 -264l-53 -78zM150 0v1284h180v-1284h-180z" />
<glyph unicode="&#xcd;" horiz-adv-x="479" d="M6 0zM6 1485l369 262l98 -145l-420 -193zM150 0v1284h180v-1284h-180z" />
<glyph unicode="&#xce;" horiz-adv-x="479" d="M-68 1473l240 233h133l240 -233l-68 -62l-238 186l-239 -186zM0 0zM150 0v1284h180v-1284h-180z" />
<glyph unicode="&#xcf;" horiz-adv-x="479" d="M-31 1417v170h178v-170h-178zM0 0zM150 0v1284h180v-1284h-180zM332 1417v170h178v-170h-178z" />
<glyph unicode="&#xd0;" horiz-adv-x="1257" d="M-14 578v131h159v575h318q168 0 273.5 -21.5t178.5 -66.5q131 -78 200 -223.5t69 -329.5q0 -186 -73 -332.5t-202 -222.5q-72 -43 -174 -65.5t-211 -22.5h-379v578h-159zM326 141h170q117 0 208 24.5t156 88.5q63 63 93 158.5t30 236.5q0 104 -30.5 197.5t-88.5 163.5 q-115 133 -379 133h-159v-434h327v-131h-327v-437z" />
<glyph unicode="&#xd1;" horiz-adv-x="1284" d="M145 0v1284h136l704 -956v956h154v-1284h-135l-705 942v-942h-154zM145 0zM318 1481q16 59 71.5 100t122.5 41q57 0 148 -47q35 -18 60.5 -28.5t49.5 -10.5q84 0 131 72l66 -56q-23 -59 -75 -97t-122 -38q-34 0 -63 11.5t-76 33.5q-49 25 -71.5 34t-47.5 9 q-86 0 -133 -84z" />
<glyph unicode="&#xd2;" horiz-adv-x="1288" d="M74 0zM74 643q0 186 66.5 338t195.5 241t307 89q180 0 309 -89t195.5 -241t66.5 -338t-66.5 -337.5t-195.5 -241t-309 -89.5q-178 0 -307 89.5t-195.5 241t-66.5 337.5zM274 643q0 -236 95.5 -378t273.5 -142t274.5 142.5t96.5 377.5q0 233 -96.5 376.5t-274.5 143.5 t-273.5 -143t-95.5 -377zM410 1602l100 149l371 -264l-53 -78z" />
<glyph unicode="&#xd3;" horiz-adv-x="1288" d="M74 0zM74 643q0 186 66.5 338t195.5 241t307 89q180 0 309 -89t195.5 -241t66.5 -338t-66.5 -337.5t-195.5 -241t-309 -89.5q-178 0 -307 89.5t-195.5 241t-66.5 337.5zM274 643q0 -236 95.5 -378t273.5 -142t274.5 142.5t96.5 377.5q0 233 -96.5 376.5t-274.5 143.5 t-273.5 -143t-95.5 -377zM411 1485l369 262l98 -145l-420 -193z" />
<glyph unicode="&#xd4;" horiz-adv-x="1288" d="M74 0zM74 643q0 186 66.5 338t195.5 241t307 89q180 0 309 -89t195.5 -241t66.5 -338t-66.5 -337.5t-195.5 -241t-309 -89.5q-178 0 -307 89.5t-195.5 241t-66.5 337.5zM274 643q0 -236 95.5 -378t273.5 -142t274.5 142.5t96.5 377.5q0 233 -96.5 376.5t-274.5 143.5 t-273.5 -143t-95.5 -377zM338 1473l240 233h133l240 -233l-68 -62l-238 186l-239 -186z" />
<glyph unicode="&#xd5;" horiz-adv-x="1288" d="M74 0zM74 643q0 186 66.5 338t195.5 241t307 89q180 0 309 -89t195.5 -241t66.5 -338t-66.5 -337.5t-195.5 -241t-309 -89.5q-178 0 -307 89.5t-195.5 241t-66.5 337.5zM274 643q0 -236 95.5 -378t273.5 -142t274.5 142.5t96.5 377.5q0 233 -96.5 376.5t-274.5 143.5 t-273.5 -143t-95.5 -377zM320 1481q16 59 71.5 100t122.5 41q57 0 148 -47q35 -18 60.5 -28.5t49.5 -10.5q84 0 131 72l66 -56q-23 -59 -75 -97t-122 -38q-34 0 -63 11.5t-76 33.5q-49 25 -71.5 34t-47.5 9q-86 0 -133 -84z" />
<glyph unicode="&#xd6;" horiz-adv-x="1288" d="M74 0zM74 643q0 186 66.5 338t195.5 241t307 89q180 0 309 -89t195.5 -241t66.5 -338t-66.5 -337.5t-195.5 -241t-309 -89.5q-178 0 -307 89.5t-195.5 241t-66.5 337.5zM274 643q0 -236 95.5 -378t273.5 -142t274.5 142.5t96.5 377.5q0 233 -96.5 376.5t-274.5 143.5 t-273.5 -143t-95.5 -377zM375 1417v170h178v-170h-178zM738 1417v170h178v-170h-178z" />
<glyph unicode="&#xd7;" horiz-adv-x="1214" d="M246 336l252 252l-252 254l98 98l252 -252l254 252l98 -98l-254 -254l254 -252l-98 -98l-254 251l-252 -251z" />
<glyph unicode="&#xd8;" horiz-adv-x="1288" d="M74 643q0 186 66.5 338t195.5 241t307 89q111 0 211 -39l47 117h103l-66 -158q133 -84 204.5 -239.5t71.5 -348.5q0 -186 -66.5 -337.5t-195.5 -241t-309 -89.5q-106 0 -207 37l-49 -118h-102l65 159q-133 84 -204.5 240t-71.5 350zM274 643q0 -143 36 -253.5t106 -178.5 l379 917q-70 35 -152 35q-178 0 -273.5 -143t-95.5 -377zM496 156q70 -33 147 -33q178 0 274.5 142.5t96.5 377.5q0 139 -36 251t-106 179z" />
<glyph unicode="&#xd9;" horiz-adv-x="1259" d="M139 0zM139 469v815h178v-803q0 -180 74 -269t244 -89q195 0 261.5 101.5t66.5 254.5v805h159v-807q0 -250 -119.5 -375t-377.5 -125q-267 0 -376.5 129.5t-109.5 362.5zM395 1602l100 149l371 -264l-53 -78z" />
<glyph unicode="&#xda;" horiz-adv-x="1259" d="M139 0zM139 469v815h178v-803q0 -180 74 -269t244 -89q195 0 261.5 101.5t66.5 254.5v805h159v-807q0 -250 -119.5 -375t-377.5 -125q-267 0 -376.5 129.5t-109.5 362.5zM397 1485l369 262l98 -145l-420 -193z" />
<glyph unicode="&#xdb;" horiz-adv-x="1259" d="M139 0zM139 469v815h178v-803q0 -180 74 -269t244 -89q195 0 261.5 101.5t66.5 254.5v805h159v-807q0 -250 -119.5 -375t-377.5 -125q-267 0 -376.5 129.5t-109.5 362.5zM323 1473l240 233h133l240 -233l-68 -62l-238 186l-239 -186z" />
<glyph unicode="&#xdc;" horiz-adv-x="1259" d="M139 0zM139 469v815h178v-803q0 -180 74 -269t244 -89q195 0 261.5 101.5t66.5 254.5v805h159v-807q0 -250 -119.5 -375t-377.5 -125q-267 0 -376.5 129.5t-109.5 362.5zM360 1417v170h178v-170h-178zM723 1417v170h178v-170h-178z" />
<glyph unicode="&#xdd;" horiz-adv-x="1017" d="M25 0zM25 1284h202l312 -620l303 620h159l-391 -784v-500h-182v502zM297 1485l369 262l98 -145l-420 -193z" />
<glyph unicode="&#xde;" horiz-adv-x="1079" d="M145 0v1343h181v-282h172q129 0 214 -19.5t148 -62.5q158 -104 158 -303q0 -195 -119 -293t-346 -98h-227v-285h-181zM326 412h188q158 0 233.5 60t75.5 198q0 139 -74.5 201.5t-228.5 62.5h-194v-522z" />
<glyph unicode="&#xdf;" horiz-adv-x="1112" d="M127 0v907q0 211 100.5 307.5t294.5 96.5q162 0 260.5 -70t98.5 -188q0 -63 -30 -107.5t-79 -91.5q-63 -57 -84.5 -88t-21.5 -59q0 -33 22.5 -57.5t108.5 -82.5q100 -66 151 -112.5t71.5 -91t20.5 -101.5q0 -123 -86 -203q-43 -39 -107.5 -60.5t-139.5 -21.5 q-70 0 -122.5 9.5t-119.5 33.5l6 130q111 -51 219 -52q100 0 150.5 35t50.5 90q0 47 -34 84t-144 107q-123 78 -164 134t-41 138q0 96 106 203q63 63 85 97t22 67q0 66 -53.5 105.5t-145.5 39.5q-113 0 -168 -61.5t-55 -200.5v-936h-172z" />
<glyph unicode="&#xe0;" horiz-adv-x="985" d="M66 0zM66 274q0 172 173 258t461 86q0 133 -49 189q-61 66 -207 65q-61 0 -138 -15t-148 -46l-17 117q168 66 348 65q102 0 179 -28.5t125 -81.5q43 -49 61 -118t18 -163v-602h-77l-62 135q-55 -88 -149.5 -124t-180.5 -36q-143 0 -240 78t-97 221zM258 281 q0 -86 49 -134.5t135 -48.5q115 0 186.5 65.5t71.5 192.5v160q-211 -6 -326.5 -64.5t-115.5 -170.5zM258 1298l101 150l370 -264l-53 -78z" />
<glyph unicode="&#xe1;" horiz-adv-x="985" d="M66 0zM66 274q0 172 173 258t461 86q0 133 -49 189q-61 66 -207 65q-61 0 -138 -15t-148 -46l-17 117q168 66 348 65q102 0 179 -28.5t125 -81.5q43 -49 61 -118t18 -163v-602h-77l-62 135q-55 -88 -149.5 -124t-180.5 -36q-143 0 -240 78t-97 221zM258 281 q0 -86 49 -134.5t135 -48.5q115 0 186.5 65.5t71.5 192.5v160q-211 -6 -326.5 -64.5t-115.5 -170.5zM260 1182l369 262l98 -146l-420 -192z" />
<glyph unicode="&#xe2;" horiz-adv-x="985" d="M66 0zM66 274q0 172 173 258t461 86q0 133 -49 189q-61 66 -207 65q-61 0 -138 -15t-148 -46l-17 117q168 66 348 65q102 0 179 -28.5t125 -81.5q43 -49 61 -118t18 -163v-602h-77l-62 135q-55 -88 -149.5 -124t-180.5 -36q-143 0 -240 78t-97 221zM186 1171l240 234h133 l240 -234l-68 -61l-238 186l-239 -186zM258 281q0 -86 49 -134.5t135 -48.5q115 0 186.5 65.5t71.5 192.5v160q-211 -6 -326.5 -64.5t-115.5 -170.5z" />
<glyph unicode="&#xe3;" horiz-adv-x="985" d="M66 0zM66 274q0 172 173 258t461 86q0 133 -49 189q-61 66 -207 65q-61 0 -138 -15t-148 -46l-17 117q168 66 348 65q102 0 179 -28.5t125 -81.5q43 -49 61 -118t18 -163v-602h-77l-62 135q-55 -88 -149.5 -124t-180.5 -36q-143 0 -240 78t-97 221zM168 1182 q16 59 71.5 100t122.5 41q57 0 131 -39q45 -25 74 -36t53 -11q84 0 131 72l66 -56q-23 -59 -75 -97t-122 -38q-34 0 -65 11.5t-86 39.5q-25 12 -53.5 24.5t-53.5 12.5q-86 0 -133 -84zM258 281q0 -86 49 -134.5t135 -48.5q115 0 186.5 65.5t71.5 192.5v160 q-211 -6 -326.5 -64.5t-115.5 -170.5z" />
<glyph unicode="&#xe4;" horiz-adv-x="985" d="M66 0zM66 274q0 172 173 258t461 86q0 133 -49 189q-61 66 -207 65q-61 0 -138 -15t-148 -46l-17 117q168 66 348 65q102 0 179 -28.5t125 -81.5q43 -49 61 -118t18 -163v-602h-77l-62 135q-55 -88 -149.5 -124t-180.5 -36q-143 0 -240 78t-97 221zM223 1118v170h178 v-170h-178zM258 281q0 -86 49 -134.5t135 -48.5q115 0 186.5 65.5t71.5 192.5v160q-211 -6 -326.5 -64.5t-115.5 -170.5zM586 1118v170h178v-170h-178z" />
<glyph unicode="&#xe5;" horiz-adv-x="985" d="M66 0zM66 274q0 172 173 258t461 86q0 133 -49 189q-61 66 -207 65q-61 0 -138 -15t-148 -46l-17 117q168 66 348 65q102 0 179 -28.5t125 -81.5q43 -49 61 -118t18 -163v-602h-77l-62 135q-55 -88 -149.5 -124t-180.5 -36q-143 0 -240 78t-97 221zM258 281 q0 -86 49 -134.5t135 -48.5q115 0 186.5 65.5t71.5 192.5v160q-211 -6 -326.5 -64.5t-115.5 -170.5zM311 1274q0 82 49 129t133 47q82 0 132.5 -48t50.5 -128q0 -82 -50.5 -130t-132.5 -48q-84 0 -133 48t-49 130zM409 1274q0 -41 21.5 -63.5t62.5 -22.5q39 0 60.5 22.5 t21.5 63.5q0 82 -82 82q-84 0 -84 -82z" />
<glyph unicode="&#xe6;" horiz-adv-x="1613" d="M66 274q0 156 153.5 235t480.5 77q0 94 -10 141t-39 80q-61 66 -207 65q-129 0 -276 -61l-16 117q168 66 337 65q102 0 190.5 -32.5t137.5 -108.5q127 141 322 141q129 0 220 -57t137 -153.5t46 -215.5q0 -55 -2 -84h-659q8 -188 96 -287.5t233 -99.5q68 0 130.5 14.5 t142.5 51.5l14 -109q-66 -35 -153 -55.5t-179 -20.5q-131 0 -233.5 56.5t-167.5 156.5q-45 -111 -144.5 -162t-216.5 -51q-143 0 -240 77t-97 220zM258 281q0 -86 49 -134.5t135 -48.5q115 0 186.5 65.5t71.5 192.5v127q-242 -4 -342 -52t-100 -150zM889 584h469 q0 156 -49 230.5t-170 74.5q-100 0 -170 -88t-80 -217z" />
<glyph unicode="&#xe7;" horiz-adv-x="882" d="M76 0zM76 473q0 104 30.5 197.5t88.5 163.5q61 74 154 116.5t200 42.5q162 0 274 -61l-14 -111q-51 27 -113.5 43.5t-117.5 16.5q-145 0 -225.5 -106.5t-80.5 -289.5q0 -186 71 -289.5t222 -103.5q135 0 246 58l18 -97q-55 -33 -136 -54.5t-152 -21.5q-207 0 -330 119 q-66 66 -100.5 164t-34.5 213zM361 -293q61 -18 137 -18q61 0 94 21.5t33 60.5q0 86 -133 86q-41 0 -80 -9l-22 23l34 195h97l-31 -146q16 4 45 4q94 0 154.5 -41t60.5 -110q0 -80 -58.5 -124t-166.5 -44q-82 -1 -152 28z" />
<glyph unicode="&#xe8;" horiz-adv-x="1001" d="M76 0zM76 496q0 141 58.5 254.5t160.5 178t231 64.5q193 0 298.5 -126t105.5 -322q0 -59 -2 -88h-660q6 -162 92 -261.5t238 -99.5q74 0 141.5 15.5t141.5 50.5l14 -109q-63 -35 -156.5 -55.5t-185.5 -20.5q-141 0 -249.5 61.5t-168 178.5t-59.5 279zM272 563h473 q0 145 -44 235.5t-175 90.5q-119 0 -182 -98.5t-72 -227.5zM286 1298l101 150l370 -264l-53 -78z" />
<glyph unicode="&#xe9;" horiz-adv-x="1001" d="M76 0zM76 496q0 141 58.5 254.5t160.5 178t231 64.5q193 0 298.5 -126t105.5 -322q0 -59 -2 -88h-660q6 -162 92 -261.5t238 -99.5q74 0 141.5 15.5t141.5 50.5l14 -109q-63 -35 -156.5 -55.5t-185.5 -20.5q-141 0 -249.5 61.5t-168 178.5t-59.5 279zM272 563h473 q0 145 -44 235.5t-175 90.5q-119 0 -182 -98.5t-72 -227.5zM288 1182l369 262l98 -146l-420 -192z" />
<glyph unicode="&#xea;" horiz-adv-x="1001" d="M76 0zM76 496q0 141 58.5 254.5t160.5 178t231 64.5q193 0 298.5 -126t105.5 -322q0 -59 -2 -88h-660q6 -162 92 -261.5t238 -99.5q74 0 141.5 15.5t141.5 50.5l14 -109q-63 -35 -156.5 -55.5t-185.5 -20.5q-141 0 -249.5 61.5t-168 178.5t-59.5 279zM215 1171l240 234 h133l240 -234l-68 -61l-238 186l-239 -186zM272 563h473q0 145 -44 235.5t-175 90.5q-119 0 -182 -98.5t-72 -227.5z" />
<glyph unicode="&#xeb;" horiz-adv-x="1001" d="M76 0zM76 496q0 141 58.5 254.5t160.5 178t231 64.5q193 0 298.5 -126t105.5 -322q0 -59 -2 -88h-660q6 -162 92 -261.5t238 -99.5q74 0 141.5 15.5t141.5 50.5l14 -109q-63 -35 -156.5 -55.5t-185.5 -20.5q-141 0 -249.5 61.5t-168 178.5t-59.5 279zM252 1118v170h178 v-170h-178zM272 563h473q0 145 -44 235.5t-175 90.5q-119 0 -182 -98.5t-72 -227.5zM615 1118v170h178v-170h-178z" />
<glyph unicode="&#xec;" horiz-adv-x="425" d="M-23 1298l101 150l370 -264l-53 -78zM0 0zM127 0v975h172v-975h-172z" />
<glyph unicode="&#xed;" horiz-adv-x="425" d="M-21 1182l369 262l98 -146l-420 -192zM0 0zM127 0v975h172v-975h-172z" />
<glyph unicode="&#xee;" horiz-adv-x="425" d="M-94 1171l240 234h133l240 -234l-68 -61l-238 186l-239 -186zM0 0zM127 0v975h172v-975h-172z" />
<glyph unicode="&#xef;" horiz-adv-x="425" d="M-57 1118v170h178v-170h-178zM0 0zM127 0v975h172v-975h-172zM306 1118v170h178v-170h-178z" />
<glyph unicode="&#xf0;" horiz-adv-x="1091" d="M94 414q0 141 54.5 249.5t149.5 168t212 59.5q147 0 283 -72q-16 133 -69.5 220t-131.5 130q-20 -59 -57 -135l-89 37l60 139q-68 25 -168 25l16 96q41 2 97.5 -6t95.5 -20l57 137l92 -37l-55 -133q182 -82 265 -237.5t83 -422.5q0 -170 -58.5 -321.5t-154.5 -229.5 q-49 -41 -116.5 -62.5t-139.5 -21.5q-131 0 -227 58.5t-147.5 158t-51.5 220.5zM285 385q0 -131 66.5 -208t166.5 -77q113 0 176 80q47 61 74 195.5t25 320.5q-66 33 -139.5 52.5t-114.5 19.5q-123 0 -188.5 -114.5t-65.5 -268.5z" />
<glyph unicode="&#xf1;" horiz-adv-x="1064" d="M119 0v975h78l69 -146q53 80 143.5 122t194.5 42q82 0 152.5 -28.5t113.5 -79.5q51 -61 66.5 -140t15.5 -223v-522h-172v528q0 111 -7 165.5t-40 99.5q-29 41 -77 62.5t-103 21.5q-47 0 -95 -17.5t-83 -52.5q-57 -55 -70.5 -125t-13.5 -203v-479h-172zM119 0zM228 1182 q16 59 71.5 100t122.5 41q57 0 131 -39q45 -25 74 -36t53 -11q84 0 131 72l66 -56q-23 -59 -75 -97t-122 -38q-34 0 -65 11.5t-86 39.5q-25 12 -53.5 24.5t-53.5 12.5q-86 0 -133 -84z" />
<glyph unicode="&#xf2;" horiz-adv-x="1077" d="M76 0zM76 483q0 147 58.5 264t163.5 181.5t241 64.5q135 0 240.5 -63.5t163.5 -178t58 -264.5q0 -147 -58 -264t-163.5 -181.5t-240.5 -64.5q-136 0 -241 63.5t-163.5 179.5t-58.5 263zM268 485q0 -186 71 -290.5t200 -104.5t199.5 104.5t70.5 290.5t-70.5 291 t-199.5 105t-200 -104.5t-71 -291.5zM303 1298l101 150l370 -264l-53 -78z" />
<glyph unicode="&#xf3;" horiz-adv-x="1077" d="M76 0zM76 483q0 147 58.5 264t163.5 181.5t241 64.5q135 0 240.5 -63.5t163.5 -178t58 -264.5q0 -147 -58 -264t-163.5 -181.5t-240.5 -64.5q-136 0 -241 63.5t-163.5 179.5t-58.5 263zM268 485q0 -186 71 -290.5t200 -104.5t199.5 104.5t70.5 290.5t-70.5 291 t-199.5 105t-200 -104.5t-71 -291.5zM305 1182l369 262l98 -146l-420 -192z" />
<glyph unicode="&#xf4;" horiz-adv-x="1077" d="M76 0zM76 483q0 147 58.5 264t163.5 181.5t241 64.5q135 0 240.5 -63.5t163.5 -178t58 -264.5q0 -147 -58 -264t-163.5 -181.5t-240.5 -64.5q-136 0 -241 63.5t-163.5 179.5t-58.5 263zM231 1171l240 234h133l240 -234l-68 -61l-238 186l-239 -186zM268 485 q0 -186 71 -290.5t200 -104.5t199.5 104.5t70.5 290.5t-70.5 291t-199.5 105t-200 -104.5t-71 -291.5z" />
<glyph unicode="&#xf5;" horiz-adv-x="1077" d="M76 0zM76 483q0 147 58.5 264t163.5 181.5t241 64.5q135 0 240.5 -63.5t163.5 -178t58 -264.5q0 -147 -58 -264t-163.5 -181.5t-240.5 -64.5q-136 0 -241 63.5t-163.5 179.5t-58.5 263zM213 1182q16 59 71.5 100t122.5 41q57 0 131 -39q45 -25 74 -36t53 -11q84 0 131 72 l66 -56q-23 -59 -75 -97t-122 -38q-34 0 -65 11.5t-86 39.5q-25 12 -53.5 24.5t-53.5 12.5q-86 0 -133 -84zM268 485q0 -186 71 -290.5t200 -104.5t199.5 104.5t70.5 290.5t-70.5 291t-199.5 105t-200 -104.5t-71 -291.5z" />
<glyph unicode="&#xf6;" horiz-adv-x="1077" d="M76 0zM76 483q0 147 58.5 264t163.5 181.5t241 64.5q135 0 240.5 -63.5t163.5 -178t58 -264.5q0 -147 -58 -264t-163.5 -181.5t-240.5 -64.5q-136 0 -241 63.5t-163.5 179.5t-58.5 263zM268 485q0 -186 71 -290.5t200 -104.5t199.5 104.5t70.5 290.5t-70.5 291 t-199.5 105t-200 -104.5t-71 -291.5zM268 1118v170h178v-170h-178zM631 1118v170h178v-170h-178z" />
<glyph unicode="&#xf7;" horiz-adv-x="1214" d="M203 494v139h854v-139h-854zM551 100v150h154v-150h-154zM551 883v149h154v-149h-154z" />
<glyph unicode="&#xf8;" horiz-adv-x="1077" d="M76 483q0 147 58.5 264t163.5 181.5t241 64.5q82 0 157 -26l41 98h82l-53 -129q111 -61 173 -178t62 -271q0 -147 -58 -264t-163.5 -181.5t-240.5 -64.5q-82 0 -156 23l-49 -121h-82l61 152q-113 61 -175 179t-62 273zM268 485q0 -227 99 -325l284 694q-47 27 -112 27 q-129 0 -200 -104.5t-71 -291.5zM430 113q49 -23 109 -23q129 0 199.5 104.5t70.5 290.5q0 215 -96 322z" />
<glyph unicode="&#xf9;" horiz-adv-x="1036" d="M113 0zM113 449v526h172v-533q0 -125 6 -175t37 -93q51 -78 161 -78q113 0 179 66q33 31 49 64.5t22 93t6 174.5v481h173v-975h-78l-66 133q-51 -72 -141 -114t-187 -42q-81 0 -148 28t-110 79q-49 61 -62 138t-13 227zM282 1298l101 150l370 -264l-53 -78z" />
<glyph unicode="&#xfa;" horiz-adv-x="1036" d="M113 0zM113 449v526h172v-533q0 -125 6 -175t37 -93q51 -78 161 -78q113 0 179 66q33 31 49 64.5t22 93t6 174.5v481h173v-975h-78l-66 133q-51 -72 -141 -114t-187 -42q-81 0 -148 28t-110 79q-49 61 -62 138t-13 227zM284 1182l369 262l98 -146l-420 -192z" />
<glyph unicode="&#xfb;" horiz-adv-x="1036" d="M113 0zM113 449v526h172v-533q0 -125 6 -175t37 -93q51 -78 161 -78q113 0 179 66q33 31 49 64.5t22 93t6 174.5v481h173v-975h-78l-66 133q-51 -72 -141 -114t-187 -42q-81 0 -148 28t-110 79q-49 61 -62 138t-13 227zM211 1171l240 234h133l240 -234l-68 -61l-238 186 l-239 -186z" />
<glyph unicode="&#xfc;" horiz-adv-x="1036" d="M113 0zM113 449v526h172v-533q0 -125 6 -175t37 -93q51 -78 161 -78q113 0 179 66q33 31 49 64.5t22 93t6 174.5v481h173v-975h-78l-66 133q-51 -72 -141 -114t-187 -42q-81 0 -148 28t-110 79q-49 61 -62 138t-13 227zM248 1118v170h178v-170h-178zM611 1118v170h178 v-170h-178z" />
<glyph unicode="&#xfd;" horiz-adv-x="921" d="M31 0zM31 975h184l283 -742l243 742h152l-344 -1014q-47 -137 -95 -213t-114 -109.5t-166 -33.5l-29 125h27q59 0 96 19.5t67 65.5t60 134l23 65zM241 1182l369 262l98 -146l-420 -192z" />
<glyph unicode="&#xfe;" horiz-adv-x="1064" d="M119 -367v1641l172 37v-449q53 66 136 99.5t177 33.5q82 0 152.5 -28.5t113.5 -79.5q49 -61 65.5 -148.5t16.5 -234.5v-41q0 -141 -16 -228.5t-66 -148.5q-43 -51 -113.5 -80t-152.5 -29q-94 0 -177 34t-136 100v-478h-172zM291 453q0 -111 14 -174.5t70 -114.5 q35 -35 83 -52.5t95 -17.5q55 0 103.5 21.5t76.5 62.5q33 45 40 107.5t7 177.5v47q0 117 -7 178.5t-40 106.5q-29 41 -77 62.5t-103 21.5q-47 0 -95 -17.5t-83 -52.5q-43 -41 -61.5 -91t-20.5 -98.5t-2 -166.5z" />
<glyph unicode="&#xff;" horiz-adv-x="921" d="M31 0zM31 975h184l283 -742l243 742h152l-344 -1014q-47 -137 -95 -213t-114 -109.5t-166 -33.5l-29 125h27q59 0 96 19.5t67 65.5t60 134l23 65zM205 1118v170h178v-170h-178zM568 1118v170h178v-170h-178z" />
<glyph unicode="&#x152;" horiz-adv-x="1830" d="M74 643q0 186 65.5 338t193.5 241t306 89q121 0 216 -48.5t159 -134.5v156h729l-41 -139h-508v-449h446l-32 -139h-414v-418h580l-35 -139h-725v160q-63 -86 -158.5 -135.5t-216.5 -49.5q-178 0 -306 89.5t-193.5 241t-65.5 337.5zM274 643q0 -236 95.5 -378t273.5 -142 q182 0 278.5 137t96.5 383t-96.5 383t-278.5 137q-178 0 -273.5 -143t-95.5 -377z" />
<glyph unicode="&#x153;" horiz-adv-x="1734" d="M76 483q0 147 58.5 264t163.5 181.5t241 64.5q117 0 211 -47t155 -133q61 84 152.5 132t202.5 48q193 0 298 -126t105 -322q0 -59 -2 -88h-660q6 -162 92.5 -261.5t237.5 -99.5q74 0 141.5 15.5t141.5 50.5l14 -109q-63 -35 -156.5 -55.5t-185.5 -20.5q-123 0 -221 46.5 t-162 134.5q-61 -86 -155.5 -133.5t-208.5 -47.5q-136 0 -241 63.5t-163.5 179.5t-58.5 263zM268 485q0 -186 71 -290.5t200 -104.5q127 0 198.5 103.5t71.5 291.5t-71.5 292t-198.5 104q-129 0 -200 -104.5t-71 -291.5zM1006 563h473q0 145 -44 235.5t-175 90.5 q-119 0 -182.5 -98.5t-71.5 -227.5z" />
<glyph unicode="&#x178;" horiz-adv-x="1017" d="M25 0zM25 1284h202l312 -620l303 620h159l-391 -784v-500h-182v502zM260 1417v170h178v-170h-178zM623 1417v170h178v-170h-178z" />
<glyph unicode="&#x2c6;" horiz-adv-x="819" d="M102 1110zM102 1171l240 234h133l240 -234l-68 -61l-238 186l-239 -186z" />
<glyph unicode="&#x2dc;" horiz-adv-x="819" d="M86 1118zM86 1182q16 59 71.5 100t122.5 41q57 0 131 -39q45 -25 74 -36t53 -11q84 0 131 72l66 -56q-23 -59 -75 -97t-122 -38q-34 0 -65 11.5t-86 39.5q-25 12 -53.5 24.5t-53.5 12.5q-86 0 -133 -84z" />
<glyph unicode="&#x2000;" horiz-adv-x="875" />
<glyph unicode="&#x2001;" horiz-adv-x="1751" />
<glyph unicode="&#x2002;" horiz-adv-x="875" />
<glyph unicode="&#x2003;" horiz-adv-x="1751" />
<glyph unicode="&#x2004;" horiz-adv-x="583" />
<glyph unicode="&#x2005;" horiz-adv-x="437" />
<glyph unicode="&#x2006;" horiz-adv-x="291" />
<glyph unicode="&#x2007;" horiz-adv-x="291" />
<glyph unicode="&#x2008;" horiz-adv-x="218" />
<glyph unicode="&#x2009;" horiz-adv-x="350" />
<glyph unicode="&#x200a;" horiz-adv-x="97" />
<glyph unicode="&#x2010;" horiz-adv-x="661" d="M131 494v139h399v-139h-399z" />
<glyph unicode="&#x2011;" horiz-adv-x="661" d="M131 494v139h399v-139h-399z" />
<glyph unicode="&#x2012;" horiz-adv-x="661" d="M131 494v139h399v-139h-399z" />
<glyph unicode="&#x2013;" horiz-adv-x="1046" d="M0 494v139h1047v-139h-1047z" />
<glyph unicode="&#x2014;" horiz-adv-x="2048" d="M0 494v139h2048v-139h-2048z" />
<glyph unicode="&#x2018;" horiz-adv-x="442" d="M125 770v182l108 357h64v-539h-172z" />
<glyph unicode="&#x2019;" horiz-adv-x="442" d="M145 770v539h172v-183l-108 -356h-64z" />
<glyph unicode="&#x201a;" horiz-adv-x="442" d="M145 162h172v-182l-108 -357h-64v539z" />
<glyph unicode="&#x201c;" horiz-adv-x="821" d="M125 772v182l108 357h64v-539h-172zM504 772v182l108 357h64v-539h-172z" />
<glyph unicode="&#x201d;" horiz-adv-x="821" d="M145 770v539h172v-183l-108 -356h-64zM524 770v539h172v-183l-108 -356h-64z" />
<glyph unicode="&#x201e;" horiz-adv-x="821" d="M145 162h172v-182l-108 -357h-64v539zM524 162h172v-182l-108 -357h-64v539z" />
<glyph unicode="&#x2022;" horiz-adv-x="806" d="M147 598q0 106 75 181t181 75t181 -74.5t75 -181.5q0 -106 -74.5 -181t-181.5 -75q-106 0 -181 75t-75 181z" />
<glyph unicode="&#x2026;" horiz-adv-x="1415" d="M145 0v147l172 35v-182h-172zM616 0v147l172 35v-182h-172zM1087 0v147l173 35v-182h-173z" />
<glyph unicode="&#x202f;" horiz-adv-x="350" />
<glyph unicode="&#x2039;" horiz-adv-x="684" d="M121 473v51l340 361l76 -84l-291 -301l293 -303l-74 -84z" />
<glyph unicode="&#x203a;" horiz-adv-x="684" d="M145 197l293 303l-291 301l76 84l340 -361v-51l-344 -360z" />
<glyph unicode="&#x205f;" horiz-adv-x="437" />
<glyph unicode="&#x20ac;" horiz-adv-x="1175" d="M43 489v64h168q-4 29 -4 90q0 43 2 66l-166 41v63h180q37 188 156 326q76 82 182.5 127t226.5 45q182 0 318 -70l-14 -151q-131 66 -283 65q-156 0 -257 -93t-134 -249h545l-31 -104h-529v-50q0 -41 5 -106h452l-31 -104h-403q37 -156 134 -239t249 -83q90 0 164 18.5 t145 51.5l17 -138q-68 -37 -158 -59.5t-189 -22.5q-86 0 -171 23t-148 63q-92 61 -153.5 160t-88.5 226z" />
<glyph unicode="&#x2122;" horiz-adv-x="1316" d="M80 1161l8 76h440l-8 -76h-170v-502h-98v502h-172zM563 657l23 578h82l186 -344l176 344h84l25 -578h-101l-14 402l-68 -139l-88 -175h-43l-172 308l-4 -131l-8 -265h-78z" />
<glyph unicode="&#x25fc;" horiz-adv-x="972" d="M0 0v973h973v-973h-973z" />
</font>
</defs>
</svg>
