<?xml version="1.0" standalone="no"?>
<!DOCTYPE svg PUBLIC "-//W3C//DTD SVG 1.1//EN" "http://www.w3.org/Graphics/SVG/1.1/DTD/svg11.dtd" >
<svg xmlns="http://www.w3.org/2000/svg" xmlns:xlink="http://www.w3.org/1999/xlink" version="1.1">
<metadata></metadata>
<defs>
<font id="championsextrabold" horiz-adv-x="1011" >
<font-face units-per-em="2048" ascent="1638" descent="-410" />
<missing-glyph horiz-adv-x="360" />
<glyph unicode="&#xfb01;" horiz-adv-x="1052" d="M-27 836v139h152v14q0 176 101.5 273.5t279.5 97.5q141 0 282 -49l-20 -209q-127 43 -201 43q-139 0 -139 -152v-18h526v-975h-303v780h-223v-780h-303v786z" />
<glyph unicode="&#xfb02;" horiz-adv-x="1087" d="M-27 836v139h152v29q0 166 116.5 261t317.5 95q98 0 212 -20.5t218 -53.5v-1286h-303v1133q-66 12 -98 12q-160 0 -160 -158v-12h188l-49 -195h-139v-780h-303v786z" />
<glyph horiz-adv-x="0" />
<glyph unicode="&#xd;" horiz-adv-x="0" />
<glyph unicode=" "  horiz-adv-x="360" />
<glyph unicode="&#x09;" horiz-adv-x="360" />
<glyph unicode="&#xa0;" horiz-adv-x="360" />
<glyph unicode="!" horiz-adv-x="532" d="M115 0v213l303 63v-276h-303zM115 338v909l303 64v-973h-303z" />
<glyph unicode="&#x22;" horiz-adv-x="811" d="M70 1294h305l-62 -512h-198zM436 1294h305l-61 -512h-199z" />
<glyph unicode="#" horiz-adv-x="1275" d="M41 309l47 221h164l47 224h-164l47 221h164l68 309h256l-68 -309h215l68 309h254l-68 -309h164l-70 -221h-141l-47 -224h164l-70 -221h-141l-66 -309h-254l66 309h-215l-66 -309h-256l66 309h-164zM504 530h223l47 224h-223z" />
<glyph unicode="$" d="M94 936q0 147 107 254q76 74 198 104v160l252 49v-203q96 -18 199 -61l-16 -244q-141 74 -263 74q-70 0 -114.5 -29.5t-44.5 -85.5q0 -51 44 -87t138 -87q100 -53 164.5 -100t112 -123t47.5 -184q0 -156 -103 -262q-66 -68 -164 -103v-217h-252v189q-80 6 -159.5 29.5 t-143.5 60.5l15 243q84 -43 167.5 -67.5t149.5 -24.5q78 0 125 34t47 93q0 51 -44 88t-142 94q-98 55 -163 102.5t-111 123t-46 180.5z" />
<glyph unicode="%" horiz-adv-x="1820" d="M74 885q0 115 39 212t113.5 155.5t181.5 58.5q106 0 181 -58.5t113.5 -156t38.5 -211.5q0 -115 -38.5 -212.5t-113.5 -155.5t-181 -58q-107 0 -181.5 58t-113.5 155.5t-39 212.5zM334 885q0 -123 19.5 -186.5t54.5 -63.5q34 0 53.5 63.5t19.5 186.5t-19.5 186.5 t-53.5 63.5q-35 0 -54.5 -63.5t-19.5 -186.5zM528 -31l514 1309h234l-514 -1309h-234zM1079 403q0 115 39 212.5t114 155.5t181 58t181 -58t114 -155.5t39 -212.5t-39 -212t-113.5 -155.5t-181.5 -58.5q-106 0 -181 58.5t-114 156t-39 211.5zM1339 403q0 -123 19.5 -186 t54.5 -63t54.5 63.5t19.5 185.5q0 123 -19.5 186.5t-54.5 63.5t-54.5 -63.5t-19.5 -186.5z" />
<glyph unicode="&#x26;" horiz-adv-x="1173" d="M37 326q0 102 58.5 180t178.5 153q-133 156 -133 310q0 96 48.5 174t133.5 123t195 45q160 0 256 -85t96 -225q0 -102 -55 -190t-166 -172l148 -170q39 96 61 211l211 -70q-33 -193 -111 -325q39 -39 70 -55.5t76 -16.5h57l-67 -213h-76q-80 0 -134.5 19.5t-101.5 62.5 q-141 -104 -323 -105q-123 0 -219.5 46.5t-149.5 125t-53 177.5zM352 336q0 -63 44 -102t112 -39q72 0 131 47l-211 241q-76 -57 -76 -147zM428 989q0 -96 72 -180q102 71 102 180q0 57 -23.5 89t-62.5 32t-63.5 -33t-24.5 -88z" />
<glyph unicode="'" horiz-adv-x="444" d="M70 1294h305l-62 -512h-198z" />
<glyph unicode="(" horiz-adv-x="618" d="M115 549q0 238 67.5 488.5t182.5 400.5h258q-90 -160 -139.5 -406t-49.5 -483q0 -240 49 -488.5t140 -406.5h-258q-115 147 -182.5 402t-67.5 493z" />
<glyph unicode=")" horiz-adv-x="618" d="M-4 -346q90 158 139 406.5t49 488.5q0 238 -49 483.5t-139 405.5h258q115 -150 182.5 -401t67.5 -488q0 -238 -67.5 -493t-182.5 -402h-258z" />
<glyph unicode="*" horiz-adv-x="780" d="M86 922l211 61l-211 64l82 172l147 -101l-34 172h219l-35 -172l147 101l82 -172l-211 -64l211 -61l-82 -174l-147 100l35 -172h-219l34 172l-147 -100z" />
<glyph unicode="+" d="M92 463v233h297v297h234v-297h297v-233h-297v-297h-234v297h-297z" />
<glyph unicode="," horiz-adv-x="491" d="M94 213l303 63v-243l-131 -385h-172v565z" />
<glyph unicode="-" horiz-adv-x="659" d="M86 438v232h487v-232h-487z" />
<glyph unicode="." horiz-adv-x="491" d="M94 0v213l303 63v-276h-303z" />
<glyph unicode="/" horiz-adv-x="774" d="M25 -82l448 1454h277l-449 -1454h-276z" />
<glyph unicode="0" d="M57 645q0 309 115 487.5t334 178.5t333.5 -178.5t114.5 -487.5q0 -311 -114.5 -489.5t-333.5 -178.5t-334 178.5t-115 489.5zM381 645q0 -217 29.5 -327.5t95.5 -110.5q65 0 95 110.5t30 327.5q0 215 -30 325.5t-95 110.5q-66 0 -95.5 -110.5t-29.5 -325.5z" />
<glyph unicode="1" d="M188 0v229h195v754l-182 -39v254l487 105v-1074h217l-49 -229h-668z" />
<glyph unicode="2" d="M90 0v121l334 534q68 109 95.5 172.5t27.5 120.5q0 63 -36 99t-97 36q-57 0 -127 -27.5t-140 -74.5l-20 240q72 41 163 65.5t179 24.5q94 0 172 -27t129 -78q98 -94 98 -239q0 -98 -43 -196.5t-143 -240.5l-207 -292h434l-51 -238h-768z" />
<glyph unicode="3" d="M98 1047l64 237h676v-117l-228 -379q133 -31 214 -134t81 -244q0 -86 -26.5 -161t-77.5 -132q-59 -66 -151.5 -103t-205.5 -37q-90 0 -177 21.5t-156 60.5l22 238q68 -45 138.5 -69.5t134.5 -24.5q86 0 133 54t47 157q0 106 -47 158.5t-133 52.5q-47 0 -93 -11l-75 74 l233 359h-373z" />
<glyph unicode="4" d="M43 299v135l188 850h304l-177 -754h177v285l301 68v-353h147l-61 -231h-86v-299h-301v299h-492z" />
<glyph unicode="5" d="M104 61l25 236q147 -94 283 -94q88 0 134 53t46 152q0 98 -48 149t-128 51q-72 0 -150 -37l-112 64l36 649h713l-69 -237h-400l-12 -228q33 8 88 8q119 0 210 -53t141 -148.5t50 -213.5q0 -98 -31.5 -178t-93.5 -138q-125 -119 -337 -119q-89 0 -182 24t-163 60z" />
<glyph unicode="6" d="M82 436q0 143 72 359l161 489h310l-140 -420q53 12 99 13q104 0 187 -52.5t131 -152t48 -236.5q0 -129 -49 -233.5t-147.5 -165t-237.5 -60.5q-205 0 -319.5 125t-114.5 334zM399 436q0 -115 31 -174t86 -59q57 0 88 59.5t31 173.5q0 117 -31 175.5t-88 58.5 q-117 0 -117 -234z" />
<glyph unicode="7" d="M84 1047l70 237h759v-123l-385 -1161h-313l367 1047h-498z" />
<glyph unicode="8" d="M72 385q0 96 43 175t118 128v4q-59 37 -95 105.5t-36 140.5q0 113 53.5 198t145.5 130t205 45t205 -45t145 -130t53 -198q0 -72 -35.5 -140.5t-95.5 -105.5v-4q76 -49 119 -128t43 -175q0 -193 -122 -300.5t-312 -107.5q-191 0 -312.5 108t-121.5 300zM385 389 q0 -92 34 -141t87 -49t87 49t34 141t-34 140.5t-87 48.5t-87 -48.5t-34 -140.5zM403 934q0 -76 29 -116t74 -40t73.5 40t28.5 116t-28.5 116t-73.5 40t-74 -40t-29 -116z" />
<glyph unicode="9" d="M61 852q0 129 49.5 233.5t147.5 165t238 60.5q205 0 319.5 -125t114.5 -334q0 -143 -72 -358l-162 -494h-309l139 424q-53 -12 -98 -12q-104 0 -187 52t-131.5 151.5t-48.5 236.5zM377 852q0 -117 30.5 -175.5t88.5 -58.5q116 1 116 234q0 115 -30.5 174t-85.5 59 t-87 -59t-32 -174z" />
<glyph unicode=":" horiz-adv-x="491" d="M94 0v213l303 63v-276h-303zM94 594v213l303 63v-276h-303z" />
<glyph unicode=";" horiz-adv-x="491" d="M94 213l303 63v-243l-131 -385h-172v565zM94 594v213l303 63v-276h-303z" />
<glyph unicode="&#x3c;" d="M84 465v233l819 365v-260l-528 -221l528 -222v-260z" />
<glyph unicode="=" d="M92 250v233h828v-233h-828zM92 676v233h828v-233h-828z" />
<glyph unicode="&#x3e;" d="M96 100v260l529 222l-529 221v260l819 -365v-233z" />
<glyph unicode="?" horiz-adv-x="862" d="M82 1237q78 35 161 53.5t156 18.5q213 0 328 -109q94 -90 94 -227q0 -94 -36.5 -168t-135.5 -166l-74 -70q-39 -37 -51 -64.5t-12 -86.5v-82h-303v104q0 94 26.5 146.5t112.5 134.5l66 61q47 47 66.5 84t19.5 82q0 61 -39 98t-105 37q-111 0 -256 -90zM209 -2v213l303 63 v-276h-303z" />
<glyph unicode="@" horiz-adv-x="1644" d="M57 573q0 225 121 409.5t324 290t438 105.5q193 0 340 -71.5t229 -202.5t82 -303q0 -145 -58 -264t-156.5 -186.5t-215.5 -67.5q-76 0 -127 28.5t-78 77.5q-90 -109 -231 -108q-121 0 -193.5 80.5t-72.5 213.5q0 117 56 220.5t148.5 165t190.5 61.5q88 0 145 -61l45 45 h164l-59 -357q-23 -133 -23 -166t15.5 -48t34.5 -15q35 0 70.5 51t60 137t24.5 187q0 207 -106.5 315.5t-288.5 108.5q-164 0 -306.5 -83t-227.5 -229.5t-85 -326.5q0 -229 138.5 -355.5t373.5 -126.5q106 0 226.5 24.5t226.5 63.5l29 -155q-98 -37 -239.5 -65.5 t-283.5 -28.5q-223 0 -389 79.5t-254 223t-88 333.5zM696 575q0 -158 82 -157q47 0 81 63.5t56 200.5l29 170q-27 33 -72 33q-49 0 -89 -42t-63.5 -114t-23.5 -154z" />
<glyph unicode="A" horiz-adv-x="1114" d="M-2 0l377 1251l323 47l418 -1298h-328l-81 291h-338l-80 -291h-291zM432 522h211l-6 23q-70 246 -98 377h-7q-31 -152 -94 -377z" />
<glyph unicode="B" horiz-adv-x="1081" d="M115 0v1284h358q143 0 235.5 -27.5t147.5 -82.5q82 -82 82 -222q0 -86 -48 -152.5t-128 -94.5v-9q121 -33 193.5 -108.5t72.5 -200.5q0 -172 -110 -272q-127 -115 -406 -115h-397zM432 240h90q96 0 135 39t39 118q0 70 -37 107q-45 47 -157 47h-70v-311zM432 795h47 q72 0 105 26q39 33 39 99q0 57 -29 90q-32 34 -112 34h-5h-45v-249z" />
<glyph unicode="C" horiz-adv-x="1048" d="M57 643q0 201 74 351.5t206 233.5t302 83q164 0 334 -76l-17 -258q-80 45 -144 65.5t-132 20.5q-139 0 -212 -108.5t-73 -295.5q0 -211 75 -322.5t212 -111.5q135 0 297 101l20 -246q-74 -45 -176 -74t-205 -29q-176 0 -303 83t-192.5 233.5t-65.5 349.5z" />
<glyph unicode="D" horiz-adv-x="1196" d="M115 0v1284h317q193 0 328 -43t227 -139q152 -162 152 -459q0 -152 -46 -272.5t-132 -206.5q-86 -84 -202 -124t-270 -40h-374zM432 242h41q84 0 139.5 17t96.5 58q94 94 94 332q0 205 -84 305q-41 49 -101.5 68.5t-146.5 19.5h-39v-800z" />
<glyph unicode="E" horiz-adv-x="968" d="M115 0v1284h786l-65 -242h-404v-292h383l-51 -242h-332v-266h492l-52 -242h-757z" />
<glyph unicode="F" horiz-adv-x="905" d="M115 0v1284h786l-65 -242h-404v-292h383l-51 -242h-332v-508h-317z" />
<glyph unicode="G" horiz-adv-x="1196" d="M57 645q0 188 80 340t225.5 239t333.5 87q92 0 173 -18.5t171 -57.5l-18 -254q-86 45 -155.5 64.5t-141.5 19.5q-162 0 -246 -111q-84 -109 -84 -309q0 -197 75 -309.5t212 -112.5q57 0 102 15v270h-184l72 242h422v-650q-70 -51 -193 -87t-244 -36q-180 0 -316 81 t-210 231.5t-74 355.5z" />
<glyph unicode="H" horiz-adv-x="1198" d="M115 0v1284h317v-534h334v534h317v-1284h-317v508h-334v-508h-317z" />
<glyph unicode="I" horiz-adv-x="555" d="M119 0v1284h317v-1284h-317z" />
<glyph unicode="J" horiz-adv-x="751" d="M45 250q117 -29 182 -29q59 0 82 29t23 100v934h317v-907q0 -203 -84 -299q-84 -100 -258 -101q-49 0 -112.5 11.5t-112.5 27.5z" />
<glyph unicode="K" horiz-adv-x="1073" d="M115 0v1284h317v-547l293 547h324l-334 -557l366 -727h-338l-245 518h-66v-518h-317z" />
<glyph unicode="L" horiz-adv-x="927" d="M115 0v1284h317v-1042h467l-51 -242h-733z" />
<glyph unicode="M" horiz-adv-x="1466" d="M106 0l44 1284h303l176 -407q74 -162 98 -261h6q20 80 96 254l189 414h299l43 -1284h-305l-19 754h-6q-25 -86 -102 -267l-115 -266h-186l-123 283q-82 186 -103 254h-6l-10 -758h-279z" />
<glyph unicode="N" horiz-adv-x="1214" d="M115 0v1284h231l332 -522q102 -160 141 -244h6v766h275v-1284h-242l-323 489q-96 147 -142 242h-6v-731h-272z" />
<glyph unicode="O" horiz-adv-x="1214" d="M57 643q0 188 63.5 340t187.5 240t298 88t299 -88t188.5 -240t63.5 -340t-63.5 -338.5t-188.5 -239t-299 -88.5t-298 88.5t-187.5 239t-63.5 338.5zM395 643q0 -418 211 -418q109 0 161 107.5t52 310.5t-52 311.5t-161 108.5q-211 0 -211 -420z" />
<glyph unicode="P" horiz-adv-x="1044" d="M115 0v1284h354q285 0 416 -121q116 -105 116 -294q0 -193 -120 -308q-129 -123 -369 -123h-80v-438h-317zM432 674h57q100 0 144 49q41 47 41 137q0 96 -45 141q-41 41 -135 41h-62v-368z" />
<glyph unicode="Q" horiz-adv-x="1216" d="M57 643q0 188 63.5 340t187.5 240t298 88t299 -88t188.5 -240t63.5 -340q0 -137 -48 -262t-138 -213v-6l225 -15l16 -266l-307 72q-59 14 -119.5 19t-179.5 5q-174 0 -298 88.5t-187.5 239t-63.5 338.5zM395 643q0 -418 211 -418q109 0 161 107.5t52 310.5t-52 311.5 t-161 108.5q-211 0 -211 -420z" />
<glyph unicode="R" horiz-adv-x="1097" d="M115 0v1284h340q160 0 266 -30.5t172 -96.5q102 -102 102 -270q0 -104 -46 -192.5t-132 -147.5v-6l273 -541h-340l-203 465h-115v-465h-317zM432 698h64q92 0 131 43q41 45 41 129t-39 129q-39 43 -129 43h-68v-344z" />
<glyph unicode="S" horiz-adv-x="948" d="M70 70l14 243q84 -43 168 -67.5t149 -24.5q78 0 125 34t47 93q0 53 -46 93t-144 98q-98 57 -159.5 103t-106.5 120t-45 174q0 147 106 254q59 57 147.5 89t190.5 32q147 0 307 -72l-16 -242q-154 74 -262 74q-70 0 -115 -30.5t-45 -86.5q0 -51 44 -88t140 -90 q100 -55 163 -101t109 -122t46 -180q0 -156 -103 -262q-61 -63 -154 -98.5t-204 -35.5q-90 0 -186.5 25t-169.5 68z" />
<glyph unicode="T" horiz-adv-x="1005" d="M4 1042l31 242h966l-30 -242h-309v-1042h-318v1042h-340z" />
<glyph unicode="U" horiz-adv-x="1173" d="M98 473v811h318v-811q0 -139 47 -194q45 -55 133 -56q88 0 133 56q47 55 47 194v811h299v-790q0 -268 -133 -396q-127 -121 -358 -121q-224 0 -351 117q-135 123 -135 379z" />
<glyph unicode="V" horiz-adv-x="1075" d="M-16 1284h340l147 -528q59 -215 82 -348h8q20 121 82 350l141 526h308l-402 -1284h-305z" />
<glyph unicode="W" horiz-adv-x="1542" d="M-16 1284h331l95 -412q10 -55 20 -86q10 -51 32.5 -153.5t35.5 -171.5h6q35 182 108 434l41 139l-57 250h313l95 -412q63 -279 83 -411h7q29 176 80 407l90 416h295l-353 -1284h-260l-106 391q-41 150 -58 256h-4q-25 -111 -69 -258l-123 -389h-258z" />
<glyph unicode="X" horiz-adv-x="1050" d="M-12 0l366 672l-344 612h346l189 -385h8l186 385h301l-346 -612l369 -672h-346l-217 430h-6l-201 -430h-305z" />
<glyph unicode="Y" horiz-adv-x="1007" d="M-20 1284h331l97 -240q72 -178 106 -307h8q33 123 107 305l98 242h301l-362 -778v-506h-318v506z" />
<glyph unicode="Z" horiz-adv-x="927" d="M29 0v131l452 911h-432v242h815v-131l-450 -911h489l-51 -242h-823z" />
<glyph unicode="[" horiz-adv-x="608" d="M115 -367v1821h493l-14 -223h-195v-1374h209l-14 -224h-479z" />
<glyph unicode="\" horiz-adv-x="774" d="M25 1372h276l449 -1454h-277z" />
<glyph unicode="]" horiz-adv-x="608" d="M0 -367l14 224h195v1374h-209l14 223h480v-1821h-494z" />
<glyph unicode="^" d="M80 692l309 508h238l305 -508h-275l-151 244l-154 -244h-272z" />
<glyph unicode="_" horiz-adv-x="983" d="M33 -37h917v-229h-917v229z" />
<glyph unicode="`" horiz-adv-x="960" d="M209 1047zM209 1284l134 225l407 -313l-102 -149z" />
<glyph unicode="a" horiz-adv-x="966" d="M51 281q0 166 143.5 254t380.5 100q0 68 -36 108q-37 41 -121 41q-121 0 -268 -79l-23 217q183 71 344 71h4q205 0 307 -104q96 -100 97 -287v-602h-187l-51 111q-45 -61 -116.5 -97.5t-159.5 -36.5q-86 0 -158 38t-114 108t-42 158zM354 305q0 -51 28 -84t75 -33 q57 0 88 43q30 42 30 128v6v100q-221 -12 -221 -160z" />
<glyph unicode="b" horiz-adv-x="1013" d="M94 0v1247l303 64v-398q45 37 101.5 58.5t111.5 21.5q129 0 219 -96q63 -66 99.5 -167t36.5 -232q0 -109 -23.5 -203t-69.5 -164q-45 -72 -118.5 -113t-159.5 -41q-147 1 -262 134l-58 -111h-180zM397 242q16 -23 49 -40.5t64 -17.5q65 1 98 64q37 74 37 241 q0 297 -131 297q-61 0 -92 -53q-25 -43 -25 -127v-364z" />
<glyph unicode="c" horiz-adv-x="856" d="M49 477q0 150 55.5 266.5t161 183t254.5 66.5q143 0 285 -65l-21 -219q-119 73 -209 73h-2q-102 0 -153 -80.5t-51 -218.5q0 -139 53 -216t153 -77q96 0 216 68l24 -207q-152 -74 -303 -74q-145 0 -249.5 64.5t-159 178.5t-54.5 257z" />
<glyph unicode="d" horiz-adv-x="1015" d="M45 473q0 154 49 271.5t139.5 183t212.5 65.5q90 0 168 -51v305l304 64v-1311h-187l-51 113q-45 -63 -109.5 -99.5t-140.5 -36.5q-115 0 -203 62.5t-135 175.5t-47 258zM496 182q51 0 82 41q36 48 36 160v6v377q-51 35 -96 35q-153 0 -153 -316q0 -303 131 -303z" />
<glyph unicode="e" horiz-adv-x="950" d="M49 500q0 145 56.5 257.5t156.5 174t230 61.5q193 0 299 -124t106 -326q0 -53 -10 -129h-516q10 -106 63 -166q55 -59 160 -60q117 0 250 78l26 -205q-68 -39 -156.5 -61.5t-176.5 -22.5q-226 1 -353 134q-135 141 -135 389zM373 604h223q-4 90 -30.5 142.5t-80.5 52.5 q-51 0 -79.5 -52.5t-32.5 -142.5z" />
<glyph unicode="f" horiz-adv-x="651" d="M-27 836v139h152v29q0 176 86 264q88 92 258 92q127 0 252 -47l-21 -209q-102 41 -163 41q-57 0 -84 -33q-25 -31 -25 -98v-39h242l-49 -195h-193v-780h-303v786z" />
<glyph unicode="g" horiz-adv-x="960" d="M43 -154q0 39 14 66l119 57q-106 43 -106 146q0 43 23.5 86t74.5 96l39 41q-68 51 -106 125t-38 164q2 106 55.5 189t145.5 130t205 47q147 0 242 -73l18 55h221v-131l-135 -35q55 -84 55 -182q0 -106 -52 -189.5t-144 -130.5t-207 -47q-57 0 -111 12l-16 -75 q143 0 252 -7q162 -10 239.5 -73.5t77.5 -192.5q0 -156 -123.5 -237.5t-334.5 -81.5q-187 0 -296.5 65.5t-111.5 175.5zM317 -123q2 -41 43 -63.5t113 -22.5q62 0 107 21.5t45 58.5q0 35 -33 49q-39 16 -139 17h-43l-70 2q-23 -25 -23 -62zM358 627q0 -82 28 -129t81 -47 t80.5 47t27.5 129t-26.5 129t-79.5 47t-82 -48t-29 -128z" />
<glyph unicode="h" horiz-adv-x="1030" d="M94 0v1247l303 64v-400q43 39 99.5 60.5t117.5 21.5q74 0 136.5 -26.5t105.5 -75.5q86 -98 86 -281v-610h-303v610q0 88 -27 127q-31 43 -86 43q-29 0 -53 -12t-41 -33q-20 -25 -27.5 -62.5t-7.5 -103.5v-569h-303z" />
<glyph unicode="i" horiz-adv-x="499" d="M98 0v975h303v-975h-303zM98 1067v180l303 64v-244h-303z" />
<glyph unicode="j" horiz-adv-x="499" d="M-127 -186h43q49 0 81 9t52 30q27 27 38 90t11 186v846h303v-832q0 -166 -28.5 -270t-87.5 -168q-98 -100 -271 -100q-47 0 -94 10zM98 1067v180l303 64v-244h-303z" />
<glyph unicode="k" horiz-adv-x="946" d="M94 0v1247l303 64v-721l228 385h297l-248 -385l272 -590h-323l-170 420h-56v-420h-303z" />
<glyph unicode="l" horiz-adv-x="499" d="M98 0v1247l303 64v-1311h-303z" />
<glyph unicode="m" horiz-adv-x="1517" d="M94 0v975h182l56 -111q45 59 112.5 94t149.5 35q80 0 147.5 -32.5t112.5 -96.5q43 57 110.5 93t145.5 36q74 0 137.5 -26.5t102.5 -73.5q43 -51 61.5 -116.5t18.5 -162.5v-614h-304v618q0 49 -4 74t-16 47q-25 41 -78 41q-29 0 -51.5 -12t-34.5 -33q-16 -27 -22.5 -61.5 t-6.5 -98.5v-575h-303v618q0 49 -4 74t-16 47q-25 41 -78 41q-29 0 -51.5 -12t-34.5 -33q-16 -27 -22.5 -61.5t-6.5 -98.5v-575h-303z" />
<glyph unicode="n" horiz-adv-x="1030" d="M94 0v975h182l56 -111q47 59 120.5 94t155.5 35q78 0 141.5 -26.5t106.5 -75.5q86 -98 86 -281v-610h-303v610q0 88 -27 127q-31 43 -86 43q-29 0 -53 -12t-41 -33q-20 -25 -27.5 -62.5t-7.5 -103.5v-569h-303z" />
<glyph unicode="o" horiz-adv-x="1019" d="M49 485q0 141 54.5 257t159 183.5t247.5 67.5t247.5 -67.5t159 -183t54.5 -257.5q0 -141 -54.5 -256.5t-159 -183.5t-247.5 -68t-247.5 68t-159 183.5t-54.5 256.5zM369 485q0 -150 36.5 -228.5t104.5 -78.5t104.5 79t36.5 228q0 150 -36.5 229t-104.5 79t-104.5 -79 t-36.5 -229z" />
<glyph unicode="p" horiz-adv-x="1013" d="M94 -367v1342h182l56 -107q45 57 116.5 91t145.5 34q111 0 194.5 -61.5t130 -173t46.5 -260.5q0 -109 -23.5 -203t-69.5 -164q-45 -72 -118.5 -113t-157.5 -41q-106 0 -199 74v-418h-303zM397 242q16 -23 49 -40.5t64 -17.5q65 1 98 64q37 74 37 241q0 297 -131 297 q-61 0 -92 -53q-25 -43 -25 -127v-364z" />
<glyph unicode="q" horiz-adv-x="1015" d="M49 473q0 154 50.5 271.5t141.5 183t214 65.5q70 0 132 -27.5t109 -74.5l54 84h172v-1342h-304v424q-80 -80 -196 -80q-113 0 -197 62.5t-130 174.5t-46 259zM369 481q0 -299 131 -299q51 0 82 41q36 48 36 160v6v367q-49 45 -102 45q-147 0 -147 -320z" />
<glyph unicode="r" horiz-adv-x="653" d="M94 0v975h185l59 -133q37 70 95.5 110.5t131.5 40.5q47 0 88 -18l-22 -225q-55 6 -86 6q-80 0 -115 -47q-33 -43 -33 -156v-553h-303z" />
<glyph unicode="s" horiz-adv-x="774" d="M70 700q0 127 90 207q45 41 112.5 63.5t145.5 22.5q127 0 266 -57l-10 -215q-115 74 -217 74q-45 0 -74 -19.5t-29 -52.5t30 -56.5t97 -62.5q74 -39 123 -74.5t85 -94t36 -140.5q0 -129 -84 -217q-96 -100 -289 -101q-71 0 -147 17.5t-133 48.5l10 217 q55 -39 119.5 -60.5t120.5 -21.5q53 0 85.5 21.5t32.5 60.5q0 37 -31.5 63.5t-99.5 61.5q-74 39 -122 75t-82.5 95t-34.5 145z" />
<glyph unicode="t" horiz-adv-x="747" d="M-25 836v139h152v207l303 63v-270h258l-49 -195h-209v-452q0 -80 31 -111q24 -24 66 -24h3q63 0 166 49l19 -203q-141 -61 -260 -62q-158 1 -242 89q-86 90 -86 270v450z" />
<glyph unicode="u" d="M88 356v619h303v-621q0 -49 4 -73.5t17 -47.5q27 -43 84 -43q29 0 53 12.5t37 33.5q16 27 22 61.5t6 97.5v580h304v-975h-183l-55 111q-45 -59 -115.5 -96.5t-152.5 -37.5q-74 0 -139.5 27t-104.5 74q-43 51 -61.5 116.5t-18.5 161.5z" />
<glyph unicode="v" horiz-adv-x="882" d="M-6 975h315l80 -326q51 -207 72 -313h8q23 125 66 309l73 330h281l-293 -975h-281z" />
<glyph unicode="w" horiz-adv-x="1304" d="M-6 975h293l65 -322q39 -180 51 -282h7q12 78 57 284l70 320h251l76 -318q45 -184 62 -292h6q23 141 53 290l64 320h262l-254 -975h-281l-78 324q-37 154 -47 215h-8q-10 -66 -45 -217l-72 -322h-280z" />
<glyph unicode="x" horiz-adv-x="878" d="M-4 0l276 510l-274 465h326l122 -250h5l112 250h291l-268 -467l297 -508h-332l-127 289h-4l-127 -289h-297z" />
<glyph unicode="y" horiz-adv-x="903" d="M-6 975h321l158 -617h8l146 617h282l-291 -922q-47 -145 -86.5 -224t-91.5 -130q-45 -45 -108.5 -69.5t-134.5 -24.5q-45 0 -72 6l-53 211h26q57 0 93 10t61 35q39 39 78 158z" />
<glyph unicode="z" horiz-adv-x="808" d="M41 0v121l350 643h-332v211h697v-121l-355 -643h375l-51 -211h-684z" />
<glyph unicode="{" horiz-adv-x="589" d="M82 469v119q115 49 115 172q0 63 -19 211q-14 96 -14 153q0 330 411 330l19 -164q-66 0 -104.5 -38t-38.5 -113q0 -39 20 -158q2 -10 12.5 -75.5t10.5 -121.5q0 -82 -43 -146.5t-140 -109.5q96 -45 139.5 -109.5t43.5 -146.5q0 -55 -10.5 -120.5t-12.5 -75.5 q-20 -115 -20 -156q0 -76 38.5 -113.5t104.5 -37.5l-19 -164q-411 -1 -411 329q0 57 14 154q2 12 10.5 77.5t8.5 131.5q0 123 -115 172z" />
<glyph unicode="|" horiz-adv-x="487" d="M115 -434v1902h258v-1902h-258z" />
<glyph unicode="}" horiz-adv-x="589" d="M-4 -231q66 0 104.5 37.5t38.5 113.5q0 41 -20 156q-2 10 -12.5 75.5t-10.5 120.5q0 82 43 146.5t140 109.5q-96 45 -139.5 109.5t-43.5 146.5q0 55 10.5 121t12.5 76q20 119 20 158q0 76 -39 113.5t-104 37.5l18 164q412 0 412 -330q0 -57 -14 -153q-18 -147 -19 -211 q0 -123 115 -172v-119q-115 -49 -115 -172q0 -66 8.5 -131.5t10.5 -77.5q14 -96 14 -154q0 -330 -412 -329z" />
<glyph unicode="~" d="M61 518q33 94 105 150.5t164 56.5q51 0 96 -13.5t98 -35.5q74 -33 109 -33q88 0 153 125l164 -150q-33 -94 -104.5 -150t-163.5 -56q-51 0 -96 13t-99 36q-74 33 -108 33q-88 0 -154 -125z" />
<glyph unicode="&#xa1;" horiz-adv-x="532" d="M90 0zM90 -336v973h303v-909zM90 699v276h303v-213z" />
<glyph unicode="&#xa2;" d="M135 477q0 186 83 318.5t239 177.5v176l241 49v-213q98 -14 193 -57l-21 -219q-121 74 -211 73q-102 0 -153 -80.5t-51 -218.5q0 -139 53 -216t154 -77q96 0 215 68l24 -207q-96 -47 -203 -65v-207h-241v217q-154 43 -238 172t-84 309z" />
<glyph unicode="&#xa3;" d="M94 0v125q186 180 187 356q0 37 -5 62l-174 49v129h115q-33 86 -47 143.5t-14 112.5q0 147 103 240.5t284 93.5q84 0 172 -19.5t168 -56.5l-21 -242q-131 80 -248 80q-70 0 -105.5 -33.5t-35.5 -105.5q0 -68 45 -213h316l-48 -186h-227q0 -199 -88 -297h451l-52 -238 h-776z" />
<glyph unicode="&#xa4;" d="M63 258l115 131q-68 106 -67 256q0 150 67 254l-115 133l162 162l123 -145q76 33 158 32q80 0 156 -32l124 145l162 -162l-114 -133q68 -109 67 -254q0 -143 -67 -256l114 -131l-162 -162l-124 144q-70 -31 -156 -31t-158 31l-123 -144zM379 645q0 -102 29.5 -161.5 t97.5 -59.5q67 0 97 59.5t30 161.5t-30 161.5t-97 59.5q-68 0 -97.5 -59t-29.5 -162z" />
<glyph unicode="&#xa5;" d="M-12 1284h331l97 -240q51 -131 100 -307h8q45 168 101 305l98 242h301l-285 -625h183l-48 -186h-206v-106h254l-48 -187h-206v-180h-318v180h-239v187h239v106h-239v186h165z" />
<glyph unicode="&#xa6;" horiz-adv-x="487" d="M115 338h258v-768h-258v768zM115 700v768h258v-768h-258z" />
<glyph unicode="&#xa7;" horiz-adv-x="1019" d="M115 514q0 72 40 141.5t107 122.5q-37 49 -53 92t-16 101q0 145 104 229t256 84q133 0 266 -57l-16 -228q-121 68 -211 68q-55 0 -87 -24.5t-32 -61.5q0 -41 39 -81t119 -97q152 -106 213 -183t61 -176q0 -72 -40 -141.5t-107 -122.5q37 -49 53 -92t16 -100 q0 -145 -104.5 -229.5t-255.5 -84.5q-133 1 -266 58l16 227q121 -68 211 -68q55 0 87 25t32 61q0 41 -39 81t-119 98q-152 106 -213 183t-61 175zM385 547q0 -45 45 -96.5t168 -135.5h2q35 49 35 97q0 45 -45 96t-168 135h-2q-35 -49 -35 -96z" />
<glyph unicode="&#xa8;" horiz-adv-x="960" d="M152 1075v246h277v-246h-277zM152 1075zM533 1075v246h276v-246h-276z" />
<glyph unicode="&#xa9;" horiz-adv-x="1392" d="M70 647q0 190 80.5 338t224 228.5t321.5 80.5t321.5 -80.5t224.5 -228t81 -338.5q0 -190 -81 -337.5t-224.5 -228.5t-321.5 -81t-321.5 81t-224 228.5t-80.5 337.5zM285 647q0 -147 53 -254.5t147.5 -164t210.5 -56.5q117 0 211 56.5t147.5 164t53.5 254.5t-53.5 255 t-147.5 164t-211 56t-211 -56t-147 -163.5t-53 -255.5zM418 651q0 88 37 162t104.5 117t155.5 43q98 0 182 -47l-12 -150q-70 43 -133 43t-96 -42t-33 -120q0 -88 34.5 -134t96.5 -46q66 0 143 47l14 -145q-92 -51 -190 -51q-66 0 -122 22.5t-95 63.5q-41 43 -63.5 104.5 t-22.5 132.5z" />
<glyph unicode="&#xaa;" horiz-adv-x="645" d="M53 1004q0 90 74 137t225 65q0 76 -71 76q-70 0 -164 -47l-15 151q123 45 222 46q242 0 247 -242v-344h-135l-33 72q-72 -86 -174 -87q-73 0 -124.5 50.5t-51.5 122.5zM272 1028q0 -20 11.5 -33.5t29.5 -13.5q39 0 39 53v68q-33 -2 -56.5 -21.5t-23.5 -52.5z" />
<glyph unicode="&#xab;" horiz-adv-x="1140" d="M82 449v98l360 399l154 -176l-270 -272l270 -273l-154 -176zM532 449v98l361 399l154 -176l-271 -272l271 -273l-154 -176z" />
<glyph unicode="&#xac;" d="M92 676v233h828v-659h-234v426h-594z" />
<glyph unicode="&#xad;" horiz-adv-x="659" d="M86 438v232h487v-232h-487zM86 438z" />
<glyph unicode="&#xae;" horiz-adv-x="1392" d="M70 647q0 190 80.5 338t224 228.5t321.5 80.5t321.5 -80.5t224.5 -228t81 -338.5q0 -190 -81 -337.5t-224.5 -228.5t-321.5 -81t-321.5 81t-224 228.5t-80.5 337.5zM285 647q0 -147 53 -254.5t147.5 -164t210.5 -56.5q117 0 211 56.5t147.5 164t53.5 254.5t-53.5 255 t-147.5 164t-211 56t-211 -56t-147 -163.5t-53 -255.5zM467 342v619h156q160 0 229 -58q59 -51 59 -139q0 -92 -90 -160l148 -262h-207l-105 213h-2v-213h-188zM655 690h9q53 0 53 72q0 63 -55 63h-7v-135z" />
<glyph unicode="&#xaf;" horiz-adv-x="960" d="M188 1098zM189 1098l24 213h560l-25 -213h-559z" />
<glyph unicode="&#xb0;" horiz-adv-x="782" d="M88 1010q0 135 83 218t220 83t220 -83t83 -218t-83 -218t-220 -83t-220 82.5t-83 218.5zM301 1010q0 -59 21.5 -96t68.5 -37t68.5 36.5t21.5 96.5q0 59 -21.5 96t-68.5 37t-68.5 -37t-21.5 -96z" />
<glyph unicode="&#xb1;" d="M92 0v233h828v-233h-828zM92 668v233h297v297h234v-297h297v-233h-297v-297h-234v297h-297z" />
<glyph unicode="&#xb2;" horiz-adv-x="831" d="M131 498l248 407q35 57 48 90t13 62q0 37 -20.5 58.5t-59.5 21.5q-78 0 -182 -78l-14 174q47 35 114.5 56.5t139.5 21.5q119 0 199.5 -67.5t80.5 -170.5q0 -49 -24.5 -101t-102.5 -169l-137 -205h287l-43 -186h-543z" />
<glyph unicode="&#xb3;" horiz-adv-x="874" d="M152 1098l45 186h495v-90l-157 -240q94 -27 150 -91t56 -173q0 -86 -41 -155.5t-115.5 -109.5t-174.5 -40q-66 0 -133.5 16.5t-114.5 42.5l12 183q74 -37 118 -52.5t87 -15.5q106 0 106 131q0 63 -25.5 99t-70.5 36q-29 0 -57 -12l-62 76l138 209h-256z" />
<glyph unicode="&#xb4;" horiz-adv-x="960" d="M209 1047zM209 1196l408 313l133 -225l-438 -237z" />
<glyph unicode="&#xb5;" horiz-adv-x="1017" d="M94 -406v1381h303v-621q0 -49 4.5 -73.5t16.5 -47.5q27 -43 84 -43q29 0 53.5 12.5t36.5 33.5q16 27 22.5 61.5t6.5 97.5v580h303v-975h-183l-55 111q-45 -59 -115.5 -96.5t-152.5 -37.5q-45 0 -78 9l66 -392h-312z" />
<glyph unicode="&#xb6;" horiz-adv-x="1150" d="M74 879q0 96 32.5 171.5t94.5 123.5q66 51 161 70.5t242 19.5h490l-21 -205h-100v-1454h-244v1454h-84v-1454h-244v887q-160 20 -243.5 121.5t-83.5 265.5z" />
<glyph unicode="&#xb7;" horiz-adv-x="491" d="M94 438v213l303 64v-277h-303z" />
<glyph unicode="&#xb8;" horiz-adv-x="960" d="M272 0zM273 -250q92 -39 137 -39q23 0 37 12.5t14 32.5q0 23 -13 35t-36 12q-25 0 -53 -8l-47 64l28 155l156 -14v-66q90 -10 140.5 -55t50.5 -115q0 -90 -68 -147t-174 -57q-78 -1 -146 24z" />
<glyph unicode="&#xb9;" horiz-adv-x="559" d="M152 403v852l256 50v-902h-256z" />
<glyph unicode="&#xba;" horiz-adv-x="684" d="M55 1130q0 135 78 217.5t209 82.5t209 -82t78 -218q0 -135 -78 -217t-209 -82t-209 82t-78 217zM281 1130q0 -152 61 -151q61 -1 61 151t-61 152t-61 -152z" />
<glyph unicode="&#xbb;" horiz-adv-x="1140" d="M94 225l271 273l-271 272l154 176l360 -399v-98l-360 -400zM545 225l270 273l-270 272l153 176l361 -399v-98l-361 -400z" />
<glyph unicode="&#xbc;" horiz-adv-x="1908" d="M270 403v852l256 50v-902h-256zM481 -31l514 1309h234l-514 -1309h-234zM1022 174v90l213 606h233l-178 -510h96v127l226 64v-191h108l-49 -186h-59v-174h-226v174h-364z" />
<glyph unicode="&#xbd;" horiz-adv-x="1908" d="M270 0zM271 403v852l256 50v-902h-256zM481 -31l515 1309h233l-514 -1309h-234zM1092 86l248 407q35 57 48 90t13 62q0 37 -20.5 58.5t-59.5 21.5q-78 0 -182 -78l-14 174q47 35 114.5 56.5t139.5 21.5q119 0 199.5 -67.5t80.5 -170.5q0 -49 -24.5 -101t-102.5 -169 l-137 -205h287l-43 -186h-543z" />
<glyph unicode="&#xbe;" horiz-adv-x="1908" d="M133 1098l45 186h496v-90l-158 -240q94 -27 150.5 -91t56.5 -173q0 -86 -41 -155.5t-115.5 -109.5t-175.5 -40q-65 0 -133 16.5t-115 42.5l13 183q74 -37 117.5 -52.5t86.5 -15.5q106 0 107 131q0 63 -25.5 99t-70.5 36q-29 0 -58 -12l-61 76l137 209h-256zM567 -31 l514 1309h234l-514 -1309h-234zM1108 174v90l213 606h233l-178 -510h97v127l225 64v-191h108l-49 -186h-59v-174h-225v174h-365z" />
<glyph unicode="&#xbf;" horiz-adv-x="862" d="M16 0zM17 0q0 94 36.5 168t135.5 166l74 70q39 37 51 64.5t12 86.5v82h303v-104q0 -94 -26.5 -146.5t-112.5 -134.5l-66 -61q-47 -47 -66.5 -84t-19.5 -82q0 -61 39 -98t105 -37q111 0 256 90l18 -244q-78 -35 -161 -53.5t-156 -18.5q-213 0 -328 109q-94 90 -94 227z M326 699v276h303v-213z" />
<glyph unicode="&#xc0;" horiz-adv-x="1114" d="M-2 0l377 1251l323 47l418 -1298h-328l-81 291h-338l-80 -291h-291zM0 0zM282 1591l134 226l407 -314l-102 -149zM432 522h211l-6 23q-70 246 -98 377h-7q-31 -152 -94 -377z" />
<glyph unicode="&#xc1;" horiz-adv-x="1114" d="M-2 0l377 1251l323 47l418 -1298h-328l-81 291h-338l-80 -291h-291zM0 0zM286 1503l408 314l133 -226l-438 -237zM432 522h211l-6 23q-70 246 -98 377h-7q-31 -152 -94 -377z" />
<glyph unicode="&#xc2;" horiz-adv-x="1114" d="M-2 0l377 1251l323 47l418 -1298h-328l-81 291h-338l-80 -291h-291zM0 0zM211 1505l241 252h209l242 -252l-141 -137l-207 174l-201 -174zM432 522h211l-6 23q-70 246 -98 377h-7q-31 -152 -94 -377z" />
<glyph unicode="&#xc3;" horiz-adv-x="1114" d="M-2 0l377 1251l323 47l418 -1298h-328l-81 291h-338l-80 -291h-291zM0 0zM202 1507q23 74 84.5 126.5t143.5 52.5q41 0 73.5 -11.5t79.5 -34.5q49 -29 78 -28q29 0 48.5 19.5t39.5 64.5l162 -137q-23 -74 -84 -126.5t-143 -52.5q-41 0 -74 11.5t-80 33.5q-49 29 -78 29 t-48 -19.5t-40 -64.5zM432 522h211l-6 23q-70 246 -98 377h-7q-31 -152 -94 -377z" />
<glyph unicode="&#xc4;" horiz-adv-x="1114" d="M-2 0l377 1251l323 47l418 -1298h-328l-81 291h-338l-80 -291h-291zM0 0zM248 1382v246h276v-246h-276zM432 522h211l-6 23q-70 246 -98 377h-7q-31 -152 -94 -377zM587 1382v246h277v-246h-277z" />
<glyph unicode="&#xc5;" horiz-adv-x="1114" d="M-2 0l377 1251l323 47l418 -1298h-328l-81 291h-338l-80 -291h-291zM0 0zM326 1581q0 94 66.5 154.5t164.5 60.5t165 -60.5t67 -154.5t-66.5 -154.5t-165.5 -60.5q-98 0 -164.5 60.5t-66.5 154.5zM432 522h211l-6 23q-70 246 -98 377h-7q-31 -152 -94 -377zM494 1581 q0 -33 17.5 -53.5t45.5 -20.5q29 0 46.5 20.5t17.5 53.5t-17.5 53.5t-46.5 20.5t-46 -20.5t-17 -53.5z" />
<glyph unicode="&#xc6;" horiz-adv-x="1566" d="M33 0l551 1284h915l-65 -242h-404v-292h383l-51 -242h-332v-266h492l-52 -242h-757v303h-258l-123 -303h-299zM551 539h162v438q-41 -152 -121 -340z" />
<glyph unicode="&#xc7;" horiz-adv-x="1048" d="M57 0zM57 643q0 201 74 351.5t206 233.5t302 83q164 0 334 -76l-17 -258q-80 45 -144 65.5t-132 20.5q-139 0 -212 -108.5t-73 -295.5q0 -211 75 -322.5t212 -111.5q135 0 297 101l20 -246q-74 -45 -176 -74t-205 -29q-176 0 -303 83t-192.5 233.5t-65.5 349.5zM457 -250 q92 -39 137 -39q23 0 37 12.5t14 32.5q0 23 -13 35t-36 12q-25 0 -53 -8l-47 64l28 155l156 -14v-66q90 -10 140.5 -55t50.5 -115q0 -90 -68 -147t-174 -57q-78 -1 -146 24z" />
<glyph unicode="&#xc8;" horiz-adv-x="968" d="M115 0v1284h786l-65 -242h-404v-292h383l-51 -242h-332v-266h492l-52 -242h-757zM115 0zM270 1591l134 226l407 -314l-102 -149z" />
<glyph unicode="&#xc9;" horiz-adv-x="968" d="M115 0v1284h786l-65 -242h-404v-292h383l-51 -242h-332v-266h492l-52 -242h-757zM115 0zM274 1503l408 314l133 -226l-438 -237z" />
<glyph unicode="&#xca;" horiz-adv-x="968" d="M115 0v1284h786l-65 -242h-404v-292h383l-51 -242h-332v-266h492l-52 -242h-757zM115 0zM179 1505l241 252h209l242 -252l-141 -137l-207 174l-201 -174z" />
<glyph unicode="&#xcb;" horiz-adv-x="968" d="M115 0v1284h786l-65 -242h-404v-292h383l-51 -242h-332v-266h492l-52 -242h-757zM115 0zM216 1382v246h276v-246h-276zM555 1382v246h277v-246h-277z" />
<glyph unicode="&#xcc;" horiz-adv-x="555" d="M4 0zM4 1591l134 226l407 -314l-102 -149zM119 0v1284h317v-1284h-317z" />
<glyph unicode="&#xcd;" horiz-adv-x="555" d="M8 0zM8 1503l408 314l133 -226l-438 -237zM119 0v1284h317v-1284h-317z" />
<glyph unicode="&#xce;" horiz-adv-x="555" d="M-67 1505l241 252h209l242 -252l-141 -137l-207 174l-201 -174zM0 0zM119 0v1284h317v-1284h-317z" />
<glyph unicode="&#xcf;" horiz-adv-x="555" d="M-30 1382v246h276v-246h-276zM0 0zM119 0v1284h317v-1284h-317zM309 1382v246h277v-246h-277z" />
<glyph unicode="&#xd0;" horiz-adv-x="1214" d="M16 518v223h117v543h318q193 0 327.5 -43t227.5 -139q152 -162 151 -459q0 -152 -46 -272.5t-132 -206.5q-86 -84 -201.5 -124t-269.5 -40h-375v518h-117zM451 242h41q84 0 139 17t96 58q94 94 94 332q0 205 -84 305q-41 49 -101.5 68.5t-146.5 19.5h-38v-301h172v-223 h-172v-276z" />
<glyph unicode="&#xd1;" horiz-adv-x="1214" d="M115 0v1284h231l332 -522q102 -160 141 -244h6v766h275v-1284h-242l-323 489q-96 147 -142 242h-6v-731h-272zM115 0zM254 1507q23 74 84.5 126.5t143.5 52.5q41 0 73.5 -11.5t79.5 -34.5q49 -29 78 -28q29 0 48.5 19.5t39.5 64.5l162 -137q-23 -74 -84 -126.5 t-143 -52.5q-41 0 -74 11.5t-80 33.5q-49 29 -78 29t-48 -19.5t-40 -64.5z" />
<glyph unicode="&#xd2;" horiz-adv-x="1214" d="M57 0zM57 643q0 188 63.5 340t187.5 240t298 88t299 -88t188.5 -240t63.5 -340t-63.5 -338.5t-188.5 -239t-299 -88.5t-298 88.5t-187.5 239t-63.5 338.5zM354 1591l134 226l407 -314l-102 -149zM395 643q0 -418 211 -418q109 0 161 107.5t52 310.5t-52 311.5t-161 108.5 q-211 0 -211 -420z" />
<glyph unicode="&#xd3;" horiz-adv-x="1214" d="M57 0zM57 643q0 188 63.5 340t187.5 240t298 88t299 -88t188.5 -240t63.5 -340t-63.5 -338.5t-188.5 -239t-299 -88.5t-298 88.5t-187.5 239t-63.5 338.5zM317 1503l408 314l133 -226l-438 -237zM395 643q0 -418 211 -418q109 0 161 107.5t52 310.5t-52 311.5t-161 108.5 q-211 0 -211 -420z" />
<glyph unicode="&#xd4;" horiz-adv-x="1214" d="M57 0zM57 643q0 188 63.5 340t187.5 240t298 88t299 -88t188.5 -240t63.5 -340t-63.5 -338.5t-188.5 -239t-299 -88.5t-298 88.5t-187.5 239t-63.5 338.5zM263 1505l241 252h209l242 -252l-141 -137l-207 174l-201 -174zM395 643q0 -418 211 -418q109 0 161 107.5 t52 310.5t-52 311.5t-161 108.5q-211 0 -211 -420z" />
<glyph unicode="&#xd5;" horiz-adv-x="1214" d="M57 0zM57 643q0 188 63.5 340t187.5 240t298 88t299 -88t188.5 -240t63.5 -340t-63.5 -338.5t-188.5 -239t-299 -88.5t-298 88.5t-187.5 239t-63.5 338.5zM254 1507q23 74 84.5 126.5t143.5 52.5q41 0 73.5 -11.5t79.5 -34.5q49 -29 78 -28q29 0 48.5 19.5t39.5 64.5 l162 -137q-23 -74 -84 -126.5t-143 -52.5q-41 0 -74 11.5t-80 33.5q-49 29 -78 29t-48 -19.5t-40 -64.5zM395 643q0 -418 211 -418q109 0 161 107.5t52 310.5t-52 311.5t-161 108.5q-211 0 -211 -420z" />
<glyph unicode="&#xd6;" horiz-adv-x="1214" d="M57 0zM57 643q0 188 63.5 340t187.5 240t298 88t299 -88t188.5 -240t63.5 -340t-63.5 -338.5t-188.5 -239t-299 -88.5t-298 88.5t-187.5 239t-63.5 338.5zM299 1382v246h276v-246h-276zM395 643q0 -418 211 -418q109 0 161 107.5t52 310.5t-52 311.5t-161 108.5 q-211 0 -211 -420zM638 1382v246h277v-246h-277z" />
<glyph unicode="&#xd7;" d="M131 369l209 211l-209 211l164 163l211 -209l211 209l164 -163l-209 -211l209 -211l-164 -164l-211 209l-211 -209z" />
<glyph unicode="&#xd8;" horiz-adv-x="1214" d="M57 643q0 188 63.5 340t187.5 240t298 88q92 0 174 -29l51 135h152l-76 -198q121 -84 185.5 -236t64.5 -340t-63.5 -338.5t-188.5 -239t-299 -88.5q-82 0 -160 23l-55 -147h-149l77 204q-129 82 -195.5 237t-66.5 349zM395 643q0 -180 39 -283l256 680q-39 23 -84 23 q-211 0 -211 -420zM537 240q29 -14 69 -15q109 0 161 107.5t52 310.5q0 158 -33 256z" />
<glyph unicode="&#xd9;" horiz-adv-x="1173" d="M98 0zM98 473v811h318v-811q0 -139 47 -194q45 -55 133 -56q88 0 133 56q47 55 47 194v811h299v-790q0 -268 -133 -396q-127 -121 -358 -121q-224 0 -351 117q-135 123 -135 379zM295 1591l134 226l407 -314l-102 -149z" />
<glyph unicode="&#xda;" horiz-adv-x="1173" d="M98 0zM98 473v811h318v-811q0 -139 47 -194q45 -55 133 -56q88 0 133 56q47 55 47 194v811h299v-790q0 -268 -133 -396q-127 -121 -358 -121q-224 0 -351 117q-135 123 -135 379zM356 1503l408 314l133 -226l-438 -237z" />
<glyph unicode="&#xdb;" horiz-adv-x="1173" d="M98 0zM98 473v811h318v-811q0 -139 47 -194q45 -55 133 -56q88 0 133 56q47 55 47 194v811h299v-790q0 -268 -133 -396q-127 -121 -358 -121q-224 0 -351 117q-135 123 -135 379zM250 1505l241 252h209l242 -252l-141 -137l-207 174l-201 -174z" />
<glyph unicode="&#xdc;" horiz-adv-x="1173" d="M98 0zM98 473v811h318v-811q0 -139 47 -194q45 -55 133 -56q88 0 133 56q47 55 47 194v811h299v-790q0 -268 -133 -396q-127 -121 -358 -121q-224 0 -351 117q-135 123 -135 379zM287 1382v246h276v-246h-276zM626 1382v246h277v-246h-277z" />
<glyph unicode="&#xdd;" horiz-adv-x="1007" d="M-20 1284h331l97 -240q72 -178 106 -307h8q33 123 107 305l98 242h301l-362 -778v-506h-318v506zM0 0zM276 1503l408 314l133 -226l-438 -237z" />
<glyph unicode="&#xde;" horiz-adv-x="1062" d="M115 0v1284h317v-217h37q285 0 416 -121q117 -109 116 -297q0 -190 -120 -305q-129 -123 -369 -123h-80v-221h-317zM432 457h57q100 0 144 49q41 47 41 137q0 96 -45 141q-41 41 -135 41h-62v-368z" />
<glyph unicode="&#xdf;" horiz-adv-x="1153" d="M94 0v848q0 217 125 338q129 125 338 125q172 0 282.5 -80t110.5 -211q0 -55 -22.5 -94t-65.5 -86q-31 -31 -47 -55.5t-16 -53.5q0 -37 23.5 -65.5t95.5 -83.5q100 -80 141 -144.5t41 -156.5q0 -133 -94.5 -218.5t-241.5 -85.5q-146 1 -287 64l15 211q131 -74 227 -74 q45 0 70.5 18.5t25.5 53.5q0 33 -21.5 60.5t-80.5 74.5q-104 80 -150.5 141.5t-46.5 141.5q0 55 22.5 95t67.5 93q39 47 56.5 77t17.5 66q0 51 -34 81t-85 30q-70 0 -110 -45q-53 -59 -54 -207v-858h-303z" />
<glyph unicode="&#xe0;" horiz-adv-x="966" d="M51 0zM51 281q0 166 143.5 254t380.5 100q0 68 -36 108q-37 41 -121 41q-121 0 -268 -79l-23 217q186 72 348 71q205 0 307 -104q96 -100 97 -287v-602h-187l-51 111q-45 -61 -116.5 -97.5t-159.5 -36.5q-86 0 -158 38t-114 108t-42 158zM239 1284l134 225l407 -313 l-102 -149zM354 305q0 -51 28 -84t75 -33q57 0 88 43t30 134v100q-221 -12 -221 -160z" />
<glyph unicode="&#xe1;" horiz-adv-x="966" d="M51 0zM51 281q0 166 143.5 254t380.5 100q0 68 -36 108q-37 41 -121 41q-121 0 -268 -79l-23 217q186 72 348 71q205 0 307 -104q96 -100 97 -287v-602h-187l-51 111q-45 -61 -116.5 -97.5t-159.5 -36.5q-86 0 -158 38t-114 108t-42 158zM223 1196l408 313l133 -225 l-438 -237zM354 305q0 -51 28 -84t75 -33q57 0 88 43t30 134v100q-221 -12 -221 -160z" />
<glyph unicode="&#xe2;" horiz-adv-x="966" d="M51 0zM51 281q0 166 143.5 254t380.5 100q0 68 -36 108q-37 41 -121 41q-121 0 -268 -79l-23 217q186 72 348 71q205 0 307 -104q96 -100 97 -287v-602h-187l-51 111q-45 -61 -116.5 -97.5t-159.5 -36.5q-86 0 -158 38t-114 108t-42 158zM148 1184l241 252h209l242 -252 l-141 -137l-207 174l-201 -174zM354 305q0 -51 28 -84t75 -33q57 0 88 43t30 134v100q-221 -12 -221 -160z" />
<glyph unicode="&#xe3;" horiz-adv-x="966" d="M51 0zM51 281q0 166 143.5 254t380.5 100q0 68 -36 108q-37 41 -121 41q-121 0 -268 -79l-23 217q186 72 348 71q205 0 307 -104q96 -100 97 -287v-602h-187l-51 111q-45 -61 -116.5 -97.5t-159.5 -36.5q-86 0 -158 38t-114 108t-42 158zM139 1200q23 74 84.5 126 t143.5 52q41 0 73.5 -11t79.5 -34q49 -29 78 -28q29 0 48.5 19t39.5 65l162 -138q-23 -74 -84 -126t-143 -52q-41 0 -74 11.5t-80 33.5q-49 29 -78 29t-48 -19.5t-40 -64.5zM354 305q0 -51 28 -84t75 -33q57 0 88 43t30 134v100q-221 -12 -221 -160z" />
<glyph unicode="&#xe4;" horiz-adv-x="966" d="M51 0zM51 281q0 166 143.5 254t380.5 100q0 68 -36 108q-37 41 -121 41q-121 0 -268 -79l-23 217q186 72 348 71q205 0 307 -104q96 -100 97 -287v-602h-187l-51 111q-45 -61 -116.5 -97.5t-159.5 -36.5q-86 0 -158 38t-114 108t-42 158zM164 1075v246h277v-246h-277z M354 305q0 -51 28 -84t75 -33q57 0 88 43t30 134v100q-221 -12 -221 -160zM545 1075v246h276v-246h-276z" />
<glyph unicode="&#xe5;" horiz-adv-x="966" d="M51 0zM51 281q0 166 143.5 254t380.5 100q0 68 -36 108q-37 41 -121 41q-121 0 -268 -79l-23 217q186 72 348 71q205 0 307 -104q96 -100 97 -287v-602h-187l-51 111q-45 -61 -116.5 -97.5t-159.5 -36.5q-86 0 -158 38t-114 108t-42 158zM262 1274q0 94 66.5 154.5 t164.5 60.5t165 -60.5t67 -154.5t-66.5 -154.5t-165.5 -60.5q-98 0 -164.5 60.5t-66.5 154.5zM354 305q0 -51 28 -84t75 -33q57 0 88 43t30 134v100q-221 -12 -221 -160zM430 1274q0 -33 17.5 -53.5t45.5 -20.5q29 0 46.5 20.5t17.5 53.5t-17.5 53.5t-46.5 20.5t-46 -20.5 t-17 -53.5z" />
<glyph unicode="&#xe6;" horiz-adv-x="1478" d="M51 279q0 168 148.5 248.5t375.5 80.5q0 39 -10 78t-26 57q-37 41 -121 41q-121 0 -268 -79l-23 217q186 72 348 71q180 0 283 -84q113 84 262 84q193 0 299 -124t106 -326q0 -53 -10 -129h-516q10 -106 64 -166q55 -59 159 -60q117 0 250 78l27 -205q-68 -39 -157 -61.5 t-177 -22.5q-102 0 -204.5 36t-158.5 108q-47 -66 -132 -105t-171 -39q-157 0 -252.5 84t-95.5 218zM354 295q0 -47 28 -77t75 -30q57 0 88 43t30 134v61q-104 0 -162.5 -28.5t-58.5 -102.5zM901 604h223q-4 90 -30.5 142.5t-79.5 52.5q-51 0 -80 -52.5t-33 -142.5z" />
<glyph unicode="&#xe7;" horiz-adv-x="856" d="M49 0zM49 477q0 150 55.5 266.5t161 183t254.5 66.5q143 0 285 -65l-21 -219q-121 74 -211 73q-102 0 -153 -80.5t-51 -218.5q0 -139 53 -216t153 -77q96 0 216 68l24 -207q-152 -74 -303 -74q-145 0 -249.5 64.5t-159 178.5t-54.5 257zM338 -250q92 -39 137 -39 q23 0 37 12.5t14 32.5q0 23 -13 35t-36 12q-25 0 -53 -8l-47 64l28 155l156 -14v-66q90 -10 140.5 -55t50.5 -115q0 -90 -68 -147t-174 -57q-78 -1 -146 24z" />
<glyph unicode="&#xe8;" horiz-adv-x="950" d="M49 0zM49 500q0 145 56.5 257.5t156.5 174t230 61.5q193 0 299 -124t106 -326q0 -53 -10 -129h-516q10 -106 63 -166q55 -59 160 -60q117 0 250 78l26 -205q-68 -39 -156.5 -61.5t-176.5 -22.5q-226 1 -353 134q-135 141 -135 389zM239 1284l134 225l407 -313l-102 -149z M373 604h223q-4 90 -30.5 142.5t-80.5 52.5q-51 0 -79.5 -52.5t-32.5 -142.5z" />
<glyph unicode="&#xe9;" horiz-adv-x="950" d="M49 0zM49 500q0 145 56.5 257.5t156.5 174t230 61.5q193 0 299 -124t106 -326q0 -53 -10 -129h-516q10 -106 63 -166q55 -59 160 -60q117 0 250 78l26 -205q-68 -39 -156.5 -61.5t-176.5 -22.5q-226 1 -353 134q-135 141 -135 389zM223 1196l408 313l133 -225l-438 -237z M373 604h223q-4 90 -30.5 142.5t-80.5 52.5q-51 0 -79.5 -52.5t-32.5 -142.5z" />
<glyph unicode="&#xea;" horiz-adv-x="950" d="M49 0zM49 500q0 145 56.5 257.5t156.5 174t230 61.5q193 0 299 -124t106 -326q0 -53 -10 -129h-516q10 -106 63 -166q55 -59 160 -60q117 0 250 78l26 -205q-68 -39 -156.5 -61.5t-176.5 -22.5q-226 1 -353 134q-135 141 -135 389zM148 1184l241 252h209l242 -252 l-141 -137l-207 174l-201 -174zM373 604h223q-4 90 -30.5 142.5t-80.5 52.5q-51 0 -79.5 -52.5t-32.5 -142.5z" />
<glyph unicode="&#xeb;" horiz-adv-x="950" d="M49 0zM49 500q0 145 56.5 257.5t156.5 174t230 61.5q193 0 299 -124t106 -326q0 -53 -10 -129h-516q10 -106 63 -166q55 -59 160 -60q117 0 250 78l26 -205q-68 -39 -156.5 -61.5t-176.5 -22.5q-226 1 -353 134q-135 141 -135 389zM164 1075v246h277v-246h-277zM373 604 h223q-4 90 -30.5 142.5t-80.5 52.5q-51 0 -79.5 -52.5t-32.5 -142.5zM545 1075v246h276v-246h-276z" />
<glyph unicode="&#xec;" horiz-adv-x="499" d="M-25 1284l134 225l407 -313l-102 -149zM0 0zM98 0v975h303v-975h-303z" />
<glyph unicode="&#xed;" horiz-adv-x="499" d="M0 0zM0 1196l408 313l133 -225l-438 -237zM98 0v975h303v-975h-303z" />
<glyph unicode="&#xee;" horiz-adv-x="499" d="M-96 1184l241 252h209l242 -252l-141 -137l-207 174l-201 -174zM0 0zM98 0v975h303v-975h-303z" />
<glyph unicode="&#xef;" horiz-adv-x="499" d="M-80 1075v246h277v-246h-277zM0 0zM98 0v975h303v-975h-303zM301 1075v246h276v-246h-276z" />
<glyph unicode="&#xf0;" horiz-adv-x="1026" d="M57 444q0 137 50.5 236.5t137.5 152t195 52.5q47 0 98.5 -12.5t84.5 -30.5q0 94 -82 166l-29 -70l-170 70l39 92q-53 20 -139 35l43 174q98 -4 176 -21l63 148l170 -70l-61 -143q150 -82 234.5 -231.5t84.5 -354.5q0 -309 -117.5 -484.5t-351.5 -175.5q-196 0 -311 127 t-115 340zM375 440q0 -117 33.5 -183.5t87.5 -66.5q77 0 108 109t31 336q-70 41 -119 41q-72 0 -106.5 -63.5t-34.5 -172.5z" />
<glyph unicode="&#xf1;" horiz-adv-x="1030" d="M94 0v975h182l56 -111q47 59 120.5 94t155.5 35q78 0 141.5 -26.5t106.5 -75.5q86 -98 86 -281v-610h-303v610q0 88 -27 127q-31 43 -86 43q-29 0 -53 -12t-41 -33q-20 -25 -27.5 -62.5t-7.5 -103.5v-569h-303zM94 0zM200 1200q23 74 84.5 126t143.5 52q41 0 73.5 -11 t79.5 -34q49 -29 78 -28q29 0 48.5 19t39.5 65l162 -138q-23 -74 -84 -126t-143 -52q-41 0 -74 11.5t-80 33.5q-49 29 -78 29t-48 -19.5t-40 -64.5z" />
<glyph unicode="&#xf2;" horiz-adv-x="1019" d="M49 0zM49 485q0 141 54.5 257t159 183.5t247.5 67.5t247.5 -67.5t159 -183t54.5 -257.5q0 -141 -54.5 -256.5t-159 -183.5t-247.5 -68t-247.5 68t-159 183.5t-54.5 256.5zM256 1284l134 225l407 -313l-102 -149zM369 485q0 -150 36.5 -228.5t104.5 -78.5t104.5 79 t36.5 228q0 150 -36.5 229t-104.5 79t-104.5 -79t-36.5 -229z" />
<glyph unicode="&#xf3;" horiz-adv-x="1019" d="M49 0zM49 485q0 141 54.5 257t159 183.5t247.5 67.5t247.5 -67.5t159 -183t54.5 -257.5q0 -141 -54.5 -256.5t-159 -183.5t-247.5 -68t-247.5 68t-159 183.5t-54.5 256.5zM239 1196l408 313l133 -225l-438 -237zM369 485q0 -150 36.5 -228.5t104.5 -78.5t104.5 79 t36.5 228q0 150 -36.5 229t-104.5 79t-104.5 -79t-36.5 -229z" />
<glyph unicode="&#xf4;" horiz-adv-x="1019" d="M49 0zM49 485q0 141 54.5 257t159 183.5t247.5 67.5t247.5 -67.5t159 -183t54.5 -257.5q0 -141 -54.5 -256.5t-159 -183.5t-247.5 -68t-247.5 68t-159 183.5t-54.5 256.5zM164 1184l241 252h209l242 -252l-141 -137l-207 174l-201 -174zM369 485q0 -150 36.5 -228.5 t104.5 -78.5t104.5 79t36.5 228q0 150 -36.5 229t-104.5 79t-104.5 -79t-36.5 -229z" />
<glyph unicode="&#xf5;" horiz-adv-x="1019" d="M49 0zM49 485q0 141 54.5 257t159 183.5t247.5 67.5t247.5 -67.5t159 -183t54.5 -257.5q0 -141 -54.5 -256.5t-159 -183.5t-247.5 -68t-247.5 68t-159 183.5t-54.5 256.5zM155 1200q23 74 84.5 126t143.5 52q41 0 73.5 -11t79.5 -34q49 -29 78 -28q29 0 48.5 19t39.5 65 l162 -138q-23 -74 -84 -126t-143 -52q-41 0 -74 11.5t-80 33.5q-49 29 -78 29t-48 -19.5t-40 -64.5zM369 485q0 -150 36.5 -228.5t104.5 -78.5t104.5 79t36.5 228q0 150 -36.5 229t-104.5 79t-104.5 -79t-36.5 -229z" />
<glyph unicode="&#xf6;" horiz-adv-x="1019" d="M49 0zM49 485q0 141 54.5 257t159 183.5t247.5 67.5t247.5 -67.5t159 -183t54.5 -257.5q0 -141 -54.5 -256.5t-159 -183.5t-247.5 -68t-247.5 68t-159 183.5t-54.5 256.5zM180 1075v246h277v-246h-277zM369 485q0 -150 36.5 -228.5t104.5 -78.5t104.5 79t36.5 228 q0 150 -36.5 229t-104.5 79t-104.5 -79t-36.5 -229zM561 1075v246h276v-246h-276z" />
<glyph unicode="&#xf7;" d="M92 463v233h828v-233h-828zM369 70v249h274v-249h-274zM369 840v250h274v-250h-274z" />
<glyph unicode="&#xf8;" horiz-adv-x="1019" d="M49 485q0 141 54.5 257t159 183.5t247.5 67.5q53 0 117 -14l39 106h139l-57 -155q109 -63 166 -181t57 -264q0 -141 -54.5 -256.5t-159 -183.5t-247.5 -68q-51 0 -107 11l-30 -86h-142l48 131q-111 63 -170.5 183t-59.5 269zM369 485q0 -104 14 -168l172 465 q-18 10 -45 11q-68 0 -104.5 -79t-36.5 -229zM475 184q16 -6 35 -6q68 0 104.5 79t36.5 228q0 84 -12 146z" />
<glyph unicode="&#xf9;" d="M88 0zM88 356v619h303v-621q0 -49 4 -73.5t17 -47.5q27 -43 84 -43q29 0 53 12.5t37 33.5q16 27 22 61.5t6 97.5v580h304v-975h-183l-55 111q-45 -59 -115.5 -96.5t-152.5 -37.5q-74 0 -139.5 27t-104.5 74q-43 51 -61.5 116.5t-18.5 161.5zM211 1284l134 225l407 -313 l-102 -149z" />
<glyph unicode="&#xfa;" d="M88 0zM88 356v619h303v-621q0 -49 4 -73.5t17 -47.5q27 -43 84 -43q29 0 53 12.5t37 33.5q16 27 22 61.5t6 97.5v580h304v-975h-183l-55 111q-45 -59 -115.5 -96.5t-152.5 -37.5q-74 0 -139.5 27t-104.5 74q-43 51 -61.5 116.5t-18.5 161.5zM276 1196l408 313l133 -225 l-438 -237z" />
<glyph unicode="&#xfb;" d="M88 0zM88 356v619h303v-621q0 -49 4 -73.5t17 -47.5q27 -43 84 -43q29 0 53 12.5t37 33.5q16 27 22 61.5t6 97.5v580h304v-975h-183l-55 111q-45 -59 -115.5 -96.5t-152.5 -37.5q-74 0 -139.5 27t-104.5 74q-43 51 -61.5 116.5t-18.5 161.5zM160 1184l241 252h209 l242 -252l-141 -137l-207 174l-201 -174z" />
<glyph unicode="&#xfc;" d="M88 0zM88 356v619h303v-621q0 -49 4 -73.5t17 -47.5q27 -43 84 -43q29 0 53 12.5t37 33.5q16 27 22 61.5t6 97.5v580h304v-975h-183l-55 111q-45 -59 -115.5 -96.5t-152.5 -37.5q-74 0 -139.5 27t-104.5 74q-43 51 -61.5 116.5t-18.5 161.5zM176 1075v246h277v-246h-277z M557 1075v246h276v-246h-276z" />
<glyph unicode="&#xfd;" horiz-adv-x="903" d="M-6 975h321l158 -617h8l146 617h282l-291 -922q-47 -145 -86.5 -224t-91.5 -130q-45 -45 -108.5 -69.5t-134.5 -24.5q-45 0 -72 6l-53 211h26q57 0 93 10t61 35q39 39 78 158zM0 0zM202 1196l408 313l133 -225l-438 -237z" />
<glyph unicode="&#xfe;" horiz-adv-x="1013" d="M94 -367v1614l303 64v-381q88 63 197 63q111 0 194.5 -61.5t130 -173t46.5 -260.5q0 -109 -23.5 -203t-69.5 -164q-45 -72 -118.5 -113t-157.5 -41q-106 0 -199 74v-418h-303zM397 242q16 -23 49 -40.5t64 -17.5q65 1 98 64q37 74 37 241q0 297 -131 297q-61 0 -92 -53 q-25 -43 -25 -127v-364z" />
<glyph unicode="&#xff;" horiz-adv-x="903" d="M-6 975h321l158 -617h8l146 617h282l-291 -922q-47 -145 -86.5 -224t-91.5 -130q-45 -45 -108.5 -69.5t-134.5 -24.5q-45 0 -72 6l-53 211h26q57 0 93 10t61 35q39 39 78 158zM0 0zM143 1075v246h277v-246h-277zM524 1075v246h276v-246h-276z" />
<glyph unicode="&#x152;" horiz-adv-x="1673" d="M57 643q0 197 60.5 347.5t174.5 235.5t269 85q156 0 258 -109v82h787l-66 -242h-403v-292h383l-52 -242h-331v-266h491l-51 -242h-758v84q-102 -109 -258 -109q-155 0 -269 85t-174.5 235.5t-60.5 347.5zM395 643q0 -418 211 -418t211 418q0 420 -211 420t-211 -420z" />
<glyph unicode="&#x153;" horiz-adv-x="1556" d="M49 485q0 141 54.5 257t159 183.5t247.5 67.5q176 0 299 -106q119 106 289 106q193 0 299 -124t106 -326q0 -53 -10 -129h-516q10 -106 63 -166q55 -59 160 -60q117 0 250 78l27 -205q-68 -39 -157 -61.5t-177 -22.5q-203 0 -330 111q-121 -111 -303 -111 q-143 0 -247.5 68t-159 183.5t-54.5 256.5zM369 485q0 -150 36.5 -228.5t104.5 -78.5t104.5 79t36.5 228q0 150 -36.5 229t-104.5 79t-104.5 -79t-36.5 -229zM979 604h223q-4 90 -30.5 142.5t-79.5 52.5q-51 0 -80 -52.5t-33 -142.5z" />
<glyph unicode="&#x178;" horiz-adv-x="1007" d="M-20 1284h331l97 -240q72 -178 106 -307h8q33 123 107 305l98 242h301l-362 -778v-506h-318v506zM0 0zM203 1382v246h276v-246h-276zM542 1382v246h277v-246h-277z" />
<glyph unicode="&#x2c6;" horiz-adv-x="960" d="M133 1047zM134 1184l241 252h209l242 -252l-141 -137l-207 174l-201 -174z" />
<glyph unicode="&#x2dc;" horiz-adv-x="960" d="M125 1063zM125 1200q23 74 84.5 126t143.5 52q41 0 73.5 -11t79.5 -34q49 -29 78 -28q29 0 48.5 19t39.5 65l162 -138q-23 -74 -84 -126t-143 -52q-41 0 -74 11.5t-80 33.5q-49 29 -78 29t-48 -19.5t-40 -64.5z" />
<glyph unicode="&#x2000;" horiz-adv-x="908" />
<glyph unicode="&#x2001;" horiz-adv-x="1817" />
<glyph unicode="&#x2002;" horiz-adv-x="908" />
<glyph unicode="&#x2003;" horiz-adv-x="1817" />
<glyph unicode="&#x2004;" horiz-adv-x="605" />
<glyph unicode="&#x2005;" horiz-adv-x="454" />
<glyph unicode="&#x2006;" horiz-adv-x="302" />
<glyph unicode="&#x2007;" horiz-adv-x="302" />
<glyph unicode="&#x2008;" horiz-adv-x="227" />
<glyph unicode="&#x2009;" horiz-adv-x="363" />
<glyph unicode="&#x200a;" horiz-adv-x="100" />
<glyph unicode="&#x2010;" horiz-adv-x="659" d="M86 438v232h487v-232h-487z" />
<glyph unicode="&#x2011;" horiz-adv-x="659" d="M86 438v232h487v-232h-487z" />
<glyph unicode="&#x2012;" horiz-adv-x="659" d="M86 438v232h487v-232h-487z" />
<glyph unicode="&#x2013;" horiz-adv-x="1048" d="M37 438v232h975v-232h-975z" />
<glyph unicode="&#x2014;" horiz-adv-x="2072" d="M37 438v232h1999v-232h-1999z" />
<glyph unicode="&#x2018;" horiz-adv-x="475" d="M86 768v238l133 278h170v-516h-303z" />
<glyph unicode="&#x2019;" horiz-adv-x="475" d="M86 768v516h303v-237l-133 -279h-170z" />
<glyph unicode="&#x201a;" horiz-adv-x="475" d="M86 160h303v-238l-133 -278h-170v516z" />
<glyph unicode="&#x201c;" horiz-adv-x="851" d="M86 768v238l133 278h170v-516h-303zM463 768v238l133 278h170v-516h-303z" />
<glyph unicode="&#x201d;" horiz-adv-x="851" d="M86 768v516h303v-237l-133 -279h-170zM463 768v516h303v-237l-133 -279h-170z" />
<glyph unicode="&#x201e;" horiz-adv-x="851" d="M86 160h303v-238l-133 -278h-170v516zM463 160h303v-238l-133 -278h-170v516z" />
<glyph unicode="&#x2022;" horiz-adv-x="786" d="M115 578q0 80 36.5 144t100 102t141.5 38t141.5 -38t100.5 -102.5t37 -143.5q0 -80 -37 -144.5t-100.5 -102.5t-141.5 -38t-141.5 38t-100 102.5t-36.5 144.5z" />
<glyph unicode="&#x2026;" horiz-adv-x="1425" d="M94 0v213l303 63v-276h-303zM561 0v213l303 63v-276h-303zM1028 0v213l303 63v-276h-303z" />
<glyph unicode="&#x202f;" horiz-adv-x="363" />
<glyph unicode="&#x2039;" horiz-adv-x="690" d="M82 449v98l360 399l154 -176l-270 -272l270 -273l-154 -176z" />
<glyph unicode="&#x203a;" horiz-adv-x="690" d="M94 225l271 273l-271 272l154 176l360 -399v-98l-360 -400z" />
<glyph unicode="&#x205f;" horiz-adv-x="454" />
<glyph unicode="&#x20ac;" d="M35 451v127h117v110l-117 39v127h137q43 213 170 335t317 122q70 0 145 -18.5t142 -51.5l-16 -250q-125 72 -221 72q-156 0 -201 -209h364l-49 -182h-334v-94h312l-49 -183h-234q51 -170 199 -170q111 0 237 86l21 -245q-74 -41 -158 -65t-164 -24q-202 0 -323 112 t-160 319z" />
<glyph unicode="&#x2122;" horiz-adv-x="1253" d="M20 1071l17 160h500l-17 -160h-127v-430h-215v430h-158zM565 641l21 590h176l121 -258l114 258h181l22 -590h-184l-6 262l-68 -184h-129l-68 182l-6 -260h-174z" />
<glyph unicode="&#x25fc;" horiz-adv-x="972" d="M0 0v973h973v-973h-973z" />
</font>
</defs>
</svg>
