<svg width="298" height="161" viewBox="0 0 298 161" fill="none" xmlns="http://www.w3.org/2000/svg">
<path d="M82.9645 36.8266C89.5947 34.6723 93.2231 27.5511 91.0689 20.9209C88.9146 14.2907 81.7934 10.6623 75.1632 12.8166C68.533 14.9708 64.9046 22.092 67.0589 28.7222C69.2131 35.3524 76.3343 38.9808 82.9645 36.8266Z" fill="url(#paint0_radial)"/>
<g style="mix-blend-mode:multiply">
<path fill-rule="evenodd" clip-rule="evenodd" d="M88.2505 33.4819C87.1157 34.3725 85.8079 35.0825 84.356 35.5543C77.7258 37.7085 70.6046 34.0801 68.4503 27.4499C66.9748 22.9087 68.2122 18.137 71.2688 14.8889C67.2213 18.0659 65.3763 23.5438 67.0589 28.7222C69.2132 35.3524 76.3343 38.9807 82.9645 36.8264C85.0534 36.1477 86.8445 34.9761 88.2505 33.4819Z" fill="#00004B" fill-opacity="0.16"/>
</g>
<path d="M79.7405 18.2069C80.31 17.4938 81.9659 16.2671 84.1377 17.9099C83.3548 17.5907 81.3793 17.2032 79.7405 18.2069Z" fill="#00004B"/>
<path d="M80.3675 23.1554C81.009 21.3674 83.2774 21.3127 85.5171 21.7765C85.0033 20.964 84.4736 20.4071 83.9568 20.056C81.6708 18.5028 79.6385 20.9763 80.3675 23.1554Z" fill="#00004B"/>
<path d="M74.5295 19.9001C73.6496 19.6579 71.5889 19.6388 70.7975 22.2444C71.2432 21.526 72.6137 20.0513 74.5295 19.9001Z" fill="#00004B"/>
<path d="M76.9309 24.272C75.361 23.2026 73.4936 24.4916 71.9543 26.1833C71.8923 25.224 71.9936 24.4621 72.2053 23.8743C73.1417 21.274 76.2398 22.0806 76.9309 24.272Z" fill="#00004B"/>
<path fill-rule="evenodd" clip-rule="evenodd" d="M75.0386 29.041C75.2305 28.8888 75.5092 28.9349 75.6612 29.1441C76.7737 30.6759 78.837 31.0929 80.6187 30.5625C82.3919 30.0346 83.8006 28.5857 84.1685 26.3038C84.2093 26.0508 84.4381 25.8888 84.6794 25.9423C84.9208 25.9957 85.0834 26.2441 85.0425 26.4972C84.6124 29.1651 82.9551 30.8498 80.9099 31.4587C78.8731 32.0651 76.3655 31.622 74.9661 29.6953C74.8142 29.4861 74.8466 29.1932 75.0386 29.041Z" fill="#00004B"/>
<path d="M75.6338 14.3665C77.2007 13.8574 78.071 12.2142 77.5778 10.6962C77.0846 9.17824 75.4146 8.3604 73.8477 8.86951C72.2809 9.37861 71.4105 11.0219 71.9037 12.5398C72.3969 14.0578 74.067 14.8756 75.6338 14.3665Z" fill="url(#paint1_radial)"/>
<path d="M74.3737 10.7179C68.0543 12.7712 64.4932 19.2426 66.4199 25.1721C73.8636 18.2001 78.9442 16.7622 89.3043 17.7365C87.3777 11.8069 80.693 8.66462 74.3737 10.7179Z" fill="url(#paint2_radial)"/>
<path d="M66.7457 27.4358C65.8414 27.0659 65.7745 21.8998 66.0298 21.6122C73.1472 13.5919 83.2988 13.6229 87.4849 14.641C88.6635 15.4196 90.8512 19.4375 90.5149 20.0445C79.0744 17.6558 69.9019 23.9767 66.7457 27.4358Z" fill="#6C6A63" fill-opacity="0.16"/>
<path d="M66.5629 26.873C65.6585 26.5032 65.5917 21.3371 65.8469 21.0495C72.9643 13.0292 83.1159 13.0602 87.3021 14.0783C88.4806 14.8568 90.6683 18.8748 90.332 19.4818C78.8916 17.0931 69.7191 23.414 66.5629 26.873Z" fill="url(#paint3_radial)"/>
<path fill-rule="evenodd" clip-rule="evenodd" d="M77.5616 16.0617L77.9375 17.2185C78.065 17.6109 77.7744 18.5234 76.9651 19.3318L75.9086 16.0804L77.5616 16.0617ZM74.5604 17.0369L74.9363 18.1938C75.0638 18.5862 75.8352 19.1537 76.9651 19.3319L75.9087 16.0805L74.5604 17.0369Z" fill="#00004B"/>
<path d="M65.8469 21.0494C72.9643 13.0291 83.1159 13.0602 87.3021 14.0782" stroke="white" stroke-opacity="0.2" stroke-width="0.701267"/>
<path d="M39.7959 109.809C48.5942 111.203 56.8562 105.2 58.2497 96.402C59.6432 87.6038 53.6405 79.3418 44.8423 77.9483C36.044 76.5548 27.782 82.5575 26.3885 91.3557C24.995 100.154 30.9977 108.416 39.7959 109.809Z" fill="url(#paint4_radial)"/>
<g style="mix-blend-mode:multiply">
<path fill-rule="evenodd" clip-rule="evenodd" d="M47.7543 109.068C45.9456 109.424 44.0448 109.473 42.1182 109.168C33.32 107.775 27.3173 99.5126 28.7108 90.7144C29.6653 84.6882 33.842 79.9735 39.2062 78.0485C32.7551 79.3177 27.4769 84.4841 26.3886 91.3558C24.995 100.154 30.9978 108.416 39.796 109.809C42.568 110.248 45.2867 109.953 47.7543 109.068Z" fill="#00004B" fill-opacity="0.16"/>
</g>
<path d="M40.8069 101.656C37.3812 101.113 34.775 98.3453 34.4046 94.9548L34.3334 94.3032L49.2354 96.6635L48.9665 97.2611C47.5668 100.371 44.2329 102.198 40.8069 101.656Z" fill="#00004B"/>
<mask id="mask0" mask-type="alpha" maskUnits="userSpaceOnUse" x="35" y="95" width="13" height="6">
<path fill-rule="evenodd" clip-rule="evenodd" d="M41.0149 100.508C38.1749 100.058 36.0959 98.0268 35.6877 95.699L47.5672 97.5805C46.4597 99.6683 43.8548 100.957 41.0149 100.508Z" fill="white"/>
</mask>
<g mask="url(#mask0)">
<path d="M40.2941 104.894C41.7071 105.118 43.0356 104.144 43.2613 102.719C43.487 101.294 42.5245 99.9571 41.1114 99.7333C39.6983 99.5095 38.3698 100.483 38.1441 101.908C37.9184 103.333 38.881 104.67 40.2941 104.894Z" fill="#F55B58"/>
<rect x="34.6591" y="91.5107" width="16.1317" height="4.7187" transform="rotate(9 34.6591 91.5107)" fill="white"/>
</g>
<path d="M34.0648 84.9808C34.8461 83.9693 37.0485 82.5702 39.6088 85.0682C38.6605 84.5862 36.2242 83.8943 34.0648 84.9808Z" fill="#00004B"/>
<path d="M33.6144 90.9625C33.2928 87.6427 38.7485 85.0855 40.0245 90.7876C38.3328 88.3649 35.7847 88.2204 33.6144 90.9625Z" fill="#00004B"/>
<path d="M46.9635 86.3306C48.0035 85.5879 50.5163 84.8852 52.2445 88.0166C51.4765 87.2811 49.3443 85.9145 46.9635 86.3306Z" fill="#00004B"/>
<path d="M44.7189 91.5289C45.4157 88.3773 50.6062 87.375 50.7933 93.3886C49.4952 90.9319 47.1678 89.5619 44.7189 91.5289Z" fill="#00004B"/>
<rect x="24.8452" y="74.562" width="38.0136" height="6.91132" rx="3.45566" transform="rotate(9 24.8452 74.562)" fill="#383838" fill-opacity="0.15"/>
<rect x="24.0775" y="72.8162" width="42.0659" height="8.01255" rx="4.00628" transform="rotate(9 24.0775 72.8162)" fill="#F59B05"/>
<rect x="32.5884" y="74.1642" width="8.26293" height="8.01255" transform="rotate(9 32.5884 74.1642)" fill="#711533"/>
<rect x="48.7546" y="76.7247" width="8.26293" height="8.01255" transform="rotate(9 48.7546 76.7247)" fill="#711533"/>
<path d="M65.6972 89.4058L64.9208 81.5669C64.3213 84.139 61.9589 85.0987 60.3376 86.8424C59.0404 88.2372 58.4603 91.2126 58.2561 92.7044L62.9612 96.9743C63.3291 94.6511 64.6381 91.2385 65.6972 89.4058Z" fill="#383838" fill-opacity="0.15"/>
<path d="M65.869 89.9402L65.0927 82.1009C64.4931 84.6734 62.1308 85.6328 60.5094 87.3764C59.2122 88.7712 58.6318 91.7469 58.4276 93.2384L63.1327 97.5083C63.5006 95.1851 64.81 91.7725 65.869 89.9402Z" fill="#711533"/>
<path d="M59.8237 84.9567C57.406 84.5737 55.7529 82.3256 56.1315 79.9354C56.5101 77.5452 58.7769 75.9179 61.1946 76.3008C63.6124 76.6838 65.2654 78.9319 64.8869 81.3221C64.5083 83.7124 62.2414 85.3396 59.8237 84.9567Z" fill="#D08A01"/>
<mask id="mask1" mask-type="alpha" maskUnits="userSpaceOnUse" x="55" y="75" width="11" height="11">
<path fill-rule="evenodd" clip-rule="evenodd" d="M59.8237 84.9567C57.406 84.5737 55.7529 82.3256 56.1315 79.9354C56.5101 77.5452 58.7769 75.9179 61.1947 76.3008C63.6124 76.6838 65.2654 78.9319 64.8869 81.3221C64.5083 83.7124 62.2414 85.3396 59.8237 84.9567Z" fill="white"/>
</mask>
<g mask="url(#mask1)">
<path d="M61.446 84.1574C59.0283 83.7744 57.3752 81.5263 57.7538 79.1361C58.1324 76.7458 60.3992 75.1186 62.817 75.5015C65.2347 75.8845 66.8877 78.1326 66.5092 80.5228C66.1306 82.913 63.8637 84.5403 61.446 84.1574Z" fill="#FFD847"/>
</g>
<path d="M20.9383 82.3166L24.0766 75.0978C23.8498 77.7289 25.7756 79.3678 26.7638 81.5248C27.5548 83.2503 27.1856 86.2592 26.9192 87.7412L21.1849 90.3576C21.5528 88.0344 21.3707 84.3856 20.9383 82.3166Z" fill="#383838" fill-opacity="0.15"/>
<path d="M20.6125 82.7722L23.7509 75.5531C23.5244 78.1846 25.4499 79.8231 26.4381 81.9801C27.2291 83.7056 26.8602 86.7148 26.5939 88.1965L20.8592 90.8128C21.2272 88.4897 21.0449 84.8412 20.6125 82.7722Z" fill="#711533"/>
<path d="M27.8263 79.8887C30.2165 80.2673 32.4611 78.6365 32.8397 76.2463C33.2182 73.856 31.5875 71.6115 29.1972 71.2329C26.807 70.8543 24.5624 72.4851 24.1839 74.8753C23.8053 77.2656 25.436 79.5101 27.8263 79.8887Z" fill="#D08A01"/>
<mask id="mask2" mask-type="alpha" maskUnits="userSpaceOnUse" x="23" y="70" width="11" height="11">
<path fill-rule="evenodd" clip-rule="evenodd" d="M27.8263 79.8887C30.2165 80.2673 32.4611 78.6365 32.8397 76.2463C33.2182 73.856 31.5875 71.6115 29.1972 71.2329C26.807 70.8543 24.5624 72.4851 24.1839 74.8753C23.8053 77.2656 25.436 79.5101 27.8263 79.8887Z" fill="white"/>
</mask>
<g mask="url(#mask2)">
<path d="M26.5467 78.6298C28.937 79.0084 31.1816 77.3776 31.5601 74.9874C31.9387 72.5971 30.3079 70.3526 27.9177 69.974C25.5275 69.5954 23.2829 71.2262 22.9043 73.6164C22.5257 76.0067 24.1565 78.2512 26.5467 78.6298Z" fill="#FFD847"/>
</g>
<path d="M16.4418 53.8505C21.4276 53.1497 24.9015 48.5398 24.2007 43.5539C23.5 38.568 18.8901 35.0942 13.9042 35.795C8.91833 36.4957 5.44451 41.1056 6.14523 46.0915C6.84595 51.0774 11.4559 54.5512 16.4418 53.8505Z" fill="url(#paint5_radial)"/>
<g style="mix-blend-mode:multiply">
<path fill-rule="evenodd" clip-rule="evenodd" d="M20.6208 52.1345C19.702 52.6257 18.6828 52.9666 17.591 53.1201C12.6051 53.8208 7.9952 50.347 7.29448 45.3611C6.81454 41.9461 8.29301 38.7074 10.8744 36.7805C7.59716 38.5326 5.59796 42.1974 6.14524 46.0915C6.84597 51.0774 11.4559 54.5511 16.4418 53.8504C18.0126 53.6296 19.4334 53.0209 20.6208 52.1345Z" fill="#00004B" fill-opacity="0.16"/>
</g>
<path d="M15.6408 49.276C13.6995 49.5489 11.8334 48.4836 11.0729 46.7121L10.9268 46.3717L19.3716 45.1849L19.325 45.5523C19.0824 47.4648 17.5823 49.0032 15.6408 49.276Z" fill="#00004B"/>
<mask id="mask3" mask-type="alpha" maskUnits="userSpaceOnUse" x="11" y="45" width="8" height="4">
<path fill-rule="evenodd" clip-rule="evenodd" d="M15.5635 48.6212C13.9541 48.8474 12.4947 48.0931 11.8894 46.9023L18.6214 45.9562C18.3678 47.2677 17.1729 48.395 15.5635 48.6212Z" fill="white"/>
</mask>
<g mask="url(#mask3)">
<path d="M15.8987 51.111C16.6994 50.9985 17.2566 50.2526 17.1431 49.4451C17.0296 48.6375 16.2884 48.0741 15.4877 48.1867C14.6869 48.2992 14.1297 49.0451 14.2432 49.8526C14.3567 50.6602 15.0979 51.2236 15.8987 51.111Z" fill="#F55B58"/>
<rect x="10.6412" y="44.8085" width="9.1179" height="2.66709" transform="rotate(-8 10.6412 44.8085)" fill="white"/>
</g>
<path d="M9.24089 41.3771C9.49605 40.7013 10.4553 39.581 12.252 40.5082C11.6598 40.4043 10.2286 40.433 9.24089 41.3771Z" fill="#00004B"/>
<path d="M9.98602 44.6848C9.26357 42.9435 11.7899 40.6597 13.4219 43.531C12.1071 42.501 10.7059 42.844 9.98602 44.6848Z" fill="#00004B"/>
<path d="M16.4359 39.9752C16.8754 39.4018 18.1174 38.6068 19.5691 40.0138C19.0324 39.7432 17.654 39.3568 16.4359 39.9752Z" fill="#00004B"/>
<path d="M16.0818 43.1559C15.9376 41.3372 18.5775 39.9378 19.6724 43.1573C18.5648 42.0439 17.0804 41.688 16.0818 43.1559Z" fill="#00004B"/>
<rect x="2.53577" y="37.2692" width="21.486" height="3.9064" rx="1.9532" transform="rotate(-8 2.53577 37.2692)" fill="#383838" fill-opacity="0.15"/>
<rect x="1.8324" y="36.4523" width="23.7764" height="4.52883" rx="2.26442" transform="rotate(-8 1.8324 36.4523)" fill="white"/>
<rect x="6.65552" y="35.7745" width="4.67035" height="4.52883" transform="rotate(-8 6.65552 35.7745)" fill="#EE0208"/>
<rect x="15.8167" y="34.487" width="4.67035" height="4.52883" transform="rotate(-8 15.8167 34.487)" fill="#EE0208"/>
<path d="M27.0702 38.5415L25.3551 34.4328C25.4561 35.9221 24.3378 36.8313 23.7496 38.0417C23.2789 39.01 23.4571 40.7141 23.5932 41.5542L26.842 43.0846C26.657 41.7681 26.8006 39.7072 27.0702 38.5415Z" fill="#383838" fill-opacity="0.15"/>
<path d="M27.2513 38.802L25.5362 34.6931C25.6373 36.1826 24.5189 37.0916 23.9307 38.302C23.46 39.2703 23.638 40.9746 23.7741 41.8145L27.0229 43.345C26.8379 42.0284 26.9817 39.9675 27.2513 38.802Z" fill="#EE0208"/>
<path d="M23.1601 37.1074C21.79 37.2999 20.525 36.358 20.3346 35.0034C20.1443 33.6489 21.1006 32.3947 22.4707 32.2022C23.8408 32.0096 25.1059 32.9516 25.2962 34.3061C25.4866 35.6606 24.5302 36.9148 23.1601 37.1074Z" fill="#D08A01"/>
<mask id="mask4" mask-type="alpha" maskUnits="userSpaceOnUse" x="20" y="32" width="6" height="6">
<path fill-rule="evenodd" clip-rule="evenodd" d="M23.1601 37.1073C21.79 37.2999 20.525 36.3579 20.3346 35.0034C20.1443 33.6488 21.1006 32.3947 22.4707 32.2021C23.8408 32.0096 25.1059 32.9515 25.2962 34.3061C25.4866 35.6606 24.5302 36.9148 23.1601 37.1073Z" fill="white"/>
</mask>
<g mask="url(#mask4)">
<path d="M23.9049 36.4072C22.5348 36.5997 21.2698 35.6578 21.0794 34.3032C20.8891 32.9487 21.8454 31.6945 23.2155 31.502C24.5857 31.3094 25.8507 32.2514 26.041 33.6059C26.2314 34.9605 25.275 36.2146 23.9049 36.4072Z" fill="#FFD847"/>
</g>
<path d="M1.70556 42.1063L2.20897 37.6858C2.52119 39.1454 3.83292 39.713 4.72354 40.7156C5.43623 41.5176 5.73388 43.2049 5.8348 44.05L3.16766 46.4118C2.98264 45.0953 2.28119 43.1532 1.70556 42.1063Z" fill="#383838" fill-opacity="0.15"/>
<path d="M1.60476 42.4064L2.10814 37.9856C2.42059 39.4455 3.73209 40.0129 4.62271 41.0155C5.3354 41.8175 5.63328 43.505 5.73418 44.3498L3.06683 46.7117C2.88181 45.3952 2.18039 43.4532 1.60476 42.4064Z" fill="#EE0208"/>
<path d="M5.02736 39.6557C6.38189 39.4654 7.32563 38.213 7.13527 36.8584C6.9449 35.5039 5.69251 34.5602 4.33798 34.7505C2.98344 34.9409 2.0397 36.1933 2.23007 37.5478C2.42043 38.9023 3.67282 39.8461 5.02736 39.6557Z" fill="#D08A01"/>
<mask id="mask5" mask-type="alpha" maskUnits="userSpaceOnUse" x="1" y="34" width="7" height="7">
<path fill-rule="evenodd" clip-rule="evenodd" d="M5.02736 39.6557C6.38189 39.4654 7.32563 38.213 7.13527 36.8584C6.9449 35.5039 5.69251 34.5602 4.33798 34.7505C2.98344 34.9409 2.0397 36.1933 2.23007 37.5478C2.42043 38.9023 3.67282 39.8461 5.02736 39.6557Z" fill="white"/>
</mask>
<g mask="url(#mask5)">
<path d="M4.12776 39.1867C5.48229 38.9963 6.42604 37.7439 6.23567 36.3894C6.0453 35.0348 4.79291 34.0911 3.43838 34.2815C2.08385 34.4718 1.1401 35.7242 1.33047 37.0788C1.52084 38.4333 2.77323 39.377 4.12776 39.1867Z" fill="#FFD847"/>
</g>
<path d="M213.753 46.23C221.289 48.081 228.899 43.4723 230.75 35.936C232.601 28.3998 227.992 20.7899 220.456 18.9389C212.92 17.0879 205.31 21.6967 203.459 29.2329C201.608 36.7691 206.217 44.379 213.753 46.23Z" fill="url(#paint6_radial)"/>
<g style="mix-blend-mode:multiply">
<path fill-rule="evenodd" clip-rule="evenodd" d="M220.716 46.1663C219.12 46.3433 217.466 46.2479 215.815 45.8426C208.279 43.9916 203.67 36.3817 205.522 28.8454C206.789 23.6836 210.759 19.8951 215.556 18.6151C209.863 19.2466 204.904 23.3469 203.459 29.2329C201.608 36.7692 206.217 44.3789 213.753 46.2299C216.127 46.8131 218.509 46.7553 220.716 46.1663Z" fill="#00004B" fill-opacity="0.16"/>
</g>
<mask id="mask6" mask-type="alpha" maskUnits="userSpaceOnUse" x="213" y="33" width="6" height="8">
<path fill-rule="evenodd" clip-rule="evenodd" d="M215.019 40.7818C216.147 41.0589 217.436 39.7592 217.898 37.8788C218.36 35.9984 217.82 34.2494 216.691 33.9723C215.563 33.6952 214.274 34.9949 213.812 36.8753C213.35 38.7557 213.891 40.5047 215.019 40.7818Z" fill="white"/>
</mask>
<g mask="url(#mask6)">
<path d="M215.027 40.7836C216.614 41.1735 218.348 39.6721 218.898 37.4301C219.449 35.1881 218.608 33.0545 217.021 32.6646C215.433 32.2747 213.7 33.7761 213.149 36.0181C212.599 38.2601 213.439 40.3937 215.027 40.7836Z" fill="#00004B"/>
<path d="M214.22 44.4177C215.807 44.8077 217.41 43.8398 217.799 42.2559C218.188 40.672 217.216 39.072 215.629 38.682C214.041 38.2921 212.439 39.26 212.05 40.8439C211.661 42.4277 212.632 44.0278 214.22 44.4177Z" fill="#D13A37"/>
</g>
<path d="M211.572 24.4496C212.168 23.8154 214.075 22.5766 216.22 23.3975C216.17 22.5002 213.127 21.6619 211.572 24.4496Z" fill="#00004B"/>
<path d="M213.405 30.8185C214.392 31.061 215.459 30.1741 215.787 28.8375C216.115 27.501 215.581 26.2209 214.594 25.9785C213.607 25.736 212.54 26.6229 212.212 27.9595C211.884 29.296 212.418 30.5761 213.405 30.8185Z" fill="#00004B"/>
<path d="M225.991 27.9485C225.757 27.1105 224.64 25.1289 222.359 24.8626C222.819 24.0907 225.904 24.7575 225.991 27.9485Z" fill="#00004B"/>
<path d="M221.416 32.7436C220.429 32.5012 219.894 31.2211 220.223 29.8846C220.551 28.548 221.617 27.6611 222.605 27.9036C223.592 28.146 224.126 29.4261 223.798 30.7626C223.469 32.0992 222.403 32.9861 221.416 32.7436Z" fill="#00004B"/>
<rect width="6.15996" height="4.58276" transform="matrix(-0.924162 -0.382001 -0.382 0.924162 234.402 34.7802)" fill="#383838" fill-opacity="0.15"/>
<rect width="0.176842" height="8.13468" transform="matrix(-0.924162 -0.382 -0.382001 0.924162 228.87 32.4111)" fill="#383838" fill-opacity="0.15"/>
<rect width="6.15996" height="4.58276" transform="matrix(-0.924162 -0.382001 -0.382 0.924162 234.143 34.0824)" fill="#034694"/>
<rect width="0.176841" height="8.13468" transform="matrix(-0.924162 -0.382001 -0.382 0.924162 228.611 31.7136)" fill="#EEEEEE"/>
<path d="M223.423 46.358C221.308 46.2656 219.668 44.476 219.761 42.3609C219.853 40.2457 221.643 38.606 223.758 38.6984C225.873 38.7908 227.513 40.5804 227.42 42.6955C227.328 44.8107 225.538 46.4504 223.423 46.358Z" fill="#D08A01"/>
<mask id="mask7" mask-type="alpha" maskUnits="userSpaceOnUse" x="219" y="38" width="9" height="9">
<path fill-rule="evenodd" clip-rule="evenodd" d="M223.423 46.358C221.308 46.2656 219.668 44.476 219.761 42.3609C219.853 40.2457 221.643 38.606 223.758 38.6984C225.873 38.7908 227.513 40.5804 227.42 42.6955C227.328 44.8107 225.538 46.4504 223.423 46.358Z" fill="white"/>
</mask>
<g mask="url(#mask7)">
<path d="M224.74 45.502C222.624 45.4096 220.985 43.62 221.077 41.5049C221.169 39.3897 222.959 37.75 225.074 37.8424C227.189 37.9348 228.829 39.7244 228.737 41.8395C228.644 43.9546 226.855 45.5944 224.74 45.502Z" fill="#FFD847"/>
</g>
<rect x="202.071" y="26.5612" width="6.15996" height="4.58276" transform="rotate(5.14144 202.071 26.5612)" fill="#383838" fill-opacity="0.15"/>
<rect x="208.071" y="27.025" width="0.176841" height="8.13468" transform="rotate(5.14143 208.071 27.025)" fill="#383838" fill-opacity="0.15"/>
<rect x="201.749" y="26.0298" width="6.15996" height="4.58276" transform="rotate(5.14145 201.749 26.0298)" fill="#034694"/>
<rect x="207.749" y="26.4936" width="0.176841" height="8.13468" transform="rotate(5.14143 207.749 26.4936)" fill="#EEEEEE"/>
<path d="M205.562 41.8752C207.479 42.7733 209.761 41.947 210.659 40.0297C211.557 38.1125 210.731 35.8302 208.814 34.9322C206.897 34.0342 204.614 34.8605 203.716 36.7777C202.818 38.695 203.645 40.9772 205.562 41.8752Z" fill="#D08A01"/>
<mask id="mask8" mask-type="alpha" maskUnits="userSpaceOnUse" x="203" y="34" width="9" height="9">
<path fill-rule="evenodd" clip-rule="evenodd" d="M205.562 41.8752C207.479 42.7733 209.761 41.947 210.659 40.0297C211.557 38.1125 210.731 35.8302 208.814 34.9322C206.897 34.0342 204.614 34.8605 203.716 36.7777C202.818 38.695 203.645 40.9772 205.562 41.8752Z" fill="white"/>
</mask>
<g mask="url(#mask8)">
<path d="M204.792 40.5066C206.709 41.4046 208.992 40.5783 209.89 38.6611C210.788 36.7438 209.961 34.4616 208.044 33.5636C206.127 32.6655 203.845 33.4918 202.947 35.4091C202.049 37.3263 202.875 39.6086 204.792 40.5066Z" fill="#FFD847"/>
</g>
<path d="M275.58 53.176C280.651 55.0045 286.244 52.376 288.072 47.3051C289.901 42.2342 287.272 36.6411 282.201 34.8127C277.13 32.9842 271.537 35.6127 269.709 40.6836C267.88 45.7545 270.509 51.3476 275.58 53.176Z" fill="url(#paint7_radial)"/>
<g style="mix-blend-mode:multiply">
<path fill-rule="evenodd" clip-rule="evenodd" d="M280.394 53.6399C279.278 53.6457 278.143 53.4592 277.033 53.0588C271.962 51.2303 269.333 45.6373 271.162 40.5664C272.414 37.0931 275.432 34.7657 278.84 34.2314C274.861 34.2524 271.137 36.723 269.708 40.6836C267.88 45.7545 270.508 51.3474 275.579 53.1759C277.177 53.7519 278.826 53.8857 280.394 53.6399Z" fill="#00004B" fill-opacity="0.16"/>
</g>
<path d="M282.44 40.2754C283.126 40.1099 284.719 40.1459 285.267 42.1792C284.94 41.613 283.917 40.4395 282.44 40.2754Z" fill="#00004B"/>
<path d="M280.477 43.5949C281.716 42.8071 283.128 43.8494 284.276 45.1948C284.347 44.4549 284.288 43.8636 284.139 43.4041C283.479 41.3715 281.065 41.9184 280.477 43.5949Z" fill="#00004B"/>
<path d="M278.455 38.8383C278.032 38.2731 276.783 37.2842 275.064 38.5002C275.677 38.2729 277.213 38.0221 278.455 38.8383Z" fill="#00004B"/>
<path d="M277.848 42.6471C277.396 41.2495 275.645 41.1512 273.902 41.4544C274.319 40.8391 274.743 40.4218 275.151 40.1632C276.956 39.0193 278.465 40.981 277.848 42.6471Z" fill="#00004B"/>
<path fill-rule="evenodd" clip-rule="evenodd" d="M274.431 44.6623C274.62 44.6604 274.768 44.8207 274.762 45.0205C274.715 46.4837 275.777 47.7168 277.117 48.2378C278.45 48.7562 279.998 48.5394 281.305 47.3203C281.45 47.185 281.666 47.1946 281.788 47.3417C281.91 47.4888 281.892 47.7176 281.747 47.8528C280.219 49.2783 278.408 49.5212 276.87 48.9232C275.338 48.3277 274.017 46.8679 274.076 45.0276C274.083 44.8278 274.241 44.6642 274.431 44.6623Z" fill="#00004B"/>
<path d="M281.753 35.9824C282.952 36.4145 284.262 35.8236 284.681 34.6626C285.1 33.5017 284.468 32.2102 283.269 31.7781C282.071 31.346 280.76 31.9369 280.341 33.0978C279.923 34.2588 280.555 35.5503 281.753 35.9824Z" fill="url(#paint8_radial)"/>
<path d="M282.714 33.1564C277.881 31.4137 272.637 33.6773 271.002 38.2123C278.854 37.4842 282.639 39.0154 288.504 44.5234C290.139 39.9883 287.547 34.8992 282.714 33.1564Z" fill="url(#paint9_radial)"/>
<path d="M270.128 39.7494C269.751 39.0947 272.16 35.9078 272.452 35.8532C280.602 34.3301 286.788 39.1632 288.861 41.7701C289.212 42.8045 288.643 46.2958 288.149 46.5071C282.295 39.6229 273.696 39.1336 270.128 39.7494Z" fill="#6C6A63" fill-opacity="0.16"/>
<path d="M270.283 39.319C269.906 38.6642 272.315 35.4774 272.607 35.4228C280.757 33.8997 286.943 38.7327 289.016 41.3397C289.367 42.374 288.798 45.8654 288.304 46.0767C282.45 39.1925 273.851 38.7031 270.283 39.319Z" fill="url(#paint10_radial)"/>
<path fill-rule="evenodd" clip-rule="evenodd" d="M282.127 37.932L281.808 38.8167C281.7 39.1168 281.089 39.5363 280.212 39.6462L281.108 37.1594L282.127 37.932ZM279.831 37.1043L279.512 37.9891C279.404 38.2892 279.606 39.0016 280.212 39.6463L281.108 37.1595L279.831 37.1043Z" fill="#00004B"/>
<path d="M142.195 127.692C161.754 127.692 177.609 111.836 177.609 92.2777C177.609 72.7191 161.754 56.8637 142.195 56.8637C122.637 56.8637 106.781 72.7191 106.781 92.2777C106.781 111.836 122.637 127.692 142.195 127.692Z" fill="url(#paint11_radial)"/>
<g style="mix-blend-mode:multiply">
<path fill-rule="evenodd" clip-rule="evenodd" d="M159.199 123.35C155.399 124.743 151.294 125.503 147.011 125.503C127.452 125.503 111.597 109.648 111.597 90.0892C111.597 76.6929 119.035 65.0338 130.007 59.0168C116.453 63.985 106.781 77.0019 106.781 92.2777C106.781 111.836 122.637 127.691 142.195 127.691C148.357 127.691 154.152 126.118 159.199 123.35Z" fill="#00004B" fill-opacity="0.16"/>
</g>
<path d="M141.587 109.662C133.972 109.662 127.369 104.555 125.401 97.3294L125.023 95.9409H158.151L157.773 97.3293C155.806 104.555 149.203 109.662 141.587 109.662Z" fill="#00004B"/>
<mask id="mask9" mask-type="alpha" maskUnits="userSpaceOnUse" x="128" y="98" width="27" height="10">
<path fill-rule="evenodd" clip-rule="evenodd" d="M141.644 107.101C135.33 107.101 130.124 103.411 128.439 98.5026H154.848C153.163 103.411 147.957 107.101 141.644 107.101Z" fill="white"/>
</mask>
<g mask="url(#mask9)">
<path d="M141.587 116.86C144.728 116.86 147.275 114.292 147.275 111.124C147.275 107.957 144.728 105.389 141.587 105.389C138.446 105.389 135.899 107.957 135.899 111.124C135.899 114.292 138.446 116.86 141.587 116.86Z" fill="#F55B58"/>
<rect x="124.77" y="89.7732" width="35.4195" height="10.3606" fill="white"/>
</g>
<path d="M121.238 75.8162C122.585 73.3543 126.881 69.5637 133.291 74.1016C131.069 73.382 125.548 72.7184 121.238 75.8162Z" fill="#00004B"/>
<path d="M122.316 88.9431C120.479 81.8541 131.432 74.4346 136.157 86.3621C131.657 81.6892 126.081 82.251 122.316 88.9431Z" fill="#00004B"/>
<path d="M149.675 74.3131C151.675 72.3452 156.883 69.9583 161.706 76.1556C159.788 74.8244 154.695 72.5929 149.675 74.3131Z" fill="#00004B"/>
<path d="M146.593 86.3573C147.021 79.2833 157.933 75.327 160.404 88.3039C156.745 83.422 151.228 81.2505 146.593 86.3573Z" fill="#00004B"/>
<rect x="97.666" y="56.3887" width="83.4647" height="15.1748" rx="7.58742" fill="#383838" fill-opacity="0.15"/>
<rect x="95.4015" y="52.8663" width="92.3621" height="17.5928" rx="8.79639" fill="#004D98"/>
<rect x="114.322" y="52.8663" width="18.1425" height="17.5928" fill="#A50044"/>
<rect x="150.259" y="52.8663" width="18.1425" height="17.5928" fill="#A50044"/>
<path d="M191.357 74.5474L186.981 57.8146C186.564 63.5984 181.771 66.4911 178.853 70.8294C176.519 74.2997 176.283 80.9515 176.353 84.2569L188.023 91.9005C188.023 86.7361 189.69 78.8857 191.357 74.5474Z" fill="#383838" fill-opacity="0.15"/>
<path d="M191.913 75.6473L187.537 58.9137C187.12 64.6983 182.327 67.5902 179.41 71.9285C177.076 75.3988 176.839 82.0514 176.908 85.356L188.579 92.9996C188.579 87.8352 190.246 79.9848 191.913 75.6473Z" fill="#A50044"/>
<path d="M177.091 66.9164C171.717 66.9164 167.36 62.6089 167.36 57.2954C167.36 51.9818 171.717 47.6743 177.091 47.6743C182.466 47.6743 186.823 51.9818 186.823 57.2954C186.823 62.6089 182.466 66.9164 177.091 66.9164Z" fill="#D08A01"/>
<mask id="mask10" mask-type="alpha" maskUnits="userSpaceOnUse" x="167" y="47" width="20" height="20">
<path fill-rule="evenodd" clip-rule="evenodd" d="M177.091 66.9164C171.717 66.9164 167.36 62.6089 167.36 57.2954C167.36 51.9818 171.717 47.6743 177.091 47.6743C182.466 47.6743 186.823 51.9818 186.823 57.2954C186.823 62.6089 182.466 66.9164 177.091 66.9164Z" fill="white"/>
</mask>
<g mask="url(#mask10)">
<path d="M180.335 64.6257C174.961 64.6257 170.604 60.3183 170.604 55.0047C170.604 49.6912 174.961 45.3837 180.335 45.3837C185.71 45.3837 190.067 49.6912 190.067 55.0047C190.067 60.3183 185.71 64.6257 180.335 64.6257Z" fill="#FFD847"/>
</g>
<path d="M91.857 74.5474L96.1834 57.8146C96.5953 63.5984 101.334 66.4911 104.218 70.8294C106.526 74.2997 106.759 80.9515 106.691 84.2569L95.1537 91.9005C95.1537 86.7361 93.5053 78.8857 91.857 74.5474Z" fill="#383838" fill-opacity="0.15"/>
<path d="M91.307 75.6473L95.6334 58.9137C96.0461 64.6983 100.784 67.5902 103.668 71.9285C105.976 75.3988 106.21 82.0514 106.141 85.356L94.6037 92.9996C94.6037 87.8352 92.9554 79.9856 91.307 75.6473Z" fill="#A50044"/>
<path d="M105.961 66.9164C111.274 66.9164 115.582 62.6089 115.582 57.2954C115.582 51.9818 111.274 47.6743 105.961 47.6743C100.647 47.6743 96.3396 51.9818 96.3396 57.2954C96.3396 62.6089 100.647 66.9164 105.961 66.9164Z" fill="#D08A01"/>
<mask id="mask11" mask-type="alpha" maskUnits="userSpaceOnUse" x="96" y="47" width="20" height="20">
<path fill-rule="evenodd" clip-rule="evenodd" d="M105.961 66.9164C111.274 66.9164 115.582 62.6089 115.582 57.2954C115.582 51.9818 111.274 47.6743 105.961 47.6743C100.647 47.6743 96.3396 51.9818 96.3396 57.2954C96.3396 62.6089 100.647 66.9164 105.961 66.9164Z" fill="white"/>
</mask>
<g mask="url(#mask11)">
<path d="M102.753 64.6257C108.067 64.6257 112.374 60.3183 112.374 55.0047C112.374 49.6912 108.067 45.3837 102.753 45.3837C97.4396 45.3837 93.1321 49.6912 93.1321 55.0047C93.1321 60.3183 97.4396 64.6257 102.753 64.6257Z" fill="#FFD847"/>
</g>
<path d="M238.465 103.795C247.263 108.833 258.48 105.785 263.518 96.9868C268.556 88.1884 265.508 76.9718 256.709 71.9337C247.911 66.8956 236.694 69.9439 231.656 78.7422C226.618 87.5405 229.667 98.7572 238.465 103.795Z" fill="url(#paint12_radial)"/>
<g style="mix-blend-mode:multiply">
<path fill-rule="evenodd" clip-rule="evenodd" d="M247.232 106.222C245.164 105.87 243.121 105.154 241.195 104.051C232.396 99.0132 229.348 87.7965 234.386 78.9981C237.837 72.9719 244.186 69.6431 250.672 69.7627C243.295 68.5062 235.591 71.8704 231.656 78.7421C226.618 87.5405 229.666 98.757 238.465 103.795C241.237 105.382 244.249 106.167 247.232 106.222Z" fill="#00004B" fill-opacity="0.16"/>
</g>
<path d="M238.623 94.5995C242.153 96.4674 244.698 97.4333 246.651 97.4613C247.654 97.4758 248.168 96.9408 248.958 95.5602C249.116 95.2852 249.02 94.9347 248.746 94.7773C248.471 94.6198 248.12 94.7151 247.963 94.99C247.379 96.0099 247.081 96.3201 246.667 96.3141C244.954 96.2895 242.534 95.371 239.159 93.5854C238.879 93.4372 238.532 93.5441 238.384 93.8241C238.236 94.1042 238.343 94.4513 238.623 94.5995Z" fill="#00004B"/>
<path d="M238.353 80.0786C239.69 79.5289 243.409 78.9634 246.02 81.6674C246.582 80.2793 242.646 76.9353 238.353 80.0786Z" fill="#00004B"/>
<path d="M243.143 82.3144C244.865 83.2799 245.762 84.971 245.05 86.2156C244.337 87.4602 243.253 84.3604 243.253 84.3604C243.432 82.9384 240.344 81.5376 238.546 83.1896C239.363 81.7407 241.421 81.3489 243.143 82.3144Z" fill="#00004B"/>
<path d="M242.135 86.695C243.235 87.3248 244.573 87.0552 245.124 86.0929C245.675 85.1306 245.23 83.8399 244.131 83.2102C243.031 82.5804 241.693 82.85 241.142 83.8123C240.59 84.7746 241.035 86.0653 242.135 86.695Z" fill="#00004B"/>
<path d="M258.213 91.2293C258.029 89.796 256.68 86.2844 253.038 85.353C253.967 84.1783 258.82 85.9438 258.213 91.2293Z" fill="#00004B"/>
<path d="M254.48 89.1714C256.178 90.1247 257.057 91.806 256.345 93.0509C255.632 94.2957 254.577 91.2108 254.577 91.2108C254.762 89.792 251.714 88.4122 249.925 90.0692C250.742 88.6201 252.781 88.2181 254.48 89.1714Z" fill="#00004B"/>
<path d="M253.834 93.3942C254.934 94.024 256.24 93.8101 256.752 92.9165C257.264 92.023 256.787 90.7881 255.687 90.1583C254.587 89.5285 253.281 89.7424 252.769 90.636C252.258 91.5296 252.734 92.7645 253.834 93.3942Z" fill="#00004B"/>
<mask id="mask12" mask-type="alpha" maskUnits="userSpaceOnUse" x="215" y="85" width="47" height="37">
<path fill-rule="evenodd" clip-rule="evenodd" d="M236.153 111.539C245.462 105.572 254.069 105.12 260.3 109.388C249.152 98.0107 216.498 81.8333 224.185 88.7078C229.706 93.6443 234.509 101.022 236.153 111.539Z" fill="white"/>
</mask>
<g mask="url(#mask12)">
<path d="M241.666 97.9103L226.163 90.9699L233.487 115.338L241.666 97.9103Z" fill="#383838" fill-opacity="0.15"/>
<path d="M242.128 98.8204L226.625 91.8799L233.949 116.248L242.128 98.8204Z" fill="#EE0208"/>
<path d="M255.121 107.44L246.211 100.835L231.671 117.29L255.121 107.44Z" fill="#383838" fill-opacity="0.15"/>
<path d="M254.455 107.734L245.544 101.13L231.005 117.584L254.455 107.734Z" fill="#EE0208"/>
</g>
<g opacity="0.2">
<g opacity="0.3" filter="url(#filter0_f)">
<path fill-rule="evenodd" clip-rule="evenodd" d="M145 156.372C164.33 156.372 180 155.476 180 154.372C180 153.267 164.33 152.372 145 152.372C125.67 152.372 110 153.267 110 154.372C110 155.476 125.67 156.372 145 156.372Z" fill="#000533"/>
</g>
<g opacity="0.3" filter="url(#filter1_f)">
<path fill-rule="evenodd" clip-rule="evenodd" d="M145 156C157.15 156 167 155.105 167 154C167 152.895 157.15 152 145 152C132.85 152 123 152.895 123 154C123 155.105 132.85 156 145 156Z" fill="#000533"/>
</g>
</g>
<defs>
<filter id="filter0_f" x="106" y="148.372" width="78" height="12" filterUnits="userSpaceOnUse" color-interpolation-filters="sRGB">
<feFlood flood-opacity="0" result="BackgroundImageFix"/>
<feBlend mode="normal" in="SourceGraphic" in2="BackgroundImageFix" result="shape"/>
<feGaussianBlur stdDeviation="2" result="effect1_foregroundBlur"/>
</filter>
<filter id="filter1_f" x="120" y="149" width="50" height="10" filterUnits="userSpaceOnUse" color-interpolation-filters="sRGB">
<feFlood flood-opacity="0" result="BackgroundImageFix"/>
<feBlend mode="normal" in="SourceGraphic" in2="BackgroundImageFix" result="shape"/>
<feGaussianBlur stdDeviation="1.5" result="effect1_foregroundBlur"/>
</filter>
<radialGradient id="paint0_radial" cx="0" cy="0" r="1" gradientUnits="userSpaceOnUse" gradientTransform="translate(75.1632 12.8166) rotate(-18) scale(25.7387)">
<stop stop-color="#F9C700"/>
<stop offset="1" stop-color="#F79C01"/>
</radialGradient>
<radialGradient id="paint1_radial" cx="0" cy="0" r="1" gradientUnits="userSpaceOnUse" gradientTransform="translate(74.012 9.37494) rotate(72) scale(3.93831 4.06518)">
<stop stop-color="white"/>
<stop offset="1" stop-color="#D0D0D0"/>
</radialGradient>
<radialGradient id="paint2_radial" cx="0" cy="0" r="1" gradientUnits="userSpaceOnUse" gradientTransform="translate(74.6944 11.7051) rotate(72) scale(7.69202 16.3954)">
<stop stop-color="white"/>
<stop offset="1" stop-color="#D9D9D9"/>
</radialGradient>
<radialGradient id="paint3_radial" cx="0" cy="0" r="1" gradientUnits="userSpaceOnUse" gradientTransform="translate(76.1876 16.3008) rotate(72) scale(9.86158 27.441)">
<stop stop-color="white"/>
<stop offset="1" stop-color="#DBDBDB"/>
</radialGradient>
<radialGradient id="paint4_radial" cx="0" cy="0" r="1" gradientUnits="userSpaceOnUse" gradientTransform="translate(44.8423 77.9483) rotate(9) scale(32.8883)">
<stop stop-color="#F9C700"/>
<stop offset="1" stop-color="#F79C01"/>
</radialGradient>
<radialGradient id="paint5_radial" cx="0" cy="0" r="1" gradientUnits="userSpaceOnUse" gradientTransform="translate(13.9042 35.795) rotate(-8) scale(18.5891)">
<stop stop-color="#F9C700"/>
<stop offset="1" stop-color="#F79C01"/>
</radialGradient>
<radialGradient id="paint6_radial" cx="0" cy="0" r="1" gradientUnits="userSpaceOnUse" gradientTransform="translate(220.456 18.9389) rotate(13.7996) scale(28.6511)">
<stop stop-color="#F9C700"/>
<stop offset="1" stop-color="#F79C01"/>
</radialGradient>
<radialGradient id="paint7_radial" cx="0" cy="0" r="1" gradientUnits="userSpaceOnUse" gradientTransform="translate(282.201 34.8127) rotate(19.8282) scale(19.9019)">
<stop stop-color="#F9C700"/>
<stop offset="1" stop-color="#F79C01"/>
</radialGradient>
<radialGradient id="paint8_radial" cx="0" cy="0" r="1" gradientUnits="userSpaceOnUse" gradientTransform="translate(283.13 32.1647) rotate(109.828) scale(3.04522 3.14331)">
<stop stop-color="#99CCFF"/>
<stop offset="1" stop-color="#3974B0"/>
</radialGradient>
<radialGradient id="paint9_radial" cx="0" cy="0" r="1" gradientUnits="userSpaceOnUse" gradientTransform="translate(282.442 33.9115) rotate(109.828) scale(5.9477 12.6774)">
<stop stop-color="#99CCFF"/>
<stop offset="1" stop-color="#79A6D3"/>
</radialGradient>
<radialGradient id="paint10_radial" cx="0" cy="0" r="1" gradientUnits="userSpaceOnUse" gradientTransform="translate(281.174 37.4263) rotate(109.828) scale(7.62527 21.2182)">
<stop stop-color="#99CCFF"/>
<stop offset="1" stop-color="#71A5DA"/>
</radialGradient>
<radialGradient id="paint11_radial" cx="0" cy="0" r="1" gradientUnits="userSpaceOnUse" gradientTransform="translate(142.195 56.8637) scale(72.2114)">
<stop stop-color="#F9C700"/>
<stop offset="1" stop-color="#F79C01"/>
</radialGradient>
<radialGradient id="paint12_radial" cx="0" cy="0" r="1" gradientUnits="userSpaceOnUse" gradientTransform="translate(256.709 71.9337) rotate(29.7963) scale(37.4326)">
<stop stop-color="#F9C700"/>
<stop offset="1" stop-color="#F79C01"/>
</radialGradient>
</defs>
</svg>
