<svg width="353" height="50" viewBox="0 0 353 50" fill="none" xmlns="http://www.w3.org/2000/svg">
<path d="M162.746 50H5.91125C2.6525 50 0 47.34 0 44.0837V5.9075C0 2.65 2.6525 0 5.91125 0H162.746C166.004 0 168.75 2.65 168.75 5.9075V44.0837C168.75 47.34 166.004 50 162.746 50Z" fill="#A6A6A6"/>
<path d="M167.54 44.0853C167.54 46.7303 165.398 48.8728 162.748 48.8728H5.91142C3.26267 48.8728 1.11267 46.7303 1.11267 44.0853V5.90654C1.11267 3.26279 3.26267 1.11279 5.91142 1.11279H162.746C165.398 1.11279 167.539 3.26279 167.539 5.90654L167.54 44.0853Z" fill="black"/>
<path d="M37.6601 24.73C37.6239 20.7013 40.9589 18.7413 41.1114 18.65C39.2226 15.8963 36.2951 15.52 35.2664 15.49C32.8076 15.2313 30.4226 16.9613 29.1701 16.9613C27.8926 16.9613 25.9639 15.515 23.8851 15.5575C21.2101 15.5988 18.7076 17.1475 17.3351 19.5525C14.5026 24.4563 16.6151 31.6625 19.3289 35.6263C20.6864 37.5675 22.2726 39.735 24.3489 39.6588C26.3801 39.575 27.1389 38.3638 29.5901 38.3638C32.0189 38.3638 32.7314 39.6588 34.8489 39.61C37.0289 39.575 38.4014 37.66 39.7114 35.7013C41.2801 33.4763 41.9101 31.285 41.9351 31.1725C41.8839 31.155 37.7014 29.5588 37.6601 24.73Z" fill="white"/>
<path d="M33.66 12.8825C34.7525 11.5162 35.5 9.65749 35.2925 7.77124C33.7113 7.84124 31.7338 8.86499 30.595 10.2012C29.5875 11.3787 28.6875 13.3087 28.92 15.1237C30.6963 15.2562 32.52 14.2275 33.66 12.8825Z" fill="white"/>
<path d="M67.0561 39.3801H64.2173L62.6623 34.4939H57.2573L55.7761 39.3801H53.0123L58.3673 22.7451H61.6748L67.0561 39.3801ZM62.1936 32.4439L60.7873 28.1001C60.6386 27.6564 60.3598 26.6114 59.9486 24.9664H59.8986C59.7348 25.6739 59.4711 26.7189 59.1086 28.1001L57.7273 32.4439H62.1936Z" fill="white"/>
<path d="M80.8273 33.2349C80.8273 35.2749 80.2761 36.8874 79.1736 38.0712C78.1861 39.1249 76.9598 39.6512 75.4961 39.6512C73.9161 39.6512 72.7811 39.0837 72.0898 37.9487H72.0398V44.2674H69.3748V31.3337C69.3748 30.0512 69.3411 28.7349 69.2761 27.3849H71.6198L71.7686 29.2862H71.8186C72.7073 27.8537 74.0561 27.1387 75.8661 27.1387C77.2811 27.1387 78.4623 27.6974 79.4073 28.8162C80.3548 29.9362 80.8273 31.4087 80.8273 33.2349ZM78.1123 33.3324C78.1123 32.1649 77.8498 31.2024 77.3223 30.4449C76.7461 29.6549 75.9723 29.2599 75.0023 29.2599C74.3448 29.2599 73.7473 29.4799 73.2136 29.9137C72.6786 30.3512 72.3286 30.9224 72.1648 31.6299C72.0823 31.9599 72.0411 32.2299 72.0411 32.4424V34.4424C72.0411 35.3149 72.3086 36.0512 72.8436 36.6524C73.3786 37.2537 74.0736 37.5537 74.9286 37.5537C75.9323 37.5537 76.7136 37.1662 77.2723 36.3937C77.8323 35.6199 78.1123 34.5999 78.1123 33.3324Z" fill="white"/>
<path d="M94.6237 33.2349C94.6237 35.2749 94.0724 36.8874 92.9687 38.0712C91.9824 39.1249 90.7562 39.6512 89.2924 39.6512C87.7124 39.6512 86.5774 39.0837 85.8874 37.9487H85.8374V44.2674H83.1724V31.3337C83.1724 30.0512 83.1387 28.7349 83.0737 27.3849H85.4174L85.5662 29.2862H85.6162C86.5037 27.8537 87.8524 27.1387 89.6637 27.1387C91.0774 27.1387 92.2587 27.6974 93.2062 28.8162C94.1499 29.9362 94.6237 31.4087 94.6237 33.2349ZM91.9087 33.3324C91.9087 32.1649 91.6449 31.2024 91.1174 30.4449C90.5412 29.6549 89.7699 29.2599 88.7987 29.2599C88.1399 29.2599 87.5437 29.4799 87.0087 29.9137C86.4737 30.3512 86.1249 30.9224 85.9612 31.6299C85.8799 31.9599 85.8374 32.2299 85.8374 32.4424V34.4424C85.8374 35.3149 86.1049 36.0512 86.6374 36.6524C87.1724 37.2524 87.8674 37.5537 88.7249 37.5537C89.7287 37.5537 90.5099 37.1662 91.0687 36.3937C91.6287 35.6199 91.9087 34.5999 91.9087 33.3324Z" fill="white"/>
<path d="M110.049 34.715C110.049 36.13 109.557 37.2812 108.571 38.17C107.487 39.1412 105.979 39.6262 104.04 39.6262C102.25 39.6262 100.815 39.2812 99.7286 38.59L100.346 36.3687C101.516 37.0762 102.8 37.4312 104.199 37.4312C105.202 37.4312 105.984 37.2037 106.545 36.7512C107.104 36.2987 107.382 35.6912 107.382 34.9337C107.382 34.2587 107.152 33.69 106.691 33.2287C106.232 32.7675 105.466 32.3387 104.396 31.9425C101.484 30.8562 100.029 29.265 100.029 27.1725C100.029 25.805 100.539 24.6837 101.56 23.8112C102.577 22.9375 103.935 22.5012 105.632 22.5012C107.146 22.5012 108.404 22.765 109.407 23.2912L108.741 25.4637C107.804 24.9537 106.744 24.6987 105.557 24.6987C104.62 24.6987 103.887 24.93 103.362 25.39C102.919 25.8012 102.696 26.3025 102.696 26.8962C102.696 27.5537 102.95 28.0975 103.46 28.525C103.904 28.92 104.71 29.3475 105.88 29.8087C107.311 30.385 108.362 31.0587 109.039 31.8312C109.712 32.6012 110.049 33.565 110.049 34.715Z" fill="white"/>
<path d="M118.86 29.3852H115.922V35.209C115.922 36.6902 116.44 37.4302 117.477 37.4302C117.954 37.4302 118.349 37.389 118.661 37.3065L118.735 39.3302C118.21 39.5265 117.519 39.6252 116.662 39.6252C115.61 39.6252 114.787 39.304 114.194 38.6627C113.602 38.0202 113.305 36.9427 113.305 35.429V29.3827H111.555V27.3827H113.305V25.1865L115.922 24.3965V27.3827H118.86V29.3852Z" fill="white"/>
<path d="M132.114 33.2836C132.114 35.1274 131.586 36.6411 130.534 37.8249C129.43 39.0436 127.965 39.6511 126.139 39.6511C124.379 39.6511 122.977 39.0674 121.932 37.8999C120.887 36.7324 120.365 35.2586 120.365 33.4824C120.365 31.6236 120.902 30.1011 121.981 28.9174C123.057 27.7324 124.51 27.1399 126.336 27.1399C128.096 27.1399 129.512 27.7236 130.581 28.8924C131.604 30.0261 132.114 31.4899 132.114 33.2836ZM129.349 33.3699C129.349 32.2636 129.112 31.3149 128.634 30.5236C128.075 29.5661 127.276 29.0886 126.241 29.0886C125.17 29.0886 124.356 29.5674 123.797 30.5236C123.319 31.3161 123.082 32.2799 123.082 33.4199C123.082 34.5261 123.319 35.4749 123.797 36.2649C124.374 37.2224 125.179 37.6999 126.217 37.6999C127.235 37.6999 128.034 37.2124 128.61 36.2399C129.101 35.4336 129.349 34.4749 129.349 33.3699Z" fill="white"/>
<path d="M140.776 29.7287C140.512 29.6799 140.231 29.6549 139.936 29.6549C138.998 29.6549 138.273 30.0087 137.763 30.7174C137.32 31.3424 137.097 32.1324 137.097 33.0862V39.3799H134.433L134.458 31.1624C134.458 29.7799 134.425 28.5212 134.358 27.3862H136.68L136.777 29.6812H136.851C137.132 28.8924 137.576 28.2574 138.183 27.7812C138.777 27.3524 139.418 27.1387 140.11 27.1387C140.356 27.1387 140.578 27.1562 140.776 27.1874V29.7287Z" fill="white"/>
<path d="M152.695 32.8152C152.695 33.2927 152.664 33.6952 152.597 34.024H144.602C144.634 35.209 145.02 36.1152 145.762 36.7402C146.436 37.299 147.307 37.579 148.377 37.579C149.561 37.579 150.641 37.3902 151.612 37.0115L152.03 38.8615C150.895 39.3565 149.555 39.6027 148.009 39.6027C146.149 39.6027 144.689 39.0552 143.626 37.9615C142.566 36.8677 142.035 35.399 142.035 33.5565C142.035 31.7477 142.529 30.2415 143.517 29.0402C144.552 27.7577 145.951 27.1165 147.711 27.1165C149.44 27.1165 150.749 27.7577 151.637 29.0402C152.341 30.059 152.695 31.319 152.695 32.8152ZM150.154 32.124C150.171 31.334 149.997 30.6515 149.636 30.0752C149.175 29.334 148.466 28.964 147.512 28.964C146.641 28.964 145.932 29.3252 145.391 30.0502C144.947 30.6265 144.684 31.3177 144.602 32.1227H150.154V32.124Z" fill="white"/>
<path d="M61.3126 12.5114C61.3126 13.9826 60.8713 15.0901 59.9901 15.8339C59.1738 16.5201 58.0138 16.8639 56.5113 16.8639C55.7663 16.8639 55.1288 16.8314 54.5951 16.7664V8.72762C55.2913 8.61512 56.0413 8.55762 56.8513 8.55762C58.2826 8.55762 59.3613 8.86887 60.0888 9.49137C60.9038 10.1951 61.3126 11.2014 61.3126 12.5114ZM59.9313 12.5476C59.9313 11.5939 59.6788 10.8626 59.1738 10.3526C58.6688 9.84387 57.9313 9.58887 56.9601 9.58887C56.5476 9.58887 56.1963 9.61637 55.9051 9.67387V15.7851C56.0663 15.8101 56.3613 15.8214 56.7901 15.8214C57.7926 15.8214 58.5663 15.5426 59.1113 14.9851C59.6563 14.4276 59.9313 13.6151 59.9313 12.5476Z" fill="white"/>
<path d="M68.6363 13.7963C68.6363 14.7026 68.3775 15.4451 67.86 16.0276C67.3175 16.6263 66.5988 16.9251 65.7013 16.9251C64.8363 16.9251 64.1476 16.6388 63.6338 16.0638C63.1213 15.4901 62.8651 14.7663 62.8651 13.8938C62.8651 12.9813 63.1288 12.2326 63.6588 11.6513C64.1888 11.0701 64.9013 10.7788 65.7988 10.7788C66.6638 10.7788 67.3588 11.0651 67.885 11.6388C68.385 12.1963 68.6363 12.9163 68.6363 13.7963ZM67.2775 13.8388C67.2775 13.2951 67.1601 12.8288 66.9263 12.4401C66.6513 11.9701 66.2601 11.7351 65.7513 11.7351C65.2251 11.7351 64.8251 11.9701 64.5501 12.4401C64.3151 12.8288 64.1988 13.3026 64.1988 13.8626C64.1988 14.4063 64.3163 14.8726 64.5501 15.2613C64.8338 15.7313 65.2288 15.9663 65.7388 15.9663C66.2388 15.9663 66.6313 15.7276 66.9138 15.2488C67.1563 14.8526 67.2775 14.3826 67.2775 13.8388Z" fill="white"/>
<path d="M78.4564 10.8989L76.6126 16.7914H75.4126L74.6489 14.2327C74.4551 13.5939 74.2976 12.9589 74.1751 12.3289H74.1514C74.0376 12.9764 73.8801 13.6102 73.6776 14.2327L72.8664 16.7914H71.6526L69.9189 10.8989H71.2651L71.9314 13.7002C72.0926 14.3627 72.2251 14.9939 72.3314 15.5914H72.3551C72.4526 15.0989 72.6139 14.4714 72.8414 13.7127L73.6776 10.9002H74.7451L75.5464 13.6527C75.7401 14.3239 75.8976 14.9702 76.0189 15.5927H76.0551C76.1439 14.9864 76.2776 14.3402 76.4551 13.6527L77.1701 10.9002H78.4564V10.8989Z" fill="white"/>
<path d="M85.2475 16.7912H83.9375V13.4162C83.9375 12.3762 83.5425 11.8562 82.75 11.8562C82.3612 11.8562 82.0475 11.9987 81.8037 12.2849C81.5625 12.5712 81.44 12.9087 81.44 13.2949V16.7899H80.13V12.5824C80.13 12.0649 80.1137 11.5037 80.0825 10.8962H81.2337L81.295 11.8174H81.3312C81.4837 11.5312 81.7112 11.2949 82.01 11.1062C82.365 10.8862 82.7625 10.7749 83.1975 10.7749C83.7475 10.7749 84.205 10.9524 84.5687 11.3087C85.0212 11.7449 85.2475 12.3962 85.2475 13.2612V16.7912Z" fill="white"/>
<path d="M88.8601 16.7916H87.5513V8.19531H88.8601V16.7916Z" fill="white"/>
<path d="M96.5727 13.7963C96.5727 14.7026 96.314 15.4451 95.7965 16.0276C95.254 16.6263 94.534 16.9251 93.6377 16.9251C92.7715 16.9251 92.0827 16.6388 91.5702 16.0638C91.0577 15.4901 90.8015 14.7663 90.8015 13.8938C90.8015 12.9813 91.0652 12.2326 91.5952 11.6513C92.1252 11.0701 92.8377 10.7788 93.734 10.7788C94.6002 10.7788 95.294 11.0651 95.8215 11.6388C96.3215 12.1963 96.5727 12.9163 96.5727 13.7963ZM95.2127 13.8388C95.2127 13.2951 95.0952 12.8288 94.8615 12.4401C94.5877 11.9701 94.1952 11.7351 93.6877 11.7351C93.1602 11.7351 92.7602 11.9701 92.4865 12.4401C92.2515 12.8288 92.1352 13.3026 92.1352 13.8626C92.1352 14.4063 92.2527 14.8726 92.4865 15.2613C92.7702 15.7313 93.1652 15.9663 93.6752 15.9663C94.1752 15.9663 94.5665 15.7276 94.849 15.2488C95.0927 14.8526 95.2127 14.3826 95.2127 13.8388Z" fill="white"/>
<path d="M102.913 16.7913H101.736L101.639 16.1126H101.603C101.2 16.6538 100.626 16.9251 99.8813 16.9251C99.325 16.9251 98.875 16.7463 98.5363 16.3913C98.2288 16.0688 98.075 15.6676 98.075 15.1913C98.075 14.4713 98.375 13.9226 98.9788 13.5426C99.5813 13.1626 100.429 12.9763 101.52 12.9851V12.8751C101.52 12.0988 101.113 11.7113 100.296 11.7113C99.715 11.7113 99.2025 11.8576 98.76 12.1476L98.4938 11.2876C99.0413 10.9488 99.7175 10.7788 100.515 10.7788C102.055 10.7788 102.828 11.5913 102.828 13.2163V15.3863C102.828 15.9751 102.856 16.4438 102.913 16.7913ZM101.553 14.7663V13.8576C100.108 13.8326 99.385 14.2288 99.385 15.0451C99.385 15.3526 99.4675 15.5826 99.6363 15.7363C99.805 15.8901 100.02 15.9663 100.276 15.9663C100.564 15.9663 100.833 15.8751 101.078 15.6938C101.324 15.5113 101.475 15.2801 101.531 14.9963C101.545 14.9326 101.553 14.8551 101.553 14.7663Z" fill="white"/>
<path d="M110.357 16.7916H109.194L109.133 15.8453H109.097C108.725 16.5653 108.093 16.9253 107.204 16.9253C106.494 16.9253 105.903 16.6466 105.434 16.0891C104.965 15.5316 104.732 14.8078 104.732 13.9191C104.732 12.9653 104.985 12.1928 105.495 11.6028C105.989 11.0528 106.594 10.7778 107.314 10.7778C108.105 10.7778 108.659 11.0441 108.974 11.5778H108.999V8.19531H110.31V15.2041C110.31 15.7778 110.325 16.3066 110.357 16.7916ZM108.999 14.3066V13.3241C108.999 13.1541 108.986 13.0166 108.963 12.9116C108.889 12.5966 108.73 12.3316 108.489 12.1178C108.245 11.9041 107.951 11.7966 107.613 11.7966C107.124 11.7966 106.742 11.9903 106.46 12.3791C106.182 12.7678 106.04 13.2641 106.04 13.8703C106.04 14.4528 106.174 14.9253 106.443 15.2891C106.727 15.6766 107.109 15.8703 107.588 15.8703C108.018 15.8703 108.362 15.7091 108.623 15.3853C108.875 15.0866 108.999 14.7266 108.999 14.3066Z" fill="white"/>
<path d="M121.56 13.7963C121.56 14.7026 121.301 15.4451 120.784 16.0276C120.241 16.6263 119.524 16.9251 118.625 16.9251C117.761 16.9251 117.073 16.6388 116.558 16.0638C116.045 15.4901 115.789 14.7663 115.789 13.8938C115.789 12.9813 116.053 12.2326 116.583 11.6513C117.113 11.0701 117.825 10.7788 118.724 10.7788C119.588 10.7788 120.284 11.0651 120.809 11.6388C121.309 12.1963 121.56 12.9163 121.56 13.7963ZM120.203 13.8388C120.203 13.2951 120.085 12.8288 119.851 12.4401C119.575 11.9701 119.185 11.7351 118.675 11.7351C118.15 11.7351 117.75 11.9701 117.474 12.4401C117.239 12.8288 117.123 13.3026 117.123 13.8626C117.123 14.4063 117.24 14.8726 117.474 15.2613C117.758 15.7313 118.153 15.9663 118.663 15.9663C119.163 15.9663 119.556 15.7276 119.839 15.2488C120.08 14.8526 120.203 14.3826 120.203 13.8388Z" fill="white"/>
<path d="M128.604 16.7912H127.295V13.4162C127.295 12.3762 126.9 11.8562 126.106 11.8562C125.718 11.8562 125.404 11.9987 125.161 12.2849C124.919 12.5712 124.798 12.9087 124.798 13.2949V16.7899H123.486V12.5824C123.486 12.0649 123.471 11.5037 123.44 10.8962H124.59L124.651 11.8174H124.688C124.841 11.5312 125.069 11.2949 125.366 11.1062C125.723 10.8862 126.119 10.7749 126.555 10.7749C127.104 10.7749 127.561 10.9524 127.925 11.3087C128.379 11.7449 128.604 12.3962 128.604 13.2612V16.7912Z" fill="white"/>
<path d="M137.42 11.8804H135.977V14.7429C135.977 15.4704 136.234 15.8341 136.741 15.8341C136.976 15.8341 137.171 15.8141 137.325 15.7729L137.359 16.7666C137.1 16.8641 136.76 16.9129 136.341 16.9129C135.824 16.9129 135.421 16.7554 135.13 16.4404C134.837 16.1254 134.692 15.5954 134.692 14.8516V11.8804H133.831V10.8991H134.692V9.81914L135.976 9.43164V10.8979H137.419V11.8804H137.42Z" fill="white"/>
<path d="M144.355 16.7916H143.044V13.4416C143.044 12.3853 142.649 11.8566 141.858 11.8566C141.25 11.8566 140.835 12.1628 140.608 12.7753C140.569 12.9041 140.546 13.0616 140.546 13.2466V16.7903H139.238V8.19531H140.546V11.7466H140.571C140.984 11.1003 141.575 10.7778 142.341 10.7778C142.884 10.7778 143.333 10.9553 143.689 11.3116C144.133 11.7553 144.355 12.4153 144.355 13.2878V16.7916Z" fill="white"/>
<path d="M151.509 13.5663C151.509 13.8013 151.491 13.9988 151.46 14.1601H147.531C147.549 14.7426 147.736 15.1863 148.1 15.4938C148.433 15.7688 148.861 15.9063 149.386 15.9063C149.968 15.9063 150.498 15.8138 150.975 15.6276L151.18 16.5376C150.621 16.7801 149.964 16.9013 149.203 16.9013C148.29 16.9013 147.571 16.6326 147.051 16.0951C146.529 15.5576 146.27 14.8363 146.27 13.9313C146.27 13.0426 146.511 12.3026 146.998 11.7126C147.505 11.0826 148.191 10.7676 149.058 10.7676C149.905 10.7676 150.549 11.0826 150.984 11.7126C151.335 12.2126 151.509 12.8313 151.509 13.5663ZM150.259 13.2276C150.269 12.8388 150.183 12.5038 150.005 12.2213C149.778 11.8576 149.431 11.6751 148.963 11.6751C148.535 11.6751 148.186 11.8526 147.92 12.2088C147.703 12.4926 147.574 12.8313 147.531 13.2276H150.259Z" fill="white"/>
<path d="M346.25 50H190C186.5 50 183.75 47.25 183.75 43.75V6.25C183.75 2.75 186.5 0 190 0H346.25C349.75 0 352.5 2.75 352.5 6.25V43.75C352.5 47.125 349.75 50 346.25 50Z" fill="black"/>
<path d="M346.25 1C349.125 1 351.5 3.375 351.5 6.25V43.75C351.5 46.625 349.125 49 346.25 49H190C187.125 49 184.75 46.625 184.75 43.75V6.25C184.75 3.375 187.125 1 190 1H346.25ZM346.25 0H190C186.5 0 183.75 2.75 183.75 6.25V43.75C183.75 47.25 186.5 50 190 50H346.25C349.75 50 352.5 47.25 352.5 43.75V6.25C352.5 2.875 349.75 0 346.25 0Z" fill="#A6A6A6"/>
<path d="M243 12.75C243 13.75 242.75 14.625 242.125 15.25C241.375 16 240.5 16.375 239.375 16.375C238.25 16.375 237.375 16 236.625 15.25C235.875 14.5 235.5 13.625 235.5 12.5C235.5 11.375 235.875 10.5 236.625 9.75C237.375 9 238.25 8.625 239.375 8.625C239.875 8.625 240.375 8.75 240.875 9C241.375 9.25 241.75 9.5 242 9.875L241.375 10.5C240.875 9.875 240.25 9.625 239.375 9.625C238.625 9.625 237.875 9.875 237.375 10.5C236.75 11 236.5 11.75 236.5 12.625C236.5 13.5 236.75 14.25 237.375 14.75C238 15.25 238.625 15.625 239.375 15.625C240.25 15.625 240.875 15.375 241.5 14.75C241.875 14.375 242.125 13.875 242.125 13.25H239.375V12.375H243C243 12.375 243 12.625 243 12.75Z" fill="white" stroke="white" stroke-width="0.2" stroke-miterlimit="10"/>
<path d="M248.75 9.625H245.375V12H248.5V12.875H245.375V15.25H248.75V16.25H244.375V8.75H248.75V9.625Z" fill="white" stroke="white" stroke-width="0.2" stroke-miterlimit="10"/>
<path d="M252.875 16.25H251.875V9.625H249.75V8.75H255V9.625H252.875V16.25Z" fill="white" stroke="white" stroke-width="0.2" stroke-miterlimit="10"/>
<path d="M258.625 16.25V8.75H259.625V16.25H258.625Z" fill="white" stroke="white" stroke-width="0.2" stroke-miterlimit="10"/>
<path d="M263.875 16.25H262.875V9.625H260.75V8.75H265.875V9.625H263.75V16.25H263.875Z" fill="white" stroke="white" stroke-width="0.2" stroke-miterlimit="10"/>
<path d="M275.75 15.25C275 16 274.125 16.375 273 16.375C271.875 16.375 271 16 270.25 15.25C269.5 14.5 269.125 13.625 269.125 12.5C269.125 11.375 269.5 10.5 270.25 9.75C271 9 271.875 8.625 273 8.625C274.125 8.625 275 9 275.75 9.75C276.5 10.5 276.875 11.375 276.875 12.5C276.875 13.625 276.5 14.5 275.75 15.25ZM271 14.625C271.5 15.125 272.25 15.5 273 15.5C273.75 15.5 274.5 15.25 275 14.625C275.5 14.125 275.875 13.375 275.875 12.5C275.875 11.625 275.625 10.875 275 10.375C274.5 9.875 273.75 9.5 273 9.5C272.25 9.5 271.5 9.75 271 10.375C270.5 10.875 270.125 11.625 270.125 12.5C270.125 13.375 270.375 14.125 271 14.625Z" fill="white" stroke="white" stroke-width="0.2" stroke-miterlimit="10"/>
<path d="M278.25 16.25V8.75H279.375L283 14.625V13.125V8.75H284V16.25H283L279.125 10.125V11.625V16.25H278.25Z" fill="white" stroke="white" stroke-width="0.2" stroke-miterlimit="10"/>
<path d="M268.875 27.25C265.875 27.25 263.5 29.5 263.5 32.625C263.5 35.625 265.875 38 268.875 38C271.875 38 274.25 35.75 274.25 32.625C274.25 29.375 271.875 27.25 268.875 27.25ZM268.875 35.75C267.25 35.75 265.875 34.375 265.875 32.5C265.875 30.625 267.25 29.25 268.875 29.25C270.5 29.25 271.875 30.5 271.875 32.5C271.875 34.375 270.5 35.75 268.875 35.75ZM257.25 27.25C254.25 27.25 251.875 29.5 251.875 32.625C251.875 35.625 254.25 38 257.25 38C260.25 38 262.625 35.75 262.625 32.625C262.625 29.375 260.25 27.25 257.25 27.25ZM257.25 35.75C255.625 35.75 254.25 34.375 254.25 32.5C254.25 30.625 255.625 29.25 257.25 29.25C258.875 29.25 260.25 30.5 260.25 32.5C260.25 34.375 258.875 35.75 257.25 35.75ZM243.375 28.875V31.125H248.75C248.625 32.375 248.125 33.375 247.5 34C246.75 34.75 245.5 35.625 243.375 35.625C240 35.625 237.5 33 237.5 29.625C237.5 26.25 240.125 23.625 243.375 23.625C245.125 23.625 246.5 24.375 247.5 25.25L249.125 23.625C247.75 22.375 246 21.375 243.5 21.375C239 21.375 235.125 25.125 235.125 29.625C235.125 34.125 239 37.875 243.5 37.875C246 37.875 247.75 37.125 249.25 35.5C250.75 34 251.25 31.875 251.25 30.25C251.25 29.75 251.25 29.25 251.125 28.875H243.375ZM300.125 30.625C299.625 29.375 298.375 27.25 295.625 27.25C292.875 27.25 290.625 29.375 290.625 32.625C290.625 35.625 292.875 38 295.875 38C298.25 38 299.75 36.5 300.25 35.625L298.5 34.375C297.875 35.25 297.125 35.875 295.875 35.875C294.625 35.875 293.875 35.375 293.25 34.25L300.375 31.25L300.125 30.625ZM292.875 32.375C292.875 30.375 294.5 29.25 295.625 29.25C296.5 29.25 297.375 29.75 297.625 30.375L292.875 32.375ZM287 37.5H289.375V21.875H287V37.5ZM283.25 28.375C282.625 27.75 281.625 27.125 280.375 27.125C277.75 27.125 275.25 29.5 275.25 32.5C275.25 35.5 277.625 37.75 280.375 37.75C281.625 37.75 282.625 37.125 283.125 36.5H283.25V37.25C283.25 39.25 282.125 40.375 280.375 40.375C279 40.375 278 39.375 277.75 38.5L275.75 39.375C276.375 40.75 277.875 42.5 280.5 42.5C283.25 42.5 285.5 40.875 285.5 37V27.5H283.25V28.375ZM280.5 35.75C278.875 35.75 277.5 34.375 277.5 32.5C277.5 30.625 278.875 29.25 280.5 29.25C282.125 29.25 283.375 30.625 283.375 32.5C283.375 34.375 282.125 35.75 280.5 35.75ZM311 21.875H305.375V37.5H307.75V31.625H311C313.625 31.625 316.125 29.75 316.125 26.75C316.125 23.75 313.625 21.875 311 21.875ZM311.125 29.375H307.75V24H311.125C312.875 24 313.875 25.5 313.875 26.625C313.75 28 312.75 29.375 311.125 29.375ZM325.5 27.125C323.75 27.125 322 27.875 321.375 29.5L323.5 30.375C324 29.5 324.75 29.25 325.625 29.25C326.875 29.25 328 30 328.125 31.25V31.375C327.75 31.125 326.75 30.75 325.75 30.75C323.5 30.75 321.25 32 321.25 34.25C321.25 36.375 323.125 37.75 325.125 37.75C326.75 37.75 327.5 37 328.125 36.25H328.25V37.5H330.5V31.5C330.25 28.75 328.125 27.125 325.5 27.125ZM325.25 35.75C324.5 35.75 323.375 35.375 323.375 34.375C323.375 33.125 324.75 32.75 325.875 32.75C326.875 32.75 327.375 33 328 33.25C327.75 34.75 326.5 35.75 325.25 35.75ZM338.375 27.5L335.75 34.25H335.625L332.875 27.5H330.375L334.5 37L332.125 42.25H334.5L340.875 27.5H338.375ZM317.375 37.5H319.75V21.875H317.375V37.5Z" fill="white"/>
<path d="M196.75 9.375C196.375 9.75 196.125 10.375 196.125 11.125V38.75C196.125 39.5 196.375 40.125 196.75 40.5L196.875 40.625L212.375 25.125V25V24.875L196.75 9.375Z" fill="url(#paint0_linear)"/>
<path d="M217.5 30.375L212.375 25.25V25V24.875L217.5 19.75L217.625 19.875L223.75 23.375C225.5 24.375 225.5 26 223.75 27L217.5 30.375Z" fill="url(#paint1_linear)"/>
<path d="M217.625 30.25L212.375 25L196.75 40.625C197.375 41.25 198.25 41.25 199.375 40.75L217.625 30.25Z" fill="url(#paint2_linear)"/>
<path d="M217.625 19.75L199.375 9.37502C198.25 8.75002 197.375 8.87502 196.75 9.50002L212.375 25L217.625 19.75Z" fill="url(#paint3_linear)"/>
<path opacity="0.2" d="M217.5 30.125L199.375 40.375C198.375 41 197.5 40.875 196.875 40.375L196.75 40.5L196.875 40.625C197.5 41.125 198.375 41.25 199.375 40.625L217.5 30.125Z" fill="black"/>
<path opacity="0.12" d="M196.75 40.375C196.375 40 196.25 39.375 196.25 38.625V38.75C196.25 39.5 196.5 40.125 196.875 40.5V40.375H196.75Z" fill="black"/>
<path opacity="0.12" d="M223.75 26.625L217.5 30.125L217.625 30.25L223.75 26.75C224.625 26.25 225 25.625 225 25C225 25.625 224.5 26.125 223.75 26.625Z" fill="black"/>
<path opacity="0.25" d="M199.375 9.49997L223.75 23.375C224.5 23.875 225 24.375 225 25C225 24.375 224.625 23.75 223.75 23.25L199.375 9.37497C197.625 8.37497 196.25 9.24997 196.25 11.25V11.375C196.25 9.37497 197.625 8.49997 199.375 9.49997Z" fill="white"/>
<defs>
<linearGradient id="paint0_linear" x1="210.999" y1="10.8871" x2="190.021" y2="31.8651" gradientUnits="userSpaceOnUse">
<stop stop-color="#00A0FF"/>
<stop offset="0.00657445" stop-color="#00A1FF"/>
<stop offset="0.2601" stop-color="#00BEFF"/>
<stop offset="0.5122" stop-color="#00D2FF"/>
<stop offset="0.7604" stop-color="#00DFFF"/>
<stop offset="1" stop-color="#00E3FF"/>
</linearGradient>
<linearGradient id="paint1_linear" x1="226.043" y1="25.0017" x2="195.797" y2="25.0017" gradientUnits="userSpaceOnUse">
<stop stop-color="#FFE000"/>
<stop offset="0.4087" stop-color="#FFBD00"/>
<stop offset="0.7754" stop-color="#FFA500"/>
<stop offset="1" stop-color="#FF9C00"/>
</linearGradient>
<linearGradient id="paint2_linear" x1="214.784" y1="27.8701" x2="186.336" y2="56.318" gradientUnits="userSpaceOnUse">
<stop stop-color="#FF3A44"/>
<stop offset="1" stop-color="#C31162"/>
</linearGradient>
<linearGradient id="paint3_linear" x1="192.871" y1="0.220268" x2="205.575" y2="12.9234" gradientUnits="userSpaceOnUse">
<stop stop-color="#32A071"/>
<stop offset="0.0685" stop-color="#2DA771"/>
<stop offset="0.4762" stop-color="#15CF74"/>
<stop offset="0.8009" stop-color="#06E775"/>
<stop offset="1" stop-color="#00F076"/>
</linearGradient>
</defs>
</svg>
