<svg width="6" height="10" viewBox="0 0 6 10" fill="none" xmlns="http://www.w3.org/2000/svg">
<path fill-rule="evenodd" clip-rule="evenodd" d="M3.61704 5.03795L0.31846 1.81403C0.0915105 1.6063 -0.0141369 1.3666 0.00151475 1.09495C0.0249923 0.823288 0.116945 0.58759 0.277375 0.387842C0.437805 0.188094 0.639317 0.0642523 0.881919 0.0163128C1.09657 -0.0316267 1.29972 0.0260954 1.49137 0.189481L5.71827 4.27092C5.90609 4.46268 6 4.71835 6 5.03795C6 5.35754 5.90609 5.61322 5.71827 5.80497L1.66841 9.71202C1.42581 9.94373 1.1793 10.0356 0.928874 9.98767C0.678447 9.93174 0.476934 9.8059 0.32433 9.61015C0.171726 9.4144 0.0875991 9.1807 0.0719474 8.90904C0.0562957 8.63738 0.161943 8.39369 0.388893 8.17797L3.61704 5.03795Z" fill="white"/>
</svg>
