<svg width="16" height="10" viewBox="0 0 16 10" fill="none" xmlns="http://www.w3.org/2000/svg">
<path d="M1.33333 10.0005H14.6667C15.125 10.0005 15.5 9.6255 15.5 9.16717C15.5 8.70884 15.125 8.33384 14.6667 8.33384H1.33333C0.875 8.33384 0.5 8.70884 0.5 9.16717C0.5 9.6255 0.875 10.0005 1.33333 10.0005ZM1.33333 5.83384H14.6667C15.125 5.83384 15.5 5.45884 15.5 5.0005C15.5 4.54217 15.125 4.16717 14.6667 4.16717H1.33333C0.875 4.16717 0.5 4.54217 0.5 5.0005C0.5 5.45884 0.875 5.83384 1.33333 5.83384ZM0.5 0.833837C0.5 1.29217 0.875 1.66717 1.33333 1.66717H14.6667C15.125 1.66717 15.5 1.29217 15.5 0.833837C15.5 0.375504 15.125 0.00050354 14.6667 0.00050354H1.33333C0.875 0.00050354 0.5 0.375504 0.5 0.833837Z" fill="#5AF7DC"/>
</svg>
