<svg width="117" height="104" viewBox="0 0 117 104" fill="none" xmlns="http://www.w3.org/2000/svg">
<path fill-rule="evenodd" clip-rule="evenodd" d="M112.709 22.1379C112.709 22.1379 97.2559 21.2667 90.8254 21.3484C84.6861 21.4314 78.5194 21.7822 72.4309 22.2901C71.2828 20.316 68.2471 15.206 64.2333 9.91125C60.8179 5.40601 56.4504 1.27925 56.4504 1.27925L55.1652 0.150002L54.3517 1.40657C54.3517 1.40657 50.6764 7.30678 47.7792 13.8166C44.9566 20.1569 42.4275 27.8499 41.5769 30.5962C37.5781 32.4112 33.0003 34.7908 29.2037 36.9275C25.229 39.1798 20.2673 42.3939 16.2014 45.4426C13.3103 43.7777 11.4172 42.5772 10.4638 41.9496C10.0347 41.6673 9.79687 41.421 9.58302 41.0335C9.34175 40.5983 7.91952 41.075 8.21219 41.6486C8.51377 42.2396 8.89966 42.726 9.54189 43.1917C10.1841 43.658 12.8936 45.4405 14.6949 46.6057C12.2904 48.4906 9.97165 50.4882 7.82013 52.6699C4.69806 55.8556 1.84879 59.4399 0.087952 63.595C0.0132417 63.7708 0.055052 63.9583 0.178427 64.0116C0.301802 64.0648 0.464931 63.968 0.547181 63.795C2.43413 59.8115 5.36086 56.4272 8.54941 53.4324C10.8812 51.2563 13.3905 49.2808 15.9917 47.4354C22.9685 51.8894 30.2003 55.9345 37.559 59.7077C37.1018 66.113 36.9976 72.4595 37.1004 78.8358C37.2204 85.5192 38.5275 100.714 38.5275 100.714L38.9127 103.972L40.7578 101.18C40.7578 101.18 46.7524 92.2941 52.4291 84.7768C57.4312 78.1521 62.6047 72.1599 63.3765 71.3102L93.8447 86.9634L62.8097 67.8996C62.8097 67.8996 56.8678 74.2786 50.588 83.0372C45.5187 90.1068 40.4281 97.7902 40.4281 97.7902C40.4281 97.7902 39.596 85.1435 39.5693 78.8074C39.5508 72.2028 39.7077 65.1879 40.4343 58.0608C33.9393 55.1547 24.7664 50.4398 17.6497 46.2909C21.6758 43.638 26.2092 40.9373 30.2161 38.8829C34.2203 36.8424 38.9154 34.6268 43.8435 32.6063C44.8703 28.6802 47.0979 21.1802 49.6942 14.7576C52.3043 8.30248 55.1515 3.53222 55.6162 2.66729C56.1454 3.22431 59.4888 6.77744 62.4978 11.1872C66.4136 16.9248 70.9277 25.2094 70.9277 25.2094C70.9277 25.2094 80.9629 24.1245 90.7164 23.8297C98.9935 23.5792 106.927 24.0933 109.822 24.2746C107.827 25.736 103.02 29.4421 97.308 34.0829C91.5951 38.7238 85.3873 44.1971 81.1473 48.3577C100.346 86.9634 100.346 86.9634 100.346 86.9634L84.4414 48.9341C87.7067 45.6667 93.2977 40.5913 98.7179 36.0944C104.82 31.0328 113.315 24.5348 113.315 24.5348L116.062 22.4721L112.709 22.1379Z" fill="url(#paint0_linear)"/>
<defs>
<linearGradient id="paint0_linear" x1="10" y1="52" x2="114.717" y2="40.4068" gradientUnits="userSpaceOnUse">
<stop stop-color="#045EF4" stop-opacity="0.05"/>
<stop offset="1" stop-color="#045EF4"/>
</linearGradient>
</defs>
</svg>
