<svg width="82" height="74" viewBox="0 0 82 74" fill="none" xmlns="http://www.w3.org/2000/svg">
<path fill-rule="evenodd" clip-rule="evenodd" d="M79.5654 15.9497C79.5654 15.9497 68.6721 15.3356 64.139 15.3931C59.8114 15.4517 55.4643 15.699 51.1724 16.057C50.3631 14.6654 48.2232 11.0632 45.3938 7.33088C42.9862 4.15505 39.9075 1.24603 39.9075 1.24603L39.0016 0.449997L38.4281 1.33578C38.4281 1.33578 35.8373 5.49494 33.795 10.0838C31.8053 14.5532 30.0225 19.9761 29.4229 21.9121C26.6041 23.1915 23.3771 24.8689 20.7008 26.3751C17.899 27.9628 14.4014 30.2285 11.5353 32.3775C9.49727 31.204 8.16278 30.3577 7.4907 29.9153C7.18824 29.7163 7.02058 29.5427 6.86984 29.2695C6.69976 28.9627 5.6972 29.2988 5.90351 29.7031C6.1161 30.1197 6.38812 30.4626 6.84085 30.7908C7.29357 31.1196 9.20351 32.3761 10.4733 33.1975C8.77833 34.5261 7.14379 35.9343 5.62714 37.4722C3.42634 39.7179 1.41784 42.2445 0.176593 45.1735C0.123928 45.2974 0.153401 45.4296 0.24037 45.4672C0.32734 45.5047 0.442332 45.4364 0.500312 45.3145C1.83046 42.5064 3.89356 40.1208 6.14123 38.0097C7.78495 36.4757 9.5538 35.0832 11.3874 33.7823C16.3055 36.922 21.4034 39.7735 26.5906 42.4333C26.2683 46.9485 26.1949 51.4223 26.2673 55.917C26.3519 60.6283 27.2733 71.3391 27.2733 71.3391L27.5448 73.636L28.8455 71.6679C28.8455 71.6679 33.0712 65.404 37.0728 60.1049C40.5989 55.4351 44.2458 51.2111 44.7899 50.6121L66.2674 61.6463L44.3903 48.2079C44.3903 48.2079 40.2017 52.7046 35.775 58.8787C32.2015 63.8622 28.6131 69.2783 28.6131 69.2783C28.6131 69.2783 28.0265 60.3635 28.0077 55.897C27.9946 51.2413 28.1053 46.2964 28.6174 41.2724C24.039 39.2238 17.5728 35.9002 12.5562 32.9755C15.3943 31.1055 18.5899 29.2017 21.4145 27.7535C24.2371 26.3151 27.5468 24.7533 31.0207 23.329C31.7445 20.5615 33.3147 15.2746 35.145 10.7472C36.9848 6.19683 38.9919 2.83419 39.3195 2.22448C39.6925 2.61713 42.0494 5.1218 44.1704 8.23031C46.9307 12.2748 50.1128 18.1148 50.1128 18.1148C50.1128 18.1148 57.1868 17.35 64.0622 17.1422C69.8969 16.9657 75.4895 17.3281 77.5299 17.4559C76.1239 18.486 72.735 21.0985 68.7088 24.3699C64.6816 27.6414 60.3056 31.4996 57.3168 34.4325C70.8502 61.6463 70.8502 61.6463 70.8502 61.6463L59.6389 34.8388C61.9407 32.5356 65.8818 28.9578 69.7027 25.7879C74.0038 22.2199 79.9926 17.6393 79.9926 17.6393L81.9291 16.1853L79.5654 15.9497Z" fill="url(#paint0_linear)"/>
<defs>
<linearGradient id="paint0_linear" x1="41.0011" y1="69.9081" x2="33.9947" y2="6.62253" gradientUnits="userSpaceOnUse">
<stop stop-color="#045EF4" stop-opacity="0.5"/>
<stop offset="0.536458" stop-color="#045EF4" stop-opacity="0.05"/>
<stop offset="1" stop-color="#045EF4" stop-opacity="0.5"/>
</linearGradient>
</defs>
</svg>
