<svg width="129" height="120" viewBox="0 0 129 120" fill="none" xmlns="http://www.w3.org/2000/svg">
<path fill-rule="evenodd" clip-rule="evenodd" d="M32.0605 73.0121H38.7569L32.8545 99.0139H36.29L39.0347 85.4312H88.2115L90.8433 99.0139V99.0141H94.2787L88.5927 73.0121H96.2199L95.8385 71.6826H70.6095V73.0121H85.8055L87.8941 83.7921H68.8407V59.7603H67.2911V83.7921H64.915V59.7603H63.3655V83.7921H60.9896V59.7603H59.44V83.7921H39.3662L39.3659 83.7919L41.5444 73.0121H57.6709V71.6826H32.442L32.0605 73.0121Z" fill="white"/>
<path fill-rule="evenodd" clip-rule="evenodd" d="M0 119.907H128.28L82.4892 6.59564H67.136V6.8186H81.442L123.312 117.236H4.96892L46.8385 6.8186H61.1445V6.59564H45.7913L0 119.907Z" fill="white"/>
<path fill-rule="evenodd" clip-rule="evenodd" d="M62.1058 10.5103H54.5845L54.9443 8.65339H53.7613L52.8578 12.785H49.3386L49.2559 13.0729H79.0244L78.9419 12.785H75.852L74.9142 8.65339H73.7312L74.1063 10.5103H66.1742V0H65.5036V10.5103H64.4754V0H63.8048V10.5103H62.7764V0H62.1058V10.5103ZM74.1596 10.774L74.5661 12.785H54.1437L54.5334 10.774H74.1596Z" fill="white"/>
<rect width="129" height="94" fill="url(#paint0_linear_812_453)"/>
<path fill-rule="evenodd" clip-rule="evenodd" d="M63.6202 51.78C67.0202 51.78 69.8702 51.17 72.1702 49.95C74.4702 48.73 76.3302 47.09 77.7502 45.03C79.1702 42.97 80.1802 40.57 80.7802 37.83C81.3802 35.09 81.6802 32.22 81.6802 29.22C81.6802 26.5 81.4102 23.89 80.8702 21.39C80.3302 18.89 79.4202 16.69 78.1402 14.79C76.8602 12.89 75.1702 11.38 73.0702 10.26C70.9702 9.14002 68.3602 8.58002 65.2402 8.58002C61.8402 8.58002 58.9902 9.19002 56.6902 10.41C54.3902 11.63 52.5402 13.27 51.1402 15.33C49.7402 17.39 48.7302 19.79 48.1102 22.53C47.4902 25.27 47.1802 28.14 47.1802 31.14C47.1802 33.86 47.4502 36.47 47.9902 38.97C48.5302 41.47 49.4402 43.67 50.7202 45.57C52.0002 47.47 53.6902 48.98 55.7902 50.1C57.8902 51.22 60.5002 51.78 63.6202 51.78ZM35.9002 41.82V51H24.8602V41.82H9.44023L8.24023 36.24C9.08023 33.64 10.1202 31.05 11.3602 28.47C12.6002 25.89 13.9802 23.43 15.5002 21.09C17.0202 18.75 18.6602 16.58 20.4202 14.58C22.1802 12.58 23.9802 10.86 25.8202 9.42002H35.9002V33.54H40.5202V41.82H35.9002ZM17.7202 33.54H24.8602V20.94C24.1402 21.7 23.4302 22.6 22.7302 23.64C22.0302 24.68 21.3602 25.77 20.7202 26.91C20.0802 28.05 19.5002 29.2 18.9802 30.36C18.4602 31.52 18.0402 32.58 17.7202 33.54ZM61.2802 41.28C62.0002 42.28 63.0202 42.78 64.3402 42.78C65.6602 42.78 66.6902 42.32 67.4302 41.4C68.1702 40.48 68.7002 39.37 69.0202 38.07C69.3402 36.77 69.5302 35.43 69.5902 34.05C69.6502 32.67 69.6802 31.54 69.6802 30.66C69.6802 29.7 69.6602 28.48 69.6202 27C69.5802 25.52 69.4102 24.08 69.1102 22.68C68.8102 21.28 68.3102 20.08 67.6102 19.08C66.9102 18.08 65.9002 17.58 64.5802 17.58C63.2602 17.58 62.2302 18.04 61.4902 18.96C60.7502 19.88 60.2102 20.99 59.8702 22.29C59.5302 23.59 59.3302 24.92 59.2702 26.28C59.2102 27.64 59.1802 28.78 59.1802 29.7C59.1802 30.66 59.2002 31.88 59.2402 33.36C59.2802 34.84 59.4502 36.28 59.7502 37.68C60.0502 39.08 60.5602 40.28 61.2802 41.28ZM115.1 51V41.82H119.72V33.54H115.1V9.42002H105.02C103.18 10.86 101.38 12.58 99.6202 14.58C97.8602 16.58 96.2202 18.75 94.7002 21.09C93.1802 23.43 91.8002 25.89 90.5602 28.47C89.3202 31.05 88.2802 33.64 87.4402 36.24L88.6402 41.82H104.06V51H115.1ZM96.9202 33.54H104.06V20.94C103.34 21.7 102.63 22.6 101.93 23.64C101.23 24.68 100.56 25.77 99.9202 26.91C99.2802 28.05 98.7002 29.2 98.1802 30.36C97.6602 31.52 97.2402 32.58 96.9202 33.54Z" fill="white"/>
<defs>
<linearGradient id="paint0_linear_812_453" x1="29.5609" y1="43.081" x2="29.5609" y2="94" gradientUnits="userSpaceOnUse">
<stop stop-color="#131232"/>
<stop offset="1" stop-color="#131232" stop-opacity="0"/>
</linearGradient>
</defs>
</svg>
