<svg width="32" height="32" viewBox="0 0 32 32" fill="none" xmlns="http://www.w3.org/2000/svg">
<path d="M28 5.33334V26.6667H26V24.1667L19.6667 23.016V25C19.6667 25.863 19.0108 26.5727 18.1704 26.6581L18 26.6667H10C9.13706 26.6667 8.42729 26.0108 8.34194 25.1704L8.33333 25V20.9547L5.36852 20.4167C4.63265 20.2829 4.0834 19.6783 4.00869 18.9476L4 18.777V13.2231C4 12.4176 4.57604 11.7274 5.36852 11.5833L26 7.83201V5.33334H28ZM10.3333 21.3187V24.6667H17.6667V22.652L10.3333 21.3187ZM25.9987 9.86401L5.99867 13.5013V18.4973L25.9987 22.1347V9.86401Z" fill="#000F49"/>
</svg>
