<svg width="32" height="32" viewBox="0 0 32 32" fill="none" xmlns="http://www.w3.org/2000/svg">
<path d="M16.0001 2.2858C23.5743 2.2858 29.7144 8.4259 29.7144 16.0001C29.7144 23.5743 23.5743 29.7144 16.0001 29.7144C8.42593 29.7144 2.28584 23.5743 2.28584 16.0001C2.28584 8.4259 8.42593 2.2858 16.0001 2.2858Z" fill="#3C5BAA"/>
<path d="M19.1431 7.2858H14.0002C13.7155 7.2858 13.458 7.45486 13.3448 7.71609L9.63054 16.2875L9.59502 16.3892C9.47641 16.8317 9.80862 17.2858 10.2859 17.2858H14.6014L13.3103 25.0253C13.1839 25.7827 14.1782 26.1788 14.6072 25.5421L22.3069 14.1145L22.3592 14.0238C22.5832 13.5625 22.2505 13.0007 21.714 13.0011L17.6768 13.0035L19.7945 8.293C20.0071 7.82035 19.6613 7.2858 19.1431 7.2858Z" fill="#FFDA36"/>
</svg>
