<svg xmlns="http://www.w3.org/2000/svg" width="20" height="48" viewBox="0 0 20 48">
    <defs>
        <linearGradient id="84q7hjdnra" x1="50%" x2="50%" y1="0%" y2="100%">
            <stop offset="0%" stop-color="#CD7F32"/>
            <stop offset="100%" stop-color="#A86829"/>
        </linearGradient>
    </defs>
    <g fill="none" fill-rule="evenodd">
        <g fill="url(#84q7hjdnra)" transform="translate(-205 -676)">
            <g>
                <g>
                    <g>
                        <path d="M.126.114C.07.09 3.507-.56 5.846 1.542 7.998 3.476 8.648 5.84 7.89 6.733 17.667 19.39 15.121 38.855.251 47.967L0 47.557c14.762-9.045 17.168-28.47 7.22-40.9l.283.36c-1.078.487-2.944-.506-4.724-2.095C1.457 3.713.687 1.774.342.768l-.08-.24C.179.273.135.12.126.113zM13.217 43.33c.049-.026-1.33 3.17-4.118 4.105-2.74.931-5.02.314-5.14-.81-.124-1.143 1.683-2.355 4.096-3.245 2.403-.88 5.15-.061 5.162-.05zm-9.6-6.615c-.018-.006 2.02 2.057 1.661 4.41-.352 2.344-1.99 4.026-3.022 3.582-1.043-.433-1.104-2.618-.76-4.718.351-2.066 2.104-3.235 2.12-3.274zm13.272-.191c.04-.035-.534 3.322-2.962 4.8-2.387 1.465-4.696 1.349-5.1.307-.413-1.057.994-2.584 3.098-3.95 2.095-1.353 4.951-1.166 4.964-1.157zM6.04 32.263c-.017-.003 2.436 1.535 2.665 3.858.232 2.313-.896 4.252-1.986 4.045-1.098-.195-1.725-2.253-1.92-4.324-.183-2.04 1.234-3.538 1.24-3.579zm12.845-3.09c.03-.04.225 3.327-1.782 5.273-1.97 1.924-4.218 2.306-4.86 1.398-.652-.922.343-2.687 2.076-4.462 1.727-1.762 4.552-2.215 4.566-2.208zm-11.518-1.72l.032.013c.307.12 2.732 1.08 3.435 3.12.754 2.176.126 4.275-.974 4.311-1.105.05-2.208-1.781-2.88-3.726-.655-1.917.389-3.676.387-3.718zm11.648-5.837c.02-.045.946 3.171-.575 5.484-1.491 2.285-3.586 3.136-4.417 2.406-.845-.742-.275-2.65 1.024-4.745 1.17-1.88 3.452-2.932 3.893-3.116l.066-.026.01-.003zm-11.227.866l.03.004.09.014c.556.091 2.886.552 3.95 2.274 1.213 1.959 1.07 4.137.009 4.417-1.064.294-2.551-1.235-3.638-2.983-1.062-1.723-.43-3.686-.44-3.726zm-.875-4.94c-.014.005 2.857-.318 4.476 1.336 1.613 1.645 1.95 3.797.977 4.305-.973.522-2.759-.632-4.201-2.095-1.17-1.194-1.246-2.815-1.25-3.36v-.176zm10.757-3.355c.01-.048 1.626 2.899.648 5.493-.953 2.562-2.81 3.853-3.78 3.33-.987-.534-.848-2.519-.042-4.857.805-2.324 3.159-3.967 3.174-3.966zM4.93 12.874c-.013.009 2.723-.946 4.682.322 1.953 1.261 2.759 3.296 1.92 4.011-.833.728-2.827-.002-4.564-1.118-1.7-1.102-2.007-3.183-2.037-3.215zm9.729-5.7c.001-.049 2.27 2.5 1.897 5.268-.354 2.73-1.881 4.406-2.943 4.11-1.081-.302-1.385-2.279-1.134-4.761.254-2.469 2.164-4.614 2.18-4.617zM1.843 8.693c-.013.011 2.449-1.537 4.687-.713 2.228.818 3.492 2.647 2.84 3.538-.647.903-2.761.628-4.729-.09-1.927-.712-2.758-2.71-2.798-2.735zM9.983.898c-.008-.049 2.877 1.982 3.172 4.8.307 2.776-.802 4.767-1.906 4.711-1.127-.057-1.884-1.94-2.25-4.454-.305-2.11.594-4.256.892-4.878l.055-.113c.022-.043.036-.065.037-.066z" transform="translate(0 656) translate(135 20) translate(70)"/>
                    </g>
                </g>
            </g>
        </g>
    </g>
</svg>
