<svg xmlns="http://www.w3.org/2000/svg" width="20" height="48" viewBox="0 0 20 48">
    <defs>
        <linearGradient id="8rej4vtz4a" x1="50%" x2="50%" y1="0%" y2="100%">
            <stop offset="0%" stop-color="#CD7F32"/>
            <stop offset="100%" stop-color="#A86829"/>
        </linearGradient>
    </defs>
    <g fill="none" fill-rule="evenodd">
        <g fill="url(#8rej4vtz4a)" transform="translate(-135 -676)">
            <g>
                <g>
                    <path d="M19.188.114c-.042.03-.815 3.126-2.653 4.808-1.78 1.589-3.646 2.582-4.724 2.096l.283-.36c-9.949 12.43-7.542 31.854 7.22 40.9l-.252.41C4.192 38.854 1.646 19.388 11.424 6.73c-.758-.893-.108-3.256 2.044-5.19C15.806-.56 19.244.09 19.188.115zM6.096 43.33c.012-.011 2.76-.83 5.162.05 2.413.89 4.221 2.102 4.096 3.244-.119 1.125-2.4 1.742-5.14.811-2.788-.936-4.166-4.131-4.118-4.105zm9.601-6.615c.017.04 1.77 1.208 2.12 3.274.344 2.1.283 4.285-.76 4.718-1.032.444-2.67-1.238-3.022-3.582-.358-2.353 1.68-4.416 1.662-4.41zm-13.272-.191c.012-.01 2.868-.196 4.964 1.157 2.104 1.366 3.51 2.893 3.098 3.95-.405 1.042-2.714 1.158-5.1-.307-2.428-1.478-3.002-4.835-2.962-4.8zm10.848-4.26c.007.041 1.424 1.54 1.24 3.579-.195 2.071-.822 4.13-1.92 4.324-1.09.207-2.217-1.732-1.985-4.045.229-2.323 2.682-3.86 2.665-3.858zM.428 29.173c.013-.006 2.839.447 4.566 2.209 1.732 1.775 2.728 3.54 2.075 4.462-.642.908-2.89.526-4.86-1.398C.203 32.5.398 29.133.428 29.174zm11.518-1.72c-.002.042 1.042 1.801.387 3.718-.673 1.945-1.776 3.775-2.88 3.726-1.1-.036-1.729-2.135-.975-4.31.754-2.186 3.484-3.133 3.468-3.134zM.297 21.616c.015-.003 2.673 1.065 3.969 3.145 1.299 2.094 1.868 4.003 1.023 4.745-.83.73-2.925-.121-4.416-2.406-1.522-2.313-.596-5.53-.576-5.484zm11.227.866c-.011.04.622 2.003-.44 3.726-1.087 1.748-2.575 3.277-3.638 2.983-1.062-.28-1.205-2.458.009-4.417 1.215-1.968 4.085-2.289 4.07-2.292zm.876-4.94c-.002.002-.002.014-.002.035v.15c-.004.546-.081 2.167-1.25 3.361-1.443 1.463-3.228 2.617-4.202 2.095-.973-.508-.636-2.66.978-4.305 1.618-1.654 4.49-1.33 4.476-1.337zM1.643 14.186c.015 0 2.368 1.642 3.174 3.966.806 2.338.945 4.323-.043 4.856-.97.524-2.826-.767-3.78-3.329-.978-2.594.638-5.541.649-5.493zm12.712-1.321l.027.008c-.03.032-.337 2.113-2.038 3.215-1.736 1.116-3.73 1.846-4.564 1.118-.838-.715-.032-2.75 1.92-4.01 1.84-1.193 4.366-.422 4.655-.331zM4.654 7.174c.015.003 1.926 2.148 2.18 4.617.25 2.482-.053 4.459-1.134 4.76-1.063.297-2.59-1.38-2.944-4.11-.34-2.522 1.516-4.864 1.848-5.22l.044-.044zM17.47 8.693c-.04.025-.87 2.023-2.798 2.734-1.967.719-4.082.994-4.728.09-.652-.89.611-2.719 2.84-3.537 2.238-.824 4.7.724 4.686.713zM9.33.898c.017.005 1.346 2.556.985 5.057-.366 2.514-1.123 4.397-2.25 4.454-1.105.056-2.214-1.935-1.906-4.712C6.453 2.88 9.338.85 9.33.898z" transform="translate(0 656) translate(135 20)"/>
                </g>
            </g>
        </g>
    </g>
</svg>
