<svg xmlns="http://www.w3.org/2000/svg" width="124" height="64" viewBox="0 0 124 64">
    <g fill="none" fill-rule="evenodd">
        <circle cx="21" cy="21" r="21" fill="#E3E8F7"/>
        <rect width="25.258" height="5.773" x="8" y="48" fill="#E3E8F7" rx="2.887"/>
        <rect width="25.258" height="5.773" x="90" y="48" fill="#E3E8F7" rx="2.887"/>
        <rect width="25.258" height="5.773" x="8" y="57" fill="#E3E8F7" rx="2.887"/>
        <rect width="25.258" height="5.773" x="90" y="57" fill="#E3E8F7" rx="2.887"/>
        <circle cx="103" cy="21" r="21" fill="#E3E8F7"/>
        <path fill="#C7D1EC" fill-rule="nonzero" d="M50.88 63l13.56-41.58H53.76L46.5 48.84l-8.58-27.42H25.5L40.2 63h10.68zm27.57.6c2.16 0 4.22-.26 6.18-.78s3.68-1.33 5.16-2.43 2.65-2.51 3.51-4.23c.86-1.72 1.29-3.78 1.29-6.18 0-2.28-.41-4.14-1.23-5.58-.82-1.44-1.83-2.63-3.03-3.57-1.2-.94-2.52-1.7-3.96-2.28-1.44-.58-2.76-1.15-3.96-1.71-1.2-.56-2.21-1.19-3.03-1.89-.82-.7-1.23-1.61-1.23-2.73 0-1.28.45-2.15 1.35-2.61.9-.46 1.89-.69 2.97-.69 1.4 0 2.73.22 3.99.66 1.26.44 2.47 1.04 3.63 1.8l1.86-8.34c-1.56-.92-3.22-1.53-4.98-1.83-1.76-.3-3.54-.45-5.34-.45-2.08 0-4.05.23-5.91.69-1.86.46-3.49 1.2-4.89 2.22-1.4 1.02-2.52 2.34-3.36 3.96-.84 1.62-1.26 3.59-1.26 5.91 0 2.32.4 4.23 1.2 5.73.8 1.5 1.81 2.72 3.03 3.66 1.22.94 2.53 1.71 3.93 2.31 1.4.6 2.71 1.18 3.93 1.74 1.22.56 2.23 1.18 3.03 1.86.8.68 1.2 1.6 1.2 2.76 0 1.4-.47 2.37-1.41 2.91s-2.03.81-3.27.81c-1.92 0-3.73-.23-5.43-.69-1.7-.46-3.31-1.33-4.83-2.61l-1.08 8.52c1.8 1.08 3.71 1.86 5.73 2.34 2.02.48 4.09.72 6.21.72z"/>
    </g>
</svg>
