<svg width="24" height="24" viewBox="0 0 24 24" fill="none" xmlns="http://www.w3.org/2000/svg">
<g clip-path="url(#clip0_1807_5789)">
<path fill-rule="evenodd" clip-rule="evenodd" d="M19.8752 4.70964C19.7954 4.63283 19.6872 4.59524 19.5768 4.60084C15.7176 4.82644 13.96 3.91123 12.2768 2.31044C12.1224 2.16324 11.88 2.16324 11.7256 2.31044C10.0416 3.91123 8.28959 4.82723 4.424 4.60084C4.3152 4.59924 4.2064 4.63364 4.1256 4.70964C4.0456 4.78403 4 4.89043 4 5.00003V13.4C4 17.7512 8.72639 20.7416 11.92 21.392C11.9464 21.3968 11.9728 21.4 12 21.4C12.0272 21.4 12.0536 21.3968 12.08 21.392C15.2752 20.7416 20 17.7512 20 13.4V5.00003C20.0016 4.88963 19.955 4.78403 19.8752 4.70964Z" fill="url(#paint0_linear_1807_5789)"/>
<path d="M9.33111 15.5334C10.4735 15.5334 11.3471 15.2358 11.9519 14.631C12.5663 14.0262 12.8735 13.2102 12.8735 12.2022C12.8735 11.1942 12.5663 10.3878 11.9423 9.77341C11.3279 9.14941 10.4543 8.84221 9.32151 8.84221H6.78711V15.5334H9.33111ZM8.26551 10.1862H9.22551C10.0223 10.1862 10.5791 10.3686 10.8959 10.7238C11.2223 11.079 11.3855 11.5782 11.3855 12.2022C11.3855 13.431 10.8095 14.1894 9.23511 14.1894H8.26551V10.1862Z" fill="#3C3C3C"/>
<path d="M16.4519 15.5334V10.1862H18.2375V8.84221H13.1591V10.1862H14.9735V15.5334H16.4519Z" fill="#3C3C3C"/>
</g>
<defs>
<linearGradient id="paint0_linear_1807_5789" x1="4" y1="21.4" x2="20" y2="21.4" gradientUnits="userSpaceOnUse">
<stop stop-color="#FFE640"/>
<stop offset="1" stop-color="#FFC81E"/>
</linearGradient>
<clipPath id="clip0_1807_5789">
<rect width="16" height="19.2" fill="white" transform="translate(4 2.20001)"/>
</clipPath>
</defs>
</svg>
