<svg xmlns="http://www.w3.org/2000/svg" width="100" height="100" viewBox="0 0 100 100">
    <g fill="none" fill-rule="evenodd">
        <circle cx="50" cy="50" r="50" fill="#F5F7FD"/>
        <g stroke="#263644" stroke-linecap="round">
            <path stroke-linejoin="round" d="M66.358 54.707l-8.24 8.24v6.592l8.129-8.128m-8.129 8.128v6.395l8.17-8.17M33.253 54.707l8.24 8.24v6.592l-8.129-8.128m8.129 8.128v6.395l-8.17-8.17"/>
            <path d="M40.889 23.09c-6.435.755-14.297 4.273-16.615 11.283l-6.083 16.34 8.487 4.954 5.498-6.089c3.527 10.583-1.386 32.126-1.386 32.126h38.3s-4.914-21.543-1.387-32.126l5.503 6.09 8.482-4.956-6.078-16.339c-2.49-7.01-10.18-10.528-16.615-11.283m-9.055-5.086h5.1c.826 0 1.582.45 1.98 1.174l2.071 3.79-4.047 4.047-5.104-3.102-5.1 3.102-4.047-4.046 2.071-3.79a2.252 2.252 0 0 1 1.98-1.175h5.096zm.488 11.254c0 .27-.216.49-.488.49a.49.49 0 0 1-.49-.49.49.49 0 0 1 .49-.488c.272 0 .488.218.488.488zm0 5.166c0 .27-.216.489-.488.489a.49.49 0 0 1-.49-.49.49.49 0 0 1 .49-.488c.272 0 .488.219.488.489z"/>
            <path stroke-linejoin="round" d="M19.85 46.256l7.21 4.294m52.803-4.294l-7.211 4.294"/>
        </g>
        <path d="M38 35h24v24H38z"/>
        <path fill="#000F49" d="M44.433 45.867L40 50.31l4.433 4.445v-3.334h7.79V49.2h-7.79v-3.333zM60 43.644L55.567 39.2v3.333h-7.79v2.223h7.79v3.333L60 43.644z"/>
    </g>
</svg>
