<svg xmlns="http://www.w3.org/2000/svg" width="100" height="100" viewBox="0 0 100 100">
    <g fill="none" fill-rule="evenodd">
        <circle cx="50" cy="50" r="50" fill="#F5F7FD"/>
        <g stroke="#263644" stroke-linecap="round">
            <path stroke-linejoin="round" d="M33.81 34.622C21.786 32.22 21 38.442 21 38.442l25.245 5.043m-10.96-6.074l.133-.665c.514-2.578 1.357-5.086 2.598-7.403 3.033-5.666 7.228-8.589 11.138-10.062 5.401-2.034 11.394-1.58 16.61.891C84.402 29.001 77.205 49.67 77.205 49.67L66.45 47.52M46.573 34.904L56.7 36.927c6.571 1.313 10.853 7.67 9.615 14.255l-.06.316-18.575-3.71s.752-1.51.97-3.23c.259-2.04-1.128-3.927-3.144-4.33a2.715 2.715 0 0 1 1.064-5.325l.003.001z"/>
            <path d="M73.558 81.536l-1.873-7.692c-.944-4.927.995-9.723 2.881-14.317a40.038 40.038 0 0 0 2.64-9.857M33.612 60.167c.013-.73-.578-1.31-1.304-1.387-1.052-.112-1.958-.563-2.523-1.138a1.532 1.532 0 0 1-.199-1.87c4.825-7.854 3.51-3.517 5.183-14.58m11.338 40.784c.612-1.898.658-3.451.23-5.561"/>
            <path stroke-linejoin="round" d="M66.254 51.498l-4.647 9.667-12.516 15-19.058.25V63.97l23.614-6.276 3.455-8.024M37.146 62.08v11.15m7.194-13.063v12.554m7.388-14.517v9.45m-14.582.686l-4.785 1.366m11.98-3.556l-4.9 1.302m12.287-3.968l-5.11 1.618"/>
        </g>
    </g>
</svg>
