<svg xmlns="http://www.w3.org/2000/svg" width="100" height="100" viewBox="0 0 100 100">
    <g fill="none" fill-rule="evenodd">
        <circle cx="50" cy="50" r="50" fill="#F5F7FD"/>
        <g stroke="#263644" stroke-linecap="round" stroke-linejoin="round">
            <path d="M32.494 55.704a18.11 18.11 0 0 1 4.765-8.356c7.105-7.105 18.625-7.105 25.731 0a18.11 18.11 0 0 1 4.764 8.354m.157 8.356a18.108 18.108 0 0 1-4.92 9.022c-7.107 7.105-18.627 7.105-25.732 0a18.106 18.106 0 0 1-4.921-9.022m-2.302-3.135l-.017-.04a2.122 2.122 0 0 1 1.242-2.801 54.7 54.7 0 0 1 37.726 0 2.122 2.122 0 0 1 1.242 2.801l-.016.04c-.432 1.041-1.608 1.572-2.665 1.182a50.42 50.42 0 0 0-34.847 0c-1.058.39-2.234-.14-2.665-1.182zM35.529 53.531c.436-.114.874-.222 1.312-.326"/>
            <path stroke-dasharray="6.146,7.17" d="M40.006 52.55a57.871 57.871 0 0 1 22.25.396"/>
            <path d="M63.833 53.307a58.1 58.1 0 0 1 1.31.336"/>
            <path stroke-dasharray="6,7" d="M65.199 64.533a47.396 47.396 0 0 0-30.157.003"/>
            <path d="M57.943 43.78c.347-.965.542-2.702.688-3.716.284-1.982.466-4.053 1.488-5.774.944-1.589 2.522-2.714 4.2-3.49 1.677-.775 3.477-1.24 5.235-1.81A45.442 45.442 0 0 0 81.58 23c-.387 1.772-.044 3.608.057 5.42.1 1.81-.11 3.791-1.355 5.11-.983 1.043-2.429 1.48-3.805 1.877l-4.865 1.4m7.773-2.48c.84 1.342.548 3.278-.65 4.313-.759.656-1.763.936-2.732 1.198l-6.027 1.628m7.028-1.94c.317 1.079.329 2.312-.277 3.259-.506.791-1.379 1.285-2.276 1.564-.898.28-1.84.374-2.762.555a15.073 15.073 0 0 0-5.728 2.436m-24.245-3.56c-.347-.965-.543-2.702-.688-3.716-.284-1.982-.466-4.053-1.488-5.774-.944-1.589-2.522-2.714-4.2-3.49-1.677-.775-3.477-1.24-5.235-1.81A45.442 45.442 0 0 1 18.079 23c.387 1.772.044 3.608-.057 5.42-.1 1.81.11 3.791 1.354 5.11.983 1.043 2.43 1.48 3.806 1.877l4.865 1.4m-7.773-2.48c-.84 1.342-.548 3.278.65 4.313.759.656 1.763.936 2.732 1.198l6.028 1.628m-7.03-1.94c-.316 1.079-.328 2.312.278 3.259.506.791 1.379 1.285 2.276 1.564.897.28 1.84.374 2.762.555a15.074 15.074 0 0 1 5.728 2.436"/>
        </g>
        <path d="M40 68h20v20H40z"/>
        <path fill="#000F49" d="M60 82v-2l-8.421-5v-5.5c0-.83-.705-1.5-1.579-1.5s-1.579.67-1.579 1.5V75L40 80v2l8.421-2.5V85l-2.105 1.5V88L50 87l3.684 1v-1.5L51.58 85v-5.5L60 82z"/>
    </g>
</svg>
