<svg xmlns="http://www.w3.org/2000/svg" width="100" height="100" viewBox="0 0 100 100">
    <g fill="none" fill-rule="evenodd">
        <circle cx="50" cy="50" r="50" fill="#F5F7FD"/>
        <g stroke="#263644" stroke-linecap="round" stroke-linejoin="round">
            <path d="M72.648 48.482c-2.163-6.39-7.279-11.664-14.269-13.616-.106-.032-.212-.06-.32-.088a6.025 6.025 0 0 0-.913-.165c-8.569-.988-16.784 3.724-20.342 11.583l-3.107 6.864 28.55 7.167m-28.55-7.167l-14.505 6.298s6.218-.552 10.398 4.097c1.164 1.298 2.538 2.395 4.133 3.094 3.402 1.488 9.33 2.757 16.707-1.093l10.296-5.612-27.029-6.784zm-14.505 6.298c-.694.436-1.143 1.14-1.188 1.955a2.605 2.605 0 0 0 .968 2.152c.52.415 1.18.609 1.838.7a7.08 7.08 0 0 0 4.946-1.16l-6.564-3.647zm36.435-24.956a2.84 2.84 0 1 1 5.504 1.325l-5.504-1.325zm0 24.162s6.114-10.251 3.609-20.888m19.938 27.78a8.706 8.706 0 0 1-12.313 0 8.709 8.709 0 0 1 0-12.315c3.4-3.4 8.913-3.4 12.313 0 3.4 3.4 3.4 8.914 0 12.315zM78.523 56.668c-.287.137-.603.296-.94.478"/>
            <path stroke-dasharray="4.845,5.652" d="M75.878 58.166c-1.584 1.052-3.3 2.507-4.552 4.42"/>
            <path d="M70.815 63.44c-.165.31-.319.627-.457.954M79.174 53.141s-10.22 3.355-12.313 12.315"/>
        </g>
    </g>
</svg>
