<svg xmlns="http://www.w3.org/2000/svg" width="100" height="100" viewBox="0 0 100 100">
    <g fill="none" fill-rule="evenodd">
        <circle cx="50" cy="50" r="50" fill="#F5F7FD"/>
        <path stroke="#000F49" stroke-linecap="round" stroke-linejoin="round" d="M64.213 32.389c0 7.947-6.443 14.39-14.39 14.39-7.946 0-14.388-6.443-14.388-14.39C35.435 24.442 41.877 18 49.824 18c7.946 0 14.389 6.442 14.389 14.389zM53.748 22.882c-.325.42-.664.88-1.003 1.38"/>
        <path stroke="#000F49" stroke-dasharray="6.024,7.028" stroke-linecap="round" stroke-linejoin="round" d="M51.563 27.579c-1.084 3.173-1.165 6.921.23 10.758"/>
        <path stroke="#000F49" stroke-linecap="round" stroke-linejoin="round" d="M52.33 39.984c.213.515.463 1.036.759 1.564l-.759-1.564zM49.824 18s-8.026 15.861 0 28.778"/>
        <path stroke="#000F49" stroke-linecap="round" d="M66.77 31.09h7.877v30.264c0 2.831-.662 5.639-2.038 8.113-2.66 4.78-8.77 10.856-22.785 12.483-14.015-1.627-20.126-7.703-22.786-12.483C25.662 66.993 25 64.185 25 61.354V31.091h7.86"/>
        <path fill="#000F49" fill-rule="nonzero" d="M45.073 69.743c.737 0 1.451-.068 2.143-.204a7.723 7.723 0 0 0 2.026-.707l-.6-1.843c-.88.414-1.87.62-2.968.62-.698 0-1.316-.119-1.852-.358a3.643 3.643 0 0 1-1.338-.999 4.511 4.511 0 0 1-.815-1.493 5.853 5.853 0 0 1-.281-1.843c0-.685.087-1.328.262-1.93.174-.6.44-1.124.795-1.57a3.786 3.786 0 0 1 1.338-1.057c.537-.259 1.173-.388 1.91-.388 1.022 0 1.927.22 2.715.66l.621-2.037a4.475 4.475 0 0 0-1.658-.63 10.893 10.893 0 0 0-1.775-.146c-1.086 0-2.062.171-2.928.514a6.154 6.154 0 0 0-2.211 1.464 6.446 6.446 0 0 0-1.396 2.27c-.324.879-.485 1.855-.485 2.928 0 .983.148 1.888.446 2.715a6.129 6.129 0 0 0 1.29 2.143 5.762 5.762 0 0 0 2.046 1.396c.801.33 1.706.495 2.715.495zm9.047-.233v-4.887h.64l3.336 4.887h3.22l-4.054-5.469a3.647 3.647 0 0 0 1.29-.543c.38-.258.707-.572.979-.94a4.32 4.32 0 0 0 .63-1.242c.149-.459.223-.94.223-1.444 0-.763-.13-1.39-.388-1.882a3.016 3.016 0 0 0-1.057-1.163 4.335 4.335 0 0 0-1.551-.592 10.296 10.296 0 0 0-1.891-.165h-3.918v13.44h2.541zm.892-6.885h-.892v-4.421h1.047c.22 0 .43.006.63.019.201.013.392.052.573.116.388.117.691.34.911.67.22.33.33.766.33 1.309h-.02c0 .75-.242 1.322-.727 1.716-.485.394-1.102.591-1.852.591z"/>
    </g>
</svg>
