<svg width="15" height="36" viewBox="0 0 15 36" fill="none" xmlns="http://www.w3.org/2000/svg">
<path fill-rule="evenodd" clip-rule="evenodd" d="M8.92362 5.26328C9.73758 5.62847 11.1478 4.88349 12.4929 3.69166C13.6928 2.60191 14.2917 0.721617 14.4532 0.214593L14.4532 0.214587C14.4787 0.13457 14.4933 0.0887579 14.4976 0.085656C14.5397 0.066692 11.9424 -0.420556 10.1756 1.15617C8.54974 2.60689 8.0584 4.37937 8.63073 5.04947C1.24372 14.5428 3.16756 29.1411 14.4026 35.9753C14.4659 35.8729 14.529 35.7705 14.592 35.6681C3.54629 28.9489 1.65652 14.5944 8.92362 5.26328ZM7.51345 8.63834C8.00157 9.31567 9.59902 9.10928 11.0857 8.57039C12.374 8.09793 13.0142 6.87043 13.1652 6.58102C13.1848 6.54341 13.1961 6.52165 13.1996 6.51943C13.2 6.51977 13.1974 6.51828 13.1921 6.51515C13.0629 6.43909 11.2829 5.39144 9.65825 5.98496C7.97482 6.59845 7.02024 7.97049 7.51345 8.63834ZM9.32632 12.0668C8.01448 12.9038 6.50745 13.4515 5.87764 12.9053C5.24465 12.3693 5.85344 10.843 7.32863 9.89734C8.73956 8.99044 10.6828 9.59845 10.8537 9.65193C10.8622 9.65457 10.8663 9.65586 10.8658 9.65555C10.8633 9.65826 10.8581 9.68008 10.8492 9.71785L10.8492 9.71788C10.7781 10.0189 10.4681 11.3325 9.32632 12.0668ZM5.24842 17.3871C5.98363 17.7788 7.33272 16.9134 8.42263 15.8163C9.37362 14.852 9.36831 13.5161 9.36712 13.2167C9.36697 13.1801 9.36689 13.159 9.36862 13.156C9.36915 13.1562 9.36444 13.1558 9.35485 13.155C9.16888 13.1402 7.14983 12.9788 5.98681 14.1582C4.76763 15.3921 4.5129 17.0063 5.24842 17.3871ZM8.3742 19.6562C7.55335 20.967 6.42969 22.1137 5.62603 21.8934C4.82364 21.6835 4.71602 20.0494 5.63271 18.5807C6.50209 17.1833 8.49192 16.893 8.69143 16.8639L8.69151 16.8638L8.69155 16.8638L8.69196 16.8638C8.70283 16.8622 8.7082 16.8614 8.70758 16.8613C8.70666 16.8645 8.71127 16.8841 8.71926 16.9181C8.78627 17.2033 9.0914 18.5018 8.3742 19.6562ZM7.14199 26.1729C7.97654 26.2098 8.80981 24.8368 9.31831 23.3779C9.76029 22.0933 9.17715 20.9027 9.04944 20.642L9.04943 20.642L9.04935 20.6418C9.03424 20.611 9.02553 20.5932 9.02569 20.5899C9.02637 20.5899 9.02056 20.5921 9.0089 20.5966C8.81185 20.6725 6.94332 21.3923 6.40583 22.9398C5.8362 24.5717 6.31095 26.146 7.14199 26.1729ZM10.9661 26.8815C10.8183 28.4349 10.3445 29.9783 9.51541 30.1243C8.69137 30.2795 7.83963 28.8256 8.01475 27.091C8.17742 25.4519 9.82781 24.3337 10.0118 24.2091L10.0118 24.209L10.0251 24.2C10.0276 24.1982 10.0287 24.1974 10.0284 24.1974C10.0289 24.2007 10.0415 24.2162 10.0633 24.2433L10.0633 24.2433C10.2473 24.4711 11.0896 25.5143 10.9661 26.8815ZM12.8881 33.5296C13.6758 33.205 13.722 31.5662 13.4622 29.9912C13.2256 28.6089 12.1463 27.762 11.9072 27.5743C11.8782 27.5516 11.8616 27.5386 11.8603 27.5354C11.8611 27.5351 11.8554 27.5414 11.8442 27.5538C11.6813 27.7326 10.3517 29.1929 10.6045 30.843C10.8703 32.6013 12.1077 33.8624 12.8881 33.5296ZM4.65311 4.27293C4.42067 6.35581 5.25872 7.84891 6.09327 7.80687C6.94469 7.76389 7.51655 6.35202 7.79325 4.46604C8.06613 2.59051 7.06187 0.677353 7.04945 0.673561C7.05518 0.636897 4.87568 2.16002 4.65311 4.27293ZM4.30657 12.4138C3.50386 12.636 2.35027 11.3787 2.08249 9.33124C1.8007 7.25595 3.51501 5.34374 3.51628 5.38072C3.52806 5.38262 4.97141 6.99171 5.16277 8.84292C5.35254 10.7049 5.12329 12.1872 4.30657 12.4138ZM0.751133 14.7604C1.47166 16.6818 2.87393 17.6502 3.60722 17.257C4.35325 16.8569 4.24818 15.3685 3.63938 13.6146C3.03026 11.8715 1.25228 10.6398 1.24113 10.6401C1.23285 10.6041 0.0119488 12.8144 0.751133 14.7604ZM3.99644 22.1294C3.36854 22.6772 1.78605 22.0384 0.659335 20.3247C-0.490086 18.5904 0.209425 16.1782 0.224645 16.2123C0.235407 16.2095 2.24392 17.0104 3.22303 18.5705C4.20436 20.1414 4.63485 21.5728 3.99644 22.1294ZM1.66939 25.8343C3.15826 27.2777 4.85633 27.5641 5.34127 26.883C5.83448 26.1914 5.0824 24.8677 3.77343 23.5361C2.46859 22.215 0.333506 21.8755 0.323317 21.8803C0.300933 21.8499 0.153223 24.375 1.66939 25.8343ZM7.92345 31.2227C7.61778 32.0037 5.87322 32.091 4.07008 30.9926C2.23541 29.8839 1.80238 27.3664 1.83199 27.392C1.84154 27.3854 3.99939 27.2457 5.58252 28.2602C7.17233 29.2843 8.23549 30.4297 7.92345 31.2227ZM7.7173 35.5756C9.78791 36.2738 11.5108 35.8111 11.6009 34.9675C11.6952 34.1106 10.3292 33.2019 8.506 32.5344C6.69108 31.8748 4.61506 32.4883 4.60582 32.4965C4.56952 32.4772 5.61104 34.8736 7.7173 35.5756Z" fill="url(#paint0_linear_2221_274)"/>
<defs>
<linearGradient id="paint0_linear_2221_274" x1="0" y1="0" x2="0" y2="35.9753" gradientUnits="userSpaceOnUse">
<stop stop-color="#FFCB05"/>
<stop offset="1" stop-color="#E0B900"/>
</linearGradient>
</defs>
</svg>
