<svg width="16" height="16" viewBox="0 0 16 16" fill="none" xmlns="http://www.w3.org/2000/svg">
<path d="M3.34545 8C3.34545 7.49192 3.43163 7.0048 3.58545 6.54791L0.893087 4.53476C0.36836 5.57796 0.0727234 6.75343 0.0727234 8C0.0727234 9.24551 0.367996 10.4203 0.891996 11.4628L3.58291 9.44569C3.43054 8.99094 3.34545 8.5056 3.34545 8Z" fill="#FBBC05"/>
<path d="M8.07272 3.37778C9.19999 3.37778 10.2182 3.76889 11.0182 4.40889L13.3454 2.13334C11.9273 0.924447 10.1091 0.17778 8.07272 0.17778C4.91126 0.17778 2.19417 1.94809 0.893082 4.53476L3.58545 6.54791C4.20581 4.704 5.97417 3.37778 8.07272 3.37778Z" fill="#EB4335"/>
<path d="M8.07272 12.6222C5.97417 12.6222 4.20581 11.296 3.58545 9.45209L0.893082 11.4649C2.19417 14.0519 4.91126 15.8222 8.07272 15.8222C10.024 15.8222 11.8869 15.1438 13.2851 13.8727L10.7294 11.9381C10.0084 12.3829 9.10035 12.6222 8.07272 12.6222Z" fill="#34A853"/>
<path d="M15.7091 8C15.7091 7.53778 15.6364 7.04 15.5273 6.57778H8.07272V9.6H12.3636C12.1491 10.6304 11.5651 11.4226 10.7295 11.9381L13.2851 13.8727C14.7538 12.538 15.7091 10.5497 15.7091 8Z" fill="#4285F4"/>
</svg>
