<svg width="280" height="32" viewBox="0 0 280 32" fill="none" xmlns="http://www.w3.org/2000/svg">
<path d="M47.0573 21.1637V16.242H43.1116V21.1637H40.3587V8.9093H43.1116V13.7727H47.0573V8.9093H49.8185V21.1637H47.0573Z" fill="white"/>
<path d="M52.2044 21.1637V8.9093H59.9207V11.3452H54.9823V13.5892H59.537V16.0334H54.9823V18.6611H59.9207V21.1637H52.2044Z" fill="white"/>
<path d="M66.3941 17.3348H64.7758V21.1637H62.0229V8.9093H67.1032C70.0813 8.9093 71.1825 10.0772 71.1825 12.3796V13.8812C71.1825 15.4077 70.6319 16.4338 69.4056 16.951L72.3587 21.122H69.097L66.3941 17.3348ZM68.4296 12.6382C68.4296 11.7122 68.0792 11.3452 66.9614 11.3452H64.7758V14.9489H66.9614C68.1376 14.9489 68.4296 14.5235 68.4296 13.6059V12.6382Z" fill="white"/>
<path d="M83.0365 17.5766C83.0365 19.4286 81.7518 21.3222 78.2982 21.3222C74.8446 21.3222 73.56 19.4286 73.56 17.5766V12.4713C73.56 10.611 74.8446 8.71741 78.2982 8.71741C81.7518 8.71741 83.0365 10.611 83.0365 12.4713V17.5766ZM80.2836 12.7049C80.2836 11.7539 79.6747 11.1616 78.2982 11.1616C76.9218 11.1616 76.3128 11.7539 76.3128 12.7049V17.3347C76.3128 18.294 76.9218 18.878 78.2982 18.878C79.6747 18.878 80.2836 18.294 80.2836 17.3347V12.7049Z" fill="white"/>
<path d="M237.606 21.1637H234.745L234.077 18.7779H229.981L229.322 21.1637H226.461L230.19 8.93433H233.86L237.606 21.1637ZM230.607 16.4839H233.435L232.042 11.3535L230.607 16.4839Z" fill="white"/>
<path d="M243.203 21.3222C240.225 21.3222 238.724 19.7956 238.724 17.5766V12.4713C238.724 10.2106 240.225 8.71741 243.203 8.71741C244.517 8.73001 245.826 8.86124 247.116 9.10948L246.782 11.512C245.596 11.3389 244.401 11.2413 243.203 11.22C241.827 11.22 241.477 11.9374 241.477 12.8884V17.0594C241.438 17.2956 241.456 17.5374 241.529 17.7652C241.602 17.993 241.728 18.2003 241.897 18.3703C242.065 18.5402 242.271 18.668 242.498 18.7432C242.725 18.8184 242.967 18.8388 243.203 18.8029C243.762 18.8057 244.319 18.7666 244.872 18.6861V14.9405H247.458V20.6882C246.077 21.0999 244.644 21.3134 243.203 21.3222Z" fill="white"/>
<path d="M258.861 8.9093V17.5767C258.861 19.4286 257.702 21.3223 254.248 21.3223C250.795 21.3223 249.635 19.4286 249.635 17.5767V8.9093H252.388V17.3181C252.388 18.3108 252.872 18.878 254.248 18.878C255.625 18.878 256.1 18.3108 256.1 17.3181V8.9093H258.861Z" fill="white"/>
<path d="M261.155 21.1637V8.9093H268.855V11.3452H263.908V13.5892H268.471V16.0334H263.916V18.6611H268.863V21.1637H261.155Z" fill="white"/>
<path d="M23.2158 10.828L23.1157 10.9364C22.2815 11.7706 21.5891 12.4297 20.7966 13.1221L21.6308 13.5058C22.465 12.8051 23.2992 12.0793 24.1334 11.3285C23.7605 10.1815 23.2974 9.06578 22.7487 7.99172L22.123 7.81653C22.44 8.60068 22.8071 9.55166 23.1908 10.6778L23.2158 10.828Z" fill="white"/>
<path d="M24.5256 23.5245V23.6413H24.4088C23.1241 23.9833 21.8394 24.2586 20.6048 24.4755H20.5047L20.4213 24.4171H20.3712C20.3712 24.5756 20.3712 24.7508 20.3045 24.9594L20.8467 25.2513L21.7393 25.0845H21.8311L21.9062 25.1345C22.5986 25.5516 22.6903 25.61 23.2409 25.9103C23.708 25.8186 24.1752 25.7101 24.6507 25.585C24.6507 25.585 24.951 25.0845 25.6517 23.7998C25.3764 23.5746 25.3014 23.4995 24.7591 23.0574C24.7007 23.2159 24.6424 23.3744 24.5673 23.5495" fill="white"/>
<path d="M15.5662 19.6204C15.3965 20.4192 15.2712 21.2269 15.1908 22.0396V22.2565H14.4567C13.9161 22.2602 13.3757 22.2324 12.8384 22.1731H12.7466L12.6799 22.098C11.9912 21.2892 11.3796 20.4178 10.853 19.4953V19.4285V19.3535C10.9179 18.5074 11.0632 17.6694 11.2867 16.8509L11.3368 16.659H11.5453C12.0715 16.7186 12.6008 16.7464 13.1303 16.7424H13.756L13.8311 16.8592C14.3502 17.731 14.927 18.5671 15.5579 19.3618L15.6246 19.4536L15.5662 19.6204ZM17.001 21.6308V21.5057C17.318 19.8373 17.5683 18.8363 17.952 17.4598L17.9937 17.3097H18.1439H18.4192C17.9186 16.7257 17.5015 16.2002 17.1345 15.708C15.5095 15.1084 14.0225 14.1862 12.7633 12.9968C11.99 13.021 11.2162 12.9707 10.4525 12.8467C10.2023 13.3222 9.97704 13.7727 9.77683 14.1814C9.8281 14.3233 9.88657 14.4625 9.95201 14.5985V14.6652V14.732C9.81402 15.7577 9.78605 16.7952 9.8686 17.8269V17.9186L9.8102 17.9854C9.52025 18.2739 9.30544 18.629 9.18455 19.0198V19.1199H9.03439C9.63313 21.2133 10.8341 23.0844 12.488 24.5005L12.1293 24.1168L12.0125 23.9833L12.0876 23.8331C12.2402 23.5819 12.4253 23.3519 12.6381 23.1491L12.78 23.0073L12.9468 23.1241C13.7135 23.6603 14.5131 24.1479 15.341 24.5839L15.733 24.9593C16.5672 24.8842 17.4014 24.7758 18.2356 24.6673C18.3024 24.1168 18.3775 23.6246 18.5026 22.9989C18.0438 22.6152 17.5766 22.1647 17.0177 21.6559L17.001 21.6308Z" fill="white"/>
<path d="M25.4682 21.0053L25.9186 20.9052C26.3608 19.6121 26.5359 19.145 27.3368 17.1095L27.0782 16.6591C26.0187 15.7415 25.7101 15.4828 24.7507 14.682L24.634 14.5902V14.4401L24.8425 13.6059C23.4744 13.8812 22.0646 14.2399 20.6715 14.6653C20.5047 15.5412 20.3879 16.2253 20.2961 16.8927C20.9968 16.7425 21.6976 16.5673 22.3983 16.3838L22.5318 16.3421L22.6402 16.4505C24.0083 17.852 24.2586 18.1189 25.7685 19.5788L25.8769 19.6789L25.8269 19.8207C25.6767 20.2879 25.5599 20.6549 25.4265 21.022" fill="white"/>
<path d="M11.4869 16.9427C11.262 17.7606 11.1195 18.599 11.0615 19.4453C11.5839 20.3311 12.1841 21.1686 12.855 21.9479C13.5532 22.0212 14.2556 22.0463 14.9572 22.023C15.036 21.1985 15.1641 20.3795 15.341 19.5704C14.7027 18.7512 14.1202 17.89 13.5975 16.9927C12.8931 17.0122 12.1882 16.9871 11.4869 16.9177" fill="white"/>
<path d="M26.0188 9.35968C26.5217 9.11268 27.04 8.89812 27.5704 8.71734C27.4641 8.06076 27.2966 7.4156 27.0699 6.79033C26.3952 6.31516 25.6807 5.89928 24.9343 5.54736C24.4067 5.72827 23.8912 5.94282 23.391 6.1897C23.6048 6.81026 23.7831 7.4425 23.9249 8.08335C24.6504 8.46194 25.3499 8.88832 26.0188 9.35968Z" fill="white"/>
<path d="M25.5683 11.2534C25.4181 12.2794 25.268 12.9718 25.0761 13.756C25.0261 13.9896 24.9593 14.2231 24.9009 14.4817L26.6861 15.9916L27.3451 16.5589L27.7205 16.4087C28.6799 16 29.5474 15.5745 30.2899 15.1908C30.5186 14.0789 30.6388 12.9474 30.6486 11.8123C29.9117 11.145 29.1345 10.5237 28.3212 9.95203C27.5423 10.3949 26.7403 10.7959 25.9187 11.1533L25.5683 11.2951" fill="white"/>
<path d="M20.5214 24.2586C21.7476 24.0584 23.024 23.7831 24.3086 23.4244L24.5255 22.8572C24.8342 22.023 25.0261 21.5308 25.1929 21.0469C25.3597 20.5631 25.4765 20.2127 25.6434 19.7122C24.1251 18.2357 23.8832 17.9854 22.5068 16.5756C21.7727 16.7758 21.0386 16.951 20.3045 17.1095C19.7372 17.2263 19.1783 17.3431 18.6361 17.4348L18.219 17.5099C17.8352 18.8697 17.585 19.8624 17.268 21.5308C17.7852 22.0313 18.219 22.4234 18.6444 22.7821C19.0699 23.1408 19.7205 23.6163 20.3795 24.1335L20.5214 24.2586Z" fill="white"/>
<path d="M15.2325 24.8008C14.3939 24.362 13.5831 23.8716 12.805 23.3326C12.6085 23.5178 12.4374 23.7282 12.2961 23.9583C12.6966 24.3837 12.9969 24.7091 13.3389 25.0177C13.6682 25.3179 14.0165 25.5966 14.3817 25.8519C15.2292 26.2238 16.1017 26.536 16.9927 26.7862C17.085 26.6429 17.1942 26.5113 17.318 26.3942C16.6431 26.0172 16.0157 25.5607 15.4494 25.0344L15.2325 24.8092" fill="white"/>
<path d="M21.7393 25.3347L21.147 25.4515C20.6965 25.5349 20.2544 25.61 19.8206 25.6684C19.7911 26.0236 19.8336 26.3812 19.9458 26.7195C20.4901 26.919 21.0476 27.0807 21.6142 27.2034C21.9478 27.1366 22.5151 26.9865 22.8905 26.8697C22.9618 26.6243 23.051 26.3845 23.1574 26.1522L22.8404 25.9771L21.7393 25.3347Z" fill="white"/>
<path d="M13.122 12.9218C14.2201 13.9232 15.4924 14.7149 16.8759 15.2576L17.5016 15.5329C18.7529 14.5569 19.7122 13.7727 20.5881 13.0303C21.464 12.2878 22.1397 11.6205 22.9739 10.7863C22.5485 9.57667 22.1397 8.58397 21.8311 7.76645C21.3222 6.51515 20.9134 5.68929 20.6715 5.19711C18.8127 4.62837 16.81 4.75891 15.0407 5.56416L14.707 5.73933C13.5012 7.68492 12.7063 9.8567 12.3712 12.121C12.6084 12.4131 12.8618 12.6916 13.1303 12.9552" fill="white"/>
<path d="M29.7977 17.8268L29.6059 17.9436C28.9496 18.3496 28.2739 18.7417 27.5787 19.1199C27.3785 19.8706 27.3452 19.9541 26.9364 21.3305C27.4953 21.6725 27.4953 21.6725 28.3212 22.2231C28.9218 21.8978 29.439 21.539 29.9896 21.1887L30.1564 21.0886C30.2452 20.9499 30.318 20.8016 30.3733 20.6465C30.6252 20.1066 30.8371 19.5489 31.0073 18.978V18.903C30.6293 18.5169 30.2252 18.1573 29.7977 17.8268Z" fill="white"/>
<path d="M11.6121 9.90198C11.7706 9.38478 12.0209 8.71742 12.2127 8.23358C12.0546 8.13736 11.9065 8.02558 11.7706 7.8999C11.3743 8.29232 11.0011 8.70732 10.6528 9.14286C10.4359 9.66006 10.194 10.3942 10.0188 10.9197C10.1759 11.0694 10.3494 11.2009 10.536 11.3118C10.8446 10.878 11.2868 10.3191 11.6121 9.90198Z" fill="white"/>
<path d="M26.7112 23.8248C26.4108 24.1585 25.977 24.5839 25.6517 24.8926C25.7369 25.0245 25.8095 25.1641 25.8686 25.3097C26.3123 25.1505 26.7468 24.9667 27.17 24.7591C27.5203 24.4421 28.0042 23.9249 28.2878 23.6246C28.221 23.4552 28.1371 23.2931 28.0375 23.1407C27.6455 23.3576 27.1032 23.6329 26.7028 23.8331" fill="white"/>
<path d="M9.76015 14.6236L9.66005 14.4067C9.41718 13.8804 9.26758 13.3158 9.21793 12.7383C8.95166 13.0341 8.77262 13.3979 8.70072 13.7894C8.62189 14.2504 8.56898 14.7155 8.54222 15.1825C8.50852 15.8113 8.52526 16.4417 8.59227 17.0678C8.59628 17.1345 8.59628 17.2013 8.59227 17.268V17.3598C8.64842 17.7641 8.72639 18.1651 8.82585 18.561V18.6695C8.84038 18.7485 8.85989 18.8265 8.88424 18.903C9.0093 18.4711 9.24177 18.0779 9.55995 17.7602C9.48636 16.6908 9.53112 15.6165 9.69342 14.5569" fill="white"/>
<path d="M88.8259 21.1637V8.9093H91.6204V21.1637H88.8259Z" fill="white"/>
<path d="M96.684 13.0887V21.1637H94.0563V8.9093H97.4598L101.481 17.3348V8.9093H104.133V21.1637H100.73L96.684 13.0887Z" fill="white"/>
<path d="M111.216 21.1637H106.478V8.9093H111.216C114.227 8.9093 115.387 10.4276 115.387 12.0793V17.9187C115.353 19.5954 114.227 21.1637 111.216 21.1637ZM112.592 12.8634C112.592 11.9041 112.267 11.3702 110.924 11.3702H109.255V18.6611H110.924C112.3 18.6611 112.592 18.1272 112.592 17.1763V12.8634Z" fill="white"/>
<path d="M117.564 21.1637V8.9093H120.317V21.1637H117.564Z" fill="white"/>
<path d="M132.938 21.1637H130.069L129.41 18.7779H125.314L124.655 21.1637H121.785L125.514 8.93433H129.16L132.938 21.1637ZM125.939 16.4839H128.751L127.349 11.3535L125.939 16.4839Z" fill="white"/>
<path d="M136.943 13.0887V21.1637H134.315V8.9093H137.652L141.681 17.3348V8.9093H144.3V21.1637H140.905L136.943 13.0887Z" fill="white"/>
<path d="M154.186 21.3222C152.83 21.3295 151.487 21.0598 150.24 20.5297L150.699 18.4025C151.835 18.778 153.022 18.975 154.219 18.9864C155.637 18.9864 155.887 18.7112 155.887 17.6851C155.887 16.659 155.829 16.4588 153.827 16.0167C150.874 15.3743 150.432 14.7821 150.432 12.1376C150.432 9.69342 151.266 8.71741 154.661 8.71741C155.907 8.72487 157.148 8.86186 158.365 9.12617L158.09 11.4369C156.97 11.2216 155.834 11.1071 154.694 11.0949C153.46 11.0949 153.184 11.3118 153.184 12.2127C153.184 13.3889 153.243 13.4056 155.17 13.8811C158.507 14.6736 158.64 15.3159 158.64 17.7184C158.64 20.121 157.873 21.3222 154.186 21.3222Z" fill="white"/>
<path d="M169.718 8.9093V17.5767C169.718 19.4286 168.559 21.3223 165.114 21.3223C161.668 21.3223 160.5 19.4286 160.5 17.5767V8.9093H163.253V17.3181C163.253 18.3108 163.729 18.878 165.114 18.878C166.498 18.878 166.965 18.3108 166.965 17.3181V8.9093H169.718Z" fill="white"/>
<path d="M176.868 17.4265H174.774V21.1637H172.021V8.9093H177.026C179.996 8.9093 181.105 10.0772 181.105 12.3796V13.9729C181.097 16.267 179.846 17.4265 176.868 17.4265ZM178.336 12.6382C178.336 11.7539 178.027 11.3452 176.868 11.3452H174.774V15.0407H176.868C178.077 15.0407 178.336 14.5819 178.336 13.6976V12.6382Z" fill="white"/>
<path d="M182.749 21.1637V8.9093H190.448V11.3452H185.501V13.5892H190.056V16.0334H185.493V18.6611H190.44V21.1637H182.749Z" fill="white"/>
<path d="M196.93 17.3348H195.32V21.1637H192.559V8.9093H197.647C200.626 8.9093 201.727 10.0772 201.727 12.3796V13.8812C201.727 15.4077 201.176 16.4338 199.941 16.951L202.903 21.122H199.633L196.93 17.3348ZM198.974 12.6382C198.974 11.7122 198.623 11.3452 197.506 11.3452H195.32V14.9489H197.506C198.682 14.9489 198.974 14.5235 198.974 13.6059V12.6382Z" fill="white"/>
<path d="M208.233 21.1637V8.9093H210.986V18.6611H215.841V21.1637H208.233Z" fill="white"/>
<path d="M217.401 21.1637V8.9093H225.093V11.3452H220.146V13.5892H224.709V16.0334H220.146V18.6611H225.093V21.1637H217.401Z" fill="white"/>
</svg>
