<svg width="129" height="120" viewBox="0 0 129 120" fill="none" xmlns="http://www.w3.org/2000/svg">
<path fill-rule="evenodd" clip-rule="evenodd" d="M32.0605 73.0121H38.7569L32.8545 99.0139H36.29L39.0347 85.4312H88.2115L90.8433 99.0139V99.0141H94.2787L88.5927 73.0121H96.2199L95.8385 71.6826H70.6095V73.0121H85.8055L87.8941 83.7921H68.8407V59.7603H67.2911V83.7921H64.915V59.7603H63.3655V83.7921H60.9896V59.7603H59.44V83.7921H39.3662L39.3659 83.7919L41.5444 73.0121H57.6709V71.6826H32.442L32.0605 73.0121Z" fill="white"/>
<path fill-rule="evenodd" clip-rule="evenodd" d="M0 119.907H128.28L82.4892 6.59564H67.136V6.8186H81.442L123.312 117.236H4.96892L46.8385 6.8186H61.1445V6.59564H45.7913L0 119.907Z" fill="white"/>
<path fill-rule="evenodd" clip-rule="evenodd" d="M62.1058 10.5103H54.5845L54.9443 8.65339H53.7613L52.8578 12.785H49.3386L49.2559 13.0729H79.0244L78.9419 12.785H75.852L74.9142 8.65339H73.7312L74.1063 10.5103H66.1742V0H65.5036V10.5103H64.4754V0H63.8048V10.5103H62.7764V0H62.1058V10.5103ZM74.1596 10.774L74.5661 12.785H54.1437L54.5334 10.774H74.1596Z" fill="white"/>
</svg>
