<svg width="28" height="28" viewBox="0 0 28 28" fill="none" xmlns="http://www.w3.org/2000/svg">
<rect width="28" height="28" fill="white" fill-opacity="0.01"/>
<path fill-rule="evenodd" clip-rule="evenodd" d="M12.5 24.375C12.8452 24.375 13.125 24.6548 13.125 25C13.125 25.3138 12.8937 25.5736 12.5924 25.6182L12.5 25.625H3.5C3.15482 25.625 2.875 25.3452 2.875 25C2.875 24.6862 3.10626 24.4264 3.40764 24.3818L3.5 24.375H12.5ZM24.5 24.375C24.8452 24.375 25.125 24.6548 25.125 25C25.125 25.3138 24.8937 25.5736 24.5924 25.6182L24.5 25.625H19.5C19.1548 25.625 18.875 25.3452 18.875 25C18.875 24.6862 19.1063 24.4264 19.4076 24.3818L19.5 24.375H24.5ZM16.5 24.375C16.8452 24.375 17.125 24.6548 17.125 25C17.125 25.3138 16.8937 25.5736 16.5924 25.6182L16.5 25.625H15.5C15.1548 25.625 14.875 25.3452 14.875 25C14.875 24.6862 15.1063 24.4264 15.4076 24.3818L15.5 24.375H16.5ZM11 2.375C11.3452 2.375 11.625 2.65482 11.625 3C11.625 4.31168 12.6883 5.375 14 5.375C15.3117 5.375 16.375 4.31168 16.375 3C16.375 2.65482 16.6548 2.375 17 2.375H22.0049L22.2126 2.41054L25.2077 3.46609C25.4578 3.55421 25.625 3.79046 25.625 4.05556V8.27778C25.625 8.56154 25.4338 8.80969 25.1595 8.88209L21.625 9.814V22C21.625 22.3138 21.3937 22.5736 21.0924 22.6182L21 22.625H7C6.65482 22.625 6.375 22.3452 6.375 22V9.827L2.83846 8.88154C2.59548 8.81653 2.41827 8.61362 2.38189 8.3706L2.375 8.27778V4.05556C2.375 3.79034 2.54238 3.55401 2.79256 3.46599L5.79256 2.41043L6 2.375H11ZM10.429 3.625H6.105L3.625 4.498V7.798L7.16154 8.74427C7.40452 8.80928 7.58173 9.01218 7.61811 9.25521L7.625 9.34803V21.375H20.375V9.33333C20.375 9.0811 20.526 8.85701 20.7523 8.75947L20.8405 8.72902L24.375 7.796V4.498L21.899 3.625H17.57L17.5466 3.75337C17.2127 5.33308 15.85 6.53324 14.1925 6.61998L14 6.625C12.2563 6.625 10.8001 5.39384 10.4534 3.75337L10.429 3.625Z" fill="#27348B"/>
<path d="M13.7129 10.0112L13.7129 10.0112C13.9121 10.144 14.0483 10.3121 14.114 10.5103C14.1795 10.7075 14.1705 10.9202 14.1051 11.1352C13.9759 11.5599 13.6204 12.0168 13.1094 12.4563M13.7129 10.0112L13.0116 12.3426M13.7129 10.0112C13.5108 9.87645 13.2968 9.82491 13.0797 9.86135C12.8664 9.89713 12.6666 10.0149 12.4821 10.1878C12.1157 10.531 11.7763 11.123 11.4743 11.8832C11.3284 12.2504 11.1957 12.6481 11.0802 13.0569C10.4964 13.3262 9.87977 13.5241 9.29447 13.6166L13.7129 10.0112ZM13.1094 12.4563L13.0116 12.3426M13.1094 12.4563C13.1094 12.4563 13.1094 12.4563 13.1094 12.4563L13.0116 12.3426M13.1094 12.4563C12.6692 12.8349 12.1391 13.1805 11.571 13.4652M13.0116 12.3426C12.5664 12.7255 12.0248 13.0755 11.4434 13.3611M11.571 13.4652C11.5767 13.4434 11.5825 13.4216 11.5883 13.3998L11.4434 13.3611M11.571 13.4652C11.5505 13.4755 11.53 13.4856 11.5095 13.4957L11.4434 13.3611M11.571 13.4652L11.4434 13.3611M12.7745 14.0978L12.7744 14.0978C12.6672 13.9785 12.6768 13.795 12.796 13.6877L12.796 13.6876L14.0266 12.5802L14.1269 12.6917L14.0266 12.5802C14.2034 12.421 14.4758 12.4353 14.635 12.6122L14.635 12.6122C14.6821 12.6645 14.7156 12.7276 14.7327 12.7958L14.7327 12.7959L14.8575 13.2949L15.5246 12.8549L15.5246 12.8549C15.7192 12.7265 15.9807 12.7762 16.1145 12.9671C16.1145 12.9671 16.1145 12.9671 16.1145 12.9671L16.3464 13.2977L18.2638 12.8788L18.2638 12.8788C18.4205 12.8446 18.5753 12.9438 18.6095 13.1005M12.7745 14.0978L18.4629 13.1326M12.7745 14.0978C12.8817 14.2169 13.0653 14.2267 13.1846 14.1194L14.2297 13.1787M12.7745 14.0978L14.2297 13.1787M18.6095 13.1005L18.4629 13.1326M18.6095 13.1005C18.6095 13.1005 18.6095 13.1005 18.6095 13.1005L18.4629 13.1326M18.6095 13.1005C18.6438 13.2573 18.5443 13.412 18.3878 13.4462L18.3557 13.2997M18.4629 13.1326C18.4795 13.2083 18.4315 13.2831 18.3557 13.2997M18.3557 13.2997L18.3878 13.4462M18.3557 13.2997L18.3878 13.4462M18.3878 13.4462L16.3729 13.8865L16.3729 13.8865C16.2033 13.9235 16.028 13.8551 15.9282 13.713L15.9282 13.713L15.7227 13.42L15.0006 13.8964L15.0005 13.8964C14.9599 13.9231 14.9151 13.9429 14.8678 13.9547L14.8678 13.9547C14.6369 14.0124 14.4031 13.8721 14.3454 13.6413L14.3454 13.6412L14.2297 13.1787M18.3878 13.4462L14.2297 13.1787M11.0696 13.6964C11.0839 13.6356 11.0986 13.5748 11.1138 13.5141C11.0566 13.5392 10.9991 13.5636 10.9414 13.5873C10.927 13.6468 10.913 13.7064 10.8994 13.766C10.9564 13.7434 11.0131 13.7202 11.0696 13.6964ZM9.38497 14.1902C9.38497 14.1902 9.38497 14.1902 9.38497 14.1902L9.36158 14.0421L9.38497 14.1902ZM13.1441 10.4544C13.2316 10.4297 13.3109 10.4412 13.3909 10.4946L13.5571 10.712C13.5786 10.7952 13.5726 10.9018 13.524 11.0344C13.4254 11.3034 13.1653 11.6423 12.7308 12.016C12.4575 12.2511 12.1435 12.4741 11.8042 12.6761C11.8704 12.4764 11.9406 12.2826 12.014 12.0977C12.2801 11.428 12.5551 10.9533 12.8098 10.6861C12.9371 10.5527 13.0499 10.481 13.1441 10.4544Z" fill="#27348B" stroke="#27348B" stroke-width="0.3"/>
</svg>
