<svg width="28" height="28" viewBox="0 0 28 28" fill="none" xmlns="http://www.w3.org/2000/svg">
<path d="M2.33333 18.6667C3.29583 18.6667 4.08333 19.4542 4.08333 20.4167C4.08333 20.7375 4.34583 21 4.66667 21H23.3333C23.6542 21 23.9167 20.7375 23.9167 20.4167C23.9167 19.4542 24.7042 18.6667 25.6667 18.6667C25.9875 18.6667 26.25 18.4042 26.25 18.0833V9.91667C26.25 9.59583 25.9875 9.33333 25.6667 9.33333C24.7042 9.33333 23.9167 8.54583 23.9167 7.58333C23.9167 7.2625 23.6542 7 23.3333 7H4.66667C4.34583 7 4.08333 7.2625 4.08333 7.58333C4.08333 8.54583 3.29583 9.33333 2.33333 9.33333C2.0125 9.33333 1.75 9.59583 1.75 9.91667V18.0833C1.75 18.4042 2.0125 18.6667 2.33333 18.6667ZM2.91667 10.4417C4.05417 10.2083 4.95833 9.30417 5.19167 8.16667H22.8083C23.0417 9.30417 23.9458 10.2083 25.0833 10.4417V17.5583C23.9458 17.7917 23.0417 18.6958 22.8083 19.8333H5.19167C4.95833 18.6958 4.05417 17.7917 2.91667 17.5583V10.4417Z" fill="url(#paint0_linear)"/>
<path d="M11.41 15.2367L10.9958 17.6342C10.9608 17.8558 11.0483 18.0717 11.2291 18.2058C11.3283 18.2817 11.4508 18.3167 11.5733 18.3167C11.6666 18.3167 11.76 18.2933 11.8475 18.2467L14 17.115L16.1525 18.2467C16.345 18.3458 16.59 18.3283 16.765 18.2C16.9458 18.0658 17.0333 17.85 16.9983 17.6283L16.5841 15.2308L18.3283 13.5333C18.4916 13.3758 18.5441 13.1483 18.4741 12.9383C18.4041 12.7283 18.2233 12.5708 18.0016 12.5417L15.5925 12.1917L14.5191 10.01C14.3266 9.625 13.6616 9.625 13.475 10.01L12.3958 12.1917L9.98663 12.5417C9.77079 12.5708 9.58413 12.7283 9.51413 12.9383C9.44413 13.1542 9.50246 13.3817 9.65996 13.5333L11.41 15.2367ZM12.8741 13.3C13.0666 13.2708 13.23 13.1542 13.3116 12.9792L14 11.585L14.6883 12.9792C14.7758 13.1542 14.9391 13.2708 15.1258 13.3L16.6658 13.5217L15.5516 14.6067C15.4116 14.7408 15.3533 14.9333 15.3825 15.1258L15.645 16.66L14.2683 15.9367C14.1866 15.89 14.0933 15.8667 13.9941 15.8667C13.895 15.8667 13.8016 15.89 13.7258 15.9367L12.3491 16.66L12.6116 15.1258C12.6408 14.9392 12.5825 14.7408 12.4425 14.6125L11.3283 13.5275L12.8741 13.3ZM6.99996 11.0833C7.32079 11.0833 7.58329 10.8208 7.58329 10.5V9.33333C7.58329 9.0125 7.32079 8.75 6.99996 8.75C6.67913 8.75 6.41663 9.0125 6.41663 9.33333V10.5C6.41663 10.8208 6.67913 11.0833 6.99996 11.0833ZM6.99996 15.1667C7.32079 15.1667 7.58329 14.9042 7.58329 14.5833V13.4167C7.58329 13.0958 7.32079 12.8333 6.99996 12.8333C6.67913 12.8333 6.41663 13.0958 6.41663 13.4167V14.5833C6.41663 14.9042 6.67913 15.1667 6.99996 15.1667ZM6.99996 19.25C7.32079 19.25 7.58329 18.9875 7.58329 18.6667V17.5C7.58329 17.1792 7.32079 16.9167 6.99996 16.9167C6.67913 16.9167 6.41663 17.1792 6.41663 17.5V18.6667C6.41663 18.9875 6.67913 19.25 6.99996 19.25Z" fill="url(#paint1_linear)"/>
<defs>
<linearGradient id="paint0_linear" x1="2.1875" y1="7" x2="25.8169" y2="23.4998" gradientUnits="userSpaceOnUse">
<stop stop-color="#617DC3"/>
<stop offset="1" stop-color="#1C3C8C"/>
</linearGradient>
<linearGradient id="paint1_linear" x1="6.63248" y1="8.75" x2="20.9534" y2="15.3283" gradientUnits="userSpaceOnUse">
<stop stop-color="#617DC3"/>
<stop offset="1" stop-color="#1C3C8C"/>
</linearGradient>
</defs>
</svg>
