<svg xmlns="http://www.w3.org/2000/svg" width="28" height="28" viewBox="0 0 28 28">
    <defs>
        <linearGradient id="7ky4rd44na" x1="50%" x2="50%" y1="0%" y2="100%">
            <stop offset="0%" stop-color="#637FC5"/>
            <stop offset="100%" stop-color="#19398A"/>
        </linearGradient>
    </defs>
    <g fill="none" fill-rule="evenodd">
        <g>
            <g>
                <g>
                    <g>
                        <g>
                            <path fill="#FFF" fill-opacity=".01" fill-rule="nonzero" d="M0 0H28V28H0z" transform="translate(-36 -348) translate(0 124) translate(16 88) translate(20 132) translate(0 4)"/>
                            <path fill="url(#7ky4rd44na)" d="M26 23.875c.345 0 .625.28.625.625 0 1.174-.951 2.125-2.125 2.125-.345 0-.625-.28-.625-.625 0-.314.231-.574.533-.618l.092-.007c.446 0 .814-.334.868-.765l.007-.11c0-.345.28-.625.625-.625zM21.001 4.57l.067.064.018-.016 2 2c1.772 1.772 2.728 4.068 2.891 6.47l.01.011-.008.01c.079 1.202-.04 2.43-.355 3.631l.01.01-.017.017c-.533 2.017-1.617 3.96-3.238 5.582-4.459 4.458-11.35 4.854-15.531.902l-.2-.195-1.4-1.398c-.159-.14-.315-.287-.467-.439C.622 17.06.958 10.02 5.488 5.488 9.94 1.036 16.818.635 21.001 4.57zM25 20.875c.345 0 .625.28.625.625 0 2.278-1.847 4.125-4.125 4.125-.345 0-.625-.28-.625-.625s.28-.625.625-.625c1.588 0 2.875-1.287 2.875-2.875 0-.345.28-.625.625-.625zm-22 1.5c.314 0 .574.231.618.533l.007.092c0 .715.545 1.302 1.243 1.369l.132.006c.345 0 .625.28.625.625s-.28.625-.625.625c-1.45 0-2.625-1.175-2.625-2.625 0-.345.28-.625.625-.625zm9.987 1.717l.617.63c.686.018 1.38-.036 2.07-.161l-.795-.797c-.626.162-1.26.272-1.892.328zm-2.775-.103c.445.191.905.345 1.375.461l-.333-.34c-.35-.023-.698-.063-1.042-.12zm6.003-.657l.871.87c.537-.177 1.067-.398 1.583-.664l-.934-.922c-.495.276-1.003.515-1.52.716zM6.37 6.37c-3.987 3.987-4.347 10.089-.903 13.765l.05.051.013-.012.574.574c3.698 3.212 9.624 2.784 13.526-1.118 4.061-4.061 4.36-10.315.707-13.967-3.652-3.652-9.906-3.354-13.967.707zm12.45 15.565l.95.953c.435-.291.855-.617 1.257-.977l-.968-.968c-.397.361-.812.692-1.24.992zm2.123-1.876l.97.97c.361-.401.688-.82.98-1.252l-.958-.958c-.3.428-.63.843-.992 1.24zM18.947 6.751c2.991 2.992 2.649 8.133-.707 11.489-3.356 3.356-8.497 3.698-11.489.707-2.99-2.991-2.648-8.133.708-11.488 3.355-3.356 8.497-3.699 11.488-.708zm-8.223 2.217l-.034.088c-.054.125-.125.251-.217.392l-.36.534c-.179.278-.333.59-.458.934l-.089.263-.057.186c-.043.141-.135.261-.257.34l-.097.052-.186.079c-.05.02-.089.056-.11.094l-.015.037-.113.522.19.094c.173.086.295.247.333.433l.012.095.012.243c.048.94.36 1.613.965 2.104l.145.11.212.154c.168.12.263.315.26.518l-.01.101-.18.977c-.095.538-.466.978-.97 1.158l-.14.043-1.05.26c1.406.925 3.181 1.179 4.923.783l-.111-.088c-.426-.337-.67-.848-.65-1.37l.014-.156.15-1.109c.033-.234.193-.427.411-.504l.097-.026.296-.054c1.045-.187 1.815-.778 2.329-1.807l.1-.211.093-.215c.076-.174.225-.302.404-.352l.092-.018.237-.03c.22-.026.362-.12.402-.202l.012-.039.066-.694c.004-.04-.041-.116-.153-.192l-.076-.045-.212-.111c-.17-.09-.288-.252-.323-.438l-.01-.094-.009-.236c-.066-1.6-1.106-2.342-3.5-2.346l-.14.003-.14.008c-.736.05-1.424-.03-2.026-.243l-.062-.025zM8.34 8.34c-2.783 2.784-3.157 6.92-.976 9.436l1.894-.47c.073-.018.133-.072.164-.148l.018-.062.108-.596-.075-.056c-.839-.673-1.311-1.6-1.424-2.771l-.011-.14c-.397-.25-.606-.706-.551-1.173l.021-.127.114-.527c.087-.415.369-.772.742-.967l.037-.017.081-.239c.117-.32.256-.623.414-.902l.163-.27.078-.121.205-.303c.25-.358.263-.399.263-.887 0-.485.52-.773.924-.55l.123.084.038.029c.476.326 1.194.483 2.03.426.12-.01.242-.014.374-.014 2.907.004 4.549 1.113 4.734 3.337l.006.093.026.015c.466.293.762.75.765 1.25l-.006.138-.065.688c-.058.643-.562 1.136-1.219 1.312l-.172.037-.061.132c-.65 1.315-1.667 2.152-3 2.459l-.088.017-.09.666c-.014.101.023.215.103.308l.068.065.76.596c.894-.398 1.748-.975 2.503-1.73 2.893-2.893 3.183-7.249.707-9.725s-6.832-2.185-9.725.707zm14.277 9.392l.936.936c.265-.51.486-1.035.664-1.567l-.886-.885c-.2.516-.439 1.023-.714 1.516zm1.147-2.853l.817.818c.129-.687.186-1.379.172-2.062l-.66-.654c-.057.634-.166 1.27-.33 1.898zm.194-4.836l.025.133c.06.352.102.707.127 1.065l.387.382c-.13-.543-.31-1.072-.539-1.58zM22.884 2.62c1.45 0 2.625 1.175 2.625 2.625 0 .345-.28.625-.625.625-.346 0-.625-.28-.625-.625 0-.76-.616-1.375-1.375-1.375-.346 0-.625-.28-.625-.625s.28-.625.625-.625z" transform="translate(-36 -348) translate(0 124) translate(16 88) translate(20 132) translate(0 4)"/>
                        </g>
                    </g>
                </g>
            </g>
        </g>
    </g>
</svg>
