<svg xmlns="http://www.w3.org/2000/svg" width="28" height="28" viewBox="0 0 28 28">
    <defs>
        <linearGradient id="0oswr7bjca" x1="50%" x2="50%" y1="0%" y2="100%">
            <stop offset="0%" stop-color="#637FC5"/>
            <stop offset="100%" stop-color="#19398A"/>
        </linearGradient>
    </defs>
    <g fill="none" fill-rule="evenodd">
        <g>
            <g>
                <g>
                    <g>
                        <g>
                            <path fill="#FFF" fill-opacity=".01" fill-rule="nonzero" d="M0 0H28V28H0z" transform="translate(-36 -288) translate(0 124) translate(16 88) translate(20 72) translate(0 4)"/>
                            <path fill="url(#0oswr7bjca)" d="M22.254 2.768c.244-.244.64-.244.884 0l2.121 2.122c.244.244.244.64 0 .883l-5.937 5.937.605.605c.217.217.241.554.073.798l-.073.086L7.907 25.22c-1.026 1.025-2.688 1.025-3.713 0L2.78 23.806c-1.025-1.025-1.025-2.687 0-3.712L14.8 8.073c.245-.244.64-.244.885 0l.632.632 5.937-5.937zM11.378 13.262l-7.714 7.715c-.506.506-.535 1.307-.09 1.847l.09.098 1.414 1.414c.537.537 1.408.537 1.945 0l7.714-7.715-3.359-3.359zm.064 4.296c.217.217.241.554.072.797l-.072.087-4 4c-.244.244-.64.244-.884 0-.217-.217-.241-.554-.072-.797l.072-.087 4-4c.244-.244.64-.244.884 0zm1.936-6.296l-1.116 1.116 3.359 3.36 1.116-1.117-3.359-3.359zM15.242 9.4l-.98.98 3.359 3.358.98-.98L15.24 9.4zm5.71-3.563l-3.737 3.738 1.237 1.237 3.738-3.737-1.238-1.238zm1.743-1.742l-.859.858 1.238 1.238.858-.859-1.237-1.237z" transform="translate(-36 -288) translate(0 124) translate(16 88) translate(20 72) translate(0 4)"/>
                        </g>
                    </g>
                </g>
            </g>
        </g>
    </g>
</svg>
