<svg width="28" height="28" viewBox="0 0 28 28" fill="none" xmlns="http://www.w3.org/2000/svg">
<path d="M14 24.5C19.799 24.5 24.5 19.799 24.5 14C24.5 8.20101 19.799 3.5 14 3.5C8.20101 3.5 3.5 8.20101 3.5 14C3.5 19.799 8.20101 24.5 14 24.5Z" stroke="#27348B" stroke-width="1.2" stroke-linecap="round" stroke-linejoin="round"/>
<path d="M14.0027 9.40625L9.63867 12.5781L11.3012 17.7188H16.7043L18.3668 12.5781L14.0027 9.40625Z" stroke="#27348B" stroke-width="1.2" stroke-linecap="round" stroke-linejoin="round"/>
<path d="M14 7V9.40625" stroke="#27348B" stroke-width="1.2" stroke-linecap="round" stroke-linejoin="round"/>
<path d="M17.8281 4.22266L14 7.00078L10.1719 4.22266" stroke="#27348B" stroke-width="1.2" stroke-linecap="round" stroke-linejoin="round"/>
<path d="M7.3418 11.835L9.63867 12.5787" stroke="#27348B" stroke-width="1.2" stroke-linecap="round" stroke-linejoin="round"/>
<path d="M5.88711 7.33984L7.3418 11.8352L3.51367 14.6242" stroke="#27348B" stroke-width="1.2" stroke-linecap="round" stroke-linejoin="round"/>
<path d="M9.88477 19.6656L11.2957 17.7188" stroke="#27348B" stroke-width="1.2" stroke-linecap="round" stroke-linejoin="round"/>
<path d="M5.1543 19.665H9.89023L11.3559 24.1604" stroke="#27348B" stroke-width="1.2" stroke-linecap="round" stroke-linejoin="round"/>
<path d="M18.1111 19.6656L16.7002 17.7188" stroke="#27348B" stroke-width="1.2" stroke-linecap="round" stroke-linejoin="round"/>
<path d="M16.6455 24.1604L18.1111 19.665H22.8471" stroke="#27348B" stroke-width="1.2" stroke-linecap="round" stroke-linejoin="round"/>
<path d="M20.6582 11.835L18.3613 12.5787" stroke="#27348B" stroke-width="1.2" stroke-linecap="round" stroke-linejoin="round"/>
<path d="M24.4863 14.6242L20.6582 11.8352L22.1129 7.33984" stroke="#27348B" stroke-width="1.2" stroke-linecap="round" stroke-linejoin="round"/>
</svg>
