<svg xmlns="http://www.w3.org/2000/svg" width="32" height="32" viewBox="0 0 32 32">
    <g fill="none" fill-rule="evenodd">
        <g>
            <g>
                <g>
                    <g>
                        <path fill="#FFF" d="M30.742 9.772c-.805-1.905-1.96-3.616-3.428-5.086-1.47-1.468-3.18-2.622-5.086-3.428C20.255.423 18.16 0 16 0s-4.255.423-6.228 1.258c-1.906.806-3.616 1.96-5.086 3.428-1.469 1.47-2.623 3.18-3.428 5.086C.423 11.745 0 13.84 0 16s.423 4.255 1.258 6.228c.703 1.663 1.671 3.178 2.883 4.513.176.195.358.386.545.573.795.795 1.661 1.497 2.59 2.102.788.514 1.621.957 2.496 1.327C11.745 31.577 13.84 32 16 32s4.255-.423 6.228-1.257c.875-.37 1.708-.813 2.496-1.327.929-.605 1.795-1.307 2.59-2.102.187-.187.369-.378.545-.573 1.212-1.335 2.18-2.85 2.883-4.513C31.577 20.255 32 18.16 32 16s-.423-4.255-1.258-6.228z" transform="translate(-16 -372) translate(0 228) translate(0 136) translate(16 8)"/>
                        <path fill="#AEAEAE" d="M16 0c2.16 0 4.255.423 6.228 1.258 1.906.806 3.616 1.96 5.086 3.428 1.469 1.47 2.623 3.18 3.428 5.086C31.577 11.745 32 13.84 32 16s-.423 4.255-1.258 6.228c-.703 1.663-1.671 3.178-2.883 4.513-.176.195-.358.386-.545.573-.795.795-1.661 1.497-2.59 2.102-.788.514-1.621.957-2.496 1.327C20.255 31.577 18.16 32 16 32s-4.255-.423-6.228-1.257c-.875-.37-1.708-.813-2.496-1.327-.929-.605-1.795-1.307-2.59-2.102-.187-.187-.369-.378-.545-.573-1.212-1.335-2.18-2.85-2.883-4.513C.423 20.255 0 18.16 0 16s.423-4.255 1.258-6.228c.805-1.905 1.96-3.616 3.428-5.086 1.47-1.468 3.18-2.622 5.086-3.428C11.745.423 13.84 0 16 0zm0 1.904C8.228 1.904 1.904 8.228 1.904 16c0 3.096 1.004 5.962 2.703 8.29.026-.075.052-.15.08-.224C5.8 21.1 8.379 18.833 11.53 18.162c.434.297.896.55 1.385.756.978.414 2.016.624 3.085.624 1.07 0 2.107-.21 3.085-.624.489-.206.95-.459 1.385-.756 3.151.671 5.73 2.937 6.843 5.904.028.074.054.149.08.224 1.699-2.328 2.703-5.194 2.703-8.29 0-7.772-6.324-14.096-14.096-14.096zm0 3.374c3.502 0 6.34 2.838 6.34 6.34 0 3.501-2.838 6.34-6.34 6.34s-6.34-2.839-6.34-6.34c0-3.502 2.838-6.34 6.34-6.34z" transform="translate(-16 -372) translate(0 228) translate(0 136) translate(16 8)"/>
                    </g>
                </g>
            </g>
        </g>
    </g>
</svg>
