<svg xmlns="http://www.w3.org/2000/svg" width="44" height="44" viewBox="0 0 44 44">
    <defs>
        <linearGradient id="qbc9vqt6ja" x1="22.011%" x2="83.568%" y1="0%" y2="100%">
            <stop offset="0%" stop-color="#FFCB05"/>
            <stop offset="100%" stop-color="#BB9A00"/>
        </linearGradient>
    </defs>
    <g fill="none" fill-rule="evenodd">
        <g>
            <g>
                <g>
                    <g fill="url(#qbc9vqt6ja)" transform="translate(-300 -308) translate(0 228) translate(300 80) translate(5)">
                        <path d="M12.816 20.432l-3.322 3.322 2.064.688.688 2.064 3.32-3.322L15.569 35c0 .552-.448 1-1 1H2.946c-.552 0-1-.448-1-1V21.432c0-.552.448-1 1-1h9.87zm7.45 0l9.87.001c.551 0 1 .448 1 1v13.568c0 .552-.449 1-1 1H18.513c-.553 0-1-.448-1-1V23.184l3.321 3.323.688-2.064 2.064-.688-3.322-3.323zm-5.698-7.783c.552 0 1 .447 1 1v3.837c0 .553-.448 1-1 1H1c-.552 0-1-.447-1-1V13.65c0-.553.448-1 1-1h13.568zm17.513 0c.552 0 1 .447 1 1v3.837c0 .553-.448 1-1 1H18.514c-.553 0-1-.447-1-1V13.65c0-.553.447-1 1-1H32.08zM25.866.973c3.156.547 3.865 2.09 3.953 3.842l.006.16.004.296-.01.45-.032.603c-.149 2.308-3.027 5.328-6.768 5.352H10.05l.018-.008c-.1.005-.198.008-.295.008-3.761 0-6.662-3.035-6.81-5.352l-.033-.603-.01-.45.004-.296c.053-1.818.707-3.439 3.96-4.002 2.162-.375 4.094.767 5.793 2.132l.439.36.427.366 1.414 1.245.38.325c.361.303.707.574 1.039.792.248-.164.504-.357.77-.571l.267-.22.38-.326 1.414-1.245.427-.365.439-.36c1.7-1.366 3.631-2.508 5.794-2.133zM7.297 3.37l-.332.06-.294.06c-1.058.238-1.324.548-1.326 1.645l.006.305.015.343.023.385c.082 1.272 2.22 2.754 4.383 3.075 1.18.175 3.284.855 4.732.318.137-.212.184-.433.142-.663-.098-.53-.376-1.064-.835-1.6l-.424-.363-1.443-1.27C9.835 3.836 8.504 3.161 7.297 3.37zM21.053 5.45l-.25.214-1.442 1.27-.424.362c-.459.537-.737 1.071-.835 1.601-.042.23.005.451.142.663 1.448.537 3.553-.143 4.732-.318 2.09-.31 4.154-1.702 4.368-2.943l.015-.132.023-.385.015-.343.006-.305c-.002-1.042-.242-1.374-1.173-1.608l-.153-.036-.294-.061-.332-.06c-1.158-.2-2.432.414-4.398 2.081z"/>
                    </g>
                    <path fill="#EF4123" d="M0 31.145L44 26 44 42.448 0.847 43.335z" transform="translate(-300 -308) translate(0 228) translate(300 80)"/>
                    <text fill="#FFF" font-family="SourceSansPro-Bold, Source Sans Pro" font-size="10" font-weight="bold" letter-spacing=".125" transform="translate(-300 -308) translate(0 228) translate(300 80) rotate(-3 21.5 35.8)">
                        <tspan x="5.7" y="39.3">PRIZES</tspan>
                    </text>
                </g>
            </g>
        </g>
    </g>
</svg>
