<svg width="52" height="52" viewBox="0 0 52 52" fill="none" xmlns="http://www.w3.org/2000/svg">
<circle opacity="0.1" cx="26" cy="26" r="26" fill="#000F49"/>
<path d="M37.1786 18.7711H34.2923C34.6861 18.0756 34.8045 17.2576 34.6239 16.479C34.4433 15.7004 33.9769 15.018 33.3172 14.5669C32.6574 14.1158 31.8523 13.9288 31.0612 14.0431C30.2702 14.1573 29.5509 14.5644 29.0457 15.1837L26.5 18.2953L23.9543 15.1837C23.4504 14.5606 22.7303 14.15 21.9374 14.0338C21.1444 13.9175 20.3368 14.104 19.6752 14.5562C19.0135 15.0084 18.5464 15.6932 18.3668 16.4742C18.1871 17.2552 18.3081 18.0752 18.7057 18.7711H15.8214C15.6036 18.7711 15.3946 18.8576 15.2406 19.0117C15.0865 19.1657 15 19.3746 15 19.5925V24.5211C15 24.7389 15.0865 24.9479 15.2406 25.1019C15.3946 25.256 15.6036 25.3425 15.8214 25.3425H16.6429V36.0211C16.6429 36.2389 16.7294 36.4479 16.8834 36.6019C17.0375 36.756 17.2464 36.8425 17.4643 36.8425H35.5357C35.7536 36.8425 35.9625 36.756 36.1166 36.6019C36.2706 36.4479 36.3571 36.2389 36.3571 36.0211V25.3425H37.1786C37.3964 25.3425 37.6054 25.256 37.7594 25.1019C37.9135 24.9479 38 24.7389 38 24.5211V19.5925C38 19.3746 37.9135 19.1657 37.7594 19.0117C37.6054 18.8576 37.3964 18.7711 37.1786 18.7711ZM30.3172 16.2241C30.5206 15.9755 30.7961 15.796 31.1058 15.7105C31.4154 15.625 31.744 15.6376 32.0462 15.7467C32.3484 15.8558 32.6093 16.056 32.7929 16.3196C32.9765 16.5832 33.0738 16.8973 33.0714 17.2186C33.0709 17.6302 32.9071 18.0247 32.6161 18.3158C32.3251 18.6068 31.9305 18.7705 31.5189 18.7711H28.2332L30.3172 16.2241ZM28.1429 23.6996H24.8571V20.4139H28.1429V23.6996ZM19.9286 17.2072C19.9285 16.8869 20.0275 16.5745 20.2121 16.3127C20.3966 16.0509 20.6575 15.8525 20.9592 15.7449C21.2608 15.6372 21.5884 15.6255 21.897 15.7113C22.2056 15.7971 22.48 15.9762 22.6828 16.2241L24.7668 18.7711H21.4811C21.2764 18.7705 21.0739 18.7295 20.885 18.6506C20.6962 18.5717 20.5248 18.4563 20.3806 18.311C20.2364 18.1658 20.1223 17.9935 20.0447 17.8041C19.9671 17.6147 19.9277 17.4119 19.9286 17.2072ZM16.6429 20.4139H23.2143V23.6996H16.6429V20.4139ZM18.2857 25.3425H23.2143V35.1996H18.2857V25.3425ZM24.8571 35.1996V25.3425H28.1429V35.1996H24.8571ZM34.7143 35.1996H29.7857V25.3425H34.7143V35.1996ZM36.3571 23.6996H29.7857V20.4139H36.3571V23.6996Z" fill="#000F49"/>
</svg>
