<svg width="16" height="36" viewBox="0 0 16 36" fill="none" xmlns="http://www.w3.org/2000/svg">
<path fill-rule="evenodd" clip-rule="evenodd" d="M6.5574 5.26336C5.74341 5.62836 4.33334 4.8834 2.98825 3.69166C1.78841 2.60191 1.18948 0.721612 1.02798 0.214591C1.00249 0.134572 0.987899 0.088758 0.983559 0.085656C0.941529 0.066692 3.53846 -0.420556 5.30563 1.15617C6.93158 2.607 7.42287 4.37963 6.85034 5.04962C14.2373 14.5429 12.3134 29.1412 1.07844 35.9753L0.888672 35.6681C11.9347 28.9489 13.8245 14.5945 6.5574 5.26336ZM7.96716 8.63834C7.47904 9.31567 5.88159 9.10928 4.39494 8.57039C3.10657 8.09793 2.46638 6.87043 2.31543 6.58102L2.31543 6.58101L2.31542 6.58099C2.29582 6.5434 2.28447 6.52165 2.28103 6.51943C2.28064 6.51976 2.28315 6.51829 2.28843 6.51518L2.28844 6.51518L2.28847 6.51515C2.41772 6.43909 4.19774 5.39144 5.82236 5.98496C7.50578 6.59845 8.46037 7.97049 7.96716 8.63834ZM6.15434 12.0668C7.46618 12.9038 8.9732 13.4515 9.60302 12.9053C10.236 12.3693 9.62722 10.843 8.15203 9.89734C6.7411 8.99044 4.79785 9.59845 4.62692 9.65193C4.61848 9.65457 4.61436 9.65586 4.61484 9.65555C4.61739 9.65826 4.62255 9.68009 4.63147 9.71788C4.70251 10.0189 5.01259 11.3325 6.15434 12.0668ZM10.2329 17.3872C9.49767 17.7788 8.14857 16.9134 7.05866 15.8164C6.10767 14.8521 6.11298 13.5162 6.11418 13.2168C6.11432 13.1802 6.1144 13.1591 6.11267 13.156C6.11241 13.1561 6.1134 13.1561 6.11558 13.156L6.12645 13.1551C6.31241 13.1402 8.33146 12.9789 9.49448 14.1583C10.7137 15.3922 10.9684 17.0064 10.2329 17.3872ZM7.10718 19.6562C7.92803 20.9669 9.0517 22.1136 9.85536 21.8933C10.6577 21.6834 10.7654 20.0494 9.84867 18.5806C8.97929 17.1832 6.98947 16.8929 6.78996 16.8638L6.78987 16.8638L6.78981 16.8638L6.78975 16.8638L6.78971 16.8638C6.77865 16.8621 6.77318 16.8613 6.77381 16.8612C6.77472 16.8644 6.77011 16.884 6.76212 16.918C6.69505 17.2032 6.38969 18.5017 7.10718 19.6562ZM8.33902 26.1728C7.50448 26.2098 6.6712 24.8368 6.1627 23.3779C5.72073 22.0933 6.30387 20.9027 6.43157 20.642L6.43159 20.642C6.44675 20.611 6.45549 20.5932 6.45532 20.5898C6.45465 20.5899 6.46045 20.5921 6.47212 20.5966C6.66916 20.6725 8.53769 21.3923 9.07518 22.9398C9.64481 24.5717 9.17007 26.146 8.33902 26.1728ZM4.51502 26.8815C4.66276 28.4349 5.13655 29.9783 5.96569 30.1243C6.78973 30.2795 7.64147 28.8256 7.46634 27.091C7.30367 25.4519 5.65329 24.3337 5.46931 24.2091C5.45775 24.2012 5.45198 24.1973 5.45273 24.1974C5.45216 24.2007 5.4396 24.2163 5.41776 24.2433C5.23378 24.4711 4.39149 25.5143 4.51502 26.8815ZM2.59326 33.5296C1.80552 33.205 1.75935 31.5662 2.01917 29.9912C2.25577 28.6089 3.33507 27.762 3.57417 27.5743C3.60311 27.5516 3.61974 27.5386 3.62108 27.5354C3.62023 27.5351 3.62591 27.5414 3.63721 27.5538C3.80004 27.7326 5.12968 29.1929 4.87688 30.843C4.61101 32.6013 3.37368 33.8624 2.59326 33.5296ZM10.8278 4.27291C11.0602 6.35579 10.2222 7.84889 9.38762 7.80685C8.53619 7.76386 7.96433 6.35199 7.68764 4.46602C7.41476 2.59048 8.41902 0.677333 8.43144 0.67354C8.42571 0.636876 10.6052 2.16 10.8278 4.27291ZM11.1745 12.4138C11.9772 12.636 13.1311 11.3787 13.3986 9.33124C13.6804 7.25595 11.9661 5.34374 11.9648 5.38072C11.953 5.38262 10.5097 6.99171 10.3183 8.84292C10.1286 10.7049 10.3578 12.1872 11.1745 12.4138ZM14.7298 14.7604C14.0092 16.6818 12.6069 17.6502 11.8736 17.257C11.1276 16.8569 11.2327 15.3685 11.8415 13.6146C12.4503 11.8715 14.2286 10.6398 14.2397 10.6401C14.248 10.6041 15.4688 12.8144 14.7298 14.7604ZM11.4847 22.1294C12.1126 22.6772 13.695 22.0384 14.8219 20.3247C15.971 18.5904 15.2718 16.1782 15.2565 16.2123C15.2457 16.2095 13.2372 17.0104 12.2581 18.5705C11.2767 20.1414 10.8462 21.5728 11.4847 22.1294ZM13.812 25.8343C12.3232 27.2777 10.6251 27.5641 10.1402 26.883C9.64694 26.1914 10.399 24.8677 11.708 23.5361C13.0131 22.215 15.1478 21.8755 15.1583 21.8803C15.1805 21.8499 15.3283 24.375 13.812 25.8343ZM7.55788 31.2227C7.86355 32.0037 9.60811 32.091 11.4113 30.9926C13.2459 29.8839 13.679 27.3664 13.6493 27.392C13.6398 27.3854 11.4819 27.2457 9.89882 28.2602C8.30901 29.2843 7.24584 30.4297 7.55788 31.2227ZM7.7637 35.5756C5.69309 36.2738 3.97018 35.8111 3.88007 34.9675C3.78582 34.1106 5.15179 33.2019 6.975 32.5344C8.78992 31.8748 10.8659 32.4883 10.8752 32.4965C10.9115 32.4772 9.86996 34.8736 7.7637 35.5756Z" fill="url(#paint0_linear_2221_227)"/>
<defs>
<linearGradient id="paint0_linear_2221_227" x1="0.888672" y1="0" x2="0.888672" y2="35.9753" gradientUnits="userSpaceOnUse">
<stop stop-color="#C0C0C0"/>
<stop offset="1" stop-color="#A3A3A3"/>
</linearGradient>
</defs>
</svg>
