<svg width="296" height="175" viewBox="0 0 296 175" fill="none" xmlns="http://www.w3.org/2000/svg">
<g opacity="0.4">
<path d="M36.1427 142.443L31.8076 145.645L31.9862 151.014L27.6001 147.889L22.5255 149.727L24.149 144.603L20.834 140.36L26.2231 140.318L29.2491 135.863L30.9576 140.961L36.1427 142.443Z" fill="white"/>
<path d="M30.5242 143.553L43.7334 150.684L29.2832 146.585L30.5242 143.553Z" fill="white"/>
<path d="M68.9019 63.7815L64.3119 64.1033L61.9743 68.0584L60.2488 63.8069L55.7607 62.816L59.2798 59.8603L58.8378 55.2954L62.7393 57.7261L66.9639 55.8967L65.8504 60.343L68.9019 63.7815Z" fill="white"/>
<path d="M64.3539 62.02L70.5845 73.1739L62.0674 63.6376L64.3539 62.02Z" fill="white"/>
<path d="M3.74844 99.1066L13.7701 106.229L3.03443 100.225C2.71143 100.047 2.60093 99.6402 2.77943 99.3183C2.95793 98.9965 3.36594 98.8864 3.68894 99.0643C3.70594 99.0727 3.72294 99.0897 3.74844 99.1066Z" fill="white"/>
<path d="M87.8998 152.352L104.654 163.735L87.1857 153.47C86.8712 153.284 86.7607 152.877 86.9477 152.564C87.1347 152.251 87.5428 152.14 87.8573 152.327C87.8743 152.335 87.8828 152.344 87.8998 152.352Z" fill="white"/>
<path d="M17.4936 107.796L21.6246 111.192L16.7796 108.914C16.4481 108.753 16.3035 108.355 16.4566 108.025C16.6181 107.694 17.0176 107.55 17.3491 107.703C17.4001 107.737 17.4511 107.771 17.4936 107.796Z" fill="white"/>
<path d="M72.7523 142.765L76.8834 146.161L72.0383 143.883C71.7068 143.722 71.5623 143.324 71.7153 142.994C71.8768 142.664 72.2763 142.52 72.6078 142.672C72.6588 142.698 72.7098 142.731 72.7523 142.765Z" fill="white"/>
<path d="M79.9008 147.296L84.0319 150.692L79.1868 148.414C78.8553 148.253 78.7108 147.855 78.8638 147.525C79.0253 147.194 79.4248 147.05 79.7563 147.203C79.8158 147.228 79.8583 147.262 79.9008 147.296Z" fill="white"/>
<path d="M25.0666 112.59L70.1513 141.901L24.3526 113.708C24.0381 113.513 23.9446 113.106 24.1401 112.793C24.3356 112.479 24.7436 112.386 25.0581 112.581C25.0496 112.581 25.0581 112.59 25.0666 112.59Z" fill="white"/>
<path d="M65.4173 25.7972L70.4324 37.0019L64.2358 26.3985C64.0488 26.0852 64.1593 25.6787 64.4738 25.4923C64.7883 25.306 65.1963 25.4161 65.3833 25.7295C65.3918 25.7464 65.4088 25.7718 65.4173 25.7972Z" fill="white"/>
<path d="M110.893 114.182L119.546 132.458L109.711 114.783C109.533 114.461 109.652 114.063 109.966 113.885C110.289 113.707 110.689 113.826 110.867 114.139C110.884 114.156 110.893 114.165 110.893 114.182Z" fill="white"/>
<path d="M72.8462 40.2287L74.6822 45.2425L71.6646 40.83C71.4606 40.5251 71.5371 40.1102 71.8431 39.9069C72.1491 39.7036 72.5657 39.7799 72.7697 40.0848C72.8037 40.1271 72.8292 40.1779 72.8462 40.2287Z" fill="white"/>
<path d="M102.707 98.268L104.544 103.282L101.526 98.8693C101.322 98.5644 101.398 98.1494 101.704 97.9377C102.01 97.7344 102.427 97.8106 102.631 98.1155C102.665 98.1663 102.69 98.2171 102.707 98.268Z" fill="white"/>
<path d="M106.575 105.78L108.411 110.794L105.393 106.382C105.189 106.077 105.266 105.662 105.572 105.458C105.878 105.247 106.294 105.331 106.498 105.636C106.532 105.679 106.558 105.738 106.575 105.78Z" fill="white"/>
<path d="M76.9353 48.1896L100.906 96.2183L75.7538 48.7909C75.5838 48.4691 75.7028 48.071 76.0343 47.8932C76.3573 47.7238 76.7568 47.8424 76.9353 48.1727C76.9353 48.1727 76.9353 48.1811 76.9353 48.1896Z" fill="white"/>
<path d="M40.5368 89.155L43.9624 93.2625L39.6273 90.1204C39.3298 89.9002 39.2618 89.4853 39.4828 89.1888C39.7038 88.8924 40.1203 88.8247 40.4178 89.0449C40.4603 89.0787 40.5028 89.1126 40.5368 89.155Z" fill="white"/>
<path d="M47.09 95.2697L108.359 154.308L46.1805 96.2267C45.9085 95.9726 45.9 95.5577 46.1465 95.2866C46.393 95.0326 46.8095 95.0156 47.09 95.2697C47.0815 95.2697 47.0815 95.2697 47.09 95.2697Z" fill="white"/>
<path d="M72.9225 75.054L75.2516 79.8645L71.809 75.7739C71.571 75.4944 71.605 75.071 71.894 74.8338C72.1745 74.5967 72.5995 74.6306 72.8375 74.9185C72.8715 74.9609 72.9055 75.0117 72.9225 75.054Z" fill="white"/>
<path d="M77.7847 82.5577L93.799 107.491L76.6882 83.2945C76.4757 82.9981 76.5522 82.5831 76.8497 82.3713C77.1472 82.1596 77.5637 82.2358 77.7762 82.5323C77.7762 82.5407 77.7847 82.5492 77.7847 82.5577Z" fill="white"/>
<path d="M126.414 59.0134L138.127 120.212L125.113 59.2759C125.037 58.9202 125.266 58.5645 125.623 58.4883C125.98 58.4121 126.337 58.6407 126.414 58.9964C126.414 59.0049 126.414 59.0049 126.414 59.0134Z" fill="white"/>
<path d="M95.4567 48.232L96.8848 53.3812L94.2327 48.7401C94.0457 48.4183 94.1647 48.0118 94.4792 47.8339C94.8022 47.6476 95.2102 47.7662 95.3972 48.0796C95.4227 48.1304 95.4482 48.1812 95.4567 48.232Z" fill="white"/>
<path d="M98.9073 56.4978L125.759 125.505L97.6663 56.989C97.5303 56.6502 97.6918 56.2606 98.0318 56.1251C98.3718 55.9896 98.7628 56.1505 98.8988 56.4893L98.9073 56.4978Z" fill="white"/>
<path d="M46.7851 151.107L51.5111 153.623L46.309 152.344C45.952 152.259 45.731 151.895 45.816 151.539C45.901 151.183 46.2665 150.963 46.6236 151.048C46.6916 151.056 46.7426 151.082 46.7851 151.107Z" fill="white"/>
<path d="M55.149 154.308L82.8339 165.039L54.6985 155.553C54.3499 155.435 54.1629 155.062 54.2819 154.715C54.4009 154.368 54.775 154.181 55.1235 154.3C55.132 154.3 55.1405 154.3 55.149 154.308Z" fill="white"/>
<path d="M34.7906 92.4329C34.7906 93.7626 33.711 94.8297 32.385 94.8297C31.059 94.8297 29.9795 93.7541 29.9795 92.4329C29.9795 91.1117 31.059 90.0361 32.385 90.0361C33.711 90.0361 34.7906 91.1033 34.7906 92.4329Z" fill="white"/>
<path d="M117.335 59.1404C117.335 60.4701 116.256 61.5372 114.93 61.5372C113.604 61.5372 112.524 60.4616 112.524 59.1404C112.524 57.8192 113.604 56.7437 114.93 56.7437C116.256 56.7437 117.335 57.8192 117.335 59.1404Z" fill="white"/>
<path d="M31.8837 80.8551C31.8837 81.7274 31.1782 82.4304 30.3027 82.4304C29.4272 82.4304 28.7217 81.7274 28.7217 80.8551C28.7217 79.9828 29.4272 79.2799 30.3027 79.2799C31.1782 79.2714 31.8837 79.9828 31.8837 80.8551Z" fill="white"/>
<path d="M109.991 50.9337C109.991 51.806 109.286 52.5089 108.41 52.5089C107.535 52.5089 106.829 51.806 106.829 50.9337C106.829 50.0613 107.535 49.3584 108.41 49.3584C109.286 49.3584 109.991 50.0613 109.991 50.9337Z" fill="white"/>
<path d="M21.5224 130.714C21.6074 131.586 20.9614 132.348 20.0944 132.433C19.2189 132.518 18.4538 131.874 18.3688 131.01C18.2838 130.146 18.9299 129.375 19.7969 129.291C20.6724 129.206 21.4459 129.841 21.5224 130.714Z" fill="white"/>
<path d="M68.4765 89.6378C68.4765 90.5101 67.771 91.213 66.8955 91.213C66.02 91.213 65.3145 90.5101 65.3145 89.6378C65.3145 88.7654 66.02 88.0625 66.8955 88.0625C67.771 88.0625 68.4765 88.7654 68.4765 89.6378Z" fill="white"/>
<path d="M72.5063 98.4118L88.9541 117.281L71.5288 99.3095C71.2738 99.047 71.2823 98.6235 71.5458 98.3695C71.8093 98.1154 72.2343 98.1239 72.4893 98.3864C72.4893 98.3949 72.4978 98.4033 72.5063 98.4118Z" fill="white"/>
<path d="M250.94 149.218L255.054 152.691L254.51 158.035L259.101 155.214L264.039 157.383L262.764 152.157L266.36 148.151L260.979 147.745L258.259 143.104L256.211 148.075L250.94 149.218Z" fill="white"/>
<path d="M257.511 153.8L242.814 156.925L256.474 150.692L257.511 153.8Z" fill="white"/>
<path d="M223.196 65.0772L227.786 65.3991L230.115 69.3542L231.841 65.1027L236.338 64.1118L232.81 61.1645L233.252 56.5996L229.35 59.0218L225.134 57.2009L226.239 61.6472L223.196 65.0772Z" fill="white"/>
<path d="M230.031 64.9335L221.514 74.4698L227.744 63.3159L230.031 64.9335Z" fill="white"/>
<path d="M295.626 105.416L284.542 110.769L294.98 104.264C295.295 104.069 295.703 104.163 295.898 104.476C296.094 104.789 296 105.196 295.686 105.391C295.669 105.391 295.643 105.399 295.626 105.416Z" fill="white"/>
<path d="M208.389 153.479L190.326 162.676L207.743 152.318C208.057 152.132 208.465 152.234 208.652 152.547C208.839 152.86 208.737 153.267 208.423 153.453C208.414 153.47 208.397 153.47 208.389 153.479Z" fill="white"/>
<path d="M281.38 113.267L276.407 115.249L280.742 112.107C281.04 111.887 281.456 111.954 281.677 112.251C281.898 112.547 281.83 112.962 281.533 113.182C281.473 113.216 281.422 113.242 281.38 113.267Z" fill="white"/>
<path d="M224.089 144.832L219.116 146.813L223.451 143.671C223.749 143.451 224.165 143.519 224.386 143.815C224.607 144.112 224.539 144.527 224.242 144.747C224.191 144.781 224.14 144.806 224.089 144.832Z" fill="white"/>
<path d="M216.677 148.914L211.704 150.895L216.031 147.753C216.328 147.533 216.745 147.601 216.966 147.897C217.187 148.194 217.119 148.609 216.821 148.829C216.779 148.863 216.728 148.897 216.677 148.914Z" fill="white"/>
<path d="M273.525 117.586L226.095 142.96L272.879 116.426C273.202 116.248 273.602 116.358 273.789 116.671C273.967 116.993 273.857 117.391 273.542 117.578C273.534 117.586 273.525 117.586 273.525 117.586Z" fill="white"/>
<path d="M227.863 27.6944L221.666 38.2978L226.681 27.093C226.834 26.7543 227.225 26.6103 227.557 26.7543C227.888 26.9067 228.041 27.2963 227.897 27.6266C227.888 27.652 227.871 27.6774 227.863 27.6944Z" fill="white"/>
<path d="M182.379 116.087L172.544 133.754L181.197 115.477C181.35 115.147 181.75 115.003 182.081 115.164C182.413 115.316 182.557 115.714 182.396 116.045C182.396 116.053 182.387 116.07 182.379 116.087Z" fill="white"/>
<path d="M220.434 42.1341L217.416 46.5466L219.252 41.5328C219.38 41.1856 219.762 41.0077 220.111 41.1348C220.459 41.2618 220.638 41.6429 220.51 41.9902C220.493 42.041 220.459 42.0918 220.434 42.1341Z" fill="white"/>
<path d="M190.572 100.174L187.555 104.586L189.391 99.5724C189.518 99.2251 189.901 99.0473 190.249 99.1743C190.598 99.3014 190.776 99.6825 190.649 100.03C190.623 100.081 190.598 100.131 190.572 100.174Z" fill="white"/>
<path d="M186.705 107.686L183.688 112.098L185.524 107.085C185.651 106.737 186.034 106.559 186.382 106.687C186.731 106.814 186.909 107.195 186.782 107.542C186.756 107.593 186.731 107.644 186.705 107.686Z" fill="white"/>
<path d="M216.336 50.0868L191.185 97.5141L215.155 49.4855C215.316 49.1552 215.716 49.0281 216.047 49.189C216.379 49.35 216.506 49.748 216.345 50.0783C216.345 50.0783 216.345 50.0868 216.336 50.0868Z" fill="white"/>
<path d="M146.806 0.686019L146.44 12.9494L145.471 0.719896C145.446 0.355722 145.718 0.0338932 146.083 0.00848564C146.449 -0.0169219 146.772 0.254092 146.797 0.618266C146.806 0.635204 146.806 0.660612 146.806 0.686019Z" fill="white"/>
<path d="M149.245 99.9784L149.075 120.186L147.911 100.012C147.894 99.6481 148.174 99.3348 148.54 99.3093C148.905 99.2924 149.22 99.5634 149.245 99.9361C149.245 99.9445 149.245 99.9615 149.245 99.9784Z" fill="white"/>
<path d="M147.205 16.9044L146.67 22.2146L145.871 16.9383C145.82 16.5741 146.066 16.2354 146.432 16.1761C146.797 16.1253 147.137 16.3709 147.197 16.735C147.205 16.7859 147.205 16.8451 147.205 16.9044Z" fill="white"/>
<path d="M148.812 82.1002L148.276 87.4104L147.477 82.1341C147.426 81.7699 147.673 81.4312 148.038 81.3719C148.404 81.3211 148.744 81.5667 148.803 81.9308C148.812 81.9901 148.812 82.0494 148.812 82.1002Z" fill="white"/>
<path d="M149.016 90.5441L148.48 95.8543L147.681 90.578C147.63 90.2138 147.877 89.875 148.242 89.8157C148.608 89.7649 148.948 90.0105 149.007 90.3747C149.016 90.434 149.024 90.4933 149.016 90.5441Z" fill="white"/>
<path d="M147.426 25.8394L148.081 79.4746L146.1 25.8732C146.083 25.5091 146.372 25.2042 146.738 25.1872C147.103 25.1703 147.409 25.4582 147.426 25.8224C147.426 25.8224 147.426 25.8309 147.426 25.8394Z" fill="white"/>
<path d="M252.471 91.4247L248.136 94.5668L251.561 90.4592C251.799 90.1797 252.216 90.1374 252.505 90.3745C252.785 90.6117 252.828 91.0266 252.59 91.3146C252.556 91.3485 252.513 91.3908 252.471 91.4247Z" fill="white"/>
<path d="M245.926 97.5311L183.747 155.613L245.008 96.5741C245.271 96.32 245.696 96.3284 245.951 96.591C246.198 96.8535 246.198 97.2685 245.926 97.5311C245.926 97.5226 245.926 97.5311 245.926 97.5311Z" fill="white"/>
<path d="M220.289 77.0778L216.847 81.1684L219.176 76.3579C219.337 76.0276 219.737 75.8837 220.068 76.0446C220.4 76.2055 220.544 76.6035 220.383 76.9338C220.349 76.9847 220.323 77.0355 220.289 77.0778Z" fill="white"/>
<path d="M215.41 84.5901L198.291 108.778L214.305 83.8448C214.501 83.5399 214.917 83.4468 215.223 83.6415C215.529 83.8363 215.623 84.2513 215.427 84.5562C215.427 84.5732 215.419 84.5901 215.41 84.5901Z" fill="white"/>
<path d="M173.19 45.4033L153.972 121.507L171.898 45.0899C171.983 44.7342 172.34 44.514 172.697 44.5987C173.054 44.6834 173.275 45.0391 173.19 45.3948V45.4033Z" fill="white"/>
<path d="M195.648 49.1635L192.996 53.8046L194.424 48.6554C194.526 48.2997 194.892 48.0879 195.249 48.1896C195.606 48.2912 195.818 48.6554 195.716 49.0111C195.699 49.0619 195.674 49.1127 195.648 49.1635Z" fill="white"/>
<path d="M192.214 57.4042L164.121 125.92L190.973 56.913C191.109 56.5743 191.491 56.4049 191.832 56.5319C192.172 56.6674 192.342 57.0485 192.214 57.3873C192.214 57.3958 192.214 57.4042 192.214 57.4042Z" fill="white"/>
<path d="M240.138 158.416L234.859 159.348L239.738 157.146C240.078 156.993 240.469 157.146 240.622 157.476C240.775 157.815 240.622 158.204 240.291 158.357C240.24 158.391 240.189 158.408 240.138 158.416Z" fill="white"/>
<path d="M231.553 161.067L202.848 168.672L231.187 159.796C231.536 159.686 231.91 159.881 232.02 160.228C232.131 160.576 231.935 160.948 231.587 161.058C231.57 161.058 231.561 161.058 231.553 161.067Z" fill="white"/>
<path d="M257.299 93.7283C257.299 95.0495 258.378 96.1251 259.704 96.1251C261.03 96.1251 262.11 95.0495 262.11 93.7283C262.11 92.3987 261.03 91.3315 259.704 91.3315C258.378 91.3315 257.299 92.4071 257.299 93.7283Z" fill="white"/>
<path d="M172.349 38.2977C172.349 39.6274 173.428 40.6945 174.754 40.6945C176.08 40.6945 177.16 39.6189 177.16 38.2977C177.16 36.9765 176.08 35.9009 174.754 35.9009C173.428 35.8925 172.349 36.968 172.349 38.2977Z" fill="white"/>
<path d="M260.206 82.151C260.206 83.0233 260.912 83.7262 261.787 83.7262C262.663 83.7262 263.368 83.0233 263.368 82.151C263.368 81.2786 262.663 80.5757 261.787 80.5757C260.92 80.5757 260.206 81.2786 260.206 82.151Z" fill="white"/>
<path d="M175.587 28.9732C175.587 29.8455 176.292 30.5485 177.168 30.5485C178.043 30.5485 178.749 29.8455 178.749 28.9732C178.749 28.1009 178.043 27.3979 177.168 27.3979C176.292 27.3979 175.587 28.1009 175.587 28.9732Z" fill="white"/>
<path d="M266.31 138.479C266.174 139.343 266.76 140.148 267.619 140.283C268.486 140.419 269.293 139.834 269.438 138.979C269.574 138.115 268.987 137.311 268.12 137.175C267.262 137.031 266.446 137.616 266.31 138.479Z" fill="white"/>
<path d="M223.613 90.942C223.613 91.8144 224.319 92.5173 225.194 92.5173C226.07 92.5173 226.775 91.8144 226.775 90.942C226.775 90.0697 226.07 89.3668 225.194 89.3668C224.327 89.3583 223.613 90.0697 223.613 90.942Z" fill="white"/>
<path d="M220.57 100.605L203.145 118.577L219.592 99.7077C219.83 99.4282 220.255 99.4028 220.527 99.6399C220.808 99.8771 220.833 100.301 220.595 100.572C220.587 100.588 220.578 100.597 220.57 100.605Z" fill="white"/>
</g>
</svg>
