<svg width="171" height="32" viewBox="0 0 171 32" fill="none" xmlns="http://www.w3.org/2000/svg">
<path fill-rule="evenodd" clip-rule="evenodd" d="M30.6601 19.2429C30.6601 19.5888 30.5363 19.8802 30.2881 20.1185C30.0392 20.3568 29.7016 20.4759 29.2755 20.4759H28.1222V11.6862H29.2755C29.7016 11.6862 30.0392 11.8053 30.2874 12.0436C30.5356 12.2819 30.6608 12.574 30.6608 12.9192V19.2429H30.6601ZM32.7542 10.3823C32.3998 10.0487 31.9527 9.78659 31.415 9.59595C30.8759 9.40531 30.24 9.30999 29.5061 9.30999H24.0834L24.981 10.541V21.6749L24.0841 22.9059H29.5068C30.24 22.9059 30.8759 22.8072 31.4143 22.6111C31.9527 22.4143 32.3998 22.1461 32.7549 21.807C33.1009 21.4806 33.3705 21.0808 33.5443 20.6366C33.7161 20.1961 33.8013 19.7311 33.8013 19.2429L33.802 12.9192C33.802 12.431 33.7154 11.9694 33.5443 11.5343C33.3698 11.0957 33.0998 10.702 32.7542 10.3823ZM40.9766 14.5505C40.9766 15.2668 40.7196 15.6589 39.9999 15.6875H38.5991V11.5377H39.847C40.1967 11.5377 40.9935 11.5936 40.9766 12.6101V14.5505ZM42.7522 16.9389C43.0027 16.8162 43.2355 16.6598 43.4441 16.4739C43.6606 16.2853 44.1584 15.7454 44.1544 14.6901V12.2213C44.1544 11.9354 44.1273 11.6262 44.0746 11.2926C44.0177 10.9513 43.884 10.6275 43.6836 10.3462C43.4766 10.048 43.1628 9.80088 42.7434 9.60412C42.3227 9.40735 41.7464 9.30931 41.0125 9.30931H35.4639V22.9052H38.5984V18.1883H40.4456C40.8244 18.1883 41.2269 18.3823 41.2255 18.9188V22.9052H44.4209V19.0639C44.4209 18.413 44.2301 17.1779 42.7522 16.9382V16.9389ZM45.8833 12.4222V19.7713C45.8616 22.2182 47.5073 22.8896 48.9677 22.9059H53.248V20.3779H49.5927C48.9487 20.3779 49.0197 19.7434 49.0197 19.7434V17.344H52.7704V14.8426H49.0191V12.5025C49.0191 12.5025 48.9765 11.8155 49.5981 11.8114H53.2473V9.30999H49.1652C46.2526 9.30999 45.8826 11.2681 45.8826 12.4215L45.8833 12.4222ZM60.773 15.6834H57.9808V11.5418L59.4059 11.5432C60.4273 11.5432 60.7554 11.9885 60.7723 12.8552V15.6834H60.773ZM59.7218 9.31067H54.8449V22.9059H57.9808V18.1849H60.773V22.9059H63.9676V13.2085C63.9676 10.2666 61.9776 9.30999 59.7218 9.30999V9.31067ZM75.7127 9.07782C74.4546 9.08054 73.3953 9.31884 72.633 9.68514C72.3616 9.50797 72.0655 9.37257 71.7544 9.28344C71.4175 9.18199 69.2889 8.78914 65.7817 9.45705V22.9059H68.9128V11.9469C70.3346 11.776 70.71 11.9708 70.8494 12.0525C71.3688 12.3568 71.3729 12.9839 71.3729 13.2392V22.9059H74.1245V12.9192C74.1245 12.7047 74.1062 12.4725 74.0704 12.222C74.2124 12.1628 74.343 12.111 74.6149 12.0511C74.8868 11.9912 75.5179 11.8468 76.0272 12.1035C76.2687 12.2247 76.5636 12.4841 76.5616 13.1691V22.9052H79.6974V12.9553C79.6974 11.9299 79.6359 10.8378 78.8066 10.0705C78.2607 9.56531 77.5228 9.07374 75.7127 9.0785V9.07782ZM81.8024 12.1907H83.2113V22.9059H86.3573V9.30999H82.7074L81.8024 12.1907ZM88.7159 9.30999L87.8102 12.19H89.2198V22.9059H92.3651V9.30999H88.7159ZM11.5767 16.16C11.7688 15.9762 11.8337 15.6508 11.8337 15.3839V10.7309C11.8337 10.4028 11.7918 10.1604 11.5767 9.94795C11.3886 9.76071 11.1255 9.6722 10.7968 9.6722H9.85049V16.4358H10.7968C11.1255 16.4358 11.3853 16.3439 11.5767 16.16Z" fill="white"/>
<path fill-rule="evenodd" clip-rule="evenodd" d="M6.62289 18.3149L7.47043 17.3958V8.79321L6.62289 7.87406H9.81079C11.7879 7.87406 12.1106 7.94351 12.5259 8.08989C12.9405 8.23696 13.2063 8.40989 13.4796 8.66726C13.7535 8.92462 13.9565 9.22079 14.0884 9.55577C14.2209 9.89075 14.2872 10.2468 14.2872 10.6233V15.486C14.2872 15.8625 14.2209 16.2213 14.089 16.5604C13.9565 16.9008 13.7535 17.2004 13.4803 17.4625C13.2063 17.7246 12.8566 17.9166 12.4467 18.0821C11.6513 18.4041 9.94201 18.317 9.60381 18.317L6.62289 18.3149ZM12.5063 22.2434C16.1291 19.8312 17.8526 18.575 18.6304 17.7811C20.8085 15.5595 20.7293 13.9786 20.6989 10.9774C20.6975 10.861 20.6989 9.95611 20.6989 9.95611L20.3404 9.71441C20.2863 9.67832 19.3129 9.02879 18.1712 8.59849V10.336C18.5641 10.5171 18.9152 10.7119 19.1587 10.8562L19.1607 10.9944C19.181 13.0288 19.2115 14.3667 18.6365 15.6616C18.3125 16.4017 17.8992 16.7993 17.536 17.2262C16.3401 18.6302 11.2894 22.3326 11.2894 22.3326V22.1794C11.2894 22.1794 14.4759 19.4526 15.0272 18.8896C17.3405 16.5236 17.5286 14.4211 17.5604 13.0336V7.12513C17.5604 7.12513 14.3204 5.76274 10.3972 5.79474C5.60625 5.83491 3.19352 7.12513 3.19352 7.12513V13.0315C3.22531 14.4191 3.4032 16.4868 5.71786 18.8542C6.26304 19.4111 9.4347 22.1794 9.4347 22.1794V22.3333C9.4347 22.3333 4.32785 18.6826 3.14346 17.2719C2.62872 16.6591 2.25061 16.0838 2.02875 15.5153C1.61479 14.6513 1.5857 12.9505 1.606 10.9944L1.60735 10.8562C1.85085 10.7125 2.1992 10.5185 2.58949 10.3387V8.60053C1.83259 8.89613 1.10795 9.26938 0.427022 9.71441L0.0685271 9.95543C0.0685271 9.95543 0.0698799 10.861 0.0685271 10.9767C0.0380889 13.9786 0.0279428 15.6827 2.13697 17.7811C2.82691 18.4674 5.61911 20.463 8.21582 22.2407L9.26831 22.976C8.67218 23.462 8.07785 23.9502 7.48531 24.4405C6.95095 24.8913 6.79537 25.1588 6.78726 25.4536V26.1876H13.9605V25.4536C13.9375 25.1084 13.8009 24.8919 13.2625 24.4419C12.9818 24.207 12.6125 23.9095 12.0159 23.4111L8.57838 25.0138V24.9403L12.5069 22.2427L12.5063 22.2434Z" fill="white"/>
<path fill-rule="evenodd" clip-rule="evenodd" d="M103.389 1.24255H104.066V30.7717H103.389V1.24255Z" fill="white"/>
<mask id="mask0_671_502" style="mask-type:alpha" maskUnits="userSpaceOnUse" x="113" y="0" width="58" height="32">
<path d="M113.833 0.0803223H170.979V31.9305H113.833V0.0803223Z" fill="white"/>
</mask>
<g mask="url(#mask0_671_502)">
<path fill-rule="evenodd" clip-rule="evenodd" d="M166.715 14.8596V10.9549L165.031 11.2538L162.554 7.88219C162.877 7.54027 163.151 7.15514 163.37 6.73768C163.515 6.46126 163.636 6.17258 163.73 5.87641L166.939 4.17905L167.015 3.34977L163.917 3.4696C163.771 2.49589 163.264 1.61409 162.497 1.00151C161.75 0.390109 160.873 0.0803223 159.891 0.0803223C159.602 0.0803223 159.301 0.107556 158.994 0.162024L153.353 1.16288L144.904 2.66279V4.16066C144.13 3.54653 143.174 3.21202 142.188 3.21088C141.944 3.21088 141.699 3.2313 141.461 3.27351L136.729 4.11368L131.8 4.98858L130.138 5.28339L125.209 6.15828V7.65207C124.914 7.4114 124.586 7.21446 124.235 7.06721C123.676 6.83164 123.042 6.71249 122.351 6.71249C121.952 6.71249 121.524 6.75198 121.081 6.83096C119.886 7.04339 118.853 7.56151 118.01 8.37173C117.103 9.24253 116.645 10.3285 116.645 11.599L116.646 11.6847L113.833 12.5515L114.125 13.2017L117.355 13.8274C117.566 14.0985 117.82 14.3335 118.106 14.5232L115.602 16.9647L116.121 17.6912C116.622 18.3911 117.323 18.9358 118.206 19.3103L118.215 19.3144C118.594 19.471 119.011 19.5731 119.462 19.6241C118.928 19.8853 118.438 20.2284 118.01 20.6413C117.103 21.5128 116.645 22.5981 116.645 23.8686V23.8992L113.833 24.7653L114.125 25.4162L117.304 26.0316C117.525 26.3305 117.797 26.5882 118.106 26.7935L115.602 29.235L116.121 29.9608C116.622 30.6607 117.323 31.2061 118.206 31.5806L118.215 31.5847C118.773 31.8148 119.413 31.9312 120.119 31.9312C120.562 31.9312 121.044 31.8856 121.553 31.795C122.897 31.5567 123.988 31.072 124.807 30.3544V31.0693L129.389 30.2556L133.242 29.5714L136.418 29.0076L140.754 28.2383L144.249 27.618L149.222 26.7356L148.996 26.1991C149.52 26.3932 150.112 26.4926 150.76 26.4926C151.203 26.4926 151.685 26.447 152.194 26.3564C153.538 26.1181 154.63 25.6333 155.447 24.9157V25.6306L160.231 24.7816L161.932 24.4793L166.715 23.6303V19.9836L169.264 19.4866V16.595L170.903 15.729L170.979 14.899L166.715 14.8596Z" fill="#141134"/>
</g>
<path fill-rule="evenodd" clip-rule="evenodd" d="M166.896 19.0911V18.3319L166.634 18.3782V18.1297L167.417 17.9908V18.2393L167.161 18.2849V19.0441L166.896 19.0911ZM167.475 18.9883V17.9806L167.693 17.9418L168.007 18.3442L168.322 17.8301L168.539 17.792V18.7997L168.294 18.8426V18.3095L168.007 18.7724L167.721 18.4116V18.9447L167.475 18.9883ZM114.96 12.7673L118.088 13.0846C118.464 13.6293 119.096 13.9949 119.982 14.1808C120.456 14.2761 121.173 14.3714 121.561 14.4225C121.762 14.4463 121.963 14.4851 122.149 14.5266C122.536 14.622 122.709 14.7847 122.709 15.0672C122.709 15.5588 122.264 15.8911 121.374 16.0484C120.327 16.2342 119.409 15.8761 118.878 15.2109L116.956 17.086C117.343 17.6272 117.889 18.0521 118.606 18.3564C119.337 18.6581 120.256 18.7037 121.374 18.5049C124.028 18.0337 125.362 16.5168 125.362 14.5069C125.362 13.0928 124.659 12.2792 122.938 11.9449C122.32 11.8209 121.551 11.7243 121.196 11.7079L117.749 12.303L114.96 12.7673ZM120.27 11.0931C120.27 10.7207 120.657 10.3844 121.36 10.2598C121.407 10.2509 121.455 10.2434 121.501 10.238C121.686 10.2135 121.861 10.2073 122.026 10.2203C122.109 10.2271 122.189 10.238 122.267 10.2536C122.612 10.322 122.927 10.4983 123.167 10.7575L124.512 9.32427L124.96 8.84631C124.586 8.40268 124.091 8.07834 123.537 7.91286C123.3 7.84235 123.058 7.79448 122.813 7.76988C122.59 7.74827 122.367 7.74213 122.143 7.7515C121.863 7.76239 121.568 7.79575 121.259 7.8509C120.27 8.02588 119.423 8.44461 118.721 9.12001C118.017 9.79541 117.673 10.6158 117.673 11.5983C117.673 11.6548 117.675 11.7106 117.678 11.7651L120.289 11.2858C120.275 11.2226 120.268 11.1579 120.27 11.0931ZM162.761 5.5258L166.137 3.95371L162.945 4.50248L160.091 4.99541C160.048 5.74571 159.589 6.25295 158.856 6.38299L157.253 6.66758V5.48495L154.382 5.98061V12.9661L157.253 12.4562V8.87422L158.192 8.68427L158.187 8.6509L160.489 11.8822L163.783 11.2967L161.153 7.71678C161.908 7.22384 162.481 6.43133 162.761 5.5258ZM161.849 1.80427C161.108 1.19831 160.216 0.996095 159.173 1.18129L154.382 2.03235V5.0349L162.872 3.4778C162.737 2.8163 162.375 2.22384 161.849 1.80495V1.80427ZM153.702 2.15286L145.932 3.53158V6.58384L153.702 5.15882V2.15286ZM129.11 6.51712L126.238 7.02707V10.1951L129.11 9.66878V6.51712ZM144.059 4.82112C143.318 4.32478 142.441 4.15116 141.64 4.29346L136.697 5.17039V8.27712L145.26 6.70707C145.081 5.85124 144.628 5.19082 144.059 4.82112ZM135.7 5.34741L132.828 5.85737V8.98656L135.7 8.46027V5.34741ZM142.048 9.1309C141.791 9.3018 141.655 9.35763 141.519 9.38214L139.569 9.72801V8.53652L132.828 9.70078V11.7712C132.828 13.5755 132.163 14.368 130.969 14.5798C129.775 14.7922 129.109 14.2352 129.109 12.4317V10.3421L126.238 10.8378V13.2548C126.238 14.8392 126.691 15.9667 127.584 16.64C128.475 17.3127 129.609 17.5197 130.969 17.278C132.329 17.0369 133.463 16.4276 134.355 15.4383C135.246 14.4484 135.7 13.1602 135.7 11.5752V9.35831L136.697 9.66469V16.1049L139.569 15.5949V12.4262L141.64 12.0586C142.562 11.8952 143.409 11.3838 144.18 10.5096C144.878 9.7178 145.265 8.82656 145.332 7.83797L145.932 8.0218V14.4654L153.823 13.0649V10.43L148.804 11.3205V9.86146L153.369 9.05124V6.60427L148.804 7.41448V6.94333L142.517 8.02861C142.517 8.54605 142.335 8.95456 142.048 9.13158V9.1309ZM155.217 16.0872L155.602 15.678C154.963 14.9304 154.07 14.5648 152.923 14.5798C152.58 14.5861 152.238 14.6203 151.9 14.6819C150.911 14.8575 150.064 15.2763 149.361 15.9517C148.676 16.6107 148.333 17.4073 148.315 18.3578L150.913 17.8812C150.942 17.5272 151.325 17.2112 152.001 17.0914C152.045 17.0832 152.088 17.0764 152.131 17.071L152.175 17.0655C152.203 17.0621 152.231 17.0587 152.258 17.0567L152.31 17.0526C152.374 17.0485 152.437 17.0462 152.501 17.0458L152.559 17.0465C152.577 17.0465 152.596 17.0485 152.615 17.0492C152.698 17.054 152.778 17.0628 152.855 17.0764L152.884 17.0812C152.909 17.086 152.934 17.0914 152.96 17.0975L152.987 17.1044L153.063 17.1248L153.082 17.1316C153.109 17.1398 153.137 17.1486 153.163 17.1588H153.166C153.317 17.2153 153.458 17.2929 153.588 17.3917C153.665 17.4502 153.739 17.5156 153.808 17.5891L154.079 17.3011L155.217 16.0872ZM150.624 21.0131C151.097 21.1078 151.814 21.2038 152.202 21.2541C152.403 21.278 152.603 21.3168 152.79 21.3583C153.177 21.4536 153.349 21.6164 153.349 21.8989C153.349 22.3905 152.905 22.7227 152.015 22.88C150.968 23.0659 150.05 22.7078 149.519 22.0426L147.597 23.9176C147.984 24.4589 148.529 24.8838 149.247 25.1881C149.978 25.4897 150.896 25.5353 152.015 25.3365C154.669 24.8654 156.003 23.3484 156.003 21.3386C156.003 19.9244 155.3 19.1108 153.579 18.7765C153.119 18.6867 152.654 18.6172 152.188 18.5682L148.411 19.2204C148.663 20.1586 149.402 20.7558 150.623 21.0131H150.624ZM136.814 17.5061L134.572 17.9037L132.521 21.2541L136.814 20.4671V17.5061ZM128.076 19.057L125.834 19.4546V22.481L130.137 21.6912L128.076 19.057ZM143.695 16.2873L141.2 16.7299L140.045 19.8747L144.838 18.9958L143.695 16.2873ZM143.652 23.1285L141.242 23.5568L142.401 20.2587L139.555 20.7503L136.815 21.2364V21.2235L132.034 22.0494L131.324 23.2095L130.609 22.2958L125.834 23.1204V29.8526L128.363 29.4032V23.8992L131.324 27.6249L134.285 22.848V28.3527L136.814 27.9033V21.3631L139.227 22.1032L137.125 27.8305L139.994 27.3212L140.525 25.8724L144.369 25.1901L144.886 26.4531L147.769 25.9411L145.169 19.7801L142.493 20.2431L143.652 23.1285ZM159.202 13.5353L156.476 14.0187V16.862L159.202 16.3615V13.5353Z" fill="white"/>
<path fill-rule="evenodd" clip-rule="evenodd" d="M165.686 16.2363L156.477 17.8267V24.3963L159.203 23.9122V19.7283L162.961 19.0611V23.2449L165.687 22.7615V17.474L169.993 15.4723L165.686 16.2363ZM165.686 12.1886L162.96 12.672V15.6725L165.686 15.1728V12.1886ZM114.96 24.9811L118.048 25.2943C118.418 25.8723 119.064 26.2577 119.982 26.4518C120.456 26.5457 121.173 26.6424 121.561 26.6921C121.762 26.7166 121.963 26.7547 122.149 26.7963C122.536 26.8916 122.709 27.055 122.709 27.3369C122.709 27.8284 122.264 28.1607 121.374 28.3186C120.327 28.5045 119.409 28.1464 118.878 27.4812L116.956 29.3556C117.343 29.8975 117.889 30.3224 118.606 30.626C119.337 30.9283 120.256 30.9733 121.374 30.7752C124.028 30.304 125.362 28.7871 125.362 26.7772C125.362 25.3624 124.659 24.5494 122.938 24.2145C122.307 24.0885 121.518 23.9898 121.173 23.9769C121.114 23.9719 121.055 23.965 120.996 23.9564L117.737 24.5195L114.96 24.9811ZM124.96 21.1159C124.143 20.1593 122.909 19.8277 121.259 20.1205C120.27 20.2962 119.423 20.7142 118.721 21.3903C118.017 22.0657 117.673 22.8861 117.673 23.8686C117.673 23.9054 117.675 23.9408 117.676 23.9769L120.279 23.4996C120.273 23.4545 120.269 23.409 120.27 23.3634C120.27 22.991 120.657 22.654 121.36 22.5294C121.407 22.5212 121.453 22.5144 121.498 22.5083L121.551 22.5021C121.578 22.4994 121.605 22.4953 121.632 22.4933L121.698 22.4892L121.762 22.4851L121.836 22.4844H121.888C121.915 22.4844 121.941 22.4858 121.967 22.4872L122.011 22.4892C122.038 22.4912 122.065 22.494 122.092 22.4974C122.105 22.4987 122.117 22.4994 122.129 22.5015C122.158 22.5049 122.186 22.5096 122.214 22.5151L122.244 22.5198C122.274 22.5253 122.302 22.5321 122.331 22.5389L122.356 22.5443C122.385 22.5525 122.414 22.5607 122.444 22.5702L122.463 22.5757C122.529 22.5973 122.593 22.6232 122.656 22.6533L122.667 22.6587C122.731 22.6896 122.793 22.7247 122.853 22.7636L122.858 22.767C122.887 22.786 122.916 22.8072 122.945 22.8283L122.948 22.831C122.977 22.8528 123.006 22.8759 123.033 22.9004L123.035 22.9011C123.063 22.9256 123.091 22.9515 123.119 22.9787L123.167 23.0277L123.233 22.9576L124.96 21.1159Z" fill="white"/>
</svg>
