<svg width="14" height="12" viewBox="0 0 14 12" fill="none" xmlns="http://www.w3.org/2000/svg">
  <path d="M5.1,0.4c0.1,0,0.1,0,0.2,0.1C5.3,0.5,5.9,1.3,7,1.3s1.7-0.8,1.7-0.9c0-0.1,0.1-0.1,0.2-0.1h1.9
	c0.1,0,0.1,0,0.1,0.1l2.8,2.8c0.1,0.1,0.1,0.3,0,0.4l-1.9,1.9c-0.1,0.1-0.3,0.1-0.4,0l-1-0.9v6.8c0,0.1-0.1,0.2-0.2,0.2H3.6
	c-0.1,0-0.2-0.1-0.2-0.2V4.7L2.5,5.5c0,0,0,0,0,0l0,0c-0.1,0.1-0.3,0.1-0.4,0L0.2,3.7c-0.1-0.1-0.1-0.3,0-0.4L3,0.4
	c0,0,0.1-0.1,0.1-0.1H5.1z" fill="#A3B0D0" />
  <path d="M6.4,4.1h-1v3.1l0,0.1c0,0.7,0.5,1.3,1.2,1.3h0.9l0.1,0c0.6-0.1,1.1-0.7,1.1-1.4V4.1h-1v3.1l0,0.1
	c0,0.2-0.1,0.3-0.2,0.3H6.5l0,0c-0.1,0-0.2-0.2-0.2-0.4V4.1z" fill="#ffffff" />
</svg>
