<svg width="191" height="125" viewBox="0 0 191 125" fill="none" xmlns="http://www.w3.org/2000/svg">
<g opacity="0.2">
<g opacity="0.3" filter="url(#filter0_f)">
<path fill-rule="evenodd" clip-rule="evenodd" d="M41 120.372C60.33 120.372 76 119.476 76 118.372C76 117.267 60.33 116.372 41 116.372C21.67 116.372 6 117.267 6 118.372C6 119.476 21.67 120.372 41 120.372Z" fill="#000533"/>
</g>
<g opacity="0.3" filter="url(#filter1_f)">
<path fill-rule="evenodd" clip-rule="evenodd" d="M41 120C53.1503 120 63 119.105 63 118C63 116.895 53.1503 116 41 116C28.8497 116 19 116.895 19 118C19 119.105 28.8497 120 41 120Z" fill="#000533"/>
</g>
</g>
<path d="M5.04256 0C2.2576 0 0 2.24394 0 5.01197V70.4302C0 73.1982 2.2576 75.4421 5.04256 75.4421H24.6293H56.1486H76.9061C79.6911 75.4421 81.9487 73.1982 81.9487 70.4302V5.01197C81.9487 2.24394 79.6911 0 76.9061 0H5.04256Z" fill="#5AF7DC"/>
<path d="M52.0371 33.1082C51.9649 32.9757 51.8603 32.8654 51.7338 32.7888C51.6073 32.7121 51.4635 32.6717 51.3172 32.6717H44.458C42.3444 32.6717 40.7096 30.8183 40.9734 28.7212L42.2939 18.224C42.3134 18.0307 42.2698 17.8361 42.1701 17.6717C42.0704 17.5072 41.9204 17.3825 41.7443 17.3175C41.5682 17.2526 41.3761 17.2512 41.1991 17.3135C41.0222 17.3759 40.8705 17.4984 40.7686 17.6614L27.5851 41.6913C27.508 41.8218 27.4658 41.9713 27.4627 42.1244C27.4596 42.2775 27.4959 42.4287 27.5677 42.5624C27.6395 42.696 27.7443 42.8074 27.8713 42.8848C27.9982 42.9623 28.1428 43.0032 28.29 43.0032H35.0896C37.1668 43.0032 38.7902 44.7962 38.5844 46.8632L37.5283 57.4726C37.5142 57.6653 37.5624 57.8574 37.6653 58.0183C37.7681 58.1792 37.9198 58.2997 38.0961 58.3606C38.2724 58.4215 38.4631 58.4193 38.6381 58.3544C38.8131 58.2894 38.9621 58.1655 39.0616 58.0023L52.0272 33.9749C52.1024 33.8443 52.1429 33.6952 52.1446 33.543C52.1464 33.3907 52.1093 33.2407 52.0371 33.1082Z" fill="#00004B"/>
<g opacity="0.2">
<g opacity="0.3" filter="url(#filter2_f)">
<path fill-rule="evenodd" clip-rule="evenodd" d="M150 120.372C169.33 120.372 185 119.476 185 118.372C185 117.267 169.33 116.372 150 116.372C130.67 116.372 115 117.267 115 118.372C115 119.476 130.67 120.372 150 120.372Z" fill="#000533"/>
</g>
<g opacity="0.3" filter="url(#filter3_f)">
<path fill-rule="evenodd" clip-rule="evenodd" d="M150 120C162.15 120 172 119.105 172 118C172 116.895 162.15 116 150 116C137.85 116 128 116.895 128 118C128 119.105 137.85 120 150 120Z" fill="#000533"/>
</g>
</g>
<path d="M114.043 0C111.258 0 109 2.24394 109 5.01197V70.4302C109 73.1982 111.258 75.4421 114.043 75.4421H133.629H165.149H185.906C188.691 75.4421 190.949 73.1982 190.949 70.4302V5.01197C190.949 2.24394 188.691 0 185.906 0H114.043Z" fill="#5AF7DC"/>
<path d="M149.038 34.8316C154.979 34.2051 161.711 33.4959 166.262 38.0468C170.09 41.8742 169.919 45.6257 169.102 48.0974C168.521 49.8575 167.418 51.556 165.826 53.1475C163.327 55.647 156.51 59.0683 151.26 53.8182C146.94 49.4991 147.409 44.4276 147.563 42.7591C147.565 42.7374 147.567 42.716 147.569 42.696C147.575 42.6333 147.58 42.5786 147.583 42.533C147.56 41.3737 148.447 40.3829 149.619 40.2926C150.835 40.199 151.896 41.1096 151.99 42.3235C152.011 42.593 151.989 42.8326 151.958 43.1655C151.84 44.4452 151.526 47.8432 154.381 50.698C155.799 52.1157 157.373 52.5035 159.338 51.9201C161.063 51.4074 162.436 50.2959 162.684 50.0482C163.116 49.6167 164.364 48.3703 164.911 46.7141C165.541 44.8046 164.962 42.9898 163.141 41.1683C160.078 38.1051 155.129 38.6272 149.805 39.189C149.704 39.1997 149.602 39.2104 149.501 39.221C143.619 39.8412 137.538 40.4816 133.438 36.3819C129.018 31.9614 130.106 24.712 133.847 20.9707C137.474 17.3435 144.726 16.5105 149.33 21.1152C150.888 22.6732 151.701 24.2727 152.092 25.7147L153.27 25.5023C154.341 25.3092 155.173 26.4216 154.685 27.3943L151.723 33.2964C151.328 34.0833 150.288 34.2708 149.644 33.6714L144.807 29.1758C144.01 28.4349 144.401 27.1019 145.472 26.9087L147.729 26.5016C147.411 25.7374 146.93 24.9568 146.209 24.2363C143.344 21.3715 138.822 22.2378 136.968 24.0917C134.969 26.0913 133.846 30.5467 136.56 33.2606C139.171 35.8715 143.963 35.3665 149.038 34.8316Z" fill="#00004B"/>
<defs>
<filter id="filter0_f" x="2" y="112.372" width="78" height="12" filterUnits="userSpaceOnUse" color-interpolation-filters="sRGB">
<feFlood flood-opacity="0" result="BackgroundImageFix"/>
<feBlend mode="normal" in="SourceGraphic" in2="BackgroundImageFix" result="shape"/>
<feGaussianBlur stdDeviation="2" result="effect1_foregroundBlur"/>
</filter>
<filter id="filter1_f" x="16" y="113" width="50" height="10" filterUnits="userSpaceOnUse" color-interpolation-filters="sRGB">
<feFlood flood-opacity="0" result="BackgroundImageFix"/>
<feBlend mode="normal" in="SourceGraphic" in2="BackgroundImageFix" result="shape"/>
<feGaussianBlur stdDeviation="1.5" result="effect1_foregroundBlur"/>
</filter>
<filter id="filter2_f" x="111" y="112.372" width="78" height="12" filterUnits="userSpaceOnUse" color-interpolation-filters="sRGB">
<feFlood flood-opacity="0" result="BackgroundImageFix"/>
<feBlend mode="normal" in="SourceGraphic" in2="BackgroundImageFix" result="shape"/>
<feGaussianBlur stdDeviation="2" result="effect1_foregroundBlur"/>
</filter>
<filter id="filter3_f" x="125" y="113" width="50" height="10" filterUnits="userSpaceOnUse" color-interpolation-filters="sRGB">
<feFlood flood-opacity="0" result="BackgroundImageFix"/>
<feBlend mode="normal" in="SourceGraphic" in2="BackgroundImageFix" result="shape"/>
<feGaussianBlur stdDeviation="1.5" result="effect1_foregroundBlur"/>
</filter>
</defs>
</svg>
