<svg width="281" height="237" viewBox="0 0 281 237" fill="none" xmlns="http://www.w3.org/2000/svg">
<path d="M34.5815 144.542L270.575 169.701C272.749 169.935 274.458 172.038 274.303 174.375L271.274 233.417C271.119 235.754 269.255 237.312 267.081 236.922L32.0189 194.549C30.8541 194.315 29.9222 192.757 29.9999 191.044L32.2519 147.502C32.3295 145.711 33.4167 144.464 34.5815 144.542Z" fill="url(#paint0_linear)"/>
<path opacity="0.5" d="M75.3505 178.114L115.42 183.956L114.799 196.185L74.7292 189.642L75.3505 178.114Z" fill="url(#paint1_linear)" fill-opacity="0.98"/>
<path opacity="0.5" d="M76.1271 162.302L170.09 174.063L169.391 187.227L75.5059 173.908L76.1271 162.302Z" fill="url(#paint2_linear)" fill-opacity="0.98"/>
<path d="M193.231 186.682L191.367 186.448C191.367 187.071 191.445 187.617 191.755 187.928C191.988 188.318 192.454 188.551 192.998 188.629C193.386 188.707 193.774 188.629 194.085 188.551L194.24 190.187C193.774 190.265 193.308 190.265 192.765 190.187C191.755 190.031 190.979 189.642 190.435 188.941C189.892 188.24 189.659 187.305 189.659 186.214L188.727 186.059L188.804 185.046L189.736 185.202L189.814 184.423L188.882 184.267L188.96 183.255L189.892 183.41C190.047 182.32 190.358 181.541 190.979 180.996C191.6 180.45 192.377 180.295 193.386 180.373C193.774 180.45 194.24 180.528 194.706 180.762L194.396 182.32C194.085 182.164 193.697 182.008 193.386 182.008C192.299 181.853 191.678 182.398 191.522 183.644L193.386 183.878L193.308 184.89L191.445 184.657L191.367 185.436L193.231 185.669V186.682ZM199.21 190.888L197.579 190.654L197.968 183.255L195.949 183.722L196.026 182.164L199.521 181.151H199.676L199.21 190.888ZM206.044 191.901L204.335 191.667L204.724 184.267L202.705 184.735L202.782 183.177L206.355 182.164H206.51L206.044 191.901ZM210.858 185.202V186.059C211.324 185.513 211.946 185.28 212.722 185.358C213.576 185.436 214.12 185.903 214.353 186.682C214.819 185.981 215.518 185.747 216.372 185.825C217.071 185.903 217.614 186.214 217.925 186.76C218.236 187.305 218.391 188.006 218.313 188.941L218.08 193.614L216.372 193.381L216.605 188.707C216.605 188.318 216.605 188.006 216.45 187.772C216.294 187.539 216.061 187.461 215.673 187.383C215.13 187.305 214.819 187.539 214.586 188.084L214.353 193.069L212.645 192.835L212.878 188.162C212.878 187.772 212.878 187.461 212.722 187.227C212.567 186.993 212.334 186.915 212.023 186.838C211.557 186.76 211.169 186.993 210.936 187.383L210.703 192.524L208.995 192.29L209.383 185.046L210.858 185.202Z" fill="white"/>
<path d="M201.385 202.26L198.356 201.793L198.201 205.454L197.269 205.298L197.657 197.041L202.083 197.665L202.006 198.599L198.511 198.054L198.356 200.858L201.385 201.325V202.26ZM204.491 203.74L204.568 204.831L204.801 203.896L206.51 198.288L207.286 198.444L208.373 204.519L208.529 205.532L208.762 204.441L210.16 198.911L211.169 199.067L208.917 207.167L208.063 207.012L206.898 200.702L206.82 200.079L206.665 200.702L204.801 206.544L203.947 206.388L202.627 197.82L203.559 197.976L204.491 203.74ZM211.946 207.635L212.412 199.222L214.508 199.534C215.129 199.612 215.751 199.846 216.217 200.313C216.683 200.702 217.071 201.248 217.304 201.871C217.537 202.494 217.614 203.195 217.614 203.974V204.519C217.537 205.298 217.381 205.999 217.071 206.544C216.76 207.09 216.372 207.479 215.828 207.713C215.285 207.946 214.741 208.024 214.042 207.946L211.946 207.635ZM213.343 200.235L213.033 206.856L214.042 207.012C214.819 207.167 215.362 206.934 215.828 206.466C216.294 205.999 216.527 205.298 216.605 204.285V203.818C216.683 202.883 216.527 202.104 216.139 201.481C215.751 200.858 215.207 200.547 214.508 200.391L213.343 200.235Z" fill="white"/>
<path d="M235.32 204.207L237.727 204.597L238.193 194.86L235.941 195.016L236.096 192.446L241.144 192.056L240.445 204.986L243.241 205.376L242.619 207.791L235.165 206.622L235.32 204.207ZM249.997 209.193C249.298 209.115 248.599 208.881 247.978 208.569C247.356 208.336 246.735 207.946 246.269 207.557L246.58 205.298C246.968 205.687 247.434 205.999 248.055 206.233C248.677 206.466 249.22 206.622 249.764 206.7C250.618 206.856 251.317 206.7 251.86 206.233C252.404 205.765 252.715 205.142 252.715 204.207C252.792 203.351 252.559 202.572 252.093 202.026C251.627 201.403 251.006 201.092 250.23 200.936C249.919 200.858 249.608 200.936 249.22 200.936C248.832 201.014 248.521 201.092 248.288 201.17L247.279 200.313L248.133 192.913L256.131 194.004L255.277 196.574L250.074 195.873L249.764 199.067C250.152 198.989 250.618 198.989 251.161 199.067C252.637 199.3 253.724 199.923 254.501 200.936C255.277 201.949 255.665 203.273 255.588 204.831C255.51 205.921 255.277 206.778 254.734 207.479C254.19 208.18 253.569 208.647 252.715 208.959C251.86 209.27 250.929 209.348 249.997 209.193Z" fill="white"/>
<path d="M53.2187 188.629C59.664 189.72 65.3328 183.255 65.7988 174.219C66.2647 165.184 61.2948 157.239 54.9271 156.46C48.637 155.681 43.2012 162.146 42.7352 170.948C42.1917 179.594 46.851 187.539 53.2187 188.629Z" fill="white"/>
<path d="M49.103 178.815C52.1316 177.646 55.3931 178.192 58.344 180.217L57.0238 183.332L50.1125 182.242L49.103 178.815Z" fill="#9192B3"/>
<path d="M49.103 178.893L50.0349 179.048C50.5785 179.126 50.8891 179.749 50.8891 180.45L50.8114 182.398L49.569 182.242L49.103 178.893Z" fill="#9192B3"/>
<path d="M58.344 180.295L57.4121 180.139C56.8685 180.061 56.4803 180.606 56.4026 181.307L56.325 183.255L57.5674 183.488L58.344 180.295Z" fill="#9192B3"/>
<path d="M57.1791 174.92L50.7338 173.985L50.1902 184.189L56.6356 185.202L57.1791 174.92Z" fill="#C1C2D5"/>
<path fill-rule="evenodd" clip-rule="evenodd" d="M53.7624 178.269C50.9669 177.88 48.8702 174.219 49.1031 170.247L49.2584 167.52C49.4914 163.548 51.8987 160.51 54.6943 160.9C57.4899 161.289 59.6642 164.872 59.4312 168.922L59.2759 171.649C59.043 175.777 56.558 178.737 53.7624 178.269Z" fill="#D9DBE7"/>
<path d="M61.9161 184.89C59.5864 187.694 56.4802 189.096 53.141 188.551C49.8795 188.006 47.0063 185.591 45.1426 182.164L50.3455 179.672L53.374 184.111L56.8685 180.684L61.9161 184.89Z" fill="#9192B3"/>
<path d="M53.374 184.735L50.4231 179.749L53.4516 183.956L56.8685 180.762L53.374 184.735Z" fill="#D9DBE7"/>
<path fill-rule="evenodd" clip-rule="evenodd" d="M56.9462 165.262C58.344 165.417 59.4311 167.287 59.3535 169.39L59.5864 164.716C59.6641 162.613 58.6546 160.822 57.1791 160.666L56.8685 160.588L56.3249 158.563C56.1696 158.095 55.7813 157.784 55.4707 157.94L51.355 159.809C50.3455 160.276 49.4913 161.834 49.4136 163.392L49.1807 168.066C49.2583 166.04 50.5008 164.483 51.8986 164.716L56.9462 165.262Z" fill="#9192B3"/>
<path d="M4.53192 79.4158L238.808 83.0699C240.957 83.0699 242.645 85.0136 242.492 87.3461L239.499 146.279C239.345 148.612 237.504 150.322 235.355 150.167L1.99962 129.252C0.848572 129.175 -0.0722647 127.697 0.00447176 125.987L2.22983 82.5257C2.30656 80.7375 3.38087 79.4158 4.53192 79.4158Z" fill="url(#paint3_linear)" fill-opacity="0.98"/>
<path opacity="0.5" d="M44.9722 109.038L84.7984 111.215L84.1845 123.421L44.4351 120.622L44.9722 109.038Z" fill="url(#paint4_linear)" fill-opacity="0.98"/>
<path opacity="0.5" d="M45.816 93.3327L139.051 96.4426L138.437 109.582L45.2021 104.917L45.816 93.3327Z" fill="url(#paint5_linear)" fill-opacity="0.98"/>
<path d="M162.072 106.861L160.23 106.783C160.23 107.405 160.307 107.949 160.614 108.26C160.844 108.571 161.304 108.805 161.842 108.805C162.225 108.805 162.609 108.805 162.916 108.649L163.069 110.282C162.609 110.36 162.149 110.437 161.611 110.437C160.614 110.36 159.846 110.049 159.309 109.427C158.772 108.805 158.542 107.872 158.542 106.783L157.621 106.705L157.698 105.695L158.619 105.772L158.695 104.995L157.775 104.917L157.851 103.906L158.772 103.984C158.926 102.896 159.233 102.041 159.846 101.496C160.46 100.874 161.304 100.641 162.225 100.641C162.609 100.641 163.069 100.719 163.53 100.874L163.223 102.429C162.839 102.274 162.532 102.196 162.225 102.196C161.151 102.118 160.537 102.74 160.384 103.984L162.225 104.062L162.149 105.073L160.307 104.995L160.23 105.772L162.072 105.85V106.861ZM167.981 110.515L166.369 110.437L166.753 103.051L164.758 103.673L164.834 102.118L168.364 100.797H168.518L167.981 110.515ZM174.733 110.904L173.045 110.826L173.429 103.44L171.434 104.062L171.51 102.507L175.04 101.185H175.194L174.733 110.904ZM179.568 103.829V104.606C180.028 103.984 180.642 103.673 181.409 103.751C182.253 103.751 182.791 104.14 183.021 104.917C183.481 104.217 184.172 103.829 185.016 103.906C185.707 103.906 186.244 104.217 186.551 104.684C186.858 105.15 187.011 105.85 186.934 106.783L186.704 111.448L185.016 111.37L185.246 106.705C185.246 106.317 185.246 106.006 185.093 105.772C184.939 105.539 184.709 105.461 184.325 105.461C183.788 105.461 183.405 105.695 183.251 106.239L183.021 111.215L181.333 111.137L181.563 106.472C181.563 106.083 181.563 105.772 181.409 105.539C181.256 105.306 181.026 105.228 180.719 105.228C180.258 105.228 179.875 105.384 179.644 105.85L179.414 110.982L177.726 110.904L178.11 103.673L179.568 103.829Z" fill="white"/>
<path d="M170.206 121.555L167.213 121.4L167.06 125.054L166.139 124.976L166.523 116.735L170.973 116.968L170.897 117.901L167.443 117.668L167.29 120.467L170.283 120.622L170.206 121.555ZM173.275 122.877L173.352 123.966L173.582 122.955L175.347 117.201L176.191 117.279L177.266 123.188L177.419 124.199L177.649 123.11L179.107 117.435L180.105 117.512L177.88 125.754L177.035 125.676L175.884 119.534L175.808 118.912L175.654 119.534L173.813 125.52L172.968 125.443L171.664 117.046L172.585 117.124L173.275 122.877ZM180.719 125.987L181.179 117.59L183.251 117.746C183.865 117.746 184.479 117.979 184.939 118.368C185.4 118.756 185.783 119.223 186.014 119.845C186.244 120.467 186.321 121.167 186.321 121.944V122.488C186.244 123.266 186.09 123.966 185.783 124.588C185.476 125.132 185.093 125.598 184.556 125.909C184.019 126.22 183.481 126.298 182.791 126.298L180.719 125.987ZM182.023 118.523L181.716 125.132L182.714 125.209C183.481 125.287 184.095 125.054 184.479 124.51C184.939 123.966 185.17 123.266 185.246 122.255V121.789C185.323 120.856 185.17 120.078 184.786 119.534C184.402 118.99 183.865 118.679 183.174 118.601L182.023 118.523Z" fill="white"/>
<path d="M208.421 119.767L202.589 119.456L202.665 118.212L206.272 107.872L209.034 108.027L205.888 117.279L208.574 117.435L208.804 112.225L211.567 111.759L211.26 117.512L213.332 117.59L212.564 120L211.106 119.923L210.953 123.421L208.19 123.266L208.421 119.767ZM214.636 122.411C217.936 117.746 219.701 115.258 219.931 114.869C220.315 114.325 220.545 113.858 220.698 113.469C220.852 113.081 220.929 112.692 220.929 112.303C220.929 111.759 220.852 111.293 220.468 110.904C220.161 110.593 219.701 110.36 219.01 110.36C218.473 110.36 217.936 110.437 217.322 110.593C216.708 110.826 216.248 111.059 215.787 111.37L215.711 109.193C216.248 108.805 216.862 108.571 217.475 108.338C218.166 108.105 218.857 108.027 219.547 108.105C220.929 108.183 222.003 108.571 222.77 109.349C223.538 110.126 223.921 111.137 223.845 112.303C223.845 113.003 223.614 113.625 223.384 114.325C223.077 115.024 222.617 115.724 222.003 116.502L218.473 121.244L223.921 121.555L223.077 124.121L214.483 123.577L214.636 122.411Z" fill="white"/>
<path d="M23.0253 121.478C29.3944 121.944 35.0729 115.024 35.5333 106.006C35.9937 96.9869 31.0826 89.5231 24.7135 89.3676C18.4211 89.2121 13.0495 96.1317 12.5891 104.839C12.1287 113.547 16.8096 121.011 23.0253 121.478Z" fill="white"/>
<path d="M18.9583 112.07C21.951 110.671 25.2506 110.826 28.0899 112.614L26.7854 115.957L19.8791 115.491L18.9583 112.07Z" fill="#9192B3"/>
<path d="M18.9583 112.226L19.8791 112.303C20.4162 112.303 20.7232 112.925 20.7232 113.625L20.6465 115.569L19.4187 115.491L18.9583 112.226Z" fill="#9192B3"/>
<path d="M28.0899 112.77L27.169 112.692C26.6319 112.692 26.2482 113.236 26.1715 113.936L26.0947 115.88L27.3225 115.957L28.0899 112.77Z" fill="#9192B3"/>
<path d="M27.0157 107.561L20.5699 107.172L20.0327 117.435L26.4786 117.901L27.0157 107.561Z" fill="#C1C2D5"/>
<path fill-rule="evenodd" clip-rule="evenodd" d="M23.5626 111.215C20.8001 111.059 18.7282 107.638 18.9584 103.673L19.1119 100.952C19.3421 96.9869 21.7209 93.7992 24.4834 93.8769C27.2459 93.9547 29.3945 97.3756 29.1643 101.419L29.0109 104.14C28.8574 108.183 26.4018 111.37 23.5626 111.215Z" fill="#D9DBE7"/>
<path d="M31.6965 117.046C29.3944 120 26.3249 121.711 23.0253 121.478C19.8023 121.244 16.9631 119.067 15.0447 115.88L20.186 112.925L23.1787 117.046L26.6319 113.314L31.6965 117.046Z" fill="#9192B3"/>
<path d="M23.2554 117.59L20.2627 112.925L23.2554 116.813L26.6318 113.314L23.2554 117.59Z" fill="#D9DBE7"/>
<path fill-rule="evenodd" clip-rule="evenodd" d="M26.7855 97.9199C28.1667 97.9976 29.241 99.7081 29.1643 101.807L29.3945 97.1424C29.4712 95.0432 28.4737 93.3327 27.0157 93.3327H26.7087L26.1716 91.3113C26.0181 90.8448 25.6344 90.6115 25.3275 90.767L21.2604 92.944C20.2629 93.4882 19.4188 95.1209 19.342 96.6759L19.1118 101.341C19.1886 99.3193 20.4163 97.6866 21.7976 97.7644L26.7855 97.9199Z" fill="#9192B3"/>
<path d="M38.027 18.9151L276.195 1C278.369 0.844218 280.078 2.55784 280 4.8946L276.971 63.9367C276.816 66.2735 274.952 68.1429 272.778 68.1429L35.4644 68.8439C34.2219 68.8439 33.3677 67.4418 33.4453 65.7282L35.6973 22.1866C35.775 20.473 36.7845 18.993 38.027 18.9151Z" fill="url(#paint6_linear)"/>
<path opacity="0.5" d="M79.1066 44.6974L119.642 43.2174L119.021 55.5243L78.563 56.3032L79.1066 44.6974Z" fill="url(#paint7_linear)" fill-opacity="0.98"/>
<path opacity="0.5" d="M79.9606 28.9632L174.777 23.5108L174.078 36.6745L79.3394 40.5691L79.9606 28.9632Z" fill="url(#paint8_linear)" fill-opacity="0.98"/>
<path d="M198.152 31.7673L196.21 31.8452C196.21 32.4684 196.288 32.9357 196.599 33.2473C196.832 33.5588 197.297 33.7146 197.919 33.7146C198.307 33.7146 198.695 33.6367 199.006 33.481L199.161 35.0388C198.695 35.1946 198.152 35.2725 197.686 35.2725C196.676 35.3504 195.9 35.0388 195.356 34.4157C194.813 33.7925 194.58 32.9357 194.58 31.8452L193.648 31.9231L193.725 30.9105L194.657 30.8326L194.735 30.0537L193.803 30.1316L193.881 29.119L194.813 29.0411C194.968 27.9506 195.278 27.0938 195.9 26.3928C196.521 25.7697 197.375 25.3802 198.385 25.3802C198.773 25.3802 199.239 25.3802 199.705 25.536L199.394 27.1717C199.006 27.0159 198.695 27.0159 198.385 27.0159C197.297 27.0938 196.676 27.717 196.521 29.0411L198.385 28.9632L198.307 29.9758L196.366 30.0537L196.288 30.8326L198.229 30.7547L198.152 31.7673ZM204.209 34.883L202.5 34.9609L202.889 27.5612L200.87 28.3401L200.947 26.7822L204.519 25.1465H204.675L204.209 34.883ZM211.042 34.6493L209.334 34.7272L209.722 27.3275L207.703 28.1064L207.781 26.5486L211.431 24.9128H211.586L211.042 34.6493ZM215.935 27.1717V27.9506C216.401 27.3275 217.022 26.938 217.876 26.938C218.73 26.8601 219.274 27.2496 219.507 27.9506C219.973 27.1717 220.672 26.7822 221.526 26.7044C222.225 26.7044 222.768 26.8601 223.079 27.3275C223.39 27.7948 223.545 28.4959 223.467 29.3527L223.234 34.0262L221.448 34.1041L221.681 29.4306C221.681 29.0411 221.681 28.7295 221.526 28.4959C221.371 28.3401 221.138 28.2622 220.749 28.2622C220.206 28.2622 219.817 28.5738 219.584 29.119L219.352 34.1041L217.643 34.182L217.876 29.5085C217.876 29.119 217.876 28.8074 217.721 28.5738C217.565 28.418 217.332 28.3401 216.944 28.3401C216.478 28.3401 216.09 28.5738 215.857 29.0411L215.624 34.182L213.916 34.2599L214.304 27.0159L215.935 27.1717Z" fill="white"/>
<path d="M206.383 45.71L203.355 45.7879L203.199 49.4488H202.267L202.656 41.1923L207.16 41.0365L207.082 41.9712L203.51 42.127L203.355 44.9311L206.383 44.8532V45.71ZM209.567 46.7226L209.645 47.8131L209.878 46.8005L211.664 40.9586H212.518L213.605 46.7226L213.76 47.7352L213.993 46.5668L215.469 40.8028H216.478L214.149 49.2151H213.294L212.052 43.1396L211.974 42.5164L211.819 43.1396L209.955 49.293H209.101L207.781 41.0365H208.713L209.567 46.7226ZM217.099 49.1372L217.565 40.7249L219.662 40.647C220.283 40.647 220.905 40.8028 221.37 41.0365C221.836 41.3481 222.225 41.8154 222.458 42.3607C222.691 42.9838 222.846 43.6069 222.768 44.3858V44.9311C222.691 45.71 222.535 46.411 222.225 47.0342C221.914 47.6573 221.526 48.1247 220.982 48.4362C220.439 48.7478 219.895 48.9815 219.196 48.9815L217.099 49.1372ZM218.42 41.5817L218.109 48.2025H219.118C219.895 48.2025 220.516 47.891 220.905 47.3457C221.37 46.8005 221.603 46.0216 221.681 45.009V44.5416C221.759 43.6069 221.603 42.828 221.215 42.3607C220.827 41.8154 220.283 41.5817 219.584 41.5817H218.42Z" fill="white"/>
<path d="M256.16 43.8406C254.684 43.9185 253.519 43.529 252.588 42.7501C251.733 41.9712 251.345 40.7249 251.423 39.1671C251.5 37.5313 252.122 36.2072 253.287 35.4283C252.898 35.1167 252.588 34.7272 252.432 34.182C252.277 33.6367 252.199 33.0915 252.199 32.4684C252.277 31.0663 252.743 29.9758 253.675 29.1969C254.529 28.3401 255.694 27.9506 257.014 27.8727C258.334 27.7949 259.421 28.1843 260.275 28.8853C261.13 29.5864 261.44 30.6769 261.44 32.0789C261.44 32.702 261.285 33.2473 260.974 33.8704C260.741 34.4157 260.353 34.883 259.965 35.2725C261.052 36.0514 261.596 37.2977 261.518 38.9334C261.44 40.5691 260.897 41.8154 259.887 42.6722C258.878 43.2953 257.635 43.7627 256.16 43.8406ZM256.626 34.3378C257.868 34.2599 258.489 33.5589 258.567 32.0789C258.567 31.3779 258.489 30.8326 258.179 30.4432C257.868 30.1316 257.402 29.8979 256.859 29.9758C256.315 29.9758 255.849 30.2095 255.461 30.599C255.15 30.9884 254.917 31.5337 254.917 32.2347C254.917 32.9357 254.995 33.481 255.306 33.8704C255.616 34.182 256.082 34.3378 256.626 34.3378ZM256.315 41.5817C257.713 41.5038 258.412 40.647 258.489 38.8555C258.567 37.064 257.946 36.2072 256.548 36.2851C255.15 36.363 254.451 37.2198 254.374 39.0113C254.296 40.7249 254.917 41.5817 256.315 41.5817Z" fill="white"/>
<path d="M56.8195 59.1074C63.3426 59.0295 69.0114 51.6298 69.4773 42.5943C69.9432 33.5588 64.9733 26.5486 58.4503 26.938C52.0826 27.3275 46.5691 34.7272 46.1808 43.4511C45.7925 52.175 50.4518 59.2632 56.8195 59.1074Z" fill="white"/>
<path d="M52.6262 50.1498C55.6548 48.4362 58.9939 48.3583 61.9448 49.9161L60.6247 53.2655L53.6357 53.4213L52.6262 50.1498Z" fill="#9192B3"/>
<path d="M52.6262 50.2277H53.5581C54.1017 50.2277 54.4899 50.773 54.4123 51.474L54.3346 53.4213H53.0921L52.6262 50.2277Z" fill="#9192B3"/>
<path d="M61.9448 49.994H61.0129C60.4694 49.994 60.0811 50.6172 60.0034 51.3182L59.9258 53.2655H61.1683L61.9448 49.994Z" fill="#9192B3"/>
<path d="M60.8576 44.8531L54.3346 45.0868L53.791 55.3686L60.314 55.2128L60.8576 44.8531Z" fill="#C1C2D5"/>
<path fill-rule="evenodd" clip-rule="evenodd" d="M57.363 48.8256C54.5674 48.9035 52.4707 45.71 52.626 41.7375L52.7813 39.0112C53.0143 35.0388 55.4216 31.6115 58.2172 31.4557C61.0904 31.2999 63.1871 34.4935 63.0318 38.5439L62.8765 41.2701C62.7212 45.3984 60.1586 48.7477 57.363 48.8256Z" fill="#D9DBE7"/>
<path d="M65.6722 53.8887C63.3426 57.0822 60.1587 59.0295 56.8195 59.1074C53.4804 59.1853 50.6071 57.3159 48.7434 54.2781L54.0239 50.8509L57.1301 54.6676L60.6246 50.6172L65.6722 53.8887Z" fill="#9192B3"/>
<path d="M57.0525 55.2907L54.0239 50.8509L57.0525 54.4339L60.547 50.6951L57.0525 55.2907Z" fill="#D9DBE7"/>
<path fill-rule="evenodd" clip-rule="evenodd" d="M60.6246 35.3504C62.0224 35.2725 63.1096 36.9082 63.032 39.0113L63.2649 34.3378C63.3426 32.2347 62.3331 30.6769 60.8576 30.7547H60.547L60.0034 28.8074C59.8481 28.3401 59.4598 28.1843 59.1492 28.3401L54.9558 30.8326C53.9463 31.4558 53.0921 33.2473 53.0145 34.7272L52.7815 39.4008C52.8591 37.3756 54.1016 35.6619 55.4994 35.584L60.6246 35.3504Z" fill="#9192B3"/>
<defs>
<linearGradient id="paint0_linear" x1="274.325" y1="190.756" x2="29.9654" y2="190.756" gradientUnits="userSpaceOnUse">
<stop stop-color="#06238D"/>
<stop offset="1" stop-color="#0224A0"/>
</linearGradient>
<linearGradient id="paint1_linear" x1="74.7363" y1="187.151" x2="116.555" y2="187.151" gradientUnits="userSpaceOnUse">
<stop stop-color="#3150C1"/>
<stop offset="1" stop-color="#2549CE"/>
</linearGradient>
<linearGradient id="paint2_linear" x1="75.5222" y1="174.768" x2="172.726" y2="174.768" gradientUnits="userSpaceOnUse">
<stop stop-color="#3150C1"/>
<stop offset="1" stop-color="#2549CE"/>
</linearGradient>
<linearGradient id="paint3_linear" x1="0.0254975" y1="114.78" x2="249.326" y2="114.78" gradientUnits="userSpaceOnUse">
<stop stop-color="#0000CD"/>
<stop offset="1" stop-color="#103DFF"/>
</linearGradient>
<linearGradient id="paint4_linear" x1="44.4192" y1="116.237" x2="85.9494" y2="116.237" gradientUnits="userSpaceOnUse">
<stop stop-color="#133EFC"/>
<stop offset="1" stop-color="#264DFF"/>
</linearGradient>
<linearGradient id="paint5_linear" x1="45.2213" y1="101.425" x2="141.693" y2="101.425" gradientUnits="userSpaceOnUse">
<stop stop-color="#133EFC"/>
<stop offset="1" stop-color="#264DFF"/>
</linearGradient>
<linearGradient id="paint6_linear" x1="280.015" y1="34.914" x2="33.4102" y2="34.914" gradientUnits="userSpaceOnUse">
<stop stop-color="#06238D"/>
<stop offset="1" stop-color="#0224A0"/>
</linearGradient>
<linearGradient id="paint7_linear" x1="78.5701" y1="49.762" x2="120.787" y2="49.762" gradientUnits="userSpaceOnUse">
<stop stop-color="#3150C1"/>
<stop offset="1" stop-color="#2549CE"/>
</linearGradient>
<linearGradient id="paint8_linear" x1="79.3558" y1="32.0421" x2="177.437" y2="32.0421" gradientUnits="userSpaceOnUse">
<stop stop-color="#3150C1"/>
<stop offset="1" stop-color="#2549CE"/>
</linearGradient>
</defs>
</svg>
