<svg width="354" height="302" viewBox="0 0 354 302" fill="none" xmlns="http://www.w3.org/2000/svg">
<g clip-path="url(#clip0)">
<path d="M42.2 23L348.9 -7.97212e-07C351.7 -0.200001 353.9 2 353.8 5L349.9 80.8C349.7 83.8 347.3 86.2 344.5 86.2L38.9 87.1C37.3 87.1 36.2 85.3 36.3 83.1L39.2 27.2C39.3 25 40.6 23.1 42.2 23Z" fill="url(#paint0_linear)"/>
<path opacity="0.5" d="M95.1 56.1L147.3 54.2L146.5 70L94.4 71L95.1 56.1Z" fill="url(#paint1_linear)" fill-opacity="0.98"/>
<path opacity="0.5" d="M96.2 35.9L218.3 28.9L217.4 45.8L95.4 50.8L96.2 35.9Z" fill="url(#paint2_linear)" fill-opacity="0.98"/>
<path d="M248.4 39.5L245.9 39.6C245.9 40.4 246 41 246.4 41.4C246.7 41.8 247.3 42 248.1 42C248.6 42 249.1 41.9 249.5 41.7L249.7 43.7C249.1 43.9 248.4 44 247.8 44C246.5 44.1 245.5 43.7 244.8 42.9C244.1 42.1 243.8 41 243.8 39.6L242.6 39.7L242.7 38.4L243.9 38.3L244 37.3L242.8 37.4L242.9 36.1L244.1 36C244.3 34.6 244.7 33.5 245.5 32.6C246.3 31.8 247.4 31.3 248.7 31.3C249.2 31.3 249.8 31.3 250.4 31.5L250 33.6C249.5 33.4 249.1 33.4 248.7 33.4C247.3 33.5 246.5 34.3 246.3 36L248.7 35.9L248.6 37.2L246.1 37.3L246 38.3L248.5 38.2L248.4 39.5ZM256.2 43.5L254 43.6L254.5 34.1L251.9 35.1L252 33.1L256.6 31H256.8L256.2 43.5ZM265 43.2L262.8 43.3L263.3 33.8L260.7 34.8L260.8 32.8L265.5 30.7H265.7L265 43.2ZM271.3 33.6V34.6C271.9 33.8 272.7 33.3 273.8 33.3C274.9 33.2 275.6 33.7 275.9 34.6C276.5 33.6 277.4 33.1 278.5 33C279.4 33 280.1 33.2 280.5 33.8C280.9 34.4 281.1 35.3 281 36.4L280.7 42.4L278.4 42.5L278.7 36.5C278.7 36 278.7 35.6 278.5 35.3C278.3 35.1 278 35 277.5 35C276.8 35 276.3 35.4 276 36.1L275.7 42.5L273.5 42.6L273.8 36.6C273.8 36.1 273.8 35.7 273.6 35.4C273.4 35.2 273.1 35.1 272.6 35.1C272 35.1 271.5 35.4 271.2 36L270.9 42.6L268.7 42.7L269.2 33.4L271.3 33.6Z" fill="white"/>
<path d="M259 57.4L255.1 57.5L254.9 62.2H253.7L254.2 51.6L260 51.4L259.9 52.6L255.3 52.8L255.1 56.4L259 56.3V57.4ZM263.1 58.7L263.2 60.1L263.5 58.8L265.8 51.3H266.9L268.3 58.7L268.5 60L268.8 58.5L270.7 51.1H272L269 61.9H267.9L266.3 54.1L266.2 53.3L266 54.1L263.6 62H262.5L260.8 51.4H262L263.1 58.7ZM272.8 61.8L273.4 51L276.1 50.9C276.9 50.9 277.7 51.1 278.3 51.4C278.9 51.8 279.4 52.4 279.7 53.1C280 53.9 280.2 54.7 280.1 55.7V56.4C280 57.4 279.8 58.3 279.4 59.1C279 59.9 278.5 60.5 277.8 60.9C277.1 61.3 276.4 61.6 275.5 61.6L272.8 61.8ZM274.5 52.1L274.1 60.6H275.4C276.4 60.6 277.2 60.2 277.7 59.5C278.3 58.8 278.6 57.8 278.7 56.5V55.9C278.8 54.7 278.6 53.7 278.1 53.1C277.6 52.4 276.9 52.1 276 52.1H274.5Z" fill="white"/>
<path d="M323.1 55C321.2 55.1 319.7 54.6 318.5 53.6C317.4 52.6 316.9 51 317 49C317.1 46.9 317.9 45.2 319.4 44.2C318.9 43.8 318.5 43.3 318.3 42.6C318.1 41.9 318 41.2 318 40.4C318.1 38.6 318.7 37.2 319.9 36.2C321 35.1 322.5 34.6 324.2 34.5C325.9 34.4 327.3 34.9 328.4 35.8C329.5 36.7 329.9 38.1 329.9 39.9C329.9 40.7 329.7 41.4 329.3 42.2C329 42.9 328.5 43.5 328 44C329.4 45 330.1 46.6 330 48.7C329.9 50.8 329.2 52.4 327.9 53.5C326.6 54.3 325 54.9 323.1 55ZM323.7 42.8C325.3 42.7 326.1 41.8 326.2 39.9C326.2 39 326.1 38.3 325.7 37.8C325.3 37.4 324.7 37.1 324 37.2C323.3 37.2 322.7 37.5 322.2 38C321.8 38.5 321.5 39.2 321.5 40.1C321.5 41 321.6 41.7 322 42.2C322.4 42.6 323 42.8 323.7 42.8ZM323.3 52.1C325.1 52 326 50.9 326.1 48.6C326.2 46.3 325.4 45.2 323.6 45.3C321.8 45.4 320.9 46.5 320.8 48.8C320.7 51 321.5 52.1 323.3 52.1Z" fill="white"/>
<path d="M66.4 74.6C74.8 74.5 82.1 65 82.7 53.4C83.3 41.8 76.9 32.8 68.5 33.3C60.3 33.8 53.2 43.3 52.7 54.5C52.2 65.7 58.2 74.8 66.4 74.6Z" fill="white"/>
<path d="M61 63.1C64.9 60.9 69.2 60.8 73 62.8L71.3 67.1L62.3 67.3L61 63.1Z" fill="#9192B3"/>
<path d="M61 63.2H62.2C62.9 63.2 63.4 63.9 63.3 64.8L63.2 67.3H61.6L61 63.2Z" fill="#9192B3"/>
<path d="M73 62.9H71.8C71.1 62.9 70.6 63.7 70.5 64.6L70.4 67.1H72L73 62.9Z" fill="#9192B3"/>
<path d="M71.6 56.3L63.2 56.6L62.5 69.8L70.9 69.6L71.6 56.3Z" fill="#C1C2D5"/>
<path fill-rule="evenodd" clip-rule="evenodd" d="M67.0999 61.4C63.4999 61.5 60.7999 57.4 60.9999 52.3L61.1999 48.8C61.4999 43.7 64.5999 39.3 68.1999 39.1C71.8999 38.9 74.5999 43 74.3999 48.2L74.1999 51.7C73.9999 57 70.6999 61.3 67.0999 61.4Z" fill="#D9DBE7"/>
<path d="M77.8 67.9C74.8 72 70.7 74.5 66.4 74.6C62.1 74.7 58.4 72.3 56 68.4L62.8 64L66.8 68.9L71.3 63.7L77.8 67.9Z" fill="#9192B3"/>
<path d="M66.6999 69.7L62.7999 64L66.6999 68.6L71.1999 63.8L66.6999 69.7Z" fill="#D9DBE7"/>
<path fill-rule="evenodd" clip-rule="evenodd" d="M71.2999 44.1C73.0999 44 74.5 46.1 74.4 48.8L74.7 42.8C74.8 40.1 73.4999 38.1 71.5999 38.2H71.2L70.5 35.7C70.3 35.1 69.8 34.9 69.4 35.1L64 38.3C62.7 39.1 61.6 41.4 61.5 43.3L61.2 49.3C61.3 46.7 62.9 44.5 64.7 44.4L71.2999 44.1Z" fill="#9192B3"/>
<path d="M33.9 183L337.8 215.3C340.6 215.6 342.8 218.3 342.6 221.3L338.7 297.1C338.5 300.1 336.1 302.1 333.3 301.6L30.6 247.2C29.1 246.9 27.9 244.9 28 242.7L30.9 186.8C31 184.5 32.4 182.9 33.9 183Z" fill="url(#paint3_linear)"/>
<path opacity="0.5" d="M86.4 226.1L138 233.6L137.2 249.3L85.6 240.9L86.4 226.1Z" fill="url(#paint4_linear)" fill-opacity="0.98"/>
<path opacity="0.5" d="M87.4 205.8L208.4 220.9L207.5 237.8L86.6 220.7L87.4 205.8Z" fill="url(#paint5_linear)" fill-opacity="0.98"/>
<path d="M238.2 237.1L235.8 236.8C235.8 237.6 235.9 238.3 236.3 238.7C236.6 239.2 237.2 239.5 237.9 239.6C238.4 239.7 238.9 239.6 239.3 239.5L239.5 241.6C238.9 241.7 238.3 241.7 237.6 241.6C236.3 241.4 235.3 240.9 234.6 240C233.9 239.1 233.6 237.9 233.6 236.5L232.4 236.3L232.5 235L233.7 235.2L233.8 234.2L232.6 234L232.7 232.7L233.9 232.9C234.1 231.5 234.5 230.5 235.3 229.8C236.1 229.1 237.1 228.9 238.4 229C238.9 229.1 239.5 229.2 240.1 229.5L239.7 231.5C239.3 231.3 238.8 231.1 238.4 231.1C237 230.9 236.2 231.6 236 233.2L238.4 233.5L238.3 234.8L235.9 234.5L235.8 235.5L238.2 235.8V237.1ZM245.9 242.5L243.8 242.2L244.3 232.7L241.7 233.3L241.8 231.3L246.3 230H246.5L245.9 242.5ZM254.7 243.8L252.5 243.5L253 234L250.4 234.6L250.5 232.6L255.1 231.3H255.3L254.7 243.8ZM260.9 235.2V236.3C261.5 235.6 262.3 235.3 263.3 235.4C264.4 235.5 265.1 236.1 265.4 237.1C266 236.2 266.9 235.9 268 236C268.9 236.1 269.6 236.5 270 237.2C270.4 237.9 270.6 238.8 270.5 240L270.2 246L268 245.7L268.3 239.7C268.3 239.2 268.3 238.8 268.1 238.5C267.9 238.2 267.6 238.1 267.1 238C266.4 237.9 266 238.2 265.7 238.9L265.4 245.3L263.2 245L263.5 239C263.5 238.5 263.5 238.1 263.3 237.8C263.1 237.5 262.8 237.4 262.4 237.3C261.8 237.2 261.3 237.5 261 238L260.7 244.6L258.5 244.3L259 235L260.9 235.2Z" fill="white"/>
<path d="M248.7 257.1L244.8 256.5L244.6 261.2L243.4 261L243.9 250.4L249.6 251.2L249.5 252.4L245 251.7L244.8 255.3L248.7 255.9V257.1ZM252.7 259L252.8 260.4L253.1 259.2L255.3 252L256.3 252.2L257.7 260L257.9 261.3L258.2 259.9L260 252.8L261.3 253L258.4 263.4L257.3 263.2L255.8 255.1L255.7 254.3L255.5 255.1L253.1 262.6L252 262.4L250.3 251.4L251.5 251.6L252.7 259ZM262.3 264L262.9 253.2L265.6 253.6C266.4 253.7 267.2 254 267.8 254.6C268.4 255.1 268.9 255.8 269.2 256.6C269.5 257.4 269.6 258.3 269.6 259.3V260C269.5 261 269.3 261.9 268.9 262.6C268.5 263.3 268 263.8 267.3 264.1C266.6 264.4 265.9 264.5 265 264.4L262.3 264ZM264.1 254.5L263.7 263L265 263.2C266 263.4 266.7 263.1 267.3 262.5C267.9 261.9 268.2 261 268.3 259.7V259.1C268.4 257.9 268.2 256.9 267.7 256.1C267.2 255.3 266.5 254.9 265.6 254.7L264.1 254.5Z" fill="white"/>
<path d="M292.4 259.6L295.5 260.1L296.1 247.6L293.2 247.8L293.4 244.5L299.9 244L299 260.6L302.6 261.1L301.8 264.2L292.2 262.7L292.4 259.6ZM311.3 266C310.4 265.9 309.5 265.6 308.7 265.2C307.9 264.9 307.1 264.4 306.5 263.9L306.9 261C307.4 261.5 308 261.9 308.8 262.2C309.6 262.5 310.3 262.7 311 262.8C312.1 263 313 262.8 313.7 262.2C314.4 261.6 314.8 260.8 314.8 259.6C314.9 258.5 314.6 257.5 314 256.8C313.4 256 312.6 255.6 311.6 255.4C311.2 255.3 310.8 255.4 310.3 255.4C309.8 255.5 309.4 255.6 309.1 255.7L307.8 254.6L308.9 245.1L319.2 246.5L318.1 249.8L311.4 248.9L311 253C311.5 252.9 312.1 252.9 312.8 253C314.7 253.3 316.1 254.1 317.1 255.4C318.1 256.7 318.6 258.4 318.5 260.4C318.4 261.8 318.1 262.9 317.4 263.8C316.7 264.7 315.9 265.3 314.8 265.7C313.7 266.1 312.5 266.2 311.3 266Z" fill="white"/>
<path d="M57.9 239.6C66.2 241 73.5 232.7 74.1 221.1C74.7 209.5 68.3 199.3 60.1 198.3C52 197.3 45 205.6 44.4 216.9C43.7 228 49.7 238.2 57.9 239.6Z" fill="white"/>
<path d="M52.6 227C56.5 225.5 60.7 226.2 64.5 228.8L62.8 232.8L53.9 231.4L52.6 227Z" fill="#9192B3"/>
<path d="M52.6 227.1L53.8 227.3C54.5 227.4 54.9 228.2 54.9 229.1L54.8 231.6L53.2 231.4L52.6 227.1Z" fill="#9192B3"/>
<path d="M64.5 228.9L63.3 228.7C62.6 228.6 62.1 229.3 62 230.2L61.9 232.7L63.5 233L64.5 228.9Z" fill="#9192B3"/>
<path d="M63 222L54.7 220.8L54 233.9L62.3 235.2L63 222Z" fill="#C1C2D5"/>
<path fill-rule="evenodd" clip-rule="evenodd" d="M58.5999 226.3C54.9999 225.8 52.2999 221.1 52.5999 216L52.7999 212.5C53.0999 207.4 56.1999 203.5 59.7999 204C63.3999 204.5 66.1999 209.1 65.8999 214.3L65.6999 217.8C65.3999 223.1 62.1999 226.9 58.5999 226.3Z" fill="#D9DBE7"/>
<path d="M69.1 234.8C66.1 238.4 62.1 240.2 57.8 239.5C53.6 238.8 49.9 235.7 47.5 231.3L54.2 228.1L58.1 233.8L62.6 229.4L69.1 234.8Z" fill="#9192B3"/>
<path d="M58.0999 234.6L54.2999 228.2L58.1999 233.6L62.5999 229.5L58.0999 234.6Z" fill="#D9DBE7"/>
<path fill-rule="evenodd" clip-rule="evenodd" d="M62.7 209.6C64.5 209.8 65.9 212.2 65.7999 214.9L66.0999 208.9C66.1999 206.2 64.9 203.9 63 203.7L62.5999 203.6L61.9 201C61.7 200.4 61.1999 200 60.7999 200.2L55.5 202.6C54.2 203.2 53.1 205.2 53 207.2L52.7 213.2C52.8 210.6 54.4 208.6 56.2 208.9L62.7 209.6Z" fill="#9192B3"/>
</g>
<path d="M5.92321 97L307.25 101.7C310.014 101.7 312.185 104.2 311.988 107.2L308.138 183C307.941 186 305.572 188.2 302.809 188L2.66615 161.1C1.18567 161 0.00129128 159.1 0.0999899 156.9L2.96225 101C3.06095 98.7 4.44273 97 5.92321 97Z" fill="url(#paint6_linear)" fill-opacity="0.98"/>
<path opacity="0.5" d="M57.9374 135.1L109.162 137.9L108.372 153.6L57.2465 150L57.9374 135.1Z" fill="url(#paint7_linear)" fill-opacity="0.98"/>
<path opacity="0.5" d="M59.0231 114.9L178.942 118.9L178.152 135.8L58.2335 129.8L59.0231 114.9Z" fill="url(#paint8_linear)" fill-opacity="0.98"/>
<path d="M208.551 132.3L206.183 132.2C206.183 133 206.281 133.7 206.676 134.1C206.972 134.5 207.564 134.8 208.255 134.8C208.749 134.8 209.242 134.8 209.637 134.6L209.834 136.7C209.242 136.8 208.65 136.9 207.959 136.9C206.676 136.8 205.689 136.4 204.998 135.6C204.307 134.8 204.011 133.6 204.011 132.2L202.827 132.1L202.925 130.8L204.11 130.9L204.209 129.9L203.024 129.8L203.123 128.5L204.307 128.6C204.505 127.2 204.899 126.1 205.689 125.4C206.479 124.6 207.564 124.3 208.749 124.3C209.242 124.3 209.834 124.4 210.427 124.6L210.032 126.6C209.538 126.4 209.143 126.3 208.749 126.3C207.367 126.2 206.577 127 206.38 128.6L208.749 128.7L208.65 130L206.281 129.9L206.183 130.9L208.551 131V132.3ZM216.151 137L214.078 136.9L214.572 127.4L212.006 128.2L212.104 126.2L216.645 124.5H216.842L216.151 137ZM224.837 137.5L222.665 137.4L223.159 127.9L220.593 128.7L220.691 126.7L225.231 125H225.429L224.837 137.5ZM231.055 128.4V129.4C231.647 128.6 232.436 128.2 233.423 128.3C234.509 128.3 235.2 128.8 235.496 129.8C236.088 128.9 236.976 128.4 238.062 128.5C238.95 128.5 239.641 128.9 240.036 129.5C240.431 130.1 240.628 131 240.53 132.2L240.234 138.2L238.062 138.1L238.358 132.1C238.358 131.6 238.358 131.2 238.161 130.9C237.963 130.6 237.667 130.5 237.174 130.5C236.483 130.5 235.99 130.8 235.792 131.5L235.496 137.9L233.325 137.8L233.621 131.8C233.621 131.3 233.621 130.9 233.423 130.6C233.226 130.3 232.93 130.2 232.535 130.2C231.943 130.2 231.449 130.4 231.153 131L230.857 137.6L228.686 137.5L229.179 128.2L231.055 128.4Z" fill="white"/>
<path d="M219.013 151.2L215.164 151L214.967 155.7L213.782 155.6L214.276 145L220 145.3L219.902 146.5L215.46 146.2L215.263 149.8L219.112 150L219.013 151.2ZM222.961 152.9L223.06 154.3L223.356 153L225.626 145.6L226.712 145.7L228.094 153.3L228.291 154.6L228.587 153.2L230.463 145.9L231.746 146L228.883 156.6L227.798 156.5L226.317 148.6L226.218 147.8L226.021 148.6L223.652 156.3L222.567 156.2L220.889 145.4L222.073 145.5L222.961 152.9ZM232.535 156.9L233.127 146.1L235.792 146.3C236.582 146.3 237.371 146.6 237.964 147.1C238.556 147.6 239.049 148.2 239.345 149C239.641 149.8 239.74 150.7 239.74 151.7V152.4C239.641 153.4 239.444 154.3 239.049 155.1C238.655 155.8 238.161 156.4 237.47 156.8C236.779 157.2 236.088 157.3 235.2 157.3L232.535 156.9ZM234.213 147.3L233.818 155.8L235.101 155.9C236.088 156 236.878 155.7 237.371 155C237.964 154.3 238.26 153.4 238.358 152.1V151.5C238.457 150.3 238.26 149.3 237.766 148.6C237.273 147.9 236.582 147.5 235.694 147.4L234.213 147.3Z" fill="white"/>
<path d="M268.165 148.9L260.664 148.5L260.763 146.9L265.402 133.6L268.955 133.8L264.908 145.7L268.363 145.9L268.659 139.2L272.212 138.6L271.817 146L274.482 146.1L273.495 149.2L271.62 149.1L271.422 153.6L267.869 153.4L268.165 148.9ZM276.16 152.3C280.404 146.3 282.674 143.1 282.97 142.6C283.464 141.9 283.76 141.3 283.957 140.8C284.155 140.3 284.253 139.8 284.253 139.3C284.253 138.6 284.155 138 283.661 137.5C283.266 137.1 282.674 136.8 281.786 136.8C281.095 136.8 280.404 136.9 279.614 137.1C278.825 137.4 278.233 137.7 277.64 138.1L277.542 135.3C278.233 134.8 279.022 134.5 279.812 134.2C280.7 133.9 281.588 133.8 282.477 133.9C284.253 134 285.635 134.5 286.622 135.5C287.609 136.5 288.102 137.8 288.004 139.3C288.004 140.2 287.708 141 287.412 141.9C287.017 142.8 286.425 143.7 285.635 144.7L281.095 150.8L288.103 151.2L287.017 154.5L275.963 153.8L276.16 152.3Z" fill="white"/>
<path d="M29.7094 151.1C37.9014 151.7 45.2051 142.8 45.7973 131.2C46.3895 119.6 40.0728 110 31.8808 109.8C23.7875 109.6 16.8786 118.5 16.2864 129.7C15.6942 140.9 21.7148 150.5 29.7094 151.1Z" fill="white"/>
<path d="M24.4785 139C28.3278 137.2 32.5718 137.4 36.2236 139.7L34.5458 144L25.6629 143.4L24.4785 139Z" fill="#9192B3"/>
<path d="M24.4785 139.2L25.6629 139.3C26.3538 139.3 26.7486 140.1 26.7486 141L26.6499 143.5L25.0707 143.4L24.4785 139.2Z" fill="#9192B3"/>
<path d="M36.2236 139.9L35.0393 139.8C34.3484 139.8 33.8549 140.5 33.7562 141.4L33.6575 143.9L35.2367 144L36.2236 139.9Z" fill="#9192B3"/>
<path d="M34.8419 133.2L26.5512 132.7L25.8604 145.9L34.151 146.5L34.8419 133.2Z" fill="#C1C2D5"/>
<path fill-rule="evenodd" clip-rule="evenodd" d="M30.4003 137.9C26.8472 137.7 24.1823 133.3 24.4784 128.2L24.6758 124.7C24.9719 119.6 28.0316 115.5 31.5847 115.6C35.1379 115.7 37.9014 120.1 37.6053 125.3L37.4079 128.8C37.2105 134 34.0522 138.1 30.4003 137.9Z" fill="#D9DBE7"/>
<path d="M40.8623 145.4C37.9013 149.2 33.9534 151.4 29.7094 151.1C25.564 150.8 21.9122 148 19.4447 143.9L26.0575 140.1L29.9068 145.4L34.3482 140.6L40.8623 145.4Z" fill="#9192B3"/>
<path d="M30.0056 146.1L26.1564 140.1L30.0056 145.1L34.3484 140.6L30.0056 146.1Z" fill="#D9DBE7"/>
<path fill-rule="evenodd" clip-rule="evenodd" d="M34.5456 120.8C36.3222 120.9 37.704 123.1 37.6053 125.8L37.9014 119.8C38.0001 117.1 36.717 114.9 34.8417 114.9H34.4469L33.7561 112.3C33.5587 111.7 33.0652 111.4 32.6704 111.6L27.4393 114.4C26.1563 115.1 25.0706 117.2 24.9719 119.2L24.6758 125.2C24.7745 122.6 26.3537 120.5 28.1302 120.6L34.5456 120.8Z" fill="#9192B3"/>
<defs>
<linearGradient id="paint0_linear" x1="353.819" y1="43.5398" x2="36.2548" y2="43.5398" gradientUnits="userSpaceOnUse">
<stop stop-color="#06238D"/>
<stop offset="1" stop-color="#0224A0"/>
</linearGradient>
<linearGradient id="paint1_linear" x1="94.4091" y1="62.6021" x2="148.774" y2="62.6021" gradientUnits="userSpaceOnUse">
<stop stop-color="#3150C1"/>
<stop offset="1" stop-color="#2549CE"/>
</linearGradient>
<linearGradient id="paint2_linear" x1="95.4212" y1="39.8528" x2="221.725" y2="39.8528" gradientUnits="userSpaceOnUse">
<stop stop-color="#3150C1"/>
<stop offset="1" stop-color="#2549CE"/>
</linearGradient>
<linearGradient id="paint3_linear" x1="342.629" y1="242.331" x2="27.9556" y2="242.331" gradientUnits="userSpaceOnUse">
<stop stop-color="#06238D"/>
<stop offset="1" stop-color="#0224A0"/>
</linearGradient>
<linearGradient id="paint4_linear" x1="85.609" y1="237.703" x2="139.46" y2="237.703" gradientUnits="userSpaceOnUse">
<stop stop-color="#3150C1"/>
<stop offset="1" stop-color="#2549CE"/>
</linearGradient>
<linearGradient id="paint5_linear" x1="86.621" y1="221.804" x2="211.795" y2="221.804" gradientUnits="userSpaceOnUse">
<stop stop-color="#3150C1"/>
<stop offset="1" stop-color="#2549CE"/>
</linearGradient>
<linearGradient id="paint6_linear" x1="0.127033" y1="142.486" x2="320.777" y2="142.486" gradientUnits="userSpaceOnUse">
<stop stop-color="#0000CD"/>
<stop offset="1" stop-color="#103DFF"/>
</linearGradient>
<linearGradient id="paint7_linear" x1="57.226" y1="144.36" x2="110.642" y2="144.36" gradientUnits="userSpaceOnUse">
<stop stop-color="#133EFC"/>
<stop offset="1" stop-color="#264DFF"/>
</linearGradient>
<linearGradient id="paint8_linear" x1="58.2581" y1="125.308" x2="182.34" y2="125.308" gradientUnits="userSpaceOnUse">
<stop stop-color="#133EFC"/>
<stop offset="1" stop-color="#264DFF"/>
</linearGradient>
<clipPath id="clip0">
<rect width="325.8" height="301.7" fill="white" transform="translate(28)"/>
</clipPath>
</defs>
</svg>
