<svg width="45" height="43" viewBox="0 0 45 43" fill="none" xmlns="http://www.w3.org/2000/svg">
<mask id="mask0" mask-type="alpha" maskUnits="userSpaceOnUse" x="0" y="0" width="45" height="43">
<rect width="45" height="43" fill="#C4C4C4"/>
</mask>
<g mask="url(#mask0)">
<path d="M38.2581 6.28399L38.2582 6.2841C38.3018 6.32573 38.3442 6.36655 38.3874 6.40843C38.4413 6.46006 38.498 6.51381 38.5571 6.56986C39.5216 7.4848 41.1313 9.01171 41.8252 11.8855M38.2581 6.28399L41.3392 12.0029M38.2581 6.28399C37.9853 6.02355 37.73 5.79734 37.3771 5.56033M38.2581 6.28399L37.0926 5.97158M41.8252 11.8855L41.3392 12.0029M41.8252 11.8855C41.8252 11.8855 41.8252 11.8855 41.8252 11.8855L41.3392 12.0029M41.8252 11.8855C41.9006 12.1975 42.0316 12.7239 42.1903 13.3616C42.5728 14.8987 43.1162 17.0823 43.4291 18.4676M41.3392 12.0029C41.4159 12.3203 41.5482 12.8519 41.7079 13.494C42.0911 15.0339 42.6324 17.209 42.9438 18.5882M43.4291 18.4676C43.4282 18.4642 43.4273 18.4607 43.4263 18.4573L42.9438 18.5882M43.4291 18.4676C43.5158 18.7879 43.5937 19.107 43.6428 19.3614C43.6672 19.4881 43.687 19.6114 43.6953 19.7157C43.6994 19.7666 43.7021 19.8288 43.697 19.8918L43.6968 19.8944C43.6939 19.9313 43.6818 20.0849 43.5712 20.22L43.5708 20.2206C43.4652 20.3493 43.305 20.4354 43.1842 20.4934C43.0393 20.5631 42.8468 20.6393 42.5999 20.7228C42.1049 20.8903 41.3556 21.0991 40.2552 21.35M43.4291 18.4676C43.4299 18.4711 43.4307 18.4746 43.4315 18.4781L42.9438 18.5882M42.9438 18.5882L40.2552 21.35M40.2552 21.35L40.144 20.8625L40.2551 21.35C40.2551 21.35 40.2552 21.35 40.2552 21.35ZM40.2552 21.35C39.0608 21.6225 37.836 21.7756 36.8886 21.8413M40.2552 21.35L36.8886 21.8413M34.842 21.6624L34.8418 21.6622C34.7715 21.592 34.7286 21.5108 34.7106 21.476C34.6858 21.428 34.663 21.3756 34.6426 21.325C34.6014 21.223 34.5588 21.0999 34.519 20.9737C34.4416 20.7288 34.3646 20.4413 34.3188 20.2166C34.3186 20.2158 34.3183 20.215 34.3181 20.2142C34.3145 20.3366 34.3126 20.4606 34.3126 20.5863C34.3126 21.9952 34.3159 23.2248 34.3192 24.5001L34.3196 24.6442C34.3231 25.9714 34.3266 27.3568 34.3266 29.0512C34.3266 30.745 34.3253 33.8509 34.324 36.6584C34.3236 37.5013 34.3232 38.3174 34.3229 39.0602C34.322 40.7915 34.3214 42.125 34.3214 42.475C34.3214 42.9028 33.9705 43.1216 33.7717 43.2153C33.5383 43.3254 33.2341 43.4006 32.903 43.4571C32.231 43.5718 31.2973 43.6329 30.2197 43.6655C28.7071 43.7112 26.8556 43.7016 24.9501 43.6918C24.1358 43.6877 23.3116 43.6834 22.4998 43.6834C21.688 43.6834 20.8638 43.6877 20.0495 43.6918C18.144 43.7016 16.2925 43.7112 14.78 43.6655C13.7023 43.6329 12.7686 43.5718 12.0966 43.4571C11.7655 43.4006 11.4613 43.3254 11.2279 43.2153C11.0291 43.1216 10.6782 42.9028 10.6782 42.475C10.6782 42.1235 10.6776 40.7794 10.6767 39.0367C10.6764 38.3001 10.676 37.4924 10.6756 36.6584C10.6743 33.8509 10.673 30.745 10.673 29.0512C10.673 27.3568 10.6765 25.9714 10.68 24.6442L10.6804 24.4993C10.6838 23.2242 10.687 21.9949 10.687 20.5863C10.687 20.4606 10.6851 20.3366 10.6815 20.2142C10.6813 20.215 10.681 20.2158 10.6808 20.2166C10.6351 20.4413 10.558 20.7288 10.4806 20.9737C10.4408 21.0999 10.3983 21.223 10.3571 21.325C10.3366 21.3756 10.3138 21.428 10.289 21.476C10.271 21.5108 10.2281 21.5919 10.1579 21.6622L10.1576 21.6624C10.0523 21.7676 9.92587 21.804 9.88843 21.8148L9.88773 21.8151C9.82808 21.8323 9.76611 21.8431 9.71058 21.8507C9.59764 21.8661 9.45882 21.8746 9.30565 21.8783C8.99626 21.8857 8.58449 21.8741 8.11105 21.8413C7.16362 21.7756 5.93877 21.6225 4.74442 21.35M34.842 21.6624L4.85564 20.8625M34.842 21.6624C34.9474 21.7676 35.0737 21.804 35.1112 21.8148M34.842 21.6624L35.1112 21.8148M4.74442 21.35L4.85564 20.8625M4.74442 21.35C4.74444 21.35 4.74447 21.35 4.7445 21.35L4.85564 20.8625M4.74442 21.35C3.64403 21.0991 2.89473 20.8903 2.39968 20.7228C2.1528 20.6393 1.96034 20.5631 1.81545 20.4934C1.69466 20.4354 1.53443 20.3493 1.42883 20.2206L1.42836 20.22C1.31782 20.0849 1.30571 19.9312 1.3028 19.8944L1.30259 19.8918C1.29748 19.8287 1.30022 19.7665 1.30429 19.7157C1.31263 19.6114 1.33242 19.4881 1.35684 19.3614C1.40587 19.1071 1.48376 18.788 1.57047 18.4677M4.85564 20.8625C2.6716 20.3645 1.93113 20.0446 1.81541 19.9035C1.75373 19.8281 1.88332 19.2241 2.05585 18.5882M1.57047 18.4677C1.56969 18.4712 1.5689 18.4746 1.56812 18.4781L2.05585 18.5882M1.57047 18.4677C1.57141 18.4642 1.57235 18.4608 1.57329 18.4573L2.05585 18.5882M1.57047 18.4677C1.88342 17.0825 2.42679 14.8989 2.80929 13.3618C2.96801 12.724 3.09902 12.1975 3.17438 11.8855L3.66027 12.0029L3.1744 11.8855C3.86836 9.01169 5.47803 7.48479 6.44256 6.56986C6.50177 6.51369 6.55854 6.45983 6.61253 6.40811C6.65564 6.36634 6.69789 6.32562 6.74136 6.2841L6.74148 6.28399C7.01436 6.02355 7.26957 5.79734 7.62252 5.56034C8.03263 5.26826 8.57938 4.97676 9.43152 4.59018L6.95941 6.76822C6.90545 6.81992 6.84906 6.87345 6.79056 6.92898C5.83571 7.83535 4.31915 9.27491 3.66042 12.0029C3.58373 12.3204 3.45143 12.852 3.29166 13.494C2.90845 15.0339 2.36717 17.209 2.05585 18.5882M10.681 20.1969L10.1942 20.1001L11.065 18.8366C11.0133 18.4786 10.9468 18.1422 10.8685 17.8318C10.7946 17.9883 10.681 18.3591 10.5545 18.8032C10.6211 19.2341 10.6655 19.7017 10.681 20.1969ZM10.681 20.1969C10.6811 20.2024 10.6813 20.2079 10.6815 20.2134C10.6825 20.2081 10.6836 20.2029 10.6846 20.1976L10.681 20.1969ZM18.9786 1.81088C19.7562 2.04295 20.9195 2.28002 22.4998 2.28002C24.0802 2.28002 25.2434 2.04295 26.021 1.81088C26.41 1.69478 26.7056 1.579 26.9129 1.49205C26.9817 1.46321 27.0319 1.44138 27.0782 1.42125C27.1089 1.40792 27.1378 1.39534 27.1693 1.38195C27.2018 1.36814 27.2391 1.35264 27.274 1.34017C27.2746 1.33996 27.2754 1.33968 27.2764 1.33931C27.2947 1.33257 27.3832 1.29999 27.4855 1.29999C27.6086 1.29999 27.7081 1.33922 27.7611 1.36329C27.8218 1.39083 27.8764 1.42428 27.9209 1.45428C28.0101 1.51446 28.0989 1.58857 28.1745 1.65603C28.2863 1.7558 28.3931 1.86254 28.4661 1.93797C29.7819 2.56319 31.1083 3.02871 32.3256 3.4334C32.5333 3.50245 32.7388 3.57002 32.9411 3.63654C33.9332 3.9627 34.8487 4.2637 35.5681 4.59018M18.9786 1.81088L35.3615 5.04549M18.9786 1.81088C18.5896 1.69478 18.294 1.579 18.0867 1.49205M18.9786 1.81088L18.0867 1.49205M35.5681 4.59018L35.3615 5.04549M35.5681 4.59018C35.5681 4.59017 35.5681 4.59016 35.568 4.59015L35.3615 5.04549M35.5681 4.59018C36.4202 4.97676 36.967 5.26825 37.3771 5.56033M35.3615 5.04549C36.2104 5.4306 36.7224 5.70705 37.0926 5.97158M37.3771 5.56033C37.375 5.55893 37.3729 5.55753 37.3708 5.55613L37.0926 5.97158M37.3771 5.56033C37.3792 5.56181 37.3812 5.5633 37.3833 5.56478L37.0926 5.97158M18.0867 1.49205C18.0179 1.4632 17.9677 1.44137 17.9214 1.42124M18.0867 1.49205L17.9214 1.42124M17.9214 1.42124C17.8907 1.40792 17.8618 1.39533 17.8303 1.38195M17.9214 1.42124L17.8303 1.38195M17.8303 1.38195C17.7978 1.36814 17.7605 1.35264 17.7256 1.34017M17.8303 1.38195L17.7256 1.34017M17.7256 1.34017C17.725 1.33996 17.7242 1.33967 17.7233 1.33931M17.7256 1.34017L17.7233 1.33931M17.7233 1.33931C17.7049 1.33257 17.6164 1.29999 17.5141 1.29999M17.7233 1.33931L17.5141 1.29999M17.5141 1.29999C17.391 1.29999 17.2915 1.33922 17.2385 1.36329C17.1778 1.39083 17.1232 1.42428 17.0787 1.45428C16.9896 1.51446 16.9007 1.58857 16.8251 1.65603C16.7133 1.7558 16.6066 1.86254 16.5335 1.93797M17.5141 1.29999L16.5335 1.93797M35.1112 21.8148L35.1119 21.8151M35.1112 21.8148L35.1119 21.8151M35.1119 21.8151C35.1715 21.8323 35.2335 21.8431 35.289 21.8507M35.1119 21.8151L35.289 21.8507M35.289 21.8507C35.402 21.8661 35.5408 21.8746 35.694 21.8783M35.289 21.8507L35.694 21.8783M35.694 21.8783C36.0033 21.8857 36.4151 21.8741 36.8886 21.8413M35.694 21.8783L36.8886 21.8413M16.5335 1.93797C15.2177 2.56318 13.8913 3.02871 12.674 3.4334C12.4663 3.50245 12.2608 3.57002 12.0585 3.63654C11.0665 3.96269 10.1509 4.26368 9.43158 4.59015L16.5335 1.93797Z" fill="url(#paint0_linear)" fill-opacity="0.98" stroke="white"/>
<path fill-rule="evenodd" clip-rule="evenodd" d="M22.5 43.1834C23.3189 43.1834 24.1473 43.1877 24.9638 43.1919C29.5822 43.2156 33.8216 43.2375 33.8216 42.475C33.8216 42.1227 33.8222 40.774 33.8231 39.0264C33.8246 35.8112 33.8268 31.2458 33.8268 29.0512C33.8268 27.2955 33.823 25.8716 33.8194 24.4999C33.816 23.2251 33.8128 21.9954 33.8128 20.5863C33.8128 19.5513 33.935 18.6098 34.1313 17.8318C34.2491 18.0814 34.4679 18.8756 34.6792 19.6428C34.7219 19.7979 34.7643 19.9519 34.8056 20.1001C34.8872 20.5105 35.1017 21.2149 35.1954 21.3085C35.3495 21.4624 37.815 21.3939 40.1442 20.8625C42.3282 20.3645 43.0687 20.0446 43.1844 19.9035C43.2461 19.8281 43.1165 19.2241 42.944 18.5882C42.6326 17.209 42.0913 15.0339 41.7081 13.494C41.5484 12.8519 41.4161 12.3203 41.3394 12.0029C40.6807 9.27491 39.1641 7.83536 38.2093 6.92899C38.1508 6.87345 38.0944 6.81992 38.0404 6.76822C37.9975 6.72666 37.9558 6.68649 37.9131 6.64569C37.6488 6.39338 37.4155 6.18766 37.0928 5.97158C36.7226 5.70705 36.2106 5.4306 35.3617 5.04549C34.6694 4.73132 33.7864 4.44092 32.7943 4.11459C31.3934 3.65385 29.7748 3.12151 28.168 2.34961C28.0535 2.22784 27.6402 1.79999 27.4857 1.79999C27.4617 1.79999 27.3951 1.82886 27.2849 1.8767C26.7529 2.10756 25.2035 2.78002 22.5 2.78002V43.1834Z" fill="black" fill-opacity="0.1"/>
<path fill-rule="evenodd" clip-rule="evenodd" d="M22.0591 17.7952C21.7829 17.7952 21.5591 18.0191 21.5591 18.2952V21.5588H18.2954C18.0193 21.5588 17.7954 21.7826 17.7954 22.0588V22.9406C17.7954 23.2167 18.0193 23.4406 18.2954 23.4406H21.5591V26.7043C21.5591 26.9805 21.7829 27.2043 22.0591 27.2043H22.9409C23.217 27.2043 23.4409 26.9805 23.4409 26.7043V23.4406H26.7045C26.9806 23.4406 27.2045 23.2167 27.2045 22.9406V22.0588C27.2045 21.7826 26.9806 21.5588 26.7045 21.5588H23.4409V18.2952C23.4409 18.0191 23.217 17.7952 22.9409 17.7952H22.0591Z" fill="white"/>
</g>
<defs>
<linearGradient id="paint0_linear" x1="1.7998" y1="22.5" x2="44.3498" y2="22.5" gradientUnits="userSpaceOnUse">
<stop stop-color="#0000CD"/>
<stop offset="1" stop-color="#103DFF"/>
</linearGradient>
</defs>
</svg>
