<svg width="204" height="200" viewBox="0 0 204 200" fill="none" xmlns="http://www.w3.org/2000/svg">
<g clip-path="url(#clip0)" filter="url(#filter0_d)">
<mask id="mask0" style="mask-type:alpha" maskUnits="userSpaceOnUse" x="-4" y="16" width="210" height="174">
<rect x="-3.44434" y="16" width="208.889" height="173.333" fill="#C4C4C4"/>
</mask>
<g mask="url(#mask0)">
<path fill-rule="evenodd" clip-rule="evenodd" d="M101.676 35.8913C102.269 35.8913 102.862 35.9452 103.4 35.9452C110.191 35.9452 117.574 33.7895 121.832 32.55C137.569 34.9213 152.335 38.4782 166.455 49.4185C176.91 57.5024 185.803 65.4786 193.348 71.1373L173.785 102.072C168.773 98.4071 167.048 101.048 156.215 92.3172C155.192 91.7244 154.76 94.958 154.599 97.0059C154.006 103.796 153.359 113.551 153.305 119.91C153.251 128.587 152.982 136.994 152.82 145.671C152.766 150.09 152.874 155.965 153.305 163.941C153.629 169.438 153.359 196.19 152.82 199.477C152.874 199.962 152.82 200.393 151.904 200.663C151.257 200.878 150.611 200.932 149.91 201.148C148.185 201.741 146.515 202.333 144.736 202.818C136.221 205.675 129.377 207.669 122.317 209.339C119.461 209.986 116.443 210.795 113.425 211.28C110.353 211.765 107.227 212.411 103.832 212.842C100.975 213.166 97.9034 213.327 94.562 213.327C87.9871 213.166 83.4601 212.142 77.2085 210.04C73.921 208.908 70.6336 207.615 67.4 206.375C64.1664 205.19 60.9329 203.95 57.5915 202.98C55.9747 202.495 54.3579 202.172 52.6873 201.794L51.5555 201.525C50.8549 201.417 50.6393 201.309 50.5315 200.824C49.777 197.375 49.5615 169.384 49.8848 163.941C50.3699 155.965 50.4776 150.09 50.3699 145.671C50.2621 136.994 49.9387 128.533 49.8848 119.91C49.8309 113.551 49.1842 103.796 48.5914 97.0059C48.4297 94.958 47.9986 91.7244 46.9746 92.3172C36.0882 101.102 34.4176 98.3533 29.4055 102.018L9.9502 71.0295C17.4952 65.3708 26.3875 57.5024 36.8427 49.3646C50.9627 38.4243 65.7293 34.8674 81.4122 32.4961C85.7236 33.7356 93.1069 35.8913 99.8974 35.8913C100.49 35.8913 101.083 35.8913 101.676 35.8913Z" fill="#00004B" fill-opacity="0.35"/>
<path fill-rule="evenodd" clip-rule="evenodd" d="M120.175 26.8604C121 26.6205 121.866 26.5625 122.715 26.6904C138.78 29.1111 154.759 32.86 170.085 44.7342C175.369 48.8203 180.251 52.8716 184.691 56.5555L184.777 56.6272C189.281 60.3643 193.271 63.6722 196.903 66.3967C199.375 68.2508 200.008 71.6932 198.356 74.3048L178.793 105.239C177.916 106.626 176.503 107.587 174.891 107.894C173.279 108.2 171.612 107.824 170.287 106.856C169.148 106.023 168.635 105.852 167.328 105.418C166.775 105.235 166.079 105.003 165.133 104.654C163.644 104.105 162.028 103.391 160.116 102.289C159.666 108.284 159.272 115.168 159.231 119.953C159.195 125.729 159.064 131.431 158.932 137.113C158.866 139.999 158.799 142.88 158.746 145.763C158.694 150.02 158.797 155.751 159.222 163.61C159.398 166.624 159.405 174.898 159.312 182.61C159.264 186.525 159.19 190.39 159.092 193.497C159.016 195.921 158.919 198.261 158.762 199.716C158.759 200.574 158.6 201.878 157.807 203.2C156.628 205.165 154.811 205.969 153.681 206.316C153.041 206.523 152.455 206.642 152.154 206.703L152.112 206.712C151.925 206.75 151.835 206.768 151.748 206.788C151.726 206.793 151.709 206.797 151.695 206.801C151.552 206.85 151.407 206.9 151.261 206.95C149.807 207.452 148.181 208.014 146.465 208.489C137.891 211.361 130.911 213.396 123.682 215.106L123.626 215.119C122.97 215.268 122.255 215.438 121.499 215.618C119.316 216.139 116.788 216.741 114.365 217.131L114.349 217.133C113.434 217.278 112.398 217.459 111.292 217.653C109.192 218.022 106.839 218.434 104.578 218.721C104.552 218.725 104.525 218.728 104.498 218.731C101.39 219.083 98.0933 219.254 94.5621 219.254C94.5135 219.254 94.465 219.253 94.4164 219.252C87.0987 219.072 81.9717 217.893 75.3201 215.657L75.2796 215.643C72.4408 214.666 69.594 213.57 66.8958 212.531C66.3641 212.326 65.8383 212.123 65.3194 211.924C64.8297 211.745 64.3479 211.567 63.8725 211.392C61.1107 210.373 58.5657 209.434 55.9394 208.671L55.8888 208.656C54.8351 208.34 53.8219 208.116 52.5515 207.835C52.1854 207.755 51.798 207.669 51.3821 207.575L51.3148 207.559L50.4268 207.348C49.9159 207.265 48.715 207.017 47.5842 206.28C45.6113 204.993 44.9721 203.124 44.7468 202.11L44.7426 202.091C44.5422 201.175 44.4364 199.942 44.3625 198.887C44.2788 197.691 44.2069 196.224 44.1451 194.597C44.0213 191.335 43.9329 187.29 43.8787 183.209C43.7715 175.147 43.7926 166.566 43.9694 163.59L43.9699 163.581C44.448 155.719 44.5483 150.02 44.4458 145.816L44.4445 145.745C44.3988 142.064 44.3088 138.25 44.2181 134.405C44.104 129.568 43.9888 124.682 43.9592 119.955C43.9183 115.17 43.5247 108.285 43.0741 102.29C41.1401 103.403 39.5066 104.117 38.0012 104.661C37.037 105.009 36.3362 105.236 35.7839 105.414C34.5044 105.828 34.0211 105.984 32.9033 106.802C31.5759 107.772 29.9049 108.148 28.2899 107.838C26.6749 107.528 25.2612 106.562 24.3868 105.169L4.9315 74.1806C3.29241 71.5699 3.92864 68.1385 6.39473 66.2889C10.037 63.5573 14.0373 60.267 18.5333 56.5564C18.7016 56.4175 18.8705 56.2781 19.0401 56.1381C23.3645 52.5688 28.0971 48.6625 33.203 44.6884L33.2133 44.6803C48.5377 32.8069 64.5161 29.0577 80.5263 26.6369C81.3694 26.5094 82.2301 26.5654 83.0496 26.801C87.5145 28.0847 94.0859 29.9656 99.8975 29.9656H101.676C102.118 29.9656 102.536 29.985 102.81 29.9978L102.834 29.9989C103.159 30.014 103.296 30.0195 103.401 30.0195C109.209 30.0195 115.787 28.1381 120.175 26.8604ZM42.4751 95.6749C42.5124 95.6497 42.5499 95.6243 42.5875 95.5988C43.8648 94.7313 45.3123 93.6588 46.9747 92.3174C47.4988 92.014 47.8676 92.7129 48.1244 93.7422C48.1924 94.0145 48.2525 94.31 48.3056 94.6162C48.4439 95.4137 48.5345 96.2837 48.5915 97.0061C48.6191 97.3226 48.6469 97.6455 48.6747 97.9742C48.6888 98.1417 48.703 98.3106 48.7172 98.481C49.2724 105.152 49.8348 113.999 49.8849 119.911C49.9147 124.681 50.027 129.402 50.1397 134.138C50.2306 137.962 50.3218 141.795 50.37 145.671C50.4777 150.091 50.37 155.965 49.8849 163.941C49.5616 169.384 49.7771 197.375 50.5316 200.825C50.6394 201.31 50.855 201.417 51.5556 201.525L52.6873 201.795C53.0319 201.872 53.3741 201.948 53.7145 202.023C55.0248 202.312 56.3082 202.595 57.5916 202.98C60.4371 203.806 63.2044 204.828 65.9601 205.845C66.4403 206.022 66.9202 206.2 67.4001 206.375C67.9503 206.586 68.5021 206.799 69.0551 207.012C71.7524 208.05 74.4805 209.101 77.2086 210.04C83.4602 212.142 87.9872 213.166 94.5621 213.328C97.9035 213.328 100.975 213.166 103.832 212.843C105.982 212.57 108.025 212.21 110.014 211.86C111.165 211.657 112.299 211.458 113.425 211.28C115.61 210.928 117.796 210.408 119.92 209.901C120.729 209.709 121.529 209.518 122.317 209.34C129.377 207.669 136.221 205.675 144.736 202.819C146.313 202.389 147.804 201.874 149.324 201.35C149.519 201.283 149.714 201.215 149.91 201.148C150.248 201.044 150.574 200.978 150.892 200.912C151.235 200.843 151.569 200.774 151.904 200.663C152.82 200.393 152.874 199.962 152.82 199.477C153.359 196.19 153.629 169.438 153.305 163.941C152.874 155.965 152.766 150.091 152.82 145.671C152.875 142.725 152.943 139.81 153.01 136.905C153.14 131.254 153.27 125.641 153.305 119.911C153.355 113.998 153.918 105.151 154.473 98.4796C154.487 98.3097 154.501 98.1412 154.516 97.9742C154.543 97.6455 154.571 97.3226 154.599 97.0061C154.656 96.2837 154.746 95.4137 154.885 94.6162C154.938 94.311 154.998 94.0163 155.065 93.7447C155.322 92.714 155.691 92.0137 156.216 92.3174C157.878 93.6571 159.326 94.7291 160.604 95.5972C160.641 95.6226 160.678 95.6478 160.715 95.6728C164.498 98.2265 166.783 98.983 168.758 99.6371C169.855 100 170.856 100.332 171.965 100.921C172.534 101.224 173.131 101.594 173.785 102.072L193.348 71.1375C189.559 68.296 185.431 64.8702 180.935 61.1398C176.478 57.4412 171.66 53.4433 166.455 49.4186C152.335 38.4784 137.569 34.9214 121.832 32.5501L121.792 32.5616C117.529 33.8029 110.17 35.9454 103.401 35.9454C103.138 35.9454 102.862 35.9325 102.579 35.9194C102.283 35.9056 101.979 35.8915 101.676 35.8915H99.8975C93.2168 35.8915 85.9623 33.8049 81.6238 32.5571L81.4122 32.4962C65.7294 34.8675 50.9628 38.4245 36.8428 49.3647C31.8054 53.2856 27.1307 57.144 22.7948 60.7228C18.1315 64.5718 13.86 68.0974 9.95029 71.0297L29.4056 102.018C30.0772 101.527 30.6888 101.151 31.2707 100.847C32.3559 100.28 33.3376 99.9638 34.4117 99.6174C36.3835 98.9817 38.667 98.2454 42.4751 95.6749Z" fill="white"/>
<mask id="mask1" style="mask-type:alpha" maskUnits="userSpaceOnUse" x="9" y="32" width="185" height="182">
<path fill-rule="evenodd" clip-rule="evenodd" d="M101.675 35.8913C102.268 35.8913 102.861 35.9452 103.4 35.9452C110.19 35.9452 117.574 33.7895 121.831 32.55C137.568 34.9213 152.335 38.4782 166.455 49.4185C176.91 57.5024 185.802 65.4786 193.347 71.1373L173.784 102.072C168.772 98.4072 167.047 101.048 156.215 92.3172C155.191 91.7244 154.76 94.958 154.598 97.0059C154.005 103.796 153.359 113.551 153.305 119.91C153.251 128.587 152.981 136.994 152.82 145.671C152.766 150.09 152.874 155.965 153.305 163.941C153.628 169.438 153.359 196.19 152.82 199.477C152.874 199.962 152.82 200.393 151.904 200.663C151.257 200.878 150.61 200.932 149.91 201.148C148.185 201.741 146.514 202.333 144.736 202.818C136.221 205.675 129.376 207.669 122.316 209.339C119.46 209.986 116.442 210.795 113.424 211.28C110.352 211.765 107.226 212.411 103.831 212.842C100.975 213.166 97.9029 213.328 94.5615 213.328C87.9866 213.166 83.4596 212.142 77.208 210.04C73.9206 208.908 70.6331 207.615 67.3995 206.375C64.1659 205.19 60.9324 203.95 57.591 202.98C55.9742 202.495 54.3574 202.172 52.6868 201.794L51.555 201.525C50.8544 201.417 50.6388 201.309 50.531 200.824C49.7765 197.375 49.561 169.384 49.8843 163.941C50.3694 155.965 50.4772 150.09 50.3694 145.671C50.2616 136.994 49.9382 128.533 49.8843 119.91C49.8304 113.551 49.1837 103.796 48.5909 97.0059C48.4292 94.958 47.9981 91.7244 46.9741 92.3172C36.0878 101.102 34.4171 98.3533 29.405 102.018L9.94971 71.0295C17.4947 65.3708 26.387 57.5024 36.8423 49.3646C50.9622 38.4243 65.7288 34.8674 81.4117 32.4961C85.7231 33.7356 93.1064 35.8913 99.8969 35.8913C100.49 35.8913 101.083 35.8913 101.675 35.8913Z" fill="#00004B" fill-opacity="0.35"/>
</mask>
<g mask="url(#mask1)">
<rect x="98.9614" y="3.90625" width="101.961" height="185.148" fill="black" fill-opacity="0.2"/>
</g>
<path d="M99.9776 87.0747C98.8947 87.0747 98.0168 87.9526 98.0168 89.0355V101.834H85.2181C84.1352 101.834 83.2573 102.712 83.2573 103.795V107.253C83.2573 108.336 84.1352 109.213 85.2181 109.213H98.0168V122.012C98.0168 123.095 98.8947 123.973 99.9776 123.973H103.436C104.519 123.973 105.396 123.095 105.396 122.012V109.213H118.195C119.278 109.213 120.156 108.336 120.156 107.253V103.795C120.156 102.712 119.278 101.834 118.195 101.834H105.396V89.0355C105.396 87.9526 104.519 87.0747 103.436 87.0747H99.9776Z" fill="white"/>
</g>
</g>
<defs>
<filter id="filter0_d" x="-3" y="0" width="208" height="208" filterUnits="userSpaceOnUse" color-interpolation-filters="sRGB">
<feFlood flood-opacity="0" result="BackgroundImageFix"/>
<feColorMatrix in="SourceAlpha" type="matrix" values="0 0 0 0 0 0 0 0 0 0 0 0 0 0 0 0 0 0 127 0" result="hardAlpha"/>
<feOffset dy="4"/>
<feGaussianBlur stdDeviation="2"/>
<feComposite in2="hardAlpha" operator="out"/>
<feColorMatrix type="matrix" values="0 0 0 0 0 0 0 0 0 0 0 0 0 0 0 0 0 0 0.25 0"/>
<feBlend mode="normal" in2="BackgroundImageFix" result="effect1_dropShadow"/>
<feBlend mode="normal" in="SourceGraphic" in2="effect1_dropShadow" result="shape"/>
</filter>
<clipPath id="clip0">
<rect width="200" height="200" fill="white" transform="translate(1)"/>
</clipPath>
</defs>
</svg>
