<svg width="200" height="200" viewBox="0 0 200 200" fill="none" xmlns="http://www.w3.org/2000/svg">
<g clip-path="url(#clip0)">
<path d="M78.7338 8.3412C81.098 9.36723 87.9847 12.3559 99.9998 12.3559C112.016 12.3559 118.902 9.36724 121.266 8.34121C121.756 8.12859 122.052 8.00025 122.159 8.00025C122.845 8.00025 124.683 9.9018 125.192 10.443C132.333 13.8737 139.526 16.2396 145.753 18.2874C150.162 19.7377 154.087 21.0284 157.163 22.4247C160.936 24.1363 163.212 25.365 164.857 26.5406C166.291 27.501 167.328 28.4153 168.503 29.5367C168.693 29.718 168.878 29.8966 169.069 30.0813C169.309 30.3111 169.559 30.549 169.819 30.7958C174.063 34.8241 180.803 41.2221 183.731 53.3465C184.072 54.7574 184.66 57.12 185.37 59.9734C187.073 66.8174 189.479 76.4848 190.862 82.6146C191.629 85.4407 192.205 88.1251 191.931 88.4603C191.417 89.0873 188.126 90.5094 178.419 92.7225C168.067 95.0845 157.109 95.3886 156.424 94.7047C156.008 94.2886 155.054 91.1579 154.692 89.3341C154.509 88.6759 154.32 87.9919 154.13 87.3029C153.191 83.8928 152.218 80.362 151.695 79.2527C150.822 82.7107 150.279 86.8949 150.279 91.4948C150.279 97.7577 150.294 103.223 150.309 108.889C150.325 114.985 150.342 121.313 150.342 129.117C150.342 136.06 150.337 177.343 150.331 189H49.669C49.6636 177.343 49.6587 136.06 49.6587 129.117C49.6587 121.313 49.6754 114.985 49.6915 108.889C49.7065 103.223 49.7209 97.7577 49.7209 91.4948C49.7209 86.8949 49.1779 82.7107 48.3053 79.2527C47.782 80.3619 46.8095 83.8922 45.8702 87.302C45.6804 87.9913 45.4918 88.6757 45.3087 89.3341C44.9459 91.1579 43.9926 94.2886 43.5763 94.7046C42.891 95.3886 31.9333 95.0845 21.5815 92.7225C11.8747 90.5094 8.58367 89.0873 8.06937 88.4603C7.79522 88.125 8.37119 85.4407 9.13797 82.6146C10.5217 76.4849 12.9274 66.8177 14.6305 59.9738C15.3406 57.1202 15.9286 54.7574 16.2694 53.3465C19.1971 41.2221 25.9374 34.8241 30.1812 30.7958C30.4412 30.549 30.6918 30.3111 30.9316 30.0813C31.1222 29.8966 31.3075 29.718 31.4973 29.5367C32.6723 28.4153 33.7091 27.501 35.1432 26.5406C36.7883 25.365 39.0642 24.1363 42.8371 22.4247C45.9137 21.0284 49.8381 19.7377 54.2477 18.2874C60.4738 16.2396 67.6675 13.8737 74.8087 10.443C75.3178 9.9018 77.1548 8.00024 77.8413 8.00024C77.9482 8.00024 78.2439 8.12858 78.7338 8.3412Z" fill="#00004B" fill-opacity="0.35"/>
<path d="M99.9004 189H150.3V91.4999C150.3 86.8999 150.8 82.6999 151.7 79.2999C152.2 80.3999 153.2 83.8999 154.1 87.2999C154.3 87.9999 154.5 88.6999 154.7 89.2999C155.1 91.0999 156 94.2999 156.4 94.7C157.1 95.3999 168 95.1 178.4 92.7C188.1 90.5 191.4 89.0999 191.9 88.3999C192.2 88.0999 191.6 85.3999 190.8 82.5999C189.4 76.4999 187 66.7999 185.3 59.9999C185.028 58.8749 184.772 57.8401 184.542 56.9131C184.18 55.4508 183.884 54.2568 183.7 53.3999C180.87 41.5915 174.325 35.2116 170.108 31.1003C170.004 30.9988 169.901 30.8987 169.8 30.7999C169.65 30.6999 169.525 30.5749 169.4 30.4499C169.275 30.3249 169.15 30.1999 169 30.0999C168.8 29.9 168.6 29.6999 168.4 29.5999C167.2 28.4999 166.2 27.5999 164.8 26.5999C163.2 25.3999 160.9 24.1999 157.1 22.4999C154 21.0999 150.1 19.7999 145.7 18.3999C139.5 16.3999 132.3 13.9999 125.1 10.5999C125.053 10.5534 124.995 10.4946 124.928 10.4264C124.274 9.76241 122.735 8.19995 122.1 8.19995C122 8.19995 121.7 8.29994 121.2 8.49994C121.145 8.52277 121.088 8.54664 121.028 8.5715C118.482 9.63535 111.626 12.4999 99.9004 12.4999V189Z" fill="black" fill-opacity="0.1"/>
<path d="M125.028 10.2265C124.374 9.56246 122.835 8 122.2 8C122.072 8 121.736 8.14609 121.185 8.38502C118.713 9.45738 111.931 12.4 100.4 12.4C88.3512 12.4 81.412 9.36178 79.066 8.33465C78.5888 8.12572 78.3016 8 78.2002 8C77.5654 8 76.0261 9.56246 75.3719 10.2265C75.3047 10.2947 75.2468 10.3534 75.2002 10.4C68.0907 13.8382 60.9132 16.1897 54.6969 18.2263C50.246 19.6846 46.2879 20.9813 43.2002 22.4C39.4002 24.1 37.1002 25.3 35.5002 26.5C34.1002 27.5 33.1002 28.4 31.9002 29.5C31.7002 29.6 31.5003 29.8 31.3003 29.9999C31.0669 30.2222 30.8236 30.452 30.5717 30.6898C26.2911 34.7313 19.528 41.1168 16.6002 53.3C16.1256 55.3709 15.1112 59.4895 13.9505 64.2021C12.4209 70.4121 10.6373 77.6536 9.50027 82.6C8.70027 85.4 8.10026 88.1 8.40026 88.4C8.90026 89.1 12.2002 90.5 21.9002 92.7C29.1002 94.4 36.7002 95 40.8002 95C42.6002 95 43.7002 94.9 43.9002 94.7C44.3002 94.3 45.2002 91.1 45.6002 89.3C45.8267 88.497 46.0617 87.6517 46.2972 86.8041C47.2059 83.5349 48.1238 80.2324 48.6002 79.2C49.5002 82.6 50.0002 86.8 50.0002 91.4C50.0002 97.6568 49.9771 103.103 49.953 108.753C49.9271 114.842 49.9002 121.167 49.9002 129V189H41.7002V103.1H40.5002C36.0002 103.1 27.9002 102.4 19.8002 100.6C5.90028 97.4 3.60027 95.6 1.90027 93.6C-1.05607 90.0524 0.0662267 85.825 1.34359 81.0135L1.40027 80.8C2.47546 76.0384 4.14047 69.3305 5.62523 63.3487C6.07377 61.5417 6.50586 59.8009 6.90027 58.2C7.17186 57.0749 7.42839 56.04 7.6582 55.113C8.02069 53.6508 8.31666 52.4568 8.50027 51.6C11.9931 37.2294 20.2663 29.3323 24.6732 25.1258L24.7002 25.1L26.0002 23.8C27.4002 22.4 28.8002 21.2 30.6002 20C32.7002 18.5 35.4002 17.1 39.5002 15.2C43.0002 13.6 47.0002 12.2 51.7002 10.7C51.9183 10.6273 52.1375 10.5543 52.3576 10.481C57.8899 8.63812 64.0413 6.58901 70.1002 3.79999C72.5002 1.49999 74.8002 0 77.8002 0C79.4411 0 80.6664 0.498584 81.6278 0.889754C81.721 0.927698 81.8118 0.964631 81.9002 1C83.8002 1.9 89.6002 4.39999 100 4.39999C110.072 4.39999 115.829 1.96159 117.908 1.08102C117.976 1.05231 118.04 1.02526 118.1 1C118.279 0.935089 118.46 0.864911 118.646 0.792885C119.605 0.421067 120.692 0 122.2 0C125.2 0 127.5 1.50001 129.9 3.70001C135.959 6.48894 142.11 8.53798 147.642 10.3808C147.862 10.4542 148.082 10.5272 148.3 10.6C148.855 10.7888 149.4 10.9735 149.935 11.1549C153.937 12.511 157.413 13.6888 160.5 15.1C164.6 17 167.3 18.4 169.4 19.9C171.2 21.1 172.6 22.3 174 23.7L175.3 25C179.8 29.2 188 37 191.5 51.6C191.8 53 192.4 55.4 193.1 58.2C193.494 59.801 193.927 61.542 194.375 63.3493C195.86 69.331 197.525 76.0386 198.6 80.8C200 85.7 201.1 90 198.1 93.6C196.5 95.6 194.1 97.4 180.2 100.6C172.1 102.4 164 103.1 159.5 103.1H158.3V189H150.5V129C150.5 121.232 150.473 114.912 150.447 108.818C150.423 103.145 150.4 97.6676 150.4 91.4C150.4 86.8 150.9 82.7 151.8 79.2C152.297 80.3607 153.276 83.8582 154.223 87.2424C154.418 87.9402 154.612 88.6333 154.8 89.3C155.1 91.2 156.1 94.3 156.5 94.7C156.7 94.9 157.9 95 159.6 95C163.7 95 171.2 94.4 178.5 92.7C188.2 90.4 191.5 89 192 88.4C192.2 88.1 191.7 85.4 190.9 82.6C189.211 74.8676 185.864 61.5266 184.298 55.2848C184.102 54.5037 183.933 53.8338 183.8 53.3C180.872 41.1168 174.109 34.7314 169.829 30.6898C169.577 30.452 169.333 30.2223 169.1 30C168.9 29.9 168.7 29.7 168.5 29.5C167.4 28.4 166.3 27.5 164.9 26.5C163.2 25.3 161 24.1 157.2 22.4C154.112 20.9813 150.154 19.6846 145.703 18.2263C139.487 16.1897 132.31 13.8382 125.2 10.4C125.153 10.3534 125.096 10.2947 125.028 10.2265Z" fill="white"/>
<path d="M98.0006 79.1001C96.8006 79.1001 95.8006 80.1001 95.8006 81.3001V95.8001H81.3006C80.1006 95.8001 79.1006 96.8001 79.1006 98.0001V101.9C79.1006 103.1 80.1006 104.1 81.3006 104.1H95.8006V118.6C95.8006 119.8 96.8006 120.8 98.0006 120.8H101.9C103.1 120.8 104.1 119.8 104.1 118.6V104.1H118.6C119.8 104.1 120.8 103.1 120.8 101.9V98.0001C120.8 96.8001 119.8 95.8001 118.6 95.8001H104.1V81.3001C104.1 80.1001 103.1 79.1001 101.9 79.1001H98.0006Z" fill="white"/>
</g>
<defs>
<clipPath id="clip0">
<rect width="200" height="200" fill="white"/>
</clipPath>
</defs>
</svg>
