<svg width="200" height="200" viewBox="0 0 200 200" fill="none" xmlns="http://www.w3.org/2000/svg">
<g clip-path="url(#clip0)">
<path d="M100.676 35.8913C101.269 35.8913 101.862 35.9452 102.4 35.9452C109.17 35.9452 116.529 33.8028 120.792 32.5615L120.832 32.55C136.569 34.9213 151.335 38.4782 165.455 49.4185C175.91 57.5024 184.803 65.4786 192.348 71.1373L172.785 102.072C167.773 98.4071 166.048 101.048 155.215 92.3172C154.192 91.7244 153.76 94.958 153.599 97.0059C153.006 103.796 152.359 113.551 152.305 119.91C152.251 128.587 151.982 136.994 151.82 145.671C151.766 150.09 151.874 155.965 152.305 163.941C152.629 169.438 152.359 185.19 151.82 188.477C151.874 188.962 151.82 189.393 150.904 189.663C150.257 189.878 149.611 189.932 148.91 190.148C104.838 194.666 65.7315 192.461 51.6873 190.794L50.5555 190.525C49.8549 190.417 49.6393 190.309 49.5315 189.824C48.777 186.375 48.5615 169.384 48.8848 163.941C49.3699 155.965 49.4776 150.09 49.3699 145.671C49.2621 136.994 48.9387 128.533 48.8848 119.91C48.8309 113.551 48.1842 103.796 47.5914 97.0059C47.4297 94.958 46.9986 91.7244 45.9746 92.3172C35.0882 101.102 33.4176 98.3533 28.4055 102.018L8.9502 71.0295C16.4952 65.3708 25.3875 57.5024 35.8427 49.3646C49.9627 38.4243 64.7293 34.8674 80.4122 32.4961L80.6237 32.5569C84.9622 33.8048 92.2167 35.8913 98.8974 35.8913H100.676Z" fill="#0D3AFF"/>
<path fill-rule="evenodd" clip-rule="evenodd" d="M183.738 56.4986C179.298 52.8147 174.415 48.7626 169.13 44.6756C153.789 32.7897 137.795 29.0384 121.726 26.617L120.421 26.4205L119.115 26.8007C114.723 28.0793 108.177 29.9453 102.4 29.9453C102.297 29.9453 102.163 29.94 101.837 29.9249L101.813 29.9237C101.539 29.911 101.119 29.8914 100.676 29.8914H98.8972C93.199 29.8914 86.75 28.0759 82.2818 26.7907L80.8107 26.3677L79.5149 26.5636C63.5006 28.985 47.507 32.7366 32.1676 44.6217L32.1572 44.6299C27.0504 48.6048 22.317 52.5116 17.9926 56.0809L17.4858 56.4992C12.9895 60.21 8.99055 63.4992 5.34995 66.2296L0.932129 69.543L26.7481 110.663L31.9467 106.861C33.0547 106.051 33.5275 105.898 34.7997 105.487C35.352 105.309 36.055 105.081 37.026 104.731C38.5093 104.195 40.1156 103.494 42.0086 102.412C42.4556 108.38 42.8442 115.205 42.8848 119.956C42.9144 124.683 43.0296 129.569 43.1437 134.407L43.1438 134.409C43.2344 138.253 43.3244 142.067 43.3701 145.746L43.3705 145.782L43.3714 145.818C43.4739 150.019 43.3737 155.716 42.8956 163.577L42.8951 163.585C42.7186 166.558 42.6966 172.365 42.805 177.751C42.8597 180.474 42.9493 183.168 43.0759 185.426C43.1927 187.51 43.3619 189.699 43.6699 191.107L43.672 191.116L43.6742 191.126C43.9016 192.149 44.5477 194.04 46.5434 195.342C47.6852 196.087 48.8973 196.337 49.4126 196.421L50.6351 196.712L50.9798 196.753C65.4342 198.468 104.984 200.682 149.522 196.117L150.109 196.056L150.674 195.883C150.674 195.883 150.679 195.881 150.69 195.878C150.704 195.875 150.728 195.869 150.765 195.86C150.785 195.856 150.805 195.851 150.827 195.846C150.838 195.844 150.85 195.841 150.862 195.839C150.926 195.825 151.006 195.809 151.127 195.784L151.168 195.776C151.47 195.714 152.059 195.594 152.703 195.387C153.842 195.037 155.678 194.225 156.871 192.238C157.657 190.927 157.827 189.634 157.836 188.767C158.132 186.308 158.302 181.571 158.385 177.15C158.479 172.111 158.471 166.609 158.296 163.606C157.871 155.749 157.768 150.019 157.819 145.764L158.305 119.958C158.345 115.207 158.734 108.38 159.181 102.412C159.712 102.716 160.22 102.99 160.709 103.239C161.943 103.867 163.056 104.337 164.107 104.724C165.059 105.075 165.758 105.307 166.311 105.491C167.611 105.922 168.113 106.09 169.243 106.915L174.424 110.704L200.38 69.6617L195.947 66.3374C192.316 63.6142 188.328 60.3076 183.824 56.5701L183.738 56.4986ZM100.676 35.8914H98.8972C92.2165 35.8914 84.962 33.8049 80.6235 32.557L80.4119 32.4962C64.7291 34.8675 49.9624 38.4244 35.8425 49.3647C30.805 53.2856 26.1304 57.1439 21.7945 60.7227C17.1312 64.5717 12.8597 68.0973 8.94996 71.0296L28.4053 102.018C29.0769 101.527 29.6885 101.151 30.2703 100.847C31.3556 100.28 32.3372 99.9637 33.4113 99.6174C35.3715 98.9854 37.6396 98.2541 41.4073 95.7203L41.5256 95.6404C42.818 94.7657 44.2852 93.6803 45.9744 92.3173C46.4984 92.0139 46.8672 92.7128 47.1241 93.7421C47.192 94.0145 47.2522 94.31 47.3053 94.6161C47.4436 95.4136 47.5341 96.2836 47.5912 97.006C47.6209 97.3465 47.6507 97.6945 47.6807 98.0492C47.6951 98.2208 47.7096 98.3939 47.7241 98.5685C48.0837 102.902 48.4454 108.138 48.6681 112.889C48.7877 115.441 48.8671 117.853 48.8846 119.911C48.8875 120.378 48.8912 120.844 48.8956 121.311C48.9364 125.606 49.0377 129.866 49.1393 134.138C49.2303 137.962 49.3215 141.795 49.3696 145.671C49.4774 150.091 49.3696 155.965 48.8846 163.941C48.5612 169.384 48.7768 186.375 49.5313 189.824C49.6391 190.309 49.8547 190.417 50.5553 190.525L51.687 190.794C65.7313 192.461 104.838 194.666 148.91 190.148C149.248 190.044 149.573 189.977 149.892 189.912C150.234 189.843 150.569 189.774 150.904 189.663C151.82 189.393 151.874 188.962 151.82 188.477C152.359 185.19 152.628 169.438 152.305 163.941C151.874 155.965 151.766 150.091 151.82 145.671C151.828 145.254 151.836 144.838 151.844 144.422C151.894 141.9 151.952 139.399 152.009 136.906C152.14 131.255 152.269 125.641 152.305 119.911C152.355 114.024 152.913 105.228 153.466 98.567C153.48 98.3929 153.494 98.2203 153.509 98.0492C153.539 97.6945 153.569 97.3465 153.598 97.006C153.655 96.2836 153.746 95.4136 153.884 94.6161C153.937 94.3109 153.997 94.0163 154.065 93.7446C154.322 92.714 154.691 92.0137 155.215 92.3173C156.904 93.6786 158.372 94.7634 159.665 95.6388L159.783 95.7182C160.439 96.1597 161.05 96.5469 161.622 96.8887C164.312 98.4959 166.139 99.1009 167.758 99.637C168.855 100 169.856 100.332 170.965 100.921C171.534 101.224 172.131 101.594 172.784 102.072L192.347 71.1374C188.796 68.4736 184.945 65.2962 180.774 61.8358C180.496 61.6051 180.216 61.3729 179.935 61.1397L179.933 61.1384C176.255 58.0858 172.33 54.8293 168.145 51.5221C167.26 50.8227 166.363 50.121 165.455 49.4186C151.335 38.4783 136.568 34.9214 120.832 32.5501L120.792 32.5615C118.687 33.1744 115.827 34.007 112.657 34.6929C109.406 35.3962 105.827 35.9453 102.4 35.9453C102.137 35.9453 101.861 35.9325 101.579 35.9193C101.283 35.9056 100.979 35.8914 100.676 35.8914Z" fill="white"/>
<mask id="mask0" style="mask-type:alpha" maskUnits="userSpaceOnUse" x="8" y="32" width="185" height="161">
<path d="M100.676 35.8913C101.269 35.8913 101.862 35.9452 102.4 35.9452C109.17 35.9452 116.529 33.8028 120.792 32.5615L120.832 32.55C136.569 34.9213 151.335 38.4782 165.455 49.4185C175.91 57.5024 184.803 65.4786 192.348 71.1373L172.785 102.072C167.773 98.4071 166.048 101.048 155.215 92.3172C154.192 91.7244 153.76 94.958 153.599 97.0059C153.006 103.796 152.359 113.551 152.305 119.91C152.251 128.587 151.982 136.994 151.82 145.671C151.766 150.09 151.874 155.965 152.305 163.941C152.629 169.438 152.359 185.19 151.82 188.477C151.874 188.962 151.82 189.393 150.904 189.663C150.257 189.878 149.611 189.932 148.91 190.148C104.838 194.666 65.7315 192.461 51.6873 190.794L50.5555 190.525C49.8549 190.417 49.6393 190.309 49.5315 189.824C48.777 186.375 48.5615 169.384 48.8848 163.941C49.3699 155.965 49.4776 150.09 49.3699 145.671C49.2621 136.994 48.9387 128.533 48.8848 119.91C48.8309 113.551 48.1842 103.796 47.5914 97.0059C47.4297 94.958 46.9986 91.7244 45.9746 92.3172C35.0882 101.102 33.4176 98.3533 28.4055 102.018L8.9502 71.0295C16.4952 65.3708 25.3875 57.5024 35.8427 49.3646C49.9627 38.4243 64.7293 34.8674 80.4122 32.4961L80.6237 32.5569C84.9622 33.8048 92.2167 35.8913 98.8974 35.8913H100.676Z" fill="#0D3AFF"/>
</mask>
<g mask="url(#mask0)">
<rect x="98" y="1.6792" width="102" height="205.321" fill="black" fill-opacity="0.2"/>
</g>
<path d="M98.9776 87.0752C97.8947 87.0752 97.0168 87.9531 97.0168 89.036V101.834H84.2181C83.1352 101.834 82.2573 102.712 82.2573 103.795V107.253C82.2573 108.336 83.1352 109.214 84.2181 109.214H97.0168V122.013C97.0168 123.096 97.8947 123.974 98.9776 123.974H102.436C103.519 123.974 104.396 123.096 104.396 122.013V109.214H117.195C118.278 109.214 119.156 108.336 119.156 107.253V103.795C119.156 102.712 118.278 101.834 117.195 101.834H104.396V89.036C104.396 87.9531 103.519 87.0752 102.436 87.0752H98.9776Z" fill="white"/>
</g>
<defs>
<clipPath id="clip0">
<rect width="200" height="200" fill="white"/>
</clipPath>
</defs>
</svg>
