<svg width="95" height="101" viewBox="0 0 95 101" fill="none" xmlns="http://www.w3.org/2000/svg">
<g clip-path="url(#clip0)">
<path d="M0.0405273 20.2938L46.7489 0.0454102L94.1989 20.2938C93.0644 28.592 91.6109 38.2407 89.8384 49.2398C88.0659 60.2388 86.1256 69.6514 84.0176 77.4775C72.4078 86.3126 60.1085 93.8352 47.1197 100.045C34.6943 94.6041 22.3472 87.0815 10.0783 77.4775C7.66154 68.6645 5.67171 59.2519 4.10882 49.2398C2.54593 39.2276 1.18983 29.5789 0.0405273 20.2938Z" fill="#5AF7DC"/>
<path fill-rule="evenodd" clip-rule="evenodd" d="M5.47044 23.3895C6.50816 31.4729 7.70091 39.8325 9.04899 48.4686C10.4912 57.708 12.2992 66.4023 14.4683 74.556C25.3224 82.9145 36.1789 89.5601 47.0353 94.5293C58.446 88.9151 69.3084 82.2494 79.6249 74.5286C81.5104 67.2439 83.2724 58.557 84.9021 48.4443C86.4068 39.1065 87.6792 30.7567 88.7199 23.3919L46.7644 5.48827L5.47044 23.3895ZM46.7489 0.0454102L0.0405273 20.2938C1.18983 29.5789 2.54593 39.2276 4.10882 49.2398C5.67171 59.2519 7.66154 68.6645 10.0783 77.4775C22.3472 87.0815 34.6943 94.6041 47.1197 100.045C60.1085 93.8352 72.4078 86.3126 84.0176 77.4775C86.1256 69.6514 88.0659 60.2388 89.8384 49.2398C91.6109 38.2407 93.0644 28.592 94.1989 20.2938L46.7489 0.0454102Z" fill="#00004B"/>
</g>
<defs>
<clipPath id="clip0">
<rect width="94.1584" height="100" fill="white" transform="translate(0.0405273 0.0454102)"/>
</clipPath>
</defs>
</svg>
