<svg width="25" height="25" viewBox="0 0 25 25" fill="none" xmlns="http://www.w3.org/2000/svg">
<path d="M0.895944 1.95744L1.99539 0.858215C2.14134 0.712301 2.38458 0.712301 2.53052 0.858215L7.29803 5.62475V3.25121C7.29803 3.02748 7.4829 2.85238 7.69695 2.85238H9.19531C9.36071 2.85238 9.49693 2.98857 9.49693 3.15394V7.17145V9.25316C9.49693 9.41853 9.36071 9.55471 9.19531 9.55471H7.11317H3.20186C2.97808 9.55471 2.80295 9.36989 2.80295 9.15588V7.65783C2.80295 7.49246 2.93916 7.35627 3.10457 7.35627H5.58562L0.895944 2.66755C0.701352 2.473 0.701352 2.15199 0.895944 1.95744ZM24.3541 1.95744L23.2546 0.858215C23.1087 0.712301 22.8654 0.712301 22.7195 0.858215L17.952 5.62475V3.25121C17.952 3.02748 17.7671 2.85238 17.5531 2.85238H16.0547C15.8893 2.85238 15.7531 2.98857 15.7531 3.15394V7.17145V9.25316C15.7531 9.41853 15.8893 9.55471 16.0547 9.55471H18.1368H22.0481C22.2719 9.55471 22.447 9.36989 22.447 9.15588V7.65783C22.447 7.49246 22.3108 7.35627 22.1454 7.35627H19.6644L24.3443 2.67728C24.5486 2.473 24.5486 2.15199 24.3541 1.95744ZM0.895944 23.2901L1.98566 24.3796C2.13161 24.5255 2.37485 24.5255 2.52079 24.3796L7.2883 19.6131V21.9866C7.2883 22.2104 7.47317 22.3855 7.68722 22.3855H9.18558C9.35098 22.3855 9.4872 22.2493 9.4872 22.0839V18.0761V15.9944C9.4872 15.829 9.35098 15.6928 9.18558 15.6928H7.11317H3.20186C2.97808 15.6928 2.80295 15.8777 2.80295 16.0917V17.5897C2.80295 17.7551 2.93916 17.8913 3.10457 17.8913H5.58562L0.895944 22.58C0.701352 22.7746 0.701352 23.0956 0.895944 23.2901ZM24.3541 22.58L19.6741 17.901H22.1552C22.3206 17.901 22.4568 17.7648 22.4568 17.5995V16.1014C22.4568 15.8777 22.2719 15.7026 22.0579 15.7026H18.1466H16.0644C15.899 15.7026 15.7628 15.8388 15.7628 16.0041V18.0858V22.0936C15.7628 22.259 15.899 22.3952 16.0644 22.3952H17.5628C17.7866 22.3952 17.9617 22.2104 17.9617 21.9963V19.6228L22.7292 24.3893C22.8752 24.5353 23.1184 24.5353 23.2643 24.3893L24.3541 23.2999C24.5486 23.0956 24.5486 22.7746 24.3541 22.58Z" fill="white"/>
</svg>
