<svg width="25" height="25" viewBox="0 0 25 25" fill="none" xmlns="http://www.w3.org/2000/svg">
<path d="M9.35182 8.35856L8.26076 9.44828C8.11464 9.59422 7.8711 9.59422 7.72498 9.44828L2.9516 4.68077V7.05479C2.9516 7.27857 2.76651 7.45371 2.55219 7.45371H1.05199C0.88638 7.45371 0.75 7.31749 0.75 7.15209V3.14349V1.05162C0.75 0.886215 0.88638 0.75 1.05199 0.75H3.13669H7.05281C7.27686 0.75 7.45221 0.934863 7.45221 1.14891V2.64728C7.45221 2.81268 7.31583 2.94889 7.15022 2.94889H4.66612L9.35182 7.63857C9.54666 7.84289 9.54666 8.15424 9.35182 8.35856ZM15.8884 8.35856L16.9795 9.44828C17.1256 9.59422 17.3692 9.59422 17.5153 9.44828L22.2887 4.68077V7.05479C22.2887 7.27857 22.4738 7.45371 22.6881 7.45371H24.1883C24.3539 7.45371 24.4903 7.31749 24.4903 7.15209V3.14349V1.05162C24.4903 0.886215 24.3539 0.75 24.1883 0.75H22.1133H18.1972C17.9731 0.75 17.7978 0.934863 17.7978 1.14891V2.64728C17.7978 2.81268 17.9342 2.94889 18.0998 2.94889H20.5839L15.8982 7.62884C15.6936 7.84289 15.6936 8.15424 15.8884 8.35856ZM9.35182 16.8914L8.26076 15.8017C8.11464 15.6558 7.8711 15.6558 7.72498 15.8017L2.9516 20.5692V18.1952C2.9516 17.9714 2.76651 17.7963 2.55219 17.7963H1.05199C0.88638 17.7963 0.75 17.9325 0.75 18.0979V22.1065V24.1984C0.75 24.3638 0.88638 24.5 1.05199 24.5H3.13669H7.05281C7.27686 24.5 7.45221 24.3151 7.45221 24.1011V22.6027C7.45221 22.4373 7.31583 22.3011 7.15022 22.3011H4.66612L9.35182 17.6212C9.54666 17.4071 9.54666 17.0958 9.35182 16.8914ZM15.8884 17.6114L20.5741 22.2914H18.09C17.9244 22.2914 17.788 22.4276 17.788 22.593V24.0914C17.788 24.3151 17.9731 24.4903 18.1874 24.4903H22.1133H24.198C24.3636 24.4903 24.5 24.3541 24.5 24.1887V22.1065V18.0979C24.5 17.9325 24.3636 17.7963 24.198 17.7963H22.6978C22.4737 17.7963 22.2984 17.9812 22.2984 18.1952V20.5692L17.525 15.8017C17.3789 15.6558 17.1354 15.6558 16.9892 15.8017L15.8982 16.8914C15.6936 17.0958 15.6936 17.4071 15.8884 17.6114Z" fill="white"/>
</svg>
