<svg width="18" height="24" viewBox="0 0 18 24" fill="none" xmlns="http://www.w3.org/2000/svg">
<path d="M15.6661 22.6808L15.1548 22.3844L14.8991 22.2391L12.47 20.8444L10.9126 23.1689L10.7499 23.413L10.4187 23.9011C10.2967 24.0812 10.0235 24.0289 9.97123 23.8197L9.35525 21.1989L9.24484 20.7224L8.62305 18.0725L8.53588 17.689L7.68164 14.0512L8.4429 13.8711L9.29133 14.0628L10.0933 13.8827L13.8356 13.0459L14.5097 15.934L14.6259 16.428L16.0264 22.4135C16.0787 22.6227 15.8521 22.7912 15.6661 22.6808Z" fill="#12EBFE"/>
<path d="M12.7031 12.8775L14.8997 22.245L15.1554 22.3903L12.9123 12.8252L12.7031 12.8775Z" fill="#181818"/>
<path d="M8.50781 13.8597L10.7451 23.419L10.9136 23.1749L8.71702 13.8074L8.50781 13.8597Z" fill="#181818"/>
<path opacity="0.78" d="M11.0289 14.0515L10.1804 17.6892L9.46566 20.7343L9.35525 21.205L9.24484 20.7343L8.53588 17.6892L7.68164 14.0515L9.24484 13.6854L9.35525 13.6621L9.46566 13.6854L11.0289 14.0515Z" fill="#00A8B5"/>
<path d="M10.8079 14.0513L9.95949 17.6891L9.86651 18.0784L9.24472 20.7341L8.51833 23.8315C8.47184 24.0407 8.19291 24.093 8.07087 23.9128L7.73964 23.4247L7.57693 23.1806L6.01954 20.8562L3.59049 22.2508L3.3348 22.3961L2.82342 22.6925C2.63746 22.8029 2.41083 22.6344 2.45732 22.4194L3.86361 16.4048L3.9624 15.969L4.64811 13.0286L8.43116 13.877L9.27959 14.0688L10.0815 13.8886L10.8079 14.0513Z" fill="#12EBFE"/>
<path d="M5.78633 12.8775L3.59553 22.245L3.33984 22.3903L5.57713 12.8252L5.78633 12.8775Z" fill="#181818"/>
<path d="M9.98203 13.8597L7.74474 23.419L7.58203 23.1749L9.77283 13.8074L9.98203 13.8597Z" fill="#181818"/>
<path opacity="0.67" d="M14.6276 16.428C13.3201 17.3403 11.7452 17.9273 10.0368 18.0667C9.97865 18.0725 9.92054 18.0725 9.86824 18.0783C9.67066 18.09 9.47308 18.0958 9.26969 18.0958C9.05468 18.0958 8.83966 18.09 8.62465 18.0725C8.60141 18.0725 8.57816 18.0667 8.55492 18.0667C6.81158 17.9389 5.2077 17.3345 3.87695 16.3931L3.97574 15.9573L4.66146 13.0168L8.44451 13.8653L9.29293 14.057L10.0949 13.8769L13.8372 13.0401L14.5113 15.9282L14.6276 16.428Z" fill="#00A8B5"/>
<path d="M17.9623 8.73995C17.9623 13.5632 14.0514 17.4799 9.22237 17.4799C7.13617 17.4799 5.2185 16.7477 3.71341 15.5274C3.14973 15.0683 2.64416 14.5453 2.21414 13.9642C1.95845 13.6155 1.726 13.2552 1.5168 12.8717C1.2553 12.3777 1.03448 11.8605 0.865955 11.3143C0.616077 10.5007 0.482422 9.64068 0.482422 8.74576C0.488233 4.50944 3.49259 0.982082 7.48484 0.174334C8.02528 0.0639225 8.58896 0.00581114 9.15845 0C9.18169 0 9.19912 0 9.22237 0C9.64077 0 10.0534 0.0290557 10.4543 0.087167C11.1865 0.191767 11.8839 0.383535 12.5463 0.656658C15.725 1.96416 17.9623 5.09056 17.9623 8.73995Z" fill="#4EAAFF"/>
<path d="M9.22276 1.4585C5.20145 1.4585 1.94141 4.71854 1.94141 8.73985C1.94141 12.7612 5.20145 16.0212 9.22276 16.0212C13.2441 16.0212 16.5041 12.7612 16.5041 8.73985C16.5041 4.71854 13.2441 1.4585 9.22276 1.4585Z" fill="#1575CD"/>
<path d="M9.35553 15.6783C5.58991 15.6783 2.53906 12.6275 2.53906 8.86187C2.53906 5.09626 5.58991 2.04541 9.35553 2.04541C13.1211 2.04541 16.172 5.09626 16.172 8.86187C16.172 12.6275 13.1211 15.6783 9.35553 15.6783Z" fill="#003E76"/>
<path d="M9.22167 15.446C5.51998 15.446 2.51562 12.4417 2.51562 8.73999C2.51562 5.03248 5.51998 2.03394 9.22167 2.03394C12.9234 2.03394 15.9277 5.03248 15.9277 8.73999C15.9277 12.4417 12.9292 15.446 9.22167 15.446Z" fill="#4EAAFF"/>
<g opacity="0.17">
<path opacity="0.17" d="M9.15968 0L1.51804 12.86C1.25653 12.3661 1.03571 11.8489 0.867188 11.3027L7.48607 0.174334C8.02651 0.0639225 8.58438 0.00581114 9.15968 0Z" fill="white"/>
</g>
<g opacity="0.14">
<path opacity="0.14" d="M12.5451 0.65665L3.71216 15.5215C3.14848 15.0625 2.64291 14.5395 2.21289 13.9583L10.4531 0.0871582C11.1853 0.191759 11.8826 0.383526 12.5451 0.65665Z" fill="white"/>
</g>
<path d="M9.16713 7.25986C10.3108 7.25986 11.1549 7.49325 11.6995 7.96004C12.2518 8.42683 12.528 9.04921 12.528 9.8272C12.528 10.3329 12.3957 10.7997 12.1312 11.2276C11.8745 11.6477 11.4777 11.9861 10.9409 12.2428C10.4119 12.4918 9.7545 12.6163 8.96874 12.6163C8.39303 12.6163 7.82122 12.5462 7.25329 12.4062C6.69315 12.2662 6.2108 12.0678 5.80625 11.811L6.6348 10.0723C6.96155 10.2901 7.31942 10.4574 7.70841 10.5741C8.10518 10.6908 8.50195 10.7491 8.89872 10.7491C9.29549 10.7491 9.61057 10.6752 9.84397 10.5274C10.0851 10.3718 10.2057 10.1578 10.2057 9.88554C10.2057 9.61325 10.089 9.40709 9.85564 9.26705C9.62224 9.12701 9.20991 9.05699 8.61865 9.05699H6.4014L6.80984 4.28408H12.0145V6.06955H8.72368L8.61865 7.25986H9.16713Z" fill="#003E76"/>
</svg>
