<svg width="18" height="24" viewBox="0 0 18 24" fill="none" xmlns="http://www.w3.org/2000/svg">
<path d="M15.6661 22.6808L15.1548 22.3844L14.8991 22.2391L12.47 20.8444L10.9126 23.1689L10.7499 23.413L10.4187 23.9011C10.2967 24.0812 10.0235 24.0289 9.97123 23.8197L9.35525 21.1989L9.24484 20.7224L8.62305 18.0725L8.53588 17.689L7.68164 14.0512L8.4429 13.8711L9.29133 14.0628L10.0933 13.8827L13.8356 13.0459L14.5097 15.934L14.6259 16.428L16.0264 22.4135C16.0787 22.6227 15.8521 22.7912 15.6661 22.6808Z" fill="#12EBFE"/>
<path d="M12.7031 12.8775L14.8997 22.245L15.1554 22.3903L12.9123 12.8252L12.7031 12.8775Z" fill="#181818"/>
<path d="M8.50781 13.8597L10.7451 23.419L10.9136 23.1749L8.71702 13.8074L8.50781 13.8597Z" fill="#181818"/>
<path opacity="0.78" d="M11.0289 14.0515L10.1804 17.6892L9.46566 20.7343L9.35525 21.205L9.24484 20.7343L8.53588 17.6892L7.68164 14.0515L9.24484 13.6854L9.35525 13.6621L9.46566 13.6854L11.0289 14.0515Z" fill="#00A8B5"/>
<path d="M10.8079 14.0513L9.95949 17.6891L9.86651 18.0784L9.24472 20.7341L8.51833 23.8315C8.47184 24.0407 8.19291 24.093 8.07087 23.9128L7.73964 23.4247L7.57693 23.1806L6.01954 20.8562L3.59049 22.2508L3.3348 22.3961L2.82342 22.6925C2.63746 22.8029 2.41083 22.6344 2.45732 22.4194L3.86361 16.4048L3.9624 15.969L4.64811 13.0286L8.43116 13.877L9.27959 14.0688L10.0815 13.8886L10.8079 14.0513Z" fill="#12EBFE"/>
<path d="M5.78633 12.8775L3.59553 22.245L3.33984 22.3903L5.57713 12.8252L5.78633 12.8775Z" fill="#181818"/>
<path d="M9.98203 13.8597L7.74474 23.419L7.58203 23.1749L9.77283 13.8074L9.98203 13.8597Z" fill="#181818"/>
<path opacity="0.67" d="M14.6276 16.428C13.3201 17.3403 11.7452 17.9273 10.0368 18.0667C9.97865 18.0725 9.92054 18.0725 9.86824 18.0783C9.67066 18.09 9.47308 18.0958 9.26969 18.0958C9.05468 18.0958 8.83966 18.09 8.62465 18.0725C8.60141 18.0725 8.57816 18.0667 8.55492 18.0667C6.81158 17.9389 5.2077 17.3345 3.87695 16.3931L3.97574 15.9573L4.66146 13.0168L8.44451 13.8653L9.29293 14.057L10.0949 13.8769L13.8372 13.0401L14.5113 15.9282L14.6276 16.428Z" fill="#00A8B5"/>
<path d="M17.9623 8.73995C17.9623 13.5632 14.0514 17.4799 9.22237 17.4799C7.13617 17.4799 5.2185 16.7477 3.71341 15.5274C3.14973 15.0683 2.64416 14.5453 2.21414 13.9642C1.95845 13.6155 1.726 13.2552 1.5168 12.8717C1.2553 12.3777 1.03448 11.8605 0.865955 11.3143C0.616077 10.5007 0.482422 9.64068 0.482422 8.74576C0.488233 4.50944 3.49259 0.982082 7.48484 0.174334C8.02528 0.0639225 8.58896 0.00581114 9.15845 0C9.18169 0 9.19912 0 9.22237 0C9.64077 0 10.0534 0.0290557 10.4543 0.087167C11.1865 0.191767 11.8839 0.383535 12.5463 0.656658C15.725 1.96416 17.9623 5.09056 17.9623 8.73995Z" fill="#E07A41"/>
<path d="M9.22276 1.4585C5.20145 1.4585 1.94141 4.71854 1.94141 8.73985C1.94141 12.7612 5.20145 16.0212 9.22276 16.0212C13.2441 16.0212 16.5041 12.7612 16.5041 8.73985C16.5041 4.71854 13.2441 1.4585 9.22276 1.4585Z" fill="#A0491D"/>
<path d="M9.35553 15.6783C5.58991 15.6783 2.53906 12.6275 2.53906 8.86187C2.53906 5.09626 5.58991 2.04541 9.35553 2.04541C13.1211 2.04541 16.172 5.09626 16.172 8.86187C16.172 12.6275 13.1211 15.6783 9.35553 15.6783Z" fill="#662001"/>
<path d="M9.22167 15.446C5.51998 15.446 2.51562 12.4417 2.51562 8.73999C2.51562 5.03248 5.51998 2.03394 9.22167 2.03394C12.9234 2.03394 15.9277 5.03248 15.9277 8.73999C15.9277 12.4417 12.9292 15.446 9.22167 15.446Z" fill="#E07A41"/>
<g opacity="0.17">
<path opacity="0.17" d="M9.15968 0L1.51804 12.86C1.25653 12.3661 1.03571 11.8489 0.867188 11.3027L7.48607 0.174334C8.02651 0.0639225 8.58438 0.00581114 9.15968 0Z" fill="white"/>
</g>
<g opacity="0.14">
<path opacity="0.14" d="M12.5451 0.65665L3.71216 15.5215C3.14848 15.0625 2.64291 14.5395 2.21289 13.9583L10.4531 0.0871582C11.1853 0.191759 11.8826 0.383526 12.5451 0.65665Z" fill="white"/>
</g>
<path d="M10.5198 7.78402C11.1966 7.92406 11.714 8.20413 12.0719 8.62424C12.4375 9.03657 12.6203 9.53837 12.6203 10.1296C12.6203 10.612 12.4881 11.0593 12.2236 11.4717C11.9668 11.884 11.5701 12.2185 11.0333 12.4752C10.5042 12.7242 9.84684 12.8487 9.06108 12.8487C8.48537 12.8487 7.91355 12.7787 7.34563 12.6386C6.78548 12.4986 6.29924 12.3002 5.88691 12.0435L6.72713 10.3047C7.04611 10.5225 7.40398 10.6898 7.80075 10.8065C8.2053 10.9232 8.60207 10.9815 8.99106 10.9815C9.38783 10.9815 9.70291 10.9076 9.93631 10.7598C10.1697 10.612 10.2864 10.4019 10.2864 10.1296C10.2864 9.60061 9.87018 9.3361 9.03774 9.3361H8.06915V7.87738L9.52787 6.30197H6.30702V4.5165H12.2119V5.96355L10.5198 7.78402Z" fill="#662001"/>
</svg>
