<svg width="18" height="24" viewBox="0 0 18 24" fill="none" xmlns="http://www.w3.org/2000/svg">
<path d="M15.6662 22.6808L15.1548 22.3844L14.8991 22.2391L12.4701 20.8444L10.9127 23.1689L10.75 23.413L10.4187 23.9011C10.2967 24.0812 10.0236 24.0289 9.97128 23.8197L9.3553 21.1989L9.24488 20.7224L8.6289 18.0725L8.54174 17.689L7.6875 14.0512L8.44876 13.8711L9.29719 14.0628L10.0991 13.8827L13.8415 13.0459L14.5156 15.934L14.6318 16.428L16.0323 22.4135C16.0788 22.6227 15.8521 22.7912 15.6662 22.6808Z" fill="#12EBFE"/>
<path d="M12.707 12.8775L14.8978 22.245L15.1535 22.3903L12.9162 12.8252L12.707 12.8775Z" fill="#181818"/>
<path d="M8.51172 13.8597L10.749 23.419L10.9117 23.1749L8.72092 13.8074L8.51172 13.8597Z" fill="#181818"/>
<path opacity="0.78" d="M11.0347 14.0515L10.1804 17.6892L9.47147 20.7343L9.36106 21.205L9.25065 20.7343L8.53588 17.6892L7.68164 14.0515L9.25065 13.6854L9.36106 13.6621L9.47147 13.6854L11.0347 14.0515Z" fill="#00A8B5"/>
<path d="M10.8138 14.0513L9.96535 17.6891L9.87237 18.0784L9.25058 20.7341L8.52419 23.8315C8.4777 24.0407 8.19877 24.093 8.07673 23.9128L7.7455 23.4247L7.58279 23.1806L6.0254 20.8562L3.59635 22.2508L3.34066 22.3961L2.82928 22.6925C2.64332 22.8029 2.41669 22.6344 2.46318 22.4194L3.86947 16.4048L3.96826 15.969L4.65397 13.0286L8.43702 13.877L9.28545 14.0688L10.0874 13.8886L10.8138 14.0513Z" fill="#12EBFE"/>
<path d="M5.78633 12.8775L3.59553 22.245L3.33984 22.3903L5.57713 12.8252L5.78633 12.8775Z" fill="#181818"/>
<path d="M9.98203 13.8597L7.74474 23.419L7.58203 23.1749L9.77283 13.8074L9.98203 13.8597Z" fill="#181818"/>
<path opacity="0.67" d="M14.6334 16.428C13.3259 17.3403 11.7511 17.9273 10.0426 18.0667C9.98451 18.0725 9.92639 18.0725 9.87409 18.0783C9.67651 18.09 9.47894 18.0958 9.27555 18.0958C9.06053 18.0958 8.84552 18.09 8.63051 18.0725C8.60727 18.0725 8.58402 18.0667 8.56078 18.0667C6.81744 17.9389 5.21356 17.3345 3.88281 16.3931L3.9816 15.9573L4.66732 13.0168L8.45037 13.8653L9.29879 14.057L10.1007 13.8769L13.8431 13.0401L14.5172 15.9282L14.6334 16.428Z" fill="#00A8B5"/>
<path d="M17.9623 8.73995C17.9623 13.5632 14.0514 17.4799 9.22237 17.4799C7.13617 17.4799 5.2185 16.7477 3.71341 15.5274C3.14973 15.0683 2.64416 14.5453 2.21414 13.9642C1.95845 13.6155 1.726 13.2552 1.5168 12.8717C1.2553 12.3777 1.03448 11.8605 0.865957 11.3143C0.616078 10.5007 0.482422 9.64068 0.482422 8.74576C0.488233 4.50944 3.49259 0.982082 7.48484 0.174334C8.02528 0.0639225 8.58896 0.00581114 9.15845 0C9.18169 0 9.19913 0 9.22237 0C9.64077 0 10.0534 0.0290557 10.4543 0.087167C11.1865 0.191767 11.8839 0.383535 12.5463 0.656658C15.725 1.96416 17.9623 5.09056 17.9623 8.73995Z" fill="#CCCCCC"/>
<path d="M9.22276 1.4585C5.20146 1.4585 1.94141 4.71854 1.94141 8.73985C1.94141 12.7612 5.20146 16.0212 9.22276 16.0212C13.2441 16.0212 16.5041 12.7612 16.5041 8.73985C16.5041 4.71854 13.2441 1.4585 9.22276 1.4585Z" fill="#999999"/>
<path d="M9.36138 15.6783C5.59577 15.6783 2.54492 12.6275 2.54492 8.86187C2.54492 5.09626 5.59577 2.04541 9.36138 2.04541C13.127 2.04541 16.1778 5.09626 16.1778 8.86187C16.1778 12.6275 13.127 15.6783 9.36138 15.6783Z" fill="#4D4D4D"/>
<path d="M9.22168 15.446C5.51998 15.446 2.51562 12.4417 2.51562 8.73999C2.51562 5.03248 5.51998 2.03394 9.22168 2.03394C12.9234 2.03394 15.9277 5.03829 15.9277 8.73999C15.9335 12.4417 12.9292 15.446 9.22168 15.446Z" fill="#CCCCCC"/>
<g opacity="0.17">
<path opacity="0.17" d="M9.15973 0L1.52389 12.86C1.26239 12.3661 1.04157 11.8489 0.873047 11.3027L7.48612 0.174334C8.02656 0.0639225 8.59023 0.00581114 9.15973 0Z" fill="white"/>
</g>
<g opacity="0.14">
<path opacity="0.14" d="M12.551 0.65665L3.71802 15.5215C3.15434 15.0625 2.64877 14.5395 2.21875 13.9583L10.4531 0.0871582C11.1853 0.191759 11.8885 0.383526 12.551 0.65665Z" fill="white"/>
</g>
<path d="M12.6261 10.8532V12.6853H6.26611V11.2383L9.32357 8.37918C9.6192 8.09911 9.81759 7.86182 9.91873 7.66733C10.0199 7.46505 10.0704 7.26278 10.0704 7.0605C10.0704 6.79599 9.98097 6.58982 9.80203 6.44201C9.62309 6.29419 9.36247 6.22028 9.02016 6.22028C8.71675 6.22028 8.43667 6.2903 8.17994 6.43034C7.93099 6.56259 7.72482 6.75709 7.56145 7.01382L5.846 6.05691C6.16497 5.52788 6.61231 5.11166 7.18801 4.80825C7.76372 4.50483 8.44445 4.35313 9.23021 4.35313C9.8526 4.35313 10.4011 4.45427 10.8756 4.65654C11.358 4.85882 11.7314 5.15056 11.9959 5.53177C12.2682 5.9052 12.4044 6.34087 12.4044 6.83878C12.4044 7.28223 12.3071 7.70234 12.1126 8.09911C11.9259 8.4881 11.5603 8.93155 11.0157 9.42945L9.47528 10.8532H12.6261Z" fill="#4D4D4D"/>
</svg>
