<svg width="311" height="95" viewBox="0 0 311 95" fill="none" xmlns="http://www.w3.org/2000/svg">
<g clip-path="url(#clip0_3_3)">
<path d="M18.1508 0.0797658C19.1729 0.180695 19.3557 1.4128 18.4288 1.85522C17.728 2.1896 17.0245 2.49906 16.3141 2.81152C11.8353 4.7816 7.08219 6.87227 1.00285 16.1096C0.690511 16.5842 -0.024901 16.3974 0.000667715 15.8298C0.0537918 14.6515 0.234374 13.4607 0.552221 12.2744C2.67955 4.33513 10.2306 -0.702484 18.1508 0.0797658Z" fill="url(#paint0_radial_3_3)"/>
<path d="M32.5367 20.8437C30.1703 29.6752 21.0925 34.9163 12.2609 32.5497C6.77158 31.0791 2.66937 27.0153 0.918903 22.0295C0.695257 21.3925 0.805604 20.6876 1.20426 20.1427C7.31218 11.7934 19.3726 8.48819 29.8992 10.4788C31.3121 10.7459 32.4663 11.789 32.7598 13.1967C33.2705 15.6504 33.2295 18.2576 32.5367 20.8437Z" fill="url(#paint1_radial_3_3)"/>
<path d="M72.3415 11.2371C72.3415 13.9547 71.611 16.3362 70.1499 18.3817C68.7177 20.398 66.6869 21.9029 64.057 22.8964L69.1855 31.8383L58.4466 31.8383L54.107 24.1237H51.5648L50.0307 31.8383L39.6866 31.8383L45.8231 1.1557L59.586 1.1557C63.6186 1.1557 66.7452 2.04695 68.9663 3.82946C71.2162 5.58275 72.3415 8.05196 72.3415 11.2371ZM61.8654 12.2452C61.8654 10.1705 60.5799 9.13315 58.0083 9.13315H54.5453L53.0989 16.3216L57.3508 16.3216C58.7824 16.3216 59.8929 15.971 60.6818 15.2696C61.4713 14.5391 61.8654 13.531 61.8654 12.2452Z" fill="white"/>
<path d="M94.7049 26.4907H83.0016L79.9334 31.8383L69.0189 31.8383L88.5684 1.1557L98.7376 1.1557L106.014 31.8383L95.713 31.8383L94.7049 26.4907ZM93.2586 19.0392L91.7681 11.1933L87.2535 19.0392H93.2586Z" fill="white"/>
<path d="M140.31 11.2371C140.31 13.9547 139.579 16.3362 138.118 18.3817C136.686 20.398 134.655 21.9029 132.025 22.8964L137.154 31.8383L126.415 31.8383L122.075 24.1237H119.533L117.999 31.8383L107.654 31.8383L113.791 1.1557L127.554 1.1557C131.587 1.1557 134.713 2.04695 136.935 3.82946C139.184 5.58275 140.31 8.05196 140.31 11.2371ZM129.834 12.2452C129.834 10.1705 128.547 9.13315 125.976 9.13315H122.513L121.067 16.3216L125.319 16.3216C126.751 16.3216 127.861 15.971 128.65 15.2696C129.439 14.5391 129.834 13.531 129.834 12.2452Z" fill="white"/>
<path d="M146.452 1.1557L156.796 1.1557L150.659 31.8383L140.315 31.8383L146.452 1.1557Z" fill="white"/>
<path d="M172.913 32.539C169.786 32.539 167.039 31.9693 164.672 30.83C162.335 29.661 160.523 28.0392 159.237 25.9645C157.981 23.8897 157.352 21.5081 157.352 18.8198C157.352 15.2548 158.17 12.0842 159.807 9.30819C161.473 6.50294 163.767 4.32594 166.689 2.77721C169.64 1.22847 172.972 0.454102 176.683 0.454102C179.809 0.454102 182.542 1.03853 184.879 2.20739C187.246 3.34702 189.058 4.9542 190.314 7.02892C191.6 9.10365 192.243 11.4852 192.243 14.1736C192.243 17.7386 191.41 20.9237 189.744 23.729C188.108 26.5051 185.814 28.6675 182.863 30.2162C179.94 31.7649 176.624 32.539 172.913 32.539ZM173.79 24.1673C175.426 24.1673 176.843 23.7436 178.041 22.8962C179.269 22.0487 180.204 20.9091 180.847 19.4773C181.489 18.0454 181.811 16.4821 181.811 14.7872C181.811 12.9755 181.27 11.529 180.189 10.4478C179.137 9.36664 177.676 8.82604 175.806 8.82604C174.169 8.82604 172.738 9.24975 171.51 10.0972C170.312 10.9446 169.392 12.0842 168.749 13.5161C168.106 14.9479 167.785 16.5113 167.785 18.2061C167.785 20.0178 168.311 21.4643 169.362 22.5455C170.444 23.6267 171.919 24.1673 173.79 24.1673Z" fill="white"/>
<path d="M14.3088 84.7199C11.699 84.7199 9.14921 84.435 6.65943 83.865C4.19964 83.2651 2.17481 82.4701 0.58495 81.4802L4.00466 73.7409C5.50453 74.6108 7.18438 75.3157 9.04422 75.8557C10.9041 76.3657 12.6889 76.6206 14.3988 76.6206C15.8686 76.6206 16.9185 76.4856 17.5485 76.2157C18.1784 75.9157 18.4934 75.4807 18.4934 74.9108C18.4934 74.2508 18.0734 73.7559 17.2335 73.4259C16.4236 73.0959 15.0737 72.736 13.1839 72.346C10.7541 71.836 8.72925 71.2961 7.10939 70.7261C5.48953 70.1262 4.07965 69.1663 2.87975 67.8464C1.67986 66.4965 1.07991 64.6817 1.07991 62.4019C1.07991 60.422 1.63486 58.6222 2.74476 57.0023C3.85467 55.3825 5.50453 54.1076 7.69434 53.1777C9.91415 52.2477 12.5989 51.7828 15.7486 51.7828C17.9085 51.7828 20.0233 52.0228 22.0931 52.5027C24.1929 52.9527 26.0378 53.6276 27.6276 54.5275L24.4329 62.2219C21.3432 60.662 18.4184 59.8821 15.6587 59.8821C12.9289 59.8821 11.564 60.542 11.564 61.8619C11.564 62.4919 11.969 62.9718 12.7789 63.3018C13.5888 63.6018 14.9237 63.9317 16.7836 64.2917C19.1833 64.7417 21.2082 65.2666 22.858 65.8666C24.5079 66.4365 25.9328 67.3814 27.1327 68.7013C28.3626 70.0212 28.9775 71.821 28.9775 74.1009C28.9775 76.0807 28.4226 77.8805 27.3126 79.5004C26.2027 81.0903 24.5379 82.3651 22.3181 83.3251C20.1283 84.255 17.4585 84.7199 14.3088 84.7199ZM47.2111 84.7199C42.3815 84.7199 38.6169 83.4151 35.9171 80.8053C33.2173 78.1955 31.8675 74.5358 31.8675 69.8262V52.5027H42.4865V69.5112C42.4865 71.821 42.8915 73.5009 43.7014 74.5508C44.5414 75.6007 45.7413 76.1257 47.3011 76.1257C48.861 76.1257 50.0459 75.6007 50.8558 74.5508C51.6957 73.5009 52.1157 71.821 52.1157 69.5112V52.5027H62.5548V69.8262C62.5548 74.5358 61.2049 78.1955 58.5052 80.8053C55.8054 83.4151 52.0407 84.7199 47.2111 84.7199ZM82.5862 52.5027C85.4959 52.5027 88.0307 52.9827 90.1905 53.9426C92.3503 54.9025 94.0152 56.2824 95.1851 58.0822C96.355 59.8821 96.9399 61.9819 96.9399 64.3817C96.9399 66.7815 96.355 68.8813 95.1851 70.6811C94.0152 72.481 92.3503 73.8609 90.1905 74.8208C88.0307 75.7807 85.4959 76.2607 82.5862 76.2607H78.0416V84H67.4225V52.5027H82.5862ZM81.9112 68.0714C83.3511 68.0714 84.431 67.7564 85.151 67.1265C85.8709 66.4665 86.2309 65.5516 86.2309 64.3817C86.2309 63.2118 85.8709 62.3119 85.151 61.6819C84.431 61.022 83.3511 60.692 81.9112 60.692H78.0416V68.0714H81.9112ZM126.61 75.9907V84H100.423V52.5027H126.025V60.512H110.862V64.2017H124.181V71.851H110.862V75.9907H126.61ZM144.197 76.0807H141.317V84H130.698V52.5027H145.862C148.772 52.5027 151.307 52.9827 153.466 53.9426C155.626 54.9025 157.291 56.2824 158.461 58.0822C159.631 59.8821 160.216 61.9819 160.216 64.3817C160.216 66.6315 159.706 68.5963 158.686 70.2762C157.666 71.956 156.196 73.2909 154.276 74.2808L160.891 84H149.552L144.197 76.0807ZM149.507 64.3817C149.507 63.2118 149.147 62.3119 148.427 61.6819C147.707 61.022 146.627 60.692 145.187 60.692H141.317V68.0714H145.187C146.627 68.0714 147.707 67.7564 148.427 67.1265C149.147 66.4665 149.507 65.5516 149.507 64.3817ZM194.229 84.7199C190.84 84.7199 187.795 84.015 185.095 82.6051C182.395 81.1952 180.28 79.2454 178.751 76.7556C177.221 74.2358 176.456 71.4011 176.456 68.2514C176.456 65.1016 177.221 62.2819 178.751 59.7921C180.28 57.2723 182.395 55.3075 185.095 53.8976C187.795 52.4877 190.84 51.7828 194.229 51.7828C197.619 51.7828 200.664 52.4877 203.363 53.8976C206.063 55.3075 208.178 57.2723 209.708 59.7921C211.238 62.2819 212.003 65.1016 212.003 68.2514C212.003 71.4011 211.238 74.2358 209.708 76.7556C208.178 79.2454 206.063 81.1952 203.363 82.6051C200.664 84.015 197.619 84.7199 194.229 84.7199ZM194.229 76.1257C195.549 76.1257 196.734 75.8107 197.784 75.1808C198.864 74.5208 199.719 73.6059 200.349 72.436C200.979 71.2361 201.294 69.8412 201.294 68.2514C201.294 66.6615 200.979 65.2816 200.349 64.1117C199.719 62.9118 198.864 61.9969 197.784 61.3669C196.734 60.707 195.549 60.377 194.229 60.377C192.909 60.377 191.709 60.707 190.63 61.3669C189.58 61.9969 188.74 62.9118 188.11 64.1117C187.48 65.2816 187.165 66.6615 187.165 68.2514C187.165 69.8412 187.48 71.2361 188.11 72.436C188.74 73.6059 189.58 74.5208 190.63 75.1808C191.709 75.8107 192.909 76.1257 194.229 76.1257ZM248.372 52.5027L235.053 84H224.614L211.295 52.5027H222.724L230.238 70.9061L237.932 52.5027H248.372ZM275.616 75.9907V84H249.428V52.5027H275.031V60.512H259.867V64.2017H273.186V71.851H259.867V75.9907H275.616ZM293.203 76.0807H290.323V84H279.704V52.5027H294.868C297.777 52.5027 300.312 52.9827 302.472 53.9426C304.632 54.9025 306.297 56.2824 307.467 58.0822C308.637 59.8821 309.221 61.9819 309.221 64.3817C309.221 66.6315 308.712 68.5963 307.692 70.2762C306.672 71.956 305.202 73.2909 303.282 74.2808L309.896 84H298.557L293.203 76.0807ZM298.512 64.3817C298.512 63.2118 298.152 62.3119 297.432 61.6819C296.713 61.022 295.633 60.692 294.193 60.692H290.323V68.0714H294.193C295.633 68.0714 296.713 67.7564 297.432 67.1265C298.152 66.4665 298.512 65.5516 298.512 64.3817Z" fill="url(#paint2_radial_3_3)"/>
<path d="M6.65943 83.865L6.42247 84.8365L6.42936 84.8382L6.43628 84.8398L6.65943 83.865ZM0.58495 81.4802L-0.329737 81.0761L-0.680642 81.8702L0.0563912 82.3291L0.58495 81.4802ZM4.00466 73.7409L4.50637 72.8759L3.54101 72.3159L3.08997 73.3367L4.00466 73.7409ZM9.04422 75.8557L8.76541 76.816L8.77258 76.8181L8.77979 76.8201L9.04422 75.8557ZM17.5485 76.2157L17.9424 77.1348L17.9606 77.127L17.9784 77.1185L17.5485 76.2157ZM17.2335 73.4259L16.8562 74.3521L16.8679 74.3567L17.2335 73.4259ZM13.1839 72.346L12.9785 73.3247L12.9818 73.3254L13.1839 72.346ZM7.10939 70.7261L6.76207 71.6639L6.76975 71.6667L6.77748 71.6695L7.10939 70.7261ZM2.87975 67.8464L2.1323 68.5108L2.13981 68.5191L2.87975 67.8464ZM2.74476 57.0023L3.5697 57.5676L3.5697 57.5676L2.74476 57.0023ZM7.69434 53.1777L7.30795 52.2553L7.30346 52.2572L7.69434 53.1777ZM22.0931 52.5027L21.8672 53.4769L21.8754 53.4788L21.8836 53.4805L22.0931 52.5027ZM27.6276 54.5275L28.5512 54.911L28.8907 54.0934L28.1202 53.6573L27.6276 54.5275ZM24.4329 62.2219L23.9822 63.1146L24.9435 63.5999L25.3565 62.6053L24.4329 62.2219ZM12.7789 63.3018L12.4016 64.2279L12.4165 64.2339L12.4316 64.2395L12.7789 63.3018ZM16.7836 64.2917L16.5935 65.2735L16.5993 65.2746L16.7836 64.2917ZM22.858 65.8666L22.5163 66.8064L22.5239 66.8091L22.5315 66.8118L22.858 65.8666ZM27.1327 68.7013L26.3927 69.374L26.4011 69.383L27.1327 68.7013ZM27.3126 79.5004L28.1326 80.0728L28.1376 80.0656L27.3126 79.5004ZM22.3181 83.3251L22.709 84.2455L22.715 84.2429L22.3181 83.3251ZM14.3088 83.7199C11.7724 83.7199 9.29757 83.4431 6.88257 82.8902L6.43628 84.8398C9.00085 85.4269 11.6255 85.7199 14.3088 85.7199V83.7199ZM6.89638 82.8935C4.5059 82.3104 2.58788 81.5493 1.11351 80.6313L0.0563912 82.3291C1.76174 83.3909 3.89337 84.2197 6.42247 84.8365L6.89638 82.8935ZM1.49964 81.8844L4.91934 74.145L3.08997 73.3367L-0.329737 81.0761L1.49964 81.8844ZM3.50294 74.6059C5.08059 75.521 6.83662 76.2561 8.76541 76.816L9.32303 74.8954C7.53214 74.3754 5.92846 73.7007 4.50637 72.8759L3.50294 74.6059ZM8.77979 76.8201C10.715 77.3507 12.589 77.6206 14.3988 77.6206V75.6206C12.7888 75.6206 11.0931 75.3806 9.30865 74.8913L8.77979 76.8201ZM14.3988 77.6206C15.8842 77.6206 17.1117 77.4908 17.9424 77.1348L17.1546 75.2965C16.7254 75.4805 15.8531 75.6206 14.3988 75.6206V77.6206ZM17.9784 77.1185C18.4006 76.9175 18.7864 76.6386 19.0671 76.251C19.356 75.8521 19.4934 75.3927 19.4934 74.9108H17.4934C17.4934 74.9988 17.4734 75.0419 17.4472 75.078C17.413 75.1253 17.3263 75.2139 17.1186 75.3128L17.9784 77.1185ZM19.4934 74.9108C19.4934 74.3482 19.307 73.8291 18.9409 73.3976C18.5906 72.9847 18.116 72.6982 17.5992 72.4952L16.8679 74.3567C17.1909 74.4836 17.3463 74.6095 17.4159 74.6916C17.4698 74.7551 17.4934 74.8135 17.4934 74.9108H19.4934ZM17.6108 72.4998C16.7094 72.1326 15.2818 71.7579 13.386 71.3666L12.9818 73.3254C14.8656 73.7141 16.1377 74.0593 16.8562 74.352L17.6108 72.4998ZM13.3893 71.3673C10.9853 70.8628 9.00606 70.3334 7.44129 69.7828L6.77748 71.6695C8.45243 72.2588 10.5229 72.8093 12.9785 73.3247L13.3893 71.3673ZM7.4567 69.7884C5.99206 69.2459 4.71548 68.3791 3.61969 67.1737L2.13981 68.5191C3.44382 69.9535 4.987 71.0065 6.76207 71.6639L7.4567 69.7884ZM3.62716 67.182C2.62929 66.0594 2.07991 64.5032 2.07991 62.4019H0.079907C0.079907 64.8601 0.730418 66.9336 2.13234 68.5108L3.62716 67.182ZM2.07991 62.4019C2.07991 60.622 2.57483 59.0195 3.5697 57.5676L1.91983 56.4371C0.694886 58.2249 0.079907 60.2221 0.079907 62.4019H2.07991ZM3.5697 57.5676C4.55087 56.1356 6.03358 54.9693 8.08521 54.0981L7.30346 52.2572C4.97547 53.2458 3.15846 54.6294 1.91983 56.4371L3.5697 57.5676ZM8.08072 54.1C10.1467 53.2345 12.6926 52.7828 15.7486 52.7828V50.7828C12.5052 50.7828 9.68158 51.261 7.30795 52.2553L8.08072 54.1ZM15.7486 52.7828C17.8337 52.7828 19.8727 53.0144 21.8672 53.4769L22.319 51.5286C20.1739 51.0311 17.9832 50.7828 15.7486 50.7828V52.7828ZM21.8836 53.4805C23.9011 53.9128 25.6474 54.5558 27.135 55.3978L28.1202 53.6573C26.4281 52.6995 24.4848 51.9925 22.3026 51.5249L21.8836 53.4805ZM26.7041 54.1441L23.5093 61.8384L25.3565 62.6053L28.5512 54.911L26.7041 54.1441ZM24.8836 61.3292C21.6888 59.7163 18.6097 58.8821 15.6587 58.8821V60.8821C18.2271 60.8821 20.9976 61.6077 23.9822 63.1146L24.8836 61.3292ZM15.6587 58.8821C14.2451 58.8821 13.0395 59.0478 12.1524 59.4767C11.6952 59.6978 11.288 60.0054 10.9966 60.4281C10.6997 60.8588 10.564 61.3499 10.564 61.8619H12.564C12.564 61.7139 12.5989 61.6276 12.6432 61.5633C12.693 61.4911 12.7977 61.3862 13.023 61.2773C13.5007 61.0463 14.3424 60.8821 15.6587 60.8821V58.8821ZM10.564 61.8619C10.564 62.4121 10.7482 62.9182 11.1034 63.3392C11.4431 63.7418 11.9024 64.0245 12.4016 64.2279L13.1562 62.3757C12.8455 62.2491 12.6973 62.1269 12.632 62.0495C12.5823 61.9905 12.564 61.9417 12.564 61.8619H10.564ZM12.4316 64.2395C13.3239 64.57 14.7279 64.9124 16.5935 65.2735L16.9736 63.3099C15.1196 62.9511 13.8538 62.6335 13.1262 62.364L12.4316 64.2395ZM16.5993 65.2746C18.9645 65.7181 20.9331 66.2307 22.5163 66.8064L23.1998 64.9268C21.4832 64.3026 19.4022 63.7653 16.9678 63.3088L16.5993 65.2746ZM22.5315 66.8118C24.0193 67.3257 25.303 68.1753 26.3927 69.374L27.8726 68.0286C26.5625 66.5875 24.9965 65.5473 23.1846 64.9214L22.5315 66.8118ZM26.4011 69.383C27.4163 70.4726 27.9775 72.0046 27.9775 74.1009H29.9775C29.9775 71.6375 29.3088 69.5698 27.8643 68.0196L26.4011 69.383ZM27.9775 74.1009C27.9775 75.8807 27.4826 77.4832 26.4877 78.9352L28.1376 80.0656C29.3625 78.2779 29.9775 76.2807 29.9775 74.1009H27.9775ZM26.4927 78.928C25.5124 80.3321 24.0125 81.5028 21.9212 82.4072L22.715 84.2429C25.0632 83.2275 26.8931 81.8484 28.1326 80.0728L26.4927 78.928ZM21.9272 82.4046C19.8941 83.268 17.3655 83.7199 14.3088 83.7199V85.7199C17.5515 85.7199 20.3625 85.242 22.709 84.2455L21.9272 82.4046ZM35.9171 80.8053L35.2221 81.5243L35.2221 81.5243L35.9171 80.8053ZM31.8675 52.5027V51.5027H30.8675V52.5027H31.8675ZM42.4865 52.5027H43.4865V51.5027H42.4865V52.5027ZM43.7014 74.5508L42.9097 75.1616L42.915 75.1686L42.9206 75.1755L43.7014 74.5508ZM50.8558 74.5508L50.0749 73.9261L50.0694 73.933L50.064 73.94L50.8558 74.5508ZM52.1157 52.5027V51.5027H51.1157V52.5027H52.1157ZM62.5548 52.5027H63.5548V51.5027H62.5548V52.5027ZM58.5052 80.8053L57.8101 80.0863L57.8101 80.0863L58.5052 80.8053ZM47.2111 83.7199C42.5636 83.7199 39.0764 82.4684 36.6121 80.0863L35.2221 81.5243C38.1573 84.3617 42.1994 85.7199 47.2111 85.7199V83.7199ZM36.6121 80.0863C34.1542 77.7103 32.8675 74.3378 32.8675 69.8262H30.8675C30.8675 74.7338 32.2804 78.6807 35.2221 81.5243L36.6121 80.0863ZM32.8675 69.8262V52.5027H30.8675V69.8262H32.8675ZM31.8675 53.5027H42.4865V51.5027H31.8675V53.5027ZM41.4865 52.5027V69.5112H43.4865V52.5027H41.4865ZM41.4865 69.5112C41.4865 71.8952 41.8964 73.8481 42.9097 75.1616L44.4932 73.94C43.8866 73.1537 43.4865 71.7469 43.4865 69.5112H41.4865ZM42.9206 75.1755C43.982 76.5022 45.4921 77.1257 47.3011 77.1257V75.1257C45.9904 75.1257 45.1008 74.6992 44.4823 73.9261L42.9206 75.1755ZM47.3011 77.1257C49.1094 77.1257 50.6137 76.5019 51.6476 75.1616L50.064 73.94C49.4781 74.6996 48.6125 75.1257 47.3011 75.1257V77.1257ZM51.6367 75.1755C52.6892 73.8599 53.1157 71.9006 53.1157 69.5112H51.1157C51.1157 71.7415 50.7023 73.1419 50.0749 73.9261L51.6367 75.1755ZM53.1157 69.5112V52.5027H51.1157V69.5112H53.1157ZM52.1157 53.5027H62.5548V51.5027H52.1157V53.5027ZM61.5548 52.5027V69.8262H63.5548V52.5027H61.5548ZM61.5548 69.8262C61.5548 74.3378 60.268 77.7103 57.8101 80.0863L59.2002 81.5243C62.1418 78.6807 63.5548 74.7338 63.5548 69.8262H61.5548ZM57.8101 80.0863C55.3458 82.4684 51.8586 83.7199 47.2111 83.7199V85.7199C52.2228 85.7199 56.2649 84.3617 59.2002 81.5243L57.8101 80.0863ZM90.1905 53.9426L89.7844 54.8564L89.7844 54.8564L90.1905 53.9426ZM95.1851 58.0822L94.3466 58.6272L94.3466 58.6272L95.1851 58.0822ZM95.1851 70.6811L94.3466 70.1362L94.3466 70.1362L95.1851 70.6811ZM90.1905 74.8208L89.7844 73.907L89.7844 73.907L90.1905 74.8208ZM78.0416 76.2607V75.2607H77.0416V76.2607H78.0416ZM78.0416 84V85H79.0416V84H78.0416ZM67.4225 84H66.4225V85H67.4225V84ZM67.4225 52.5027V51.5027H66.4225V52.5027H67.4225ZM85.151 67.1265L85.8095 67.879L85.8182 67.8714L85.8267 67.8636L85.151 67.1265ZM85.151 61.6819L84.4752 62.4191L84.4837 62.4269L84.4924 62.4345L85.151 61.6819ZM78.0416 60.692V59.692H77.0416V60.692H78.0416ZM78.0416 68.0714H77.0416V69.0714H78.0416V68.0714ZM82.5862 53.5027C85.3875 53.5027 87.7784 53.9648 89.7844 54.8564L90.5967 53.0288C88.283 52.0005 85.6043 51.5027 82.5862 51.5027V53.5027ZM89.7844 54.8564C91.786 55.746 93.2927 57.0057 94.3466 58.6272L96.0235 57.5372C94.7377 55.559 92.9147 54.059 90.5967 53.0288L89.7844 54.8564ZM94.3466 58.6272C95.3989 60.2461 95.9399 62.1518 95.9399 64.3817H97.9399C97.9399 61.812 97.311 59.518 96.0235 57.5372L94.3466 58.6272ZM95.9399 64.3817C95.9399 66.6116 95.3989 68.5172 94.3466 70.1362L96.0235 71.2261C97.311 69.2454 97.9399 66.9514 97.9399 64.3817H95.9399ZM94.3466 70.1362C93.2927 71.7576 91.786 73.0174 89.7844 73.907L90.5967 75.7346C92.9147 74.7044 94.7377 73.2044 96.0235 71.2261L94.3466 70.1362ZM89.7844 73.907C87.7784 74.7985 85.3875 75.2607 82.5862 75.2607V77.2607C85.6043 77.2607 88.283 76.7629 90.5967 75.7346L89.7844 73.907ZM82.5862 75.2607H78.0416V77.2607H82.5862V75.2607ZM77.0416 76.2607V84H79.0416V76.2607H77.0416ZM78.0416 83H67.4225V85H78.0416V83ZM68.4225 84V52.5027H66.4225V84H68.4225ZM67.4225 53.5027H82.5862V51.5027H67.4225V53.5027ZM81.9112 69.0714C83.4749 69.0714 84.8344 68.7322 85.8095 67.879L84.4924 66.3739C84.0276 66.7806 83.2273 67.0714 81.9112 67.0714V69.0714ZM85.8267 67.8636C86.7938 66.9771 87.2309 65.7717 87.2309 64.3817H85.2309C85.2309 65.3315 84.948 65.956 84.4752 66.3893L85.8267 67.8636ZM87.2309 64.3817C87.2309 62.9933 86.794 61.7908 85.8095 60.9293L84.4924 62.4345C84.9478 62.8329 85.2309 63.4303 85.2309 64.3817H87.2309ZM85.8267 60.9448C84.8514 60.0508 83.4847 59.692 81.9112 59.692V61.692C83.2175 61.692 84.0106 61.9932 84.4752 62.4191L85.8267 60.9448ZM81.9112 59.692H78.0416V61.692H81.9112V59.692ZM77.0416 60.692V68.0714H79.0416V60.692H77.0416ZM78.0416 69.0714H81.9112V67.0714H78.0416V69.0714ZM126.61 75.9907H127.61V74.9907H126.61V75.9907ZM126.61 84V85H127.61V84H126.61ZM100.423 84H99.4226V85H100.423V84ZM100.423 52.5027V51.5027H99.4226V52.5027H100.423ZM126.025 52.5027H127.025V51.5027H126.025V52.5027ZM126.025 60.512V61.512H127.025V60.512H126.025ZM110.862 60.512V59.512H109.862V60.512H110.862ZM110.862 64.2017H109.862V65.2017H110.862V64.2017ZM124.181 64.2017H125.181V63.2017H124.181V64.2017ZM124.181 71.851V72.851H125.181V71.851H124.181ZM110.862 71.851V70.851H109.862V71.851H110.862ZM110.862 75.9907H109.862V76.9907H110.862V75.9907ZM125.61 75.9907V84H127.61V75.9907H125.61ZM126.61 83H100.423V85H126.61V83ZM101.423 84V52.5027H99.4226V84H101.423ZM100.423 53.5027H126.025V51.5027H100.423V53.5027ZM125.025 52.5027V60.512H127.025V52.5027H125.025ZM126.025 59.512H110.862V61.512H126.025V59.512ZM109.862 60.512V64.2017H111.862V60.512H109.862ZM110.862 65.2017H124.181V63.2017H110.862V65.2017ZM123.181 64.2017V71.851H125.181V64.2017H123.181ZM124.181 70.851H110.862V72.851H124.181V70.851ZM109.862 71.851V75.9907H111.862V71.851H109.862ZM110.862 76.9907H126.61V74.9907H110.862V76.9907ZM144.197 76.0807L145.026 75.5206L144.728 75.0807H144.197V76.0807ZM141.317 76.0807V75.0807H140.317V76.0807H141.317ZM141.317 84V85H142.317V84H141.317ZM130.698 84H129.698V85H130.698V84ZM130.698 52.5027V51.5027H129.698V52.5027H130.698ZM153.466 53.9426L153.06 54.8564L153.06 54.8564L153.466 53.9426ZM158.461 58.0822L157.622 58.6272L157.622 58.6272L158.461 58.0822ZM158.686 70.2762L157.831 69.7572L157.831 69.7572L158.686 70.2762ZM154.276 74.2808L153.818 73.392L152.814 73.9097L153.45 74.8435L154.276 74.2808ZM160.891 84V85H162.781L161.717 83.4374L160.891 84ZM149.552 84L148.723 84.5601L149.021 85H149.552V84ZM148.427 61.6819L147.751 62.4191L147.76 62.4269L147.768 62.4345L148.427 61.6819ZM141.317 60.692V59.692H140.317V60.692H141.317ZM141.317 68.0714H140.317V69.0714H141.317V68.0714ZM148.427 67.1265L149.085 67.879L149.094 67.8714L149.102 67.8636L148.427 67.1265ZM144.197 75.0807H141.317V77.0807H144.197V75.0807ZM140.317 76.0807V84H142.317V76.0807H140.317ZM141.317 83H130.698V85H141.317V83ZM131.698 84V52.5027H129.698V84H131.698ZM130.698 53.5027H145.862V51.5027H130.698V53.5027ZM145.862 53.5027C148.663 53.5027 151.054 53.9648 153.06 54.8564L153.872 53.0288C151.559 52.0005 148.88 51.5027 145.862 51.5027V53.5027ZM153.06 54.8564C155.062 55.746 156.568 57.0057 157.622 58.6272L159.299 57.5372C158.013 55.559 156.19 54.059 153.872 53.0288L153.06 54.8564ZM157.622 58.6272C158.675 60.2461 159.216 62.1518 159.216 64.3817H161.216C161.216 61.812 160.587 59.518 159.299 57.5372L157.622 58.6272ZM159.216 64.3817C159.216 66.4755 158.743 68.2554 157.831 69.7572L159.541 70.7952C160.669 68.9373 161.216 66.7875 161.216 64.3817H159.216ZM157.831 69.7572C156.916 71.2642 155.591 72.4779 153.818 73.392L154.735 75.1696C156.801 74.104 158.416 72.6478 159.541 70.7952L157.831 69.7572ZM153.45 74.8435L160.064 84.5626L161.717 83.4374L155.103 73.7182L153.45 74.8435ZM160.891 83H149.552V85H160.891V83ZM150.38 83.4399L145.026 75.5206L143.369 76.6408L148.723 84.5601L150.38 83.4399ZM150.507 64.3817C150.507 62.9933 150.07 61.7908 149.085 60.9293L147.768 62.4345C148.224 62.8329 148.507 63.4303 148.507 64.3817H150.507ZM149.102 60.9448C148.127 60.0508 146.761 59.692 145.187 59.692V61.692C146.493 61.692 147.286 61.9932 147.751 62.4191L149.102 60.9448ZM145.187 59.692H141.317V61.692H145.187V59.692ZM140.317 60.692V68.0714H142.317V60.692H140.317ZM141.317 69.0714H145.187V67.0714H141.317V69.0714ZM145.187 69.0714C146.751 69.0714 148.11 68.7322 149.085 67.879L147.768 66.3739C147.303 66.7806 146.503 67.0714 145.187 67.0714V69.0714ZM149.102 67.8636C150.07 66.9771 150.507 65.7717 150.507 64.3817H148.507C148.507 65.3315 148.224 65.956 147.751 66.3893L149.102 67.8636ZM185.095 82.6051L185.558 81.7187L185.558 81.7187L185.095 82.6051ZM178.751 76.7556L177.896 77.2746L177.899 77.2791L178.751 76.7556ZM178.751 59.7921L179.603 60.3156L179.605 60.3111L178.751 59.7921ZM203.363 53.8976L203.826 53.0112L203.826 53.0112L203.363 53.8976ZM209.708 59.7921L208.853 60.3111L208.856 60.3156L209.708 59.7921ZM209.708 76.7556L210.56 77.2792L210.563 77.2746L209.708 76.7556ZM203.363 82.6051L203.826 83.4915L203.826 83.4915L203.363 82.6051ZM197.784 75.1808L198.298 76.0383L198.305 76.034L197.784 75.1808ZM200.349 72.436L201.229 72.9101L201.234 72.9008L200.349 72.436ZM200.349 64.1117L199.463 64.5766L199.468 64.5858L200.349 64.1117ZM197.784 61.3669L197.252 62.2136L197.266 62.2224L197.28 62.2307L197.784 61.3669ZM190.63 61.3669L191.144 62.2245L191.151 62.2202L190.63 61.3669ZM188.11 64.1117L188.99 64.5858L188.995 64.5765L188.11 64.1117ZM188.11 72.436L187.224 72.9009L187.229 72.9101L188.11 72.436ZM190.63 75.1808L190.097 76.0274L190.111 76.0362L190.126 76.0445L190.63 75.1808ZM194.229 83.7199C190.982 83.7199 188.099 83.0459 185.558 81.7187L184.632 83.4915C187.49 84.9841 190.697 85.7199 194.229 85.7199V83.7199ZM185.558 81.7187C183.011 80.3887 181.034 78.5613 179.603 76.2321L177.899 77.2791C179.527 79.9295 181.779 82.0017 184.632 83.4915L185.558 81.7187ZM179.605 76.2366C178.177 73.8841 177.456 71.2311 177.456 68.2514H175.456C175.456 71.5711 176.264 74.5876 177.896 77.2746L179.605 76.2366ZM177.456 68.2514C177.456 65.2715 178.177 62.6356 179.603 60.3156L177.899 59.2686C176.264 61.9281 175.456 64.9317 175.456 68.2514H177.456ZM179.605 60.3111C181.037 57.9526 183.014 56.1124 185.558 54.784L184.632 53.0112C181.776 54.5026 179.524 56.592 177.896 59.2731L179.605 60.3111ZM185.558 54.784C188.099 53.4569 190.982 52.7828 194.229 52.7828V50.7828C190.697 50.7828 187.49 51.5186 184.632 53.0112L185.558 54.784ZM194.229 52.7828C197.476 52.7828 200.359 53.4569 202.901 54.784L203.826 53.0112C200.968 51.5186 197.762 50.7828 194.229 50.7828V52.7828ZM202.901 54.784C205.444 56.1124 207.421 57.9526 208.853 60.3111L210.563 59.2731C208.935 56.5921 206.682 54.5026 203.826 53.0112L202.901 54.784ZM208.856 60.3156C210.282 62.6356 211.003 65.2715 211.003 68.2514H213.003C213.003 64.9317 212.194 61.9281 210.56 59.2686L208.856 60.3156ZM211.003 68.2514C211.003 71.2311 210.282 73.8841 208.853 76.2366L210.563 77.2746C212.194 74.5876 213.003 71.5711 213.003 68.2514H211.003ZM208.856 76.2321C207.425 78.5613 205.447 80.3887 202.901 81.7187L203.826 83.4915C206.679 82.0017 208.931 79.9295 210.56 77.2791L208.856 76.2321ZM202.901 81.7187C200.359 83.0459 197.476 83.7199 194.229 83.7199V85.7199C197.762 85.7199 200.968 84.9841 203.826 83.4915L202.901 81.7187ZM194.229 77.1257C195.716 77.1257 197.081 76.7687 198.298 76.0383L197.269 74.3233C196.387 74.8527 195.383 75.1257 194.229 75.1257V77.1257ZM198.305 76.034C199.544 75.277 200.52 74.2279 201.229 72.9101L199.468 71.9619C198.918 72.9839 198.184 73.7646 197.263 74.3275L198.305 76.034ZM201.234 72.9008C201.951 71.5346 202.294 69.9751 202.294 68.2514H200.294C200.294 69.7073 200.006 70.9376 199.463 71.9712L201.234 72.9008ZM202.294 68.2514C202.294 66.5284 201.952 64.9793 201.229 63.6376L199.468 64.5858C200.006 65.5839 200.294 66.7946 200.294 68.2514H202.294ZM201.234 63.6469C200.525 62.2953 199.543 61.2356 198.288 60.5032L197.28 62.2307C198.184 62.7582 198.913 63.5283 199.463 64.5765L201.234 63.6469ZM198.316 60.5203C197.096 59.7536 195.725 59.377 194.229 59.377V61.377C195.374 61.377 196.372 61.6604 197.252 62.2136L198.316 60.5203ZM194.229 59.377C192.734 59.377 191.352 59.7536 190.108 60.5137L191.151 62.2202C192.067 61.6605 193.085 61.377 194.229 61.377V59.377ZM190.115 60.5095C188.891 61.2437 187.93 62.3024 187.224 63.6469L188.995 64.5765C189.549 63.5212 190.268 62.7501 191.144 62.2244L190.115 60.5095ZM187.229 63.6376C186.507 64.9793 186.165 66.5284 186.165 68.2514H188.165C188.165 66.7946 188.453 65.5839 188.99 64.5858L187.229 63.6376ZM186.165 68.2514C186.165 69.9751 186.507 71.5346 187.224 72.9008L188.995 71.9712C188.453 70.9376 188.165 69.7073 188.165 68.2514H186.165ZM187.229 72.9101C187.935 74.221 188.891 75.2689 190.097 76.0274L191.162 74.3341C190.269 73.7727 189.544 72.9908 188.99 71.9619L187.229 72.9101ZM190.126 76.0445C191.367 76.7687 192.743 77.1257 194.229 77.1257V75.1257C193.076 75.1257 192.052 74.8527 191.133 74.317L190.126 76.0445ZM248.372 52.5027L249.293 52.8922L249.88 51.5027H248.372V52.5027ZM235.053 84V85H235.716L235.974 84.3895L235.053 84ZM224.614 84L223.693 84.3895L223.951 85H224.614V84ZM211.295 52.5027V51.5027H209.786L210.374 52.8922L211.295 52.5027ZM222.724 52.5027L223.65 52.1247L223.396 51.5027H222.724V52.5027ZM230.238 70.9061L229.312 71.2841L230.227 73.5247L231.161 71.2919L230.238 70.9061ZM237.932 52.5027V51.5027H237.267L237.01 52.117L237.932 52.5027ZM247.451 52.1132L234.132 83.6105L235.974 84.3895L249.293 52.8922L247.451 52.1132ZM235.053 83H224.614V85H235.053V83ZM225.535 83.6105L212.216 52.1132L210.374 52.8922L223.693 84.3895L225.535 83.6105ZM211.295 53.5027H222.724V51.5027H211.295V53.5027ZM221.798 52.8807L229.312 71.2841L231.164 70.5281L223.65 52.1247L221.798 52.8807ZM231.161 71.2919L238.855 52.8884L237.01 52.117L229.316 70.5204L231.161 71.2919ZM237.932 53.5027H248.372V51.5027H237.932V53.5027ZM275.616 75.9907H276.616V74.9907H275.616V75.9907ZM275.616 84V85H276.616V84H275.616ZM249.428 84H248.428V85H249.428V84ZM249.428 52.5027V51.5027H248.428V52.5027H249.428ZM275.031 52.5027H276.031V51.5027H275.031V52.5027ZM275.031 60.512V61.512H276.031V60.512H275.031ZM259.867 60.512V59.512H258.867V60.512H259.867ZM259.867 64.2017H258.867V65.2017H259.867V64.2017ZM273.186 64.2017H274.186V63.2017H273.186V64.2017ZM273.186 71.851V72.851H274.186V71.851H273.186ZM259.867 71.851V70.851H258.867V71.851H259.867ZM259.867 75.9907H258.867V76.9907H259.867V75.9907ZM274.616 75.9907V84H276.616V75.9907H274.616ZM275.616 83H249.428V85H275.616V83ZM250.428 84V52.5027H248.428V84H250.428ZM249.428 53.5027H275.031V51.5027H249.428V53.5027ZM274.031 52.5027V60.512H276.031V52.5027H274.031ZM275.031 59.512H259.867V61.512H275.031V59.512ZM258.867 60.512V64.2017H260.867V60.512H258.867ZM259.867 65.2017H273.186V63.2017H259.867V65.2017ZM272.186 64.2017V71.851H274.186V64.2017H272.186ZM273.186 70.851H259.867V72.851H273.186V70.851ZM258.867 71.851V75.9907H260.867V71.851H258.867ZM259.867 76.9907H275.616V74.9907H259.867V76.9907ZM293.203 76.0807L294.031 75.5206L293.734 75.0807H293.203V76.0807ZM290.323 76.0807V75.0807H289.323V76.0807H290.323ZM290.323 84V85H291.323V84H290.323ZM279.704 84H278.704V85H279.704V84ZM279.704 52.5027V51.5027H278.704V52.5027H279.704ZM302.472 53.9426L302.066 54.8564L302.066 54.8564L302.472 53.9426ZM307.467 58.0822L306.628 58.6272L306.628 58.6272L307.467 58.0822ZM307.692 70.2762L306.837 69.7572L306.837 69.7572L307.692 70.2762ZM303.282 74.2808L302.824 73.392L301.82 73.9097L302.455 74.8435L303.282 74.2808ZM309.896 84V85H311.787L310.723 83.4374L309.896 84ZM298.557 84L297.729 84.5601L298.026 85H298.557V84ZM297.432 61.6819L296.757 62.4191L296.765 62.4269L296.774 62.4345L297.432 61.6819ZM290.323 60.692V59.692H289.323V60.692H290.323ZM290.323 68.0714H289.323V69.0714H290.323V68.0714ZM297.432 67.1265L298.091 67.879L298.1 67.8714L298.108 67.8636L297.432 67.1265ZM293.203 75.0807H290.323V77.0807H293.203V75.0807ZM289.323 76.0807V84H291.323V76.0807H289.323ZM290.323 83H279.704V85H290.323V83ZM280.704 84V52.5027H278.704V84H280.704ZM279.704 53.5027H294.868V51.5027H279.704V53.5027ZM294.868 53.5027C297.669 53.5027 300.06 53.9648 302.066 54.8564L302.878 53.0288C300.565 52.0005 297.886 51.5027 294.868 51.5027V53.5027ZM302.066 54.8564C304.068 55.746 305.574 57.0057 306.628 58.6272L308.305 57.5372C307.019 55.559 305.196 54.059 302.878 53.0288L302.066 54.8564ZM306.628 58.6272C307.68 60.2461 308.221 62.1518 308.221 64.3817H310.221C310.221 61.812 309.593 59.518 308.305 57.5372L306.628 58.6272ZM308.221 64.3817C308.221 66.4755 307.749 68.2554 306.837 69.7572L308.546 70.7952C309.674 68.9373 310.221 66.7875 310.221 64.3817H308.221ZM306.837 69.7572C305.922 71.2642 304.597 72.4779 302.824 73.392L303.74 75.1696C305.807 74.104 307.422 72.6478 308.546 70.7952L306.837 69.7572ZM302.455 74.8435L309.07 84.5626L310.723 83.4374L304.109 73.7182L302.455 74.8435ZM309.896 83H298.557V85H309.896V83ZM299.386 83.4399L294.031 75.5206L292.374 76.6408L297.729 84.5601L299.386 83.4399ZM299.512 64.3817C299.512 62.9933 299.076 61.7908 298.091 60.9293L296.774 62.4345C297.229 62.8329 297.512 63.4303 297.512 64.3817H299.512ZM298.108 60.9448C297.133 60.0508 295.766 59.692 294.193 59.692V61.692C295.499 61.692 296.292 61.9932 296.757 62.4191L298.108 60.9448ZM294.193 59.692H290.323V61.692H294.193V59.692ZM289.323 60.692V68.0714H291.323V60.692H289.323ZM290.323 69.0714H294.193V67.0714H290.323V69.0714ZM294.193 69.0714C295.756 69.0714 297.116 68.7322 298.091 67.879L296.774 66.3739C296.309 66.7806 295.509 67.0714 294.193 67.0714V69.0714ZM298.108 67.8636C299.075 66.9771 299.512 65.7717 299.512 64.3817H297.512C297.512 65.3315 297.229 65.956 296.757 66.3893L298.108 67.8636Z" fill="url(#paint3_linear_3_3)"/>
</g>
<defs>
<radialGradient id="paint0_radial_3_3" cx="0" cy="0" r="1" gradientUnits="userSpaceOnUse" gradientTransform="translate(13.2229 2.874) rotate(63.4964) scale(29.4407 29.3599)">
<stop stop-color="#FF996D"/>
<stop offset="1" stop-color="#FF0000"/>
</radialGradient>
<radialGradient id="paint1_radial_3_3" cx="0" cy="0" r="1" gradientUnits="userSpaceOnUse" gradientTransform="translate(13.2258 2.8739) rotate(63.4964) scale(29.4407 29.3598)">
<stop stop-color="#FF996D"/>
<stop offset="1" stop-color="#FF0000"/>
</radialGradient>
<radialGradient id="paint2_radial_3_3" cx="0" cy="0" r="1" gradientUnits="userSpaceOnUse" gradientTransform="translate(145.767 28.6986) rotate(33.7481) scale(131.551 75.2788)">
<stop stop-color="#FF773C"/>
<stop offset="1" stop-color="#FF0000"/>
</radialGradient>
<linearGradient id="paint3_linear_3_3" x1="155.5" y1="40" x2="155.5" y2="95" gradientUnits="userSpaceOnUse">
<stop stop-color="#830404"/>
<stop offset="1" stop-color="#FF7E7E"/>
</linearGradient>
<clipPath id="clip0_3_3">
<rect width="311" height="95" fill="white"/>
</clipPath>
</defs>
</svg>
