<svg width="40" height="40" viewBox="0 0 40 40" fill="none" xmlns="http://www.w3.org/2000/svg">
<path fill-rule="evenodd" clip-rule="evenodd" d="M19.5193 21.5727C22.2278 21.5727 24.6764 22.6884 26.4304 24.4836L26.7093 24.2105C24.8846 22.342 22.3374 21.1821 19.5193 21.1821C16.7008 21.1821 14.1536 22.342 12.3286 24.2105L12.6079 24.4836C14.362 22.6884 16.8104 21.5727 19.5193 21.5727ZM19.5193 25.6978C21.1784 25.6978 22.667 26.4286 23.6821 27.5853L23.9755 27.3273C22.8897 26.0885 21.2962 25.3061 19.5193 25.3061C17.7422 25.3061 16.1485 26.0885 15.0618 27.3273L15.3557 27.5853C16.3704 26.4286 17.8594 25.6978 19.5193 25.6978ZM24.9544 23.9542C24.8375 23.865 24.7525 23.8973 24.6728 23.9475L22.4796 25.3722L22.9432 25.6322L24.5242 24.6057L24.2743 25.4687L24.0696 25.3111L23.6513 25.5822L24.1348 25.9541L23.9944 26.4386L24.4056 26.8161L25.1309 24.2987C25.1599 24.2095 25.1681 24.1185 25.0521 24.0293L24.9544 23.9542ZM15.3552 25.6857C15.4897 25.5769 15.5794 25.4293 15.5921 25.2817C15.6093 25.1024 15.5594 24.9779 15.3878 24.7674L14.5159 23.6939L14.903 23.3806L15.8569 24.5531C16.0557 24.799 16.1376 25.0473 16.1073 25.3129C16.0728 25.6122 15.9307 25.8545 15.6677 26.0695C15.4033 26.2835 15.1361 26.3729 14.8364 26.3457C14.5706 26.3204 14.3442 26.1899 14.1446 25.9451L13.1906 24.771L13.5777 24.4567L14.4501 25.5298C14.6208 25.7399 14.7327 25.8142 14.912 25.8349C15.0583 25.8527 15.2212 25.7956 15.3552 25.6857ZM17.4357 22.9088L17.5502 23.4734L18.6825 23.2426L18.7749 23.6966L17.6426 23.9271L17.691 24.1643C17.7445 24.4272 17.8485 24.4727 18.0841 24.4246L18.9945 24.2395L19.0883 24.7008L18.1501 24.8914C17.7151 24.9797 17.3225 24.8566 17.2133 24.3165L16.8905 22.7318C16.867 22.615 16.9303 22.5317 17.0368 22.5099L18.5788 22.1962L18.6727 22.6576L17.4357 22.9088ZM20.7973 24.8611L20.4947 24.7823C20.3897 24.7543 20.3308 24.6677 20.3616 24.5531L20.7719 22.9876C20.9122 22.4556 21.3098 22.3542 21.7388 22.4664L22.6652 22.7092L22.5456 23.1645L21.6474 22.9287C21.4148 22.8675 21.3078 22.9069 21.2399 23.1665L21.1784 23.401L22.2968 23.6939L22.1791 24.142L21.0606 23.8487L20.7973 24.8611ZM30.1765 38.088H30.2942C30.3766 38.088 30.4508 38.0835 30.4508 37.9838C30.4508 37.9037 30.3783 37.8892 30.3096 37.8892H30.1765V38.088ZM30.1765 38.1712V38.4506H30.0795V37.8063H30.3249C30.4771 37.8063 30.5522 37.8624 30.5522 37.9892C30.5522 38.1047 30.4797 38.1545 30.3857 38.1667L30.5676 38.4506H30.4591L30.2897 38.1712H30.1765ZM29.8396 38.1264C29.8396 38.3958 30.0397 38.5942 30.295 38.5942C30.5477 38.5942 30.7478 38.3958 30.7478 38.1264C30.7478 37.8624 30.5477 37.6629 30.295 37.6629C30.0397 37.6629 29.8396 37.8624 29.8396 38.1264ZM30.295 38.687C29.9881 38.687 29.7274 38.4506 29.7274 38.1264C29.7274 37.8063 29.9881 37.5695 30.295 37.5695C30.5993 37.5695 30.8601 37.8063 30.8601 38.1264C30.8601 38.4506 30.5993 38.687 30.295 38.687ZM27.2589 34.6805V37.1023C27.2589 37.2331 27.2027 37.2934 27.0434 37.2991V37.4269H29.5127C29.5181 37.1693 29.5272 36.9216 29.5688 36.5386H29.4131C29.3343 36.9312 29.2546 37.0149 29.002 37.0149H27.9498V36.0297H28.5719C28.7819 36.0297 28.8146 36.1004 28.8437 36.2683H28.9703C28.9567 36.1565 28.9431 35.95 28.9431 35.8241C28.9431 35.6983 28.9567 35.4972 28.9703 35.3799H28.8437C28.8146 35.5479 28.7819 35.6181 28.5719 35.6181H27.9498V34.7293H28.9503C29.203 34.7293 29.2683 34.818 29.3152 35.0748H29.443C29.4195 34.8218 29.4104 34.6135 29.4058 34.3563H27.0434V34.484C27.2027 34.4886 27.2589 34.5496 27.2589 34.6805ZM23.473 34.6655V36.4119C23.473 37.2118 23.9221 37.488 24.7633 37.488C25.6044 37.488 26.0546 37.2118 26.0546 36.3471V34.6655C26.0546 34.5338 26.1099 34.4735 26.2692 34.469V34.3405C26.1188 34.3545 25.9278 34.3685 25.7313 34.3685C25.4878 34.3685 25.2956 34.3545 25.1093 34.3405V34.469C25.3102 34.4777 25.3619 34.5153 25.3619 34.6972V36.4445C25.3619 36.9637 25.1418 37.0764 24.7633 37.0764C24.3848 37.0764 24.1648 36.9733 24.1648 36.4445V34.6972C24.1648 34.5153 24.2163 34.4777 24.4175 34.469V34.3405C24.23 34.3545 24.0389 34.3685 23.7954 34.3685C23.5989 34.3685 23.4078 34.3545 23.2575 34.3405V34.469C23.4168 34.4735 23.473 34.5338 23.473 34.6655ZM21.6211 36.3339V36.669C21.6211 36.8841 21.4392 37.0384 21.1069 37.0384C20.5644 37.0384 20.2367 36.3838 20.2367 35.8042C20.2367 35.2016 20.5554 34.7035 21.2055 34.7035C21.5931 34.7035 21.9879 34.9095 22.0486 35.3252H22.1835C22.1644 35.0033 22.1545 34.7393 22.1545 34.5101C21.9027 34.3527 21.556 34.2924 21.2328 34.2924C20.223 34.2924 19.5446 34.9064 19.5446 35.9215C19.5446 36.7631 20.1063 37.488 20.9846 37.488C21.3033 37.488 21.6121 37.3893 21.9064 37.114L22.0142 37.4269H22.2849V36.3806C22.2849 36.1704 22.369 36.1283 22.533 36.1225V35.9762C22.3229 35.9902 22.1174 36.0052 21.9064 36.0052C21.7099 36.0052 21.518 35.9902 21.3269 35.9762V36.1328C21.5369 36.1365 21.6211 36.1469 21.6211 36.3339ZM17.8481 36.0831H17.1889C17.3107 35.7526 17.4601 35.3837 17.5678 35.0104H17.5769C17.6706 35.4814 17.7498 35.7798 17.8481 36.0831ZM16.0574 37.2991V37.4269C16.2209 37.4128 16.3802 37.3984 16.5437 37.3984C16.7027 37.3984 16.8661 37.4128 17.0255 37.4269V37.2991C16.8707 37.2898 16.8055 37.234 16.8055 37.1498C16.8055 37.1041 16.8199 37.0521 16.843 36.9873L17.049 36.4373H17.9604L18.1099 36.889C18.1337 36.9498 18.1569 37.057 18.1569 37.1227C18.1569 37.2295 18.0962 37.2666 17.9232 37.2991V37.4269C18.1244 37.4128 18.3253 37.3984 18.5263 37.3984C18.7228 37.3984 18.9239 37.4128 19.1204 37.4269V37.2991C18.9801 37.2625 18.9102 37.2015 18.8393 36.9968L17.9794 34.3378C17.8345 34.3518 17.6846 34.3658 17.5398 34.3658C17.3949 34.3658 17.25 34.3518 17.1006 34.3378V34.4641C17.226 34.4641 17.2776 34.5396 17.2776 34.5862C17.2776 34.6334 17.245 34.6982 17.2175 34.7687L16.3006 37.0851C16.2539 37.2064 16.1933 37.2802 16.0574 37.2991ZM13.1866 34.6805V37.1023C13.1866 37.2331 13.1304 37.2934 12.9715 37.2991V37.4269H15.4413C15.4458 37.1693 15.4558 36.9216 15.4974 36.5386H15.3416C15.2624 36.9312 15.1828 37.0149 14.9301 37.0149H13.8788V36.0436H14.4995C14.7101 36.0436 14.7431 36.114 14.7708 36.2823H14.8985C14.8848 36.1704 14.8707 35.9636 14.8707 35.8381C14.8707 35.7113 14.8848 35.5103 14.8985 35.3939H14.7708C14.7431 35.562 14.7101 35.6321 14.4995 35.6321H13.8788V34.7293H14.8785C15.1311 34.7293 15.1964 34.818 15.2429 35.0748H15.371C15.348 34.8218 15.3385 34.6135 15.3336 34.3563H12.9715V34.484C13.1304 34.4886 13.1866 34.5496 13.1866 34.6805ZM10.2114 34.6655V37.1023C10.2114 37.2331 10.1553 37.2934 9.99644 37.2991V37.4269H12.3213C12.3258 37.1227 12.377 36.823 12.4332 36.5191H12.2819C12.2027 36.875 12.0764 37.0149 11.7676 37.0149H10.9033V34.7252C10.9033 34.5949 10.9363 34.4777 11.1745 34.469V34.3405C11.0391 34.3545 10.7539 34.3685 10.5573 34.3685C10.3845 34.3685 10.2019 34.3545 9.99644 34.3405V34.469C10.1553 34.4735 10.2114 34.5338 10.2114 34.6655ZM3.65648 32.2542L3.73338 31.5026C3.37256 31.8059 2.83425 32.0106 2.45983 32.0106C1.57743 32.0106 0.948917 31.1466 0.948917 30.3843C0.948917 29.3719 1.53752 28.7711 2.29957 28.7711C2.86096 28.7711 3.25121 29.0676 3.35805 29.6287H3.53291C3.49986 29.189 3.47486 28.7467 3.47486 28.2875C3.32096 28.2264 2.92748 28.1232 2.3792 28.1232C0.815373 28.1232 0 29.2566 0 30.4313C0 31.5787 0.815373 32.6988 2.25926 32.6988C2.64679 32.6988 3.24174 32.5711 3.65648 32.2542ZM14.3474 29.4661L14.2138 31.9966C14.2021 32.2509 14.1052 32.3054 13.8688 32.3243V32.4755C14.0568 32.4579 14.2808 32.4389 14.5046 32.4389C14.735 32.4389 14.9586 32.4579 15.2009 32.4755V32.3243C14.8373 32.2813 14.8074 32.2157 14.8074 31.9118C14.8074 31.7489 14.8196 31.5855 14.8256 31.2708L14.8744 29.4959H14.8862L16.043 32.5086H16.5515L17.5624 29.5327H17.5747L17.7141 31.3373C17.7318 31.5366 17.7503 31.81 17.7503 31.9554C17.7503 32.2333 17.6711 32.2877 17.3746 32.3243V32.4755C17.6231 32.4579 17.8839 32.4389 18.1497 32.4389C18.4104 32.4389 18.6767 32.4579 18.9375 32.4755V32.3243C18.8161 32.3054 18.6404 32.2813 18.6282 32.1243L18.4349 29.5381C18.4168 29.3325 18.3923 29.0604 18.3923 28.8906C18.3923 28.7267 18.4222 28.6606 18.6346 28.6426V28.484C18.4285 28.5026 18.2167 28.5203 18.0043 28.5203C17.7933 28.5203 17.5869 28.5026 17.3746 28.484L16.4242 31.2916L15.3648 28.484C15.1465 28.5026 14.9283 28.5203 14.7106 28.5203C14.4923 28.5203 14.275 28.5026 14.0934 28.484V28.6426C14.323 28.6724 14.3655 28.6968 14.3655 28.8848C14.3655 29.1269 14.3533 29.2963 14.3474 29.4661ZM9.15889 32.4755V32.3243C9.33446 32.2999 9.41318 32.202 9.47395 32.0454L10.661 29.0359C10.6968 28.9449 10.7394 28.8603 10.7394 28.8006C10.7394 28.7395 10.6729 28.6426 10.5093 28.6426V28.484C10.7032 28.5026 10.891 28.5203 11.0785 28.5203C11.2664 28.5203 11.4602 28.5026 11.648 28.484L12.7619 31.93C12.8529 32.1966 12.9434 32.2755 13.125 32.3243V32.4755C12.871 32.4579 12.6107 32.4389 12.3562 32.4389C12.0958 32.4389 11.8355 32.4579 11.5752 32.4755V32.3243C11.7988 32.2813 11.878 32.2333 11.878 32.0934C11.878 32.0088 11.8473 31.8697 11.8174 31.7911L11.6241 31.2043H10.4428L10.1766 31.9187C10.1458 32.0032 10.1277 32.07 10.1277 32.1301C10.1277 32.2387 10.2124 32.312 10.4125 32.3243V32.4755C10.2065 32.4579 9.99462 32.4389 9.78901 32.4389C9.57676 32.4389 9.37115 32.4579 9.15889 32.4755ZM10.6243 30.7429H11.4783C11.351 30.3494 11.2479 29.9619 11.127 29.3506H11.1152C10.9757 29.8351 10.7815 30.3141 10.6243 30.7429ZM4.84719 28.897V32.07C4.84719 32.2387 4.77472 32.318 4.56831 32.3233V32.4782C4.83499 32.4606 5.07134 32.443 5.29499 32.443C5.51954 32.443 5.75498 32.4606 6.02167 32.4782V32.3233C5.81566 32.318 5.74319 32.2387 5.74319 32.07V30.6763H7.20875V32.07C7.20875 32.2387 7.13638 32.318 6.92987 32.3243V32.4782C7.19655 32.4606 7.4329 32.443 7.65705 32.443C7.8807 32.443 8.11705 32.4606 8.38323 32.4782V32.3243C8.17772 32.318 8.10485 32.2387 8.10485 32.07V28.897C8.10485 28.7267 8.17772 28.6478 8.38373 28.6426V28.484C8.11705 28.5026 7.8807 28.5203 7.65705 28.5203C7.4329 28.5203 7.19655 28.5026 6.92987 28.484V28.6426C7.13638 28.6478 7.20875 28.7267 7.20875 28.897V30.0954H5.74319V28.897C5.74319 28.7267 5.81616 28.6478 6.02167 28.6426V28.484C5.75549 28.5026 5.51954 28.5203 5.29499 28.5193C5.07134 28.5193 4.83499 28.5026 4.56831 28.484V28.6426C4.77472 28.6478 4.84719 28.7267 4.84719 28.897ZM36.3313 31.0988H36.1782C36.2089 31.4605 36.228 31.8906 36.228 32.3828C36.6464 32.5317 37.1254 32.6074 37.5808 32.6074C38.5977 32.6074 39.4263 32.1704 39.4263 31.3478C39.4263 30.5373 38.8404 30.3073 38.2111 30.1271L37.5565 29.9393C37.3002 29.8641 37.0012 29.7645 37.0012 29.4217C37.0012 28.992 37.5246 28.8924 37.8372 28.8924C38.3977 28.8924 38.8648 29.1609 38.9952 29.7346H39.1519C39.1265 29.4099 39.1021 29.0297 39.1021 28.5805C38.7408 28.4502 38.335 28.3812 37.9431 28.3812C37.014 28.3812 36.0786 28.6746 36.0786 29.6394C36.0786 30.3762 36.7143 30.6437 37.3498 30.8303L37.7928 30.962C38.0797 31.0494 38.4664 31.1486 38.4664 31.5225C38.4664 31.9902 37.9366 32.0961 37.5691 32.0961C36.9017 32.0961 36.4552 31.7779 36.3313 31.0988ZM31.6171 28.8943V32.0662C31.6171 32.2361 31.5438 32.3149 31.3383 32.3207V32.4724C31.5319 32.4547 31.7321 32.4362 31.9323 32.4362C32.1197 32.4362 32.3135 32.4547 32.5136 32.4724V32.3207C32.3497 32.3207 32.1505 32.2971 32.1505 31.9817V29.348H32.1622L34.1725 32.4755H34.8145V28.8943C34.8145 28.724 34.887 28.6452 35.0925 28.6397V28.4809C34.8987 28.5 34.6994 28.5176 34.4995 28.5176C34.312 28.5176 34.1182 28.5 33.918 28.4809V28.6397C34.0809 28.6397 34.2812 28.6642 34.2812 28.9785V31.1893H34.2694L32.5978 28.4809C32.4103 28.5176 32.2284 28.5176 32.0653 28.5176C31.8408 28.5176 31.6044 28.5 31.3383 28.4809V28.6397C31.5448 28.6452 31.6171 28.724 31.6171 28.8943ZM24.3259 28.897V32.07C24.3259 32.2387 24.2536 32.318 24.048 32.3243V32.4755C24.3141 32.4579 24.5505 32.4389 24.7741 32.4389C24.9987 32.4397 25.235 32.4579 25.5013 32.4755V32.3243C25.2956 32.318 25.2225 32.2387 25.2225 32.07V28.897C25.2225 28.7267 25.2956 28.6493 25.5013 28.6426V28.484C25.235 28.5026 24.9987 28.5203 24.7741 28.5203C24.5505 28.5203 24.3141 28.5026 24.048 28.484V28.6426C24.2536 28.6493 24.3259 28.7267 24.3259 28.897ZM21.0126 31.9608V29.0831L21.3884 29.0437C21.9208 29.0437 22.2595 29.2369 22.2595 29.7826C22.2595 30.2847 22.0123 30.6415 21.3767 30.6415C21.297 30.6415 21.2191 30.6238 21.1638 30.6238C21.1095 30.6238 21.0734 30.6238 21.0734 30.6782C21.0734 30.8058 21.5097 30.9571 21.8068 30.9571C22.5873 30.9571 23.156 30.497 23.157 29.7459C23.157 29.0437 22.7504 28.5103 21.6302 28.5103H19.8381V28.6782C20.0441 28.6847 20.1161 28.7639 20.1161 28.9336V31.8942C20.1161 32.1785 20.0743 32.2813 19.8381 32.3243V32.4755C20.1044 32.4579 20.3407 32.4389 20.5644 32.4389C20.7882 32.4389 21.0252 32.4579 21.4066 32.4755V32.3243C21.0552 32.2577 21.0126 32.1785 21.0126 31.9608ZM28.3266 29.0125C29.2348 29.0125 29.5073 30.0415 29.5073 30.7429C29.5073 31.4043 29.1496 31.9544 28.532 31.9544C27.6664 31.9544 27.3512 30.9195 27.3512 30.2108C27.3512 29.7269 27.5758 29.0125 28.3266 29.0125ZM28.3926 32.5354C29.4774 32.5354 30.4027 31.7666 30.4027 30.4898C30.4027 29.4114 29.6585 28.4315 28.4234 28.4315C27.3087 28.4315 26.4556 29.2659 26.4556 30.4164C26.4556 31.5243 27.1873 32.5354 28.3926 32.5354ZM23.7192 17.2335C23.9076 16.3674 23.7664 15.5619 23.7664 15.5619C23.2121 16.3582 22.668 16.9646 22.1644 17.4268C20.8079 17.4974 19.7497 17.3236 19.7497 17.3236C19.7497 17.3236 20.3543 17.9289 21.0526 18.2775C20.1316 18.8484 19.5147 18.8974 19.5147 18.8974C23.5473 18.9835 25.9685 16.3507 25.9685 16.3507C25.2885 16.7984 24.5007 17.0728 23.7192 17.2335ZM19.7497 17.3236C19.7497 17.3236 18.9298 16.9976 17.7549 16.3348C17.796 15.6284 17.9052 14.7302 18.1289 13.5893C18.1289 13.5893 17.1952 14.5129 15.9854 15.2287C15.2842 14.7442 14.5466 14.1742 13.8299 13.5177C13.8299 13.5177 14.179 14.5958 14.8509 15.7824C14.2125 16.021 13.5556 16.132 12.9543 15.9852C12.9543 15.9852 13.6642 16.8709 15.8541 17.2484C16.4618 17.9674 17.201 18.5628 18.0645 18.7697C18.0645 18.7697 17.8051 18.4841 17.7467 17.4137C18.3443 17.4219 19.0099 17.3961 19.7497 17.3236ZM14.9101 9.31388C13.9322 9.34382 13.1661 9.43029 12.5676 9.53935C12.3996 8.49206 12.3734 7.74008 12.3734 7.74008C11.8907 8.47714 11.5774 9.188 11.3841 9.84997C10.7032 10.1026 10.5311 10.3476 10.5311 10.3476C10.637 10.7102 10.8498 11.0634 11.1179 11.3947C11.0341 12.9626 11.5412 13.9985 11.5412 13.9985C11.6557 13.448 11.8831 12.9137 12.1696 12.4134C13.0036 13.0822 13.8299 13.5177 13.8299 13.5177C13.4402 12.821 13.1544 12.0395 12.9434 11.2821C13.8788 10.1071 14.9101 9.31388 14.9101 9.31388ZM12.6523 5.53424C13.1172 5.08382 13.6837 4.59933 14.3709 4.09862C14.3709 4.09862 13.738 4.09862 13.0684 4.26865C13.5116 3.19707 14.0019 2.60293 14.0019 2.60293C14.0019 2.60293 11.1831 4.6075 10.6488 8.20965C10.6488 8.20965 10.8852 7.55897 11.6884 6.57558C12.0066 7.29057 12.3734 7.74008 12.3734 7.74008C12.3798 6.91745 12.4902 6.17848 12.6523 5.53424ZM22.0278 2.57188C21.2815 2.19635 20.5663 1.9342 19.9019 1.75399C20.7483 1.0384 21.5351 0.857283 21.5351 0.857283C20.1768 0.802756 19.0077 1.04878 18.0301 1.42532C16.5695 1.30801 15.6391 1.56249 15.6391 1.56249C15.8583 1.72678 16.043 2.02068 16.2309 2.37384C14.998 3.21773 14.3709 4.09862 14.3709 4.09862C15.1139 3.72963 15.9031 3.44884 16.6818 3.23557C16.7665 3.39159 16.8566 3.54751 16.9543 3.6995C17.4691 4.50237 18.0351 5.06205 18.0351 5.06205C18.237 4.09943 18.5848 3.35128 18.9846 2.76993C20.7211 2.52955 22.0278 2.57188 22.0278 2.57188ZM28.2495 6.76264C27.7877 5.72483 27.1221 4.94302 26.3986 4.3521C25.7802 3.05446 25.0684 2.45437 25.0684 2.45437C25.1282 2.753 25.0829 3.09215 24.9716 3.44138C23.4322 2.67701 22.0278 2.57188 22.0278 2.57188C22.9233 3.15776 23.7165 3.88465 24.3984 4.6337C23.7709 5.65559 22.9441 6.51853 22.9441 6.51853C24.0389 6.2714 24.92 6.16729 25.6263 6.14955C26.7065 7.6396 27.2897 8.89007 27.2897 8.89007C27.3113 7.8836 27.2109 7.00484 27.0425 6.246C27.958 6.42168 28.2495 6.76264 28.2495 6.76264ZM28.7231 10.5015C28.4541 10.9226 28.043 11.2218 27.5623 11.4333C27.497 10.084 27.2897 8.89007 27.2897 8.89007C26.8795 9.99844 26.4439 10.9813 26.0247 11.8303C24.5768 12.0164 23.1551 11.804 23.1551 11.804C23.9356 12.7371 24.5405 13.2923 25.0295 13.6672C24.2979 14.9019 23.7664 15.5619 23.7664 15.5619C24.7905 15.3274 25.6054 14.9384 26.2529 14.4766C26.5191 14.6596 26.7454 14.8625 26.971 15.206C26.971 15.206 27.3893 14.6134 27.5333 13.2407C28.5691 11.8869 28.7231 10.5015 28.7231 10.5015ZM19.708 11.0013C19.1679 11.8249 18.6233 12.7046 18.1289 13.5893C18.1289 13.5893 17.7431 12.264 17.5996 10.3579C16.7112 10.0583 15.794 9.71189 14.9101 9.31388C14.9101 9.31388 15.932 8.79634 17.5652 8.16339C17.6113 7.17184 17.7493 6.11649 18.0351 5.06205C18.0351 5.06205 18.5721 6.05088 19.5491 7.45445C20.579 7.11661 21.728 6.78713 22.9441 6.51853C22.9441 6.51853 22.0413 7.6396 20.8948 9.26137C21.5505 10.0849 22.3085 10.957 23.1551 11.804C23.1551 11.804 21.6837 11.5469 19.708 11.0013Z" fill="white"/>
</svg>
