<svg width="183" height="161" viewBox="0 0 183 161" fill="none" xmlns="http://www.w3.org/2000/svg">
<path fill-rule="evenodd" clip-rule="evenodd" d="M177.711 34.0973C177.711 34.0973 153.334 32.7464 143.19 32.873C133.506 33.0018 123.779 33.5458 114.174 34.3334C112.363 31.2721 107.575 23.3478 101.243 15.1371C95.8557 8.15065 88.9663 1.75117 88.9663 1.75117L86.9391 0L85.6557 1.9486C85.6557 1.9486 79.8584 11.0982 75.2881 21.1932C70.8358 31.0253 66.8462 42.9551 65.5044 47.2139C59.1967 50.0284 51.9754 53.7185 45.9867 57.032C39.7169 60.5247 31.8901 65.5089 25.4764 70.2366C20.916 67.6549 17.9297 65.7932 16.4258 64.82C15.7489 64.3822 15.3738 64.0002 15.0364 63.3993C14.6558 62.7244 12.4124 63.4637 12.874 64.3532C13.3498 65.2696 13.9585 66.0239 14.9716 66.746C15.9846 67.4693 20.2586 70.2334 23.1 72.0403C19.3071 74.9632 15.6495 78.061 12.2556 81.4443C7.33075 86.3844 2.83622 91.9427 0.0586342 98.3861C-0.059216 98.6587 0.00673685 98.9495 0.201352 99.0321C0.395967 99.1147 0.653291 98.9645 0.783035 98.6962C3.75956 92.5189 8.37626 87.2707 13.406 82.6267C17.0842 79.2521 21.0425 76.1886 25.1456 73.3269C36.1511 80.2339 47.5588 86.5068 59.1665 92.3579C58.4453 102.291 58.281 112.133 58.4431 122.02C58.6323 132.385 60.6942 155.947 60.6942 155.947L61.3018 161L64.2124 156.67C64.2124 156.67 73.6685 142.891 82.623 131.233C90.5135 120.96 98.6744 111.668 99.8918 110.35L98.9977 105.061C98.9977 105.061 89.6248 114.954 79.7189 128.536C71.7224 139.499 63.6923 151.414 63.6923 151.414C63.6923 151.414 62.3798 131.802 62.3376 121.976C62.3084 111.734 62.556 100.856 63.7021 89.8041C53.4567 85.2975 38.987 77.9859 27.761 71.5521C34.1119 67.4381 41.263 63.2502 47.5836 60.0644C53.9 56.9 61.3061 53.4642 69.0799 50.331C70.6996 44.2427 74.2134 32.6123 78.309 22.6525C82.4262 12.6423 86.9175 5.24491 87.6505 3.90364C88.4852 4.76742 93.7593 10.2774 98.5057 17.1157C104.683 26.0132 111.803 38.8604 111.803 38.8604C111.803 38.8604 127.633 37.1779 143.018 36.7208C156.075 36.3324 168.59 37.1297 173.156 37.4108C170.009 39.677 162.426 45.4241 153.416 52.6208C144.405 59.8176 134.612 68.3051 127.924 74.7572C131.032 80.4689 146.936 110.613 146.936 110.613C147.075 110.875 147.343 111.016 147.535 110.927C147.726 110.837 147.788 110.542 147.673 110.27L133.12 75.651C138.271 70.5842 147.09 62.7136 155.64 55.7401C165.265 47.891 178.667 37.8142 178.667 37.8142L183 34.6156L177.711 34.0973Z" fill="url(#paint0_linear)"/>
<defs>
<linearGradient id="paint0_linear" x1="94.0978" y1="148.041" x2="86.1041" y2="16.3362" gradientUnits="userSpaceOnUse">
<stop stop-color="#039DFD"/>
<stop offset="0.372749" stop-color="#0388FA" stop-opacity="0"/>
<stop offset="0.623105" stop-color="#037EF9" stop-opacity="0"/>
<stop offset="1" stop-color="#045EF4"/>
</linearGradient>
</defs>
</svg>
