<svg width="293" height="293" viewBox="0 0 293 293" fill="none" xmlns="http://www.w3.org/2000/svg">
<mask id="mask0" mask-type="alpha" maskUnits="userSpaceOnUse" x="0" y="0" width="293" height="293">
<rect width="293" height="293" fill="url(#paint0_linear)"/>
</mask>
<g mask="url(#mask0)">
<g opacity="0.1">
<path fill-rule="evenodd" clip-rule="evenodd" d="M255.77 156.067C248.727 167.941 241.354 178.443 233.126 188.558C215.082 183.398 200.756 178.655 170.334 165.637C143.624 154.208 114.383 138.469 114.383 138.469C114.383 138.469 104.834 148.623 94.7419 162.566C86.5952 173.821 78.4143 186.051 78.4143 186.051C78.4143 186.051 77.0771 165.919 77.0341 155.834C77.0044 145.32 77.2577 134.152 78.4242 122.808C67.9864 118.18 53.2449 110.676 41.808 104.07C48.2783 99.8478 55.5636 95.5486 62.003 92.2782C68.438 89.0299 75.9833 85.5018 83.9031 82.2865C85.5532 76.0366 89.133 64.0974 93.3055 53.8732C97.499 43.5973 102.076 36.0035 102.821 34.6255C103.673 35.5133 109.046 41.1696 113.883 48.1883C120.173 57.322 127.429 70.5103 127.429 70.5103C127.429 70.5103 143.556 68.7832 159.229 68.3139C172.532 67.9163 185.282 68.7336 189.934 69.0233C186.729 71.3497 179.004 77.2493 169.824 84.636C160.643 92.0249 150.667 100.737 143.852 107.361C147.019 113.223 163.221 144.168 163.221 144.168C163.363 144.438 163.637 144.581 163.832 144.49C164.027 144.398 164.09 144.096 163.973 143.815L149.146 108.278C154.394 103.077 163.379 94.9978 172.09 87.8392C181.895 79.7817 191.15 72.7365 195.548 69.4364C199.83 69.7899 214.446 71.0666 225.868 73.7983C237.572 76.5983 241.105 77.7186 249.329 80.9614C256.986 93.3963 263.503 108.404 269.232 128.23C267.142 133.682 262.813 144.194 255.77 156.067ZM289.47 103.516C289.087 102.957 286.607 99.3785 284.366 97.0841C282.124 94.7908 280.18 92.9942 277.627 91.7693C277.538 96.4386 276.854 101.307 275.94 105.832C274.037 115.251 271.26 122.861 270.525 124.736C266.281 108.56 259.243 91.9081 251.468 78.4632C244.474 75.4296 238.72 73.4315 226.925 70.6315C215.178 67.8447 203.256 66.5064 199.962 66.1539C203.241 63.7383 206.544 61.3546 209.887 59.0272C217.126 53.8941 224.532 49.0035 231.981 44.1778L233.258 43.3505L232.498 42.0739C230.911 39.5614 224.739 30.4354 215.943 22.0155C207.146 13.5956 199.846 9.65886 197.682 8.49567C200.485 9.48151 218.657 15.2126 240.647 31.4367C263.087 47.9934 276.615 70.2878 278.072 72.5217C278.237 72.7772 278.521 72.8929 278.706 72.7827C278.891 72.6715 278.922 72.3664 278.775 72.1009C277.584 69.9618 266.716 48.3998 242.345 29.6842C217.974 10.9674 190.673 4.75166 186.482 3.70413C178.83 1.78971 175.894 1.64652 175.894 1.64652C175.894 1.64652 180.529 2.75353 186.122 4.7087C189.554 5.90824 192.893 7.36883 196.056 9.15547C198.352 10.4453 205.246 14.2753 214.156 23.3153C223.065 32.3553 227.717 40.2322 229.012 42.3636C221.906 46.8577 214.84 51.418 207.923 56.1985C203.415 59.2574 198.978 62.4165 194.575 65.6219C182.634 64.6657 169.739 64.2351 159.406 64.3639C149.54 64.4972 139.629 65.0557 129.845 65.8631C128 62.7205 123.121 54.587 116.671 46.1583C111.182 38.9864 105.225 33.3764 104.163 32.4159C110.441 22.7623 117.738 14.0803 127.582 8.49347C136.498 3.43316 143.026 2.10915 152.315 0.796158C152.616 0.754301 152.845 0.55603 152.824 0.342338C152.802 0.127545 152.539 -0.0222594 152.236 0.00197363C147.111 0.411733 136.771 1.42952 126.519 7.17386C116.007 13.0647 108.558 21.3855 102.098 30.6194C100.764 29.498 99.4013 28.4087 97.9749 27.3964C95.6144 25.7309 93.7815 24.5325 90.4681 23.0432C87.1548 21.554 83.8393 21.0914 82.501 21.1255C82.197 21.1332 81.9711 21.3282 81.9954 21.543C82.0196 21.7567 82.2873 21.912 82.5891 21.9505C83.6642 22.0871 86.9411 22.8405 89.8315 24.3771C92.7207 25.9126 94.5878 27.2598 96.7555 29.0079C98.1588 30.1446 99.4906 31.3651 100.79 32.6197C100.005 33.8391 94.883 42.0122 90.2269 52.3741C85.692 62.4682 81.6275 74.7148 80.2605 79.0866C73.8343 81.9759 66.4774 85.7639 60.3762 89.1654C53.9885 92.7508 46.0148 97.8673 39.4806 102.72C34.8334 100.07 31.7921 98.1592 30.2599 97.1601C29.5704 96.7107 29.1882 96.3186 28.8445 95.7017C28.4568 95.0089 27.5646 92.2011 27.9259 87.5561C28.2883 82.9122 28.6341 80.7598 29.2653 77.2559C29.9053 73.7532 30.6477 70.0951 31.5454 66.6573L32.7141 62.4572L30.1784 66.1616C26.3672 71.7297 22.8744 77.5677 19.8684 83.627C16.848 89.6831 14.2749 95.9606 12.1744 102.391C10.0936 108.826 8.4689 115.413 7.42027 122.094C6.36613 128.586 5.88036 135.163 5.85944 141.736C5.85944 142.04 6.03347 142.287 6.24937 142.287C6.46526 142.287 6.64261 142.04 6.64591 141.736C6.72962 135.207 7.27487 128.683 8.38298 122.251C9.48779 115.633 11.1621 109.117 13.2858 102.759C15.4304 96.4056 18.0399 90.2107 21.0877 84.2417C23.4229 79.6495 26.0302 75.2149 28.8566 70.9069C28.3499 72.8951 27.8752 74.8888 27.4511 76.9012C26.7164 80.4415 26.3705 82.5509 25.8517 87.392C25.3241 92.2992 26.1712 95.7678 26.6415 96.6809C27.1262 97.6205 27.7463 98.396 28.7784 99.1373C29.8105 99.8786 34.1637 102.716 37.0584 104.572C33.1955 107.573 29.4691 110.753 26.0114 114.226C20.9941 119.297 16.4151 125.003 13.5854 131.617C13.4653 131.897 13.5325 132.195 13.7308 132.279C13.9291 132.364 14.1923 132.21 14.3234 131.936C17.3558 125.593 22.0593 120.206 27.1834 115.438C30.9308 111.974 34.9634 108.829 39.1436 105.892C50.3558 112.983 61.9777 119.422 73.8035 125.429C73.0688 135.625 72.9003 145.729 73.0666 155.878C73.2593 166.517 74.0447 179.405 75.3599 190.705C65.279 205.934 52.008 229.38 52.008 229.38C52.008 229.38 40.6075 223.257 29.4283 210.163C19.9499 199.061 14.5316 188.753 9.88213 178.321C8.97449 176.283 8.09549 174.24 7.22089 172.186C7.90273 175.999 8.43255 178.809 8.43255 178.809C11.0497 193.047 15.8721 206.834 22.4569 219.727C29.013 232.634 37.5431 244.572 47.7485 254.876C57.9231 265.22 69.9681 273.671 82.9614 280.041C89.4757 283.203 96.251 285.792 103.15 287.927C109.894 289.947 116.765 291.509 123.702 292.604C124.002 292.653 124.277 292.518 124.313 292.306C124.35 292.093 124.139 291.873 123.84 291.812C116.905 290.413 110.044 288.629 103.349 286.393C96.652 284.157 90.1212 281.468 83.8448 278.257C71.0828 271.867 59.4333 263.351 49.4118 253.228C39.3485 243.124 31.074 231.325 24.4396 218.702C21.1241 212.384 18.2866 205.816 15.8402 199.106C14.3333 194.967 13.0093 190.756 11.8681 186.499C13.1977 189.245 17.0705 198.302 27.7353 211.487C38.6082 224.929 48.7564 230.626 53.0247 232.794C56.6619 226.872 67.9633 207.39 75.979 195.892C77.0188 203.731 78.3692 211.531 80.0567 219.262C82.3776 229.657 87.5877 246.581 89.479 250.409C94.7442 252.381 105.718 255.736 116.823 257.706C127.926 259.678 133.576 260.318 142.012 261.029C139.947 261.802 135.114 263.802 125.518 266.607C115.923 269.411 107.36 271.389 102.074 272.491C103.467 274.239 106.692 277.3 110.224 279.717C113.952 282.269 117.974 284.14 118.655 284.458C118.93 284.585 119.228 284.53 119.321 284.335C119.412 284.14 119.267 283.869 118.996 283.731C118.338 283.392 114.477 281.387 111.139 278.949C107.985 276.646 105.342 273.906 104.971 273.499C108.945 272.734 117.913 270.732 126.611 268.23C135.536 265.665 144.181 262.596 147.261 261.43C164.436 262.609 181.684 262.263 198.799 260.736C199.103 260.709 199.332 260.512 199.314 260.298C199.296 260.084 199.036 259.928 198.732 259.951C182.663 261.159 166.509 261.33 150.456 260.175C150.902 259.999 159.503 257.167 174.464 248.814C189.727 240.294 197.01 232.679 198.245 231.628C197.89 230.247 195.903 224.108 192.662 215.6C189.422 207.091 185.282 197.594 184.018 194.692C183.897 194.413 183.636 194.252 183.435 194.331C183.235 194.413 183.159 194.708 183.262 194.995C184.398 198.093 187.963 208.045 190.643 216.428C193.099 224.106 194.32 229.247 194.738 230.602C193.242 231.935 187.924 237.51 173.225 246.425C162.13 253.156 149.156 258.193 145.345 259.759C138.967 259.206 129.44 258.06 117.227 255.643C104.932 253.212 95.5042 249.949 91.5388 248.36C87.8917 238.713 85.1908 228.722 83.0804 218.614C81.2508 209.64 79.8992 200.566 78.9442 191.448C79.6503 190.408 88.578 177.302 97.7006 165.337C105.739 154.791 114.054 145.252 115.294 143.899C115.294 143.899 141.189 157.622 169.034 169.147C201.312 182.507 219.686 188.249 234.214 191.712C243.715 179.951 251.298 168.356 257.697 157.375C264.097 146.394 268.295 136.171 270.098 131.529C270.594 133.487 271.065 135.449 271.493 137.423C273.652 147.443 274.928 157.671 275.012 167.932C275.097 178.005 274.019 188.106 271.601 197.905C271.528 198.2 271.637 198.485 271.845 198.54C272.053 198.594 272.288 198.4 272.366 198.106C274.989 188.284 276.272 178.111 276.377 167.934C276.49 157.568 275.396 147.203 273.405 137.029C272.813 134.031 272.136 131.051 271.395 128.086C272.127 126.075 275.508 117.006 277.576 106.155C278.299 102.366 278.867 98.3068 279.081 94.3502C280.53 95.2699 281.23 95.8019 283.355 97.7836C285.481 99.7674 288.358 103.387 288.81 103.981C288.994 104.223 289.284 104.32 289.46 104.195C289.638 104.072 289.642 103.767 289.47 103.516Z" fill="url(#paint1_linear)"/>
</g>
</g>
<defs>
<linearGradient id="paint0_linear" x1="266.956" y1="10.8251" x2="12.4814" y2="106.891" gradientUnits="userSpaceOnUse">
<stop offset="0.317708" stop-color="#C4C4C4"/>
<stop offset="1" stop-color="#C4C4C4" stop-opacity="0"/>
</linearGradient>
<linearGradient id="paint1_linear" x1="75.9876" y1="-170.45" x2="409.117" y2="-65.3928" gradientUnits="userSpaceOnUse">
<stop stop-color="#58EDDF"/>
<stop offset="0.497279" stop-color="#215CDE"/>
<stop offset="1" stop-color="#8D18CC"/>
</linearGradient>
</defs>
</svg>
