<svg width="585" height="239" viewBox="0 0 585 239" fill="none" xmlns="http://www.w3.org/2000/svg">
<g opacity="0.7" filter="url(#filter0_f)">
<ellipse cx="291.536" cy="110.588" rx="145.536" ry="33.4656" fill="#0B32E3"/>
</g>
<g filter="url(#filter1_d)">
<path d="M187.927 87.757C198.247 84.4038 203.895 73.3194 200.542 62.9992C197.189 52.6791 186.104 47.0313 175.784 50.3845C165.464 53.7377 159.816 64.8222 163.169 75.1423C166.522 85.4625 177.607 91.1103 187.927 87.757Z" fill="url(#paint0_radial)"/>
<g style="mix-blend-mode:multiply">
<path fill-rule="evenodd" clip-rule="evenodd" d="M196.155 82.5508C194.388 83.9371 192.353 85.0423 190.093 85.7766C179.773 89.1298 168.688 83.4819 165.335 73.1618C163.038 66.0932 164.964 58.666 169.722 53.6101C163.422 58.5553 160.55 67.0819 163.169 75.1422C166.522 85.4624 177.607 91.11 187.927 87.7568C191.178 86.7003 193.966 84.8766 196.155 82.5508Z" fill="#00004B" fill-opacity="0.16"/>
</g>
<path d="M182.909 58.7748C183.795 57.6648 186.372 55.7554 189.753 58.3124C188.534 57.8156 185.459 57.2125 182.909 58.7748Z" fill="#00004B"/>
<path d="M183.885 66.4774C184.883 63.6943 188.414 63.6091 191.9 64.3311C191.1 63.0663 190.276 62.1995 189.471 61.6529C185.913 59.2354 182.75 63.0854 183.885 66.4774Z" fill="#00004B"/>
<path d="M174.798 61.4102C173.428 61.0333 170.22 61.0035 168.988 65.0593C169.682 63.941 171.816 61.6456 174.798 61.4102Z" fill="#00004B"/>
<path d="M178.535 68.2153C176.092 66.5507 173.185 68.5571 170.789 71.1903C170.693 69.6971 170.85 68.5112 171.18 67.5962C172.637 63.5489 177.46 64.8043 178.535 68.2153Z" fill="#00004B"/>
<path fill-rule="evenodd" clip-rule="evenodd" d="M175.59 75.6385C175.889 75.4016 176.322 75.4734 176.559 75.7989C178.291 78.1833 181.502 78.8324 184.275 78.0068C187.036 77.1851 189.228 74.9298 189.801 71.378C189.865 70.9841 190.221 70.7321 190.596 70.8152C190.972 70.8983 191.225 71.2851 191.161 71.6791C190.492 75.8318 187.912 78.4541 184.729 79.4018C181.558 80.3457 177.655 79.656 175.477 76.6569C175.241 76.3314 175.291 75.8754 175.59 75.6385Z" fill="#00004B"/>
<path d="M176.517 52.797C178.955 52.0046 180.31 49.4468 179.542 47.084C178.775 44.7213 176.175 43.4483 173.736 44.2407C171.298 45.0331 169.943 47.5909 170.71 49.9537C171.478 52.3165 174.078 53.5895 176.517 52.797Z" fill="url(#paint1_radial)"/>
<path d="M174.555 47.1178C164.719 50.3139 159.176 60.3868 162.175 69.6164C173.761 58.7642 181.669 56.526 197.795 58.0426C194.796 48.813 184.391 43.9218 174.555 47.1178Z" fill="url(#paint2_radial)"/>
<path d="M162.682 73.1398C161.274 72.5641 161.17 64.523 161.567 64.0753C172.646 51.5914 188.447 51.6396 194.963 53.2243C196.798 54.4362 200.203 60.6903 199.68 61.6351C181.872 57.917 167.595 67.7557 162.682 73.1398Z" fill="#6C6A63" fill-opacity="0.16"/>
<path d="M162.397 72.2639C160.99 71.6882 160.886 63.647 161.283 63.1993C172.361 50.7154 188.163 50.7637 194.679 52.3484C196.513 53.5601 199.918 59.8143 199.395 60.7591C181.587 57.041 167.31 66.8797 162.397 72.2639Z" fill="url(#paint3_radial)"/>
<path fill-rule="evenodd" clip-rule="evenodd" d="M179.517 55.4357L180.102 57.2363C180.301 57.8471 179.848 59.2675 178.589 60.5258L176.944 55.4647L179.517 55.4357ZM174.846 56.9535L175.431 58.7543C175.629 59.3651 176.83 60.2484 178.589 60.5258L176.944 55.4648L174.846 56.9535Z" fill="#00004B"/>
<path d="M161.283 63.1994C172.361 50.7155 188.163 50.7638 194.679 52.3484" stroke="white" stroke-opacity="0.2" stroke-width="0.701267"/>
</g>
<g filter="url(#filter2_d)">
<path d="M120.756 168.671C134.451 170.84 147.311 161.497 149.48 147.802C151.649 134.107 142.306 121.247 128.611 119.078C114.916 116.909 102.056 126.253 99.8871 139.947C97.7181 153.642 107.062 166.502 120.756 168.671Z" fill="url(#paint4_radial)"/>
<g style="mix-blend-mode:multiply">
<path fill-rule="evenodd" clip-rule="evenodd" d="M133.144 167.517C130.328 168.071 127.37 168.148 124.371 167.673C110.676 165.504 101.333 152.644 103.502 138.949C104.987 129.569 111.489 122.23 119.838 119.234C109.797 121.21 101.581 129.251 99.887 139.947C97.718 153.642 107.061 166.502 120.756 168.671C125.071 169.354 129.303 168.895 133.144 167.517Z" fill="#00004B" fill-opacity="0.16"/>
</g>
<path d="M122.33 155.98C116.998 155.135 112.941 150.827 112.364 145.549L112.254 144.535L135.449 148.209L135.031 149.139C132.852 153.981 127.663 156.824 122.33 155.98Z" fill="#00004B"/>
<mask id="mask0" mask-type="alpha" maskUnits="userSpaceOnUse" x="113" y="146" width="20" height="10">
<path fill-rule="evenodd" clip-rule="evenodd" d="M122.653 154.193C118.233 153.492 114.997 150.331 114.362 146.708L132.852 149.636C131.129 152.886 127.074 154.893 122.653 154.193Z" fill="white"/>
</mask>
<g mask="url(#mask0)">
<path d="M121.531 161.02C123.731 161.368 125.799 159.852 126.15 157.634C126.501 155.416 125.003 153.336 122.804 152.987C120.604 152.639 118.536 154.155 118.185 156.373C117.834 158.591 119.332 160.671 121.531 161.02Z" fill="#F55B58"/>
<rect x="112.761" y="140.189" width="25.1096" height="7.34484" transform="rotate(9 112.761 140.189)" fill="white"/>
</g>
<path d="M111.836 130.024C113.052 128.45 116.48 126.272 120.465 130.16C118.989 129.41 115.197 128.333 111.836 130.024Z" fill="#00004B"/>
<path d="M111.135 139.335C110.634 134.168 119.126 130.187 121.112 139.063C118.479 135.292 114.513 135.067 111.135 139.335Z" fill="#00004B"/>
<path d="M131.913 132.126C133.532 130.969 137.443 129.876 140.133 134.75C138.938 133.605 135.619 131.478 131.913 132.126Z" fill="#00004B"/>
<path d="M128.419 140.217C129.503 135.311 137.583 133.751 137.874 143.112C135.853 139.288 132.231 137.155 128.419 140.217Z" fill="#00004B"/>
<rect x="97.4846" y="113.807" width="59.1697" height="10.7577" rx="5.37887" transform="rotate(9 97.4846 113.807)" fill="#383838" fill-opacity="0.15"/>
<rect x="96.2898" y="111.09" width="65.4773" height="12.4719" rx="6.23593" transform="rotate(9 96.2898 111.09)" fill="#F59B05"/>
<rect x="109.537" y="113.188" width="12.8616" height="12.4719" transform="rotate(9 109.537 113.188)" fill="#711533"/>
<rect x="134.701" y="117.174" width="12.8616" height="12.4719" transform="rotate(9 134.701 117.174)" fill="#711533"/>
<path d="M161.073 136.912L159.864 124.711C158.931 128.714 155.254 130.208 152.73 132.922C150.711 135.093 149.808 139.725 149.49 142.047L156.814 148.693C157.387 145.077 159.424 139.765 161.073 136.912Z" fill="#383838" fill-opacity="0.15"/>
<path d="M161.34 137.744L160.132 125.542C159.198 129.546 155.521 131.039 152.998 133.753C150.978 135.924 150.075 140.556 149.757 142.878L157.081 149.524C157.653 145.908 159.692 140.596 161.34 137.744Z" fill="#711533"/>
<path d="M151.93 129.987C148.167 129.391 145.594 125.892 146.183 122.171C146.772 118.451 150.301 115.918 154.064 116.514C157.827 117.11 160.4 120.609 159.811 124.33C159.222 128.05 155.693 130.583 151.93 129.987Z" fill="#D08A01"/>
<mask id="mask1" mask-type="alpha" maskUnits="userSpaceOnUse" x="145" y="115" width="16" height="17">
<path fill-rule="evenodd" clip-rule="evenodd" d="M151.93 129.987C148.167 129.391 145.594 125.892 146.183 122.171C146.772 118.451 150.301 115.918 154.064 116.514C157.827 117.11 160.4 120.609 159.811 124.33C159.222 128.05 155.693 130.583 151.93 129.987Z" fill="white"/>
</mask>
<g mask="url(#mask1)">
<path d="M154.455 128.743C150.692 128.147 148.119 124.647 148.708 120.927C149.297 117.206 152.826 114.674 156.589 115.27C160.352 115.866 162.926 119.365 162.336 123.085C161.747 126.806 158.219 129.339 154.455 128.743Z" fill="#FFD847"/>
</g>
<path d="M91.4036 125.878L96.2886 114.641C95.9356 118.737 98.933 121.288 100.471 124.645C101.702 127.331 101.128 132.014 100.713 134.321L91.7875 138.394C92.3602 134.778 92.0766 129.098 91.4036 125.878Z" fill="#383838" fill-opacity="0.15"/>
<path d="M90.8966 126.587L95.7816 115.35C95.4291 119.446 98.4261 121.996 99.9644 125.354C101.196 128.04 100.621 132.724 100.207 135.03L91.2805 139.102C91.8533 135.486 91.5696 129.807 90.8966 126.587Z" fill="#711533"/>
<path d="M102.125 122.099C105.845 122.688 109.339 120.149 109.928 116.429C110.518 112.708 107.979 109.215 104.259 108.625C100.538 108.036 97.0446 110.575 96.4553 114.295C95.8661 118.016 98.4044 121.509 102.125 122.099Z" fill="#D08A01"/>
<mask id="mask2" mask-type="alpha" maskUnits="userSpaceOnUse" x="96" y="108" width="15" height="15">
<path fill-rule="evenodd" clip-rule="evenodd" d="M102.125 122.099C105.845 122.688 109.339 120.149 109.928 116.429C110.518 112.708 107.979 109.215 104.259 108.625C100.538 108.036 97.0446 110.575 96.4553 114.295C95.8661 118.016 98.4044 121.509 102.125 122.099Z" fill="white"/>
</mask>
<g mask="url(#mask2)">
<path d="M100.133 120.139C103.854 120.728 107.348 118.19 107.937 114.469C108.526 110.749 105.988 107.255 102.267 106.666C98.5468 106.077 95.053 108.615 94.4638 112.335C93.8745 116.056 96.4129 119.55 100.133 120.139Z" fill="#FFD847"/>
</g>
</g>
<g filter="url(#filter3_d)">
<path d="M75.0563 81.5689C82.8171 80.4782 88.2242 73.3027 87.1335 65.542C86.0428 57.7812 78.8673 52.3741 71.1066 53.4648C63.3458 54.5555 57.9387 61.731 59.0294 69.4918C60.1201 77.2525 67.2956 82.6596 75.0563 81.5689Z" fill="url(#paint5_radial)"/>
<g style="mix-blend-mode:multiply">
<path fill-rule="evenodd" clip-rule="evenodd" d="M81.5612 78.8979C80.131 79.6625 78.5445 80.1932 76.8451 80.432C69.0844 81.5228 61.9089 76.1156 60.8182 68.3548C60.0711 63.0392 62.3724 57.9982 66.3905 54.9989C61.2893 57.7261 58.1775 63.4304 59.0293 69.4918C60.1201 77.2525 67.2955 82.6595 75.0563 81.5688C77.5014 81.2252 79.7129 80.2777 81.5612 78.8979Z" fill="#00004B" fill-opacity="0.16"/>
</g>
<path d="M73.8096 74.4487C70.7879 74.8734 67.8833 73.2152 66.6995 70.4578L66.472 69.928L79.6168 68.0806L79.5443 68.6526C79.1667 71.6294 76.8317 74.024 73.8096 74.4487Z" fill="#00004B"/>
<mask id="mask3" mask-type="alpha" maskUnits="userSpaceOnUse" x="67" y="69" width="12" height="5">
<path fill-rule="evenodd" clip-rule="evenodd" d="M73.6893 73.4294C71.1842 73.7814 68.9126 72.6074 67.9705 70.7539L78.4492 69.2812C78.0544 71.3226 76.1944 73.0773 73.6893 73.4294Z" fill="white"/>
</mask>
<g mask="url(#mask3)">
<path d="M74.211 77.305C75.4575 77.1298 76.3247 75.9689 76.1481 74.7119C75.9714 73.4549 74.8178 72.5779 73.5713 72.7531C72.3249 72.9283 71.4576 74.0893 71.6343 75.3463C71.8109 76.6032 72.9646 77.4802 74.211 77.305Z" fill="#F55B58"/>
<rect x="66.0276" y="67.4949" width="14.1924" height="4.15143" transform="rotate(-8 66.0276 67.4949)" fill="white"/>
</g>
<path d="M63.8481 62.1537C64.2453 61.1018 65.7384 59.3581 68.535 60.8012C67.6132 60.6396 65.3855 60.6842 63.8481 62.1537Z" fill="#00004B"/>
<path d="M65.0078 67.3022C63.8833 64.5919 67.8156 61.037 70.3559 65.5062C68.3094 63.9031 66.1284 64.4369 65.0078 67.3022Z" fill="#00004B"/>
<path d="M75.0474 59.9715C75.7313 59.0791 77.6647 57.8416 79.9242 60.0316C79.0888 59.6104 76.9434 59.009 75.0474 59.9715Z" fill="#00004B"/>
<path d="M74.4961 64.9225C74.2716 62.0917 78.3808 59.9133 80.0851 64.9247C78.361 63.1916 76.0504 62.6377 74.4961 64.9225Z" fill="#00004B"/>
<rect x="53.4113" y="55.7595" width="33.4437" height="6.08047" rx="3.04023" transform="rotate(-8 53.4113 55.7595)" fill="#383838" fill-opacity="0.15"/>
<rect x="52.3164" y="54.488" width="37.0089" height="7.04931" rx="3.52465" transform="rotate(-8 52.3164 54.488)" fill="white"/>
<rect x="59.8238" y="53.433" width="7.26959" height="7.04931" transform="rotate(-8 59.8238 53.433)" fill="#EE0208"/>
<rect x="74.0835" y="51.429" width="7.26959" height="7.04931" transform="rotate(-8 74.0835 51.429)" fill="#EE0208"/>
<path d="M91.5999 57.74L88.9304 51.3445C89.0876 53.6627 87.3469 55.0779 86.4313 56.9619C85.6987 58.4691 85.976 61.1216 86.1879 62.4293L91.2448 64.8115C90.9568 62.7623 91.1803 59.5543 91.5999 57.74Z" fill="#383838" fill-opacity="0.15"/>
<path d="M91.8819 58.1454L89.2124 51.7496C89.3696 54.0682 87.6288 55.483 86.7133 57.367C85.9806 58.8742 86.2577 61.5271 86.4695 62.8345L91.5265 65.2166C91.2385 63.1674 91.4623 59.9595 91.8819 58.1454Z" fill="#EE0208"/>
<path d="M85.514 55.5075C83.3813 55.8073 81.4123 54.3411 81.116 52.2327C80.8196 50.1243 82.3083 48.1721 84.4409 47.8724C86.5735 47.5727 88.5426 49.0389 88.8389 51.1473C89.1352 53.2557 87.6466 55.2078 85.514 55.5075Z" fill="#D08A01"/>
<mask id="mask4" mask-type="alpha" maskUnits="userSpaceOnUse" x="81" y="47" width="8" height="9">
<path fill-rule="evenodd" clip-rule="evenodd" d="M85.5139 55.5077C83.3813 55.8074 81.4123 54.3412 81.116 52.2328C80.8196 50.1244 82.3083 48.1722 84.4409 47.8725C86.5735 47.5728 88.5426 49.039 88.8389 51.1474C89.1352 53.2558 87.6466 55.2079 85.5139 55.5077Z" fill="white"/>
</mask>
<g mask="url(#mask4)">
<path d="M86.6732 54.4178C84.5406 54.7175 82.5715 53.2513 82.2752 51.1429C81.9789 49.0346 83.4675 47.0824 85.6002 46.7827C87.7328 46.483 89.7018 47.9492 89.9982 50.0576C90.2945 52.1659 88.8059 54.1181 86.6732 54.4178Z" fill="#FFD847"/>
</g>
<path d="M52.119 63.2887L52.9026 56.4079C53.3886 58.6799 55.4304 59.5634 56.8166 61.124C57.926 62.3723 58.3893 64.9987 58.5464 66.3141L54.3949 69.9904C54.1069 67.9412 53.015 64.9181 52.119 63.2887Z" fill="#383838" fill-opacity="0.15"/>
<path d="M51.9622 63.7558L52.7457 56.8747C53.232 59.147 55.2734 60.0302 56.6597 61.5908C57.769 62.8391 58.2327 65.4658 58.3898 66.7809L54.2379 70.4572C53.9499 68.408 52.8581 65.3853 51.9622 63.7558Z" fill="#EE0208"/>
<path d="M57.2894 59.4742C59.3978 59.1779 60.8667 57.2285 60.5704 55.1201C60.2741 53.0117 58.3247 51.5428 56.2163 51.8391C54.108 52.1354 52.639 54.0848 52.9353 56.1932C53.2316 58.3016 55.181 59.7705 57.2894 59.4742Z" fill="#D08A01"/>
<mask id="mask5" mask-type="alpha" maskUnits="userSpaceOnUse" x="52" y="51" width="9" height="9">
<path fill-rule="evenodd" clip-rule="evenodd" d="M57.2894 59.4742C59.3978 59.1779 60.8667 57.2285 60.5704 55.1201C60.2741 53.0117 58.3247 51.5428 56.2163 51.8391C54.108 52.1354 52.639 54.0848 52.9353 56.1932C53.2316 58.3016 55.181 59.7705 57.2894 59.4742Z" fill="white"/>
</mask>
<g mask="url(#mask5)">
<path d="M55.8891 58.7441C57.9975 58.4478 59.4665 56.4984 59.1701 54.39C58.8738 52.2816 56.9244 50.8127 54.816 51.109C52.7077 51.4053 51.2387 53.3547 51.535 55.4631C51.8313 57.5715 53.7807 59.0404 55.8891 58.7441Z" fill="#FFD847"/>
</g>
</g>
<g filter="url(#filter4_d)">
<path d="M413.197 91.4988C424.927 94.38 436.772 87.2062 439.654 75.4758C442.535 63.7453 435.361 51.9003 423.631 49.0191C411.9 46.1379 400.055 53.3116 397.174 65.0421C394.293 76.7725 401.466 88.6176 413.197 91.4988Z" fill="url(#paint6_radial)"/>
<g style="mix-blend-mode:multiply">
<path fill-rule="evenodd" clip-rule="evenodd" d="M424.035 91.3997C421.551 91.6752 418.976 91.5266 416.408 90.8957C404.677 88.0146 397.504 76.1694 400.385 64.439C402.358 56.4044 408.537 50.5075 416.004 48.515C407.143 49.4981 399.424 55.8803 397.174 65.0421C394.293 76.7726 401.467 88.6174 413.197 91.4986C416.893 92.4064 420.6 92.3163 424.035 91.3997Z" fill="#00004B" fill-opacity="0.16"/>
</g>
<mask id="mask6" mask-type="alpha" maskUnits="userSpaceOnUse" x="413" y="72" width="7" height="12">
<path fill-rule="evenodd" clip-rule="evenodd" d="M415.168 83.0184C416.924 83.4497 418.93 81.4267 419.649 78.4998C420.368 75.5729 419.527 72.8505 417.771 72.4192C416.015 71.9879 414.008 74.0109 413.29 76.9378C412.571 79.8647 413.412 82.5871 415.168 83.0184Z" fill="white"/>
</mask>
<g mask="url(#mask6)">
<path d="M415.18 83.0212C417.651 83.6281 420.349 81.2911 421.206 77.8014C422.063 74.3116 420.755 70.9906 418.284 70.3836C415.813 69.7767 413.115 72.1137 412.258 75.6035C411.401 79.0932 412.709 82.4143 415.18 83.0212Z" fill="#00004B"/>
<path d="M413.924 88.6779C416.395 89.2848 418.889 87.7783 419.495 85.313C420.1 82.8476 418.588 80.357 416.117 79.7501C413.646 79.1431 411.152 80.6497 410.546 83.115C409.941 85.5804 411.453 88.071 413.924 88.6779Z" fill="#D13A37"/>
</g>
<path d="M409.802 57.5966C410.729 56.6094 413.699 54.6813 417.038 55.9589C416.959 54.5623 412.223 53.2575 409.802 57.5966Z" fill="#00004B"/>
<path d="M412.656 67.5102C414.192 67.8876 415.852 66.5071 416.363 64.4267C416.874 62.3463 416.043 60.3539 414.506 59.9765C412.969 59.599 411.31 60.9796 410.799 63.06C410.288 65.1404 411.119 67.1328 412.656 67.5102Z" fill="#00004B"/>
<path d="M432.246 63.0428C431.882 61.7385 430.143 58.654 426.593 58.2395C427.309 57.0381 432.111 58.0759 432.246 63.0428Z" fill="#00004B"/>
<path d="M425.125 70.5066C423.588 70.1292 422.757 68.1368 423.268 66.0564C423.779 63.976 425.439 62.5955 426.975 62.9729C428.512 63.3503 429.343 65.3427 428.832 67.4231C428.321 69.5035 426.661 70.8841 425.125 70.5066Z" fill="#00004B"/>
<rect width="9.58823" height="7.13325" transform="matrix(-0.924162 -0.382001 -0.382 0.924162 445.338 73.6765)" fill="#383838" fill-opacity="0.15"/>
<rect width="0.275261" height="12.6619" transform="matrix(-0.924162 -0.382 -0.382001 0.924162 436.728 69.9889)" fill="#383838" fill-opacity="0.15"/>
<rect width="9.58822" height="7.13324" transform="matrix(-0.924162 -0.382001 -0.382 0.924162 444.935 72.5905)" fill="#034694"/>
<rect width="0.275259" height="12.6619" transform="matrix(-0.924162 -0.382002 -0.382 0.924162 436.324 68.9034)" fill="#EEEEEE"/>
<path d="M428.249 91.6979C424.957 91.554 422.405 88.7685 422.549 85.4762C422.693 82.1839 425.478 79.6316 428.77 79.7755C432.063 79.9193 434.615 82.7048 434.471 85.9971C434.327 89.2894 431.542 91.8417 428.249 91.6979Z" fill="#D08A01"/>
<mask id="mask7" mask-type="alpha" maskUnits="userSpaceOnUse" x="422" y="79" width="13" height="13">
<path fill-rule="evenodd" clip-rule="evenodd" d="M428.249 91.6979C424.957 91.5541 422.405 88.7685 422.548 85.4762C422.692 82.1839 425.478 79.6316 428.77 79.7755C432.062 79.9193 434.615 82.7048 434.471 85.9971C434.327 89.2894 431.542 91.8417 428.249 91.6979Z" fill="white"/>
</mask>
<g mask="url(#mask7)">
<path d="M430.298 90.3655C427.006 90.2217 424.454 87.4361 424.597 84.1438C424.741 80.8516 427.527 78.2992 430.819 78.4431C434.111 78.5869 436.664 81.3724 436.52 84.6647C436.376 87.957 433.59 90.5093 430.298 90.3655Z" fill="#FFD847"/>
</g>
<rect x="395.014" y="60.8835" width="9.58822" height="7.13323" transform="rotate(5.14143 395.014 60.8835)" fill="#383838" fill-opacity="0.15"/>
<rect x="404.353" y="61.6052" width="0.275259" height="12.6619" transform="rotate(5.14147 404.353 61.6052)" fill="#383838" fill-opacity="0.15"/>
<rect x="394.512" y="60.0564" width="9.58823" height="7.13324" transform="rotate(5.14145 394.512 60.0564)" fill="#034694"/>
<rect width="0.275262" height="12.6619" transform="matrix(0.995976 0.089616 -0.0896138 0.995977 403.852 60.7782)" fill="#EEEEEE"/>
<path d="M400.447 84.7204C403.432 86.1181 406.984 84.832 408.382 81.8477C409.78 78.8634 408.494 75.311 405.509 73.9133C402.525 72.5155 398.973 73.8016 397.575 76.7859C396.177 79.7702 397.463 83.3226 400.447 84.7204Z" fill="#D08A01"/>
<mask id="mask8" mask-type="alpha" maskUnits="userSpaceOnUse" x="397" y="73" width="12" height="13">
<path fill-rule="evenodd" clip-rule="evenodd" d="M400.447 84.7204C403.432 86.1181 406.984 84.832 408.382 81.8477C409.78 78.8634 408.494 75.311 405.509 73.9133C402.525 72.5155 398.973 73.8016 397.575 76.7859C396.177 79.7702 397.463 83.3226 400.447 84.7204Z" fill="white"/>
</mask>
<g mask="url(#mask8)">
<path d="M399.249 82.5901C402.234 83.9879 405.786 82.7018 407.184 79.7175C408.581 76.7332 407.295 73.1808 404.311 71.783C401.327 70.3852 397.774 71.6713 396.377 74.6556C394.979 77.6399 396.265 81.1923 399.249 82.5901Z" fill="#FFD847"/>
</g>
</g>
<g filter="url(#filter5_d)">
<path d="M498.532 74.2926C506.425 77.1386 515.131 73.0472 517.977 65.1542C520.823 57.2611 516.732 48.5554 508.839 45.7093C500.946 42.8632 492.24 46.9546 489.394 54.8477C486.548 62.7407 490.639 71.4465 498.532 74.2926Z" fill="url(#paint7_radial)"/>
<g style="mix-blend-mode:multiply">
<path fill-rule="evenodd" clip-rule="evenodd" d="M506.026 75.0146C504.289 75.0237 502.522 74.7333 500.794 74.11C492.901 71.264 488.809 62.5582 491.655 54.6651C493.605 49.2589 498.303 45.6361 503.606 44.8045C497.414 44.8372 491.616 48.6828 489.393 54.8475C486.547 62.7406 490.639 71.4462 498.532 74.2923C501.019 75.189 503.586 75.3972 506.026 75.0146Z" fill="#00004B" fill-opacity="0.16"/>
</g>
<path d="M509.211 54.2122C510.279 53.9546 512.758 54.0107 513.61 57.1756C513.102 56.2942 511.51 54.4676 509.211 54.2122Z" fill="#00004B"/>
<path d="M506.154 59.3793C508.084 58.153 510.281 59.7754 512.067 61.8695C512.179 60.7179 512.086 59.7975 511.854 59.0822C510.828 55.9183 507.07 56.7696 506.154 59.3793Z" fill="#00004B"/>
<path d="M503.008 51.9754C502.35 51.0957 500.405 49.5564 497.729 51.4492C498.683 51.0953 501.075 50.705 503.008 51.9754Z" fill="#00004B"/>
<path d="M502.063 57.904C501.36 55.7285 498.633 55.5756 495.921 56.0476C496.571 55.0898 497.229 54.4403 497.864 54.0377C500.674 52.2571 503.024 55.3106 502.063 57.904Z" fill="#00004B"/>
<path fill-rule="evenodd" clip-rule="evenodd" d="M496.744 61.0407C497.039 61.0377 497.27 61.2873 497.26 61.5983C497.186 63.8757 498.84 65.7951 500.925 66.606C503.001 67.413 505.409 67.0755 507.443 65.1779C507.669 64.9674 508.006 64.9823 508.196 65.2112C508.386 65.4402 508.357 65.7964 508.132 66.0069C505.753 68.2256 502.934 68.6038 500.541 67.6729C498.157 66.7459 496.1 64.4738 496.192 61.6092C496.202 61.2982 496.449 61.0437 496.744 61.0407Z" fill="#00004B"/>
<path d="M508.141 47.53C510.007 48.2025 512.047 47.2828 512.699 45.4758C513.35 43.6687 512.366 41.6585 510.501 40.9859C508.636 40.3133 506.595 41.233 505.944 43.0401C505.292 44.8472 506.276 46.8574 508.141 47.53Z" fill="url(#paint8_radial)"/>
<path d="M509.637 43.1313C502.114 40.4186 493.952 43.942 491.406 51.001C503.629 49.8676 509.52 52.2509 518.65 60.8243C521.195 53.7654 517.16 45.844 509.637 43.1313Z" fill="url(#paint9_radial)"/>
<path d="M490.046 53.3936C489.459 52.3744 493.209 47.414 493.664 47.329C506.35 44.9583 515.977 52.4811 519.205 56.5389C519.751 58.1489 518.865 63.5833 518.097 63.9122C508.985 53.1967 495.599 52.435 490.046 53.3936Z" fill="#6C6A63" fill-opacity="0.16"/>
<path d="M490.287 52.7235C489.701 51.7044 493.45 46.744 493.905 46.659C506.591 44.2882 516.219 51.811 519.447 55.8688C519.993 57.4789 519.107 62.9133 518.339 63.2421C509.226 52.5267 495.841 51.7649 490.287 52.7235Z" fill="url(#paint10_radial)"/>
<path fill-rule="evenodd" clip-rule="evenodd" d="M508.723 50.5646L508.226 51.9417C508.058 52.4089 507.108 53.0618 505.742 53.2329L507.138 49.3621L508.723 50.5646ZM505.15 49.2762L504.653 50.6534C504.485 51.1206 504.799 52.2294 505.742 53.2329L507.137 49.3622L505.15 49.2762Z" fill="#00004B"/>
</g>
<g opacity="0.3" filter="url(#filter6_f)">
<path fill-rule="evenodd" clip-rule="evenodd" d="M293.705 203.789C323.793 203.789 348.184 202.395 348.184 200.676C348.184 198.957 323.793 197.563 293.705 197.563C263.617 197.563 239.226 198.957 239.226 200.676C239.226 202.395 263.617 203.789 293.705 203.789Z" fill="#000533"/>
</g>
<g opacity="0.3" filter="url(#filter7_f)">
<path fill-rule="evenodd" clip-rule="evenodd" d="M298.373 210.016C319.864 210.016 337.286 205.834 337.286 200.677C337.286 195.519 319.864 191.337 298.373 191.337C276.882 191.337 259.459 195.519 259.459 200.677C259.459 205.834 276.882 210.016 298.373 210.016Z" fill="#000533"/>
</g>
<g filter="url(#filter8_d)">
<path d="M293.852 171.996C319.775 171.996 340.789 150.982 340.789 125.06C340.789 99.1372 319.775 78.1229 293.852 78.1229C267.93 78.1229 246.916 99.1372 246.916 125.06C246.916 150.982 267.93 171.996 293.852 171.996Z" fill="url(#paint11_radial)"/>
<g style="mix-blend-mode:multiply">
<path fill-rule="evenodd" clip-rule="evenodd" d="M316.389 166.242C311.352 168.088 305.911 169.096 300.235 169.096C274.313 169.096 253.298 148.081 253.298 122.159C253.298 104.404 263.157 88.9512 277.699 80.9766C259.734 87.5612 246.916 104.813 246.916 125.06C246.916 150.982 267.93 171.996 293.852 171.996C302.019 171.996 309.7 169.91 316.389 166.242Z" fill="#00004B" fill-opacity="0.16"/>
</g>
<path d="M293.046 148.1C282.953 148.1 274.202 141.331 271.594 131.755L271.093 129.915H314.999L314.498 131.755C311.891 141.331 303.14 148.1 293.046 148.1Z" fill="#00004B"/>
<mask id="mask9" mask-type="alpha" maskUnits="userSpaceOnUse" x="275" y="133" width="36" height="12">
<path fill-rule="evenodd" clip-rule="evenodd" d="M293.121 144.706C284.754 144.706 277.854 139.815 275.621 133.31H310.622C308.389 139.815 301.489 144.706 293.121 144.706Z" fill="white"/>
</mask>
<g mask="url(#mask9)">
<path d="M293.046 157.64C297.209 157.64 300.585 154.237 300.585 150.038C300.585 145.84 297.209 142.436 293.046 142.436C288.883 142.436 285.508 145.84 285.508 150.038C285.508 154.237 288.883 157.64 293.046 157.64Z" fill="#F55B58"/>
<rect x="270.758" y="121.74" width="46.944" height="13.7316" fill="white"/>
</g>
<path d="M266.077 103.242C267.862 99.9791 273.555 94.955 282.051 100.969C279.106 100.016 271.789 99.1362 266.077 103.242Z" fill="#00004B"/>
<path d="M267.505 120.64C265.07 111.244 279.586 101.411 285.85 117.219C279.884 111.026 272.495 111.77 267.505 120.64Z" fill="#00004B"/>
<path d="M303.765 101.25C306.416 98.6414 313.319 95.4779 319.712 103.692C317.169 101.927 310.419 98.9698 303.765 101.25Z" fill="#00004B"/>
<path d="M299.68 117.213C300.248 107.837 314.711 102.594 317.986 119.793C313.137 113.322 305.823 110.444 299.68 117.213Z" fill="#00004B"/>
<rect x="234.834" y="77.4933" width="110.622" height="20.1123" rx="9.61575" fill="#383838" fill-opacity="0.15"/>
<rect x="231.833" y="72.8248" width="122.414" height="23.3169" rx="11.1479" fill="#004D98"/>
<rect x="256.909" y="72.8248" width="24.0456" height="23.3169" fill="#A50044"/>
<rect x="304.54" y="72.8248" width="24.0455" height="23.3169" fill="#A50044"/>
<path d="M359.01 101.56L353.21 79.3831C352.658 87.0488 346.304 90.8827 342.438 96.6325C339.345 101.232 339.032 110.048 339.124 114.429L354.591 124.56C354.591 117.715 356.8 107.31 359.01 101.56Z" fill="#383838" fill-opacity="0.15"/>
<path d="M359.747 103.018L353.947 80.8398C353.395 88.5066 347.042 92.3395 343.175 98.0893C340.082 102.689 339.768 111.506 339.86 115.886L355.327 126.016C355.327 119.172 357.537 108.767 359.747 103.018Z" fill="#A50044"/>
<path d="M340.103 91.4464C332.979 91.4464 327.205 85.7373 327.205 78.6949C327.205 71.6525 332.979 65.9435 340.103 65.9435C347.226 65.9435 353.001 71.6525 353.001 78.6949C353.001 85.7373 347.226 91.4464 340.103 91.4464Z" fill="#D08A01"/>
<mask id="mask10" mask-type="alpha" maskUnits="userSpaceOnUse" x="327" y="65" width="27" height="27">
<path fill-rule="evenodd" clip-rule="evenodd" d="M340.103 91.4464C332.979 91.4464 327.205 85.7373 327.205 78.6949C327.205 71.6525 332.979 65.9435 340.103 65.9435C347.226 65.9435 353.001 71.6525 353.001 78.6949C353.001 85.7373 347.226 91.4464 340.103 91.4464Z" fill="white"/>
</mask>
<g mask="url(#mask10)">
<path d="M344.402 88.4103C337.279 88.4103 331.504 82.7013 331.504 75.6589C331.504 68.6165 337.279 62.9075 344.402 62.9075C351.525 62.9075 357.3 68.6165 357.3 75.6589C357.3 82.7013 351.525 88.4103 344.402 88.4103Z" fill="#FFD847"/>
</g>
<path d="M227.135 101.56L232.87 79.3831C233.415 87.0488 239.697 90.8827 243.519 96.6325C246.578 101.232 246.886 110.048 246.795 114.429L231.505 124.56C231.505 117.715 229.32 107.31 227.135 101.56Z" fill="#383838" fill-opacity="0.15"/>
<path d="M226.406 103.018L232.141 80.8398C232.688 88.5066 238.968 92.3395 242.79 98.0893C245.849 102.689 246.159 111.506 246.068 115.886L230.776 126.016C230.776 119.172 228.591 108.768 226.406 103.018Z" fill="#A50044"/>
<path d="M245.828 91.4464C252.87 91.4464 258.579 85.7373 258.579 78.6949C258.579 71.6525 252.87 65.9435 245.828 65.9435C238.786 65.9435 233.077 71.6525 233.077 78.6949C233.077 85.7373 238.786 91.4464 245.828 91.4464Z" fill="#D08A01"/>
<mask id="mask11" mask-type="alpha" maskUnits="userSpaceOnUse" x="233" y="65" width="26" height="27">
<path fill-rule="evenodd" clip-rule="evenodd" d="M245.828 91.4464C252.87 91.4464 258.579 85.7373 258.579 78.6949C258.579 71.6525 252.87 65.9435 245.828 65.9435C238.786 65.9435 233.077 71.6525 233.077 78.6949C233.077 85.7373 238.786 91.4464 245.828 91.4464Z" fill="white"/>
</mask>
<g mask="url(#mask11)">
<path d="M241.577 88.4103C248.619 88.4103 254.328 82.7013 254.328 75.6589C254.328 68.6165 248.619 62.9075 241.577 62.9075C234.535 62.9075 228.826 68.6165 228.826 75.6589C228.826 82.7013 234.535 88.4103 241.577 88.4103Z" fill="#FFD847"/>
</g>
</g>
<g filter="url(#filter9_d)">
<path d="M470.338 165.536C484.033 173.378 501.492 168.633 509.334 154.938C517.176 141.243 512.431 123.784 498.736 115.942C485.041 108.1 467.582 112.845 459.74 126.54C451.898 140.235 456.643 157.694 470.338 165.536Z" fill="url(#paint12_radial)"/>
<g style="mix-blend-mode:multiply">
<path fill-rule="evenodd" clip-rule="evenodd" d="M483.984 169.313C480.765 168.765 477.586 167.651 474.587 165.934C460.892 158.092 456.147 140.633 463.989 126.938C469.361 117.558 479.244 112.377 489.339 112.563C477.856 110.607 465.865 115.843 459.74 126.54C451.898 140.235 456.643 157.693 470.338 165.535C474.652 168.006 479.341 169.228 483.984 169.313Z" fill="#00004B" fill-opacity="0.16"/>
</g>
<path d="M470.583 151.222C476.078 154.13 480.04 155.633 483.079 155.677C484.642 155.699 485.441 154.867 486.671 152.718C486.916 152.29 486.768 151.744 486.34 151.499C485.912 151.254 485.366 151.402 485.121 151.83C484.212 153.417 483.749 153.9 483.105 153.891C480.439 153.853 476.671 152.423 471.419 149.644C470.983 149.413 470.443 149.579 470.212 150.015C469.981 150.451 470.148 150.992 470.583 151.222Z" fill="#00004B"/>
<path d="M470.164 128.62C472.244 127.764 478.033 126.884 482.098 131.093C482.972 128.932 476.845 123.727 470.164 128.62Z" fill="#00004B"/>
<path d="M477.62 132.1C480.3 133.603 481.697 136.235 480.587 138.172C479.478 140.11 477.791 135.285 477.791 135.285C478.069 133.071 473.262 130.891 470.464 133.462C471.736 131.207 474.94 130.597 477.62 132.1Z" fill="#00004B"/>
<path d="M476.051 138.919C477.762 139.899 479.845 139.479 480.703 137.981C481.561 136.483 480.868 134.475 479.157 133.494C477.445 132.514 475.362 132.934 474.504 134.432C473.646 135.929 474.339 137.938 476.051 138.919Z" fill="#00004B"/>
<path d="M501.076 145.976C500.79 143.745 498.691 138.279 493.022 136.83C494.467 135.001 502.021 137.749 501.076 145.976Z" fill="#00004B"/>
<path d="M495.265 142.773C497.91 144.257 499.277 146.874 498.168 148.812C497.06 150.749 495.417 145.948 495.417 145.948C495.705 143.739 490.96 141.591 488.176 144.171C489.447 141.915 492.621 141.289 495.265 142.773Z" fill="#00004B"/>
<path d="M494.261 149.346C495.973 150.326 498.006 149.994 498.803 148.603C499.599 147.212 498.857 145.29 497.145 144.309C495.433 143.329 493.4 143.662 492.603 145.053C491.807 146.444 492.549 148.366 494.261 149.346Z" fill="#00004B"/>
<mask id="mask12" mask-type="alpha" maskUnits="userSpaceOnUse" x="435" y="137" width="72" height="56">
<path fill-rule="evenodd" clip-rule="evenodd" d="M466.74 177.59C481.23 168.302 494.626 167.598 504.324 174.24C486.972 156.532 436.145 131.351 448.111 142.051C456.704 149.735 464.181 161.219 466.74 177.59Z" fill="white"/>
</mask>
<g mask="url(#mask12)">
<path d="M475.32 156.376L451.19 145.572L462.589 183.503L475.32 156.376Z" fill="#383838" fill-opacity="0.15"/>
<path d="M476.039 157.792L451.908 146.989L463.308 184.919L476.039 157.792Z" fill="#EE0208"/>
<path d="M496.263 171.208L482.394 160.928L459.763 186.541L496.263 171.208Z" fill="#383838" fill-opacity="0.15"/>
<path d="M495.226 171.667L481.357 161.387L458.726 186.999L495.226 171.667Z" fill="#EE0208"/>
</g>
</g>
<defs>
<filter id="filter0_f" x="51.9991" y="-16.8772" width="479.073" height="254.931" filterUnits="userSpaceOnUse" color-interpolation-filters="sRGB">
<feFlood flood-opacity="0" result="BackgroundImageFix"/>
<feBlend mode="normal" in="SourceGraphic" in2="BackgroundImageFix" result="shape"/>
<feGaussianBlur stdDeviation="47" result="effect1_foregroundBlur"/>
</filter>
<filter id="filter1_d" x="141.253" y="29.0206" width="78.6087" height="78.6088" filterUnits="userSpaceOnUse" color-interpolation-filters="sRGB">
<feFlood flood-opacity="0" result="BackgroundImageFix"/>
<feColorMatrix in="SourceAlpha" type="matrix" values="0 0 0 0 0 0 0 0 0 0 0 0 0 0 0 0 0 0 127 0"/>
<feOffset dy="2"/>
<feGaussianBlur stdDeviation="2"/>
<feColorMatrix type="matrix" values="0 0 0 0 0 0 0 0 0 0 0 0 0 0 0 0 0 0 0.3 0"/>
<feBlend mode="normal" in2="BackgroundImageFix" result="effect1_dropShadow"/>
<feBlend mode="normal" in="SourceGraphic" in2="effect1_dropShadow" result="shape"/>
</filter>
<filter id="filter2_d" x="79.2264" y="100.903" width="89.9201" height="89.9201" filterUnits="userSpaceOnUse" color-interpolation-filters="sRGB">
<feFlood flood-opacity="0" result="BackgroundImageFix"/>
<feColorMatrix in="SourceAlpha" type="matrix" values="0 0 0 0 0 0 0 0 0 0 0 0 0 0 0 0 0 0 127 0"/>
<feOffset dy="2"/>
<feGaussianBlur stdDeviation="2"/>
<feColorMatrix type="matrix" values="0 0 0 0 0 0 0 0 0 0 0 0 0 0 0 0 0 0 0.3 0"/>
<feBlend mode="normal" in2="BackgroundImageFix" result="effect1_dropShadow"/>
<feBlend mode="normal" in="SourceGraphic" in2="effect1_dropShadow" result="shape"/>
</filter>
<filter id="filter3_d" x="45.9565" y="42.7385" width="53.7085" height="53.7085" filterUnits="userSpaceOnUse" color-interpolation-filters="sRGB">
<feFlood flood-opacity="0" result="BackgroundImageFix"/>
<feColorMatrix in="SourceAlpha" type="matrix" values="0 0 0 0 0 0 0 0 0 0 0 0 0 0 0 0 0 0 127 0"/>
<feOffset dy="2"/>
<feGaussianBlur stdDeviation="2"/>
<feColorMatrix type="matrix" values="0 0 0 0 0 0 0 0 0 0 0 0 0 0 0 0 0 0 0.3 0"/>
<feBlend mode="normal" in2="BackgroundImageFix" result="effect1_dropShadow"/>
<feBlend mode="normal" in="SourceGraphic" in2="effect1_dropShadow" result="shape"/>
</filter>
<filter id="filter4_d" x="376.256" y="30.4858" width="83.4539" height="83.4539" filterUnits="userSpaceOnUse" color-interpolation-filters="sRGB">
<feFlood flood-opacity="0" result="BackgroundImageFix"/>
<feColorMatrix in="SourceAlpha" type="matrix" values="0 0 0 0 0 0 0 0 0 0 0 0 0 0 0 0 0 0 127 0"/>
<feOffset dy="2"/>
<feGaussianBlur stdDeviation="2"/>
<feColorMatrix type="matrix" values="0 0 0 0 0 0 0 0 0 0 0 0 0 0 0 0 0 0 0.3 0"/>
<feBlend mode="normal" in2="BackgroundImageFix" result="effect1_dropShadow"/>
<feBlend mode="normal" in="SourceGraphic" in2="effect1_dropShadow" result="shape"/>
</filter>
<filter id="filter5_d" x="472.466" y="27.9803" width="63.4565" height="63.4565" filterUnits="userSpaceOnUse" color-interpolation-filters="sRGB">
<feFlood flood-opacity="0" result="BackgroundImageFix"/>
<feColorMatrix in="SourceAlpha" type="matrix" values="0 0 0 0 0 0 0 0 0 0 0 0 0 0 0 0 0 0 127 0"/>
<feOffset dy="2"/>
<feGaussianBlur stdDeviation="2"/>
<feColorMatrix type="matrix" values="0 0 0 0 0 0 0 0 0 0 0 0 0 0 0 0 0 0 0.3 0"/>
<feBlend mode="normal" in2="BackgroundImageFix" result="effect1_dropShadow"/>
<feBlend mode="normal" in="SourceGraphic" in2="effect1_dropShadow" result="shape"/>
</filter>
<filter id="filter6_f" x="233.79" y="192.126" width="119.831" height="17.0993" filterUnits="userSpaceOnUse" color-interpolation-filters="sRGB">
<feFlood flood-opacity="0" result="BackgroundImageFix"/>
<feBlend mode="normal" in="SourceGraphic" in2="BackgroundImageFix" result="shape"/>
<feGaussianBlur stdDeviation="2.71828" result="effect1_foregroundBlur"/>
</filter>
<filter id="filter7_f" x="254.023" y="185.901" width="88.7001" height="29.5516" filterUnits="userSpaceOnUse" color-interpolation-filters="sRGB">
<feFlood flood-opacity="0" result="BackgroundImageFix"/>
<feBlend mode="normal" in="SourceGraphic" in2="BackgroundImageFix" result="shape"/>
<feGaussianBlur stdDeviation="2.71828" result="effect1_foregroundBlur"/>
</filter>
<filter id="filter8_d" x="222" y="56.2527" width="141.862" height="141.862" filterUnits="userSpaceOnUse" color-interpolation-filters="sRGB">
<feFlood flood-opacity="0" result="BackgroundImageFix"/>
<feColorMatrix in="SourceAlpha" type="matrix" values="0 0 0 0 0 0 0 0 0 0 0 0 0 0 0 0 0 0 127 0"/>
<feOffset dy="2"/>
<feGaussianBlur stdDeviation="2"/>
<feColorMatrix type="matrix" values="0 0 0 0 0 0 0 0 0 0 0 0 0 0 0 0 0 0 0.3 0"/>
<feBlend mode="normal" in2="BackgroundImageFix" result="effect1_dropShadow"/>
<feBlend mode="normal" in="SourceGraphic" in2="effect1_dropShadow" result="shape"/>
</filter>
<filter id="filter9_d" x="417.347" y="86.8623" width="119.216" height="119.216" filterUnits="userSpaceOnUse" color-interpolation-filters="sRGB">
<feFlood flood-opacity="0" result="BackgroundImageFix"/>
<feColorMatrix in="SourceAlpha" type="matrix" values="0 0 0 0 0 0 0 0 0 0 0 0 0 0 0 0 0 0 127 0"/>
<feOffset dy="2"/>
<feGaussianBlur stdDeviation="2"/>
<feColorMatrix type="matrix" values="0 0 0 0 0 0 0 0 0 0 0 0 0 0 0 0 0 0 0.3 0"/>
<feBlend mode="normal" in2="BackgroundImageFix" result="effect1_dropShadow"/>
<feBlend mode="normal" in="SourceGraphic" in2="effect1_dropShadow" result="shape"/>
</filter>
<radialGradient id="paint0_radial" cx="0" cy="0" r="1" gradientUnits="userSpaceOnUse" gradientTransform="translate(175.784 50.3845) rotate(-18) scale(40.0633)">
<stop stop-color="#F9C700"/>
<stop offset="1" stop-color="#F79C01"/>
</radialGradient>
<radialGradient id="paint1_radial" cx="0" cy="0" r="1" gradientUnits="userSpaceOnUse" gradientTransform="translate(173.992 45.0274) rotate(72) scale(6.13014 6.3276)">
<stop stop-color="white"/>
<stop offset="1" stop-color="#D0D0D0"/>
</radialGradient>
<radialGradient id="paint2_radial" cx="0" cy="0" r="1" gradientUnits="userSpaceOnUse" gradientTransform="translate(175.054 48.6544) rotate(72) scale(11.9729 25.5202)">
<stop stop-color="white"/>
<stop offset="1" stop-color="#D9D9D9"/>
</radialGradient>
<radialGradient id="paint3_radial" cx="0" cy="0" r="1" gradientUnits="userSpaceOnUse" gradientTransform="translate(177.378 55.8078) rotate(72) scale(15.3499 42.713)">
<stop stop-color="white"/>
<stop offset="1" stop-color="#DBDBDB"/>
</radialGradient>
<radialGradient id="paint4_radial" cx="0" cy="0" r="1" gradientUnits="userSpaceOnUse" gradientTransform="translate(128.611 119.078) rotate(9) scale(51.192)">
<stop stop-color="#F9C700"/>
<stop offset="1" stop-color="#F79C01"/>
</radialGradient>
<radialGradient id="paint5_radial" cx="0" cy="0" r="1" gradientUnits="userSpaceOnUse" gradientTransform="translate(71.1066 53.4648) rotate(-8) scale(28.9346)">
<stop stop-color="#F9C700"/>
<stop offset="1" stop-color="#F79C01"/>
</radialGradient>
<radialGradient id="paint6_radial" cx="0" cy="0" r="1" gradientUnits="userSpaceOnUse" gradientTransform="translate(423.631 49.0191) rotate(13.7996) scale(44.5966)">
<stop stop-color="#F9C700"/>
<stop offset="1" stop-color="#F79C01"/>
</radialGradient>
<radialGradient id="paint7_radial" cx="0" cy="0" r="1" gradientUnits="userSpaceOnUse" gradientTransform="translate(508.839 45.7093) rotate(19.8282) scale(30.9781)">
<stop stop-color="#F9C700"/>
<stop offset="1" stop-color="#F79C01"/>
</radialGradient>
<radialGradient id="paint8_radial" cx="0" cy="0" r="1" gradientUnits="userSpaceOnUse" gradientTransform="translate(510.284 41.5876) rotate(109.828) scale(4.74 4.89269)">
<stop stop-color="#99CCFF"/>
<stop offset="1" stop-color="#3974B0"/>
</radialGradient>
<radialGradient id="paint9_radial" cx="0" cy="0" r="1" gradientUnits="userSpaceOnUse" gradientTransform="translate(509.213 44.3065) rotate(109.828) scale(9.25782 19.7329)">
<stop stop-color="#99CCFF"/>
<stop offset="1" stop-color="#79A6D3"/>
</radialGradient>
<radialGradient id="paint10_radial" cx="0" cy="0" r="1" gradientUnits="userSpaceOnUse" gradientTransform="translate(507.241 49.7776) rotate(109.828) scale(11.869 33.0269)">
<stop stop-color="#99CCFF"/>
<stop offset="1" stop-color="#71A5DA"/>
</radialGradient>
<radialGradient id="paint11_radial" cx="0" cy="0" r="1" gradientUnits="userSpaceOnUse" gradientTransform="translate(293.852 78.1229) scale(95.7068)">
<stop stop-color="#F9C700"/>
<stop offset="1" stop-color="#F79C01"/>
</radialGradient>
<radialGradient id="paint12_radial" cx="0" cy="0" r="1" gradientUnits="userSpaceOnUse" gradientTransform="translate(498.736 115.942) rotate(29.7963) scale(58.2653)">
<stop stop-color="#F9C700"/>
<stop offset="1" stop-color="#F79C01"/>
</radialGradient>
</defs>
</svg>
