<svg width="598" height="258" viewBox="0 0 598 258" fill="none" xmlns="http://www.w3.org/2000/svg">
<g clip-path="url(#clip0_1126_58273)">
<rect width="598" height="258" fill="#0A0A61"/>
<g opacity="0.3" filter="url(#filter0_f_1126_58273)">
<ellipse cx="298.999" cy="129.509" rx="199.913" ry="34.7674" fill="#0D3AFF"/>
</g>
<g filter="url(#filter1_d_1126_58273)">
<path d="M182.721 84.0132C193.673 80.5019 199.667 68.8946 196.109 58.0878C192.55 47.2809 180.787 41.3667 169.835 44.8781C158.882 48.3895 152.889 59.9967 156.447 70.8036C160.006 81.6104 171.769 87.5246 182.721 84.0132Z" fill="url(#paint0_radial_1126_58273)"/>
<g style="mix-blend-mode:multiply">
<path fill-rule="evenodd" clip-rule="evenodd" d="M191.456 78.5615C189.581 80.0133 187.421 81.1706 185.023 81.9395C174.07 85.4508 162.307 79.5366 158.749 68.7297C156.311 61.3277 158.355 53.5502 163.404 48.2559C156.718 53.4344 153.671 62.3631 156.45 70.8035C160.009 81.6104 171.772 87.5244 182.724 84.013C186.175 82.9067 189.133 80.9971 191.456 78.5615Z" fill="#00004B" fill-opacity="0.16"/>
</g>
<path d="M177.395 53.6641C178.336 52.5016 181.071 50.502 184.659 53.1803C183.365 52.6598 180.102 52.028 177.395 53.6641Z" fill="#00004B"/>
<path d="M178.432 61.7305C179.492 58.8158 183.239 58.7267 186.939 59.483C186.09 58.1583 185.215 57.2504 184.361 56.678C180.585 54.1458 177.228 58.178 178.432 61.7305Z" fill="#00004B"/>
<path d="M168.789 56.4238C167.335 56.0289 163.931 55.9976 162.624 60.2453C163.36 59.0741 165.624 56.6702 168.789 56.4238Z" fill="#00004B"/>
<path d="M172.757 63.5506C170.163 61.807 167.079 63.9083 164.536 66.666C164.434 65.1021 164.601 63.8601 164.951 62.9018C166.497 58.663 171.615 59.978 172.757 63.5506Z" fill="#00004B"/>
<path fill-rule="evenodd" clip-rule="evenodd" d="M169.628 71.3229C169.945 71.0749 170.406 71.1501 170.657 71.491C172.495 73.9878 175.903 74.6675 178.846 73.803C181.775 72.9425 184.102 70.5808 184.71 66.8616C184.777 66.4491 185.155 66.1851 185.554 66.2722C185.952 66.3593 186.221 66.7643 186.154 67.1768C185.443 71.5254 182.705 74.2713 179.327 75.2638C175.962 76.2521 171.82 75.53 169.509 72.3895C169.258 72.0485 169.311 71.571 169.628 71.3229Z" fill="#00004B"/>
<path d="M170.615 47.405C173.204 46.5752 174.641 43.8968 173.827 41.4226C173.012 38.9484 170.253 37.6153 167.665 38.4452C165.077 39.275 163.639 41.9534 164.454 44.4276C165.268 46.9018 168.027 48.2348 170.615 47.405Z" fill="url(#paint1_radial_1126_58273)"/>
<path d="M168.532 41.4573C158.093 44.8041 152.211 55.3521 155.393 65.0169C167.689 53.6529 176.082 51.3092 193.195 52.8973C190.013 43.2324 178.971 38.1105 168.532 41.4573Z" fill="url(#paint2_radial_1126_58273)"/>
<path d="M155.93 68.7065C154.436 68.1036 154.326 59.6832 154.748 59.2144C166.505 46.1417 183.274 46.1923 190.189 47.8517C192.136 49.1207 195.749 55.6698 195.194 56.6592C176.296 52.7657 161.144 63.0685 155.93 68.7065Z" fill="#6C6A63" fill-opacity="0.16"/>
<path d="M155.628 67.7892C154.134 67.1864 154.023 58.7659 154.445 58.2971C166.202 45.2244 182.971 45.275 189.886 46.9344C191.833 48.2034 195.447 54.7525 194.891 55.7418C175.993 51.8484 160.841 62.1511 155.628 67.7892Z" fill="url(#paint3_radial_1126_58273)"/>
<path fill-rule="evenodd" clip-rule="evenodd" d="M173.799 50.1674L174.42 52.0533C174.631 52.693 174.151 54.1806 172.814 55.4984L171.068 50.1977L173.799 50.1674ZM168.838 51.757L169.459 53.643C169.669 54.2827 170.944 55.2078 172.81 55.4985L171.065 50.1979L168.838 51.757Z" fill="#00004B"/>
<path d="M154.446 58.298C166.203 45.2238 182.973 45.2751 189.888 46.9351" stroke="white" stroke-opacity="0.2" stroke-width="0.734486"/>
</g>
<g filter="url(#filter2_d_1126_58273)">
<path d="M120.995 202.642C135.528 204.913 149.176 195.129 151.478 180.788C153.78 166.448 143.864 152.981 129.331 150.71C114.797 148.438 101.15 158.223 98.8477 172.563C96.5458 186.904 106.462 200.371 120.995 202.642Z" fill="url(#paint4_radial_1126_58273)"/>
<g style="mix-blend-mode:multiply">
<path fill-rule="evenodd" clip-rule="evenodd" d="M134.142 201.433C131.155 202.013 128.015 202.094 124.832 201.597C110.299 199.325 100.383 185.859 102.685 171.518C104.262 161.696 111.161 154.011 120.022 150.873C109.366 152.942 100.647 161.363 98.8492 172.563C96.5473 186.904 106.463 200.37 120.996 202.642C125.575 203.357 130.066 202.877 134.142 201.433Z" fill="#00004B" fill-opacity="0.16"/>
</g>
<path d="M122.668 189.352C117.009 188.467 112.704 183.956 112.092 178.43L111.975 177.368L136.591 181.215L136.146 182.189C133.834 187.258 128.327 190.236 122.668 189.352Z" fill="#00004B"/>
<mask id="mask0_1126_58273" style="mask-type:alpha" maskUnits="userSpaceOnUse" x="114" y="179" width="20" height="9">
<path fill-rule="evenodd" clip-rule="evenodd" d="M123.011 187.48C118.319 186.747 114.885 183.437 114.211 179.643L133.834 182.709C132.005 186.112 127.702 188.214 123.011 187.48Z" fill="white"/>
</mask>
<g mask="url(#mask0_1126_58273)">
<path d="M121.82 194.629C124.154 194.994 126.348 193.407 126.721 191.084C127.094 188.762 125.504 186.583 123.17 186.218C120.836 185.853 118.641 187.441 118.268 189.763C117.895 192.086 119.485 194.265 121.82 194.629Z" fill="#F55B58"/>
<rect width="26.6388" height="7.69378" transform="matrix(0.988007 0.154409 -0.158485 0.987361 112.512 172.816)" fill="white"/>
</g>
<path d="M111.529 162.173C112.82 160.524 116.458 158.243 120.687 162.315C119.121 161.529 115.096 160.402 111.529 162.173Z" fill="#00004B"/>
<path d="M110.784 171.922C110.253 166.511 119.265 162.343 121.372 171.637C118.578 167.688 114.369 167.453 110.784 171.922Z" fill="#00004B"/>
<path d="M132.837 164.373C134.555 163.162 138.706 162.016 141.561 167.121C140.292 165.922 136.77 163.694 132.837 164.373Z" fill="#00004B"/>
<path d="M129.128 172.845C130.279 167.709 138.853 166.075 139.162 175.877C137.018 171.872 133.173 169.639 129.128 172.845Z" fill="#00004B"/>
<rect width="62.7732" height="11.2688" rx="5.63442" transform="matrix(0.988007 0.154409 -0.158485 0.987361 96.2988 145.19)" fill="#383838" fill-opacity="0.15"/>
<rect width="69.4649" height="13.0644" rx="6.53219" transform="matrix(0.988007 0.154409 -0.158485 0.987361 95.0312 142.345)" fill="#F59B05"/>
<rect width="13.6449" height="13.0644" transform="matrix(0.988007 0.154409 -0.158485 0.987361 109.09 144.542)" fill="#711533"/>
<rect width="13.6449" height="13.0644" transform="matrix(0.988007 0.154409 -0.158485 0.987361 135.795 148.715)" fill="#711533"/>
<path d="M163.781 169.385L162.499 156.608C161.508 160.8 157.606 162.365 154.928 165.207C152.785 167.48 151.827 172.33 151.489 174.762L159.261 181.721C159.869 177.935 162.032 172.372 163.781 169.385Z" fill="#383838" fill-opacity="0.15"/>
<path d="M164.063 170.256L162.78 157.478C161.79 161.671 157.888 163.235 155.209 166.077C153.067 168.351 152.108 173.201 151.77 175.632L159.543 182.592C160.15 178.805 162.313 173.243 164.063 170.256Z" fill="#711533"/>
<path d="M154.078 162.134C150.085 161.51 147.354 157.845 147.979 153.949C148.605 150.053 152.349 147.401 156.343 148.025C160.337 148.649 163.067 152.314 162.442 156.21C161.817 160.106 158.072 162.758 154.078 162.134Z" fill="#D08A01"/>
<mask id="mask1_1126_58273" style="mask-type:alpha" maskUnits="userSpaceOnUse" x="147" y="147" width="16" height="16">
<path fill-rule="evenodd" clip-rule="evenodd" d="M154.08 162.134C150.086 161.51 147.356 157.845 147.981 153.95C148.607 150.054 152.351 147.401 156.345 148.025C160.339 148.65 163.069 152.314 162.444 156.21C161.819 160.106 158.074 162.758 154.08 162.134Z" fill="white"/>
</mask>
<g mask="url(#mask1_1126_58273)">
<path d="M156.762 160.831C152.768 160.206 150.037 156.542 150.663 152.646C151.288 148.75 155.033 146.098 159.026 146.722C163.02 147.346 165.751 151.011 165.126 154.906C164.5 158.802 160.756 161.455 156.762 160.831Z" fill="#FFD847"/>
</g>
<path d="M89.8471 157.83L95.0313 146.064C94.6566 150.353 97.8377 153.024 99.4701 156.54C100.777 159.352 100.167 164.257 99.7268 166.672L90.2545 170.937C90.8623 167.15 90.5614 161.203 89.8471 157.83Z" fill="#383838" fill-opacity="0.15"/>
<path d="M89.306 158.57L94.4902 146.803C94.1161 151.093 97.2967 153.763 98.9291 157.279C100.236 160.092 99.6263 164.997 99.1864 167.412L89.7135 171.676C90.3213 167.89 90.0203 161.943 89.306 158.57Z" fill="#711533"/>
<path d="M101.224 153.873C105.173 154.491 108.88 151.832 109.506 147.937C110.131 144.041 107.437 140.382 103.489 139.765C99.5406 139.148 95.8329 141.806 95.2075 145.702C94.5822 149.598 97.276 153.256 101.224 153.873Z" fill="#D08A01"/>
<mask id="mask2_1126_58273" style="mask-type:alpha" maskUnits="userSpaceOnUse" x="95" y="139" width="15" height="15">
<path fill-rule="evenodd" clip-rule="evenodd" d="M101.226 153.874C105.175 154.491 108.882 151.833 109.508 147.937C110.133 144.041 107.439 140.382 103.491 139.765C99.5426 139.148 95.8348 141.806 95.2095 145.702C94.5841 149.598 97.278 153.256 101.226 153.874Z" fill="white"/>
</mask>
<g mask="url(#mask2_1126_58273)">
<path d="M99.113 151.821C103.061 152.438 106.769 149.78 107.394 145.884C108.02 141.988 105.326 138.33 101.378 137.713C97.4293 137.096 93.7216 139.754 93.0962 143.65C92.4708 147.546 95.1647 151.204 99.113 151.821Z" fill="#FFD847"/>
</g>
</g>
<g filter="url(#filter3_d_1126_58273)">
<path d="M72.4276 95.7562C80.6616 94.5992 86.4102 87.0716 85.2675 78.9428C84.1249 70.8139 76.5237 65.1621 68.2897 66.3191C60.0558 67.4761 54.3072 75.0037 55.4498 83.1325C56.5925 91.2614 64.1937 96.9132 72.4276 95.7562Z" fill="url(#paint5_radial_1126_58273)"/>
<g style="mix-blend-mode:multiply">
<path fill-rule="evenodd" clip-rule="evenodd" d="M79.3336 92.946C77.8152 93.7496 76.1314 94.3086 74.3284 94.5619C66.0944 95.7189 58.4932 90.067 57.3505 81.9382C56.5679 76.3705 59.0182 71.0848 63.2857 67.935C57.8698 70.8016 54.5585 76.7838 55.451 83.1326C56.5937 91.2615 64.1948 96.9131 72.4288 95.7562C75.023 95.3916 77.3706 94.3949 79.3336 92.946Z" fill="#00004B" fill-opacity="0.16"/>
</g>
<path d="M71.1185 88.2988C67.9126 88.7493 64.8347 87.0174 63.5841 84.1307L63.3438 83.576L77.29 81.6164L77.212 82.2158C76.806 85.3352 74.3248 87.8483 71.1185 88.2988Z" fill="#00004B"/>
<mask id="mask3_1126_58273" style="mask-type:alpha" maskUnits="userSpaceOnUse" x="64" y="82" width="13" height="6">
<path fill-rule="evenodd" clip-rule="evenodd" d="M70.9929 87.2317C68.3351 87.6052 65.9277 86.379 64.9316 84.4385L76.0493 82.8763C75.6268 85.0162 73.6507 86.8582 70.9929 87.2317Z" fill="white"/>
</mask>
<g mask="url(#mask3_1126_58273)">
<path d="M71.5375 91.2913C72.86 91.1054 73.782 89.8873 73.5969 88.5704C73.4118 87.2536 72.1896 86.3367 70.8672 86.5226C69.5447 86.7084 68.6227 87.9265 68.8078 89.2434C68.9929 90.5602 70.2151 91.4771 71.5375 91.2913Z" fill="#F55B58"/>
<rect width="15.0577" height="4.34919" transform="matrix(0.990272 -0.139146 0.1392 0.990264 62.877 81.0273)" fill="white"/>
</g>
<path d="M60.5756 75.436C60.9988 74.3329 62.5857 72.5031 65.5496 74.0103C64.5721 73.8426 62.209 73.8933 60.5756 75.436Z" fill="#00004B"/>
<path d="M61.7948 80.8285C60.6069 77.9904 64.7844 74.2582 67.4709 78.9368C65.303 77.2606 62.9886 77.8239 61.7948 80.8285Z" fill="#00004B"/>
<path d="M72.4593 73.129C73.1864 72.1926 75.2393 70.8923 77.6321 73.1831C76.7468 72.7433 74.4721 72.117 72.4593 73.129Z" fill="#00004B"/>
<path d="M71.8641 78.3173C71.6311 75.3514 75.9937 73.0613 77.7924 78.3095C75.9668 76.4966 73.5169 75.9203 71.8641 78.3173Z" fill="#00004B"/>
<rect width="35.4828" height="6.3689" rx="3.18445" transform="matrix(0.990272 -0.139146 0.1392 0.990264 49.5176 68.7558)" fill="#383838" fill-opacity="0.15"/>
<rect width="39.2653" height="7.38369" rx="3.69185" transform="matrix(0.990272 -0.139146 0.1392 0.990264 48.3574 67.4266)" fill="white"/>
<rect width="7.71282" height="7.3837" transform="matrix(0.990272 -0.139146 0.1392 0.990264 56.3242 66.3074)" fill="#EE0208"/>
<rect width="7.71281" height="7.3837" transform="matrix(0.990272 -0.139146 0.1392 0.990264 71.4512 64.1815)" fill="#EE0208"/>
<path d="M90.021 70.7605L87.2011 64.065C87.3636 66.4935 85.5146 67.9793 84.5399 69.9549C83.7601 71.5353 84.0494 74.3138 84.2717 75.6835L89.6313 78.1699C89.3296 76.0235 89.5725 72.6622 90.021 70.7605Z" fill="#383838" fill-opacity="0.15"/>
<path d="M90.3202 71.1849L87.5002 64.489C87.6628 66.9178 85.8137 68.4033 84.8391 70.3789C84.0592 71.9593 84.3482 74.7382 84.5705 76.1075L89.9301 78.594C89.6284 76.4476 89.8717 73.0862 90.3202 71.1849Z" fill="#EE0208"/>
<path d="M83.5683 68.4333C81.3056 68.7512 79.2197 67.2187 78.9093 65.0103C78.5988 62.8019 80.1814 60.754 82.4441 60.436C84.7068 60.1181 86.7927 61.6506 87.1031 63.859C87.4135 66.0674 85.8309 68.1154 83.5683 68.4333Z" fill="#D08A01"/>
<mask id="mask4_1126_58273" style="mask-type:alpha" maskUnits="userSpaceOnUse" x="78" y="60" width="10" height="9">
<path fill-rule="evenodd" clip-rule="evenodd" d="M83.5683 68.4332C81.3056 68.7512 79.2197 67.2187 78.9093 65.0103C78.5988 62.8019 80.1814 60.7539 82.4441 60.436C84.7068 60.118 86.7927 61.6505 87.1031 63.8589C87.4135 66.0673 85.8309 68.1153 83.5683 68.4332Z" fill="white"/>
</mask>
<g mask="url(#mask4_1126_58273)">
<path d="M84.8007 67.2892C82.538 67.6072 80.4521 66.0746 80.1417 63.8663C79.8313 61.6579 81.4139 59.6099 83.6765 59.2919C85.9392 58.974 88.0251 60.5065 88.3355 62.7149C88.646 64.9233 87.0634 66.9713 84.8007 67.2892Z" fill="#FFD847"/>
</g>
<path d="M48.1299 76.6458L48.9737 69.4355C49.485 71.815 51.6491 72.7369 53.1167 74.3693C54.2911 75.6751 54.7777 78.4259 54.9419 79.8037L50.5316 83.663C50.2299 81.5166 49.0773 78.3514 48.1299 76.6458Z" fill="#383838" fill-opacity="0.15"/>
<path d="M47.9639 77.1346L48.8077 69.9239C49.3194 72.3037 51.4831 73.2253 52.9507 74.8578C54.1251 76.1635 54.6121 78.9146 54.7762 80.2921L50.3656 84.1514C50.0639 82.005 48.9113 78.8401 47.9639 77.1346Z" fill="#EE0208"/>
<path d="M53.6237 72.641C55.8607 72.3267 57.4224 70.2817 57.112 68.0733C56.8016 65.8649 54.7365 64.3294 52.4996 64.6438C50.2626 64.9581 48.7009 67.0031 49.0113 69.2115C49.3217 71.4199 51.3868 72.9554 53.6237 72.641Z" fill="#D08A01"/>
<mask id="mask5_1126_58273" style="mask-type:alpha" maskUnits="userSpaceOnUse" x="48" y="64" width="10" height="9">
<path fill-rule="evenodd" clip-rule="evenodd" d="M53.6237 72.641C55.8607 72.3267 57.4224 70.2817 57.112 68.0733C56.8016 65.8649 54.7365 64.3294 52.4996 64.6438C50.2626 64.9581 48.7009 67.0031 49.0113 69.2115C49.3217 71.4199 51.3868 72.9554 53.6237 72.641Z" fill="white"/>
</mask>
<g mask="url(#mask5_1126_58273)">
<path d="M52.1374 71.8777C54.3743 71.5634 55.9361 69.5184 55.6257 67.31C55.3152 65.1016 53.2502 63.5661 51.0132 63.8805C48.7763 64.1948 47.2145 66.2398 47.525 68.4482C47.8354 70.6566 49.9005 72.1921 52.1374 71.8777Z" fill="#FFD847"/>
</g>
</g>
<g filter="url(#filter4_d_1126_58273)">
<path d="M411.358 80.9805C423.807 83.9981 436.377 76.4864 439.434 64.2025C442.491 51.9187 434.878 39.5144 422.429 36.4968C409.98 33.4792 397.41 40.9909 394.353 53.2748C391.296 65.5586 398.91 77.9629 411.358 80.9805Z" fill="url(#paint6_radial_1126_58273)"/>
<g style="mix-blend-mode:multiply">
<path fill-rule="evenodd" clip-rule="evenodd" d="M422.86 80.8771C420.224 81.1655 417.492 81.0098 414.766 80.3491C402.318 77.3314 394.704 64.9271 397.761 52.6432C399.855 44.2296 406.412 38.0548 414.336 35.9686C404.932 36.9977 396.742 43.6807 394.354 53.2747C391.297 65.5586 398.91 77.9626 411.359 80.9803C415.281 81.931 419.215 81.8369 422.86 80.8771Z" fill="#00004B" fill-opacity="0.16"/>
</g>
<mask id="mask6_1126_58273" style="mask-type:alpha" maskUnits="userSpaceOnUse" x="411" y="60" width="8" height="13">
<path fill-rule="evenodd" clip-rule="evenodd" d="M413.45 72.1C415.314 72.5518 417.443 70.4334 418.206 67.3684C418.969 64.3034 418.076 61.4526 416.212 61.0008C414.349 60.549 412.22 62.6675 411.457 65.7324C410.694 68.7974 411.586 71.6483 413.45 72.1Z" fill="white"/>
</mask>
<g mask="url(#mask6_1126_58273)">
<path d="M413.465 72.1029C416.087 72.7386 418.95 70.2915 419.86 66.6371C420.769 62.9827 419.38 59.5049 416.758 58.8692C414.136 58.2335 411.272 60.6807 410.363 64.3351C409.454 67.9895 410.842 71.4672 413.465 72.1029Z" fill="#00004B"/>
<path d="M412.134 78.0264C414.757 78.6621 417.404 77.0846 418.046 74.5029C418.689 71.9213 417.084 69.3131 414.461 68.6774C411.839 68.0417 409.192 69.6192 408.55 72.2009C407.907 74.7825 409.512 77.3907 412.134 78.0264Z" fill="#D13A37"/>
</g>
<path d="M407.756 45.4792C408.74 44.4453 411.891 42.4258 415.434 43.764C415.351 42.3012 410.325 40.9346 407.756 45.4792Z" fill="#00004B"/>
<path d="M410.784 55.8601C412.415 56.2554 414.176 54.8098 414.719 52.6313C415.261 50.4528 414.378 48.3663 412.748 47.971C411.117 47.5757 409.355 49.0213 408.813 51.1998C408.271 53.3783 409.154 55.4648 410.784 55.8601Z" fill="#00004B"/>
<path d="M431.575 51.1834C431.189 49.8173 429.344 46.5867 425.576 46.1526C426.336 44.8942 431.432 45.9813 431.575 51.1834Z" fill="#00004B"/>
<path d="M424.018 58.9982C422.387 58.6029 421.504 56.5164 422.047 54.3379C422.589 52.1594 424.35 50.7138 425.981 51.1091C427.612 51.5043 428.494 53.5908 427.952 55.7694C427.41 57.9479 425.648 59.3935 424.018 58.9982Z" fill="#00004B"/>
<rect width="10.1651" height="7.47746" transform="matrix(-0.925097 -0.377361 -0.386688 0.923205 445.471 62.3187)" fill="#383838" fill-opacity="0.15"/>
<rect width="0.291824" height="13.2729" transform="matrix(-0.925098 -0.37736 -0.386689 0.923205 436.332 58.4567)" fill="#383838" fill-opacity="0.15"/>
<rect width="10.1651" height="7.47744" transform="matrix(-0.925097 -0.377361 -0.386688 0.923205 445.041 61.1814)" fill="#034694"/>
<rect width="0.291819" height="13.2729" transform="matrix(-0.925097 -0.377361 -0.386687 0.923205 435.902 57.32)" fill="#EEEEEE"/>
<path d="M427.336 81.1897C423.843 81.0389 421.134 78.1218 421.286 74.6742C421.439 71.2266 424.395 68.5539 427.889 68.7047C431.383 68.8555 434.091 71.7725 433.939 75.2202C433.786 78.6678 430.83 81.3404 427.336 81.1897Z" fill="#D08A01"/>
<mask id="mask7_1126_58273" style="mask-type:alpha" maskUnits="userSpaceOnUse" x="421" y="68" width="13" height="14">
<path fill-rule="evenodd" clip-rule="evenodd" d="M427.333 81.1897C423.839 81.039 421.13 78.1219 421.282 74.6743C421.435 71.2266 424.391 68.554 427.885 68.7047C431.379 68.8555 434.087 71.7726 433.935 75.2202C433.782 78.6678 430.826 81.3405 427.333 81.1897Z" fill="white"/>
</mask>
<g mask="url(#mask7_1126_58273)">
<path d="M429.508 79.7945C426.014 79.6437 423.306 76.7267 423.458 73.279C423.611 69.8314 426.567 67.1587 430.061 67.3095C433.554 67.4603 436.263 70.3773 436.111 73.825C435.958 77.2726 433.002 79.9453 429.508 79.7945Z" fill="#FFD847"/>
</g>
<rect width="10.1651" height="7.47744" transform="matrix(0.996971 0.0885578 -0.0906824 0.994958 392.064 48.9199)" fill="#383838" fill-opacity="0.15"/>
<rect width="0.291821" height="13.2729" transform="matrix(0.996971 0.0885578 -0.0906824 0.994958 401.975 49.6761)" fill="#383838" fill-opacity="0.15"/>
<rect width="10.1651" height="7.47744" transform="matrix(0.996971 0.0885577 -0.0906825 0.994958 391.531 48.0537)" fill="#034694"/>
<rect width="0.291823" height="13.2729" transform="matrix(0.996971 0.0885584 -0.0906818 0.994958 401.441 48.81)" fill="#EEEEEE"/>
<path d="M397.832 73.8817C400.999 75.3456 404.769 73.9989 406.252 70.8739C407.735 67.7488 406.37 64.0288 403.203 62.5649C400.036 61.101 396.266 62.4477 394.783 65.5727C393.3 68.6978 394.665 72.4178 397.832 73.8817Z" fill="#D08A01"/>
<mask id="mask8_1126_58273" style="mask-type:alpha" maskUnits="userSpaceOnUse" x="394" y="61" width="13" height="14">
<path fill-rule="evenodd" clip-rule="evenodd" d="M397.832 73.8817C400.999 75.3455 404.769 73.9989 406.252 70.8738C407.735 67.7488 406.37 64.0287 403.203 62.5648C400.036 61.101 396.266 62.4476 394.783 65.5727C393.3 68.6977 394.665 72.4178 397.832 73.8817Z" fill="white"/>
</mask>
<g mask="url(#mask8_1126_58273)">
<path d="M396.559 71.6506C399.726 73.1145 403.495 71.7679 404.979 68.6428C406.462 65.5178 405.097 61.7977 401.93 60.3338C398.763 58.87 394.993 60.2166 393.51 63.3417C392.026 66.4667 393.391 70.1868 396.559 71.6506Z" fill="#FFD847"/>
</g>
</g>
<g filter="url(#filter5_d_1126_58273)">
<path d="M521.914 94.2528C530.291 97.2336 539.529 92.9495 542.549 84.684C545.569 76.4185 541.226 67.3016 532.85 64.3208C524.474 61.34 515.236 65.624 512.216 73.8895C509.196 82.155 513.538 91.272 521.914 94.2528Z" fill="url(#paint7_radial_1126_58273)"/>
<g style="mix-blend-mode:multiply">
<path fill-rule="evenodd" clip-rule="evenodd" d="M529.867 95.0101C528.025 95.0195 526.149 94.7154 524.315 94.0626C515.939 91.0818 511.597 81.9648 514.616 73.6993C516.685 68.038 521.671 64.2445 527.298 63.3739C520.727 63.4077 514.575 67.4347 512.216 73.8902C509.196 82.1558 513.538 91.2725 521.915 94.2534C524.554 95.1925 527.278 95.4107 529.867 95.0101Z" fill="#00004B" fill-opacity="0.16"/>
</g>
<path d="M533.247 73.2252C534.38 72.9555 537.012 73.0142 537.916 76.329C537.376 75.4059 535.686 73.4928 533.247 73.2252Z" fill="#00004B"/>
<path d="M530.002 78.6365C532.05 77.3522 534.382 79.0514 536.278 81.2448C536.396 80.0385 536.298 79.0745 536.052 78.3254C534.962 75.0117 530.974 75.9033 530.002 78.6365Z" fill="#00004B"/>
<path d="M526.663 70.8826C525.965 69.9612 523.901 68.3491 521.062 70.3315C522.074 69.9609 524.612 69.5521 526.663 70.8826Z" fill="#00004B"/>
<path d="M525.663 77.0916C524.917 74.813 522.023 74.6528 519.145 75.1472C519.834 74.144 520.533 73.4637 521.207 73.0421C524.188 71.1771 526.682 74.3753 525.663 77.0916Z" fill="#00004B"/>
<path fill-rule="evenodd" clip-rule="evenodd" d="M520.014 80.3754C520.327 80.3722 520.572 80.6337 520.561 80.9594C520.484 83.3447 522.238 85.3551 524.451 86.2043C526.654 87.0496 529.21 86.6961 531.369 84.7086C531.608 84.4881 531.966 84.5038 532.167 84.7435C532.369 84.9833 532.338 85.3564 532.099 85.5768C529.575 87.9006 526.583 88.2968 524.043 87.3218C521.513 86.3509 519.331 83.9712 519.428 80.9709C519.439 80.6452 519.701 80.3786 520.014 80.3754Z" fill="#00004B"/>
<path d="M532.112 66.2282C534.091 66.9327 536.256 65.9697 536.948 64.0773C537.639 62.1849 536.595 60.0798 534.615 59.3754C532.636 58.671 530.471 59.634 529.779 61.5263C529.088 63.4187 530.132 65.5238 532.112 66.2282Z" fill="url(#paint8_radial_1126_58273)"/>
<path d="M533.696 61.6213C525.712 58.7802 517.051 62.4695 514.35 69.8615C527.321 68.6753 533.573 71.1714 543.261 80.15C545.962 72.7579 541.679 64.4624 533.696 61.6213Z" fill="url(#paint9_radial_1126_58273)"/>
<path d="M512.907 72.3669C512.284 71.2996 516.263 66.1052 516.746 66.0162C530.208 63.5342 540.425 71.4126 543.851 75.6621C544.43 77.3482 543.49 83.0391 542.676 83.3835C533.005 72.1617 518.8 71.3633 512.907 72.3669Z" fill="#6C6A63" fill-opacity="0.16"/>
<path d="M513.164 71.6653C512.542 70.598 516.521 65.4036 517.003 65.3146C530.466 62.8326 540.683 70.711 544.109 74.9605C544.688 76.6466 543.748 82.3375 542.933 82.6818C533.263 71.4601 519.058 70.6617 513.164 71.6653Z" fill="url(#paint10_radial_1126_58273)"/>
<path fill-rule="evenodd" clip-rule="evenodd" d="M532.725 69.4053L532.198 70.8477C532.02 71.337 531.012 72.0209 529.562 72.2001L531.043 68.1459L532.725 69.4053ZM528.935 68.0559L528.408 69.4984C528.229 69.9876 528.563 71.149 529.563 72.2001L531.044 68.146L528.935 68.0559Z" fill="#00004B"/>
</g>
<g opacity="0.3" filter="url(#filter6_f_1126_58273)">
<path fill-rule="evenodd" clip-rule="evenodd" d="M295.847 227.247C327.777 227.247 353.662 225.787 353.662 223.987C353.662 222.187 327.777 220.727 295.847 220.727C263.916 220.727 238.031 222.187 238.031 223.987C238.031 225.787 263.916 227.247 295.847 227.247Z" fill="#000533"/>
</g>
<g opacity="0.3" filter="url(#filter7_f_1126_58273)">
<path fill-rule="evenodd" clip-rule="evenodd" d="M300.803 233.768C323.61 233.768 342.099 229.389 342.099 223.988C342.099 218.587 323.61 214.208 300.803 214.208C277.995 214.208 259.506 218.587 259.506 223.988C259.506 229.389 277.995 233.768 300.803 233.768Z" fill="#000533"/>
</g>
<g filter="url(#filter8_d_1126_58273)">
<path d="M296.005 185.001C323.515 185.001 345.816 162.996 345.816 135.851C345.816 108.706 323.515 86.7007 296.005 86.7007C268.495 86.7007 246.193 108.706 246.193 135.851C246.193 162.996 268.495 185.001 296.005 185.001Z" fill="url(#paint11_radial_1126_58273)"/>
<g style="mix-blend-mode:multiply">
<path fill-rule="evenodd" clip-rule="evenodd" d="M319.919 178.976C314.574 180.908 308.8 181.964 302.776 181.964C275.266 181.964 252.965 159.959 252.965 132.814C252.965 114.221 263.427 98.0398 278.86 89.689C259.795 96.5842 246.191 114.65 246.191 135.851C246.191 162.996 268.493 185.001 296.003 185.001C304.67 185.001 312.82 182.817 319.919 178.976Z" fill="#00004B" fill-opacity="0.16"/>
</g>
<path d="M295.143 159.978C284.432 159.978 275.146 152.89 272.378 142.862L271.846 140.935H318.441L317.909 142.862C315.142 152.89 305.856 159.978 295.143 159.978Z" fill="#00004B"/>
<mask id="mask9_1126_58273" style="mask-type:alpha" maskUnits="userSpaceOnUse" x="276" y="144" width="38" height="13">
<path fill-rule="evenodd" clip-rule="evenodd" d="M295.226 156.424C286.347 156.424 279.024 151.302 276.654 144.49H313.799C311.429 151.302 304.106 156.424 295.226 156.424Z" fill="white"/>
</mask>
<g mask="url(#mask9_1126_58273)">
<path d="M295.147 169.969C299.565 169.969 303.147 166.405 303.147 162.008C303.147 157.612 299.565 154.047 295.147 154.047C290.728 154.047 287.146 157.612 287.146 162.008C287.146 166.405 290.728 169.969 295.147 169.969Z" fill="#F55B58"/>
<rect x="271.494" y="132.375" width="49.819" height="14.3793" fill="white"/>
</g>
<path d="M266.525 113.006C268.42 109.588 274.462 104.326 283.478 110.625C280.353 109.626 272.587 108.705 266.525 113.006Z" fill="#00004B"/>
<path d="M268.039 131.223C265.455 121.384 280.86 111.087 287.507 127.641C281.177 121.155 273.334 121.935 268.039 131.223Z" fill="#00004B"/>
<path d="M306.521 110.918C309.335 108.187 316.66 104.874 323.444 113.475C320.746 111.628 313.582 108.531 306.521 110.918Z" fill="#00004B"/>
<path d="M302.186 127.634C302.788 117.817 318.136 112.326 321.612 130.336C316.466 123.56 308.705 120.547 302.186 127.634Z" fill="#00004B"/>
<rect x="233.369" y="86.0414" width="117.396" height="21.0608" rx="10.0712" fill="#383838" fill-opacity="0.15"/>
<rect x="230.184" y="81.1528" width="129.911" height="24.4166" rx="11.676" fill="#004D98"/>
<rect x="256.795" y="81.1528" width="25.5182" height="24.4166" fill="#A50044"/>
<rect x="307.344" y="81.1528" width="25.5182" height="24.4166" fill="#A50044"/>
<path d="M365.151 111.243L358.996 88.0202C358.41 96.0475 351.668 100.062 347.564 106.083C344.281 110.9 343.95 120.131 344.047 124.719L360.462 135.327C360.462 128.16 362.806 117.264 365.151 111.243Z" fill="#383838" fill-opacity="0.15"/>
<path d="M365.931 112.77L359.776 89.5458C359.19 97.5742 352.448 101.588 348.345 107.609C345.062 112.425 344.729 121.658 344.827 126.245L361.241 136.853C361.241 129.685 363.586 118.79 365.931 112.77Z" fill="#A50044"/>
<path d="M345.084 100.653C337.524 100.653 331.396 94.6743 331.396 87.2997C331.396 79.9251 337.524 73.9469 345.084 73.9469C352.643 73.9469 358.771 79.9251 358.771 87.2997C358.771 94.6743 352.643 100.653 345.084 100.653Z" fill="#D08A01"/>
<mask id="mask10_1126_58273" style="mask-type:alpha" maskUnits="userSpaceOnUse" x="331" y="73" width="28" height="28">
<path fill-rule="evenodd" clip-rule="evenodd" d="M345.087 100.653C337.528 100.653 331.399 94.6745 331.399 87.2999C331.399 79.9253 337.528 73.9471 345.087 73.9471C352.647 73.9471 358.775 79.9253 358.775 87.2999C358.775 94.6745 352.647 100.653 345.087 100.653Z" fill="white"/>
</mask>
<g mask="url(#mask10_1126_58273)">
<path d="M349.65 97.4746C342.09 97.4746 335.962 91.4964 335.962 84.1218C335.962 76.7472 342.09 70.769 349.65 70.769C357.21 70.769 363.338 76.7472 363.338 84.1218C363.338 91.4964 357.21 97.4746 349.65 97.4746Z" fill="#FFD847"/>
</g>
<path d="M225.199 111.243L231.285 88.0202C231.864 96.0475 238.53 100.062 242.586 106.083C245.832 110.9 246.16 120.131 246.063 124.719L229.836 135.327C229.836 128.16 227.518 117.264 225.199 111.243Z" fill="#383838" fill-opacity="0.15"/>
<path d="M224.422 112.77L230.507 89.5458C231.088 97.5742 237.752 101.588 241.809 107.609C245.055 112.425 245.384 121.658 245.287 126.245L229.059 136.853C229.059 129.685 226.74 118.791 224.422 112.77Z" fill="#A50044"/>
<path d="M245.034 100.653C252.508 100.653 258.567 94.6743 258.567 87.2997C258.567 79.9251 252.508 73.9469 245.034 73.9469C237.561 73.9469 231.502 79.9251 231.502 87.2997C231.502 94.6743 237.561 100.653 245.034 100.653Z" fill="#D08A01"/>
<mask id="mask11_1126_58273" style="mask-type:alpha" maskUnits="userSpaceOnUse" x="231" y="73" width="28" height="28">
<path fill-rule="evenodd" clip-rule="evenodd" d="M245.036 100.653C252.51 100.653 258.569 94.6743 258.569 87.2997C258.569 79.9251 252.51 73.9469 245.036 73.9469C237.563 73.9469 231.504 79.9251 231.504 87.2997C231.504 94.6743 237.563 100.653 245.036 100.653Z" fill="white"/>
</mask>
<g mask="url(#mask11_1126_58273)">
<path d="M240.527 97.4744C248 97.4744 254.059 91.4961 254.059 84.1216C254.059 76.747 248 70.7687 240.527 70.7687C233.053 70.7687 226.994 76.747 226.994 84.1216C226.994 91.4961 233.053 97.4744 240.527 97.4744Z" fill="#FFD847"/>
</g>
</g>
<g filter="url(#filter9_d_1126_58273)">
<path d="M462.442 183.715C476.975 191.926 495.504 186.958 503.826 172.617C512.148 158.276 507.113 139.994 492.579 131.782C478.046 123.57 459.517 128.538 451.195 142.879C442.873 157.22 447.908 175.503 462.442 183.715Z" fill="url(#paint12_radial_1126_58273)"/>
<g style="mix-blend-mode:multiply">
<path fill-rule="evenodd" clip-rule="evenodd" d="M476.922 187.669C473.506 187.094 470.132 185.929 466.95 184.13C452.416 175.918 447.381 157.636 455.703 143.295C461.403 133.472 471.891 128.047 482.605 128.242C470.419 126.194 457.693 131.677 451.193 142.878C442.871 157.219 447.906 175.501 462.44 183.713C467.019 186.3 471.994 187.579 476.922 187.669Z" fill="#00004B" fill-opacity="0.16"/>
</g>
<path d="M462.699 168.724C468.53 171.769 472.734 173.343 475.96 173.389C477.618 173.413 478.466 172.541 479.772 170.29C480.032 169.842 479.875 169.271 479.42 169.014C478.966 168.758 478.387 168.913 478.127 169.361C477.163 171.023 476.671 171.529 475.987 171.519C473.158 171.479 469.159 169.982 463.585 167.071C463.123 166.83 462.549 167.004 462.305 167.461C462.06 167.917 462.236 168.483 462.699 168.724Z" fill="#00004B"/>
<path d="M462.256 145.057C464.463 144.161 470.607 143.238 474.921 147.646C475.849 145.383 469.347 139.932 462.256 145.057Z" fill="#00004B"/>
<path d="M470.168 148.7C473.012 150.274 474.494 153.031 473.317 155.06C472.139 157.089 470.349 152.036 470.349 152.036C470.644 149.718 465.543 147.434 462.573 150.128C463.923 147.766 467.323 147.127 470.168 148.7Z" fill="#00004B"/>
<path d="M468.499 155.841C470.315 156.868 472.526 156.428 473.437 154.86C474.347 153.291 473.612 151.187 471.795 150.16C469.979 149.134 467.768 149.573 466.857 151.142C465.947 152.711 466.682 154.815 468.499 155.841Z" fill="#00004B"/>
<path d="M495.057 163.232C494.754 160.896 492.526 155.171 486.51 153.653C488.044 151.738 496.061 154.616 495.057 163.232Z" fill="#00004B"/>
<path d="M488.895 159.877C491.702 161.431 493.153 164.172 491.976 166.201C490.799 168.23 489.056 163.202 489.056 163.202C489.362 160.889 484.326 158.64 481.371 161.341C482.721 158.979 486.089 158.323 488.895 159.877Z" fill="#00004B"/>
<path d="M487.826 166.761C489.643 167.787 491.801 167.438 492.646 165.982C493.492 164.525 492.704 162.512 490.887 161.485C489.07 160.459 486.912 160.808 486.067 162.264C485.222 163.721 486.009 165.734 487.826 166.761Z" fill="#00004B"/>
<mask id="mask12_1126_58273" style="mask-type:alpha" maskUnits="userSpaceOnUse" x="436" y="156" width="63" height="41">
<path fill-rule="evenodd" clip-rule="evenodd" d="M458.622 196.335C473.999 186.609 488.215 185.873 498.508 192.828C480.093 174.284 426.153 147.916 438.852 159.121C447.971 167.167 455.906 179.193 458.622 196.335Z" fill="white"/>
</mask>
<g mask="url(#mask12_1126_58273)">
<path d="M467.727 174.121L442.118 162.808L454.216 202.527L467.727 174.121Z" fill="#383838" fill-opacity="0.15"/>
<path d="M468.491 175.604L442.882 164.292L454.98 204.011L468.491 175.604Z" fill="#EE0208"/>
<path d="M489.953 189.653L475.235 178.889L451.218 205.709L489.953 189.653Z" fill="#383838" fill-opacity="0.15"/>
<path d="M488.853 190.133L474.135 179.368L450.118 206.189L488.853 190.133Z" fill="#EE0208"/>
</g>
</g>
</g>
<defs>
<filter id="filter0_f_1126_58273" x="0.633224" y="-3.71142" width="596.732" height="266.44" filterUnits="userSpaceOnUse" color-interpolation-filters="sRGB">
<feFlood flood-opacity="0" result="BackgroundImageFix"/>
<feBlend mode="normal" in="SourceGraphic" in2="BackgroundImageFix" result="shape"/>
<feGaussianBlur stdDeviation="49.2264" result="effect1_foregroundBlur_1126_58273"/>
</filter>
<filter id="filter1_d_1126_58273" x="133.244" y="22.506" width="83.3125" height="82.3178" filterUnits="userSpaceOnUse" color-interpolation-filters="sRGB">
<feFlood flood-opacity="0" result="BackgroundImageFix"/>
<feColorMatrix in="SourceAlpha" type="matrix" values="0 0 0 0 0 0 0 0 0 0 0 0 0 0 0 0 0 0 127 0" result="hardAlpha"/>
<feOffset dy="2.09474"/>
<feGaussianBlur stdDeviation="2.09474"/>
<feColorMatrix type="matrix" values="0 0 0 0 0 0 0 0 0 0 0 0 0 0 0 0 0 0 0.3 0"/>
<feBlend mode="normal" in2="BackgroundImageFix" result="effect1_dropShadow_1126_58273"/>
<feBlend mode="normal" in="SourceGraphic" in2="effect1_dropShadow_1126_58273" result="shape"/>
</filter>
<filter id="filter2_d_1126_58273" x="76.9804" y="131.677" width="95.3165" height="94.1627" filterUnits="userSpaceOnUse" color-interpolation-filters="sRGB">
<feFlood flood-opacity="0" result="BackgroundImageFix"/>
<feColorMatrix in="SourceAlpha" type="matrix" values="0 0 0 0 0 0 0 0 0 0 0 0 0 0 0 0 0 0 127 0" result="hardAlpha"/>
<feOffset dy="2.09474"/>
<feGaussianBlur stdDeviation="2.09474"/>
<feColorMatrix type="matrix" values="0 0 0 0 0 0 0 0 0 0 0 0 0 0 0 0 0 0 0.3 0"/>
<feBlend mode="normal" in2="BackgroundImageFix" result="effect1_dropShadow_1126_58273"/>
<feBlend mode="normal" in="SourceGraphic" in2="effect1_dropShadow_1126_58273" result="shape"/>
</filter>
<filter id="filter3_d_1126_58273" x="41.6738" y="55.0472" width="56.7989" height="56.3306" filterUnits="userSpaceOnUse" color-interpolation-filters="sRGB">
<feFlood flood-opacity="0" result="BackgroundImageFix"/>
<feColorMatrix in="SourceAlpha" type="matrix" values="0 0 0 0 0 0 0 0 0 0 0 0 0 0 0 0 0 0 127 0" result="hardAlpha"/>
<feOffset dy="2.09474"/>
<feGaussianBlur stdDeviation="2.09474"/>
<feColorMatrix type="matrix" values="0 0 0 0 0 0 0 0 0 0 0 0 0 0 0 0 0 0 0.3 0"/>
<feBlend mode="normal" in2="BackgroundImageFix" result="effect1_dropShadow_1126_58273"/>
<feBlend mode="normal" in="SourceGraphic" in2="effect1_dropShadow_1126_58273" result="shape"/>
</filter>
<filter id="filter4_d_1126_58273" x="372.213" y="17.0874" width="88.4512" height="87.3952" filterUnits="userSpaceOnUse" color-interpolation-filters="sRGB">
<feFlood flood-opacity="0" result="BackgroundImageFix"/>
<feColorMatrix in="SourceAlpha" type="matrix" values="0 0 0 0 0 0 0 0 0 0 0 0 0 0 0 0 0 0 127 0" result="hardAlpha"/>
<feOffset dy="2.09474"/>
<feGaussianBlur stdDeviation="2.09474"/>
<feColorMatrix type="matrix" values="0 0 0 0 0 0 0 0 0 0 0 0 0 0 0 0 0 0 0.3 0"/>
<feBlend mode="normal" in2="BackgroundImageFix" result="effect1_dropShadow_1126_58273"/>
<feBlend mode="normal" in="SourceGraphic" in2="effect1_dropShadow_1126_58273" result="shape"/>
</filter>
<filter id="filter5_d_1126_58273" x="494.307" y="45.7538" width="67.2266" height="66.4545" filterUnits="userSpaceOnUse" color-interpolation-filters="sRGB">
<feFlood flood-opacity="0" result="BackgroundImageFix"/>
<feColorMatrix in="SourceAlpha" type="matrix" values="0 0 0 0 0 0 0 0 0 0 0 0 0 0 0 0 0 0 127 0" result="hardAlpha"/>
<feOffset dy="2.09474"/>
<feGaussianBlur stdDeviation="2.09474"/>
<feColorMatrix type="matrix" values="0 0 0 0 0 0 0 0 0 0 0 0 0 0 0 0 0 0 0.3 0"/>
<feBlend mode="normal" in2="BackgroundImageFix" result="effect1_dropShadow_1126_58273"/>
<feBlend mode="normal" in="SourceGraphic" in2="effect1_dropShadow_1126_58273" result="shape"/>
</filter>
<filter id="filter6_f_1126_58273" x="232.337" y="215.033" width="127.019" height="17.9081" filterUnits="userSpaceOnUse" color-interpolation-filters="sRGB">
<feFlood flood-opacity="0" result="BackgroundImageFix"/>
<feBlend mode="normal" in="SourceGraphic" in2="BackgroundImageFix" result="shape"/>
<feGaussianBlur stdDeviation="2.84704" result="effect1_foregroundBlur_1126_58273"/>
</filter>
<filter id="filter7_f_1126_58273" x="253.812" y="208.514" width="93.9819" height="30.9476" filterUnits="userSpaceOnUse" color-interpolation-filters="sRGB">
<feFlood flood-opacity="0" result="BackgroundImageFix"/>
<feBlend mode="normal" in="SourceGraphic" in2="BackgroundImageFix" result="shape"/>
<feGaussianBlur stdDeviation="2.84704" result="effect1_foregroundBlur_1126_58273"/>
</filter>
<filter id="filter8_d_1126_58273" x="219.807" y="63.7986" width="150.44" height="148.555" filterUnits="userSpaceOnUse" color-interpolation-filters="sRGB">
<feFlood flood-opacity="0" result="BackgroundImageFix"/>
<feColorMatrix in="SourceAlpha" type="matrix" values="0 0 0 0 0 0 0 0 0 0 0 0 0 0 0 0 0 0 127 0" result="hardAlpha"/>
<feOffset dy="2.09474"/>
<feGaussianBlur stdDeviation="2.09474"/>
<feColorMatrix type="matrix" values="0 0 0 0 0 0 0 0 0 0 0 0 0 0 0 0 0 0 0.3 0"/>
<feBlend mode="normal" in2="BackgroundImageFix" result="effect1_dropShadow_1126_58273"/>
<feBlend mode="normal" in="SourceGraphic" in2="effect1_dropShadow_1126_58273" result="shape"/>
</filter>
<filter id="filter9_d_1126_58273" x="406.258" y="101.329" width="126.406" height="124.84" filterUnits="userSpaceOnUse" color-interpolation-filters="sRGB">
<feFlood flood-opacity="0" result="BackgroundImageFix"/>
<feColorMatrix in="SourceAlpha" type="matrix" values="0 0 0 0 0 0 0 0 0 0 0 0 0 0 0 0 0 0 127 0" result="hardAlpha"/>
<feOffset dy="2.09474"/>
<feGaussianBlur stdDeviation="2.09474"/>
<feColorMatrix type="matrix" values="0 0 0 0 0 0 0 0 0 0 0 0 0 0 0 0 0 0 0.3 0"/>
<feBlend mode="normal" in2="BackgroundImageFix" result="effect1_dropShadow_1126_58273"/>
<feBlend mode="normal" in="SourceGraphic" in2="effect1_dropShadow_1126_58273" result="shape"/>
</filter>
<radialGradient id="paint0_radial_1126_58273" cx="0" cy="0" r="1" gradientUnits="userSpaceOnUse" gradientTransform="translate(169.835 44.8781) rotate(-17.7763) scale(42.4634 42.0057)">
<stop stop-color="#F9C700"/>
<stop offset="1" stop-color="#F79C01"/>
</radialGradient>
<radialGradient id="paint1_radial_1126_58273" cx="0" cy="0" r="1" gradientUnits="userSpaceOnUse" gradientTransform="translate(167.936 39.269) rotate(71.7739) scale(6.42755 6.70646)">
<stop stop-color="white"/>
<stop offset="1" stop-color="#D0D0D0"/>
</radialGradient>
<radialGradient id="paint2_radial_1126_58273" cx="0" cy="0" r="1" gradientUnits="userSpaceOnUse" gradientTransform="translate(169.062 43.0664) rotate(71.7739) scale(12.5538 27.0482)">
<stop stop-color="white"/>
<stop offset="1" stop-color="#D9D9D9"/>
</radialGradient>
<radialGradient id="paint3_radial_1126_58273" cx="0" cy="0" r="1" gradientUnits="userSpaceOnUse" gradientTransform="translate(171.526 50.557) rotate(71.7739) scale(16.0947 45.2704)">
<stop stop-color="white"/>
<stop offset="1" stop-color="#DBDBDB"/>
</radialGradient>
<radialGradient id="paint4_radial_1126_58273" cx="0" cy="0" r="1" gradientUnits="userSpaceOnUse" gradientTransform="translate(129.331 150.71) rotate(8.88251) scale(54.3096 53.6237)">
<stop stop-color="#F9C700"/>
<stop offset="1" stop-color="#F79C01"/>
</radialGradient>
<radialGradient id="paint5_radial_1126_58273" cx="0" cy="0" r="1" gradientUnits="userSpaceOnUse" gradientTransform="translate(68.2897 66.3191) rotate(-7.99845) scale(30.6987 30.3071)">
<stop stop-color="#F9C700"/>
<stop offset="1" stop-color="#F79C01"/>
</radialGradient>
<radialGradient id="paint6_radial_1126_58273" cx="0" cy="0" r="1" gradientUnits="userSpaceOnUse" gradientTransform="translate(422.429 36.4968) rotate(13.6259) scale(47.2924 46.735)">
<stop stop-color="#F9C700"/>
<stop offset="1" stop-color="#F79C01"/>
</radialGradient>
<radialGradient id="paint7_radial_1126_58273" cx="0" cy="0" r="1" gradientUnits="userSpaceOnUse" gradientTransform="translate(532.85 64.3208) rotate(19.5889) scale(32.8254 32.4885)">
<stop stop-color="#F9C700"/>
<stop offset="1" stop-color="#F79C01"/>
</radialGradient>
<radialGradient id="paint8_radial_1126_58273" cx="0" cy="0" r="1" gradientUnits="userSpaceOnUse" gradientTransform="translate(534.385 60.0055) rotate(110.07) scale(4.97127 5.18428)">
<stop stop-color="#99CCFF"/>
<stop offset="1" stop-color="#3974B0"/>
</radialGradient>
<radialGradient id="paint9_radial_1126_58273" cx="0" cy="0" r="1" gradientUnits="userSpaceOnUse" gradientTransform="translate(533.246 62.8519) rotate(110.07) scale(9.70953 20.9089)">
<stop stop-color="#99CCFF"/>
<stop offset="1" stop-color="#79A6D3"/>
</radialGradient>
<radialGradient id="paint10_radial_1126_58273" cx="0" cy="0" r="1" gradientUnits="userSpaceOnUse" gradientTransform="translate(531.155 68.5811) rotate(110.07) scale(12.4481 34.9952)">
<stop stop-color="#99CCFF"/>
<stop offset="1" stop-color="#71A5DA"/>
</radialGradient>
<radialGradient id="paint11_radial_1126_58273" cx="0" cy="0" r="1" gradientUnits="userSpaceOnUse" gradientTransform="translate(296.005 86.7007) scale(101.568 100.221)">
<stop stop-color="#F9C700"/>
<stop offset="1" stop-color="#F79C01"/>
</radialGradient>
<radialGradient id="paint12_radial_1126_58273" cx="0" cy="0" r="1" gradientUnits="userSpaceOnUse" gradientTransform="translate(492.579 131.782) rotate(29.4674) scale(61.6321 61.2128)">
<stop stop-color="#F9C700"/>
<stop offset="1" stop-color="#F79C01"/>
</radialGradient>
<clipPath id="clip0_1126_58273">
<rect width="598" height="258" fill="white"/>
</clipPath>
</defs>
</svg>
