<svg width="200" height="200" viewBox="0 0 200 200" fill="none" xmlns="http://www.w3.org/2000/svg">
<g clip-path="url(#clip0)">
<path d="M100 12.3559C85.495 12.3559 78.4643 8.00024 77.8415 8.00024C77.155 8.00024 75.318 9.9018 74.8089 10.443C62.6098 16.3034 50.2579 19.057 42.8373 22.4247C39.0644 24.1363 36.7885 25.365 35.1434 26.5406C33.7093 27.501 32.6725 28.4153 31.4975 29.5367C31.3077 29.718 31.1224 29.8966 30.9318 30.0813C26.7778 34.0616 19.3767 40.4793 16.2696 53.3465C15.1113 58.1414 11.0988 73.9291 9.13821 82.6146C8.37143 85.4407 7.79546 88.125 8.06961 88.4603C8.58391 89.0873 11.8749 90.5094 21.5817 92.7225C31.9335 95.0845 42.8912 95.3886 43.5765 94.7046C43.9928 94.2886 44.9461 91.1579 45.3089 89.3341C46.3982 85.4185 47.6765 80.5862 48.3055 79.2527C49.1781 82.7107 49.7211 86.8949 49.7211 91.4948C49.7211 104.497 49.6589 114.062 49.6589 129.117C49.6589 144.172 49.6821 184.331 49.6821 188.778C49.6821 192.766 75.7757 191.927 100 191.927C124.225 191.927 150.318 192.766 150.318 188.778C150.318 184.331 150.342 144.172 150.342 129.117C150.342 114.062 150.279 104.497 150.279 91.4948C150.279 86.8949 150.822 82.7107 151.695 79.2527C152.324 80.5862 153.602 85.4185 154.692 89.3341C155.054 91.1579 156.008 94.2886 156.424 94.7047C157.109 95.3886 168.067 95.0845 178.419 92.7225C188.126 90.5094 191.417 89.0873 191.931 88.4603C192.205 88.1251 191.629 85.4407 190.862 82.6146C188.902 73.9292 184.889 58.1414 183.731 53.3465C180.624 40.4793 173.223 34.0616 169.069 30.0813C168.878 29.8966 168.693 29.718 168.503 29.5367C167.328 28.4153 166.291 27.501 164.857 26.5406C163.212 25.365 160.936 24.1363 157.163 22.4247C149.743 19.057 137.391 16.3034 125.192 10.443C124.683 9.9018 122.845 8.00025 122.159 8.00025C121.536 8.00025 114.505 12.3559 100 12.3559Z" fill="#0D3AFF" fill-opacity="0.98"/>
<path d="M122.2 8C122.9 8 124.7 9.89999 125.2 10.4C137.4 16.3 149.8 19 157.2 22.4C161 24.1 163.2 25.3 164.9 26.5C166.3 27.5 167.4 28.4 168.5 29.5C168.7 29.7 168.9 29.9 169.1 30C173.3 34 180.7 40.4 183.8 53.3C185 58.1 189 73.9 190.9 82.6C191.7 85.4 192.2 88.1 192 88.4C191.5 89 188.2 90.4 178.5 92.7C171.2 94.4 163.7 95 159.6 95C157.9 95 156.7 94.9 156.5 94.7C156.1 94.3 155.1 91.2 154.8 89.3C153.7 85.4 152.4 80.6 151.8 79.2C150.9 82.7 150.4 86.8 150.4 91.4C150.4 104.4 150.5 114 150.5 129C150.5 144 150.5 184.2 150.5 188.7C150.5 191.5 137.6 191.9 121.5 191.9C114.7 191.9 107.4 191.8 100.2 191.8C93 191.8 85.7 191.9 78.9 191.9C62.8 191.9 49.9 191.5 49.9 188.7C49.9 184.3 49.9 144.1 49.9 129C49.9 113.9 50 104.4 50 91.4C50 86.8 49.5 82.6 48.6 79.2C48 80.5 46.7 85.4 45.6 89.3C45.2 91.1 44.3 94.3 43.9 94.7C43.7 94.9 42.6 95 40.8 95C36.7 95 29.1 94.4 21.9 92.7C12.2 90.5 8.90002 89.1 8.40002 88.4C8.10002 88.1 8.70003 85.4 9.50003 82.6C11.5 73.9 15.5 58.1 16.6 53.3C19.7 40.4 27.1 34 31.3 30C31.5 29.8 31.7 29.6 31.9 29.5C33.1 28.4 34.1 27.5 35.5 26.5C37.1 25.3 39.4 24.1 43.2 22.4C50.6 19 63 16.3 75.2 10.4C75.7 9.89999 77.5 8 78.2 8C78.8 8 85.9 12.4 100.4 12.4C114.5 12.4 121.5 8 122.2 8ZM122.2 0C120.4 0 119.2 0.6 118.1 1C116.2 1.8 110.4 4.39999 100 4.39999C89.6 4.39999 83.8 1.9 81.9 1C80.9 0.6 79.6 0 77.8 0C74.8 0 72.5 1.49999 70.1 3.79999C63.8 6.69999 57.4 8.80001 51.7 10.7C47 12.2 43 13.6 39.5 15.2C35.4 17.1 32.7 18.5 30.6 20C28.8 21.2 27.4 22.4 26 23.8C25.8 24 25.6 24.2 25.4 24.4L24.7 25.1C20.3 29.3 12 37.2 8.50003 51.6C8.20003 53 7.60002 55.3 6.90002 58.2C5.20002 65.1 2.80002 74.6 1.40002 80.8C0.100021 85.7 -1.09998 90 1.90002 93.6C3.60002 95.6 5.90003 97.4 19.8 100.6C27.9 102.4 36 103.1 40.5 103.1C40.9 103.1 41.3 103.1 41.7 103.1C41.7 105.1 41.7 107 41.7 109C41.7 115.1 41.7 121.4 41.7 129.2C41.7 139 41.7 159.2 41.7 173.5C41.7 181.3 41.7 187.3 41.7 188.8C41.7 190.4 42.3 196 49.7 198.2C51.7 198.8 54.1 199.2 57.5 199.5C63.5 200 71.6 200.1 78.7 200.1C82.1 200.1 85.5 200.1 89.1 200.1C92.7 200.1 96.4 200.1 100 200.1C103.6 200.1 107.3 200.1 110.9 200.1C114.4 200.1 117.9 200.1 121.3 200.1C128.4 200.1 136.6 200 142.5 199.5C145.9 199.2 148.3 198.8 150.3 198.2C157.7 196 158.3 190.5 158.3 188.8C158.3 187.2 158.3 181.2 158.3 173.5C158.3 159.2 158.3 138.9 158.3 129.2C158.3 121.4 158.3 115.1 158.3 109C158.3 107 158.3 105.1 158.3 103.1C158.7 103.1 159.1 103.1 159.5 103.1C164 103.1 172.1 102.4 180.2 100.6C194.1 97.4 196.5 95.6 198.1 93.6C201.1 90 200 85.7 198.6 80.8C197.2 74.6 194.8 65.1 193.1 58.2C192.4 55.4 191.8 53 191.5 51.6C188 37 179.8 29.2 175.3 25L174.6 24.3C174.4 24.1 174.2 23.9 174 23.7C172.6 22.3 171.2 21.1 169.4 19.9C167.3 18.4 164.6 17 160.5 15.1C157 13.5 153 12.2 148.3 10.6C142.6 8.70001 136.2 6.60001 129.9 3.70001C127.5 1.50001 125.2 0 122.2 0Z" fill="white"/>
<path d="M99.9999 191.9C103.6 191.9 107.3 191.9 110.9 191.9C131.4 192 150.3 192.1 150.3 188.7C150.3 187.1 150.3 181.1 150.3 173.4C150.3 159.1 150.3 138.8 150.3 129.1C150.3 121.3 150.3 115 150.3 108.9C150.3 103.2 150.3 97.7999 150.3 91.4999C150.3 86.8999 150.8 82.6999 151.7 79.2999C152.2 80.3999 153.2 83.8999 154.1 87.2999C154.3 87.9999 154.5 88.6999 154.7 89.2999C155.1 91.0999 156 94.3 156.4 94.7C157.1 95.4 168 95.1 178.4 92.7C188.1 90.5 191.4 89.0999 191.9 88.3999C192.2 88.0999 191.6 85.3999 190.8 82.5999C189.4 76.4999 187 66.7999 185.3 59.9999C184.6 57.0999 184 54.7999 183.7 53.3999C180.8 41.2999 174 34.8999 169.8 30.7999C169.5 30.5999 169.3 30.2999 169 30.0999C168.8 29.8999 168.6 29.6999 168.4 29.5999C167.2 28.4999 166.2 27.5999 164.8 26.5999C163.2 25.3999 160.9 24.1999 157.1 22.4999C154 21.0999 150.1 19.7999 145.7 18.3999C139.5 16.3999 132.3 13.9999 125.1 10.5999C124.6 10.0999 122.8 8.19995 122.1 8.19995C122 8.19995 121.7 8.29994 121.2 8.49994C118.8 9.49994 111.9 12.4999 99.8999 12.4999V191.9H99.9999Z" fill="black" fill-opacity="0.1"/>
<path d="M98.0001 79.1001C96.8001 79.1001 95.8001 80.1001 95.8001 81.3001V95.8001H81.3001C80.1001 95.8001 79.1001 96.8001 79.1001 98.0001V101.9C79.1001 103.1 80.1001 104.1 81.3001 104.1H95.8001V118.6C95.8001 119.8 96.8001 120.8 98.0001 120.8H101.9C103.1 120.8 104.1 119.8 104.1 118.6V104.1H118.6C119.8 104.1 120.8 103.1 120.8 101.9V98.0001C120.8 96.8001 119.8 95.8001 118.6 95.8001H104.1V81.3001C104.1 80.1001 103.1 79.1001 101.9 79.1001H98.0001Z" fill="white"/>
</g>
<defs>
<clipPath id="clip0">
<rect width="200" height="200" fill="white"/>
</clipPath>
</defs>
</svg>
