<svg width="180" height="159" viewBox="0 0 180 159" fill="none" xmlns="http://www.w3.org/2000/svg">
<path fill-rule="evenodd" clip-rule="evenodd" d="M170.732 29.8012C170.732 29.8012 147.93 28.5158 138.442 28.6363C129.383 28.7588 120.284 29.2764 111.3 30.0258C109.606 27.1131 105.127 19.5738 99.204 11.7618C94.1644 5.11476 87.72 -0.97389 87.72 -0.97389L85.8237 -2.64L84.6232 -0.786044C84.6232 -0.786044 79.2003 7.91918 74.9253 17.5238C70.7605 26.8783 67.0286 38.2287 65.7735 42.2806C59.8732 44.9585 53.1183 48.4693 47.5164 51.6219C41.6515 54.9449 34.3303 59.687 28.3309 64.1851C24.065 61.7288 21.2716 59.9575 19.8648 59.0316C19.2317 58.6151 18.8808 58.2516 18.5652 57.6799C18.2092 57.0378 16.1106 57.7412 16.5425 58.5875C16.9875 59.4593 17.5569 60.177 18.5045 60.8641C19.4522 61.5522 23.4501 64.182 26.1079 65.9012C22.5601 68.6822 19.1387 71.6295 15.964 74.8484C11.3573 79.5486 7.15303 84.8369 4.55485 90.9674C4.44461 91.2267 4.5063 91.5034 4.68835 91.582C4.87039 91.6606 5.1111 91.5177 5.23246 91.2624C8.01673 85.3851 12.3352 80.3919 17.0401 75.9734C20.4807 72.7627 24.1833 69.848 28.0214 67.1253C38.3161 73.6968 48.9869 79.665 59.8449 85.232C59.1703 94.6824 59.0166 104.046 59.1683 113.454C59.3453 123.315 61.2739 145.733 61.2739 145.733L61.8423 150.54L64.5649 146.421C64.5649 146.421 73.4103 133.31 81.7863 122.219C89.1673 112.445 96.801 103.604 97.9398 102.35L142.897 125.445L97.1034 97.3184C97.1034 97.3184 88.3359 106.73 79.0698 119.653C71.5898 130.083 64.0784 141.419 64.0784 141.419C64.0784 141.419 62.8506 122.76 62.8112 113.412C62.7839 103.667 63.0155 93.3175 64.0875 82.8022C54.5039 78.5145 40.9689 71.558 30.4679 65.4367C36.4086 61.5226 43.0978 57.538 49.0102 54.507C54.9186 51.4963 61.8464 48.2274 69.118 45.2464C70.6331 39.4538 73.92 28.3882 77.751 18.9122C81.6023 9.38825 85.8035 2.35016 86.4892 1.07404C87.2699 1.89586 92.2034 7.13819 96.6432 13.6444C102.421 22.1097 109.082 34.3329 109.082 34.3329C109.082 34.3329 123.889 32.7322 138.281 32.2973C150.494 31.9277 162.201 32.6862 166.472 32.9537C163.529 35.1098 156.435 40.5778 148.007 47.425C139.577 54.2721 130.418 62.3475 124.161 68.4861C152.49 125.445 152.49 125.445 152.49 125.445L129.022 69.3366C133.84 64.5159 142.09 57.0275 150.088 50.3927C159.091 42.9248 171.626 33.3376 171.626 33.3376L175.68 30.2943L170.732 29.8012Z" fill="url(#paint0_linear)"/>
<path d="M37.3392 77.589H49.6094L48.5869 81.3737H42.292V85.9602H48.2673L47.4685 89.7449H42.292V97.6992H37.3392V77.589Z" fill="white"/>
<path d="M56.1953 98.052C54.7042 98.052 53.4154 97.6992 52.3289 96.9936C51.2425 96.2879 50.4117 95.3364 49.8366 94.139C49.2827 92.9202 49.0058 91.5731 49.0058 90.0977C49.0058 88.6223 49.2827 87.2859 49.8366 86.0885C50.4117 84.8697 51.2425 83.9075 52.3289 83.2019C53.4154 82.4962 54.7042 82.1434 56.1953 82.1434C57.6865 82.1434 58.9753 82.4962 60.0617 83.2019C61.1481 83.9075 61.9683 84.8697 62.5221 86.0885C63.0973 87.2859 63.3849 88.6223 63.3849 90.0977C63.3849 91.5731 63.0973 92.9202 62.5221 94.139C61.9683 95.3364 61.1481 96.2879 60.0617 96.9936C58.9753 97.6992 57.6865 98.052 56.1953 98.052ZM56.1953 94.9088C56.8983 94.9088 57.4415 94.5025 57.825 93.69C58.2084 92.856 58.4001 91.6586 58.4001 90.0977C58.4001 88.5368 58.2084 87.3501 57.825 86.5375C57.4415 85.7036 56.8983 85.2866 56.1953 85.2866C55.4923 85.2866 54.9491 85.7036 54.5657 86.5375C54.1822 87.3501 53.9905 88.5368 53.9905 90.0977C53.9905 91.6586 54.1822 92.856 54.5657 93.69C54.9491 94.5025 55.4923 94.9088 56.1953 94.9088Z" fill="white"/>
<path d="M71.6304 98.052C70.1393 98.052 68.8505 97.6992 67.764 96.9936C66.6776 96.2879 65.8468 95.3364 65.2717 94.139C64.7178 92.9202 64.4409 91.5731 64.4409 90.0977C64.4409 88.6223 64.7178 87.2859 65.2717 86.0885C65.8468 84.8697 66.6776 83.9075 67.764 83.2019C68.8505 82.4962 70.1393 82.1434 71.6304 82.1434C73.1216 82.1434 74.4104 82.4962 75.4968 83.2019C76.5832 83.9075 77.4034 84.8697 77.9572 86.0885C78.5324 87.2859 78.82 88.6223 78.82 90.0977C78.82 91.5731 78.5324 92.9202 77.9572 94.139C77.4034 95.3364 76.5832 96.2879 75.4968 96.9936C74.4104 97.6992 73.1216 98.052 71.6304 98.052ZM71.6304 94.9088C72.3334 94.9088 72.8766 94.5025 73.2601 93.69C73.6435 92.856 73.8352 91.6586 73.8352 90.0977C73.8352 88.5368 73.6435 87.3501 73.2601 86.5375C72.8766 85.7036 72.3334 85.2866 71.6304 85.2866C70.9274 85.2866 70.3842 85.7036 70.0008 86.5375C69.6173 87.3501 69.4256 88.5368 69.4256 90.0977C69.4256 91.6586 69.6173 92.856 70.0008 93.69C70.3842 94.5025 70.9274 94.9088 71.6304 94.9088Z" fill="white"/>
<path d="M86.2028 98.052C84.5625 98.052 83.3057 97.5923 82.4323 96.6728C81.5376 95.732 81.0902 94.3207 81.0902 92.4391V85.3829L78.7256 84.6131V82.4321H81.0902V79.1926L85.8193 78.1984V82.4321H89.8455L89.0786 85.4791H85.8193V92.5674C85.8193 93.4013 85.9791 93.9786 86.2986 94.2994C86.5543 94.556 86.9164 94.6843 87.3851 94.6843C88.0454 94.6843 88.9082 94.4277 89.9733 93.9145L90.2609 97.0898C88.791 97.7313 87.4383 98.052 86.2028 98.052Z" fill="white"/>
<path d="M99.5669 98.052C98.0331 98.052 96.6698 97.3571 95.4768 95.9672L94.5821 97.6992H91.7702V78.1663L96.4993 77.172V83.3943C96.968 83.0094 97.4899 82.7101 98.0651 82.4962C98.6615 82.261 99.2473 82.1434 99.8225 82.1434C101.165 82.1434 102.304 82.6459 103.242 83.6509C103.902 84.3351 104.413 85.2118 104.775 86.2809C105.159 87.3287 105.35 88.5368 105.35 89.9053C105.35 91.0385 105.223 92.097 104.967 93.0806C104.733 94.0642 104.381 94.9195 103.913 95.6465C103.444 96.3948 102.826 96.9829 102.059 97.4105C101.292 97.8382 100.462 98.052 99.5669 98.052ZM98.2568 94.8125C98.9385 94.8125 99.4497 94.4811 99.7906 93.8183C100.174 93.0485 100.366 91.7869 100.366 90.0336C100.366 86.9331 99.6841 85.3829 98.3207 85.3829C97.6816 85.3829 97.2023 85.6608 96.8828 86.2168C96.6272 86.6658 96.4993 87.3287 96.4993 88.2054V93.9145C96.6698 94.1497 96.9254 94.3635 97.2662 94.556C97.6071 94.727 97.9372 94.8125 98.2568 94.8125Z" fill="white"/>
<path d="M111.33 98.052C110.435 98.052 109.615 97.8596 108.869 97.4747C108.124 97.0684 107.527 96.5018 107.08 95.7748C106.654 95.0478 106.441 94.2245 106.441 93.3051C106.441 91.5731 107.186 90.2474 108.677 89.3279C110.169 88.4085 112.15 87.8846 114.621 87.7563C114.621 87.0507 114.429 86.4841 114.046 86.0564C113.662 85.6288 113.034 85.4149 112.16 85.4149C110.904 85.4149 109.508 85.8319 107.974 86.6658L107.623 83.266C109.561 82.5176 111.372 82.1434 113.055 82.1434C115.185 82.1434 116.783 82.6887 117.848 83.7792C118.849 84.8269 119.35 86.3237 119.35 88.2695V97.6992H116.442L115.643 95.9672C115.175 96.6087 114.568 97.1219 113.822 97.5067C113.076 97.8702 112.246 98.052 111.33 98.052ZM112.767 94.7484C113.364 94.7484 113.822 94.5239 114.141 94.0748C114.461 93.6258 114.621 92.9309 114.621 91.9901V90.4184C112.32 90.5467 111.17 91.3807 111.17 92.9202C111.17 93.4548 111.308 93.8931 111.585 94.2352C111.883 94.5773 112.278 94.7484 112.767 94.7484Z" fill="white"/>
<path d="M121.768 78.1663L126.497 77.172V97.6992H121.768V78.1663Z" fill="white"/>
<path d="M129.09 78.1663L133.819 77.172V97.6992H129.09V78.1663Z" fill="white"/>
<path d="M22.5 43.7964H40.4712L38.9736 49.3188H29.754V56.0112H38.5056L37.3356 61.5336H29.754V73.14H22.5V43.7964Z" fill="white"/>
<path d="M46.3373 73.6548C45.0269 73.6548 43.8257 73.374 42.7337 72.8124C41.6417 72.2196 40.7681 71.3928 40.1129 70.332C39.4889 69.2712 39.1769 68.07 39.1769 66.7284C39.1769 64.2012 40.2689 62.2668 42.4529 60.9252C44.6369 59.5836 47.5385 58.8192 51.1577 58.632C51.1577 57.6024 50.8769 56.7756 50.3153 56.1516C49.7537 55.5276 48.8333 55.2156 47.5541 55.2156C45.7133 55.2156 43.6697 55.824 41.4233 57.0408L40.9085 52.08C43.7477 50.988 46.3997 50.442 48.8645 50.442C51.9845 50.442 54.3245 51.2376 55.8845 52.8288C57.3509 54.3576 58.0841 56.5416 58.0841 59.3808V73.14H53.8253L52.6553 70.6128C51.9689 71.5488 51.0797 72.2976 49.9877 72.8592C48.8957 73.3896 47.6789 73.6548 46.3373 73.6548ZM48.4433 68.8344C49.3169 68.8344 49.9877 68.5068 50.4557 67.8516C50.9237 67.1964 51.1577 66.1824 51.1577 64.8096V62.5164C47.7881 62.7036 46.1033 63.9204 46.1033 66.1668C46.1033 66.9468 46.3061 67.5864 46.7117 68.0856C47.1485 68.5848 47.7257 68.8344 48.4433 68.8344Z" fill="white"/>
<path d="M61.5323 50.8632H65.6975L66.9611 53.3904C67.6787 52.4856 68.5991 51.768 69.7223 51.2376C70.8455 50.7072 72.0311 50.442 73.2791 50.442C74.4647 50.442 75.5411 50.6448 76.5083 51.0504C77.4755 51.456 78.2867 52.0332 78.9419 52.782C80.2523 54.2796 80.9075 56.4168 80.9075 59.1936V73.14H73.9811V59.1936C73.9811 57.852 73.7783 56.8848 73.3727 56.292C72.9047 55.6368 72.2495 55.3092 71.4071 55.3092C70.9703 55.3092 70.5647 55.4028 70.1903 55.59C69.8159 55.7772 69.5039 56.0268 69.2543 56.3388C68.9423 56.7132 68.7239 57.1968 68.5991 57.7896C68.5055 58.3512 68.4587 59.1312 68.4587 60.1296V73.14H61.5323V50.8632Z" fill="white"/>
<path d="M92.6042 73.6548C90.2018 73.6548 88.361 72.984 87.0818 71.6424C85.7714 70.2696 85.1162 68.2104 85.1162 65.4648V55.1688L81.653 54.0456V50.8632H85.1162V46.1364L92.0426 44.6856V50.8632H97.9394L96.8162 55.3092H92.0426V65.652C92.0426 66.8688 92.2766 67.7112 92.7446 68.1792C93.119 68.5536 93.6494 68.7408 94.3358 68.7408C95.303 68.7408 96.5666 68.3664 98.1266 67.6176L98.5478 72.2508C96.395 73.1868 94.4138 73.6548 92.6042 73.6548Z" fill="white"/>
<path d="M106.753 73.6548C105.443 73.6548 104.242 73.374 103.15 72.8124C102.058 72.2196 101.184 71.3928 100.529 70.332C99.9048 69.2712 99.5928 68.07 99.5928 66.7284C99.5928 64.2012 100.685 62.2668 102.869 60.9252C105.053 59.5836 107.954 58.8192 111.574 58.632C111.574 57.6024 111.293 56.7756 110.731 56.1516C110.17 55.5276 109.249 55.2156 107.97 55.2156C106.129 55.2156 104.086 55.824 101.839 57.0408L101.324 52.08C104.164 50.988 106.816 50.442 109.28 50.442C112.4 50.442 114.74 51.2376 116.3 52.8288C117.767 54.3576 118.5 56.5416 118.5 59.3808V73.14H114.241L113.071 70.6128C112.385 71.5488 111.496 72.2976 110.404 72.8592C109.312 73.3896 108.095 73.6548 106.753 73.6548ZM108.859 68.8344C109.733 68.8344 110.404 68.5068 110.872 67.8516C111.34 67.1964 111.574 66.1824 111.574 64.8096V62.5164C108.204 62.7036 106.519 63.9204 106.519 66.1668C106.519 66.9468 106.722 67.5864 107.128 68.0856C107.564 68.5848 108.142 68.8344 108.859 68.8344Z" fill="white"/>
<path d="M127.845 73.6548C126.753 73.6548 125.63 73.5144 124.475 73.2336C123.321 72.984 122.307 72.6252 121.433 72.1572L121.667 67.1964C122.51 67.7892 123.415 68.2572 124.382 68.6004C125.38 68.9124 126.301 69.0684 127.143 69.0684C127.954 69.0684 128.609 68.9124 129.109 68.6004C129.608 68.2572 129.857 67.7892 129.857 67.1964C129.857 66.6348 129.608 66.1512 129.109 65.7456C128.641 65.34 127.892 64.872 126.862 64.3416C125.739 63.7488 124.803 63.1872 124.054 62.6568C123.337 62.0952 122.713 61.362 122.182 60.4572C121.652 59.5524 121.387 58.4448 121.387 57.1344C121.387 55.2 122.073 53.6244 123.446 52.4076C124.132 51.7836 124.99 51.3 126.02 50.9568C127.049 50.6136 128.157 50.442 129.343 50.442C131.277 50.442 133.305 50.8788 135.427 51.7524L135.193 56.6664C133.445 55.5432 131.792 54.9816 130.232 54.9816C129.545 54.9816 128.984 55.1376 128.547 55.4496C128.11 55.7304 127.892 56.1204 127.892 56.6196C127.892 57.1188 128.11 57.5556 128.547 57.93C129.015 58.2732 129.764 58.7412 130.793 59.334C131.917 59.9268 132.853 60.504 133.601 61.0656C134.35 61.596 134.99 62.3136 135.52 63.2184C136.082 64.092 136.363 65.1528 136.363 66.4008C136.363 68.3664 135.723 70.02 134.444 71.3616C132.977 72.8904 130.778 73.6548 127.845 73.6548Z" fill="white"/>
<path d="M141.09 82.1724C140.404 82.1724 139.858 82.1256 139.452 82.032L138.236 77.2116H138.844C139.718 77.2116 140.42 77.1336 140.95 76.9776C141.512 76.8216 141.98 76.5564 142.354 76.182C142.947 75.5892 143.54 74.388 144.132 72.5784L136.457 50.8632H143.805L147.408 64.95H147.596L150.918 50.8632H157.377L150.731 71.9232C150.014 74.1384 149.343 75.8388 148.719 77.0244C148.126 78.2412 147.44 79.2396 146.66 80.0196C145.973 80.706 145.146 81.2364 144.179 81.6108C143.212 81.9852 142.182 82.1724 141.09 82.1724Z" fill="white"/>
<defs>
<linearGradient id="paint0_linear" x1="92.52" y1="138.21" x2="84.7853" y2="12.9186" gradientUnits="userSpaceOnUse">
<stop stop-color="#039DFD" stop-opacity="0.3"/>
<stop offset="0.372749" stop-color="#0388FA" stop-opacity="0"/>
<stop offset="0.623105" stop-color="#037EF9" stop-opacity="0"/>
<stop offset="1" stop-color="#045EF4"/>
</linearGradient>
</defs>
</svg>
