<svg width="56" height="46" viewBox="0 0 56 46" fill="none" xmlns="http://www.w3.org/2000/svg">
<path fill-rule="evenodd" clip-rule="evenodd" d="M37.8307 5.204C38.3605 5.3915 38.8556 5.6161 39.3046 5.8771L42.1201 7.5134L43.8164 8.499C44.9331 9.148 45.6389 9.9457 45.9379 10.7832C45.9921 10.9352 46.0333 11.0885 46.0608 11.2425C45.6712 10.879 45.2601 10.5105 44.829 10.1387C43.6736 9.1432 42.3665 8.1258 40.8972 7.1236C40.0942 6.576 39.2454 6.0328 38.3436 5.5008C38.1775 5.4029 38.0062 5.3037 37.8307 5.204ZM32.0478 4.647C32.3772 4.6056 32.712 4.5764 33.0517 4.5596C33.2064 4.6218 33.3648 4.6887 33.5237 4.756C33.773 4.8614 34.0272 4.9731 34.2869 5.091C34.452 5.166 34.6189 5.2436 34.7882 5.3237C34.8548 5.3553 34.9219 5.3875 34.9889 5.4198C35.4886 5.6605 36.0064 5.9243 36.5426 6.2132C36.8322 6.3693 37.1269 6.5322 37.4271 6.7031C37.4671 6.7257 37.5058 6.7469 37.546 6.77C37.5741 6.7862 37.6013 6.8008 37.6296 6.8171C37.6418 6.824 37.6533 6.8303 37.6655 6.8372C39.9768 8.1718 41.9417 9.54 43.5962 10.8475C44.2677 11.3782 44.8871 11.8984 45.4576 12.4028C45.6004 12.5385 45.7395 12.673 45.8763 12.8068C45.737 13.1367 45.532 13.4587 45.2648 13.7675C44.6702 13.1635 44.0158 12.5378 43.3006 11.9004C41.7209 10.4923 39.8425 9.0276 37.6296 7.6129C37.4798 7.5171 37.3258 7.4218 37.1727 7.3266C37.1346 7.3027 37.0969 7.2786 37.0584 7.2549C36.7737 7.0784 36.4852 6.9027 36.1898 6.7284C35.8337 6.5182 35.4555 6.3031 35.058 6.0876C34.4962 5.7827 33.8955 5.4771 33.2656 5.1831C33.191 5.1483 33.1163 5.1137 33.0408 5.0793C32.9773 5.0502 32.9136 5.0211 32.8496 4.9924C32.6367 4.8969 32.4205 4.8031 32.2018 4.7112C32.1506 4.6898 32.0994 4.6682 32.0478 4.647ZM27.4756 3.2726C27.6469 3.2289 27.8189 3.1863 27.9928 3.1461C28.0164 3.1477 28.0403 3.1495 28.064 3.1513C28.4017 3.1988 28.7628 3.261 29.149 3.3418C29.3717 3.3886 29.6041 3.4428 29.8428 3.5024C29.947 3.5283 30.0501 3.5536 30.1573 3.5821C30.2201 3.5987 30.286 3.618 30.3498 3.6357C30.0719 3.6706 29.7963 3.71 29.5231 3.7541C29.4634 3.7366 29.4032 3.7202 29.3433 3.7034C29.2564 3.6788 29.1694 3.6546 29.0821 3.6312C28.8739 3.5754 28.6647 3.5229 28.4545 3.4737C28.13 3.3978 27.8035 3.3308 27.4756 3.2726ZM15.0205 16.8533C14.5324 16.6043 14.0216 16.3582 13.4914 16.1226C13.341 16.0557 13.189 15.99 13.0358 15.9249C12.9121 15.8725 12.7874 15.8206 12.662 15.7695C12.3523 15.6432 12.0376 15.521 11.7183 15.4049L12.1764 15.1392C12.4929 15.244 12.8186 15.358 13.1572 15.4853C13.2825 15.5324 13.4113 15.5836 13.5396 15.6339C13.6718 15.6859 13.8031 15.7371 13.9385 15.7925C14.423 15.9915 14.9298 16.2154 15.4559 16.4633C15.5077 16.4878 15.5606 16.5136 15.6129 16.5386C15.6149 16.5395 15.617 16.5406 15.619 16.5415C15.7257 16.5925 15.8313 16.6419 15.9397 16.6951C15.9979 16.7236 16.0564 16.7527 16.1151 16.7818C16.2232 16.8355 16.3338 16.8926 16.4437 16.9484C16.4489 16.9511 16.4541 16.9537 16.4593 16.9564C16.4935 16.9737 16.5274 16.9907 16.5617 17.0083C16.5977 17.0267 16.6327 17.0438 16.6687 17.0626C16.6823 17.0695 16.6953 17.076 16.7088 17.0829C16.7629 17.1109 16.8173 17.1393 16.8717 17.1678C16.9138 17.1899 16.9575 17.2142 17 17.2365C17.391 17.4433 17.7917 17.6634 18.2028 17.898C18.2686 17.9355 18.3321 17.9699 18.3983 18.0081C18.4168 18.0188 18.4343 18.0297 18.4529 18.0404C18.5032 18.0695 18.5513 18.0987 18.6013 18.1278C18.8564 18.2766 19.108 18.4257 19.3545 18.575C19.4765 18.6491 19.5959 18.7229 19.7158 18.797C19.7445 18.8148 19.7736 18.8325 19.8021 18.8501C20.0041 18.9752 20.2023 19.1004 20.3983 19.2259C20.5617 19.3302 20.7252 19.4348 20.8846 19.5393C20.9146 19.5589 20.9433 19.5784 20.9731 19.598C21.0224 19.6305 21.0707 19.6629 21.1196 19.6954C21.1819 19.7368 21.2443 19.778 21.3058 19.8192C21.3735 19.8645 21.4434 19.9098 21.5103 19.9551C21.5317 19.9698 21.5524 19.9842 21.5738 19.9987C21.5902 20.0099 21.6057 20.021 21.622 20.032C21.8501 20.1874 22.0746 20.3428 22.294 20.4977C23.3747 21.2607 24.349 22.0153 25.2248 22.7446C25.2777 22.7889 25.3318 22.8333 25.3842 22.8773C26.0673 23.4518 26.6871 24.0088 27.2487 24.5411L26.9815 24.6961L26.2022 25.1478C25.6181 24.5457 24.9746 23.9208 24.2694 23.2827C24.1106 23.1391 23.9492 22.9949 23.784 22.85C23.442 22.55 23.0863 22.2476 22.7166 21.944C22.3222 21.6198 21.911 21.2942 21.4842 20.9683C21.2737 20.8075 21.0591 20.6468 20.8406 20.4861C20.8222 20.4723 20.8033 20.4588 20.7847 20.4452C20.7644 20.4302 20.7437 20.4152 20.7234 20.4004C20.6609 20.3548 20.5992 20.3093 20.5362 20.2636C20.4745 20.219 20.4138 20.1746 20.3516 20.13C20.3072 20.0982 20.2611 20.0666 20.2165 20.0349C20.1889 20.0153 20.1607 19.9956 20.1329 19.976C19.9789 19.8672 19.8248 19.7586 19.6671 19.6501C19.638 19.6301 19.6078 19.6101 19.5786 19.5901C19.4294 19.4879 19.2798 19.3859 19.1272 19.284C19.0883 19.258 19.0491 19.2321 19.0098 19.206C18.8944 19.1295 18.7761 19.0532 18.6586 18.9768C18.5993 18.9383 18.541 18.8996 18.4811 18.861C18.2518 18.7133 18.0186 18.5663 17.7821 18.4198C17.5002 18.2454 17.2148 18.0716 16.9226 17.8993C16.75 17.7974 16.572 17.6943 16.3891 17.5906C16.3481 17.5673 16.3062 17.5439 16.2644 17.5203C16.2116 17.4907 16.159 17.4611 16.1055 17.4313C16.0912 17.4233 16.0769 17.4154 16.0627 17.4076C16.0282 17.3883 15.9927 17.3692 15.9579 17.35C15.9228 17.3307 15.8878 17.3114 15.8523 17.292C15.7471 17.2347 15.6406 17.1773 15.5326 17.12C15.5071 17.1063 15.4816 17.0927 15.4559 17.0792C15.3212 17.008 15.184 16.9368 15.0454 16.866C15.037 16.8617 15.0288 16.8576 15.0205 16.8533ZM8.1861 19.334C8.1924 18.2393 8.8578 17.2051 10.0722 16.3811C10.4372 16.5042 10.8177 16.6417 11.2145 16.7959C11.504 16.9083 11.8025 17.0297 12.109 17.1602C12.5155 17.333 12.9362 17.5218 13.3722 17.7287C13.3986 17.7414 13.4257 17.7546 13.4523 17.7673C13.6248 17.8497 13.7998 17.9351 13.977 18.0233C14.0862 18.0777 14.1961 18.1332 14.307 18.1895C14.3365 18.2045 14.3657 18.2195 14.3953 18.2347C14.4332 18.2539 14.4704 18.2728 14.5084 18.2925C14.527 18.3021 14.5456 18.3116 14.5641 18.3212C14.6199 18.3501 14.6767 18.3804 14.7327 18.4098C14.7753 18.4321 14.8176 18.4543 14.8603 18.4769C15.3077 18.7137 15.7676 18.9673 16.2414 19.241C16.2562 19.2496 16.2703 19.2581 16.2851 19.2667C16.5997 19.4487 16.9065 19.6312 17.2084 19.8142C17.3316 19.889 17.4522 19.9637 17.5735 20.0385C17.6379 20.0782 17.7039 20.118 17.7678 20.158C17.9334 20.2611 18.095 20.3642 18.2566 20.4673C18.4202 20.5719 18.584 20.6764 18.7437 20.781C18.772 20.7995 18.7993 20.8181 18.8277 20.8368C18.8701 20.8648 18.9115 20.8926 18.9538 20.9207C19.023 20.9665 19.0921 21.0122 19.1604 21.058C19.2214 21.0987 19.2842 21.1397 19.3445 21.1804C19.3657 21.1947 19.388 21.2091 19.4091 21.2234C19.4344 21.2405 19.4583 21.2576 19.4835 21.2748C19.7118 21.43 19.9364 21.5852 20.1562 21.74C20.6074 22.0581 21.0407 22.3748 21.4562 22.6888C21.6835 22.8606 21.9054 23.0315 22.122 23.2015C22.385 23.4077 22.6376 23.612 22.8854 23.815C23.346 24.1925 23.7808 24.5638 24.19 24.9268C24.3251 25.0556 24.4585 25.1841 24.5882 25.3113C24.7308 25.4509 24.8697 25.5892 25.0059 25.7266C24.7411 25.8311 24.4685 25.926 24.1884 26.01C21.214 26.901 17.4661 26.6266 14.9866 25.1855L13.7135 24.4457L13.6441 24.4053L13.5039 24.3238L13.225 24.1618L13.1469 24.1165L13.0654 24.0691L12.5541 23.772L12.34 23.6475L11.8435 23.359L11.4573 23.1346L10.4746 22.5635C10.4718 22.5619 10.4693 22.5601 10.4666 22.5585C10.0158 22.2958 9.6276 22.0066 9.3052 21.6969C9.2758 21.6685 9.248 21.6396 9.2196 21.6111C9.1766 21.5675 9.1333 21.5242 9.0928 21.4801C9.0717 21.4569 9.0526 21.4332 9.0323 21.4098C9.005 21.3788 8.9775 21.3477 8.9515 21.3163C8.9483 21.3124 8.9447 21.3088 8.9417 21.3049C8.8746 21.2232 8.8121 21.1403 8.7538 21.0564C8.646 20.9017 8.5545 20.7433 8.4769 20.582C8.4443 20.5141 8.4141 20.4457 8.3868 20.3767C8.3574 20.3018 8.3312 20.2263 8.308 20.1503C8.2272 19.8836 8.1843 19.6108 8.1861 19.334ZM2.9565 15.8448C2.9658 15.8412 2.9756 15.8396 2.9849 15.8355C2.9888 15.8338 3.2921 15.7069 3.8772 15.6006C3.5508 15.8207 3.2441 16.0487 2.957 16.2839L2.9565 15.8448ZM5.5947 14.2019C5.486 14.2019 5.3811 14.2037 5.2782 14.2064C5.2065 14.2082 5.1378 14.2112 5.0688 14.2142C5.0197 14.2164 4.9692 14.2178 4.9214 14.2205C4.8616 14.2239 4.8051 14.2283 4.7475 14.2324C4.7316 14.2335 4.7157 14.2346 4.7002 14.2358C4.6479 14.1106 4.6633 13.9736 4.7307 13.8665C4.7319 13.8648 4.7336 13.8631 4.7348 13.8614C4.7473 13.8421 4.761 13.8237 4.7771 13.8068C4.7856 13.7977 4.796 13.79 4.8056 13.7816C4.8154 13.7729 4.8245 13.7634 4.8354 13.7556C4.8566 13.7404 4.8798 13.727 4.9045 13.716L4.9307 13.7045C4.9319 13.704 4.9326 13.7037 4.9339 13.7033C4.9457 13.6983 4.9607 13.6922 4.9783 13.6853C4.9806 13.6844 4.983 13.6835 4.9853 13.6826C5.0038 13.6753 5.0254 13.6671 5.0502 13.658L5.0681 13.6517C5.1241 13.6316 5.1936 13.6082 5.2773 13.5827C5.3121 13.572 5.3483 13.5613 5.3879 13.5501C5.3908 13.5493 5.3936 13.5484 5.3965 13.5477C5.4422 13.5349 5.4909 13.5219 5.5426 13.5087C5.5471 13.5074 5.5517 13.5063 5.5562 13.5053C5.6086 13.4919 5.6639 13.4787 5.7226 13.4653C5.7258 13.4646 5.7292 13.4639 5.7324 13.4632C5.8539 13.4359 5.9884 13.4089 6.136 13.3838C6.1397 13.3831 6.1433 13.3825 6.147 13.3818C6.2182 13.3697 6.2928 13.3583 6.37 13.3472C6.3782 13.346 6.3863 13.3449 6.3945 13.3436C6.471 13.3329 6.5504 13.3228 6.6326 13.3133C6.6417 13.3122 6.651 13.3112 6.6603 13.3103C6.7448 13.3007 6.8319 13.2919 6.9225 13.2842C6.9263 13.2839 6.93 13.2835 6.9338 13.2833C7.0267 13.2755 7.1227 13.2685 7.2219 13.2628C7.2247 13.2627 7.2276 13.2625 7.2304 13.2623C7.3264 13.2568 7.4258 13.2527 7.5277 13.2496C7.5405 13.2491 7.5533 13.2487 7.5664 13.2484C7.6652 13.2457 7.7667 13.2443 7.8711 13.2441C7.8791 13.2441 7.8866 13.2437 7.8946 13.2437C7.9 13.2437 7.9057 13.2439 7.9112 13.2439L7.9109 13.2441C7.9194 13.2441 7.9278 13.2441 7.9364 13.2441C7.9813 13.2443 8.0268 13.2446 8.0727 13.2453C8.1003 13.2457 8.1278 13.2461 8.1556 13.2468C8.2015 13.2477 8.248 13.2489 8.2948 13.2505C8.3237 13.2514 8.3522 13.2521 8.3815 13.2532C8.4298 13.2552 8.4791 13.2575 8.5285 13.2598C8.551 13.261 8.5731 13.2619 8.5957 13.2632L8.5961 13.263C8.6016 13.2632 8.6073 13.2637 8.613 13.2641C8.6689 13.2671 8.7258 13.2709 8.7829 13.2746C8.8057 13.2762 8.828 13.2775 8.851 13.2791C8.9318 13.285 9.0135 13.2914 9.0969 13.2989L9.125 13.3017C9.1985 13.3083 9.2729 13.3156 9.3484 13.3237C9.3784 13.3269 9.4092 13.3306 9.4396 13.334C9.495 13.3403 9.5505 13.3467 9.6071 13.3536C9.6283 13.3563 9.6497 13.359 9.6711 13.3617C9.6858 13.3636 9.7007 13.3658 9.7156 13.3677C9.7412 13.3711 9.7673 13.3747 9.7933 13.3783C9.8199 13.3818 9.8463 13.3852 9.8733 13.389C9.8802 13.39 9.887 13.3907 9.894 13.3918L9.8938 13.392C9.9262 13.3966 9.9591 13.4014 9.9919 13.4064C10.0431 13.4139 10.0947 13.4218 10.1467 13.43C10.1496 13.4305 10.1525 13.4311 10.1555 13.4314C10.1937 13.4375 10.2324 13.4439 10.2711 13.4503C10.3232 13.4589 10.3756 13.468 10.4284 13.4773C10.4707 13.4848 10.5134 13.4923 10.5562 13.5001C10.6097 13.5099 10.6639 13.5203 10.7183 13.5308C10.7615 13.5392 10.8047 13.5474 10.8482 13.5563C10.9044 13.5675 10.9613 13.5795 11.0182 13.5914C11.0609 13.6005 11.1033 13.6093 11.1465 13.6187C11.2086 13.6323 11.2716 13.6467 11.3345 13.6612C11.3736 13.6701 11.4121 13.6787 11.4516 13.688C11.5515 13.7115 11.6524 13.7361 11.7545 13.7618C11.7754 13.7672 11.7966 13.7729 11.8176 13.7782C11.9034 13.8003 11.9898 13.8228 12.0774 13.8466C12.1195 13.858 12.1625 13.8703 12.2051 13.8821C12.236 13.8906 12.267 13.8994 12.2981 13.9081C12.3332 13.9181 12.3678 13.9275 12.403 13.9377C12.4506 13.9513 12.4988 13.9657 12.5466 13.98C12.6097 13.9986 12.6731 14.0173 12.7369 14.0369C12.7867 14.0521 12.8368 14.0679 12.8871 14.0836C12.9505 14.1035 13.014 14.1236 13.078 14.1443C13.0816 14.1456 13.0853 14.1468 13.0891 14.1479C13.1369 14.1634 13.1849 14.1793 13.2331 14.1951C13.2973 14.2164 13.3619 14.2381 13.427 14.2604C13.4436 14.266 13.4603 14.2719 13.4769 14.2776C13.4978 14.2847 13.5185 14.2918 13.5394 14.2992C13.5508 14.3031 13.5622 14.307 13.5736 14.3109L13.5933 14.3179C13.6569 14.34 13.721 14.3628 13.7852 14.3859C13.8375 14.4046 13.8894 14.4233 13.942 14.4426C14.0129 14.4686 14.0846 14.4956 14.1563 14.5225C14.2062 14.5414 14.2558 14.5598 14.306 14.5792C14.3859 14.6099 14.4665 14.6419 14.5473 14.6738C14.552 14.6758 14.5568 14.6775 14.5614 14.6793C14.6001 14.6947 14.6385 14.7095 14.6774 14.7252C14.7616 14.7591 14.847 14.7946 14.9323 14.8299C14.9719 14.8463 15.011 14.8618 15.0508 14.8786C15.0629 14.8836 15.0754 14.8891 15.0877 14.8943C15.1064 14.9023 15.1257 14.9107 15.1444 14.9187C15.1493 14.9207 15.1539 14.9228 15.1585 14.9248C15.2515 14.9642 15.3444 15.0038 15.4384 15.045C15.4442 15.0475 15.45 15.0502 15.4559 15.0527C15.4941 15.0695 15.5328 15.087 15.5712 15.1041C15.6457 15.1373 15.7205 15.1706 15.796 15.2049C15.8077 15.2102 15.8195 15.2152 15.8315 15.2208C15.8827 15.2441 15.9346 15.2684 15.9863 15.2923C16.0677 15.33 16.1492 15.368 16.2316 15.4068C16.2866 15.4329 16.342 15.4596 16.3975 15.4864C16.4776 15.5249 16.5579 15.5638 16.6387 15.6036C16.696 15.6318 16.7536 15.6603 16.8112 15.6891C16.8664 15.7167 16.9218 15.7449 16.9773 15.7729C16.9905 15.7797 17.0035 15.7863 17.0168 15.7929C17.0296 15.7995 17.0424 15.8057 17.0553 15.8123C17.1129 15.8418 17.1707 15.8714 17.2289 15.9014C17.239 15.9067 17.2492 15.9121 17.2594 15.9174C17.3195 15.9485 17.38 15.9802 17.4405 16.0122C17.454 16.0193 17.4676 16.0262 17.4811 16.0336C17.5384 16.0637 17.5957 16.0939 17.6533 16.1247C17.6888 16.1438 17.725 16.1638 17.7607 16.1831C17.8047 16.2068 17.8486 16.2307 17.8929 16.2548C17.8931 16.2548 17.8934 16.255 17.8936 16.2551C17.9025 16.26 17.9114 16.2648 17.9203 16.2696C17.9544 16.2883 17.9878 16.306 18.022 16.3247C18.0422 16.3359 18.0627 16.3474 18.0829 16.3586C18.1136 16.3756 18.1446 16.3934 18.1753 16.4103C18.2145 16.4323 18.2541 16.4546 18.2936 16.4769C18.3253 16.4947 18.3571 16.5124 18.389 16.5306C18.4324 16.555 18.4753 16.5788 18.5189 16.6037C18.6661 16.6879 18.8145 16.7739 18.964 16.8622C19.2218 17.0142 19.4749 17.1673 19.7243 17.3211C20.0171 17.5014 20.3027 17.6829 20.5842 17.8652C20.7004 17.9403 20.816 18.0156 20.9303 18.0909C20.9389 18.0966 20.9478 18.1023 20.9564 18.108C21.1706 18.2495 21.3809 18.3915 21.5886 18.5335C21.7465 18.6418 21.9017 18.7502 22.0558 18.8587C22.0855 18.8796 22.1154 18.9006 22.145 18.9215C22.1955 18.9574 22.2474 18.993 22.2976 19.0289C22.3539 19.0692 22.41 19.1094 22.4656 19.1497C22.5347 19.1994 22.6019 19.2492 22.6702 19.299C22.6906 19.314 22.7111 19.3288 22.7316 19.3438C22.7425 19.3518 22.7537 19.3598 22.7646 19.3679C22.9833 19.5284 23.1985 19.689 23.4092 19.8497C24.418 20.6186 25.3352 21.3861 26.1646 22.1357C26.1801 22.1498 26.1965 22.1639 26.212 22.178C26.9122 22.8131 27.5488 23.4341 28.1268 24.0321C28.7087 24.6342 29.2298 25.2117 29.6939 25.7551C29.7103 25.7744 29.7272 25.794 29.7434 25.8133C29.9176 26.0181 30.0828 26.2172 30.2407 26.4114C30.3473 26.5426 30.4503 26.6712 30.5496 26.7971V26.797C30.5438 26.7636 30.538 26.7302 30.538 26.6958C30.538 26.6805 30.5391 26.6651 30.5409 26.6487C30.5393 26.6357 30.538 26.6204 30.538 26.6036C30.538 26.5545 30.5466 26.5055 30.5623 26.4571C30.6242 26.2678 30.8071 26.0891 31.1041 25.9624C31.214 25.9155 31.3389 25.8757 31.4798 25.8454C31.6766 25.8031 31.9024 25.7787 32.1586 25.7787C33.2226 25.7787 33.7792 26.1936 33.7792 26.6036C33.7792 26.62 33.778 26.6348 33.7764 26.6485C33.7781 26.6642 33.7792 26.6799 33.7792 26.6958C33.7792 26.7137 33.7748 26.7304 33.7733 26.7479C33.7475 27.0362 33.5121 27.2835 33.1243 27.4399C33.0558 27.4676 32.9839 27.4933 32.9061 27.5148L32.9063 27.595L32.9065 27.7205V27.7246L32.9068 28.067V28.1528L32.9072 28.3724V28.3879L32.9074 28.5754L33.4613 28.262L33.7837 28.0793L36.0172 26.815L36.3236 26.6418L36.3318 26.6369L38.5569 25.3773L38.8761 25.1967L41.1097 23.9322L41.1628 23.9022L41.4213 23.7558L43.6549 22.4915L43.9799 22.3075L45.1681 21.6348L45.6928 21.3379L45.8151 21.2687L46.2133 21.0432L46.5302 20.8637L46.7257 20.7531L47.7326 20.1831L47.7538 20.171L48.215 19.91L48.3342 19.8426C48.3984 19.8062 48.4585 19.7682 48.5213 19.7313V19.6041L48.5211 19.565V19.5416L48.5209 19.3625V19.309C48.5151 19.3002 48.5092 19.2915 48.5033 19.2828C48.4738 19.2392 48.4441 19.1955 48.4125 19.1495C48.37 19.0878 48.327 19.0253 48.2806 18.959C48.2328 18.8906 48.1816 18.8186 48.1294 18.7454C48.0796 18.6758 48.027 18.6034 47.9733 18.5297C47.8851 18.4086 47.7932 18.2839 47.6941 18.1522C47.5064 17.9028 47.2969 17.6336 47.0695 17.3502C47.0042 17.269 46.9384 17.1875 46.87 17.1036C46.8622 17.0941 46.854 17.0843 46.8463 17.0749C46.6354 16.8178 46.4085 16.5488 46.1664 16.2701C46.1662 16.2699 46.1661 16.2698 46.1659 16.2696C46.0854 16.177 46.0041 16.084 45.92 15.9891C45.8665 15.9288 45.8116 15.8676 45.7566 15.8066C45.621 15.6557 45.4817 15.5028 45.3376 15.3473C45.2268 15.2279 45.1128 15.107 44.9968 14.9851C44.9314 14.9162 44.8659 14.8474 44.7986 14.7778C44.7021 14.6779 44.6042 14.5773 44.5043 14.476C44.3972 14.3675 44.2872 14.2578 44.1762 14.1477C44.1407 14.1125 44.1063 14.0779 44.0704 14.0426C43.6198 13.5989 43.137 13.1442 42.6205 12.6823C42.5344 12.6052 42.4452 12.5275 42.3572 12.45C41.0055 11.2612 39.4347 10.0327 37.6296 8.8378C37.2951 8.6166 36.9528 8.3964 36.6022 8.1779C36.5642 8.1542 36.5273 8.1303 36.4891 8.1067C36.2203 7.9403 35.9478 7.7745 35.6694 7.6104C34.6839 7.0288 33.7501 6.5389 32.8681 6.1259C32.2741 5.8476 31.7034 5.6041 31.1569 5.3925C31.0351 5.3454 30.9146 5.2999 30.7951 5.2559C30.7016 5.2215 30.6087 5.1874 30.5166 5.1547C30.3987 5.1128 30.282 5.0725 30.1664 5.0334C30.0849 5.0059 30.0044 4.9795 29.9242 4.9535C29.6232 4.8557 29.331 4.768 29.047 4.6891C28.9967 4.6752 28.9465 4.6613 28.8968 4.6479C28.4181 4.5189 27.9639 4.4154 27.535 4.3339C27.4726 4.3221 27.411 4.3109 27.3499 4.3L27.3504 4.2998C27.3447 4.2988 27.3395 4.2981 27.3338 4.297C27.273 4.2863 27.213 4.2761 27.1533 4.2663C27.1054 4.2583 27.0575 4.2502 27.0102 4.2429L26.9543 4.2344C26.8791 4.2229 26.8045 4.2119 26.731 4.2017C26.7185 4.1999 26.7064 4.1983 26.6939 4.1967C26.6685 4.1933 26.643 4.1898 26.6179 4.1864C26.4163 4.16 26.2213 4.1384 26.0331 4.1213C26.0308 4.1211 26.0281 4.1207 26.0256 4.1205C26.0022 4.1184 25.9792 4.1164 25.956 4.1145C25.8836 4.1084 25.812 4.1027 25.7418 4.0979C25.7193 4.0963 25.6966 4.0945 25.6747 4.0931C25.588 4.0875 25.5029 4.0827 25.4192 4.079C25.3962 4.0779 25.3737 4.0772 25.3509 4.0763C25.2881 4.0736 25.2262 4.0717 25.1652 4.0701C25.1377 4.0693 25.11 4.0686 25.0827 4.0681C25.0601 4.0677 25.0374 4.0672 25.0151 4.0668C24.9698 4.0663 24.9252 4.066 24.8812 4.0658C24.8712 4.0658 24.8606 4.0654 24.8507 4.0654C24.848 4.0654 24.8455 4.0656 24.8428 4.0656C24.7925 4.0656 24.7433 4.0661 24.6944 4.0668C24.651 4.0674 24.6084 4.0683 24.5661 4.0693C24.5495 4.0699 24.5326 4.0701 24.516 4.0704C24.5142 4.0706 24.5126 4.0706 24.5108 4.0708C24.4519 4.0724 24.3943 4.0745 24.3376 4.0772C24.3113 4.0783 24.2857 4.0797 24.26 4.0811C24.2405 4.082 24.2213 4.0831 24.2022 4.0843C24.147 4.0875 24.093 4.0909 24.04 4.0949C24.0159 4.0966 23.9918 4.0984 23.9683 4.1004C23.9526 4.1016 23.9372 4.1031 23.9217 4.1043C23.8479 4.1107 23.7758 4.1175 23.7066 4.125C23.6989 4.1259 23.6912 4.1266 23.6836 4.1275C23.6677 4.1293 23.6525 4.1311 23.6368 4.133C23.5828 4.1393 23.5301 4.1459 23.4789 4.1527C23.4654 4.1544 23.4515 4.1562 23.4381 4.1582C23.3744 4.1669 23.3132 4.1762 23.2541 4.1858C23.2401 4.188 23.2261 4.1903 23.2122 4.1926C23.1544 4.2023 23.0986 4.2122 23.0454 4.2222C23.0345 4.2244 23.0244 4.2263 23.0137 4.2285C22.9612 4.2386 22.9106 4.249 22.8627 4.2593C22.8586 4.2602 22.8544 4.2611 22.8503 4.262C22.8012 4.2727 22.7552 4.2834 22.7115 4.2941C22.7038 4.2959 22.6958 4.2979 22.6883 4.2997C22.6843 4.3007 22.6801 4.3016 22.6761 4.3027C22.677 4.3025 22.6777 4.3023 22.6785 4.3023C22.6403 4.3118 22.6037 4.3211 22.5696 4.3303C22.562 4.3325 22.5545 4.3344 22.547 4.3364C22.5108 4.3464 22.4767 4.356 22.4456 4.3653C22.4408 4.3667 22.4365 4.3682 22.4319 4.3696C22.4098 4.3762 22.3903 4.3823 22.3711 4.3885V4.3883C22.3632 4.3906 22.3584 4.3926 22.3511 4.3949C22.3204 4.4047 22.2919 4.4142 22.2688 4.4222C22.268 4.4226 22.2667 4.4229 22.2658 4.4233C22.2308 4.4356 22.205 4.4454 22.1877 4.4522C22.1725 4.4583 22.1634 4.462 22.1616 4.4629C22.1561 4.4654 22.1502 4.4663 22.1447 4.4684C22.1242 4.4766 22.1036 4.4841 22.083 4.4886C22.0701 4.4914 22.0573 4.4918 22.0444 4.4932C22.0344 4.4945 22.0244 4.4961 22.0143 4.4964C22.0105 4.4966 22.0066 4.4977 22.0027 4.4977C21.9964 4.4977 21.9904 4.4964 21.9843 4.4963C21.9558 4.4952 21.9279 4.4911 21.9006 4.4841C21.8915 4.482 21.8824 4.4797 21.8737 4.4768C21.8423 4.4665 21.812 4.4536 21.784 4.4361C21.7811 4.4342 21.7786 4.4317 21.7757 4.4299C21.7504 4.4129 21.7274 4.3926 21.7062 4.3699C21.6999 4.3633 21.6939 4.3566 21.6882 4.3494C21.6662 4.3227 21.6464 4.2938 21.6316 4.2608C21.6316 4.2606 21.6314 4.2604 21.6314 4.2604C21.62 4.2351 21.6116 4.2092 21.6057 4.1832C21.5652 4.001 21.6568 3.8094 21.8339 3.7302C21.851 3.7225 21.9008 3.7011 21.9827 3.6712C21.9832 3.671 21.9839 3.6708 21.9845 3.6706C21.993 3.6674 22.0041 3.6638 22.0132 3.6605C22.0621 3.6431 22.1185 3.6241 22.1864 3.603C22.2276 3.5902 22.2726 3.5768 22.3208 3.5632C22.3249 3.562 22.3288 3.5609 22.3329 3.5598C22.3445 3.5564 22.358 3.5532 22.37 3.5498C22.4044 3.5404 22.4392 3.5309 22.477 3.5213C22.4833 3.5197 22.4895 3.5181 22.4958 3.5165C22.5477 3.5035 22.6023 3.4903 22.6601 3.4772C22.6651 3.4762 22.6701 3.4751 22.6751 3.4738C22.7951 3.4469 22.9279 3.4205 23.0733 3.3955C23.0806 3.3943 23.0877 3.3929 23.0952 3.3916C23.1642 3.38 23.2365 3.3688 23.3111 3.3581C23.3234 3.3563 23.3355 3.3545 23.3478 3.3529C23.4222 3.3424 23.4989 3.3326 23.5787 3.3235C23.5919 3.3218 23.6052 3.3204 23.6186 3.319C23.6242 3.3183 23.6302 3.3179 23.6357 3.3172C23.7125 3.3088 23.7906 3.3008 23.8721 3.2938C23.8814 3.2929 23.8912 3.2922 23.9007 3.2915C23.9863 3.2844 24.0744 3.2781 24.1652 3.2728L24.1945 3.2708C24.232 3.2687 24.2719 3.2676 24.3101 3.266C24.3188 3.2655 24.3278 3.2651 24.3365 3.2648C24.357 3.2639 24.3774 3.263 24.3981 3.2623C24.4252 3.2612 24.4512 3.2596 24.4789 3.2587C24.4912 3.2583 24.5026 3.2576 24.5151 3.2573C24.522 3.2571 24.5297 3.2571 24.5367 3.2569C24.5426 3.2567 24.5486 3.2567 24.5545 3.2567C24.5996 3.2555 24.6469 3.2553 24.6933 3.2548C24.7384 3.2541 24.7825 3.253 24.8287 3.2528C24.8399 3.2528 24.8503 3.2523 24.8617 3.2523C24.8812 3.2523 24.9013 3.2528 24.9211 3.2528C24.9552 3.253 24.9898 3.2533 25.0246 3.2537C25.0628 3.2542 25.1013 3.2549 25.1402 3.2557C25.175 3.2564 25.2101 3.2574 25.2455 3.2585C25.2856 3.2598 25.3256 3.2608 25.3664 3.2624C25.4014 3.2639 25.4371 3.2657 25.4726 3.2673C25.5148 3.2692 25.5569 3.2712 25.5999 3.2735C25.6335 3.2753 25.6677 3.2778 25.7016 3.2799C25.748 3.2828 25.794 3.2855 25.8411 3.289C25.8634 3.2906 25.8863 3.2926 25.9087 3.2944C25.9633 3.2987 26.0177 3.3028 26.0734 3.3078H26.0732C26.1282 3.3127 26.1844 3.3185 26.2404 3.324C26.2686 3.3268 26.2962 3.3293 26.3248 3.3324C26.3753 3.3377 26.427 3.344 26.4784 3.3499C26.5142 3.354 26.5497 3.3579 26.5859 3.3623C26.6363 3.3686 26.6873 3.3755 26.7383 3.3823C26.7768 3.3873 26.8152 3.3923 26.8541 3.3978C26.8871 3.4025 26.9208 3.4077 26.9543 3.4125C26.9545 3.4125 26.9549 3.4125 26.9551 3.4123C26.9727 3.415 26.9909 3.4178 27.0086 3.4205C27.0485 3.4264 27.0885 3.4325 27.1288 3.4389C27.1811 3.4471 27.2339 3.4558 27.2869 3.4646C27.3281 3.4715 27.3695 3.4787 27.411 3.4858C27.4647 3.4953 27.5186 3.5049 27.573 3.5149C27.6151 3.5227 27.6576 3.5308 27.7001 3.539C27.755 3.5495 27.81 3.56 27.8656 3.5713C27.8899 3.5762 27.9148 3.5816 27.9393 3.5866H27.9395C27.9584 3.5905 27.9775 3.5946 27.9966 3.5985C28.0528 3.6103 28.1089 3.6219 28.1659 3.6344C28.209 3.6439 28.2527 3.654 28.2963 3.6638C28.3555 3.6772 28.4144 3.6904 28.4745 3.7045C28.5087 3.7127 28.5437 3.7216 28.5783 3.73C28.5789 3.73 28.5796 3.7302 28.5803 3.7304C28.667 3.7514 28.7544 3.773 28.8429 3.7957C28.8807 3.8055 28.9191 3.8157 28.9571 3.8256C28.977 3.831 28.997 3.8362 29.0172 3.8415C29.0422 3.8481 29.0668 3.8544 29.0919 3.8612C29.1503 3.8768 29.2095 3.8938 29.2685 3.9102C29.3057 3.9206 29.3428 3.9309 29.38 3.9416C29.394 3.9455 29.4077 3.9493 29.4216 3.9532C29.48 3.97 29.5388 3.9876 29.5979 4.0051C29.6514 4.021 29.7049 4.0369 29.759 4.0535C29.8177 4.0713 29.8771 4.09 29.9367 4.1088C29.9918 4.1261 30.0473 4.1436 30.1031 4.1616C30.1623 4.1807 30.2219 4.2005 30.2819 4.2203C30.3398 4.2395 30.3982 4.2592 30.4569 4.2791C30.5072 4.2963 30.5577 4.3138 30.6083 4.3314C30.6094 4.3318 30.6105 4.3321 30.6114 4.3323C30.6192 4.3352 30.6269 4.3377 30.6346 4.3403C30.695 4.3616 30.756 4.3833 30.8171 4.4051C30.8766 4.4265 30.9362 4.4479 30.9964 4.4699C31.0591 4.493 31.1227 4.5169 31.1862 4.5409C31.2452 4.5632 31.3041 4.5851 31.3639 4.6079C31.4338 4.6349 31.5046 4.6629 31.5753 4.6909C31.5897 4.6966 31.6043 4.7023 31.619 4.7082H31.6191C31.637 4.7152 31.6545 4.7219 31.6725 4.7291C31.6943 4.7378 31.716 4.7464 31.738 4.7551C31.8359 4.7945 31.9351 4.8356 32.0345 4.877C32.0914 4.9007 32.1486 4.9248 32.2061 4.9492C32.2621 4.9729 32.3187 4.9974 32.3752 5.0218C32.4173 5.04 32.4589 5.0573 32.5013 5.0761C32.5322 5.0894 32.5636 5.1035 32.5945 5.1173C32.616 5.1267 32.6378 5.1367 32.6594 5.1463C32.6681 5.1503 32.6769 5.1542 32.6854 5.1581C32.7566 5.1897 32.8274 5.2213 32.8993 5.2539C32.9561 5.2798 33.0133 5.3065 33.0706 5.3331C33.1484 5.3692 33.2264 5.4054 33.305 5.4425C33.3639 5.4705 33.4233 5.4992 33.4827 5.5278C33.5609 5.5654 33.6393 5.6032 33.7182 5.6421C33.7783 5.6717 33.8388 5.7017 33.8993 5.732C33.9792 5.7718 34.0595 5.8125 34.1403 5.8535C34.2006 5.8844 34.2609 5.9152 34.3217 5.9466C34.3981 5.9863 34.4752 6.0267 34.5524 6.0674C34.559 6.071 34.5654 6.0742 34.572 6.0778C34.6313 6.109 34.6905 6.1402 34.7501 6.1721C34.8387 6.2196 34.9279 6.2683 35.0173 6.3172C35.0735 6.3479 35.1292 6.378 35.1855 6.4092C35.286 6.4647 35.3873 6.522 35.4888 6.5794C35.535 6.6057 35.5809 6.631 35.6273 6.6576C35.7762 6.7428 35.9261 6.8297 36.0774 6.9189C36.0925 6.9278 36.1072 6.9369 36.1223 6.946C36.3496 7.0804 36.5738 7.2154 36.7947 7.351C36.8423 7.3803 36.8882 7.4097 36.9355 7.439C36.969 7.4597 37.0018 7.4805 37.0354 7.5014C37.0402 7.5044 37.0448 7.5073 37.0496 7.5103C37.1981 7.6027 37.3469 7.6951 37.4924 7.7881C37.5386 7.8177 37.5836 7.8475 37.6296 7.8771C37.673 7.9051 37.7156 7.9331 37.7588 7.9611C37.8963 8.0503 38.0342 8.1394 38.1693 8.2289C38.2601 8.2892 38.3488 8.3497 38.4385 8.4102C38.568 8.4976 38.6979 8.5848 38.8249 8.6722C38.9148 8.7341 39.0024 8.7961 39.0911 8.858C39.2149 8.9445 39.3385 9.031 39.46 9.1177C39.5472 9.18 39.6327 9.2424 39.7187 9.3047C39.8384 9.3916 39.9579 9.4783 40.0753 9.5651C40.1588 9.6269 40.2409 9.6888 40.3233 9.7507C40.44 9.8383 40.5561 9.9257 40.6703 10.0133C40.7502 10.0743 40.8287 10.1355 40.9074 10.1965C41.0208 10.2848 41.1338 10.3729 41.2451 10.4611C41.3211 10.5214 41.3962 10.5817 41.4711 10.6418C41.5821 10.731 41.6921 10.82 41.8006 10.909C41.8723 10.9677 41.9433 11.0262 42.0138 11.0849C42.123 11.1754 42.2309 11.2658 42.3374 11.3561C42.4043 11.4128 42.4707 11.4692 42.5367 11.5257C42.6439 11.6178 42.7497 11.7095 42.8544 11.801C42.9169 11.8558 42.9793 11.9102 43.0408 11.9648C43.0871 12.0056 43.1343 12.0465 43.18 12.0874C43.2385 12.1396 43.2949 12.1915 43.3527 12.2438C43.4105 12.2959 43.4683 12.348 43.5252 12.3999C43.6297 12.4952 43.7321 12.5901 43.8338 12.6848C43.8861 12.7335 43.9387 12.7822 43.9903 12.8307C44.0943 12.9285 44.1962 13.0259 44.2971 13.123C44.3437 13.1676 44.3908 13.2125 44.4368 13.2569C44.5416 13.3586 44.6438 13.4592 44.7453 13.5599C44.7847 13.5989 44.8252 13.6384 44.8643 13.6774C44.9214 13.7345 44.9774 13.7911 45.0334 13.8478C45.0611 13.8758 45.0882 13.9035 45.1156 13.9315C45.1156 13.9315 45.1155 13.9315 45.1155 13.9317C45.137 13.9536 45.1593 13.9757 45.1808 13.9975C45.2114 14.0289 45.243 14.0606 45.2735 14.0919C45.3884 14.21 45.5005 14.327 45.6109 14.4433C45.6285 14.4619 45.6469 14.4808 45.6644 14.4993C46.0203 14.8757 46.3507 15.2409 46.6599 15.5943C46.6759 15.6125 46.6927 15.6314 46.7088 15.6496C46.7195 15.6621 46.7311 15.6748 46.7418 15.6873C46.7555 15.7032 46.7683 15.7185 46.7821 15.7342C46.7858 15.7385 46.7894 15.7428 46.7931 15.7471V15.7472C46.8831 15.8511 46.9715 15.954 47.0573 16.0553C47.0634 16.0626 47.0693 16.0698 47.0754 16.0771C47.0889 16.093 47.1016 16.1085 47.115 16.1244C47.1282 16.1401 47.141 16.1554 47.1542 16.1711C47.1911 16.2152 47.2275 16.2589 47.2638 16.3026C47.2675 16.307 47.2714 16.3117 47.2752 16.3161C47.3019 16.3484 47.3299 16.3816 47.3563 16.4137C47.3749 16.4362 47.3924 16.458 47.4108 16.4803C47.419 16.4904 47.427 16.5003 47.4354 16.5104C47.4475 16.5252 47.4595 16.5399 47.4714 16.5547C47.5273 16.6232 47.5833 16.6919 47.6371 16.7589C47.6432 16.7664 47.6487 16.7736 47.6548 16.7811C47.6548 16.7809 47.6548 16.7807 47.6548 16.7807C47.6571 16.7561 47.6614 16.7315 47.6678 16.707C47.6741 16.6828 47.6825 16.6587 47.6926 16.6346C47.7019 16.613 47.7126 16.5918 47.7249 16.5705C47.731 16.56 47.7372 16.5495 47.7442 16.5391C47.7567 16.5204 47.7709 16.502 47.7859 16.4837C47.8054 16.4601 47.827 16.4369 47.8507 16.4143C48.0402 16.233 48.3638 16.0873 48.816 16.0282C48.8378 16.0254 48.859 16.022 48.8815 16.0196C48.9022 16.0173 48.9238 16.0157 48.9448 16.0139C48.9762 16.0111 49.0078 16.0086 49.0403 16.0066C49.0535 16.0057 49.066 16.0043 49.0793 16.0038L49.0797 16.0036C49.0401 15.9544 49.001 15.9053 48.9602 15.855C48.7261 15.5663 48.4705 15.2616 48.195 14.9444C48.1046 14.8402 48.0127 14.7352 47.9178 14.6285C47.8789 14.5848 47.8391 14.5404 47.7995 14.4963C47.2584 13.8928 46.647 13.25 45.9607 12.5815C45.7065 12.3339 45.4432 12.0832 45.1684 11.8296C45.1586 11.8205 45.1495 11.8117 45.1397 11.8026C45.0784 11.7461 45.014 11.6888 44.9515 11.6319C44.5064 11.2268 44.0367 10.8161 43.5388 10.4018C42.5415 9.5723 41.4354 8.7315 40.2187 7.9039C39.475 7.3979 38.6915 6.8968 37.8628 6.4067C37.8494 6.3987 37.8367 6.3907 37.8234 6.3828C37.8189 6.3803 37.8146 6.3778 37.8103 6.3753C37.7497 6.3397 37.6899 6.3052 37.6296 6.2703C37.6294 6.2701 37.6293 6.2701 37.6293 6.2701C37.5509 6.2244 37.4725 6.1786 37.3948 6.1341C37.3504 6.1088 37.3065 6.0844 37.2623 6.0594C37.1658 6.0048 37.0694 5.9504 36.974 5.8976C36.9735 5.8972 36.9728 5.8969 36.9722 5.8967C36.9196 5.8674 36.8677 5.8392 36.8152 5.8107C36.7292 5.7638 36.6434 5.717 36.5582 5.6714C36.5028 5.6418 36.4477 5.6127 36.3928 5.5836C36.3109 5.5404 36.2294 5.4978 36.1484 5.4559C36.1066 5.4343 36.0647 5.4125 36.0231 5.3913C36.0097 5.3843 35.9967 5.3779 35.9833 5.3711C35.902 5.3297 35.8212 5.2891 35.7407 5.2489C35.6883 5.2229 35.6356 5.1965 35.5836 5.171C35.5051 5.1323 35.4271 5.0948 35.3495 5.0573C35.3441 5.0548 35.339 5.0523 35.3336 5.0498C35.2862 5.027 35.2383 5.0038 35.1912 4.9815C35.0981 4.9374 35.0057 4.8946 34.9137 4.8523C34.8778 4.8357 34.8414 4.8186 34.8057 4.8024C34.678 4.7441 34.5512 4.6873 34.4256 4.6326C34.4136 4.6272 34.4017 4.6222 34.3897 4.617C34.3387 4.5947 34.2882 4.5733 34.2375 4.5517C34.176 4.5253 34.1144 4.4988 34.0534 4.4732C34.0143 4.4568 33.976 4.4413 33.9371 4.4251C33.8536 4.3906 33.7705 4.3564 33.6881 4.3232C33.6429 4.3052 33.5985 4.2877 33.5537 4.27C33.4783 4.2403 33.403 4.2108 33.3284 4.1821C33.2822 4.1644 33.236 4.1469 33.1901 4.1296C33.1536 4.1159 33.1165 4.1015 33.0801 4.0879C33.0783 4.0872 33.0763 4.0865 33.0744 4.0858C33.0405 4.0733 33.0073 4.0615 32.9736 4.0492C32.9282 4.0326 32.8829 4.0162 32.838 3.9999C32.7657 3.9741 32.694 3.9489 32.6228 3.9239C32.58 3.9091 32.537 3.8942 32.4946 3.8797C32.4193 3.854 32.3449 3.8292 32.2707 3.8048C32.2646 3.8028 32.2584 3.8005 32.2521 3.7985C32.2212 3.7884 32.1898 3.7778 32.1592 3.7678C32.0696 3.7389 31.9813 3.7113 31.8933 3.684C31.873 3.6778 31.8523 3.671 31.832 3.6647C31.8254 3.6628 31.8186 3.6606 31.812 3.6585C31.7984 3.6544 31.7854 3.6506 31.7719 3.6467C31.6821 3.6194 31.5929 3.5928 31.5046 3.5675C31.4919 3.5638 31.4796 3.5605 31.467 3.5568C31.4315 3.5466 31.3963 3.537 31.361 3.527C31.3039 3.5111 31.2468 3.4951 31.1906 3.4797C31.1805 3.4771 31.1703 3.4742 31.1601 3.4713C31.1382 3.4655 31.1168 3.4603 31.0948 3.4544C31.0235 3.4355 30.9525 3.4168 30.8822 3.3991C30.8504 3.3909 30.8188 3.3832 30.7871 3.3754C30.7828 3.3743 30.7785 3.3732 30.7742 3.3722C30.709 3.3561 30.644 3.3402 30.5796 3.3251C30.5427 3.3163 30.5061 3.3079 30.4695 3.2995C30.4071 3.2851 30.3452 3.2714 30.2836 3.2578C30.2473 3.25 30.211 3.2421 30.1752 3.2344C30.1279 3.2244 30.0812 3.2148 30.0346 3.2054C30.0198 3.2023 30.005 3.1993 29.9902 3.1964C29.9568 3.1897 29.9235 3.1829 29.8903 3.1765C29.825 3.1638 29.7604 3.1517 29.696 3.1401C29.6683 3.1349 29.6403 3.1295 29.613 3.1247C29.532 3.1104 29.4521 3.0969 29.3731 3.084C29.3633 3.0824 29.3533 3.0807 29.3435 3.079C29.2528 3.0646 29.1636 3.051 29.0755 3.0385C29.0604 3.0364 29.0457 3.0346 29.0307 3.0325C28.9599 3.0225 28.8896 3.013 28.8204 3.0043C28.7935 3.0009 28.7671 2.9981 28.7403 2.9948C28.7321 2.9938 28.7237 2.9927 28.7155 2.9918C28.6672 2.9861 28.6188 2.9804 28.5714 2.9752C28.5414 2.972 28.512 2.969 28.4823 2.9659C28.4313 2.9608 28.3805 2.9558 28.3303 2.9511C28.2993 2.9483 28.2686 2.9456 28.2381 2.9431C28.1896 2.939 28.1416 2.9351 28.0941 2.9315C28.0643 2.9294 28.0346 2.927 28.0051 2.9251C27.957 2.9219 27.9095 2.919 27.8622 2.9162C27.8349 2.9147 27.8073 2.913 27.7802 2.9117C27.7302 2.909 27.6811 2.9071 27.6324 2.9051C27.6093 2.9042 27.5859 2.903 27.563 2.9023C27.5397 2.9015 27.5168 2.9008 27.4936 2.9003C27.4542 2.899 27.415 2.898 27.3763 2.8973C27.3688 2.8971 27.3611 2.8969 27.3536 2.8967C27.2847 2.8955 27.2173 2.8949 27.1511 2.8949C27.1483 2.8949 27.1452 2.8948 27.1424 2.8948C27.1342 2.8948 27.1265 2.8951 27.1181 2.8951C27.046 2.8953 26.9754 2.8962 26.9062 2.8976C26.8864 2.898 26.8667 2.8983 26.8473 2.8989C26.7708 2.9008 26.6958 2.9033 26.6231 2.9065C26.6154 2.9069 26.6079 2.9074 26.6002 2.9078C26.5328 2.911 26.467 2.9149 26.4026 2.9192C26.3874 2.9203 26.372 2.9213 26.3569 2.9224C26.2131 2.9328 26.0773 2.9454 25.95 2.9599C25.9428 2.9608 25.9359 2.9615 25.9289 2.9624C25.7275 2.9857 25.5462 3.0134 25.3867 3.0427C25.2119 3.0359 25.0371 3.0311 24.8622 3.0311H24.8615C24.8037 3.0311 24.7493 3.0327 24.6929 3.0336C24.6335 3.0343 24.5725 3.0344 24.5147 3.0361C24.4534 3.0377 24.3956 3.0409 24.3363 3.0434C24.2255 3.0482 24.1183 3.0542 24.0147 3.0616C23.999 3.0626 23.9831 3.0637 23.9674 3.065C23.9256 2.9649 23.9273 2.8571 23.964 2.7633C23.9644 2.762 23.9653 2.761 23.9656 2.7597C23.9745 2.7378 23.9851 2.7164 23.9979 2.696C24.0013 2.6905 24.0061 2.6859 24.0097 2.6805C24.0206 2.6652 24.0313 2.6496 24.0443 2.6359C24.0534 2.6263 24.0643 2.6182 24.0743 2.6095C24.0837 2.6013 24.0923 2.5922 24.1028 2.5847C24.1238 2.5695 24.1469 2.5563 24.1717 2.5453L24.1727 2.5446C24.1779 2.5424 24.1866 2.5385 24.1975 2.534C24.199 2.5333 24.1998 2.533 24.2015 2.5322C24.2132 2.5274 24.2282 2.5214 24.2459 2.5144C24.248 2.5135 24.25 2.5126 24.2523 2.5117C24.271 2.5044 24.2928 2.4962 24.3178 2.4871C24.3196 2.4864 24.3215 2.4857 24.3235 2.485C24.327 2.4837 24.3319 2.4821 24.3356 2.4809C24.3845 2.4632 24.4437 2.4432 24.514 2.4213C24.5574 2.4077 24.6043 2.3936 24.6558 2.3792C24.6585 2.3783 24.6608 2.3778 24.6635 2.3769C24.6724 2.3744 24.683 2.3719 24.6922 2.3692C24.7299 2.3588 24.7682 2.3483 24.81 2.3378C24.8144 2.3367 24.8187 2.3357 24.8232 2.3344C24.876 2.321 24.9318 2.3076 24.9909 2.2943C24.9934 2.2937 24.9957 2.2932 24.9982 2.2927C25.1202 2.2652 25.2556 2.2381 25.4042 2.2127C25.4074 2.2122 25.4106 2.2117 25.4139 2.2111C25.4856 2.199 25.5605 2.1872 25.6383 2.1762C25.646 2.1751 25.6535 2.174 25.6611 2.173C25.738 2.1621 25.8179 2.1519 25.9009 2.1423C25.9093 2.1414 25.9178 2.1405 25.9264 2.1396C26.0117 2.13 26.0995 2.121 26.1906 2.1134C26.1935 2.113 26.1963 2.1128 26.1992 2.1127C26.2934 2.1046 26.3906 2.0977 26.4912 2.0918C26.4932 2.0918 26.4951 2.0916 26.4969 2.0914C26.5934 2.0861 26.6933 2.0818 26.7956 2.0788C26.8082 2.0784 26.8205 2.0779 26.8332 2.0775C26.9322 2.0748 27.0343 2.0734 27.1388 2.0732C27.1467 2.0732 27.154 2.0729 27.162 2.0729C27.1756 2.0729 27.1897 2.0732 27.2032 2.0732C27.2487 2.0734 27.2944 2.0738 27.3408 2.0745C27.3677 2.0748 27.3946 2.0754 27.4219 2.0759C27.469 2.0768 27.5167 2.0782 27.5645 2.0796C27.5921 2.0805 27.6196 2.0814 27.6476 2.0823C27.6972 2.0843 27.7477 2.0866 27.7984 2.0891C27.8255 2.0905 27.8524 2.0916 27.8799 2.0932C27.9368 2.0962 27.9948 2.1 28.0529 2.1041C28.0747 2.1055 28.0961 2.1066 28.118 2.1082C28.1989 2.1141 28.2807 2.1207 28.3641 2.128C28.3737 2.1289 28.3839 2.1301 28.3935 2.131C28.4668 2.1376 28.5407 2.1449 28.6158 2.153C28.6452 2.156 28.6754 2.1597 28.705 2.163C28.7614 2.1694 28.8179 2.1758 28.8754 2.1829C28.9101 2.1872 28.9458 2.192 28.9811 2.1967C29.034 2.2036 29.0871 2.2106 29.141 2.2183C29.1797 2.2238 29.2191 2.2295 29.2584 2.2354C29.3101 2.2431 29.3622 2.2511 29.4147 2.2593C29.4553 2.2657 29.4964 2.2725 29.5376 2.2793C29.5902 2.288 29.643 2.2971 29.6962 2.3066C29.7385 2.3139 29.7809 2.3214 29.8236 2.3294C29.8772 2.3392 29.9315 2.3496 29.9859 2.3601C30.0289 2.3683 30.0715 2.3765 30.1149 2.3852C30.1279 2.3879 30.1413 2.3908 30.1543 2.3935C30.1987 2.4026 30.2435 2.4118 30.2885 2.4213C30.3299 2.43 30.3711 2.4386 30.413 2.4477C30.476 2.4614 30.5398 2.4761 30.6037 2.4909C30.6422 2.4996 30.6802 2.508 30.7189 2.5171C30.8199 2.541 30.9218 2.5658 31.0249 2.5918C31.0436 2.5965 31.0625 2.6016 31.0813 2.6065C31.1164 2.6156 31.1523 2.6252 31.1876 2.6345H31.1878C31.24 2.6482 31.292 2.6614 31.3449 2.6759C31.3863 2.6869 31.4284 2.6991 31.4702 2.7106C31.5369 2.729 31.6034 2.7476 31.6711 2.767C31.7178 2.7804 31.7653 2.7947 31.8124 2.8086C31.8762 2.8275 31.9401 2.8464 32.0047 2.8662C32.0541 2.8814 32.104 2.8971 32.1538 2.9126C32.2175 2.9326 32.2814 2.9529 32.3459 2.9738C32.3677 2.9807 32.3889 2.9872 32.4109 2.9943C32.4401 3.0039 32.4701 3.0143 32.4994 3.0241C32.5643 3.0455 32.6298 3.0676 32.6954 3.0899C32.7472 3.1076 32.7989 3.1254 32.8512 3.1436C32.9184 3.1672 32.9862 3.1913 33.0544 3.2157C33.0624 3.2187 33.0704 3.2214 33.0785 3.2243C33.1218 3.24 33.1648 3.2555 33.2083 3.2714C33.2802 3.2978 33.3527 3.3251 33.4253 3.3524C33.4303 3.3543 33.4351 3.3561 33.4401 3.3579C33.4843 3.3747 33.5284 3.3911 33.573 3.4082C33.5956 3.4169 33.6187 3.4262 33.6413 3.4351C33.6996 3.4576 33.7582 3.4806 33.817 3.504C33.8595 3.5208 33.9014 3.537 33.9441 3.5541C33.9844 3.5704 34.0256 3.5877 34.0661 3.6043C34.1501 3.6385 34.2338 3.6724 34.3189 3.7081C34.3301 3.7129 34.3417 3.7179 34.3531 3.7227C34.4698 3.772 34.5875 3.8224 34.7062 3.8744C34.7494 3.8933 34.7934 3.9132 34.8369 3.9325C34.9238 3.9712 35.0109 4.0099 35.0988 4.0501C35.1144 4.057 35.1302 4.0645 35.1459 4.0717C35.1814 4.0881 35.2173 4.1047 35.253 4.1213C35.2851 4.1361 35.3174 4.1514 35.3495 4.1664C35.3994 4.1896 35.449 4.2124 35.4992 4.2361C35.5538 4.262 35.6087 4.2886 35.6635 4.315C35.7443 4.3537 35.8251 4.393 35.9066 4.4331C35.9637 4.4611 36.021 4.4897 36.0784 4.5184C36.1592 4.5587 36.2404 4.5995 36.3219 4.6413C36.3801 4.6709 36.4383 4.7007 36.4968 4.731C36.5801 4.774 36.6639 4.8181 36.7481 4.8625C36.7749 4.8768 36.8018 4.8909 36.8288 4.9053C36.8293 4.9055 36.83 4.9057 36.8307 4.9059C36.8604 4.9216 36.8903 4.9378 36.9199 4.9537C37.0088 5.0013 37.0985 5.05 37.1881 5.0992C37.2421 5.1287 37.296 5.1578 37.3504 5.1879C37.4507 5.2434 37.5518 5.3007 37.6532 5.3579C37.6978 5.3833 37.7418 5.4077 37.7866 5.4332C37.9338 5.5174 38.0819 5.6032 38.2312 5.6914C38.922 6.0988 39.5811 6.5129 40.2132 6.9303C41.49 7.7736 42.6482 8.631 43.6959 9.4804C44.2693 9.9451 44.8097 10.407 45.3176 10.8628C45.5868 11.1044 45.8474 11.344 46.0988 11.5814C46.8666 12.3068 47.5513 13.0097 48.1581 13.6748C48.1583 13.6751 48.1584 13.6753 48.1586 13.6755C48.3342 13.8678 48.5031 14.0569 48.6654 14.2426C48.8046 14.4016 48.9407 14.5587 49.0704 14.7122C49.1709 14.8308 49.2681 14.9476 49.363 15.0627C49.3871 15.092 49.4103 15.1205 49.434 15.1496C49.6145 15.3703 49.786 15.5845 49.9464 15.7906C50.0391 15.9096 50.128 16.0257 50.214 16.1394H50.2141C50.243 16.1495 50.2707 16.16 50.2978 16.1709C50.1661 16.0728 50.0721 15.9586 50.0206 15.833C49.9913 15.7613 49.9731 15.6868 49.9731 15.6088C49.9731 15.5934 49.9742 15.5781 49.976 15.5617C49.9744 15.5487 49.9731 15.5333 49.9731 15.5166C49.9731 15.5018 49.9754 15.4869 49.9769 15.4721C49.9797 15.4441 49.9849 15.4159 49.9927 15.3881C50.0707 15.1157 50.3963 14.8617 50.9545 14.7507C50.9795 14.7457 51.0043 14.7405 51.0301 14.7362C51.0967 14.725 51.1663 14.7157 51.2389 14.7086C51.3502 14.6977 51.4681 14.6916 51.5937 14.6916C51.8841 14.6916 52.1355 14.7234 52.3494 14.7767C52.4049 14.7905 52.4577 14.8058 52.5078 14.8226C52.5439 14.5939 52.566 14.3637 52.5672 14.132C52.5688 13.8746 52.5476 13.6189 52.5064 13.3654C52.4814 13.2113 52.4484 13.058 52.4077 12.9057C52.4017 12.8823 52.3933 12.8593 52.3867 12.8359C52.1503 11.9985 51.6809 11.1921 50.9959 10.4407C50.8901 10.3248 50.7791 10.21 50.6632 10.0968C50.0791 9.5262 49.3667 8.9916 48.534 8.504C48.4892 8.4778 48.4469 8.4505 48.4014 8.4246L48.1734 8.2946L45.8647 6.9771L45.5436 6.7939L43.9339 5.8753C43.7525 5.7718 43.5666 5.6717 43.3773 5.5743C43.2126 5.4896 43.0453 5.4072 42.8749 5.3271C41.9581 4.8964 40.9612 4.5353 39.9046 4.2472C39.7369 4.2015 39.5669 4.1589 39.3961 4.1168C38.2792 3.8421 37.1016 3.6471 35.8843 3.5382C35.7375 3.525 35.5898 3.514 35.4419 3.5035C35.0473 3.4751 34.6496 3.4539 34.2482 3.4435C34.1849 3.4173 34.121 3.3914 34.0572 3.3657C33.9323 3.3152 33.8067 3.2655 33.6802 3.2166C33.4645 3.1333 33.2463 3.0526 33.0262 2.9745C32.6309 2.8341 32.2291 2.7024 31.8222 2.5827C32.4384 2.5397 33.0617 2.5153 33.6918 2.5153C33.9469 2.5153 34.2011 2.519 34.4541 2.5262C34.9602 2.5403 35.4617 2.5688 35.9571 2.6109C36.4527 2.6532 36.9424 2.7092 37.4246 2.7788C37.907 2.8482 38.3819 2.9312 38.8483 3.0273C39.0814 3.0755 39.3125 3.1269 39.541 3.1814C40.4557 3.3998 41.3325 3.6701 42.161 3.9898C42.5752 4.1496 42.9772 4.3218 43.3657 4.5059C43.7543 4.69 44.1293 4.8862 44.4895 5.0939L49.0412 7.7207C51.7842 9.3036 53.3552 11.3866 53.511 13.6225C53.5126 13.6459 53.5122 13.6694 53.5135 13.6926C53.5149 13.7178 53.5152 13.7431 53.5161 13.7684C53.5172 13.7898 53.5179 13.8112 53.5186 13.8328C53.5204 13.896 53.5258 13.9588 53.5254 14.0223C53.5251 14.0899 53.5188 14.1568 53.5158 14.224C53.5145 14.2513 53.5135 14.2786 53.5119 14.3058C53.5092 14.3527 53.5092 14.3998 53.5051 14.4467C53.5031 14.471 53.4997 14.4952 53.4974 14.5195C53.4878 14.6142 53.4744 14.7086 53.4598 14.8026C53.4566 14.824 53.4549 14.8454 53.4514 14.8666C53.4316 14.9856 53.4055 15.1037 53.3777 15.2215C53.372 15.2457 53.3679 15.2704 53.3618 15.2946C53.3211 15.4566 53.2749 15.6179 53.2191 15.7777C53.2063 15.8148 53.1895 15.8511 53.1759 15.888C53.167 15.9121 53.1568 15.9358 53.1476 15.9599C53.1065 16.0664 53.0637 16.1727 53.0159 16.278C53.0066 16.2983 52.9959 16.3185 52.9865 16.3388C52.9007 16.5224 52.8045 16.7042 52.6985 16.8836C52.6695 16.9332 52.6434 16.9834 52.6127 17.0324C52.5988 17.0549 52.5824 17.0768 52.5679 17.0993C52.5496 17.128 52.5292 17.1562 52.5103 17.185C52.4994 17.2014 52.4884 17.2176 52.4773 17.234C52.4324 17.3007 52.3901 17.3683 52.3423 17.4344L52.343 18.019L52.3432 18.1608V18.2218L52.3433 18.382L52.3435 18.4785L52.3444 19.2845V19.3472L52.3453 20.1453L52.3455 20.2342V20.2565L52.3457 20.3787V20.447L52.3458 20.5066L52.3464 20.9947L52.3467 21.3479L52.4163 21.3882L51.9548 21.6557L51.8718 21.7038L51.8461 21.7186L51.8278 21.7293L51.7632 21.7666L51.6599 21.8266L51.5937 21.8649L51.3391 21.7174L51.2364 21.658L51.1413 21.603L50.7665 21.3857H50.7663L50.8467 21.3394V21.3392L50.8464 21.0097L50.8457 20.536V20.3835L50.8455 20.2684L50.8453 20.191L50.8451 19.9027V19.9018L50.8446 19.4831L50.8444 19.3932V19.3318L50.8441 19.0234C50.7258 19.1233 50.6057 19.2225 50.48 19.3197C50.4553 19.3388 50.4286 19.357 50.4036 19.3761C50.3916 19.3852 50.379 19.3939 50.3668 19.403C50.3162 19.4412 50.2639 19.4788 50.212 19.5166C50.1934 19.5302 50.1754 19.5438 50.1567 19.5573C50.111 19.5901 50.0678 19.624 50.0213 19.6567L50.0218 20.0781V20.0856V20.15L50.022 20.3103L50.0222 20.4383V20.4677L50.0224 20.4955L50.0227 20.9487L50.0231 21.1476V21.2832L50.0232 21.3379L50.0234 21.6012L50.0236 21.6587L50.0247 22.6797V22.6964L50.0343 22.702L50.0967 22.7378V22.738V22.7378L50.0591 22.7598L49.9904 22.7997L49.9057 22.8492L49.7232 22.9555L49.6859 22.9772L49.645 23.001L49.3867 23.1514L49.3862 23.1517L49.275 23.2165V23.268V23.3137L49.2752 23.4042L49.2754 23.5995L49.2763 24.2976V24.3022V24.302L49.2765 24.3531L49.2766 24.4901L49.2774 25.1612L49.2786 26.1647L49.2788 26.2243L49.279 26.4716L49.2793 26.6894L49.2797 26.985L49.2799 27.1821L49.2836 30.1156L49.2838 30.2424V30.2429L49.2843 30.7137L49.2745 30.7111L48.7341 30.5632L48.7331 30.5628L48.4562 30.487L48.4556 30.1156L48.4528 27.8208V27.7486L48.4526 27.5578L48.4519 27.0976L48.4508 26.2216L48.4503 25.753L48.4498 25.2973L48.4496 25.1104L48.4492 24.8365L48.449 24.7609L48.448 23.8842L48.4467 22.7894V22.7391L48.5006 22.7079L48.5277 22.692C48.5268 22.682 48.5247 22.6725 48.5247 22.6625L48.5245 22.606L48.5233 21.4774V21.3379L48.5231 21.3206V21.2116L48.5229 21.1014L48.5227 20.99L48.5225 20.759V20.7287L48.5224 20.6422V20.5792L48.4678 20.6104L48.3579 20.6734C48.3752 20.7 48.3932 20.7266 48.4109 20.7531C48.4378 20.7936 48.4642 20.8339 48.4917 20.8744C48.4812 20.9258 48.4721 20.9742 48.4617 21.0248V21.025C48.4556 21.0552 48.4499 21.0846 48.4439 21.1146C48.4414 21.1276 48.4387 21.1406 48.436 21.1538C48.4285 21.1918 48.4205 21.2309 48.4132 21.2685C48.4118 21.276 48.4102 21.2839 48.4085 21.2914C48.4057 21.3067 48.4023 21.3228 48.3995 21.3379C48.3957 21.3572 48.3912 21.3779 48.3875 21.3972C48.3841 21.4155 48.3807 21.4337 48.3772 21.4521C48.3713 21.4835 48.3663 21.5128 48.3604 21.5438C48.3445 21.5219 48.3277 21.4999 48.3119 21.4782C48.3117 21.5681 48.3088 21.6574 48.307 21.7472C48.3065 21.7804 48.3061 21.8135 48.3053 21.8465C48.2623 22.0897 48.2232 22.3239 48.1891 22.5477C48.1847 22.5769 48.1809 22.6044 48.1766 22.6333C48.1508 22.8067 48.1276 22.974 48.1069 23.136C48.0814 23.3357 48.0594 23.5269 48.0409 23.7099C48.0373 23.7472 48.0327 23.7863 48.0293 23.8229C48.0187 23.9331 48.0104 24.0385 48.0023 24.1427C47.9916 24.2847 47.9827 24.4221 47.9761 24.5534C47.9725 24.6257 47.9699 24.6952 47.9675 24.7643C47.9383 24.9011 47.9072 25.0372 47.8742 25.1726C47.8489 25.2766 47.8227 25.3801 47.7954 25.4832C47.78 25.5407 47.7647 25.5983 47.7486 25.6554C47.7417 25.6809 47.7353 25.7068 47.728 25.7323C47.7326 25.7366 47.7374 25.7408 47.7419 25.7449C47.761 25.7626 47.7806 25.7803 47.7998 25.7979C47.8635 25.8566 47.9276 25.9153 47.9925 25.974C47.9943 25.9935 47.9959 26.0134 47.9977 26.0323C48.0052 26.1085 48.0136 26.1813 48.0227 26.2509C48.0239 26.2596 48.0248 26.2687 48.0261 26.2773C48.0321 26.3224 48.0389 26.3652 48.0457 26.4077C48.065 26.5269 48.0864 26.6368 48.1097 26.736C47.937 26.5866 47.7651 26.4341 47.5961 26.2801C47.5913 26.2757 47.5861 26.2714 47.5811 26.2669C47.577 26.263 47.5726 26.2593 47.5683 26.2555C47.5658 26.2634 47.5629 26.2709 47.5603 26.2785C47.5599 26.28 47.5594 26.2814 47.5588 26.2828C47.4539 26.603 47.3398 26.916 47.2177 27.2144C47.1719 27.3268 47.1241 27.438 47.0752 27.548C47.2217 27.669 47.3708 27.7898 47.5208 27.9089C47.7344 27.5518 47.9356 27.173 48.1211 26.7813C48.1483 26.8899 48.1773 26.9868 48.2075 27.0726C48.2246 27.1217 48.2421 27.1671 48.2598 27.2093C48.2967 27.2974 48.3342 27.3725 48.3704 27.4344C48.2765 27.6149 48.1795 27.7915 48.079 27.9648C48.0687 27.9826 48.0585 28.0005 48.0482 28.0181C47.9354 28.0736 47.8234 28.1293 47.7117 28.1851C47.6487 28.2167 47.5863 28.2484 47.5235 28.28C47.4042 28.3401 47.2836 28.4001 47.1656 28.4604C47.1676 28.4575 47.1696 28.4548 47.1715 28.452C47.1992 28.4108 47.229 28.3712 47.2563 28.3298C47.1457 28.2422 47.0359 28.1535 46.9268 28.0645C46.905 28.0467 46.8825 28.0292 46.8608 28.0113C46.7203 28.3012 46.5678 28.581 46.4103 28.8541C46.2943 28.9156 46.1803 28.9772 46.0656 29.0389C45.9846 29.0824 45.9024 29.1258 45.8221 29.1695C45.707 29.2318 45.5946 29.2942 45.4812 29.3567C45.5099 29.3147 45.5408 29.2741 45.569 29.2316C45.4373 29.1285 45.3072 29.0248 45.1797 28.9214C45.1062 29.0734 45.0279 29.222 44.9492 29.37C44.9722 29.3716 44.9958 29.3709 45.0186 29.3729C45.1365 29.3834 45.2514 29.4002 45.3645 29.4211C45.7916 29.4994 46.18 29.6523 46.5164 29.8647C46.1459 29.6781 45.7258 29.5552 45.2698 29.5149C45.2466 29.5129 45.2227 29.5138 45.1993 29.512C45.0946 29.5047 44.9893 29.4987 44.8823 29.4994C44.8027 29.4997 44.7217 29.5065 44.6409 29.5113C44.5972 29.514 44.554 29.514 44.51 29.5179C44.4251 29.5256 44.3391 29.539 44.2531 29.5513C44.1685 29.5634 44.084 29.5766 43.9985 29.5934C43.9141 29.61 43.8294 29.6282 43.7443 29.6492C43.7091 29.6578 43.6742 29.6662 43.6388 29.6756C43.525 29.7061 43.4107 29.7402 43.2958 29.7786C43.2465 29.795 43.1971 29.8144 43.1479 29.8323C43.0519 29.8671 42.9561 29.9015 42.8598 29.9414C42.7328 29.9944 42.6054 30.0533 42.478 30.1156C42.3481 30.1789 42.2181 30.2479 42.0882 30.3209C42.0623 30.3355 42.0365 30.3477 42.0106 30.3625C41.9737 30.3839 41.9376 30.4087 41.9009 30.4308C41.8746 30.4463 41.849 30.4631 41.8231 30.479C41.7717 30.5105 41.7203 30.5418 41.6693 30.5744C41.6104 30.6122 41.5514 30.6488 41.4931 30.688C41.3719 30.7699 41.2517 30.8552 41.1327 30.9437C40.9498 31.0795 40.7698 31.2224 40.593 31.3722C40.5409 31.4161 40.4904 31.4628 40.4389 31.508C40.4169 31.5272 40.395 31.5465 40.3731 31.566C40.3206 31.6127 40.2669 31.6575 40.215 31.7053C40.1442 31.7704 40.0757 31.8389 40.0061 31.9062C39.8325 32.0735 39.6627 32.2457 39.4973 32.4232C39.3556 32.5752 39.217 32.7298 39.0818 32.8877C38.917 33.0804 38.7559 33.2761 38.6017 33.4752C38.4751 33.6386 38.353 33.804 38.2342 33.9701C38.2307 33.9728 38.2267 33.9756 38.2232 33.9781C37.5153 34.9589 36.9547 35.9769 36.5986 36.8823L36.6179 36.871C36.5817 36.9624 36.5439 37.0546 36.5118 37.1436L36.3979 37.4585L36.7621 37.2482L36.7756 37.2114C36.8431 37.0284 36.9226 36.8386 37.0074 36.6463L38.51 35.7787C39.5838 33.9835 41.1883 32.1384 42.985 31.1027C44.1029 30.4584 45.2298 30.1653 46.2442 30.2551C46.3657 30.2658 46.4843 30.2829 46.6008 30.3047L46.679 30.322C46.8616 30.3602 47.0363 30.413 47.2035 30.4772C47.277 30.5055 47.3483 30.5362 47.4184 30.5692C47.4393 30.5792 47.4598 30.5896 47.4803 30.5997L47.9265 30.3421L48.4564 30.6479L48.5218 30.6859L48.5227 30.6863L49.275 31.1207L49.2848 31.1264L49.6217 31.3208L49.2754 31.5208L48.7302 31.8355C48.7017 31.7904 48.6678 31.7492 48.6365 31.7058C48.5755 31.6216 48.5099 31.5413 48.4391 31.465C48.2881 31.3023 48.1163 31.1581 47.9258 31.0338C47.9256 31.0336 47.9253 31.0334 47.9249 31.0333C47.8305 30.9717 47.7319 30.9152 47.6288 30.8638C47.5544 30.8267 47.4794 30.7906 47.4009 30.7589C47.3615 30.743 47.3205 30.7298 47.2802 30.7153C47.2134 30.6914 47.1473 30.6672 47.078 30.6472C47.0295 30.6333 46.979 30.6228 46.9293 30.6108C46.7557 30.5689 46.5778 30.5352 46.3919 30.5187C45.3775 30.429 44.2506 30.7221 43.1327 31.3663C41.5182 32.297 40.0585 33.8818 38.9996 35.4961C38.7541 35.8702 38.5314 36.2452 38.3323 36.6149C38.3318 36.6157 38.3314 36.6166 38.3309 36.6175C38.2776 36.7167 38.2253 36.8152 38.1757 36.9131C37.9827 37.2938 37.818 37.6647 37.684 38.0187C37.6678 38.0613 37.6491 38.1054 37.6337 38.1473L37.5906 38.267L36.9551 38.6338L36.188 38.191L35.9066 38.0285L35.9041 38.0271L35.8636 38.0037L35.5136 37.8017L35.2599 37.6551L35.514 37.5085L35.5156 36.164L35.5158 36.0866V36.0534L35.5159 35.8552L35.5165 35.4472C35.5846 35.3682 35.6469 35.2877 35.7033 35.2057C35.7632 35.1181 35.8178 35.0296 35.8636 34.9395C35.8777 34.912 35.8902 34.8847 35.9029 34.8571C35.9197 34.8205 35.9352 34.7836 35.9498 34.7466C35.9607 34.7188 35.9719 34.691 35.9816 34.663C36.0131 34.5706 36.0356 34.4774 36.0524 34.3841C36.0681 34.2955 36.0772 34.2066 36.0791 34.1178C36.0797 34.09 36.0831 34.0618 36.0822 34.0339C36.0795 33.9383 36.0686 33.8425 36.051 33.7467C36.0163 33.5596 35.9532 33.3724 35.8636 33.1871C35.8167 33.0898 35.7623 32.9932 35.7009 32.897C35.6729 32.8533 35.6437 32.8098 35.6128 32.7664C35.5939 32.7398 35.5752 32.7131 35.5552 32.6865C35.55 32.6797 35.5447 32.6731 35.5395 32.6663C35.5336 32.6585 35.527 32.6508 35.5209 32.643C35.5059 32.6237 35.4906 32.6044 35.4751 32.5853C35.4512 32.5561 35.4267 32.527 35.4016 32.4979C35.2098 32.2756 34.9797 32.0594 34.7142 31.8521C34.6357 31.7906 34.5549 31.7297 34.4702 31.67C34.4414 31.6498 34.4115 31.6298 34.3822 31.6098C34.351 31.5886 34.3201 31.5672 34.2882 31.5462C34.2274 31.5062 34.1649 31.4666 34.1014 31.4273C33.8486 31.2718 33.5742 31.1235 33.2801 30.9842C33.2235 30.9573 33.1668 30.9305 33.1086 30.9044C33.0438 30.8752 32.978 30.8465 32.9113 30.8183C32.9109 30.8181 32.9104 30.8177 32.9099 30.8176V30.8349L32.9102 31.1109V31.1933L32.9104 31.2864L32.9113 32.1235L32.9115 32.2407L32.9117 32.4028V32.4762L32.9921 32.5227L32.8271 32.6182L32.6621 32.7138L32.592 32.7545L32.5409 32.7841L32.1693 32.9992L31.5069 32.6157L31.4902 32.6058L31.4652 32.5914L31.4242 32.5677L31.3421 32.5202L31.4135 32.4788C31.4135 32.4788 31.4117 32.4522 31.4117 32.4421L31.4111 32.0414L31.4102 31.1314L31.4097 30.7872V30.7528L31.4093 30.3764L31.3938 30.3851L31.0422 30.5865C30.9523 30.6381 30.8588 30.6866 30.7673 30.7366C30.7395 30.7566 30.7123 30.7767 30.6847 30.7967C30.652 30.8206 30.6187 30.8441 30.5864 30.8684L30.5867 31.2382L30.5869 31.3553L30.5871 31.6066L30.5882 32.507L30.5896 33.8093V33.8247L30.6162 33.8398L30.6561 33.8629L30.6724 33.8723L30.6549 33.8825L30.6536 33.8832L30.1532 34.1747L29.8507 34.3508L29.851 34.6735L29.8523 35.675L29.8525 35.816L29.8526 35.9839L29.8541 37.3588L29.8542 37.4735L29.8546 37.8194L29.8548 37.8717V37.8769V37.9136V37.9345V37.9905L29.8583 41.1988L29.8608 43.3791V43.3842L29.8564 43.3816L29.8519 43.3791L29.0748 42.932L29.0323 42.9076L29.0307 41.4741L29.0275 38.5585L29.0272 38.1835L29.027 38.12V38.0367L29.024 38.0376L28.9894 38.0472C28.8948 38.0733 28.7995 38.0975 28.7046 38.1225C28.6789 38.1218 28.654 38.1198 28.6288 38.1184C28.4324 38.1065 28.2476 38.0756 28.0759 38.0247C27.9857 37.998 27.8988 37.9664 27.8158 37.9289C27.7571 37.9917 27.6794 38.0751 27.6196 38.1361C27.6961 38.1775 27.7687 38.2156 27.8369 38.2488C27.8886 38.2672 27.9373 38.2841 27.9866 38.3011C27.9703 38.3048 27.9541 38.3091 27.938 38.3129C27.9025 38.3209 27.867 38.3305 27.8315 38.3393C27.7727 38.3535 27.7138 38.3676 27.6549 38.3833C27.4515 38.4374 27.2483 38.4988 27.0475 38.5608C26.9857 38.5799 26.9238 38.5992 26.8625 38.6183C26.8345 38.627 26.8057 38.6356 26.7775 38.6445C26.7235 38.6613 26.6693 38.6779 26.6148 38.6946C26.5938 38.7011 26.5729 38.7077 26.5519 38.7141C26.5727 38.697 26.594 38.6807 26.6148 38.6634C26.7934 38.5155 26.969 38.3598 27.1404 38.1969C26.7222 37.9425 26.3173 37.6346 25.9289 37.2812C25.8886 37.2444 25.8488 37.2059 25.8088 37.1683C25.7807 37.1415 25.7521 37.1156 25.7241 37.0883C25.6964 37.0617 25.6681 37.0373 25.6408 37.01L25.6372 37.015L25.6336 37.0111C25.6024 37.0516 25.5698 37.0903 25.5382 37.1303C25.5093 37.1668 25.4802 37.2032 25.4508 37.2393C25.4074 37.293 25.3644 37.3468 25.3202 37.3995C25.0389 37.7338 24.742 38.0481 24.4318 38.3378C24.5261 38.4037 24.6211 38.4675 24.7154 38.5264C24.8403 38.6045 24.9739 38.6711 25.1129 38.7246L25.244 38.7753C25.3832 38.8292 25.5345 38.8871 25.6895 38.9433C25.6317 38.9556 25.5739 38.9646 25.5159 38.9749C25.4408 38.9883 25.3657 39.0018 25.2908 39.0117C25.2735 39.014 25.256 39.0181 25.2385 39.0202C25.1265 39.0381 25.0144 39.0579 24.9024 39.0777C24.7629 39.0199 24.6269 38.9526 24.4992 38.873C24.4047 38.8138 24.309 38.751 24.2139 38.685C24.1947 38.7018 24.1743 38.7166 24.1549 38.7332C24.0084 38.8577 23.8596 38.9765 23.7089 39.0902C23.5881 39.181 23.4668 39.27 23.3442 39.3533C23.1853 39.3776 23.026 39.3999 22.8668 39.4181C22.7787 39.428 22.6904 39.4371 22.6023 39.4446C22.4398 39.4586 22.2776 39.4666 22.116 39.47C22.1252 39.4653 22.1347 39.4609 22.144 39.4564L22.1413 39.4552C22.056 39.4172 21.8814 39.326 21.6949 39.2234C21.5381 39.1371 21.3758 39.0434 21.2489 38.9649C21.2311 38.9537 21.2115 38.9419 21.1951 38.9316C20.9906 39.0745 20.7819 39.2075 20.5719 39.3287C20.7143 39.3929 20.8388 39.4393 20.9678 39.4696C20.7703 39.4675 20.571 39.4641 20.3705 39.4596C20.2847 39.4577 20.1987 39.4557 20.1123 39.4534C20.0426 39.4512 19.9728 39.4491 19.9027 39.4468C19.8169 39.4437 19.7306 39.4404 19.6442 39.437C19.5083 39.4314 19.3718 39.425 19.235 39.4181C19.2077 39.4166 19.1804 39.4152 19.1529 39.4136C19.1797 39.405 19.2073 39.3961 19.235 39.387C19.3046 39.3644 19.3756 39.3408 19.4471 39.3158C19.398 39.2909 19.35 39.2669 19.3031 39.2441C19.2798 39.2329 19.2582 39.2181 19.235 39.2063C19.0787 39.1257 18.9299 39.0313 18.789 38.9257C18.7585 38.9028 18.7258 38.883 18.6962 38.8589L18.6609 38.83C18.5155 38.9121 18.3678 38.9894 18.2195 39.0605C18.4281 39.1763 18.629 39.2675 18.789 39.3338C18.8564 39.3617 18.9156 39.385 18.9654 39.4036C18.9065 39.4002 18.8478 39.3961 18.789 39.3924C18.6643 39.3842 18.5396 39.3756 18.4145 39.3658C18.3278 39.359 18.2413 39.3513 18.1546 39.3437C18.0859 39.3378 18.0174 39.3315 17.9489 39.3251C17.8756 39.2821 17.8021 39.2366 17.7293 39.1883L17.7034 39.171L17.659 39.1881C17.5821 39.2175 17.5045 39.2439 17.4269 39.27C17.3661 39.2628 17.3052 39.2568 17.2444 39.2493C17.1561 39.2384 17.068 39.2256 16.9796 39.2136C16.9115 39.2043 16.8432 39.1952 16.775 39.1854C16.6261 39.1637 16.4774 39.1399 16.329 39.1151C16.1983 39.0932 16.0678 39.0702 15.9376 39.0457C15.8316 39.0256 15.7257 39.0052 15.6201 38.9833C15.5394 38.9667 15.4591 38.9487 15.3789 38.9308C15.1931 38.8204 15.0253 38.7168 14.925 38.6461L14.8567 38.5979L14.8115 38.6108C14.6927 38.6449 14.5739 38.6731 14.4555 38.6986C14.4084 38.685 14.362 38.67 14.3152 38.6561C14.301 38.6518 14.2869 38.6472 14.2726 38.6429C14.2064 38.6229 14.1404 38.6024 14.0746 38.5815C14.0061 38.5599 13.9372 38.5394 13.8692 38.5168C13.5376 38.4058 13.2117 38.282 12.8927 38.1445C12.8795 38.1387 12.8657 38.1338 12.8524 38.128C12.7489 38.0829 12.6476 38.0383 12.5466 37.9937C12.4483 37.9502 11.9836 37.7411 11.9423 37.7224C11.9133 37.7092 11.884 37.6958 11.8551 37.6826C11.8255 37.669 11.7952 37.6553 11.7657 37.6417C11.6449 37.5861 11.5263 37.5308 11.4091 37.4756C11.2014 37.3779 10.9991 37.2806 10.8017 37.1838C10.6918 37.1299 10.5833 37.0762 10.4764 37.0225C10.3772 36.9727 10.0006 36.7786 10.0006 36.7786C9.9573 36.756 9.9134 36.7335 9.8706 36.7108C9.8142 36.681 9.7587 36.6512 9.7029 36.6215C9.5992 36.566 9.4967 36.5105 9.3951 36.4548C9.2826 36.3929 9.1709 36.331 9.0608 36.2686C9.0235 36.2475 8.9863 36.2263 8.9491 36.2051C8.8657 36.1573 8.7825 36.1093 8.7003 36.0611C8.6029 36.0042 8.5064 35.9469 8.4107 35.8895C8.2985 35.7753 8.1892 35.6672 8.0955 35.5889L8.0434 35.5452L7.9214 35.5477C7.903 35.5477 7.88 35.5473 7.8543 35.5466C7.8101 35.5188 7.7655 35.4906 7.7212 35.4627C7.6615 35.4251 7.6017 35.3875 7.5417 35.3498C7.3534 35.231 7.165 35.1111 6.9766 34.9902C6.9628 34.9814 6.9491 34.9727 6.9354 34.9639C6.8524 34.9106 6.7698 34.8574 6.687 34.8037C6.621 34.7606 6.5554 34.7167 6.4894 34.6733C6.4153 34.6244 6.3409 34.5761 6.2673 34.5269C6.0912 34.3451 5.9956 34.2446 5.9435 34.1827L5.9308 34.1717C5.9283 34.1693 5.9262 34.167 5.924 34.1645L5.8698 34.1099L5.8425 34.1074C5.7759 34.1016 5.6948 34.0898 5.6095 34.0755C5.5585 34.0393 5.5089 34.0011 5.458 33.9645C5.3943 33.9185 5.3312 33.8718 5.268 33.8252C5.0821 33.688 4.8993 33.5476 4.7193 33.4044C4.6379 33.3394 4.5555 33.2756 4.4754 33.2092C4.4374 33.1778 4.4014 33.1446 4.3637 33.113C4.2512 33.018 4.1386 32.9227 4.0294 32.8244C3.9593 32.7614 3.892 32.6956 3.8235 32.6312L3.7941 32.5869L3.7716 32.5816C3.7277 32.5398 3.6837 32.4983 3.6405 32.456C3.5945 32.411 3.5461 32.3682 3.501 32.3226C3.499 32.3206 3.4969 32.3188 3.4949 32.3168C3.3602 32.1804 3.2311 32.0371 3.1048 31.891C3.0568 31.8355 3.0082 31.7811 2.9615 31.7244C2.896 31.6448 2.8329 31.5629 2.7699 31.4809C2.6964 31.3851 2.6247 31.2873 2.5544 31.1881C2.5264 31.1483 2.4973 31.1098 2.4697 31.0696C2.4441 31.0324 2.4201 30.9938 2.3949 30.956C2.4566 30.9749 2.5194 30.9922 2.5831 31.0077C2.6418 31.0218 2.7012 31.0347 2.7615 31.0459C2.7637 31.0463 2.7658 31.0468 2.7679 31.0472C2.8686 31.0657 2.9706 31.0816 3.0751 31.0919C2.9897 30.8424 2.9169 30.583 2.8552 30.317C2.8197 30.1641 2.789 30.0083 2.7615 29.851C2.7483 29.7746 2.734 29.6988 2.7226 29.6214C2.3467 29.6717 1.9983 29.6753 1.6628 29.6382C1.6661 29.651 1.6701 29.6635 1.6736 29.6763C1.6676 29.6633 1.6608 29.6507 1.6547 29.6376C1.6003 29.5211 1.5484 29.4032 1.4979 29.284C1.426 29.1144 1.3575 28.9422 1.2936 28.7674C1.251 28.49 1.2196 28.2063 1.2021 27.9173C1.1711 27.9166 1.1404 27.9145 1.1095 27.913C1.0794 27.9116 1.0489 27.9107 1.0187 27.9088C1.01 27.8772 1.0021 27.8451 0.993603 27.8133C0.985403 27.783 0.977303 27.7527 0.969503 27.7223C0.953303 27.6597 0.936003 27.5976 0.920803 27.5347C0.978803 27.5405 1.0367 27.5462 1.0953 27.5493C1.1013 27.5496 1.1074 27.5505 1.1136 27.5509C1.1106 27.4264 1.1097 27.307 1.1111 27.19C1.1111 27.1886 1.111 27.187 1.111 27.1855C1.114 26.9356 1.1263 26.6767 1.1475 26.415C1.1058 26.4175 1.0655 26.4193 1.0262 26.4205C0.919903 26.4236 0.813703 26.4221 0.708103 26.4175C0.699603 26.3572 0.689403 26.2976 0.681603 26.237C0.681403 26.2357 0.681203 26.2345 0.681003 26.2332C0.675703 26.2034 0.671603 26.1733 0.666403 26.1435C0.656003 26.0825 0.646203 26.0213 0.636803 25.9601C0.765403 25.9694 0.895103 25.9728 1.0255 25.9685C1.0789 25.9669 1.1347 25.9638 1.1937 25.9592C1.2185 25.7537 1.2507 25.5483 1.2863 25.3434C1.3149 25.1792 1.3466 25.0155 1.3821 24.8522C1.2763 24.6913 1.1779 24.5286 1.0885 24.3639C0.999503 24.3734 0.910403 24.3825 0.823603 24.3866C0.780703 24.3887 0.737003 24.3873 0.694003 24.388C0.631403 24.3891 0.569203 24.3918 0.506003 24.39C0.505103 24.329 0.503903 24.268 0.504003 24.207C0.504003 24.1777 0.504903 24.1486 0.505303 24.1194C0.505703 24.0755 0.506203 24.0318 0.507103 23.9879C0.507403 23.9713 0.507303 23.9547 0.507803 23.9381C0.610703 23.9413 0.713703 23.941 0.815903 23.936C0.835003 23.9351 0.854803 23.9319 0.874003 23.9306C0.744703 23.6411 0.639803 23.3471 0.561303 23.049C0.543703 22.9819 0.529203 22.9143 0.514803 22.8468C0.512103 22.8347 0.508903 22.8226 0.506403 22.8104C0.496703 22.766 0.487103 22.7214 0.478703 22.6768C0.478703 22.6766 0.478703 22.6766 0.478503 22.6765C0.474403 22.6542 0.471403 22.6317 0.467303 22.6092C0.457103 22.5505 0.446203 22.4918 0.437903 22.4328V22.4326C0.432703 22.3971 0.429103 22.3612 0.424803 22.3256C0.424103 22.3188 0.423803 22.312 0.422903 22.3052C0.401303 22.1218 0.387403 21.9377 0.385103 21.7524V21.7499C0.384503 21.719 0.381503 21.6885 0.381703 21.6576C0.385103 21.0958 0.480503 20.5428 0.657603 20.003C0.715603 19.8262 0.779503 19.6503 0.855703 19.4765C0.979103 19.1948 1.1261 18.9176 1.2961 18.6455C1.4729 18.3628 1.6758 18.0857 1.9015 17.8149C2.1137 17.5603 2.3467 17.3113 2.6013 17.0688C2.6252 17.046 2.6516 17.024 2.6761 17.0012C2.7678 16.9156 2.8607 16.8303 2.9578 16.7464C3.339 16.4164 3.7625 16.1006 4.2226 15.7991C4.3817 15.6948 4.5455 15.5926 4.7139 15.4921C4.7812 15.4866 4.852 15.4821 4.923 15.4778C4.9712 15.4748 5.0206 15.4725 5.0704 15.4702C5.1392 15.467 5.2077 15.4638 5.2798 15.4618C5.2839 15.4616 5.2882 15.4616 5.2923 15.4616C5.3867 15.4591 5.4832 15.4577 5.5833 15.4577C5.7026 15.4577 5.8273 15.4598 5.9554 15.4638C5.9927 15.465 6.0305 15.4664 6.0685 15.4679C6.117 15.4698 6.1654 15.4718 6.215 15.4745L5.5742 15.8371C5.4734 15.8942 5.3779 15.9535 5.2805 16.0118C5.211 16.0535 5.1391 16.0944 5.0713 16.1367C5.0208 16.1683 4.9737 16.2013 4.9241 16.2332C4.6793 16.3907 4.4447 16.5518 4.2239 16.7177C4.1802 16.7506 4.1381 16.7836 4.0954 16.8167C4.0951 16.8169 4.0947 16.8173 4.0942 16.8176C4.0692 16.8369 4.0455 16.8567 4.0208 16.8761C3.9991 16.8934 3.9775 16.9108 3.9561 16.9281C3.8699 16.9971 3.7843 17.0663 3.7022 17.1366C3.4319 17.368 3.1847 17.6063 2.9592 17.8504C2.9103 17.903 2.8629 17.956 2.8161 18.0093C2.7439 18.0919 2.6748 18.1753 2.6076 18.2591C2.5 18.3934 2.3992 18.5292 2.3048 18.6666C2.1487 18.894 2.011 19.1252 1.892 19.36C1.8205 19.5011 1.7559 19.6437 1.6981 19.7873C1.4676 20.3599 1.3434 20.949 1.3397 21.5475C1.3384 21.7804 1.358 22.0114 1.3918 22.241C1.4167 22.4115 1.4485 22.5816 1.4924 22.75C1.6433 23.3287 1.9088 23.8926 2.2759 24.435C2.3755 24.582 2.4821 24.7272 2.597 24.8708C2.6179 24.897 2.6372 24.9236 2.6588 24.9498C2.6812 24.9771 2.7043 25.0042 2.7273 25.0313C2.8067 25.125 2.8887 25.2181 2.9747 25.3102C2.987 25.3234 2.999 25.3368 3.0115 25.35C3.2295 25.5803 3.4678 25.8054 3.7261 26.0243C4.1434 26.3775 4.6147 26.714 5.1335 27.0325C5.1421 27.0378 5.151 27.0428 5.1598 27.0482C5.2391 27.0967 5.3192 27.145 5.4011 27.1927C5.4366 27.2134 5.4698 27.2348 5.5057 27.2553L5.5294 27.2688L5.7702 27.4062L5.7706 27.4064L6.633 27.8986L7.0495 28.1364L7.1136 28.1728L7.166 28.2028L7.7453 28.5332L8.0306 28.696L9.9739 29.805C10.1278 29.8927 10.2857 29.9777 10.4452 30.061C10.5972 30.1405 10.7526 30.2171 10.9094 30.2924C11.3536 30.5059 11.8166 30.7034 12.297 30.8836C12.7962 31.0705 13.3142 31.2384 13.8473 31.3883C14.0567 31.4471 14.2685 31.503 14.4826 31.556C15.5098 31.8102 16.5888 31.9963 17.7029 32.1103C17.9286 32.1333 18.1553 32.1534 18.3837 32.1707C18.5178 32.1807 18.6521 32.1907 18.7874 32.1987C18.8527 32.2027 18.9181 32.2061 18.9838 32.2096C19.0031 32.2105 19.0225 32.2111 19.0418 32.2119C19.2109 32.2203 19.3802 32.228 19.5506 32.2332C19.6173 32.2351 19.6842 32.236 19.7511 32.2375C19.7889 32.2383 19.8269 32.2383 19.8647 32.2391C19.9138 32.24 19.9628 32.2405 20.0117 32.241C20.1214 32.2424 20.2304 32.2455 20.3403 32.2455C20.3455 32.2455 20.3507 32.2453 20.3559 32.2453C20.6124 32.2451 20.868 32.241 21.1224 32.2334C21.1294 32.2332 21.1362 32.2328 21.143 32.2326C21.7506 32.2141 22.3504 32.1734 22.9416 32.1138C23.1339 32.0946 23.325 32.073 23.5151 32.0494C24.0396 31.9843 24.5558 31.9031 25.0619 31.8063C25.3757 31.7461 25.6866 31.6817 25.9922 31.6097C26.1216 31.5792 26.2486 31.5458 26.3763 31.5131C26.7743 31.4115 27.1641 31.2994 27.5454 31.1776C27.5714 31.1692 27.5977 31.1608 27.6237 31.1524C27.7111 31.1241 27.8 31.0973 27.8863 31.068C27.9693 31.0397 28.0497 31.009 28.1318 30.9797C28.4313 30.8732 28.7259 30.7614 29.0127 30.6422C29.0343 30.6331 29.057 30.6249 29.0787 30.6158C29.0811 30.6194 29.0837 30.6231 29.086 30.6267V30.5994L29.0859 30.4342L29.0857 30.3716V30.234C29.0659 30.2055 29.0472 30.1782 29.0266 30.1487C29.0218 30.142 29.0177 30.1359 29.0129 30.1291C28.9922 30.0993 28.969 30.067 28.9474 30.0365C28.9449 30.033 28.9423 30.0294 28.9399 30.0258C28.9187 29.9959 28.8977 29.9661 28.8757 29.9354C28.8201 29.8574 28.7615 29.7764 28.7009 29.6931C28.614 29.5741 28.5237 29.4516 28.4265 29.3224C28.0668 28.8448 27.6339 28.2995 27.1272 27.7054C27.0489 27.6137 26.9683 27.5204 26.8864 27.4264C26.886 27.4258 26.8857 27.4255 26.8853 27.4249C26.4238 26.8947 25.9052 26.3292 25.3268 25.7389C25.2934 25.7048 25.2613 25.6713 25.2276 25.637C24.6194 25.0205 23.9458 24.3784 23.2063 23.7231C22.948 23.4942 22.6813 23.2639 22.4066 23.0324C22.1984 22.8568 21.9863 22.6809 21.7684 22.5043C21.3681 22.18 20.9524 21.8544 20.5195 21.529C20.307 21.3691 20.0904 21.2097 19.8699 21.0502C19.8474 21.0339 19.8239 21.0177 19.8014 21.0015C19.7809 20.9867 19.7597 20.972 19.739 20.9572C19.7356 20.9547 19.7318 20.9522 19.7284 20.9497C19.6721 20.9092 19.6146 20.8689 19.5577 20.8286C19.4926 20.7822 19.428 20.736 19.3622 20.6896C19.3199 20.66 19.2792 20.6302 19.2366 20.6006C19.2093 20.5815 19.1809 20.5626 19.1534 20.5437C18.9981 20.4359 18.8404 20.3285 18.6814 20.2213C18.5176 20.1109 18.3506 20.001 18.183 19.8911C18.1275 19.8547 18.0725 19.8181 18.0165 19.7817C17.8988 19.7054 17.7798 19.6294 17.6601 19.5534C17.3664 19.3668 17.0663 19.1816 16.7609 18.9975C16.6412 18.9254 16.5237 18.8528 16.4022 18.7811C16.3882 18.7729 16.3745 18.7652 16.3606 18.7572C16.228 18.6791 16.096 18.6023 15.9653 18.5276C15.8894 18.4842 15.8145 18.4425 15.739 18.4002C15.6729 18.3631 15.6063 18.3251 15.5405 18.2887C15.4791 18.2548 15.4185 18.222 15.3576 18.1886C15.3198 18.1681 15.2823 18.1478 15.2449 18.1274C15.2404 18.1251 15.236 18.1226 15.2315 18.1203C15.1978 18.1019 15.1635 18.0832 15.13 18.0652C15.1089 18.0539 15.0877 18.0422 15.0668 18.0309C15.0495 18.0218 15.0326 18.0129 15.0155 18.0038C14.9784 17.9842 14.942 17.9655 14.905 17.946C14.8736 17.9296 14.8424 17.9132 14.811 17.8968C14.8012 17.8918 14.7912 17.8864 14.7814 17.8812C14.7655 17.873 14.7495 17.8645 14.7336 17.8563C14.6501 17.8129 14.5671 17.7705 14.4845 17.7285C14.3115 17.6406 14.1406 17.5558 13.9711 17.4738C13.9504 17.4636 13.9297 17.4536 13.909 17.4436C13.4411 17.2178 12.9863 17.0126 12.5469 16.8285C12.332 16.7384 12.1211 16.654 11.9129 16.5732C11.8455 16.547 11.7784 16.5209 11.7117 16.4958C11.6706 16.4801 11.63 16.4653 11.5891 16.4499C11.2289 16.3158 10.8794 16.1954 10.5408 16.0874C10.5339 16.0851 10.5271 16.083 10.5203 16.0808C10.4318 16.0528 10.3437 16.0252 10.2566 15.9988C10.178 15.9749 10.0996 15.9513 10.0222 15.9287C9.7339 15.8448 9.4549 15.7708 9.1836 15.7046C8.8359 15.6195 8.5019 15.5481 8.1822 15.4891C8.164 15.4857 8.1456 15.4821 8.1276 15.4789C8.0948 15.4728 8.0629 15.4675 8.0304 15.4618C7.9571 15.4488 7.8843 15.4363 7.8129 15.4247C7.8122 15.4245 7.8115 15.4245 7.8108 15.4243C7.4707 15.3688 7.1527 15.328 6.8567 15.2989C6.7588 15.2893 6.6631 15.2807 6.57 15.2734C6.5402 15.2711 6.5108 15.2689 6.4813 15.2668C6.43 15.2632 6.3784 15.2597 6.3284 15.2566C6.3263 15.2566 6.3243 15.2565 6.3222 15.2565C6.099 15.2434 5.8894 15.2379 5.6875 15.2365C5.6687 15.2363 5.652 15.2368 5.6334 15.2368C5.6166 15.2366 5.5997 15.2365 5.5833 15.2365C5.5214 15.2365 5.463 15.2379 5.4034 15.2388C5.3628 15.2395 5.3192 15.2388 5.2795 15.2399C5.2309 15.2413 5.1822 15.2424 5.1351 15.2443C5.1128 15.2452 5.0921 15.2466 5.0702 15.2477C5.0358 15.2493 5.0019 15.2511 4.9683 15.2529C4.9662 15.2531 4.9642 15.2531 4.9621 15.2532C4.9491 15.254 4.9355 15.2545 4.9227 15.2552C4.8515 15.2597 4.783 15.2647 4.7154 15.2702C4.6939 15.272 4.6724 15.2736 4.6511 15.2755C4.5866 15.2811 4.5238 15.2871 4.4627 15.2936C4.4251 15.2977 4.3885 15.3018 4.3523 15.3062C4.3437 15.3071 4.3348 15.308 4.3264 15.3091C4.2913 15.3134 4.256 15.3176 4.2221 15.3223C4.2217 15.3223 4.2214 15.3223 4.2212 15.3223C4.1605 15.3305 4.1022 15.339 4.0456 15.3478C4.0292 15.3503 4.0119 15.3526 3.9959 15.3553C3.7647 15.3924 3.5695 15.4336 3.4107 15.4732C3.1854 15.5292 3.0338 15.5806 2.9562 15.6095C2.919 15.6232 2.8973 15.6323 2.8944 15.6336C2.8768 15.6416 2.8586 15.6461 2.8406 15.6512C2.7963 15.6637 2.7515 15.6684 2.7075 15.6655C2.6962 15.665 2.6853 15.6625 2.6743 15.6609C2.6625 15.6591 2.6507 15.6586 2.6393 15.6557C2.6263 15.6527 2.6133 15.6493 2.6008 15.645C2.6002 15.6448 2.5999 15.6445 2.5995 15.6445C2.5765 15.6364 2.5544 15.6265 2.5332 15.6143C2.5207 15.6072 2.5087 15.5992 2.497 15.5906C2.4777 15.5769 2.4598 15.5615 2.4433 15.5444C2.4342 15.5351 2.4256 15.5253 2.4176 15.515C2.4013 15.4944 2.3872 15.4723 2.3751 15.4482C2.3717 15.4418 2.3673 15.4361 2.3642 15.4293C2.2748 15.2272 2.3649 14.9912 2.5667 14.9009L2.5985 14.8873L2.5986 14.8872C2.6088 14.8829 2.6215 14.8779 2.6354 14.8724C2.6407 14.8702 2.6463 14.8681 2.6522 14.8658C2.6584 14.8634 2.6664 14.8604 2.6732 14.8579C2.6845 14.8536 2.695 14.8495 2.7078 14.8449C2.7141 14.8426 2.721 14.8401 2.7278 14.8376C2.7512 14.8292 2.7761 14.8204 2.8043 14.8108C2.8097 14.809 2.8159 14.8071 2.8215 14.8051C2.8495 14.7958 2.8798 14.786 2.9123 14.7758C2.918 14.7742 2.9232 14.7725 2.9289 14.7707C2.9371 14.7682 2.9467 14.7655 2.9551 14.763C2.9836 14.7544 3.0129 14.7457 3.0443 14.7366C3.0534 14.7341 3.0623 14.7316 3.0716 14.7289C3.1131 14.7173 3.1572 14.7056 3.2036 14.6936C3.2139 14.6909 3.2245 14.6884 3.2352 14.6857C3.2837 14.6736 3.3344 14.6613 3.3879 14.6492C3.3973 14.647 3.4071 14.6449 3.4168 14.6428C3.473 14.6303 3.5313 14.6178 3.593 14.6055C3.5975 14.6046 3.6021 14.6037 3.6066 14.6028C3.6674 14.5908 3.7315 14.5792 3.7975 14.5678C3.8093 14.5659 3.8203 14.5637 3.8321 14.5618C3.8981 14.5507 3.9671 14.54 4.0383 14.5296C4.0538 14.5275 4.0694 14.5252 4.0852 14.523C4.129 14.5168 4.1753 14.5115 4.221 14.5057C4.2499 14.502 4.2776 14.4981 4.3074 14.4947C4.3236 14.4927 4.3402 14.4909 4.3566 14.4892C4.4362 14.4804 4.5177 14.472 4.6024 14.4647C4.6146 14.4638 4.627 14.4629 4.639 14.4619C4.7211 14.4551 4.8053 14.449 4.892 14.4438C4.8943 14.4438 4.8964 14.4437 4.8988 14.4435H4.8986C4.9064 14.4429 4.9137 14.4424 4.9218 14.4419C4.9243 14.4417 4.9269 14.4417 4.9294 14.4415C4.966 14.4396 5.0049 14.4385 5.0422 14.4367C5.0511 14.4363 5.0602 14.436 5.0691 14.4356C5.0896 14.4347 5.1102 14.4338 5.131 14.433C5.1573 14.4319 5.1826 14.4305 5.2093 14.4296C5.2299 14.429 5.25 14.4283 5.2707 14.4276L5.2855 14.4274C5.3749 14.4253 5.4662 14.4239 5.5601 14.4237C5.5717 14.4235 5.5826 14.4231 5.5943 14.4231C5.6147 14.4231 5.6359 14.4235 5.6564 14.4237C5.6889 14.4239 5.7215 14.4242 5.7545 14.4246C5.7852 14.4249 5.8155 14.4253 5.8466 14.4258L5.8462 14.426C5.8559 14.4264 5.8653 14.4264 5.875 14.4265C5.9081 14.4272 5.9417 14.4283 5.9752 14.4292C6.0166 14.4305 6.058 14.4317 6.1001 14.4333C6.134 14.4347 6.1684 14.4363 6.2029 14.438C6.2462 14.4399 6.2894 14.4419 6.3334 14.4444C6.3664 14.4462 6.4003 14.4485 6.4341 14.4506C6.4601 14.4522 6.4862 14.454 6.5124 14.4558L6.5127 14.4556C6.5329 14.457 6.5529 14.4583 6.5732 14.4597C6.6009 14.4617 6.6292 14.4644 6.6572 14.4665C6.7555 14.4742 6.8554 14.4833 6.9571 14.4933C6.9693 14.4945 6.9814 14.4956 6.9937 14.4968C7.0155 14.4991 7.0369 14.5009 7.0588 14.5032C7.1066 14.5084 7.1555 14.5143 7.204 14.5198C7.2426 14.5243 7.2809 14.5286 7.32 14.5334C7.3689 14.5395 7.4183 14.5461 7.4679 14.5527C7.4941 14.5561 7.5205 14.5596 7.5471 14.5634C7.5607 14.5652 7.574 14.5669 7.5876 14.5687C7.6192 14.5732 7.6506 14.5776 7.6823 14.5823C7.7012 14.5851 7.7205 14.5882 7.7396 14.591C7.749 14.5924 7.7585 14.5939 7.768 14.5953C7.7995 14.6001 7.8311 14.6049 7.863 14.6099C7.9142 14.618 7.9658 14.6265 8.0177 14.6351C8.0206 14.6356 8.0236 14.6362 8.0265 14.6367C8.0661 14.6433 8.106 14.6501 8.146 14.657C8.1983 14.6661 8.2505 14.6756 8.3033 14.6852C8.3476 14.6934 8.3922 14.702 8.4368 14.7105C8.4898 14.7207 8.5428 14.7309 8.5963 14.7418C8.6418 14.7509 8.6878 14.7607 8.7336 14.7703C8.7882 14.7817 8.8426 14.793 8.8978 14.8051C8.9436 14.8151 8.9902 14.8258 9.0364 14.8363C9.0926 14.8492 9.1484 14.8615 9.2051 14.875C9.253 14.8863 9.3018 14.8986 9.35 14.9104C9.4542 14.9359 9.5596 14.9624 9.6661 14.9903C9.7195 15.0044 9.7725 15.0178 9.8263 15.0324C9.8815 15.0474 9.9375 15.0632 9.9931 15.0788C10.0474 15.0939 10.1013 15.1087 10.156 15.1244C10.1632 15.1266 10.1707 15.1289 10.178 15.131C10.2272 15.1453 10.277 15.1601 10.3268 15.1749C10.3821 15.1912 10.4372 15.2076 10.493 15.2247C10.5501 15.242 10.6079 15.2602 10.6655 15.2784C10.723 15.2964 10.7806 15.3146 10.8388 15.3333C10.883 15.3476 10.9276 15.3624 10.9722 15.3772C10.9856 15.3815 10.9988 15.3858 11.012 15.3903C11.0714 15.4099 11.1312 15.43 11.1911 15.4505C11.2097 15.4568 11.2282 15.4632 11.2468 15.4696C11.2865 15.4832 11.3261 15.4968 11.3661 15.5108C11.3945 15.5207 11.4232 15.531 11.4516 15.541C11.4582 15.5433 11.4646 15.5456 11.4712 15.548C11.4983 15.5576 11.5254 15.5672 11.5529 15.577C11.605 15.5958 11.6567 15.6141 11.7092 15.6334C11.7151 15.6356 11.7209 15.6379 11.7268 15.6398C11.7921 15.6639 11.8581 15.6887 11.9243 15.7137C11.9812 15.7351 12.038 15.7563 12.0954 15.7783C12.1664 15.8057 12.2383 15.8343 12.3102 15.8625C12.3478 15.8775 12.385 15.8916 12.4228 15.9067C12.4386 15.9131 12.4547 15.9196 12.4706 15.926C12.5737 15.9674 12.6777 16.0104 12.7822 16.0539C12.7881 16.0564 12.7938 16.0587 12.7997 16.0612C12.8422 16.0789 12.8848 16.0971 12.9275 16.1151C13.0292 16.1581 13.131 16.2016 13.2343 16.2469C13.2529 16.255 13.2714 16.2632 13.2902 16.2714C13.324 16.2864 13.3588 16.3024 13.3931 16.3176C13.4723 16.3527 13.5513 16.3879 13.6314 16.4244C13.6892 16.4507 13.7476 16.4781 13.8059 16.5051C13.8824 16.5406 13.9592 16.5761 14.0366 16.6128C14.0967 16.6414 14.1574 16.6706 14.218 16.6997C14.2949 16.7368 14.372 16.7741 14.4494 16.8123C14.5106 16.8422 14.5721 16.8728 14.6337 16.9036C14.6833 16.9284 14.7334 16.9539 14.7835 16.9793C14.7944 16.9848 14.8053 16.9901 14.8162 16.9957C14.8344 17.0049 14.8526 17.014 14.871 17.0233C14.9327 17.0547 14.9946 17.0865 15.0567 17.1186C15.1373 17.1603 15.2185 17.203 15.2998 17.246C15.3027 17.2474 15.3054 17.2488 15.3082 17.2502C15.3575 17.2763 15.4063 17.3018 15.4559 17.3284C15.4657 17.3336 15.4759 17.3393 15.4859 17.3446C15.5332 17.37 15.581 17.3964 15.6286 17.422C15.6631 17.4406 15.6973 17.4592 15.7319 17.4781C15.7353 17.4798 15.7387 17.4818 15.7423 17.4836C15.7742 17.5011 15.8058 17.5178 15.8379 17.5355C15.8529 17.5439 15.8677 17.5517 15.8827 17.56C15.8953 17.5669 15.9084 17.5744 15.921 17.5815C15.9612 17.6037 16.0018 17.627 16.0422 17.6495C16.0835 17.6727 16.1251 17.6961 16.1669 17.7194C16.1806 17.7273 16.1943 17.735 16.2081 17.7426C16.2596 17.7719 16.3106 17.8003 16.3624 17.8299C16.5024 17.91 16.6435 17.9919 16.7855 18.0755C16.7939 18.0803 16.802 18.0848 16.8102 18.0898C17.0653 18.2402 17.3161 18.3917 17.5632 18.5436C17.7334 18.6484 17.8997 18.7538 18.0663 18.8592C18.1931 18.9397 18.3191 19.0202 18.444 19.1008C18.5621 19.1771 18.6794 19.2537 18.7956 19.3304C18.8382 19.3584 18.8821 19.3862 18.9244 19.4144C19.104 19.5338 19.2796 19.6535 19.4546 19.7732C19.5832 19.8613 19.7102 19.9496 19.8365 20.0379C19.8628 20.0561 19.8885 20.0745 19.9145 20.0929C19.9172 20.0947 19.9199 20.0964 19.9225 20.0984C19.9502 20.1179 19.9778 20.1373 20.0055 20.1567C20.0496 20.188 20.0947 20.2192 20.1386 20.2504C20.2014 20.2952 20.2645 20.3398 20.3268 20.3846C20.3894 20.4297 20.4501 20.4748 20.5121 20.52C20.5327 20.5348 20.553 20.5498 20.5735 20.5647C20.593 20.5788 20.6124 20.5931 20.6318 20.6074C20.8509 20.7678 21.0661 20.9283 21.2769 21.0887C21.7053 21.4145 22.1177 21.7399 22.5138 22.0638C22.7293 22.2403 22.9414 22.4165 23.1476 22.5919C23.4631 22.8604 23.7663 23.1271 24.0602 23.392C24.7686 24.0305 25.4164 24.6565 26.0028 25.2592C26.0459 25.3036 26.087 25.3469 26.1294 25.391C26.3185 25.5872 26.5017 25.781 26.6784 25.9717C27 26.3192 27.3006 26.6567 27.5814 26.9829C27.5964 27.0002 27.611 27.0173 27.6258 27.0346C27.8019 27.2399 27.9718 27.4415 28.132 27.6367C28.1766 27.6909 28.2188 27.7436 28.262 27.7969C28.2915 27.7316 28.3352 27.6681 28.3935 27.608C28.4552 27.5446 28.5318 27.4851 28.6251 27.4315C28.7155 27.3798 28.8218 27.3345 28.9415 27.2961C29.1667 27.2237 29.4432 27.1786 29.7695 27.173C29.7834 27.1729 29.7966 27.1721 29.8105 27.172C29.7199 27.0589 29.6259 26.9433 29.5285 26.8252C29.3692 26.6318 29.2025 26.433 29.0256 26.2273C29.0097 26.209 28.9929 26.1901 28.977 26.1717C28.6973 25.8481 28.3962 25.5111 28.072 25.1623C27.8574 24.9313 27.6317 24.6951 27.3973 24.4551C27.0785 24.1288 26.7429 23.7957 26.3869 23.4561C26.0934 23.1762 25.7864 22.8921 25.467 22.6056C24.6749 21.8945 23.8015 21.1668 22.8458 20.4386C22.7807 20.389 22.7173 20.3396 22.6515 20.29C22.4392 20.1302 22.2234 19.9703 22.0029 19.8106C21.9888 19.8005 21.9745 19.7903 21.9604 19.7801C21.9399 19.7653 21.9185 19.7505 21.898 19.7357C21.8319 19.6883 21.7642 19.6408 21.6973 19.5934C21.6387 19.5516 21.5804 19.5099 21.5212 19.4683C21.4725 19.434 21.4252 19.3996 21.3761 19.3654C21.3471 19.345 21.3174 19.3249 21.2884 19.3047C21.1333 19.1969 20.9754 19.0897 20.8167 18.9825C20.6194 18.8494 20.4185 18.7167 20.2153 18.5845C20.1942 18.5708 20.1735 18.5569 20.1525 18.5431C20.0362 18.4678 19.9186 18.3927 19.8005 18.3176C19.5136 18.1355 19.2207 17.9544 18.9224 17.7746C18.8004 17.7009 18.6802 17.6269 18.5562 17.5537C18.3729 17.4456 18.1922 17.3418 18.0128 17.2401C18.0101 17.2387 18.0076 17.2372 18.0051 17.2358C17.8328 17.138 17.6618 17.0431 17.4927 16.9509C17.4503 16.9279 17.4074 16.904 17.3653 16.8813C17.3115 16.8522 17.2587 16.8248 17.2053 16.7964C17.1934 16.79 17.1814 16.7837 17.1696 16.7775C17.1352 16.7591 17.1006 16.7406 17.0663 16.7225C17.0469 16.7124 17.0273 16.7017 17.008 16.6917C16.9864 16.6803 16.9648 16.6692 16.9434 16.658C16.8339 16.6011 16.7249 16.545 16.617 16.4903C16.4575 16.4096 16.3001 16.3322 16.1438 16.2566C16.1401 16.2546 16.1363 16.253 16.1324 16.251C16.0498 16.2111 15.9672 16.1711 15.8853 16.1324C15.7408 16.0641 15.5978 15.9981 15.4559 15.9338C15.0861 15.7665 14.7263 15.6134 14.3757 15.473C14.3659 15.4689 14.3561 15.4652 14.3463 15.4613C14.2448 15.4208 14.144 15.3812 14.0441 15.3428C13.9138 15.2927 13.785 15.2447 13.6577 15.1981C13.3146 15.0729 12.9817 14.9605 12.659 14.8595C12.652 14.8574 12.6452 14.8552 12.6385 14.8531C12.6258 14.8492 12.6131 14.8451 12.6005 14.8411C12.5628 14.8295 12.525 14.8178 12.4875 14.8063C12.368 14.7701 12.2503 14.7359 12.1338 14.7027C11.8465 14.6212 11.5679 14.5487 11.298 14.485C10.43 14.2799 9.6526 14.1623 8.9672 14.1042C8.8956 14.0981 8.8253 14.0926 8.7559 14.0878C8.7288 14.086 8.7013 14.0838 8.6748 14.082C8.6393 14.0799 8.605 14.0781 8.57 14.0762C8.5201 14.0735 8.4703 14.0708 8.4214 14.0687C8.1922 14.0587 7.9751 14.0555 7.7701 14.0574C7.5569 14.0596 7.3566 14.0672 7.17 14.0794C6.8262 14.1018 6.5277 14.1388 6.2746 14.1809C6.2125 14.1912 6.1531 14.2017 6.0965 14.2125C5.9292 14.2062 5.762 14.2019 5.5949 14.2019H5.5947ZM27.4517 37.719C27.4301 37.7035 27.4087 37.6878 27.3882 37.6715C27.1704 37.5019 27.0061 37.299 26.8948 37.0534C26.8757 37.0113 26.8569 36.9688 26.8411 36.924C26.8284 36.8887 26.818 36.8516 26.8075 36.8145C26.7695 36.6803 26.7447 36.5342 26.7335 36.3751C26.729 36.3125 26.7235 36.2509 26.7233 36.184C26.7228 35.9398 26.7504 35.6822 26.805 35.4153C26.8022 35.4119 26.7993 35.4089 26.7965 35.4055C26.5788 35.8195 26.333 36.222 26.0657 36.6084C26.0311 36.6582 25.9976 36.7089 25.9624 36.7581C26.0393 36.8339 26.118 36.9049 26.1967 36.9766C26.2277 37.005 26.2579 37.0353 26.2891 37.063C26.3323 37.1012 26.3765 37.136 26.42 37.1729H26.4202C26.7178 37.4253 27.0239 37.6517 27.3374 37.8433C27.3747 37.8051 27.4148 37.7579 27.4517 37.719ZM47.9265 32.2995L38.6502 37.6551L37.9622 38.0524C38.1413 37.5936 38.3732 37.106 38.6513 36.6074C38.7002 36.5196 38.7503 36.4316 38.8021 36.3433C38.8026 36.3424 38.8031 36.3415 38.8037 36.3407C39.0322 35.9508 39.2864 35.558 39.5642 35.1702L46.2314 31.3208L46.8954 30.9375C47.1548 31.0019 47.3988 31.0919 47.6182 31.2118C47.6184 31.212 47.6188 31.2122 47.6191 31.2124C47.7763 31.2984 47.9192 31.4004 48.0512 31.5123C48.2146 31.6511 48.3581 31.8077 48.4758 31.9823L47.9265 32.2995ZM34.6685 36.1792V36.2787L34.6682 36.5349L34.668 36.7374L34.6662 38.4479L34.2695 38.9778C33.2442 39.574 32.6064 39.9449 32.6064 39.9449C32.4592 40.03 32.3081 40.1117 32.156 40.1927L32.1586 37.3318L32.1588 37.2107L32.1592 36.7695C32.4396 36.7644 32.7224 36.7397 33.0007 36.6953C33.578 36.6029 34.1337 36.4259 34.6056 36.1708C34.6066 36.1701 34.6077 36.1696 34.609 36.169C34.6286 36.1583 34.6491 36.1483 34.6685 36.1373V36.1792ZM28.6288 41.5911C27.9782 41.7761 27.3054 41.933 26.6148 42.0607V39.2225C26.7485 39.1822 26.8812 39.141 27.0129 39.0998C27.3547 38.9929 27.7083 38.8825 28.0503 38.8045C28.2406 38.7612 28.4333 38.7137 28.6288 38.6636V41.5911ZM26.1688 42.1387C25.5109 42.2471 24.8389 42.3303 24.1549 42.3856V39.727C24.25 39.7097 24.3445 39.6921 24.4387 39.6746C24.7263 39.6209 25.0233 39.5654 25.3081 39.5199C25.5981 39.4851 25.8854 39.4234 26.1688 39.349V42.1387ZM23.7089 42.4173C23.166 42.4516 22.6173 42.4708 22.0635 42.4708C21.9402 42.4708 21.8179 42.4673 21.6949 42.4657V39.9779L22.0164 39.9772C22.5855 39.9743 23.1519 39.8997 23.7089 39.8057V42.4173ZM21.2489 42.4573C20.5678 42.4362 19.8954 42.3884 19.235 42.3151V39.9233C19.9195 39.9581 20.5942 39.9727 21.2489 39.9764V42.4573ZM18.789 42.2601C18.1018 42.1711 17.4294 42.0543 16.775 41.9103V39.6946C17.4465 39.7898 18.121 39.8555 18.789 39.8983V42.2601ZM16.329 41.8093C15.6331 41.6407 14.9607 41.4402 14.3152 41.2108V39.1829C14.9739 39.3717 15.6488 39.5155 16.329 39.6264V41.8093ZM13.8692 41.0465C13.1583 40.773 12.4857 40.4608 11.8551 40.1142V38.237C12.1124 38.3535 12.3767 38.4711 12.6509 38.5906C13.0475 38.7633 13.4552 38.9128 13.8692 39.0459V41.0465ZM11.4091 39.8635L9.3951 38.693V37.0291C10.0165 37.3631 10.6805 37.6936 11.4091 38.0322V39.8635ZM8.9491 38.434L7.0881 37.3524C7.0356 37.3219 6.9869 37.2899 6.9354 37.2591V35.5628C7.176 35.7157 7.4169 35.8677 7.6563 36.0181L7.6791 36.0324C8.0891 36.2896 8.5097 36.5389 8.9491 36.7843V38.434ZM6.4894 36.9815C5.698 36.4648 5.0229 35.9027 4.4754 35.3041V33.8546C5.1207 34.3634 5.8006 34.8316 6.4894 35.2776V36.9815ZM4.0294 34.7672C3.4594 34.022 3.0751 33.2306 2.891 32.4112C2.9715 32.4993 3.0527 32.5866 3.136 32.6711C3.42 32.9589 3.7204 33.2295 4.0294 33.4909V34.7672ZM26.6901 21.1726C26.6446 20.7596 26.8106 20.3599 27.1604 20.0263L25.6727 19.1631L25.1315 18.8489L25.0242 18.9112L25.0137 18.9172L24.4771 19.2291L23.6165 19.7293C23.4063 19.5684 23.1917 19.4075 22.9733 19.2465L23.7653 18.7865L24.4789 18.3717L25.0137 18.0609L25.0242 18.0548L25.8122 17.5969L25.9419 17.5214L25.9549 17.5139L26.3943 17.2585L28.1123 16.2601L31.7512 14.1454L33.8101 15.3332L34.6054 15.792L35.9145 16.5474L37.0768 15.8764L37.5832 15.584L37.7891 15.4652L37.8548 15.4272L33.8795 13.1169L33.4563 12.8709L33.4431 12.8632L32.9898 12.5999C32.5845 12.388 32.208 12.3785 31.8425 12.5708L31.3639 12.8491L31.3624 12.8498L31.1348 12.9822L30.9883 13.0675L24.78 16.6776L24.3998 16.8988L23.45 17.4511L22.5539 17.9722L22.5031 18.0017L21.8007 18.4102C21.5904 18.2655 21.3772 18.121 21.1603 17.9769C21.1551 17.9735 21.1496 17.9699 21.1442 17.9665L21.4828 17.7696L21.6539 17.67L23.6877 16.4876L23.815 16.4136L29.2992 13.2245L30.4228 12.5712L30.9635 12.2567L30.9667 12.2549L31.4971 11.9464C32.1288 11.6141 32.8035 11.6513 33.462 12.0469L33.5584 12.1048L33.8404 12.2688L33.8545 12.277L35.7306 13.3672L38.5673 15.0158L39.4111 14.5286L40.3458 13.9889C40.4498 13.929 40.5465 13.8664 40.6399 13.8027C40.7686 13.6646 40.7456 13.4311 40.5693 13.3285L38.3393 12.0326L36.1737 10.7742L36.0005 10.6734L35.2296 10.2254L35.2127 10.2156L33.5798 9.2667C33.1935 9.2007 32.7994 9.1659 32.4034 9.1659C31.4688 9.1659 30.5448 9.3555 29.7142 9.712C29.6493 9.7398 29.5838 9.7664 29.5201 9.7962L29.3683 9.8848L27.9518 10.7106L27.5782 10.9283L27.1008 11.2068L24.2448 12.8718L18.397 16.281C18.3465 16.2526 18.2964 16.2243 18.2452 16.1959C18.2036 16.1729 18.161 16.1497 18.1191 16.1267C18.1189 16.1267 18.1187 16.1265 18.1185 16.1265C18.0739 16.1019 18.0297 16.0774 17.9846 16.053C17.8793 15.9957 17.7732 15.9387 17.6652 15.8814L24.0611 12.1535L25.4536 11.342V11.3418L27.1893 10.3303L28.9699 9.2924L29.0794 9.2285L29.2016 9.1573C30.1159 8.7258 31.1444 8.4872 32.1882 8.458L29.5449 6.922C29.5281 6.9121 29.5099 6.9068 29.4923 6.8993C29.384 6.8536 29.2636 6.8508 29.1522 6.8911C29.1067 6.9109 29.0604 6.9296 29.0159 6.9503C28.9847 6.965 28.9533 6.9794 28.9226 6.9946C28.8124 7.0484 28.7043 7.1041 28.6012 7.1637L28.3594 7.3032L27.9505 7.5394L27.8356 7.6058L27.1893 7.9788L16.1958 14.3259L15.7367 14.591L15.4559 14.7532L15.3946 14.7885C15.3805 14.7824 15.3664 14.7766 15.3523 14.7705C15.2916 14.7444 15.2304 14.7188 15.1692 14.6931C15.0476 14.6419 14.9252 14.5912 14.8019 14.5414C14.4865 14.4139 14.1659 14.2911 13.8407 14.1745L15.4559 13.238L15.4652 13.2327L15.5981 13.1556L27.0029 6.5443L27.0883 6.4947L27.1893 6.4362L27.2066 6.4262L27.7823 6.0924L28.1539 5.8771C28.3359 5.772 28.5253 5.6728 28.7214 5.5793C28.9654 5.463 29.2207 5.3569 29.4842 5.2593C29.5627 5.2862 29.6423 5.3142 29.7222 5.3426C29.7798 5.3631 29.838 5.3842 29.8963 5.4054C30.0853 5.4739 30.2776 5.5458 30.4742 5.622C30.9537 5.808 31.4568 6.0184 31.9824 6.2546C33.0617 6.7398 34.2372 7.336 35.5086 8.0701C35.7534 8.2114 35.9924 8.3533 36.2295 8.4951C36.2672 8.5177 36.3066 8.54 36.3442 8.5627C36.787 8.8292 37.2131 9.0967 37.6296 9.3643C39.0349 10.267 40.2947 11.1713 41.4128 12.0495C41.7569 12.3198 42.0862 12.5872 42.4041 12.8518C42.6983 13.0964 42.9813 13.3379 43.2535 13.5763C43.2919 13.61 43.3293 13.6432 43.3673 13.6767C43.6633 13.9377 43.9471 14.1946 44.2172 14.4462C44.2663 14.4916 44.3137 14.5368 44.3619 14.5819C44.3532 14.5883 44.345 14.5948 44.336 14.6012C44.2914 14.6331 44.244 14.664 44.1976 14.6954C44.1428 14.7323 44.0884 14.7692 44.0313 14.8053C44.0083 14.8197 43.9841 14.8338 43.9607 14.8481C43.9011 14.8848 43.8422 14.922 43.78 14.9578L41.9749 16.0043L41.6003 16.2216L41.2576 16.4202L41.1206 16.4995L41.0401 16.5463L40.4094 16.9118L40.1592 17.0569L38.6618 17.925L38.4826 18.0288L37.7336 18.463L36.0067 19.4642L35.231 19.9138L32.6735 21.3964L30.097 22.89L28.3236 23.9181C27.7468 23.3196 27.1124 22.698 26.4136 22.0624C26.4036 22.0531 26.3933 22.044 26.3833 22.0349C26.485 21.9846 26.5858 21.9332 26.6821 21.8778L26.9056 21.7486C26.7874 21.5672 26.7121 21.3736 26.6901 21.1726ZM22.3712 4.6211C22.5429 4.563 22.902 4.4586 23.4427 4.3815C23.186 4.5111 22.9329 4.6438 22.6886 4.7838L22.3718 4.9653L22.3712 4.6211ZM21.3155 5.9811L22.0157 5.5802L22.1889 5.481L22.3723 5.3761L22.8661 5.0934C23.1157 4.9503 23.3746 4.8149 23.6375 4.683C23.8662 4.5683 24.0998 4.4581 24.3379 4.3521C24.3813 4.3328 24.4241 4.3129 24.4678 4.2939C24.4842 4.2934 24.4997 4.2923 24.5163 4.292C24.5741 4.2902 24.6346 4.2897 24.6947 4.2888C24.7466 4.2881 24.7971 4.2866 24.8507 4.2866C25.0506 4.2866 25.2676 4.2945 25.4922 4.3063C25.5421 4.3089 25.5924 4.3118 25.6436 4.315C25.8033 4.3361 25.9708 4.361 26.1457 4.3901C26.2143 4.4015 26.2841 4.4135 26.3549 4.4263C26.4061 4.4354 26.4577 4.4449 26.5101 4.4549C25.88 4.6509 25.274 4.8741 24.6958 5.1232C24.6359 5.149 24.5768 5.1758 24.5176 5.2022C24.4951 5.2122 24.4724 5.222 24.45 5.232C24.4132 5.2486 24.3756 5.2644 24.3392 5.2812C24.3022 5.2982 24.2646 5.3146 24.2279 5.3317C24.1706 5.3585 24.1155 5.387 24.0589 5.4145C23.9173 5.4828 23.7765 5.5517 23.6388 5.6234C23.5537 5.6676 23.4709 5.7137 23.3872 5.7591C23.3869 5.7593 23.3865 5.7595 23.386 5.7599C23.3148 5.7986 23.2418 5.8359 23.1717 5.8755L22.3736 6.3274L22.1902 6.4312L22.0169 6.5291L21.6923 6.7129L21.4272 6.8631L21.3167 6.9257L19.1875 8.1308L18.8791 8.3055L16.6396 9.5733L16.3312 9.7478L14.0915 11.0157L13.7831 11.1904L11.5434 12.4581L11.235 12.6327L10.2067 13.2148C10.1733 13.2095 10.1398 13.205 10.1062 13.1999C10.067 13.1938 10.0276 13.1881 9.9883 13.1822C9.8065 13.1556 9.6246 13.131 9.4424 13.1107C9.2758 13.0923 9.1092 13.0775 8.9424 13.0646L21.3155 5.9811ZM54.0947 23.2506L54.0945 23.3754L54.0943 23.648L54.0938 24.1283L54.0888 29.4598L54.0883 30.0381H51.5793L51.5842 25.0317L51.5846 24.7133L51.5848 24.5361L51.585 24.2289L51.5851 24.1649L51.586 23.2506H54.0947ZM7.895 13.0225C6.644 13.0225 5.7695 13.2079 5.2771 13.3519L5.2759 12.4367C5.7879 12.3332 6.1492 12.0836 6.1492 11.7919C6.1492 11.7752 6.1465 11.7589 6.1442 11.7425C6.1465 11.7282 6.1492 11.7141 6.1492 11.6997C6.1492 11.3661 5.5226 11.0958 4.7498 11.0958C3.977 11.0958 3.3504 11.3661 3.3504 11.6997C3.3504 11.7141 3.3531 11.7282 3.3554 11.7425C3.3531 11.7589 3.3504 11.7752 3.3504 11.7919C3.3504 12.0827 3.7092 12.3316 4.2183 12.4356L4.2207 14.2826C3.6696 14.3498 3.2469 14.4474 2.9549 14.5323L2.9538 13.7868C3.4658 13.6833 3.8271 13.4337 3.8271 13.1421C3.8271 13.1253 3.8244 13.109 3.8221 13.0926C3.8244 13.0784 3.8271 13.0643 3.8271 13.0498C3.8271 12.7162 3.2006 12.4459 2.4277 12.4459C1.6549 12.4459 1.0284 12.7162 1.0284 13.0498C1.0284 13.0643 1.031 13.0784 1.0334 13.0926C1.031 13.109 1.0284 13.1253 1.0284 13.1421C1.0284 13.4328 1.3871 13.6817 1.8963 13.7857L1.9007 17.274C0.684903 18.5998 0.0341032 20.0943 0.0249032 21.6553C0.0231032 21.9796 0.0500032 22.3008 0.102803 22.6183C-0.0560968 23.8557 -0.0318968 25.1189 0.183103 26.3139C0.477103 28.6088 1.3896 30.7018 2.7672 32.2719C2.6356 32.7188 2.5635 33.1744 2.5608 33.6363C2.5603 33.7283 2.5662 33.8199 2.5708 33.9114C2.5676 33.9801 2.5614 34.0482 2.5608 34.1171C2.5476 36.3132 4.0219 38.3792 6.7129 39.9443C7.1762 40.3133 7.695 40.6635 8.2687 40.9908L12.7369 43.5403C15.4916 45.1122 19.1618 45.978 23.07 45.978C26.9797 45.978 30.6585 45.1124 33.4319 43.5402L51.1195 33.5334C53.8922 31.9615 55.4263 29.8719 55.4391 27.6483C55.4396 27.5566 55.4338 27.4653 55.4291 27.3739C55.4323 27.3052 55.4388 27.2367 55.4391 27.1675C55.4434 26.4188 55.2707 25.6857 54.94 24.9819L54.9426 22.8508L54.0958 22.3445H53.2159C53.245 22.2767 53.2728 22.2071 53.301 22.1375C53.3156 22.1009 53.3306 22.0651 53.3451 22.028C53.397 21.8951 53.4466 21.7581 53.4949 21.6189C53.5022 21.598 53.5094 21.5768 53.5165 21.5556C53.6408 21.1906 53.7518 20.8054 53.8449 20.3978C53.8537 20.3596 53.8621 20.3209 53.8704 20.2823C53.9495 19.9202 54.0149 19.5414 54.0635 19.145C54.0679 19.1086 54.0715 19.0714 54.0756 19.0346C54.1152 18.6878 54.1432 18.3289 54.1557 17.9555C54.1564 17.9339 54.1573 17.9121 54.1578 17.8903C54.1598 17.8247 54.16 17.7576 54.1611 17.6911C54.1616 17.6531 54.1625 17.6153 54.1628 17.5769C54.163 17.5409 54.1644 17.5059 54.1644 17.4697C54.1644 17.264 54.1584 17.0554 54.1475 16.8449C54.1464 16.8233 54.1459 16.8019 54.1446 16.7802C54.1332 16.58 54.1154 16.3777 54.0933 16.1743C54.0876 16.1222 54.0818 16.07 54.0754 16.0177C54.0742 16.0164 54.0729 16.015 54.0717 16.0138C54.0663 15.974 54.0615 15.9345 54.0558 15.8948C54.057 15.8962 54.0583 15.8974 54.0595 15.8989C54.0549 15.865 54.0506 15.8313 54.0458 15.7972C54.0446 15.7975 54.0431 15.7979 54.0417 15.7983C54.0381 15.7754 54.0339 15.7524 54.0303 15.7296C54.0324 15.7292 54.0346 15.7287 54.0367 15.7281C53.9905 15.4179 53.9297 15.1046 53.8553 14.7901C53.851 14.791 53.8465 14.7919 53.8421 14.7928C53.8374 14.7735 53.8335 14.7544 53.8287 14.7352C53.8289 14.7337 53.8291 14.7323 53.8292 14.7309C53.8332 14.7302 53.8371 14.7295 53.841 14.7287C53.8385 14.7182 53.8362 14.7077 53.8337 14.6972C53.8615 14.4742 53.881 14.2503 53.8822 14.0242C53.8972 11.504 52.2413 9.1555 49.2194 7.4117L44.6677 4.7849C41.7335 3.0917 37.8355 2.1589 33.6918 2.1585C32.7154 2.1585 31.7531 2.2122 30.8124 2.3135C29.6129 2.0261 28.3833 1.8517 27.1625 1.8517H27.1622C26.0279 1.8518 25.2033 2.0044 24.6919 2.1401L24.6908 1.3409C25.2028 1.2374 25.5641 0.9878 25.5641 0.6962C25.5641 0.6794 25.5614 0.663 25.5591 0.6466C25.5614 0.6325 25.5641 0.6182 25.5641 0.6037C25.5641 0.2703 24.9375 0 24.1647 0C23.3919 0 22.7653 0.2703 22.7653 0.6037C22.7653 0.6182 22.768 0.6325 22.7703 0.6466C22.768 0.663 22.7653 0.6794 22.7653 0.6962C22.7653 0.9869 23.1241 1.2358 23.6332 1.3398L23.6356 3.0949C23.1016 3.152 22.6795 3.2389 22.3696 3.3208L22.3688 2.6908C22.8808 2.5874 23.242 2.338 23.242 2.0461C23.242 2.0295 23.2393 2.0131 23.237 1.9967C23.2393 1.9826 23.242 1.9683 23.242 1.9539C23.242 1.6204 22.6155 1.3502 21.8426 1.3502C21.0698 1.3502 20.4433 1.6204 20.4433 1.9539C20.4433 1.9683 20.446 1.9826 20.4483 1.9967C20.446 2.0131 20.4433 2.0295 20.4433 2.0461C20.4433 2.3369 20.802 2.5859 21.3112 2.69L21.3149 5.5702L8.2875 13.0284C8.1565 13.0245 8.0259 13.0225 7.8952 13.0225H7.895Z" fill="#4BBDCF"/>
</svg>
