<svg width="54" height="45" viewBox="0 0 54 45" fill="none" xmlns="http://www.w3.org/2000/svg">
<path d="M43.7675 27.4605V27.4674L43.7741 27.4637L43.7675 27.4605Z" fill="#4BBDCF"/>
<path d="M17.3653 8.0291L17.3664 8.02879L17.0239 7.61039L17.3653 8.0291Z" fill="#4BBDCF"/>
<path d="M25.8985 18.9603L26.0403 18.8913L26.0413 18.8908C26.1355 18.845 26.2303 18.7988 26.3249 18.7534L26.3353 18.7486L26.815 18.5176C28.1617 17.8726 30.0099 17.7701 31.5242 18.2566C33.8507 19.0044 35.9062 19.9894 37.6087 21.1586C37.9181 20.9481 38.2137 20.7388 38.4911 20.5328C39.5399 19.7539 40.3338 19.0231 40.6959 18.4562C40.6435 18.4196 40.5917 18.3839 40.5405 18.3493C40.3966 18.2516 40.2499 18.1559 40.102 18.0612C39.9607 17.9708 39.8171 17.8823 39.6724 17.7947C37.2089 16.3017 34.2678 15.2227 31.0973 14.6582C29.4084 14.363 27.0135 14.6229 25.6746 15.045C25.3166 15.1579 24.8902 15.3174 24.4205 15.509C24.3049 15.5561 24.1861 15.6055 24.0655 15.6564C24.0535 15.6616 24.0414 15.6667 24.0294 15.6717C21.5527 16.7196 18.138 18.4906 16.9132 19.1992C15.4894 20.0231 14.1778 20.8698 12.9802 21.7309C13.189 22.1023 13.7058 22.4811 14.3521 22.8652C14.7711 23.1143 15.2422 23.3655 15.7165 23.6185C16.0148 23.7776 16.3148 23.9376 16.6034 24.0979C17.5683 23.4906 18.5545 22.8951 19.5575 22.3161C21.5764 21.1502 23.708 20.0229 25.8985 18.9603Z" fill="#4BBDCF"/>
<path d="M20.6545 16.4436C21.27 16.1426 21.8977 15.844 22.5048 15.5664C22.7337 15.4619 22.9592 15.3605 23.1801 15.2631C23.2761 15.2209 23.371 15.1793 23.465 15.1386C23.4653 15.1384 23.4657 15.1384 23.4661 15.1383C23.5187 15.1154 23.572 15.0922 23.6241 15.0699L23.6479 15.0598L23.6603 15.0546C23.78 15.0034 23.8973 14.9543 24.0127 14.9065C24.3438 14.7693 24.656 14.6466 24.9416 14.5424C25.1259 14.4751 25.3 14.415 25.46 14.3645C25.948 14.2107 26.5697 14.0757 27.2501 13.9778C27.7889 13.9002 28.3639 13.8456 28.9415 13.8254C29.2141 13.8158 29.4867 13.814 29.7561 13.8206L29.783 13.8215C30.2829 13.8347 30.7706 13.8766 31.2213 13.9555C31.2951 13.9685 31.3683 13.9828 31.4416 13.9971L31.5465 14.0174C32.4999 14.1983 33.4326 14.4245 34.3381 14.6939C36.543 15.35 38.5867 16.2599 40.3739 17.3882C40.5154 17.4776 40.6544 17.5691 40.7926 17.6612C40.8132 17.6749 40.8342 17.6885 40.855 17.702C40.884 17.7208 40.9129 17.7395 40.9412 17.7588L40.9698 17.7784C40.9776 17.7051 40.9767 17.6316 40.9703 17.5582C40.9569 17.4098 40.9146 17.2619 40.8411 17.1176C40.8201 17.076 40.7985 17.0346 40.7725 16.9938C40.6005 16.625 40.1131 16.2499 39.4901 15.8695C39.0456 15.5982 38.5317 15.324 38.0136 15.0476C37.5846 14.8187 37.1525 14.5882 36.7542 14.3563C36.6862 14.3168 36.6166 14.2782 36.5472 14.2398L36.5189 14.2241C35.9343 13.9003 35.3081 13.6115 34.6723 13.3641L34.6682 13.3624L34.6617 13.3598C34.562 13.3211 34.4623 13.284 34.3624 13.2472C34.0969 13.1498 33.8313 13.0595 33.5672 12.9773C33.498 12.9557 33.4292 12.935 33.3603 12.9145C32.543 12.6712 31.7497 12.5024 31.0548 12.4237C30.9228 12.4091 30.365 12.4034 29.8567 12.4184C29.8216 12.4193 29.7864 12.4203 29.7518 12.4216C29.5156 12.4301 29.298 12.4433 29.1495 12.4628C29.1036 12.4688 29.0554 12.4756 29.0072 12.4824L28.9372 12.4922C28.1053 12.6071 27.1222 12.7752 26.0562 13.016C25.7924 13.0756 25.5225 13.1411 25.2501 13.2096C24.9898 13.2752 24.7263 13.3453 24.4601 13.4197L24.3648 13.4459C23.9975 13.5498 23.6264 13.6631 23.2532 13.7846C23.1312 13.8243 23.0092 13.8643 22.887 13.906L22.8493 13.9192C22.271 14.1174 21.6908 14.3367 21.1187 14.5822C21.0594 14.6076 21.0005 14.6343 20.9417 14.6609L20.8924 14.6832L20.8409 14.7063C20.6903 14.7734 20.5401 14.8412 20.391 14.9119L20.3876 14.9135L20.3822 14.9161C20.3181 14.9464 20.2538 14.978 20.1901 15.0094L20.141 15.0335C20.1099 15.0487 20.0786 15.0637 20.0473 15.0787C19.9955 15.1035 19.9436 15.1284 19.8923 15.1545C19.3704 15.4198 18.8569 15.6991 18.3594 15.9864C18.0409 16.1701 17.7291 16.3573 17.426 16.546C17.3769 16.5767 17.3286 16.6072 17.28 16.6379C17.1698 16.7073 17.0608 16.7769 16.9532 16.8464C16.6512 17.0421 16.359 17.2386 16.0796 17.4343C15.9404 17.5317 15.8054 17.6289 15.6727 17.7256C15.41 17.9174 15.1601 18.1075 14.9257 18.2945C14.2658 18.8206 13.7265 19.321 13.3535 19.7597C13.3187 19.8007 13.2857 19.8411 13.2537 19.8808C13.086 20.0906 12.9579 20.2851 12.8784 20.459C12.8398 20.5434 12.8115 20.6242 12.7886 20.7029C12.772 20.7605 12.7572 20.8174 12.7494 20.8718L12.7485 20.8813L12.7469 20.8974C12.7428 20.9387 12.7415 20.9805 12.7421 21.0221C13.9102 20.1918 15.1829 19.376 16.5557 18.5817C17.3218 18.1384 18.9372 17.2835 20.6545 16.4436Z" fill="#4BBDCF"/>
<path d="M28.6333 19.5992L34.5501 23.0127C35.3431 22.5825 36.1141 22.1282 36.8306 21.6709L36.9665 21.584C35.3695 20.5251 33.4588 19.6281 31.3059 18.936C29.9768 18.5091 28.2959 18.5994 27.124 19.1607L26.647 19.3904L26.6341 19.3965C26.5763 19.4242 26.5189 19.4523 26.4615 19.4803C26.4189 19.501 26.3764 19.5218 26.3337 19.5424C24.1146 20.6153 21.9563 21.7548 19.9143 22.934C19.0322 23.4433 18.1633 23.9657 17.3104 24.4971C17.3402 24.5135 17.3701 24.5297 17.3998 24.5458L17.4242 24.559L17.4672 24.5822L17.481 24.5897L17.5639 24.6327C17.6114 24.658 17.6604 24.6832 17.709 24.7078C17.7288 24.718 17.7485 24.7281 17.7681 24.738L17.8137 24.7613C17.8318 24.7703 17.8498 24.7791 17.8678 24.7879L17.8956 24.8015L17.921 24.814L17.9546 24.8306C18.0135 24.8591 18.0725 24.8875 18.1314 24.9153C18.1453 24.922 18.1594 24.9286 18.1735 24.9352L18.1954 24.9455L18.2156 24.9551C18.3753 25.0295 18.5351 25.1003 18.6962 25.169L18.723 25.1806C18.7596 25.196 18.7962 25.2108 18.8327 25.2255C18.8561 25.2349 18.8795 25.2443 18.9028 25.2539L28.6333 19.5992Z" fill="#4BBDCF"/>
<path d="M30.0849 21.2999L28.6327 20.4561L22.7874 23.8528L24.7705 25.0037C25.1541 24.8297 25.6054 24.7136 26.0821 24.6667C27.018 24.5741 27.9831 24.7527 28.6623 25.1448C28.7351 25.1867 28.8027 25.2313 28.8677 25.277C29.5267 25.0981 30.2012 24.8911 30.8775 24.6542L27.5844 22.7528L30.0849 21.2999Z" fill="#4BBDCF"/>
<path d="M33.7658 23.4259L30.8608 21.7486L29.1356 22.751L31.8245 24.3035C32.4451 24.058 33.0602 23.785 33.6577 23.4816L33.691 23.4645L33.7658 23.4259Z" fill="#4BBDCF"/>
<path d="M25.6228 25.4962L26.2745 25.8724C26.7419 25.7837 27.2332 25.6804 27.7415 25.5614C27.3592 25.4268 26.9082 25.3597 26.45 25.3741C26.1642 25.3836 25.8808 25.4257 25.6228 25.4962Z" fill="#4BBDCF"/>
<path d="M19.7982 25.5899C21.1744 26.0589 22.5197 26.3032 23.5879 26.27C23.6413 25.9861 23.7945 25.7162 24.0425 25.48L22.0136 24.3026L19.7982 25.5899Z" fill="#4BBDCF"/>
<path d="M24.5606 26.1543C24.7267 26.1313 24.8994 26.1058 25.0776 26.0783L24.7804 25.9067C24.6866 25.9852 24.6147 26.0687 24.5606 26.1543Z" fill="#4BBDCF"/>
<path d="M21.5829 13.1996L21.5916 13.1971C21.5942 13.1963 21.5979 13.1951 21.5999 13.1939C21.6022 13.1924 21.6023 13.1905 21.6016 13.1885L21.602 13.1873C21.6 13.1848 21.5941 13.1821 21.5843 13.1792L21.5829 13.1785L21.5609 13.1726L21.5829 13.1996Z" fill="#4BBDCF"/>
<path fill-rule="evenodd" clip-rule="evenodd" d="M53.8304 14.3884C53.9012 14.4554 53.9414 14.5486 53.9417 14.6462L53.9828 27.9792C53.9835 28.1698 53.8342 28.3271 53.644 28.3367L53.2246 28.358L53.2283 29.4951C53.2285 29.5506 53.2156 29.6055 53.1909 29.6553C53.1118 29.8141 53.028 29.973 52.9414 30.1279C52.9393 30.1316 52.9359 30.1343 52.9336 30.1382C52.9216 30.158 52.9077 30.1762 52.8926 30.1928C52.8881 30.1976 52.8845 30.203 52.8799 30.2076C52.8794 30.2081 52.879 30.2087 52.8785 30.2093C52.8778 30.2102 52.8771 30.2112 52.8762 30.2119C52.8572 30.2301 52.8362 30.2451 52.8142 30.2585C52.8084 30.262 52.8021 30.2645 52.7961 30.2677C52.7768 30.2779 52.7568 30.2863 52.7359 30.2929C52.7284 30.2952 52.7209 30.2977 52.7133 30.2995C52.6865 30.3059 52.659 30.3104 52.6309 30.3104L52.6298 30.3106C52.6255 30.3106 52.6214 30.3105 52.6172 30.3103C52.6154 30.3102 52.6137 30.3101 52.6119 30.31L51.5974 30.2586L51.6027 31.9563C51.6031 32.04 51.5738 32.1211 51.5205 32.1855C51.4061 32.3231 51.283 32.4658 51.1444 32.6219C51.1411 32.6257 51.1374 32.6288 51.1337 32.6319C51.1312 32.6339 51.1288 32.636 51.1264 32.6383C51.124 32.6407 51.1218 32.6432 51.1196 32.6458C51.1166 32.6492 51.1137 32.6527 51.1102 32.6556C51.1077 32.6578 51.105 32.6596 51.1022 32.6615C51.1004 32.6627 51.0986 32.664 51.0968 32.6653C51.0897 32.6708 51.0823 32.676 51.0748 32.681C51.0625 32.6892 51.0497 32.6965 51.0365 32.7031C51.0339 32.7043 51.0314 32.7055 51.0289 32.7068C51.0236 32.7094 51.0184 32.7119 51.0129 32.7141C50.9985 32.7202 50.9833 32.7247 50.9682 32.7288C50.9626 32.7302 50.957 32.732 50.9514 32.7334C50.9498 32.7338 50.9482 32.7342 50.9466 32.7345C50.9243 32.7389 50.9005 32.7416 50.8775 32.7418L50.8754 32.7416C50.8579 32.7414 50.8404 32.7402 50.8229 32.7375L49.706 32.5639C49.585 32.5452 49.4874 32.4663 49.4384 32.3613L49.4443 34.1617C49.4446 34.2646 49.4004 34.3629 49.323 34.4309C49.1462 34.5863 48.9981 34.7133 48.8572 34.8307C48.8563 34.8314 48.8554 34.8319 48.8544 34.8325C48.853 34.8334 48.8516 34.8342 48.8504 34.8353C48.8496 34.8359 48.849 34.8366 48.8484 34.8373C48.8476 34.838 48.8469 34.8388 48.8461 34.8394C48.844 34.8412 48.8411 34.8417 48.8388 34.8434C48.8097 34.8646 48.7783 34.8819 48.7449 34.8935C48.7426 34.8942 48.7401 34.8946 48.7378 34.8953C48.7027 34.9067 48.6659 34.9133 48.6288 34.9133C48.6001 34.9133 48.5714 34.9088 48.5432 34.9019C48.5407 34.9012 48.538 34.9015 48.5355 34.9008L47.4979 34.6198C47.3429 34.5777 47.235 34.4373 47.2344 34.2766L47.2326 33.7061C47.1319 33.7972 47.0295 33.8878 46.9254 33.9783L46.9324 36.1248C46.9328 36.2418 46.8757 36.3515 46.7799 36.4186C46.6059 36.5399 46.43 36.6605 46.2506 36.781L46.2497 36.7817C46.236 36.7908 46.221 36.7969 46.2061 36.803C46.2012 36.805 46.1963 36.807 46.1915 36.8091C46.1788 36.8147 46.1672 36.8229 46.1542 36.8268C46.1207 36.837 46.0857 36.8421 46.0509 36.8421C46.0247 36.8421 45.9987 36.8384 45.9731 36.8327C45.9651 36.8309 45.9574 36.8281 45.9494 36.8257C45.9454 36.8244 45.9413 36.8234 45.9372 36.8223C45.9302 36.8204 45.9233 36.8186 45.9166 36.8159L44.9894 36.439C44.8553 36.3844 44.7675 36.2543 44.767 36.1096L44.7656 35.6611C44.5649 35.8024 44.3604 35.9428 44.1522 36.0823L44.1579 37.8936C44.1585 38.0215 44.0903 38.1398 43.9795 38.2037C43.9542 38.2185 43.5251 38.4656 43.4029 38.535C43.3851 38.545 43.3658 38.5509 43.3467 38.5578C43.3424 38.5593 43.3383 38.5612 43.3342 38.5631C43.3288 38.5656 43.3235 38.5681 43.3178 38.5696C43.288 38.5774 43.2574 38.5814 43.2269 38.5814C43.2254 38.5814 43.224 38.5811 43.2225 38.5808C43.2211 38.5806 43.2197 38.5803 43.2183 38.5803C43.1903 38.5796 43.1621 38.5767 43.1348 38.5694C43.1225 38.566 43.1111 38.5592 43.0991 38.5546C43.0946 38.5528 43.09 38.5511 43.0854 38.5495C43.0726 38.5447 43.0598 38.54 43.0476 38.533L42.2505 38.0699C42.1409 38.0062 42.0733 37.8894 42.073 37.7625L42.0717 37.3775C42.0585 37.385 42.046 37.3929 42.0328 37.4004C42.0246 37.4052 42.0163 37.4099 42.0081 37.4147C42.006 37.4159 42.0039 37.4172 42.0018 37.4184L41.9693 37.4369C41.9644 37.4399 41.9595 37.4427 41.9546 37.4456C41.9487 37.4489 41.9428 37.4523 41.937 37.4557L41.906 37.4737C41.6502 37.6214 41.3913 37.7659 41.131 37.909L41.1362 39.5085C41.1367 39.6455 41.0586 39.7708 40.9353 39.8305C40.7255 39.9326 40.5152 40.0332 40.3038 40.1318C40.2897 40.1384 40.275 40.1427 40.2604 40.147C40.2575 40.1478 40.2547 40.1487 40.2519 40.1495C40.2478 40.1506 40.2438 40.1522 40.2398 40.1537C40.2365 40.155 40.2331 40.1562 40.2297 40.157C40.2137 40.1604 40.1974 40.1615 40.1812 40.1626C40.179 40.1628 40.1768 40.1629 40.1746 40.1631C40.1713 40.1632 40.168 40.1637 40.1646 40.1642C40.1607 40.1648 40.1568 40.1654 40.1528 40.1654C40.1229 40.1654 40.0933 40.1604 40.0642 40.1529C40.0586 40.1513 40.0529 40.15 40.0472 40.1484C40.0194 40.1397 39.9925 40.1277 39.967 40.1122C39.966 40.1116 39.965 40.1112 39.9639 40.1108C39.9631 40.1106 39.9624 40.1103 39.9616 40.1099C39.958 40.1076 39.9555 40.1042 39.9521 40.1019C39.9429 40.0956 39.9332 40.0901 39.9247 40.0828L39.2785 39.5454C39.1973 39.478 39.1502 39.3779 39.1499 39.2723L39.1488 38.9305C38.7007 39.1464 38.2475 39.3551 37.7894 39.556L37.794 40.9924C37.7944 41.14 37.7041 41.2725 37.5668 41.3261C37.3425 41.4135 37.1104 41.5016 36.8769 41.5879C36.8367 41.6027 36.795 41.6101 36.7533 41.6101C36.6815 41.6101 36.6104 41.5885 36.5499 41.5464C36.4541 41.4798 36.3968 41.3708 36.3965 41.2543L36.395 40.8049L36.2746 40.6542L36.273 40.1841C35.543 40.4701 34.8024 40.7355 34.0532 40.9794L34.0573 42.2516C34.0578 42.4111 33.9522 42.5515 33.7989 42.5955C33.5554 42.6657 33.3035 42.7354 33.0504 42.8034C33.0201 42.8114 32.989 42.8155 32.9582 42.8155C32.8805 42.8155 32.8044 42.7902 32.7414 42.7422C32.6534 42.6749 32.6017 42.5706 32.6014 42.4598L32.598 41.422C32.4734 41.4571 32.3484 41.4911 32.2234 41.5251L32.1752 41.5382L32.1848 41.5367C32.1676 41.5414 32.1504 41.5458 32.1331 41.5502C32.1215 41.5531 32.11 41.5561 32.0984 41.5592C31.8613 41.6231 31.6237 41.6853 31.3852 41.7446L31.3656 41.7496C31.0935 41.8168 30.8209 41.8816 30.5471 41.9428C30.328 41.9917 30.1084 42.0386 29.8882 42.0835L29.892 43.2392C29.8925 43.4126 29.7682 43.5614 29.5973 43.5917C29.3231 43.6403 29.0546 43.6852 28.7988 43.7254C28.7804 43.7282 28.7618 43.7296 28.7435 43.7296C28.6592 43.7296 28.577 43.6997 28.5121 43.6444C28.4327 43.5767 28.387 43.4781 28.3867 43.3739L28.3834 42.3568C27.3785 42.5181 26.3661 42.6375 25.3494 42.7088L25.353 43.7949C25.3535 43.9849 25.2052 44.1421 25.0156 44.1524C24.738 44.1676 24.4608 44.1796 24.1916 44.1881C24.1878 44.1883 24.1841 44.1883 24.1803 44.1883C24.0879 44.1883 23.9991 44.1524 23.9325 44.0882C23.8631 44.0213 23.8239 43.9291 23.8235 43.8326L23.8201 42.7791C22.8575 42.8014 21.8931 42.7807 20.9295 42.7131L20.9308 43.112C20.931 43.1646 20.9195 43.2167 20.8971 43.2644L20.5986 43.902C20.5975 43.9042 20.5961 43.9061 20.5947 43.9079C20.5935 43.9096 20.5923 43.9112 20.5913 43.913C20.5797 43.9357 20.5658 43.9566 20.5501 43.9758C20.5442 43.983 20.5381 43.9899 20.5317 43.9967C20.529 43.9995 20.5266 44.0025 20.5242 44.0055C20.5221 44.008 20.52 44.0104 20.5176 44.0126C20.5023 44.0268 20.4857 44.0392 20.4684 44.0502C20.4678 44.0506 20.4673 44.0511 20.4668 44.0515C20.4662 44.052 20.4657 44.0525 20.465 44.0529C20.4402 44.0684 20.4129 44.0798 20.3851 44.0888C20.3779 44.0911 20.371 44.0932 20.3636 44.095C20.3355 44.1021 20.3064 44.1073 20.2768 44.1075H20.275C20.2655 44.1075 20.2561 44.1071 20.2464 44.1064C20.0725 44.0921 19.8991 44.0772 19.7257 44.0602C19.6721 44.0551 19.6183 44.0496 19.5644 44.044C19.5435 44.0419 19.5225 44.0397 19.5016 44.0376L19.4379 44.031C19.2565 44.0122 19.1184 43.8595 19.1177 43.6772L19.1141 42.5294C18.2403 42.4136 17.369 42.2578 16.5025 42.0598L16.5038 42.4908C16.5041 42.5731 16.476 42.6528 16.4242 42.7167L15.9424 43.3111C15.9371 43.3177 15.9311 43.3232 15.925 43.3287C15.9217 43.3317 15.9183 43.3348 15.9151 43.338C15.906 43.3471 15.8979 43.3573 15.8878 43.3653C15.8876 43.3655 15.888 43.3652 15.8878 43.3653C15.8876 43.3654 15.8867 43.3659 15.8865 43.3661C15.8582 43.3885 15.8264 43.4046 15.7936 43.4174C15.7855 43.4205 15.7775 43.4231 15.7695 43.4256C15.7356 43.436 15.7008 43.4433 15.6651 43.4433C15.6412 43.4433 15.6171 43.4401 15.5932 43.4351C15.5906 43.4346 15.5877 43.4347 15.585 43.4342C15.3403 43.3777 15.0871 43.3161 14.8329 43.2512C14.6752 43.211 14.5648 43.0692 14.5642 42.9067L14.5599 41.5414C14.3823 41.487 14.2047 41.4308 14.0276 41.3726C13.6735 41.2563 13.3204 41.1327 12.9686 41.001C12.7927 40.9352 12.6172 40.8674 12.4422 40.7975L12.4436 41.2517C12.4438 41.3473 12.4058 41.4392 12.3378 41.5064L11.6861 42.1515C11.6754 42.162 11.6637 42.1708 11.6519 42.1797L11.6483 42.1824C11.6442 42.1854 11.6411 42.1893 11.637 42.1922C11.6361 42.1927 11.6352 42.1929 11.6345 42.1934C11.608 42.2113 11.5792 42.2245 11.5496 42.2345C11.5425 42.2368 11.5355 42.2389 11.5284 42.2407C11.4979 42.2491 11.4667 42.2548 11.4351 42.2548C11.4344 42.2548 11.4337 42.2547 11.433 42.2546C11.4324 42.2545 11.4317 42.2544 11.431 42.2544C11.4099 42.2541 11.3889 42.2523 11.368 42.2482C11.3635 42.2474 11.359 42.246 11.3545 42.2445C11.3514 42.2436 11.3483 42.2426 11.3452 42.2418C11.3414 42.2408 11.3377 42.2398 11.3339 42.2389C11.3244 42.2365 11.3149 42.2341 11.3056 42.2305C11.0897 42.1463 10.8646 42.0553 10.636 41.9599C10.5037 41.9046 10.4173 41.7753 10.4168 41.6318L10.4112 39.8889C10.2323 39.7998 10.0537 39.7097 9.8757 39.6163C9.77278 39.5624 9.67207 39.5075 9.57132 39.4525C9.54893 39.4403 9.52653 39.4281 9.5041 39.4159C9.3742 39.3453 9.2459 39.2741 9.1191 39.2022L9.10064 39.1917C9.02487 39.1488 8.94904 39.1059 8.8745 39.0625L8.8765 39.6782C8.8768 39.8061 8.8089 39.9244 8.6981 39.9884L7.8958 40.4515C7.8805 40.4604 7.86407 40.4662 7.8477 40.472C7.8446 40.4731 7.84149 40.4742 7.8384 40.4753C7.83446 40.4767 7.83062 40.4785 7.82678 40.4803C7.82116 40.4829 7.81554 40.4855 7.8096 40.487C7.7795 40.4952 7.7484 40.4993 7.7174 40.4993C7.7167 40.4993 7.71603 40.4992 7.71535 40.499C7.71467 40.4989 7.714 40.4988 7.7133 40.4988C7.6844 40.4985 7.6553 40.4951 7.6271 40.4876C7.621 40.486 7.61514 40.4833 7.60929 40.4807C7.60528 40.4789 7.60127 40.4771 7.5972 40.4756C7.579 40.469 7.5604 40.4635 7.5431 40.4539C7.54218 40.4533 7.54047 40.4521 7.5395 40.4517C7.3685 40.3561 6.9658 40.1226 6.9658 40.1226C6.8559 40.0589 6.7883 39.9418 6.7879 39.815L6.7812 37.7102C6.444 37.4603 6.1248 37.2048 5.8208 36.9453L5.8232 37.6599C5.8235 37.8057 5.7354 37.937 5.6002 37.9918L4.6719 38.3675C4.6637 38.3708 4.65521 38.373 4.64677 38.3752C4.64296 38.3762 4.63916 38.3772 4.6354 38.3783C4.63243 38.3791 4.62949 38.3801 4.62656 38.381C4.6217 38.3826 4.61687 38.3841 4.612 38.3851C4.5879 38.3903 4.5637 38.3933 4.5394 38.3933L4.5381 38.3935C4.5007 38.3935 4.4639 38.3867 4.4282 38.3751C4.4214 38.3729 4.41499 38.3695 4.40857 38.3661C4.40422 38.3638 4.39988 38.3615 4.3954 38.3596C4.39054 38.3575 4.38565 38.3554 4.38077 38.3534C4.36645 38.3475 4.3522 38.3416 4.339 38.3329C4.33653 38.3311 4.33434 38.329 4.33216 38.3269C4.33029 38.3252 4.32843 38.3234 4.3264 38.3218C4.32491 38.3207 4.32328 38.32 4.32165 38.3192C4.3199 38.3184 4.31816 38.3176 4.3166 38.3164C4.1515 38.1859 3.9917 38.0553 3.8417 37.9284C3.7617 37.861 3.7155 37.7618 3.7152 37.6571L3.7057 34.6878C3.6185 34.5659 3.5348 34.4436 3.4549 34.3203L3.4585 35.4867C3.459 35.6483 3.3507 35.7901 3.1946 35.8322L2.1688 36.1087C2.1667 36.1093 2.16464 36.1095 2.16256 36.1097C2.16108 36.1098 2.1596 36.1099 2.1581 36.1102C2.131 36.1168 2.1033 36.1211 2.0759 36.1211C2.0414 36.1211 2.0077 36.1143 1.9747 36.1046C1.9665 36.1021 1.9583 36.0993 1.9503 36.0961C1.9199 36.0847 1.8907 36.07 1.8641 36.0504C1.86337 36.0498 1.86253 36.0495 1.86166 36.0491C1.86087 36.0488 1.86006 36.0484 1.8593 36.0479L1.8582 36.0468C1.84614 36.0376 1.83576 36.0266 1.82544 36.0156C1.82369 36.0138 1.82195 36.0119 1.8202 36.0101C1.81757 36.0074 1.81476 36.0048 1.81194 36.0023C1.80769 35.9985 1.80343 35.9946 1.7997 35.9901C1.7995 35.9897 1.7992 35.9896 1.7988 35.9892C1.6787 35.8413 1.5644 35.6932 1.4586 35.5489C1.4138 35.4881 1.3897 35.4146 1.3896 35.3391L1.3831 33.3073L0.519 33.4413C0.516862 33.4358 0.514701 33.4304 0.512539 33.4251C0.510151 33.4192 0.507762 33.4132 0.5054 33.4071C0.4522 33.2658 0.4037 33.1241 0.3588 32.9821L0.3516 30.6948V30.6791L0.0437 30.6947L0.0412 30.6948L0 17.3618C0.005 17.2046 0.0157 17.0476 0.0325 16.8908L0.5404 16.8649C0.573884 16.7681 0.607796 16.6724 0.641424 16.5776L0.6496 16.5545L0.6438 14.6636C0.712 14.5104 0.7864 14.3577 0.8654 14.2051L1.8429 14.2546C1.9733 14.074 2.1112 13.8931 2.2543 13.7122L2.2494 12.1682C2.367 12.0256 2.4885 11.8829 2.6137 11.74L3.728 11.9132L3.7286 12.0902C3.95 11.8692 4.1822 11.6489 4.4213 11.4291L4.4166 9.9266C4.5633 9.7944 4.7131 9.6627 4.8659 9.5312L5.8984 9.8104L5.8995 10.1651C6.232 9.9009 6.5767 9.6386 6.9333 9.3782L6.9287 7.9117C7.0975 7.7901 7.2687 7.6691 7.4427 7.5485L8.3687 7.9249L8.3702 8.3709C8.7755 8.1003 9.1912 7.8318 9.6245 7.5692L9.7183 7.5153L9.7139 6.0812L10.1119 5.8526L10.1345 5.8394L10.1433 5.8344L10.152 5.8294L10.1752 5.8161L10.2873 5.7508L11.0858 6.215L11.0874 6.7245C11.6518 6.4176 12.2315 6.1252 12.8116 5.8403L12.8073 4.4228C13.0145 4.3216 13.2232 4.2213 13.4319 4.1227L14.0784 4.6597L14.0802 5.2282C14.7892 4.9043 15.5065 4.5969 16.2312 4.3077L16.2269 2.9131C16.4529 2.8236 16.6795 2.7362 16.9071 2.6498L17.3849 3.2475L17.3869 3.8676C18.2694 3.5424 19.1591 3.2423 20.052 2.9727L20.0477 1.586C20.2934 1.512 20.5394 1.4406 20.7854 1.3714L21.0799 2.0156L21.0819 2.6752C21.6171 2.5273 22.1523 2.3876 22.6875 2.2607C23.2307 2.1325 23.7786 2.0183 24.3293 1.9168L24.325 0.541C24.588 0.493 24.8513 0.4484 25.1162 0.407L25.2127 1.0694L25.2149 1.7707C26.4021 1.585 27.6017 1.4617 28.8036 1.4042C28.8172 1.40363 28.8308 1.40308 28.8444 1.40254C28.8639 1.40176 28.8835 1.40098 28.9031 1.4001L28.9008 0.6842L29.0043 0.0232C29.2751 0.0122 29.5466 0.0045 29.8185 0L29.8228 1.3721C31.0585 1.3509 32.2995 1.4007 33.5319 1.5147L33.5297 0.8032L33.8268 0.1683C34.0924 0.1947 34.3568 0.2248 34.6214 0.2578L34.6257 1.6317C34.6324 1.6325 34.6391 1.6333 34.6458 1.63411C34.67 1.63699 34.6944 1.63989 34.7188 1.6431C35.8275 1.7857 36.9277 1.9872 38.0106 2.2384L38.0087 1.5632L38.4898 0.9697C38.7367 1.0301 38.9825 1.0935 39.2273 1.1593L39.2316 2.5439C39.5705 2.6363 39.9081 2.733 40.2426 2.8361C40.8745 3.0307 41.4971 3.2448 42.1092 3.4758V2.8693L42.7607 2.3328C42.9808 2.4206 43.2003 2.5105 43.4181 2.6031L43.4283 4.0105C44.0293 4.2693 44.6191 4.5435 45.1918 4.8365C45.3657 4.9257 45.5341 5.0179 45.7007 5.1105L45.697 4.6054L46.4998 4.1432L46.5776 4.1878C46.7406 4.2818 46.903 4.378 47.0642 4.4754L47.0749 5.911L47.0909 5.92083C47.2462 6.01605 47.4014 6.11125 47.5529 6.2085C47.9705 6.4772 48.3637 6.7498 48.7378 7.0253L48.7367 6.6586L49.6639 6.2835C49.8209 6.4107 49.9734 6.5393 50.1217 6.6679L50.1263 8.1497C50.4537 8.4443 50.7575 8.742 51.0374 9.0428L51.0372 9.0069L52.0625 8.7301C52.1692 8.8738 52.2716 9.0182 52.3679 9.1632L52.3729 10.7891C52.5186 11.0296 52.6505 11.2719 52.7677 11.5158L53.4367 11.4119C53.4386 11.4184 53.4405 11.4249 53.4425 11.4314C53.4457 11.442 53.4489 11.4526 53.4517 11.4631C53.4906 11.601 53.5252 11.7388 53.5553 11.8776L53.5625 14.1789L53.6595 14.1739L53.6599 14.2992C53.7232 14.3127 53.7824 14.3429 53.8304 14.3884ZM52.63 29.9538C52.7151 29.8014 52.7957 29.6487 52.8715 29.4962L52.8312 17.0369L52.831 17.0323L52.8305 16.8394C52.8168 16.8669 52.802 16.8944 52.7872 16.9219C52.7763 16.9421 52.7654 16.9623 52.755 16.9825C52.746 16.9999 52.7367 17.0173 52.7274 17.0347L52.7208 17.0471C52.7079 17.0718 52.6951 17.0964 52.6824 17.1211C52.652 17.1797 52.6217 17.2383 52.5889 17.297L52.5905 17.8095L52.5909 17.8848L52.5912 18.0532L52.593 18.5925L52.5934 18.6792L52.63 29.9538ZM51.4522 23.3426C51.3762 23.4436 51.2993 23.5447 51.219 23.6457L51.2154 22.5364V22.5232L51.2083 20.2872L51.2081 20.2654V20.236L51.2053 19.4052L51.2051 19.3017L51.2049 19.2888C51.2035 19.2908 51.2017 19.2926 51.2003 19.2945C51.1833 19.3149 51.1655 19.3352 51.1478 19.3555C51.1333 19.3721 51.1188 19.3887 51.1048 19.4052L51.0691 19.4465C51.0511 19.4677 51.0328 19.4889 51.0145 19.5099L51.0129 19.5118C50.9922 19.5358 50.9718 19.5598 50.9513 19.5838C50.9136 19.628 50.8759 19.6722 50.8367 19.7165L50.8379 20.1443L50.8385 20.2654L50.8401 20.7999L50.8404 20.8661L50.8777 32.385C50.9999 32.2473 51.1186 32.1101 51.2333 31.9724C51.2374 31.9674 51.2418 31.9625 51.2459 31.9576L51.2301 27.0425C51.2331 27.0377 51.2362 27.0329 51.2394 27.0281C51.2416 27.0246 51.2439 27.0211 51.2461 27.0177C51.3214 26.8974 51.3935 26.777 51.4629 26.6566L51.455 24.2319C51.3935 24.3406 51.3292 24.4492 51.2631 24.5577L51.2222 24.6242L51.2206 24.3698C51.2248 24.3646 51.2291 24.3594 51.2335 24.3542C51.2392 24.3474 51.245 24.3405 51.2504 24.3336C51.3117 24.256 51.3703 24.1782 51.4288 24.1006L51.4545 24.0664C51.4686 24.0476 51.483 24.0288 51.4973 24.01C51.5241 23.9748 51.551 23.9395 51.5767 23.9042C51.6304 23.8306 51.6814 23.757 51.7324 23.6834C51.7423 23.6691 51.7523 23.6547 51.7622 23.6404C51.7761 23.6203 51.7906 23.6001 51.805 23.58C51.8256 23.5511 51.8462 23.5223 51.8655 23.4935C51.9487 23.3701 52.0275 23.2468 52.104 23.1235C52.1476 23.0534 52.1886 22.9833 52.2295 22.9132C52.2364 22.9015 52.2432 22.8898 52.2501 22.8781C52.2624 22.8572 52.2749 22.8363 52.2874 22.8154C52.311 22.776 52.3346 22.7366 52.3568 22.6972L52.3549 22.0032L52.3547 21.973C52.3329 22.0119 52.3096 22.0508 52.2864 22.0896C52.2734 22.1113 52.2605 22.1329 52.2478 22.1545L52.2093 22.2199C52.1996 22.2362 52.19 22.2525 52.1804 22.2688C52.1546 22.3124 52.1289 22.356 52.1017 22.3996C52.1015 22.4001 52.1012 22.4007 52.1008 22.401C52.0656 22.4577 52.0286 22.5145 51.9916 22.5713C51.9817 22.5865 51.9718 22.6017 51.9619 22.6169C51.9477 22.6387 51.9338 22.6605 51.9199 22.6823C51.9015 22.7113 51.883 22.7403 51.8636 22.7694C51.7713 22.9064 51.6745 23.0434 51.5744 23.1805C51.5492 23.215 51.5229 23.2496 51.4966 23.2841C51.4817 23.3036 51.4669 23.3231 51.4522 23.3426ZM48.9774 34.2574L48.9847 34.2511C49.0184 34.2216 49.0539 34.1924 49.0875 34.1628L49.073 29.6788C49.1829 29.5695 49.2892 29.4598 49.3947 29.3499C49.4011 29.3432 49.4076 29.3365 49.414 29.3298C49.4189 29.3248 49.4238 29.3198 49.4286 29.3147C49.5385 29.1997 49.6455 29.0841 49.7504 28.9683L49.7426 26.5688C49.6377 26.6855 49.531 26.8021 49.4209 26.9183C49.4097 26.9301 49.3981 26.9417 49.387 26.9533C49.2814 27.064 49.1754 27.1748 49.0652 27.2849L49.063 26.6352C49.1717 26.5374 49.2801 26.4396 49.385 26.3417C49.3965 26.3308 49.4073 26.3201 49.4188 26.3094C49.5278 26.207 49.6359 26.1046 49.7408 26.002C49.8591 25.8862 49.9732 25.7701 50.0862 25.654C50.2276 25.5084 50.3648 25.3628 50.4977 25.2171C50.5143 25.1989 50.5313 25.1806 50.5483 25.1624C50.5703 25.1389 50.5923 25.1154 50.6133 25.0918L50.6114 24.3677C50.5912 24.3902 50.5703 24.4127 50.5493 24.4352C50.5312 24.4547 50.5131 24.4742 50.4954 24.4937L50.4904 24.4992C50.4044 24.5933 50.3183 24.6876 50.2287 24.7816C50.2005 24.8111 50.1714 24.8407 50.1424 24.8702C50.1244 24.8885 50.1065 24.9067 50.0887 24.925C50.0018 25.0146 49.9144 25.1041 49.8241 25.1933L49.7385 25.2783C49.7266 25.2899 49.7145 25.3015 49.7023 25.313C49.6833 25.3309 49.6642 25.3488 49.6455 25.3667C49.5699 25.4399 49.4942 25.513 49.4164 25.5862L49.3965 25.6046C49.3918 25.609 49.3874 25.6135 49.3827 25.6178C49.3219 25.6745 49.2598 25.7312 49.1977 25.7878C49.1522 25.8295 49.1083 25.8713 49.0621 25.9128V25.91C49.0618 25.9105 49.0612 25.9109 49.0607 25.9114L49.0527 23.4133C49.1558 23.3631 49.2637 23.3248 49.3752 23.3005C49.3818 23.299 49.3884 23.2979 49.395 23.2969C49.3997 23.2961 49.4044 23.2953 49.4091 23.2944C49.5121 23.2746 49.6163 23.2632 49.7197 23.2675L49.7319 23.2695L49.7311 23.07L49.4082 23.0145L49.3742 23.0087L49.0511 22.953L49.0509 22.8683L49.0498 22.5473V22.5459L49.0464 21.4828C49.0075 21.517 48.9676 21.5511 48.9277 21.5852C48.9041 21.6054 48.8806 21.6255 48.8572 21.6457C48.8342 21.6655 48.8114 21.6854 48.7885 21.7052C48.7346 21.752 48.6806 21.7988 48.6251 21.8455L48.5878 21.8758L48.6288 34.5565C48.7478 34.4573 48.8627 34.3573 48.9774 34.2574ZM46.4827 36.1897C46.5139 36.1685 46.545 36.1473 46.5756 36.126L46.5617 31.8337C46.6655 31.7557 46.7667 31.677 46.8679 31.5983C46.8845 31.5855 46.901 31.5726 46.9176 31.5597C46.9328 31.5479 46.948 31.5361 46.9631 31.5243C47.0511 31.4561 47.139 31.3878 47.2248 31.3191C47.3456 31.2224 47.4635 31.1253 47.5807 31.0281L47.573 28.64C47.4562 28.7374 47.3374 28.8343 47.2171 28.9308C47.1163 29.012 47.0132 29.0926 46.9099 29.1731C46.8898 29.1888 46.8698 29.2045 46.8497 29.2201C46.752 29.2965 46.6544 29.3728 46.554 29.4485L46.5513 28.6302L46.5968 28.5979C46.7011 28.524 46.8056 28.4499 46.9072 28.3758C46.9988 28.3089 47.088 28.242 47.1773 28.1749L47.2146 28.1469C47.3349 28.057 47.4535 27.9667 47.5705 27.8765C47.803 27.6968 48.0292 27.5166 48.2486 27.3359C48.2923 27.2999 48.3378 27.264 48.3812 27.228L48.379 26.5039C48.3543 26.5245 48.3289 26.5451 48.3035 26.5657C48.2844 26.5812 48.2652 26.5967 48.2463 26.6123L48.2445 26.6138C48.139 26.7006 48.0334 26.7875 47.9248 26.874C47.8875 26.9038 47.8494 26.9335 47.8113 26.9632C47.7873 26.9819 47.7633 27.0006 47.7395 27.0193C47.7195 27.035 47.6995 27.0506 47.6795 27.0663C47.6426 27.0953 47.6057 27.1243 47.5682 27.1532L47.5492 27.1679C47.518 27.1921 47.4867 27.2163 47.4551 27.2405C47.3899 27.2904 47.3231 27.3402 47.2564 27.39L47.2164 27.4199L47.2148 27.4212C47.2139 27.4219 47.2131 27.4225 47.2123 27.423C47.1319 27.4833 47.0516 27.5436 46.9697 27.6035C46.9479 27.6196 46.9269 27.6358 46.9049 27.6519C46.8637 27.682 46.8215 27.712 46.7793 27.742C46.7537 27.7602 46.728 27.7785 46.7026 27.7967C46.6817 27.8117 46.661 27.8267 46.6404 27.8417C46.6106 27.8634 46.5809 27.8851 46.5504 27.9066V27.9052L46.549 27.9063L46.5415 25.5732L46.5419 25.568C46.6534 25.4997 46.7729 25.4458 46.8976 25.4072C46.9975 25.3766 47.1006 25.3564 47.2055 25.3462C47.3231 25.335 47.4426 25.3368 47.5623 25.353V25.3357L47.5614 25.0656L47.2043 24.9677L47.0728 24.9318L46.6156 24.8064L46.5994 24.818C46.5793 24.8323 46.5593 24.8466 46.5392 24.8608L46.539 24.828L46.5346 23.4398C46.4863 23.4735 46.4371 23.507 46.388 23.5404C46.3599 23.5595 46.3318 23.5786 46.3039 23.5977C46.2803 23.614 46.2567 23.6302 46.2332 23.6464C46.1593 23.6974 46.0855 23.7484 46.0099 23.7991L46.0149 25.3666L46.0151 25.4049L46.0172 26.0543L46.0174 26.0985V26.1028L46.0509 36.4853C46.1446 36.4226 46.2361 36.3594 46.3275 36.2963C46.354 36.278 46.3805 36.2598 46.407 36.2415C46.4321 36.2242 46.4574 36.2069 46.4827 36.1897ZM43.5829 38.0205L43.8011 37.8947L43.7876 33.7089C43.8175 33.6906 43.8473 33.6723 43.8772 33.6541C43.9666 33.5994 44.0558 33.5449 44.1438 33.4898C44.3513 33.3598 44.5558 33.2288 44.7573 33.0972C44.8519 33.0355 44.9448 32.9732 45.0376 32.911C45.0629 32.8941 45.0881 32.8772 45.1133 32.8603L45.1056 30.477C44.9875 30.5564 44.8699 30.6361 44.7495 30.7148C44.5481 30.8468 44.3436 30.9781 44.136 31.1084C44.0492 31.1629 43.9607 31.217 43.8722 31.271C43.8414 31.2898 43.8106 31.3086 43.7799 31.3274L43.777 30.4165L44.1228 30.2148L44.1331 30.2083C44.3262 30.0918 44.514 29.9742 44.7019 29.8565L44.7466 29.8285L44.772 29.8126C44.883 29.7434 44.9938 29.6743 45.1027 29.6045C45.295 29.4815 45.484 29.3579 45.6706 29.2339C45.6947 29.2179 45.7194 29.2019 45.7441 29.186C45.7724 29.1678 45.8006 29.1496 45.8279 29.1312L45.8258 28.407C45.8113 28.4167 45.7966 28.4264 45.7818 28.436C45.7441 28.4607 45.7056 28.4852 45.6683 28.51C45.4817 28.634 45.2927 28.7574 45.1004 28.8805C45 28.9446 44.8978 29.0086 44.7957 29.0725L44.7084 29.1271C44.5176 29.2466 44.3269 29.366 44.1308 29.4844L44.1206 29.4906L43.8402 29.6544L43.7761 29.6917C43.7759 29.6919 43.7763 29.6916 43.7761 29.6917C43.7758 29.6918 43.7749 29.6924 43.7747 29.6926L43.7674 27.4701C43.8791 27.3984 43.9984 27.3397 44.1237 27.2935C44.2193 27.2581 44.3171 27.2278 44.4189 27.2091C44.5037 27.1937 44.618 27.1895 44.7383 27.1911L44.777 27.1914C44.8856 27.1941 44.9971 27.2009 45.0951 27.2087L45.0947 27.1135L45.0945 27.0375L43.928 26.5374C43.895 26.5574 43.8662 26.5747 43.8427 26.5891L43.7653 26.6359L43.7649 26.5565L43.7642 26.4671V26.4557L43.7633 26.3312L43.7601 25.2032L43.4952 25.3557C43.4682 25.371 43.4411 25.3867 43.4144 25.4021L43.2443 25.4997L43.1858 25.533L43.2269 38.2246C43.2932 38.1869 43.4495 38.0972 43.5829 38.0205ZM40.5359 39.6257C40.6171 39.5871 40.6985 39.5489 40.7794 39.5096L40.7696 36.4811L40.7694 36.4463L40.7662 35.4041C41.2036 35.1803 41.6364 34.9506 42.0632 34.7142C42.1467 34.6678 42.2294 34.6207 42.3121 34.5737C42.3478 34.5534 42.3835 34.5331 42.4192 34.5128L42.4116 32.1326C42.376 32.1527 42.3405 32.173 42.3049 32.1932C42.222 32.2403 42.139 32.2875 42.0553 32.334C41.6287 32.5709 41.1959 32.801 40.7583 33.0251L40.7553 32.0435C41.1913 31.8291 41.6232 31.6063 42.0523 31.3783C42.1714 31.315 42.2899 31.2509 42.4084 31.1865C42.4598 31.1586 42.5114 31.1312 42.5631 31.1037C42.6395 31.0631 42.7159 31.0225 42.7914 30.9805L43.0306 30.8465L43.0287 30.1224L42.7894 30.2563C42.7142 30.2981 42.6381 30.3386 42.5621 30.379C42.51 30.4067 42.4579 30.4344 42.406 30.4626C42.2876 30.527 42.1689 30.591 42.0499 30.6543C41.6956 30.8426 41.339 31.0261 40.9799 31.2052C40.9457 31.2222 40.9116 31.2395 40.8776 31.2568C40.8361 31.2779 40.7946 31.299 40.7528 31.3196L40.7462 29.2791V29.2769L40.7442 28.6324L41.2843 28.9858C41.2819 28.9867 41.2798 28.9877 41.2775 28.9888C41.3628 28.957 41.4496 28.9299 41.5381 28.9085C41.7042 28.8686 41.8744 28.8475 42.0441 28.8471C42.1641 28.847 42.2837 28.8568 42.401 28.8775L42.4007 28.7738L42.0528 28.5656L42.0432 28.5599L41.1733 28.0397C41.0172 28.1203 40.8707 28.1951 40.743 28.2588L40.7419 27.9512V27.9066L40.7384 26.8171C40.6634 26.8536 40.5882 26.8892 40.513 26.9248C40.4865 26.9374 40.4601 26.9499 40.4336 26.9625C40.3968 26.98 40.3601 26.9977 40.3234 27.0153C40.253 27.0492 40.1825 27.083 40.1116 27.1161L40.1528 39.8086C40.2352 39.7701 40.3172 39.7307 40.3991 39.6913C40.4357 39.6737 40.4723 39.6561 40.5089 39.6386C40.5179 39.6343 40.5269 39.63 40.5359 39.6257ZM36.7533 41.2533C36.982 41.1687 37.2096 41.0824 37.4372 40.9937L37.4242 36.9404C38.0028 36.7032 38.5754 36.4552 39.1399 36.1951C39.2284 36.1543 39.3163 36.1127 39.4042 36.0711C39.4349 36.0566 39.4655 36.0421 39.4962 36.0276L39.4885 33.6495C39.4593 33.6633 39.4302 33.6772 39.401 33.691C39.3116 33.7335 39.2222 33.7759 39.1322 33.8174C38.5678 34.0778 37.9951 34.326 37.4165 34.5634L37.4132 33.5228L37.5387 33.4736C38.072 33.2622 38.602 33.0378 39.129 32.8041C39.2478 32.7513 39.3666 32.6984 39.4853 32.6447C39.5811 32.6012 39.6767 32.557 39.7723 32.5127L39.77 31.7888L39.7465 31.7997C39.6587 31.8403 39.5709 31.8808 39.483 31.9206C39.4482 31.9365 39.4137 31.9527 39.3789 31.9684C39.3275 31.9916 39.2759 32.0143 39.2243 32.0369C39.1918 32.0512 39.1592 32.0655 39.1267 32.0799C38.5997 32.3136 38.0698 32.5381 37.5368 32.7495L37.4108 32.7989L37.4044 30.8531V30.8461L37.4 29.4293L37.3998 29.4084L37.3978 28.8001C37.482 28.7656 37.6556 28.6937 37.6556 28.6937C37.663 28.6906 37.6703 28.6876 37.6777 28.6846C37.6891 28.6799 37.7004 28.6753 37.7116 28.6705L37.3966 28.4088L37.3962 28.2798C37.3607 28.2936 37.3252 28.3064 37.2897 28.3202L37.231 28.3425L37.2106 28.3503C37.0447 28.414 36.8788 28.4777 36.7122 28.5394L36.7222 31.6452V31.6662L36.7533 41.2533ZM35.4088 30.475C35.0156 30.6078 34.6216 30.7352 34.2266 30.8558L34.7739 31.6803C35.186 31.5865 35.6251 31.6111 36.0379 31.7663L36.2461 31.8221L36.2452 31.5388V31.5364L35.4103 30.4745C35.4099 30.4745 35.4091 30.4749 35.4088 30.475C35.4089 30.475 35.4086 30.4751 35.4088 30.475ZM38.4793 29.308C38.4573 29.3172 38.4316 29.3283 38.4097 29.3376C38.1202 29.46 37.8301 29.5802 37.5387 29.6956L37.5273 29.7003L38.2384 30.3707C38.5224 30.2922 38.8241 30.2779 39.121 30.3332C39.1395 30.3366 39.1579 30.3412 39.1763 30.3454C39.2614 30.3637 39.3461 30.3867 39.4296 30.4169L39.4781 30.4271L39.4771 30.1366L38.4793 29.308ZM5.48295 27.2637C5.46625 27.252 5.44955 27.2403 5.4332 27.2285L5.4366 28.2823V28.2898L6.4062 27.887L6.399 27.8825C6.3722 27.8655 6.34509 27.8487 6.31799 27.832C6.27695 27.8067 6.23596 27.7814 6.1962 27.7552C6.0588 27.6644 5.9238 27.5728 5.7907 27.4808C5.7015 27.4191 5.6141 27.3568 5.5267 27.2945C5.51226 27.2842 5.4976 27.2739 5.48295 27.2637ZM32.9582 42.4587C33.2058 42.3923 33.4529 42.3238 33.7005 42.2527L33.6876 38.2731C34.5575 38.0083 35.4174 37.7167 36.2641 37.398L36.2564 35.0214C35.4097 35.3404 34.55 35.6324 33.68 35.8973L33.6764 34.7982C34.5391 34.5476 35.3994 34.266 36.2528 33.958C36.2928 33.9437 36.3328 33.9292 36.3727 33.9148C36.4087 33.9017 36.4447 33.8888 36.4807 33.8759C36.5289 33.8587 36.5771 33.8415 36.6252 33.8236L36.623 33.0995C36.5722 33.1184 36.5213 33.1366 36.4704 33.1548C36.437 33.1667 36.4037 33.1786 36.3704 33.1907C36.3304 33.2053 36.2905 33.2196 36.2505 33.234C35.3971 33.5421 34.5368 33.8234 33.6741 34.0743L33.673 33.7355L33.6728 33.6957L33.6684 32.3165V32.3072L33.6678 32.1859L33.6609 30.0034L33.7287 30.1054C33.939 30.0417 34.1488 29.9764 34.3577 29.9095L34.4031 29.895C34.5494 29.8482 34.6956 29.8014 34.841 29.7527L34.8426 29.7522L31.8617 25.9601C31.8617 25.9601 31.9953 25.7822 32.1702 25.5949C32.2089 25.5532 32.2499 25.5114 32.2918 25.4708C32.4385 25.3282 32.5976 25.2023 32.7261 25.1728L36.2352 28.4818L36.2336 27.9403C36.3265 27.9058 36.5119 27.8339 36.5979 27.8006C36.6231 27.7909 36.6398 27.7844 36.643 27.7832L33.6379 25.2877C33.6379 25.2877 33.6455 25.2761 33.6594 25.2558C33.6873 25.2149 33.7404 25.1386 33.8089 25.0487C33.8432 25.0037 33.8812 24.9554 33.9217 24.9065C34.0842 24.7102 34.2874 24.5573 34.4512 24.5142L39.4696 27.7982L39.4671 27.0193L35.3664 24.567L35.3644 24.5657L35.3129 24.5349C35.3129 24.5349 35.3134 24.5341 35.3143 24.5325C35.3151 24.5311 35.3163 24.529 35.318 24.5263C35.3419 24.4865 35.4456 24.3161 35.5808 24.1361C35.6193 24.0848 35.6606 24.0327 35.7032 23.9825C35.7646 23.9103 35.8291 23.8427 35.8932 23.7874C35.9622 23.7276 36.0309 23.6823 36.0948 23.663L42.0232 26.5972C42.0246 26.5964 42.026 26.5956 42.0274 26.5948C42.0305 26.5931 42.0337 26.5913 42.0367 26.5895C42.1532 26.5244 42.2712 26.4584 42.393 26.3895L42.3912 25.8845V25.8784L36.995 23.5645C36.995 23.5645 37.0332 23.4885 37.1848 23.2714C37.1864 23.2692 37.1879 23.2672 37.1895 23.2653C37.1902 23.2644 37.1909 23.2634 37.1916 23.2625C37.2178 23.2251 37.2455 23.1874 37.2738 23.1503C37.2951 23.1221 37.3166 23.0955 37.3379 23.0697C37.3686 23.0324 37.3998 22.996 37.4314 22.9626C37.5006 22.8932 37.5716 22.8402 37.6474 22.8137L44.701 24.998C44.7108 24.9914 44.7211 24.9848 44.7309 24.9784C44.8549 24.8972 44.9752 24.8178 45.087 24.7431L45.086 24.387L38.5408 22.593C38.5685 22.5415 38.6409 22.4388 38.7473 22.288C38.7677 22.2591 38.7894 22.2284 38.8122 22.1959C38.8255 22.1769 38.8385 22.1593 38.8515 22.1419C38.8586 22.1324 38.8656 22.1229 38.8726 22.1133C38.9483 22.011 39.0223 21.9242 39.0997 21.8606C39.144 21.8244 39.1891 21.7932 39.2373 21.7739L47.1943 23.2058C47.1957 23.2045 47.1971 23.2035 47.1986 23.2024C47.3238 23.1039 47.4453 23.007 47.5545 22.917V22.8973L47.5538 22.6952L40.1468 21.4196L40.1298 21.4168L40.1994 21.2825L40.2413 21.2013C40.3528 20.986 40.4834 20.7626 40.7596 20.6163L49.3679 21.0935L49.5033 21.1012C49.5831 21.0191 49.6585 20.9397 49.724 20.8679L49.7236 20.7385L41.5445 20.2893L41.5321 20.2886C41.5321 20.2886 41.605 20.0467 41.7167 19.775C41.772 19.6403 41.8369 19.4983 41.9071 19.3746L41.9088 19.3718C41.9105 19.3689 41.9122 19.366 41.9138 19.363C41.9832 19.2428 42.0574 19.1409 42.1325 19.083C42.1325 19.083 42.3283 19.0781 42.6633 19.0701C42.6638 19.07 42.6644 19.07 42.6649 19.0699C42.6655 19.0699 42.666 19.0699 42.6665 19.0699C43.3198 19.0541 44.5005 19.0257 45.8015 18.9955C45.8811 18.9938 45.9608 18.992 46.0411 18.99C46.6056 18.977 47.1872 18.9638 47.7543 18.9513C47.8909 18.9483 48.0267 18.9452 48.1612 18.9424C48.2598 18.9402 48.3578 18.9381 48.4547 18.936L48.5153 18.9347C48.5561 18.9338 48.5966 18.9329 48.6369 18.932C48.6831 18.9311 48.729 18.9301 48.7747 18.929L49.2309 18.9195C49.5615 18.9126 49.8739 18.9063 50.1597 18.901L50.5304 18.894C50.6611 18.8917 50.7846 18.8896 50.8988 18.8878C50.909 18.8875 50.9189 18.8874 50.9289 18.8872L50.9387 18.8871L51.0809 18.8849L51.1566 18.8839C51.1881 18.8833 51.2181 18.883 51.2477 18.8826C51.2608 18.8617 51.2733 18.8406 51.2857 18.8196C51.2948 18.8042 51.3039 18.7889 51.3132 18.7736C51.3319 18.7429 51.3503 18.7122 51.3685 18.6816C51.3779 18.6657 51.3876 18.6499 51.3972 18.6341C51.4105 18.6122 51.4239 18.5903 51.4366 18.5683L51.4361 18.372L51.3676 18.3747L51.0793 18.3856L51.0661 18.386L50.5304 18.4063L50.4986 18.4074L42.8583 18.6955L42.7184 18.7006C42.7184 18.7006 42.718 18.7013 42.7174 18.7021C42.7167 18.703 42.7159 18.704 42.715 18.7046C42.7143 18.7051 42.7135 18.7054 42.7127 18.7052C42.7115 18.705 42.7104 18.7037 42.7097 18.7006L42.7056 18.7005L42.7143 18.4876C42.7168 18.4227 42.7197 18.3465 42.7225 18.2634C42.7256 18.1804 42.7286 18.0905 42.7314 17.9986C42.7332 17.9362 42.735 17.8731 42.7366 17.8101C42.7374 17.7828 42.7381 17.7556 42.7388 17.7286L42.7389 17.7232L42.7396 17.6875C42.7404 17.6552 42.7411 17.6229 42.7416 17.5915L42.7434 17.4704L43.0256 17.432L43.0806 17.4246L51.3055 16.3051L51.3612 16.2974L51.9899 16.2118L52.0826 16.1993L52.1538 16.1895L52.2773 16.1727L52.283 16.172L52.2867 16.1715L52.3233 16.1665L52.3524 16.1626C52.3525 16.162 52.3527 16.1614 52.3529 16.161L52.352 15.8384C52.3357 15.8083 52.3181 15.7781 52.3004 15.7478C52.2869 15.7247 52.2734 15.7015 52.2605 15.6784C52.2343 15.6315 52.2073 15.5847 52.1804 15.5378C52.1881 15.6361 52.1902 15.6953 52.1902 15.6953L51.5726 15.787L51.5737 15.7886L46.9668 16.4723L46.9649 16.4701L46.0932 16.5995L46.0953 16.6016L42.9323 17.0708L42.9316 17.0683L42.7371 17.0967C42.7371 17.0958 42.7355 17.0792 42.7307 17.0496C42.7259 17.0199 42.7177 16.9773 42.7047 16.9245C42.694 16.8817 42.6801 16.8323 42.662 16.7777C42.6529 16.7504 42.643 16.7218 42.6315 16.6922C42.5529 16.4849 42.4169 16.2246 42.1845 15.9776C42.1511 15.9422 42.116 15.9073 42.0787 15.8727L50.8981 13.655L50.9237 13.6485L51.6038 13.4776C51.5119 13.3349 51.4277 13.242 51.3515 13.1808C51.3266 13.1606 51.3025 13.1437 51.2793 13.1303C51.1863 13.0768 51.1089 13.0725 51.0497 13.0877C50.9644 13.1092 50.9168 13.1681 50.9168 13.1681L50.1425 13.3656L48.7585 13.7185L48.7093 13.7311L41.3824 15.5993C41.3824 15.5993 41.2853 15.4327 41.1464 15.2288C41.1219 15.1931 41.0968 15.1567 41.07 15.1193C41.0618 15.1077 41.0529 15.0961 41.0445 15.0843C41.0031 15.0274 40.9597 14.9703 40.9151 14.9145C40.868 14.8558 40.8197 14.799 40.7715 14.7473C40.7232 14.6954 40.6748 14.6487 40.6276 14.6096C40.6231 14.6058 40.6188 14.6032 40.6144 14.5998C40.5919 14.5818 40.5698 14.5655 40.548 14.5512C40.5264 14.5372 40.505 14.525 40.4843 14.5156L48.753 11.9177L48.7942 11.9047L50.1366 11.4829L50.1441 11.4806C50.1432 11.4795 50.1422 11.4785 50.1411 11.4776C50.1396 11.4761 50.138 11.4748 50.1366 11.4733C50.0803 11.4135 50.021 11.3565 49.9584 11.3035C49.7625 11.1372 49.5372 11.0055 49.2892 10.9188L49.2876 10.9183C49.2692 10.912 49.251 10.9067 49.2327 10.9015C49.2238 10.8989 49.2148 10.8964 49.2059 10.8937C49.1983 10.8914 49.1906 10.889 49.1829 10.8866C49.1671 10.8816 49.1512 10.8765 49.1355 10.8725C49.1245 10.8697 49.1138 10.8673 49.103 10.8649C49.0979 10.8637 49.0928 10.8626 49.0877 10.8614L49.0844 10.8607C49.0502 10.8528 49.0159 10.8457 48.9819 10.84C48.9638 10.837 48.9458 10.8345 48.928 10.8321C48.8944 10.8279 48.8611 10.8248 48.8283 10.8229C48.8233 10.8226 48.8184 10.8223 48.8134 10.822C48.8015 10.8213 48.7896 10.8206 48.7778 10.8204C48.7725 10.8203 48.7674 10.8206 48.7624 10.8208C48.7581 10.8211 48.7539 10.8213 48.7496 10.8213L48.7437 10.8213C48.7086 10.8214 48.6733 10.8215 48.6393 10.8248L42.6212 13.1472L42.5322 13.1817L39.6952 14.2763L39.512 14.3472C39.512 14.3472 39.4906 14.3079 39.4485 14.2437L39.4353 14.2242C39.4269 14.2116 39.4184 14.1989 39.4086 14.1848L39.4035 14.1776C39.3929 14.1625 39.3819 14.1468 39.3697 14.1302C39.3401 14.0901 39.3054 14.0457 39.2669 13.9989L39.2596 13.9898C39.2178 13.9399 39.1711 13.8872 39.1194 13.8337C39.0676 13.7802 39.0104 13.7254 38.9485 13.6717C38.8973 13.6273 38.8404 13.5841 38.7824 13.5419C38.7768 13.5379 38.7715 13.5335 38.7662 13.5292C38.7603 13.5243 38.7543 13.5194 38.7478 13.5149C38.676 13.4648 38.5993 13.4173 38.5176 13.3742L39.2639 12.9967L39.2671 12.9951L45.7348 9.7237L45.7369 9.7227L47.0983 9.034L47.1033 9.0307C47.1023 9.03016 47.1013 9.02969 47.1003 9.02923C47.0996 9.02892 47.0989 9.02862 47.0983 9.0283C47.0505 9.0032 46.9991 8.9796 46.9454 8.9573C46.9326 8.95191 46.9195 8.94693 46.9063 8.94191C46.9009 8.93986 46.8955 8.9378 46.8901 8.9357C46.8509 8.9204 46.8107 8.9058 46.7693 8.8919C46.7476 8.8845 46.7256 8.8776 46.7033 8.8708C46.6621 8.8581 46.6204 8.8464 46.5779 8.8351C46.5563 8.8294 46.5353 8.8237 46.5135 8.8184C46.4623 8.8061 46.4106 8.795 46.359 8.7852C46.3539 8.78418 46.3488 8.78309 46.3438 8.78201C46.3364 8.78043 46.3291 8.77886 46.3217 8.7775C46.3175 8.77668 46.3132 8.77606 46.309 8.77549C46.3029 8.77467 46.2969 8.77396 46.2909 8.7729C46.2375 8.7638 46.1845 8.7554 46.1323 8.7491C46.1219 8.74786 46.1117 8.74697 46.1015 8.74608C46.0945 8.74546 46.0874 8.74484 46.0802 8.7441C46.0354 8.7395 45.9912 8.7358 45.9482 8.7334C45.9271 8.7324 45.907 8.7318 45.8863 8.7313C45.8579 8.7306 45.8308 8.7309 45.8035 8.7313C45.7921 8.7315 45.7799 8.7311 45.7689 8.7315C45.7646 8.73159 45.7604 8.73165 45.7561 8.7317C45.7464 8.73182 45.7368 8.73195 45.7275 8.7325C45.7261 8.7325 45.7249 8.73266 45.7237 8.73283C45.7229 8.73293 45.7222 8.73303 45.7214 8.7331C45.6697 8.7361 45.6201 8.7409 45.5751 8.7488L45.0915 9.0217L45.0852 9.0253L45.0203 9.0621L38.7793 12.5842L38.6693 12.6465L37.4717 13.3222C37.4717 13.3221 37.2901 13.1339 37.0612 12.9337C36.8323 12.7335 36.5559 12.5214 36.3667 12.474L37.3612 11.7293L38.0388 11.2223L38.0606 11.2061L42.1092 8.1754L42.1242 8.1642L42.1254 8.1633L42.6364 7.781L43.7183 6.971C43.6591 6.951 43.5986 6.935 43.5378 6.9207C43.5239 6.9173 43.51 6.9143 43.4959 6.9113C43.489 6.90988 43.4821 6.90826 43.4752 6.90664C43.4665 6.90461 43.4578 6.90257 43.4491 6.9009C43.4013 6.892 43.353 6.8849 43.3045 6.8795C43.2979 6.8786 43.2913 6.8784 43.2847 6.8777C43.2247 6.8717 43.1644 6.8686 43.1038 6.8677C43.0994 6.86767 43.0949 6.8676 43.0905 6.86753C43.0815 6.8674 43.0725 6.86727 43.0634 6.8674C42.9964 6.8677 42.9289 6.8717 42.8613 6.8792C42.8481 6.8806 42.8347 6.8825 42.8214 6.8841L42.7937 6.8877C42.7329 6.8965 42.6721 6.907 42.6116 6.9214L42.0904 7.046L36.7085 11.3361L36.6851 11.3547L35.2035 12.5359C35.2035 12.5359 35.0915 12.4431 34.9316 12.3239C34.8849 12.289 34.8328 12.2515 34.7794 12.2137C34.7398 12.1858 34.6995 12.1577 34.6579 12.1296C34.608 12.0963 34.5571 12.0638 34.5065 12.0324C34.4803 12.0164 34.4542 12.001 34.4283 11.9859C34.4048 11.9721 34.3814 11.9589 34.3584 11.9462C34.3315 11.9316 34.3045 11.9173 34.2785 11.9045C34.1864 11.8594 34.101 11.8269 34.0303 11.8157L34.7552 11.0353L34.7803 11.0082L34.9739 10.7998L35.0094 10.7617L35.1018 10.6621L35.3157 10.432L35.3439 10.4015L37.9999 7.5421L38.0272 7.5128L38.7604 6.7236L38.7613 6.7225L38.86 6.6164L38.8805 6.5942L39.9602 5.432L39.9618 5.4304C39.9567 5.42926 39.9516 5.42846 39.9464 5.42767C39.9417 5.42694 39.9369 5.42621 39.9322 5.4252C39.8594 5.4093 39.7861 5.3965 39.7118 5.3888C39.707 5.3883 39.7022 5.3872 39.6974 5.3867C39.6328 5.3804 39.5679 5.377 39.5028 5.377C39.4929 5.377 39.483 5.37754 39.4731 5.37808C39.4665 5.37844 39.4599 5.3788 39.4533 5.379C39.4392 5.3793 39.4252 5.3799 39.4111 5.3806C39.3541 5.3831 39.2972 5.3879 39.2403 5.3954V5.3979C39.231 5.39919 39.2216 5.39993 39.2122 5.40066C39.2004 5.40158 39.1887 5.4025 39.177 5.4045C39.1661 5.4063 39.1552 5.4088 39.1442 5.4107C39.0625 5.4255 38.9808 5.4443 38.9001 5.4696L38.899 5.47L38.0492 5.7181L36.7584 7.26431L36.7602 7.26461L34.3002 10.2157L34.2951 10.2147L33.7706 10.8428L33.7765 10.8439L33.747 10.8794L33.6352 11.0135L33.6331 11.0131L33.6304 11.0124L33.6293 11.0121L33.5615 11.0935L32.7949 12.0115L32.7758 11.9991L32.7414 11.9769C32.7193 11.9627 32.6923 11.9455 32.6584 11.9243C32.6163 11.8981 32.5662 11.8674 32.5107 11.8344C32.4552 11.8014 32.3942 11.7661 32.3305 11.7306C32.2667 11.6951 32.2001 11.6592 32.1331 11.6253C32.0662 11.5916 31.9991 11.5597 31.934 11.5316C31.869 11.5038 31.8064 11.4799 31.7484 11.4622C31.6906 11.4444 31.6375 11.4328 31.5918 11.4296L31.9985 10.7424L32.0178 10.7096L34.925 5.7964L34.9345 5.7804L35.7665 4.3744L35.7672 4.373C35.7623 4.37231 35.7574 4.37216 35.7524 4.372C35.748 4.37186 35.7436 4.37172 35.7392 4.3712C35.6659 4.3625 35.5922 4.3568 35.5184 4.3562C35.5163 4.3562 35.5143 4.3561 35.5123 4.35602C35.5107 4.35596 35.5092 4.3559 35.5077 4.3559L35.5039 4.3557C35.4279 4.3557 35.3516 4.3614 35.2756 4.3701C35.259 4.37197 35.2426 4.37457 35.2262 4.37718C35.2207 4.37806 35.2152 4.37894 35.2096 4.3798C35.1518 4.3883 35.0945 4.3994 35.0372 4.4131C35.0147 4.4185 34.9923 4.4235 34.97 4.4295C34.894 4.4506 34.8185 4.4745 34.7443 4.5048L33.64 4.9478L33.3267 5.5927L33.3199 5.6066L31.1754 10.0199L31.1674 10.0363L30.9555 10.4724C30.9558 10.4724 30.9561 10.4724 30.9565 10.4726L30.8955 10.5982H30.8944L30.3246 11.7707L30.2879 11.7514C30.2169 11.7147 30.0513 11.6307 29.8615 11.547L29.854 11.5438C29.8196 11.5286 29.7844 11.5136 29.7489 11.4988C29.5905 11.4328 29.4253 11.3729 29.2901 11.3441C29.2823 11.3425 29.2749 11.3413 29.2677 11.3402C29.2623 11.3394 29.2569 11.3385 29.2514 11.3375C29.211 11.3306 29.173 11.3258 29.1404 11.3261L30.8543 5.4698L30.8564 5.4625L31.3112 3.9083L31.3119 3.9058C31.3077 3.9058 31.3035 3.90603 31.2993 3.90626C31.2948 3.90651 31.2903 3.90675 31.2858 3.9067C31.282 3.90661 31.2782 3.90623 31.2744 3.90586C31.27 3.90543 31.2656 3.905 31.2612 3.905C31.2363 3.905 31.2114 3.90698 31.1866 3.90897C31.1724 3.9101 31.1582 3.91124 31.144 3.912C31.1325 3.91268 31.121 3.91319 31.1095 3.91369C31.0858 3.91473 31.0621 3.91577 31.0384 3.9184C30.9957 3.92317 30.9534 3.9312 30.9112 3.93923C30.9038 3.94062 30.8965 3.94202 30.8891 3.9434C30.8772 3.94566 30.8653 3.94763 30.8535 3.9496C30.8328 3.95303 30.8121 3.95645 30.7917 3.9614C30.7419 3.97321 30.6932 3.98932 30.6444 4.00544L30.6297 4.0103C30.6193 4.01374 30.6087 4.01681 30.5982 4.01988C30.5821 4.02456 30.5659 4.02926 30.5501 4.0353C30.4709 4.0652 30.3929 4.1 30.3171 4.1404L29.038 4.7987L29.0376 4.8015L28.9274 5.4951L28.916 5.5679L28.9145 5.5763L28.2025 10.059L28.1999 10.0764L27.9539 11.6253L27.9476 11.6644L27.9241 11.8124C27.9241 11.8124 27.8424 11.7784 27.7205 11.7325L27.6404 11.7027L27.6338 11.7003C27.6092 11.6914 27.5838 11.6823 27.5574 11.6731C27.528 11.6626 27.4975 11.6522 27.4665 11.6417C27.4044 11.6208 27.34 11.6002 27.2756 11.5812C27.2112 11.5622 27.1471 11.5447 27.0859 11.5304C27.0247 11.5161 26.9662 11.5049 26.9134 11.4979C26.8606 11.4911 26.8133 11.4888 26.7743 11.4924L26.7796 10.9722L26.7803 10.8908L26.7877 10.2002L26.7882 10.1374L26.8346 5.658L26.8347 5.6534L26.851 4.0799C26.8488 4.08001 26.8466 4.08039 26.8444 4.08076C26.8427 4.08104 26.8411 4.08133 26.8394 4.0815C26.7637 4.0881 26.6886 4.0993 26.6141 4.1143C26.6089 4.11535 26.6038 4.1163 26.5986 4.11725C26.5935 4.1182 26.5884 4.11915 26.5832 4.1202C26.5088 4.1364 26.4357 4.1577 26.3632 4.1823C26.3495 4.1869 26.3358 4.1917 26.322 4.1967C26.2507 4.2228 26.1804 4.2527 26.1117 4.2872C26.1052 4.29037 26.0989 4.2938 26.0926 4.29723C26.0879 4.29976 26.0832 4.30228 26.0785 4.3047C26.0072 4.3421 25.9368 4.3828 25.8694 4.4294L24.5751 5.268L24.5771 5.2812L24.5783 5.2894L25.2393 9.727L25.2545 9.8283L25.3035 10.1574L25.3075 10.1837L25.3385 10.3929L25.3719 10.6161L25.5943 12.1104C25.5943 12.1104 25.5683 12.1009 25.5242 12.0858C25.4611 12.0643 25.3605 12.0312 25.2463 11.998C25.2274 11.9925 25.2085 11.9869 25.1888 11.9814C25.1719 11.9767 25.1547 11.9719 25.1374 11.9672C25.1267 11.9643 25.1158 11.9614 25.105 11.9586C25.0547 11.9455 25.0038 11.9332 24.9537 11.9223C24.9189 11.9148 24.8847 11.9077 24.8513 11.902C24.7427 11.8829 24.6442 11.8744 24.5746 11.8852L24.3621 11.1062L24.3575 11.0892L23.0545 6.3108L23.0498 6.2942L22.6523 4.8365L22.6468 4.8377C22.5678 4.8516 22.49 4.8714 22.4129 4.8948C22.3993 4.89884 22.3857 4.90332 22.3722 4.90779C22.3673 4.9094 22.3625 4.91101 22.3576 4.9126C22.2845 4.9371 22.2124 4.9647 22.1423 4.9976C22.1404 4.99843 22.1385 4.9992 22.1366 4.99997C22.1342 5.00097 22.1317 5.00197 22.1293 5.0031C22.0558 5.0382 21.9851 5.0791 21.9159 5.1233C21.8991 5.1339 21.8827 5.1449 21.8663 5.156C21.7976 5.2027 21.7305 5.2521 21.6672 5.3078L20.6109 6.2369L20.6346 6.289L20.6359 6.2913L21.0951 7.2945L21.0962 7.2968L21.3602 7.8736L21.362 7.873L22.7299 10.853L22.7253 10.8544L22.7494 10.9072L23.0239 11.5067L23.0293 11.5049L23.04 11.5283L23.2341 11.9509L23.2284 11.9528L23.5258 12.6024C23.5258 12.6024 23.5147 12.5988 23.4949 12.5929C23.4751 12.5869 23.4466 12.5783 23.4116 12.5681L23.4048 12.5662C23.3713 12.5567 23.3322 12.5456 23.2894 12.5343C23.2437 12.5219 23.1938 12.5093 23.1419 12.4968C23.09 12.4843 23.0361 12.4723 22.9826 12.4616C22.9023 12.4456 22.8225 12.4326 22.7514 12.426C22.7276 12.4238 22.7048 12.4224 22.6832 12.4217C22.6399 12.4203 22.6015 12.4222 22.5703 12.4285L21.8412 11.1636L21.8276 11.1402L20.3733 8.6171L20.3628 8.5991L19.6013 7.2782L19.5862 7.2518L18.8592 5.9907L18.8583 5.9891C18.8103 6.0002 18.7627 6.013 18.7156 6.0276C18.7142 6.02801 18.7128 6.02849 18.7114 6.02901C18.7098 6.02963 18.7081 6.0303 18.7065 6.0309C18.6519 6.048 18.5984 6.0681 18.5454 6.0901C18.5295 6.0965 18.5138 6.1035 18.4981 6.1106C18.4535 6.1302 18.4098 6.1516 18.3666 6.1747C18.3631 6.17652 18.3595 6.17832 18.356 6.18012C18.3479 6.18423 18.3398 6.18835 18.3318 6.1928C18.279 6.2223 18.2275 6.2542 18.1772 6.2886C18.1701 6.29359 18.163 6.29878 18.156 6.30399C18.1519 6.30703 18.1478 6.31008 18.1436 6.3131C18.1037 6.3416 18.0646 6.3718 18.0266 6.4035L18.0249 6.40489C18.0123 6.41531 17.9998 6.42559 17.9875 6.4365C17.9406 6.4776 17.8949 6.5202 17.8514 6.5661L17.1143 7.3095L16.9298 7.4952L17.3653 8.0291L17.399 8.0703L17.3997 8.0714L18.086 8.9126L18.0889 8.9115L20.3868 11.7191C20.385 11.72 20.3831 11.7207 20.3812 11.7215C20.3802 11.7219 20.3791 11.7223 20.3781 11.7227L20.8501 12.3013C20.8532 12.3001 20.857 12.2987 20.86 12.2973L21.1126 12.6058L21.1964 12.7084C21.1928 12.7098 21.1893 12.7114 21.1857 12.7127L21.5609 13.1726C21.5536 13.1706 21.5436 13.1683 21.5356 13.1661L21.4915 13.1549L21.4435 13.1437C21.4271 13.1397 21.4116 13.1362 21.3937 13.1323C21.373 13.1276 21.3509 13.123 21.3288 13.1185C21.3127 13.1151 21.2976 13.1117 21.2812 13.1085C21.2453 13.1014 21.2087 13.0946 21.1716 13.0884C21.1576 13.086 21.1438 13.0839 21.13 13.0818C21.1253 13.0811 21.1205 13.0803 21.1158 13.0796L21.114 13.0793C21.109 13.0785 21.1039 13.0777 21.0989 13.0769C21.0777 13.0736 21.0566 13.0702 21.036 13.0675C20.9129 13.0518 20.8004 13.0461 20.7324 13.0618L20.0809 12.3562L20.0621 12.3359L16.7227 8.7186L16.72 8.7158L15.4698 7.3617L15.4676 7.3594C15.4437 7.36585 15.4202 7.37374 15.3967 7.38159C15.3911 7.38347 15.3855 7.38535 15.3799 7.3872C15.3755 7.3886 15.371 7.38996 15.3666 7.39131C15.3574 7.39412 15.3482 7.39693 15.3392 7.4001C15.278 7.4215 15.2181 7.4459 15.1592 7.473C15.1497 7.47742 15.1405 7.48212 15.1313 7.48682C15.127 7.48902 15.1226 7.49123 15.1183 7.4934C15.0707 7.5168 15.024 7.5419 14.9783 7.569C14.9725 7.57247 14.9667 7.57584 14.9609 7.57922C14.952 7.5844 14.9431 7.58959 14.9344 7.5951C14.8789 7.6299 14.8247 7.6671 14.7724 7.7075C14.7678 7.7111 14.7634 7.71486 14.759 7.7186C14.7554 7.7217 14.7517 7.7248 14.748 7.7278C14.7034 7.7635 14.6602 7.8013 14.6185 7.8411C14.6156 7.84392 14.6126 7.84674 14.6097 7.84955C14.5994 7.85942 14.5891 7.86929 14.579 7.8794C14.5316 7.9273 14.4847 7.9775 14.4415 8.0307L13.6731 8.8965L14.2324 9.347L14.2761 9.3821L19.8388 13.8621L19.8425 13.8651L19.8499 13.871L19.8227 13.8642C19.8053 13.8599 19.7803 13.8541 19.7494 13.8471L19.6993 13.836C19.6645 13.8285 19.624 13.8203 19.5823 13.8123C19.571 13.81 19.5594 13.8079 19.5478 13.8057C19.459 13.7891 19.3623 13.7741 19.2718 13.7654C19.2626 13.7643 19.2535 13.7636 19.2445 13.7629L19.2385 13.7624C19.1937 13.7588 19.1503 13.7565 19.1123 13.7575C19.0749 13.7586 19.0419 13.7624 19.0151 13.7693L17.4136 12.5837L17.3862 12.5633L14.0954 10.1271L14.0941 10.1262L12.4133 8.8817L12.4099 8.8792C12.3961 8.88354 12.3826 8.88857 12.3692 8.89359C12.3615 8.89644 12.3539 8.89929 12.3462 8.902C12.3308 8.9074 12.3157 8.9127 12.3007 8.9184C12.235 8.9434 12.1703 8.9709 12.1075 9.0026C12.1048 9.00396 12.1022 9.00547 12.0995 9.00699C12.0965 9.0087 12.0935 9.01041 12.0905 9.0119C12.0334 9.0415 11.978 9.0744 11.9237 9.1095C11.9089 9.1191 11.8943 9.1286 11.8798 9.1386C11.8217 9.1784 11.7649 9.2205 11.7107 9.2669C11.7092 9.26815 11.7078 9.26953 11.7064 9.2709C11.7049 9.27228 11.7035 9.27365 11.702 9.2749C11.6509 9.3191 11.6024 9.3669 11.5555 9.4167C11.5432 9.4299 11.5309 9.4433 11.5188 9.4569C11.4704 9.5113 11.4237 9.5675 11.3808 9.6278L10.8605 10.3597L13.4767 11.8813L13.5313 11.9129L16.0901 13.4009L16.2594 13.4996L16.294 13.5196L18.1806 14.6167L18.182 14.6176L18.1563 14.6128L18.1529 14.6121L18.1171 14.6057L18.0707 14.5976L18.0202 14.5894L17.9647 14.5809L17.934 14.5764L17.9044 14.5723L17.873 14.5682L17.8475 14.565C17.6941 14.5459 17.5266 14.5347 17.4197 14.5521C17.4146 14.5529 17.4092 14.5536 17.4038 14.5543C17.3937 14.5555 17.3836 14.5568 17.3758 14.5591C17.3501 14.5668 17.3237 14.58 17.2968 14.5953C17.2893 14.5996 17.2816 14.6046 17.2739 14.6096C17.2529 14.623 17.2317 14.6383 17.2102 14.6554C17.2082 14.6571 17.2061 14.6585 17.204 14.6599C17.2017 14.6614 17.1994 14.6629 17.1972 14.6649L15.8093 13.8821L12.8858 12.2331L12.8312 12.2024L10.5299 10.9044L10.4728 10.8723L9.7273 10.4518L9.7194 10.4473L9.7176 10.4463C9.70869 10.4496 9.69973 10.4527 9.69078 10.4558C9.67733 10.4604 9.66391 10.4651 9.6507 10.4703C9.64908 10.4711 9.64672 10.4722 9.645 10.4728C9.5797 10.4992 9.5164 10.5296 9.4541 10.562C9.4402 10.5692 9.4265 10.5763 9.4127 10.5838C9.3515 10.6173 9.292 10.653 9.2347 10.6917C9.22886 10.6957 9.22322 10.6997 9.21757 10.7038C9.21325 10.7069 9.20892 10.71 9.2045 10.7131C9.1532 10.7492 9.1038 10.787 9.0565 10.8266C9.05306 10.8294 9.04959 10.8322 9.04612 10.835C9.04042 10.8396 9.03473 10.8441 9.0292 10.8489C8.9782 10.8932 8.9303 10.9394 8.8852 10.9872C8.875 10.9979 8.8654 11.0088 8.8556 11.0196C8.8108 11.0694 8.7677 11.1207 8.7302 11.1731L8.1755 12.0221L8.2305 12.0438L9.7198 12.6349L9.734 12.6406L10.4623 12.9296L10.5363 12.9588L11.1049 13.1845L11.1074 13.1856L13.4226 14.1045L13.4837 14.1286L14.0399 14.3495L14.1084 14.3766L14.3803 14.4845L14.412 14.4972L16.6369 15.3801L16.6544 15.387L16.6342 15.3844C16.5891 15.3787 16.4694 15.3644 16.3461 15.356C16.3188 15.3542 16.2917 15.3526 16.2651 15.3515L16.2588 15.3512C15.9024 15.338 15.6701 15.4804 15.6266 15.5151L13.768 14.8185L13.7454 14.8101L13.0034 14.532L12.9477 14.5113L12.8382 14.4701L10.5383 13.6082L10.438 13.5708L9.7988 13.3312L9.7362 13.3076L8.3837 12.801L8.3823 12.8004L6.9421 12.2606L6.9382 12.2592L6.936 12.2584C6.93016 12.2616 6.92435 12.2649 6.91853 12.2683C6.9148 12.2704 6.91106 12.2726 6.9073 12.2747C6.9034 12.2769 6.89949 12.2791 6.89559 12.2813C6.88827 12.2854 6.88097 12.2895 6.8738 12.2938C6.8231 12.3241 6.774 12.3573 6.7269 12.3935C6.72185 12.3974 6.71695 12.4014 6.71208 12.4055C6.70836 12.4086 6.70466 12.4117 6.7009 12.4147C6.6584 12.4488 6.6177 12.4852 6.5789 12.5239C6.57544 12.5275 6.57187 12.5308 6.5683 12.5342C6.56507 12.5373 6.56184 12.5403 6.5587 12.5435C6.5168 12.5869 6.4775 12.6334 6.4406 12.6821C6.43391 12.691 6.42742 12.7 6.42091 12.7091C6.41944 12.7111 6.41797 12.7132 6.4165 12.7152C6.3798 12.7662 6.3448 12.8192 6.3141 12.8755L5.6902 13.9738C5.69302 13.9743 5.69586 13.9748 5.69868 13.9752C5.70326 13.9759 5.70781 13.9766 5.7122 13.9777L7.8721 14.535L7.9422 14.553L12.2432 15.663L12.3273 15.6846L14.9895 16.3718L14.9943 16.3731L15.01 16.377L14.9842 16.3809L14.9738 16.3823C14.9574 16.3847 14.9358 16.3875 14.911 16.3907C14.8422 16.3996 14.7478 16.4102 14.6575 16.4153L14.6534 16.4155C14.6129 16.4178 14.5712 16.4207 14.5298 16.4243C14.4872 16.428 14.4449 16.4325 14.4051 16.4378C14.3453 16.4457 14.2952 16.4566 14.2527 16.4689C14.2479 16.4703 14.2429 16.4717 14.2378 16.473C14.2279 16.4757 14.2181 16.4783 14.2106 16.4814C14.1837 16.4928 14.1559 16.5103 14.1275 16.5302C14.1255 16.5316 14.1236 16.5328 14.1216 16.534C14.1194 16.5353 14.1172 16.5367 14.115 16.5383C14.1116 16.5409 14.1079 16.5449 14.1043 16.5475C14.0811 16.5657 14.0576 16.5859 14.0338 16.6086C14.0299 16.6121 14.0262 16.6146 14.0222 16.6184L11.7327 16.0716L11.7009 16.0639L7.9609 15.1706L7.8739 15.15L5.9134 14.6817L5.912 14.6813L4.4673 14.3363L4.4652 14.3357C4.4611 14.3396 4.45692 14.3433 4.45274 14.3471C4.4451 14.3541 4.43744 14.361 4.4302 14.3684C4.42224 14.3765 4.41472 14.3851 4.40719 14.3937C4.40289 14.3986 4.39859 14.4035 4.3942 14.4083C4.39133 14.4115 4.3884 14.4147 4.38549 14.4179C4.38129 14.4224 4.37711 14.427 4.3731 14.4317C4.3373 14.4731 4.3039 14.517 4.2732 14.5634C4.26986 14.5684 4.2667 14.5735 4.26354 14.5785C4.26131 14.5821 4.25908 14.5857 4.2568 14.5892C4.2259 14.6385 4.1969 14.6893 4.1721 14.7434L3.7412 15.6555L3.7396 15.6591L3.6613 15.825L3.6378 15.8744L4.2857 15.9734L4.4261 15.995L4.4352 15.9965L9.7469 16.8082L9.7551 16.8094L10.5017 16.9236L10.5486 16.9307L11.518 17.079L11.5334 17.0813L13.345 17.3582C13.345 17.3582 13.256 17.4274 13.1431 17.4759C13.1056 17.4922 13.0657 17.5059 13.0253 17.5143C12.9552 17.5289 12.8983 17.5567 12.8478 17.5864C12.816 17.605 12.7871 17.6245 12.7605 17.6424C12.7319 17.6616 12.706 17.6791 12.6823 17.6916L8.441 17.1413L8.3971 17.1355L5.92 16.8141L5.8355 16.803L3.7485 16.5322L3.7423 16.5315L2.7702 16.4052C2.6302 16.5714 2.4637 16.9033 2.3106 17.2511L2.2655 17.356C2.2327 17.4326 2.2004 17.5091 2.1697 17.5842C2.1176 17.712 2.0698 17.8338 2.027 17.9451C1.9183 18.2281 1.8463 18.4343 1.8463 18.4343L3.3776 18.4942L3.4292 18.4964L7.2677 18.6466L7.2864 18.6473L8.218 18.6837L8.2169 18.6846L9.2945 18.7269L9.2955 18.726L11.4151 18.8089L11.414 18.8102L11.4688 18.8123L11.9187 18.83L11.8975 18.8393C11.8568 18.8569 11.7619 18.8985 11.6588 18.9461C11.6195 18.9643 11.5708 18.9911 11.52 19.0207C11.4411 19.0667 11.3578 19.1197 11.2947 19.1613C11.2636 19.1818 11.2388 19.1987 11.2212 19.2111L11.208 19.2203L10.5643 19.2134L10.5556 19.2132L6.654 19.1711L6.5965 19.1706L2.8985 19.1308L2.5497 19.1268H2.5477L1.8136 19.119L1.7985 19.1188L1.2397 19.1128C1.2169 19.218 1.1967 19.3445 1.1789 19.481L1.179 19.5154L1.4149 19.4788C1.43435 19.5426 1.45668 19.6059 1.47902 19.6692C1.48781 19.6941 1.49659 19.719 1.5052 19.7439C1.50726 19.7495 1.50918 19.7553 1.51109 19.761C1.51196 19.7635 1.51282 19.7661 1.5137 19.7687C1.51988 19.7865 1.52576 19.8043 1.53163 19.8221C1.54049 19.8489 1.54934 19.8758 1.5592 19.9024C1.56091 19.9071 1.56247 19.9118 1.56402 19.9165C1.56601 19.9225 1.568 19.9285 1.5703 19.9345C1.57044 19.9352 1.57066 19.9358 1.57087 19.9364C1.57111 19.9371 1.57134 19.9378 1.5715 19.9386L1.5737 20.592L1.574 20.7376L1.5744 20.8459L1.59944 20.8439C1.64903 20.84 1.70271 20.8357 1.7596 20.8309C1.76961 20.8302 1.77982 20.8294 1.79016 20.8285C1.79468 20.8281 1.79923 20.8278 1.8038 20.8274L2.0359 20.8083C2.07968 20.8045 2.12485 20.8009 2.1712 20.7971L2.1722 20.797L2.276 20.7883C2.5964 20.7615 2.9723 20.7299 3.3844 20.695C3.44336 20.6899 3.50306 20.6849 3.56344 20.6797C3.62657 20.6744 3.69045 20.669 3.755 20.6634L4.1742 20.6277C4.265 20.6201 4.3567 20.6122 4.4495 20.6042L5.4772 20.5162C5.6282 20.5034 5.7796 20.4904 5.9313 20.4773L7.41977 20.3494C7.57891 20.3358 7.73581 20.3223 7.8897 20.3089L8.4067 20.2645C8.8131 20.2295 9.1888 20.1972 9.5182 20.1691C10.0179 20.1261 10.4102 20.0927 10.6359 20.0738L10.6639 20.0715C10.7241 20.0664 10.7702 20.0625 10.8018 20.0601C10.8339 20.0576 10.8515 20.0563 10.8512 20.0565C10.8248 20.0747 10.8039 20.0945 10.7834 20.1145C10.7061 20.1892 10.6662 20.2738 10.6476 20.3528C10.6439 20.3687 10.6405 20.3839 10.6382 20.399L10.6378 20.4017C10.625 20.4921 10.6347 20.5681 10.6386 20.5983C10.6388 20.6 10.639 20.6015 10.6392 20.6029L1.7217 21.5864L1.7232 21.5897C1.7503 21.6519 1.7776 21.7144 1.8067 21.7764C1.8473 21.8639 1.8901 21.9509 1.9344 22.0378C1.966 22.0997 1.9983 22.1614 2.0314 22.2232L2.0402 22.2207L2.0764 22.211L2.732 22.0341C2.7488 22.057 2.76676 22.0798 2.78469 22.1027C2.79835 22.1201 2.812 22.1375 2.8251 22.1548L2.83947 22.1739C2.91155 22.2699 2.98352 22.3658 3.0606 22.461L3.061 22.5514L3.0628 23.1171L3.3229 23.0754L3.3917 23.0643L3.4194 23.0599L5.484 22.7287L5.5557 22.7171L10.7327 21.8869C10.7331 21.8769 10.7334 21.8681 10.7336 21.8585C10.7472 21.8854 10.7613 21.9126 10.7759 21.9395C10.8139 21.9891 10.8762 22.0612 10.9468 22.1108C10.9707 22.1275 10.995 22.1423 11.0199 22.1516C11.0667 22.1689 11.1145 22.1873 11.1611 22.206C11.2583 22.2447 11.3478 22.2838 11.3935 22.3136L3.4217 23.792L3.3939 23.7972L3.1327 23.8455C3.2176 23.9486 3.3052 24.051 3.3951 24.1529C3.40082 24.1595 3.4067 24.1661 3.41259 24.1726C3.41606 24.1765 3.41955 24.1804 3.423 24.1843C3.5343 24.3097 3.6483 24.4346 3.7669 24.5586C3.7805 24.5725 3.7939 24.5866 3.8074 24.6005C3.8765 24.6719 3.9466 24.7431 4.0177 24.8139C4.02237 24.8183 4.02665 24.8227 4.03102 24.8273L4.0342 25.7872L4.0343 25.7949V25.804L4.0347 25.9555L4.0354 26.1208V26.151C3.9726 26.1631 3.9159 26.1733 3.8654 26.1815C3.7177 26.2052 3.624 26.2122 3.599 26.1977C3.6513 26.2279 3.7043 26.2721 3.7571 26.3271C3.8515 26.4252 3.9459 26.5585 4.0372 26.7115L4.045 29.185V29.1875C4.023 29.1683 4.00159 29.149 3.98015 29.1296C3.96495 29.1159 3.94974 29.1022 3.9343 29.0885C3.8814 29.042 3.829 28.9952 3.7773 28.9483C3.76599 28.9381 3.75452 28.9279 3.74303 28.9176C3.72426 28.9009 3.70544 28.8841 3.6872 28.8673C3.66046 28.8427 3.63442 28.8179 3.60837 28.793C3.59253 28.7779 3.57669 28.7629 3.5607 28.7478C3.54702 28.735 3.53323 28.7222 3.51944 28.7094C3.49171 28.6836 3.46395 28.6578 3.4369 28.6318C3.4306 28.6258 3.4247 28.6197 3.4183 28.6136C3.3411 28.5392 3.2661 28.4643 3.1916 28.3896C3.17501 28.3728 3.15818 28.3561 3.14137 28.3395C3.12039 28.3187 3.09943 28.2979 3.079 28.277L3.0783 28.2761C2.9875 28.183 2.8997 28.0895 2.8132 27.9956L2.7953 27.9767C2.78903 27.9698 2.78259 27.9631 2.77618 27.9563C2.77042 27.9503 2.76468 27.9443 2.7591 27.9382L2.7566 27.9355C2.74791 27.9259 2.73946 27.9163 2.73101 27.9066C2.72419 27.8989 2.71737 27.8911 2.7104 27.8833C2.7085 27.8809 2.7065 27.8786 2.7044 27.8763C2.6373 27.8017 2.5706 27.727 2.5062 27.652C2.48329 27.6254 2.46128 27.5987 2.43923 27.572C2.42847 27.559 2.41769 27.546 2.4068 27.5329L2.3966 27.5207C2.38528 27.5072 2.37389 27.4937 2.3625 27.4802C2.33063 27.4425 2.29872 27.4047 2.268 27.3668L2.2701 28.0909C2.27395 28.0956 2.27789 28.1003 2.28182 28.105C2.28504 28.1088 2.28825 28.1126 2.2914 28.1164C2.31765 28.1485 2.34451 28.1805 2.37137 28.2126C2.3839 28.2275 2.39643 28.2425 2.4089 28.2574C2.4707 28.3309 2.5335 28.4042 2.5975 28.4773C2.60606 28.4871 2.61461 28.4969 2.62316 28.5067C2.66785 28.5578 2.71255 28.6089 2.7588 28.6598C2.863 28.7742 2.9707 28.888 3.0813 29.0013C3.0996 29.0201 3.11837 29.0388 3.13715 29.0575C3.14843 29.0687 3.15971 29.0799 3.1709 29.0912C3.2588 29.1799 3.3475 29.2684 3.4392 29.3563C3.51188 29.4261 3.58737 29.4955 3.66272 29.5647L3.6895 29.5893C3.806 29.6965 3.9253 29.8032 4.0474 29.9093L4.0502 30.806C3.9277 30.6888 3.8081 30.5707 3.6922 30.4519C3.6065 30.3641 3.5238 30.2756 3.4419 30.1869C3.3184 30.0537 3.1987 29.9195 3.0838 29.7845L3.0915 32.2112C3.1809 32.3149 3.2717 32.4184 3.3662 32.5209C3.38196 32.5381 3.39822 32.5551 3.41451 32.5722C3.42622 32.5845 3.43795 32.5968 3.4495 32.6091C3.5316 32.6968 3.614 32.7846 3.7 32.8715C3.8162 32.9892 3.9353 33.1061 4.0579 33.2222L4.072 37.656C4.09169 37.6726 4.11213 37.6891 4.13258 37.7056C4.1486 37.7186 4.16462 37.7315 4.1803 37.7445C4.20751 37.7671 4.23523 37.7895 4.26291 37.812C4.27399 37.8209 4.28507 37.8299 4.2961 37.8389C4.32129 37.8595 4.3463 37.8802 4.3713 37.9008C4.42629 37.9463 4.48125 37.9917 4.5381 38.0367L4.4987 25.6739V25.6568L4.4971 25.13C4.43038 25.0773 4.36575 25.0239 4.30117 24.9706C4.27525 24.9492 4.24934 24.9278 4.2233 24.9065C4.20931 24.895 4.1952 24.8836 4.1811 24.8721C4.15721 24.8528 4.13333 24.8334 4.11 24.8139C4.09753 24.8034 4.08469 24.7931 4.07186 24.7828C4.05804 24.7717 4.04423 24.7606 4.0309 24.7493L4.9592 24.3736C4.98786 24.3979 5.01757 24.4219 5.04727 24.4458C5.06835 24.4628 5.08942 24.4798 5.1101 24.4969L5.1147 24.5006C5.1513 24.5309 5.1884 24.5611 5.2255 24.5912C5.24925 24.6105 5.27274 24.63 5.29623 24.6494C5.33871 24.6845 5.38119 24.7196 5.4253 24.7543L5.4273 25.396L8.8135 24.4448L8.811 24.4485L10.0073 24.1113L10.0107 24.1085L11.9669 23.5592L12.0754 23.5285C12.0754 23.5285 12.1176 23.5319 12.1844 23.5385C12.2511 23.5451 12.3421 23.5549 12.4395 23.5676L12.4515 23.5692C12.4719 23.5719 12.4926 23.5746 12.5133 23.5776C12.5629 23.5847 12.6131 23.5924 12.6612 23.6008C12.6855 23.605 12.7092 23.6093 12.7321 23.614C12.7781 23.6231 12.8209 23.6329 12.8587 23.6432C12.8965 23.6536 12.929 23.6646 12.9542 23.6762C12.9845 23.6901 12.7486 23.7752 12.3351 23.9062C11.6982 24.1078 10.6387 24.418 9.4721 24.7463C9.1571 24.8349 8.8345 24.9248 8.5102 25.0142C8.3191 25.067 8.1277 25.1195 7.9368 25.1716L7.7115 25.2328C7.5752 25.2697 7.4396 25.3063 7.3053 25.3423C6.9226 25.4449 6.5492 25.5435 6.1955 25.6352L6.18314 25.6384C6.13704 25.6504 6.09134 25.6623 6.0458 25.6739L5.7852 25.7407C5.663 25.7719 5.544 25.8019 5.4287 25.8306L5.4294 26.0732L5.4392 26.0693C5.5532 26.159 5.6692 26.2482 5.7871 26.3369C6.1057 26.5765 6.4388 26.8116 6.7847 27.0421C6.79741 27.0506 6.80988 27.0591 6.82236 27.0676C6.83571 27.0767 6.84906 27.0859 6.8627 27.0949C6.92218 27.1341 6.98366 27.1724 7.0452 27.2108C7.06508 27.2232 7.08497 27.2356 7.1048 27.248V27.2701L7.1059 27.5889V27.5966L7.108 28.2904L7.1082 28.3148L7.0828 28.2998C6.9594 28.346 6.8486 28.3858 6.7517 28.419C6.6019 28.4702 6.4859 28.5048 6.4113 28.5194C6.3833 28.525 6.3605 28.5278 6.3444 28.5275C6.4056 28.5574 6.4686 28.6013 6.5327 28.6564C6.6054 28.7187 6.6793 28.7943 6.7532 28.8803C6.7783 28.9098 6.8035 28.9405 6.8286 28.9719C6.9251 29.0926 7.0204 29.2268 7.1116 29.3652L7.1178 31.3754C7.09082 31.3597 7.06372 31.3436 7.03664 31.3275C7.02879 31.3228 7.02094 31.3182 7.0131 31.3135C6.98655 31.2978 6.96004 31.2822 6.93354 31.2666C6.87581 31.2326 6.81815 31.1987 6.7603 31.1639C6.6076 31.072 6.4577 30.9771 6.3091 30.8813C6.29161 30.87 6.27369 30.8589 6.25578 30.8479C6.235 30.835 6.21424 30.8222 6.1942 30.809C6.061 30.7209 5.9297 30.6322 5.8005 30.543C5.6794 30.4593 5.5604 30.3753 5.4428 30.2906C5.4396 30.2882 5.43622 30.2859 5.43284 30.2836C5.43115 30.2824 5.42947 30.2813 5.4278 30.2801C5.304 30.1907 5.1823 30.1009 5.0626 30.0107C5.01895 29.9777 4.97615 29.9444 4.93342 29.9112C4.91193 29.8945 4.89045 29.8778 4.8689 29.8612C4.84978 29.8464 4.83053 29.8317 4.81128 29.817C4.77698 29.7908 4.7427 29.7646 4.7092 29.7381L4.7114 30.4622C4.74662 30.4901 4.78279 30.5178 4.81896 30.5454C4.83641 30.5588 4.85386 30.5721 4.8712 30.5855C5.0578 30.7298 5.2483 30.8732 5.4451 31.0151C5.5627 31.0996 5.6817 31.1837 5.8028 31.2673C5.932 31.3565 6.0631 31.445 6.1962 31.5331C6.28819 31.5938 6.38314 31.6524 6.47816 31.711C6.50162 31.7255 6.52508 31.74 6.5485 31.7545C6.57589 31.7715 6.60303 31.7887 6.63015 31.8058C6.67403 31.8335 6.71786 31.8613 6.7626 31.8882C6.86845 31.9519 6.97406 32.0139 7.07957 32.0759L7.1201 32.0997L7.1232 33.018L7.1235 33.16C7.0024 33.0859 6.8829 33.011 6.766 32.9352C6.75589 32.9286 6.74562 32.9221 6.73533 32.9155C6.72252 32.9074 6.70969 32.8992 6.6971 32.8909C6.3892 32.6876 6.0925 32.4803 5.806 32.2698C5.6844 32.1804 5.5659 32.0903 5.4483 31.9997L5.456 34.4054C5.5734 34.4953 5.6922 34.5847 5.8137 34.6732C6.0849 34.8712 6.3642 35.0665 6.6545 35.2583C6.67851 35.2741 6.70304 35.2897 6.72758 35.3053C6.743 35.3151 6.75842 35.3249 6.7737 35.3347C6.8907 35.4099 7.0099 35.4845 7.1312 35.558L7.1447 39.8139C7.1447 39.8139 7.2416 39.8701 7.3599 39.9383C7.4841 40.0098 7.6316 40.0946 7.7174 40.1425L7.7062 36.5894V36.5872L7.6894 31.3478L7.6892 31.2456L7.6865 30.4542L7.6864 30.3671L7.6767 27.3593V27.3518L7.6764 27.216C7.64939 27.2009 7.62302 27.1857 7.59668 27.1705C7.57494 27.158 7.55322 27.1455 7.5312 27.1331L7.4289 27.0746C7.4081 27.0626 7.3874 27.0508 7.3667 27.0391C7.34327 27.0256 7.31962 27.0122 7.29598 26.9988C7.25747 26.9769 7.21899 26.9551 7.1815 26.9331L7.1356 26.9062L7.1035 26.8872L7.5165 26.6489L7.5408 26.635L7.906 26.4241C7.92651 26.4365 7.94731 26.4487 7.96842 26.461C7.97468 26.4647 7.98098 26.4684 7.9873 26.4721C8.01129 26.4861 8.03574 26.5 8.06022 26.5138C8.08023 26.5251 8.10027 26.5364 8.1201 26.5479L8.1823 26.5834C8.198 26.5925 8.2139 26.6016 8.2298 26.6105C8.25659 26.6258 8.28321 26.6411 8.30982 26.6565C8.3599 26.6853 8.40994 26.7142 8.461 26.7427L8.4786 26.7527L8.4795 27.0184V27.026L13.8781 24.7837C13.8781 24.7837 14.0676 24.7736 14.2872 24.7741C14.5068 24.7746 14.7564 24.7857 14.8766 24.8282C14.913 24.841 14.619 24.9957 14.1218 25.2347C12.9493 25.7981 10.6423 26.8316 8.8381 27.591L8.83711 27.5914C8.83389 27.5929 8.83085 27.5942 8.8274 27.5955C8.7648 27.6219 8.7027 27.6479 8.6412 27.6736C8.5876 27.6961 8.5343 27.7184 8.4818 27.7402L8.4827 28.0693L8.489 28.0656C8.55613 28.1031 8.62487 28.1401 8.69357 28.177C8.73162 28.1974 8.76966 28.2179 8.8074 28.2384L8.8403 28.2561C8.87292 28.2738 8.90536 28.2916 8.93779 28.3094C9.00886 28.3484 9.07988 28.3874 9.1526 28.4256C9.19263 28.4466 9.23291 28.467 9.27316 28.4874C9.30128 28.5016 9.32939 28.5159 9.3574 28.5303C9.6957 28.7043 10.0354 28.8712 10.3768 29.03L10.3925 29.0373L10.4048 29.03L10.7331 28.8379L10.7361 29.8376V29.8398L10.7363 29.8785L10.7365 29.9281L10.7372 30.1593C10.6446 30.1199 10.5522 30.0799 10.4601 30.0398L10.3802 30.0856C10.3247 30.1172 10.2714 30.1475 10.22 30.1762C9.7993 30.4115 9.5176 30.5464 9.4572 30.5257C9.7993 30.6424 10.1094 30.8534 10.3465 31.1451L10.3838 31.1906L10.7418 31.6311L10.7449 32.5447V32.5723L10.747 33.2181C10.6275 33.1675 10.5083 33.1163 10.3897 33.064C9.8705 32.8356 9.3587 32.5918 8.8531 32.3338C8.81952 32.3166 8.78587 32.2996 8.7522 32.2825C8.6862 32.2491 8.62016 32.2157 8.5546 32.1813C8.54364 32.1756 8.53296 32.1697 8.52225 32.1637C8.51351 32.1589 8.50474 32.1541 8.4958 32.1493L8.4981 32.8736C8.508 32.8789 8.51772 32.8843 8.52745 32.8896C8.53718 32.895 8.5469 32.9003 8.5568 32.9056C8.62317 32.9404 8.69003 32.9742 8.75687 33.0081C8.78974 33.0247 8.8226 33.0414 8.8554 33.0581C9.361 33.3161 9.8728 33.5599 10.392 33.7883C10.5106 33.8406 10.6298 33.8918 10.7493 33.9423L10.7529 35.0719C10.6335 35.0193 10.5144 34.9668 10.3955 34.9124C9.9253 34.6972 9.4575 34.4691 8.9931 34.2252C8.96843 34.2123 8.94423 34.1991 8.92002 34.1859C8.89978 34.1748 8.87954 34.1638 8.859 34.1529C8.7387 34.0891 8.6194 34.025 8.5015 33.9603L8.5091 36.3548C8.6272 36.4195 8.7461 36.4837 8.8665 36.5474C8.88106 36.5551 8.89536 36.5629 8.90966 36.5707C8.92483 36.579 8.94001 36.5872 8.9555 36.5954C9.4347 36.847 9.9176 37.0817 10.403 37.3028C10.522 37.357 10.6412 37.41 10.7604 37.4624L10.7736 41.6308C10.8364 41.657 10.8994 41.6822 10.9626 41.7074C11.001 41.7227 11.0395 41.7381 11.0779 41.7537C11.1169 41.7695 11.1559 41.7854 11.1949 41.8013C11.2748 41.834 11.3548 41.8667 11.4351 41.898L11.4078 33.2804L11.4074 33.1949L11.4044 32.2307V32.2203L11.3957 29.4848V29.4815L11.3941 28.9715C11.3824 28.967 11.3709 28.9623 11.3594 28.9576C11.3517 28.9544 11.344 28.9512 11.3362 28.9481C11.3098 28.9378 11.2836 28.927 11.2573 28.9162C11.2368 28.9078 11.2163 28.8994 11.1957 28.8912C11.1611 28.8775 11.1265 28.8635 11.0919 28.8494L11.0647 28.8384C11.0392 28.828 11.0135 28.8177 10.9879 28.8075C10.9479 28.7914 10.9078 28.7754 10.8679 28.7588C10.848 28.7506 10.8279 28.7426 10.8078 28.7346C10.7827 28.7246 10.7575 28.7146 10.7325 28.7041L11.1957 28.323L11.2986 28.2381L11.3842 28.1678C11.4421 28.192 11.5002 28.2152 11.5582 28.2384C11.5952 28.2531 11.6322 28.2679 11.6691 28.2829L11.6763 28.2857L15.9008 25.8131C15.9008 25.8131 15.9836 25.7994 16.1056 25.7826C16.1452 25.7772 16.1898 25.7715 16.2362 25.7658C16.2756 25.761 16.3163 25.7562 16.3587 25.7516C16.6049 25.7253 16.8859 25.708 17.0245 25.7437C17.0657 25.7542 16.7457 25.9931 16.2166 26.3586C15.3067 26.9873 13.7785 27.991 12.4038 28.8562L12.3872 28.8666L12.2593 28.9469C12.1883 28.9915 12.1176 29.0357 12.0477 29.0792L12.0498 29.7573L12.0591 29.7497C12.1307 29.7776 12.2026 29.8039 12.2746 29.8303C12.3188 29.8465 12.363 29.8626 12.4072 29.8792C12.44 29.8915 12.4728 29.9038 12.5057 29.9162C12.6005 29.9519 12.6954 29.9877 12.7906 30.0217C13.0921 30.1298 13.3941 30.2335 13.6972 30.3309L18.1795 26.6168C18.1795 26.6168 18.3013 26.5808 18.4701 26.5385C18.5227 26.5255 18.58 26.5117 18.6394 26.4982L18.6519 26.4951C18.6961 26.4851 18.7418 26.4755 18.7877 26.4662C18.7935 26.465 18.7993 26.4639 18.8051 26.4629C18.8104 26.4619 18.8157 26.4609 18.8212 26.4598C18.8622 26.4518 18.9031 26.4445 18.9436 26.4377C18.9582 26.4352 18.9727 26.4329 18.9871 26.4307C19.0376 26.4229 19.0874 26.4159 19.1338 26.4116C19.1924 26.4059 19.2469 26.4036 19.2938 26.4052C19.3173 26.4061 19.3391 26.4081 19.3585 26.4113C19.4044 26.4186 19.0945 26.76 18.5961 27.2696C18.2732 27.5996 17.8714 27.9997 17.4334 28.4279C17.237 28.6199 17.034 28.8168 16.8272 29.0156C16.6772 29.1601 16.5254 29.3049 16.3736 29.4494C16.2844 29.5343 16.1952 29.6187 16.1061 29.7028L16.1102 31.0069L16.12 30.9949C16.1893 31.0107 16.2588 31.025 16.3283 31.0393C16.3746 31.0489 16.4209 31.0584 16.4672 31.0684C16.7143 31.1214 16.9617 31.1724 17.2094 31.2192C17.2279 31.2227 17.2463 31.2256 17.2648 31.2291L20.5376 27.1318C20.5376 27.1318 20.7167 27.0617 20.9467 26.9847C20.963 26.9792 20.9797 26.9736 20.9965 26.9681C21.0135 26.9625 21.0306 26.9569 21.048 26.9513L21.0664 26.9458C21.1301 26.9254 21.1948 26.9054 21.2603 26.8867C21.3611 26.858 21.4608 26.8328 21.5518 26.8148L21.5819 26.8091C21.6403 26.7982 21.6949 26.7906 21.7423 26.7879C21.7677 26.7865 21.7912 26.7865 21.8124 26.7879C21.8577 26.7909 21.6392 27.1798 21.2804 27.7618C21.2588 27.7969 21.2357 27.834 21.2129 27.8707L21.2046 27.8841C21.1012 28.0508 20.9882 28.2302 20.8674 28.4199C20.6527 28.7572 20.4152 29.1238 20.1678 29.4999C20.0871 29.6225 20.0056 29.7456 19.9235 29.8692C19.835 30.0023 19.7462 30.1352 19.6574 30.2676L19.6071 30.3421C19.5621 30.4089 19.5171 30.4756 19.4724 30.5416C19.3389 30.7385 19.2067 30.9319 19.0774 31.1189C18.9914 31.2431 18.9075 31.3631 18.8249 31.4807C18.8731 31.4871 18.9214 31.4926 18.9696 31.498C19.0059 31.5022 19.0423 31.5063 19.0786 31.5108C19.1976 31.5256 19.3166 31.5394 19.4356 31.5529L19.4372 32.0517V32.0792L19.4383 32.3991C19.3635 32.391 19.289 32.3818 19.2145 32.3726C19.1702 32.3671 19.1258 32.3616 19.0813 32.3563C19.0349 32.3507 18.9884 32.3452 18.942 32.3395C18.7174 32.3119 18.4935 32.2824 18.2705 32.2501C17.8955 32.7538 17.6206 33.0793 17.5444 33.0717C17.5656 33.0744 17.5865 33.0789 17.6075 33.0834C17.6208 33.0863 17.6342 33.0892 17.6477 33.0916C17.9424 33.1459 18.2262 33.2638 18.4737 33.4499L19.444 34.1801L19.4442 34.2457L19.4444 34.2514L19.4465 34.9418V34.9534L19.4543 37.3793C19.4179 37.3754 19.3814 37.3716 19.345 37.3678C19.2625 37.3591 19.18 37.3505 19.0974 37.3406C18.9518 37.3231 18.8065 37.3034 18.6612 37.2837L18.615 37.2774C17.9033 37.1809 17.1933 37.0594 16.4859 36.9112C16.3668 36.8862 16.2478 36.86 16.129 36.8334L16.1366 39.2159C16.2555 39.2423 16.3744 39.2682 16.4936 39.293C17.3608 39.4739 18.2319 39.6164 19.105 39.7201C19.1933 39.7306 19.2815 39.7397 19.3698 39.7489C19.4005 39.7521 19.4313 39.7553 19.462 39.7586L19.4745 43.6759L19.497 43.6783C19.5846 43.6874 19.6725 43.6966 19.7601 43.7052C19.7913 43.7083 19.8225 43.7109 19.8537 43.7135C19.8753 43.7153 19.8969 43.7171 19.9185 43.7191L19.9619 43.7231C20.0663 43.7327 20.1707 43.7423 20.2753 43.7507L20.2447 34.1802L20.2445 34.1569L20.2422 33.4046V33.3985L20.2364 31.6423L20.2363 31.5874L20.2343 30.9842C20.1301 30.9757 20.0261 30.9662 19.9222 30.9568L19.8811 30.953C19.8621 30.9513 19.8431 30.9497 19.8241 30.9481C19.789 30.9451 19.754 30.9421 19.7191 30.9387C19.6484 30.9318 19.5774 30.9244 19.5064 30.917C19.4821 30.9145 19.4578 30.912 19.4335 30.9095L19.7305 30.2745C19.7332 30.2749 19.7359 30.2751 19.7385 30.2752C19.8313 30.2848 19.9242 30.2927 20.0172 30.3007C20.0631 30.3046 20.109 30.3086 20.1549 30.3127C20.1992 30.3166 20.2435 30.3208 20.2879 30.325C20.3695 30.3327 20.4512 30.3404 20.5329 30.3466L20.5372 31.6746V31.6809L20.5399 31.675L20.5463 31.6612C20.6173 31.6667 20.6882 31.6707 20.7591 31.6747C20.804 31.6772 20.849 31.6797 20.894 31.6826C20.904 31.6834 20.914 31.6839 20.9242 31.6846L23.0896 27.3627C23.0896 27.3627 23.097 27.3584 23.1106 27.3506C23.1242 27.3428 23.1441 27.3316 23.1692 27.3175C23.1968 27.3022 23.2318 27.2831 23.2705 27.2622C23.291 27.2512 23.3128 27.2396 23.3358 27.2276C23.3611 27.2143 23.3875 27.2005 23.4152 27.1864C23.4587 27.1641 23.504 27.1411 23.5518 27.1179C23.5966 27.0963 23.6482 27.0746 23.7028 27.0533C23.9572 26.9545 24.2774 26.8682 24.2774 26.8682L22.5328 31.7497C22.7505 31.7529 22.9679 31.7538 23.1854 31.7526C23.3852 31.7517 23.5848 31.7474 23.7846 31.7428C23.8231 31.7419 23.8617 31.7412 23.9002 31.7404C23.9806 31.7388 24.061 31.7372 24.1414 31.7346L24.143 32.251V32.2879L24.1441 32.5711C24.0686 32.5734 23.9934 32.5745 23.9182 32.5756C23.8746 32.5763 23.831 32.5769 23.7873 32.5778C23.5306 32.5836 23.2742 32.5875 23.0186 32.5875C22.7572 32.5875 22.4961 32.5866 22.236 32.5807L21.9036 33.5107C22.2954 33.4814 22.6934 33.5667 23.043 33.7721L24.15 34.4214L24.153 35.3343V35.3737L24.16 37.5386C24.0412 37.5431 23.9222 37.5474 23.8032 37.5506C22.8409 37.5768 21.8765 37.5611 20.9128 37.5024L20.8858 37.5008C20.7945 37.4952 20.7032 37.4897 20.612 37.4833C20.6016 37.4825 20.5913 37.4819 20.5809 37.4813C20.5726 37.4808 20.5642 37.4803 20.5558 37.4797L20.5635 39.858C20.5822 39.8594 20.6009 39.8603 20.6196 39.8616C20.7199 39.8687 20.8202 39.8748 20.9204 39.8808C21.8841 39.939 22.8486 39.954 23.8109 39.9276C23.9299 39.9242 24.0489 39.9197 24.1677 39.9151L24.1803 43.8315C24.4199 43.8238 24.6611 43.8128 24.9021 43.8003C24.9194 43.7993 24.9367 43.7987 24.9539 43.798C24.968 43.7975 24.9821 43.7969 24.9962 43.7962L24.9689 35.3332L24.9687 35.2917L24.9653 34.1947L24.9649 34.124L24.9551 31.0415C24.9412 31.0422 24.9271 31.0425 24.913 31.0433C24.6622 31.0566 24.4115 31.0677 24.1623 31.0759C24.1584 31.076 24.1545 31.0762 24.1505 31.0764C24.1468 31.0765 24.143 31.0767 24.1393 31.0768L24.2422 30.4169C24.5029 30.4074 24.763 30.3946 25.0224 30.3791L25.5292 27.2997L25.5299 27.2952C25.5299 27.2952 25.5777 27.2594 25.655 27.2052C25.6935 27.178 25.7396 27.1463 25.7904 27.1122C25.8414 27.078 25.8974 27.0414 25.9563 27.0046C26.0145 26.9681 26.0862 26.9304 26.1611 26.8942C26.2225 26.8648 26.2858 26.8364 26.3458 26.8105C26.5083 26.7406 26.6456 26.6901 26.6456 26.6901L26.6414 27.629L26.641 27.6947L26.6233 31.5604C27.0579 31.5144 27.4916 31.4609 27.9242 31.3993C28.0657 31.3792 28.2068 31.3578 28.3478 31.336L28.3645 31.3335C28.384 31.3307 28.4035 31.3278 28.4229 31.3248L27.7612 26.9996C27.7612 26.9996 27.7652 26.9962 27.7726 26.9899C27.7779 26.9854 27.7851 26.9794 27.7938 26.9722C27.8252 26.9459 27.8777 26.9028 27.9439 26.8507C27.9473 26.848 27.951 26.8451 27.9546 26.8425C27.9833 26.8198 28.0147 26.7955 28.0477 26.7704C28.0882 26.7397 28.1305 26.708 28.1752 26.6755C28.346 26.5522 28.5406 26.4254 28.6999 26.3585C28.754 26.3358 28.8039 26.3199 28.8475 26.3135C28.8776 26.3091 29.0048 26.5966 29.1821 27.0496C29.2173 27.1393 29.2544 27.2358 29.2933 27.3379C29.3348 27.4474 29.3784 27.5637 29.4233 27.6851C29.5489 28.0242 29.6852 28.4031 29.8233 28.7983C29.8736 28.9421 29.9239 29.0876 29.9741 29.2341C30.0672 29.5062 30.1594 29.7804 30.2474 30.0494C30.3478 30.3559 30.4425 30.6545 30.5282 30.9346C30.569 30.9258 30.6098 30.9172 30.6507 30.9086C30.7157 30.895 30.7806 30.8813 30.8455 30.8668C31.1583 30.7969 31.4703 30.7226 31.7805 30.6452L31.7823 30.6447L29.9346 26.5435C29.9346 26.5435 30.0845 26.3736 30.2766 26.1956C30.4686 26.0177 30.7025 25.8315 30.8705 25.7992L32.996 29.0016C33.036 28.9903 33.0759 28.9791 33.1159 28.9679C33.1987 28.9448 33.2814 28.9216 33.3638 28.8975L33.6594 29.5434C33.6066 29.5586 33.5539 29.5731 33.5012 29.5875C33.4684 29.5965 33.4357 29.6054 33.4029 29.6146L33.3423 29.6316C33.2007 29.6715 33.0589 29.7114 32.9171 29.7495L32.9278 33.0808V33.09L32.9582 42.4587ZM31.2749 32.6394C31.501 32.6478 31.727 32.6908 31.9434 32.7793L32.5708 33.0121L32.6363 33.0363L32.6347 32.5415V32.537L32.1343 31.4259L32.1325 31.4265C31.9293 31.4739 31.7054 31.5253 31.4737 31.5777C31.2364 31.6316 30.9934 31.6857 30.7592 31.7374C30.7783 31.8089 30.7958 31.8771 30.8118 31.9419C30.9176 32.3705 30.956 32.6474 30.8839 32.6592C31.0129 32.6381 31.1438 32.6344 31.2749 32.6394ZM29.4118 43.261C29.4529 43.2542 29.494 43.2476 29.5352 43.2403L29.5225 39.3021C29.9343 39.224 30.3451 39.1399 30.7538 39.0486C31.3697 38.911 31.9812 38.7569 32.5889 38.5905C32.603 38.5867 32.617 38.5827 32.6312 38.5787C32.6389 38.5766 32.6466 38.5744 32.6543 38.5723L32.6467 36.1967L32.5812 36.2149C31.9734 36.3813 31.3615 36.5357 30.7455 36.6734C30.3367 36.7645 29.9264 36.8486 29.5149 36.9265L29.4942 30.5122C29.4793 30.5148 29.4644 30.5171 29.4495 30.5196C29.4442 30.5205 29.4388 30.5214 29.4335 30.5223C29.1928 30.5646 28.952 30.6053 28.7112 30.6431L28.7092 30.6434C28.7069 30.6439 28.7046 30.6443 28.7024 30.6445L28.7435 43.3728C28.9486 43.3407 29.1536 43.3054 29.3588 43.2699C29.3765 43.2668 29.3941 43.2639 29.4118 43.261ZM28.3742 39.5008L28.5122 39.4791L28.5046 37.1033C28.4707 37.1088 28.4369 37.1142 28.4031 37.1195C28.3909 37.1214 28.3787 37.1234 28.3665 37.1253C27.3612 37.2837 26.349 37.4025 25.3326 37.4755C25.2782 37.4794 25.2237 37.4827 25.1692 37.486C25.1401 37.4877 25.1111 37.4895 25.082 37.4913L25.0896 39.8678C25.1231 39.8656 25.1566 39.8635 25.1902 39.8615C25.2402 39.8584 25.2903 39.8554 25.3403 39.8518C26.3566 39.7784 27.3689 39.6594 28.3742 39.5008ZM28.3602 33.8357L28.4942 33.8937L28.4887 32.1657C28.4634 32.1696 28.4385 32.1732 28.4135 32.1769C28.3926 32.1799 28.3717 32.1829 28.3506 32.1861C27.7635 32.2742 27.1899 32.3482 26.6194 32.4073L26.6151 33.3307C26.9536 33.3032 27.2989 33.3633 27.6163 33.5139L28.356 33.8338L28.3602 33.8357ZM15.1766 42.968C15.2205 42.9784 15.2643 42.9889 15.3081 42.9996C15.3492 43.0096 15.3902 43.0197 15.4313 43.0299C15.5092 43.0491 15.5871 43.0684 15.6653 43.0865L15.6309 32.3502L15.6307 32.3204L15.6241 30.2745C15.6055 30.2703 15.5869 30.2656 15.5684 30.261C15.5529 30.2571 15.5373 30.2533 15.5217 30.2496C15.4712 30.2377 15.4208 30.2253 15.3705 30.2129C15.3399 30.2054 15.3093 30.1979 15.2787 30.1905C15.2353 30.18 15.1919 30.1696 15.1485 30.1592C15.0589 30.1377 14.9693 30.1163 14.88 30.0935L14.8846 31.5697C14.7968 31.5467 14.7093 31.5225 14.6218 31.4983C14.5904 31.4896 14.559 31.4809 14.5276 31.4723C14.4707 31.457 14.4138 31.4418 14.3571 31.4259C14.3399 31.4211 14.3227 31.4165 14.3054 31.4119C14.2854 31.4066 14.2652 31.4012 14.2452 31.3956C14.2209 31.4163 14.1977 31.4359 14.1746 31.4554C14.1619 31.4661 14.1493 31.4767 14.1366 31.4875C13.9261 31.6648 13.7473 31.8075 13.6123 31.9031C13.4788 31.9977 13.3861 32.0485 13.349 32.0407C13.7231 32.1204 14.0759 32.289 14.3334 32.5382L14.8898 33.161L14.9007 36.5332C14.7815 36.501 14.6625 36.4675 14.5436 36.434C13.8336 36.2336 13.1272 36.0058 12.4259 35.748C12.3066 35.7043 12.1876 35.659 12.0688 35.6133L12.0763 38.0016C12.1952 38.0469 12.3142 38.0915 12.4336 38.1352C13.1349 38.3917 13.8412 38.6188 14.5512 38.8181C14.5755 38.8249 14.5997 38.8317 14.624 38.8386C14.7187 38.8652 14.8133 38.8919 14.9084 38.9173L14.921 42.9054C15.0059 42.9271 15.0913 42.9475 15.1766 42.968ZM12.0561 31.6907L12.1043 31.6509L12.9121 30.9815C12.8679 30.9667 12.8237 30.952 12.7796 30.9373C12.656 30.8962 12.5325 30.8552 12.41 30.8117C12.3356 30.7852 12.2618 30.7574 12.188 30.7296C12.143 30.7126 12.098 30.6957 12.0529 30.679L12.0561 31.6907ZM16.1129 31.8607L16.1154 32.6205V32.6301L16.1156 32.6679L16.1363 32.6421L16.1411 32.636L16.6659 31.9788C16.6295 31.9717 16.5934 31.9637 16.5573 31.9558C16.5283 31.9494 16.4993 31.943 16.4701 31.937C16.3695 31.9164 16.2694 31.8947 16.1692 31.8729C16.1504 31.8688 16.1317 31.8648 16.1129 31.8607ZM8.4893 30.1511L8.5045 30.1423L9.4627 29.5814C9.2552 29.4814 9.0488 29.3788 8.8435 29.2739C8.81693 29.2604 8.79034 29.2469 8.76375 29.2335C8.6946 29.1985 8.62549 29.1635 8.5568 29.1274C8.54402 29.1207 8.5315 29.1138 8.51898 29.107C8.50808 29.101 8.49718 29.095 8.4861 29.0891L8.4893 30.1172V30.1511ZM1.7301 30.231L1.7464 35.3381C1.80289 35.4153 1.86347 35.4921 1.92412 35.569C1.93809 35.5868 1.95207 35.6045 1.966 35.6222C1.98176 35.6422 1.99696 35.6622 2.01216 35.6823C2.03295 35.7097 2.05372 35.7371 2.0759 35.7643L2.038 23.7467V23.7446L2.0366 23.2818L2.0364 23.2773L2.0348 22.7375C1.9726 22.6609 1.9141 22.5838 1.85561 22.5066C1.84282 22.4897 1.83003 22.4729 1.8172 22.456L1.8088 22.4451C1.80412 22.439 1.79938 22.4329 1.79465 22.4268C1.78837 22.4188 1.7821 22.4108 1.776 22.4026C1.76581 22.3891 1.75515 22.3756 1.74448 22.3621C1.73106 22.3452 1.71763 22.3282 1.7051 22.3111L1.7055 22.4003L1.7082 23.2388L1.7084 23.3344L1.7091 23.5199V23.5572L1.7205 27.1356L1.7208 27.2815L1.7212 27.353L1.7225 27.7537C1.71725 27.7431 1.71227 27.7326 1.7073 27.722C1.7028 27.7124 1.6983 27.7028 1.6936 27.6933L1.68488 27.6753C1.65419 27.6121 1.62358 27.549 1.5949 27.4854L1.5963 27.9956L1.5965 28.0433L1.6024 29.9698C1.61324 29.9926 1.62386 30.0154 1.63448 30.0382C1.65619 30.0848 1.67789 30.1315 1.7014 30.1778C1.70603 30.1869 1.71102 30.1959 1.71601 30.2049C1.72082 30.2136 1.72563 30.2223 1.7301 30.231ZM11.1083 7.75771L11.0906 7.7674L11.0956 9.414C11.4993 8.8508 12.1328 8.4985 12.8196 8.4414L12.8148 6.8429C12.0974 7.21682 11.2882 7.65933 11.1083 7.75771ZM9.7216 8.5954C9.2627 8.8833 8.8121 9.1778 8.3736 9.4795L8.3784 11.0592L8.4315 10.9779L8.4356 10.9718L8.4399 10.9658C8.7414 10.5433 9.2177 10.2227 9.7262 10.0705L9.7216 8.5954ZM6.9369 10.5346C6.5819 10.8086 6.2365 11.0867 5.9033 11.3695L5.9079 12.8684L6.001 12.7044C6.2124 12.3175 6.5473 12.0247 6.941 11.8617L6.9369 10.5346ZM3.7328 13.4728L3.7369 14.829L3.8477 14.5946C3.9772 14.3125 4.1815 14.0799 4.4288 13.911L4.4252 12.7396C4.1858 12.9817 3.9535 13.2257 3.7328 13.4728ZM3.4064 25.5459C3.4041 25.5435 3.4017 25.5412 3.3992 25.5389C3.36869 25.5093 3.33878 25.4796 3.30888 25.4499C3.29477 25.4358 3.28067 25.4218 3.2665 25.4078C3.25208 25.3935 3.23763 25.3792 3.22318 25.3649C3.17129 25.3136 3.11946 25.2623 3.0694 25.2106L3.072 26.0577L3.7498 25.8672C3.6793 25.8029 3.6096 25.7385 3.5411 25.6739C3.53025 25.6638 3.5192 25.6536 3.50813 25.6435C3.49278 25.6295 3.47742 25.6154 3.4626 25.6013C3.45618 25.5952 3.45005 25.5891 3.44392 25.583C3.4384 25.5775 3.43289 25.5721 3.4272 25.5666C3.42338 25.5629 3.4197 25.5592 3.41601 25.5555C3.41284 25.5523 3.40968 25.5491 3.4064 25.5459ZM51.042 10.5446C50.7748 10.1856 50.4708 9.8283 50.1304 9.4727L50.135 10.9909C50.5325 11.3108 50.8401 11.7513 51.0026 12.2615L51.0477 12.4031L51.042 10.5446ZM48.7247 8.19032C48.5694 8.07687 47.7543 7.48127 47.0833 7.0163L47.0955 8.6334C47.157 8.6594 47.2162 8.6867 47.271 8.7156C47.8442 9.0189 48.318 9.5025 48.642 10.1141L48.748 10.2984L48.7416 8.2027L48.7247 8.19032ZM45.7084 6.1545C45.4276 5.9932 44.2596 5.3936 43.4354 4.9947L43.4466 6.5416C44.015 6.6306 44.5342 6.9204 44.9067 7.3726L45.7248 8.369L45.7084 6.1545ZM28.9056 2.2359C27.6896 2.2928 26.4458 2.4297 25.2176 2.6307L25.2231 4.4231L25.6712 4.1327C26.0675 3.8604 26.5311 3.7165 27.0123 3.7165C27.3617 3.7165 27.7132 3.7959 28.0245 3.9439L28.9122 4.3512L28.9056 2.2359ZM24.3318 2.7776C23.7326 2.9015 21.705 3.3877 21.0847 3.5638L21.0901 5.3403L21.4315 5.04C21.8642 4.6595 22.4195 4.4501 22.9958 4.4501C23.2964 4.4501 23.5907 4.5064 23.8703 4.6178L24.338 4.8038L24.3318 2.7776ZM20.0548 3.8747C19.1459 4.1577 18.2558 4.465 17.3897 4.7951L17.3951 6.5199L17.5924 6.3209C18.0377 5.8501 18.6647 5.58 19.3129 5.58C19.5682 5.58 19.8188 5.623 20.0604 5.7035L20.0548 3.8747ZM16.234 5.2534C15.4989 5.5567 14.7808 5.874 14.0833 6.2041L14.0884 7.8909L14.1696 7.7993C14.6213 7.2465 15.2892 6.9298 16.0036 6.9298C16.0826 6.9298 16.1611 6.9348 16.2392 6.9427L16.234 5.2534ZM30.1496 3.8253C30.4907 3.644 30.875 3.5482 31.2612 3.5482C31.6876 3.5482 32.1065 3.6635 32.4725 3.8815L33.541 4.4827L33.5346 2.3539C32.3186 2.2354 31.0792 2.1853 29.8253 2.2079L29.8308 3.9894L30.1496 3.8253ZM35.5039 3.9989C36.0168 3.9989 36.524 4.1693 36.9329 4.4784L38.0201 5.2584L38.0135 3.1126C36.9136 2.8446 35.7822 2.6345 34.6282 2.4819L34.6333 4.166C34.9118 4.0558 35.2044 3.9989 35.5039 3.9989ZM39.5028 5.0202C40.117 5.0202 40.6995 5.2545 41.1383 5.6757L42.1092 6.5766V4.4144C41.1826 4.0463 40.2213 3.7215 39.2344 3.4385L39.2393 5.0366C39.3267 5.0268 39.4144 5.0202 39.5028 5.0202Z" fill="#4BBDCF"/>
</svg>
