<svg width="59" height="43" viewBox="0 0 59 43" fill="none" xmlns="http://www.w3.org/2000/svg">
<path d="M18.8854 38.4273C15.1121 37.9538 11.6415 36.8672 8.89051 35.2683C6.91261 34.1191 5.38771 32.757 4.39701 31.2675C5.39031 32.4177 6.69271 33.4636 8.28721 34.3904C11.1865 36.0752 14.852 37.2116 18.8299 37.6873L18.9178 37.6978C19.0083 37.7086 19.0998 37.7195 19.1908 37.7294L19.2465 38.4728C19.1701 38.4641 19.0943 38.4543 19.0184 38.4444C18.9741 38.4386 18.9298 38.4329 18.8854 38.4273Z" fill="#4BBDCF"/>
<path d="M18.9708 39.568C15.3195 39.096 11.9625 38.037 9.29561 36.4871C7.35531 35.3594 5.86001 34.0236 4.88891 32.5623C5.86211 33.6837 7.13521 34.7041 8.69241 35.6092C11.5074 37.2451 15.0592 38.3531 18.9155 38.828C18.9626 38.8338 19.0096 38.84 19.0566 38.8461C19.1297 38.8556 19.2028 38.8652 19.2765 38.8734L19.332 39.6135C19.2181 39.6001 19.1048 39.5854 18.9915 39.5707L18.9708 39.568Z" fill="#4BBDCF"/>
<path d="M19.0009 39.9688C15.2663 39.495 11.8283 38.4149 9.09751 36.8277C7.57761 35.9444 6.33381 34.949 5.38131 33.8554C6.33231 35.2892 7.79811 36.6001 9.70071 37.7056C12.2836 39.2067 15.5265 40.2383 19.0564 40.7088C19.1764 40.7248 19.2968 40.7397 19.4176 40.7545L19.3621 40.0145C19.2793 40.0049 19.197 39.9942 19.1146 39.9835L19.0009 39.9688Z" fill="#4BBDCF"/>
<path d="M33.5582 23.2026C33.5848 22.9123 33.3757 22.6158 32.9839 22.3896C32.542 22.1345 31.921 22.0003 31.2889 22.0208C31.0033 22.0301 30.7198 22.0724 30.4619 22.1429L33.2306 23.7413C33.4281 23.5767 33.5407 23.392 33.5582 23.2026Z" fill="#4BBDCF"/>
<path d="M30.8609 24.2331C30.4821 24.1753 30.138 24.0615 29.8658 23.9043C29.6119 23.7577 29.4323 23.581 29.3465 23.3934C29.2162 23.1094 29.3159 22.8075 29.6196 22.5533L32.3892 24.1526C31.9202 24.282 31.3816 24.3121 30.8609 24.2331Z" fill="#4BBDCF"/>
<path fill-rule="evenodd" clip-rule="evenodd" d="M29.5262 0.59213C37.3724 -0.78867 46.1324 0.23103 52.303 3.80293C57.8226 6.99773 59.8167 11.3935 58.4744 15.5388C58.4482 15.6214 58.257 16.1352 58.257 16.1352L56.2018 21.652L54.8229 27.6386C54.8122 27.6851 54.7923 27.729 54.7642 27.7677L53.7158 29.2162C53.6485 29.3091 53.5408 29.3637 53.4268 29.3637C53.4202 29.3637 53.4134 29.3635 53.4068 29.3632L52.5526 29.3152C52.4711 29.3105 52.3946 29.2781 52.335 29.2247C52.3282 29.2187 52.3222 29.2116 52.3162 29.2044C52.3136 29.2013 52.3109 29.1982 52.3082 29.1951L51.5366 29.9678L51.2455 31.3935C51.228 31.4792 51.1797 31.5555 51.1095 31.6078L49.4909 32.8184C49.4287 32.865 49.3537 32.8894 49.2772 32.8894C49.2556 32.8894 49.234 32.8875 49.2124 32.8835L48.3748 32.729C48.298 32.715 48.2291 32.6755 48.1772 32.6188C47.782 32.9003 47.3758 33.1806 46.9628 33.4598L46.9534 33.4667L46.7709 34.551C46.7537 34.6526 46.6938 34.7416 46.6062 34.7956L44.824 35.8944C44.7669 35.9295 44.7019 35.9474 44.6367 35.9474C44.5919 35.9474 44.5469 35.939 44.5043 35.9219L43.8322 35.6532C43.7637 35.6257 43.7088 35.5783 43.6701 35.5208C43.0805 35.8596 42.4827 36.1877 41.8786 36.506L41.7639 37.3999C41.7487 37.518 41.6758 37.6208 41.5692 37.6739L39.5833 38.6642C39.5332 38.6892 39.4786 38.7017 39.4242 38.7017C39.366 38.7017 39.3078 38.6876 39.2552 38.6592L38.6371 38.3271C38.5716 38.2917 38.522 38.2375 38.4897 38.1745L38.4886 38.1731L37.2466 38.7436L37.2488 38.7381C36.9148 38.8872 36.581 39.0344 36.2476 39.1795L36.1935 39.9674C36.1841 40.1075 36.0933 40.229 35.9616 40.2777L33.5653 41.1654C33.5247 41.1806 33.4827 41.1877 33.4415 41.1877C33.3066 41.1877 33.1784 41.1108 33.1183 40.982L32.8912 40.4964C32.8828 40.4782 32.8783 40.4588 32.8731 40.4397C31.7273 40.7842 30.54 41.0644 29.326 41.2755L29.331 41.8892C29.3326 42.0706 29.1977 42.2242 29.0177 42.2463L26.2722 42.5828C26.2577 42.5846 26.2431 42.5855 26.2286 42.5855C26.1448 42.5855 26.0629 42.5559 25.9981 42.5011C25.9223 42.4369 25.8766 42.3437 25.8722 42.2445L25.8479 41.6922C25.2353 41.7336 24.6207 41.7577 24.0059 41.7664C23.8668 41.7757 23.3419 41.8078 22.8142 41.7994C22.811 41.9002 22.768 41.9962 22.6894 42.0622L22.1452 42.5184C22.0807 42.5724 21.9995 42.6017 21.916 42.6017C21.9069 42.6017 21.898 42.6013 21.8889 42.6006L19.4883 42.4172C19.3126 42.4037 19.1729 42.264 19.1597 42.0881L19.1144 41.4821C15.7023 41.0277 12.4702 40.0347 9.80421 38.4855C7.82451 37.335 6.18861 35.8025 5.05331 34.165L4.39441 34.2649L3.75921 32.6329L2.33391 26.8938C-1.47849 22.4393 -0.581686 16.9879 4.74121 12.8432C7.09951 11.0062 9.70201 9.13903 12.7295 7.38393C15.7555 5.62993 18.9765 4.12173 22.1456 2.75413C24.3727 1.79293 26.82 1.08203 29.3654 0.62243C29.3692 0.57993 29.4029 0.54623 29.4459 0.54393C29.4787 0.54053 29.5108 0.56173 29.5262 0.59213ZM58.1592 14.5289C58.2921 13.8097 58.324 13.086 58.2532 12.3668L48.7597 13.882C48.7363 14.2698 48.6674 14.6623 48.5563 15.0516L58.1592 14.5289ZM57.3279 16.9276C57.6911 16.2203 57.9521 15.5004 58.1098 14.7756L54.2057 14.9877L54.058 14.9959L48.481 15.299C48.3522 15.6852 48.1781 16.0717 47.9645 16.4509L54.0143 16.7589L54.1026 16.7635L57.3279 16.9276ZM56.7156 19.0731C57.0881 18.525 57.4051 17.9518 57.6604 17.3597C57.4907 17.6542 57.2998 17.9456 57.095 18.2348C57.0394 18.3134 56.9832 18.3923 56.9248 18.4706L56.9231 18.4727C56.1943 19.4497 55.2661 20.39 54.135 21.2708C53.8342 21.5048 53.5294 21.7394 53.2204 21.9742C53.2073 21.9842 53.1938 21.994 53.1808 22.004C53.082 22.079 52.9816 22.154 52.8812 22.2289C52.8385 22.2609 52.7957 22.2929 52.753 22.3248C52.2866 22.6746 51.8128 23.0243 51.325 23.3732C51.3081 23.3853 51.2909 23.3973 51.2737 23.4094C51.2535 23.4235 51.2332 23.4377 51.2134 23.4519C50.9263 23.6563 50.6368 23.8606 50.3417 24.0643C49.9735 24.3186 49.5971 24.5717 49.2155 24.8241C49.1602 24.8607 49.1031 24.8969 49.0476 24.9335C48.7242 25.1458 48.3961 25.357 48.0625 25.5674C47.7078 25.7909 47.3471 26.013 46.9801 26.2339C46.9393 26.2584 46.898 26.2829 46.8568 26.3073C46.8278 26.3244 46.7989 26.3415 46.7701 26.3586C46.7109 26.3939 46.6519 26.4293 46.5928 26.4647C46.4459 26.5528 46.2989 26.6409 46.1484 26.728C46.0552 26.7821 45.961 26.8349 45.8667 26.8877C45.8061 26.9217 45.7455 26.9556 45.6851 26.9899C45.3201 27.1972 44.953 27.4013 44.5833 27.6018C44.5036 27.645 44.4236 27.688 44.3437 27.731C43.9636 27.9353 43.5814 28.1363 43.1971 28.3338C42.8054 28.5354 42.4122 28.7338 42.0172 28.9289C41.9287 28.9727 41.8404 29.0169 41.7517 29.0604C41.3785 29.2431 41.0044 29.4231 40.6294 29.6004C40.1907 29.8081 39.7515 30.0127 39.3118 30.2134C39.2813 30.2274 39.2509 30.2413 39.2205 30.2552C39.1531 30.2861 39.0858 30.317 39.0185 30.3474C38.6856 30.4983 38.3529 30.6473 38.0202 30.7945C37.5893 30.9852 37.1587 31.1738 36.7293 31.3589C36.6846 31.3782 36.6393 31.3967 36.5939 31.4151C36.5596 31.429 36.5254 31.4428 36.4914 31.4571C36.3864 31.5013 36.2804 31.5445 36.1744 31.5876C35.9063 31.6966 35.6353 31.8021 35.3615 31.9041C34.6653 32.1637 33.9535 32.4026 33.2253 32.6167C33.1515 32.6384 33.077 32.6592 33.0026 32.68C32.9657 32.6903 32.9288 32.7006 32.892 32.711C32.7235 32.7587 32.5547 32.8058 32.3847 32.8509C31.4782 33.0923 30.5522 33.2985 29.612 33.4708C29.5689 33.4787 29.5259 33.4869 29.4829 33.495C29.4124 33.5083 29.3418 33.5216 29.2709 33.534L29.2689 33.5342C29.2436 33.5386 29.218 33.5426 29.1924 33.5466C29.1694 33.5502 29.1464 33.5539 29.1235 33.5577C28.1024 33.7311 27.0664 33.8631 26.0231 33.9552C25.9762 33.9593 25.9294 33.9632 25.8825 33.967C25.8565 33.9691 25.8305 33.9713 25.8044 33.9734C25.7628 33.9769 25.7213 33.9805 25.6798 33.9841C25.6086 33.9903 25.5375 33.9965 25.4661 34.0017C24.4971 34.0735 23.5232 34.1091 22.5502 34.1104C22.3591 34.1106 22.1684 34.1088 21.9775 34.1063C21.8689 34.1049 21.7604 34.1031 21.652 34.1008C20.8258 34.0831 20.0019 34.0415 19.1838 33.9723C18.8873 33.9473 18.5913 33.9202 18.2966 33.8883C18.2371 33.8819 18.1778 33.8745 18.1186 33.867C18.077 33.8618 18.0354 33.8566 17.9937 33.8517C17.3111 33.7725 16.6345 33.6746 15.9651 33.5586C15.6038 33.496 15.2451 33.4278 14.8885 33.3543C14.858 33.3481 14.8275 33.3419 14.797 33.3357C14.7353 33.3232 14.6737 33.3107 14.6123 33.2976C13.9793 33.1618 13.3553 33.009 12.7414 32.8388C12.4376 32.7546 12.1365 32.6661 11.838 32.5735C11.8054 32.5634 11.7726 32.5535 11.7398 32.5436C11.6892 32.5283 11.6385 32.513 11.5884 32.4969C10.943 32.2905 10.3123 32.0625 9.69671 31.8158C9.53071 31.7494 9.36641 31.6811 9.20301 31.6119C9.1709 31.5983 9.13851 31.5849 9.10611 31.5716C9.06314 31.5539 9.02013 31.5363 8.97771 31.5177C8.14171 31.1536 7.33821 30.7511 6.57471 30.3092C5.09931 29.4552 3.87811 28.5147 2.90281 27.5167L2.96281 27.7879L3.01951 27.7849C3.03223 27.8014 3.04551 27.8175 3.05881 27.8336C3.07049 27.8478 3.08219 27.862 3.09351 27.8764L3.42301 28.3772L3.42911 28.3964L3.45021 28.4649C3.64071 28.6407 3.83961 28.8176 4.04851 28.9951C4.10261 29.041 4.15661 29.0865 4.21181 29.1321C4.35411 29.2506 4.49971 29.3683 4.64901 29.4854C5.24881 29.9944 5.90211 30.4466 6.60731 30.8209C8.17031 31.7256 9.90111 32.4657 11.7399 33.045L11.785 33.2086L12.0448 33.3317L12.238 33.195C13.0522 33.4362 13.8858 33.6467 14.7352 33.8262L14.8289 34.2289L15.1122 34.3332L15.5005 33.9805C16.3508 34.1402 17.2148 34.2686 18.0875 34.3682L18.1892 34.928L18.4946 35.0079L18.931 34.4542C19.853 34.5384 20.7826 34.5899 21.7155 34.6085L21.7982 35.2728L22.1231 35.3235L22.4574 34.6181C23.4722 34.6195 24.488 34.5821 25.4988 34.5066L25.5457 35.2334L25.88 35.2505L26.0067 34.4642C27.0694 34.3712 28.1247 34.2369 29.1646 34.0592L29.2711 34.7569L29.2712 34.8026L29.6113 34.7762L29.6118 33.9791C30.6007 33.7978 31.5737 33.5782 32.5251 33.3204L32.8278 33.9675L33.1523 33.9161L33.1962 33.1338C34.0418 32.886 34.8668 32.6061 35.6683 32.2971L36.0542 32.7911L36.3603 32.7101L36.436 31.9876C36.4741 31.9717 36.5126 31.9562 36.551 31.9406C36.6055 31.9185 36.66 31.8964 36.7137 31.8733L36.7235 31.8692C37.2789 31.6294 37.836 31.3837 38.3932 31.1349L38.8495 31.5507L39.1337 31.4455L39.2333 30.7568C39.8423 30.4792 40.4507 30.1942 41.0572 29.9034L41.5411 30.2461L41.801 30.1226L41.9164 29.4857C42.4987 29.1988 43.0787 28.9061 43.6537 28.6053L43.6601 28.6019L44.1052 28.8595L44.3432 28.7215L44.4606 28.1745C44.7162 28.0364 44.9713 27.8974 45.2248 27.7561C45.5279 27.5883 45.8296 27.4184 46.1288 27.2452L46.1714 27.2201L46.5222 27.386L46.7359 27.2349L46.8354 26.8272C46.8532 26.8166 46.8705 26.8058 46.8879 26.795C46.9033 26.7854 46.9188 26.7758 46.9346 26.7662C47.4921 26.4312 48.0357 26.0929 48.5652 25.7516L48.8046 25.8396L48.9857 25.6753L49.0504 25.4355C49.6725 25.0266 50.2761 24.6147 50.8632 24.2008L50.9854 24.2327L51.1252 24.0552L51.1397 24.006C52.1735 23.2701 53.159 22.5301 54.1031 21.7951C54.4523 21.5323 54.7817 21.2535 55.0923 20.9629L55.0934 20.962C55.4837 20.5966 55.8432 20.2113 56.1697 19.8082C56.2614 19.6956 56.3179 19.6177 56.3609 19.5584C56.389 19.5197 56.4112 19.489 56.4337 19.4618C56.4002 19.5638 56.369 19.6315 56.3408 19.6868C56.0064 20.4293 55.5546 21.1589 54.9892 21.8664C54.852 22.0379 54.7084 22.2083 54.5578 22.377C54.5218 22.4173 54.4856 22.4575 54.4488 22.4976C53.9154 23.0805 53.3021 23.6456 52.607 24.1867C51.8164 24.8024 50.9948 25.4218 50.1382 26.0387C50.0466 26.1047 49.954 26.1705 49.8615 26.2363L49.8145 26.2697C48.3656 27.3007 46.813 28.3227 45.1155 29.3068C42.2761 30.9527 39.2536 32.3674 36.28 33.6505C32.3333 35.3535 27.6526 36.2253 22.9987 36.2334C17.5559 36.2426 12.1495 35.0709 7.99441 32.6657C6.14541 31.5955 4.63671 30.2621 3.59111 28.9206L3.59891 28.9464L3.92381 29.9976C4.93531 31.1659 6.26011 32.2292 7.88221 33.1718C10.8723 34.9094 14.6615 36.0758 18.772 36.55C18.8666 36.5609 18.9618 36.5707 19.057 36.5804C19.097 36.5845 19.137 36.5886 19.177 36.5927L19.1105 36.6583L19.161 37.3307C19.0838 37.3222 19.0072 37.3125 18.9307 37.3028C18.8871 37.2973 18.8436 37.2918 18.7999 37.2865C14.9049 36.8121 11.3205 35.6974 8.48531 34.0497C6.48371 32.8866 4.93691 31.5091 3.92561 30.0034L5.20451 34.142L5.10641 34.1568C6.09081 35.6073 7.57821 36.928 9.50261 38.0464C12.1495 39.5846 15.4736 40.6372 19.0864 41.1096C19.2066 41.1253 19.3269 41.1408 19.4476 41.1552L19.4755 41.5265L19.5154 42.0615L21.916 42.2449L21.6614 36.8438L21.7053 36.7675L21.7249 36.7332L21.7269 36.7298L21.7328 36.7195L21.7558 36.7698C21.7651 36.77 21.7742 36.7707 21.7833 36.7711C21.8396 36.7729 21.8963 36.7734 21.953 36.7739C22.0001 36.7744 22.0471 36.7748 22.094 36.7759L22.1491 36.7772C22.4224 36.7835 22.6961 36.7898 22.9682 36.7898C23.857 36.7898 24.7458 36.7577 25.6287 36.6947C25.7035 36.6893 25.7781 36.6828 25.8526 36.6763C25.8981 36.6724 25.9435 36.6684 25.989 36.6647L25.9842 36.6936L26.0167 37.427C25.9726 37.4306 25.9286 37.4344 25.8846 37.4381C25.8101 37.4446 25.7356 37.451 25.6608 37.4561C24.5171 37.5366 23.361 37.5614 22.2039 37.5334C22.1874 37.533 22.1709 37.5327 22.1544 37.5324C22.1379 37.5322 22.1214 37.5319 22.1049 37.5314L22.2492 37.8468L22.2869 37.9289C23.4195 37.9535 24.554 37.9273 25.6781 37.8479C25.7502 37.8427 25.8221 37.8365 25.894 37.8304C25.9406 37.8264 25.9873 37.8224 26.034 37.8186L26.0677 38.5809C26.0259 38.5843 25.9842 38.5878 25.9425 38.5913C25.8657 38.5978 25.789 38.6043 25.7118 38.6096C24.6933 38.6806 23.6652 38.7062 22.6355 38.6897L22.8182 39.0883L22.8616 39.0888C22.9786 39.0901 23.0959 39.0913 23.2126 39.0913C24.0534 39.0913 24.8938 39.061 25.7291 39.0025C25.8152 38.9964 25.9012 38.9893 25.9871 38.9821C26.0198 38.9793 26.0524 38.9766 26.085 38.9739L26.1186 39.7353C26.0826 39.7382 26.0465 39.7412 26.0105 39.7442C25.928 39.751 25.8455 39.7578 25.7626 39.7635C24.9026 39.8229 24.0352 39.8513 23.1659 39.8472L23.3468 40.2422C24.1597 40.2418 24.9723 40.2126 25.7801 40.1564C25.8618 40.1508 25.9434 40.1441 26.025 40.1374C26.062 40.1344 26.099 40.1314 26.136 40.1284L26.1696 40.8901C26.1324 40.893 26.0953 40.896 26.0582 40.899C25.9768 40.9056 25.8955 40.9122 25.8137 40.9178C25.1102 40.9658 24.402 40.9907 23.692 40.9956L23.872 41.388C24.5265 41.3802 25.1804 41.355 25.831 41.3103C25.9222 41.304 26.0132 41.2967 26.1042 41.2894C26.1318 41.2872 26.1593 41.285 26.1869 41.2828L26.2286 42.2287L28.9742 41.8922L28.9665 40.9492C29.0857 40.9299 29.2043 40.9101 29.3228 40.8896C30.0278 40.7676 30.7227 40.6247 31.4033 40.46L31.5853 40.011C30.8451 40.1976 30.0894 40.3603 29.3196 40.495C29.2463 40.5079 29.1724 40.5195 29.0985 40.5312C29.0534 40.5383 29.0083 40.5454 28.9633 40.5528L28.9571 39.7892C29.0761 39.77 29.1949 39.7502 29.3133 39.7296C30.2032 39.5759 31.0763 39.3875 31.9269 39.1675L32.1107 38.7142C31.2012 38.9593 30.2658 39.1679 29.3101 39.3347C29.2366 39.3476 29.1625 39.3593 29.0885 39.371C29.0435 39.3781 28.9986 39.3852 28.9537 39.3925L28.9474 38.6293C29.0666 38.61 29.1853 38.5902 29.3039 38.5697C30.3805 38.3838 31.4343 38.1499 32.4528 37.8695L32.6391 37.4099C31.5615 37.7189 30.4448 37.9753 29.3005 38.1747C29.2251 38.188 29.1491 38.1999 29.0731 38.2119C29.0301 38.2187 28.9871 38.2255 28.9442 38.2325L28.938 37.4675C28.973 37.4619 29.0081 37.4563 29.0432 37.4507C29.127 37.4374 29.2109 37.4241 29.2943 37.4095C30.5616 37.1912 31.7976 36.9077 32.9829 36.5614L33.1611 36.1215L33.1725 36.0935C33.1707 36.094 33.169 36.0946 33.1672 36.0951C33.1658 36.0956 33.1644 36.096 33.163 36.0963C31.9207 36.474 30.6246 36.7828 29.291 37.0151C29.2159 37.0283 29.1403 37.0402 29.0646 37.0522C29.0213 37.059 28.978 37.0659 28.9348 37.0729L28.9287 36.3345L28.9334 36.3338L28.9296 36.3092C29.045 36.2904 29.1605 36.2715 29.2753 36.2517C30.6321 36.0182 31.954 35.7115 33.2178 35.3346C33.2839 35.3148 33.3492 35.2944 33.4146 35.2739C33.4488 35.2632 33.4831 35.2525 33.5175 35.2418L33.5964 35.0475L33.6563 35.1756L33.6768 35.2197L33.4413 40.8309L35.8376 39.9432L35.9042 38.972C36.0281 38.9186 36.1507 38.8656 36.2727 38.8127C36.669 38.6407 37.0547 38.4708 37.4309 38.3028L37.6534 37.7708C37.2165 37.9679 36.7676 38.1674 36.3031 38.3701C36.1816 38.4229 36.0578 38.4764 35.9345 38.5295L35.9848 37.7936C36.063 37.76 36.1402 37.7265 36.2172 37.6932C36.2626 37.6735 36.308 37.6539 36.3534 37.6342C36.9292 37.3846 37.4835 37.1393 38.0186 36.8975L38.2419 36.3636C37.6477 36.6351 37.0295 36.9106 36.3837 37.1917C36.2852 37.2348 36.1849 37.278 36.0847 37.3212C36.0615 37.3312 36.0383 37.3412 36.0151 37.3512L36.0633 36.6481L36.0654 36.615C36.0667 36.6146 36.0679 36.6141 36.069 36.6135C36.1923 36.5605 36.3127 36.5083 36.434 36.4556C37.1929 36.1272 37.9167 35.8059 38.6073 35.4901L38.8319 34.9532C38.083 35.2994 37.2959 35.6519 36.4643 36.0134C36.3682 36.0553 36.2711 36.0973 36.1735 36.1394L36.0958 36.1729L36.1462 35.4356C36.1632 35.4284 36.1809 35.4218 36.1978 35.4145C36.3048 35.3685 36.409 35.3232 36.5146 35.2775C37.4612 34.8682 38.3532 34.47 39.1971 34.0797L39.2054 34.0597L39.4229 33.5397C39.3977 33.5516 39.3725 33.5634 39.3472 33.5752C39.3296 33.5835 39.3119 33.5917 39.2941 33.6C38.431 34.0025 37.5176 34.4126 36.545 34.8351C36.4231 34.8879 36.3004 34.941 36.1766 34.9944L36.2258 34.2738L36.2156 34.2608C36.2323 34.2538 36.2492 34.247 36.2661 34.2402C36.2863 34.232 36.3064 34.2239 36.3262 34.2153C36.3757 34.1942 36.4242 34.1731 36.4728 34.152C36.4975 34.1413 36.5221 34.1307 36.5469 34.1199C37.5722 33.6774 38.5354 33.248 39.4433 32.8273C39.5283 32.7881 39.6119 32.7489 39.6955 32.7097C39.7264 32.6952 39.7574 32.6807 39.7883 32.6662L39.8802 32.4465L40.0084 32.5631L40.047 32.5983L39.4242 38.3449L41.4101 37.3546L41.54 36.3418C41.6695 36.2753 41.7981 36.2086 41.9253 36.142C42.125 36.0377 42.3217 35.9335 42.5158 35.8291L42.7834 35.2356C42.5226 35.3788 42.2573 35.5219 41.9865 35.665C41.859 35.7324 41.7307 35.7998 41.6008 35.8673L41.6947 35.1348C41.8242 35.0686 41.953 35.0022 42.08 34.9362C42.4579 34.7394 42.8252 34.543 43.1843 34.3466L43.4548 33.7466C43.0298 33.9843 42.5927 34.2215 42.1412 34.4592C42.0136 34.5262 41.8854 34.5933 41.7555 34.6606L41.8495 33.9277C41.9789 33.8617 42.1075 33.7957 42.2347 33.7299C42.7954 33.4391 43.3338 33.1494 43.8553 32.8587L44.1286 32.2525C43.542 32.5867 42.9328 32.9194 42.2957 33.2532C42.1685 33.3199 42.04 33.3866 41.9103 33.4535L42.0044 32.7207C42.1056 32.6693 42.2054 32.6178 42.305 32.5664C42.3332 32.5519 42.3614 32.5373 42.3895 32.5228C43.1372 32.1366 43.8476 31.7521 44.5284 31.3657L44.5305 31.3609L44.8049 30.7527C44.7786 30.768 44.7525 30.7834 44.7263 30.7987C44.715 30.8053 44.7037 30.8119 44.6923 30.8184L44.6531 30.8409C43.9528 31.2444 43.2216 31.6447 42.4505 32.0472C42.3288 32.1107 42.2057 32.1742 42.0821 32.2378L42.0652 32.2465L42.1528 31.5639L42.1119 31.5366C42.2243 31.4797 42.3357 31.4228 42.4464 31.3661C43.2844 30.9365 44.0761 30.5096 44.832 30.0803C44.9503 30.0133 45.0684 29.946 45.1849 29.8787C45.1877 29.8772 45.1904 29.8756 45.1932 29.8739C45.1968 29.8718 45.2004 29.8697 45.204 29.8677L45.2974 29.6602L45.5121 29.784L44.6368 35.5906L46.419 34.4918L46.6032 33.3977C46.697 33.3361 46.7913 33.2728 46.8855 33.2095C46.9273 33.1814 46.9691 33.1533 47.0108 33.1254L47.0588 33.0933L47.3778 32.4011C47.354 32.4175 47.3302 32.434 47.3063 32.4504C47.2376 32.4978 47.1689 32.5452 47.1005 32.5915C46.9975 32.6614 46.8949 32.7295 46.7924 32.7976C46.7592 32.8196 46.7261 32.8417 46.6929 32.8637L46.8085 32.1774C46.9148 32.108 47.0215 32.0369 47.1283 31.9658C47.1574 31.9465 47.1865 31.9271 47.2156 31.9077C47.2449 31.8883 47.2742 31.8688 47.3035 31.8494C47.4616 31.7445 47.6197 31.6396 47.779 31.5311L48.1039 30.8261C47.8364 31.0127 47.5701 31.1955 47.3055 31.3737C47.1694 31.4654 47.0335 31.5564 46.8979 31.6462L47.014 30.9557C47.1492 30.868 47.2848 30.7797 47.4206 30.6901C47.7797 30.453 48.1413 30.2075 48.5049 29.9562L48.8303 29.2502C48.3857 29.5646 47.9469 29.8641 47.5103 30.1562C47.4675 30.1849 47.4246 30.2137 47.3817 30.2425C47.2886 30.3051 47.1954 30.3677 47.1027 30.4286L47.2192 29.7367C47.3544 29.6495 47.4898 29.5617 47.6254 29.4729C48.1469 29.1307 48.6717 28.7741 49.203 28.402C49.2121 28.3955 49.2212 28.3893 49.2303 28.3829L49.5609 27.6657C49.5268 27.6901 49.4928 27.7143 49.4589 27.7385C49.4311 27.7583 49.4033 27.7781 49.3755 27.7979C48.815 28.1964 48.2626 28.5768 47.7148 28.9411C47.579 29.0313 47.4432 29.1209 47.3078 29.2094L47.4081 28.6137L47.3287 28.5761C47.4386 28.506 47.5485 28.4353 47.6586 28.3641C48.2947 27.9524 48.9348 27.521 49.5842 27.0661C49.7087 26.9787 49.8338 26.8905 49.9592 26.8015L50.049 26.7377L50.1469 26.3946L50.4011 26.485L50.4232 26.4929L49.2772 32.5326L50.8958 31.3222L51.1415 30.1192L51.1729 30.0941C51.2347 30.0447 51.2964 29.9954 51.3566 29.9453L51.7404 29.0777C51.7358 29.0821 51.7313 29.0865 51.7267 29.091C51.7222 29.0954 51.7176 29.0999 51.7129 29.1043C51.5691 29.239 51.4205 29.3719 51.2672 29.5032L51.3108 29.2907L51.3923 28.8913C51.5418 28.7752 51.6863 28.6572 51.8285 28.5386L51.8427 28.5268C51.9189 28.4632 51.9951 28.3996 52.069 28.3351L52.4764 27.414C52.3109 27.5792 52.1373 27.7419 51.9584 27.9024C51.8151 28.0311 51.6681 28.1583 51.5163 28.2837L51.6447 27.6552C51.6731 27.6333 51.7011 27.612 51.7291 27.5907C51.7622 27.5655 51.7953 27.5403 51.829 27.5141C51.9025 27.4572 51.9738 27.3996 52.0452 27.3419L52.0783 27.3151C52.3261 27.1148 52.564 26.9111 52.7908 26.7032L53.1396 25.9151L53.189 25.755C52.885 26.0762 52.5573 26.3894 52.2053 26.6938C52.0631 26.8167 51.9166 26.9376 51.7668 27.0575L51.8966 26.4215C52.0194 26.3273 52.1419 26.2331 52.2659 26.137C52.2775 26.1281 52.2887 26.119 52.2998 26.1099C52.3096 26.102 52.3193 26.0942 52.3293 26.0863C52.6936 25.8009 53.0368 25.5076 53.3585 25.2066L53.6066 24.4033C53.253 24.7724 52.8693 25.1315 52.4534 25.4783C52.3132 25.5952 52.1716 25.7115 52.0246 25.8255C52.0228 25.827 52.021 25.8283 52.0192 25.8296L52.0172 25.831L52.1403 25.2279L52.1059 25.2188C52.2049 25.1433 52.3045 25.0668 52.4042 24.9901C52.4274 24.9723 52.4505 24.9545 52.4737 24.9367C52.5499 24.878 52.6261 24.8194 52.703 24.7597C53.0839 24.4641 53.4423 24.1601 53.778 23.8481C53.9463 23.692 54.1074 23.5332 54.2642 23.373L54.3777 23.1163L54.4344 23.1243L54.4592 23.1279L54.4936 23.1331L54.6724 23.1595L54.7184 23.1664L54.5468 23.9428L53.4268 29.0069L54.4463 27.5986L54.4752 27.5585L55.8648 21.5257H55.8635L56.7156 19.0731ZM2.67201 26.4538C3.16671 27.0645 3.74971 27.6578 4.42281 28.2264C4.42413 28.2251 4.42541 28.2237 4.42669 28.2224C4.43224 28.2166 4.43772 28.2108 4.44511 28.2071L4.91231 27.9852L5.01781 27.9353L11.99 24.6249C11.5882 24.2329 11.2448 23.8173 10.9694 23.3857L2.67201 26.4538ZM2.51469 26.2472C2.5174 26.2449 2.52013 26.2427 2.52361 26.2413L2.53051 26.2387L10.8368 23.167C10.6045 22.7665 10.4254 22.3499 10.3041 21.9255L1.32271 24.303C1.62461 24.9665 2.01961 25.6182 2.50911 26.2513C2.51111 26.2501 2.51289 26.2487 2.51469 26.2472ZM1.22341 24.0731C1.22366 24.073 1.22303 24.0733 1.22341 24.0731L1.23341 24.0706L10.2415 21.6861C10.1489 21.2904 10.105 20.8856 10.1097 20.4794L4.93841 21.3045L4.90611 21.3097L0.652014 21.9885C0.703514 22.3824 0.785814 22.7745 0.899014 23.164C0.987714 23.469 1.09531 23.7725 1.22211 24.0738C1.22226 24.0738 1.22328 24.0732 1.22341 24.0731ZM0.718014 19.5835C0.584914 20.3029 0.552914 21.026 0.623914 21.7455L0.725814 21.7291L10.1175 20.2305C10.1409 19.8423 10.2096 19.45 10.3207 19.0611L5.76721 19.3087L5.67771 19.3137L0.718014 19.5835ZM1.54931 17.1849C1.18611 17.8922 0.925114 18.6121 0.767414 19.3371L5.60451 19.0741L5.69441 19.0691L10.396 18.8135C10.525 18.4269 10.6991 18.0405 10.9125 17.6616L1.54931 17.1849ZM3.13383 14.8986C3.13215 14.8974 3.13047 14.8962 3.12851 14.8955C2.54411 15.5605 2.05921 16.247 1.67541 16.9469L7.16441 17.2268L11.0496 17.425C11.2898 17.0331 11.5774 16.6461 11.9035 16.2713L3.15121 14.9035L3.14101 14.9021C3.13819 14.9016 3.13601 14.9001 3.13383 14.8986ZM5.37511 12.8189C5.32821 12.8551 5.28131 12.8915 5.23451 12.9279C4.51311 13.4897 3.87691 14.0764 3.32191 14.6812L3.34701 14.6851L12.0963 16.0536C12.462 15.6578 12.8791 15.2726 13.3353 14.9049L5.38881 12.825C5.38541 12.8242 5.38246 12.8226 5.37953 12.8211C5.37807 12.8204 5.37661 12.8196 5.37511 12.8189ZM7.76621 11.0265C7.02641 11.5601 6.31241 12.0957 5.62061 12.6291L5.71781 12.6544L13.5767 14.7121L13.6418 14.6621C14.1078 14.3087 14.5454 13.9847 14.9757 13.6745L7.76621 11.0265ZM10.322 9.32153C10.3075 9.31483 10.2957 9.30423 10.2872 9.29123C9.50061 9.80633 8.74401 10.3265 8.01331 10.849L8.13071 10.892L15.2219 13.4973C15.7689 13.107 16.295 12.7461 16.8237 12.3972L10.4063 9.36153L10.322 9.32153ZM12.9764 7.67723C12.9633 7.66973 12.953 7.65903 12.9457 7.64653C12.1074 8.13523 11.3023 8.63243 10.5264 9.13533L17.0735 12.233C17.3304 12.0657 17.5891 11.9016 17.8483 11.7401C18.1983 11.5219 18.5489 11.3096 18.898 11.105L12.9764 7.67723ZM15.796 6.12733C15.7849 6.11943 15.7771 6.10863 15.7708 6.09713C14.9004 6.54803 14.0396 7.01613 13.194 7.50353L19.1558 10.9543C19.7672 10.6014 20.4233 10.2435 21.1069 9.88873L15.796 6.12733ZM18.7369 4.6404C18.7364 4.63937 18.7358 4.63835 18.7353 4.63733C17.8263 5.06403 16.9213 5.50663 16.0254 5.96643L21.3712 9.75203C21.9804 9.44003 22.6128 9.12963 23.2963 8.80673L18.7533 4.66443C18.7458 4.65773 18.7413 4.64903 18.7369 4.6404ZM21.8193 3.25385C21.8185 3.25139 21.8176 3.24891 21.8164 3.24653C20.8766 3.65573 19.9338 4.07853 18.9938 4.51673L23.4709 8.59943L23.5614 8.68183C24.1381 8.41193 24.741 8.13773 25.4039 7.84443L25.405 7.84393L21.825 3.26563C21.8223 3.26211 21.8208 3.258 21.8193 3.25385ZM25.3714 1.91373C24.3082 2.23943 23.2775 2.61443 22.2913 3.04013C22.2194 3.07113 22.1474 3.10233 22.0755 3.13363L25.6693 7.72973C25.8472 7.65403 26.0274 7.58023 26.2099 7.50833C26.296 7.47451 26.3831 7.44165 26.4702 7.40881L26.5025 7.39663C26.9042 7.24503 27.3147 7.10263 27.7324 6.97173L25.3737 1.92443C25.3728 1.92249 25.3725 1.92041 25.3723 1.91834C25.3721 1.91679 25.3719 1.91523 25.3714 1.91373ZM29.291 0.96403C28.0478 1.19103 26.8291 1.48073 25.6494 1.83073L28.0101 6.88603C28.4629 6.75033 28.9271 6.62663 29.3972 6.51493C29.4003 6.51426 29.4033 6.51358 29.4063 6.51288C29.4118 6.51161 29.4173 6.51029 29.4227 6.50893C29.5342 6.48273 29.6459 6.45663 29.7579 6.43183C29.8773 6.40523 29.9966 6.37923 30.1163 6.35443L29.291 0.96403ZM33.418 0.44293C32.1249 0.53573 30.841 0.69303 29.5806 0.91283L30.4048 6.29643C31.1029 6.16033 31.8165 6.05093 32.5286 5.97153L33.418 0.44293ZM37.5684 0.36443C36.2874 0.32073 35.0002 0.34093 33.7193 0.42293L32.8316 5.93983C32.8384 5.93933 32.8451 5.93873 32.8519 5.93803C32.9647 5.92683 33.0774 5.91613 33.1905 5.90643C33.1957 5.90595 33.2008 5.90545 33.206 5.90494C33.2139 5.90417 33.2218 5.90339 33.2296 5.90273C33.8147 5.85313 34.4026 5.82263 34.984 5.81223L37.5684 0.36443ZM41.573 0.71323C40.3586 0.54073 39.1236 0.42943 37.8799 0.37693L35.3029 5.80943C35.6444 5.80783 35.9855 5.81173 36.3245 5.82333C36.4024 5.8261 36.4798 5.82997 36.5572 5.83384C36.589 5.83543 36.6207 5.83702 36.6525 5.83853C36.666 5.83915 36.6795 5.83975 36.693 5.84034C36.7206 5.84155 36.7481 5.84275 36.7755 5.84423C37.017 5.85703 37.2573 5.87223 37.4949 5.89183L41.573 0.71323ZM45.3108 1.45613C44.199 1.16763 43.0551 0.93623 41.8897 0.76013L37.8246 5.92283C38.4626 5.98493 39.0893 6.07273 39.6962 6.18443C39.7126 6.18743 39.7291 6.19042 39.7455 6.19341C39.8326 6.20925 39.9197 6.2251 40.0056 6.24243L40.0131 6.24378C40.0211 6.24521 40.0291 6.24663 40.037 6.24823L45.3108 1.45613ZM48.7052 2.55843C47.7157 2.16573 46.6836 1.82643 45.6205 1.53883L40.3615 6.31823C41.1172 6.48363 41.8459 6.68783 42.529 6.92923L48.7052 2.55843ZM48.9926 2.67702C48.9923 2.67773 48.9919 2.67845 48.9912 2.67883L42.8282 7.04073C43.5486 7.31173 44.2265 7.62513 44.8436 7.97683L51.6738 4.01773L51.714 3.99433C50.8541 3.50483 49.9442 3.06563 48.9937 2.67543C48.9932 2.67584 48.9929 2.67643 48.9926 2.67702ZM51.9616 4.13763C51.9553 4.14763 51.9466 4.15583 51.9366 4.16273C51.9346 4.16403 51.9339 4.16613 51.932 4.16743L45.0984 8.12843C45.179 8.17693 45.2587 8.22603 45.3371 8.27583C45.8382 8.59443 46.2924 8.93693 46.6895 9.29923L54.2431 5.71203C53.9179 5.44703 53.5756 5.18683 53.2109 4.93343C52.8181 4.66073 52.4008 4.39563 51.9616 4.13763ZM56.205 7.65853C55.7101 7.04773 55.1278 6.45483 54.4542 5.88613C54.4532 5.88716 54.4523 5.88819 54.4513 5.88923C54.4453 5.89558 54.4393 5.90195 54.4314 5.90573L46.8872 9.48763C47.2887 9.87943 47.632 10.2951 47.9078 10.7268L56.205 7.65853ZM48.5417 13.6402C48.5466 13.2601 48.507 12.8815 48.4232 12.512L45.5733 13.2663L45.4987 13.2859L45.4066 13.3104C45.5149 13.4904 45.602 13.6749 45.6689 13.862C45.6691 13.8627 45.6692 13.8634 45.6696 13.864C45.696 13.938 45.7199 14.0126 45.7397 14.0875L45.7777 14.0814L45.7913 14.0791L45.8523 14.0695L45.9297 14.0572L48.5417 13.6402ZM48.3258 15.0355C48.4327 14.6735 48.5004 14.3087 48.5279 13.9478L45.9932 14.3524L45.9434 14.3603L45.9251 14.3633L45.8002 14.3831C45.8225 14.538 45.8291 14.6935 45.8234 14.8489C45.8194 14.9572 45.8102 15.0653 45.7925 15.1732L45.8896 15.1681L45.9848 15.1627L46.0193 15.1609L46.0262 15.1606L46.1277 15.155L48.3258 15.0355ZM47.7274 16.4103C47.9308 16.0585 48.0982 15.6999 48.2262 15.3415L45.9151 15.4672L45.912 15.4674L45.7242 15.4776C45.6448 15.7548 45.5203 16.0269 45.352 16.2893L47.7274 16.4103ZM53.2318 18.8187L53.2585 18.8229L55.7528 19.2126C56.3354 18.5487 56.8191 17.8637 57.2019 17.1651L47.8272 16.6873C47.5872 17.0793 47.2995 17.466 46.9735 17.8409L53.2318 18.8187ZM53.5037 21.2929C53.5318 21.2711 53.5601 21.2492 53.5883 21.2274C53.6059 21.2138 53.6234 21.2002 53.6409 21.1866C54.3634 20.6241 55.0004 20.0366 55.5558 19.4309L53.1872 19.0604L53.1604 19.0563L46.7805 18.0587C46.4151 18.4544 45.9982 18.8394 45.542 19.2072L53.5037 21.2929ZM51.1104 23.086C51.1996 23.0218 51.2879 22.9574 51.3764 22.893L51.4899 22.8105C51.7471 22.6227 52.0015 22.4347 52.2527 22.2466C52.5926 21.992 52.9271 21.7376 53.2568 21.4836L45.3005 19.4001L45.2336 19.4513L45.067 19.5769C44.6645 19.8807 44.2799 20.1647 43.9016 20.4375L51.1104 23.086ZM47.6175 24.3469L47.7487 24.4088L48.6025 24.8127C48.7977 24.685 48.9914 24.5567 49.1828 24.4283C49.2258 24.3996 49.2682 24.3707 49.3107 24.3418C49.3249 24.3322 49.3392 24.3225 49.3534 24.3128C49.5339 24.1908 49.7134 24.0688 49.8907 23.9464C50.22 23.7193 50.5444 23.4917 50.8635 23.2635L43.6546 20.615C43.4903 20.7324 43.3261 20.848 43.162 20.9623C43.0726 21.0248 42.9832 21.0865 42.894 21.1479C42.7522 21.2456 42.6109 21.3418 42.4702 21.4367C42.3305 21.5309 42.1915 21.6235 42.0532 21.7148L42.8737 22.1028L42.9379 22.1333L47.6175 24.3469ZM45.3538 26.1188L45.3654 26.1256L45.9006 26.4353C45.9136 26.4428 45.924 26.4536 45.9313 26.4661C46.253 26.2786 46.5687 26.0895 46.8809 25.8997C46.9516 25.8567 47.0228 25.8139 47.0929 25.7709C47.2832 25.6541 47.4714 25.5367 47.6584 25.4189C47.8917 25.2719 48.1229 25.1246 48.3513 24.9767L47.5551 24.6001L47.5175 24.5822L41.8033 21.8791C41.198 22.273 40.585 22.6516 39.9783 23.0073L45.3538 26.1188ZM43.0817 27.9847C43.0928 27.9925 43.1006 28.0034 43.1069 28.0148C43.5514 27.7847 43.9937 27.5506 44.4326 27.3112C44.4756 27.2877 44.5181 27.2635 44.5606 27.2394C44.5986 27.2178 44.6365 27.1963 44.6748 27.1751C44.8886 27.0572 45.1005 26.9372 45.3127 26.8171L45.3158 26.8153C45.3687 26.7853 45.4219 26.7557 45.4751 26.7261C45.5447 26.6874 45.6143 26.6487 45.6831 26.609L40.4493 23.5794L39.9046 23.2644L39.7207 23.1577C39.1066 23.5122 38.4508 23.8701 37.7699 24.2233L43.0817 27.9847ZM40.1237 29.4479C40.1314 29.4551 40.1361 29.4646 40.1407 29.4738L40.1413 29.475C40.2127 29.4416 40.2837 29.4073 40.3548 29.373C40.4065 29.3481 40.4582 29.3231 40.5101 29.2984C40.9488 29.0902 41.3862 28.8788 41.8222 28.6631C41.8733 28.6379 41.9241 28.6122 41.975 28.5865C42.0133 28.5672 42.0515 28.548 42.0898 28.5288C42.1332 28.5072 42.1767 28.4855 42.2201 28.4639C42.4308 28.3589 42.6415 28.2539 42.8509 28.1463L38.2271 24.8709L38.1698 24.8302L37.5058 24.3599C37.3144 24.4581 37.1201 24.556 36.9237 24.6539C36.5626 24.8343 36.1901 25.0157 35.8028 25.2002C35.7293 25.2354 35.6556 25.2705 35.5807 25.3058L36.2797 25.9431L36.3195 25.9793L40.1237 29.4479ZM36.9844 30.7602L37.0518 30.8466C37.0561 30.8521 37.0575 30.8592 37.0605 30.8657C37.3041 30.7596 37.548 30.6512 37.792 30.5428C37.8539 30.5153 37.9158 30.4878 37.9777 30.4603C38.3425 30.2983 38.7068 30.1337 39.0718 29.9674C39.1457 29.9337 39.2195 29.8998 39.2934 29.8659L39.3667 29.8322C39.4345 29.801 39.5024 29.7701 39.5702 29.7392C39.6747 29.6916 39.7791 29.644 39.8834 29.5954L36.0747 26.1216L36.0353 26.0858L35.3167 25.4303C35.1936 25.488 35.0694 25.5458 34.944 25.6037C34.4762 25.82 33.9915 26.039 33.4729 26.2686L34.1717 27.1626L34.2067 27.2072L36.9844 30.7602ZM33.5041 32.1876C33.505 32.1896 33.5053 32.1917 33.5056 32.1939C33.5058 32.1954 33.5061 32.197 33.5065 32.1985C33.8235 32.1014 34.1366 31.9987 34.4473 31.8927C34.7601 31.786 35.0689 31.6742 35.3748 31.5586C35.6565 31.4521 35.935 31.3416 36.2105 31.2275C36.2487 31.2117 36.2871 31.196 36.3254 31.1802C36.3937 31.1523 36.4619 31.1244 36.5293 31.0954C36.5468 31.0879 36.5649 31.081 36.5826 31.0733L36.8008 30.9789L33.9955 27.3897L33.9633 27.3487L33.9269 27.3019L33.2084 26.3828C32.5501 26.6634 31.8568 26.9178 31.145 27.1408L33.5041 32.1876ZM29.5868 33.1483C29.5931 33.1473 29.5992 33.146 29.6054 33.1448C29.6077 33.1443 29.6099 33.1439 29.6122 33.1435C30.5573 32.9701 31.4889 32.7619 32.3991 32.5173C32.5234 32.484 32.6462 32.4484 32.7692 32.4129C32.8159 32.3993 32.8626 32.3858 32.9094 32.3724C32.9447 32.3624 32.98 32.3524 33.0153 32.3425C33.0864 32.3224 33.1575 32.3024 33.228 32.2814L30.8676 27.2263C30.276 27.4038 29.665 27.561 29.0459 27.6964L29.0278 27.7004C28.9389 27.72 28.85 27.7396 28.7608 27.7579L28.9373 28.9095L28.94 28.9266L29.5868 33.1483ZM25.4592 33.6696C25.5217 33.6651 25.5841 33.6597 25.6466 33.6543C25.6926 33.6503 25.7387 33.6463 25.7848 33.6426C25.8581 33.6367 25.9314 33.6307 26.0047 33.6244C27.0536 33.5343 28.0951 33.4023 29.1212 33.2284C29.1435 33.2246 29.1658 33.221 29.188 33.2175C29.2149 33.2131 29.2417 33.2088 29.2684 33.2041C29.2687 33.2041 29.268 33.2043 29.2684 33.2041C29.2775 33.2027 29.2875 33.2011 29.2964 33.1995L29.2684 33.0163L29.268 33.0141L28.4722 27.8161C27.7741 27.9522 27.0607 28.0614 26.3483 28.141L26.3155 28.3445L26.3139 28.355L25.4592 33.6696ZM17.3047 33.3993C17.5111 33.4286 17.7186 33.4548 17.9263 33.4806C17.9665 33.4857 18.0067 33.4909 18.0469 33.4961C18.1083 33.5042 18.1697 33.5122 18.2313 33.5194C18.5212 33.5529 18.8122 33.5829 19.1039 33.6098C19.1087 33.6102 19.1136 33.6107 19.1184 33.6112C19.1206 33.6115 19.1228 33.6117 19.1249 33.6119C19.7484 33.669 20.3759 33.7095 21.0054 33.7359C21.0056 33.7345 21.0057 33.7331 21.0058 33.7317C21.0065 33.7237 21.0071 33.7158 21.0106 33.7085L23.3964 28.6787L23.574 28.3038C23.5273 28.304 23.4806 28.3047 23.434 28.3047C23.0547 28.3047 22.6765 28.2954 22.3012 28.2785C21.9923 28.2648 21.6857 28.2457 21.3824 28.2205L21.3439 28.2696L17.3047 33.3993ZM18.8404 27.8643L13.5665 32.6563C13.8807 32.7378 14.1977 32.8145 14.5167 32.8869C14.5773 32.9007 14.6381 32.9137 14.6989 32.9267C14.7312 32.9336 14.7634 32.9404 14.7955 32.9474C15.1805 33.0314 15.5683 33.1096 15.9596 33.1806C16.3039 33.2432 16.6502 33.3015 16.9987 33.354C17.0014 33.3417 17.0054 33.3294 17.0136 33.3192L17.0774 33.2378L21.0529 28.1895C20.8508 28.1699 20.6499 28.1477 20.4501 28.1229C19.9013 28.055 19.362 27.9693 18.8404 27.8643ZM10.1719 31.5541C10.5929 31.7211 11.0225 31.8775 11.4582 32.0254C11.4947 32.0378 11.5309 32.0506 11.5671 32.0634C11.6154 32.0805 11.6636 32.0975 11.7126 32.1136C12.1689 32.2638 12.6342 32.4011 13.1039 32.5308C13.1264 32.5371 13.1488 32.5434 13.1711 32.5498C13.2032 32.5589 13.2352 32.568 13.2675 32.5767C13.2723 32.5647 13.2777 32.5528 13.2877 32.5439L18.5155 27.7941C17.7598 27.6289 17.031 27.4247 16.3483 27.1833L10.1719 31.5541ZM7.16231 30.1178C7.23251 30.1578 7.30387 30.1967 7.37521 30.2355C7.40173 30.25 7.42826 30.2644 7.45471 30.2789C7.89301 30.5197 8.34331 30.7479 8.80501 30.9634C8.88171 30.9993 8.95841 31.0351 9.03591 31.0703C9.31851 31.1986 9.60421 31.3229 9.89491 31.4421C9.90111 31.4292 9.90951 31.4174 9.92161 31.4089L16.0489 27.072C15.3286 26.8008 14.6503 26.4872 14.0327 26.1354L7.16231 30.1178ZM13.7779 25.9837C13.1813 25.6241 12.6461 25.2316 12.1877 24.8133L4.63301 28.3998C5.24311 28.897 5.92461 29.3742 6.67491 29.8288C6.69819 29.843 6.72128 29.8572 6.74436 29.8713C6.78921 29.8989 6.83403 29.9265 6.88011 29.9535C6.88555 29.9568 6.89082 29.96 6.89607 29.9632C6.90222 29.967 6.90835 29.9708 6.91471 29.9745C6.92201 29.9626 6.93181 29.9521 6.94431 29.9448L13.7779 25.9837ZM11.2029 23.3299C11.4705 23.737 11.8004 24.1298 12.1855 24.5003L15.6861 22.8384C15.4923 22.7012 15.3023 22.5613 15.1156 22.4202C14.9566 22.2998 14.7998 22.1786 14.6474 22.0563L11.2029 23.3299ZM10.5305 21.8952C10.6474 22.2935 10.8175 22.6853 11.0373 23.0624L14.0853 21.9351L14.2045 21.8912L14.3706 21.8297C14.0867 21.5914 13.8443 21.3361 13.6488 21.0697L10.5305 21.8952ZM10.3353 20.4723C10.3303 20.8517 10.3699 21.2303 10.4538 21.6003L13.4702 20.8019C13.3187 20.5502 13.2072 20.2899 13.1373 20.0252L10.3353 20.4723ZM12.9057 18.9491L10.5512 19.077C10.4445 19.4388 10.3767 19.8036 10.3492 20.1647L12.7667 19.779L12.8572 19.7645L12.8633 19.7635L12.8704 19.7624L12.8813 19.7606L13.0768 19.7294C13.0688 19.6739 13.0634 19.6181 13.0591 19.5624C13.0426 19.3548 13.0504 19.1464 13.0843 18.9393L12.9669 18.9457L12.9359 18.9475L12.9057 18.9491ZM11.1494 17.7022C10.9462 18.0537 10.7788 18.4123 10.6509 18.771L12.9824 18.6444L13.0299 18.6417L13.0773 18.6392L13.1528 18.6351C13.2011 18.466 13.2682 18.2993 13.3498 18.1354C13.4018 18.0301 13.4589 17.9258 13.5246 17.8234L13.4905 17.8216L11.1494 17.7022ZM12.1457 16.338C11.8355 16.6864 11.5609 17.0463 11.3272 17.4106L13.6577 17.5295L13.7312 17.5333C13.9585 17.2439 14.2393 16.9704 14.5693 16.7169L12.1457 16.338ZM13.5802 14.9986C13.1457 15.3416 12.7473 15.7017 12.3928 16.0711L14.8888 16.4615L14.9211 16.4665L14.9418 16.4527C15.3419 16.191 15.7448 15.9305 16.1501 15.6713L13.5802 14.9986ZM15.2062 13.7894C14.7791 14.0961 14.3458 14.4159 13.886 14.7636L16.4748 15.4414L16.5005 15.448C16.8942 15.1979 17.2901 14.9492 17.6886 14.7014L17.6694 14.6944L15.2062 13.7894ZM17.0367 12.5295C16.531 12.8619 16.029 13.2046 15.5098 13.5728L18.0001 14.4876L18.0212 14.4955C18.4768 14.2142 18.9415 13.9305 19.4066 13.6506L19.3913 13.6433L17.0367 12.5295ZM19.0962 11.2525C18.5137 11.5924 17.9254 11.954 17.344 12.3295L19.711 13.4494L19.7281 13.4576C20.2487 13.1459 20.7767 12.8344 21.3016 12.5292L21.288 12.5213L19.0962 11.2525ZM21.2875 10.0516C20.6324 10.3902 20.0026 10.7321 19.4123 11.07L21.6168 12.346C22.1522 12.0364 22.6933 11.7278 23.2288 11.4265L23.2174 11.4183L21.2875 10.0516ZM25.0228 10.4198L23.4611 8.99583L23.4504 8.98603C23.2506 9.08023 23.0567 9.17293 22.8653 9.26523C22.4309 9.47463 22.0146 9.68033 21.61 9.88623L23.5294 11.2454L23.5394 11.2524C24.0363 10.9746 24.5372 10.6981 25.0323 10.4282L25.0228 10.4198ZM26.6844 9.52673L25.5985 8.13793L25.5231 8.04133L25.4961 8.05313C24.8787 8.32643 24.313 8.58313 23.7721 8.83523L25.3291 10.2551L25.3373 10.2624C25.7866 10.0191 26.2381 9.77723 26.6921 9.53653L26.6844 9.52673ZM28.4615 8.59973L27.8016 7.18813C27.1269 7.39963 26.4688 7.63993 25.8419 7.90383L26.987 9.36853L26.994 9.37723C27.4821 9.12013 27.973 8.86473 28.4668 8.61103L28.4615 8.59973ZM28.7721 8.44903L28.7767 8.45883C29.2525 8.23743 29.772 8.05133 30.3247 7.90433L30.3218 7.88583L30.3201 7.87363L30.1227 6.58543C29.4475 6.72653 28.7801 6.89463 28.1352 7.08623L28.7721 8.44903ZM45.3891 17.5642L46.7312 17.7741C47.0413 17.4257 47.3159 17.0661 47.5497 16.7018L45.1453 16.5794C44.9874 16.7801 44.802 16.9728 44.5938 17.157C44.5025 17.2379 44.4079 17.3176 44.3073 17.395L45.367 17.5608L45.3891 17.5642ZM45.2969 19.1136C45.7317 18.7703 46.13 18.4105 46.484 18.0414L43.9546 17.6459C43.9525 17.6473 43.9505 17.6487 43.9484 17.6501C43.9438 17.6531 43.9391 17.6562 43.9343 17.6592C43.6802 17.8256 43.4241 17.9906 43.1679 18.1555L43.081 18.2114C43.0338 18.2419 42.9867 18.2725 42.9397 18.303C42.869 18.349 42.7983 18.3949 42.7269 18.4405L45.2969 19.1136ZM43.6712 20.3224C43.6873 20.3109 43.7034 20.2993 43.7195 20.2877C43.7405 20.2725 43.7615 20.2573 43.7823 20.2421C43.8267 20.2102 43.871 20.1781 43.9156 20.1458L43.9222 20.141C44.269 19.8892 44.6217 19.6279 44.9911 19.3485L42.3769 18.6638C41.9831 18.9139 41.5873 19.1628 41.1889 19.4104L43.6712 20.3224ZM39.5325 20.4904L41.8402 21.5824C41.9383 21.518 42.0379 21.4508 42.1373 21.3837C42.1744 21.3587 42.2114 21.3337 42.2484 21.3088C42.5001 21.14 42.7529 20.967 43.0077 20.7896C43.0493 20.7607 43.0908 20.7319 43.1323 20.7032C43.2105 20.6492 43.2885 20.5952 43.3668 20.5397L40.9233 19.6418L40.8555 19.617C40.6765 19.7275 40.4967 19.8367 40.3167 19.946C40.2469 19.9884 40.177 20.0308 40.1071 20.0733C40.0349 20.1174 39.9627 20.1616 39.8905 20.2058C39.7504 20.2917 39.6106 20.3773 39.4709 20.4614L39.5325 20.4904ZM39.7801 22.8596C40.362 22.5201 40.9502 22.1585 41.5325 21.7826L39.1487 20.6549C38.6594 20.9479 38.1629 21.2408 37.6673 21.5296C37.6366 21.5475 37.6059 21.5657 37.5752 21.5835L37.6312 21.6158L39.7801 22.8596ZM35.6965 22.7203L37.5324 24.0204L37.5891 24.0604C38.2417 23.7231 38.8711 23.3811 39.4639 23.0421L37.316 21.7988L37.26 21.7665C37.189 21.8076 37.1174 21.8487 37.0457 21.8898C36.994 21.9194 36.9423 21.949 36.8907 21.9787C36.4788 22.2154 36.064 22.452 35.6481 22.6858L35.6965 22.7203ZM35.3515 25.0582L35.4266 25.1265C35.4522 25.1145 35.4772 25.1025 35.5023 25.0906C35.5213 25.0815 35.5404 25.0724 35.5597 25.0632C36.1609 24.7783 36.7239 24.5023 37.2671 24.2256L35.3859 22.8931L35.3383 22.8596C35.0371 23.0278 34.731 23.1973 34.4233 23.3666C34.2308 23.4726 34.0381 23.5786 33.8443 23.6842L33.8848 23.7209L35.3515 25.0582ZM33.2569 25.9457L33.3548 26.0712L33.3789 26.0605C33.842 25.8555 34.278 25.6589 34.6987 25.4653C34.8359 25.4023 34.9715 25.3395 35.1058 25.2769L35.0262 25.2045L33.5807 23.8861L33.5402 23.8494C33.0911 24.0927 32.6394 24.3348 32.1852 24.5753L32.2175 24.6165L33.2569 25.9457ZM30.4341 25.5522L31.0756 26.9246C31.7505 26.713 32.4089 26.4726 33.036 26.2085L31.9162 24.7762L31.8836 24.7344C31.7834 24.7872 31.6824 24.8395 31.5814 24.8918C31.5097 24.9289 31.438 24.966 31.3666 25.0033C31.3135 25.0311 31.2604 25.0588 31.2073 25.0866C30.9422 25.2251 30.6772 25.3635 30.41 25.5008L30.4341 25.5522ZM30.1008 25.6528C29.7576 25.8127 29.3909 25.9534 29.0063 26.0751C28.8575 26.1222 28.7066 26.167 28.5523 26.2082L28.5626 26.2747L28.5721 26.3372L28.6756 27.012L28.6797 27.0395L28.7544 27.5269C29.0786 27.4593 29.4006 27.3851 29.7196 27.3053C30.0651 27.2188 30.4069 27.1259 30.7425 27.0263L30.1252 25.7053L30.1008 25.6528ZM24.0345 28.0691C24.5783 28.0562 25.1268 28.0214 25.6736 27.9741C25.7232 27.9699 25.7729 27.9662 25.8226 27.9625C25.8997 27.9568 25.9767 27.9511 26.0534 27.9433L26.2739 26.5734C25.8106 26.6028 25.3436 26.6053 24.8799 26.5837C24.8622 26.5829 24.8444 26.5823 24.8267 26.5816C24.7983 26.5805 24.77 26.5795 24.7417 26.5778L24.7012 26.6634L24.0345 28.0691ZM21.5863 28.0079C21.6142 28.01 21.6422 28.0117 21.6701 28.0133C21.688 28.0144 21.7059 28.0155 21.7237 28.0166C22.3204 28.058 22.9281 28.078 23.5384 28.0751C23.5525 28.0751 23.5666 28.0752 23.5807 28.0753C23.6041 28.0754 23.6274 28.0756 23.6509 28.0753L24.0903 27.1487L24.1232 27.0797L24.3328 26.6376L24.3736 26.5512C23.8727 26.5073 23.3805 26.4337 22.9068 26.3311L22.8815 26.3634L21.5863 28.0079ZM19.0855 27.68C19.3909 27.7381 19.7022 27.7893 20.0173 27.835C20.0829 27.8446 20.1488 27.8539 20.2148 27.8628C20.5352 27.9064 20.8591 27.9442 21.186 27.9743L22.5465 26.2467C22.1035 26.135 21.6785 25.9973 21.2811 25.8367L21.1656 25.7898L21.0697 25.8771L20.9796 25.9588L19.9547 26.8902L19.8951 26.9442L19.0855 27.68ZM16.61 27.0329C17.2672 27.2563 17.9648 27.4464 18.6869 27.5997L20.7361 25.7377L20.8311 25.6512C20.358 25.4519 19.8928 25.2427 19.4443 25.0273L16.61 27.0329ZM14.2905 26.0189C14.8902 26.35 15.5448 26.6467 16.2397 26.902L17.9345 25.7024L18.0208 25.6412L18.6145 25.2211L18.619 25.218L19.1151 24.8668C18.8741 24.7474 18.6363 24.6247 18.4019 24.5002C18.1512 24.3671 17.9047 24.2315 17.664 24.0939C17.6553 24.089 17.646 24.0841 17.6372 24.0791L17.51 24.1526L14.2905 26.0189ZM15.9817 23.0437L15.8374 23.1124L12.433 24.7285C12.88 25.1242 13.397 25.4965 13.9731 25.8376L17.3225 23.8961C16.8589 23.6217 16.409 23.3357 15.9817 23.0437ZM42.7256 18.1684C42.799 18.1208 42.8724 18.0732 42.9461 18.0257C42.4227 17.3376 41.6667 16.6952 40.6992 16.1352C37.5092 14.2887 32.9263 13.8622 29.8013 15.1211C28.7132 15.5593 25.1695 17.5449 24.3622 18.0128C23.4538 18.5395 19.7197 20.9759 18.9786 21.5942C18.2081 22.237 17.7669 23.0062 17.6795 23.8438C17.6842 23.8458 17.6895 23.8456 17.694 23.8483C17.9166 23.9767 18.1455 24.103 18.3774 24.2279C18.3555 23.4588 18.7191 22.7401 19.4359 22.1421C20.1052 21.5837 23.7706 19.1808 24.7201 18.6303C25.6656 18.0822 29.0713 16.1842 30.0678 15.783C32.9584 14.6186 37.3751 15.0355 40.3417 16.7528C41.1969 17.2477 41.8738 17.8173 42.3406 18.4162C42.3479 18.4115 42.3563 18.4073 42.3642 18.4046C42.3701 18.3985 42.3769 18.3932 42.3842 18.3885C42.4987 18.3155 42.6122 18.242 42.7256 18.1684ZM27.909 12.9215C32.0323 11.1844 37.7679 11.5116 41.5462 13.6986C43.1117 14.6047 44.1391 15.7241 44.5241 16.9125C44.715 16.7355 44.8837 16.551 45.0261 16.3594C45.0288 16.3558 45.0317 16.3524 45.0347 16.3492C45.0365 16.3474 45.0383 16.3456 45.0402 16.3439C45.0431 16.3377 45.0466 16.3316 45.0507 16.3261C45.0529 16.3231 45.0548 16.32 45.0567 16.3169C45.0581 16.3145 45.0596 16.3122 45.0612 16.3098C44.543 15.0988 43.4621 13.983 41.9037 13.081C37.9472 10.7907 31.9447 10.4469 27.6319 12.2637C26.1312 12.8958 23.4618 14.3114 22.1902 15.0484C20.8299 15.8369 18.2108 17.6013 17.1855 18.4194C15.8652 19.4727 15.1407 20.7766 15.1111 22.126C15.3534 22.3126 15.6012 22.4966 15.8563 22.6762C15.8452 22.6011 15.8359 22.5258 15.8304 22.4504C15.7367 21.1923 16.3592 19.9915 17.6306 18.9773C18.6359 18.1748 21.2097 16.4417 22.5481 15.6658C23.8309 14.9224 26.4909 13.5186 27.909 12.9215ZM27.3592 27.777C27.7117 27.7233 28.0628 27.6637 28.4096 27.5963L28.2231 26.3778L28.2205 26.3605L28.2101 26.2933C28.1188 26.3143 28.026 26.3332 27.9332 26.3521C27.752 26.3894 27.5688 26.423 27.3831 26.4519C27.1363 26.4902 26.8866 26.522 26.6338 26.5453L26.6211 26.6249L26.4154 27.904C26.5695 27.8863 26.7234 27.8645 26.8774 27.8427C26.9248 27.836 26.9723 27.8293 27.0197 27.8227C27.065 27.8164 27.1103 27.8106 27.1556 27.8048C27.2235 27.796 27.2915 27.7873 27.3592 27.777ZM28.3077 26.0394C28.3166 26.0344 28.3263 26.0305 28.3362 26.028C28.4715 25.9943 28.6037 25.9568 28.735 25.9184L24.9572 23.7373L22.486 25.1977L21.0083 24.3453L26.8525 20.9493L28.8816 22.1266C28.5316 22.4603 28.3659 22.86 28.4112 23.2728C28.4631 23.7473 28.7958 24.184 29.3474 24.5025C29.7808 24.7526 30.3302 24.9166 30.9202 24.9777C31.0043 24.9341 31.0885 24.8905 31.1727 24.8469C31.4029 24.7277 31.6331 24.6085 31.8614 24.488C31.8696 24.4838 31.878 24.4805 31.8864 24.4784C31.893 24.4725 31.9005 24.4675 31.9085 24.4632C32.4432 24.181 32.9748 23.8965 33.5025 23.61C33.5102 23.6058 33.5181 23.6028 33.5261 23.6005C33.5323 23.595 33.5391 23.5901 33.5466 23.586C33.8465 23.4233 34.146 23.2594 34.4434 23.0953C34.4215 22.6 34.0902 22.1314 33.5016 21.7913C32.8225 21.3992 31.8572 21.2205 30.9214 21.3132C30.4444 21.3601 29.993 21.4765 29.6095 21.6504L27.6264 20.4995L33.4718 17.1026L34.9238 17.9466L32.4237 19.3994L36.6618 21.8465C36.7102 21.8188 36.7586 21.791 36.807 21.7633C36.9388 21.6877 37.0706 21.6122 37.2008 21.5368L37.2029 21.5357L37.2438 21.512L37.2541 21.5061L37.2905 21.4848L37.2916 21.4843C37.3406 21.4558 37.39 21.4265 37.4393 21.398L33.9748 19.3976L35.6999 18.3953L39.153 20.3889C39.1583 20.3839 39.1642 20.3793 39.1707 20.3754C39.4072 20.2336 39.6454 20.0892 39.8834 19.9444L33.4724 16.2458L19.4596 24.3892L21.9907 25.8494C22.2437 25.9308 22.5045 26.0039 22.7723 26.0667C22.7828 26.0692 22.7932 26.0733 22.8026 26.0785C22.8132 26.0781 22.824 26.0788 22.8347 26.0813C23.3484 26.1985 23.8862 26.2795 24.4343 26.3256L23.2626 25.6471L24.962 24.6368L27.6303 26.1773C27.849 26.1377 28.0658 26.0942 28.2772 26.0426C28.2874 26.0401 28.299 26.0385 28.3077 26.0394ZM34.8429 6.04333C34.2948 6.05613 33.7421 6.09123 33.1918 6.13913L33.1812 6.14003C33.1357 6.144 33.09 6.14741 33.0443 6.15083C32.9773 6.15584 32.9103 6.16085 32.8435 6.16763C32.8418 6.16776 32.84 6.16789 32.8382 6.16802C32.8333 6.16837 32.8284 6.16872 32.8235 6.16923L32.608 7.50863L32.603 7.53913C33.112 7.50703 33.6263 7.50543 34.1351 7.53473L34.8429 6.04333ZM37.2912 6.10453C37.0855 6.08913 36.878 6.07703 36.6698 6.06683L36.6351 6.06543C36.5261 6.06003 36.4172 6.05493 36.3077 6.05113C35.9493 6.03883 35.5882 6.03363 35.2264 6.03703L34.5034 7.56133C34.7661 7.58433 35.0262 7.61603 35.2828 7.65533C35.5154 7.69103 35.7452 7.73273 35.9705 7.78143L36.0083 7.73363L36.0196 7.71913L37.2912 6.10453ZM39.7917 6.43253C39.1139 6.30303 38.4089 6.20423 37.6915 6.13803L36.4121 7.76293L36.3716 7.81423L36.3311 7.86583C36.7735 7.97773 37.1984 8.11523 37.5961 8.27583L37.7115 8.32293L39.7917 6.43253ZM42.2671 7.07963C41.6097 6.85623 40.9124 6.66593 40.1902 6.51283L38.0458 8.46133C38.5191 8.66073 38.9846 8.87023 39.4331 9.08533L42.2671 7.07963ZM44.5858 8.09313C44.4265 8.00513 44.2627 7.92003 44.0959 7.83713C43.6351 7.60803 43.1476 7.39803 42.6373 7.21053L39.7621 9.24593C40.2698 9.49733 40.7629 9.76023 41.2392 10.033L44.5858 8.09313ZM46.4442 9.38403C45.9966 8.98793 45.4791 8.61533 44.9032 8.27453L41.5535 10.2162C42.0185 10.4911 42.4662 10.7757 42.8953 11.0688L46.4442 9.38403ZM48.3465 12.2171C48.2295 11.8181 48.0594 11.4265 47.8398 11.0501L44.5221 12.2771L44.5066 12.2828C44.7904 12.5211 45.0325 12.7764 45.2281 13.0426L48.3465 12.2171ZM47.6743 10.7826C47.4065 10.3755 47.0766 9.98273 46.6915 9.61223L43.1907 11.2743C43.2381 11.3077 43.2843 11.3418 43.3306 11.376C43.3572 11.3956 43.3839 11.4152 43.4107 11.4347C43.6917 11.6386 43.9669 11.8457 44.2295 12.0564L47.6743 10.7826ZM32.4617 6.20833C31.7927 6.28533 31.123 6.38863 30.4674 6.51623L30.6669 7.81913C31.1744 7.70173 31.7034 7.61713 32.2432 7.56723L32.2477 7.53883L32.4617 6.20833ZM44.6975 12.8414C42.7986 11.2657 40.4339 9.89693 37.7115 8.79783C34.9051 7.66463 31.1123 7.79693 28.5391 9.11833C26.1009 10.3702 23.7294 11.6641 21.4275 12.9984C19.1256 14.3326 16.8937 15.7072 14.734 17.1205C14.3008 17.4038 13.9438 17.7133 13.6602 18.0389C13.5119 18.2886 13.4058 18.5462 13.3435 18.808C13.3423 18.8138 13.3403 18.8196 13.338 18.8251C13.3376 18.8308 13.3367 18.8365 13.3355 18.842C13.3322 18.8575 13.3299 18.8731 13.3275 18.8887C13.3259 18.8996 13.3243 18.9105 13.3223 18.9214C13.6266 18.3752 14.1231 17.8642 14.7966 17.4238C16.9431 16.019 19.1934 14.6332 21.485 13.3049C23.7767 11.9765 26.1676 10.672 28.5914 9.42773C31.1468 8.11523 34.8798 7.98513 37.6691 9.11123C40.3893 10.2096 42.7296 11.5642 44.6247 13.137C45.0036 13.4513 45.3012 13.7897 45.5151 14.1439C45.4352 13.8422 45.2992 13.5459 45.1041 13.2622C45.1012 13.2583 45.0987 13.254 45.0966 13.2497C45.095 13.248 45.0933 13.2461 45.0918 13.2442C45.0903 13.2424 45.089 13.2406 45.0877 13.2387C45.0545 13.1914 45.0179 13.1448 44.9814 13.0984L44.9737 13.0885C44.887 13.0048 44.7951 12.9224 44.6975 12.8414ZM22.5124 33.7689C23.396 33.7718 24.2803 33.7457 25.1616 33.6892C25.1616 33.6873 25.1613 33.6854 25.161 33.6835C25.1606 33.6806 25.1602 33.6778 25.1607 33.6749L26.0433 28.1873L26.0456 28.1725L26.0213 28.1748C25.6356 28.2128 25.2485 28.2426 24.8619 28.2639C24.5379 28.2817 24.2147 28.2944 23.8934 28.3001L23.6745 28.7618L23.6484 28.8166L21.3094 33.7479C21.3678 33.7499 21.4263 33.7511 21.4847 33.7523C21.5262 33.7531 21.5676 33.7539 21.609 33.755C21.718 33.7579 21.8271 33.7606 21.9363 33.7625C22.1283 33.7661 22.3202 33.7682 22.5124 33.7689ZM57.5542 9.80913C57.2524 9.14633 56.8574 8.49473 56.3686 7.86193C56.3634 7.86513 56.3591 7.86923 56.3534 7.87133L48.0403 10.9455C48.2724 11.3455 48.4516 11.7619 48.5731 12.1868L57.5542 9.80913ZM58.2248 12.1228C58.133 11.4211 57.9435 10.7241 57.655 10.0387L48.6353 12.4262C48.7279 12.8212 48.7721 13.2262 48.7675 13.6331L58.2248 12.1228Z" fill="#4BBDCF"/>
</svg>
