<svg width="64" height="44" viewBox="0 0 64 44" fill="none" xmlns="http://www.w3.org/2000/svg">
<path d="M40.0982 35.8902L39.2351 36.3867V35.8069L40.0982 35.3106V35.8902Z" fill="#4BBDCF"/>
<path d="M37.203 36.9815V37.5613L37.9829 37.1121V36.5325L37.203 36.9815Z" fill="#4BBDCF"/>
<path d="M38.9894 36.5323L38.2191 36.974V36.3942L38.9894 35.9527V36.5323Z" fill="#4BBDCF"/>
<path d="M51.9809 28.9465L52.844 28.45V27.8704L51.9809 28.3667V28.9465Z" fill="#4BBDCF"/>
<path d="M50.7288 29.6719L49.9488 30.1211V29.5413L50.7288 29.0923V29.6719Z" fill="#4BBDCF"/>
<path d="M50.9649 29.5338L51.7352 29.0921V28.5125L50.9649 28.954V29.5338Z" fill="#4BBDCF"/>
<path d="M44.3468 33.4102L43.4838 33.9067V33.3269L44.3468 32.8306V33.4102Z" fill="#4BBDCF"/>
<path d="M41.4516 35.0812L42.2315 34.632V34.0524L41.4516 34.5014V35.0812Z" fill="#4BBDCF"/>
<path d="M43.238 34.0522L42.4677 34.494V33.9142L43.238 33.4726V34.0522Z" fill="#4BBDCF"/>
<path d="M47.7323 31.4266L48.5954 30.9301V30.3505L47.7323 30.8468V31.4266Z" fill="#4BBDCF"/>
<path d="M46.4801 32.152L45.7002 32.6012V32.0214L46.4801 31.5724V32.152Z" fill="#4BBDCF"/>
<path d="M46.7163 32.0139L47.4866 31.5722V30.9926L46.7163 31.4341V32.0139Z" fill="#4BBDCF"/>
<path d="M56.2296 26.4659V25.8861L57.0927 25.3898V25.9694L56.2296 26.4659Z" fill="#4BBDCF"/>
<path d="M54.1974 27.6405L54.9774 27.1913V26.6117L54.1974 27.0607V27.6405Z" fill="#4BBDCF"/>
<path d="M55.2135 27.0532V26.4734L55.9838 26.0319V26.6115L55.2135 27.0532Z" fill="#4BBDCF"/>
<path d="M24.2992 25.2778L26.1744 24.1632L30.2662 26.5254L28.3634 27.6313L24.2992 25.2778Z" fill="#4BBDCF"/>
<path d="M39.1021 21.3905L41.005 20.2846L36.9126 17.9219L35.0098 19.0276L39.1021 21.3905Z" fill="#4BBDCF"/>
<path d="M32.0602 23.951C31.6706 23.8914 31.3157 23.7739 31.0342 23.6112C30.7641 23.4552 30.572 23.2647 30.4783 23.0603C30.3228 22.7208 30.4489 22.3641 30.8241 22.0753L33.8232 23.8069C33.2985 23.9901 32.6671 24.0425 32.0602 23.951Z" fill="#4BBDCF"/>
<path d="M34.8599 22.8404C34.8901 22.5138 34.6646 22.1864 34.2414 21.9422C33.7856 21.6787 33.1501 21.5411 32.4991 21.5615C32.1316 21.5734 31.7672 21.6387 31.4532 21.7475L34.4517 23.4787C34.6981 23.2895 34.8389 23.0697 34.8599 22.8404Z" fill="#4BBDCF"/>
<path fill-rule="evenodd" clip-rule="evenodd" d="M11.0744 33.7951L9.7795 34.5431L5.8758 32.2894V31.5788L5.261 31.9336L5.2599 31.9342L1.3564 29.6806V29.0721L1.3574 29.0728V28.1849L1.3564 28.1844L0 27.4012V20.4766L6.3114 16.8328L6.2067 16.7721L5.2624 16.2269V15.2284L5.2908 15.2108L5.2623 15.1944L27.3689 2.2976L29.3038 3.4148L35.2183 0L39.9662 2.7413C40.0528 2.737 40.1418 2.734 40.2354 2.734C41.785 2.734 43.6206 3.3402 45.6909 4.5357C48.8934 6.3846 50.9437 8.6264 52.0118 10.0134L53.3791 10.8029V11.8153L54.1114 13.0946L54.9736 13.6944L56.8971 12.5837L63.4528 16.3688V23.2359L62.0966 24.0189V25.5127L58.193 27.7664L57.5757 27.4114V28.1228L47.7684 33.8477L47.7381 33.8653L41.4525 37.5345L41.4516 37.535L36.6988 40.3093L36.086 39.9556V40.6654L32.1825 42.9191L32.18 42.9181L30.8864 42.1738V42.1715L28.2347 43.7025L25.5849 42.1725L24.2888 42.9181L20.3852 40.6643V39.9543L19.7705 40.3093L15.8667 38.0556V36.5619L11.0744 33.7951ZM63.0987 16.5732L56.8971 12.9934L55.2954 13.9183L58.3297 16.0293L58.3306 16.0302L58.3314 16.0311L58.335 16.0339L58.3382 16.0371L58.3435 16.0431L58.3475 16.0478L58.352 16.0525L58.3574 16.0583L58.3591 16.0602C58.3602 16.0617 58.3613 16.0632 58.3623 16.0648C58.3627 16.0655 58.3634 16.0658 58.3639 16.0666C58.3651 16.0687 58.3658 16.0709 58.3665 16.0731L58.3672 16.076C58.3678 16.0782 58.3684 16.0806 58.3693 16.0828C58.3723 16.0906 58.3759 16.0983 58.3771 16.1067C58.3776 16.1094 58.3777 16.112 58.3777 16.1146L58.3774 16.1198L58.3768 16.1288L58.3765 16.1398C58.3763 16.1433 58.376 16.1469 58.3752 16.1504C58.3736 16.1574 58.3704 16.1636 58.3671 16.1699L58.365 16.1741C58.364 16.1761 58.3633 16.1782 58.3626 16.1802L58.3615 16.1832C58.3607 16.1853 58.3598 16.1874 58.3584 16.1893C58.358 16.19 58.3573 16.1902 58.3568 16.1907C58.3475 16.2037 58.3359 16.215 58.3211 16.2235L54.8892 18.1867L55.2992 18.4234L55.3829 18.4716L57.5966 19.7498L63.0987 16.5732ZM51.6391 26.5857V26.9647L52.5135 26.4596V26.0807L52.1727 25.8839V24.2326L52.7247 23.9106V25.3773L52.3786 25.5771L52.7265 25.7779L52.8533 25.8513V26.2302L53.7277 25.7251V25.3462L53.3853 25.1485V23.5253L55.752 22.1446V23.6296L55.4076 23.8284L55.7388 24.0195L55.7867 24.0473L55.8824 24.1026V24.4813L56.7569 23.9765V23.5975L56.4126 23.3988V21.7593L57.1751 21.3144V21.5222L60.8802 19.3844V18.838L58.1905 20.3897V20.0927L36.0841 32.9892L28.2347 28.4573L20.3852 32.9892L5.2623 24.258V24.5689L2.5486 23.0033V23.5497L6.1905 25.6509L6.2536 25.6875V25.4599L7.0388 25.913V27.565L6.6961 27.7628V28.1417L7.5706 28.6468V28.2679L8.0451 27.9938L7.6994 27.794V26.2944L10.0764 27.6668V29.3088L9.8716 29.4269L9.7253 29.5115V29.8904L10.5996 30.3955V30.0165L10.7463 29.932L11.0744 29.7425L10.737 29.5477V28.0483L17.0322 31.6828V33.3303L16.6858 33.5303V33.9092L17.5601 34.4143V34.0354L17.7067 33.9506L18.0348 33.7613L17.6928 33.5637V32.0642L20.0689 33.4359V33.7685C20.0627 33.7826 20.0591 33.7981 20.0591 33.8145V35.0802L19.7148 35.279V35.6579L20.5893 36.163V35.784L21.064 35.51L20.7292 35.3166C20.7292 35.3159 20.7295 35.3154 20.7295 35.3145V33.4656C20.7295 33.4509 20.7263 33.4374 20.7213 33.4245L21.6788 32.8718L21.6906 32.8651C21.6974 32.8611 21.7075 32.8552 21.7206 32.8478L28.2347 29.0867L33.0688 31.8778L33.0933 31.892L35.7544 33.4283V34.1206L35.7496 34.1233V35.3111L35.4053 35.51L35.88 35.784V36.163L36.7545 35.6579V35.279L36.4102 35.0802V34.9363L36.4119 34.9295C36.4135 34.9239 36.415 34.9182 36.415 34.912V33.4256L38.7786 32.0466V33.5624L38.4345 33.7612L38.9092 34.0354V34.4143L39.7836 33.9092V33.5303L39.4394 33.3316V31.6712C39.4394 31.6695 39.4389 31.6679 39.4385 31.6663C39.4382 31.6653 39.4377 31.6634 39.4376 31.6623L39.9914 31.339V32.8288L39.6487 33.0267L40.1234 33.3009V33.6798L40.9977 33.1748V32.7958L40.652 32.5962V30.9537L43.0237 29.5702V31.0782L42.6777 31.278L43.1525 31.552V31.9311L44.027 31.4261V31.0472L43.6843 30.8493V29.1884C43.6843 29.1878 43.6841 29.1873 43.684 29.1867L43.6836 29.185L44.2364 28.8627V30.3446L43.8919 30.5435L44.3667 30.8176V31.1965L45.241 30.6914V30.3127L45.0988 30.2304L44.897 30.114V28.4773L47.2676 27.0944V28.5947L46.9212 28.7949L47.3959 29.0689V29.4478L48.2702 28.9428V28.5638L47.9282 28.3665V26.7088L48.4802 26.3868V27.8611L48.1354 28.0604L48.6099 28.3344V28.7133L49.4844 28.2083V27.8294L49.141 27.6312V26.0015L51.5119 24.6182V26.1108L51.1644 26.3117L51.6391 26.5857ZM57.1751 22.5914L60.8802 20.4536V19.9072L57.1751 22.0449V22.5914ZM57.3676 24.5707L36.6988 36.6357V40.0688L37.203 39.7747V38.0722L37.983 37.6232V39.3194L38.219 39.1815V37.4849L38.9893 37.0434V38.7319L39.2352 38.5885V36.8976L40.0983 36.4013V38.0845L41.4516 37.2946V35.5921L42.2316 35.143V36.8393L42.4676 36.7015V35.0048L43.2379 34.5632V36.2518L43.4838 36.1084V34.4175L44.3468 33.9212V35.6044L45.7002 34.8146V33.1121L46.4802 32.6631V34.3592L46.7164 34.2214V32.5248L47.4865 32.0833V33.7719L47.7323 33.6283V31.9376L48.5954 31.4412V33.1245L49.9488 32.3345V30.632L50.7288 30.183V31.8792L50.965 31.7413V30.0447L51.7351 29.6032V31.2917L51.9809 31.1483V29.4574L52.844 28.9611V30.6443L54.1974 29.8544V28.1514L54.9773 27.7023V29.3991L55.2135 29.2612V27.5641L55.9837 27.1225V28.8116L56.2295 28.6682V26.9768L57.0926 26.4805V28.1642L57.3676 28.0038V24.5707ZM35.8648 37.375L32.4037 39.3733V42.1831L35.8648 40.1848V37.375ZM30.7833 37.4176V37.9643L34.4883 35.8265V35.2801L30.7833 37.4176ZM34.4883 34.7572V34.2107L30.7833 36.3485V36.8949L34.4883 34.7572ZM22.2715 33.2138L28.2347 36.6568L34.1979 33.2138L32.1382 32.0248L28.2347 34.2785L28.217 34.2684L28.1988 34.2578L24.6142 32.1882C24.5197 32.1336 24.4253 32.079 24.3311 32.0248L22.2715 33.2138ZM21.9568 34.7572L25.6619 36.8949V36.3485L21.9568 34.2107V34.7572ZM21.9568 35.8265L25.6619 37.9643V37.4176L21.9568 35.2801V35.8265ZM19.7703 40.0526V36.6357L16.0949 34.5137L16.0879 37.9279L16.3709 38.0911V35.3106L17.1523 35.7598V38.5419L17.387 38.6773V35.8979L18.1647 36.3456V39.1262L18.403 39.2637V36.4853L19.2663 36.9816V39.7618L19.7703 40.0526ZM2.5486 24.6191L6.2536 26.7568V26.2102L2.5486 24.0724V24.6191ZM1.5794 29.2009L5.2599 31.3258V28.2607L1.5854 26.1392L1.5794 29.2009ZM0.5036 20.8707L0.8629 21.0648L5.8642 23.9104L5.9926 23.8362L6.0108 23.8259L8.2114 22.5553L5.3308 20.8919V20.3705L7.7058 18.9993L7.7418 18.9784L8.7825 18.3776L7.9029 17.8698L7.9003 17.8682L6.5558 17.092L0.3404 20.6281L0.2178 20.6976L0.5127 20.8655L0.5036 20.8707ZM5.6192 15.4268V16.0211L8.3582 17.6024L8.3609 17.6038L9.093 18.0266L9.0891 18.0331L12.5665 20.0408L13.1117 19.7261L13.6522 20.0383L13.6538 20.0392L29.4902 10.8004L29.4913 10.7998L29.5193 10.7836L31.2912 9.7498L31.3447 9.7185L34.4704 7.8951L41.5053 11.9568L49.0268 16.3276L49.0475 16.3111L48.1817 14.7988V13.7862L34.7905 6.0549V7.0673L33.9245 7.5799L33.9281 7.582L13.1117 19.7261L8.8968 17.2927L8.8943 17.2913L5.6412 15.4131L5.6192 15.4268ZM27.3698 2.7103L5.973 15.1928L9.2502 17.0847L9.2527 17.0861L13.1108 19.3136L34.3201 6.9403L34.3293 6.935L34.5074 6.8311L29.4438 3.9077L27.3698 2.7103ZM35.2183 0.4104L29.659 3.6199L31.7077 4.8027L35.1612 2.8273C35.1624 2.82657 35.1637 2.82627 35.1649 2.82597C35.1661 2.8257 35.1673 2.82542 35.1685 2.8248C35.1758 2.8212 35.1833 2.8193 35.1912 2.8173L35.1949 2.81641C35.2004 2.81506 35.2059 2.81373 35.2115 2.8134C35.2178 2.81305 35.2239 2.81383 35.2302 2.81463L35.2331 2.815L35.2342 2.81516C35.2415 2.8162 35.2488 2.81723 35.2558 2.8198C35.257 2.82023 35.2582 2.82039 35.2595 2.82054L35.2614 2.82083L35.2634 2.8214L38.0024 3.9926L38.0088 3.9953L38.0054 3.99594L38.0035 3.9962C37.735 4.0449 37.5304 4.1134 37.3828 4.1767C37.2339 4.2408 37.1425 4.2993 37.1061 4.325C36.9588 4.429 36.9195 4.6281 37.0096 4.781C37.0111 4.78357 37.0125 4.78618 37.0139 4.7888C37.0157 4.79228 37.0176 4.79585 37.0198 4.7992L37.0106 4.79968L36.9845 4.80076L36.9741 4.8013C36.1306 4.8547 35.7062 5.1214 35.6154 5.1856C35.4695 5.2889 35.4297 5.4853 35.5168 5.6378L35.522 5.64756C35.5254 5.65408 35.5288 5.66057 35.5332 5.6667C35.5516 5.6926 35.5737 5.714 35.5972 5.7333C35.7144 5.8291 35.8844 5.8408 36.0099 5.7516C36.0239 5.74282 36.4646 5.46696 37.4308 5.4989C37.5261 5.5019 37.6304 5.509 37.7403 5.5192C37.8531 5.5297 37.9737 5.5447 38.102 5.5645C38.4054 5.6114 38.7529 5.6874 39.1452 5.8036C39.8439 6.0105 40.6847 6.3464 41.676 6.8797L41.7129 6.8992C41.7332 6.90984 41.7533 6.92045 41.7741 6.9318C41.8025 6.94736 41.8318 6.96395 41.8611 6.98051L41.9158 7.0113L41.9721 7.04265C42.0429 7.08199 42.1137 7.12133 42.1864 7.1633C46.245 9.5066 48.3452 12.4902 48.8923 13.3492C48.8966 13.3558 48.8995 13.3601 48.9026 13.3647L48.9064 13.3702C48.9237 13.3961 48.9367 13.4143 48.9415 13.4202C49.007 13.4983 49.1028 13.5431 49.2043 13.5431C49.2794 13.5431 49.3538 13.5179 49.4136 13.4724C49.5522 13.3675 49.5879 13.1781 49.5033 13.0277C49.5014 13.0243 49.4996 13.0208 49.4978 13.0174C49.4949 13.0116 49.492 13.0058 49.4882 13.0004L49.4741 12.9781C48.9059 12.0861 46.7258 8.9876 42.5313 6.566C42.32 6.444 42.1161 6.3325 41.9158 6.2257L41.8923 6.21312C41.8527 6.19191 41.8132 6.17077 41.7741 6.1504C40.8218 5.6532 39.9951 5.3246 39.2833 5.1157C39.1076 5.0639 38.9387 5.0193 38.7768 4.9815L38.7278 4.9704L38.7076 4.966C38.4058 4.8982 38.1276 4.8525 37.8734 4.8258C37.8063 4.8186 37.7412 4.8129 37.6774 4.8083C37.7985 4.7615 37.9842 4.7062 38.2388 4.6709C38.2507 4.6693 38.2622 4.6675 38.2745 4.6659C38.4563 4.6427 38.6709 4.6299 38.9215 4.6381C38.9688 4.6397 39.0191 4.6425 39.0701 4.6457C39.1174 4.6486 39.1674 4.6529 39.2178 4.6575L39.2476 4.66C39.4421 4.6787 39.6596 4.7103 39.9001 4.7587C40.4165 4.8621 41.039 5.0441 41.7741 5.3508C41.8036 5.36306 41.8339 5.37625 41.8643 5.38947L41.9158 5.4118C42.4467 5.6403 43.0319 5.9302 43.677 6.3027C44.8671 6.9899 45.8875 7.7319 46.751 8.4592C48.8325 10.2129 49.9962 11.8815 50.383 12.4886L50.3902 12.4996L50.3994 12.5132C50.4153 12.5369 50.4276 12.554 50.4321 12.5596C50.4975 12.6377 50.5935 12.6825 50.695 12.6825C50.7703 12.6825 50.8447 12.6573 50.9041 12.612C51.0417 12.5078 51.0779 12.3205 50.996 12.1708C50.9903 12.1605 50.9856 12.1498 50.9789 12.14L50.9648 12.1177C50.6865 11.6809 50.0209 10.7149 48.923 9.5591C47.9206 8.5036 46.5578 7.2898 44.7966 6.1743C44.5463 6.0157 44.2883 5.8592 44.022 5.7054C43.2467 5.2578 42.547 4.9173 41.9158 4.6588C41.8711 4.64039 41.8272 4.62302 41.7833 4.60565L41.7741 4.602C41.4172 4.4606 41.083 4.3459 40.7712 4.2543C40.6641 4.2229 40.5594 4.194 40.4576 4.168C40.246 4.1136 40.0447 4.0697 39.8551 4.0356C39.6069 3.9914 39.3779 3.9632 39.1659 3.9477L39.1761 3.9446C39.1913 3.94 39.207 3.9354 39.2234 3.9307C39.2369 3.927 39.251 3.9232 39.2653 3.9195C39.2788 3.91587 39.2926 3.91242 39.3068 3.90887L39.3195 3.9057L39.3354 3.90199L39.3663 3.8949C39.3857 3.8904 39.4059 3.8861 39.4264 3.882C39.4432 3.87846 39.4605 3.8752 39.4782 3.87186C39.4996 3.86776 39.5224 3.8638 39.5449 3.8601L39.5516 3.85899C39.5686 3.85614 39.5859 3.85325 39.6036 3.8506C39.6269 3.8472 39.651 3.8438 39.6753 3.8408C39.6963 3.838 39.7174 3.8353 39.7391 3.8328C39.7646 3.8299 39.7914 3.8274 39.8181 3.8249L39.8256 3.8242C39.8456 3.82232 39.8659 3.82041 39.8868 3.8189C39.9082 3.81722 39.9302 3.81588 39.9524 3.81454L39.9728 3.8133L39.9985 3.81193C40.0142 3.81106 40.0299 3.81018 40.0462 3.8096C40.0704 3.80856 40.0955 3.80803 40.1207 3.8075L40.1603 3.80665C40.1793 3.80623 40.1983 3.8058 40.218 3.8058C40.2345 3.80574 40.2516 3.80598 40.2687 3.80622L40.3013 3.8066L40.3173 3.80681C40.3485 3.80721 40.3799 3.80762 40.4124 3.8089L40.4228 3.8092L40.4808 3.81195L40.502 3.813C40.5403 3.8149 40.5787 3.8169 40.6185 3.8198C40.6255 3.82024 40.6328 3.82088 40.6401 3.82151L40.6529 3.8226L40.6948 3.8262C40.702 3.8267 40.7091 3.8272 40.7164 3.828C40.7565 3.8315 40.797 3.8351 40.8386 3.8396C40.848 3.8406 40.8575 3.84179 40.8671 3.84299L40.8843 3.8451L40.92 3.84917L40.943 3.852C40.9854 3.8574 41.0283 3.8629 41.0721 3.8692C41.1087 3.8745 41.1462 3.8804 41.1836 3.8865L41.2156 3.89137C41.2301 3.89352 41.2446 3.89566 41.2596 3.8982C41.2705 3.90009 41.2818 3.90231 41.293 3.90454L41.3198 3.9097L41.3551 3.9164C41.3824 3.9214 41.4097 3.9266 41.4375 3.9321L41.4674 3.93774C41.4777 3.93964 41.4882 3.94157 41.4989 3.9437C41.5132 3.94668 41.5279 3.95 41.5426 3.95332C41.5555 3.95624 41.5686 3.9592 41.5813 3.9619C41.6221 3.9709 41.6635 3.9801 41.7055 3.9899C41.7159 3.99233 41.7261 3.99454 41.7363 3.99676C41.7487 3.99945 41.7612 4.00218 41.7741 4.0053C41.7897 4.00911 41.8058 4.01338 41.8219 4.01766L41.8571 4.0269L41.8644 4.02875C41.9048 4.03905 41.9458 4.04948 41.9872 4.0608C42.0394 4.0749 42.0928 4.0899 42.1465 4.1054C42.1916 4.1184 42.2371 4.1316 42.2833 4.1457C42.3382 4.1625 42.3944 4.1805 42.4508 4.1987L42.4687 4.20452C42.5099 4.21787 42.5511 4.23126 42.593 4.2454C42.6508 4.2652 42.71 4.2863 42.7694 4.3075L42.8024 4.31937C42.8405 4.33306 42.8788 4.34682 42.9177 4.3614C42.9678 4.38007 43.019 4.40017 43.0704 4.42036L43.1397 4.44756C43.1783 4.46267 43.2169 4.47782 43.2563 4.4939C43.315 4.51797 43.3754 4.54386 43.4356 4.56969L43.4531 4.5772L43.5059 4.59972C43.54 4.61421 43.5742 4.62874 43.609 4.6441C43.6643 4.6686 43.7209 4.69484 43.7775 4.72106L43.819 4.7403L43.8737 4.76548C43.9077 4.78108 43.942 4.79681 43.9768 4.8134C44.0462 4.84654 44.1173 4.88207 44.1884 4.91754L44.2061 4.9264L44.2579 4.9519C44.2913 4.96826 44.3246 4.98459 44.3586 5.002C44.4336 5.04028 44.5104 5.08121 44.5873 5.12215L44.6223 5.1408C44.6404 5.15044 44.6582 5.15978 44.6761 5.16912C44.7025 5.18295 44.7289 5.19676 44.7559 5.2115C44.8908 5.2848 45.0278 5.3615 45.1677 5.4423C46.7344 6.3468 48.0083 7.3465 49.0147 8.283C49.1171 8.3784 49.2166 8.473 49.3135 8.5666C50.1661 9.3921 50.8053 10.153 51.2477 10.7361C51.5405 11.1222 51.7481 11.431 51.8734 11.6276C51.8812 11.6397 51.8864 11.6472 51.8925 11.6562C51.9064 11.6767 51.9173 11.6922 51.9228 11.6991C51.9881 11.7769 52.0839 11.8219 52.1856 11.8219C52.2607 11.8219 52.3351 11.7967 52.3948 11.7512C52.5126 11.6622 52.5556 11.5125 52.5153 11.378L52.5122 11.3679L52.5086 11.3577C52.5031 11.3427 52.4963 11.3283 52.4887 11.314L52.4843 11.3054C52.4798 11.2966 52.4754 11.2879 52.4696 11.2795L52.4551 11.2567C52.2559 10.9442 51.8578 10.3597 51.2452 9.6292C51.2136 9.5915 51.1817 9.5537 51.1491 9.5154C50.0053 8.1722 48.1607 6.3735 45.5125 4.8447C45.363 4.7583 45.2162 4.6761 45.0719 4.5976C45.043 4.58179 45.0148 4.56701 44.9866 4.55224L44.9627 4.5397L44.9265 4.5205L44.8727 4.49185C44.797 4.45155 44.721 4.41107 44.6473 4.3733C44.6119 4.35518 44.5774 4.33826 44.5429 4.32135C44.521 4.31063 44.4992 4.29992 44.4771 4.2889L44.4059 4.25342C44.3494 4.2252 44.293 4.19703 44.2378 4.1707C44.2007 4.15295 44.1644 4.1364 44.1282 4.11988L44.1265 4.11912C44.1053 4.10946 44.0841 4.0998 44.0628 4.0899L44.0104 4.0655C43.9545 4.03948 43.8986 4.01341 43.8439 3.9892C43.8055 3.97206 43.768 3.95624 43.7305 3.9404L43.6696 3.9145L43.6215 3.8938C43.569 3.87117 43.5162 3.84845 43.465 3.8274C43.4249 3.81099 43.3858 3.79583 43.3468 3.78066L43.2946 3.7603L43.2519 3.74335C43.2013 3.7233 43.1507 3.70318 43.1014 3.6847C43.0649 3.67105 43.0292 3.65841 42.9936 3.64581L42.933 3.6242L42.8833 3.60631C42.8396 3.59052 42.7957 3.57469 42.7532 3.5602C42.714 3.54698 42.6759 3.53478 42.6377 3.52259L42.5885 3.5068L42.5399 3.49102C42.4993 3.47782 42.4587 3.4646 42.4192 3.4526C42.3795 3.44047 42.3408 3.4295 42.3021 3.41854L42.2612 3.4069L42.2189 3.3947C42.1788 3.38311 42.1388 3.37153 42.0997 3.3611C42.0591 3.35024 42.0197 3.34045 41.9801 3.33064L41.949 3.3229L41.9135 3.3139C41.8736 3.30377 41.8337 3.29364 41.7948 3.2847C41.7618 3.27701 41.7295 3.27014 41.6973 3.26329L41.602 3.24289C41.5691 3.23583 41.5364 3.22879 41.5044 3.2225C41.4721 3.2162 41.4405 3.21067 41.409 3.20514L41.367 3.1977L41.3302 3.19113C41.2958 3.18499 41.2614 3.17882 41.2281 3.1736C41.1923 3.16797 41.1576 3.16318 41.123 3.1584L41.0977 3.1549L41.0598 3.1496C41.0281 3.14515 40.9966 3.14072 40.966 3.137C40.9326 3.13288 40.9003 3.1297 40.8679 3.12652L40.8424 3.124L40.8158 3.12125C40.7826 3.11781 40.7496 3.11438 40.7175 3.1117C40.6872 3.10926 40.6578 3.10741 40.6285 3.10555L40.5736 3.10207C40.5431 3.10015 40.5126 3.09822 40.4829 3.0969C40.4526 3.09559 40.4233 3.09489 40.394 3.09418L40.3742 3.0937C40.3362 3.0926 40.2982 3.0915 40.2615 3.0913C40.2327 3.09122 40.2046 3.09165 40.1766 3.09209L40.123 3.09289C40.101 3.09318 40.0792 3.09346 40.0579 3.0942L40.0457 3.09483L40.0297 3.0956C40.0098 3.09635 39.99 3.09737 39.9705 3.09838L39.9584 3.099C39.9516 3.0996 39.9445 3.0997 39.9377 3.1001L39.9121 3.10137C39.902 3.10181 39.8919 3.10225 39.8822 3.1029L35.2183 0.4104ZM42.197 20.3119L34.6854 15.9786L20.8507 24.0186L28.3888 28.3674L29.0109 28.0045L28.9613 27.9769L31.4614 26.5247L26.1706 23.4703L23.6997 24.9305L22.0433 23.9754L28.0655 20.4757L30.2454 21.7407C29.8554 22.0704 29.6672 22.4756 29.7131 22.8929C29.7618 23.3383 30.0786 23.7511 30.6051 24.055C31.1076 24.345 31.7707 24.5183 32.4722 24.5429C33.1968 24.5687 33.8999 24.4364 34.4576 24.1729L35.0278 24.4944L35.6231 24.147L35.0296 23.8123C35.2786 23.6011 35.4484 23.3553 35.5243 23.0955C35.6955 22.5031 35.376 21.9061 34.6699 21.4985C34.0064 21.1153 33.0623 20.9408 32.143 21.0316C31.6583 21.0794 31.2014 21.1998 30.8181 21.3806L28.6619 20.1291L34.6849 16.6292L36.3144 17.5762L33.8145 19.0289L39.1037 22.0827L41.6034 20.6302L41.6279 20.6439L42.197 20.3119ZM13.299 20.2463L13.2965 20.2449L13.1117 20.1382L11.3066 21.1802L11.3002 21.184L9.8539 22.0191L9.8475 22.0226L8.4267 22.8429L8.4048 22.8557L6.3676 24.0318L6.3614 24.0355L6.2235 24.1149L5.9759 24.258L6.4565 24.5356L20.3852 32.5773L27.5211 28.4573L18.3352 23.154L18.268 23.1151L13.299 20.2463ZM32.8559 10.2905V9.5557L30.1061 11.1541L30.1038 11.1556L14.239 20.3771L14.3004 20.4124L14.873 20.7431L30.7371 11.522L30.7396 11.5206L32.8559 10.2905ZM35.2183 13.7843L44.3199 19.0735L45.0287 18.66L35.2183 12.9588L34.9193 13.1326L34.862 13.166L18.3615 22.7571L19.0738 23.1685L34.9404 13.9459L35.037 13.8895L35.2183 13.7843ZM54.3603 18.2932L50.342 15.9733L28.9454 28.4557L36.0484 32.5566L36.083 32.5768L57.4798 20.0941L57.2846 19.9815L57.24 19.9557L54.5308 18.3916L54.433 18.3353L54.3603 18.2932ZM20.6059 40.1834L24.2888 42.3097V39.2445L20.6059 37.1181V40.1834ZM58.193 24.0928V27.158L61.8884 25.0244V21.9593L58.193 24.0928ZM9.2754 33.9995L9.7795 34.2905L9.7808 33.0481V30.8682L6.5558 29.0063L6.0965 28.7431V32.1643L6.3799 32.3279V29.5432L7.1613 29.9923V32.7789L7.3961 32.9145V30.1305L8.1738 30.5783V33.3635L8.4121 33.5011V30.7178L9.2754 31.2141V33.9995Z" fill="#4BBDCF"/>
</svg>
