<svg width="55" height="39" viewBox="0 0 55 39" fill="none" xmlns="http://www.w3.org/2000/svg">
<path d="M1.0623 19.5096L1.06043 19.5019C1.04966 19.4576 1.03945 19.4156 1.0303 19.3808C1.02947 19.3778 1.02877 19.3743 1.02807 19.3707L1.02681 19.3646L1.026 19.3612C0.985 19.4664 0.945 19.6026 0.9122 19.7781C0.9004 19.8404 0.8897 19.9076 0.8799 19.9802C1.1176 20.8292 1.5008 21.6258 2.0361 22.3849L2.0856 22.4534C2.1468 22.5385 2.2103 22.623 2.2757 22.7076C2.379 22.8407 2.4879 22.9734 2.5992 23.1019L2.6695 23.1827C2.68654 23.2019 2.70414 23.2209 2.72177 23.24C2.73492 23.2543 2.74824 23.2687 2.7612 23.283C2.7713 23.1688 2.7849 23.0612 2.802 22.9608C2.8093 22.9181 2.8168 22.8757 2.8254 22.8355C2.8381 22.7761 2.852 22.723 2.8666 22.6723C2.0417 21.7944 1.4865 20.8644 1.1404 19.8038C1.1144 19.7239 1.0867 19.6101 1.0623 19.5096Z" fill="#4BBDCF"/>
<path d="M2.6028 23.6731L2.5318 23.5914C2.4194 23.4619 2.3095 23.3279 2.2051 23.1936C2.1391 23.1081 2.0749 23.0226 2.0132 22.9367L1.9632 22.8674C1.4512 22.1415 1.0773 21.3814 0.8347 20.5752C0.8272 20.8228 0.8309 21.11 0.8491 21.4413C1.2164 22.6086 1.8549 23.6751 2.7762 24.6516C2.7514 24.351 2.7394 24.075 2.7394 23.8224L2.70237 23.7823C2.66877 23.746 2.63509 23.7096 2.6028 23.6731Z" fill="#4BBDCF"/>
<path d="M13.7652 30.9161L10.9578 29.2862C10.9583 29.5188 10.9645 29.7761 10.9783 30.0606L13.8091 31.703C14.0703 31.8516 14.324 31.9956 14.5695 32.1347C14.5598 31.8523 14.5559 31.5963 14.557 31.3656C14.301 31.2204 14.0382 31.0713 13.7652 30.9161Z" fill="#4BBDCF"/>
<path d="M19.825 33.5037C19.6832 33.452 19.545 33.3999 19.4106 33.3475C19.3355 33.3182 19.2615 33.2888 19.1889 33.2593C19.1781 33.2551 19.1677 33.2507 19.1573 33.2464L19.135 33.2372C19.1321 33.0306 19.1298 32.8445 19.128 32.6792L19.1266 32.5538L19.3373 32.6374L19.4324 32.6749C19.5087 32.7054 19.5872 32.7372 19.6673 32.7696L19.6698 32.7706C20.0421 32.9217 20.4638 33.0928 20.8963 33.2069C21.9632 33.4884 22.9792 33.7289 24.2267 33.7922C24.2283 33.8079 24.2301 33.8238 24.2317 33.8402C24.2501 34.0222 24.2651 34.2357 24.2743 34.4846C23.8685 34.4539 23.4601 34.4086 23.0512 34.3444C22.923 34.3244 22.7959 34.3028 22.6702 34.2798C22.6074 34.2685 22.5448 34.2568 22.4825 34.2445C21.9894 34.1488 21.4867 34.0273 20.9886 33.8832C20.9331 33.8671 20.878 33.8509 20.8234 33.8345C20.7558 33.8142 20.6887 33.7936 20.6223 33.7729C20.5292 33.7439 20.4373 33.7144 20.3469 33.6845C20.2757 33.6609 20.2054 33.6374 20.1356 33.6133L20.0411 33.5806C19.9681 33.5551 19.8962 33.5294 19.825 33.5037Z" fill="#4BBDCF"/>
<path d="M6.7705 26.8379C6.3669 26.5943 5.988 26.3624 5.6573 26.1526C5.60656 26.1206 5.55709 26.0889 5.50858 26.0579L5.471 26.0338L5.321 25.9371C5.0623 25.7694 4.8445 25.623 4.6737 25.5018C4.064 25.0696 3.5163 24.6112 3.0385 24.1344C3.0476 24.3808 3.0683 24.6624 3.1022 24.98C3.5477 25.4124 4.0474 25.8281 4.6084 26.2258C5.0341 26.5276 5.7365 26.974 6.7822 27.6071C6.7699 27.3235 6.7667 27.068 6.7705 26.8379Z" fill="#4BBDCF"/>
<path d="M34.0117 35.9594C34.0864 35.6349 34.1506 35.3299 34.2054 35.0433C35.6215 34.3952 36.8946 33.7276 37.8694 33.1873C38.2066 33.0039 38.5434 32.8169 38.8725 32.6312C38.8113 32.9459 38.7378 33.2781 38.6476 33.6327L36.6126 34.6546C35.7116 35.1372 34.8459 35.5712 34.0117 35.9594Z" fill="#4BBDCF"/>
<path d="M10.6636 29.1154L7.6818 27.3844C7.4727 27.2595 7.2665 27.1362 7.0646 27.0149C7.0635 27.2468 7.0697 27.505 7.0849 27.7899C7.2876 27.9119 7.5006 28.0395 7.7271 28.1745L10.6773 29.8861C10.6657 29.6024 10.6618 29.3464 10.6636 29.1154Z" fill="#4BBDCF"/>
<path d="M22.4654 34.7633C22.528 34.7754 22.591 34.7872 22.6542 34.7988C22.7806 34.8216 22.9084 34.8434 23.0374 34.8637C23.4541 34.9292 23.8703 34.9759 24.284 35.0068C24.2845 35.2369 24.2803 35.4906 24.2701 35.7689C22.5801 35.6437 20.8694 35.23 19.1534 34.5303C19.1491 34.2545 19.1454 34.0003 19.1422 33.7678C19.1466 33.7698 19.1509 33.7716 19.1554 33.7733C19.2283 33.8028 19.3027 33.8324 19.3782 33.8618C19.5132 33.9143 19.652 33.9667 19.7946 34.0185C19.8661 34.0445 19.9384 34.0704 20.0115 34.0959L20.1068 34.1289C20.1767 34.1528 20.2474 34.1767 20.3189 34.2002C20.4099 34.2302 20.5021 34.26 20.5956 34.2893C20.6623 34.31 20.7298 34.3307 20.7977 34.351C20.8527 34.3676 20.908 34.3838 20.9638 34.4001C21.4651 34.5451 21.9703 34.6673 22.4654 34.7633Z" fill="#4BBDCF"/>
<path d="M29.5857 35.662C29.5625 35.8855 29.534 36.1225 29.4993 36.3738C30.8611 35.9756 32.3661 35.4106 33.9659 34.699C34.0129 34.4291 34.0501 34.1786 34.0801 33.9442C32.4615 34.7065 30.9727 35.274 29.5857 35.662Z" fill="#4BBDCF"/>
<path d="M24.5793 35.0243C24.8431 35.0388 25.1059 35.0486 25.3662 35.0486C25.477 35.0486 25.5874 35.0474 25.6973 35.0447C26.7763 35.0192 28.0049 34.8056 29.3718 34.4142C29.3674 34.6479 29.3552 34.9054 29.3336 35.1892C27.9828 35.5733 26.7683 35.7829 25.7014 35.8082C25.3234 35.817 24.9438 35.8106 24.5632 35.7899C24.5739 35.511 24.5789 35.2564 24.5793 35.0243Z" fill="#4BBDCF"/>
<path d="M25.667 36.2937C25.5516 36.2963 25.4356 36.2978 25.3198 36.2978C25.0606 36.2978 24.8005 36.2885 24.5402 36.2748C24.5265 36.5147 24.5083 36.772 24.4862 37.0442C24.8701 37.0667 25.2606 37.0759 25.6581 37.0665C26.6578 37.0428 27.8538 36.8323 29.192 36.4598C29.228 36.2075 29.2577 35.9702 29.2819 35.7462C27.9949 36.0851 26.7959 36.2667 25.667 36.2937Z" fill="#4BBDCF"/>
<path d="M34.2928 34.5524C34.3383 34.2793 34.3745 34.0251 34.4027 33.7884C35.7575 33.1361 37.198 32.3567 38.7449 31.4353C38.8304 31.3842 38.9453 31.3139 39.0748 31.2338C39.0493 31.5252 39.0088 31.8422 38.9531 32.1826L38.2169 32.5795C36.8667 33.3227 35.5525 33.981 34.2928 34.5524Z" fill="#4BBDCF"/>
<path d="M38.432 30.3586C37.0428 31.145 35.7276 31.8313 34.4854 32.4211C34.4885 32.6498 34.4808 32.9085 34.4598 33.1995C35.6472 32.6372 36.9029 31.9849 38.2252 31.243L39.1065 30.7263C39.1171 30.4473 39.1146 30.1943 39.1023 29.9653C38.8486 30.1206 38.6245 30.2521 38.432 30.3586Z" fill="#4BBDCF"/>
<path d="M16.6136 32.5286L16.6817 32.5671C17.0578 32.7801 17.8055 33.2033 18.8488 33.6459C18.852 33.8778 18.8557 34.131 18.86 34.4089C18.1337 34.0992 17.4068 33.7399 16.6803 33.3284L16.6107 33.2889C16.1385 33.0224 15.5414 32.6854 14.8685 32.3042C14.8573 32.0212 14.8515 31.7643 14.8508 31.5322L15.4074 31.8473C15.8629 32.1049 16.2711 32.3354 16.6136 32.5286Z" fill="#4BBDCF"/>
<path d="M29.6347 35.104C31.0006 34.6951 32.507 34.1061 34.1438 33.3454C34.1681 33.0524 34.1788 32.7932 34.1789 32.5638C32.5428 33.3266 31.0355 33.9189 29.6683 34.3305C29.6652 34.5644 29.6549 34.8211 29.6347 35.104Z" fill="#4BBDCF"/>
<path d="M33.6732 36.1144C32.0951 36.8322 30.6322 37.3812 29.2685 37.7656C29.3294 37.4452 29.3825 37.1414 29.4279 36.8551C30.9391 36.4219 32.4689 35.8228 33.8739 35.1933C33.817 35.481 33.7501 35.7884 33.6732 36.1144Z" fill="#4BBDCF"/>
<path d="M34.4575 31.8985C35.7028 31.3097 37.0147 30.6272 38.3884 29.8495C38.5982 29.7275 38.8194 29.5951 39.0551 29.451C39.0249 29.2271 38.9857 29.0337 38.9427 28.8701C38.919 28.7798 38.8943 28.6987 38.8694 28.6255C38.5194 28.8446 38.2121 29.0282 37.9592 29.1682C36.6834 29.8902 35.4568 30.5339 34.2857 31.0946C34.3057 31.1469 34.3253 31.2054 34.3443 31.2714C34.3906 31.4334 34.4315 31.6392 34.4575 31.8985Z" fill="#4BBDCF"/>
<path d="M34.1603 32.0367C32.5354 32.7915 31.0278 33.3834 29.662 33.7977C29.6512 33.5356 29.6302 33.312 29.6033 33.1226C29.5967 33.075 29.5895 33.0298 29.582 32.9865C30.9391 32.5645 32.4216 31.9717 34.009 31.2239C34.0267 31.2749 34.0445 31.3338 34.0617 31.4014C34.1023 31.5609 34.1389 31.7691 34.1603 32.0367Z" fill="#4BBDCF"/>
<path d="M24.572 34.503C24.9496 34.5239 25.3252 34.5331 25.6952 34.5244C26.7579 34.4992 27.9913 34.2796 29.3686 33.8816C29.3599 33.6167 29.3404 33.3928 29.3154 33.2053C29.3092 33.1589 29.3028 33.1149 29.296 33.0728C28.445 33.3256 27.6452 33.5089 26.901 33.6204C26.4022 33.7162 25.9417 33.774 25.5175 33.7937C25.1696 33.8097 24.841 33.8122 24.5274 33.8038L24.5322 33.8552C24.5498 34.0415 24.5639 34.2554 24.572 34.503Z" fill="#4BBDCF"/>
<path d="M39.1321 28.4595C40.4125 27.6435 42.1838 26.4166 44.0437 25.0592C44.1318 25.3062 44.2181 25.632 44.2745 26.0495L44.2799 26.0899L44.2861 26.1404L39.4177 29.2276L39.3827 29.2493C39.3688 29.2579 39.355 29.2664 39.3408 29.2753C39.307 29.0639 39.2647 28.8807 39.2192 28.7231C39.191 28.6257 39.1617 28.538 39.1321 28.4595Z" fill="#4BBDCF"/>
<path d="M16.727 32.0592L16.5923 31.9831C16.2635 31.7975 15.8782 31.58 15.4513 31.3385L14.8577 31.0026C14.8634 30.8188 14.8723 30.6549 14.8836 30.5098C14.8875 30.457 14.8918 30.406 14.8964 30.3578C15.0843 30.462 15.2643 30.5623 15.4306 30.6559L16.7029 31.3747C17.059 31.5768 17.7865 31.9879 18.8335 32.4321L18.835 32.5621C18.8367 32.7247 18.8389 32.9079 18.8416 33.1148C17.8261 32.6811 17.0965 32.2683 16.727 32.0592Z" fill="#4BBDCF"/>
<path d="M3.1072 22.9189C3.0892 23.0073 3.0737 23.1105 3.0612 23.2273C3.0501 23.331 3.0414 23.4451 3.0368 23.5738C3.5261 24.0708 4.0913 24.5484 4.7253 24.9979C4.8951 25.1182 5.1119 25.2641 5.3697 25.4311L5.5192 25.5276C5.5797 25.5663 5.6414 25.6057 5.7051 25.6462C6.0303 25.8525 6.4 26.0789 6.7928 26.3159C6.8058 26.137 6.8231 25.9782 6.8435 25.8391C6.8513 25.7854 6.8597 25.7351 6.8683 25.6869C6.1859 25.2416 5.1272 24.5471 4.7492 24.2792C4.1166 23.8308 3.5736 23.3811 3.1072 22.9189Z" fill="#4BBDCF"/>
<path d="M7.1229 26.0067C7.1292 25.9573 7.1356 25.9104 7.1424 25.8656C7.3429 25.9962 7.4726 26.0804 7.4783 26.084L10.7352 27.9736C10.7287 28.0194 10.7228 28.068 10.7171 28.1183C10.7016 28.2571 10.6884 28.4142 10.679 28.59L7.7272 26.8762C7.5077 26.7453 7.2915 26.616 7.0799 26.4889C7.0903 26.3077 7.1053 26.148 7.1229 26.0067Z" fill="#4BBDCF"/>
<path d="M11.0147 28.1358C11.0094 28.1822 11.0042 28.2307 10.9992 28.2817C10.9858 28.4223 10.9748 28.58 10.9674 28.7575L13.8097 30.4076C14.0709 30.5562 14.3224 30.6989 14.5684 30.8384C14.5759 30.655 14.587 30.4926 14.6002 30.3485C14.6048 30.2973 14.61 30.2486 14.6152 30.2019C14.276 30.0142 13.9196 29.8165 13.5701 29.6183L11.0147 28.1358Z" fill="#4BBDCF"/>
<path d="M33.5755 19.435L29.661 17.175L31.3862 16.1726L35.3003 18.4325L33.5755 19.435Z" fill="#4BBDCF"/>
<path d="M28.6703 20.1671C29.0619 20.3932 29.2712 20.6897 29.2446 20.9799C29.2271 21.1694 29.1144 21.354 28.917 21.5187L26.1481 19.9202C26.4062 19.8498 26.6897 19.8075 26.9753 19.7982C27.6104 19.7779 28.2284 19.9119 28.6703 20.1671Z" fill="#4BBDCF"/>
<path d="M25.5522 21.6816C25.8244 21.8388 26.1686 21.9526 26.5473 22.0106C27.0681 22.0894 27.6066 22.0594 28.0757 21.9301L25.3058 20.3308C25.0024 20.585 24.9026 20.8866 25.0327 21.1708C25.1187 21.3583 25.2983 21.5351 25.5522 21.6816Z" fill="#4BBDCF"/>
<path d="M24.5616 24.6734L20.6484 22.4141L18.9488 23.4244L22.8365 25.6758L24.5616 24.6734Z" fill="#4BBDCF"/>
<path fill-rule="evenodd" clip-rule="evenodd" d="M54.7075 17.142C54.7284 17.3953 54.7409 17.6627 54.7444 17.9369C54.7453 18.0144 54.7457 18.0913 54.7452 18.1685C54.7444 18.2848 54.7421 18.4013 54.7384 18.5182C54.7353 18.6074 54.7316 18.6966 54.727 18.7856C54.7152 19.0081 54.6977 19.2384 54.6749 19.4703C54.6645 19.5732 54.6535 19.676 54.6411 19.7787C54.6319 19.856 54.6221 19.9338 54.6115 20.0112C54.5958 20.1281 54.5789 20.2445 54.561 20.3609C54.5323 20.5459 54.5006 20.7302 54.4665 20.9135C54.4428 21.0399 54.418 21.1662 54.3921 21.2918C54.3493 21.4964 54.3036 21.6996 54.2554 21.901C54.2274 22.0173 54.1987 22.1329 54.1689 22.2478C54.1288 22.4035 54.0872 22.5582 54.044 22.7115C53.9907 22.9022 53.9347 23.0907 53.8776 23.2765C53.8175 23.4707 53.7557 23.6618 53.6928 23.8497C53.651 23.9731 53.6089 24.0953 53.5663 24.2159C53.4773 24.4676 53.3831 24.7206 53.2867 24.9675C53.2364 25.0961 53.1861 25.2223 53.1356 25.3457C53.0753 25.4929 52.7881 26.1521 52.7881 26.1521L52.7699 26.194L52.7341 26.2218C52.3086 26.5517 42.2882 34.3167 39.9356 35.5732C38.9935 36.0767 37.3148 36.7671 34.9463 37.6253C32.9509 38.3486 30.8433 38.7075 28.7359 38.7077C26.0381 38.7079 23.3402 38.1199 20.8732 36.9551L18.9194 36.0328C18.3409 35.7095 5.0031 28.249 4.8017 28.132C4.7029 28.0676 4.6171 28.0108 4.5363 27.9566C4.1468 27.6881 3.1597 26.9702 2.371 26.0779C1.2228 24.7786 0.4288 23.0076 0.1351 21.0911C0.0488 20.5626 0.0037 20.006 0.0013 19.438L0 19.149C0.0004 18.7554 0.0226 18.3405 0.0656 17.9155L0.0673 17.8932C0.0841 17.7334 0.1028 17.5748 0.1246 17.4171C0.1649 17.1588 0.2165 16.8878 0.2779 16.6084L0.2878 16.5627C0.3246 16.3974 0.3672 16.2236 0.4131 16.0489C0.5101 15.634 0.6297 15.1987 0.762 14.7769C1.0491 13.6437 1.3953 12.6959 1.6785 12.0733C4.142 6.65492 11.6161 0.629124 21.9297 0.039124C32.3064 -0.424276 39.5166 3.34952 42.3326 4.97602C42.5123 5.07982 42.8562 5.28031 43.2755 5.52479C44.4062 6.18403 46.0856 7.16318 46.5753 7.42922C46.9539 7.64949 47.3844 7.87514 47.8453 8.11664C49.7663 9.12337 52.2127 10.4054 53.6061 12.7204C54.1434 13.6131 54.4374 14.7092 54.5321 15.9676L54.606 16.2885C54.6367 16.4833 54.6745 16.7971 54.6922 16.9761C54.6977 17.0312 54.7031 17.0865 54.7075 17.142ZM52.9412 17.7029C53.113 17.4956 53.2371 17.3168 53.3037 17.1732C53.6232 16.4837 53.7258 15.8311 53.6624 15.2138C53.6792 15.0478 53.6842 14.8842 53.6773 14.7229L53.6699 14.6519L53.6396 14.3525L53.6382 14.3377C53.6159 14.1961 53.585 14.0564 53.5459 13.9185C53.541 13.9188 53.5365 13.921 53.5313 13.921L53.501 13.9183L44.977 12.2228C45.0033 12.4105 45.0129 12.6035 45.0065 12.8015C44.9972 13.0857 44.9537 13.3806 44.8773 13.6857C44.8325 13.8648 44.7762 14.0475 44.7084 14.2335L52.5373 17.3998C52.5492 17.4046 52.5588 17.4122 52.5685 17.4199C52.5703 17.4213 52.572 17.4226 52.5738 17.424C52.584 17.4319 52.5933 17.4403 52.6011 17.4503C52.6108 17.462 52.6206 17.4738 52.6265 17.4876C52.634 17.505 52.6374 17.5241 52.6384 17.5432C52.6397 17.5664 52.6372 17.5901 52.6279 17.613C52.6054 17.6681 52.5562 17.704 52.4991 17.7123C52.4912 17.7134 52.4839 17.7157 52.4757 17.7157C52.4683 17.7157 52.4613 17.7139 52.4541 17.7121C52.4506 17.7113 52.4471 17.7104 52.4436 17.7097C52.4402 17.709 52.4369 17.7086 52.4335 17.7081C52.4272 17.7073 52.4209 17.7064 52.4149 17.704L52.3981 17.6972L44.5883 14.5386C44.2183 15.4142 43.6041 16.3649 42.7465 17.3885L48.3575 20.6952L48.4498 20.7494L48.5918 20.8331C48.6093 20.8434 48.6237 20.8572 48.636 20.8725C48.6503 20.8904 48.6614 20.9105 48.6672 20.9332C48.6728 20.9549 48.6737 20.9771 48.6705 20.9986C48.6672 21.0192 48.6606 21.0391 48.6498 21.0575C48.6426 21.0696 48.6339 21.0807 48.6239 21.0905C48.5936 21.1207 48.5522 21.1383 48.5085 21.1383C48.479 21.1383 48.4501 21.1303 48.4248 21.1153L42.5303 17.6419C41.6649 18.6407 40.5738 19.7072 39.2579 20.8397C39.1628 20.9214 39.0679 21.0033 38.9705 21.0859L43.8826 24.4341C43.893 24.4412 43.9007 24.4506 43.9083 24.4599C43.9097 24.4616 43.9111 24.4633 43.9125 24.465C43.9471 24.5055 43.9607 24.5586 43.9477 24.6096C43.9432 24.6278 43.9368 24.6457 43.9259 24.6619C43.9182 24.673 43.9078 24.6806 43.8974 24.6883C43.8945 24.6904 43.8916 24.6925 43.8888 24.6947C43.8603 24.7174 43.8274 24.7336 43.7901 24.7336C43.7573 24.7336 43.7254 24.7236 43.6981 24.7053L38.7091 21.3046C38.5762 21.4157 38.4414 21.5274 38.3042 21.6398C38.04 21.856 37.7702 22.0739 37.4905 22.2947C36.4873 23.0868 35.4569 23.8489 34.4507 24.5618L38.7109 27.9466L38.7728 27.9959L38.7767 27.9989C38.811 28.0262 38.8326 28.0651 38.8376 28.1086C38.8426 28.1521 38.8304 28.1949 38.8032 28.2292C38.8028 28.2296 38.8024 28.2296 38.8023 28.2299C38.7823 28.2547 38.755 28.2699 38.7257 28.2797L38.7212 28.2812C38.7061 28.2863 38.6911 28.2913 38.6747 28.2913C38.6376 28.2913 38.6012 28.2786 38.5725 28.2554L34.1715 24.7588C33.8467 24.9871 33.5248 25.21 33.2078 25.4265C32.245 26.0848 31.3275 26.6862 30.5036 27.2118L33.9314 30.5703L33.9414 30.5802C33.9715 30.6096 33.9864 30.6481 33.9887 30.6872C33.9906 30.7173 33.983 30.7466 33.9683 30.7739L33.9666 30.7772C33.9603 30.7894 33.9539 30.8016 33.9439 30.8117C33.9366 30.8193 33.9278 30.8244 33.919 30.8294C33.9164 30.8309 33.9138 30.8325 33.9112 30.834C33.8856 30.8499 33.8575 30.8611 33.8267 30.8611C33.7835 30.8611 33.7425 30.8444 33.7118 30.8142L30.2196 27.3925C29.0159 28.1552 28.0406 28.7398 27.4576 29.0828L29.136 32.1217L29.1804 32.2018L29.2992 32.4171C29.3205 32.4553 29.3255 32.4996 29.3133 32.5417C29.3073 32.5629 29.2971 32.5823 29.2837 32.5989C29.2705 32.6155 29.2541 32.6294 29.235 32.64C29.2254 32.6453 29.2149 32.6489 29.2042 32.6523C29.1886 32.6571 29.1724 32.6603 29.156 32.6603C29.0962 32.6603 29.0411 32.6278 29.0124 32.5756L27.1745 29.2484C27.1196 29.2803 27.0691 29.3098 27.0284 29.3331C25.9339 30.0182 24.7868 30.4799 23.6554 30.7769L24.1838 32.6683L24.2236 32.8103L24.286 33.034L24.2891 33.0449C24.3076 33.1113 24.2819 33.1791 24.2304 33.2187C24.2143 33.231 24.1961 33.241 24.1754 33.2469C24.1692 33.2486 24.1631 33.2495 24.157 33.2501C24.1528 33.2505 24.1486 33.2509 24.1444 33.2512C24.1432 33.2513 24.1419 33.2515 24.1407 33.2517C24.1375 33.2522 24.1343 33.2529 24.1312 33.2529C24.0579 33.2529 23.9931 33.2037 23.9733 33.1331L23.9382 33.0069L23.3371 30.8563C22.2202 31.1198 21.125 31.2272 20.1182 31.2272C20.0514 31.2272 19.9856 31.226 19.9198 31.2249C19.9002 31.2245 19.8805 31.2241 19.8608 31.2238C19.6041 31.2192 19.354 31.2079 19.1112 31.1908L19.0962 31.7196C19.0955 31.7474 19.086 31.772 19.0734 31.7947C19.0625 31.814 19.0478 31.8302 19.0304 31.8434C19.0029 31.8645 18.9699 31.8789 18.9324 31.8789H18.9303C18.9256 31.8787 18.9219 31.8766 18.9174 31.8761C18.8832 31.8727 18.853 31.8593 18.8279 31.8381C18.8232 31.8341 18.8174 31.8322 18.8131 31.8277C18.7831 31.7958 18.7672 31.7542 18.7683 31.7105L18.7838 31.1637C18.2056 31.1089 17.6761 31.022 17.2112 30.9157C16.5056 30.7544 15.9481 30.5502 15.6021 30.3493C15.591 30.3427 15.4187 30.2446 15.1352 30.0835L14.9443 29.9748C14.9334 29.9686 14.9226 29.9625 14.9116 29.9562C14.8948 29.9467 14.8779 29.9371 14.8604 29.927L14.7541 29.8666C14.727 29.8512 14.6988 29.8352 14.6708 29.8191C13.7438 29.2916 12.2961 28.4675 11.0702 27.7677L10.8811 27.6597C10.8708 27.6539 10.8605 27.6481 10.8502 27.6422C10.8329 27.6323 10.8156 27.6224 10.7985 27.6126C10.2101 27.2765 9.6899 26.979 9.3288 26.7711C8.5756 26.3378 7.921 25.8228 7.3728 25.2467L7.2371 25.3268C7.2139 25.3405 7.1869 25.3479 7.1595 25.3488C7.15847 25.3488 7.1575 25.349 7.15655 25.3492C7.15565 25.3494 7.15478 25.3495 7.1539 25.3495C7.1152 25.3495 7.0788 25.3347 7.0497 25.3106C7.0355 25.2986 7.0224 25.2852 7.0126 25.269C6.9982 25.244 6.9932 25.2173 6.9925 25.1903C6.9914 25.1473 7.0069 25.1063 7.0372 25.0744C7.03856 25.073 7.03991 25.0716 7.04126 25.0701C7.05007 25.0608 7.05898 25.0513 7.0706 25.0444L7.1261 25.0116L7.1475 24.9991C7.14257 24.9934 7.13764 24.9878 7.13272 24.9821C7.12217 24.97 7.11166 24.9579 7.1013 24.9457C6.62 24.3841 6.2357 23.771 5.9558 23.1221C5.8186 22.8039 5.7064 22.4774 5.6204 22.144L3.2479 22.514L3.2188 22.5184C3.1929 22.5184 3.1694 22.5108 3.1474 22.5001C3.1085 22.4811 3.0796 22.4476 3.0657 22.4052C3.06471 22.4022 3.06351 22.3992 3.0623 22.3963C3.06011 22.3909 3.0579 22.3855 3.057 22.3795C3.05573 22.3712 3.0566 22.3629 3.05747 22.3546C3.05783 22.3511 3.05819 22.3476 3.0584 22.3441C3.0604 22.3136 3.0678 22.2837 3.0864 22.2581C3.1123 22.2226 3.1504 22.1993 3.1936 22.1925L3.2446 22.1846L5.5471 21.8248C5.3758 20.9901 5.366 20.1188 5.5339 19.2396L1.1294 19.0123L1.0521 19.0084L1.0321 19.0073C1.02621 19.0071 1.02092 19.0053 1.01562 19.0035C1.01255 19.0025 1.00949 19.0015 1.0063 19.0007L1.0052 19.0006L0.9922 18.9972C0.989098 18.9962 0.985798 18.9956 0.982491 18.9949C0.978014 18.9941 0.973526 18.9933 0.9695 18.9913C0.96724 18.9902 0.965394 18.9886 0.963556 18.987C0.961897 18.9856 0.960245 18.9842 0.9583 18.9831C0.9426 18.9736 0.9281 18.9629 0.9163 18.9492C0.915684 18.9501 0.915041 18.9509 0.914372 18.9517C0.913738 18.9525 0.913081 18.9533 0.9124 18.9542C0.8628 19.022 0.8139 19.1101 0.7686 19.2191C0.7547 19.2523 0.7415 19.2881 0.7285 19.3258C0.6475 18.8926 0.6008 18.4463 0.5901 17.9837C0.5893 17.9594 0.5695 17.9402 0.5455 17.9402C0.540812 17.9402 0.537083 17.9423 0.533345 17.9445C0.53182 17.9453 0.530294 17.9462 0.5287 17.9469C0.5135 17.9537 0.5012 17.966 0.5009 17.9837C0.50066 17.9911 0.500636 17.9986 0.500612 18.006C0.500596 18.0109 0.50058 18.0159 0.5005 18.0208C0.4984 18.1234 0.4967 18.2261 0.4982 18.3291C0.5046 18.8045 0.5485 19.2633 0.6279 19.7083C0.6009 19.849 0.5792 20.0103 0.5636 20.193C0.5117 19.833 0.4812 19.4648 0.4748 19.0867C0.4744 19.0635 0.4563 19.0462 0.4334 19.0445C0.4099 19.0423 0.3897 19.0605 0.386 19.0833C0.384 19.0948 0.3649 19.2186 0.3581 19.4351C0.3592 19.693 0.3703 19.9488 0.3894 20.1999C0.4075 20.3773 0.4345 20.5719 0.4744 20.784C0.4935 20.8864 0.5171 20.996 0.5438 21.11C0.5467 21.2133 0.551 21.3207 0.5569 21.433C0.5959 21.6355 0.6404 21.8362 0.6907 22.0343C0.7454 22.2492 0.807 22.4612 0.8746 22.6699C0.9204 22.8115 0.9693 22.9516 1.0209 23.09C0.9802 22.8069 0.9476 22.5448 0.921 22.2994C1.2187 23.0451 1.676 23.9001 2.3774 24.7964C2.5252 24.9707 2.6818 25.1416 2.8457 25.3093C2.8811 25.5905 2.9251 25.8882 2.9779 26.2026L2.99254 26.2174C3.0239 26.2489 3.0551 26.2803 3.0866 26.311C3.133 26.3564 3.1795 26.401 3.2259 26.4447C3.2623 26.4789 3.2987 26.5123 3.3349 26.5455C3.2753 26.2199 3.2256 25.9178 3.1856 25.6403C3.5599 25.9899 3.9682 26.3235 4.41 26.6368C4.8663 26.9604 5.6407 27.4501 6.8153 28.1577C6.8326 28.3865 6.8549 28.6297 6.8836 28.8902L6.9798 28.944L7.1973 29.0659C7.1669 28.8101 7.1421 28.5683 7.1231 28.3423C7.3011 28.449 7.4868 28.56 7.6818 28.6759L10.7064 30.4282C10.7196 30.6264 10.736 30.836 10.756 31.0574C10.7692 31.0648 10.7824 31.0722 10.7957 31.0795C10.8141 31.0898 10.8324 31.1001 10.8507 31.1104L11.0652 31.2304C11.0438 31.0106 11.0259 30.8021 11.0116 30.605L13.7644 32.1997C14.0503 32.3622 14.3272 32.5192 14.5934 32.6701C14.603 32.8458 14.6144 33.0299 14.6283 33.2239L14.8401 33.3423C14.8711 33.3598 14.9025 33.3773 14.9336 33.3946C14.9186 33.2012 14.9059 33.0167 14.8956 32.8412C15.4131 33.1343 15.8819 33.3989 16.2793 33.6233C16.3642 33.6712 16.4458 33.7173 16.524 33.7614L16.5936 33.8006C17.3516 34.2302 18.1102 34.6034 18.868 34.9228L18.8789 35.6018L18.969 35.6521L19.0826 35.7158L19.1731 35.7584L19.1615 35.0427C20.8668 35.7291 22.5671 36.1373 24.2479 36.2588C24.2345 36.497 24.2168 36.753 24.195 37.0236C22.5536 36.8948 21.0606 36.507 19.8389 36.0726L21.0254 36.6324C21.3852 36.8022 21.7503 36.9585 22.1192 37.1032C22.2036 37.1364 22.288 37.1688 22.3729 37.2006C22.4519 37.2304 22.5313 37.2598 22.6109 37.2883C23.1289 37.3788 23.6445 37.4441 24.1553 37.4817C24.1469 37.5718 24.1378 37.6641 24.1285 37.7575C24.1543 37.7644 24.1802 37.771 24.2059 37.7777L24.2157 37.7802C24.23 37.7839 24.2442 37.7876 24.2584 37.7914C24.2811 37.7974 24.3038 37.8033 24.3265 37.8089L24.4139 37.8307C24.4254 37.7179 24.4362 37.6072 24.4464 37.4992C24.825 37.5199 25.2012 37.5278 25.5737 37.5192C26.6841 37.4928 27.8915 37.275 29.1178 36.9417C29.0714 37.2277 29.0174 37.5306 28.9553 37.8507C28.3072 38.0232 27.6801 38.1604 27.0746 38.2587C27.0608 38.2609 27.0468 38.2624 27.0329 38.2638C27.0211 38.265 27.0093 38.2662 26.9975 38.2679C27.0607 38.274 27.124 38.2785 27.1872 38.2838C27.2025 38.2852 27.2178 38.2865 27.233 38.2879C27.2754 38.2916 27.3177 38.2954 27.36 38.2985C27.7181 38.3256 28.077 38.3416 28.436 38.3477C28.4761 38.3484 28.5162 38.3488 28.5564 38.3491C28.5731 38.3493 28.5899 38.3494 28.6067 38.3495C28.6478 38.3499 28.6889 38.3504 28.7299 38.3507C28.7459 38.3507 28.7618 38.3508 28.7778 38.3507C28.7977 38.3456 28.8176 38.3404 28.8374 38.3352C28.8445 38.3333 28.8517 38.3314 28.8588 38.3295L28.8545 38.3498C28.8723 38.3498 28.89 38.3495 28.9077 38.3492C28.9204 38.349 28.9331 38.3488 28.9458 38.3486L28.9689 38.3484C28.9998 38.3481 29.0308 38.3478 29.0616 38.3472C29.0756 38.3469 29.0897 38.3468 29.1037 38.3466C29.1201 38.3465 29.1365 38.3463 29.153 38.3459C29.1563 38.3297 29.1596 38.3135 29.163 38.2973C29.1667 38.2793 29.1704 38.2614 29.174 38.2435C29.2118 38.2328 29.2461 38.2228 29.2732 38.2144C30.6824 37.7822 32.0896 37.25 33.5561 36.5926C33.4619 36.9649 33.3548 37.3606 33.2331 37.7814C33.2528 37.7764 33.2724 37.7712 33.292 37.7659C33.3058 37.7622 33.3197 37.7585 33.3336 37.7549C33.376 37.7436 33.4187 37.7326 33.4611 37.721C33.4947 37.7119 33.5282 37.7035 33.5616 37.6942C33.6884 37.2487 33.8008 36.8288 33.8977 36.4374C34.9977 35.9327 36.1329 35.3579 37.3305 34.6996C37.5026 34.6059 38.0492 34.26 38.5691 33.9268C38.3898 34.5908 38.1577 35.3222 37.8608 36.1277C37.8988 36.1122 37.9352 36.0968 37.9725 36.0813C38.0198 36.0617 38.068 36.0419 38.114 36.0226C38.1522 36.0065 38.1886 35.991 38.2258 35.9751C38.5277 35.1358 38.7614 34.3754 38.9371 33.6904C39.3171 33.4456 39.6208 33.2483 39.652 33.228C39.6718 33.2151 39.678 33.1891 39.6663 33.1684C39.6545 33.1479 39.6286 33.1402 39.6076 33.1507L38.9949 33.4585C39.0841 33.0924 39.1569 32.7486 39.2154 32.4253C39.9315 31.9786 41.6957 30.8446 42.0312 30.629L42.0829 30.5957C42.1028 30.5827 42.1093 30.5561 42.0971 30.5354C42.0848 30.5145 42.0582 30.5074 42.0375 30.5188L39.2857 32.0031C39.3385 31.6539 39.374 31.3314 39.3949 31.0342C39.9809 30.6669 40.6833 30.2184 40.7825 30.1551L40.7937 30.1479C41.0339 30.0047 41.9087 29.399 42.6858 28.8609L42.7012 28.8502C43.2389 28.4779 43.7468 28.1263 43.971 27.9785C43.991 27.9652 43.9969 27.9382 43.9842 27.9177C43.9714 27.897 43.9446 27.8906 43.9238 27.9027L39.4185 30.5436C39.4243 30.2633 39.4163 30.0105 39.3988 29.7811C39.568 29.675 39.7467 29.561 39.9374 29.4375C40.423 29.1282 42.6348 27.5675 44.3107 26.3799C44.4252 27.7286 44.2199 29.8735 42.989 33.1013C43.0323 33.0703 43.0757 33.039 43.1195 33.0075L43.2887 32.8856L43.4184 32.7918C44.584 29.6041 44.7482 27.4979 44.6028 26.1728C45.5451 25.5045 46.2569 24.9977 46.2767 24.9836C46.2892 24.9746 46.2931 24.9607 46.2927 24.9463C46.2926 24.9381 46.2927 24.9297 46.2877 24.9224C46.2742 24.9024 46.2472 24.8967 46.2269 24.9097L44.5756 25.9567C44.5726 25.9346 44.5689 25.9141 44.5655 25.8923C44.4987 25.4606 44.4003 25.1249 44.3 24.8717C45.8346 23.7467 47.4154 22.5429 48.8187 21.4161C49.01 21.7929 49.2057 22.3796 49.2501 23.2454C49.3191 24.5945 49.0178 26.6206 47.7612 29.5717L48.2243 29.2216C49.4204 26.2711 49.6365 24.2982 49.5496 23.0647C49.5373 22.8902 49.5195 22.7293 49.4972 22.5836C49.4026 21.9679 49.2326 21.5262 49.0644 21.2181C50.6635 19.925 52.006 18.7481 52.7453 17.9287C52.8912 18.1228 53.3306 18.8545 53.2575 20.5212C53.1982 21.8687 52.8011 23.83 51.6433 26.6127L51.7846 26.5041L51.9644 26.3655C52.0144 26.3269 52.0606 26.2914 52.1043 26.2575C53.2081 23.4955 53.5538 21.5647 53.5709 20.2435C53.5925 18.5744 53.0939 17.8758 52.9412 17.7029ZM0.9219 16.2525C0.9194 16.2678 0.9171 16.2855 0.9147 16.3049C0.7866 17.1236 0.7681 17.9384 0.9172 18.7403C0.919106 18.738 0.920732 18.7355 0.922358 18.733C0.924744 18.7294 0.92713 18.7257 0.9304 18.7226C0.930756 18.7224 0.930971 18.7221 0.931192 18.7217C0.931343 18.7215 0.930988 18.7219 0.931192 18.7217C0.938958 18.7148 0.948621 18.7096 0.957756 18.705C0.960384 18.7037 0.963009 18.7024 0.9656 18.701C0.966878 18.7004 0.968066 18.6996 0.969228 18.6989C0.970522 18.6981 0.971783 18.6973 0.9731 18.6966C0.987 18.6902 1.0014 18.6868 1.0166 18.6844C1.02004 18.6839 1.02346 18.6832 1.02687 18.6826C1.03448 18.6811 1.0421 18.6795 1.0501 18.68L5.6058 18.9151C5.7769 18.2047 6.083 17.375 6.5277 16.4687L1.1467 15.343L1.1145 15.3362C1.11394 15.3362 1.11348 15.3358 1.11295 15.3356C1.11272 15.3355 1.11322 15.3356 1.11295 15.3356C1.11187 15.3353 1.11019 15.3346 1.10923 15.3341C1.10831 15.3336 1.10738 15.3331 1.1063 15.3328C1.10442 15.3387 1.10264 15.3439 1.10066 15.3498C1.09991 15.352 1.09913 15.3543 1.0983 15.3567C1.0532 15.5537 1.0105 15.7622 0.9695 15.9867C0.9561 16.0571 0.9435 16.1276 0.9317 16.1983C0.930149 16.2074 0.928551 16.216 0.926952 16.2245C0.925251 16.2337 0.923549 16.2428 0.9219 16.2525ZM1.4845 14.0937C1.4403 14.2191 1.3984 14.3424 1.359 14.4631C1.2954 14.6574 1.2384 14.8446 1.1916 15.0174L1.195 15.0181L6.6822 16.1661C7.0645 15.4235 7.5334 14.6374 8.0912 13.8296L2.7469 11.2525C2.73026 11.2799 2.71325 11.3073 2.69624 11.3347C2.66397 11.3867 2.63169 11.4388 2.6019 11.4903C2.4344 11.7873 2.1957 12.2986 1.9553 12.8741C1.7914 13.2666 1.6276 13.6878 1.4845 14.0937ZM6.324 7.06792C4.9045 8.34462 3.7467 9.68272 2.9192 10.9715L8.2823 13.5579C9.0209 12.5191 9.9025 11.4528 10.9251 10.4086L6.324 7.06792ZM10.9456 3.74402C9.3167 4.67452 7.8445 5.73212 6.5738 6.84402L11.1576 10.1721C12.2915 9.04192 13.5911 7.94372 15.0558 6.94382L10.9456 3.74402ZM18.1395 0.910615C18.1388 0.908668 18.138 0.906728 18.1369 0.904924C15.6534 1.48172 13.331 2.41852 11.255 3.56932L15.3444 6.75292C16.9049 5.71602 18.6468 4.79402 20.5667 4.06012L18.1432 0.917824C18.1415 0.915584 18.1405 0.913094 18.1395 0.910615ZM25.1911 0.304124C24.2272 0.267724 23.231 0.267024 22.2002 0.313024C20.9312 0.385424 19.6897 0.561924 18.4845 0.823624L20.8866 3.93772C21.5647 3.68872 22.2628 3.46122 22.9842 3.26282C23.4566 3.13302 24.5424 2.92552 25.9296 2.80772L25.1918 0.312524C25.1913 0.310988 25.1914 0.309508 25.1914 0.30804C25.1914 0.306736 25.1914 0.305441 25.1911 0.304124ZM30.4201 0.893724C28.9102 0.607224 27.2799 0.402024 25.5357 0.319124L26.2638 2.78132C27.4171 2.69892 28.7503 2.68372 30.1024 2.82292L30.4201 0.893724ZM30.4285 2.85962C31.4128 2.97922 32.3988 3.18522 33.327 3.50922L34.7563 2.00802C33.5373 1.60922 32.1977 1.24512 30.7421 0.954924L30.4285 2.85962ZM38.6738 3.55272C37.6439 3.07412 36.4472 2.57902 35.0976 2.12212C35.0966 2.12328 35.096 2.12456 35.0953 2.12583C35.0946 2.12731 35.0938 2.12878 35.0926 2.13002L33.6627 3.63192C34.0543 3.78342 34.4343 3.95652 34.7965 4.15592C35.2666 4.41482 35.7511 4.68182 36.2403 4.95212L38.6738 3.55272ZM41.7451 5.15372C41.0596 4.76072 40.1486 4.25562 39.026 3.71922C39.0238 3.72137 39.0217 3.72357 39.0195 3.72576C39.0124 3.7331 39.0053 3.74044 38.996 3.74582L36.5755 5.13762C37.308 5.54312 38.0462 5.95402 38.7603 6.35652L41.7451 5.15372ZM42.7516 5.73748C42.4801 5.57941 42.2483 5.44449 42.0854 5.34992C42.0689 5.36852 42.0495 5.38452 42.0251 5.39452L39.1255 6.56312C39.8045 6.94772 40.4562 7.32232 41.0517 7.67382C41.2007 7.76152 41.3443 7.84912 41.4847 7.93662L44.8004 6.92722C44.1295 6.53971 43.3454 6.0832 42.7516 5.73748ZM46.0644 7.64702C45.8885 7.55142 45.5558 7.36212 45.1519 7.12982C45.1314 7.15592 45.1058 7.17712 45.0734 7.18692L41.847 8.16902C42.7836 8.78292 43.5035 9.38372 44.0126 9.97752L49.1648 9.42232C48.4488 8.98233 47.7326 8.58357 47.088 8.22469C46.7188 8.01914 46.3731 7.82667 46.0644 7.64702ZM26.871 28.0208L26.8923 28.0592L27.2405 28.6898L27.2851 28.7703C27.4184 28.692 27.5707 28.6017 27.7424 28.4991C28.3072 28.1618 29.0686 27.6983 29.9577 27.136L28.2681 25.4804L28.2058 25.4196L27.9846 25.2026C27.456 25.5437 26.9429 25.8604 26.4514 26.1442C26.298 26.2327 26.1375 26.3157 25.973 26.3949L26.871 28.0208ZM23.0702 28.6829L23.5605 30.4369C24.6603 30.1465 25.7771 29.6953 26.8445 29.0274C26.888 29.0024 26.9424 28.9706 27.002 28.936L26.5744 28.1618L26.5722 28.1578L25.8872 26.9176L25.8442 26.84L25.6717 26.5276C25.5491 26.5804 25.4262 26.6327 25.2986 26.6805C25.1602 26.7324 25.0193 26.7817 24.8755 26.8275C24.508 26.9447 24.123 27.0402 23.726 27.1165C23.3839 27.1822 23.0328 27.2318 22.6744 27.2658L23.0702 28.6829ZM19.121 30.8436C20.3461 30.9316 21.7731 30.864 23.242 30.5161L22.4824 27.7973L22.4644 27.7332L22.3418 27.2944C22.0771 27.312 21.81 27.3236 21.5397 27.3236C21.0019 27.3236 20.4756 27.2842 19.9643 27.2154C19.7136 27.1815 19.468 27.1392 19.2266 27.0896L19.121 30.8436ZM15.5419 29.9044C15.6903 29.9888 15.7761 30.0376 15.7815 30.0408C16.3267 30.3575 17.4144 30.6826 18.7936 30.816L18.7951 30.7653L18.886 27.5372L18.8862 27.5286L18.9005 27.0218C18.2527 26.8666 17.6476 26.6525 17.101 26.3861C16.9552 26.3151 16.8132 26.2408 16.6762 26.1623L16.4935 26.5676L16.4627 26.6357L15.102 29.6541L15.3118 29.7734C15.3996 29.8234 15.4767 29.8673 15.5419 29.9044ZM11.2719 27.4692L11.2701 27.471L11.4154 27.554C12.5648 28.2098 13.8759 28.9562 14.7611 29.46C14.7798 29.4707 14.7973 29.4807 14.8157 29.491L16.1763 26.473L16.2084 26.402L16.39 25.9992C15.9558 25.75 15.0149 25.2094 13.9931 24.6221L11.2719 27.4692ZM7.6795 25.0658C7.9983 25.39 8.3549 25.694 8.7477 25.9746C8.9875 26.146 9.2405 26.3087 9.5068 26.462C9.8522 26.6607 10.3439 26.942 10.9012 27.2603L10.9767 27.3035L10.982 27.2979L10.984 27.296L13.7003 24.4539C12.7906 23.9312 11.8524 23.3921 11.1763 23.0031L7.6795 25.0658ZM6.8842 16.5433C6.4467 17.426 6.1406 18.2375 5.9672 18.9338L8.7294 19.0764C8.7428 18.6527 8.8109 18.2281 8.9267 17.816C9.002 17.5473 9.0974 17.284 9.2102 17.0298L6.8842 16.5433ZM10.2618 14.8765L10.2526 14.872L8.4093 13.9832C7.8688 14.7629 7.4126 15.5223 7.039 16.2407L9.2114 16.6951L9.2316 16.6994L9.3554 16.7253C9.37561 16.6839 9.3961 16.643 9.41662 16.6021C9.42595 16.5834 9.43529 16.5648 9.4446 16.5461C9.7263 15.9811 10.0221 15.4361 10.3327 14.9107L10.2618 14.8765ZM12.6522 11.6624L12.588 11.6159L11.2109 10.6159C10.201 11.6423 9.3308 12.6906 8.6015 13.7117L10.427 14.5923L10.4399 14.5984L10.5009 14.6278C11.0495 13.7271 11.6441 12.8852 12.2879 12.0967C12.4076 11.9502 12.5289 11.8053 12.6522 11.6624ZM16.5775 8.12832L15.3487 7.17182C13.8801 8.16402 12.5784 9.25582 11.4443 10.3803L12.8686 11.4145C13.9626 10.1851 15.1926 9.09562 16.5775 8.12832ZM21.61 5.41262L20.794 4.35462C18.8994 5.06932 17.1802 5.96922 15.6386 6.98192L16.8603 7.93282C18.2768 6.97522 19.854 6.14132 21.61 5.41262ZM21.924 5.28292C22.5618 5.02582 23.2226 4.78212 23.9082 4.55122C24.6023 4.31742 25.4164 4.14522 26.293 4.03732L26.032 3.15422C24.6416 3.26932 23.5494 3.47742 23.079 3.60702C22.4044 3.79232 21.7499 4.00232 21.1139 4.23262L21.924 5.28292ZM29.9138 3.96822L30.045 3.17132C28.7526 3.03952 27.4778 3.05202 26.3665 3.12892L26.6234 3.99802C27.2041 3.93862 27.8089 3.90722 28.4244 3.90722C28.9312 3.90722 29.4289 3.92882 29.9138 3.96822ZM32.4864 4.39192L33.0583 3.79142C32.195 3.50312 31.2822 3.31812 30.3713 3.20792L30.2412 3.99752C31.0395 4.07792 31.7961 4.21102 32.4864 4.39192ZM35.2095 5.54492L35.8786 5.16012C35.4539 4.92552 35.0337 4.69402 34.6243 4.46852C34.234 4.25332 33.8224 4.06922 33.3969 3.91112L32.8441 4.49172C33.4526 4.67202 34.0028 4.89092 34.4736 5.14532C34.7198 5.27842 34.9651 5.41172 35.2095 5.54492ZM37.5558 6.84192L38.3363 6.52742C37.6394 6.13562 36.9228 5.73742 36.214 5.34552L35.5468 5.72922C36.2312 6.10392 36.9046 6.47672 37.5558 6.84192ZM40.1713 8.33622L41.0267 8.07592C41.004 8.06231 40.9819 8.0487 40.9597 8.03508C40.9304 8.01708 40.901 7.99907 40.8705 7.98102C40.2048 7.58832 39.4688 7.16642 38.7024 6.73362L37.9222 7.04782C38.7175 7.49592 39.4743 7.92942 40.1713 8.33622ZM42.5221 10.138L43.5705 10.0251C43.0471 9.46372 42.3223 8.88962 41.3992 8.30532L40.5561 8.56182L40.579 8.57527C40.6121 8.59475 40.6457 8.61445 40.6781 8.63362C41.3598 9.03592 41.9169 9.48312 42.3417 9.95852C42.3956 10.0188 42.4472 10.0797 42.4966 10.1409L42.5221 10.138ZM42.7907 10.4379L42.7237 10.4452C42.9636 10.7999 43.1304 11.1665 43.2219 11.5392L43.4373 11.5822L43.4401 11.5827L44.5633 11.8061C44.4875 11.3249 44.244 10.8307 43.8346 10.3257L42.7907 10.4379ZM33.5773 20.3336L36.0777 18.8805L36.0826 18.8834C36.3004 18.718 36.5164 18.554 36.7307 18.3915L29.1588 14.023L15.1461 22.1665L23.2417 26.837C23.6549 26.7747 24.0546 26.6898 24.4382 26.5831L23.6149 26.123L26.1127 24.6721L20.6435 21.5148L18.1724 22.9751L16.6948 22.1227L22.539 18.7265L24.5679 19.904C24.2181 20.2376 24.0523 20.6374 24.0976 21.0502C24.1497 21.5247 24.4821 21.9613 25.0339 22.2799C25.5487 22.577 26.2265 22.7545 26.9426 22.7798C27.6635 22.8053 28.3635 22.6772 28.9271 22.4205L30.2981 23.1937C30.5272 23.0304 30.7582 22.8644 30.9903 22.6963L29.6546 21.9433C29.866 21.7404 30.0125 21.5105 30.0833 21.268C30.2665 20.6336 29.9319 19.9985 29.1879 19.5688C28.5088 19.1768 27.5443 18.9982 26.6075 19.0907C26.1307 19.1376 25.6795 19.2537 25.296 19.4277L23.3129 18.2768L29.1581 14.8801L30.6103 15.7239L28.11 17.1768L33.5773 20.3336ZM11.1827 21.5437C11.1834 21.9995 11.3299 22.438 11.6082 22.8399C13.4777 23.915 16.8218 25.8358 16.8218 25.8358C17.4683 26.2115 18.2274 26.4984 19.0546 26.6901L13.2115 23.3164C12.3645 22.8274 11.8974 22.1975 11.8963 21.5426C11.8954 20.8934 12.3543 20.2688 13.1885 19.7839L27.0537 11.7263C27.9889 11.1831 29.2191 10.9116 30.4515 10.9116C31.6841 10.9116 32.9188 11.1834 33.8606 11.727L40.5317 15.5787C40.5581 15.56 40.5849 15.541 40.6116 15.5219C40.6508 15.494 40.6899 15.466 40.7281 15.4392C40.8794 15.3341 41.021 15.2274 41.1571 15.12L41.1548 15.1186C41.11 15.0907 41.065 15.0627 41.0182 15.0356L34.2174 11.109C32.1371 9.90792 28.7624 9.90812 26.6953 11.1094L12.8299 19.167C11.7665 19.7852 11.1815 20.6292 11.1827 21.5437ZM30.5593 7.00662C32.5898 7.00662 34.6234 7.45432 36.1742 8.34972L42.9461 12.2595C42.9462 12.2532 42.9464 12.2469 42.9465 12.2406C42.9476 12.1982 42.9486 12.156 42.947 12.1136C42.9374 11.8564 42.8833 11.5996 42.7909 11.346L36.531 7.73182C33.2319 5.82702 27.8806 5.82722 24.6023 7.73252L10.0187 16.2075C9.8808 16.4701 9.745 16.7356 9.6137 17.0075C9.5554 17.1279 9.4988 17.2592 9.4458 17.3985C9.61 17.2819 9.7848 17.1688 9.9714 17.0603L24.9609 8.34942C26.5016 7.45422 28.5289 7.00662 30.5593 7.00662ZM5.89045 19.276C5.88919 19.2813 5.88794 19.2866 5.8869 19.2917C5.7224 20.1423 5.7273 20.9765 5.8873 21.7717L9.2357 21.2484C8.9129 20.6759 8.7547 20.0455 8.7304 19.4045L8.5526 19.3952L5.8944 19.2582C5.89329 19.264 5.89187 19.27 5.89045 19.276ZM5.9601 22.091C6.0939 22.6103 6.2949 23.1111 6.5613 23.5867C6.8043 24.0207 7.1015 24.4336 7.4497 24.8209L10.4604 23.0449L10.8497 22.8151C10.8356 22.8071 10.82 22.7982 10.8061 22.7901C10.2069 22.4462 9.7534 22.023 9.4248 21.5508L5.9601 22.091ZM30.2421 26.9554C31.3257 26.2652 32.5763 25.4415 33.8804 24.5276L31.8216 22.8918L31.82 22.8906L31.5862 22.7049C31.5279 22.7474 31.4699 22.7894 31.4119 22.8314C31.3854 22.8506 31.3589 22.8698 31.3323 22.889C31.1004 23.0574 30.8701 23.2233 30.641 23.3871C30.0869 23.7828 29.5421 24.1633 29.0099 24.5238C28.7589 24.6938 28.5109 24.859 28.2661 25.0194L30.2421 26.9554ZM36.0727 22.9364C36.4738 22.6346 36.8738 22.327 37.2694 22.0146C37.2914 21.9974 37.3127 21.9803 37.3341 21.9631C37.3423 21.9566 37.3505 21.95 37.3588 21.9433C37.7199 21.6569 38.0673 21.3745 38.4023 21.0953L35.9557 19.4277L35.9546 19.4285C34.5909 20.4647 33.2085 21.5146 31.8602 22.5038L32.0955 22.6906L32.1244 22.7136L32.1586 22.7407L34.1596 24.3306C34.7916 23.8841 35.4334 23.4179 36.0727 22.9364ZM38.6638 20.8768C39.2668 20.3673 39.8259 19.8699 40.3397 19.3857C40.9313 18.8282 41.4615 18.2886 41.9334 17.7668C42.0283 17.6617 42.1209 17.5571 42.2109 17.4537L40.1888 16.2619C39.2201 16.9606 38.1686 17.7496 37.0661 18.5851C36.8532 18.7463 36.6388 18.9089 36.4224 19.0732L36.2312 19.2186L36.4861 19.3923L36.5503 19.4362L38.6638 20.8768ZM42.4275 17.2005C42.4976 17.1172 42.5672 17.0339 42.6339 16.9516C43.3773 16.0359 43.9172 15.1841 44.2506 14.4019L42.8246 13.8254C42.5164 14.3425 42.0625 14.8476 41.4672 15.33C41.2997 15.4656 41.122 15.5997 40.9325 15.7317C40.9235 15.7381 40.9143 15.7446 40.9051 15.7512C40.8917 15.7607 40.8781 15.7704 40.8649 15.7796C40.7384 15.8686 40.6098 15.9601 40.4799 16.0529L40.7573 16.2165L40.8412 16.2657L42.4275 17.2005ZM44.5771 13.3744C44.6381 13.0677 44.6616 12.774 44.6452 12.495C44.6383 12.3768 44.6236 12.2613 44.6028 12.1482L43.2862 11.8863C43.2945 11.9575 43.301 12.0289 43.3036 12.1004C43.3081 12.2199 43.3022 12.3395 43.2913 12.4588C43.258 12.8204 43.1556 13.1804 42.9829 13.5356L44.3716 14.0972C44.4624 13.8486 44.5305 13.6077 44.5771 13.3744ZM53.4282 13.5694C52.8249 12.0267 51.2255 10.7319 49.5534 9.66542C49.5271 9.69562 49.4909 9.71702 49.4483 9.72162L44.2545 10.2804C44.6513 10.817 44.8752 11.3485 44.9294 11.8788L53.4282 13.5694Z" fill="#4BBDCF"/>
</svg>
