<svg width="56" height="38" viewBox="0 0 56 38" fill="none" xmlns="http://www.w3.org/2000/svg">
<path d="M54.0516 13.1973L54.2568 13.0901C54.2846 13.0754 54.3181 13.0958 54.3181 13.1272V13.7737C54.3181 13.7894 54.3094 13.8038 54.2953 13.811L54.0903 13.9162C54.0623 13.9305 54.0291 13.9103 54.0291 13.8789V13.2344C54.0291 13.2189 54.0379 13.2044 54.0516 13.1973Z" fill="#4BBDCF"/>
<path d="M54.0522 15.0531L54.2574 14.9502C54.2852 14.9363 54.318 14.9564 54.318 14.9877V15.6272C54.318 15.6431 54.3091 15.6577 54.2946 15.6649L54.0897 15.7658C54.0618 15.7796 54.0292 15.7594 54.0292 15.7284V15.0906C54.0292 15.0747 54.0381 15.0603 54.0522 15.0531Z" fill="#4BBDCF"/>
<path d="M54.2571 14.0222L54.0519 14.1273C54.038 14.1345 54.0292 14.1489 54.0292 14.1646V14.8058C54.0292 14.837 54.0621 14.8572 54.0899 14.8432L54.2951 14.7399C54.3091 14.7328 54.3181 14.7184 54.3181 14.7025V14.0595C54.3181 14.0281 54.2849 14.008 54.2571 14.0222Z" fill="#4BBDCF"/>
<path d="M48.1303 20.386L48.1876 20.4194C48.2154 20.4354 48.2502 20.4155 48.2502 20.3833V19.6835C48.2502 19.6683 48.242 19.6546 48.2288 19.6471L48.0051 19.5222C47.9774 19.5067 47.9432 19.5268 47.9432 19.5586V20.2535C47.9432 20.2683 47.9512 20.282 47.9639 20.2895L48.1303 20.386Z" fill="#4BBDCF"/>
<path d="M48.1885 19.4257L47.9648 19.3024C47.9632 19.3015 47.962 19.3001 47.9607 19.2987L47.9587 19.2965C47.9496 19.2888 47.9434 19.2783 47.9434 19.266V18.5654C47.9434 18.5567 47.9462 18.5492 47.9507 18.5426L47.9826 18.5239C47.9897 18.5235 47.9971 18.5248 48.0042 18.5285L48.2279 18.6454C48.2395 18.6514 48.2461 18.663 48.2482 18.6757C48.2488 18.678 48.2502 18.68 48.2502 18.6823V19.3893C48.2502 19.421 48.2161 19.441 48.1885 19.4257Z" fill="#4BBDCF"/>
<path d="M47.97 21.2761L48.187 21.4083C48.2146 21.4253 48.2501 21.4053 48.2501 21.3728V20.6783C48.2501 20.6635 48.2423 20.65 48.2296 20.6425L48.0123 20.5147L48.0059 20.511C47.9782 20.4948 47.9433 20.5147 47.9433 20.5468V21.2365C47.9433 21.251 47.9508 21.2644 47.9632 21.272L47.97 21.2761Z" fill="#4BBDCF"/>
<path d="M47.9717 22.2617L47.9624 22.2558C47.9505 22.2481 47.9433 22.2349 47.9433 22.2206V21.5365C47.9433 21.5038 47.979 21.4839 48.0067 21.501L48.2304 21.6391C48.2427 21.6466 48.2502 21.6599 48.2502 21.6744V22.3637C48.2502 22.3966 48.2138 22.4164 48.1861 22.3987L48.1237 22.3587L47.9717 22.2617Z" fill="#4BBDCF"/>
<path d="M51.6902 19.4257L51.9139 19.3025C51.9271 19.2952 51.9355 19.2811 51.9355 19.2659V18.5653C51.9355 18.5341 51.9023 18.5141 51.8745 18.5286L51.6508 18.6454C51.6372 18.6526 51.6285 18.6668 51.6285 18.6824V19.3894C51.6285 19.4209 51.6625 19.4411 51.6902 19.4257Z" fill="#4BBDCF"/>
<path d="M51.9155 21.2719L51.6918 21.4084C51.6641 21.4253 51.6284 21.4053 51.6284 21.3729V20.6784C51.6284 20.6636 51.6363 20.6498 51.649 20.6423L51.8727 20.511C51.9005 20.4946 51.9355 20.5148 51.9355 20.5469V21.2364C51.9355 21.251 51.9278 21.2644 51.9155 21.2719Z" fill="#4BBDCF"/>
<path d="M51.6925 22.3987L51.9162 22.2558C51.9282 22.2481 51.9355 22.2349 51.9355 22.2208V21.5365C51.9355 21.5038 51.8996 21.4838 51.872 21.501L51.6483 21.639C51.6472 21.6398 51.6467 21.641 51.6456 21.6419C51.6353 21.6496 51.6285 21.6613 51.6285 21.6744V22.3637C51.6285 22.3965 51.6649 22.4163 51.6925 22.3987Z" fill="#4BBDCF"/>
<path d="M51.7907 20.3613L51.691 20.4193C51.6634 20.4354 51.6286 20.4154 51.6286 20.3833V19.6834C51.6286 19.6684 51.6368 19.6545 51.6498 19.6472L51.7918 19.5678L51.8735 19.5223C51.9013 19.5068 51.9354 19.5268 51.9354 19.5585V20.2534C51.9354 20.2682 51.9276 20.282 51.9147 20.2894L51.7907 20.3613Z" fill="#4BBDCF"/>
<path d="M49.8103 19.7758H50.0683C50.0913 19.7758 50.1099 19.7572 50.1099 19.7342V19.0213C50.1099 18.9985 50.0913 18.9798 50.0683 18.9798H49.8103C49.7873 18.9798 49.7688 18.9985 49.7688 19.0213V19.7342C49.7688 19.7572 49.7873 19.7758 49.8103 19.7758Z" fill="#4BBDCF"/>
<path d="M50.0683 20.766H49.8103C49.7873 20.766 49.7688 20.7475 49.7688 20.7245V20.0116C49.7688 19.9887 49.7873 19.97 49.8103 19.97H50.0683C50.0913 19.97 50.1099 19.9887 50.1099 20.0116V20.7245C50.1099 20.7475 50.0913 20.766 50.0683 20.766Z" fill="#4BBDCF"/>
<path d="M49.8103 21.7563H50.0683C50.0913 21.7563 50.1099 21.7377 50.1099 21.7147V21.0018C50.1099 20.979 50.0913 20.9603 50.0683 20.9603H49.8103C49.7873 20.9603 49.7688 20.979 49.7688 21.0018V21.7147C49.7688 21.7377 49.7873 21.7563 49.8103 21.7563Z" fill="#4BBDCF"/>
<path d="M50.0683 22.7465H49.8103C49.7873 22.7465 49.7688 22.7279 49.7688 22.7049V21.992C49.7688 21.969 49.7873 21.9505 49.8103 21.9505H50.0683C50.0913 21.9505 50.1099 21.969 50.1099 21.992V22.7049C50.1099 22.7279 50.0913 22.7465 50.0683 22.7465Z" fill="#4BBDCF"/>
<path d="M52.2534 14.4373C52.2272 14.6619 52.102 14.871 51.9007 15.0506L51.9817 15.3771C51.9908 15.4135 51.9907 15.452 51.9864 15.4913C51.9803 15.5478 51.9618 15.6063 51.9302 15.6659C51.8679 15.7829 51.7587 15.9028 51.6116 16.0149C51.4647 16.1267 51.2797 16.2295 51.0665 16.3137L51.0565 16.3176L51.0492 16.3205C50.9613 16.3545 50.8696 16.3859 50.7727 16.4127C50.7568 16.4171 50.7403 16.4209 50.7237 16.4248C50.7135 16.4272 50.7033 16.4296 50.6932 16.4321C50.5611 16.4648 50.4225 16.4894 50.278 16.5047L50.268 16.5059L50.2498 16.5078C50.2354 16.5092 50.2211 16.5112 50.2065 16.5124L50.1843 16.5142C50.1693 16.5155 50.1542 16.5168 50.1389 16.5178L50.1305 16.518C50.1272 16.518 50.1238 16.5181 50.1205 16.5183C50.0813 16.5206 50.0415 16.5217 50.0015 16.5226C49.9966 16.5227 49.9917 16.5228 49.9868 16.523C49.9823 16.5232 49.9777 16.5234 49.9732 16.5236C49.962 16.5242 49.9508 16.5247 49.9394 16.5247C49.9284 16.5247 49.9178 16.5242 49.9071 16.5237C49.8985 16.5233 49.89 16.5229 49.8813 16.5228C49.821 16.5215 49.7608 16.5199 49.7021 16.5155C49.647 16.5113 49.5931 16.5051 49.5394 16.4983C49.5009 16.4935 49.4633 16.4876 49.4256 16.4814C49.2981 16.4605 49.1755 16.433 49.0594 16.399C48.9909 16.379 48.9249 16.3567 48.861 16.3329C48.8549 16.3306 48.849 16.3283 48.8431 16.3259L48.8382 16.3239L48.8299 16.3206L48.8016 16.3096C48.7272 16.2798 48.6555 16.2482 48.5884 16.2143C48.5788 16.2093 48.5688 16.2047 48.5593 16.1997C48.5521 16.1959 48.5454 16.192 48.5387 16.188C48.5342 16.1854 48.5297 16.1828 48.5251 16.1802C48.4298 16.1283 48.3433 16.0728 48.2671 16.0149C48.1729 15.9431 48.0953 15.8682 48.0346 15.7928C48.0004 15.7505 47.971 15.708 47.9485 15.6659C47.9169 15.6063 47.8983 15.5478 47.8923 15.4913C47.888 15.452 47.8878 15.4135 47.8969 15.3771L47.9779 15.0506C47.7767 14.871 47.6514 14.6619 47.6252 14.4373C47.5341 14.5101 47.4543 14.5873 47.3853 14.6683C47.2438 14.8342 47.1492 15.0153 47.1164 15.2071C47.1077 15.2583 47.1025 15.3104 47.1025 15.363C47.1025 15.6231 47.2145 15.868 47.409 16.0853C47.4611 16.1435 47.5171 16.2002 47.5808 16.2541C47.6062 16.2756 47.6339 16.296 47.6617 16.3166L47.6836 16.3328C47.6888 16.3366 47.6938 16.3405 47.6988 16.3444C47.7064 16.3503 47.7141 16.3563 47.7223 16.362C47.8509 16.4532 47.9959 16.5363 48.1561 16.6096C48.1661 16.6143 48.177 16.6182 48.1872 16.6228L48.1911 16.6245C48.2441 16.648 48.2972 16.6715 48.3533 16.693C48.3707 16.6996 48.3888 16.7057 48.407 16.7117C48.4184 16.7154 48.4297 16.7192 48.4409 16.7231L48.4658 16.7316L48.4737 16.7343C48.4791 16.7362 48.4845 16.738 48.4898 16.7399C48.5015 16.744 48.5133 16.7481 48.5251 16.752C48.5756 16.7684 48.6271 16.7838 48.6796 16.7986L48.705 16.8057C48.7369 16.8146 48.7689 16.8236 48.8016 16.8318C48.8972 16.8555 48.995 16.8771 49.0958 16.8947C49.1093 16.8972 49.1232 16.899 49.1371 16.9009C49.1462 16.9021 49.1554 16.9033 49.1644 16.9047C49.2296 16.9152 49.2949 16.9256 49.3619 16.9334C49.4088 16.9389 49.4569 16.9427 49.5049 16.9464L49.5373 16.949C49.5919 16.9534 49.6465 16.9575 49.7021 16.9602C49.7806 16.9638 49.8593 16.967 49.9394 16.967C49.9505 16.967 49.9615 16.9665 49.9725 16.9661C49.9821 16.9657 49.9917 16.9653 50.0015 16.9652C50.0104 16.965 50.019 16.9645 50.0279 16.9645C50.0279 16.9645 50.0278 16.9645 50.0279 16.9645C50.065 16.964 50.1021 16.9627 50.1389 16.9613C50.1484 16.9609 50.158 16.9607 50.1675 16.9605C50.1806 16.9603 50.1936 16.96 50.2065 16.9593L50.2321 16.9578L50.278 16.9545C50.3185 16.9517 50.3582 16.948 50.398 16.9442L50.4166 16.9425C50.5105 16.9334 50.6027 16.922 50.6932 16.9079C50.7043 16.9062 50.7155 16.9046 50.7267 16.9031C50.7422 16.901 50.7576 16.8989 50.7727 16.8963C50.8671 16.8799 50.9593 16.861 51.0492 16.8392C51.3015 16.7786 51.5352 16.698 51.7438 16.6007C51.8959 16.5297 52.0333 16.4493 52.1564 16.362C52.1605 16.3592 52.1645 16.3562 52.1684 16.3533C52.1723 16.3504 52.1761 16.3474 52.1799 16.3445C52.1849 16.3405 52.1899 16.3366 52.1951 16.3328C52.2483 16.2933 52.298 16.2527 52.3446 16.2104L52.3621 16.1947C52.3868 16.1727 52.4116 16.1505 52.4338 16.1274C52.4412 16.1198 52.4477 16.1118 52.4542 16.1037C52.4592 16.0975 52.4643 16.0913 52.4697 16.0853C52.6641 15.868 52.7762 15.6231 52.7762 15.363C52.7762 15.0178 52.5815 14.699 52.2534 14.4373Z" fill="#4BBDCF"/>
<path d="M32.6996 6.8433C34.1449 7.0907 35.5075 7.5439 36.6487 8.2027C38.7433 9.4121 39.6415 11.0559 39.345 12.6363C39.2123 13.344 38.8393 14.0385 38.2261 14.676C37.7609 13.9306 37.028 13.255 36.0636 12.6982C35.8343 12.5658 35.5954 12.4427 35.3487 12.3277C31.8203 10.6818 26.6364 10.805 23.375 12.7002L16.2158 16.9497C14.8964 17.7166 14.016 18.7037 13.6726 19.7827C13.4487 19.5659 13.2544 19.3418 13.0872 19.1126C12.6354 18.493 12.3915 17.8349 12.3544 17.1736C12.2739 15.7353 13.1727 14.2833 15.0575 13.1879L23.5124 8.2145C24.8192 7.455 26.4237 6.9705 28.1124 6.7578C28.8403 6.6661 29.5834 6.6251 30.3257 6.6351C31.1258 6.6456 31.9241 6.7147 32.6996 6.8433Z" fill="#4BBDCF"/>
<path d="M35.7068 13.3162C35.542 13.2211 35.3707 13.1319 35.1961 13.0463C31.8648 11.4106 26.8619 11.4994 23.7365 13.3155L16.5773 17.565C16.4314 17.6497 16.2933 17.7379 16.1599 17.8278C15.1128 18.5339 14.4581 19.3916 14.2772 20.2959C14.5281 20.4854 14.8008 20.6681 15.1005 20.8411C15.129 20.8576 15.1582 20.8733 15.1873 20.889C15.2051 20.8986 15.223 20.9082 15.2406 20.918C15.8559 21.2591 16.5313 21.5422 17.2474 21.7674L14.8101 20.3612L28.8229 12.2178L35.918 16.3112L36.6923 15.8557C36.9219 15.7223 37.1367 15.5835 37.337 15.4401C37.4607 15.3518 37.5766 15.2611 37.689 15.1694C37.2937 14.479 36.6202 13.8436 35.7068 13.3162Z" fill="#4BBDCF"/>
<path d="M28.8221 13.0748L30.2743 13.9186L27.774 15.3715L32.69 18.21L29.3666 20.1649L29.3188 20.1378C29.5302 19.935 29.6765 19.7052 29.7473 19.4627C29.9305 18.8283 29.5959 18.1931 28.8519 17.7635C28.1729 17.3715 27.2089 17.1929 26.2717 17.2854C25.7949 17.3323 25.3435 17.4484 24.9601 17.6224L22.9769 16.4715L28.8221 13.0748Z" fill="#4BBDCF"/>
<path d="M29.3251 15.3697L33.2395 17.6296L34.9643 16.6272L31.0502 14.3672L29.3251 15.3697Z" fill="#4BBDCF"/>
<path d="M26.2113 20.2051C25.8326 20.1473 25.4885 20.0335 25.2162 19.8763C24.9624 19.7297 24.7827 19.5531 24.6967 19.3654C24.5667 19.0812 24.6662 18.7795 24.9699 18.5253L27.7397 20.1247C27.2707 20.254 26.7323 20.284 26.2113 20.2051Z" fill="#4BBDCF"/>
<path d="M26.6066 20.9745C25.8905 20.9491 25.2127 20.7716 24.6979 20.4746C24.1461 20.1561 23.8137 19.7194 23.7616 19.2449C23.7163 18.832 23.882 18.4323 24.2319 18.0986L22.2029 16.9212L16.3587 20.3174L17.8364 21.1698L20.3074 19.7094L24.5289 22.1464C25.8869 21.8916 27.163 21.4535 28.2373 20.8292L28.5963 20.618L28.5913 20.6152C28.0275 20.8719 27.3277 20.9992 26.6066 20.9745Z" fill="#4BBDCF"/>
<path d="M28.3343 18.3618C27.8924 18.1065 27.2741 17.9732 26.6393 17.9929C26.3537 18.0021 26.0702 18.0444 25.8121 18.1149L28.581 19.7133C28.7785 19.5487 28.8911 19.364 28.9086 19.1746C28.9353 18.8843 28.7259 18.588 28.3343 18.3618Z" fill="#4BBDCF"/>
<path d="M19.7987 22.3058L18.6129 21.6192L20.3123 20.6089L23.2872 22.3262C22.1342 22.445 20.9494 22.4387 19.7987 22.3058Z" fill="#4BBDCF"/>
<path d="M34.5375 28.4281L34.5389 28.4288L34.7605 28.5403C34.7885 28.5544 34.8214 28.534 34.8214 28.5028V27.8096C34.8214 27.7939 34.8126 27.7794 34.7985 27.7723L34.5755 27.6581C34.563 27.6517 34.55 27.6529 34.5389 27.6581C34.525 27.6647 34.5145 27.6779 34.5145 27.6954V28.3906C34.5145 28.4065 34.5234 28.4209 34.5375 28.4281Z" fill="#4BBDCF"/>
<path d="M34.5388 27.4421L34.5372 27.4413C34.5354 27.4404 34.5342 27.439 34.5329 27.4376L34.5306 27.4352C34.5212 27.4273 34.5144 27.4166 34.5144 27.404V26.705C34.5144 26.6875 34.5249 26.6743 34.5388 26.6679C34.5501 26.6625 34.5633 26.6613 34.5758 26.6679L34.7046 26.7351L34.7988 26.7844C34.8127 26.7917 34.8214 26.806 34.8214 26.8215V27.5185C34.8214 27.5499 34.7882 27.5701 34.7602 27.5558L34.7046 27.5271L34.5388 27.4421Z" fill="#4BBDCF"/>
<path d="M34.5378 29.4104L34.5389 29.4109L34.5446 29.4136L34.7045 29.4926L34.7608 29.5203C34.7887 29.534 34.8213 29.5139 34.8213 29.4828V28.7931C34.8213 28.7773 34.8124 28.7628 34.7983 28.7557L34.5751 28.6436C34.5628 28.6376 34.5498 28.6388 34.5389 28.644C34.525 28.6506 34.5145 28.6638 34.5145 28.6811V29.3728C34.5145 29.3888 34.5236 29.4033 34.5378 29.4104Z" fill="#4BBDCF"/>
<path d="M34.7611 30.5017L34.5381 30.394C34.5237 30.387 34.5144 30.3724 34.5144 30.3562V29.6682C34.5144 29.6509 34.5249 29.6377 34.5388 29.6311C34.5497 29.626 34.5626 29.6247 34.5749 29.6306L34.7046 29.6945L34.7979 29.7403C34.81 29.7464 34.8171 29.7582 34.8195 29.7712C34.8196 29.7722 34.82 29.7732 34.8204 29.7741C34.8209 29.7754 34.8214 29.7766 34.8214 29.778V30.4639C34.8214 30.4676 34.8209 30.471 34.82 30.4743C34.8188 30.4785 34.817 30.4824 34.8146 30.486C34.8091 30.4946 34.8006 30.5001 34.7907 30.503L34.7815 30.5057L34.7784 30.5055L34.7752 30.5054L34.7736 30.5053L34.7698 30.5046C34.7669 30.504 34.764 30.5031 34.7611 30.5017Z" fill="#4BBDCF"/>
<path d="M38.2608 27.5558L38.4838 27.4412C38.4979 27.4341 38.5066 27.4196 38.5066 27.4039V26.705C38.5066 26.6734 38.4732 26.6532 38.4452 26.6679L38.2222 26.7844C38.2083 26.7917 38.1998 26.8059 38.1998 26.8215V27.5185C38.1998 27.5499 38.2329 27.57 38.2608 27.5558Z" fill="#4BBDCF"/>
<path d="M38.4832 29.4105L38.2602 29.5203C38.2323 29.5341 38.1997 29.5137 38.1997 29.4827V28.7932C38.1997 28.7773 38.2086 28.7629 38.2229 28.7557L38.4459 28.6437C38.4737 28.6298 38.5065 28.6499 38.5065 28.6812V29.3728C38.5065 29.3887 38.4976 29.4033 38.4832 29.4105Z" fill="#4BBDCF"/>
<path d="M38.2599 30.5017L38.4829 30.3939C38.4973 30.387 38.5066 30.3723 38.5066 30.3563V29.6682C38.5066 29.6371 38.4741 29.617 38.4461 29.6307L38.2231 29.7404C38.2099 29.7469 38.2021 29.7599 38.2008 29.7743C38.2006 29.7756 38.1997 29.7767 38.1997 29.7781V30.4639C38.1997 30.4949 38.232 30.5151 38.2599 30.5017Z" fill="#4BBDCF"/>
<path d="M38.2604 28.5403C38.2406 28.5502 38.2189 28.5425 38.2076 28.5262C38.203 28.5196 38.1998 28.512 38.1998 28.5029V27.8096C38.1998 27.7939 38.2085 27.7795 38.2224 27.7723L38.3564 27.7036L38.4456 27.658C38.4735 27.6437 38.5066 27.664 38.5066 27.6953V28.3907C38.5066 28.4065 38.4977 28.421 38.4834 28.4281L38.3509 28.4949L38.2604 28.5403Z" fill="#4BBDCF"/>
<path d="M36.3399 27.8729C36.3399 27.8961 36.3587 27.9148 36.3819 27.9148H36.6391C36.6623 27.9148 36.681 27.8961 36.681 27.8729V27.1607C36.681 27.1375 36.6623 27.1188 36.6391 27.1188H36.3819C36.3587 27.1188 36.3399 27.1375 36.3399 27.1607V27.8729Z" fill="#4BBDCF"/>
<path d="M36.681 28.8631C36.681 28.8863 36.6623 28.9051 36.6391 28.9051H36.3819C36.3672 28.9051 36.3565 28.8963 36.349 28.8851C36.3446 28.8783 36.3399 28.8717 36.3399 28.8631V28.151C36.3399 28.1278 36.3587 28.109 36.3819 28.109H36.6391C36.6623 28.109 36.681 28.1278 36.681 28.151V28.8631Z" fill="#4BBDCF"/>
<path d="M36.3399 29.8534C36.3399 29.8766 36.3587 29.8953 36.3819 29.8953H36.6391C36.6623 29.8953 36.681 29.8766 36.681 29.8534V29.1412C36.681 29.118 36.6623 29.0993 36.6391 29.0993H36.3819C36.378 29.0993 36.3748 29.1011 36.3717 29.103C36.3701 29.1039 36.3686 29.1048 36.3669 29.1055C36.3608 29.11 36.3555 29.1144 36.3492 29.1189C36.3446 29.1255 36.3399 29.1325 36.3399 29.1412V29.8534Z" fill="#4BBDCF"/>
<path d="M36.681 30.8436C36.681 30.8668 36.6623 30.8855 36.6391 30.8855H36.3819C36.3587 30.8855 36.3399 30.8668 36.3399 30.8436V30.1314C36.3399 30.1082 36.3587 30.0895 36.3819 30.0895H36.6391C36.6623 30.0895 36.681 30.1082 36.681 30.1314V30.8436Z" fill="#4BBDCF"/>
<path fill-rule="evenodd" clip-rule="evenodd" d="M55.2618 11.7039C55.2647 11.7392 55.2661 11.7731 55.2661 11.806H55.2697V16.4024C55.2675 16.882 54.9582 17.324 54.3987 17.647C53.9716 17.8935 53.4336 18.0492 52.8423 18.0976L52.7981 18.1012V22.1321C53.1786 22.5062 53.3791 22.9269 53.3791 23.3534V23.6647C53.9011 24.1416 54.1764 24.6816 54.1764 25.2325V25.6808C54.1764 27.0786 52.3146 28.1734 49.938 28.1734C47.5613 28.1734 45.6996 27.0786 45.6996 25.6808V25.4655L45.2109 25.7526C44.5978 26.1065 43.6066 26.1136 42.9975 25.7597L39.3692 27.8554V30.2707C39.7497 30.6448 39.9503 31.0657 39.9503 31.4924V31.798C40.4653 32.2686 40.7475 32.8238 40.7475 33.3708V33.8198C40.7475 35.2176 38.8858 36.3124 36.5093 36.3124C34.1326 36.3124 32.2709 35.2176 32.2709 33.8198V33.0406L31.6092 33.4193L30.5061 32.7783C27.7408 33.9369 24.5435 34.6173 21.2853 34.8014V34.8727L20.8436 36.6528C20.7605 36.9862 20.4936 37.2781 20.1109 37.4991C19.557 37.8188 18.7605 37.9899 17.928 37.9219C17.2234 37.865 16.628 37.6474 16.2327 37.3427C15.8772 37.0683 15.7282 36.7422 15.726 36.3579V34.849C15.7555 35.0936 15.8893 35.325 16.1037 35.5257L16.1123 35.5342C16.1496 35.5692 16.1895 35.6033 16.2327 35.6366C16.628 35.9415 17.2234 36.159 17.928 36.2159C18.7605 36.2839 19.557 36.113 20.1109 35.7931C20.3022 35.6827 20.4647 35.5544 20.5896 35.412C20.6208 35.3765 20.6497 35.3401 20.6761 35.3028C20.7555 35.191 20.8124 35.0718 20.8436 34.9468L21.2853 33.1669V33.1651C21.3028 33.1643 21.3202 33.1635 21.3377 33.1627C21.4396 33.1579 21.5413 33.1532 21.643 33.1472V30.5255L21.6193 30.5269C21.5081 30.5333 21.3968 30.5398 21.2853 30.5451C21.2497 30.5468 21.2141 30.548 21.1784 30.5493C21.1505 30.5502 21.1225 30.5512 21.0945 30.5524L20.8436 31.5632C20.7605 31.8967 20.4936 32.1885 20.1109 32.4096C19.557 32.7294 18.7605 32.9003 17.928 32.8324C17.2234 32.7755 16.628 32.558 16.2327 32.2531C16.1917 32.2213 16.1533 32.1885 16.1167 32.1548C16.1154 32.1536 16.1141 32.1524 16.1127 32.1512C16.1087 32.1477 16.1047 32.1441 16.1009 32.1403C16.0949 32.1348 16.0893 32.129 16.0837 32.1232C16.0808 32.1202 16.0779 32.1172 16.075 32.1143C16.0723 32.1116 16.0698 32.1089 16.0673 32.1062C16.0648 32.1034 16.0623 32.1007 16.0595 32.0979C16.0556 32.094 16.0517 32.09 16.0478 32.0861C16.0361 32.0744 16.0244 32.0627 16.0134 32.0506C16.0085 32.0451 16.0036 32.0397 15.9987 32.0342C15.9948 32.03 15.991 32.0257 15.9872 32.0214L15.9669 31.9969C15.9625 31.9914 15.9584 31.9858 15.9544 31.9801C15.9512 31.9755 15.9479 31.9709 15.9444 31.9664C15.941 31.9619 15.9374 31.9574 15.9338 31.9529C15.9299 31.9481 15.9261 31.9432 15.9225 31.9382C15.9135 31.9261 15.9043 31.914 15.8959 31.9015C15.8948 31.8999 15.8941 31.8983 15.893 31.8965C15.8915 31.8944 15.8899 31.8923 15.8883 31.8903C15.8862 31.8875 15.8841 31.8847 15.8823 31.882C15.8764 31.8731 15.872 31.8638 15.8666 31.8549C15.8638 31.8503 15.8615 31.8457 15.859 31.8411C15.8577 31.8386 15.8564 31.8362 15.855 31.8337C15.8497 31.8244 15.8433 31.8153 15.8383 31.806C15.8367 31.8032 15.8351 31.8004 15.8334 31.7976C15.8314 31.7943 15.8294 31.7911 15.8277 31.7878C15.8242 31.781 15.8211 31.7744 15.8186 31.7671C15.8176 31.764 15.8163 31.7603 15.8149 31.7559C15.7989 31.7087 15.7576 31.5869 15.7576 31.4112C15.7576 31.0917 16.0666 30.3904 16.0666 30.3904C16.045 30.388 16.0234 30.386 16.0018 30.3839C15.9801 30.3818 15.9585 30.3798 15.9369 30.3774C15.9281 30.3763 15.9194 30.3755 15.9106 30.3747C15.9028 30.374 15.8949 30.3733 15.8871 30.3724C15.8116 30.3638 15.7363 30.354 15.6611 30.3442C15.6149 30.3382 15.5686 30.3321 15.5223 30.3264V32.9198C15.5647 32.9256 15.6071 32.9308 15.6496 32.9361C15.6751 32.9392 15.7005 32.9423 15.726 32.9456V34.6278C12.3926 34.2239 9.22521 33.2739 6.64671 31.7511C2.12771 29.0817 1.23251 25.7718 1.19091 23.0494C0.742209 22.3178 0.425009 21.5639 0.239709 20.8007C0.0823089 20.2043 0.000808933 19.5954 8.93343e-06 18.9782C-0.00189107 17.7768 0.299309 16.6078 0.879609 15.5008C1.69521 13.9452 3.06451 12.5126 4.92791 11.2872C5.19461 11.1118 5.47021 10.94 5.75711 10.7734L18.3739 3.3273C22.0662 1.1815 26.9877 0 32.2321 0C32.4074 0 32.5817 0.00335627 32.756 0.00671406C32.7945 0.00745463 32.8329 0.00819527 32.8714 0.0089C37.8764 0.1011 42.5635 1.2691 46.1284 3.3275C46.9953 3.8279 47.7688 4.3704 48.4516 4.9459C50.2035 6.4224 51.3379 8.1225 51.7727 9.9369L52.1059 9.9017C52.2319 9.8915 52.3599 9.8862 52.4863 9.8862C53.8826 9.8862 55.0409 10.4979 55.2404 11.3403C55.268 11.4568 55.2752 11.576 55.2618 11.7039ZM55.0484 11.8061C55.0483 11.8242 55.0462 11.8422 55.044 11.8601C55.043 11.8687 55.0419 11.8773 55.0411 11.8859C55.041 11.8869 55.0409 11.8879 55.0408 11.8888C55.0406 11.8907 55.0405 11.8926 55.0402 11.8944C55.0381 11.915 55.0383 11.9357 55.0347 11.956C55.0327 11.967 55.0295 11.9777 55.0263 11.9884C55.0242 11.9956 55.0221 12.0027 55.0203 12.01C55.0196 12.0127 55.0188 12.0153 55.0181 12.018C55.0173 12.0207 55.0165 12.0235 55.0158 12.0263C55.0138 12.0339 55.012 12.0415 55.0102 12.0491C55.006 12.0671 55.0017 12.0852 54.9953 12.1028C54.9949 12.104 54.9944 12.1052 54.9938 12.1063C54.9934 12.1073 54.9929 12.1082 54.9926 12.1092C54.9896 12.1175 54.9857 12.1256 54.9818 12.1337C54.9788 12.1399 54.9758 12.1462 54.9732 12.1526C54.9717 12.156 54.9702 12.1594 54.9687 12.1628C54.966 12.169 54.9632 12.175 54.9603 12.1811C54.9507 12.2024 54.943 12.2241 54.9318 12.245C54.9299 12.2486 54.9276 12.2521 54.9253 12.2555C54.9232 12.2585 54.9212 12.2615 54.9195 12.2646C54.9063 12.2878 54.8909 12.3107 54.8757 12.3335L54.8722 12.339C54.8627 12.3533 54.8552 12.3681 54.8451 12.382C54.8369 12.3933 54.8265 12.4036 54.8179 12.4147C54.8012 12.4361 54.7837 12.4569 54.7653 12.4778C54.7411 12.5053 54.715 12.5322 54.6879 12.559C54.669 12.5775 54.6501 12.5963 54.6297 12.6145L54.624 12.6189C54.5928 12.6464 54.5596 12.673 54.5254 12.6994C54.5189 12.7044 54.5125 12.7095 54.506 12.7146C54.4944 12.7239 54.4828 12.7332 54.4702 12.742C54.4128 12.7829 54.3527 12.8225 54.2881 12.8598C53.9691 13.0441 53.5641 13.1804 53.1051 13.2483C53.0134 13.2617 52.9203 13.2737 52.8245 13.2815L51.9436 13.3525C52.1443 13.5468 52.2613 13.7719 52.2613 14.0131C52.2613 14.1385 52.2281 14.2593 52.1701 14.3742C52.1232 14.467 52.0608 14.5558 51.981 14.639C51.9364 14.6853 51.8854 14.7294 51.8317 14.7722C51.6697 14.901 51.4694 15.0132 51.2375 15.1017C51.1768 15.1249 51.114 15.1465 51.0492 15.1663C51.0076 15.1793 50.9642 15.1905 50.9207 15.2018L50.9092 15.2048C50.8407 15.2227 50.7704 15.2386 50.6983 15.2528C50.6965 15.253 50.6949 15.2535 50.6932 15.2539C50.6844 15.2555 50.676 15.2575 50.6675 15.2591C50.6618 15.2602 50.6564 15.2614 50.6509 15.2626C50.644 15.2641 50.637 15.2656 50.6298 15.2669C50.622 15.2683 50.6138 15.2691 50.6059 15.2703C50.5542 15.2792 50.5016 15.2865 50.4484 15.2933C50.3924 15.3005 50.3355 15.3056 50.278 15.3104C50.2745 15.3108 50.2707 15.3112 50.2671 15.3113C50.2581 15.312 50.2492 15.3129 50.2403 15.3137C50.2291 15.3148 50.2179 15.3159 50.2065 15.3167C50.184 15.3181 50.1615 15.3192 50.1389 15.3203C50.0936 15.3224 50.0475 15.3235 50.0015 15.3242C49.9806 15.3245 49.9603 15.326 49.9394 15.326C49.9333 15.326 49.9272 15.3258 49.9211 15.3255C49.9147 15.3253 49.9084 15.325 49.902 15.3249C49.8347 15.3242 49.7678 15.3229 49.7021 15.3192C49.6976 15.3189 49.6932 15.3185 49.6888 15.3181C49.6844 15.3176 49.68 15.3172 49.6754 15.3169C49.6633 15.3162 49.6517 15.3147 49.6395 15.3138C49.5671 15.3085 49.4957 15.3015 49.4256 15.2926C49.4165 15.2914 49.4074 15.2902 49.3984 15.2888C49.3845 15.2868 49.3706 15.2847 49.3566 15.2826L49.3214 15.2774C49.2843 15.2717 49.2476 15.2658 49.2114 15.2591C49.1518 15.248 49.0927 15.2364 49.0356 15.2229C49.0236 15.2199 49.012 15.2166 49.0004 15.2133C48.9902 15.2104 48.98 15.2075 48.9695 15.2048C48.9234 15.1927 48.877 15.1811 48.8326 15.1676C48.7611 15.1454 48.6922 15.1212 48.6255 15.0951C48.5695 15.0734 48.5147 15.0505 48.4624 15.0263C48.3046 14.9526 48.1658 14.8666 48.0471 14.7722C47.8969 14.6527 47.7815 14.5187 47.7085 14.3742C47.6573 14.2729 47.6277 14.1665 47.6213 14.0567C47.621 14.0503 47.6202 14.0439 47.6195 14.0376C47.6185 14.0295 47.6175 14.0214 47.6175 14.0131C47.6175 13.8556 47.6691 13.7052 47.759 13.5653C47.9042 13.3395 48.1536 13.1424 48.4773 12.9937L48.1226 12.6923C48.0379 12.8287 47.9472 12.9641 47.8502 13.0986C47.7331 13.2606 47.6101 13.4217 47.4752 13.5807C47.2397 13.8577 46.9751 14.1289 46.6867 14.3945L46.6845 14.3963C46.4125 14.6466 46.1168 14.891 45.7991 15.1294C45.6505 15.2407 45.4974 15.3506 45.3392 15.4591L47.1139 17.189C47.1209 17.2402 47.1327 17.2907 47.148 17.3405L46.9892 17.5032L45.666 16.2133L45.6644 16.2119L45.0736 15.636C44.8554 15.7784 44.6317 15.919 44.3964 16.0558L41.8968 17.5308L42.9037 18.7352L42.9849 18.8322L42.9857 18.8333L43.5338 19.4889L43.2944 19.6891L41.6246 17.6916L38.4287 19.5776L40.0075 21.837L45.3909 18.6599C46.0478 18.2781 46.6476 17.8732 47.1888 17.4486C47.1906 17.4525 47.1923 17.4564 47.1941 17.4602C47.1968 17.4662 47.1994 17.4721 47.2022 17.478C47.2283 17.5328 47.2588 17.5863 47.2945 17.6386C47.2959 17.6407 47.2972 17.6428 47.2986 17.6449C47.2996 17.6466 47.3007 17.6483 47.3018 17.65V17.7558C46.7701 18.1666 46.1857 18.5589 45.5485 18.9291L39.0353 22.7729C39.0793 22.8216 39.1186 22.8718 39.1539 22.9231C39.2295 23.0336 39.2836 23.1497 39.3145 23.2705L46.0326 19.3057C46.4829 19.044 46.9054 18.7716 47.3018 18.4903V18.9839C47.0995 19.13 46.8897 19.2736 46.6729 19.4149V22.6457L46.7354 22.6095C46.7241 22.6707 46.7182 22.7317 46.7182 22.792C46.7182 22.8919 46.7345 22.9904 46.7591 23.0878C46.761 23.0951 46.7625 23.1024 46.7644 23.1097C46.7661 23.1158 46.7674 23.122 46.7687 23.1281C46.7703 23.1359 46.772 23.1437 46.7744 23.1515C46.7917 23.2075 46.8139 23.2628 46.8388 23.3174C46.9785 23.6219 47.2343 23.9052 47.5833 24.1459C47.6386 24.1841 47.698 24.2205 47.7579 24.2565C47.9918 24.3969 48.2578 24.5203 48.5525 24.6206C48.8303 24.715 49.1323 24.7894 49.4533 24.8393C49.5603 24.8561 49.6693 24.87 49.7803 24.8811C50.2764 24.9308 50.7356 24.9228 51.1452 24.8672C52.173 24.7278 52.8887 24.2888 53.0957 23.709C53.1363 23.5955 53.1578 23.4769 53.1578 23.3538V23.3517C53.1576 23.2976 53.1528 23.2437 53.1451 23.19C53.1431 23.1761 53.1401 23.1623 53.1371 23.1485C53.1356 23.1418 53.1342 23.135 53.1328 23.1283C53.1264 23.0955 53.1192 23.0626 53.1099 23.0302C53.1025 23.0038 53.0935 22.9777 53.0843 22.9517C53.0753 22.9265 53.0657 22.9015 53.0552 22.8766C53.0423 22.8459 53.0286 22.8152 53.0133 22.7849C53.0066 22.7717 52.9993 22.7585 52.992 22.7454L52.9863 22.7353C52.8878 22.5572 52.7505 22.386 52.5769 22.2272C52.5466 22.1995 52.5157 22.1715 52.4834 22.1446C52.4656 22.1821 52.4454 22.2186 52.4226 22.2548V23.2148C52.4226 23.2211 52.422 23.2275 52.4211 23.2339C52.4199 23.2431 52.4182 23.2523 52.4174 23.2614C52.3908 23.5666 52.1097 23.9092 51.7131 24.1009C50.8098 24.5377 49.3742 24.4324 48.3936 23.8831C48.3222 23.843 48.2526 23.8012 48.1865 23.7564C47.7881 23.4876 47.4955 23.0619 47.467 22.7669C47.4667 22.7638 47.4663 22.7607 47.4658 22.7576C47.4653 22.7537 47.4647 22.7498 47.4645 22.746C47.4643 22.7421 47.4637 22.738 47.463 22.7339C47.4622 22.7291 47.4614 22.7243 47.4614 22.7199V22.2631C47.4573 22.2566 47.4529 22.2503 47.4486 22.2439C47.4409 22.2325 47.4331 22.221 47.4265 22.2092C47.346 22.0663 47.3018 21.9143 47.3018 21.7562V21.4471C47.3018 21.527 47.316 21.6049 47.3375 21.6815C47.3601 21.7621 47.3929 21.841 47.4375 21.917C47.4449 21.9294 47.4536 21.9416 47.4614 21.9539C47.5019 22.0172 47.5485 22.0789 47.6031 22.138C47.6555 22.1945 47.7144 22.249 47.7788 22.3009C47.8079 22.3244 47.8386 22.3474 47.87 22.3699C47.8754 22.3738 47.8808 22.3778 47.8861 22.3818C47.8945 22.3881 47.9029 22.3945 47.9119 22.4006C47.9208 22.4066 47.93 22.4124 47.9394 22.4181C47.951 22.4251 47.9628 22.4321 47.9742 22.4393C47.975 22.4398 47.9758 22.4403 47.9766 22.4408C47.9778 22.4416 47.9791 22.4423 47.9804 22.4431C48.141 22.544 48.3247 22.6323 48.5283 22.7055C48.5365 22.7084 48.5448 22.7113 48.5531 22.7141C48.5585 22.7159 48.5638 22.7178 48.5691 22.7196C48.6335 22.7417 48.6992 22.7624 48.767 22.7815C49.1204 22.881 49.5177 22.9383 49.9394 22.9383C50.3612 22.9383 50.7585 22.881 51.112 22.7813C51.6649 22.6257 52.1077 22.3647 52.356 22.0434C52.3806 22.0117 52.4019 21.9787 52.4226 21.9457C52.5207 21.7896 52.5769 21.6222 52.5769 21.4471V17.3956C52.5601 17.4197 52.5425 17.4432 52.5237 17.4668C52.4952 17.5024 52.4666 17.5381 52.4338 17.5724C52.2997 17.7119 52.1296 17.8386 51.9313 17.9492C51.8711 17.9827 51.8091 18.015 51.7438 18.0455C51.5352 18.1427 51.3015 18.2234 51.0492 18.2842C50.9593 18.3058 50.8671 18.3247 50.7727 18.3411C50.7576 18.3437 50.7422 18.3458 50.7267 18.3479C50.7155 18.3495 50.7043 18.351 50.6932 18.3527C50.6027 18.3668 50.5105 18.3782 50.4166 18.3873C50.3706 18.3918 50.3248 18.3961 50.278 18.3993C50.2134 18.4035 50.1478 18.4059 50.082 18.4077C50.0552 18.4084 50.0284 18.4096 50.0015 18.41C49.9885 18.4102 49.9757 18.4108 49.9629 18.4113C49.9551 18.4116 49.9473 18.4118 49.9394 18.4118C49.8593 18.4118 49.7806 18.4087 49.7021 18.405C49.6358 18.4019 49.5705 18.3968 49.5054 18.3911C49.4961 18.3903 49.4865 18.3895 49.4772 18.3887C49.4327 18.3849 49.3883 18.381 49.3446 18.3759C49.2604 18.3657 49.1771 18.354 49.0958 18.3397C48.995 18.3218 48.8972 18.3003 48.8016 18.2765C48.7222 18.2569 48.6446 18.2355 48.5691 18.2119C48.5572 18.2082 48.5459 18.2037 48.534 18.2L48.5251 18.1968C48.4694 18.1788 48.4137 18.1606 48.3606 18.1404C48.3593 18.1398 48.3578 18.1393 48.3563 18.1389C48.3553 18.1386 48.3543 18.1383 48.3533 18.1379C48.2236 18.0883 48.1035 18.0318 47.9902 17.9713C47.858 17.9003 47.738 17.8225 47.6316 17.7383C47.5795 17.6971 47.531 17.6546 47.4861 17.6106C47.4786 17.6032 47.4702 17.5965 47.4629 17.5892C47.4589 17.585 47.4548 17.5808 47.4508 17.5767C47.4446 17.5704 47.4385 17.5641 47.4325 17.5578C47.4047 17.5281 47.3796 17.4975 47.3549 17.4668C47.3367 17.4439 47.3194 17.4209 47.303 17.3974L47.3018 17.3956C47.2982 17.3905 47.2949 17.3853 47.2916 17.38C47.2897 17.377 47.2878 17.374 47.2859 17.3711C47.1692 17.1956 47.1025 17.0063 47.1025 16.8078C47.1025 16.7644 47.108 16.7218 47.1139 16.6793C47.1353 16.5273 47.1947 16.3817 47.2859 16.2446C47.3239 16.3016 47.3665 16.3573 47.4152 16.4112C47.4559 16.456 47.5003 16.4995 47.548 16.5418C47.5704 16.5617 47.5931 16.5814 47.617 16.6008L47.5927 16.6986C47.5655 16.8085 47.5949 16.931 47.6671 17.0557C47.6723 17.0648 47.6778 17.0738 47.6836 17.0829C47.7242 17.1474 47.7769 17.2124 47.8407 17.2764L47.863 17.2984C47.9071 17.3408 47.9553 17.3827 48.0086 17.4238C48.1137 17.5048 48.2345 17.5824 48.3713 17.653C48.3921 17.6636 48.414 17.6738 48.4359 17.6839C48.4444 17.6879 48.4529 17.6918 48.4614 17.6958C48.545 17.7353 48.6321 17.7727 48.7249 17.8064C48.7419 17.8125 48.7592 17.8184 48.7766 17.8242C48.7849 17.827 48.7933 17.8298 48.8016 17.8327C48.9944 17.8976 49.2032 17.9493 49.4256 17.9809C49.5093 17.9927 49.5946 18.0021 49.6816 18.0082C49.6845 18.0084 49.6877 18.0085 49.6906 18.0086C49.6945 18.0087 49.6983 18.0087 49.7021 18.0089C49.7801 18.0139 49.8591 18.0173 49.9394 18.0173C49.9572 18.0173 49.9742 18.016 49.9917 18.0154C49.9949 18.0153 49.9982 18.0152 50.0015 18.0152C50.0477 18.0143 50.0934 18.0127 50.1389 18.0104C50.1421 18.01 50.1456 18.0102 50.1489 18.01C50.1924 18.0075 50.2352 18.0038 50.278 17.9997C50.3246 17.9954 50.3711 17.9911 50.4166 17.9852C50.511 17.9727 50.6036 17.9575 50.6932 17.9385C50.7094 17.9351 50.7251 17.931 50.7408 17.927C50.7514 17.9243 50.762 17.9215 50.7727 17.919C50.8682 17.8964 50.9604 17.8705 51.0492 17.8414C51.8585 17.577 52.3776 17.0679 52.2859 16.6986L52.2617 16.6008C52.2856 16.5814 52.3082 16.5617 52.3307 16.5418C52.4356 16.4488 52.5232 16.3493 52.5928 16.2446C52.5955 16.2406 52.5982 16.2365 52.6009 16.2325C52.6109 16.2175 52.6209 16.2026 52.6297 16.1875L52.8245 16.1718C53.4004 16.1248 53.9053 15.9711 54.2881 15.7502C54.3527 15.7129 54.4128 15.6733 54.4702 15.6325C54.4897 15.6185 54.507 15.6037 54.5255 15.5895C54.5616 15.5618 54.5969 15.5338 54.6297 15.5047C54.6492 15.4873 54.6672 15.4696 54.6854 15.4517L54.6879 15.4492C54.715 15.4227 54.7409 15.3959 54.7653 15.3683C54.7789 15.3527 54.7917 15.337 54.8044 15.3212C54.8088 15.3158 54.8137 15.3104 54.8179 15.3049C54.8265 15.2939 54.8369 15.2835 54.8451 15.2724C54.8476 15.2688 54.8497 15.2652 54.8519 15.2616C54.854 15.258 54.8561 15.2544 54.8586 15.2509C54.8624 15.2456 54.8658 15.2401 54.8691 15.2346C54.8713 15.231 54.8734 15.2274 54.8757 15.2239L54.879 15.2189C54.8931 15.1978 54.9073 15.1766 54.9195 15.1549C54.9213 15.1517 54.9234 15.1486 54.9255 15.1454C54.9277 15.1421 54.93 15.1388 54.9318 15.1354C54.939 15.1219 54.9448 15.1081 54.9505 15.0943C54.9537 15.0867 54.9569 15.0791 54.9603 15.0716C54.9633 15.065 54.9665 15.0584 54.9696 15.0518C54.9777 15.0347 54.9858 15.0176 54.9922 15.0002C54.9929 14.9981 54.9946 14.9954 54.9953 14.9933C55.0036 14.9702 55.0092 14.9467 55.0147 14.9232C55.0165 14.9158 55.0183 14.9084 55.0201 14.901C55.0201 14.9008 55.0199 14.9012 55.0201 14.901C55.0299 14.8603 55.0368 14.819 55.0409 14.7776L55.0411 14.7761C55.0427 14.7599 55.0449 14.7439 55.0456 14.7274C55.0465 14.7169 55.0484 14.7067 55.0484 14.696V11.8061ZM53.7356 24.4499C53.5995 24.2081 53.4041 23.9768 53.1578 23.7641V25.1367C53.1578 26.1392 51.7648 26.8629 49.7803 26.6642C48.1665 26.5027 46.9607 25.7372 46.7534 24.8466C46.7325 24.7571 46.7182 24.6668 46.7182 24.5751V23.1208C46.6955 23.1397 46.6737 23.1588 46.6518 23.178L46.6469 23.1823C46.6028 23.2214 46.5602 23.2608 46.5197 23.3012C46.3299 23.4901 46.1823 23.6919 46.0808 23.8976C45.9768 24.1081 45.921 24.3223 45.921 24.5311C45.921 24.5998 45.9277 24.6686 45.9372 24.7367C45.9397 24.7544 45.9424 24.7719 45.9454 24.7896C45.957 24.855 45.9718 24.9201 45.9918 24.9847C45.9961 24.9986 46.002 25.0124 46.0066 25.0265C46.0234 25.0759 46.0433 25.1248 46.0649 25.1735C46.0738 25.1938 46.0838 25.214 46.0937 25.2341C46.0966 25.2401 46.0994 25.2462 46.1022 25.2522C46.1044 25.2571 46.1067 25.2619 46.1092 25.2668C46.1288 25.3055 46.1506 25.3437 46.1732 25.3817L46.1814 25.3955C46.1963 25.4207 46.211 25.4456 46.2275 25.4703C46.2547 25.5117 46.2853 25.5522 46.3159 25.5927C46.3229 25.6019 46.3297 25.6111 46.3364 25.6203C46.3479 25.636 46.3594 25.6517 46.372 25.6671C46.423 25.7294 46.4779 25.7904 46.5368 25.8501C46.5485 25.862 46.561 25.8736 46.5736 25.8852C46.5833 25.8941 46.593 25.903 46.6024 25.912C46.6449 25.9527 46.6879 25.993 46.7337 26.0325C46.7623 26.0567 46.7924 26.0803 46.8222 26.104C46.8656 26.1388 46.9097 26.1729 46.9557 26.2064C46.9881 26.2301 47.0213 26.2531 47.0552 26.2763C47.1032 26.309 47.1528 26.3407 47.2033 26.3721C47.2377 26.3935 47.2718 26.4148 47.3073 26.4355C47.3651 26.4692 47.4252 26.5015 47.4861 26.5334C47.4978 26.5395 47.5093 26.5457 47.5208 26.5519C47.5399 26.5622 47.559 26.5725 47.5788 26.5823C47.672 26.6287 47.7678 26.6731 47.8671 26.7152C47.8768 26.7193 47.8869 26.7231 47.897 26.727C47.9058 26.7304 47.9147 26.7337 47.9233 26.7373C48.0068 26.7714 48.0917 26.8044 48.1791 26.8354C48.2163 26.8486 48.2548 26.8606 48.2928 26.8733C48.3641 26.8968 48.4362 26.9198 48.5101 26.9414C48.5529 26.9539 48.5964 26.9657 48.6401 26.9775C48.7129 26.9969 48.7868 27.0153 48.8619 27.0326C48.9061 27.0429 48.9504 27.0531 48.9955 27.0625C49.0767 27.0795 49.1595 27.0947 49.2429 27.1089C49.2827 27.1159 49.322 27.1234 49.3623 27.1296C49.4866 27.1487 49.6128 27.1657 49.7414 27.1785C49.8793 27.1922 50.0147 27.2019 50.148 27.2085C50.1535 27.2087 50.159 27.209 50.1646 27.2094C50.1692 27.2096 50.1738 27.2099 50.1783 27.2101C50.3051 27.216 50.4293 27.2179 50.5517 27.2174C50.5598 27.2173 50.568 27.2174 50.5761 27.2174C50.5832 27.2175 50.5902 27.2175 50.5972 27.2174C50.7156 27.216 50.8314 27.2115 50.9451 27.2046C50.9508 27.2042 50.9564 27.2039 50.9621 27.2036C50.9735 27.2029 50.985 27.2022 50.9964 27.2013C51.1079 27.1935 51.2168 27.183 51.3234 27.1699C51.3332 27.1688 51.343 27.1676 51.3528 27.1664C51.3601 27.1654 51.3673 27.1645 51.3745 27.1635C51.4801 27.1498 51.5834 27.1334 51.6838 27.1145C51.6992 27.1116 51.7145 27.1086 51.7298 27.1055C51.8306 27.0856 51.9289 27.0636 52.0242 27.0388L52.0599 27.0292C52.1569 27.0031 52.2513 26.975 52.3421 26.9441L52.3637 26.9364C52.4581 26.9038 52.5492 26.8688 52.6363 26.8313C52.7246 26.7931 52.8092 26.752 52.8894 26.709C52.8937 26.7066 52.898 26.7047 52.9023 26.7024C52.979 26.6608 53.0516 26.6167 53.1208 26.5711C53.123 26.5697 53.1252 26.5683 53.1275 26.5669C53.1323 26.5638 53.1372 26.5607 53.1419 26.5575C53.2086 26.5127 53.2709 26.4658 53.3301 26.4173C53.334 26.414 53.338 26.4108 53.3419 26.4077C53.3455 26.4047 53.3491 26.4018 53.3526 26.3989C53.4098 26.3506 53.4632 26.3006 53.5128 26.249L53.5333 26.2276C53.5816 26.1759 53.6262 26.1226 53.6667 26.0678L53.6826 26.0458C53.7224 25.99 53.7584 25.9331 53.7898 25.8746C53.7932 25.8682 53.7962 25.8616 53.7996 25.855C53.8309 25.7948 53.858 25.7335 53.8799 25.6709L53.884 25.6578C53.9061 25.5924 53.924 25.5256 53.9356 25.4577C53.9484 25.3836 53.9552 25.308 53.9552 25.2315C53.9552 25.1621 53.949 25.0928 53.939 25.0238C53.9362 25.0046 53.9318 24.9855 53.9273 24.9663C53.925 24.9563 53.9227 24.9463 53.9206 24.9362L53.9184 24.9258C53.9113 24.8914 53.9041 24.857 53.8942 24.8229C53.8826 24.7826 53.8678 24.7428 53.853 24.703L53.849 24.6924C53.8413 24.6717 53.8335 24.651 53.8248 24.6304C53.8041 24.5817 53.7804 24.5334 53.7549 24.4854C53.7504 24.4768 53.7458 24.4684 53.7412 24.4599C53.7393 24.4566 53.7375 24.4532 53.7356 24.4499ZM45.7427 19.9831V23.1847L46.5074 22.7417V19.5209C46.3197 19.6399 46.1281 19.7574 45.9301 19.8725L45.7427 19.9831ZM45.577 20.0809L44.8124 20.532V23.6653C44.9171 23.6346 45.0166 23.5964 45.1098 23.5513L45.577 23.2806V20.0809ZM42.5248 24.3489L42.9975 24.0699V21.6033L42.5248 21.8822V24.3489ZM41.7885 24.7833L42.2564 24.5071V22.0406L41.7885 22.3168V24.7833ZM48.9293 9.4259C48.9484 9.5963 48.9613 9.7668 48.9616 9.9381C48.9627 10.7814 48.7313 11.6161 48.2849 12.4209L48.8096 12.8667C49.1348 12.764 49.5082 12.7046 49.9059 12.7013C49.9171 12.7012 49.928 12.7003 49.9394 12.7003C50.0222 12.7003 50.1039 12.703 50.1845 12.7078C50.188 12.708 50.1914 12.7083 50.1947 12.7086C50.1973 12.7089 50.1998 12.7091 50.2024 12.7094C50.2033 12.7094 50.2042 12.7095 50.2051 12.7096C50.2056 12.7096 50.206 12.7097 50.2065 12.7097C50.2588 12.7131 50.3101 12.7178 50.3612 12.7229C50.4177 12.7288 50.473 12.7363 50.528 12.7445C50.648 12.2577 50.7096 11.7631 50.7089 11.2638C50.7085 11.019 50.6924 10.7755 50.663 10.5334L50.1947 10.2343L50.1801 10.2248L48.9293 9.4259ZM38.14 19.2649L41.1823 17.4696L39.0677 17.0347L36.2224 18.7118L36.2535 18.7207L38.14 19.2649ZM34.6862 21.3033L37.7576 19.4907L37.7706 19.483L35.9698 18.9635L35.8524 18.9298L32.9559 20.6371L34.6862 21.3033ZM31.0126 23.4177C31.338 23.2555 31.657 23.088 31.9626 22.9105L34.3433 21.5056L32.6129 20.8392L30.7757 21.922C30.5529 22.0515 29.9759 22.3762 29.6562 22.5373L31.0126 23.4177ZM39.9185 12.0083C39.9187 12.2068 39.9028 12.4036 39.8725 12.5981L43.8503 12.4218C43.9991 12.0441 44.0947 11.66 44.1286 11.2717C44.1386 11.1582 44.1437 11.0444 44.1436 10.9304C44.1432 10.6037 44.0997 10.2796 44.0185 9.9593L39.657 10.6291C39.8272 11.0745 39.9178 11.536 39.9185 12.0083ZM39.0886 16.7205L40.2669 16.026C40.3212 15.9944 40.6191 15.8178 40.6698 15.7853C41.0303 15.5684 41.3618 15.3408 41.6692 15.1058L38.8285 14.7642C38.7188 14.8928 38.6037 15.0198 38.4781 15.1435C38.4059 15.2146 38.3297 15.2844 38.2523 15.3536C38.1434 15.451 38.0305 15.547 37.9115 15.6407C37.7665 15.7548 37.6118 15.8653 37.452 15.9736C37.2953 16.0795 37.1335 16.1834 36.9631 16.2834L37.4125 16.3759L37.4696 16.3874L39.0886 16.7205ZM32.646 20.5178L35.5086 18.8306L33.6456 18.2931L33.5798 18.2742L30.905 19.8475L32.646 20.5178ZM29.4013 22.3719C29.406 22.3695 29.411 22.3672 29.4158 22.3649C29.4185 22.3636 29.4212 22.3623 29.4238 22.361C29.6837 22.2422 30.4018 21.8385 30.6444 21.6975L32.303 20.7201L32.1884 20.6758L30.5616 20.0495L28.4774 21.2756C28.3423 21.3541 28.203 21.4292 28.0617 21.5024L29.4013 22.3719ZM38.5616 8.966C38.9787 9.3942 39.3036 9.8525 39.5305 10.3327L43.9291 9.6573C43.6972 8.9626 43.2796 8.2902 42.6864 7.6592L38.5616 8.966ZM1.21711 18.3302L1.18881 18.3545L0.938809 18.5686C0.942209 19.143 1.02701 19.7109 1.18881 20.2682C1.37431 20.9065 1.66151 21.5309 2.04631 22.1351L2.05861 22.1541L3.76771 20.205C3.75471 20.1867 3.74181 20.1683 3.72901 20.1499C3.04791 19.1703 2.68701 18.1377 2.68551 17.0914C2.68551 17.0881 2.68573 17.0848 2.68596 17.0814C2.68618 17.0781 2.68641 17.0747 2.68641 17.0713L1.21711 18.3302ZM7.10251 11.0631L6.22821 11.1621C4.63601 12.0914 3.37761 13.1568 2.48861 14.3098L4.23421 13.3793C4.95481 12.5497 5.91801 11.7689 7.10251 11.0631ZM38.5191 1.5506C40.2826 1.9606 41.9205 2.5375 43.378 3.2651L43.3825 3.2624L44.7196 3.4909C42.9859 2.5709 41.0002 1.8598 38.8542 1.3762L38.5191 1.5506ZM40.3243 5.57154C40.4112 5.61843 40.4981 5.66534 40.5825 5.7141C41.4299 6.2033 42.1428 6.7446 42.7181 7.3219L46.692 6.0631C46.0068 5.3746 45.1422 4.7221 44.1068 4.1242C43.8426 3.9715 43.5682 3.8267 43.2894 3.6854L40.2637 5.5388C40.2839 5.54973 40.3041 5.56064 40.3243 5.57154ZM36.5137 4.3656L34.9403 6.8134C35.212 6.9067 35.4767 7.0079 35.7336 7.1169C35.9982 7.2289 36.2547 7.3492 36.5018 7.4776L39.6809 5.53C38.717 5.0535 37.6523 4.663 36.5137 4.3656ZM36.1951 4.2844C35.2353 4.0509 34.2265 3.8834 33.1857 3.7838L32.7508 6.2611C33.4041 6.3728 34.0347 6.5239 34.6341 6.7128L36.1951 4.2844ZM29.5388 3.7164L30.2141 6.0338C30.9744 6.0436 31.7212 6.1034 32.4427 6.2117L32.874 3.7548C32.237 3.7025 31.5888 3.6752 30.9329 3.6752C30.4635 3.6752 29.9986 3.6895 29.5388 3.7164ZM25.2171 4.402L26.6538 6.3731C27.6781 6.1553 28.7685 6.0392 29.8887 6.0322L29.2202 3.7387C27.8192 3.8399 26.4714 4.0629 25.2171 4.402ZM21.4215 5.9505L23.3059 7.5841C24.1959 7.0932 25.2164 6.71 26.3219 6.4475L24.8976 4.4935C23.6333 4.86 22.4676 5.3427 21.4459 5.9361L21.4215 5.9505ZM17.7252 8.1291L19.6298 9.6473L19.491 9.8214L23.0176 7.747L21.138 6.1177L17.7252 8.1291ZM14.3076 10.1433L16.0484 11.7473L15.8491 11.9638L19.4086 9.87L17.4374 8.2986L14.3076 10.1433ZM12.9673 13.9758C13.4209 13.4968 13.9863 13.0548 14.6606 12.663L15.8333 11.9731L14.0268 10.3088L11.1055 12.0306C10.9012 12.1492 10.7078 12.2719 10.5198 12.3965L12.9673 13.9758ZM11.8794 15.722C12.0578 15.1922 12.3539 14.6853 12.7564 14.211L10.2392 12.5868C9.37701 13.1971 8.70581 13.8695 8.24061 14.5799L11.8794 15.722ZM7.48611 17.1813C7.52551 17.9245 7.77391 18.6542 8.22151 19.3482L12.1233 18.7591C11.9218 18.3663 11.7877 17.9579 11.7224 17.5392L7.48611 17.1813ZM13.3362 20.2912C13.1978 20.1665 13.0672 20.0389 12.9453 19.9085C12.8338 19.7892 12.7289 19.6679 12.6317 19.5442C12.5047 19.3828 12.3889 19.2181 12.2865 19.0501L8.41841 19.634C8.96581 20.3802 9.74341 21.0808 10.7317 21.7075L13.3362 20.2912ZM15.8928 21.8609C15.8069 21.8249 15.7221 21.7874 15.6377 21.7494C15.3141 21.6039 15.0021 21.4472 14.707 21.2767C14.3211 21.054 13.9711 20.8148 13.6552 20.5625C13.6418 20.5518 13.6289 20.5409 13.6159 20.53C13.6073 20.5228 13.5987 20.5155 13.5899 20.5083L13.5244 20.544L11.0409 21.8945C11.0585 21.905 11.0758 21.9156 11.0931 21.9262C11.1176 21.9413 11.142 21.9563 11.1676 21.971C12.2357 22.5877 13.4572 23.0858 14.7825 23.4573L14.7832 23.4562L15.8928 21.8609ZM19.6298 22.8173C19.377 22.7872 19.1271 22.751 18.8802 22.7094C17.9268 22.5489 17.0202 22.3048 16.1888 21.9819L16.0126 22.2354L15.9526 22.3214L15.1025 23.5436C15.2044 23.5704 15.3066 23.5968 15.4097 23.6219C15.6909 23.6904 15.9762 23.7534 16.2653 23.8107C17.2767 24.0114 18.3335 24.143 19.4196 24.2007C19.4471 24.2021 19.4749 24.2031 19.5026 24.2042C19.5277 24.2051 19.5529 24.2061 19.5779 24.2073L19.6298 22.8173ZM3.11411 16.8119L3.11287 16.8307C3.10715 16.9174 3.10142 17.0041 3.10161 17.0909C3.10231 17.696 3.23821 18.2979 3.49371 18.8883C3.60041 19.1352 3.72901 19.3796 3.87851 19.6215C3.95061 19.738 4.02731 19.8538 4.10921 19.969L4.51401 19.9078L4.51701 19.9073L7.94231 19.3903C7.51481 18.6974 7.27291 17.9697 7.22801 17.2265C7.22707 17.2124 7.22652 17.1984 7.22597 17.1844C7.22565 17.176 7.22532 17.1676 7.22491 17.1592L3.11411 16.8119ZM4.48191 13.7273C3.73191 14.6131 3.27941 15.55 3.14671 16.5014L7.22261 16.8459C7.24461 16.1366 7.44701 15.4407 7.81921 14.7747L4.48191 13.7273ZM11.6755 16.9564C11.6751 16.6394 11.7147 16.3272 11.7914 16.0214L8.07301 14.8545C7.70181 15.5029 7.50061 16.1796 7.48161 16.8679L11.6867 17.2233C11.6805 17.1346 11.6757 17.0457 11.6755 16.9564ZM7.89641 11.0751L7.46151 11.3318C6.33351 11.9874 5.41271 12.7092 4.71001 13.472L7.98221 14.4989C8.45161 13.7619 9.13291 13.0667 10.0053 12.4359L7.89641 11.0751ZM31.8721 0.8135C32.3734 0.8135 32.8705 0.8278 33.3639 0.8511V0.6631C32.9035 0.644 32.4409 0.631 31.9744 0.631C30.7516 0.631 29.5483 0.6988 28.3757 0.8287L28.7087 0.9764C29.7406 0.8704 30.7973 0.8135 31.8721 0.8135ZM33.6743 0.8654C35.185 0.9519 36.6504 1.1487 38.045 1.4459L38.3809 1.2709C36.8763 0.9589 35.2972 0.7591 33.675 0.6763L33.6743 0.8654ZM33.3111 1.2652C32.8351 1.2433 32.3558 1.2295 31.8721 1.2295C30.8483 1.2295 29.8418 1.2821 28.8579 1.3795L29.4645 3.4611C29.9486 3.4315 30.4383 3.4153 30.9329 3.4153C31.604 3.4153 32.2673 3.4435 32.9192 3.4975L33.3111 1.2652ZM37.7832 1.814C36.4547 1.5405 35.0607 1.3599 33.6255 1.2789L33.2308 3.5273C34.3082 3.6313 35.3515 3.8081 36.3432 4.0541L37.7832 1.814ZM28.5419 1.4106C26.8532 1.5961 25.2389 1.9222 23.7432 2.38L25.0535 4.1778C26.3348 3.8242 27.7129 3.5903 29.146 3.4834L28.5419 1.4106ZM17.5074 7.9556L20.9307 5.938L19.177 4.4177L15.6675 6.4889L17.5074 7.9556ZM14.1078 9.9592L17.2198 8.125L15.3799 6.6586L12.4208 8.4049L14.1078 9.9592ZM8.19691 10.8977L10.2818 12.243C10.5025 12.0937 10.7314 11.9473 10.9742 11.8061L13.827 10.1247L12.1402 8.5705L8.19691 10.8977ZM21.2142 5.7709L21.3146 5.7116C21.9258 5.3566 22.5878 5.041 23.2897 4.7647C23.7541 4.5818 24.2372 4.4173 24.7349 4.2703L23.4306 2.4812C22.0687 2.9197 20.8074 3.4661 19.6856 4.1176L19.4603 4.2505L21.2142 5.7709ZM42.9597 3.5214C41.5023 2.8198 39.8653 2.2707 38.1081 1.8855L36.6618 4.1353C37.1489 4.2648 37.6221 4.4116 38.0806 4.5743C38.735 4.8066 39.3574 5.0724 39.9422 5.3698L42.9597 3.5214ZM28.0956 1.0459L27.7739 0.9032C26.0238 1.1318 24.3504 1.503 22.7946 2.0075L23.4818 2.0273C24.9235 1.5761 26.4743 1.2468 28.0956 1.0459ZM22.6274 2.3147L21.9593 2.2953C20.7853 2.7243 19.6846 3.2296 18.6827 3.8119L17.9701 4.2323L19.1071 3.976L19.4753 3.7585C20.4349 3.2015 21.4939 2.72 22.6274 2.3147ZM18.2301 4.4935L17.0931 4.7499L14.4635 6.3018L15.2906 6.2283L18.2301 4.4935ZM14.6658 6.597L13.8386 6.6705L11.0996 8.287L12.0451 8.1436L14.6658 6.597ZM11.3256 8.5684L10.3799 8.7118L6.88601 10.7737L7.75511 10.6754L11.3256 8.5684ZM5.62811 21.5844C6.18091 22.0468 6.81941 22.4891 7.53981 22.9049C7.70041 22.9977 7.86591 23.0869 8.03201 23.1754L10.4736 21.8479C9.46801 21.1928 8.68071 20.4598 8.13251 19.6771L4.58511 20.2127L4.58371 20.2129L4.32001 20.2527C4.45581 20.425 4.60331 20.5954 4.76071 20.764L4.76521 20.7686C5.02491 21.0462 5.31071 21.319 5.62811 21.5844ZM11.2325 24.5203C11.4675 24.5969 11.7054 24.67 11.9465 24.7398C12.4842 24.8955 13.0358 25.0349 13.6001 25.1571L14.6259 23.6824C13.3128 23.3076 12.1008 22.81 11.0375 22.1962C10.9727 22.1587 10.9103 22.1203 10.8479 22.082C10.8241 22.0674 10.8004 22.0528 10.7765 22.0383L8.36691 23.3486C9.25581 23.7985 10.2156 24.19 11.2325 24.5203ZM19.5187 25.7957L19.5682 24.467C18.2076 24.404 16.8892 24.2272 15.6463 23.9439L15.6323 23.9407C15.5416 23.9201 15.451 23.8995 15.361 23.8776C15.221 23.8435 15.082 23.808 14.9441 23.7712L13.9301 25.229C15.697 25.5881 17.5796 25.78 19.5187 25.7957ZM24.1519 22.736C24.1366 22.7384 24.1213 22.7409 24.106 22.7434C24.0809 22.7476 24.0558 22.7517 24.0306 22.7554C23.2458 22.8726 22.431 22.9337 21.6 22.9337C21.3489 22.9337 21.0998 22.9265 20.8517 22.9156C20.545 22.9021 20.2412 22.8803 19.9407 22.8503L19.9234 23.3112L19.9225 23.3343L19.8892 24.2203C20.1539 24.229 20.4196 24.2349 20.6868 24.2349C20.9582 24.2349 21.2281 24.2285 21.4973 24.2192C22.2712 24.1924 23.0344 24.1282 23.7794 24.0269C24.1356 23.9785 24.488 23.9227 24.835 23.8578L24.1519 22.736ZM36.8495 7.66721C36.862 7.67399 36.8745 7.68078 36.8868 7.6878C37.4305 8.0018 37.9037 8.3482 38.3074 8.7193L42.4389 7.4104C41.8968 6.8848 41.2335 6.3901 40.4526 5.9393C40.3076 5.8554 40.159 5.7744 40.0086 5.6952L36.8177 7.6498C36.8281 7.65568 36.8388 7.66144 36.8495 7.66721ZM3.75771 13.9869L2.08631 14.8777C1.78661 15.3379 1.54341 15.8101 1.35991 16.2918C1.12881 16.8973 0.992009 17.5176 0.951909 18.1467L1.18881 17.9436L1.19291 17.9401L2.70821 16.6417C2.79581 15.7329 3.15421 14.8393 3.75771 13.9869ZM5.80215 25.6677C5.8117 25.6736 5.82124 25.6795 5.83071 25.6855L5.87711 25.7142C5.89152 25.7231 5.90591 25.732 5.92028 25.741C5.96287 25.7674 6.00542 25.7938 6.04871 25.8198C6.06591 25.8302 6.08351 25.8403 6.10081 25.8507C6.11428 25.8588 6.12787 25.8668 6.14144 25.8748L6.15271 25.8814C6.17259 25.8932 6.19239 25.905 6.21219 25.9167C6.25484 25.9422 6.2975 25.9676 6.34101 25.9927C6.37313 26.0113 6.40619 26.0291 6.43924 26.0469C6.46617 26.0614 6.4931 26.0759 6.51951 26.0908L7.46741 24.1775L7.46881 24.1748L7.79371 23.519C7.63811 23.4357 7.48251 23.3524 7.33181 23.2653C6.74721 22.9278 6.21571 22.5722 5.73601 22.2022C5.58601 22.0866 5.44111 21.9698 5.30161 21.8515L5.30001 21.8499C4.91911 21.5266 4.57941 21.193 4.27901 20.8514C4.16591 20.7227 4.05871 20.5931 3.95721 20.4623L2.27181 22.3842L2.23831 22.4225L2.27181 22.4704C2.58101 22.9085 2.94171 23.3351 3.35331 23.7475C3.35891 23.7531 3.3646 23.7586 3.37027 23.7641C3.37705 23.7707 3.38382 23.7773 3.39041 23.7839C3.40311 23.7966 3.41591 23.8091 3.42881 23.8216C3.48331 23.8753 3.53871 23.9291 3.59501 23.9825L3.64711 24.0306C3.66006 24.0428 3.67301 24.0548 3.68596 24.0669C3.69031 24.0709 3.69466 24.0749 3.69901 24.079C4.30181 24.6351 4.99851 25.1631 5.78451 25.6568C5.79038 25.6605 5.79626 25.6641 5.80215 25.6677ZM8.42489 27.0329C8.43284 27.0366 8.44079 27.0402 8.44891 27.0438C9.31421 27.4149 10.2303 27.7376 11.1836 28.015L11.2329 28.0293C11.2502 28.0343 11.2673 28.0395 11.2848 28.0443C11.3066 28.0506 11.3282 28.057 11.3499 28.0634C11.3855 28.0739 11.4212 28.0844 11.4573 28.0944C11.4748 28.0994 11.4919 28.1048 11.5094 28.1096C11.5182 28.112 11.5268 28.1146 11.5354 28.1171C11.544 28.1197 11.5526 28.1223 11.5613 28.1247C11.9215 28.2236 12.2881 28.3144 12.6586 28.3997L13.031 27.0836L13.4639 25.5527C12.6536 25.3756 11.8687 25.1638 11.1137 24.9189C10.8877 24.8456 10.6643 24.7694 10.444 24.69C9.60871 24.3896 8.81391 24.0481 8.06951 23.6651L7.72271 24.3651L7.72211 24.3664L6.79321 26.2414C7.20481 26.464 7.63081 26.6744 8.07001 26.8729L8.12031 26.8957C8.12906 26.8996 8.13771 26.9035 8.14636 26.9074C8.15501 26.9113 8.16366 26.9152 8.17241 26.9191C8.19614 26.9297 8.21973 26.9405 8.24333 26.9512C8.27703 26.9666 8.31074 26.982 8.34491 26.9969C8.35282 27.0004 8.36063 27.004 8.36842 27.0075C8.37786 27.0119 8.38728 27.0162 8.39681 27.0203C8.40634 27.0244 8.41561 27.0287 8.42489 27.0329ZM19.5315 26.2119C17.5291 26.1968 15.5849 25.9952 13.7615 25.6184L12.9632 28.4674C13.6737 28.6228 14.4 28.7552 15.1416 28.8601C15.1589 28.8624 15.1764 28.8644 15.1937 28.8667C15.2041 28.8682 15.2145 28.8695 15.2249 28.8708C15.2318 28.8717 15.2388 28.8726 15.2456 28.8735C15.2756 28.8776 15.3056 28.8814 15.3357 28.8852C15.3633 28.8886 15.3908 28.8921 15.4183 28.8958L15.4702 28.9024C15.4809 28.9038 15.4917 28.9052 15.5025 28.9066C15.5091 28.9074 15.5157 28.9083 15.5223 28.9092C16.8689 29.0822 18.2572 29.1743 19.6715 29.1743C19.6878 29.1743 19.7038 29.1737 19.7201 29.1736L19.5315 26.2119ZM25.3259 24.6641L25.2471 24.5344L24.9788 24.094C24.4396 24.1974 23.888 24.2808 23.3271 24.3446C22.8633 24.3974 22.3939 24.4379 21.9192 24.4627C21.5114 24.484 21.1002 24.4948 20.6868 24.4948C20.6749 24.4948 20.6627 24.4943 20.6508 24.4943C20.3923 24.4939 20.1354 24.4884 19.8796 24.48L19.83 25.7984C20.37 25.7975 20.9055 25.7827 21.4356 25.7543C21.6682 25.7419 21.8992 25.7254 22.1295 25.7078C22.2632 25.6976 22.3964 25.6867 22.5293 25.6748C22.95 25.637 23.3662 25.59 23.7778 25.5349C24.4186 25.4491 25.0487 25.3446 25.6633 25.2181L25.3259 24.6641ZM29.0721 22.5301L29.0372 22.5075L27.7377 21.664C26.9651 22.031 26.1096 22.3221 25.1989 22.5332C24.964 22.5877 24.7256 22.6373 24.4837 22.681L25.1606 23.7927C26.4445 23.5311 27.6526 23.157 28.7405 22.6798C28.8522 22.6307 28.963 22.5811 29.0721 22.5301ZM38.155 15.1031C38.2255 15.038 38.294 14.9724 38.3598 14.9058C38.7926 14.4677 39.1228 13.9967 39.343 13.5033C39.5573 13.023 39.6696 12.5219 39.6688 12.0086C39.6666 10.4426 38.6344 8.9849 36.7619 7.904C36.0317 7.4823 35.2045 7.1385 34.3118 6.8764C32.9875 6.4877 31.5175 6.2804 29.9936 6.2804C27.7495 6.2804 25.6247 6.7269 23.9194 7.5468C23.6859 7.6591 23.4599 7.778 23.2429 7.9042L14.7866 12.8785C12.9389 13.9521 11.9229 15.4 11.9252 16.956C11.9259 17.4951 12.0517 18.0209 12.2888 18.5234C12.4604 18.887 12.6918 19.2379 12.9801 19.5724C13.1576 19.7783 13.3546 19.9786 13.5745 20.1711C13.7283 20.3055 13.8939 20.4355 14.0678 20.5625C14.3049 20.7358 14.5582 20.9026 14.8317 21.0605C15.0214 21.17 15.2189 21.2731 15.421 21.3721C16.2623 21.7848 17.2064 22.1059 18.2176 22.3271C18.9083 22.4782 19.63 22.5824 20.3712 22.6373C20.7758 22.6673 21.1856 22.6841 21.6 22.6841C22.3078 22.6841 23.003 22.6381 23.6775 22.5517C24.0868 22.4991 24.4885 22.432 24.8801 22.3492C26.1699 22.0759 27.3524 21.6406 28.3514 21.0601L36.8078 16.0858C37.0188 15.9632 37.2177 15.8349 37.4066 15.7029C37.5474 15.6048 37.6816 15.5042 37.8098 15.4011C37.9308 15.3038 38.0451 15.2043 38.155 15.1031ZM44.1892 9.6173L48.4273 8.9665C48.2148 8.0539 47.7082 7.1595 46.9311 6.3146L42.9581 7.5732C43.5448 8.2183 43.9595 8.9057 44.1892 9.6173ZM47.1673 5.9573L48.7306 6.546L48.7618 6.5578C48.7325 6.52442 48.7024 6.49131 48.6722 6.45815C48.6613 6.44611 48.6503 6.43407 48.6394 6.422C47.8268 5.5282 46.7848 4.6948 45.5303 3.946L44.247 3.7266C44.2581 3.73298 44.2695 3.73912 44.2809 3.74524C44.2923 3.75139 44.3037 3.75753 44.3148 3.7639C45.4739 4.433 46.4287 5.1723 47.1673 5.9573ZM25.793 25.6152C25.5818 25.6591 25.3679 25.699 25.1534 25.7383C24.8913 25.7861 24.6271 25.8303 24.3606 25.871C23.7093 25.9707 23.0467 26.0512 22.3723 26.1076C22.2851 26.1149 22.1972 26.1206 22.1093 26.1264C22.0643 26.1293 22.0194 26.1323 21.9745 26.1354C21.2734 26.1848 20.5626 26.2128 19.8435 26.2143L20.0324 29.1693C20.5735 29.1634 21.111 29.1464 21.643 29.1149C21.6516 29.1144 21.6602 29.1137 21.6688 29.113C21.6775 29.1123 21.6862 29.1117 21.695 29.1111C21.7124 29.1102 21.7296 29.1086 21.747 29.1075C21.7795 29.1055 21.8118 29.1031 21.8442 29.1008C21.8693 29.0989 21.8944 29.0971 21.9196 29.0954L22.0236 29.0879C23.3113 28.9962 24.5674 28.83 25.7767 28.5918L25.8287 28.5818C25.8376 28.5801 25.8465 28.5784 25.8554 28.5768C25.8638 28.5752 25.8723 28.5737 25.8808 28.572C25.9068 28.5667 25.933 28.5617 25.9592 28.5568C25.9907 28.5508 26.0222 28.5448 26.0533 28.5383C26.0683 28.5352 26.0831 28.5316 26.0982 28.5283C26.1006 28.5277 26.103 28.5272 26.1054 28.5267C26.1135 28.525 26.1215 28.5232 26.1295 28.5214C26.1387 28.5193 26.1479 28.5172 26.1573 28.5153C26.1851 28.5094 26.2126 28.5031 26.2401 28.4968C26.2648 28.4911 26.2895 28.4855 26.3144 28.4801L25.793 25.6152ZM29.3274 22.6957C28.7107 22.9936 28.0512 23.2569 27.3567 23.484C26.7005 23.6985 26.0144 23.881 25.3043 24.0289L25.5762 24.4754L25.5957 24.5073L25.9853 25.1471C26.0194 25.1396 26.0535 25.1322 26.0876 25.1248C26.1534 25.1105 26.2191 25.0963 26.2843 25.0812C27.4343 24.8147 28.5284 24.4757 29.5513 24.0695C29.596 24.0519 29.6402 24.0338 29.6843 24.0157C29.7013 24.0088 29.7182 24.0019 29.7351 23.995C29.7665 23.9822 29.798 23.9695 29.8296 23.9569C29.8819 23.9359 29.9342 23.9149 29.9856 23.8931C30.2239 23.7919 30.4585 23.6876 30.6881 23.5788L29.3274 22.6957ZM35.8785 18.6126L38.6881 16.9565L36.5628 16.5195L33.9501 18.0564L34.0192 18.0762L35.8785 18.6126ZM42.0099 14.8325C42.1241 14.7365 42.2338 14.6395 42.339 14.541C42.5612 14.3337 42.7642 14.1214 42.9465 13.9045C43.263 13.5282 43.5181 13.1388 43.7108 12.7402L39.8106 12.9131C39.6782 13.4594 39.4227 13.984 39.0568 14.4773L42.0099 14.8325ZM47.9199 12.2223C48.3326 11.4784 48.5466 10.7109 48.5456 9.9385C48.5452 9.7162 48.5235 9.4943 48.4881 9.273L44.2765 9.9197C44.3587 10.2526 44.4031 10.5898 44.4035 10.93C44.4038 11.1318 44.3864 11.3327 44.3573 11.5325C44.3143 11.8279 44.2397 12.1205 44.1339 12.4091L46.965 12.2835L46.9885 12.2826L47.9099 12.2416C47.912 12.238 47.9139 12.2343 47.9157 12.2305C47.9171 12.2278 47.9184 12.225 47.9199 12.2223ZM48.8649 9.0145L50.5217 10.073L50.5984 10.1219L50.5961 10.1101C50.5934 10.0959 50.5907 10.0817 50.5877 10.0676C50.3779 9.0172 49.8954 7.9991 49.1584 7.0405L47.5977 6.4529C48.2576 7.2723 48.6872 8.1341 48.8649 9.0145ZM31.6077 25.2821L30.9614 23.9081C30.7912 23.9898 30.6173 24.0681 30.4424 24.1457C30.3026 24.2078 30.1616 24.2686 30.0189 24.3282C28.8058 24.8331 27.4896 25.2414 26.0977 25.5478L26.6191 28.4123C27.6701 28.1718 28.6804 27.8757 29.6411 27.5269L29.693 27.508L29.7451 27.4887C29.7643 27.4817 29.7836 27.4747 29.803 27.4677C29.8413 27.4537 29.8796 27.4398 29.9176 27.4256C29.9252 27.4227 29.9329 27.4198 29.9407 27.417C29.9503 27.4135 29.96 27.4101 29.9695 27.4065C29.9791 27.4028 29.9888 27.3993 29.9985 27.3958C30.0063 27.393 30.014 27.3903 30.0216 27.3874C30.4785 27.2124 30.9216 27.0238 31.3532 26.8249C31.6242 26.6999 31.8907 26.5707 32.151 26.4364L31.8177 25.7283L31.7011 25.48L31.6077 25.2821ZM39.4682 16.7987L41.5824 17.2334L44.1862 15.6969C44.3221 15.6178 44.4524 15.537 44.5824 15.4562L42.0365 15.1501C41.6667 15.4489 41.2569 15.7354 40.8069 16.0064C40.7579 16.0378 40.4532 16.2185 40.3984 16.2504L39.4682 16.7987ZM45.7661 14.6304C46.1896 14.2977 46.5675 13.9537 46.8975 13.6003C46.8982 13.5996 46.8989 13.5987 46.8998 13.598C47.1746 13.3036 47.4167 13.0034 47.6243 12.698C47.6312 12.6879 47.638 12.6777 47.6449 12.6676C47.6686 12.6326 47.6922 12.5977 47.7148 12.5626L44.0049 12.7272C43.8544 13.0621 43.6619 13.3907 43.4289 13.7109C43.2847 13.9089 43.1267 14.1041 42.9518 14.2952C42.7713 14.4927 42.5747 14.686 42.3621 14.875L44.9917 15.1911C45.2646 15.0082 45.5229 14.8213 45.7661 14.6304ZM51.4564 13.0082C51.4571 13.0054 51.4577 13.0027 51.4581 13.0012L51.5015 12.8253C51.6801 12.0263 51.7266 11.1717 51.6198 10.3682C51.6107 10.3008 51.6009 10.2332 51.5898 10.1657L51.5955 10.1654C51.5889 10.1348 51.5817 10.1044 51.5745 10.0739L51.5711 10.0594C51.5694 10.0518 51.5677 10.0441 51.5659 10.0365C51.5643 10.0292 51.5627 10.022 51.5609 10.0148C51.5599 10.0106 51.5587 10.0064 51.5575 10.0023C51.5563 9.99808 51.5551 9.9939 51.5541 9.9897C50.9749 7.6084 49.1314 5.3167 46.0178 3.5191C44.5508 2.6721 42.9067 1.99 41.1563 1.4693C40.9127 1.3969 40.6681 1.326 40.4207 1.26C37.8293 0.5677 35.0296 0.2212 32.2321 0.2212C27.2466 0.2212 22.2682 1.3201 18.485 3.5186L5.86941 10.9639C4.77711 11.5988 3.84421 12.2942 3.06891 13.0323C2.73921 13.3459 2.43881 13.6674 2.16661 13.9953C1.90951 14.3046 1.67901 14.6199 1.47301 14.9397C0.385809 16.6269 0.00700894 18.4412 0.338509 20.2188C0.503409 20.9035 0.774309 21.5807 1.15081 22.2415C1.15947 22.2567 1.16829 22.2718 1.17711 22.287C1.18101 22.2937 1.18491 22.3004 1.18881 22.3071C1.23141 22.3804 1.27531 22.4534 1.32041 22.5262C1.3276 22.5377 1.33495 22.5495 1.3421 22.561C1.36191 22.593 1.38168 22.6249 1.40211 22.6566C1.55161 22.8883 1.71521 23.1176 1.89131 23.3442C1.89798 23.3528 1.90461 23.3615 1.91125 23.3702C1.92182 23.384 1.9324 23.3978 1.94321 23.4116C1.94794 23.4176 1.95266 23.4235 1.95738 23.4295C1.96994 23.4454 1.98252 23.4613 1.99531 23.4771C2.05151 23.5472 2.10901 23.6169 2.16781 23.6863C2.1772 23.6975 2.18683 23.7086 2.19646 23.7196C2.20426 23.7286 2.21205 23.7376 2.21971 23.7466C2.22089 23.7479 2.2221 23.7493 2.2233 23.7506C2.22575 23.7533 2.22819 23.756 2.23041 23.7588L2.27181 23.8059C2.35961 23.9065 2.45021 24.0066 2.54351 24.1059C2.78401 24.3618 3.04201 24.6133 3.31851 24.8597C3.3265 24.8668 3.33436 24.8739 3.34224 24.8811C3.35161 24.8896 3.36099 24.8982 3.37061 24.9066C3.38075 24.9156 3.39104 24.9244 3.40134 24.9333C3.4084 24.9395 3.41547 24.9456 3.42251 24.9517C3.47921 25.0011 3.53691 25.0502 3.59501 25.0993C3.60247 25.1056 3.60984 25.1119 3.6172 25.1183C3.62711 25.1268 3.63701 25.1353 3.64711 25.1437C3.65598 25.1512 3.66507 25.1585 3.67416 25.1659C3.68249 25.1727 3.69083 25.1795 3.69901 25.1863C4.31091 25.6917 5.00241 26.173 5.77221 26.6248C5.78971 26.6351 5.80681 26.6454 5.82431 26.6556C5.83307 26.6607 5.84169 26.6659 5.8503 26.6711C5.85889 26.6762 5.86747 26.6814 5.87621 26.6865C5.87818 26.6875 5.88023 26.6888 5.88222 26.69L5.88321 26.6906C5.91325 26.7079 5.94405 26.7245 5.97484 26.7411C5.99961 26.7544 6.02437 26.7677 6.04871 26.7814C6.05868 26.7871 6.06878 26.7925 6.07888 26.798C6.08621 26.8019 6.09354 26.8059 6.10081 26.8099C6.1108 26.8155 6.12092 26.8211 6.13101 26.8266C6.13828 26.8306 6.14554 26.8345 6.15271 26.8385C6.76471 27.1789 7.40331 27.4939 8.06841 27.7797C8.07717 27.7835 8.08578 27.7874 8.09438 27.7913C8.10298 27.7952 8.11157 27.7992 8.12031 27.8029C8.12894 27.8066 8.13762 27.8103 8.14631 27.8139C8.15502 27.8176 8.16374 27.8212 8.17241 27.825C8.20277 27.8378 8.23371 27.8501 8.26466 27.8623C8.29152 27.8729 8.31839 27.8836 8.34491 27.8946C8.35236 27.8977 8.35989 27.9007 8.36742 27.9037C8.37727 27.9077 8.38712 27.9116 8.39681 27.9157L8.44891 27.9365C9.32381 28.2942 10.2374 28.6061 11.1808 28.8715C11.1905 28.8743 11.2002 28.8772 11.21 28.88C11.2176 28.8822 11.2252 28.8844 11.2329 28.8865C11.2412 28.8888 11.2494 28.8912 11.2577 28.8937C11.2667 28.8963 11.2757 28.899 11.2848 28.9015C11.3108 28.9087 11.3365 28.9163 11.3623 28.9239C11.3938 28.9332 11.4254 28.9425 11.4573 28.9511C11.4746 28.9557 11.4921 28.9598 11.5094 28.9645C11.5265 28.9689 11.5442 28.973 11.5613 28.9775C12.72 29.2859 13.9196 29.5259 15.1416 29.6972C15.1519 29.6987 15.1623 29.7 15.1726 29.7012C15.1797 29.7021 15.1867 29.703 15.1937 29.7039C15.2014 29.705 15.2092 29.7059 15.2169 29.7069C15.2266 29.7081 15.2361 29.7093 15.2456 29.7107C15.2771 29.715 15.3086 29.719 15.3401 29.723C15.3662 29.7262 15.3922 29.7295 15.4183 29.733L15.4702 29.7396L15.4815 29.7411C15.4951 29.7429 15.5088 29.7448 15.5223 29.7464C15.5531 29.7504 15.584 29.7543 15.6148 29.7583C15.752 29.7761 15.8891 29.7938 16.027 29.8094C16.0342 29.8102 16.0414 29.8109 16.0487 29.8115C16.058 29.8124 16.0675 29.8133 16.0768 29.8144C16.0985 29.8167 16.1203 29.8188 16.1422 29.821C16.1635 29.823 16.1849 29.8251 16.2063 29.8274C17.7892 29.9962 19.3991 30.0513 20.9985 29.9933C21.0604 29.991 21.1221 29.9887 21.184 29.9862L21.2354 29.9842C21.2445 29.9837 21.2535 29.9834 21.2625 29.9831C21.2702 29.9828 21.2777 29.9826 21.2853 29.9822C21.3109 29.9811 21.3365 29.9799 21.3621 29.9788C21.4558 29.9748 21.5495 29.9707 21.643 29.9655C21.6603 29.9646 21.6776 29.963 21.695 29.9619C21.7059 29.9613 21.7168 29.9606 21.7277 29.9598C21.7341 29.9594 21.7406 29.9589 21.747 29.9585C21.7813 29.9565 21.8155 29.9541 21.8496 29.9518C21.8729 29.9502 21.8962 29.9486 21.9196 29.9471L21.9715 29.9437C21.9836 29.9429 21.9959 29.9421 22.0081 29.9412C22.0133 29.9409 22.0184 29.9405 22.0236 29.9401C23.2943 29.855 24.5515 29.6975 25.7767 29.467C25.7881 29.4649 25.7996 29.4629 25.811 29.4608C25.8169 29.4597 25.8228 29.4586 25.8287 29.4574C25.846 29.4542 25.8634 29.4513 25.8808 29.4479C25.9079 29.4427 25.9352 29.4378 25.9625 29.4329C25.9928 29.4275 26.0232 29.4221 26.0533 29.4162C26.0706 29.4128 26.0881 29.4099 26.1054 29.4065C26.1227 29.4032 26.1398 29.3991 26.1573 29.3955C27.3592 29.1532 28.5264 28.8396 29.6411 28.4555C29.649 28.4527 29.6568 28.4499 29.6645 28.447C29.674 28.4436 29.6834 28.4401 29.693 28.4368C29.7105 28.4307 29.7276 28.4241 29.7451 28.4179C29.7825 28.4048 29.8196 28.3913 29.8568 28.3778C29.877 28.3705 29.8973 28.3631 29.9176 28.3558L29.9695 28.337L30.0216 28.3183C30.1839 28.2593 30.3461 28.2 30.5061 28.1379C30.788 28.0284 31.0654 27.9137 31.3393 27.7947C32.063 27.4796 32.7591 27.1334 33.4169 26.7511L33.8731 26.4819V26.9882L33.7742 27.0465V29.9442C33.7136 30.0044 33.6585 30.0661 33.6087 30.1291V27.1443L33.3145 27.3178C33.19 27.3901 33.0625 27.4592 32.9349 27.5283C32.9046 27.5447 32.8744 27.5611 32.8441 27.5776V30.9156L33.3386 30.6289C33.3143 30.7106 33.2995 30.792 33.2947 30.8728C33.2945 30.8771 33.2938 30.8814 33.2936 30.8857C33.2929 30.9008 33.2893 30.916 33.2893 30.931C33.2893 31.0309 33.3056 31.1294 33.3304 31.2268C33.3388 31.2603 33.3471 31.294 33.3584 31.3272C33.4531 31.6044 33.6456 31.8663 33.9159 32.099C34.4611 32.5683 35.3231 32.9171 36.3516 33.02C36.7237 33.0573 37.075 33.0621 37.4002 33.0388C38.159 32.9844 38.7759 32.7763 39.1837 32.4688C39.4186 32.2916 39.5837 32.0811 39.667 31.8481C39.7075 31.7345 39.7291 31.6157 39.7291 31.4926C39.7291 31.4378 39.7241 31.383 39.7162 31.3286C39.7134 31.3086 39.7084 31.2888 39.7044 31.2689C39.6978 31.2351 39.6903 31.2016 39.6809 31.1682C39.6737 31.1427 39.665 31.1176 39.6561 31.0922C39.6468 31.066 39.6366 31.0398 39.6256 31.0138C39.6133 30.9841 39.6001 30.9549 39.5854 30.9256C39.576 30.9069 39.5653 30.8883 39.5549 30.8696C39.5357 30.8348 39.5162 30.8002 39.4939 30.766C39.4025 30.6267 39.2861 30.4921 39.148 30.3656C39.1177 30.338 39.087 30.3107 39.0545 30.2837C39.0367 30.321 39.0165 30.3578 38.9939 30.3938V31.3538C38.9939 31.3628 38.9925 31.372 38.9911 31.3812C38.9902 31.3877 38.9892 31.3941 38.9887 31.4005C38.9619 31.7056 38.6808 32.0483 38.2842 32.2399C37.3153 32.7084 35.7331 32.5539 34.7578 31.8956C34.6853 31.8467 34.6181 31.7914 34.5535 31.734C34.273 31.484 34.0764 31.1715 34.0413 30.9326C34.0377 30.9078 34.0326 30.8821 34.0326 30.8589V30.4022C34.0047 30.3587 33.9806 30.3144 33.96 30.2691C33.9052 30.1494 33.8731 30.0247 33.8731 29.8954V29.5862C33.8731 29.6661 33.8873 29.7439 33.9088 29.8204C33.9352 29.9146 33.9767 30.0056 34.0326 30.093C34.0533 30.1253 34.0745 30.1573 34.0989 30.1885C34.138 30.2384 34.1824 30.2866 34.2306 30.3333C34.2322 30.335 34.2339 30.3365 34.2356 30.3381C34.2366 30.3391 34.2376 30.34 34.2386 30.341C34.3271 30.4259 34.4299 30.5051 34.5453 30.5783C34.5538 30.5837 34.5623 30.589 34.5709 30.5944C34.5798 30.6 34.5889 30.6056 34.5981 30.6111C34.9214 30.8038 35.3338 30.9474 35.7991 31.0209C36.0256 31.0567 36.2636 31.0774 36.5105 31.0774C36.9323 31.0774 37.3296 31.02 37.6832 30.9204C38.236 30.7647 38.6788 30.5037 38.9271 30.1826C38.9519 30.1507 38.973 30.1176 38.9939 30.0846C39.0918 29.9285 39.148 29.7614 39.148 29.5864V25.789C39.2752 25.6068 39.3473 25.409 39.3473 25.2011V24.9467C39.3473 25.1546 39.2752 25.3524 39.148 25.5347C39.1312 25.5586 39.1136 25.5824 39.0948 25.6057C38.7741 26.0073 38.1702 26.3202 37.4261 26.4638C37.3385 26.4806 37.2491 26.4951 37.158 26.5072C37.1217 26.512 37.0861 26.517 37.0493 26.5211C36.9391 26.5331 36.8259 26.5406 36.7114 26.545L36.6927 26.5458C36.6323 26.5482 36.572 26.5507 36.5105 26.5507C36.4883 26.5507 36.4666 26.5499 36.4448 26.5491C36.4297 26.5485 36.4145 26.548 36.3992 26.5477C36.1336 26.5418 35.8769 26.5165 35.6348 26.472C35.5786 26.4617 35.5236 26.4499 35.469 26.4378C35.3124 26.4026 35.1633 26.3598 35.0216 26.3102L35.0113 26.3067C34.9032 26.2685 34.7984 26.2276 34.7008 26.1818C34.6416 26.1541 34.5851 26.1245 34.5301 26.094C34.4002 26.0225 34.2825 25.9438 34.1788 25.8592C34.126 25.8162 34.077 25.7718 34.0317 25.726C34.0285 25.7227 34.0252 25.7194 34.0219 25.7162C34.0175 25.7118 34.0132 25.7075 34.009 25.7031C33.979 25.6714 33.9525 25.6387 33.9262 25.6057C33.9074 25.5824 33.8898 25.5586 33.8731 25.5347C33.8684 25.5281 33.8642 25.5214 33.86 25.5147C33.858 25.5114 33.8559 25.5081 33.8538 25.5049C33.8479 25.4962 33.8422 25.4875 33.8369 25.4787C33.8249 25.4596 33.811 25.4411 33.8003 25.4216C33.718 25.2716 33.6736 25.1121 33.6736 24.9467C33.6736 24.9306 33.6755 24.9146 33.6775 24.8987C33.6786 24.8895 33.6797 24.8803 33.6804 24.8711C33.6879 24.7822 33.7054 24.695 33.7373 24.6104C33.7667 24.5325 33.8083 24.457 33.857 24.3835C33.8816 24.4204 33.9082 24.4568 33.9373 24.4925C33.9785 24.5426 34.0242 24.5915 34.074 24.6388L34.0796 24.6441C34.0926 24.6564 34.1056 24.6687 34.1193 24.6807C34.1416 24.7007 34.1642 24.7205 34.1881 24.7398L34.1639 24.8377C34.138 24.9423 34.163 25.0582 34.2276 25.1767C34.237 25.1943 34.2479 25.2118 34.2593 25.2293C34.2613 25.2325 34.2632 25.2356 34.265 25.2388C34.2682 25.2446 34.2714 25.2504 34.2754 25.2561C34.3198 25.3199 34.3772 25.3838 34.4436 25.4466C34.4473 25.4501 34.4508 25.4536 34.4543 25.4572C34.4583 25.4612 34.4622 25.4653 34.4666 25.4693C34.5142 25.5126 34.5663 25.5552 34.6234 25.5968C34.7321 25.6758 34.8586 25.7502 34.9975 25.8182C35.0585 25.848 35.1219 25.8762 35.1879 25.9029C35.2922 25.9454 35.4018 25.9843 35.5176 26.0177C35.5463 26.0258 35.576 26.0331 35.6058 26.0404C35.6155 26.0428 35.6251 26.0452 35.6348 26.0476C35.872 26.1069 36.1288 26.1441 36.3992 26.1524C36.4126 26.1528 36.4259 26.1535 36.4391 26.1541C36.4628 26.1552 36.4864 26.1563 36.5105 26.1563C36.5785 26.1563 36.6449 26.1529 36.7112 26.1493C36.8267 26.1429 36.9396 26.1318 37.0493 26.1156C37.0782 26.1113 37.1064 26.1061 37.1347 26.1008C37.1424 26.0994 37.1502 26.0979 37.158 26.0965C37.2498 26.0799 37.3394 26.0607 37.4261 26.0378C38.3456 25.7968 38.956 25.2359 38.8572 24.8377L38.8329 24.7398C38.8569 24.7205 38.8793 24.7007 38.9018 24.6807C39.0067 24.5878 39.0943 24.4882 39.1639 24.3835C39.2806 24.2081 39.3473 24.0189 39.3473 23.8203V23.502C39.3473 23.5987 39.3296 23.6929 39.3005 23.785C39.2515 23.9405 39.163 24.0879 39.0408 24.2244C38.9626 24.3118 38.8706 24.3944 38.7664 24.4718C38.7534 24.4815 38.7411 24.4916 38.7277 24.5011C38.3935 24.7378 37.9436 24.9191 37.4261 25.019C37.3385 25.0359 37.2491 25.0504 37.158 25.0623C37.1481 25.0638 37.1389 25.0654 37.1291 25.0666C37.1025 25.07 37.0762 25.0732 37.0493 25.0762C36.9391 25.0882 36.8259 25.0957 36.7114 25.1001C36.7023 25.1005 36.6932 25.1008 36.6842 25.1012C36.6266 25.1036 36.5691 25.106 36.5105 25.106C36.507 25.106 36.5038 25.1057 36.5002 25.1057C36.4053 25.1055 36.3113 25.1028 36.2187 25.0975C36.0042 25.0852 35.7982 25.058 35.6005 25.02C35.5083 25.0024 35.4184 24.982 35.3306 24.9594L35.2887 24.948C35.1779 24.9178 35.0705 24.8846 34.9683 24.8472C34.9625 24.845 34.9565 24.8431 34.9504 24.8411C34.9434 24.8387 34.9363 24.8364 34.9296 24.8338C34.9089 24.8259 34.8896 24.8168 34.8693 24.8086C34.6555 24.7228 34.4636 24.621 34.2994 24.5057C34.2975 24.5041 34.2955 24.5025 34.2934 24.5011C34.2853 24.4953 34.2776 24.4894 34.2699 24.4834C34.2648 24.4795 34.2598 24.4756 34.2547 24.4718C34.2127 24.4406 34.1719 24.4092 34.1341 24.3764C34.0777 24.3275 34.027 24.2767 33.9801 24.2244C33.9655 24.208 33.9516 24.1914 33.9378 24.1746C33.8886 24.1147 33.844 24.0533 33.8081 23.9896C33.7214 23.8358 33.6736 23.6721 33.6736 23.502C33.6736 23.1568 33.8684 22.838 34.1963 22.5763C34.2226 22.8009 34.348 23.01 34.5492 23.1897L34.4682 23.5161C34.4611 23.5449 34.4584 23.5747 34.4595 23.6052C34.4598 23.6134 34.4625 23.6219 34.4634 23.6303C34.4695 23.6869 34.488 23.7452 34.5198 23.8048C34.5218 23.8086 34.524 23.8123 34.5264 23.816C34.5281 23.8188 34.5298 23.8215 34.5314 23.8242C34.5726 23.8961 34.6311 23.9684 34.705 24.0394C34.7453 24.0783 34.7892 24.1165 34.8382 24.1539C34.8466 24.1603 34.8541 24.1669 34.8628 24.1732C35.0204 24.2886 35.2189 24.394 35.4467 24.4775C35.4646 24.4841 35.4824 24.4906 35.5006 24.4968C35.5135 24.5013 35.5272 24.5052 35.5404 24.5095C35.6478 24.5448 35.7602 24.5757 35.8785 24.5997C35.8882 24.6017 35.8982 24.6033 35.9081 24.605C35.9141 24.606 35.92 24.607 35.9259 24.6081C36.0237 24.6265 36.1245 24.6406 36.2281 24.6499C36.3205 24.6581 36.4142 24.6638 36.5105 24.6638C36.579 24.6638 36.6465 24.6609 36.713 24.6566C36.8213 24.6497 36.926 24.6367 37.0283 24.6197C37.0718 24.6126 37.1157 24.606 37.158 24.5971C37.2338 24.5812 37.3069 24.5625 37.3783 24.5419C37.3869 24.5394 37.3952 24.5367 37.4035 24.534C37.411 24.5315 37.4184 24.5291 37.4261 24.5268C37.7299 24.4335 37.9891 24.3013 38.1829 24.1539C38.2785 24.0811 38.357 24.005 38.4182 23.9282C38.451 23.887 38.4795 23.8458 38.5013 23.8048C38.5145 23.7802 38.5243 23.7559 38.5331 23.7316C38.5457 23.6972 38.5541 23.6633 38.5577 23.6303C38.5618 23.5911 38.562 23.5525 38.5529 23.5161L38.4719 23.1897C38.5393 23.1295 38.6001 23.0667 38.6497 23.0006C38.6595 22.9876 38.6677 22.9741 38.676 22.9606C38.6799 22.9544 38.6837 22.9481 38.6877 22.9419C38.7627 22.8266 38.8098 22.7041 38.8246 22.5763C38.8248 22.5752 38.8249 22.5742 38.8249 22.5731C38.825 22.5724 38.825 22.5717 38.8251 22.571C38.8265 22.5583 38.8278 22.5456 38.8285 22.5328L39.738 21.996L38.1593 19.7366L36.2795 20.846C36.3555 20.8417 36.4326 20.8394 36.5105 20.8394C37.2409 20.8394 37.8915 21.0303 38.3172 21.3284C38.3855 21.3764 38.4467 21.4274 38.5029 21.4806C38.5736 21.5473 38.6337 21.618 38.6827 21.6918C38.7198 21.7478 38.7512 21.8053 38.7748 21.8645C38.8114 21.9573 38.8324 22.0533 38.8324 22.1521C38.8324 22.2775 38.7994 22.3985 38.7413 22.5133C38.732 22.5319 38.7197 22.5497 38.7088 22.5679C38.7054 22.5737 38.702 22.5796 38.6987 22.5854C38.6916 22.598 38.6844 22.6105 38.6761 22.6227C38.6617 22.6439 38.6471 22.665 38.6308 22.6857C38.6062 22.7169 38.5809 22.7479 38.5521 22.7779C38.5075 22.8243 38.4567 22.8684 38.4028 22.9112C38.3706 22.9369 38.3377 22.963 38.3022 22.9872C38.2305 23.0362 38.1509 23.0814 38.0676 23.124C38.0091 23.154 37.9481 23.1823 37.8842 23.2088C37.7989 23.2443 37.7108 23.2778 37.6173 23.3065C37.6032 23.3109 37.5886 23.3147 37.574 23.3185C37.5645 23.3209 37.555 23.3234 37.5458 23.326C37.5242 23.3322 37.5024 23.3381 37.4805 23.3438C37.4736 23.3456 37.4668 23.3475 37.46 23.3494C37.4507 23.352 37.4414 23.3546 37.4318 23.357C37.429 23.3577 37.4262 23.3585 37.4235 23.3593C37.4205 23.3602 37.4175 23.3611 37.4143 23.3618C37.4115 23.3624 37.4085 23.363 37.4056 23.3636C37.4026 23.3642 37.3997 23.3647 37.3968 23.3654C37.3451 23.3775 37.2921 23.3882 37.2386 23.3982C37.2166 23.4023 37.1949 23.4064 37.1728 23.41C37.1701 23.4105 37.1674 23.4107 37.1649 23.4112C37.0304 23.4335 36.8914 23.4499 36.748 23.4582C36.6698 23.4626 36.5906 23.4649 36.5105 23.4649C36.4304 23.4649 36.3512 23.4626 36.2731 23.4582C36.2144 23.4548 36.1571 23.4491 36.0997 23.4432C36.0911 23.4423 36.0823 23.4416 36.0735 23.4409C36.0619 23.44 36.0504 23.4391 36.039 23.4378C35.9648 23.4291 35.8917 23.4186 35.8201 23.4059C35.8096 23.4041 35.7996 23.4014 35.7891 23.3996L35.7825 23.3982C35.7318 23.3888 35.6819 23.3786 35.6328 23.3672C35.6078 23.3614 35.5834 23.355 35.5588 23.3486C35.5528 23.347 35.5467 23.3454 35.5406 23.3438C35.5322 23.3416 35.5238 23.3394 35.5153 23.3372C35.4788 23.3277 35.4424 23.3181 35.4071 23.3074C35.3402 23.2869 35.2751 23.2648 35.2123 23.2407C35.1948 23.234 35.1782 23.2267 35.1615 23.2194C35.1522 23.2153 35.143 23.2113 35.1335 23.2073C35.0605 23.1768 34.9907 23.1442 34.9247 23.1092C34.8521 23.0707 34.7822 23.0307 34.7189 22.9872C34.6841 22.9635 34.6523 22.9382 34.6205 22.913L34.6182 22.9112C34.5276 22.8391 34.4493 22.762 34.3856 22.6802C34.3512 22.6361 34.3226 22.5904 34.2971 22.544C34.2929 22.5365 34.2884 22.5291 34.2842 22.5216C34.2827 22.5188 34.2812 22.5161 34.2798 22.5133C34.2217 22.3985 34.1887 22.2775 34.1887 22.1521C34.1887 22.1264 34.1929 22.1012 34.1954 22.0759L32.1727 23.2696C31.8723 23.4441 31.5594 23.6087 31.2404 23.7686L31.9745 25.3289L31.9753 25.3301L32.4271 26.2908C32.6086 26.1932 32.7893 26.0953 32.9648 25.9932L33.7373 25.5374C33.7393 25.5427 33.7418 25.5479 33.7443 25.5532C33.7464 25.5574 33.7484 25.5617 33.7502 25.566C33.7812 25.6411 33.8213 25.7142 33.8704 25.7848C33.8706 25.7852 33.8708 25.7855 33.871 25.7859C33.8717 25.787 33.8723 25.788 33.8731 25.789V25.8196L33.1225 26.2624C32.3747 26.697 31.5719 27.0882 30.7273 27.4392C30.654 27.4697 30.5802 27.4998 30.5061 27.5296C30.3459 27.5942 30.1848 27.6577 30.0216 27.7192C30.0117 27.7229 30.0016 27.7266 29.9916 27.7302C29.9842 27.7329 29.9769 27.7356 29.9695 27.7383C29.9589 27.7423 29.9482 27.7462 29.9375 27.7501C29.9308 27.7525 29.9242 27.755 29.9176 27.7574C29.8601 27.7788 29.8027 27.7999 29.7451 27.8207C29.7396 27.8227 29.7342 27.8248 29.7287 27.8268C29.7168 27.8313 29.705 27.8357 29.693 27.84C29.6757 27.8463 29.6586 27.8529 29.6411 27.8591C28.5384 28.2534 27.3729 28.5807 26.1573 28.8346C26.149 28.8364 26.1408 28.8383 26.1326 28.8401C26.1236 28.8422 26.1145 28.8443 26.1054 28.8462C26.0969 28.848 26.0884 28.8495 26.0799 28.8511C26.0709 28.8527 26.062 28.8544 26.0533 28.8562C26.0218 28.8627 25.9899 28.8686 25.958 28.8745C25.9322 28.8793 25.9064 28.8841 25.8808 28.8892C25.8734 28.8906 25.866 28.892 25.8586 28.8934C25.8486 28.8952 25.8387 28.897 25.8287 28.899L25.7767 28.909C24.5661 29.145 23.3104 29.3099 22.0236 29.4007L21.9715 29.4044L21.9196 29.408C21.8947 29.4097 21.8699 29.4115 21.8451 29.4134C21.8124 29.4158 21.7798 29.4183 21.747 29.4203C21.7296 29.4214 21.7124 29.423 21.695 29.424C21.6866 29.4245 21.6782 29.4252 21.6699 29.4258C21.6609 29.4265 21.652 29.4271 21.643 29.4276C20.9924 29.466 20.335 29.4863 19.6717 29.4863C18.2583 29.4863 16.8698 29.3951 15.5223 29.2235C15.5048 29.2214 15.4875 29.219 15.4702 29.2169L15.4183 29.2101C15.3961 29.2072 15.3739 29.2044 15.3516 29.2016C15.3163 29.1971 15.2809 29.1926 15.2456 29.1878C15.2345 29.1863 15.2233 29.1849 15.212 29.1835C15.2059 29.1827 15.1998 29.1819 15.1937 29.181C15.186 29.18 15.1782 29.179 15.1704 29.1781C15.1608 29.1769 15.1512 29.1757 15.1416 29.1744C13.9058 29.0016 12.7072 28.7588 11.5613 28.4478C11.5503 28.4448 11.539 28.442 11.5278 28.4391C11.5216 28.4375 11.5155 28.4359 11.5094 28.4343C11.5008 28.4319 11.4923 28.4294 11.4839 28.4269C11.4751 28.4242 11.4663 28.4216 11.4573 28.4191C11.4253 28.4102 11.3936 28.4009 11.362 28.3915C11.3363 28.3839 11.3107 28.3763 11.2848 28.369C11.2752 28.3663 11.2657 28.3634 11.2562 28.3606C11.2485 28.3583 11.2407 28.3561 11.2329 28.3538C11.2154 28.3488 11.1981 28.3436 11.1808 28.3386C10.2294 28.0653 9.31541 27.7462 8.44891 27.3806C8.44004 27.3769 8.43097 27.3733 8.42191 27.3697C8.4135 27.3664 8.40508 27.363 8.39681 27.3596C8.38785 27.3557 8.37863 27.3521 8.36938 27.3484C8.3612 27.3451 8.35299 27.3418 8.34491 27.3384C8.31326 27.3248 8.28224 27.3107 8.25121 27.2966C8.22507 27.2847 8.19893 27.2729 8.17241 27.2613C8.16367 27.2575 8.15503 27.2535 8.1464 27.2495C8.13773 27.2455 8.12907 27.2416 8.12031 27.2377C8.11229 27.2342 8.10432 27.2305 8.09632 27.2269C8.08707 27.2227 8.0778 27.2185 8.06841 27.2144C7.41171 26.9225 6.78071 26.6067 6.18501 26.2628C6.17958 26.2596 6.17421 26.2564 6.16882 26.2533C6.16348 26.2501 6.15813 26.247 6.15271 26.2439C6.14448 26.2391 6.13635 26.2342 6.12821 26.2293C6.11913 26.2238 6.11004 26.2184 6.10081 26.213L6.04871 26.1823C6.02812 26.1701 6.00749 26.158 5.98687 26.1459C5.94979 26.124 5.91277 26.1023 5.87621 26.0803L5.82431 26.0487C5.80681 26.038 5.78971 26.0271 5.77221 26.0164C4.99831 25.5415 4.30611 25.0338 3.69901 24.4989C3.69413 24.4946 3.68924 24.4903 3.68435 24.486C3.67188 24.475 3.65939 24.464 3.64711 24.4529C3.63748 24.4443 3.62776 24.4357 3.61807 24.4272C3.61034 24.4205 3.60264 24.4137 3.59501 24.4069C3.53651 24.3541 3.47941 24.3009 3.42251 24.2478C3.41524 24.241 3.40794 24.2342 3.40064 24.2274C3.39057 24.218 3.38052 24.2087 3.37061 24.1992C3.36366 24.1927 3.35663 24.1862 3.3496 24.1797C3.33914 24.17 3.32868 24.1604 3.31851 24.1507C2.92871 23.7771 2.57961 23.3913 2.27181 22.9954C2.25816 22.9778 2.24462 22.9602 2.23112 22.9427L2.21971 22.9278C2.20871 22.9133 2.19794 22.8987 2.18719 22.8842C2.18074 22.8754 2.1743 22.8667 2.16781 22.858C2.10861 22.779 2.05121 22.6994 1.99531 22.6197C1.97781 22.5949 1.96031 22.5699 1.94321 22.5449C1.93623 22.5347 1.92911 22.5245 1.92198 22.5143C1.91162 22.4995 1.90126 22.4847 1.89131 22.4698C1.61191 22.0531 1.37771 21.626 1.18951 21.1909L1.18881 21.1893C0.818909 20.3335 0.627509 19.4463 0.626309 18.5427C0.624009 16.9091 1.24391 15.3294 2.42101 13.8936C2.97921 13.2126 3.66371 12.5643 4.46601 11.9578C4.96531 11.5803 5.50941 11.2187 6.09901 10.876L18.525 3.5426C22.1022 1.4638 26.8784 0.319 31.9744 0.319C36.5548 0.319 40.8844 1.2463 44.3287 2.9427C44.6668 3.1093 44.9972 3.2825 45.3178 3.4638C45.3399 3.4763 45.3624 3.48843 45.3849 3.50057C45.4107 3.51445 45.4365 3.52834 45.4616 3.5428C48.5368 5.3183 50.4259 7.5916 50.901 10.0423L50.906 10.0686C50.9156 10.1187 50.9251 10.1687 50.9333 10.2187C50.9445 10.2862 50.9547 10.3536 50.9638 10.4212C51.0009 10.7001 51.0203 10.9809 51.0209 11.2634C51.0211 11.4552 51.0121 11.6463 50.9954 11.8365C50.9666 12.1612 50.9129 12.4832 50.8355 12.802C50.901 12.8175 50.9645 12.8348 51.0268 12.8535C51.0343 12.8558 51.0419 12.8576 51.0492 12.8599C51.0509 12.8603 51.0523 12.861 51.0539 12.8614C51.1898 12.9037 51.3172 12.9536 51.4349 13.0096C51.4414 13.0127 51.4471 13.0162 51.4535 13.0193C51.4542 13.017 51.4554 13.0124 51.4564 13.0082ZM39.9199 32.0767C39.8834 32.0394 39.8434 32.0032 39.8038 31.9669C39.7939 31.9578 39.7843 31.9486 39.7746 31.9395C39.7599 31.9254 39.7451 31.9112 39.7291 31.8975V33.2757C39.7291 34.2781 38.3361 35.0021 36.3516 34.8033C34.5754 34.6255 33.2893 33.7167 33.2893 32.7143V31.2598C33.1841 31.3474 33.0885 31.4387 33.0027 31.5327C32.6742 31.8918 32.4921 32.2904 32.4921 32.67C32.4921 32.7388 32.4989 32.8076 32.5085 32.8757C32.5094 32.8822 32.5104 32.8886 32.5115 32.8951C32.5118 32.8975 32.5122 32.8999 32.5126 32.9023C32.5138 32.911 32.5151 32.9198 32.5165 32.9285C32.5281 32.994 32.5429 33.0593 32.5629 33.1239C32.5653 33.1314 32.5681 33.1388 32.5709 33.1463C32.5732 33.1525 32.5756 33.1588 32.5777 33.1651C32.5945 33.2147 32.6145 33.2637 32.636 33.3126C32.65 33.3438 32.6646 33.3749 32.6803 33.4057C32.7001 33.4445 32.7217 33.4828 32.7443 33.521C32.762 33.5506 32.7791 33.5802 32.7986 33.6093C32.826 33.6509 32.8564 33.6915 32.8872 33.732C32.8944 33.7414 32.9013 33.7508 32.9082 33.7602C32.9195 33.7756 32.9307 33.791 32.9431 33.8061C32.9943 33.8683 33.049 33.9295 33.1079 33.9893C33.1204 34.002 33.1338 34.0143 33.1472 34.0266C33.156 34.0347 33.1648 34.0428 33.1734 34.051C33.2158 34.0915 33.2588 34.132 33.305 34.1714C33.3276 34.1909 33.3514 34.2098 33.3753 34.2287C33.3814 34.2336 33.3876 34.2384 33.3937 34.2433C33.4369 34.2778 33.4808 34.312 33.5268 34.3454C33.5593 34.3691 33.5924 34.3923 33.6263 34.4153C33.6745 34.448 33.7241 34.4799 33.7748 34.5113C33.7806 34.5149 33.7863 34.5184 33.7921 34.522C33.8205 34.5397 33.8489 34.5574 33.8784 34.5744C33.9362 34.6082 33.9963 34.6404 34.0572 34.6722C34.0677 34.6778 34.0781 34.6834 34.0885 34.689C34.1088 34.7 34.129 34.711 34.1501 34.7214C34.2433 34.7676 34.3389 34.8122 34.4382 34.8542C34.4492 34.8588 34.4606 34.8631 34.472 34.8675C34.4799 34.8705 34.4877 34.8735 34.4953 34.8766C34.5785 34.9107 34.663 34.9435 34.7501 34.9744C34.7753 34.9833 34.8011 34.9917 34.8268 35.0001C34.8392 35.0041 34.8516 35.0081 34.8639 35.0122C34.9353 35.036 35.0075 35.059 35.0812 35.0804C35.1242 35.0929 35.1677 35.1048 35.2114 35.1164C35.2842 35.136 35.3581 35.1544 35.4328 35.1715C35.4772 35.1819 35.5215 35.1921 35.5666 35.2015C35.648 35.2186 35.7308 35.2336 35.8141 35.2481C35.8292 35.2507 35.8441 35.2533 35.8591 35.256C35.8837 35.2605 35.9084 35.2649 35.9336 35.2688C36.0578 35.2879 36.1839 35.3046 36.3125 35.3175C36.4506 35.3314 36.586 35.3408 36.7193 35.3474L36.7494 35.3492C36.8764 35.3549 37.0006 35.3569 37.1228 35.3564H37.1685C37.2868 35.3551 37.4025 35.3505 37.5162 35.3435C37.5333 35.3424 37.5506 35.3416 37.5676 35.3403C37.6791 35.3326 37.7881 35.3221 37.8946 35.3091L37.9458 35.3025C38.0514 35.2888 38.1545 35.2723 38.2549 35.2536L38.301 35.2445C38.4019 35.2247 38.5002 35.2026 38.5953 35.178C38.6075 35.1748 38.6192 35.1714 38.6312 35.1682C38.7282 35.1421 38.8226 35.1141 38.9132 35.0832C38.917 35.0819 38.9207 35.0805 38.9245 35.0792C38.928 35.0779 38.9315 35.0766 38.935 35.0754C39.0292 35.0427 39.1205 35.0079 39.2074 34.9703C39.2957 34.9322 39.3805 34.8909 39.4609 34.8479C39.463 34.8467 39.4651 34.8457 39.4672 34.8446C39.4693 34.8435 39.4714 34.8425 39.4734 34.8413C39.5501 34.7999 39.6227 34.7559 39.6919 34.7102L39.7132 34.6965C39.7797 34.6517 39.8422 34.6048 39.901 34.5564C39.9087 34.5502 39.9164 34.5441 39.9239 34.5377C39.9811 34.4895 40.0343 34.4396 40.0839 34.3882C40.0908 34.3811 40.0976 34.3739 40.1044 34.3666C40.1529 34.3149 40.1975 34.2615 40.238 34.2068L40.2537 34.1848C40.2935 34.1292 40.3295 34.0721 40.3609 34.0137L40.3709 33.9939C40.402 33.9338 40.4293 33.8726 40.451 33.81C40.4526 33.8055 40.4537 33.8011 40.4553 33.7966C40.4774 33.7311 40.4951 33.6646 40.5069 33.5968C40.5197 33.5228 40.5263 33.4471 40.5263 33.3704C40.5263 33.3005 40.5203 33.2307 40.5099 33.1612C40.5065 33.1374 40.5001 33.1142 40.4955 33.0907C40.4864 33.0448 40.4767 32.999 40.4635 32.9535C40.4569 32.9314 40.4491 32.9095 40.4412 32.8876C40.4392 32.8817 40.4371 32.8759 40.435 32.87C40.4207 32.8295 40.4055 32.7892 40.3881 32.749C40.375 32.7194 40.3606 32.6902 40.346 32.6609C40.3269 32.6231 40.3065 32.5856 40.2848 32.5483C40.2671 32.5184 40.2491 32.4888 40.2296 32.4591C40.2061 32.4231 40.1806 32.3876 40.1544 32.3523C40.1499 32.3463 40.1454 32.3403 40.1409 32.3342C40.1235 32.3108 40.106 32.2873 40.0873 32.2642C40.0587 32.2292 40.0277 32.1949 39.9967 32.1607C39.9903 32.1535 39.9839 32.1464 39.9775 32.1392C39.9588 32.1182 39.9402 32.0973 39.9199 32.0767ZM31.9137 31.4546L32.6783 31.0116V27.6689C32.4138 27.8095 32.1449 27.9458 31.8702 28.076L31.9137 31.4546ZM30.5061 31.2111V28.6635C30.3457 28.7265 30.1843 28.788 30.0216 28.8482V31.4069C30.1848 31.3436 30.3457 31.2776 30.5061 31.2111ZM22.0236 33.1208C23.2956 33.0307 24.554 32.8661 25.7767 32.6236V30.0149C24.5522 30.2497 23.2948 30.4109 22.0236 30.5001V33.1208ZM26.1573 32.5439C27.3638 32.2872 28.5318 31.9552 29.6411 31.5481V28.9853C28.5271 29.3748 27.36 29.6932 26.1573 29.9401V32.5439ZM3.69901 27.5403C4.28691 28.2594 4.97801 28.9268 5.77221 29.4997V27.2524C5.07841 26.8511 4.44811 26.4258 3.88011 25.9811L3.69901 25.8451V27.5403ZM6.64671 30.0673C7.10341 30.331 7.57821 30.5777 8.06841 30.8082V28.3911C7.47581 28.1399 6.90401 27.8655 6.35261 27.5713L6.15271 27.4422V29.761C6.31401 29.8666 6.47761 29.9698 6.64671 30.0673ZM8.44891 30.9782C9.31851 31.3657 10.2315 31.7051 11.1808 31.9912V29.4677C10.2377 29.2062 9.32451 28.8977 8.44891 28.5447V30.9782ZM11.5613 32.0999C12.7154 32.4285 13.9151 32.6843 15.1416 32.8657V30.2773C13.9201 30.11 12.7207 29.8743 11.5613 29.5703V32.0999ZM3.31851 25.5171C2.93621 25.1836 2.58721 24.8406 2.27181 24.4895V25.3278L2.42221 25.6189C2.68051 26.1053 2.97881 26.5859 3.31851 27.0502V25.5171Z" fill="#4BBDCF"/>
<path d="M16.2914 35.4285C16.2804 35.4207 16.2738 35.4078 16.2738 35.3943V34.7058C16.2738 34.7039 16.2741 34.7022 16.2745 34.7005L16.2755 34.6973L16.2769 34.6936L16.2777 34.6916C16.2866 34.668 16.3144 34.6557 16.3378 34.6701L16.5608 34.8091C16.5731 34.8168 16.5806 34.8302 16.5806 34.8448V35.552C16.5806 35.5861 16.5422 35.6059 16.5146 35.5862L16.2914 35.4285Z" fill="#4BBDCF"/>
<path d="M16.5196 33.5728C16.5474 33.5871 16.5806 33.567 16.5806 33.5356V32.8387C16.5806 32.823 16.572 32.8088 16.5581 32.8014L16.3351 32.6849C16.3073 32.6703 16.2737 32.6907 16.2737 32.7221V33.421C16.2737 33.4367 16.2825 33.4512 16.2966 33.4583L16.5196 33.5728Z" fill="#4BBDCF"/>
<path d="M16.2937 34.4458C16.2812 34.4383 16.2738 34.4247 16.2738 34.4101V33.7124C16.2738 33.681 16.3069 33.6608 16.3348 33.6751L16.5578 33.7895C16.5719 33.7966 16.5806 33.811 16.5806 33.8267V34.5471C16.5806 34.5798 16.5447 34.5999 16.5167 34.5828L16.2937 34.4458Z" fill="#4BBDCF"/>
<path d="M20.2018 34.6702L19.9788 34.8092C19.9665 34.8167 19.959 34.8302 19.959 34.8447V35.5521C19.959 35.5861 19.9974 35.6059 20.0252 35.5863L20.2482 35.4286C20.2593 35.4206 20.2659 35.4079 20.2659 35.3943V34.7059C20.2659 34.6729 20.2298 34.6529 20.2018 34.6702Z" fill="#4BBDCF"/>
<path d="M20.2659 32.7221V33.421C20.2659 33.4367 20.2572 33.4512 20.2431 33.4583L20.0201 33.5729C19.9922 33.5871 19.9591 33.567 19.9591 33.5356V32.8386C19.9591 32.823 19.9676 32.8088 19.9815 32.8015L20.2045 32.685C20.2326 32.6703 20.2659 32.6905 20.2659 32.7221Z" fill="#4BBDCF"/>
<path d="M20.2659 33.7124C20.2659 33.681 20.2327 33.6609 20.2049 33.6751L19.9817 33.7893C19.9678 33.7966 19.9591 33.8109 19.9591 33.8268V34.547C19.9591 34.5798 19.9949 34.6 20.0229 34.5827L20.2459 34.4458C20.2584 34.4382 20.2659 34.4246 20.2659 34.4101V33.7124Z" fill="#4BBDCF"/>
<path d="M18.3986 33.9319H18.1412C18.118 33.9319 18.0992 33.9132 18.0992 33.89V33.1778C18.0992 33.1729 18.1016 33.1689 18.104 33.165L18.1064 33.1609C18.1064 33.1605 18.1062 33.1611 18.1064 33.1609C18.1134 33.1475 18.1249 33.1359 18.1412 33.1359H18.3986C18.42 33.1359 18.4364 33.1529 18.4387 33.1737C18.4388 33.1743 18.4395 33.1757 18.4398 33.1762C18.4402 33.1767 18.4405 33.1772 18.4405 33.1778V33.89C18.4405 33.9132 18.4216 33.9319 18.3986 33.9319Z" fill="#4BBDCF"/>
<path d="M18.0992 34.8803C18.0992 34.9034 18.118 34.9222 18.1412 34.9222H18.3984C18.4216 34.9222 18.4403 34.9034 18.4403 34.8803V34.1681C18.4403 34.1449 18.4216 34.1262 18.3984 34.1262H18.1412C18.118 34.1262 18.0992 34.1449 18.0992 34.1681V34.8803Z" fill="#4BBDCF"/>
<path d="M18.1412 35.9124C18.118 35.9124 18.0992 35.8937 18.0992 35.8705V35.1583C18.0992 35.1351 18.118 35.1164 18.1412 35.1164H18.3984C18.4216 35.1164 18.4403 35.1351 18.4403 35.1583V35.8705C18.4403 35.8937 18.4216 35.9124 18.3984 35.9124H18.1412Z" fill="#4BBDCF"/>
</svg>
