<svg width="49" height="49" viewBox="0 0 49 49" fill="none" xmlns="http://www.w3.org/2000/svg">
<path fill-rule="evenodd" clip-rule="evenodd" d="M32.1232 45.0609L32.0318 45.077C29.819 45.47 27.5428 45.665 25.274 45.665C21.9048 45.665 18.5519 45.235 15.4467 44.3846L15.3545 44.3593V43.8826L15.4672 43.9133C18.5648 44.7589 21.8643 45.1876 25.2742 45.1876C27.5561 45.1876 29.825 44.9906 32.0185 44.6024L32.1232 44.5839V45.0609ZM32.1232 45.7133L32.0318 45.7296C29.8191 46.1224 27.5428 46.3174 25.274 46.3174C21.905 46.3174 18.5521 45.8874 15.4467 45.0372L15.3545 45.0119V44.535L15.4672 44.5659C18.5648 45.4113 21.8643 45.84 25.2742 45.84C27.5561 45.84 29.825 45.6432 32.0185 45.2548L32.1232 45.2363V45.7133ZM32.1232 46.3716L32.0318 46.3877C29.819 46.7807 27.5428 46.9757 25.2739 46.9757C21.9046 46.9757 18.5519 46.5457 15.4467 45.6953L15.3545 45.6703V45.1933L15.4672 45.2242C18.5648 46.0696 21.8643 46.4983 25.2742 46.4983C27.5563 46.4983 29.8252 46.3013 32.0185 45.913L32.1232 45.8944V46.3716ZM32.1232 47.0315L32.0318 47.0476C29.819 47.4406 27.5428 47.6356 25.2739 47.6356C21.9046 47.6356 18.5518 47.2055 15.4467 46.3552L15.3545 46.3299V45.8532L15.4672 45.8839C18.565 46.7295 21.8646 47.1582 25.2742 47.1582C27.5558 47.1582 29.8249 46.9612 32.0185 46.573L32.1232 46.5545V47.0315ZM1.5206 12.1506C2.8449 7.49628 5.4174 4.04978 9.1672 1.90648C10.854 0.942381 12.5907 0.459681 14.3599 0.459681C15.4651 0.459681 16.5833 0.648181 17.709 1.02568C22.7122 2.70408 27.1405 7.87308 30.184 12.3329C27.1681 8.31868 22.9532 3.91508 18.3091 2.65218C15.3427 1.84548 12.4794 2.37838 9.7991 4.23618C6.6657 6.40818 4.426 9.78048 3.1423 14.2593C2.1204 17.8239 1.6985 22.095 1.8887 26.954C1.9484 28.4852 2.0663 29.9801 2.2187 31.4001V34.13C1.6136 31.598 1.0479 28.6681 0.729397 25.6093C0.189397 20.4219 0.455596 15.8938 1.5206 12.1506ZM37.1546 17.6348C37.1546 17.6348 37.1516 17.6341 37.146 17.6326C37.1455 17.6325 37.1444 17.6321 37.1437 17.6319C37.1384 17.6307 37.1316 17.6289 37.1219 17.6264C37.1187 17.6255 37.1143 17.6244 37.1104 17.6235C37.1014 17.6212 37.092 17.6189 37.0802 17.6159C37.0743 17.6144 37.0672 17.6128 37.0606 17.6112C37.0502 17.6085 37.0402 17.6062 37.0283 17.6032C37.016 17.6002 37.0019 17.597 36.9878 17.5936C36.978 17.5912 36.9687 17.5889 36.958 17.5864C36.9434 17.583 36.9277 17.5793 36.9114 17.5755C36.8982 17.5725 36.8852 17.5695 36.8709 17.5663C36.8543 17.5623 36.8365 17.5584 36.8185 17.5543C36.8028 17.5507 36.7871 17.5472 36.7703 17.5434C36.7514 17.5391 36.7318 17.5349 36.7114 17.5304C36.6931 17.5263 36.6743 17.5222 36.6549 17.5181C36.6328 17.5133 36.6101 17.5085 36.5867 17.5035C36.5678 17.4994 36.5486 17.4953 36.5289 17.4912C36.5033 17.4858 36.4772 17.4803 36.4499 17.4747C36.4285 17.4703 36.4062 17.4658 36.3837 17.4612C36.3568 17.4557 36.33 17.4503 36.3018 17.4446C36.2776 17.4398 36.2524 17.4348 36.2271 17.43C36.1975 17.4241 36.1677 17.4182 36.1366 17.4123C36.1117 17.4075 36.0858 17.4025 36.0601 17.3977C36.0271 17.3914 35.9945 17.3852 35.96 17.3789C35.9338 17.374 35.9062 17.369 35.879 17.3641C35.843 17.3575 35.8073 17.3509 35.7699 17.3443C35.7426 17.3393 35.714 17.3345 35.686 17.3295C35.6473 17.3228 35.6091 17.316 35.569 17.3092C35.5378 17.3038 35.5051 17.2985 35.4732 17.2931C35.4339 17.2865 35.3954 17.2799 35.3549 17.2733C35.3406 17.271 35.3253 17.2687 35.3108 17.2664C35.2124 17.2503 35.1098 17.2344 35.0043 17.2184C34.9692 17.213 34.9348 17.2079 34.8989 17.2025C34.8579 17.1964 34.8152 17.1904 34.7731 17.1843C34.7319 17.1784 34.6911 17.1724 34.649 17.1665C34.6067 17.1606 34.5632 17.1549 34.52 17.149C34.4765 17.1431 34.4335 17.1372 34.389 17.1313C34.3646 17.1281 34.3398 17.1249 34.3152 17.1217C34.2956 17.1192 34.2754 17.1167 34.2556 17.1142C34.2096 17.1083 34.1639 17.1024 34.117 17.0967C34.0717 17.091 34.0253 17.0857 33.9791 17.0801C33.9316 17.0744 33.8843 17.0687 33.8362 17.0634C33.7882 17.0578 33.7395 17.0525 33.6908 17.0471C33.6426 17.0418 33.5943 17.0364 33.5452 17.0312C33.4954 17.0259 33.4451 17.0209 33.3945 17.0157C33.3438 17.0106 33.2928 17.0054 33.2414 17.0006C33.205 16.997 33.169 16.9934 33.1324 16.99C33.1183 16.9888 33.104 16.9875 33.0899 16.9861C33.0366 16.9813 32.9829 16.9765 32.9287 16.9717C32.8957 16.9688 32.8632 16.9658 32.8298 16.9629C32.8118 16.9615 32.7931 16.9601 32.7749 16.9585C32.719 16.9538 32.6625 16.9494 32.6059 16.9449C32.554 16.941 32.5023 16.9369 32.4498 16.9331C32.3917 16.9288 32.3332 16.9247 32.2743 16.9206C32.2217 16.9171 32.1692 16.9135 32.116 16.9101C32.1014 16.9092 32.0873 16.9081 32.0727 16.9073C32.0265 16.9042 31.9794 16.9017 31.9326 16.8991C31.8797 16.896 31.827 16.8928 31.7735 16.89C31.7095 16.8866 31.6444 16.8834 31.5792 16.8803C31.5273 16.8776 31.4758 16.8751 31.4233 16.8728C31.3557 16.8698 31.287 16.8673 31.2183 16.8648C31.1666 16.8628 31.1152 16.8607 31.0628 16.8589C30.9886 16.8564 30.9133 16.8545 30.838 16.8525C30.7911 16.8512 30.7445 16.8496 30.6971 16.8487C30.5963 16.8464 30.4942 16.8448 30.3918 16.8434C30.3686 16.843 30.346 16.8425 30.3226 16.8423C30.1974 16.8407 30.0707 16.84 29.9431 16.84C29.9396 16.84 29.936 16.84 29.9324 16.84C29.9258 16.84 29.9187 16.8402 29.9119 16.8402C29.6946 16.8404 29.4739 16.8427 29.2504 16.8471C29.2386 16.8473 29.227 16.8475 29.2153 16.8477C28.9951 16.8525 28.7716 16.8598 28.5457 16.8693C28.5209 16.8703 28.4963 16.871 28.4713 16.8723C28.2523 16.8819 28.0303 16.8942 27.8064 16.9087C27.7743 16.9108 27.7422 16.9128 27.7099 16.9149C27.4889 16.9299 27.2657 16.9476 27.0406 16.9676C27.0051 16.9708 26.9697 16.974 26.9341 16.9772C26.7089 16.9981 26.4818 17.0216 26.2529 17.048C26.2178 17.0519 26.1828 17.0562 26.1477 17.0603C25.9158 17.0878 25.6822 17.1179 25.4469 17.1515C25.4162 17.1559 25.3854 17.1606 25.3547 17.165C25.1133 17.2002 24.8703 17.2382 24.6259 17.2801C24.6047 17.2837 24.5835 17.2878 24.5622 17.2914C24.3068 17.3358 24.0502 17.3834 23.7921 17.4355C23.789 17.436 23.7862 17.4367 23.7832 17.4375C23.5229 17.4901 23.2612 17.5474 22.9984 17.6085C22.9834 17.6121 22.9684 17.6151 22.9534 17.6187C22.7004 17.6781 22.4466 17.7422 22.192 17.8098C22.1781 17.8135 22.1644 17.8166 22.1504 17.8201C22.1355 17.8242 22.1205 17.8285 22.1057 17.8324C21.8589 17.8988 21.6115 17.9698 21.3639 18.0444C21.3277 18.0553 21.2916 18.066 21.2554 18.077C21.1007 18.1241 20.9461 18.173 20.7912 18.2237C20.7015 18.2529 20.6119 18.2831 20.5222 18.3134C20.4833 18.3266 20.4446 18.3398 20.4057 18.3532C20.1616 18.4372 19.9174 18.5255 19.6732 18.6181C19.6354 18.6326 19.5975 18.6472 19.5597 18.6618C19.313 18.7569 19.0664 18.8561 18.8199 18.9605C18.7876 18.974 18.7553 18.9883 18.723 19.0022C18.47 19.1107 18.2174 19.2232 17.9655 19.3419C17.9447 19.3517 17.9238 19.362 17.9029 19.3719C17.8703 19.3874 17.8374 19.4034 17.8048 19.4191C17.8069 19.4186 17.8091 19.4181 17.811 19.4175C17.7721 19.4361 17.7334 19.4553 17.6944 19.4741C17.5003 19.5683 17.3062 19.6632 17.113 19.764C15.8451 20.4248 14.7559 21.1601 13.8176 21.9374C10.4285 24.7445 9.0254 28.1026 8.4477 30.5224C8.4449 30.5343 8.4418 30.5461 8.4392 30.5581C8.2916 31.1821 8.1988 31.7425 8.141 32.2138C8.1277 32.323 8.1161 32.427 8.1063 32.5264C8.0964 32.6247 8.0881 32.7178 8.0811 32.8057C8.0665 32.9925 8.0577 33.1554 8.0527 33.2912C8.0419 33.5943 8.0492 33.7637 8.0492 33.7637C7.9973 33.7304 7.9462 33.6961 7.8947 33.6624C7.897 33.5639 7.9011 33.4496 7.9089 33.3425L7.9428 32.1902C7.9475 32.1287 7.9527 32.0641 7.9589 31.996C7.9864 31.6911 8.0315 31.3216 8.105 30.9008C8.1378 30.712 8.1765 30.5131 8.2217 30.3049C8.3125 29.8876 8.4295 29.4341 8.5815 28.953C8.6336 28.788 8.6898 28.6196 8.7505 28.4483C8.8718 28.1061 9.0104 27.7524 9.1692 27.3906C9.2486 27.2095 9.3329 27.0266 9.4227 26.8418C9.4676 26.7496 9.5138 26.6568 9.5615 26.5637C9.6566 26.3774 9.7572 26.1898 9.8635 26.0008C10.1828 25.4344 10.5543 24.858 10.9865 24.2821C11.1305 24.0902 11.2812 23.8982 11.4391 23.7068C11.597 23.5154 11.7619 23.3243 11.9342 23.1341C12.0013 23.0601 12.0705 22.9862 12.1397 22.9126C12.2485 22.7968 12.3591 22.6814 12.4735 22.5663C12.5672 22.4723 12.6628 22.3784 12.7604 22.2849C12.9555 22.0982 13.1584 21.9126 13.3696 21.7291C13.6863 21.4534 14.0213 21.1819 14.3758 20.9157C14.5315 20.7987 14.6928 20.6833 14.8564 20.5686C14.9215 20.5229 14.9861 20.4769 15.0524 20.4314C15.7034 19.9859 16.4129 19.5581 17.1879 19.1553C17.336 19.0784 17.4842 19.0033 17.6326 18.9298C17.6478 18.9225 17.663 18.9153 17.6781 18.908C17.8114 18.8425 17.945 18.778 18.0786 18.7152C18.1202 18.6957 18.1618 18.6775 18.2032 18.6583C18.2699 18.6276 18.3364 18.5971 18.4031 18.5669C18.4442 18.5485 18.485 18.5291 18.5261 18.5109C18.5673 18.4925 18.6083 18.4754 18.6495 18.4574C18.7578 18.4099 18.8663 18.3623 18.9747 18.3164C19.0149 18.2995 19.0552 18.2836 19.0955 18.2668C19.2049 18.2215 19.3141 18.176 19.4234 18.1323C19.4366 18.1272 19.4496 18.1222 19.4628 18.117C19.5017 18.1015 19.5406 18.0868 19.5795 18.0717C19.6773 18.0333 19.7752 17.9946 19.873 17.9577C19.9224 17.9391 19.9716 17.9216 20.0209 17.9034C20.1217 17.866 20.2223 17.8283 20.3231 17.7923C20.3707 17.7754 20.4182 17.7595 20.4658 17.7429C20.568 17.707 20.6703 17.671 20.7723 17.6366C20.8219 17.6198 20.8713 17.6043 20.9209 17.5879C21.0213 17.5547 21.1218 17.5213 21.222 17.4896C21.2643 17.4762 21.3064 17.4637 21.3485 17.4505C21.4559 17.4169 21.5635 17.3834 21.6707 17.3513C21.7159 17.3379 21.7608 17.3254 21.806 17.3122C21.8306 17.3049 21.8552 17.298 21.8798 17.2908C21.9592 17.2678 22.0386 17.2441 22.1178 17.222C22.1706 17.2071 22.2234 17.1932 22.2762 17.1788C22.3722 17.1526 22.4684 17.1258 22.5642 17.1006C22.6177 17.0865 22.6708 17.0737 22.724 17.06C22.8191 17.0355 22.9144 17.0107 23.0091 16.9875C23.0619 16.9745 23.1143 16.9626 23.167 16.9501C23.2622 16.9272 23.3575 16.904 23.4526 16.8823C23.5024 16.8707 23.5521 16.8603 23.6019 16.8491C23.6993 16.8273 23.7967 16.8052 23.8939 16.7845C23.9432 16.774 23.9922 16.7645 24.0413 16.7542C24.1385 16.734 24.2358 16.7135 24.3325 16.6944C24.3842 16.6843 24.4356 16.675 24.4871 16.665C24.5811 16.647 24.6752 16.6286 24.7688 16.6115C24.8225 16.6017 24.8759 16.5927 24.9296 16.5833C25.0204 16.5672 25.1113 16.5508 25.2018 16.5356C25.2573 16.5262 25.3124 16.5178 25.3677 16.5089C25.456 16.4944 25.5443 16.4798 25.6323 16.4663C25.687 16.4579 25.7415 16.4504 25.796 16.4422C25.8838 16.4291 25.9718 16.4159 26.0592 16.4036C26.1127 16.3961 26.1657 16.3895 26.219 16.3822C26.3072 16.3705 26.3953 16.3583 26.4829 16.3473C26.5348 16.3407 26.5862 16.3348 26.6381 16.3285C26.726 16.3178 26.8142 16.3068 26.9018 16.297C26.9576 16.2905 27.0131 16.285 27.0688 16.2789C27.1514 16.27 27.2343 16.2607 27.3164 16.2525C27.3726 16.2468 27.4282 16.242 27.4842 16.2367C27.5654 16.2288 27.6468 16.2208 27.7274 16.2136C27.7852 16.2085 27.8421 16.2042 27.8996 16.1994C27.9772 16.1929 28.0551 16.1862 28.132 16.1803C28.1948 16.1755 28.2567 16.1715 28.319 16.1671C28.3903 16.1621 28.4621 16.1567 28.5329 16.1521C28.5966 16.148 28.6592 16.1446 28.7223 16.1409C28.7908 16.1367 28.8599 16.1325 28.9279 16.1287C28.9935 16.1253 29.0583 16.1225 29.1236 16.1194C29.1883 16.1162 29.2534 16.1128 29.3177 16.1102C29.381 16.1075 29.4434 16.1055 29.5062 16.1032C29.5715 16.1009 29.6374 16.098 29.7023 16.0961C29.7653 16.0941 29.8275 16.0929 29.8901 16.0911C29.9481 16.0896 30.0065 16.0879 30.0641 16.0866C30.0693 16.0866 30.0743 16.0864 30.0793 16.0863C30.1412 16.085 30.2018 16.0843 30.263 16.0834C30.326 16.0823 30.3895 16.0811 30.4519 16.0806C30.509 16.0798 30.5652 16.0798 30.6219 16.0795C30.6869 16.0791 30.7524 16.0786 30.8168 16.0786C30.8196 16.0786 30.8225 16.0786 30.8255 16.0786C30.881 16.0786 30.9356 16.0791 30.9907 16.0793C30.9977 16.0795 31.0044 16.0795 31.0114 16.0795C31.0654 16.0798 31.1202 16.0798 31.1739 16.0802C31.229 16.0807 31.2831 16.0818 31.3377 16.0825C31.3402 16.0825 31.3429 16.0827 31.3455 16.0827C31.4051 16.0836 31.4651 16.0841 31.5239 16.0852C31.581 16.0864 31.6369 16.0879 31.6934 16.0893C31.7512 16.0907 31.8094 16.0918 31.8665 16.0934C31.9296 16.0952 31.9915 16.0975 32.0538 16.0996C32.1023 16.1012 32.1517 16.1027 32.1997 16.1045C32.2657 16.107 32.3305 16.1098 32.3954 16.1127C32.437 16.1144 32.4793 16.1161 32.5205 16.118C32.5226 16.118 32.5249 16.1182 32.5271 16.1182C32.5852 16.121 32.642 16.1241 32.6991 16.1269C32.7485 16.1296 32.7984 16.1319 32.8471 16.1346C32.901 16.1375 32.9535 16.1409 33.0064 16.1441C33.0566 16.1471 33.1072 16.1499 33.1567 16.153C33.2114 16.1565 33.2649 16.1603 33.3188 16.164C33.3652 16.1673 33.4123 16.1703 33.458 16.1735C33.509 16.1772 33.5584 16.1812 33.6087 16.1851C33.656 16.1887 33.704 16.1921 33.7505 16.196C33.8082 16.2006 33.8642 16.2054 33.9206 16.2102C33.9575 16.2133 33.9951 16.2163 34.0313 16.2195C34.0988 16.2256 34.1643 16.2317 34.2299 16.2379C34.2543 16.2402 34.2799 16.2424 34.3041 16.2449C34.3655 16.2507 34.4251 16.2568 34.4848 16.2629C34.5125 16.2656 34.541 16.2684 34.5683 16.2713C34.6283 16.2775 34.6864 16.2837 34.7448 16.2902C34.7699 16.2928 34.796 16.2957 34.8209 16.2984C34.8864 16.3057 34.9499 16.3132 35.0133 16.3205C35.0297 16.3225 35.0466 16.3242 35.0629 16.3262C35.126 16.3337 35.187 16.3414 35.2477 16.3489C35.2634 16.3508 35.2798 16.3528 35.2951 16.3548C35.3561 16.3624 35.4152 16.3701 35.4739 16.3778C35.4876 16.3795 35.5023 16.3813 35.516 16.3833C35.5706 16.3904 35.6229 16.3977 35.6751 16.4049C35.6919 16.4072 35.7096 16.4097 35.7261 16.412C35.7527 16.4156 35.7775 16.4193 35.8034 16.4229C35.8296 16.4266 37.0062 16.8445 37.0062 16.8445L37.1762 16.9039C37.1762 16.9039 37.153 17.6337 37.1546 17.6348ZM10.7045 26.538L17.099 22.5593C19.2154 21.3293 23.5719 20.5001 28.9148 22.1922C31.9032 23.2892 34.0444 24.6074 35.4735 25.6933C35.2912 25.8519 35.1028 26.0105 34.905 26.1687C33.5213 25.1354 31.4792 23.8934 28.684 22.8672C25.246 21.7786 20.4335 21.4466 17.4669 23.1707L11.0723 27.1496C10.1728 27.6723 9.7201 28.5748 9.5112 29.5283C9.3602 30.2166 9.3369 30.9309 9.3645 31.5487C9.1071 31.2875 8.8723 31.0396 8.6572 30.8028C8.7041 30.5927 8.7571 30.3749 8.8174 30.1501C8.9417 29.6871 9.0958 29.196 9.2883 28.6859C9.4798 28.1787 9.7181 27.6314 10.013 27.0612C10.2148 26.8661 10.4437 26.6896 10.7045 26.538ZM30.07 19.7081C33.4913 20.9643 35.8824 22.4971 37.4201 23.685C37.2745 23.8661 37.1225 24.0481 36.9598 24.2311C35.4648 23.0792 33.1467 21.5977 29.8354 20.382C25.9955 19.1175 19.8994 18.9515 15.5916 20.9632C16.1023 20.6283 16.6493 20.306 17.2361 20C17.8546 19.6776 18.4913 19.3842 19.1424 19.1151C22.9415 18.3973 27.138 18.7423 30.07 19.7081ZM31.8963 28.1827C31.6863 28.301 31.4718 28.4187 31.2508 28.5355C31.2082 28.558 31.1652 28.5798 31.1225 28.6021L27.7659 26.6641L26.0408 27.6666L29.2531 29.521C28.9619 29.6554 28.6702 29.7863 28.378 29.9135L24.4898 27.6683L26.9901 26.2155L25.5379 25.3716L19.6926 28.7684L21.6757 29.9192C22.0593 29.7453 22.5105 29.6291 22.9873 29.5822C23.9246 29.4898 24.8887 29.6684 25.5677 30.0603C25.808 30.1991 26.0048 30.3595 26.1561 30.5343C25.8695 30.6387 25.5859 30.7391 25.304 30.8365C25.2307 30.7739 25.146 30.7142 25.05 30.6587C24.6083 30.4034 23.9905 30.2692 23.355 30.2898C23.0696 30.299 22.7859 30.3413 22.5279 30.4118L24.0076 31.266C23.6652 31.3748 23.3275 31.4784 22.9936 31.5776L21.6855 30.8223C21.3821 31.0765 21.2823 31.3782 21.4126 31.6624C21.4602 31.7665 21.5396 31.8666 21.6418 31.9608C21.3385 32.0425 21.0394 32.1207 20.7445 32.1947C20.5948 31.9919 20.5026 31.7715 20.4774 31.5418C20.4321 31.1289 20.5978 30.7293 20.9477 30.3955L18.9187 29.2181L13.0745 32.6143L14.4537 33.41C14.0975 33.4596 13.7555 33.5051 13.4356 33.5456C13.3607 33.555 13.2975 33.5973 13.2551 33.6558L11.5258 32.6582L25.5386 24.5148L31.8963 28.1827ZM40.8871 32.5417L40.4668 32.2996C40.4823 32.2466 40.4757 32.1878 40.4389 32.1414C40.3319 31.9737 40.1339 31.6775 39.8579 31.3186C39.7678 31.2016 39.6681 31.0772 39.5616 30.9489C39.2667 30.5932 38.9106 30.205 38.5022 29.8293C38.322 29.6637 38.1319 29.5016 37.9321 29.3455C37.6671 29.1385 37.3872 28.9427 37.0909 28.7694C36.4963 28.4223 35.8954 28.1909 35.3397 28.0364C35.1567 27.9855 34.9794 27.9436 34.8083 27.9083C34.0726 27.7565 33.4617 27.734 33.1267 27.7376C33.5384 27.4771 33.9266 27.2143 34.2915 26.9501L42.3018 31.5635C41.8619 31.8913 41.39 32.2174 40.8871 32.5417ZM38.8473 35.1346C38.8635 35.1262 38.8788 35.1178 38.8951 35.1094C39.0248 35.0423 39.1525 34.9754 39.2786 34.9084C39.3163 34.8884 39.3546 34.8684 39.3919 34.8484C39.4055 34.8411 39.4197 34.8338 39.4333 34.8265L39.7248 34.6677C39.7685 34.6438 39.8124 34.6199 39.8556 34.596C39.8886 34.5776 39.9209 34.5592 39.9539 34.541C40.0755 34.4731 40.1956 34.4051 40.3139 34.3371C40.3437 34.3202 40.3742 34.303 40.4038 34.2859C40.4116 34.32 40.4154 34.3555 40.4116 34.3922L40.1378 36.9912C40.1217 37.1426 40.0003 37.2648 39.8488 37.2818L39.8124 37.2839C39.6724 37.2839 39.5478 37.1947 39.5029 37.0622L38.8473 35.1346ZM36.9013 36.0744C37.0998 35.9848 37.2987 35.8933 37.4978 35.7996L37.789 36.6153L37.9446 35.5857C38.0457 35.5367 38.1467 35.4883 38.2478 35.438C38.3807 35.372 38.5115 35.3062 38.641 35.2404C38.6464 35.2737 38.6482 35.3078 38.643 35.342L38.2414 37.9981C38.2189 38.1467 38.0989 38.2603 37.9495 38.2748L37.918 38.2762C37.7801 38.2762 37.6563 38.1889 37.6101 38.0589L36.9013 36.0744ZM34.8877 36.9141C35.0905 36.8363 35.2937 36.7566 35.4973 36.6745L35.9013 37.5606L36.0201 36.4588C36.2471 36.3632 36.4744 36.2653 36.702 36.1643C36.7043 36.1868 36.7047 36.2096 36.7022 36.233L36.58 37.3672L36.5673 37.4839L36.4239 38.8166C36.4082 38.9625 36.296 39.0808 36.1509 39.1043C36.1338 39.1072 36.1161 39.1086 36.0986 39.1086C35.9711 39.1086 35.8542 39.0335 35.8013 38.9174L34.8877 36.9141ZM33.2132 39.0654L33.0168 38.6093L32.99 38.5474L32.6247 37.6983C32.8327 37.6339 33.0414 37.567 33.2503 37.4982L33.5814 38.2669L33.6828 37.3524C33.9084 37.2748 34.1346 37.1945 34.3612 37.1114C34.3628 37.1319 34.3628 37.1528 34.3605 37.1739L34.0952 39.5687C34.079 39.7161 33.9652 39.8342 33.8183 39.8561C33.8016 39.8584 33.7857 39.8597 33.7702 39.8597C33.6394 39.8597 33.5215 39.7819 33.4699 39.6618L33.2289 39.1022L33.2132 39.0654ZM30.9431 39.543L30.7454 39.0694L30.7233 39.0162L30.4252 38.3021C30.6385 38.251 30.8526 38.1972 31.0671 38.1415L31.4572 39.0767L31.4913 38.9427L31.5079 38.877L31.7409 37.9593C31.9805 37.8919 32.2204 37.8227 32.4611 37.7495C32.4604 37.7724 32.4573 37.7954 32.4516 37.8186L32.2199 38.7311L32.2031 38.7968L31.85 40.1879C31.8153 40.3244 31.6975 40.4231 31.5569 40.4336L31.5329 40.4345C31.4005 40.4345 31.2818 40.3554 31.231 40.2331L30.9598 39.5833L30.9431 39.543ZM28.4687 39.8333L28.2844 39.3485L28.2672 39.3038L28.066 38.7745C28.2842 38.739 28.5031 38.7011 28.7225 38.6608L28.9453 39.2467L28.963 39.2934L29.0661 39.5642L29.1605 39.2745L29.1769 39.2246L29.4038 38.529C29.6472 38.479 29.8916 38.4248 30.1365 38.3686C30.134 38.3909 30.1296 38.4132 30.1224 38.435L29.7043 39.7168L29.6875 39.7681L29.4006 40.6478C29.3576 40.7793 29.236 40.8699 29.0977 40.8733L29.0954 40.8735H29.0897C28.955 40.8735 28.8321 40.7888 28.7841 40.6628L28.4886 39.8859L28.4687 39.8333ZM25.8729 39.4072L25.8556 39.3639L25.747 39.0906C25.7436 39.082 25.7422 39.0733 25.7395 39.0647C25.9637 39.0453 26.1887 39.024 26.4147 38.9996L26.7742 39.9027L26.7919 39.9467L26.8108 39.9021L27.2404 38.8977C27.485 38.8644 27.7303 38.8285 27.9766 38.7893C27.9743 38.8249 27.9674 38.861 27.9525 38.8958L27.7449 39.3812L27.5303 39.8834L27.5046 39.9433L27.0818 40.9324C27.0304 41.0528 26.9123 41.1308 26.781 41.1308H26.7792C26.6442 41.129 26.5264 41.0482 26.4774 40.9249L25.8729 39.4072ZM23.4979 39.2574L23.4918 39.2415C23.4881 39.2312 23.4865 39.2206 23.4836 39.2103C23.4808 39.199 23.4767 39.188 23.4751 39.1767C23.7022 39.1743 23.9307 39.1684 24.1599 39.1605L24.2044 39.2788L24.2213 39.3241L24.5078 40.0891L24.8325 39.3687L24.8516 39.3262L24.9428 39.1243C25.1797 39.1098 25.418 39.0918 25.6571 39.0717C25.6556 39.1136 25.646 39.1552 25.6283 39.1946L25.5559 39.3553L24.7781 41.0812C24.7253 41.1984 24.6084 41.2738 24.48 41.2738H24.4752C24.3362 41.2694 24.2202 41.1861 24.1737 41.0615L23.4979 39.2574ZM21.2408 39.1723C21.2352 39.1536 21.2322 39.1346 21.2301 39.1156C21.4574 39.1307 21.6862 39.1425 21.916 39.1523L22.0377 39.5701L22.0523 39.6208L22.1647 40.0074L22.3538 39.6661L22.3799 39.6194L22.6264 39.1741C22.683 39.1751 22.7397 39.1753 22.7962 39.176C22.9245 39.1775 23.053 39.1784 23.182 39.1782C23.2365 39.1782 23.2913 39.1778 23.3461 39.1775C23.3452 39.1834 23.3434 39.1892 23.3423 39.1951C23.3395 39.2101 23.3363 39.2249 23.3313 39.2397C23.3252 39.2574 23.3182 39.275 23.309 39.292L23.0785 39.708L23.0499 39.7594L22.3561 41.0114C22.2985 41.1154 22.189 41.18 22.0702 41.18L22.0339 41.1779C21.9021 41.1631 21.7931 41.0715 21.7562 40.9443L21.2408 39.1723ZM19.035 38.9682L19.0279 38.9359C19.0238 38.9174 19.0222 38.8986 19.0215 38.8801C19.2479 38.9136 19.476 38.9439 19.7055 38.9718L19.8687 39.7157L20.1261 39.2526L20.1411 39.2258L20.2482 39.033C20.481 39.0567 20.7156 39.077 20.9512 39.095C20.9445 39.1189 20.9355 39.1425 20.9232 39.1648L20.0205 40.7891C19.9629 40.893 19.8534 40.9574 19.7347 40.9574C19.7192 40.9574 19.7035 40.9561 19.6876 40.954C19.5535 40.934 19.4443 40.8321 19.4154 40.7003L19.0384 38.9839L19.035 38.9682ZM17.4765 38.6055L17.5884 39.2545L17.9079 38.6915C17.9989 38.709 18.0899 38.7261 18.1814 38.7425C18.1914 38.7443 18.2016 38.7461 18.2115 38.7479C18.332 38.7693 18.4527 38.7905 18.5742 38.8105C18.5716 38.8223 18.5694 38.8342 18.5655 38.8458C18.5646 38.8487 18.5628 38.8512 18.5619 38.854C18.5559 38.8703 18.5494 38.8865 18.5407 38.902L17.706 40.3726C17.648 40.4748 17.539 40.5383 17.4216 40.5383C17.403 40.5383 17.3843 40.5365 17.3656 40.5333C17.2296 40.5096 17.1228 40.4024 17.0994 40.2666L16.7997 38.5292C16.7954 38.5042 16.7947 38.4794 16.7961 38.4551C17.0209 38.5083 17.248 38.5581 17.4765 38.6055ZM15.284 38.0489L15.5463 38.1267C15.7566 38.1877 15.9692 38.2459 16.1833 38.3019L15.5168 39.8338C15.4649 39.9531 15.3472 40.0304 15.2169 40.0304C15.2035 40.0304 15.1902 40.0295 15.1764 40.0279C15.0325 40.0097 14.9167 39.8973 14.894 39.7546L14.5945 37.8782C14.5918 37.8614 14.5916 37.8448 14.5916 37.8284C14.8202 37.9048 15.0508 37.9784 15.284 38.0489ZM12.9596 37.2176L13.2758 37.3471C13.4777 37.4279 13.6823 37.5057 13.8886 37.5817L13.2124 39.0028C13.1584 39.1161 13.0426 39.1892 12.9172 39.1892C12.9029 39.1892 12.8886 39.1883 12.8742 39.1864C12.7316 39.1669 12.62 39.0595 12.595 38.9188L12.2569 36.9988C12.2517 36.969 12.2521 36.9393 12.255 36.91C12.4867 37.0158 12.7216 37.1184 12.9596 37.2176ZM39.0415 33.6446L38.6105 33.3964C38.6196 33.349 38.6118 33.2979 38.5838 33.2564C38.5452 33.1993 38.4785 33.1035 38.3918 32.9836C38.3163 32.8796 38.2237 32.756 38.1151 32.6163C37.5198 31.8516 36.4497 30.6387 35.1415 29.8744C34.6706 29.5992 34.1955 29.3967 33.7422 29.2475C33.4856 29.1632 33.2375 29.0973 32.9997 29.0438C32.962 29.0354 32.9247 29.0272 32.8878 29.0195C32.361 28.9088 31.8975 28.8642 31.5507 28.8494C31.4156 28.8436 31.2986 28.842 31.2021 28.8428C31.2572 28.8139 31.3125 28.7857 31.3675 28.7566C31.3714 28.7544 31.3751 28.7523 31.3791 28.7503C31.6436 28.6103 31.898 28.469 32.1467 28.3272C32.3023 28.2383 32.4548 28.1493 32.6043 28.0599L33.6205 28.6451L33.6423 28.6578L40.6498 32.6935C40.1442 33.0127 39.6076 33.3297 39.0415 33.6446ZM10.7683 34.6008C11.3078 34.548 12.0057 34.4704 12.8324 34.3587C12.9703 34.3401 13.1122 34.3203 13.257 34.2998V34.9792L19.0643 38.1019C18.6517 38.0398 18.2412 37.969 17.8337 37.8851C17.4286 37.802 17.0268 37.7055 16.627 37.6009C16.3253 37.5221 16.0249 37.4381 15.7264 37.3471C13.7052 36.7311 11.7579 35.841 9.8997 34.6771C9.947 34.6736 9.9998 34.6693 10.0551 34.6648C10.1744 34.6552 10.3125 34.6434 10.4685 34.6292C10.5469 34.622 10.629 34.6143 10.7164 34.6058C10.7334 34.6042 10.7512 34.6024 10.7683 34.6008ZM29.1947 30.296C29.4377 30.299 29.7803 30.3183 30.1822 30.3766C30.2746 30.39 30.3699 30.4057 30.4683 30.4236C30.5137 30.4318 30.5581 30.4394 30.6045 30.4487C31.119 30.5522 31.7011 30.7247 32.2937 31.0032C32.4714 31.0865 32.6496 31.1769 32.8275 31.2808C32.9363 31.3443 33.0435 31.4112 33.149 31.4802C34.3635 32.2764 35.3372 33.4002 35.8416 34.0454L29.1947 30.296ZM32.5458 29.3078C33.2546 29.4313 34.1159 29.6796 34.9653 30.1758C35.0354 30.2168 35.1035 30.261 35.172 30.3046C36.3539 31.0537 37.3187 32.1574 37.8602 32.8568C37.9128 32.9247 37.9615 32.9886 38.0059 33.0482L32.042 29.6136L32.0217 29.6018L31.888 29.525L31.3088 29.1912C31.5639 29.1933 31.9341 29.2126 32.3747 29.2795C32.4306 29.288 32.4878 29.2977 32.5458 29.3078ZM30.6735 29.1139L31.7646 29.7422L31.7928 29.7583L38.7866 33.7862C38.6237 33.8752 38.4589 33.9641 38.2914 34.0526C38.1187 34.1448 37.9454 34.2347 37.771 34.3232C37.5155 34.454 37.2609 34.5781 37.0063 34.7027L36.4931 34.4129C36.4959 34.3717 36.487 34.3291 36.4622 34.2938C36.4312 34.2497 36.3832 34.1826 36.3209 34.0984C35.9133 33.5479 34.8582 32.2304 33.4826 31.2863C33.3265 31.1791 33.1675 31.0751 33.0036 30.9793C32.8889 30.9122 32.7738 30.8498 32.6589 30.7909C32.1037 30.5072 31.5527 30.3188 31.0458 30.1923C31.0171 30.1852 30.9875 30.1766 30.9591 30.1699C30.8738 30.1495 30.7907 30.1322 30.7083 30.1153C29.8737 29.9444 29.2021 29.9404 28.9134 29.9501C29.1152 29.8598 29.3166 29.7676 29.5176 29.6739C29.9046 29.4937 30.2901 29.3071 30.6735 29.1139ZM26.9011 30.7943C27.4145 30.5925 27.9285 30.3809 28.4415 30.1583L36.7357 34.8368C36.0449 35.169 35.3576 35.4774 34.6736 35.7631L34.6677 35.1685C34.6677 35.1599 34.665 35.1519 34.6643 35.1435C34.6561 35.0552 34.6067 34.9754 34.5277 34.9326L26.9011 30.7943ZM34.7077 28.2424C35.3727 28.3773 36.1491 28.6237 36.9148 29.0711C37.926 29.6618 38.7697 30.5379 39.3473 31.2426C39.4549 31.3739 39.5551 31.5006 39.6436 31.6169C39.7451 31.7507 39.8334 31.8722 39.9077 31.9776L33.1506 28.0862C33.4146 28.0837 33.854 28.0978 34.3922 28.1845C34.4939 28.2009 34.5997 28.2205 34.7077 28.2424ZM15.4501 33.5334C15.6829 33.4974 15.9216 33.4592 16.1655 33.4185C16.3808 33.3827 16.5997 33.3454 16.8227 33.3058C17.0459 33.2664 17.2732 33.2248 17.5047 33.1809C17.7454 33.1354 17.9896 33.0878 18.2385 33.0373C18.3757 33.0096 18.5173 32.9788 18.6568 32.9495C18.8224 32.9147 18.9892 32.8789 19.1578 32.8421C19.6634 32.7313 20.1829 32.6109 20.7182 32.4773C20.7923 32.4587 20.869 32.438 20.9436 32.4191C21.2627 32.3381 21.5871 32.2523 21.9157 32.1626C22.3734 32.0375 22.8384 31.9052 23.3131 31.7621C23.6458 31.6616 23.9817 31.5575 24.3219 31.4476C24.7096 31.3223 25.1031 31.1892 25.5001 31.051C25.628 31.0066 25.7572 30.96 25.886 30.9142C26.0221 30.8655 26.1568 30.8194 26.294 30.7693L26.3405 30.7946L26.4335 30.8449L34.4001 35.1679C34.398 35.169 34.3956 35.1701 34.3935 35.1713C34.2244 35.2618 34.0542 35.3486 33.8836 35.4336C33.829 35.4605 33.7743 35.4865 33.7197 35.5129C33.5991 35.5715 33.4783 35.6289 33.357 35.6847C33.2958 35.7129 33.2344 35.7408 33.1729 35.7684C33.0525 35.8225 32.9317 35.8749 32.8109 35.9263C32.7547 35.9502 32.6987 35.9745 32.6425 35.9978C32.5401 36.0403 32.4373 36.0806 32.3346 36.1215C32.2787 36.1436 32.2227 36.1671 32.1669 36.1887C32.1505 36.1952 32.1341 36.2021 32.1175 36.2084C31.9419 36.276 31.7662 36.3404 31.5905 36.403C31.5375 36.4219 31.4843 36.4397 31.4313 36.4581C31.3072 36.5013 31.1832 36.5436 31.0592 36.5844C30.9977 36.6046 30.9359 36.6246 30.8744 36.6442C30.7543 36.6825 30.6346 36.7198 30.5151 36.756C30.4578 36.7733 30.4004 36.791 30.3433 36.8078C30.1972 36.8509 30.0514 36.8923 29.9062 36.9323C29.8784 36.94 29.8505 36.9482 29.8227 36.9558C29.6498 37.0028 29.4775 37.0474 29.3062 37.0902C29.2581 37.1023 29.2103 37.1134 29.1623 37.1251C29.0381 37.1553 28.9143 37.1849 28.7912 37.2131C28.7322 37.2267 28.6733 37.2397 28.6146 37.2529C28.4995 37.2784 28.3852 37.303 28.2715 37.3267C28.2155 37.3383 28.1595 37.3503 28.1038 37.3615C27.9715 37.3883 27.8402 37.4138 27.7096 37.4384C27.6762 37.4447 27.6425 37.4514 27.6093 37.4575C27.4462 37.4877 27.2848 37.516 27.1249 37.5426C27.0828 37.5497 27.0415 37.556 26.9995 37.5629C26.9483 37.5713 26.8978 37.579 26.847 37.5868C26.7803 37.5974 26.7128 37.6084 26.6467 37.6184C26.593 37.6266 26.5396 37.6343 26.4861 37.6422C26.3803 37.6575 26.2754 37.6721 26.1716 37.6862C26.1197 37.6932 26.0677 37.7003 26.0164 37.7069C25.9011 37.7219 25.7875 37.7358 25.6747 37.7494C25.6399 37.7535 25.6043 37.7579 25.5697 37.762C25.4235 37.7788 25.2798 37.7943 25.1385 37.8088C25.1042 37.8122 25.0712 37.8152 25.0373 37.8184C24.9299 37.8291 24.8236 37.8391 24.7192 37.8484C24.6721 37.8525 24.6257 37.8564 24.5794 37.8603C24.4878 37.868 24.3976 37.8751 24.3087 37.8819C24.2639 37.8853 24.2192 37.8887 24.1751 37.8917C24.0795 37.8987 23.9856 37.9049 23.8932 37.9106C23.8611 37.9126 23.8281 37.9149 23.7965 37.9169C23.6743 37.9242 23.555 37.9306 23.4392 37.9362C23.4153 37.9374 23.393 37.9383 23.3694 37.9394C23.2772 37.9436 23.1866 37.9476 23.0988 37.9508C23.0619 37.9522 23.026 37.9535 22.9898 37.9547C22.917 37.9572 22.8457 37.9595 22.7763 37.9615C22.7406 37.9624 22.7049 37.9635 22.6703 37.9642C22.5988 37.9659 22.5295 37.9674 22.4621 37.9686C22.4355 37.9692 22.4079 37.9697 22.382 37.9701C22.2914 37.9715 22.204 37.9724 22.1212 37.9731C22.1058 37.9731 22.0923 37.9731 22.0773 37.9731C22.042 37.9734 22.0091 37.9734 21.9754 37.9734C21.9433 37.9734 21.9094 37.9736 21.8787 37.9736C21.8584 37.9736 21.839 37.9734 21.8193 37.9734C21.7638 37.9733 21.7107 37.9731 21.6606 37.9725C21.6454 37.9724 21.6293 37.9724 21.6145 37.9722C21.5537 37.9717 21.4962 37.9708 21.4438 37.9701C21.4304 37.9699 21.4185 37.9697 21.4056 37.9693C21.3639 37.9688 21.3237 37.9681 21.2881 37.9674C21.2756 37.967 21.2622 37.9668 21.2504 37.9665C21.2176 37.9659 21.1865 37.9652 21.16 37.9647C21.1576 37.9647 21.1548 37.9647 21.1525 37.9647C21.1489 37.9645 21.1457 37.9645 21.1423 37.9643C21.115 37.9638 21.092 37.9635 21.0724 37.9633L21.0363 37.9629C21.0335 37.9629 21.0322 37.9631 21.0297 37.9631C21.0212 37.9631 21.0128 37.9631 21.0074 37.9635L16.2647 35.3508L16.2525 35.3442L13.4691 33.811C13.4836 33.8092 13.4995 33.8071 13.5139 33.8051C14.1035 33.7304 14.7513 33.6415 15.4501 33.5334ZM16.8068 33.0373C16.057 33.1707 15.3555 33.2812 14.7092 33.3738L17.0232 32.0063L18.3106 32.7495C17.9118 32.8312 17.5249 32.9062 17.1486 32.9754L16.8068 33.0373ZM10.1166 35.7929C10.1882 35.8353 10.2604 35.8772 10.3327 35.9192C10.4993 36.0157 10.6677 36.1104 10.8383 36.2032L10.9555 36.2663C11.1469 36.3689 11.3407 36.4694 11.5371 36.5675L11.009 37.7206C10.956 37.8364 10.8393 37.9115 10.7118 37.9115C10.6968 37.9115 10.6818 37.9105 10.6667 37.9083C10.523 37.8878 10.409 37.7743 10.3882 37.6322L10.1166 35.7929ZM42.1213 33.3689L41.7245 35.9411C41.7013 36.0924 41.5734 36.2089 41.4203 36.2178L41.4014 36.2183C41.2546 36.2183 41.1249 36.1195 41.086 35.978L40.5911 34.1766C40.6757 34.1268 40.7595 34.0772 40.8421 34.0276C40.8514 34.0221 40.8612 34.0164 40.8705 34.0108C40.9731 33.9491 41.0737 33.8875 41.1732 33.826L41.4121 33.6761C41.5095 33.6146 41.6053 33.553 41.6999 33.4917C41.732 33.4706 41.7648 33.4498 41.7966 33.4287C41.9024 33.3593 42.0064 33.2897 42.1086 33.2205C42.1236 33.268 42.1291 33.3183 42.1213 33.3689ZM36.0264 27.0393C36.4112 27.0989 36.8472 27.1958 37.3068 27.3506C37.3309 27.3586 37.3557 27.3683 37.3799 27.3767C37.4092 27.387 37.4386 27.3975 37.468 27.4082C37.8363 27.542 38.2157 27.7115 38.5932 27.932C38.8842 28.102 39.1602 28.2977 39.4215 28.5052C40.4379 29.3127 41.2116 30.3176 41.5955 30.8683L34.7885 26.948C35.0311 26.944 35.4519 26.9544 35.9754 27.032C35.9925 27.0345 36.0089 27.0366 36.0264 27.0393ZM4.6571 18.8054C3.7207 19.7592 3.0385 20.7213 2.5816 21.677C2.7188 19.7415 2.9806 17.8522 3.4008 16.0638L4.6571 18.8054ZM5.7967 17.7563C5.4715 18.0289 5.1666 18.3025 4.8849 18.5769L3.7535 16.1075L5.7967 17.7563ZM6.3347 9.08168L8.3514 15.9293C7.4836 16.4659 6.714 17.0106 6.035 17.5602L3.5294 15.5384C4.1408 13.1453 5.0479 10.9473 6.3347 9.08168ZM10.6715 14.6293C10.426 14.7543 10.1798 14.8822 9.9322 15.0168C9.767 15.1052 9.6054 15.1944 9.4469 15.2842C9.161 15.4442 8.8866 15.6049 8.6188 15.7666L6.7642 9.46898L10.6715 14.6293ZM11.9806 4.35658L12.8276 13.6333C12.208 13.8896 11.581 14.1743 10.9455 14.4905L6.585 8.73168C7.8547 6.99798 9.4708 5.57148 11.5075 4.57208C11.6652 4.49488 11.8229 4.42408 11.9806 4.35658ZM17.2978 12.2309C16.9297 12.3092 16.5585 12.3971 16.1842 12.4956L12.3445 4.20978C14.0275 3.57198 15.7156 3.48568 17.3791 3.81948L17.2978 12.2309ZM21.6176 11.6878C21.4536 11.694 21.2891 11.7021 21.1237 11.7121C21.0866 11.7144 21.0499 11.716 21.0128 11.7185C20.9336 11.7237 20.8533 11.7317 20.7737 11.7379L20.7732 11.7363L17.93 3.94468C19.4006 4.32148 20.8488 5.01728 22.2543 5.93868L21.6176 11.6878ZM17.6009 12.1691L17.6785 4.13698L20.4608 11.762L20.4612 11.7631C20.4417 11.7649 20.4225 11.7659 20.403 11.7679C20.354 11.7725 20.3045 11.7777 20.2553 11.7827C20.0765 11.8009 19.4199 11.8873 19.2391 11.9103C19.2029 11.9147 18.219 12.0464 17.6009 12.1691ZM13.1202 13.5128L12.3347 4.90768L15.8881 12.5761C14.9838 12.826 14.0614 13.1355 13.1202 13.5128ZM22.4159 11.6716C22.4045 11.6716 22.3929 11.6721 22.3816 11.6721C22.2295 11.6725 22.076 11.676 21.9226 11.6794L21.9228 11.6778L22.5288 6.20558L24.4368 11.7688C24.3146 11.757 24.1928 11.7461 24.0697 11.7363C24.0429 11.7344 24.016 11.7329 23.9894 11.731C23.8511 11.7206 23.7125 11.7115 23.573 11.7039C23.5188 11.701 23.464 11.6987 23.4094 11.696C23.2951 11.6907 23.1803 11.686 23.0651 11.6826C23.0062 11.6807 22.9474 11.6791 22.8881 11.6778C22.7684 11.6751 22.6482 11.6737 22.5278 11.673C22.4903 11.6728 22.4534 11.6716 22.4159 11.6716ZM25.3329 11.8732L25.3327 11.8744C25.2931 11.8691 25.2539 11.8632 25.2141 11.8578C25.1597 11.8507 25.1053 11.8436 25.0507 11.8366C24.957 11.825 24.8627 11.8145 24.7683 11.8039L22.9104 6.38648C23.8738 7.07188 24.815 7.85878 25.7272 8.71658L25.3329 11.8732ZM29.5485 12.8718C29.4425 12.8365 29.3362 12.8017 29.2294 12.7677C29.1853 12.7536 29.141 12.7393 29.0966 12.7254C28.9758 12.6876 28.8544 12.6506 28.7325 12.6144C28.7045 12.606 28.6767 12.5975 28.6487 12.5893C28.497 12.5448 28.3447 12.5017 28.1914 12.4601C28.165 12.453 28.1384 12.4462 28.112 12.4391C27.9875 12.4057 27.8625 12.373 27.7369 12.3416C27.6896 12.3297 27.642 12.3183 27.5945 12.3065C27.4859 12.2801 27.3768 12.2542 27.2673 12.2293C27.2183 12.2178 27.1692 12.2066 27.12 12.1957C27.0004 12.1691 26.8804 12.1436 26.7599 12.119C26.7235 12.1115 26.6873 12.1035 26.6508 12.0962C26.4938 12.0648 26.3359 12.0348 26.1773 12.0066C26.1498 12.0016 26.122 11.9973 26.0945 11.9925C25.9643 11.9699 25.8337 11.9483 25.7026 11.9279C25.679 11.9242 25.6556 11.9201 25.6321 11.9165L25.9994 8.97538C27.2447 10.173 28.4337 11.4982 29.5485 12.8718ZM4.9304 19.4016L5.928 21.579L5.9285 21.5804L7.3177 24.6122L2.9464 22.5163C3.0624 22.1895 3.204 21.865 3.3705 21.5426C3.7529 20.8017 4.2685 20.0737 4.9124 19.3626L4.9304 19.4016ZM8.4929 16.4097L9.7035 20.5204L8.3498 19.4279L6.4773 17.917L6.4511 17.8959C7.0617 17.387 7.7427 16.8894 8.4912 16.4043L8.4929 16.4097ZM13.1204 16.8402L13.1746 17.4344L11.2127 14.8435C11.767 14.5593 12.3177 14.2964 12.866 14.0543L13.1204 16.8402ZM17.2725 14.8441L16.416 12.9958L16.4154 12.9946L16.3232 12.7955C16.6475 12.7027 16.9715 12.6155 17.2948 12.5377L17.2725 14.8441ZM21.4169 13.5004L20.8619 11.9793C21.1045 11.9617 21.3471 11.9483 21.5899 11.9388L21.4169 13.5004ZM25.3005 12.1331L25.1884 13.0294L24.8577 12.0646C25.0064 12.0819 25.1545 12.1012 25.3019 12.1215L25.3005 12.1331ZM46.689 29.8416C46.6795 29.969 46.5991 30.0742 46.4874 30.1197C46.451 30.1345 46.4114 30.1433 46.3697 30.1442H46.3629C46.3442 30.1442 46.326 30.142 46.3081 30.139L46.1727 31.2943C46.1538 31.4554 46.0225 31.5767 45.8605 31.583L45.8478 31.5833C45.7604 31.5833 45.6812 31.5464 45.6218 31.4886C45.6206 31.4872 45.6193 31.4859 45.6179 31.4845C45.6095 31.4761 45.6002 31.4686 45.5929 31.4593L45.5863 31.5273L45.5847 31.5435L45.4996 32.4277C45.4841 32.5867 45.3572 32.7106 45.1979 32.7222L45.174 32.7233C45.0245 32.7233 44.8954 32.6223 44.8581 32.478C44.8577 32.4768 44.8568 32.4759 44.8567 32.4746L44.6916 31.8074L44.4479 33.6645C44.4274 33.8223 44.297 33.9418 44.1377 33.9487L44.1236 33.9489C43.9713 33.9489 43.8369 33.841 43.8043 33.6922L43.7825 33.5935L43.7738 33.5536L43.7681 33.5272L43.547 32.5203L43.1822 34.8598C43.1626 34.9849 43.0723 35.0839 42.9558 35.1205C42.9292 35.1289 42.9018 35.1349 42.873 35.1362L42.8589 35.1365C42.708 35.1365 42.5774 35.0341 42.5414 34.8875L42.4795 34.6352L42.4711 34.6008L42.1291 33.2066C42.1421 33.1979 42.1551 33.1889 42.1682 33.18C42.1924 33.1632 42.216 33.1467 42.2401 33.1301C42.3389 33.0619 42.4359 32.9939 42.5312 32.926C42.5655 32.9015 42.5995 32.8771 42.6333 32.8526C42.6556 32.8366 42.6784 32.8205 42.7005 32.8045C42.7043 32.8152 42.8589 32.6873 42.8589 32.6873C42.8825 32.6698 42.9064 32.6521 42.9298 32.6346C42.9444 32.6236 42.9597 32.6125 42.9744 32.6016C43.0834 32.5192 43.1893 32.4372 43.2933 32.3551C43.2942 32.3544 43.2951 32.3537 43.2958 32.3531C43.3244 32.3306 43.352 32.3082 43.38 32.2859C43.4596 32.2224 43.5376 32.1589 43.6141 32.0953C43.641 32.073 43.6685 32.0506 43.6951 32.0283C43.792 31.9469 43.8869 31.8656 43.9789 31.7844C43.9959 31.7694 44.0121 31.7544 44.0291 31.7394C44.0305 31.7382 44.0319 31.7368 44.0335 31.7355C44.0355 31.7394 44.0382 31.743 44.0399 31.7473L44.0426 31.7273C44.1143 31.6633 44.1844 31.5996 44.2531 31.5357C44.2797 31.5109 44.3061 31.4863 44.3323 31.4615C44.4044 31.3935 44.4749 31.3255 44.5437 31.2576C44.5584 31.2431 44.5737 31.2285 44.5883 31.214C44.669 31.1336 44.7469 31.0533 44.8229 30.973C44.8445 30.9502 44.8656 30.9274 44.8868 30.9045C44.9441 30.843 44.9999 30.7818 45.0545 30.7204C45.0754 30.6969 45.0966 30.6733 45.1171 30.6499C45.1867 30.5702 45.2545 30.4908 45.3196 30.4114C45.3303 30.3982 45.3403 30.3852 45.3508 30.3722C45.406 30.3042 45.4593 30.2364 45.5112 30.1686C45.5305 30.1433 45.5496 30.118 45.5685 30.0928C45.6157 30.0296 45.6614 29.9667 45.7058 29.9037C45.7187 29.8855 45.7321 29.8673 45.7447 29.8491C45.799 29.771 45.8507 29.693 45.9007 29.6152C45.9153 29.5922 45.9292 29.5694 45.9436 29.5464C45.9804 29.4875 46.0161 29.4286 46.0507 29.3699C46.0651 29.3449 46.0799 29.3201 46.094 29.2954C46.1381 29.2179 46.1807 29.1407 46.2209 29.0636C46.2268 29.052 46.2321 29.0406 46.2378 29.0292C46.2724 28.9616 46.3053 28.894 46.3368 28.8265C46.3402 28.819 46.3442 28.8117 46.3475 28.8044C46.3561 28.7858 46.3638 28.7675 46.3722 28.7489C46.3984 28.6904 46.4234 28.6321 46.4475 28.5737C46.4562 28.5523 46.4655 28.5309 46.474 28.5095C46.4938 28.4595 46.5122 28.4096 46.5304 28.3598C46.5306 28.3591 46.5309 28.3584 46.5311 28.3577C46.5349 28.3475 46.539 28.3375 46.5425 28.3274C46.5477 28.3127 46.5529 28.2979 46.5581 28.2833C46.5661 28.2603 46.5732 28.2371 46.5809 28.2141C46.5996 28.1579 46.6173 28.1019 46.6337 28.0458C46.6415 28.0194 46.6494 27.9932 46.6567 27.9668C46.6651 27.9367 46.6731 27.9065 46.6808 27.8764C46.7691 27.9409 46.8235 28.0474 46.8148 28.1641L46.689 29.8416ZM47.2042 23.9307C47.1794 24.4643 47.1054 25.0325 46.9612 25.6267C46.9232 25.783 46.8808 25.9411 46.8328 26.1007C46.8255 26.1255 46.8171 26.1505 46.8094 26.1753C46.8092 26.1757 46.8091 26.1762 46.8089 26.1767C46.7864 26.2499 46.7629 26.3232 46.7381 26.3969C46.7052 26.4943 46.6703 26.5922 46.6333 26.6905C46.6294 26.7014 46.6251 26.7125 46.621 26.7234C46.5606 26.8836 46.4945 27.045 46.4228 27.2077C46.3955 27.2694 46.3681 27.331 46.3393 27.3931C46.3392 27.3934 46.339 27.394 46.3388 27.3943C46.3145 27.4462 46.2894 27.4985 46.2639 27.5508C46.0721 27.945 45.8452 28.3456 45.5794 28.75C45.4827 28.897 45.3822 29.0443 45.2748 29.1922L45.2447 29.1758L45.1389 29.1187L37.3995 24.9356C37.4661 24.8707 37.5298 24.8048 37.5947 24.7396C37.764 24.5686 37.9294 24.3963 38.0876 24.2215C38.8851 23.34 39.5387 22.4066 40.0581 21.4124C40.0871 21.3569 40.1167 21.3018 40.1449 21.2459C40.1617 21.2126 40.1779 21.1792 40.1944 21.1459C40.2129 21.1082 40.2306 21.0699 40.2488 21.032C40.2547 21.0196 40.2605 21.0071 40.2664 20.9948C40.3282 20.8652 40.3876 20.7347 40.4448 20.6032C40.7171 19.9775 40.9413 19.3287 41.1154 18.6527L47.062 21.8677C47.1728 22.4633 47.2399 23.1607 47.2042 23.9307ZM43.4227 19.5959L41.0912 18.3353C41.0548 18.3157 41.0114 18.3141 40.9732 18.3307C40.9354 18.3477 40.9074 18.381 40.8976 18.4213C40.7237 19.1332 40.4941 19.8146 40.2106 20.4701C40.1515 20.6064 40.0902 20.7416 40.0265 20.8756C40.0227 20.8836 40.019 20.8915 40.0152 20.8993C39.997 20.9373 39.9799 20.9758 39.9614 21.0135C39.9428 21.0511 39.9235 21.0886 39.9046 21.1261C39.8788 21.1776 39.8516 21.2286 39.8249 21.2798C39.3136 22.2605 38.6676 23.1805 37.88 24.05C37.7214 24.225 37.5578 24.3983 37.3876 24.5694C37.2877 24.67 37.1867 24.7702 37.0827 24.8694C37.0561 24.8948 37.0443 24.9301 37.0443 24.9663L37.0436 24.972C37.0438 24.9761 37.0418 24.98 37.0426 24.984C37.0426 24.9852 37.0435 24.9861 37.0436 24.9872V25.8686L44.35 29.799C43.8455 30.3129 43.2627 30.825 42.604 31.3338C42.5756 31.3557 42.5473 31.3778 42.5184 31.3998L42.1475 31.1862C42.1639 31.1325 42.1576 31.0726 42.1204 31.0257C42.0007 30.8365 41.7661 30.4849 41.4374 30.0657C40.8353 29.2975 39.913 28.2986 38.7693 27.6305C38.4487 27.443 38.1263 27.2914 37.8099 27.1651C37.4816 27.0341 37.1608 26.933 36.8551 26.8548C36.6993 26.8151 36.5468 26.7797 36.4005 26.7512C36.1589 26.7039 35.9343 26.6716 35.7274 26.6486C35.6455 26.6395 35.567 26.6317 35.4917 26.6254C35.1797 26.5997 34.9285 26.5963 34.7606 26.5995C34.8504 26.5305 34.9396 26.4615 35.0263 26.3924C35.0546 26.3698 35.0818 26.3471 35.11 26.3245C35.3062 26.1664 35.4949 26.008 35.6764 25.8494C36.2365 25.36 36.7275 24.8703 37.1576 24.3856C37.3196 24.2031 37.4739 24.0213 37.6193 23.8406C38.4146 22.8515 38.9686 21.8944 39.3632 21.0178C39.3821 20.9758 39.4021 20.9336 39.4201 20.8922C39.4422 20.8417 39.4624 20.7921 39.4834 20.7421C39.4986 20.7063 39.5138 20.6702 39.5284 20.6347C39.5296 20.6315 39.5311 20.6283 39.5323 20.6251C39.5939 20.4749 39.6515 20.327 39.7043 20.1825C40.0454 19.2484 40.2147 18.4406 40.3326 17.834C41.5183 18.3721 42.551 18.9633 43.4227 19.5959ZM35.9541 16.1937C35.7015 16.1567 35.42 16.1187 35.1105 16.0818C34.2506 15.979 33.1827 15.885 31.9667 15.8468C31.599 15.8353 31.2185 15.8287 30.8255 15.8287C30.7875 15.8287 30.7483 15.829 30.7099 15.8292C30.5963 15.8295 30.4812 15.8304 30.3642 15.832C30.0363 15.8363 29.6959 15.8452 29.3435 15.86C26.2583 15.9901 22.2964 16.5646 18.4213 18.285C18.0892 18.4326 17.7577 18.589 17.4273 18.7539C17.3088 18.8129 17.1906 18.8722 17.0726 18.9335C15.6827 19.6559 14.5031 20.4585 13.5004 21.2966C12.7152 21.9526 12.0394 22.6303 11.4575 23.309C11.2516 23.5491 11.0574 23.789 10.8743 24.0283C9.8401 25.3805 9.1592 26.7059 8.7134 27.835C8.3954 28.6397 8.1741 29.392 8.0192 30.0596C8.0138 30.0832 8.009 30.1058 8.0039 30.1292C7.9073 30.5547 7.8378 30.9443 7.7883 31.2895C7.7673 31.4376 7.7493 31.5782 7.7347 31.7091C7.7182 31.8584 7.7056 31.9954 7.6959 32.1207C7.6872 32.2359 7.681 32.3394 7.6765 32.4325C7.6756 32.4534 7.6742 32.4764 7.6735 32.4962C7.611 32.4554 7.55 32.4138 7.4886 32.3726C7.3866 32.3041 7.286 32.2348 7.1868 32.1651C6.8905 31.9562 6.607 31.7418 6.3369 31.5223C5.356 30.7252 4.5509 29.8609 3.939 28.9557C3.6737 28.5632 3.4441 28.163 3.2531 27.7574C3.2438 27.7374 3.235 27.7176 3.2258 27.6976C3.1744 27.5861 3.1259 27.4744 3.0802 27.3622C2.8044 26.6843 2.634 25.9932 2.5753 25.2987C2.5605 25.124 2.5528 24.9492 2.5523 24.7743C2.5523 24.7224 2.5514 24.6705 2.5525 24.6186C2.5657 24.0092 2.6658 23.4042 2.8502 22.8055L4.3122 23.5065L4.3386 23.5191L7.5145 25.0419L8.1154 26.353L8.1783 26.4907L8.4739 27.1358C8.4995 27.1913 8.554 27.2239 8.6113 27.2239C8.6145 27.2239 8.6177 27.2222 8.6209 27.222C8.657 27.1401 8.6946 27.0575 8.7326 26.9747L7.9849 25.3425L7.9407 25.2462L8.0231 25.2856L9.2828 25.8897C9.3313 25.8021 9.3813 25.7142 9.4323 25.626L8.2012 25.0359L7.7437 24.8164L6.1667 21.3742L6.1662 21.373L6.0768 21.1783L5.1527 19.1612L5.135 19.1228C5.465 18.7758 5.8251 18.4329 6.2165 18.0949L7.6952 19.2884L7.8358 19.4016L9.8535 21.0299L9.8672 21.0763L10.6101 23.599C10.6276 23.6576 10.6775 23.6959 10.7344 23.7041C10.7878 23.6361 10.8413 23.5682 10.8964 23.5002L10.2672 21.3637L11.7322 22.5458C11.8011 22.4726 11.8707 22.3995 11.9419 22.3265L10.1918 20.9145L10.1172 20.8542L8.7572 16.2365L8.7563 16.234C8.7899 16.2129 8.8245 16.1919 8.8582 16.171C9.2321 15.9375 9.6209 15.707 10.0267 15.4799C10.186 15.3898 10.3477 15.3006 10.5081 15.2144C10.6529 15.1359 10.7972 15.0621 10.9417 14.9862L11.0864 15.1773L11.0873 15.1786L13.2265 18.0039L13.4888 20.8761C13.49 20.8891 13.495 20.9006 13.4991 20.9123C13.5903 20.8387 13.6818 20.765 13.7756 20.692L13.5719 18.4601L14.7331 19.9938C14.8157 19.9372 14.9008 19.8815 14.9852 19.8257L13.52 17.8906L13.4108 16.6946L13.1794 14.1615L13.1792 14.1594L13.1582 13.929C14.1224 13.5153 15.0788 13.1662 16.0297 12.8817L16.1211 13.0788L16.1221 13.0811L17.1074 15.2075L17.1649 15.3311L17.2657 15.5487L17.2369 18.5161L17.2368 18.5303C17.2537 18.5218 17.2708 18.5134 17.2878 18.5048C17.3718 18.4625 17.4557 18.4199 17.5408 18.3789L17.562 16.1881L18.3949 17.9857C18.4872 17.9455 18.5814 17.9084 18.6743 17.8692L17.5688 15.4834L17.5957 12.6965V12.6945L17.5979 12.4696C18.5844 12.2462 19.5674 12.0921 20.55 12.0063L20.633 12.2337L20.6337 12.2355L21.3104 14.0901L21.3419 14.1768L21.0278 17.0141C21.1325 16.9816 21.237 16.9488 21.3425 16.9176L21.5753 14.8162L22.25 16.6653C22.3478 16.64 22.4468 16.6168 22.5452 16.5926L21.6502 14.1397L21.8675 12.1768L21.8679 12.1747L21.8948 11.9306C22.0686 11.9263 22.2421 11.9215 22.4159 11.9215C22.9697 11.9215 23.5136 11.9447 24.0492 11.9866C24.209 11.9991 24.368 12.0134 24.526 12.0294L24.5278 12.0343L25.1031 13.7123L24.8013 16.1291C24.9042 16.1121 25.0086 16.0975 25.1119 16.0816L25.2799 14.7361L25.2955 14.6121L25.3265 14.3636L25.8783 15.9728C25.9802 15.9596 26.0829 15.9484 26.1853 15.9362L25.4118 13.6807L25.5993 12.1805L25.6011 12.1659C29.5924 12.7748 33.0571 14.4423 36.0528 16.2079C36.021 16.2033 35.9868 16.1985 35.9541 16.1937ZM45.4932 40.6833C45.1674 41.0057 44.8171 41.3197 44.4479 41.6267V39.0908C44.819 38.7859 45.1674 38.4746 45.4932 38.1577V40.6833ZM41.7313 40.9675C42.1651 40.7144 42.5778 40.4537 42.9728 40.1874V42.7342C42.576 43.004 42.1626 43.2662 41.7313 43.5192V40.9675ZM40.3731 41.7047C40.797 41.4913 41.2103 41.2672 41.6144 41.0344V43.5877C41.213 43.82 40.7991 44.044 40.3731 44.259V41.7047ZM39.0148 42.3417C39.4369 42.1575 39.8504 41.9635 40.2563 41.7616V44.3161C39.8524 44.5173 39.4392 44.7116 39.0148 44.8971V42.3417ZM43.0896 40.1075C43.5269 39.8083 43.9424 39.5022 44.3311 39.188V41.7236C43.9399 42.0433 43.5258 42.3539 43.0896 42.6547V40.1075ZM37.6564 42.8942C38.0769 42.7348 38.491 42.5676 38.8979 42.3919V44.9466C38.4926 45.1216 38.0792 45.29 37.6564 45.4502V42.8942ZM36.1463 43.4243C36.6174 43.2719 37.0827 43.111 37.5396 42.9397V45.4935C37.0843 45.6637 36.6203 45.8263 36.1463 45.9788V43.4243ZM47.9087 31.0497C47.9135 34.4902 45.5906 37.7363 41.3675 40.1906C37.0816 42.6812 31.3664 44.053 25.2748 44.053C19.1851 44.053 13.4565 42.6818 9.1444 40.1922C6.0532 38.4075 3.9642 36.2069 3.0393 33.8174C2.8672 32.4427 2.7245 31.0315 2.6238 29.6054C2.6674 29.3669 2.7223 29.13 2.7883 28.8945C2.9241 29.1799 3.0825 29.4625 3.2641 29.7415C3.3366 31.3084 3.8379 32.7852 5.6178 34.6978C6.4928 35.638 9.9382 39.1507 16.7221 41.0535C16.7221 41.0535 28.8124 44.7635 39.8192 39.0388C39.9615 38.965 40.0986 38.881 40.2373 38.7996C45.0977 35.975 46.9823 33.4353 46.9637 31.1875V28.5411C46.9639 28.5329 46.9637 28.5245 46.9637 28.5163V28.4868C46.9637 28.4876 46.9634 28.4883 46.9634 28.489C46.9634 28.074 46.9088 27.6566 46.8023 27.2382C46.8039 27.2248 46.8053 27.2115 46.8069 27.1981C46.8119 27.1526 46.8158 27.1073 46.8196 27.062C47.5337 28.3357 47.9068 29.6773 47.9087 31.0497ZM48.1852 30.9118C48.1838 30.841 48.1829 30.77 48.1797 30.6992C48.1697 30.4862 48.151 30.2735 48.1237 30.0609C48.0962 29.8484 48.06 29.6363 48.0151 29.4245C47.9476 29.107 47.8604 28.7905 47.7535 28.4758C47.6645 28.2137 47.5617 27.9527 47.4452 27.6933C47.3287 27.4339 47.1987 27.1761 47.0549 26.9203C47.0116 26.8434 46.9657 26.7667 46.92 26.69C47.6186 24.7613 47.5589 23.0269 47.3129 21.7547C47.3054 21.7155 47.2804 21.6816 47.2451 21.6625L44.6106 20.2382C43.5174 19.2439 42.0677 18.333 40.2909 17.5411C40.2559 17.5254 40.2159 17.5268 40.1822 17.5445C40.1483 17.562 40.1244 17.5943 40.1171 17.6317C40.001 18.2344 39.8381 19.0732 39.4822 20.0564L34.9471 17.4806C36.276 17.6812 37.0711 17.8881 37.0863 17.8922C37.1091 17.8983 37.1319 17.9011 37.1546 17.9011C37.2581 17.9011 37.3551 17.8403 37.3985 17.7416C37.4197 17.6929 37.4204 17.5677 37.4208 17.5554L37.4422 16.9128C37.4452 16.8223 37.4015 16.7396 37.3307 16.6887C37.331 16.6887 37.0984 16.5451 36.9805 16.4732C36.9444 16.4513 36.9082 16.4293 36.8722 16.4074C36.7883 16.3565 36.7041 16.3057 36.6196 16.2548C36.578 16.2301 36.5364 16.2051 36.4947 16.1801C36.4112 16.1301 36.3272 16.0804 36.243 16.0306C36.2041 16.0076 36.1654 15.9848 36.1265 15.9617C36.0107 15.8938 35.8946 15.826 35.7775 15.7584C35.7716 15.755 35.7658 15.7516 35.7599 15.748C35.6359 15.6765 35.5112 15.6055 35.3858 15.5345C35.3519 15.5154 35.3178 15.4963 35.2837 15.4772C35.1915 15.4253 35.0989 15.3736 35.0058 15.322C34.9649 15.2993 34.9239 15.2769 34.883 15.2544C34.792 15.2044 34.7007 15.1547 34.609 15.1052C34.571 15.0847 34.533 15.064 34.4948 15.0437C34.3748 14.9791 34.254 14.9152 34.1327 14.8516C34.1248 14.8475 34.117 14.8433 34.1091 14.8392C33.9775 14.7704 33.8451 14.7024 33.712 14.6348C33.6803 14.6187 33.6485 14.6029 33.6167 14.5868C33.5159 14.536 33.4148 14.4855 33.3131 14.4353C33.2724 14.4154 33.2316 14.3954 33.1909 14.3754C33.093 14.3278 32.9947 14.2803 32.8958 14.2332C32.858 14.2152 32.8202 14.1972 32.7822 14.1792C32.6595 14.1212 32.536 14.0637 32.4118 14.007C32.3999 14.0015 32.3879 13.9959 32.3758 13.9904C32.2365 13.9269 32.0962 13.8643 31.9553 13.8026C31.9277 13.7904 31.9 13.7787 31.8723 13.7665C31.7735 13.7237 31.6743 13.6812 31.575 13.6391C31.5752 13.6391 31.5748 13.6391 31.575 13.6391C31.5008 13.5089 31.4256 13.3755 31.35 13.259C28.2706 8.51248 23.4299 2.46188 17.8551 0.591681C14.7984 -0.433819 11.7988 -0.125119 8.9399 1.50878C5.0815 3.71438 2.4367 7.25388 1.0789 12.0294C-0.00170362 15.8303 -0.272304 20.418 0.274896 25.6654C0.721596 29.9508 1.6494 33.9866 2.4965 37.0345C2.499 37.0436 2.5015 37.0525 2.504 37.0615C2.5389 37.1869 2.5741 37.3137 2.6085 37.4357C2.6363 37.5339 2.6747 37.6322 2.7164 37.7297C3.607 40.187 5.703 42.5287 9.0066 44.436C18.0114 49.6349 32.5636 49.633 41.5099 44.434C45.9233 41.8692 48.1471 39.1239 48.1879 35.7624L48.1881 35.752C48.1888 35.6855 48.189 35.6191 48.1881 35.5527V30.9118H48.1852Z" fill="#4BBDCF"/>
</svg>
