<svg width="54" height="38" viewBox="0 0 54 38" fill="none" xmlns="http://www.w3.org/2000/svg">
<path d="M45.9237 24.2835L45.9253 24.281L45.9387 24.2708L45.9237 24.2835Z" fill="#4BBDCF"/>
<path d="M48.097 8.67802L48.1355 8.66322L48.3362 8.58572C48.3362 8.58572 48.3229 8.55832 48.3004 8.50852C48.2308 8.35562 48.0726 7.99062 47.9347 7.54992C47.8872 7.39812 47.8422 7.23742 47.8041 7.07332C47.7686 6.92132 47.7391 6.76662 47.7191 6.61332C47.6863 6.36232 47.6794 6.11602 47.7129 5.89302C47.748 5.89422 47.7821 5.89082 47.8167 5.88602C47.8522 5.88122 47.8849 5.87322 47.9172 5.86212L47.9359 5.8559C47.9549 5.84971 47.9739 5.84353 47.9901 5.83412C48.004 5.82612 48.0155 5.81712 48.0267 5.80822C48.0352 5.80141 48.0415 5.7941 48.0477 5.78683L48.054 5.77952C48.3996 6.21572 49.4575 7.08732 50.0319 7.54852L50.0565 7.58567C50.078 7.61811 50.0995 7.65059 50.1201 7.68322C50.1288 7.69703 50.1376 7.71083 50.1465 7.72462C50.1586 7.74358 50.1708 7.76253 50.1825 7.78152C50.1975 7.80612 50.2123 7.83072 50.2271 7.85542C50.2356 7.86967 50.2437 7.88396 50.2519 7.89824L50.2701 7.92992C50.3188 8.01312 50.3662 8.09662 50.4114 8.18042C50.2824 8.15242 50.1315 8.16762 50.0271 8.22772C49.9902 8.24912 49.9632 8.27412 49.9454 8.30062L49.9445 8.30249L49.9436 8.30422L49.9427 8.30352C49.8655 8.44142 49.7081 8.58252 49.5133 8.71812L49.4994 8.72784C49.4928 8.73252 49.4862 8.73723 49.4792 8.74182C49.2669 8.88562 49.0138 9.02242 48.7701 9.14162C48.7018 9.17482 48.6343 9.20672 48.5687 9.23712L48.7485 9.50502C48.844 9.63852 48.9335 9.77352 49.0199 9.90962L49.2125 10.1965L49.3387 10.453C49.4246 10.6138 49.504 10.7759 49.5775 10.9392L49.7586 11.3076L49.7352 11.3133L49.6271 11.3392L49.5399 11.36L49.5312 11.3622L49.5092 11.3673L49.5025 11.351L49.494 11.3308L49.4876 11.3149C49.3966 11.0883 49.2932 10.8641 49.1777 10.642L49.1717 10.6307C48.8472 10.0092 48.4279 9.40782 47.9188 8.83802L47.9305 8.83352L48.1855 8.73502L48.1677 8.72359L48.1301 8.69912C48.1193 8.69212 48.1084 8.6851 48.097 8.67802Z" fill="#4BBDCF"/>
<path d="M9.835 18.3316C10.0483 17.699 10.5484 16.9653 11.229 16.2012C12.7208 14.5264 15.0814 12.7054 17.2 11.4822C20.7358 9.44092 26.1643 7.05872 32.2424 7.05872C32.4695 7.05872 32.6982 7.06192 32.9269 7.06872C34.9742 7.12962 37.9877 7.53522 40.7187 9.12232C40.8229 9.18282 40.9249 9.24772 41.0261 9.31462C41.6483 9.72652 42.2092 10.2551 42.664 10.8631C43.3899 11.8338 43.845 13.0048 43.8539 14.217C43.6544 14.0133 43.4375 13.8156 43.199 13.626L42.9797 13.4517L37.165 9.97362C36.3015 9.45792 35.3167 9.13282 34.3177 9.03362C32.0888 8.80832 29.7544 9.30352 27.8835 10.3755L27.5911 10.5434L27.5918 10.545C27.0454 10.8624 25.5725 11.718 21.5393 14.0615L13.1052 18.9618C12.6789 19.2096 12.2824 19.4921 11.9174 19.8043C11.1887 20.4277 10.5878 21.172 10.1404 22.0117C9.9063 21.6131 9.7381 21.2032 9.6377 20.7864C9.4452 19.9868 9.5017 19.1632 9.828 18.3506L9.835 18.3316Z" fill="#4BBDCF"/>
<path d="M42.755 14.1846L42.5543 14.0249L36.7989 10.5862C36.025 10.124 35.1424 9.83252 34.2465 9.74362C32.1773 9.53462 30.019 9.98752 28.2824 10.9696L28.2394 10.9944C28.0725 11.0909 27.1881 11.6047 21.8977 14.6786L13.4638 19.5787C12.1895 20.3192 11.2072 21.3925 10.6066 22.6855C11.1803 23.3996 11.9756 24.064 12.9777 24.6461C13.1486 24.7455 13.3309 24.8449 13.5223 24.9433L13.5257 24.9187C13.5304 24.8853 13.535 24.8518 13.5414 24.8213C13.5817 24.6267 13.6463 24.4267 13.7336 24.2269C14.0274 23.5527 14.5403 22.9886 15.2168 22.5954L29.971 14.0231C31.0958 13.3784 32.5169 13.0754 33.8949 13.2148C34.2899 13.2542 34.6734 13.3807 35.0095 13.5816L40.5835 16.9157C40.6743 16.9878 40.9792 17.2407 41.0882 17.4621C41.316 17.9253 41.4216 18.4319 41.4002 18.9368C42.1826 18.2023 42.8607 17.3802 43.3271 16.4551C43.5365 16.0392 43.678 15.6169 43.762 15.1943C43.4898 14.8398 43.154 14.5019 42.755 14.1846Z" fill="#4BBDCF"/>
<path d="M34.6436 14.1942L40.1569 17.4884C40.2845 17.5924 40.4202 17.7271 40.4477 17.7772C40.6402 18.1683 40.7208 18.5989 40.68 19.0335C40.6744 19.0883 40.6239 19.3243 40.5985 19.4433L40.5972 19.4492C40.5835 19.5132 40.569 19.5871 40.5629 19.6613C40.0888 20.0423 39.5933 20.3975 39.0953 20.7292L30.4746 15.7557L16.4618 23.8992L21.0767 26.5614C18.0417 26.5875 15.7523 25.9681 14.1046 25.2243L14.2127 25.2275C14.2156 25.1271 14.2249 25.0393 14.24 24.9665C14.2704 24.8197 14.3201 24.6668 14.3877 24.512C14.6172 23.9857 15.0389 23.5242 15.5754 23.2125L30.3278 14.6413C31.167 14.1603 32.201 13.8954 33.2396 13.8954C33.2557 13.8954 33.2719 13.896 33.2882 13.8966L33.2988 13.897C33.3091 13.8973 33.3194 13.8976 33.3297 13.8977C33.4944 13.9004 33.6605 13.9084 33.8298 13.9255C34.1156 13.9539 34.3969 14.0469 34.6436 14.1942Z" fill="#4BBDCF"/>
<path d="M37.3935 20.6131L34.893 22.066L29.4258 18.9093L31.926 17.4565L30.4739 16.6126L24.6286 20.0094L26.6117 21.1602C26.9952 20.9863 27.4466 20.8701 27.9235 20.8232C28.8606 20.7308 29.8248 20.9094 30.5037 21.3013C31.2476 21.7311 31.5823 22.3662 31.399 23.0006C31.3284 23.243 31.1819 23.4728 30.9705 23.6757L32.126 24.3273C33.2703 23.9049 34.3514 23.4364 35.3561 22.9251C35.755 22.7223 36.1423 22.5128 36.5164 22.2968C37.1039 21.9577 37.747 21.5862 38.4014 21.1766L38.3707 21.1593L37.3935 20.6131Z" fill="#4BBDCF"/>
<path d="M36.6161 20.1651L32.702 17.9053L30.9769 18.9075L34.8913 21.1675L36.6161 20.1651Z" fill="#4BBDCF"/>
<path d="M30.5603 22.7125C30.5869 22.4221 30.3777 22.1257 29.9861 21.8997C29.5442 21.6444 28.9267 21.5104 28.2911 21.5308C28.0055 21.54 27.722 21.5823 27.4639 21.6526L30.2326 23.2513C30.4301 23.0866 30.5429 22.902 30.5603 22.7125Z" fill="#4BBDCF"/>
<path d="M26.868 23.4143C26.6142 23.2676 26.4345 23.0908 26.3485 22.9033C26.2183 22.6192 26.318 22.3175 26.6217 22.0633L29.3915 23.6626C28.9225 23.792 28.3841 23.8219 27.863 23.7431C27.4842 23.6851 27.1401 23.5715 26.868 23.4143Z" fill="#4BBDCF"/>
<path d="M26.3496 24.0125C26.8645 24.3095 27.5422 24.487 28.2583 24.5123C28.9792 24.5378 29.6793 24.4098 30.243 24.153L31.1562 24.6683C29.7075 25.1549 28.1682 25.5694 26.5612 25.904L21.9592 23.2473L19.4882 24.7077L18.0105 23.8553L23.8547 20.4591L25.8836 21.6365C25.5338 21.9703 25.3681 22.3699 25.4134 22.7827C25.4655 23.2573 25.7978 23.694 26.3496 24.0125Z" fill="#4BBDCF"/>
<path d="M20.2646 25.157L22.5801 26.4979C23.4096 26.436 24.2874 26.3279 25.2163 26.1641C25.2496 26.1582 25.2826 26.152 25.3155 26.1457C25.3434 26.1404 25.3714 26.1351 25.3995 26.13L21.9641 24.1468L20.2646 25.157Z" fill="#4BBDCF"/>
<path d="M12.0825 13.7899C12.0031 14.0952 11.938 14.334 11.8848 14.521C12.1576 14.2666 12.4428 14.014 12.7368 13.7648L12.8366 13.6806C12.8598 13.661 12.883 13.6415 12.9063 13.622L12.936 13.5973L12.988 13.5543C12.9939 13.5494 12.9999 13.5445 13.0059 13.5396C13.0143 13.5327 13.0227 13.5258 13.0312 13.5189L13.0706 13.4866L7.874 12.2382L7.866 12.2362L7.798 12.2908L7.7161 12.375L7.7235 12.3768L8.1707 12.4842C8.3213 12.5893 8.543 12.7391 8.7607 12.869C8.8343 12.9129 8.907 12.9541 8.9764 12.9905C9.0989 13.0551 9.2108 13.1049 9.2937 13.1234C9.3208 13.1295 9.3539 13.1332 9.3894 13.1359C9.3041 13.4629 9.2352 13.7129 9.1808 13.902C9.1089 14.1519 9.0615 14.2973 9.0327 14.3786C9.4598 13.9309 9.9303 13.4816 10.4376 13.0374L10.4587 13.0339L10.8613 13.1306C11.1689 13.3387 11.763 13.7228 12.0434 13.784C12.0517 13.7858 12.0613 13.7871 12.0709 13.7884L12.0825 13.7899Z" fill="#4BBDCF"/>
<path d="M8.8989 18.997L8.8966 19.009L8.89053 19.0409C8.88747 19.0566 8.88442 19.0723 8.8818 19.088C8.7844 19.6671 8.8003 20.2472 8.9228 20.8172C8.5468 20.5498 8.044 20.0867 7.94 19.4806C7.9015 19.4901 7.8651 19.4976 7.834 19.5008C7.7104 19.5137 7.5053 19.484 7.2881 19.4398C7.04 19.3893 6.7777 19.3197 6.6004 19.2698L6.333 19.3001L6.2566 19.3089C6.2008 19.7165 6.1924 20.1231 6.2318 20.5259C6.2595 20.8065 6.3098 21.0854 6.3828 21.3617C6.2556 21.2884 6.0484 21.1574 5.8358 20.976C5.5063 20.695 5.1664 20.2929 5.0954 19.7977C5.0412 19.8128 4.9911 19.8242 4.9497 19.8285C4.8815 19.8355 4.7886 19.8296 4.6826 19.8155C4.4189 19.78 4.0757 19.6935 3.8291 19.6257L3.8274 19.6252C3.7906 19.6152 3.7564 19.6055 3.7244 19.5964L3.3969 19.6337L3.3938 19.6341C3.399 19.5797 3.4033 19.5475 3.4033 19.5475C3.40567 19.5303 3.40826 19.5138 3.41086 19.4972L3.4165 19.4605L3.8668 19.4093L3.8693 19.4091L8.9317 18.8339C8.92765 18.8519 8.9242 18.8698 8.92075 18.8877L8.9141 18.9215C8.9089 18.9467 8.9037 18.9719 8.8989 18.997Z" fill="#4BBDCF"/>
<path d="M41.2978 8.63992C41.3581 8.67812 41.4173 8.71782 41.4765 8.75802C41.6571 8.73502 41.8287 8.70232 41.9188 8.65632C41.923 8.65412 41.9278 8.65112 41.9325 8.64814C41.9355 8.64626 41.9385 8.64439 41.9413 8.64272C43.1549 9.44712 44.7268 9.55602 45.2224 9.56972C44.5996 8.86772 43.8271 8.23332 42.918 7.70512L42.9756 7.67122L43.1251 7.58482L43.1581 7.58362C43.2384 7.58022 43.3342 7.57482 43.4336 7.56702C43.6593 7.54902 43.9017 7.51692 44.0143 7.45942C44.0309 7.45092 44.0489 7.43932 44.0673 7.42712C45.1277 8.25452 46.8887 8.47992 47.5578 8.53702C47.5772 8.53861 47.5957 8.54008 47.6132 8.54145C47.6244 8.54232 47.6352 8.54314 47.6456 8.54392C46.9192 7.79272 46.0341 7.10212 45.0017 6.50142L45.2231 6.37352L45.1877 6.35113C45.1728 6.34159 45.1578 6.33204 45.1421 6.32232L45.1186 6.30522C45.1063 6.29642 45.0886 6.28392 45.0656 6.26822L45.0592 6.27202L42.7592 7.59982L42.7442 7.60862L41.1324 8.53912C41.152 8.55066 41.1713 8.56254 41.1906 8.57442L41.215 8.58942L41.243 8.60638C41.2614 8.61742 41.2797 8.62847 41.2978 8.63992Z" fill="#4BBDCF"/>
<path fill-rule="evenodd" clip-rule="evenodd" d="M53.6383 19.2187C53.6362 19.1611 53.6035 19.1044 53.5418 19.0558V14.1657C53.5388 14.1083 53.4982 14.0514 53.421 14.0082C53.3428 13.9647 53.1414 13.9445 53.1414 13.9445C53.1414 13.9445 53.1498 13.7033 53.1491 13.5829C53.1477 13.3524 53.1347 13.1221 53.11 12.8919C53.0854 12.662 53.0494 12.4324 53.0016 12.2033C52.9206 11.8141 52.8019 11.4271 52.6537 11.0434L52.5995 10.6974L52.2972 10.2493C52.0079 9.68702 51.6475 9.13452 51.2104 8.59772C50.8643 7.78492 50.3657 6.99672 49.7242 6.24762C48.7983 5.16652 47.5748 4.16692 46.0752 3.29552C41.6484 0.723123 35.3095 -0.450177 29.1206 0.157423C22.888 0.684023 16.6561 2.59022 11.5732 5.52492C8.0983 7.53102 5.4241 9.88202 3.7823 12.3296C3.1809 13.2263 2.7179 14.1358 2.4054 15.0463L1.4991 16.7696L1.4349 16.8844H1.4388L1.1055 17.5179L0.6626 19.342L0.595 19.5834C0.4601 19.5613 0.3101 19.5787 0.2064 19.6412C0.1356 19.6838 0.1006 19.7382 0.0985 19.7932H0.0972V24.4012C0.0974 24.4342 0.0978 24.5688 0.0976 24.6824C0.0334 24.7325 0.0004 24.7914 0.0007 24.8508L0 25.4352C0.0004 25.5095 0.0507 25.5837 0.1506 25.6393C0.2865 25.715 0.4774 25.7353 0.6444 25.7034C0.6322 27.0628 1.0215 28.4227 1.8143 29.7177C2.0821 30.1554 2.3959 30.5855 2.7556 31.0056C2.759 31.0029 2.7629 31.0004 2.7664 30.9978L2.7663 31.0185C2.7663 31.1 2.7661 31.1663 2.7661 31.1663C2.7661 31.167 2.76659 31.1676 2.76679 31.1683C2.76699 31.169 2.7672 31.1698 2.7672 31.1705C2.7693 31.2286 2.8086 31.2862 2.8865 31.3298C2.9465 31.3633 3.0208 31.3794 3.097 31.3865C3.1388 31.3904 3.1793 31.3908 3.2208 31.3869V26.3351L3.23814 26.3336C3.26147 26.3317 3.28477 26.3297 3.3068 26.3244C3.3866 26.404 3.4674 26.4832 3.5509 26.5618V27.4055C3.9516 27.7905 4.3931 28.1651 4.8767 28.5269C5.393 28.9132 5.9548 29.2855 6.5657 29.6403C7.0834 29.9413 7.6221 30.2224 8.1795 30.484C8.7368 30.7457 9.3127 30.9876 9.9041 31.2099C10.1424 31.2994 10.385 31.3836 10.6284 31.467V32.2662C10.4089 32.1911 10.1906 32.1145 9.9751 32.0343C8.7664 31.5842 7.6214 31.0532 6.5657 30.4395C5.9438 30.0783 5.372 29.699 4.8482 29.3051C4.518 29.0569 4.2083 28.8027 3.9171 28.5435C3.7914 28.4315 3.6693 28.3186 3.5509 28.2047V28.5383C3.6692 28.6561 3.7915 28.7726 3.9171 28.888C4.2045 29.1522 4.5101 29.4104 4.835 29.6617C5.405 30.1026 6.0319 30.5229 6.7134 30.9189C7.7103 31.4982 8.8053 32.0109 9.9751 32.4524C10.1897 32.5336 10.4087 32.6103 10.6284 32.6867V33.2861C10.4079 33.2117 10.1907 33.1341 9.9751 33.0549C8.717 32.5928 7.5392 32.0526 6.4748 31.4341C6.1894 31.2682 5.91 31.0955 5.621 30.9059C5.3393 30.7165 5.0694 30.5214 4.8106 30.3231C4.4959 30.0817 4.1976 29.8342 3.9171 29.5809C3.7912 29.4673 3.6697 29.3522 3.5509 29.2362V29.8917C3.6693 30.0089 3.7914 30.125 3.9171 30.2399C4.1904 30.4897 4.4798 30.7341 4.7867 30.9722C5.362 31.4186 5.9957 31.8439 6.685 32.2446C7.6899 32.8285 8.7949 33.3443 9.9751 33.7881C10.1899 33.8689 10.4086 33.9462 10.6284 34.0222V34.6211C10.4079 34.5469 10.1907 34.4698 9.9751 34.3909C8.9939 34.032 8.0603 33.6263 7.1929 33.1714C6.9387 33.0381 6.6896 32.9009 6.4465 32.7598C6.1643 32.5957 5.877 32.418 5.5928 32.2314C5.52833 32.1881 5.46455 32.1437 5.4014 32.0996L5.3875 32.0899C5.1722 31.9404 4.9636 31.7884 4.7624 31.6336C4.4655 31.4052 4.1833 31.1715 3.9171 30.9325C3.7912 30.8194 3.6699 30.7048 3.5509 30.5894V31.1184L3.642 31.2085V31.7385C3.64273 31.7482 3.64149 31.7578 3.64024 31.7673L3.6394 31.774C3.6386 31.7795 3.6381 31.7854 3.6381 31.7907L3.6797 31.8163C3.9888 32.1367 4.3357 32.4521 4.7208 32.7625C5.3276 33.2518 6.0283 33.7292 6.8283 34.1942C8.0102 34.881 9.2508 35.441 10.531 35.8856V36.156C10.5313 36.2304 10.5818 36.3044 10.6815 36.3601C10.8621 36.4607 11.1397 36.4645 11.3286 36.3755V35.7912C11.1395 35.88 10.8621 35.8765 10.6817 35.7758C10.5818 35.7202 10.5322 35.646 10.5317 35.5718C10.5313 35.5122 10.5645 35.4533 10.6287 35.4032L10.6284 35.5718C10.6284 35.5725 10.6289 35.573 10.629 35.5737L10.6293 35.5748L10.6294 35.5759C10.6316 35.634 10.6708 35.6916 10.749 35.7354C10.7837 35.7546 10.8242 35.768 10.866 35.7785L10.8742 35.7807L10.8852 35.7835L10.8924 35.7851C10.9315 35.793 10.9723 35.7969 11.0132 35.7974C11.0234 35.7976 11.0335 35.7972 11.0437 35.7967L11.0506 35.7964L11.06 35.7961L11.065 35.7961C11.0711 35.7961 11.0772 35.796 11.0831 35.7955V30.7628C11.122 30.7755 11.1611 30.788 11.2 30.8005C11.2426 30.8143 11.2856 30.8274 11.3286 30.8405L11.3298 30.8409C11.3575 30.8494 11.3854 30.8579 11.4131 30.8665V31.7206C14.2831 32.605 17.4416 33.0658 20.6145 33.0974L20.6187 33.0975L20.6268 33.0977C20.7307 33.0988 20.8346 33.0978 20.9384 33.0967C20.9924 33.0962 21.0464 33.0957 21.1003 33.0954V33.8946C17.7649 33.9071 14.4295 33.4493 11.4131 32.5199V32.9445C14.3655 33.8686 17.6984 34.3658 21.1003 34.3651V34.9004L21.0533 34.9008L21.0186 34.9012C20.9871 34.9016 20.9547 34.902 20.9231 34.902C17.5908 34.902 14.3237 34.4243 11.4131 33.5389V34.2789C14.3658 35.1994 17.698 35.6931 21.1003 35.6904V36.2258C21.0696 36.226 21.0389 36.2264 21.0081 36.2267C20.9703 36.2272 20.9325 36.2277 20.8947 36.2277C17.5731 36.2277 14.3166 35.7527 11.4131 34.8728V35.5607L11.5098 35.5596V36.1441C11.5109 36.1594 11.5086 36.1748 11.5056 36.1901C11.5053 36.1914 11.5053 36.1926 11.5053 36.1939C11.5053 36.1954 11.5052 36.1969 11.5048 36.1983C11.8106 36.2896 12.1184 36.3742 12.4275 36.4531C15.1392 37.1784 18.0701 37.5406 21.003 37.5379V37.539C21.0034 37.6132 21.0539 37.6874 21.1536 37.7431C21.3341 37.8437 21.6116 37.8473 21.8007 37.7584V37.174C21.6431 37.248 21.4253 37.2573 21.2519 37.2C21.2173 37.1886 21.1838 37.1754 21.1536 37.1586C21.0539 37.103 21.0034 37.0288 21.003 36.9545L21.1004 36.9533V36.9545C21.1006 37.0139 21.1409 37.0735 21.2209 37.1181C21.3136 37.1697 21.4374 37.1861 21.5552 37.1752V32.2237L21.6077 32.2231L21.6444 32.2229C21.6763 32.2227 21.7083 32.2225 21.7404 32.2219C21.767 32.2214 21.794 32.2206 21.8208 32.2198C21.8423 32.2192 21.8638 32.2185 21.8852 32.218V33.0872C23.4221 33.0499 24.9944 32.9264 26.5798 32.7154C26.8064 32.6852 27.0331 32.6533 27.2601 32.6196C28.3979 32.4507 29.5405 32.2376 30.6793 31.9816L31.2971 31.6227L31.2969 31.7039L30.8714 31.9601L30.8705 32.3017C30.964 32.3538 31.0709 32.3925 31.184 32.4189L31.1838 32.4715C31.1837 32.4733 31.1841 32.475 31.1845 32.4767C31.1848 32.4778 31.1851 32.479 31.1852 32.4801L31.185 32.4863L30.6793 32.7809C27.723 33.4454 24.7423 33.8172 21.8852 33.8864V34.3604C24.7575 34.2991 27.7146 33.9337 30.6793 33.2738C30.694 33.2706 30.7087 33.2676 30.7235 33.2645C30.7377 33.2616 30.7525 33.2585 30.7667 33.2554L30.6959 33.2979V33.3387L30.6955 33.4083V33.4436L30.695 33.6393L30.7157 33.6515L30.7761 33.6866L30.7642 33.7373L30.7149 33.7483L30.7013 33.7511C30.694 33.7526 30.6866 33.7541 30.6793 33.7558C27.682 34.4268 24.6511 34.8152 21.8852 34.888V35.6849C24.7025 35.6221 27.6597 35.2487 30.6793 34.5716L30.7082 34.5656C30.7289 34.5608 30.7515 34.5665 30.7674 34.5809C30.7817 34.5938 30.7884 34.6121 30.7884 34.6309L30.7182 34.6732L30.6959 34.6865L30.6953 34.8805L30.695 35.0282L30.7371 35.0526C30.7285 35.071 30.7146 35.0863 30.6939 35.091L30.6793 35.094C27.738 35.7543 24.7068 36.1376 21.8852 36.2127V36.9437L21.9345 36.9429H21.9382L21.9817 36.9424V37.5254C24.8147 37.4501 27.7676 37.0767 30.696 36.4174L30.8705 36.5189C31.063 36.6261 31.3113 36.6786 31.5586 36.6782L31.5635 36.678C31.5666 36.6784 31.5697 36.6788 31.5725 36.6787C31.8244 36.6762 32.0744 36.6181 32.2626 36.5048C32.4453 36.3947 32.5362 36.2532 32.5368 36.1114L32.5371 35.9651C34.821 35.3541 37.0706 34.5688 39.2157 33.6154V33.6206C39.2179 33.622 39.2198 33.6234 39.2218 33.6249C39.224 33.6266 39.2264 33.6284 39.2291 33.6299C39.4073 33.7292 39.6824 33.7301 39.8654 33.6386L39.8654 33.6399L39.87 33.6377L39.8746 33.6355L39.8731 33.6361L39.87 33.6377C39.8683 33.6382 39.8668 33.638 39.8654 33.6386V33.0715L39.8771 33.066C39.8813 33.0641 39.886 33.0619 39.8901 33.0599C39.8934 33.0582 39.8966 33.0564 39.8997 33.0545C39.9616 33.0174 40.0003 32.9726 40.0183 32.9257C40.0242 32.91 40.0278 32.8942 40.0292 32.8783L40.0317 32.8776V33.2408C41.0241 32.7739 41.9923 32.271 42.9277 31.7312C43.8798 31.1813 44.7659 30.6117 45.5878 30.0273L45.5914 30.03L45.596 30.0328C45.7739 30.132 46.0491 30.1339 46.2322 30.043V29.4744L46.2444 29.4686C46.252 29.4652 46.2596 29.4617 46.2664 29.4575C46.2891 29.4439 46.3089 29.4293 46.3257 29.4139C46.3699 29.3733 46.392 29.3274 46.396 29.2812L46.3984 29.2807V29.43C48.0683 28.1539 49.433 26.8155 50.4806 25.4584L50.4856 25.4588L50.4882 25.4588L50.4934 25.459L50.4965 25.4593C50.5641 25.4675 50.6322 25.4738 50.7009 25.4736V25.4709C50.9576 25.4711 51.2131 25.4158 51.4051 25.3002C51.5877 25.1903 51.6787 25.0487 51.6791 24.907L51.6802 24.5654C51.6801 24.5778 51.6774 24.59 51.6747 24.6021L51.6727 24.6115L51.6712 24.6194C51.6989 24.454 51.6051 24.2833 51.3851 24.1577C52.0327 23.1118 52.4922 22.063 52.7579 21.0314L52.7568 21.0307C52.8517 20.7126 52.9227 20.3928 52.9725 20.072L52.9727 20.0704C53.0237 20.0816 53.0769 20.089 53.1307 20.0902L53.0754 19.5034C53.2276 19.517 53.3882 19.4895 53.5027 19.4207C53.5243 19.4076 53.5423 19.3936 53.5585 19.3791L53.5621 19.3757L53.5677 19.37L53.5721 19.3655L53.5761 19.3615L53.5844 19.3524L53.5913 19.3442L53.5981 19.3354L53.6037 19.3277L53.6073 19.3223L53.6115 19.3156C53.6163 19.3072 53.6201 19.2986 53.6235 19.2901C53.6267 19.2822 53.6304 19.2746 53.6326 19.2667L53.6329 19.2656C53.6366 19.251 53.6386 19.2364 53.6383 19.2216V19.2187ZM46.3167 28.4764V29.2507C46.3167 29.2676 46.3121 29.2846 46.3057 29.3012C46.2934 29.3331 46.2686 29.3634 46.2322 29.3904C46.224 29.3964 46.2168 29.4029 46.2076 29.4086C46.1728 29.4294 46.1321 29.4444 46.0893 29.4559C46.0808 29.4581 46.0721 29.4596 46.0634 29.4611L46.0483 29.4637L46.0417 29.465L46.0296 29.4676C46.0171 29.4704 46.0046 29.4731 45.9917 29.4744C45.9901 29.4746 45.9885 29.4751 45.9867 29.4753V24.4255L45.9978 24.4173C46.0747 24.4089 46.149 24.3911 46.2074 24.3561L46.2092 24.3547C46.2837 24.3092 46.3192 24.2505 46.3162 24.1922C46.3161 24.1905 46.3157 24.1888 46.3152 24.1872L46.3147 24.185L46.3144 24.1834C46.5556 24.0022 46.7891 23.8193 47.0179 23.6356L48.3831 22.8476L49.4243 22.2463V22.7291L49.6414 22.8543V22.9089L46.3167 24.8344V25.5318L49.4243 23.7239V24.223L49.6327 24.3433L49.6733 24.3668V24.3684L50.269 24.0223C50.3386 24.0418 50.4103 24.0571 50.4845 24.0666C50.5357 24.0878 50.5923 24.1006 50.652 24.1049L50.6587 24.1056L50.6715 24.1074C50.6813 24.1088 50.6909 24.1102 50.7009 24.1101C50.7042 24.1101 50.7074 24.1099 50.7106 24.1095L50.7196 24.1081L50.7295 24.1067L50.7343 24.1062C49.6409 25.6006 48.1619 27.0765 46.3167 28.4764ZM39.95 32.2648V32.8478C39.95 32.8647 39.9454 32.8817 39.9389 32.8983C39.9266 32.9302 39.9018 32.9605 39.8654 32.9875L39.8571 32.9939C39.8521 32.9979 39.847 33.0019 39.8408 33.0057C39.806 33.0265 39.7654 33.0415 39.7225 33.0529C39.7138 33.0553 39.705 33.0568 39.696 33.0583L39.6815 33.0608L39.6697 33.0632L39.6621 33.0648C39.6556 33.0663 39.6489 33.0678 39.6423 33.069L39.6352 33.0702L39.625 33.0715C39.6234 33.0717 39.6217 33.0722 39.62 33.0724V28.0975L39.7231 28.0506C39.7989 28.0161 39.8747 27.9816 39.95 27.9464C40.0961 27.8781 40.2413 27.8082 40.3863 27.7383L40.4065 27.7286V27.9625L40.6554 28.1063L39.95 28.5166V29.223L40.4065 28.9574V29.4564L40.6554 29.6002V29.6089L40.6631 29.6046L40.8573 29.7174L41.7144 29.2245V28.2053L44.9154 26.3408V26.8398L45.1645 26.9834V26.9886L45.1821 26.9784L45.3521 27.0771L45.532 26.9736V28.8002C45.5324 28.8596 45.5725 28.9192 45.6526 28.9638V28.9653C44.8123 29.5661 43.9053 30.1518 42.9277 30.7162C41.9666 31.2711 40.9712 31.787 39.95 32.2648ZM32.7592 34.8892C32.6481 34.9195 32.5369 34.9497 32.4258 34.9791C32.4968 34.8985 32.5364 34.8111 32.5368 34.7228L32.5377 34.3816C32.5376 34.3937 32.535 34.4058 32.5323 34.4178L32.5306 34.4259L32.5292 34.4325L32.5308 34.4238C32.5343 34.4045 32.5378 34.3852 32.5369 34.366L32.5367 34.3628L32.5361 34.3579C32.5356 34.3552 32.535 34.3525 32.5343 34.3498L32.5331 34.3449L32.5316 34.3391C32.531 34.3364 32.5304 34.3337 32.53 34.331C32.5205 34.2685 32.4968 34.207 32.4522 34.1487C32.4074 34.0901 32.3427 34.0357 32.2624 33.9869V33.7275C32.3278 33.6881 32.3775 33.6436 32.4196 33.5976L35.8975 31.574V32.0732L36.1465 32.2169V32.2498L36.1747 32.2334L36.3483 32.3342L37.2055 31.8412V30.8201L39.1652 29.6797V32.3973C39.1652 32.4021 39.1675 32.4071 39.1681 32.4119C39.1745 32.4665 39.2125 32.5199 39.2858 32.5607V32.5688C37.1893 33.5052 34.9917 34.2803 32.7592 34.8892ZM2.7661 27.3786C2.4014 26.9543 2.085 26.5197 1.8143 26.0778L1.80384 26.0608C1.77344 26.0112 1.74307 25.9617 1.7141 25.9119C1.4788 25.5086 1.2834 25.0991 1.1257 24.686C1.2707 25.1684 1.4677 25.6433 1.7142 26.1082C1.7469 26.1695 1.7801 26.2309 1.8143 26.2919C2.0801 26.765 2.3981 27.2271 2.7661 27.6761V28.3953C2.4022 27.9637 2.0848 27.5199 1.8143 27.066C1.7813 27.0107 1.7485 26.9554 1.7169 26.8997C1.3928 26.3287 1.1448 25.7426 0.9734 25.1462V24.8929L0.8831 24.8039L0.882 24.8001V23.1344C0.9191 23.2718 0.9598 23.4088 1.0046 23.5456C1.1974 24.132 1.467 24.7115 1.8143 25.2786C1.8304 25.305 1.84684 25.3312 1.86335 25.3575L1.8732 25.3732L1.8744 25.3751C2.1317 25.7838 2.428 26.186 2.7661 26.5793V27.3786ZM2.7661 29.755C2.4038 29.329 2.0873 28.8907 1.8165 28.4427L1.8143 28.4393C1.2763 27.5489 0.9248 26.6195 0.7646 25.6704C0.7925 25.6595 0.8187 25.6468 0.8429 25.6324C0.867 25.6178 0.8877 25.6021 0.9048 25.5856C0.9355 25.5564 0.9539 25.5241 0.9641 25.4913C1.1161 26.1783 1.369 26.8521 1.7237 27.5056C1.753 27.5596 1.7836 27.6133 1.8143 27.667C2.0814 28.135 2.3988 28.5924 2.7661 29.0366V29.755ZM11.8408 5.98842C16.857 3.09232 23.0099 1.21082 29.1693 0.690523C35.2534 0.0930231 41.473 1.23992 45.8062 3.75822C46.1255 3.94382 46.43 4.13572 46.723 4.33272C47.8453 5.08682 48.7696 5.92032 49.4862 6.80552C48.8946 6.30922 48.2956 5.77402 48.1698 5.54972L48.1514 5.51712L47.8039 5.36062L47.7768 5.36192C47.5024 5.37422 47.1941 5.10142 47.1911 5.09852L47.1654 5.08112C47.1443 5.07072 45.0662 4.03332 44.4516 3.32832L44.4321 3.30602L44.1119 3.19002L44.0853 3.19312C43.7282 3.23462 42.8035 3.13012 42.699 3.11782C42.5363 3.06922 40.3148 2.39692 39.8558 1.83612L39.8294 1.80402L39.2683 1.69792L39.2389 1.70862C38.7715 1.87842 37.6488 1.94192 37.5343 1.94802C37.3755 1.92912 35.2649 1.66862 34.6376 1.20662C34.5275 1.12582 34.0692 1.08292 33.9188 1.18502C33.7436 1.30382 32.7619 1.51702 32.1957 1.62192C32.176 1.62372 30.1976 1.77462 29.5247 1.31162C29.4042 1.22902 28.8824 1.25692 28.7752 1.40912C28.6091 1.64452 27.5346 1.95622 26.9016 2.09622C26.4778 2.16962 25.2877 2.29482 24.8777 1.99942C24.7389 1.89952 24.2355 1.99692 24.1077 2.14822C23.5716 2.78242 22.1828 2.95602 22.1689 2.95772L22.1384 2.96582C22.133 2.96812 21.5823 3.19042 20.6532 3.00022L20.632 2.99572L20.6107 2.99952C20.1109 3.08563 20.0705 3.14509 20.0464 3.1806C19.7342 3.6457 18.3963 4.08342 17.9228 4.20992C17.9153 4.21082 17.1742 4.29792 16.842 4.28082L16.8158 4.27932L16.4538 4.43282L16.4363 4.45292C16.14 4.79762 14.6606 5.48982 14.1141 5.72792C14.1111 5.72942 13.8149 5.86072 13.4776 5.81232C13.3827 5.79862 13.0575 5.88372 12.9804 5.96792C12.2579 6.75822 10.5429 7.55802 10.3481 7.64732C10.2881 7.65572 10.2302 7.66952 10.1833 7.69662C10.1522 7.71442 10.1292 7.73512 10.1117 7.75692L10.1105 7.75832C9.6844 8.22412 8.3024 9.22622 7.9599 9.47222L7.94015 9.48635L7.9047 9.51182L7.886 9.50912C7.8846 9.51092 7.8833 9.51292 7.8821 9.51482C7.7815 9.51092 7.6789 9.52912 7.6014 9.57372C7.5734 9.58992 7.5526 9.60852 7.5356 9.62792C7.534 9.62952 7.5324 9.63122 7.531 9.63292L7.5296 9.63202L7.485 9.67222C7.105 10.0135 6.1657 10.9349 5.6751 11.4184C5.5743 11.5177 5.4912 11.5998 5.4376 11.6528L5.3777 11.7122C5.37389 11.7134 5.37029 11.7149 5.36671 11.7164C5.3639 11.7175 5.36109 11.7187 5.3582 11.7197L5.3417 11.7259C5.33503 11.7287 5.32803 11.731 5.32107 11.7333C5.30987 11.737 5.29876 11.7406 5.2892 11.7461L5.2869 11.7479C5.2612 11.7629 5.2417 11.78 5.2257 11.7976L5.2241 11.7966L5.22258 11.7991L5.22095 11.8014L5.21898 11.8043L5.2178 11.8062C5.21395 11.8127 5.20953 11.8192 5.20513 11.8258L5.2002 11.8331L5.197 11.8383C5.1752 11.8704 5.1509 11.9027 5.1215 11.935C5.094 11.9653 5.0623 11.9957 5.0289 12.026L5.01975 12.0343C5.00446 12.0481 4.98918 12.062 4.9725 12.0758C4.861 12.1685 4.726 12.2604 4.5802 12.3485L3.9157 13.1128C4.6705 11.8731 5.7036 10.6532 6.982 9.48562C8.3379 8.24772 9.9697 7.06862 11.8408 5.98842ZM41.7144 27.5068V27.0692C41.9511 26.9443 42.1866 26.818 42.4196 26.689C42.6214 26.5774 42.8215 26.4641 43.0204 26.3494C43.6839 25.9663 44.3151 25.5735 44.9154 25.173V25.3459L44.9866 25.3869L45.1504 25.4815V25.4979L41.7144 27.5068ZM32.5036 32.8492C32.4629 32.7575 32.3825 32.6712 32.2624 32.5982V32.2878C32.371 32.2225 32.4433 32.1452 32.4874 32.0642L35.8975 30.0803V30.5792L36.1465 30.723L32.5036 32.8492ZM45.9046 24.2783C45.9009 24.2773 45.8971 24.2764 45.8922 24.2753C45.8798 24.2723 45.8636 24.2685 45.8443 24.2648C45.7858 24.253 45.697 24.2389 45.5841 24.2323L45.5532 24.2309L45.532 24.2298C45.4888 24.2284 45.4424 24.2286 45.3937 24.23H45.3926C44.9131 24.2443 44.1847 24.4225 43.5348 25.2192C43.4759 25.142 43.3516 24.9525 43.2764 24.661C43.2306 24.4824 43.2042 24.2662 43.2238 24.0134C43.2294 23.9442 43.237 23.8734 43.25 23.799C43.251 23.7931 43.2522 23.787 43.2535 23.7809C43.2554 23.772 43.2574 23.7629 43.2595 23.7538L43.2654 23.7272C43.307 23.7289 43.3475 23.7255 43.3879 23.7189C43.445 23.7094 43.4998 23.6946 43.5449 23.6686C43.5922 23.6413 43.6224 23.6081 43.6382 23.5733C43.6506 23.5465 43.6536 23.5189 43.6473 23.4916C43.64 23.4598 43.6208 23.429 43.5881 23.4015C43.576 23.391 43.5624 23.381 43.5465 23.3719C43.5277 23.3609 43.5053 23.3537 43.483 23.3465L43.4688 23.3419L43.4747 23.3401L43.6042 23.3899L43.8143 23.4711L45.5471 24.1385L45.5491 24.1392L45.6675 24.1848L45.6868 24.1922L45.8515 24.2557L45.8957 24.2726L45.9068 24.2769L45.9237 24.2835L45.9045 24.296C45.9103 24.2917 45.9166 24.2874 45.9225 24.2831L45.9196 24.2823L45.9046 24.2783ZM39.5557 27.9562L39.5502 27.9543L39.5419 27.9517L39.5258 27.9466C39.5195 27.9446 39.5111 27.9421 39.5029 27.9398C39.471 27.9304 39.4262 27.9179 39.3686 27.9039C39.3172 27.8915 39.2557 27.8783 39.1865 27.8654L39.1488 27.8585C38.8022 27.7978 38.2729 27.7564 37.707 27.8977C37.5181 27.9448 37.3254 28.0133 37.1338 28.1075C37.0059 27.8947 36.9568 27.6663 36.9481 27.4612C36.9465 27.4223 36.9461 27.3844 36.947 27.3477C36.9495 27.2408 36.9611 27.1441 36.9754 27.0628L36.9769 27.0534L36.979 27.0411L36.9802 27.0344C36.9952 26.955 37.0119 26.8931 37.023 26.8566C37.1215 26.8594 37.2212 26.8407 37.2965 26.7972C37.3762 26.7511 37.4098 26.6892 37.4005 26.6293C37.3966 26.6041 37.385 26.5795 37.3653 26.5563H37.3664C37.3664 26.5563 37.3966 26.5847 37.4619 26.6025C37.5006 26.5854 37.5396 26.5687 37.5787 26.5519C37.6292 26.5303 37.6797 26.5087 37.7293 26.4862L37.7343 26.4874L37.7455 26.49L37.8288 26.5626C37.8583 26.5522 37.8865 26.5431 37.9191 26.5285L37.9268 26.5351L38.0103 26.6081L39.2293 27.6704L39.3265 27.7553L39.539 27.9405L39.5557 27.9562ZM36.1465 29.6034L35.8356 29.7845L32.5373 31.7012L32.5377 31.5533C32.5376 31.5655 32.5349 31.5776 32.5323 31.5897L32.5306 31.5973L32.5287 31.607C32.5569 31.4393 32.4611 31.2659 32.2347 31.1396L31.9199 31.329L31.92 31.2605L33.4 30.4005C33.8286 30.2761 34.2557 30.1461 34.6806 30.0092C34.9056 29.937 35.1298 29.863 35.3537 29.7873C35.619 29.6974 35.8832 29.6046 36.1465 29.5101C36.2896 29.4587 36.4334 29.4064 36.5759 29.3536L36.5784 29.3527L36.1465 29.6034ZM39.7707 24.8497L39.7839 24.8574L39.7791 24.8858C39.7188 25.226 39.5322 25.5045 39.3078 25.7235C39.3467 25.7037 39.3857 25.6838 39.4246 25.6638C39.36 25.7098 39.2931 25.7557 39.2246 25.8006C38.7494 26.1126 38.2058 26.3881 38.0021 26.4882L37.3322 25.9046C38.1542 25.5714 38.9597 25.2142 39.7448 24.834C39.7538 24.8401 39.7623 24.845 39.7707 24.8497ZM35.7612 29.4626C35.7523 29.4592 35.7387 29.4544 35.721 29.4484C35.7005 29.4414 35.6745 29.4328 35.6429 29.4232C35.5517 29.3954 35.417 29.359 35.247 29.3272C34.8706 29.2571 34.3258 29.2118 33.721 29.3365C33.6134 29.3588 33.5041 29.3866 33.3933 29.4203C33.262 29.2016 33.2133 28.9663 33.2067 28.7569C33.2027 28.6363 33.2122 28.5248 33.2261 28.4301C33.2291 28.4088 33.2325 28.3887 33.2361 28.3692C33.2514 28.2838 33.2689 28.2167 33.2809 28.1762C33.3779 28.1781 33.476 28.1591 33.5501 28.1162C33.5745 28.1022 33.5933 28.0863 33.6093 28.0697C33.6596 28.0178 33.6691 27.9568 33.6373 27.9013H33.6386C33.6386 27.9013 33.736 27.9509 33.8842 27.9778L34.036 27.9278C34.1828 27.8795 34.3295 27.8312 34.4749 27.7807L34.5352 27.8656L34.5363 27.865C34.5562 27.8531 34.5761 27.8413 34.5959 27.8271L34.6836 27.9493L35.7544 29.4378L35.7701 29.4594L35.7763 29.4683L35.7612 29.4626ZM36.6956 26.5904L36.6924 26.5882C36.5522 26.8384 36.1404 27.104 35.7184 27.325C35.3007 27.5438 34.8742 27.7182 34.6902 27.7907L34.6414 27.7218L34.1616 27.0455C35.0925 26.7509 36.01 26.4273 36.9085 26.0745C36.9424 26.1164 36.975 26.1533 37.0064 26.1861C37.003 26.2154 36.9986 26.2441 36.9927 26.2723C36.9798 26.334 36.9616 26.3936 36.9383 26.4507C36.883 26.4605 36.83 26.4753 36.7861 26.5005C36.7413 26.5263 36.7122 26.5576 36.6956 26.5904ZM30.9727 28.83L30.6894 27.9912C31.7529 27.7471 32.8067 27.4647 33.8443 27.145C33.8832 27.2267 33.9226 27.3027 33.9609 27.3666C33.9476 27.4117 33.9315 27.4562 33.9106 27.4993C33.8452 27.6355 33.7442 27.7612 33.6205 27.8774C33.6034 27.8565 33.5815 27.8367 33.5519 27.8196C33.4108 27.7375 33.1817 27.7377 33.0397 27.8197C32.9986 27.8433 32.9708 27.8715 32.9535 27.9013H32.9521C32.8206 28.1359 32.462 28.3542 32.0827 28.5319C31.6499 28.7346 31.1913 28.8837 31.0097 28.9392L30.9727 28.83ZM42.114 23.5813L42.1197 23.5779C41.9975 23.9752 41.7499 24.2789 41.519 24.4904C41.9368 24.2362 42.3402 23.9786 42.7289 23.7181C42.5984 23.8473 42.396 24.0286 42.1045 24.2476L42.0945 24.2551C42.0656 24.2769 42.0368 24.2986 42.0059 24.3211C41.7336 24.5197 41.3897 24.7459 40.9647 24.9898L40.8897 25.0333C40.8767 25.0408 40.8636 25.0482 40.85 25.0558L40.887 25.0339L40.9628 24.9885L40.2593 24.5798C40.4693 24.474 40.6781 24.367 40.885 24.258C41.3012 24.0387 41.7115 23.8136 42.114 23.5813ZM40.85 25.0558L40.9344 25.1034L40.9703 25.1238L42.7334 26.1183L42.8754 26.1986L42.9 26.2124L42.9277 26.2281L42.9234 26.2263L42.9137 26.2225L42.8947 26.2154C42.887 26.2125 42.8783 26.2095 42.8679 26.2061C42.8246 26.1913 42.7593 26.1717 42.674 26.153C42.6519 26.1481 42.6287 26.1435 42.6041 26.1389C42.4861 26.1171 42.3395 26.1007 42.173 26.1016C41.7213 26.1041 41.1178 26.2382 40.51 26.76C40.416 26.6403 40.3514 26.5131 40.3097 26.3852C40.236 26.1603 40.2285 25.9348 40.2453 25.7517C40.2531 25.6645 40.2663 25.5883 40.2797 25.525C40.2849 25.5007 40.2899 25.4788 40.2949 25.4592C40.3011 25.4342 40.3068 25.4124 40.3118 25.3956C40.3496 25.3969 40.3864 25.3935 40.4231 25.388C40.4836 25.3789 40.5419 25.3641 40.5894 25.3368C40.6351 25.3104 40.6645 25.2784 40.6809 25.2449C40.6968 25.2124 40.7002 25.1784 40.6886 25.1455C40.6786 25.1172 40.6577 25.0902 40.6274 25.0658C40.6163 25.0569 40.6049 25.0479 40.591 25.0399C40.59 25.0393 40.5888 25.039 40.5877 25.0386L40.5862 25.0381L40.5846 25.0374C40.5987 25.0294 40.6131 25.0217 40.627 25.0137L40.6021 25.0066L40.6358 25.0089L40.6504 25.01L40.6629 25.0108L40.7071 25.0365L40.784 25.0811C40.7942 25.0786 40.805 25.0743 40.8159 25.07L40.8195 25.0685L40.8283 25.0652C40.8354 25.0625 40.8424 25.0599 40.85 25.0558ZM46.5774 16.2104C46.7893 15.7112 46.9231 15.1987 46.9863 14.682L47.3313 14.6429C47.6724 14.7355 48.3246 14.8986 48.5962 14.8704C48.6019 14.8698 48.6085 14.8686 48.6151 14.8674C48.6199 14.8665 48.6247 14.8656 48.6293 14.8649C48.7307 15.3778 48.8511 15.7884 48.9635 16.1008L48.966 16.1074C49.0802 16.4237 49.1852 16.6401 49.2525 16.7647L49.2575 16.7741C49.394 16.4687 49.5122 16.1624 49.6118 15.8555C49.7897 15.3573 49.8995 14.8522 49.9475 14.3457L50.1812 14.3191L50.1941 14.3177L50.1953 14.3036C50.2 14.253 50.2019 14.225 50.2019 14.225L50.6729 14.1725C50.661 14.2041 50.6488 14.2358 50.6365 14.2674L50.6202 14.3091C50.6076 14.3415 50.595 14.3739 50.5818 14.4064C50.5225 14.4469 50.4522 14.4902 50.3727 14.5347C50.3088 14.5702 50.2408 14.6062 50.1634 14.6419L50.0901 15.0338C50.0437 15.2821 49.9821 15.5271 49.909 15.7685L49.8808 15.8171C49.8689 15.8376 49.8568 15.8582 49.8446 15.8787C49.7352 16.0634 49.6195 16.2476 49.4978 16.4312C49.4211 16.5474 49.3417 16.6631 49.2602 16.7786L49.2457 16.7991L46.3085 16.7993C46.4059 16.6036 46.4975 16.4075 46.5774 16.2104ZM52.8148 14.02C52.7226 14.1393 52.616 14.3727 52.5215 14.8201C52.5003 14.9205 52.4797 15.032 52.4599 15.1551C52.4241 15.379 52.3913 15.6427 52.3633 15.9524C52.342 16.1881 52.3235 16.4507 52.3085 16.7429C52.3062 16.7896 52.3035 16.8346 52.3013 16.8829L52.3019 16.8811L52.3012 16.8842C52.2985 16.8837 52.2808 16.8804 52.2526 16.8811C52.2464 16.8813 52.24 16.8817 52.2328 16.8822C52.2268 16.8828 52.2202 16.8835 52.2132 16.8844C52.2039 16.8856 52.194 16.8874 52.1832 16.8895C52.142 16.8979 52.0912 16.9145 52.0329 16.9441C52.0184 16.9516 52.0034 16.9598 51.9879 16.9689C51.6791 17.1527 51.1951 17.7105 50.7849 19.3771L50.7732 19.4269C50.7621 19.4728 50.7511 19.5197 50.74 19.5673L50.725 19.631L50.7236 19.6367L50.7202 19.6364C50.7159 19.6361 50.705 19.6358 50.6893 19.636C50.6831 19.636 50.6762 19.6361 50.6684 19.6364C50.6613 19.6367 50.6535 19.637 50.6449 19.6376C50.6387 19.638 50.6318 19.6385 50.6249 19.6391L50.6139 19.6401C50.5684 19.6446 50.5099 19.6538 50.4412 19.671L50.435 19.6725C50.4257 19.6748 50.416 19.6772 50.4062 19.6799L50.3984 19.6822L50.3923 19.684C50.3445 19.6977 50.2927 19.7156 50.2374 19.7382C50.1118 19.7898 49.9693 19.8667 49.8178 19.9823C49.4798 20.2399 49.0992 20.6884 48.7726 21.4671C48.7453 21.532 48.7185 21.5991 48.6921 21.6685C48.6739 21.636 48.6531 21.5979 48.6286 21.5508C48.543 21.3852 48.4277 21.1356 48.3369 20.8427C48.2791 20.6556 48.2326 20.4509 48.2096 20.2397C48.1873 20.0369 48.1889 19.8285 48.2246 19.6228C48.3207 19.6244 48.4174 19.6051 48.4909 19.5627C48.5346 19.5375 48.5633 19.5072 48.5803 19.4751C48.5937 19.4498 48.5987 19.4235 48.5951 19.3973L49.3651 19.4838C49.7427 19.5361 50.1618 19.5791 50.4337 19.6048L50.4626 19.6075C50.4645 19.6076 50.4667 19.6078 50.4686 19.6082L50.4729 19.6085L50.469 19.6037C50.4664 19.6008 50.4639 19.5977 50.4614 19.5946L50.4576 19.5898L50.4488 19.5793C50.4319 19.5586 50.4155 19.5368 50.3998 19.5138C50.1486 19.1454 50.0672 18.49 50.0458 17.9631C50.0307 17.5885 50.0457 17.2806 50.0512 17.1871C50.1473 17.1887 50.2442 17.1694 50.3177 17.127C50.3928 17.0836 50.4273 17.0258 50.4232 16.9691C50.4214 16.9445 50.413 16.92 50.3962 16.8968L51.8455 16.9017C51.8455 16.9017 51.842 16.8952 51.8366 16.8858L51.8288 16.8712L51.8126 16.8412L51.7902 16.7991C51.718 16.6617 51.586 16.3941 51.4613 16.0634C51.3524 15.7745 51.2513 15.4406 51.2031 15.1052C51.1701 14.8759 51.1637 14.6476 51.196 14.4335C51.2292 14.434 51.2613 14.4296 51.2936 14.4249C51.3435 14.418 51.3897 14.4051 51.4316 14.3857C51.4359 14.3838 51.4406 14.3823 51.4453 14.3807C51.4517 14.3787 51.4581 14.3766 51.4636 14.3734C51.5622 14.3165 51.5911 14.2353 51.5533 14.1632C51.538 14.1343 51.5121 14.1068 51.4746 14.0833L51.8803 14.038L51.8846 14.0376L52.0853 14.0152L52.0825 14.01C52.0791 14.0036 52.0668 13.98 52.045 13.9365C51.9626 13.7716 51.7697 13.3626 51.6188 12.8793C51.7372 12.3576 51.794 11.8355 51.7902 11.3163C51.7956 11.3061 51.8 11.2958 51.8027 11.2853C51.8107 11.2532 51.8059 11.2203 51.7881 11.1893C51.7865 11.1254 51.7835 11.0616 51.7799 10.9979C51.7792 10.9854 51.7788 10.9727 51.7783 10.9601C51.7778 10.9439 51.7772 10.9276 51.7761 10.9115C51.775 10.8951 51.7734 10.8788 51.7718 10.8624C51.7707 10.8503 51.7695 10.8382 51.7685 10.8261C51.7556 10.6664 51.7365 10.5073 51.7125 10.3487C51.6705 10.0738 51.6113 9.80062 51.5364 9.52932L52.3818 10.7831L52.8779 13.9538C52.8578 13.9709 52.8369 13.9914 52.8148 14.02ZM47.7637 22.0535C47.7195 22.063 47.6738 22.0754 47.6276 22.0899C47.5254 22.122 47.4187 22.1673 47.3094 22.2292C47.1631 22.312 47.0123 22.4249 46.8621 22.5773C46.6521 22.7903 46.4438 23.0811 46.2502 23.4732C46.1894 23.3729 46.1118 23.2295 46.0422 23.054C45.9562 22.8372 45.8836 22.5712 45.869 22.277L45.8684 22.2681L45.8679 22.2614C45.8674 22.2549 45.8668 22.2484 45.8666 22.2417C45.862 22.0995 45.8736 21.9506 45.902 21.7979C46.0015 21.8012 46.1027 21.7829 46.1788 21.7388C46.2283 21.7104 46.2595 21.6755 46.2746 21.6389C46.2812 21.6232 46.2855 21.6071 46.2857 21.5909L47.1889 21.7932C47.388 21.8437 47.6285 21.9006 47.9172 21.9643L48.0536 21.994L48.1858 22.0225C48.1023 22.0166 48.0069 22.0176 47.9029 22.0301C47.8579 22.0355 47.8116 22.043 47.7637 22.0535ZM46.9724 20.1491L47.1725 19.9223C47.1863 19.9097 47.1996 19.897 47.2132 19.8843C47.3939 19.7166 47.5707 19.5482 47.7414 19.3784L47.7737 19.3821C47.7953 19.3543 47.8148 19.3295 47.8296 19.3111L47.9141 19.3206C47.8938 19.344 47.8815 19.3688 47.877 19.3941L47.8769 19.3959C47.8456 19.428 47.7491 19.5218 47.5757 19.6364L47.5739 19.6383L45.9334 21.3816L45.9289 21.3811L45.5512 21.2903C45.7105 21.167 45.8675 21.043 46.0215 20.9183C45.964 21.0512 45.9225 21.1167 45.9225 21.1167L46.9724 20.1491ZM42.9932 23.0556C43.4525 22.7717 43.8959 22.482 44.3229 22.1873C44.2123 22.5015 44.0598 22.7239 43.934 22.867C44.5242 22.4265 45.0735 21.9787 45.5817 21.5247C45.5739 21.5383 45.5687 21.552 45.5657 21.5661C45.5657 21.5661 45.436 21.7495 44.8382 22.2587C44.5418 22.5111 44.1296 22.844 43.5597 23.2754L42.9932 23.0556ZM49.881 12.6813C49.813 12.2932 49.7076 11.9081 49.5688 11.5277L49.6985 11.4967L49.7939 11.4737L49.8278 11.4656C49.8091 11.4152 49.797 11.3857 49.797 11.3857L50.5969 11.1941C50.5766 11.1716 50.5575 11.1467 50.5393 11.1206C50.3448 10.8416 50.2667 10.3596 50.2428 9.88632C50.2337 9.71042 50.2321 9.53622 50.2348 9.37372C50.2405 9.03602 50.264 8.75132 50.277 8.61692L50.2801 8.58552C50.3732 8.58572 50.4665 8.56542 50.5377 8.52442C50.5512 8.51652 50.5623 8.50782 50.5732 8.49922C50.6959 8.75452 50.8023 9.01252 50.892 9.27242C51.0222 9.64922 51.1173 10.0302 51.1773 10.414C51.2053 10.5931 51.227 10.7727 51.2393 10.9527C51.2404 10.9692 51.2411 10.9857 51.2417 11.0021L51.2421 11.0141L51.2433 11.0391L51.2452 11.0862C51.2389 11.0887 51.2323 11.0909 51.2257 11.0931C51.2133 11.0971 51.201 11.1012 51.1903 11.1072C51.1664 11.1211 51.1478 11.1368 51.1319 11.1533C51.1214 11.1638 51.1125 11.1748 51.1055 11.1861C51.1045 11.1873 51.0399 11.2598 50.9034 11.3615C50.7321 11.4892 50.4467 11.6621 50.031 11.7985L50.0241 11.8009L49.9621 11.8211L49.9463 11.826L49.9475 11.8328L50.1709 12.9533L50.1777 12.9872L50.1779 12.9988L50.2005 14.1459L50.1927 14.1468L50.0824 14.1593L50.0273 14.1657L50.0125 14.1673L49.9613 14.173L49.9616 14.1685L49.962 14.1625C49.965 14.114 49.9679 14.0655 49.9698 14.0169C49.988 13.5706 49.9586 13.1242 49.881 12.6813ZM3.0706 21.7094C3.2149 21.9361 3.3719 22.16 3.5412 22.3812L3.56764 22.4159L3.57782 22.4293L3.5976 22.4551C3.60695 22.4669 3.6159 22.4789 3.62485 22.4908C3.63437 22.5034 3.64397 22.5162 3.654 22.5288C3.7753 22.6813 3.9046 22.8319 4.0377 22.9812C4.153 23.1105 4.2727 23.2386 4.3967 23.3655C4.4755 23.4461 4.556 23.526 4.6382 23.6056L4.64485 23.6119L4.6568 23.6232C4.665 23.6313 4.6734 23.6393 4.6818 23.6471C4.8455 23.804 5.0141 23.9593 5.1916 24.1119C5.2913 24.1977 5.3939 24.2826 5.4979 24.367C5.6847 24.5185 5.8795 24.6671 6.0799 24.8137L5.8686 24.8952L5.7104 24.9564L5.6742 24.9703L5.6658 24.9736L5.6296 24.9876C5.63381 24.9985 5.63825 25.0093 5.64269 25.0201C5.64903 25.0355 5.65536 25.0509 5.661 25.0665C5.6785 25.0917 5.6979 25.1138 5.7174 25.1359L5.7932 25.1066L5.8588 25.0811C5.9077 25.0843 5.9628 25.0874 6.0226 25.0904C6.1648 25.0972 6.3293 25.1018 6.4818 25.0983L6.49286 25.1059C6.52558 25.1285 6.55836 25.1511 6.5917 25.1734L6.61237 25.1876C6.62312 25.1951 6.63386 25.2025 6.6449 25.2098C6.9442 25.4097 7.2557 25.6049 7.5816 25.7944C8.1987 26.153 8.8513 26.4816 9.5305 26.7845L8.677 27.2772L8.6676 27.2826L8.6665 27.2833L8.5937 27.3252L8.5798 27.3334C8.6338 27.3646 8.6651 27.3821 8.6651 27.3821C8.6936 27.3998 8.7239 27.4148 8.7548 27.4285L8.8392 27.38L8.8513 27.3729L8.85793 27.3725L8.8797 27.3711C9.0829 27.3579 9.384 27.3311 9.5792 27.2812C9.6302 27.2681 9.6746 27.2535 9.7073 27.2371C9.729 27.2262 9.7526 27.2119 9.7772 27.1952C9.81 27.218 9.8466 27.2394 9.8857 27.2601C10.2682 27.4612 10.9322 27.5548 11.6106 27.5935C11.8508 27.6743 12.0932 27.7525 12.3387 27.8271C12.7593 27.9546 13.1877 28.0725 13.6226 28.1812L12.7379 28.9444L12.7294 28.9519L12.7276 28.9533L12.6851 28.9899L12.5367 29.1181L12.6275 29.1519L12.6742 29.1114L12.7139 29.0773L12.7178 29.0792L12.7246 29.0822L12.7337 29.086C12.7385 29.088 12.7433 29.0899 12.7481 29.0921C12.7656 29.1001 12.7831 29.1078 12.8006 29.1147L12.8639 29.0602L12.8756 29.0568L12.8871 29.0536C12.9188 29.0445 12.9522 29.0346 12.9875 29.0239L13.0087 29.0173C13.218 28.9535 13.4658 28.867 13.5662 28.7895C13.5916 28.7699 13.6196 28.7423 13.6485 28.7112C14.0554 28.7043 14.7125 28.6609 15.3915 28.6079C15.413 28.6061 15.435 28.6043 15.4568 28.6027L15.5526 28.5951L15.5695 28.5983L15.5797 28.6003L15.6034 28.6049C16.1534 28.7019 16.7127 28.7833 17.2786 28.8516L17.3532 28.8607C17.4202 28.8689 17.4877 28.8771 17.5551 28.8846C17.7024 28.9011 17.8507 28.9152 17.999 28.9293L18.058 28.9349L17.9321 29.1099L17.914 29.1347L17.4994 29.7101L17.4923 29.7201L17.4912 29.7215L17.42 29.8201L17.3246 29.9527L17.2868 30.0051C17.3521 30.0073 17.3897 30.0075 17.3897 30.0075C17.3897 30.0075 17.427 30.0107 17.49 30.0137L17.5665 29.9076L17.5824 29.8854C17.6705 29.8435 17.7754 29.7914 17.8682 29.7395L17.8709 29.7381C17.8766 29.7349 17.8819 29.7317 17.8875 29.7284C17.9759 29.6781 18.0512 29.6285 18.0855 29.5898C18.1799 29.5197 18.2878 29.4541 18.4043 29.392C18.423 29.3822 18.441 29.372 18.4601 29.3622C18.7077 29.2364 18.9955 29.1274 19.3016 29.033C19.9503 29.0707 20.6061 29.0901 21.2676 29.0901C21.4647 29.0901 21.6628 29.0885 21.8606 29.0851L21.8636 29.0867L21.9361 29.0855C22.1066 29.0823 22.2775 29.0771 22.4484 29.0718L22.2674 29.5839L22.2629 29.5964L22.0793 30.1159L22.0774 30.1211L22.0369 30.2356C22.0496 30.2348 22.0619 30.2341 22.0743 30.2335C22.0922 30.2326 22.1102 30.2317 22.1287 30.2301C22.1474 30.2298 22.1653 30.2288 22.183 30.2278L22.2033 30.2268L22.2204 30.226L22.2615 30.1097L22.2627 30.1065L22.3018 29.996C22.3605 29.9252 22.4188 29.8498 22.4411 29.8037C22.4689 29.7463 22.497 29.6637 22.5244 29.5675C22.5255 29.5636 22.5266 29.5591 22.5278 29.5552C22.5688 29.4088 22.6083 29.233 22.6422 29.0657C23.4471 29.0366 24.2563 28.9822 25.0664 28.9046L25.102 28.9014L25.1284 28.8991C25.2061 28.8916 25.284 28.8834 25.3618 28.8753L25.4316 28.868C25.5319 28.8575 25.6323 28.8468 25.7326 28.8357C25.794 28.8288 25.8555 28.8225 25.9169 28.8154C25.9831 28.8077 26.0493 28.7994 26.1154 28.7911L26.2164 28.7785L26.3738 28.7592C26.4815 28.7455 26.5891 28.7315 26.6967 28.7171L26.6961 28.8054L26.6958 28.8648V28.8768L26.6954 28.9271L26.6943 29.1237L26.6917 29.1299C26.6907 29.1325 26.6896 29.1352 26.6883 29.1378C26.6132 29.2901 26.4589 29.4225 26.2521 29.5372L26.2434 29.5422C26.0507 29.648 25.8145 29.7386 25.556 29.8162C25.5984 29.8196 25.6414 29.8219 25.6848 29.8242C26.0204 29.7827 26.3557 29.7383 26.6911 29.6885L26.6906 29.7978V29.8016C26.7523 29.7962 26.791 29.7923 26.791 29.7923L26.7655 31.5943L26.7652 31.6234C26.5008 31.5231 25.6411 31.2263 24.6101 31.1615C24.5432 31.065 24.4957 30.9644 24.461 30.8632C24.3787 30.6244 24.3727 30.3844 24.3919 30.1932C24.3964 30.1504 24.4017 30.1108 24.4078 30.0735C24.4081 30.0725 24.4083 30.0715 24.4084 30.0703C24.415 30.0304 24.4222 29.9923 24.4294 29.9602C24.4379 29.9224 24.446 29.8922 24.4529 29.8676C24.5455 29.8681 24.6381 29.8482 24.7095 29.808C24.7101 29.8076 24.7107 29.8075 24.7114 29.8073L24.7127 29.8068C24.8199 29.7449 24.8463 29.6539 24.7922 29.5777C24.7746 29.5531 24.7489 29.5299 24.7145 29.5099C24.5734 29.4278 24.3443 29.428 24.2023 29.5101C24.153 29.5384 24.122 29.5732 24.1067 29.6096C24.1062 29.611 24.1054 29.6123 24.1047 29.6136C24.1038 29.6151 24.1029 29.6166 24.1024 29.6182C24.0248 29.732 23.8924 29.8432 23.7297 29.9482C23.6878 29.9754 23.6439 30.0019 23.5984 30.028C23.4971 30.0865 23.3882 30.1425 23.2766 30.1953L23.2512 30.2074L23.233 30.2158C23.1756 30.2426 23.1174 30.2685 23.0593 30.2934C22.6429 30.4727 22.2322 30.6046 22.069 30.6545C22.0217 30.669 21.9948 30.6768 21.9948 30.6768L21.5065 31.992L21.4933 32.0277C21.4489 32 21.3721 31.954 21.2683 31.8969C21.2253 31.873 21.1784 31.8478 21.1261 31.8207C20.8113 31.6573 20.3358 31.4427 19.7689 31.2868C19.5914 31.2379 19.4047 31.1954 19.2114 31.1615C19.0747 30.867 19.0708 30.5569 19.0991 30.3288C19.1041 30.2886 19.1097 30.2504 19.1159 30.216L19.1165 30.2128C19.1245 30.1695 19.1329 30.1325 19.1409 30.1002C19.1484 30.0703 19.1555 30.044 19.1611 30.0255C19.2458 30.0307 19.3293 30.0178 19.4022 29.9884C19.4086 29.9859 19.4152 29.9837 19.4218 29.9815C19.4286 29.9793 19.4354 29.9771 19.4418 29.9745L19.4475 29.972C19.4499 29.9709 19.4521 29.9697 19.4543 29.9684C19.5253 29.9274 19.5612 29.8737 19.5614 29.82C19.5616 29.8002 19.5551 29.7805 19.5457 29.7614L19.5441 29.7582L19.5419 29.7539C19.5412 29.7524 19.5405 29.751 19.5396 29.7497C19.5223 29.7211 19.4952 29.6944 19.4561 29.6715C19.3676 29.6202 19.2456 29.605 19.1311 29.618C19.0629 29.6259 18.9969 29.6412 18.9439 29.6719C18.9337 29.6778 18.9251 29.6843 18.9166 29.6908L18.9111 29.6949C18.8881 29.7127 18.8704 29.732 18.8583 29.7524L18.8522 29.7641L18.8508 29.7668L18.8497 29.7689L18.8439 29.765L18.8424 29.7641L18.8307 29.7561C18.8299 29.7576 18.8288 29.759 18.8277 29.7604L18.8266 29.7618L18.8251 29.7639C18.8235 29.7665 18.8215 29.7697 18.8196 29.7723L18.8139 29.78C18.8104 29.7846 18.8069 29.7892 18.8039 29.7939C18.7422 29.8863 18.649 29.9764 18.532 30.0621C18.4737 30.1047 18.4096 30.1461 18.3426 30.1864L18.3376 30.1893C18.293 30.2158 18.2475 30.2422 18.2 30.2677C17.744 30.5132 17.1872 30.7005 16.9389 30.7783C16.8576 30.8038 16.8067 30.8185 16.8067 30.8185L16.2012 31.6568L16.1659 31.7055L16.1698 31.7057L16.1591 31.7124L16.1502 31.7017C16.0638 31.5999 15.8275 31.3357 15.4664 31.0465C15.1563 30.798 14.7544 30.533 14.2793 30.3382C14.194 30.0885 14.1921 29.838 14.2147 29.6432L14.215 29.6408L14.2156 29.6353C14.226 29.5497 14.2401 29.4757 14.2538 29.418C14.2588 29.3966 14.2636 29.3777 14.2681 29.3611C14.3152 29.3615 14.3623 29.3567 14.4067 29.3465L14.4108 29.3452C14.4172 29.3436 14.4222 29.3402 14.4286 29.3385C14.464 29.3285 14.4987 29.3172 14.5282 29.3003C14.6142 29.2507 14.6475 29.1824 14.6299 29.118C14.6183 29.076 14.5856 29.0357 14.53 29.0034C14.3889 28.9214 14.1598 28.9217 14.0178 29.0036C13.9978 29.015 13.9816 29.0277 13.9671 29.0409C13.9627 29.045 13.9591 29.0493 13.9554 29.0536L13.9516 29.058L13.948 29.0557C13.9191 29.1073 13.8733 29.1597 13.8151 29.2127L13.8112 29.2162L13.8049 29.2221C13.7808 29.2436 13.7539 29.265 13.7256 29.2865C13.6535 29.3415 13.5689 29.3964 13.4753 29.451L13.4674 29.4555C12.9527 29.7532 12.1728 30.0339 11.6914 30.1934C11.6053 30.2219 11.5289 30.2465 11.4651 30.2667C11.3391 30.3066 11.2626 30.3291 11.2626 30.3291L11.2495 30.3405L11.0483 30.5139L11.0228 30.5362L11.021 30.537L11.0129 30.541L11.0071 30.5439L11.0009 30.5471C10.9987 30.5462 10.9964 30.5455 10.9941 30.5448L10.9926 30.5428C10.9888 30.5376 10.982 30.5283 10.9721 30.5155L10.9715 30.5146C10.9435 30.4779 10.8936 30.4133 10.8233 30.3275C10.684 30.1577 10.4662 29.9074 10.1929 29.6392C10.1306 29.5782 10.0659 29.5165 9.9981 29.4544C9.9847 29.4344 9.9683 29.4127 9.9454 29.3875C9.5471 28.9487 9.574 28.3314 9.6197 28.0215C9.6243 27.9898 9.629 27.9612 9.6336 27.9364C9.637 27.9186 9.64 27.9032 9.6429 27.8895C9.65131 27.8896 9.65952 27.8886 9.66778 27.8875L9.67612 27.8864L9.685 27.8856C9.723 27.8831 9.7601 27.879 9.7954 27.8697C9.7959 27.8695 9.7963 27.8692 9.7968 27.8692C9.79929 27.8685 9.80153 27.8675 9.80375 27.8665L9.80804 27.8647L9.8106 27.8638L9.81337 27.8628L9.8152 27.862L9.82151 27.8601C9.84978 27.8513 9.87838 27.8425 9.9023 27.8287C9.9663 27.7916 10 27.7443 10.0066 27.6959C10.0086 27.6811 10.0081 27.6665 10.0047 27.6519L9.9966 27.628C9.9813 27.5928 9.9513 27.5593 9.9041 27.5318C9.8225 27.4845 9.7126 27.4678 9.6063 27.4753C9.5283 27.4806 9.452 27.4974 9.3919 27.532C9.3583 27.5514 9.3332 27.5737 9.3155 27.5975L9.3144 27.5967C9.3128 27.5996 9.31 27.6025 9.3084 27.6053C9.3075 27.6068 9.30643 27.6082 9.30535 27.6096L9.30371 27.6118L9.3023 27.6139L9.29969 27.6176C9.29867 27.619 9.29764 27.6203 9.2968 27.6217C9.2966 27.6219 9.2962 27.6223 9.2961 27.6226C9.277 27.6528 9.2559 27.6827 9.2299 27.7123C9.2085 27.7368 9.1837 27.7607 9.1582 27.7846C8.9254 28.0021 8.5343 28.1985 8.1682 28.3498C7.9648 28.2963 7.7581 28.2679 7.5502 28.2727C7.4439 28.2752 7.3372 28.2875 7.2309 28.3084C7.0727 28.3394 6.9148 28.3901 6.7583 28.4672C6.7542 28.4693 6.7501 28.4711 6.746 28.4729C6.74193 28.4747 6.73776 28.4766 6.7337 28.4786C6.7193 28.4633 6.70561 28.4471 6.69187 28.4308L6.6893 28.4277C6.4435 28.1387 6.2882 27.7184 6.1908 27.2958C6.0442 26.6596 6.0274 26.0213 6.0262 25.8249C6.0995 25.8233 6.1698 25.8069 6.2308 25.7794C6.23596 25.7771 6.24149 25.7753 6.24698 25.7735C6.25426 25.7712 6.26149 25.7689 6.2677 25.7653C6.3198 25.7353 6.3525 25.6984 6.3664 25.6595C6.36724 25.6574 6.36779 25.6552 6.36835 25.6529L6.3691 25.65C6.3719 25.6399 6.3741 25.6295 6.3742 25.6194C6.37428 25.6164 6.37401 25.6134 6.37361 25.6105L6.37273 25.6049L6.3717 25.5981C6.3646 25.5509 6.3316 25.5046 6.2693 25.4684C6.25425 25.4598 6.23672 25.4541 6.21905 25.4482L6.20859 25.4447L6.1999 25.4417C6.19395 25.4396 6.18824 25.4371 6.18253 25.4346C6.17307 25.4304 6.1636 25.4263 6.153 25.4237C6.14623 25.422 6.1392 25.4213 6.13215 25.4206C6.12733 25.4201 6.12249 25.4196 6.1177 25.4188C6.1132 25.4179 6.1084 25.4179 6.1038 25.4172C6.021 25.4047 5.9345 25.4085 5.8562 25.4306C5.821 25.4406 5.7866 25.4518 5.7571 25.4688C5.7243 25.4877 5.7017 25.51 5.6844 25.5334L5.6831 25.5325C5.68153 25.5354 5.67941 25.5382 5.67729 25.541C5.67536 25.5436 5.67342 25.5461 5.6719 25.5487C5.5468 25.7562 5.2698 25.9444 4.9663 26.0998C4.9611 26.1025 4.956 26.1053 4.9508 26.1078C4.8937 26.1367 4.8359 26.1644 4.7781 26.1908C4.4968 25.9895 4.1951 25.857 3.8831 25.8443C3.8283 25.842 3.7732 25.8433 3.7179 25.8486L4.0905 25.7316C4.0811 25.7217 4.07215 25.7112 4.06322 25.7006L4.0524 25.6879C4.0516 25.6872 4.0509 25.6863 4.0504 25.6855C4.0317 25.664 4.0136 25.6415 3.996 25.6185C3.8411 25.4149 3.725 25.1578 3.6385 24.8844C3.5402 24.5741 3.4797 24.2437 3.4422 23.9479C3.4231 23.7963 3.4101 23.6545 3.4012 23.5287C3.3851 23.3009 3.3826 23.1284 3.3825 23.055C3.4761 23.0554 3.5701 23.0354 3.6417 22.994C3.7837 22.9121 3.7844 22.7792 3.6433 22.6972C3.5147 22.6224 3.3157 22.6196 3.1736 22.6811C3.16774 22.6837 3.16149 22.6857 3.15526 22.6878C3.14681 22.6905 3.13841 22.6932 3.1311 22.6973C3.0869 22.723 3.058 22.7537 3.0412 22.7862L3.0396 22.7851C2.8731 23.0822 2.509 23.2845 2.1943 23.4111C2.0391 23.2126 1.8678 23.0648 1.6807 23.0017C1.6077 22.9771 1.5325 22.9651 1.4549 22.9683L2.5474 22.7066C2.527 22.6843 2.5079 22.6593 2.4896 22.6331C2.2279 22.2604 2.1642 21.5281 2.1604 20.9396C2.1581 20.566 2.1797 20.2517 2.19 20.1237C2.21693 20.1235 2.24305 20.1193 2.26916 20.1152L2.2775 20.1139C2.3242 20.2433 2.3741 20.3723 2.4286 20.5005C2.603 20.9103 2.8185 21.3137 3.0706 21.7094ZM26.8329 29.7861C26.8192 29.7883 26.8055 29.7905 26.791 29.7923C26.806 29.7903 26.82 29.788 26.8342 29.7857L26.8604 29.7814L26.8658 28.8405V28.8281L26.8665 28.7064L26.8667 28.6935L26.8959 28.6894L26.969 28.6794C27.036 28.6702 27.103 28.6611 27.1701 28.6513C27.3309 28.6279 27.4916 28.6027 27.6524 28.5774C27.817 28.5515 27.9815 28.5248 28.146 28.497C28.369 28.4593 28.5918 28.4199 28.8143 28.3788L28.856 28.3711C28.8979 28.3634 28.9398 28.3557 28.9816 28.3478L28.9927 28.3457C29.4922 28.2515 29.9906 28.1494 30.487 28.0379C30.5141 28.1621 30.5431 28.2809 30.5729 28.3796C30.549 28.4447 30.5142 28.5069 30.4698 28.5667C30.3289 28.7553 30.0945 28.9176 29.8137 29.0552C29.8768 29.0609 29.9414 29.0643 30.0072 29.0648C30.2593 29.007 30.5099 28.9445 30.7606 28.8819L30.807 28.8703L30.8339 28.9503L30.8441 28.9804C30.8958 28.9706 30.9281 28.9636 30.9281 28.9636L31.4917 30.632L31.504 30.6686L31.5211 30.7193L31.519 30.722C31.5035 30.717 31.481 30.7098 31.4503 30.7009L31.4246 30.6933L31.3989 30.6859C31.0602 30.591 30.1623 30.3867 29.1393 30.5213C29.0719 30.3996 28.9945 30.2126 28.9623 29.9586C28.9461 29.8308 28.9425 29.6856 28.9565 29.524C28.9588 29.4965 28.9618 29.4685 28.9652 29.4402C28.9673 29.4243 28.9696 29.4081 28.9721 29.3919L28.9752 29.3718L28.9775 29.3558C28.981 29.3321 28.9844 29.3085 28.9889 29.2839C28.9918 29.2683 28.9956 29.252 28.9993 29.2357L29.0052 29.2098C29.1049 29.2134 29.2064 29.1952 29.2828 29.151C29.3964 29.0855 29.418 28.9877 29.3505 28.9091C29.3388 28.8951 29.324 28.8821 29.3063 28.8698L29.2989 28.8643C29.2945 28.8608 29.2899 28.8574 29.2845 28.8541C29.1434 28.7722 28.9144 28.7724 28.7724 28.8545C28.7015 28.8953 28.6658 28.9488 28.6657 29.0025L28.657 29.0118C28.6527 29.0162 28.6469 29.0221 28.6396 29.0293C28.5674 29.1007 28.339 29.3026 27.9264 29.4864C27.7441 29.5675 27.5264 29.645 27.269 29.7061C27.1427 29.7361 27.0058 29.7609 26.8604 29.7814C26.851 29.7828 26.842 29.7846 26.8329 29.7861ZM10.9175 7.62582L10.9527 7.64632L10.9641 7.65312L11.1322 7.75062L12.7403 8.68562L12.66 8.73722L12.6766 8.74682L13.0607 8.97002C13.1729 9.10672 13.3342 9.29672 13.4963 9.46612C13.5778 9.55142 13.6587 9.63012 13.7336 9.69432C13.7909 9.74342 13.844 9.78312 13.8909 9.80992L13.8786 9.80872C13.7693 10.2304 13.6348 10.5201 13.506 10.7215C13.9079 10.4589 14.3202 10.2036 14.741 9.95732L14.7617 9.95872L14.7721 9.96462L15.1023 10.1565C15.314 10.41 15.6955 10.8453 15.9359 10.9981C15.8812 11.2055 15.8202 11.3811 15.7568 11.5293C15.9743 11.3891 16.1907 11.2537 16.4053 11.1238L16.4634 11.0886C16.4918 11.0713 16.5205 11.0539 16.5487 11.0369L16.583 11.017C16.5999 11.0069 16.6169 10.9971 16.6338 10.9872L16.6676 10.9674L16.751 10.9183L14.9437 9.86792L14.9191 9.85342L12.8453 8.64852L12.8291 8.63892L13.7894 8.13422C13.7871 8.13172 13.7853 8.12872 13.783 8.12602C13.7309 8.06752 13.6867 8.00242 13.6469 7.93392C13.6289 7.90282 13.6116 7.87142 13.5959 7.83892C13.5067 7.65412 13.4524 7.44772 13.4216 7.24592C13.3825 6.98962 13.3791 6.74322 13.3861 6.56232C13.3887 6.48932 13.3928 6.42782 13.3969 6.38032L13.3987 6.35912L13.4002 6.34389L13.4005 6.34022C13.411 6.3401 13.4211 6.33862 13.4312 6.33713C13.4374 6.33623 13.4435 6.33533 13.4498 6.33472L13.4626 6.33356C13.477 6.3323 13.4913 6.33105 13.5052 6.32842C13.5573 6.31842 13.6071 6.30382 13.6485 6.27992C13.6742 6.26512 13.6936 6.24822 13.71 6.23072C13.7197 6.22012 13.7281 6.20962 13.7347 6.19862C13.7636 6.14932 13.7579 6.09582 13.7225 6.04782C13.9908 6.03039 14.1903 5.94382 14.2061 5.93698C14.2123 5.93428 14.2306 5.92632 14.2561 5.91492L14.2861 5.94092L15.6717 7.14802L15.5781 7.17902L15.6088 7.20582L15.9518 7.50462C16.0242 7.63162 16.1222 7.79702 16.2253 7.95452C16.2904 8.05412 16.3579 8.15042 16.4221 8.23142C16.4836 8.30922 16.5423 8.37252 16.5937 8.41162C16.4374 8.76022 16.2526 9.02282 16.074 9.21832C16.4579 9.01502 16.8456 8.81802 17.2372 8.62782L17.2424 8.62892L17.5423 8.89032C17.7171 9.18642 18.0295 9.68632 18.2275 9.83112C18.2316 9.83426 18.2366 9.83726 18.2417 9.8403L18.2492 9.84492C18.1938 9.96812 18.1351 10.0811 18.0741 10.1835C18.2191 10.1068 18.3666 10.0299 18.5163 9.95302L18.6195 9.90003C18.6367 9.89119 18.6538 9.88238 18.6712 9.87362L18.7072 9.85512L18.7525 9.83192L18.8349 9.79102L17.7917 8.88202C18.141 8.59632 18.4894 8.35472 18.8067 8.15722C18.3987 8.33442 17.9931 8.51652 17.5917 8.70792L17.5208 8.64622L17.422 8.56002L17.4051 8.54522L16.2419 7.53192C16.8115 7.06842 17.3779 6.72252 17.8082 6.49112C17.1851 6.74292 16.5712 7.01102 15.9659 7.29162L15.7766 7.12682L15.7584 7.11092L17.1822 6.50092C17.1771 6.49524 17.1726 6.48917 17.168 6.48307C17.1643 6.4781 17.1605 6.47312 17.1565 6.46832C17.1103 6.41332 17.0702 6.35482 17.0352 6.29332C16.9448 6.13422 16.8888 5.95772 16.8567 5.78152C16.809 5.52132 16.8112 5.26522 16.8258 5.07362C16.8306 5.01082 16.8363 4.95582 16.8422 4.90942L16.8437 4.89744L16.8463 4.87822C16.8497 4.85312 16.8531 4.83112 16.8559 4.81352C16.9494 4.81382 17.0431 4.79372 17.1146 4.75242C17.2308 4.68522 17.2507 4.58442 17.1772 4.50482C17.5287 4.48682 17.9313 4.43862 17.9654 4.43362L18.0066 4.42242L18.0259 4.44972L18.0444 4.47572L18.5445 5.18042L18.5907 5.24572L18.9668 5.77592L18.8794 5.79932L18.899 5.82682L19.1682 6.20622C19.1989 6.29942 19.2363 6.40802 19.2779 6.51972C19.2777 6.51932 19.2781 6.51992 19.2779 6.51972C19.3184 6.62832 19.3626 6.73952 19.4078 6.83902C19.467 6.96942 19.5277 7.08132 19.584 7.14442C19.5944 7.15602 19.6088 7.16852 19.6249 7.18122C19.4982 7.39532 19.3403 7.58132 19.1732 7.74192C19.1671 7.74782 19.1611 7.75382 19.1548 7.75962C19.4424 7.63902 19.7312 7.52232 20.0213 7.40882L20.0771 7.48752L20.2605 7.74582C20.3642 8.04212 20.5358 8.49302 20.6816 8.68652C20.618 8.80552 20.546 8.91722 20.466 9.02052C20.6007 8.96092 20.7374 8.90172 20.8748 8.84302L20.9222 8.82269L20.9552 8.80852L20.9806 8.79796L21.0009 8.78952L21.0812 8.75592L21.0944 8.75039C21.1166 8.74105 21.1392 8.73158 21.1615 8.72242L20.4871 7.77192C20.8284 7.49912 21.2068 7.26932 21.5741 7.08112C21.1541 7.22582 20.7354 7.37582 20.3196 7.53572L20.2422 7.42652L19.5246 6.41512L19.5239 6.41412L19.3787 6.20962C19.6916 5.95402 20.0382 5.73632 20.3801 5.55352C19.9849 5.68352 19.5922 5.81892 19.2021 5.96062L19.1238 5.85012L19.0911 5.80432L19.0649 5.76722L19.0513 5.74812L20.7907 5.17792C20.7233 5.10352 20.6684 5.02092 20.6234 4.93392C20.566 4.82262 20.5265 4.70342 20.4987 4.58262C20.44 4.32912 20.4361 4.07022 20.4502 3.86192C20.4537 3.80982 20.458 3.76002 20.4632 3.71522L20.466 3.69326L20.4682 3.67582C20.4768 3.60912 20.4855 3.55432 20.493 3.51382C20.5831 3.51272 20.673 3.49312 20.7419 3.45332C20.8307 3.40212 20.8641 3.33082 20.8421 3.26462C21.6296 3.38002 22.1168 3.21842 22.211 3.18252L22.2197 3.18132L22.2272 3.20382L22.2408 3.24352L22.7039 4.61472L22.6186 4.62772L22.625 4.64672L22.8063 5.18352L22.8068 5.18512L22.8443 5.29592C22.857 5.36702 22.8709 5.44052 22.8855 5.51332C22.9251 5.70942 22.9708 5.89652 23.0168 6.00712C22.9349 6.13252 22.8368 6.24332 22.7303 6.34292C22.6532 6.41502 22.5717 6.48042 22.4877 6.54002C22.7221 6.46632 22.9567 6.39352 23.1918 6.32472L23.2261 6.42602L23.227 6.42892L23.3977 6.93412C23.4357 7.13712 23.4824 7.35832 23.5308 7.52592C23.4564 7.67162 23.3624 7.80502 23.2546 7.92642C23.3845 7.88182 23.5156 7.83822 23.6473 7.79492L23.6637 7.78954L23.6842 7.78272L23.6953 7.77922L23.7648 7.75602L23.8317 7.73396L23.8457 7.72942L23.5916 6.97732C24.1923 6.50472 25.0227 6.15292 25.7033 5.91922C24.9446 6.08492 24.1855 6.27742 23.4287 6.49512L23.4277 6.49182L23.0553 5.38952C23.3192 5.17902 23.6235 4.99202 23.9381 4.82882L23.94 4.82772C24.3512 4.61452 24.7785 4.44152 25.154 4.30822C25.2036 4.29072 25.2523 4.27362 25.3 4.25742C24.981 4.32072 24.6626 4.38892 24.3445 4.45992C23.8489 4.57052 23.3547 4.68962 22.8625 4.81862L22.8488 4.77832L22.7894 4.60212L22.787 4.59512L24.8793 4.10242C24.7708 3.98282 24.6943 3.84422 24.6397 3.69882C24.6287 3.66882 24.6187 3.63872 24.6094 3.60842C24.5325 3.35792 24.5159 3.09552 24.5229 2.87842C24.5243 2.83132 24.5268 2.78722 24.53 2.74512C24.5312 2.72922 24.5325 2.71372 24.5339 2.69852C24.5439 2.58862 24.5573 2.50102 24.5667 2.44862C24.6547 2.44662 24.7421 2.42752 24.8092 2.38882C24.8656 2.35622 24.8988 2.31572 24.9105 2.27342C25.5701 2.55152 26.8804 2.33172 26.9457 2.32032C27.0761 2.29142 27.9544 2.09182 28.5171 1.83902C28.3412 1.96322 28.1264 2.07682 27.9109 2.17392C27.8531 2.20012 27.7956 2.22492 27.7387 2.24842C27.5517 2.32622 27.3757 2.39032 27.2345 2.43812C27.143 2.46912 27.0667 2.49352 27.014 2.50982C26.9623 2.52572 26.9309 2.53462 26.9309 2.53462L26.9198 3.22842V3.23032L26.8399 3.24672L26.8353 4.08342V4.08522L26.8294 5.13012C26.8187 5.14622 26.8067 5.16192 26.7941 5.17762C26.669 5.33302 26.4471 5.46852 26.1927 5.58332L26.2655 5.56861C26.453 5.53075 26.6404 5.49288 26.8274 5.45862L26.8267 5.58702V5.59022L26.8198 6.83692C26.7918 6.87792 26.7571 6.91792 26.717 6.95692L26.8192 6.93522L26.894 6.91912L26.9892 6.89882L26.991 6.57322C27.8097 5.93492 29.2233 5.48622 30.0597 5.26142L29.9469 5.27079C29.8585 5.27804 29.7701 5.2853 29.682 5.29392C28.7943 5.37632 27.8971 5.50032 26.9962 5.66122L27.0005 4.89932C27.4472 4.51952 28.0841 4.22762 28.744 4.00642C29.3163 3.81462 29.9038 3.67602 30.3979 3.57932C30.0973 3.60022 29.7973 3.62392 29.499 3.65312C29.2075 3.67882 28.9154 3.71042 28.6232 3.74292C28.0844 3.80302 27.5451 3.87562 27.0058 3.95872L27.0071 3.72742V3.71992L29.3705 3.43672L29.441 3.42842C29.3976 3.38052 29.3612 3.32922 29.3281 3.27622C29.2679 3.18092 29.2233 3.07872 29.1909 2.97342C29.112 2.71942 29.102 2.44982 29.1176 2.22682C29.1206 2.18312 29.1245 2.14162 29.1292 2.10202C29.1308 2.08711 29.1327 2.07317 29.1347 2.05924L29.1365 2.04582C29.1547 1.90962 29.1771 1.80832 29.1886 1.76252C29.2858 1.76462 29.3841 1.74552 29.4583 1.70272C29.5125 1.67152 29.5448 1.63262 29.5578 1.59212C30.3906 1.98892 32.1357 1.85582 32.2255 1.84812C32.3473 1.82562 33.2027 1.66542 33.7122 1.50862C33.5676 1.61222 33.3553 1.74032 33.0625 1.85472C33.0612 1.85518 33.0591 1.85593 33.0579 1.85652C33.0031 1.87772 32.9458 1.89842 32.8857 1.91842C32.7525 1.96242 32.6049 2.00242 32.444 2.03632C32.3573 2.05452 32.2665 2.07072 32.1714 2.08472L32.1391 2.0898C32.1185 2.09311 32.0978 2.09642 32.0761 2.09912L32.0746 2.09945L31.8246 2.80792L31.6553 3.28942L31.6442 3.32062L31.5549 3.31902L31.5295 3.39092L31.5279 3.39522L31.5267 3.39872L31.1205 4.54732C30.8846 4.77512 30.4288 4.93372 30.0128 5.03772C30.3316 5.01042 30.6507 4.98862 30.9702 4.97212L30.4689 6.39002L30.4602 6.39902C30.4559 6.40352 30.4515 6.40802 30.4468 6.41252L30.4614 6.41122L30.4984 6.40833C30.5169 6.40686 30.5354 6.40538 30.554 6.40412C30.5708 6.40291 30.5884 6.40199 30.6052 6.40108C30.6188 6.40035 30.6324 6.39962 30.6459 6.39872L30.6957 6.3959L30.716 6.39462L30.7193 6.38881C30.721 6.38583 30.7228 6.38276 30.7239 6.38032C30.7362 6.35322 30.7487 6.31922 30.7612 6.28222C32.2319 5.75132 34.0105 5.41232 34.8235 5.27392C34.3088 5.22472 33.7893 5.18972 33.265 5.17292C32.9817 5.16402 32.6934 5.15942 32.4083 5.15942C31.9661 5.15942 31.5197 5.17062 31.0726 5.19222L31.1536 4.96302L31.1761 4.89962C31.2368 4.82512 31.2972 4.74512 31.3201 4.69682C31.3356 4.66382 31.3511 4.62102 31.3666 4.57262C31.4996 4.50882 31.6526 4.44812 31.821 4.39082C32.9662 4.00172 34.8092 3.76732 35.7239 3.66882C35.0233 3.59502 34.3136 3.54342 33.5961 3.51972C33.4289 3.51422 33.2605 3.51244 33.092 3.51066L32.9455 3.50902C32.8958 3.50839 32.8461 3.50729 32.7965 3.50618C32.7207 3.5045 32.6451 3.50282 32.5698 3.50282C32.269 3.50282 31.967 3.50852 31.6649 3.51722L31.7101 3.38952L31.714 3.37812L31.7358 3.31702C31.9618 3.30832 32.5603 3.28582 32.9301 3.28032C33.0035 3.27922 33.0684 3.27892 33.1187 3.27922C33.1985 3.28012 33.3105 3.28372 33.4379 3.28872C33.508 3.29152 33.5822 3.29472 33.6593 3.29832C34.1447 3.32102 34.7168 3.35542 34.7168 3.35542L34.7138 3.35132C34.7097 3.34575 34.6985 3.33044 34.6815 3.30542C34.6644 3.28032 34.6426 3.24712 34.6167 3.20412C34.5636 3.11562 34.4967 2.99002 34.4342 2.83772C34.3474 2.62612 34.2712 2.36152 34.2523 2.06362C34.2499 2.02652 34.248 1.98942 34.2476 1.95142C34.2474 1.93514 34.2478 1.91859 34.2483 1.90213L34.2487 1.88542V1.88252C34.2505 1.79692 34.256 1.70972 34.2692 1.62012C34.3597 1.61902 34.4496 1.59942 34.5186 1.55942C34.5673 1.53142 34.5962 1.49702 34.6116 1.46112C35.4051 1.92772 37.4276 2.16562 37.5175 2.17602L37.5268 2.17712L37.5361 2.17652C37.58 2.17462 38.4737 2.12932 39.0571 1.99672C38.9724 2.11282 38.8275 2.23022 38.6452 2.34322L38.6441 2.34402C38.61 2.36492 38.5751 2.38582 38.539 2.40652C38.4944 2.43222 38.4488 2.45752 38.4015 2.48252C37.9327 2.73052 37.3536 2.94382 37.02 3.05842C36.9688 3.07602 36.9229 3.09142 36.8846 3.10402C36.7986 3.13262 36.7481 3.14832 36.7481 3.14832L36.5749 3.38862L36.5554 3.41552L36.496 3.49792L36.4782 3.52272L36.385 3.50692L36.3784 3.51582L34.2724 6.43802C34.2905 6.43972 34.3089 6.4417 34.3273 6.44368L34.3697 6.44812C34.3909 6.45023 34.4124 6.45252 34.4338 6.4548L34.4671 6.45832L34.5379 6.46562C34.5871 6.47063 34.6364 6.47564 34.6867 6.48152C34.6992 6.47062 34.7106 6.46012 34.7193 6.45012C34.742 6.42462 34.7657 6.38982 34.7898 6.35132C36.4095 6.25052 38.4388 6.14612 39.1631 6.10952C37.9391 5.74262 36.6357 5.47602 35.287 5.32082L35.3617 5.21722L35.4279 5.12512L35.4538 5.11212C35.5938 5.04092 35.7717 4.94242 35.8347 4.87222C35.86 4.84402 35.8868 4.80542 35.9141 4.76082C36.6992 4.73762 37.956 4.70532 38.9936 4.67932C39.7286 4.66092 40.3523 4.64562 40.621 4.63922C39.2926 4.23992 37.8809 3.94162 36.4184 3.75112L36.57 3.54042L36.5727 3.53682L36.7499 3.56362C36.8076 3.57174 36.8649 3.58073 36.9223 3.58971C36.9566 3.5951 36.9912 3.60052 37.0257 3.60572C37.4103 3.66472 37.8952 3.74112 38.1232 3.78482C38.3159 3.82172 38.6909 3.90542 39.0289 3.98262L39.1237 4.00422C39.4487 4.07882 39.7179 4.14202 39.7179 4.14202C39.7151 4.13886 39.7125 4.13538 39.71 4.13191L39.7071 4.12789L39.7033 4.12312C39.6407 4.05032 39.588 3.96862 39.5459 3.87922C39.5425 3.87181 39.5395 3.86406 39.5365 3.85631L39.5327 3.8468L39.5295 3.83892C39.4764 3.71612 39.4391 3.58322 39.4146 3.44642C39.3657 3.17342 39.365 2.88992 39.3797 2.65952C39.382 2.62572 39.3845 2.59432 39.387 2.56312L39.3885 2.5459C39.3905 2.52441 39.3924 2.50341 39.3945 2.48342L39.3946 2.48142C39.4078 2.35352 39.423 2.25812 39.4312 2.21062C39.5277 2.21242 39.6248 2.19312 39.6985 2.15052C39.734 2.13012 39.7582 2.10612 39.7759 2.08092C40.4381 2.68512 42.5493 3.31192 42.6437 3.33972L42.6626 3.34362C42.6949 3.34742 43.2773 3.41592 43.7339 3.42852C43.721 3.44462 43.71 3.46102 43.7044 3.47802C43.6857 3.48992 43.6147 3.53472 43.4962 3.60212L43.4934 3.60352C43.462 3.62162 43.4267 3.64122 43.3894 3.66172C43.3583 3.67872 43.3239 3.69692 43.2891 3.71542C43.0328 3.85132 42.6785 4.02152 42.2721 4.16822C42.1101 4.22652 41.9402 4.28042 41.7654 4.32712C41.6707 4.35252 41.5749 4.37532 41.4778 4.39552L41.4478 4.40192C41.3931 4.41302 41.3381 4.42282 41.283 4.43192L41.2425 4.43859C41.2032 4.4451 41.164 4.45161 41.1244 4.45652L39.2109 6.10722L39.1963 6.11992L37.9833 7.16622L38.0048 7.17283L38.0786 7.19622L38.1739 7.22612L38.2462 7.24939C38.2999 7.2666 38.3536 7.28384 38.4076 7.30212C38.4796 7.27592 38.5414 7.24832 38.5795 7.22062C39.2352 7.47302 40.1816 7.57292 41.0259 7.60682C41.7552 7.63592 42.4075 7.61582 42.7309 7.60112C42.1937 7.29932 41.6238 7.02312 41.0259 6.77372C40.4998 6.55432 39.9525 6.35612 39.3873 6.17952L39.5714 6.02052L39.6135 6.01112C39.8182 5.96382 40.1107 5.88602 40.2185 5.80682C40.2211 5.80489 40.2239 5.80259 40.2267 5.80015L40.2311 5.7962C40.2341 5.79353 40.2372 5.79084 40.2401 5.78842C41.3415 6.17932 43.1971 6.23052 44.0869 6.23072C44.2769 6.23072 44.4223 6.22832 44.5074 6.22662C43.4449 5.65432 42.2753 5.16472 41.0268 4.76512L41.0921 4.70872L41.2304 4.58962L41.2991 4.53002C41.7172 4.70552 42.7755 5.15052 43.1707 5.32012C43.6798 5.53882 44.5024 5.95522 44.5024 5.95522C44.5024 5.95522 44.4919 5.93542 44.4749 5.90062C44.4421 5.83392 44.3831 5.70652 44.3176 5.53972C44.27 5.41772 44.2197 5.27532 44.1731 5.11762C44.1435 5.01702 44.1155 4.91162 44.0916 4.80132C44.0355 4.54142 44.0011 4.26022 44.0152 3.98252C44.0161 3.96367 44.0182 3.94508 44.0203 3.9265C44.0214 3.91688 44.0225 3.90727 44.0234 3.89762L44.0251 3.87677C44.0271 3.85138 44.0291 3.82597 44.0325 3.80092L44.0327 3.79932C44.0349 3.78319 44.0378 3.76731 44.0407 3.75141L44.0455 3.72452C44.1426 3.72662 44.2407 3.70762 44.3151 3.66472C44.3506 3.64422 44.3747 3.62012 44.3923 3.59482C45.1088 4.29752 46.8634 5.18542 47.0505 5.27912C47.0978 5.31982 47.2708 5.45822 47.4837 5.53602L47.482 5.53655C47.4811 5.53677 47.4803 5.53701 47.4796 5.53742C47.4653 5.54582 47.4533 5.55492 47.4419 5.56422C47.4196 5.58202 47.4034 5.60152 47.392 5.62182C47.3897 5.62603 47.3873 5.63031 47.3855 5.63452L47.3811 5.63322C47.3811 5.63322 47.1731 5.83752 46.7635 6.04822C46.6685 6.09692 46.5633 6.14592 46.4468 6.19282C46.2743 6.26242 46.0782 6.32742 45.8584 6.37982C45.8433 6.38342 45.8274 6.38662 45.812 6.39022C45.6782 6.42052 45.5362 6.44672 45.3855 6.46582L45.3801 6.46672C45.3801 6.46672 46.1232 6.95692 46.5763 7.28392C46.6773 7.35692 46.7643 7.42182 46.825 7.47132C46.8942 7.52752 46.9866 7.60992 47.0899 7.70462L47.1129 7.72602C47.2805 7.88092 47.4728 8.06532 47.6439 8.23182C47.7609 8.34582 47.8679 8.45092 47.948 8.53012L48.0312 8.61252L48.097 8.67802L48.0866 8.68212L47.983 8.72202C47.983 8.72202 47.9775 8.69632 47.9504 8.64352L43.2499 10.4589L43.2616 10.475L43.288 10.512L43.3011 10.5301C43.313 10.5466 43.3247 10.5633 43.3363 10.58L43.3516 10.6018L43.3918 10.6584L43.4072 10.6805C43.6941 10.6891 44.0443 10.686 44.2123 10.6334C44.2782 10.7001 44.3449 10.7642 44.4129 10.825C45.2922 11.6125 46.3167 11.9239 46.6841 12.0149C46.5694 11.6858 46.4279 11.3615 46.2582 11.0444C46.0281 10.6147 45.7476 10.199 45.4214 9.80242L45.646 9.71572L45.6827 9.70162C45.9797 9.71752 46.5221 9.73442 46.7322 9.66182L46.7349 9.66062C46.7428 9.65783 46.7515 9.654 46.7602 9.65018L46.7722 9.64492C46.794 9.67242 46.8159 9.69952 46.8382 9.72612C46.9681 9.88112 47.109 10.0238 47.2567 10.1546C48.0007 10.8127 48.9084 11.1738 49.3685 11.327L49.3908 11.3343L49.3922 11.3347L49.3956 11.3359C49.4343 11.3486 49.4694 11.3598 49.5008 11.3693L49.4097 11.3912L49.4079 11.3916L49.4066 11.392L49.4052 11.3923L49.3941 11.3948L46.8098 12.014L44.3295 12.6085L44.3357 12.6306L44.3427 12.6573L44.3474 12.6751L44.3515 12.6904C44.3592 12.7176 44.3665 12.7451 44.3736 12.7724L44.3802 12.7968C44.3833 12.808 44.3866 12.8201 44.3895 12.8313C44.7247 12.8796 45.1941 12.933 45.413 12.8916C45.6777 13.8485 46.6771 14.3568 47.0064 14.5C47.0748 13.7319 46.9838 12.9567 46.7472 12.2037L47.0559 12.1298C47.1149 12.1391 47.1827 12.1493 47.2567 12.1598C47.5784 12.2051 48.0019 12.251 48.219 12.2174C48.4331 13.1033 49.1133 13.6887 49.5772 13.9945L49.579 13.9957L49.5804 13.9966C49.6947 14.0717 49.7961 14.1313 49.8728 14.1727L49.8887 14.1814L49.8723 14.1832L49.5494 14.22H49.5483L49.5467 14.2203L47.0223 14.507L47.0055 14.509L44.5424 14.7887L44.5421 14.7919L44.5372 14.8425L44.5338 14.8752L44.5317 14.8954L44.5302 14.9121L44.5278 14.9374C44.527 14.9455 44.5261 14.9536 44.5251 14.9617L44.5232 14.9745L44.5206 14.9905C44.5193 14.9978 44.5181 15.0051 44.517 15.0124C44.8671 15.1046 45.3889 15.2265 45.6319 15.2063C45.5953 16.0116 46.0736 16.5846 46.2889 16.7993H43.9522C43.9413 16.8207 43.9298 16.842 43.9184 16.8633L43.9019 16.894L43.8824 16.9313L43.8623 16.9691L43.8369 17.0175L43.8306 17.0292C44.0908 17.1309 44.4503 17.2611 44.716 17.3195C44.7927 17.3364 44.8612 17.3471 44.9172 17.3493C44.8524 18.1016 44.9133 18.6041 44.9543 18.8327C45.1734 18.5711 45.3773 18.3085 45.5626 18.0445C45.8126 17.6884 46.0306 17.33 46.2202 16.9691H46.5756C46.8709 17.0867 47.4492 17.3047 47.7666 17.3441C47.8057 17.5507 47.8299 17.7385 47.8449 17.9118L47.8458 17.9226C47.8638 18.1367 47.8667 18.3267 47.8585 18.4919C47.6531 18.7117 47.4383 18.9299 47.2157 19.1468L46.827 19.1019L46.8166 19.1008L45.0444 18.8964L44.9646 18.8873L44.9134 18.8814L44.8922 18.8789L42.695 18.6255C42.6722 18.6518 42.6494 18.678 42.6262 18.7039L42.6061 18.7265L42.6054 18.7272C42.5894 18.7451 42.5735 18.763 42.5573 18.7808L42.5435 18.7958L42.5223 18.8183L42.5129 18.8286C42.8328 18.9966 43.308 19.2289 43.5555 19.2656C43.4948 19.8806 43.3644 20.3007 43.2661 20.5433C43.8359 20.0445 44.3411 19.5429 44.7825 19.0373L44.8842 19.0491L44.8853 19.0492L45.1855 19.0839C45.2943 19.1413 45.4365 19.2146 45.5894 19.2887C45.8502 19.4148 46.138 19.54 46.3296 19.5825L46.3346 19.5834L46.3339 19.5903C46.3189 19.7413 46.2996 19.8801 46.2777 20.0076C45.8811 20.3508 45.4615 20.6889 45.0221 21.0218L44.918 21.1006L44.8801 21.1292L44.5854 21.0584L44.5732 21.0554L43.2185 20.7299L43.1858 20.7221L41.0288 20.2038L40.9704 20.2504L40.9446 20.2709L40.895 20.31L40.8818 20.3203L40.8597 20.338C40.8418 20.3519 40.8243 20.366 40.8065 20.3798L40.8405 20.4028L40.8572 20.414C41.1519 20.6126 41.5554 20.8652 41.7848 20.9282C41.7324 21.4113 41.572 21.7595 41.4131 21.9946C41.9527 21.612 42.4531 21.2282 42.9143 20.8429L42.9412 20.8381L43.3326 20.9321C43.523 21.0632 43.825 21.2639 44.0916 21.4088L44.1008 21.4139C44.184 21.4589 44.2626 21.4976 44.3333 21.527C43.7139 21.9666 43.0574 22.3957 42.3648 22.8119L42.1334 22.7221L42.1217 22.7177L41.1276 22.332L41.1226 22.33L41.1166 22.3277L41.1096 22.325L39.1324 21.5581L39.0942 21.5828C39.0745 21.5956 39.0548 21.6083 39.035 21.6209L38.9551 21.6715L38.8967 21.7083L38.8996 21.7108L38.9026 21.7135C38.9294 21.7365 38.9572 21.7604 38.9861 21.7848C39.0327 21.8243 39.0817 21.8651 39.132 21.9063C39.1811 21.9465 39.2309 21.9866 39.2814 22.026C39.3677 22.0933 39.4539 22.1568 39.5356 22.2123C39.6412 22.284 39.7379 22.3405 39.815 22.3702C39.7695 22.7653 39.6116 23.0679 39.4307 23.2909C39.9163 22.9971 40.3769 22.7029 40.8151 22.4083L40.849 22.4062L40.9621 22.4499L41.2199 22.55C41.3478 22.6643 41.5297 22.8226 41.7149 22.9682L41.7235 22.9749C41.7774 23.017 41.8312 23.0575 41.8839 23.0957L41.8747 23.1011L41.8652 23.1067L41.8464 23.1178C41.1535 23.5178 40.4386 23.8978 39.7058 24.258L39.621 24.2089L39.6107 24.2027L38.8623 23.7679L38.8596 23.7663L37.5732 23.0186L37.1345 22.7639L36.9479 22.8717L36.9256 22.8847C36.942 22.904 36.9592 22.924 36.9769 22.9444L36.9816 22.9498C37.0198 22.9938 37.0597 23.0393 37.1018 23.0863C37.142 23.131 37.1834 23.1762 37.2253 23.2208C37.297 23.2971 37.3698 23.3713 37.4401 23.4377C37.5498 23.5412 37.6529 23.6254 37.7336 23.6662C37.7411 23.67 37.7505 23.6734 37.7589 23.6769C37.687 24.0089 37.4943 24.2806 37.2688 24.4933C37.7091 24.2708 38.1392 24.0402 38.5585 23.8016L38.5852 23.8034L38.9271 24.002C39.0182 24.111 39.1402 24.2528 39.2699 24.3927L39.2773 24.4007L39.3185 24.4448C39.0161 24.5893 38.7112 24.7307 38.4029 24.8683C38.3773 24.8797 38.3516 24.8909 38.3259 24.9021C38.3029 24.9122 38.2795 24.9224 38.2566 24.9325C37.8031 25.1325 37.3438 25.3252 36.8792 25.51L36.3681 25.0647L36.3617 25.0592L36.2689 24.9782L35.1573 24.0098L35.0743 23.9378L35.0547 23.9206L35.0169 23.8876L34.9859 23.902L34.9659 23.9111L34.9321 23.9265L34.91 23.9369L34.8899 23.9461C34.8758 23.9526 34.8617 23.959 34.8478 23.9656C34.8338 23.972 34.8199 23.9783 34.8062 23.9847C34.8181 24.0041 34.8303 24.0236 34.8429 24.0437L34.8561 24.0644C34.8743 24.0933 34.8931 24.1226 34.9122 24.1522C34.9441 24.2014 34.9773 24.2514 35.0112 24.3012C35.0449 24.3509 35.079 24.4002 35.1134 24.448C35.1757 24.5345 35.2377 24.6146 35.2968 24.6829C35.3287 24.72 35.3598 24.7538 35.3892 24.7819C35.3357 25.1093 35.1252 25.3755 34.8619 25.5864C35.2781 25.4167 35.6878 25.2408 36.0905 25.0578L36.0944 25.0586L36.1017 25.0604L36.1055 25.0613L36.2041 25.1473L36.2875 25.2197L36.4095 25.3261C36.4607 25.4126 36.5237 25.5162 36.592 25.6235C35.6907 25.9744 34.7703 26.2957 33.8364 26.5872L33.6355 26.3041L33.5722 26.2147L33.5686 26.2097L32.9273 25.3057L32.8666 25.2205L32.6369 24.8965L32.5007 24.9482L32.4891 24.9526L32.4816 24.9555L32.4729 24.9587L32.4643 24.962L32.4813 25.0057C32.5212 25.1097 32.5671 25.2242 32.6158 25.338L32.6254 25.3605C32.6395 25.3928 32.6538 25.4247 32.6681 25.4563C32.6936 25.5127 32.7195 25.5667 32.7453 25.6178C32.7589 25.6445 32.7723 25.6702 32.7856 25.6948C32.7739 25.7403 32.758 25.7847 32.7385 25.8281C32.5799 26.1831 32.1834 26.4718 31.7563 26.6915C31.8157 26.6733 31.8751 26.655 31.9345 26.6364C32.4065 26.4894 32.8716 26.3326 33.3315 26.1692L33.4099 26.2794L33.4689 26.3628L33.5904 26.5338C33.6041 26.5709 33.6188 26.6098 33.6346 26.6507C32.6096 26.9652 31.5682 27.2428 30.5175 27.4824L30.5112 27.4635L30.4557 27.2994L30.4201 27.1936L30.4192 27.1912L30.4149 27.1784L30.3826 27.0828L30.3565 27.0059L30.2643 26.7324L30.2565 26.7092L30.1981 26.5367L29.9555 25.8183C29.9621 25.8077 29.9698 25.7974 29.9774 25.7869C29.9676 25.7897 29.9576 25.7924 29.9477 25.7954L29.8931 25.811L29.8849 25.8134L29.8659 25.8188L29.8114 25.8343L29.7842 25.8422L29.8472 26.0288L29.8643 26.1166C29.8888 26.2395 29.9157 26.3647 29.9437 26.4784C29.9594 26.5424 29.9757 26.6031 29.9919 26.6566C29.9947 26.6662 29.9976 26.6742 30.0006 26.6835C29.9509 26.7975 29.8659 26.9026 29.7568 26.9996C29.7186 27.0335 29.6779 27.0667 29.6338 27.0987C29.5138 27.1859 29.3737 27.2656 29.2212 27.3384C29.1645 27.3655 29.106 27.3916 29.0464 27.4167C29.0692 27.4114 29.0919 27.4055 29.1149 27.4001C29.1943 27.3818 29.2733 27.3624 29.3522 27.3431L29.4713 27.314C29.6777 27.2642 29.8843 27.2143 30.0893 27.1613L30.1246 27.152L30.1618 27.142C30.1805 27.1369 30.1993 27.1318 30.2181 27.1268L30.3508 27.52C30.0757 27.5816 29.7999 27.6401 29.5238 27.6963C29.3443 27.7329 29.1648 27.7687 28.985 27.803C28.8111 27.8362 28.6369 27.869 28.4626 27.9002C28.4016 27.9111 28.3405 27.9214 28.2794 27.9318L28.1672 27.9509L28.1203 27.9589L28.1001 27.9623C27.9353 27.9903 27.7705 28.0172 27.6056 28.0433C27.4449 28.0686 27.2841 28.0938 27.1232 28.1173C27.0714 28.125 27.0196 28.1322 26.9678 28.1393L26.8697 28.153L26.8701 28.0847L26.8706 27.9714L26.8708 27.97L26.8713 27.8529L26.8772 26.8045C26.9323 26.7329 27.0089 26.6623 27.1034 26.5936C27.1564 26.5549 27.2147 26.5171 27.2772 26.4796L27.2601 26.4834C27.1332 26.5118 27.0066 26.54 26.8786 26.5672C26.8405 26.5754 26.8019 26.5829 26.7637 26.5907L26.7468 26.5943L26.7084 26.6022V26.6166L26.7074 26.8236L26.7038 27.4285C26.525 27.6993 26.0896 27.9031 25.5699 28.0551C25.9483 28.0022 26.3256 27.9443 26.7013 27.8809L26.7009 27.955L26.7004 28.0311L26.7001 28.1127L26.6997 28.1767C26.5365 28.199 26.373 28.2199 26.2098 28.2402C26.0475 28.2604 25.8851 28.28 25.7228 28.2982C25.6209 28.3098 25.5189 28.3209 25.4168 28.3316C25.3137 28.3425 25.2108 28.3532 25.1077 28.3632C25.0725 28.3667 25.0373 28.3699 25.0021 28.3731L24.9407 28.3787L24.8406 28.3883C24.7715 28.3949 24.7024 28.4016 24.6333 28.4074L24.5391 28.4154C24.4924 28.4193 24.4456 28.4229 24.3988 28.4264L24.3195 28.4324C23.8196 28.4716 23.3204 28.5018 22.8229 28.5225L22.8393 28.4759L22.8843 28.3485L22.9053 28.2893C22.9663 28.2124 23.0272 28.1303 23.0503 28.0809C23.0848 28.0072 23.1201 27.8918 23.1538 27.7598L23.1551 27.7546C23.1938 27.7115 23.2362 27.6692 23.2816 27.6276C23.3272 27.586 23.375 27.545 23.4264 27.5052C23.4525 27.4852 23.4794 27.4654 23.5067 27.446C23.5591 27.4082 23.6139 27.3714 23.6705 27.3354C23.727 27.2995 23.785 27.2644 23.8449 27.2303C23.9602 27.1647 24.0804 27.1024 24.2026 27.0441C24.0153 27.0694 23.8289 27.0926 23.6435 27.1136C23.5667 27.1224 23.4906 27.13 23.4144 27.1376L23.3413 27.1449L23.3295 27.1462L23.3087 27.1482L23.2833 27.1509C23.2685 27.1523 23.2537 27.154 23.2391 27.1554L23.2379 27.1556L23.2243 27.1571L23.2152 27.1579L23.1737 27.1622L23.1681 27.1628L23.1219 27.1675L23.1057 27.2134L22.7426 28.2401C22.673 28.2927 22.5878 28.3387 22.4904 28.3796C22.5271 28.3772 22.564 28.3741 22.6009 28.371C22.6334 28.3683 22.6668 28.3655 22.6991 28.3632L22.6482 28.5066L22.6399 28.5305C22.5929 28.5323 22.546 28.5335 22.4991 28.5347L22.4233 28.5367L22.3629 28.5387C22.2413 28.5425 22.1197 28.5464 21.9983 28.5489L21.9955 28.5473L21.9229 28.5487C21.9124 28.5489 21.9019 28.5489 21.8914 28.5489L21.8652 28.5489C21.8481 28.5492 21.831 28.5492 21.8139 28.5491L21.7766 28.5492C20.9249 28.5615 20.0771 28.5396 19.2381 28.4862C19.0326 28.4732 18.828 28.4577 18.6235 28.4408L18.6722 28.3733L18.6734 28.3727L18.6819 28.368L18.6903 28.3633C18.851 28.2748 19.0677 28.1464 19.1416 28.0595C19.5951 27.7225 20.3041 27.4642 21.0114 27.2733C20.9718 27.2735 20.9317 27.2747 20.8922 27.2747C20.4277 27.2747 19.9721 27.2585 19.5234 27.2294L19.3958 27.2205L19.3594 27.218C19.3391 27.2167 19.3188 27.2153 19.2986 27.2137L18.4835 28.3448L18.4264 28.4238C17.7836 28.3667 17.148 28.2909 16.5207 28.1967L16.4566 28.1874C16.4262 28.183 16.3958 28.1786 16.3655 28.1739C15.6773 28.0668 14.9993 27.9396 14.3371 27.7892L14.4217 27.7161L14.4914 27.656L14.524 27.6486L14.5533 27.6417C14.7564 27.5939 15.0331 27.5188 15.138 27.4428L15.1397 27.4414C15.1865 27.4071 15.2398 27.3523 15.2958 27.2863C15.9361 27.2738 17.1607 27.1759 18.1345 27.0901C17.3144 26.9768 16.5261 26.8107 15.7723 26.5934L15.7601 26.5898L15.736 26.5825L15.7144 26.5762L15.6796 26.5658L15.6001 26.5423C15.5809 26.5366 15.5615 26.531 15.5424 26.5251L14.1336 27.7404L14.0827 27.728C14.0584 27.7222 14.0341 27.7163 14.0099 27.7103L13.9004 27.6831L13.8049 27.66C13.7131 27.6379 13.621 27.6158 13.5302 27.5923L13.6075 27.5884C12.8819 27.3425 12.1894 27.0549 11.5303 26.7267C11.2547 26.5893 10.985 26.4448 10.7213 26.2932L10.8442 26.2224L10.9357 26.1694L10.943 26.1689L10.9646 26.1676C11.221 26.151 11.6344 26.1128 11.7917 26.0338C11.8133 26.0229 11.8365 26.0088 11.8609 25.9922C11.9942 26.0861 12.1819 26.1601 12.4042 26.2182C12.7779 26.3162 13.2491 26.369 13.7256 26.3952C13.8235 26.4006 13.9216 26.4049 14.0192 26.4081C14.4393 26.4222 14.8473 26.4182 15.1802 26.409C14.7355 26.2607 14.3032 26.0943 13.8854 25.9082C13.8713 25.902 13.8573 25.8956 13.8433 25.8891L13.7682 25.8543C13.6314 25.7917 13.496 25.7275 13.3622 25.6609C13.1094 25.535 12.8607 25.4035 12.6191 25.2631L12.6027 25.2533L12.5842 25.2422L12.5732 25.2355L12.5635 25.2297L12.5299 25.2096L12.4802 25.1796L12.4438 25.1579C12.4281 25.1485 12.4123 25.1392 12.3968 25.1297L10.1103 26.4496C10.0037 26.405 9.89972 26.3582 9.79565 26.3114L9.6905 26.2643L9.62437 26.2349C9.59162 26.2204 9.55818 26.2056 9.5257 26.1908C9.3137 26.0939 9.1057 25.994 8.9006 25.8918C9.1228 25.931 9.3394 25.9574 9.5366 25.9746C9.5804 25.9785 9.6234 25.9819 9.6652 25.9847C9.9062 26.002 10.1096 26.0065 10.2446 26.0067C10.038 25.8768 9.8382 25.7444 9.6468 25.6088C9.63236 25.5985 9.61826 25.5882 9.60415 25.5778L9.571 25.5535C8.9928 25.1375 8.4843 24.6963 8.0512 24.2346L8.2838 24.1447L8.3052 24.1365C8.5955 24.1551 9.1253 24.1766 9.3309 24.106C9.3548 24.0978 9.3812 24.0862 9.409 24.0725C9.4104 24.0717 9.4122 24.0707 9.4138 24.07C9.5713 24.3169 9.8172 24.5053 10.1056 24.6494C10.8292 25.0112 11.8197 25.0936 12.3635 25.1095C11.5436 24.6041 10.8572 24.0357 10.3129 23.4249L10.2634 23.3692C10.2553 23.36 10.2471 23.3508 10.2389 23.3416C10.2293 23.331 10.2197 23.3204 10.2105 23.3096C10.1986 23.2958 10.1872 23.2817 10.1759 23.2677L10.1536 23.2404L6.6779 24.5827L6.6764 24.5834C6.0014 24.1119 5.403 23.6131 4.883 23.0927C4.8696 23.0795 4.8569 23.0661 4.8439 23.0527C4.749 22.9569 4.6566 22.8602 4.567 22.763C4.4668 22.654 4.3703 22.5441 4.2766 22.4335C4.3956 22.454 4.5347 22.4758 4.6732 22.4933L4.70069 22.4966L4.7196 22.4988C4.9376 22.5245 5.1479 22.537 5.2674 22.5116C5.3012 22.5045 5.3408 22.4911 5.3827 22.4752C5.44 22.5632 5.5033 22.6465 5.5727 22.7239C6.1883 23.4127 7.2218 23.698 7.6653 23.7929C7.2402 23.272 6.9044 22.7291 6.6634 22.1714C6.6158 22.0612 6.5726 21.9504 6.5325 21.8392L6.6927 21.8009L6.8315 21.7675C6.9671 21.7909 7.1521 21.8205 7.3399 21.843C7.5922 21.8731 7.8467 21.8904 7.9841 21.8606C8.0102 21.8551 8.0392 21.8462 8.0701 21.8353C8.4631 22.4264 9.1598 22.7708 9.716 22.9621C9.8165 22.9967 9.9124 23.0263 10.0011 23.0515C9.928 22.9573 9.8587 22.8618 9.7922 22.7659C9.4607 22.2885 9.2106 21.7914 9.0474 21.283L9.04282 21.2693C9.03956 21.2595 9.03629 21.2498 9.0333 21.24L9.02929 21.2258L9.0275 21.2194L9.0247 21.2098C9.02149 21.1995 9.01857 21.189 9.01566 21.1786L9.0099 21.1583L9.00591 21.1447C8.99943 21.1224 8.99296 21.1003 8.9869 21.078L8.9865 21.0766L4.1177 22.2431C4.07798 22.1937 4.03998 22.1439 4.00207 22.0942L3.94475 22.0192C3.9177 21.9839 3.89038 21.9483 3.8643 21.9127C3.7271 21.7254 3.599 21.5363 3.4808 21.3453L3.47395 21.3348L3.4665 21.3233C3.3446 21.1253 3.234 20.9251 3.1327 20.7233C3.0039 20.4672 2.8924 20.208 2.7973 19.9468C2.7688 19.8683 2.7404 19.79 2.7149 19.7111C2.71012 19.6962 2.70569 19.6812 2.70126 19.6662C2.69755 19.6537 2.69382 19.6411 2.6899 19.6285C2.68476 19.6119 2.67998 19.5952 2.67519 19.5785L2.6657 19.5457C2.6362 19.4464 2.6091 19.3466 2.5847 19.2467C2.5839 19.2441 2.5834 19.2414 2.5827 19.2389C2.4114 18.5367 2.3604 17.822 2.4343 17.1034C2.5267 17.1034 2.6193 17.0831 2.6899 17.0422C2.727 17.0208 2.754 16.9959 2.7718 16.9693C2.788 16.945 2.7968 16.9195 2.797 16.894L2.79687 16.8928L2.79662 16.8917L2.79632 16.8903L2.7962 16.889L4.1892 16.894H4.1986C4.1986 16.894 4.1823 16.9206 4.1559 16.9693H4.4979C4.582 17.003 4.689 17.0449 4.8066 17.0886L4.8183 17.0929C5.1509 17.216 5.5617 17.351 5.7687 17.3507C5.7883 17.3507 5.811 17.3487 5.834 17.3464C5.8321 17.3564 5.82981 17.3667 5.82751 17.377C5.82413 17.3921 5.82074 17.4072 5.8186 17.4217C5.7073 18.1793 6.1085 18.6278 6.3451 18.8218C6.4114 18.5345 6.5017 18.2475 6.6166 17.961C6.724 17.6425 6.874 17.3107 7.0615 16.9693H7.4496C7.7446 17.0875 8.2818 17.2907 8.5986 17.3393C8.544 17.6788 8.592 17.9567 8.6835 18.179C8.7635 18.3734 8.8752 18.5256 8.9815 18.6369C9.0307 18.4553 9.0901 18.2743 9.162 18.0939C9.215 17.9383 9.2835 17.7783 9.3636 17.6151C9.4442 17.4508 9.5386 17.2829 9.6442 17.1123C9.65096 17.1014 9.65765 17.0906 9.66435 17.0797C9.6831 17.0493 9.7018 17.019 9.7217 16.9883L9.734 16.9693C9.743 16.9554 9.75256 16.9415 9.76212 16.9275C9.76977 16.9164 9.77742 16.9052 9.7848 16.894C9.79011 16.8862 9.79542 16.8783 9.80073 16.8704C9.81662 16.8468 9.83256 16.8231 9.8489 16.7994H4.2348C4.23413 16.8013 4.23342 16.8031 4.2327 16.8049C4.2319 16.807 4.23109 16.809 4.2303 16.811C4.22655 16.8209 4.2226 16.8309 4.21865 16.8409C4.21154 16.8589 4.20445 16.8769 4.1986 16.894L4.1959 16.8888L4.1938 16.8847C4.17967 16.86 4.16624 16.8327 4.15269 16.8051L4.1499 16.7994C3.9387 16.3693 3.7965 15.6329 3.717 15.1123C3.6738 14.8292 3.649 14.6114 3.6415 14.5425C3.7361 14.5434 3.831 14.5236 3.903 14.4818C3.9726 14.4417 4.0078 14.3894 4.0095 14.3368C4.0104 14.3063 3.9995 14.276 3.9778 14.2476L5.7257 14.449C5.7257 14.449 5.7029 14.4781 5.6646 14.5275L5.7011 14.5318L6.1464 14.5832C6.2774 14.6536 6.4583 14.7478 6.6461 14.837C6.6961 14.8608 6.7464 14.884 6.7963 14.9063C7.0077 15.0006 7.2106 15.0775 7.3396 15.0918C7.3865 15.0971 7.445 15.0963 7.5114 15.0909C7.4684 15.2625 7.4334 15.4177 7.4059 15.5563C7.2917 16.1319 7.2966 16.433 7.3073 16.5509C7.6462 16.0077 8.0742 15.4447 8.5771 14.8752L8.524 14.8815L8.5859 14.8643L8.6281 14.8693L8.7605 14.8845L9.0065 14.9129C9.3382 15.0839 9.9802 15.3988 10.2683 15.4295C10.2844 15.4312 10.3032 15.4316 10.3219 15.4319L10.3258 15.432C10.2221 15.8507 10.1692 16.1661 10.1442 16.3957C10.417 16.0418 10.7299 15.6811 11.0756 15.3187C11.0991 15.2942 11.123 15.2695 11.1469 15.2449L11.1757 15.2152L11.2217 15.1682L11.2431 15.1462C11.2609 15.128 11.2787 15.1097 11.2968 15.0914L11.3121 15.076C11.3322 15.0556 11.3525 15.035 11.373 15.0145L5.8287 14.3755L5.7959 14.3716L6.0683 14.0713C5.8519 13.833 5.729 13.4671 5.6583 13.1103C5.6062 12.8463 5.5825 12.5878 5.5729 12.3892C5.5666 12.2645 5.5657 12.1648 5.5659 12.1015C5.6508 12.0984 5.7347 12.0802 5.7998 12.0428C5.8513 12.013 5.8836 11.9764 5.8979 11.938C5.9056 11.9173 5.9068 11.8961 5.9036 11.8751C5.902 11.8649 5.8997 11.8549 5.8956 11.8451L7.8038 12.2849L8.2999 11.8497C8.1516 11.6865 8.0532 11.4669 7.9871 11.2337C7.9192 10.9945 7.886 10.742 7.8714 10.5185C7.8544 10.2561 7.8617 10.0359 7.868 9.93032C7.9565 9.92852 8.0444 9.90952 8.112 9.87042C8.1716 9.83602 8.2048 9.79242 8.2146 9.74762C8.2217 9.71452 8.216 9.68092 8.1961 9.64932L10.1376 10.4024L10.1463 10.4058L10.0698 10.4671L10.4831 10.6275C10.6234 10.7554 10.8314 10.9394 11.0339 11.0962C11.117 11.1608 11.1985 11.2198 11.274 11.2689C11.3539 11.3206 11.4272 11.3615 11.4863 11.3823C11.5007 11.3873 11.5179 11.3916 11.5355 11.3959C11.4215 11.8119 11.3011 12.1023 11.1942 12.3013C11.1509 12.3815 11.1102 12.4467 11.0728 12.5C11.5221 12.1321 11.9954 11.77 12.4887 11.4171L12.5146 11.4155L12.6412 11.4647L12.7585 11.5101L12.888 11.5604C13.1575 11.8005 13.6706 12.2372 13.9339 12.3314C13.8603 12.5953 13.7843 12.8077 13.7109 12.9769C13.973 12.7744 14.2385 12.576 14.5061 12.3831C14.5544 12.3484 14.6029 12.3136 14.6513 12.2791L14.6829 12.2565L14.766 12.1976L14.8498 12.1391L10.2282 10.3464L10.8 9.93182C10.7029 9.82472 10.6303 9.69432 10.5747 9.55342C10.4864 9.32912 10.4439 9.07742 10.4266 8.84122C10.4066 8.56592 10.4196 8.31552 10.4337 8.15792C10.4375 8.11672 10.4412 8.08072 10.4442 8.05372C10.5347 8.05272 10.6248 8.03302 10.6938 7.99332C10.8023 7.93052 10.8276 7.83822 10.7707 7.76152C10.7698 7.76019 10.7685 7.75893 10.7673 7.75767L10.7648 7.75492C10.7548 7.74262 10.7425 7.73102 10.7286 7.71982C10.7857 7.69192 10.8487 7.66052 10.9175 7.62582ZM39.1652 28.9733L37.2055 30.1131V29.3187L38.3599 28.6495L38.4615 28.6072C38.526 28.5804 38.5906 28.5535 38.6548 28.526C38.8257 28.4529 38.9956 28.378 39.1652 28.3027V28.9733ZM48.2818 22.5516L48.2836 22.55L48.3173 22.5195C48.5591 22.2963 48.7919 22.0719 49.0158 21.8464C49.2396 21.6209 49.4546 21.3943 49.6607 21.1669C49.7818 21.0331 49.8988 20.8989 50.0139 20.7646L50.0128 21.0935C50.0206 21.0979 50.0287 21.1019 50.037 21.1058L50.0434 21.1087L50.0633 21.1175L50.0743 21.1222L50.0978 21.1322C50.1696 21.1644 50.2453 21.1918 50.3265 21.2107L50.3261 21.2634C50.3261 21.265 50.3265 21.2665 50.3268 21.268C50.3271 21.2693 50.3275 21.2706 50.3275 21.2719L50.3274 21.3624L48.2818 22.5516ZM53.1232 15.0499L53.2269 17.5066C53.2271 17.513 53.2265 17.5195 53.2249 17.5259C53.2215 17.8798 53.1892 18.2338 53.1327 18.585C53.1132 18.7053 53.0911 18.8252 53.0654 18.9447C53.0636 18.9535 53.0621 18.9622 53.0606 18.9709C53.0589 18.9807 53.0573 18.9906 53.0551 19.0004C53.0523 19.0127 53.0491 19.0249 53.0458 19.0371C53.0427 19.0487 53.0396 19.0603 53.0369 19.0719C53.0294 19.1037 53.0209 19.1354 53.0124 19.167L53.0121 19.1681C53.0076 19.185 53.0029 19.2024 52.9985 19.2193L52.998 19.2218C52.993 19.2416 52.9878 19.2612 52.9827 19.2808C52.9779 19.2989 52.9733 19.3169 52.9688 19.335L52.9596 19.3712C52.9559 19.3852 52.9522 19.3992 52.9482 19.4132L52.9472 19.4175L52.9442 19.4285L52.9426 19.4348L52.9399 19.4456C52.9375 19.4556 52.9349 19.4659 52.932 19.4758L52.93 19.484L52.9281 19.4913L52.9275 19.4955C52.9272 19.4973 52.9268 19.4991 52.9263 19.501C52.8842 19.6649 52.8358 19.8294 52.7839 19.994C52.742 20.1266 52.6979 20.2595 52.6498 20.3926C52.3599 21.1947 51.9544 22.0023 51.4429 22.8047C51.4193 22.8417 51.3963 22.8786 51.3722 22.9155C51.3627 22.9302 51.3535 22.9448 51.3443 22.9595C51.3327 22.9782 51.321 22.9968 51.3087 23.0154C51.303 23.0238 51.2955 23.0311 51.2866 23.0363L51.221 23.0745C51.2106 23.0805 51.199 23.0836 51.1872 23.0836C51.1758 23.0836 51.1644 23.0805 51.1539 23.0747C51.1529 23.0741 51.1522 23.0732 51.1515 23.0723C51.1509 23.0715 51.1502 23.0707 51.1494 23.07C51.1319 23.0575 51.1203 23.0384 51.1203 23.0167V22.8699C51.1203 22.8568 51.1243 22.8442 51.1314 22.8333L51.1494 22.8047L51.1684 22.7753L51.1979 22.7283L51.2186 22.6952L51.2313 22.6752C51.2531 22.641 51.2747 22.6067 51.2961 22.5725C51.432 22.3555 51.5603 22.1382 51.6798 21.9209C51.7979 21.7062 51.9078 21.4912 52.0098 21.2766C52.286 20.6952 52.5044 20.115 52.6594 19.5409L52.6596 19.5391L52.6594 19.5354L52.6594 19.532C52.6595 19.5272 52.6601 19.5223 52.6615 19.5175L52.687 19.4319C52.6914 19.417 52.6951 19.4019 52.6988 19.3867C52.7022 19.373 52.7056 19.3593 52.7095 19.3456C52.7165 19.3211 52.7227 19.2964 52.729 19.2717L52.7386 19.234L52.7415 19.223C52.7467 19.2032 52.752 19.183 52.757 19.1632C52.7614 19.146 52.766 19.1288 52.7707 19.1116C52.778 19.0845 52.7855 19.0567 52.7919 19.0293C52.8815 18.6478 52.9375 18.262 52.9614 17.8748C52.9689 17.7526 52.9762 17.6302 52.9771 17.508L52.9789 17.312L52.9805 16.9848V16.9698L52.9811 16.8703L52.9764 16.9268C52.9762 16.9315 52.9758 16.9362 52.9754 16.9409L52.975 16.9459C52.9564 17.1755 52.9363 17.4097 52.9142 17.6183C52.8872 17.8729 52.8574 18.0886 52.8244 18.207C52.8242 18.2104 52.8235 18.214 52.8226 18.2174C52.8088 18.2715 52.7929 18.3258 52.7771 18.3799C52.7703 18.4033 52.7634 18.4265 52.7568 18.4498C52.6234 18.9181 52.4514 19.3893 52.24 19.8611C52.0106 20.3737 51.736 20.8869 51.4172 21.3984C51.3478 21.5096 51.2784 21.6207 51.2051 21.7317C51.1994 21.7402 51.1919 21.7474 51.183 21.7525L51.1494 21.772L50.7628 21.9968C50.7525 22.0027 50.7407 22.0057 50.7293 22.0057C50.7177 22.0057 50.7063 22.0028 50.6959 21.9969C50.6927 21.9951 50.6905 21.9922 50.6882 21.9895L50.6856 21.9866C50.672 21.9741 50.6624 21.9577 50.6624 21.9388V21.8068C50.6624 21.7829 50.6751 21.7609 50.6956 21.749L50.7009 21.7458L51.0217 21.5595C51.0272 21.5511 51.0324 21.5428 51.0377 21.5344L51.0418 21.5279C51.0486 21.5168 51.0555 21.5058 51.0627 21.4948C51.0803 21.4677 51.0973 21.4406 51.1143 21.4135L51.1374 21.3766L51.1494 21.3577C51.1678 21.3288 51.1863 21.2998 51.2044 21.2709L51.2252 21.2378L51.2585 21.1855C51.2688 21.1691 51.2791 21.1527 51.2891 21.1362C51.4292 20.9059 51.5581 20.6752 51.6798 20.4445C51.9019 20.0235 52.0932 19.6025 52.2526 19.1832C52.3704 18.8733 52.4728 18.5642 52.5557 18.2568C52.555 18.2489 52.5556 18.2409 52.5579 18.2332L52.5834 18.1481C52.6539 17.9118 52.7115 17.6682 52.7568 17.4215C52.7627 17.3905 52.7684 17.3596 52.7738 17.3284C52.7713 17.3372 52.769 17.346 52.7667 17.3548C52.7635 17.3666 52.7604 17.3785 52.7568 17.3903L52.7579 17.391L52.7568 17.3946C52.6305 17.8843 52.458 18.3777 52.2448 18.873C52.0641 19.2933 51.8527 19.7147 51.6102 20.1362C51.5597 20.0613 51.4837 19.991 51.3772 19.9314L51.1671 20.0579C51.4561 19.6191 51.7119 19.1795 51.9344 18.7404C52.0452 18.5221 52.1454 18.3039 52.2396 18.0861C52.425 17.6565 52.5779 17.2281 52.6983 16.8025C52.7052 16.778 52.7123 16.7535 52.7194 16.729C52.7324 16.6844 52.7454 16.6398 52.7568 16.5954L52.7579 16.5918L52.7568 16.5912C52.7875 16.4882 52.8151 16.385 52.8412 16.2817C52.86 16.2067 52.8763 16.1316 52.8927 16.0563L52.8929 16.0552L52.894 16.0503C52.9309 15.8801 52.963 15.7098 52.9873 15.539L52.9893 15.0966L52.9977 15.0592C53.0018 15.0413 53.006 15.023 53.0096 15.0051C53.0182 14.9967 53.0294 14.9915 53.0415 14.9887C53.0487 14.9865 53.056 14.9856 53.0565 14.9856C53.0922 14.9856 53.1218 15.014 53.1232 15.0499Z" fill="#4BBDCF"/>
<path d="M3.4663 31.3858V31.97C3.2792 32.0828 3.0146 32.0635 2.8194 31.9547C2.7195 31.899 2.669 31.825 2.6687 31.7506V31.1662C2.6692 31.2404 2.7195 31.3146 2.8194 31.3704C2.914 31.423 3.0353 31.4489 3.1566 31.4495C3.2151 31.4496 3.2731 31.4434 3.3284 31.4316C3.3778 31.4211 3.4238 31.4057 3.4663 31.3858Z" fill="#4BBDCF"/>
</svg>
