<svg width="52" height="41" viewBox="0 0 52 41" fill="none" xmlns="http://www.w3.org/2000/svg">
<path fill-rule="evenodd" clip-rule="evenodd" d="M50.868 17.7885C50.825 18.9161 50.5563 20.026 50.0782 21.1017C50.0277 21.215 49.9751 21.3279 49.9201 21.4403C49.8561 21.5714 49.7886 21.702 49.7183 21.8319C49.7067 21.8533 49.6953 21.8749 49.6836 21.8963C49.6506 21.9564 49.6167 22.0162 49.5822 22.0761C49.5335 22.1609 49.4846 22.2454 49.4333 22.3296C49.3785 22.4194 49.3216 22.5088 49.2638 22.5978C49.2388 22.6361 49.2135 22.6745 49.188 22.7128C49.1476 22.7733 49.1064 22.8336 49.0649 22.8939C49.0415 22.9275 49.019 22.9612 48.9955 22.9947C48.9177 23.1046 48.8378 23.2141 48.7553 23.323C48.5973 23.5321 48.431 23.7392 48.2562 23.9442C48.0838 24.1461 47.9029 24.3457 47.7146 24.5432C47.6464 24.6146 47.5763 24.6854 47.5062 24.7562C47.4678 24.7949 47.4305 24.8338 47.3916 24.8722C46.2456 26.0052 44.8305 27.0621 43.1666 28.0151C40.3586 29.6235 37.0368 30.8209 33.4354 31.5572C30.8549 32.0849 28.1321 32.3775 25.3475 32.4073C24.0737 32.4208 22.8169 32.3791 21.5845 32.2852C16.4366 31.894 11.7202 30.5812 8.01068 28.4827C7.95618 28.4518 7.89888 28.4229 7.84478 28.3917C7.46018 28.1699 7.09198 27.9412 6.73748 27.7071C6.71408 27.692 6.69148 27.677 6.66848 27.6618C6.63438 27.6392 6.60008 27.6165 6.56638 27.5937C6.12218 27.2938 5.70368 26.9837 5.30918 26.6655C4.72368 26.1929 4.19388 25.701 3.72128 25.1922C3.67828 25.146 3.63418 25.1 3.59228 25.0534C3.31948 24.7516 3.06708 24.4439 2.83458 24.1308C2.81248 24.101 2.79148 24.0708 2.76948 24.0408C2.72688 23.9822 2.68498 23.9233 2.64378 23.8644C2.28708 23.3542 1.98438 22.8308 1.73608 22.2963C1.72678 22.2759 1.71698 22.2558 1.70768 22.2356C1.68898 22.1946 1.66998 22.1536 1.65198 22.1123C1.62968 22.0615 1.60888 22.0105 1.58748 21.9595C1.48088 21.7042 1.38568 21.4469 1.30418 21.1872C1.01088 20.2554 0.878282 19.2963 0.915382 18.3203C1.06118 14.4868 3.79618 10.8549 8.61618 8.094C9.75258 7.4429 10.9756 6.8613 12.2643 6.3477L10.7297 7.6785L7.80608 10.5709C7.61928 10.5158 7.39058 10.5329 7.23328 10.6246L6.49678 11.0524C6.38838 11.1156 6.32608 11.2082 6.32608 11.307C6.32628 11.4062 6.38928 11.4993 6.49898 11.5628L7.24018 11.9908C7.26448 12.0047 7.29048 12.017 7.31778 12.0276C7.36398 12.0456 7.41438 12.0575 7.46588 12.0656C7.50748 12.072 7.54978 12.0765 7.59238 12.0765C7.71908 12.0765 7.84548 12.0477 7.94398 11.9906L8.68048 11.5627C8.78928 11.4995 8.85138 11.4067 8.85118 11.3079C8.85118 11.2364 8.81728 11.1684 8.75768 11.112C8.73468 11.0904 8.70878 11.0701 8.67828 11.0524L8.67348 11.0496L8.48648 10.9417C8.54788 10.8781 8.60498 10.8189 8.65328 10.7697L11.1561 8.2064L12.9943 6.0685C14.2781 5.5923 15.6227 5.1827 17.0176 4.8463L15.8446 6.3454C15.6678 6.3065 15.4638 6.3282 15.3196 6.4121L14.5832 6.8401C14.4747 6.9032 14.4124 6.996 14.4126 7.0946C14.4128 7.1938 14.4758 7.2869 14.5853 7.3503L14.9009 7.5324C14.8995 7.5328 14.8982 7.5326 14.897 7.533C14.3463 7.6932 13.8232 7.8871 13.3422 8.109C13.3426 8.109 13.342 8.1092 13.3422 8.109C13.0752 8.2324 12.8229 8.3623 12.5942 8.4944C12.0326 8.8187 11.5489 9.1826 11.1529 9.5785C11.0978 9.6338 11.0441 9.6895 10.9923 9.746C10.9925 9.7458 10.9922 9.7462 10.9923 9.746C10.992 9.7465 10.9909 9.7474 10.9904 9.748C10.8468 9.9046 10.7187 10.0657 10.6033 10.2302L7.96758 12.743L4.72708 16.3272C4.59578 16.3249 4.46328 16.3527 4.36118 16.4121L3.62478 16.8401C3.51608 16.9031 3.45398 16.9958 3.45418 17.0947C3.45418 17.1937 3.51718 17.287 3.62668 17.3503L4.36818 17.7783C4.46698 17.8354 4.59368 17.8639 4.72028 17.8639C4.84698 17.8639 4.97368 17.8354 5.07198 17.7781L5.80838 17.3501C5.91858 17.2861 5.97928 17.1956 5.97908 17.0956C5.97888 16.9965 5.91598 16.9032 5.80628 16.8399L5.56218 16.699L8.49468 13.3386L10.0912 11.2305C10.0757 11.2769 10.0597 11.3231 10.0461 11.3698C9.87878 11.9505 9.87558 12.5398 10.0359 13.1208C10.0433 13.1476 10.0581 13.1702 10.0755 13.1902C10.1526 13.4462 10.2595 13.6963 10.3968 13.9389C10.4115 13.9648 10.4275 13.9905 10.4429 14.0162C10.5952 14.2717 10.7804 14.5186 10.9975 14.7555C10.6507 14.9699 10.3117 15.1968 9.98598 15.4322C8.99228 16.1497 8.12398 16.9411 7.54568 17.6707C7.52798 17.693 7.50998 17.7153 7.49278 17.7374C7.34778 17.9253 7.22348 18.1082 7.12108 18.2846C7.04698 18.412 6.98508 18.5356 6.93568 18.655C6.91388 18.7078 6.89468 18.7597 6.87788 18.8105L6.86698 18.8168L6.85808 18.8697C6.85788 18.8701 6.85768 18.8705 6.85768 18.8708C6.85558 18.8778 6.85468 18.8872 6.85358 18.8962L6.85288 18.8997L6.85128 18.9095C6.85008 18.9181 6.84878 18.927 6.84738 18.9356C6.84148 18.9741 6.83578 19.0139 6.82938 19.0605L6.82398 19.0974C6.81718 19.1498 6.81578 19.2017 6.81078 19.2542C6.78228 19.553 6.78188 19.8497 6.80938 20.1439C6.81798 20.237 6.82808 20.3298 6.84238 20.4222C6.84238 20.422 6.84238 20.4224 6.84238 20.4222C6.91268 20.8773 7.05128 21.3258 7.25588 21.7652C7.31858 21.8999 7.38738 22.0337 7.46268 22.1668C7.49088 22.2165 7.51568 22.2668 7.54568 22.3163C7.64518 22.4807 7.75648 22.6415 7.87338 22.8001C8.52348 23.6817 9.43848 24.4713 10.6074 25.1507C11.9573 25.9349 13.6478 26.5495 15.4962 26.9275C15.8573 27.0014 16.2246 27.0663 16.5964 27.1222C17.1541 27.2058 17.7218 27.2688 18.2941 27.3111C18.8664 27.3532 19.4433 27.3746 20.0194 27.3746C20.1885 27.3746 20.3578 27.3712 20.5268 27.3677C20.7801 27.3621 21.0332 27.3539 21.2851 27.34L21.3276 27.3377L21.3645 27.3163L23.4111 26.1347C23.4539 26.136 23.4966 26.1256 23.5301 26.098C23.5494 26.0819 23.564 26.0619 23.5751 26.0402L25.2511 25.0724C25.2665 25.0727 25.2818 25.0754 25.2966 25.072C25.322 25.0659 25.3462 25.0545 25.3671 25.0379C25.3876 25.0215 25.4037 25.0006 25.4151 24.9776L26.7675 24.1969L26.6343 27.8169L26.6296 27.9669L26.6245 28.1392L26.0732 28.4596C25.9646 28.5228 25.9025 28.6156 25.9027 28.7142C25.9027 28.8134 25.9658 28.9065 26.0753 28.9699L26.8168 29.3978C26.9156 29.4549 27.0423 29.4835 27.1688 29.4835C27.2954 29.4835 27.4219 29.4549 27.5204 29.3977L28.2568 28.9697C28.3655 28.9065 28.4277 28.8138 28.4276 28.7151C28.4274 28.6161 28.3644 28.5228 28.2547 28.4595L27.6335 28.1009V24.5611C28.26 24.8428 28.9335 25.0711 29.6357 25.2459C29.7707 25.2797 29.9083 25.3084 30.0453 25.338C30.0558 25.3403 30.0663 25.3428 30.0769 25.345C30.1955 25.3705 30.3148 25.3944 30.4347 25.4168C30.4577 25.4211 30.48 25.4263 30.5031 25.4306C30.5295 25.4354 30.5566 25.4388 30.5833 25.4433C30.6827 25.4607 30.7812 25.4805 30.8814 25.4961C31.6457 25.6143 32.4282 25.675 33.2081 25.675C34.0472 25.675 34.8822 25.606 35.6865 25.4684L36.0354 26.645L35.6647 26.8605C35.5562 26.9234 35.494 27.0162 35.4942 27.1149C35.4943 27.2142 35.5573 27.3074 35.667 27.3707L36.4081 27.7987C36.5071 27.8558 36.6338 27.8843 36.7604 27.8843C36.8871 27.8843 37.0138 27.8558 37.1121 27.7985L37.8483 27.3705C37.9587 27.3065 38.0192 27.216 38.0192 27.1159C38.019 27.0922 38.0149 27.069 38.008 27.0464C37.9894 26.9861 37.9452 26.9315 37.8828 26.8867C37.8706 26.8778 37.8599 26.8681 37.8464 26.8603L37.1049 26.4323C37.0785 26.417 37.0498 26.4041 37.0198 26.3929L36.6331 25.2695C36.9194 25.1983 37.1975 25.1143 37.4708 25.0244C37.5217 25.0076 37.5729 24.9912 37.6232 24.9739C37.714 24.9425 37.8037 24.9098 37.8929 24.8763C37.9837 24.8424 38.0727 24.8071 38.1612 24.771C38.226 24.7446 38.2908 24.7184 38.3543 24.6908C38.3824 24.6785 38.4119 24.6676 38.4397 24.6551C38.4396 24.6551 38.4401 24.6551 38.4397 24.6551C38.5614 24.6009 38.6793 24.5448 38.7935 24.4885C38.821 24.4747 38.849 24.4613 38.8763 24.4474C38.9166 24.4269 38.9556 24.4062 38.9949 24.3855C39.0811 24.3397 39.1671 24.2935 39.2507 24.2453C39.3628 24.1805 39.4718 24.1135 39.5779 24.0448C39.5918 24.0359 39.6048 24.0264 39.6186 24.0173C39.7144 23.9543 39.8086 23.8901 39.8992 23.8239C39.9033 23.8209 39.9072 23.8177 39.9115 23.8146C40.0159 23.7381 40.1163 23.6593 40.2134 23.5786C40.2751 23.5276 40.3327 23.475 40.3911 23.4227C40.4184 23.3981 40.4476 23.3745 40.4742 23.3497C40.481 23.3433 40.487 23.3367 40.4938 23.3305C40.5468 23.2803 40.5971 23.2295 40.6471 23.1785C40.6751 23.1497 40.7029 23.121 40.73 23.0919C40.7846 23.0336 40.8374 22.9749 40.8879 22.9153C40.8993 22.9018 40.91 22.8882 40.9213 22.8745C41.2927 22.4265 41.5555 21.9455 41.693 21.4412L42.2296 22.3814L41.9995 22.5152C41.891 22.5783 41.8288 22.6711 41.829 22.7699C41.8291 22.8689 41.8921 22.9622 42.0018 23.0256L42.7431 23.4536C42.7822 23.476 42.8262 23.4928 42.8722 23.5064C42.9044 23.516 42.9374 23.5235 42.9714 23.5287C43.0121 23.5349 43.0535 23.5392 43.0952 23.5392C43.2219 23.5392 43.3484 23.5105 43.4467 23.4534L44.1831 23.0252C44.2934 22.9614 44.354 22.8709 44.3539 22.7708C44.3537 22.6716 44.2909 22.5785 44.1812 22.515L43.8963 22.3505L43.864 22.332L43.4397 22.087C43.3595 22.0408 43.2608 22.0142 43.1588 22.0055L41.7353 19.8709C41.5646 19.0724 41.0918 18.3165 40.3481 17.647C40.2815 17.5871 40.2121 17.528 40.1411 17.4695C40.1356 17.4648 40.1301 17.4602 40.1243 17.4556L39.9657 17.2176L39.9319 17.1698L39.6263 16.7388L41.117 15.8782L44.0673 14.1746L45.5184 16.5894L45.2669 16.7355C45.1584 16.7987 45.0962 16.8915 45.0964 16.9903C45.0965 17.0893 45.1595 17.1826 45.2692 17.246L46.0105 17.6738C46.1095 17.7308 46.2362 17.7596 46.3628 17.7596C46.4895 17.7596 46.616 17.7308 46.7143 17.6738L47.4509 17.2458C47.5611 17.1817 47.6218 17.0913 47.6216 16.991C47.6214 16.892 47.5583 16.7989 47.4486 16.7354L46.7073 16.3074C46.6165 16.2551 46.5021 16.2278 46.3862 16.2235L44.7199 13.7978L44.8202 13.74C44.8211 13.7395 44.8216 13.7388 44.8225 13.7382L44.8921 13.6981L44.906 13.6155C44.9101 13.5916 44.9128 13.5675 44.9165 13.5436L44.9174 13.5383C45.0241 12.8446 44.9777 12.1582 44.7865 11.4938C44.7483 11.3612 44.7042 11.2296 44.6545 11.099C44.169 9.8197 43.1398 8.6358 41.6327 7.6593C41.6299 7.6575 41.627 7.6557 41.6242 7.6539C41.483 7.5626 41.3376 7.4732 41.1881 7.3856L41.1924 7.3767C41.1653 7.364 41.1375 7.353 41.1102 7.3406C41.0114 7.2837 40.9109 7.2277 40.8089 7.1731C40.7718 7.1531 40.7334 7.1341 40.6959 7.1144C40.6158 7.0727 40.5352 7.0313 40.4533 6.9908C40.4076 6.9683 40.3613 6.9466 40.3151 6.9244C40.2391 6.8882 40.1629 6.8524 40.0855 6.8174C40.0359 6.7949 39.9857 6.7728 39.9354 6.7509C39.8589 6.7175 39.7816 6.6845 39.7039 6.6522C39.6525 6.631 39.6011 6.6097 39.5492 6.589C39.4694 6.5571 39.3886 6.5259 39.3075 6.4952C39.2563 6.4758 39.2054 6.4563 39.1537 6.4374C39.0659 6.4051 38.9767 6.3743 38.8873 6.3434C38.8413 6.3277 38.796 6.3115 38.7496 6.2959C38.6326 6.257 38.5141 6.2194 38.3946 6.1828C38.3746 6.1768 38.3552 6.1702 38.3352 6.1641C38.333 6.1636 38.3311 6.1629 38.3289 6.1621L38.3377 6.1577L37.8897 6.0367C37.8883 6.0362 37.8867 6.0358 37.8854 6.0355C37.5295 5.9393 36.6693 5.7702 35.3284 5.5327C35.32 5.5313 35.3117 5.5302 35.3034 5.5288C35.0414 5.4828 34.7779 5.4412 34.5137 5.4029C34.427 5.3902 34.3399 5.3793 34.253 5.3675C34.0636 5.342 33.8737 5.3179 33.6836 5.2964C33.5856 5.2853 33.4877 5.2746 33.3896 5.2646C33.2042 5.2455 33.019 5.2291 32.8335 5.2139C32.7393 5.2063 32.6451 5.1977 32.5509 5.1911C32.3081 5.1738 32.0653 5.1601 31.823 5.1495C31.7943 5.1483 31.7656 5.1458 31.737 5.1445C31.5173 5.1358 31.2966 5.1306 31.0757 5.1272C31.0204 5.1263 30.9651 5.1262 30.9096 5.1256C30.7421 5.1242 30.5746 5.1244 30.4071 5.126C30.3461 5.1265 30.2851 5.1269 30.224 5.128C30.008 5.1315 29.7921 5.1371 29.5764 5.146C29.5754 5.146 29.5743 5.146 29.5734 5.146C29.5691 5.1461 29.5668 5.1463 29.5627 5.1465C29.5208 5.1483 29.4901 5.1497 29.4769 5.1504C29.4751 5.1506 29.4733 5.151 29.4717 5.151C29.3757 5.157 29.27 5.1677 29.1569 5.182C29.1428 5.1838 29.1299 5.185 29.1156 5.187C29.0182 5.2002 28.913 5.2177 28.8027 5.2382C28.7726 5.2439 28.7424 5.2494 28.7114 5.2557C28.6074 5.2766 28.4991 5.2999 28.3838 5.3281C28.3507 5.3361 28.315 5.346 28.2809 5.3547C28.194 5.3768 28.1057 5.4009 28.016 5.4266C27.9889 5.4343 27.9632 5.4402 27.9357 5.4484C27.9186 5.4534 27.9 5.46 27.8827 5.4651C27.7559 5.5033 27.6265 5.5443 27.4938 5.5891C27.4538 5.6027 27.4114 5.6182 27.3704 5.6325C27.2608 5.6708 27.1497 5.7111 27.0366 5.754C26.9921 5.7707 26.9479 5.7873 26.9024 5.805C26.8578 5.8221 26.8134 5.8396 26.7677 5.8576C26.7454 5.8665 26.722 5.8765 26.6994 5.8856C26.6116 5.9209 26.5242 5.9561 26.4325 5.9948C26.4314 5.9953 26.43 5.9959 26.4289 5.9964C26.2707 6.0633 26.1051 6.137 25.9357 6.2141C25.9187 6.2219 25.9025 6.2285 25.8854 6.2364C25.8456 6.2545 25.8045 6.2747 25.7646 6.2934C25.6859 6.33 25.6072 6.3668 25.5275 6.4051C25.4634 6.436 25.3976 6.4684 25.332 6.5007C25.2527 6.5396 25.1737 6.5783 25.0934 6.6188C25.0126 6.6597 24.9293 6.7029 24.8462 6.7459C24.7796 6.7803 24.7136 6.814 24.6465 6.8493C24.4913 6.9312 24.3351 7.0151 24.1773 7.1019L24.0849 7.1528V7.949C22.3461 7.2222 20.2256 6.8886 18.0684 7.0072C17.991 7.0115 17.9135 7.0163 17.8359 7.0218C17.7043 7.0309 17.5724 7.0404 17.4406 7.0531C17.4131 7.0557 17.3889 7.0659 17.3668 7.0793C17.221 7.0939 17.0763 7.1118 16.9323 7.1307C16.934 7.1189 16.9377 7.1075 16.9377 7.0955C16.9375 6.9963 16.8745 6.9032 16.7648 6.8399L16.5731 6.7291L17.8536 5.0056L18.1039 4.6001C19.7669 4.2492 21.4921 4.0003 23.2552 3.854L23.2149 5.5131C23.2072 5.517 23.1986 5.5201 23.1913 5.5244L22.4549 5.9523C22.3616 6.0066 22.3054 6.0833 22.2908 6.1662C22.2897 6.1721 22.2886 6.1778 22.2881 6.1837C22.2872 6.1916 22.2843 6.1991 22.2843 6.2069C22.2845 6.3061 22.3475 6.3992 22.457 6.4626L23.1983 6.8905C23.2973 6.9476 23.424 6.9762 23.5506 6.9762C23.6773 6.9762 23.804 6.9476 23.9023 6.8904L24.6387 6.4624C24.7473 6.3992 24.8096 6.3065 24.8094 6.2078C24.8092 6.1086 24.7463 6.0155 24.6366 5.9522L24.633 5.95L24.6251 5.9456L23.8953 5.5242C23.8892 5.5206 23.8821 5.5183 23.8759 5.5151L23.8252 3.8078C24.6879 3.7477 25.5587 3.7109 26.4361 3.7015C33.1075 3.6299 39.323 5.0564 43.9373 7.7171C48.5523 10.3779 51.0137 13.9543 50.868 17.7885ZM40.7991 32.1202C40.9334 32.046 41.0672 31.9707 41.2003 31.8944C41.4008 31.7791 41.602 31.6578 41.8026 31.5358C41.8461 31.5094 41.8896 31.4849 41.933 31.4584L41.683 32.0649C41.4529 32.2059 41.219 32.3445 40.9873 32.4774C40.8556 32.5528 40.7227 32.6269 40.5891 32.7L40.7991 32.1202ZM39.3215 32.8756C39.4875 32.7967 39.6521 32.7154 39.8164 32.6333C39.8566 32.6133 39.8972 32.5944 39.937 32.5743L39.7304 33.1521C39.637 33.1992 39.5408 33.2445 39.4461 33.2907L39.3215 32.8756ZM28.526 35.7248C28.5596 35.7218 28.5931 35.7177 28.6266 35.7145C29.1729 35.6649 29.7197 35.6019 30.2586 35.5273C30.2963 35.5221 30.3346 35.518 30.3721 35.5127L30.2999 36.0461C29.7006 36.1319 29.0892 36.2029 28.4804 36.2577L28.526 35.7248ZM25.5644 35.8631C25.6004 35.8629 25.6361 35.8613 25.6722 35.8611C25.9185 35.8588 26.1647 35.8541 26.4102 35.847C26.4184 35.8468 26.4268 35.8468 26.435 35.8465V35.8483L26.4147 36.2907L26.4104 36.3822C26.1244 36.3911 25.8372 36.3979 25.5491 36.4002L25.5644 35.8631ZM23.029 35.7901C23.0657 35.7924 23.1028 35.7938 23.1396 35.7962C23.5405 35.8204 23.9456 35.8381 24.3499 35.849C24.3861 35.8499 24.4223 35.8518 24.4585 35.8525L24.4476 36.3922C23.9824 36.3818 23.5121 36.3624 23.0472 36.3342L23.0452 36.278L23.029 35.7901ZM15.2793 34.4227C15.3237 34.436 15.3689 34.4478 15.4135 34.4608C15.4181 34.4623 15.4225 34.4635 15.427 34.4648C15.8925 34.6007 16.362 34.7286 16.8276 34.843C16.8943 34.8596 16.9611 34.8751 17.0278 34.8908L17.0528 34.8967L17.145 35.472C17.066 35.4536 16.9871 35.4353 16.9086 35.4162C16.4082 35.2949 15.9026 35.1598 15.4051 35.0142L15.2793 34.4227ZM19.5648 35.9501C19.0794 35.872 18.594 35.7831 18.1191 35.6861L18.0318 35.1166C18.0716 35.125 18.1125 35.1323 18.1524 35.1405C18.5982 35.2317 19.0521 35.3164 19.5079 35.3914L19.5648 35.9501ZM20.6379 35.5571C21.0819 35.6154 21.5299 35.6666 21.9741 35.708L21.9928 36.1592L21.9969 36.2555C21.5217 36.2125 21.0434 36.1596 20.5733 36.0978L20.521 35.5427C20.5598 35.5478 20.599 35.5521 20.6379 35.5571ZM32.8435 35.5805C32.3201 35.6975 31.7922 35.8033 31.27 35.8936L31.2821 35.8097L31.298 35.697L31.346 35.3609C31.8348 35.2768 32.3267 35.1785 32.8149 35.0719C32.8529 35.0636 32.8913 35.0562 32.9293 35.0476C32.963 35.0401 32.9971 35.0337 33.0308 35.0262L32.9275 35.5626C32.8997 35.5689 32.8715 35.5742 32.8435 35.5805ZM33.9583 34.8025C34.4411 34.6785 34.9213 34.5418 35.3919 34.397C35.4271 34.3861 35.4631 34.3763 35.4981 34.3654L35.363 34.9093C34.8623 35.0656 34.3547 35.2101 33.8516 35.3398L33.9583 34.8025ZM36.3908 34.0716C36.8257 33.921 37.2582 33.7585 37.6826 33.589C37.7199 33.5742 37.758 33.5601 37.7952 33.5451L37.6262 34.1023C37.17 34.2865 36.7089 34.4594 36.2524 34.6178L36.3908 34.0716ZM42.5283 30.4219C41.7778 30.84 40.9864 31.2256 40.1659 31.5845C35.8452 33.475 30.6228 34.5331 25.1653 34.5898C25.0107 34.5914 24.8558 34.5923 24.7018 34.5923C21.3915 34.5923 18.2068 34.2182 15.2921 33.5107C12.6586 32.8713 10.2448 31.96 8.16718 30.7949C5.66408 29.3912 3.79188 27.6906 2.64928 25.824C2.56898 25.6117 2.50498 25.4136 2.44948 25.2161L2.43878 25.1767C2.42658 25.1332 2.41488 25.0895 2.40358 25.0456C2.42078 25.0665 2.43698 25.0877 2.45428 25.1086C2.45698 25.1118 2.45998 25.1152 2.46288 25.1184C2.46798 25.1246 2.47358 25.1307 2.47868 25.1369C2.54968 25.2217 2.62228 25.3059 2.69618 25.3897C3.01138 25.7476 3.35248 26.0967 3.71878 26.4366C4.82628 27.8773 6.41508 29.1989 8.42888 30.3282C9.35728 30.8488 10.3578 31.3153 11.4127 31.7319C15.3617 33.2909 20.122 34.1076 25.1596 34.0546C31.5658 33.9879 37.6414 32.5318 42.2676 29.9543C43.9416 29.0216 45.3529 27.9803 46.4763 26.863C46.9733 26.4824 47.438 26.091 47.8694 25.6896C47.8822 25.6778 47.8953 25.6661 47.9081 25.6541C47.9131 25.6495 47.9179 25.6447 47.9229 25.6398C48.0366 25.5333 48.1477 25.4259 48.2567 25.318L48.291 25.2832C48.4294 25.1453 48.5632 25.0063 48.6938 24.8663C48.6959 24.864 48.6981 24.8617 48.7002 24.8593C48.6561 24.9642 48.6082 25.0686 48.5607 25.173C48.5582 25.1769 48.5555 25.1808 48.5529 25.1847C48.3802 25.4466 48.1928 25.7055 47.9927 25.9613C47.8794 26.1064 47.7625 26.2505 47.6405 26.3934C47.5453 26.5049 47.4468 26.6159 47.3463 26.7261C47.303 26.7736 47.2591 26.8209 47.2149 26.868C47.2066 26.8769 47.1988 26.8856 47.1904 26.8944C47.0059 27.0904 46.8131 27.2843 46.612 27.4758C46.5489 27.5361 46.4843 27.5958 46.4195 27.6556C46.3386 27.7303 46.2567 27.8047 46.173 27.8786C46.0665 27.973 45.9578 28.0666 45.8472 28.1597C44.8885 28.9663 43.7796 29.7247 42.5283 30.4219ZM44.7167 29.4605C44.9254 29.2835 45.1254 29.1035 45.3206 28.9224C45.39 28.858 45.4608 28.794 45.5283 28.7294L45.1422 29.4694C44.9046 29.691 44.6582 29.909 44.4067 30.1202L44.7167 29.4605ZM42.6057 31.3793L42.8064 30.8971C43.0895 30.7071 43.363 30.5127 43.6288 30.317C43.6802 30.2791 43.7334 30.2419 43.7839 30.2039L43.482 30.8509C43.1877 31.0702 42.8763 31.29 42.5529 31.5067L42.6057 31.3793ZM14.4529 34.7197C13.9643 34.5604 13.4767 34.3882 13.0009 34.2068L12.8359 33.5894C12.8818 33.6072 12.9292 33.6238 12.9754 33.6413C13.4148 33.809 13.8651 33.9706 14.3216 34.1217L14.4529 34.7197ZM22.1045 8.307C21.0964 7.8882 20.0984 7.5651 19.1217 7.3405C20.7298 7.3615 22.282 7.6395 23.622 8.1472C23.2077 8.1445 22.7036 8.1897 22.1045 8.307ZM24.0849 8.9612L23.9658 9.0301L23.6111 9.2347L23.5909 9.2465L23.586 9.2376L23.4192 8.9493L23.4101 8.9338L23.171 8.5204C23.5285 8.4947 23.8314 8.501 24.0849 8.5268V8.9612ZM24.4417 8.2034L24.4425 8.2055L24.5946 8.616L24.6059 8.6462L24.6101 8.658L24.6587 8.7885L24.6633 8.8014L24.6671 8.8112L24.6687 8.8157L24.785 9.1293L24.768 9.1195L24.4516 8.9355L24.4417 8.9298V8.2034ZM25.9774 6.5878L26.0158 6.598C27.132 6.8943 28.4943 7.2566 31.9886 8.8617C32.056 8.8927 32.1236 8.9238 32.1925 8.9557C32.1322 8.9921 32.0717 9.0288 32.0113 9.0663C31.9401 9.1104 31.8689 9.1557 31.7977 9.201C31.7162 9.2529 31.6346 9.3047 31.5531 9.3584C31.5522 9.3587 31.5515 9.3592 31.5508 9.3598C31.4325 9.4374 31.3142 9.5166 31.196 9.5978C31.1123 9.655 31.0284 9.7139 30.9446 9.7731C30.6458 9.6306 30.3644 9.4973 30.0983 9.3719C29.7342 9.2003 29.3988 9.0437 29.09 8.9011C29.0823 8.8977 29.0751 8.8943 29.0675 8.8908C29.0136 8.866 28.9617 8.8421 28.9094 8.8182C28.7667 8.7525 28.6281 8.6892 28.4968 8.6296C28.0745 8.438 27.71 8.2769 27.3885 8.139C27.281 8.0928 27.1771 8.0485 27.079 8.0075C27.0689 8.0034 27.0596 7.9995 27.0496 7.9954C26.9952 7.9727 26.9417 7.9504 26.8899 7.9292C26.8774 7.924 26.8658 7.9194 26.8535 7.9142C26.805 7.8944 26.7568 7.8748 26.7106 7.8562C26.701 7.8523 26.6919 7.8487 26.6823 7.8448C26.6345 7.8257 26.5874 7.807 26.5419 7.789C26.5333 7.7856 26.5251 7.7825 26.5165 7.7792C26.4716 7.7615 26.4272 7.7442 26.3842 7.7278C26.3731 7.7235 26.3626 7.7196 26.3517 7.7153C26.3117 7.7001 26.2719 7.685 26.2338 7.6707C26.2241 7.6671 26.215 7.6637 26.2056 7.6603C26.1672 7.6461 26.1294 7.632 26.0927 7.6188C26.0816 7.6147 26.0712 7.6109 26.0604 7.607C26.0256 7.5945 25.991 7.582 25.9574 7.5702C25.9483 7.567 25.9396 7.5642 25.9307 7.561C25.8964 7.549 25.8623 7.5371 25.8293 7.5258C25.8201 7.5228 25.8111 7.5198 25.8019 7.5167C25.7697 7.5058 25.738 7.495 25.707 7.4848C25.6977 7.4818 25.6889 7.4789 25.6798 7.4761C25.6491 7.4659 25.6186 7.4559 25.5887 7.4464C25.5812 7.4439 25.5737 7.4418 25.5662 7.4393C25.5353 7.4297 25.5046 7.4199 25.4745 7.4106C25.4683 7.4088 25.4622 7.4068 25.4559 7.4049C25.4251 7.3954 25.3942 7.3861 25.3641 7.377C25.3585 7.3754 25.3532 7.374 25.3478 7.3722C25.3164 7.3629 25.2852 7.3538 25.2544 7.3449C25.2535 7.3446 25.2527 7.3444 25.2519 7.3442C25.0804 7.2946 24.9154 7.25 24.742 7.2035C24.7627 7.1924 24.7839 7.181 24.8044 7.1701C25.2074 6.9573 25.6003 6.7623 25.9774 6.5878ZM44.0648 10.6796C44.1312 10.8068 44.1917 10.9349 44.2463 11.0642C44.3328 11.2688 44.4074 11.4754 44.4636 11.6847C44.4652 11.6904 44.4668 11.6961 44.4682 11.702C44.4984 11.816 44.5232 11.9309 44.544 12.0459C44.5474 12.0652 44.551 12.0845 44.5542 12.1037C44.5715 12.2072 44.5845 12.3112 44.5945 12.4154C44.5974 12.4466 44.5999 12.4779 44.602 12.5091C44.607 12.5781 44.6084 12.6473 44.6102 12.7166C44.1772 12.1419 43.406 11.2431 42.2177 10.2716L40.6517 8.2639L41.0998 9.0701L41.4306 9.6648C40.6257 9.0799 39.6701 8.4879 38.5473 7.9408C38.4049 7.8714 38.2667 7.8064 38.1266 7.7395C38.107 7.7303 38.0872 7.7208 38.0678 7.7115C37.9768 7.6682 37.8836 7.6227 37.7939 7.5804C37.605 7.4918 37.4202 7.4061 37.2373 7.3217C38.6335 7.0846 39.9005 7.1904 40.9498 7.6598C40.9573 7.6641 40.9651 7.6682 40.9725 7.6725C41.0151 7.6973 41.0545 7.7233 41.0963 7.7485C41.2101 7.8164 41.3237 7.8846 41.4322 7.9549C41.5533 8.0334 41.6695 8.114 41.784 8.1954C41.8084 8.2125 41.8345 8.2291 41.8586 8.2464C42.8585 8.9689 43.6024 9.7965 44.0648 10.6796ZM38.4731 24.2474C38.2108 23.5447 37.6608 22.7466 36.9627 21.9621C36.7747 21.7507 36.5758 21.5404 36.3688 21.3331C36.206 21.17 36.0381 21.0093 35.8667 20.8511C35.859 20.8441 35.8515 20.8371 35.844 20.8302C35.6813 20.6807 35.5157 20.5339 35.3477 20.3906C35.1671 20.2366 34.9839 20.0871 34.7998 19.9426L34.7404 19.7703L33.9676 17.7385C33.992 17.7291 34.0163 17.7198 34.0406 17.7105C34.0769 17.6966 34.1137 17.6821 34.1497 17.6686C34.2165 17.6436 34.2835 17.6179 34.3495 17.5942C34.3818 17.6083 34.4141 17.6229 34.4464 17.6377C34.4814 17.6538 34.5163 17.6693 34.5513 17.6859C34.5959 17.7071 34.6407 17.7294 34.6853 17.7517C34.7199 17.7688 34.7543 17.7856 34.7888 17.8035C34.8344 17.8268 34.8799 17.8514 34.9256 17.8757C34.9593 17.8939 34.9932 17.9116 35.0269 17.9301C35.0733 17.9558 35.1195 17.9824 35.1659 18.009C35.1989 18.0279 35.2319 18.0464 35.2649 18.0657C35.3118 18.0934 35.3587 18.1221 35.4057 18.1508C35.438 18.1704 35.4702 18.1895 35.5025 18.2097C35.55 18.2393 35.5973 18.27 35.6447 18.3005C35.6761 18.3208 35.7077 18.3406 35.7391 18.3613C35.7889 18.394 35.8385 18.4279 35.8881 18.4616C35.9166 18.481 35.9453 18.4999 35.9739 18.5197C36.0285 18.5574 36.0827 18.5963 36.1369 18.6352C36.1605 18.6519 36.184 18.668 36.2072 18.6849C36.3621 18.7971 36.5153 18.9135 36.6666 19.033C36.691 19.0523 36.7149 19.0722 36.7392 19.0917C36.7902 19.1325 36.8411 19.1732 36.8914 19.2146C36.9219 19.2397 36.9519 19.2654 36.9822 19.2908C37.0257 19.3272 37.0694 19.3634 37.1126 19.4003C37.1454 19.4285 37.1777 19.457 37.2102 19.4854C37.233 19.5054 37.2559 19.5252 37.2787 19.5452C37.2871 19.5527 37.2958 19.5602 37.3042 19.5676C37.3128 19.5751 37.3215 19.5826 37.3301 19.5903C37.3486 19.6067 37.3668 19.6235 37.3852 19.6401C37.3998 19.6533 37.4145 19.6665 37.4291 19.6797C37.4673 19.7143 37.5056 19.7485 37.5433 19.7833C37.5763 19.814 37.6087 19.8447 37.6414 19.8756C37.6783 19.9102 37.7154 19.9448 37.752 19.9798C37.7843 20.0106 37.8159 20.0418 37.8478 20.0729C37.8836 20.108 37.9199 20.1428 37.9552 20.1781C37.9869 20.2095 38.018 20.2411 38.0492 20.2729C38.084 20.308 38.1188 20.343 38.153 20.3783C38.1839 20.4102 38.2142 20.4422 38.2447 20.4741C38.2783 20.5092 38.3118 20.5444 38.3446 20.5795C38.3746 20.6116 38.404 20.6438 38.4337 20.6759C38.4659 20.7112 38.4982 20.7463 38.53 20.7817C38.5589 20.8138 38.5873 20.8459 38.6156 20.878C38.6397 20.9053 38.6638 20.9326 38.6875 20.9599C38.6945 20.9679 38.7016 20.9759 38.7086 20.9838C38.7364 21.0161 38.7637 21.0482 38.7912 21.0803C38.8208 21.1154 38.8504 21.1504 38.8795 21.1852C38.9064 21.2177 38.9328 21.2498 38.959 21.2821C38.9872 21.3169 39.0154 21.3515 39.0431 21.3861C39.0686 21.4182 39.0937 21.4501 39.1187 21.4822C39.1456 21.5167 39.1724 21.5513 39.1986 21.5857C39.2227 21.6173 39.2464 21.6487 39.2698 21.6801C39.2955 21.7145 39.3208 21.7488 39.3456 21.783C39.3683 21.8142 39.3906 21.8453 39.4125 21.8763C39.4366 21.9102 39.4603 21.9441 39.4837 21.9778C39.5048 22.0087 39.5256 22.0392 39.5462 22.0697C39.5686 22.1031 39.5906 22.1363 39.6122 22.1693C39.6318 22.1996 39.6512 22.2297 39.6703 22.2599C39.691 22.2925 39.7112 22.325 39.731 22.3573C39.749 22.3871 39.767 22.4165 39.7843 22.446C39.8032 22.4779 39.8216 22.5096 39.8396 22.5412C39.856 22.5701 39.8724 22.599 39.8881 22.6277C39.9051 22.659 39.9215 22.6896 39.9376 22.7203C39.9524 22.7485 39.967 22.7765 39.9809 22.8044C39.9961 22.8347 40.0103 22.8645 40.0246 22.8943C40.0375 22.9216 40.0505 22.9489 40.0626 22.9758C40.0758 23.0049 40.088 23.0336 40.1001 23.0623C40.1111 23.0887 40.1224 23.115 40.1326 23.141C40.1363 23.1505 40.1395 23.1596 40.1431 23.169C39.9097 23.3777 39.6494 23.5747 39.366 23.7572C39.3653 23.7575 39.3649 23.7579 39.3642 23.7583C39.2695 23.8191 39.1722 23.8785 39.0723 23.9361C38.8884 24.0425 38.6875 24.1468 38.4731 24.2474ZM7.17808 19.1425L7.18458 19.0976C7.18718 19.0778 7.19048 19.0581 7.19328 19.0385L7.21558 18.9707C7.21918 18.9579 7.22468 18.9443 7.22878 18.9313C7.30908 18.6819 7.47178 18.3918 7.70318 18.0771C7.82128 17.9166 7.95718 17.7498 8.10868 17.5785C8.18898 17.488 8.27298 17.3965 8.36168 17.3039C8.36358 17.3371 8.36578 17.3714 8.36858 17.4072C8.37358 17.469 8.38068 17.536 8.38948 17.6063C8.39678 17.6652 8.40518 17.7262 8.41588 17.792C8.42768 17.8645 8.44868 17.9579 8.47688 18.0644C8.54698 18.3287 8.66778 18.6833 8.84188 19.066C9.04938 19.5223 9.33158 20.0163 9.69448 20.4388C9.74368 20.496 9.79688 20.5519 9.84808 20.6086C10.0097 20.7877 10.1785 20.9643 10.3594 21.1367C10.6687 21.4312 11.0077 21.715 11.3714 21.9885C10.6908 22.7298 10.1517 23.4643 9.77348 24.1745C9.09538 23.6703 8.53808 23.1192 8.11168 22.5253C8.01878 22.396 7.93148 22.2649 7.85088 22.1316C7.80608 22.0576 7.76738 21.9826 7.72688 21.9081C7.61828 21.7083 7.52438 21.5067 7.44628 21.3029C7.17638 20.6006 7.08398 19.8774 7.17808 19.1425ZM22.5932 9.0601L22.5869 9.079L22.3546 9.7792L21.9557 9.1798L21.6703 8.7513C21.7991 8.7197 21.9256 8.6913 22.0501 8.6654C22.0735 8.6704 22.0974 8.6722 22.1213 8.6674C22.3489 8.6217 22.56 8.5878 22.7582 8.5623L22.5932 9.0601ZM26.042 8.197L26.1694 8.5782L26.2199 8.7288L26.2218 8.735L26.2257 8.7468L26.732 10.2609L25.3291 9.4456L26.042 8.197ZM35.4763 8.6917C35.7195 8.8066 35.9632 8.9248 36.2076 9.046C39.3858 10.623 41.2502 12.5355 42.0316 13.4626C41.9672 13.4824 41.9048 13.4999 41.8386 13.5217C41.7624 13.5468 41.6825 13.5763 41.6042 13.6037C41.2459 13.7293 40.8658 13.8804 40.466 14.056C40.453 14.0617 40.4401 14.0674 40.4273 14.0731C40.39 14.0895 40.3536 14.1049 40.3159 14.1218C40.2569 14.0533 40.1916 13.9793 40.1177 13.8977C40.0523 13.8255 39.9816 13.7491 39.9044 13.6676C39.0755 12.7929 37.5638 11.4146 35.2831 10.1057C35.1281 10.0168 34.9722 9.9278 34.81 9.8397C34.6905 9.7747 34.565 9.7107 34.4414 9.6463C34.3554 9.6015 34.2728 9.556 34.1849 9.5116C33.9472 9.3915 33.7068 9.2734 33.4632 9.1578C33.2913 9.0759 33.125 8.9974 32.9612 8.9204C33.4502 8.6474 33.9346 8.4061 34.4123 8.1968C34.7492 8.3509 35.1026 8.5151 35.4763 8.6917ZM44.2916 13.1741L43.3291 11.773C43.9362 12.4008 44.3296 12.9226 44.5447 13.2353C44.4696 13.2113 44.3854 13.1906 44.2916 13.1741ZM27.6335 23.009C27.6371 23.0115 27.6408 23.0138 27.6446 23.0163C27.6586 23.0258 27.6726 23.0347 27.6867 23.0441C27.6924 23.0479 27.6981 23.0514 27.7038 23.0554C27.7086 23.0586 27.7134 23.0616 27.7182 23.0648C27.8319 23.1415 27.946 23.2207 28.06 23.3028C28.0704 23.3103 28.0809 23.3173 28.0914 23.3249C28.2154 23.4147 28.3394 23.5081 28.4629 23.6036C28.4686 23.6079 28.4741 23.6125 28.4798 23.6168C28.5028 23.6348 28.5258 23.6534 28.5489 23.6714L28.5801 23.696C28.6657 23.7636 28.7512 23.8319 28.8361 23.9017C28.8807 23.9384 28.9249 23.9756 28.9694 24.0127C29.0505 24.0808 29.131 24.15 29.2111 24.2201C29.2532 24.2569 29.2955 24.2936 29.3374 24.3309C29.4286 24.4125 29.5186 24.4952 29.608 24.5785C29.6359 24.6048 29.6644 24.6303 29.6922 24.6565C29.7998 24.7586 29.9052 24.862 30.0092 24.9662C29.1522 24.7734 28.3492 24.5025 27.6335 24.1682V23.009ZM23.5949 25.6165V24.7016L24.73 24.9612L23.5949 25.6165ZM10.3544 11.6007C10.4395 11.6012 10.5249 11.6032 10.6104 11.6058C10.6796 11.608 10.7486 11.6089 10.818 11.6123C10.9404 11.6183 11.0633 11.6283 11.1863 11.6383C11.243 11.6429 11.2995 11.6458 11.3563 11.6513C11.5359 11.6688 11.7159 11.69 11.8959 11.7159C11.9257 11.72 11.9555 11.7261 11.9853 11.7305C12.1366 11.7534 12.2877 11.778 12.4388 11.8067C12.5007 11.8183 12.5624 11.8326 12.6243 11.8452C12.7433 11.8697 12.8622 11.8943 12.9808 11.9223C13.0397 11.9362 13.0984 11.9521 13.157 11.9667C13.1686 11.9696 13.1801 11.9726 13.1917 11.9755C13.2305 11.9855 13.2694 11.9962 13.3083 12.0063C13.379 12.0251 13.4498 12.0426 13.5201 12.0625C13.5939 12.0834 13.6674 12.1059 13.741 12.1282C13.8462 12.1599 13.9511 12.1924 14.0556 12.227C14.1304 12.2518 14.205 12.2777 14.2794 12.3037C14.2929 12.3086 14.3063 12.3137 14.3197 12.3185C14.3602 12.333 14.4005 12.348 14.4408 12.3628C14.0348 12.7704 13.6762 13.1866 13.3693 13.6043L13.356 13.6016L13.0859 13.5458V13.5499C12.6013 13.3781 12.0934 13.2336 11.5737 13.1197C11.5309 13.1103 11.4881 13.101 11.4451 13.0921C11.0837 13.0166 10.7174 12.9553 10.3505 12.9105C10.2488 12.4752 10.25 12.0358 10.3544 11.6007ZM17.3218 10.7593L17.3106 10.7943L16.5839 13.0514L15.8038 11.6995L15.7731 11.6465C16.0455 11.4271 16.3276 11.2153 16.6194 11.0141C16.8751 10.8378 17.1363 10.6744 17.3998 10.5171L17.3218 10.7593ZM28.1337 9.0695L28.9528 11.5512L27.258 10.5665L28.1337 9.0695ZM42.9482 13.7261L43.5869 14.0396L42.9666 14.3978L42.9482 13.7261ZM41.7235 14.125L42.4981 14.6682L41.7235 15.1155V14.125ZM40.1393 14.758L41.1534 15.3595L41.1546 15.3603L41.226 15.4027L40.9286 15.5743L40.1393 16.0302V14.758ZM39.0304 15.8981L39.6552 16.3097L39.4188 16.4462L39.0304 15.8981ZM34.9779 23.1157C34.793 22.9025 34.5975 22.6904 34.3932 22.4811C34.2413 22.3254 34.0841 22.1716 33.9235 22.0201C33.9167 22.0137 33.91 22.0074 33.9032 22.001C32.8249 20.9877 31.5826 20.0941 30.4834 19.6042C30.5311 19.5693 30.5799 19.5359 30.6279 19.5015C30.8625 19.3334 31.1023 19.1723 31.3471 19.0192C31.5385 18.8994 31.7324 18.7843 31.9285 18.6744C31.9526 18.661 31.9766 18.6475 32.0011 18.6341C32.6084 18.881 33.3025 19.2849 34.0029 19.783L34.0136 19.8295L34.5556 21.6564L34.5634 21.6831L34.9868 23.1103L34.9939 23.1344C34.9886 23.1282 34.9832 23.1219 34.9779 23.1157ZM25.4342 23.1844L26.7427 23.5733C26.727 23.6236 26.7129 23.6732 26.7001 23.7224C26.6978 23.7313 26.6949 23.7404 26.6926 23.7493C26.6926 23.7499 26.6924 23.7502 26.6923 23.7508C26.6848 23.7807 26.6787 23.8102 26.6721 23.84L25.4342 24.5546V23.1844ZM23.8063 24.2116C23.9199 24.119 24.0364 24.0268 24.1556 23.9352C24.1597 23.932 24.1638 23.929 24.1679 23.9258C24.4576 23.7035 24.762 23.4853 25.0774 23.2757V24.6747L23.6423 24.3466C23.6962 24.3015 23.7512 24.2565 23.8063 24.2116ZM16.9327 18.0496C16.9336 18.0502 16.9345 18.0507 16.9354 18.0512C17.5569 18.4254 18.2163 18.8205 18.8819 19.2185C19.1153 19.3578 19.3491 19.4975 19.5827 19.6369C19.8781 19.8133 20.1726 19.9889 20.4636 20.1621C20.7094 20.3085 20.9524 20.4532 21.1916 20.5954C22.4888 21.367 23.6623 22.0624 24.4507 22.5294C24.5518 22.5894 24.6473 22.6459 24.7352 22.698L25.034 22.8752C24.9712 22.9155 24.9088 22.956 24.8467 22.997C24.4612 23.2529 24.0899 23.5224 23.7401 23.7986C23.0777 23.5506 22.4442 23.3101 21.8382 23.0753C21.4262 22.9157 21.0279 22.7589 20.6407 22.604C20.0456 22.366 19.4799 22.1329 18.9411 21.9031C18.653 21.7802 18.3713 21.658 18.0985 21.5365C17.7542 21.3832 17.4215 21.2309 17.1009 21.0791C16.8357 20.9533 16.5797 20.8279 16.3301 20.7025C15.6691 20.3704 15.0608 20.0379 14.502 19.6991C15.2499 19.1377 16.0634 18.5845 16.9327 18.0496ZM13.0702 14.0699C13.0882 14.0624 13.106 14.0551 13.124 14.0474C13.1337 14.0435 13.1433 14.0394 13.1529 14.0355C13.187 14.0212 13.2213 14.0069 13.2555 13.993C13.2643 13.9894 13.273 13.9857 13.2817 13.9821L13.4744 14.0219L13.4871 14.0244L13.498 14.0267L13.5085 14.0289L13.5442 14.0362C13.5841 14.0444 13.6232 14.0524 13.6626 14.0604C13.7138 14.071 13.7647 14.0815 13.815 14.0918C13.9657 14.1231 14.1131 14.1539 14.2581 14.185C14.3761 14.2103 14.4925 14.236 14.608 14.2622C14.6362 14.2686 14.6643 14.2752 14.6924 14.2817C14.7345 14.2913 14.7766 14.3013 14.8183 14.3113C14.8531 14.3195 14.8877 14.3277 14.9223 14.3361C14.9273 14.3373 14.9325 14.3384 14.9375 14.3396C14.9733 14.3484 15.009 14.3575 15.0449 14.3666C15.1161 14.3844 15.1874 14.4028 15.2586 14.4217L15.2732 14.4256C15.5633 14.5027 15.8561 14.5896 16.1615 14.693C16.463 14.7949 16.7775 14.9134 17.1145 15.0541C17.5038 15.2168 17.9237 15.4097 18.3897 15.6432C18.6268 15.762 18.8764 15.8917 19.1392 16.0328C19.2503 16.0924 19.3639 16.1541 19.4801 16.218C18.5863 16.671 17.7328 17.1437 16.9268 17.6309C16.8382 17.578 16.7493 17.5246 16.6617 17.4731C16.4202 17.3305 16.1838 17.1939 15.951 17.0608C15.5458 16.8292 15.1541 16.6107 14.783 16.4089C14.2512 16.1197 13.7615 15.8635 13.323 15.6393C13.295 15.625 13.2655 15.6098 13.2379 15.5958C13.1947 15.5738 13.1533 15.5528 13.1112 15.5315C13.096 15.5237 13.0814 15.5164 13.0664 15.5089C13.0234 15.4871 12.9803 15.4653 12.9385 15.4443C12.9241 15.4372 12.9087 15.4291 12.8944 15.422C12.8902 15.4198 12.8857 15.4175 12.8814 15.4156C12.8702 15.4099 12.8588 15.4041 12.8475 15.3984C12.8252 15.3874 12.8051 15.3774 12.7831 15.3663C12.7656 15.3578 12.7492 15.3496 12.7321 15.341C12.7303 15.3401 12.7284 15.3392 12.7266 15.3383C12.6563 15.3034 12.5862 15.2684 12.5202 15.2357C12.5103 15.2309 12.5016 15.2266 12.492 15.2218C12.133 15.045 11.8364 14.9028 11.6178 14.799C11.9095 14.631 12.2071 14.4718 12.5087 14.3254C12.5227 14.3188 12.5366 14.3123 12.5505 14.3056C12.6236 14.2704 12.697 14.2358 12.7705 14.2021C12.8013 14.188 12.8322 14.1746 12.863 14.1607C12.921 14.1347 12.979 14.1088 13.0372 14.0838C13.0482 14.079 13.0591 14.0747 13.0702 14.0699ZM15.2932 14.0371C15.207 14.0141 15.1212 13.9919 15.0354 13.9703L15.6311 12.0449L15.6598 12.0948L16.4091 13.3929L15.2932 14.0371ZM17.6893 10.6687L18.4703 12.2028L16.9045 13.1069L17.6893 10.6687ZM18.8175 9.7765C18.8539 9.7603 18.8898 9.7453 18.9261 9.7294C19.1201 9.6445 19.3117 9.5639 19.5008 9.4872L19.3589 9.8891L19.3493 9.9162L18.6609 11.867L17.9557 10.4816L17.9442 10.4591L17.8438 10.2621C18.1644 10.0868 18.4885 9.923 18.8175 9.7765ZM19.7725 9.6857L19.8028 9.7405L19.8137 9.7605L20.5127 11.0237L18.99 11.9027L19.7725 9.6857ZM25.9624 11.241C26.2737 11.0601 26.5941 10.9086 26.9211 10.7836L27.7503 11.2654C27.2578 11.3946 26.779 11.5917 26.321 11.8579L19.5026 15.8216C19.2428 15.6798 18.9961 15.5488 18.7606 15.4275L25.9624 11.241ZM43.8472 13.8084L43.3325 13.5557C43.4538 13.5418 43.5703 13.5327 43.6799 13.5299L43.8472 13.8084ZM33.1163 15.9333C31.4905 14.9933 30.3031 14.3068 30.2676 14.2865L30.2478 14.2749C29.8039 14.0305 29.2582 14.0344 28.8184 14.2867L25.5484 16.1807C24.497 16.7896 23.5876 17.3162 22.7876 17.7797C22.5703 17.6391 22.3434 17.4952 22.1084 17.3484C22.9839 16.8413 23.9959 16.2551 25.1907 15.5633L28.4623 13.6683C29.1296 13.2858 29.9572 13.2858 30.6233 13.6676L30.7316 13.7304C31.0126 13.8927 31.8209 14.3602 32.8974 14.9824C33.7746 15.4894 34.8544 16.1138 35.9432 16.7432C35.6422 16.8115 35.319 16.8977 34.9711 17.0055C34.3981 16.6742 33.632 16.2314 33.1163 15.9333ZM25.9214 22.7523C26.2223 22.5787 26.5292 22.4163 26.8385 22.267L26.8034 23.2191L25.6909 22.8884C25.7674 22.8425 25.844 22.7969 25.9214 22.7523ZM38.2156 16.5457C38.0663 16.5306 37.9031 16.5215 37.7229 16.5211L38.2156 15.8205V16.5457ZM38.9733 16.7034C38.9228 16.686 38.8686 16.669 38.8101 16.6529C38.7985 16.6497 38.7863 16.6467 38.7744 16.6437C38.7118 16.6273 38.6447 16.6117 38.5728 16.5976L38.573 15.8146L38.5742 15.817L39.0195 16.6767L38.9733 16.7034ZM28.6049 20.7688C28.6033 20.7706 28.6017 20.7722 28.6001 20.7738C28.5571 20.8181 28.5121 20.8614 28.47 20.906C28.4548 20.9222 28.4415 20.9385 28.4265 20.9545C28.1685 20.8662 27.8811 20.8088 27.5803 20.7861L27.5281 20.0515C28.0593 20.0773 28.571 20.1885 29.0086 20.3708C28.9949 20.3836 28.982 20.3967 28.9685 20.4095C28.8432 20.5287 28.7214 20.6486 28.6049 20.7688ZM29.3445 15.0011L33.4467 17.3678L33.4868 17.5419C33.4062 17.5749 33.3241 17.6094 33.2415 17.6443C33.2292 17.6495 33.2172 17.6543 33.2051 17.6595C33.0852 17.7103 32.9637 17.7628 32.8397 17.8179C32.8189 17.8272 32.7984 17.8372 32.7773 17.8466L31.5719 17.1507L29.8467 18.1529L30.9967 18.8169C30.7525 18.9743 30.5163 19.1377 30.2883 19.3054L28.2957 18.1549L30.7958 16.7018L29.3438 15.8582L24.2926 18.7934C24.0798 18.6435 23.8553 18.4887 23.6186 18.3287L29.3445 15.0011ZM26.1349 20.1826C26.3458 20.13 26.5663 20.0909 26.7934 20.0686C26.8501 20.0629 26.9072 20.0615 26.9643 20.0579L26.9151 20.7933C26.896 20.795 26.8774 20.7977 26.8585 20.7999C26.8027 20.7499 26.744 20.698 26.6821 20.6438C26.6202 20.5897 26.5549 20.5335 26.486 20.475C26.4318 20.4288 26.3754 20.3813 26.3169 20.3326C26.2584 20.2839 26.1977 20.2338 26.1349 20.1826ZM36.1228 14.4015L36.1475 14.3503L36.3928 13.8403L37.1376 16.3076L35.6278 15.4304L36.1228 14.4015ZM34.3886 12.3949L34.6302 13.2753L34.6305 13.2766L34.6391 13.3076L34.6833 13.469L34.7165 13.5896L35.1445 15.1494L33.5847 14.2431L34.3886 12.3949ZM14.8909 12.4208C14.8909 12.421 14.8911 12.4208 14.8909 12.4208C15.0211 12.2958 15.1551 12.1721 15.292 12.0509L15.2777 12.097L14.7218 13.8942C14.621 13.8706 14.5195 13.8478 14.4174 13.8251L14.0863 13.2758C14.322 12.999 14.5791 12.7239 14.8592 12.4527C14.87 12.4422 14.8799 12.4315 14.8909 12.4208ZM24.2826 22.0153C23.5553 21.5843 22.5951 21.0148 21.5447 20.3903C21.306 20.2482 21.0628 20.1036 20.8165 19.9569C20.5262 19.784 20.2319 19.6087 19.9359 19.4321C19.7025 19.2931 19.4687 19.1534 19.235 19.0137C18.5681 18.6152 17.9053 18.2184 17.2774 17.8406C18.095 17.3501 18.9579 16.8767 19.8565 16.4276C20.3355 16.6975 20.8563 17.0017 21.4314 17.3492C21.4956 17.3885 21.5579 17.4272 21.6209 17.4661C21.6669 17.4943 21.7135 17.5228 21.7588 17.551C21.7652 17.5549 21.772 17.559 21.7782 17.563C21.8403 17.6015 21.9004 17.6393 21.9613 17.6775C22.0148 17.711 22.069 17.7448 22.1216 17.7781C22.1807 17.8152 22.238 17.852 22.2958 17.8887C22.3441 17.9196 22.3926 17.9505 22.4403 17.981C22.444 17.9835 22.4481 17.986 22.452 17.9885C22.5088 18.0248 22.5644 18.0609 22.6201 18.0969C22.6702 18.1296 22.7205 18.162 22.7698 18.1941C22.8242 18.2298 22.8777 18.265 22.931 18.3001C22.9798 18.332 23.0279 18.364 23.0756 18.3956C23.128 18.4303 23.1799 18.465 23.2313 18.4994C23.2459 18.509 23.26 18.5187 23.2746 18.5285C23.3059 18.5495 23.3371 18.5704 23.3679 18.5911C23.4184 18.6253 23.4687 18.6594 23.5183 18.6931C23.5631 18.7236 23.6072 18.7538 23.6512 18.7839C23.6989 18.8168 23.7467 18.8496 23.7934 18.8819C23.8355 18.9111 23.8767 18.9399 23.9181 18.9688C23.9292 18.9764 23.9401 18.9841 23.9511 18.9918C23.987 19.0169 24.0236 19.0423 24.0589 19.0671C24.0981 19.0947 24.136 19.1216 24.1743 19.1489C24.22 19.1812 24.2658 19.2137 24.3103 19.2456C24.3481 19.2728 24.3845 19.2992 24.4216 19.3257C24.5846 19.4435 24.7402 19.5577 24.8881 19.6681C24.9222 19.6934 24.9568 19.7191 24.9901 19.7443C25.0297 19.7741 25.0677 19.803 25.1061 19.8322C25.1364 19.8552 25.1671 19.8784 25.1967 19.9011C25.2354 19.9307 25.2727 19.9596 25.3104 19.9885C25.3386 20.0103 25.3669 20.0322 25.3944 20.0536C25.4306 20.0818 25.4658 20.1093 25.5007 20.1369C25.5282 20.1583 25.5555 20.1797 25.5821 20.201C25.616 20.2277 25.649 20.2541 25.6818 20.2804C25.6946 20.2905 25.7071 20.3005 25.7198 20.3107C25.733 20.3212 25.7464 20.3319 25.7594 20.3424C25.7913 20.3681 25.8227 20.3936 25.8536 20.4186C25.8777 20.4382 25.9012 20.4575 25.9246 20.4766C25.9556 20.5021 25.9865 20.5273 26.0165 20.5521C26.0379 20.5699 26.0588 20.5872 26.0796 20.6047C26.1094 20.6295 26.139 20.6541 26.1676 20.6782C26.1868 20.6944 26.2054 20.7101 26.2241 20.726C26.2534 20.7508 26.2826 20.7756 26.3105 20.7995C26.3253 20.812 26.339 20.8239 26.3533 20.8364C26.371 20.8514 26.3881 20.8664 26.4052 20.881C26.4177 20.8919 26.4307 20.9032 26.443 20.9137C26.4445 20.9151 26.4459 20.9164 26.4475 20.9178C26.5007 20.964 26.5506 21.0082 26.599 21.0514C26.6569 21.103 26.7122 21.1527 26.7634 21.1997C26.7668 21.2027 26.7702 21.2057 26.7736 21.2087C26.8009 21.2337 26.8268 21.2578 26.8521 21.2814L26.8805 21.3078L26.8657 21.5304L26.8533 21.8653C26.7806 21.8992 26.7078 21.9336 26.635 21.9691C26.2753 22.1443 25.9171 22.3384 25.5653 22.5467C25.5011 22.5846 25.437 22.6226 25.3733 22.6615L24.9168 22.391C24.7338 22.2825 24.5204 22.1562 24.2826 22.0153ZM33.8859 19.2745C33.3728 18.9277 32.8694 18.635 32.4055 18.4211C32.4214 18.413 32.4373 18.4047 32.4531 18.3966C32.6292 18.3083 32.8064 18.2232 32.9848 18.144C33.0445 18.1174 33.1025 18.0946 33.1621 18.0687C33.2984 18.0095 33.4342 17.9513 33.5683 17.8962L33.8859 19.2745ZM39.8171 16.0305L38.8404 15.3872L38.8386 15.386L38.726 15.3117L38.7384 15.3051C38.756 15.2955 38.7737 15.286 38.7913 15.2766C38.8013 15.2711 38.8113 15.2657 38.8213 15.2604C38.8217 15.2602 38.822 15.26 38.8224 15.2596C38.827 15.2573 38.8315 15.255 38.8359 15.2525C38.8729 15.2327 38.9098 15.2133 38.9466 15.1938C39.007 15.1617 39.0688 15.1282 39.1287 15.0969C39.1403 15.0909 39.1519 15.085 39.1635 15.0789C39.2059 15.0568 39.2482 15.035 39.2905 15.0133C39.3533 14.981 39.414 14.9517 39.4762 14.9205C39.5035 14.9068 39.5306 14.8932 39.5577 14.8797C39.6291 14.8442 39.7017 14.8069 39.772 14.7726C39.7725 14.7724 39.7731 14.7721 39.7736 14.7719C39.7879 14.7649 39.8029 14.7569 39.8171 14.7501V16.0305ZM41.4013 15.1319L40.3436 14.5043C40.5011 14.4331 40.654 14.3673 40.8051 14.3038C40.8107 14.3015 40.8164 14.299 40.8219 14.2966C40.8811 14.2717 40.9432 14.2435 41.0015 14.2198C41.138 14.1643 41.27 14.1143 41.4013 14.0653V15.1319ZM42.6437 14.3767L41.9333 13.8785C42.0081 13.8544 42.0793 13.8342 42.152 13.8125C42.3155 13.7636 42.4732 13.7209 42.625 13.6847L42.6437 14.3767ZM36.8389 13.9887C36.845 13.9941 36.8514 13.9998 36.8575 14.0051C36.8873 14.0315 36.9162 14.0574 36.9451 14.0833C36.9774 14.1124 37.0093 14.1413 37.0405 14.1694C37.0682 14.1946 37.0951 14.2194 37.1219 14.2438C37.1518 14.2717 37.1815 14.299 37.2104 14.3259C37.2355 14.3494 37.2605 14.3726 37.2848 14.3955C37.3135 14.4226 37.3413 14.449 37.3688 14.4752C37.3913 14.4968 37.4137 14.5182 37.4355 14.5391C37.453 14.556 37.4694 14.5723 37.4863 14.5887C37.4951 14.5971 37.504 14.6056 37.5126 14.614C37.5334 14.6344 37.5545 14.655 37.5745 14.6747C37.5989 14.6988 37.6219 14.7218 37.6449 14.7448C37.6533 14.7532 37.6615 14.7614 37.6696 14.7694C37.6792 14.7792 37.6895 14.7894 37.699 14.7988C37.7224 14.8226 37.7445 14.845 37.7664 14.8675C37.7816 14.8829 37.7973 14.8989 37.8117 14.9139C37.8339 14.9366 37.8542 14.9578 37.8747 14.9792C37.8869 14.992 37.9001 15.0056 37.9117 15.0179C37.937 15.0445 37.9604 15.0695 37.9828 15.0936C37.9878 15.0989 37.9937 15.1052 37.9987 15.1103C38.0253 15.1392 38.0497 15.1658 38.0724 15.1904C38.0822 15.2015 38.0906 15.2106 38.0997 15.2208C38.1115 15.2338 38.1238 15.2473 38.1341 15.2591C38.1443 15.2703 38.1527 15.28 38.1614 15.29C38.1677 15.2969 38.1744 15.3044 38.18 15.3108L37.4756 16.3129L36.7679 13.9682L36.7506 13.9111C36.7524 13.9127 36.7542 13.9143 36.756 13.9158C36.784 13.9402 36.8116 13.9646 36.8389 13.9887ZM34.8942 12.4539C34.894 12.4539 34.8944 12.4539 34.8942 12.4539C34.9113 12.4661 34.9293 12.4786 34.9465 12.4905C34.9991 12.528 35.0501 12.5651 35.1015 12.6022C35.1445 12.6331 35.188 12.6643 35.2299 12.695C35.2829 12.7339 35.3341 12.772 35.3857 12.8106C35.4242 12.8391 35.4636 12.8682 35.5013 12.8966C35.52 12.9108 35.5377 12.9246 35.5562 12.9387C35.5709 12.9497 35.5851 12.9608 35.5998 12.9718C35.6263 12.9922 35.6531 13.0125 35.6793 13.0327C35.7255 13.0684 35.7712 13.1037 35.8162 13.1388C35.8784 13.1875 35.9405 13.2362 36.0005 13.284C36.0347 13.3113 36.0672 13.3379 36.1007 13.365C36.1401 13.397 36.1797 13.4289 36.2181 13.4603L36.0706 13.7672L36.0613 13.7862L35.8429 14.2401L35.8281 14.271L35.4521 15.0525L34.9855 13.3527L34.9854 13.3517L34.9839 13.3467L34.8947 13.0214L34.8942 13.02L34.7021 12.3198C34.7376 12.3442 34.7729 12.3689 34.8077 12.3933C34.8367 12.4135 34.8657 12.4338 34.8942 12.4539ZM33.0201 11.253C33.0672 11.2803 33.1147 11.3075 33.161 11.3348C33.2192 11.3693 33.2766 11.4035 33.3339 11.4378C33.3949 11.4745 33.4558 11.5111 33.5155 11.5477C33.5719 11.5821 33.6276 11.6165 33.6829 11.6508C33.7414 11.6874 33.7995 11.7238 33.857 11.7602C33.911 11.7944 33.9649 11.8287 34.0179 11.8629C34.0746 11.8993 34.1305 11.9357 34.1859 11.9721C34.1952 11.9782 34.2041 11.984 34.2132 11.9901L33.4342 13.7812L33.4069 13.8442L33.1776 13.0147L33.1773 13.0131L33.1455 12.8985L32.6294 11.0309C32.6845 11.0615 32.74 11.092 32.7942 11.1229C32.8544 11.157 32.9136 11.1912 32.973 11.2255C32.9887 11.2346 33.0044 11.2439 33.0201 11.253ZM32.3293 11.1545L32.8281 12.9595L32.8285 12.9606L33.1059 13.9648L31.4859 13.0232L31.589 12.7949L31.5899 12.7927L32.3293 11.1545ZM30.1682 10.0707L30.9828 12.7267L30.9833 12.7289L30.9842 12.7319L30.9783 12.7283L29.3845 11.8023L30.1682 10.0707ZM28.4502 9.0005C28.5874 9.0627 28.7301 9.1282 28.8794 9.1971C29.2132 9.351 29.577 9.5205 29.978 9.7096L29.2298 11.3629L28.4502 9.0005ZM20.4527 9.1288C20.4763 9.1207 20.4961 9.1066 20.5137 9.0906C20.7692 9.004 21.0198 8.9263 21.2641 8.8578L21.1055 9.3698L21.0987 9.3912L20.6962 10.6901L20.1277 9.6623L20.117 9.6433L19.9478 9.3373L19.9362 9.3164C20.1111 9.2502 20.2841 9.1867 20.4527 9.1288ZM13.3017 18.9061C13.2857 18.8945 13.2703 18.8828 13.2546 18.8714C13.1925 18.8262 13.1308 18.7809 13.0703 18.7354C12.7335 18.4819 12.4185 18.2222 12.1241 17.9542C11.75 17.6136 11.4091 17.2593 11.0967 16.8874C11.0407 16.8208 10.9857 16.7534 10.9315 16.6856C10.8316 16.5604 10.7346 16.433 10.6405 16.3035C10.6052 16.2548 10.5697 16.2062 10.5351 16.1568C10.4302 16.0068 10.3298 15.853 10.2322 15.6967C10.5563 15.4621 10.8967 15.2343 11.2482 15.0186L11.2596 15.0242L11.2897 15.0384C11.3342 15.0595 11.3848 15.0834 11.4398 15.1094C11.608 15.1894 11.8256 15.2932 12.0841 15.4193C12.1507 15.4518 12.2219 15.4867 12.2938 15.5221C12.3678 15.5585 12.4445 15.5965 12.5239 15.6359C12.5764 15.6619 12.6274 15.6873 12.6821 15.7147C12.6873 15.7172 12.6918 15.7196 12.697 15.7221C12.7128 15.7301 12.7301 15.7388 12.7462 15.7469C12.7508 15.7492 12.7558 15.7517 12.7605 15.754C12.7665 15.7572 12.7731 15.7604 12.7794 15.7636C12.7844 15.7661 12.7897 15.7688 12.7947 15.7713C12.8067 15.7774 12.819 15.7836 12.8311 15.7897C12.8436 15.7961 12.8563 15.8025 12.8689 15.8088C12.8727 15.8107 12.8764 15.8127 12.8803 15.8146C13.3326 16.043 13.8517 16.312 14.4212 16.6192C14.7932 16.8198 15.1851 17.036 15.5943 17.2683C15.8272 17.4001 16.0651 17.5373 16.3072 17.6791C16.3986 17.7324 16.4903 17.7865 16.5827 17.8413C15.7164 18.3781 14.9082 18.9306 14.1677 19.4911C14.0105 19.3916 13.8562 19.2917 13.7071 19.1905C13.5683 19.0965 13.4337 19.0016 13.3017 18.9061ZM22.206 25.9098L22.8672 26.0366L22.206 26.4184V25.9098ZM23.2381 25.7446L22.3637 25.5769C22.6005 25.3086 22.8756 25.0297 23.1831 24.7484C23.2011 24.7318 23.2197 24.7154 23.2381 24.6988V25.7446ZM33.6613 25.1696C33.629 25.1241 33.5976 25.0788 33.564 25.0329C33.5194 24.9723 33.4722 24.9113 33.4251 24.8501C33.3908 24.8056 33.3576 24.7612 33.3221 24.7164C33.2713 24.6526 33.2178 24.5884 33.1646 24.5243C33.1298 24.4822 33.0963 24.4403 33.0606 24.3984C33.0288 24.3611 32.9955 24.3238 32.9628 24.2865C32.9316 24.2506 32.9 24.2148 32.8683 24.1789C32.839 24.1461 32.8114 24.1133 32.7816 24.0806C32.6863 23.9754 32.5884 23.8705 32.4881 23.7663C32.4612 23.7381 32.4326 23.7103 32.4053 23.6821C32.3957 23.6725 32.3861 23.6628 32.3764 23.653C32.3111 23.5865 32.2464 23.5199 32.1795 23.4539C32.1383 23.4134 32.0958 23.3736 32.0541 23.3335C31.9893 23.2711 31.9251 23.2088 31.8591 23.1472C31.8127 23.1039 31.7652 23.0616 31.7181 23.0186C31.6926 22.9954 31.6673 22.9719 31.6416 22.9489C31.6354 22.9432 31.6291 22.9373 31.6227 22.9316C31.5915 22.9035 31.5606 22.8754 31.529 22.8477C31.4796 22.8038 31.4293 22.761 31.3794 22.7178C31.3169 22.664 31.2547 22.6099 31.1915 22.5571C31.1401 22.5139 31.0882 22.4718 31.0363 22.4294C30.9737 22.3782 30.9111 22.327 30.8481 22.277C30.7956 22.2354 30.743 22.1948 30.6904 22.1541C30.6272 22.1052 30.5641 22.0567 30.5006 22.0092C30.4476 21.9694 30.3946 21.9307 30.3416 21.8922C30.3334 21.8861 30.3252 21.8801 30.317 21.874C30.262 21.8342 30.2073 21.7948 30.1523 21.7561C30.0988 21.7184 30.0455 21.6817 29.9919 21.6451C29.9291 21.6023 29.8665 21.5602 29.8039 21.519C29.7506 21.4838 29.6974 21.4494 29.6442 21.4155C29.5818 21.3757 29.5197 21.3372 29.4576 21.2994C29.405 21.2671 29.3526 21.2355 29.3003 21.2048C29.2382 21.1683 29.1765 21.1335 29.1151 21.099C29.0637 21.0703 29.0125 21.0418 28.9615 21.0145C28.9396 21.0027 28.9173 20.9895 28.8955 20.9781C29.0429 20.8279 29.1968 20.6812 29.3538 20.5367C29.6105 20.3002 29.8779 20.0709 30.1566 19.8524C31.2156 20.2855 32.4622 21.1638 33.5524 22.1705C33.5592 22.1767 33.566 22.1828 33.5726 22.1891C33.7426 22.3464 33.9085 22.5068 34.0695 22.6693C34.2757 22.8775 34.4732 23.0887 34.6596 23.3005C34.878 23.5488 35.0808 23.7979 35.2637 24.0435L35.5828 25.1191C34.9914 25.2179 34.3804 25.2813 33.7567 25.3037C33.7264 25.2593 33.6928 25.2144 33.6613 25.1696ZM39.2864 17.2843C39.3114 17.3005 39.3353 17.3173 39.3599 17.3339L39.4714 17.5492L40.1805 18.7916C39.6678 18.3296 39.118 17.8951 38.5819 17.5103C38.5714 17.5027 38.561 17.4954 38.5505 17.4879C38.5173 17.4641 38.484 17.4404 38.4508 17.417C38.4493 17.416 38.4479 17.4149 38.4465 17.4138C38.3694 17.3594 38.2931 17.3064 38.2171 17.2543C38.0317 17.1271 37.8492 17.0062 37.6728 16.8936C37.7168 16.8943 37.7563 16.8966 37.7982 16.8982C37.8135 16.8988 37.8287 16.8993 37.8437 16.8999C37.9725 16.9056 38.0927 16.9139 38.2003 16.9255C38.2001 16.9253 38.2007 16.9255 38.2003 16.9255C38.2055 16.9261 38.2107 16.927 38.2156 16.9275C38.3266 16.9398 38.4253 16.9543 38.5121 16.9696C38.5323 16.9732 38.5535 16.9766 38.5724 16.9801C38.6183 16.9889 38.6608 16.9976 38.6986 17.0062C38.712 17.0092 38.7223 17.0119 38.7346 17.0147C38.7485 17.0181 38.7612 17.0213 38.7739 17.0244C38.8616 17.0467 38.9226 17.0656 38.9478 17.0742C38.9639 17.0836 38.9788 17.0934 38.9947 17.1029C38.9945 17.1028 38.9949 17.1031 38.9947 17.1029C39.0742 17.15 39.1531 17.1978 39.229 17.2463C39.2486 17.2588 39.267 17.2716 39.2864 17.2843ZM31.617 10.4948C31.6773 10.5251 31.736 10.5556 31.7956 10.5859C31.8716 10.6246 31.9479 10.6633 32.0225 10.7024C32.0571 10.7204 32.0908 10.7388 32.1251 10.757C32.1333 10.7613 32.1413 10.7656 32.1493 10.7699L31.298 12.6561L30.4652 9.9403C30.7005 10.052 30.9451 10.1685 31.2036 10.2923C31.2415 10.3103 31.2778 10.3287 31.3153 10.3469C31.4166 10.3959 31.5178 10.4452 31.617 10.4948ZM26.5651 8.7452L26.561 8.7332L26.3481 8.0965C26.3672 8.104 26.3856 8.1112 26.405 8.1186C26.7156 8.2407 27.0805 8.3927 27.5231 8.5861C27.6451 8.6394 27.7732 8.696 27.9077 8.7559C27.9171 8.76 27.927 8.7645 27.9364 8.7687L27.9279 8.7834L27.9229 8.7919L27.0689 10.2518L26.5651 8.7452ZM21.6155 9.2504L21.6269 9.2677L22.162 10.0714L21.0211 10.7301L21.4623 9.3061L21.4691 9.2847L21.5076 9.16L21.5228 9.1111L21.5504 9.1527L21.6155 9.2504ZM10.4636 11.2426C10.6191 10.8241 10.8682 10.4213 11.2064 10.0413C11.2212 10.0404 11.2362 10.0398 11.251 10.0389C11.4193 10.0293 11.5902 10.0238 11.7641 10.0243C11.7807 10.0243 11.7975 10.025 11.8141 10.0252C11.9869 10.0265 12.1621 10.0325 12.3398 10.0436C12.3526 10.0443 12.3653 10.0447 12.3783 10.0455C12.558 10.0573 12.7401 10.0752 12.9239 10.0967C12.9497 10.0998 12.9754 10.1023 13.0013 10.1055C13.1788 10.1276 13.3583 10.1549 13.5388 10.1859C13.5709 10.1913 13.603 10.1967 13.6352 10.2024C13.8136 10.2345 13.9932 10.2712 14.1736 10.3117C14.2076 10.3194 14.2415 10.3271 14.2756 10.3349C14.4569 10.3772 14.6388 10.4236 14.8213 10.4741C14.8533 10.483 14.8852 10.4923 14.9171 10.5014C15.1029 10.5542 15.2891 10.6109 15.4754 10.6724C15.5019 10.6812 15.5285 10.6905 15.5553 10.6996C15.5829 10.7088 15.6106 10.7197 15.6384 10.7294C15.6941 10.7484 15.7496 10.7693 15.805 10.7891C15.8889 10.8189 15.9727 10.8476 16.0564 10.8792C16.0819 10.8888 16.1074 10.8967 16.1328 10.9065C16.137 10.9083 16.1415 10.9101 16.146 10.9117C15.6411 11.2769 15.1648 11.6702 14.7261 12.0848C14.6833 12.0686 14.6396 12.0545 14.5966 12.0386C14.5454 12.0197 14.4938 12.0017 14.4424 11.9835C14.373 11.9589 14.3042 11.9327 14.2344 11.9091C14.1143 11.8686 13.9934 11.832 13.8723 11.7951C13.8334 11.7833 13.7948 11.77 13.7558 11.7585C13.7301 11.7511 13.7046 11.7425 13.6789 11.7352C13.6532 11.7277 13.6275 11.7218 13.6018 11.7145C13.448 11.6713 13.2939 11.6296 13.139 11.5921C13.04 11.5682 12.9408 11.5482 12.8415 11.5266C12.7556 11.5081 12.67 11.4879 12.584 11.471C12.4807 11.4508 12.3774 11.4342 12.2741 11.4167C12.1912 11.4026 12.1086 11.3873 12.0256 11.375C11.9245 11.3598 11.8235 11.3479 11.7224 11.3352C11.6362 11.3245 11.55 11.3133 11.464 11.3045C11.3679 11.2945 11.2721 11.2872 11.1761 11.2797C11.0839 11.2724 10.9918 11.2653 10.8999 11.2603C10.8107 11.2553 10.7217 11.2522 10.6327 11.2494C10.5763 11.2476 10.5198 11.2435 10.4636 11.2426ZM10.1631 20.4254C10.0964 20.3526 10.0286 20.2802 9.96528 20.2063C9.58318 19.7614 9.29628 19.2339 9.09758 18.767C8.94448 18.407 8.84418 18.0848 8.79448 17.8643C8.78358 17.8167 8.77428 17.7719 8.76818 17.7344C8.74698 17.6049 8.73358 17.4916 8.72518 17.3894C8.71928 17.3166 8.71558 17.2495 8.71358 17.1867C8.71108 17.1034 8.71108 17.0279 8.71128 16.9557C9.07598 16.6075 9.49218 16.2535 9.94478 15.9101C9.95848 15.932 9.97208 15.954 9.98598 15.9759C10.0606 16.0928 10.1371 16.2082 10.2156 16.3218C10.2497 16.3711 10.2841 16.42 10.3189 16.4685C10.4115 16.5976 10.5073 16.7243 10.6054 16.8492C10.6751 16.9379 10.7461 17.0256 10.8189 17.1123C11.1194 17.4709 11.4446 17.8134 11.7996 18.1426C12.0913 18.413 12.4028 18.6749 12.7351 18.9302C12.9371 19.0854 13.1479 19.238 13.366 19.3889C13.4974 19.4797 13.6316 19.5701 13.7691 19.6597C13.788 19.672 13.8061 19.6845 13.825 19.6966C13.8385 19.7056 13.8523 19.7143 13.8658 19.723L13.8385 19.7444C12.999 20.4006 12.2531 21.0657 11.6171 21.7274C11.2819 21.4769 10.97 21.2171 10.6825 20.9488C10.4992 20.7777 10.3264 20.6031 10.1631 20.4254ZM11.9166 21.9434C12.5364 21.3054 13.2625 20.6616 14.0758 20.0254C14.0804 20.0219 14.0853 20.0181 14.0899 20.0145C14.1254 19.9867 14.1613 19.9589 14.1973 19.9312C14.7391 20.2647 15.3255 20.5915 15.9624 20.9169C16.2096 21.0432 16.4665 21.1695 16.729 21.2958C17.0474 21.4491 17.3776 21.6025 17.7194 21.7568C17.9915 21.8795 18.2689 22.0026 18.5565 22.1266C19.094 22.3587 19.6595 22.5935 20.2533 22.8331C21.0448 23.1522 21.889 23.4801 22.7874 23.8209C22.7971 23.8244 22.8067 23.8282 22.8165 23.8319C23.0142 23.9069 23.2152 23.9825 23.4183 24.0587C23.2202 24.2239 23.0311 24.3905 22.8518 24.5571C22.479 24.9038 22.1509 25.25 21.8821 25.5835C21.5715 25.5464 21.2521 25.4978 20.9214 25.4372C20.0547 25.2784 19.1062 25.0356 18.0245 24.6981C17.8989 24.659 17.7749 24.621 17.6456 24.5793C16.6326 24.2519 15.7201 23.9481 14.8147 23.5449C14.4328 23.3749 14.0812 23.2065 13.7488 23.037C13.498 22.9091 13.2571 22.7805 13.0284 22.6497C13.0231 22.6467 13.0183 22.6436 13.0129 22.6406C12.6247 22.4181 12.2606 22.185 11.9166 21.9434ZM21.5668 26.7418C21.6332 26.5852 21.7283 26.4152 21.8492 26.2348V26.6244L21.6064 26.7647L21.5418 26.8019C21.5493 26.7823 21.5583 26.762 21.5668 26.7418ZM30.3967 24.8526C30.3866 24.8422 30.3769 24.8317 30.3668 24.8212C30.3421 24.796 30.3186 24.7707 30.2938 24.7457C30.173 24.6239 30.0497 24.5033 29.924 24.3844C29.9154 24.3762 29.9063 24.3686 29.8977 24.3604C29.7807 24.2503 29.6619 24.1413 29.5415 24.0344C29.4951 23.9932 29.4475 23.9536 29.4005 23.9128C29.3171 23.8403 29.2336 23.7675 29.1488 23.6969C29.1112 23.6655 29.0732 23.6353 29.0354 23.6045C29.0293 23.5995 29.0232 23.5947 29.0172 23.5897C29.0056 23.5802 28.9938 23.5711 28.9822 23.5617C28.9526 23.5376 28.923 23.5131 28.8932 23.4894C28.845 23.4509 28.7972 23.412 28.7488 23.3743C28.69 23.3281 28.6307 23.2841 28.5715 23.2393C28.4961 23.182 28.4208 23.1246 28.3451 23.0695C28.2843 23.025 28.2236 22.9828 28.1628 22.9398C28.1601 22.938 28.1575 22.936 28.1548 22.9341C28.0834 22.8837 28.0121 22.8334 27.9407 22.7851C27.8793 22.7435 27.8183 22.7039 27.7571 22.664C27.7416 22.6538 27.7261 22.6433 27.7106 22.6333C27.7049 22.6295 27.6991 22.6256 27.6934 22.6219C27.6735 22.609 27.6533 22.5949 27.6335 22.5823V22.5434C27.6533 22.512 27.6756 22.4802 27.6963 22.4486C27.702 22.4397 27.7081 22.4308 27.714 22.4219C27.8265 22.2511 27.9468 22.0795 28.0807 21.9068C28.25 21.6883 28.4361 21.4685 28.6382 21.2489C28.6773 21.2687 28.7166 21.2889 28.756 21.3095C28.8045 21.3354 28.853 21.3606 28.9021 21.3879C28.9624 21.421 29.0232 21.4565 29.0842 21.4919C29.1328 21.5201 29.1809 21.5475 29.2298 21.577C29.2791 21.6066 29.3286 21.6385 29.3782 21.6694C29.3934 21.6788 29.4086 21.6881 29.4237 21.6977C29.4696 21.7266 29.5153 21.7547 29.5613 21.7846C29.6355 21.8328 29.7097 21.8836 29.7841 21.9343C29.8214 21.9596 29.8585 21.9837 29.8958 22.0098C30.0069 22.087 30.1179 22.1668 30.2289 22.2488C30.239 22.2563 30.249 22.2643 30.2592 22.272C30.2772 22.2854 30.295 22.2995 30.3131 22.313C30.3966 22.3758 30.48 22.439 30.5632 22.5041C30.606 22.5377 30.6481 22.5724 30.6906 22.6063C30.7589 22.6613 30.8272 22.7159 30.895 22.7721C30.9407 22.8099 30.9858 22.8488 31.0313 22.8873C31.095 22.9414 31.1587 22.9952 31.2218 23.0504L31.2459 23.072C31.2843 23.1057 31.3223 23.1398 31.3604 23.1738C31.4211 23.2282 31.4818 23.2826 31.5415 23.3378C31.5879 23.3804 31.6334 23.4234 31.6791 23.4664C31.7376 23.5217 31.7957 23.577 31.8532 23.6328C31.8981 23.6766 31.9426 23.7204 31.9868 23.7645C32.0113 23.7888 32.035 23.8132 32.0591 23.8375C32.0908 23.8696 32.1229 23.9017 32.1545 23.934C32.1975 23.9782 32.2403 24.0225 32.2826 24.0671C32.337 24.1243 32.3904 24.1818 32.4433 24.2392C32.4842 24.2838 32.5249 24.3283 32.5648 24.3729C32.5935 24.4048 32.621 24.4369 32.6492 24.4688C32.6722 24.4951 32.6956 24.5215 32.7182 24.5477C32.7562 24.5917 32.7946 24.6358 32.8317 24.6799C32.8817 24.7393 32.9298 24.7987 32.9778 24.8581C33.0124 24.9009 33.0478 24.9439 33.0813 24.9867C33.1298 25.0486 33.1758 25.1102 33.2219 25.1719C33.2518 25.2117 33.2827 25.2518 33.3114 25.2914C33.3168 25.2987 33.3214 25.3059 33.3266 25.3132C32.674 25.3194 32.025 25.2804 31.3872 25.2021C31.1314 25.1707 30.8768 25.1344 30.6251 25.0898C30.5509 25.0103 30.4736 24.9316 30.3967 24.8526ZM35.5778 21.0571C35.7418 21.2068 35.9025 21.3591 36.0586 21.5135C36.2672 21.7197 36.4675 21.9293 36.6566 22.14C37.3525 22.9148 37.8977 23.7039 38.147 24.3934C37.6421 24.6082 37.0939 24.7857 36.5155 24.9275L35.0141 20.5653C35.0185 20.569 35.0232 20.5728 35.0276 20.5767C35.2064 20.7262 35.3827 20.8798 35.5553 21.037C35.5628 21.0437 35.5703 21.0503 35.5778 21.0571ZM40.1379 22.3307C40.1299 22.3168 40.1211 22.3025 40.1129 22.2886C40.0817 22.2345 40.05 22.1803 40.0166 22.1259C40.0007 22.1 39.9839 22.0742 39.9675 22.0485C39.9406 22.0055 39.9135 21.9625 39.8851 21.9195C39.866 21.8906 39.8462 21.8617 39.8266 21.8326C39.7993 21.7923 39.7718 21.7518 39.7435 21.7113C39.7224 21.6812 39.7008 21.6512 39.6792 21.621C39.6509 21.5816 39.6223 21.5422 39.5931 21.5028C39.5702 21.4719 39.5472 21.4412 39.5239 21.4103C39.4941 21.3713 39.4639 21.332 39.4334 21.2928C39.4095 21.2621 39.3854 21.2314 39.361 21.2007C39.3294 21.1613 39.2973 21.1219 39.265 21.0824C39.2404 21.0523 39.2158 21.022 39.1906 20.992C39.1563 20.951 39.1214 20.9099 39.0862 20.8691C39.062 20.8407 39.0381 20.8125 39.0135 20.7843C39.0108 20.7811 39.0081 20.7781 39.0056 20.7751C38.9685 20.7326 38.9305 20.6905 38.8927 20.6482C38.8716 20.6247 38.8509 20.6011 38.8297 20.5776C38.7682 20.5101 38.7059 20.4427 38.6426 20.3758C38.6354 20.3681 38.6279 20.3605 38.6206 20.3528C38.6096 20.341 38.5981 20.3294 38.5869 20.3178C38.5405 20.2693 38.4939 20.2206 38.4467 20.1724C38.4203 20.1455 38.3933 20.1187 38.3666 20.0918C38.3268 20.0518 38.2868 20.0119 38.2465 19.9721C38.2169 19.9428 38.1867 19.9139 38.1568 19.885C38.1186 19.8479 38.0802 19.811 38.0415 19.7742C38.0103 19.7444 37.9787 19.715 37.9472 19.6856C37.9092 19.6499 37.8708 19.6144 37.8324 19.5791C37.8003 19.5498 37.7682 19.5206 37.7359 19.4915C37.6972 19.4565 37.6583 19.4217 37.6193 19.3871C37.5893 19.3605 37.5595 19.3341 37.5293 19.3077C37.5268 19.3056 37.5242 19.3034 37.5217 19.3011C37.5154 19.2958 37.5094 19.2902 37.5031 19.2849C37.4698 19.2558 37.4362 19.2271 37.4025 19.1984C37.3704 19.1709 37.3383 19.1432 37.3058 19.1159C37.2637 19.0804 37.2214 19.0455 37.1791 19.0105C37.149 18.9855 37.1188 18.9604 37.0885 18.9358C37.0403 18.8965 36.992 18.858 36.9437 18.8196C36.9189 18.7998 36.8941 18.7797 36.8693 18.76C36.797 18.7033 36.7246 18.6473 36.6521 18.5923C36.6315 18.5765 36.6108 18.5615 36.5899 18.5458C36.5373 18.5062 36.4845 18.4666 36.4316 18.428C36.4029 18.407 36.374 18.3865 36.3451 18.3658C36.3005 18.3335 36.2559 18.3014 36.2111 18.27C36.1805 18.2482 36.1498 18.2272 36.1189 18.2059C36.0763 18.1763 36.0336 18.1469 35.9912 18.1181C35.9596 18.0969 35.9282 18.076 35.8968 18.0552C35.8552 18.0277 35.8137 18.0004 35.7723 17.9736C35.7411 17.9533 35.7097 17.9333 35.6784 17.9135C35.6367 17.8869 35.5951 17.8611 35.5536 17.8354C35.5232 17.8167 35.4929 17.7979 35.4628 17.7797C35.4203 17.754 35.378 17.7291 35.3359 17.7044C35.3074 17.6877 35.2788 17.6707 35.2505 17.6545C35.2055 17.6286 35.1607 17.6038 35.1161 17.5792C35.0911 17.5653 35.066 17.551 35.041 17.5376C34.9868 17.5082 34.9333 17.4802 34.8799 17.4527C34.8655 17.4454 34.8507 17.4374 34.8362 17.4301C34.835 17.4293 34.8334 17.4285 34.8321 17.4277C35.0267 17.3642 35.2162 17.308 35.403 17.2552C35.755 17.1559 36.0927 17.0752 36.4131 17.0149C36.6293 16.9744 36.8366 16.9437 37.0368 16.9213C37.4587 17.1721 37.9304 17.4797 38.4138 17.8282C38.424 17.8356 38.4342 17.8425 38.4445 17.85C38.949 18.2154 39.4637 18.6243 39.9436 19.0567C40.2619 19.3436 40.5639 19.6408 40.8378 19.943L41.4243 20.9706C41.33 21.6523 40.9883 22.3109 40.4214 22.9011C40.4089 22.8714 40.3946 22.8413 40.3814 22.8115C40.3696 22.7851 40.3584 22.759 40.3461 22.7326C40.3252 22.688 40.3027 22.6431 40.2801 22.5981C40.269 22.576 40.2587 22.5542 40.2473 22.5319C40.2125 22.4652 40.1763 22.3981 40.1379 22.3307ZM37.6423 7.9035C37.8881 8.0187 38.1377 8.1381 38.391 8.2615C39.8114 8.9537 40.9564 9.7171 41.8634 10.4436L42.3344 11.291L43.4547 13.1554C43.1582 13.1832 42.8103 13.2453 42.4045 13.3531C41.6721 12.4593 39.7467 10.4038 36.3662 8.7263C36.1196 8.6041 35.8738 8.4849 35.6287 8.3691C35.3623 8.2432 35.1061 8.1235 34.8585 8.0091C35.4678 7.7656 36.0636 7.5767 36.6409 7.4423C36.9672 7.5901 37.2992 7.7424 37.6423 7.9035ZM31.6618 9.7146C31.7792 9.6367 31.8965 9.5605 32.0136 9.4859C32.0145 9.4856 32.0152 9.485 32.0161 9.4845C32.1138 9.4222 32.2116 9.3616 32.3094 9.3018C32.3825 9.2572 32.4555 9.2126 32.5284 9.1692C32.5466 9.1584 32.565 9.148 32.5832 9.1373C32.6396 9.1635 32.6968 9.1905 32.7543 9.2174C32.935 9.3023 33.1189 9.389 33.3102 9.48C33.3798 9.513 33.4474 9.5476 33.5164 9.5812C33.6864 9.6634 33.8568 9.7455 34.024 9.83C34.0741 9.8556 34.1208 9.8814 34.1704 9.9069C34.3058 9.9767 34.4398 10.0464 34.5704 10.1169C35.7172 10.7351 36.6809 11.378 37.4758 11.9839C37.8339 12.2568 38.1598 12.5221 38.4497 12.7736C38.6426 12.941 38.8183 13.1008 38.9817 13.2544C39.4132 13.6599 39.7458 14.0123 39.9781 14.2765C39.7617 14.3782 39.541 14.4847 39.3146 14.5992C39.3147 14.599 39.3144 14.5994 39.3146 14.5992C39.2466 14.6336 39.1765 14.6704 39.1078 14.7059C39.1043 14.7077 39.1009 14.7095 39.0973 14.7112C39.0852 14.7175 39.073 14.7237 39.0609 14.7302C39.0211 14.7507 38.9822 14.7703 38.9423 14.7913C38.9 14.8135 38.8575 14.8359 38.8151 14.8586C38.811 14.8607 38.807 14.8629 38.8029 14.865C38.7858 14.8741 38.7685 14.8836 38.7512 14.8929C38.7417 14.898 38.7319 14.9032 38.7223 14.9084C38.6971 14.9219 38.6718 14.9355 38.6467 14.9491C38.5942 14.9772 38.5423 15.0047 38.4897 15.0334C38.4873 15.0347 38.4852 15.0358 38.4829 15.037C38.4675 15.0454 38.4527 15.0531 38.4372 15.0614L37.9316 14.348L37.9001 14.3034L37.7277 14.0606L37.7267 14.0588L37.4929 13.7292L37.6519 14.0362L37.6526 14.0374L37.7609 14.2467L37.768 14.2602L37.8794 14.4752C37.8633 14.4593 37.8474 14.4435 37.8308 14.4271C37.815 14.4114 37.798 14.3949 37.7814 14.3787C37.752 14.3498 37.7222 14.3207 37.691 14.2906C37.6726 14.2727 37.6535 14.2547 37.6346 14.2365C37.6259 14.2283 37.6176 14.2203 37.6087 14.2119C37.5859 14.19 37.5623 14.1677 37.5384 14.1454C37.5183 14.1261 37.4976 14.1068 37.4767 14.0872C37.4678 14.0788 37.4592 14.0708 37.4501 14.0624C37.4248 14.0387 37.3982 14.0142 37.3718 13.99C37.3538 13.9734 37.3363 13.9571 37.3179 13.9404L37.3062 13.9297C37.2685 13.8954 37.2298 13.8605 37.1904 13.8251C37.1683 13.8051 37.1467 13.7857 37.124 13.7655C37.0787 13.7252 37.0318 13.6838 36.9843 13.6424C36.9661 13.6266 36.9488 13.6111 36.9305 13.595C36.7952 13.4776 36.6516 13.3559 36.4994 13.2303C36.483 13.2168 36.4655 13.2029 36.4488 13.1891C36.4102 13.1574 36.3715 13.1258 36.3319 13.0937C36.3107 13.0766 36.2893 13.0593 36.2679 13.042C36.242 13.0213 36.2152 13.0004 36.189 12.9795C36.1344 12.936 36.0793 12.8923 36.0228 12.8482C35.9926 12.8247 35.9619 12.8009 35.9314 12.7774C35.9296 12.776 35.9278 12.7747 35.9261 12.7733C35.8727 12.7321 35.8187 12.6905 35.7635 12.6488C35.7311 12.6241 35.6984 12.5995 35.6656 12.5749C35.6074 12.5312 35.5482 12.4873 35.4884 12.4432C35.4554 12.419 35.4228 12.3949 35.3893 12.3705C35.3263 12.3246 35.2619 12.2784 35.1971 12.232C35.1648 12.209 35.1331 12.1862 35.1002 12.163C35.033 12.1153 34.9638 12.0674 34.8944 12.0194C34.8883 12.0153 34.8824 12.0112 34.8765 12.0071C34.851 11.9894 34.8262 11.9719 34.8004 11.9542C34.5939 11.8128 34.379 11.6702 34.1553 11.527C34.1301 11.5109 34.1041 11.4947 34.0787 11.4786C33.9929 11.424 33.9062 11.3695 33.8179 11.3147C33.7804 11.2915 33.7419 11.2683 33.7041 11.2451C33.6259 11.1973 33.5473 11.1495 33.4672 11.1019C33.424 11.076 33.3803 11.0503 33.3366 11.0246C33.3096 11.0087 33.2831 10.9929 33.2559 10.977C33.2051 10.9472 33.1534 10.9176 33.1018 10.888C33.0558 10.8615 33.0096 10.8351 32.963 10.8087C32.8833 10.7636 32.8025 10.7185 32.7209 10.6733C32.674 10.6475 32.6273 10.6216 32.5798 10.5957C32.4942 10.5492 32.4071 10.5026 32.3195 10.4562C32.2751 10.4327 32.231 10.4089 32.1859 10.3854C32.0865 10.3335 31.9856 10.2819 31.8839 10.2304C31.8491 10.2129 31.815 10.195 31.7799 10.1776C31.6412 10.108 31.5007 10.0389 31.3578 9.9704C31.343 9.9633 31.3292 9.9569 31.3146 9.9499C31.4304 9.8696 31.5462 9.7913 31.6618 9.7146ZM25.0069 8.801L25.0037 8.7925L24.9987 8.7789L24.995 8.7689L24.9562 8.6644L24.9511 8.6505L24.9418 8.6253L24.5308 7.5162C24.5641 7.5251 24.5982 7.5344 24.6308 7.5431C25.0205 7.6477 25.365 7.7403 25.837 7.9064L25.3539 8.7523L25.3509 8.7577L25.3427 8.7721L25.1325 9.14L25.1172 9.0984L25.0069 8.801ZM23.0666 8.9834L23.0757 8.9989L23.3119 9.4074L22.7004 9.7606L22.9467 9.0176L22.9526 8.9999L22.9978 8.864L23.0397 8.9368L23.0666 8.9834ZM17.4072 7.3986C17.4171 7.4017 17.426 7.4067 17.4365 7.4079C18.7513 7.5624 20.122 7.9158 21.5176 8.4571C21.166 8.5454 20.8004 8.6535 20.4245 8.7802C18.977 8.1879 17.5903 7.8031 16.2851 7.63C16.2355 7.6236 16.1866 7.619 16.1372 7.6129C16.1051 7.609 16.0737 7.6066 16.0416 7.6031C16.0949 7.5924 16.1497 7.5845 16.2034 7.5744C16.288 7.5585 16.3732 7.5437 16.4585 7.5292C16.7705 7.4766 17.0861 7.4309 17.4072 7.3986ZM14.188 8.1433C14.4406 8.0489 14.702 7.962 14.9705 7.8832C14.9908 7.8835 15.0115 7.8855 15.0319 7.886C15.0725 7.8873 15.1143 7.8905 15.1551 7.8921C16.6194 7.9493 18.2086 8.3029 19.8906 8.9512C19.5195 9.0899 19.1356 9.2463 18.744 9.4188C18.7271 9.4117 18.7105 9.4054 18.6935 9.3983C18.5212 9.3253 18.3497 9.2552 18.1794 9.1882C18.1581 9.18 18.1369 9.1712 18.1159 9.163C17.938 9.0936 17.7616 9.0281 17.586 8.9653C17.5512 8.9528 17.5163 8.9405 17.4815 8.9282C17.307 8.8669 17.1336 8.8082 16.9618 8.7534C16.9398 8.7463 16.9181 8.7398 16.8961 8.7329C16.7336 8.6817 16.5725 8.6337 16.4128 8.5884C16.3889 8.5816 16.3649 8.5745 16.3411 8.5677C16.1743 8.5213 16.0095 8.4788 15.8462 8.4391C15.8122 8.4308 15.7785 8.4228 15.7446 8.4148C15.5815 8.3763 15.4199 8.3404 15.2606 8.3086C15.2411 8.3049 15.2222 8.3015 15.2028 8.2978C15.0536 8.2689 14.9066 8.243 14.761 8.2202C14.7348 8.2161 14.7084 8.2114 14.6822 8.2075C14.5901 8.1936 14.499 8.1813 14.4083 8.1699C14.3741 8.1656 14.3397 8.1608 14.3056 8.1566C14.2817 8.154 14.2583 8.152 14.2344 8.1493C14.2191 8.1477 14.2032 8.1449 14.188 8.1433ZM13.4514 8.4519C13.4839 8.4528 13.5181 8.4562 13.551 8.4576C13.5916 8.4592 13.6334 8.4624 13.6746 8.4646C13.777 8.4701 13.8774 8.473 13.9823 8.4821C13.9877 8.4826 13.993 8.4829 13.9982 8.4835C14.1866 8.5002 14.3791 8.5236 14.5753 8.5522C14.6406 8.5616 14.7084 8.5752 14.7746 8.5859C14.9098 8.608 15.0451 8.6301 15.1835 8.6576C15.2643 8.6737 15.3471 8.6935 15.4288 8.7113C15.5562 8.7389 15.6834 8.7666 15.8131 8.7987C15.9021 8.8207 15.9925 8.8458 16.0826 8.8699C16.2084 8.9033 16.334 8.9371 16.4617 8.9744C16.5561 9.0023 16.6519 9.0326 16.7475 9.0624C16.8737 9.1018 17 9.1418 17.1277 9.1849C17.2264 9.2181 17.3255 9.2533 17.4251 9.2886C17.5525 9.3339 17.6804 9.3805 17.8092 9.4294C17.9107 9.4679 18.0124 9.5075 18.1146 9.5482C18.1758 9.5724 18.2375 9.5985 18.2991 9.6236C18.0566 9.7403 17.8165 9.8677 17.5782 10.0006C17.4986 10.045 17.419 10.0887 17.34 10.1349C17.2388 10.1938 17.1384 10.255 17.0383 10.3169C16.8562 10.4291 16.6751 10.5445 16.4967 10.6658C16.4769 10.6578 16.4569 10.6512 16.4371 10.6434C16.4359 10.6428 16.4344 10.6423 16.4332 10.6418C16.3895 10.6245 16.3458 10.6068 16.3021 10.5898C16.2455 10.5681 16.189 10.5469 16.1324 10.5256C16.0578 10.4978 15.9833 10.47 15.9085 10.4436C15.8998 10.4403 15.8908 10.437 15.8819 10.4337C15.7017 10.3701 15.5212 10.3114 15.3408 10.2553C15.3064 10.2448 15.2722 10.2338 15.2377 10.2234C15.0652 10.1711 14.8927 10.1228 14.7207 10.0778C14.6824 10.0678 14.6444 10.0582 14.606 10.0486C14.4326 10.0047 14.2594 9.9637 14.0872 9.9273C14.0612 9.9217 14.0353 9.9171 14.0093 9.9117C13.8476 9.8786 13.6869 9.8488 13.527 9.8224C13.4987 9.8177 13.4703 9.8124 13.442 9.8079C13.2737 9.7812 13.1069 9.759 12.941 9.7399C12.9028 9.7355 12.8646 9.7312 12.8265 9.7271C12.6627 9.71 12.5002 9.6961 12.3396 9.6864C12.3068 9.6845 12.2745 9.6832 12.242 9.6816C12.0749 9.673 11.9091 9.6673 11.7463 9.6673C11.7441 9.6673 11.742 9.6672 11.74 9.6672C11.6845 9.6672 11.6296 9.6677 11.5746 9.6686C11.8205 9.4433 12.0993 9.2299 12.4067 9.029C12.5246 8.952 12.6459 8.8765 12.7726 8.8033C12.8019 8.7866 12.8341 8.7702 12.8641 8.7534C13.0479 8.6506 13.2429 8.5493 13.4514 8.4519ZM10.6489 13.7217C10.571 13.5779 10.5012 13.4323 10.4463 13.2839C10.6536 13.3115 10.8601 13.3436 11.0658 13.3814C11.1074 13.3889 11.1488 13.3977 11.1902 13.4057C11.7286 13.5099 12.2565 13.6478 12.761 13.816C12.7109 13.8383 12.6607 13.8608 12.6104 13.884C12.5785 13.8986 12.5466 13.9138 12.5146 13.9288C12.4563 13.9563 12.3981 13.9839 12.3398 14.0125C12.3189 14.0226 12.2979 14.0331 12.277 14.0435C12.2067 14.0783 12.1366 14.1134 12.0665 14.1496C12.0608 14.1525 12.0551 14.1555 12.0494 14.1586C11.7914 14.2918 11.5347 14.4342 11.2808 14.584C11.046 14.3343 10.8489 14.0735 10.6932 13.803C10.6776 13.7761 10.6636 13.7488 10.6489 13.7217ZM20.7671 27.0028C20.6673 27.0062 20.5676 27.0107 20.4677 27.0126C20.3212 27.0155 20.1746 27.0151 20.0279 27.0151C19.9384 27.0153 19.8488 27.0167 19.7591 27.0157C19.603 27.0139 19.4469 27.0087 19.2908 27.0037C19.2102 27.0012 19.1292 27.0003 19.0485 26.9969C18.8855 26.99 18.7228 26.9796 18.5601 26.9693C18.4866 26.9646 18.4127 26.9616 18.3392 26.9563C18.1704 26.944 18.0029 26.9279 17.8352 26.912C17.7682 26.9056 17.7005 26.9008 17.6336 26.8938C17.4608 26.8758 17.2893 26.854 17.1179 26.8321C17.0569 26.8244 16.9953 26.8182 16.9345 26.81C16.7525 26.7852 16.5722 26.7565 16.3923 26.7272C16.3434 26.7193 16.2937 26.7129 16.245 26.7045C16.0172 26.666 15.7911 26.6237 15.5676 26.5781C13.7743 26.2111 12.1366 25.6183 10.8257 24.8635C10.813 24.8561 10.7993 24.8494 10.7866 24.842C10.7167 24.8014 10.6514 24.7587 10.5833 24.7172C10.4047 24.6085 10.2325 24.497 10.067 24.383C10.4341 23.6835 10.9763 22.9499 11.6683 22.2048C11.9814 22.4265 12.3125 22.6404 12.6611 22.8463C12.7248 22.8839 12.7865 22.9225 12.8513 22.9596C13.0227 23.0575 13.2015 23.1538 13.3843 23.25C13.7806 23.4582 14.2037 23.6635 14.6697 23.8708C15.5911 24.2812 16.5129 24.5882 17.5359 24.9188C18.1706 25.1239 18.7593 25.297 19.3142 25.4422C20.1564 25.6625 20.9176 25.8152 21.6341 25.9112C21.4741 26.1385 21.346 26.357 21.2555 26.5622C21.1892 26.7124 21.1422 26.8558 21.1181 26.9898C21.0015 26.9955 20.8843 26.9991 20.7671 27.0028ZM35.2663 5.8844C35.5102 5.9274 35.7377 5.9682 35.9491 6.0068C35.9537 6.0076 35.9585 6.0085 35.963 6.0092C36.0647 6.0278 36.1612 6.0456 36.2552 6.0631C36.4928 6.1072 36.7075 6.1479 36.896 6.1848C37.3176 6.2676 37.6166 6.3327 37.7902 6.3794L37.7964 6.381C38.2406 6.5013 38.6684 6.6374 39.0784 6.789C39.1542 6.817 39.2281 6.8468 39.3028 6.8761C38.4915 6.7992 37.6112 6.8663 36.6855 7.0702C35.3527 6.4683 34.1768 5.9843 33.1023 5.5966C33.1837 5.6041 33.265 5.6105 33.3462 5.6189C33.4472 5.6291 33.5482 5.64 33.6491 5.6516C33.8329 5.6724 34.0165 5.6956 34.1999 5.7204C34.2878 5.7324 34.3759 5.7434 34.4639 5.7563C34.7265 5.7945 34.9884 5.8355 35.249 5.8815C35.2547 5.8824 35.2606 5.8833 35.2663 5.8844ZM29.161 5.5408C29.1718 5.5393 29.1816 5.5385 29.1922 5.537C29.2964 5.5236 29.3975 5.5133 29.494 5.5071C29.4956 5.5071 29.4976 5.5067 29.4992 5.5067L29.5886 5.5024C29.8005 5.4937 30.013 5.4885 30.2255 5.4849C30.2899 5.4837 30.3544 5.4833 30.4189 5.4828C30.5796 5.4812 30.7403 5.4812 30.9011 5.4826C30.9582 5.483 31.0151 5.4833 31.072 5.4842C31.2816 5.4874 31.491 5.4926 31.7007 5.5008C32.7728 5.8351 33.972 6.2865 35.3238 6.8629C35.3905 6.8913 35.459 6.9212 35.5264 6.9503C35.7216 7.0345 35.9187 7.12 36.1205 7.2095C35.5657 7.3619 34.9968 7.5613 34.418 7.8072C32.41 6.893 31.0384 6.366 30.0125 6.0242C29.9454 6.0019 29.8797 5.9803 29.8155 5.9595C29.3882 5.8209 29.0223 5.7145 28.6948 5.6246C28.7264 5.6178 28.7597 5.6095 28.7908 5.6032C28.8095 5.5996 28.8277 5.5961 28.8461 5.5927C28.9542 5.5722 29.0596 5.5545 29.161 5.5408ZM27.5632 5.942C27.5673 5.9406 27.5716 5.939 27.5757 5.9375C27.6194 5.9225 27.6604 5.9109 27.7038 5.8967C27.7393 5.8851 27.7741 5.8742 27.8092 5.8631C27.8697 5.8439 27.9314 5.823 27.9905 5.8052L28.0729 5.8271C28.1314 5.8426 28.1912 5.8585 28.252 5.8746C28.3084 5.8895 28.3656 5.9049 28.4242 5.9208C29.519 6.2158 31.0256 6.6697 33.9817 8.0011C33.5143 8.2166 33.0415 8.4615 32.5655 8.7354C29.1342 7.1391 27.6167 6.6625 26.4951 6.3571C26.6915 6.2729 26.8842 6.1935 27.0712 6.1215C27.081 6.1175 27.0904 6.1141 27.1003 6.1104C27.2581 6.0499 27.4126 5.9935 27.5632 5.942ZM49.4347 24.1522C49.5671 24.786 49.6233 25.4309 49.5988 26.0837C49.5935 26.2213 49.5837 26.3586 49.5713 26.4956C49.2616 29.9721 46.7087 33.2568 42.3337 35.7842C37.757 38.4281 31.7451 39.9217 25.4053 39.99C25.2538 39.9916 25.1032 39.9925 24.9523 39.9925C18.79 39.9925 13.0479 38.6268 8.78338 36.1473C4.89138 33.8841 2.62718 30.9317 2.29388 27.7384C2.25478 27.365 2.24078 26.9886 2.25498 26.6093C2.26638 26.3094 2.29608 26.0109 2.34048 25.7139C2.34688 25.7303 2.35348 25.7467 2.36008 25.7633C2.51658 26.1508 2.71868 26.5775 2.99808 27.1109C3.01568 27.1479 3.03528 27.1862 3.05598 27.2255C3.31718 27.7187 3.80938 28.3935 4.05968 28.7087C4.12428 28.79 4.17318 28.848 4.19728 28.8721C4.23078 28.9158 5.10498 30.0353 5.99788 30.7273L5.99868 30.7259C7.40538 31.9841 9.86178 33.5446 11.3607 34.227C12.8286 34.8951 14.3054 35.4258 15.8409 35.84C16.2625 35.9539 16.6874 36.0604 17.119 36.1567C19.0362 36.5843 21.0614 36.8444 23.138 36.9299C23.9718 36.9641 25.0829 36.9773 26.3858 36.916L26.3781 37.0822L26.376 37.1315L26.2957 38.8778C26.2807 39.1656 26.4177 39.4393 26.6534 39.5922C26.7766 39.6719 26.9176 39.7119 27.0583 39.7119C27.2019 39.7119 27.3456 39.6703 27.4704 39.5873L27.4797 39.5811C27.7095 39.4282 27.8435 39.1579 27.8299 38.8739V38.8711L27.8297 38.8671L27.7457 37.043L27.7434 36.9898L27.7411 36.9424L27.7359 36.8284C30.7719 36.5795 34.5597 35.9087 38.2868 34.2883L38.3159 34.3822L38.3505 34.4946L38.8991 36.2721C38.9697 36.5005 39.1578 36.6776 39.3906 36.7338L39.4132 36.7394C39.4322 36.7438 39.452 36.7433 39.4712 36.7461C39.4875 36.7488 39.5039 36.7508 39.5203 36.752C39.5383 36.7535 39.5558 36.7584 39.5738 36.7584C39.5966 36.7584 39.6188 36.7531 39.6412 36.751C39.6552 36.7495 39.6691 36.7485 39.6828 36.7461C39.6969 36.744 39.7115 36.7445 39.7256 36.7413L39.8161 36.7097C39.9711 36.6505 40.1038 36.5356 40.1823 36.3765C40.2585 36.222 40.2731 36.0461 40.2237 35.8813L39.6011 33.807L39.5952 33.7877L39.587 33.7599L39.5658 33.6894C41.1494 32.9 42.7051 31.9288 44.1678 30.7285C45.1786 29.8993 46.0624 28.9916 46.8095 28.035L46.8655 28.1417L46.8663 28.143L46.867 28.1444L47.4548 29.2615C47.4701 29.2904 47.4862 29.3172 47.5028 29.3422C47.5167 29.3627 47.5313 29.3811 47.5461 29.3989C47.5494 29.4027 47.552 29.4071 47.5552 29.4107C47.6621 29.5345 47.7947 29.5978 47.9522 29.6458C47.9577 29.6474 47.9627 29.6494 47.9681 29.651C47.9685 29.6512 47.969 29.6512 47.9691 29.6512C47.977 29.6535 47.9838 29.6556 47.9937 29.6556C47.9945 29.6556 47.9957 29.6553 47.9966 29.6553C48.0177 29.6599 48.0385 29.6653 48.0617 29.6653C48.2162 29.6653 48.4116 29.5677 48.5475 29.4132C48.7188 29.2186 48.7546 28.9827 48.6442 28.7627L47.7301 27.1284C48.3156 26.2371 48.78 25.3227 49.1173 24.3948C49.2079 24.289 49.2962 24.1829 49.3824 24.076C49.3894 24.0676 49.3967 24.0592 49.4035 24.0507C49.406 24.0476 49.4086 24.0444 49.4113 24.0412C49.4195 24.0781 49.4268 24.1152 49.4347 24.1522ZM51.7132 16.1001C51.6754 15.893 51.6299 15.6867 51.5771 15.4816C51.5164 15.2468 51.4461 15.0135 51.3659 14.7814C51.2854 14.5493 51.1953 14.3184 51.0954 14.0892C50.9704 13.8025 50.83 13.5181 50.6744 13.2361C50.5186 12.954 50.3477 12.6745 50.1615 12.3974C49.9297 12.0529 49.6762 11.7156 49.4013 11.3852C49.2179 11.165 49.0251 10.9481 48.8228 10.7344C48.6702 10.5731 48.5106 10.4143 48.3472 10.257C48.1859 10.1014 48.021 9.9471 47.8492 9.7953C47.5039 9.4898 47.1374 9.1923 46.7505 8.9025C46.1056 8.4198 45.4036 7.9593 44.6459 7.5224C43.7371 6.9985 42.7686 6.5202 41.7446 6.0893C41.4033 5.9457 41.0558 5.8075 40.7024 5.6744C40.3488 5.5415 39.9893 5.4137 39.6239 5.2914C38.5278 4.9244 37.3793 4.6058 36.1822 4.3371C35.8062 4.2527 35.4271 4.1742 35.0457 4.1005C34.9199 4.0763 34.7925 4.0558 34.6662 4.0328C34.4093 3.9857 34.1526 3.9384 33.8934 3.8963C33.7399 3.8713 33.5847 3.8503 33.4306 3.8269C33.1964 3.7916 32.9623 3.7555 32.7263 3.7241C32.5597 3.7018 32.3916 3.6834 32.2241 3.6631C31.9982 3.6358 31.7727 3.608 31.5454 3.5843C31.371 3.5661 31.1949 3.5513 31.0195 3.5352C30.7972 3.5147 30.575 3.494 30.3512 3.4769C30.1714 3.4631 29.9903 3.4526 29.8096 3.441C29.5886 3.4269 29.3675 3.4128 29.1453 3.4021C28.9613 3.3932 28.7765 3.3869 28.5919 3.3803C28.371 3.3723 28.1498 3.3646 27.9279 3.36C27.7409 3.3561 27.5534 3.3543 27.3659 3.3527C27.23 3.3514 27.0949 3.3473 26.9586 3.3473C26.7939 3.3473 26.6291 3.3482 26.4639 3.35C25.5739 3.3595 24.6902 3.3955 23.8147 3.4555L23.8138 3.4269L23.5283 0L23.2657 3.4216L23.2638 3.4999C22.4738 3.5637 21.6922 3.6494 20.9192 3.7534C20.0565 3.8693 19.2045 4.0083 18.3674 4.1732L20.006 1.5189L17.4101 4.3724C16.071 4.6695 14.7737 5.03 13.5263 5.4498L14.1903 4.6777L13.159 5.5718C11.3047 6.2183 9.56778 6.9979 7.98828 7.9028C7.24558 8.3281 6.55208 8.7739 5.90668 9.2369C5.78468 9.3245 5.66458 9.4128 5.54608 9.5014C5.21928 9.7464 4.90528 9.9958 4.60598 10.2498C4.42578 10.4025 4.25078 10.5567 4.08078 10.7126C3.74058 11.0241 3.42068 11.3418 3.12118 11.6649C2.82178 11.988 2.54298 12.3166 2.28518 12.65C1.89838 13.1502 1.55868 13.6615 1.26788 14.1821C1.17088 14.3555 1.07938 14.53 0.993382 14.7055C0.390582 15.9336 0.0554824 17.2083 0.00628241 18.5055C-0.0108176 18.9591 0.00698241 19.4096 0.0597824 19.8565C0.0774824 20.0054 0.0990824 20.154 0.124382 20.3021C0.165082 20.539 0.215682 20.7749 0.276182 21.0095C0.427282 21.5961 0.640482 22.1751 0.915182 22.745C1.02508 22.9728 1.14478 23.1992 1.27438 23.4241C1.40388 23.6489 1.54318 23.8723 1.69228 24.0938C1.80788 24.2658 1.90628 24.456 1.99468 24.6367C2.05308 24.8692 2.11748 25.0913 2.19448 25.318C2.15798 25.5023 2.13588 25.7494 2.12088 26.0206C2.09998 26.2141 2.08408 26.408 2.07678 26.6027C2.06838 26.8246 2.06948 27.0458 2.07908 27.266C2.07818 27.2872 2.07768 27.309 2.07678 27.3298C2.07248 27.4438 2.07058 27.5578 2.07108 27.6713C2.07138 27.7848 2.07428 27.8979 2.07948 28.0108C2.07998 28.0215 2.08068 28.032 2.08128 28.0425C2.08608 28.1416 2.09288 28.2404 2.10118 28.339C2.16058 29.0293 2.30768 29.7086 2.54008 30.3726C2.57848 30.482 2.61908 30.5912 2.66208 30.6996C2.74788 30.9169 2.84298 31.1324 2.94718 31.346C3.02838 31.5124 3.11688 31.6774 3.20908 31.8414C3.29418 31.9932 3.38248 32.1441 3.47708 32.2936C3.54248 32.3975 3.61048 32.5008 3.68038 32.6033C3.89058 32.9114 4.12088 33.2145 4.37068 33.5121C4.45378 33.6113 4.53928 33.71 4.62688 33.8079C4.80198 34.0038 4.98598 34.1972 5.17848 34.3879C5.32508 34.5333 5.47818 34.6763 5.63458 34.8185C5.77198 34.9432 5.91218 35.0669 6.05708 35.1891C6.43028 35.5038 6.82878 35.8097 7.25148 36.1066C7.41768 36.2234 7.58788 36.3387 7.76188 36.4527C7.91168 36.5508 8.06428 36.6482 8.21948 36.7444C8.37468 36.8403 8.53268 36.9354 8.69378 37.0291C8.69618 37.0305 8.69868 37.0318 8.70098 37.033C8.97088 37.1898 9.24648 37.3422 9.52768 37.4899C9.62308 37.5402 9.72268 37.5869 9.81938 37.636C10.0101 37.733 10.1999 37.8306 10.3952 37.9234C10.5135 37.9796 10.6361 38.032 10.7561 38.0866C10.9347 38.1682 11.1119 38.2508 11.2942 38.3287C11.426 38.3853 11.562 38.4379 11.6958 38.4925C11.8711 38.5642 12.0453 38.6372 12.2238 38.7059C12.3651 38.7603 12.5103 38.8108 12.6536 38.8632C12.8291 38.9274 13.0034 38.9929 13.1818 39.0543C13.331 39.1057 13.4835 39.1531 13.6346 39.2024C13.8118 39.26 13.9879 39.319 14.1675 39.3738C14.3227 39.4212 14.481 39.465 14.6379 39.5103C14.8176 39.562 14.9965 39.615 15.1787 39.6639C15.3392 39.7072 15.5027 39.7468 15.665 39.7879C15.8477 39.8341 16.0295 39.881 16.2143 39.9243C16.3795 39.9632 16.5472 39.9986 16.7142 40.0351C16.8997 40.0756 17.0847 40.117 17.2722 40.1548C17.442 40.1889 17.6138 40.2199 17.7853 40.2517C17.9735 40.2868 18.1613 40.3225 18.3513 40.3546C18.5251 40.3843 18.7006 40.4105 18.8758 40.4376C19.0667 40.4672 19.2574 40.4972 19.4499 40.5238C19.6273 40.5484 19.8064 40.5701 19.985 40.5923C20.1785 40.6163 20.3717 40.6406 20.5667 40.6618C20.7471 40.6815 20.929 40.6982 21.1107 40.7155C21.3067 40.7341 21.5026 40.7526 21.6999 40.7683C21.8831 40.783 22.0674 40.7947 22.2517 40.8069C22.4503 40.8199 22.6486 40.8329 22.8483 40.8431C23.0338 40.8524 23.2204 40.8593 23.4068 40.8663C23.6074 40.8738 23.8081 40.8809 24.0097 40.8854C24.1975 40.8897 24.3863 40.8916 24.575 40.8932C24.701 40.8943 24.8258 40.8984 24.9523 40.8984C25.1029 40.8984 25.2535 40.8977 25.4047 40.8961C25.4055 40.8961 25.4063 40.8961 25.4072 40.8961C28.3185 40.8647 31.1615 40.5339 33.8299 39.93C34.4457 39.7907 35.0523 39.6369 35.6481 39.4687C36.1196 39.3358 36.5817 39.1906 37.0393 39.04C37.4819 38.8943 37.9174 38.7401 38.3459 38.5783C38.9524 38.3489 39.5437 38.1034 40.1188 37.8424C40.6046 37.6219 41.0822 37.3939 41.5433 37.1513C41.842 36.9943 42.1353 36.8325 42.4229 36.6664C42.8833 36.4004 43.3236 36.126 43.7434 35.8438C43.8832 35.7498 44.021 35.6549 44.1564 35.5592C44.5624 35.2718 44.9479 34.9771 45.3126 34.6755C45.4341 34.575 45.5534 34.4737 45.6703 34.3716C45.8219 34.2394 45.9705 34.1062 46.1141 33.9715C46.4263 33.6786 46.7196 33.3801 46.9936 33.0765C47.0916 32.9678 47.1876 32.8588 47.2807 32.7489C47.4536 32.5446 47.618 32.3381 47.7738 32.1295C47.9295 31.921 48.0765 31.7104 48.2146 31.4981C48.3529 31.2857 48.482 31.0714 48.6025 30.8556C49.3246 29.5597 49.7246 28.2026 49.777 26.8182C49.8136 26.2796 49.8011 25.7724 49.7695 25.3362C49.7565 25.0966 49.7296 24.859 49.6959 24.6221C49.6834 24.5295 49.6709 24.4419 49.6588 24.3659C49.6149 24.0915 49.5778 23.929 49.5778 23.929L49.5615 23.9017C49.5583 23.8885 49.5553 23.8755 49.5521 23.8623C49.568 23.8419 49.5826 23.8212 49.5983 23.8009C49.6491 23.7347 49.6991 23.6682 49.7481 23.6016C49.7836 23.5535 49.8188 23.5053 49.8534 23.4571C49.9012 23.3904 49.9481 23.3233 49.9943 23.2562C50.0279 23.2075 50.0612 23.1587 50.0939 23.1098C50.1387 23.0425 50.1825 22.9753 50.2257 22.9077C50.2571 22.8584 50.2885 22.8092 50.3192 22.7598C50.3611 22.6921 50.4016 22.6242 50.4419 22.5564C50.4715 22.5063 50.5012 22.4563 50.5297 22.4062C50.5686 22.3384 50.6059 22.2704 50.643 22.2023C50.6706 22.1516 50.6985 22.1007 50.7251 22.0499C50.7609 21.9819 50.795 21.9136 50.8291 21.8453C50.8548 21.7939 50.8806 21.7425 50.9052 21.691C50.9379 21.6226 50.9689 21.5541 51 21.4856C51.0235 21.4337 51.0474 21.3816 51.0701 21.3293C51.0997 21.261 51.1275 21.1923 51.1555 21.1235C51.1769 21.071 51.1989 21.0184 51.2194 20.9656C51.2462 20.8965 51.271 20.8273 51.2961 20.7579C51.3152 20.7053 51.3348 20.6527 51.353 20.5999C51.3769 20.5303 51.3989 20.4604 51.421 20.3906C51.4379 20.3376 51.4554 20.2846 51.4713 20.2315C51.4922 20.1614 51.5111 20.0909 51.5304 20.0206C51.5448 19.9676 51.5601 19.9146 51.5737 19.8615C51.5919 19.7901 51.6078 19.7184 51.6242 19.6469C51.6363 19.5944 51.6493 19.542 51.6604 19.4893C51.6757 19.4165 51.6888 19.3436 51.7023 19.2704C51.712 19.2189 51.7225 19.1673 51.7312 19.1156C51.7441 19.039 51.7542 18.9625 51.7651 18.8858C51.7719 18.8375 51.7801 18.7891 51.786 18.7406C51.7967 18.6541 51.8047 18.5672 51.8129 18.4805C51.8167 18.4416 51.8217 18.4029 51.8247 18.364C51.8351 18.2382 51.8427 18.1121 51.8475 17.9856C51.8715 17.3505 51.8265 16.7215 51.7132 16.1001Z" fill="#4BBDCF"/>
</svg>
