<svg width="24" height="24" viewBox="0 0 24 24" fill="none" xmlns="http://www.w3.org/2000/svg">
<path d="M12 -1.04907e-06C18.6276 -4.6967e-07 24 5.3724 24 12C24 18.6276 18.6276 24 12 24C5.3724 24 4.6967e-07 18.6276 1.04907e-06 12C1.62848e-06 5.3724 5.3724 -1.62848e-06 12 -1.04907e-06ZM12 2.4C9.45392 2.4 7.01212 3.41142 5.21177 5.21177C3.41143 7.01212 2.4 9.45392 2.4 12C2.4 14.5461 3.41143 16.9879 5.21177 18.7882C7.01212 20.5886 9.45392 21.6 12 21.6C14.5461 21.6 16.9879 20.5886 18.7882 18.7882C20.5886 16.9879 21.6 14.5461 21.6 12C21.6 9.45392 20.5886 7.01212 18.7882 5.21177C16.9879 3.41142 14.5461 2.4 12 2.4ZM13.2 8.4L10.8 8.4L10.8 6L13.2 6L13.2 8.4ZM13.2 18L10.8 18L10.8 10.8L13.2 10.8L13.2 18Z" fill="#12EBFE"/>
</svg>
