<svg width="18" height="24" viewBox="0 0 18 24" fill="none" xmlns="http://www.w3.org/2000/svg">
<path d="M15.6662 22.6808L15.1548 22.3844L14.8991 22.2391L12.4701 20.8444L10.9127 23.1689L10.75 23.413L10.4187 23.9011C10.2967 24.0812 10.0236 24.0289 9.97128 23.8197L9.3553 21.1989L9.24488 20.7224L8.6289 18.0725L8.54174 17.689L7.6875 14.0512L8.44876 13.8711L9.29718 14.0628L10.0991 13.8827L13.8415 13.0459L14.5156 15.934L14.6318 16.428L16.0323 22.4135C16.0788 22.6227 15.858 22.7912 15.6662 22.6808Z" fill="#12EBFE"/>
<path d="M12.707 12.8775L14.8978 22.245L15.1535 22.3903L12.9162 12.8252L12.707 12.8775Z" fill="#181818"/>
<path d="M8.51172 13.8597L10.749 23.419L10.9117 23.1749L8.72092 13.8074L8.51172 13.8597Z" fill="#181818"/>
<path opacity="0.78" d="M11.0347 14.0515L10.1863 17.6892L9.47152 20.7343L9.36111 21.205L9.2507 20.7343L8.53593 17.6892L7.6875 14.0515L9.2507 13.6854L9.36111 13.6621L9.47152 13.6854L11.0347 14.0515Z" fill="#00A8B5"/>
<path d="M10.8137 14.0513L9.95949 17.6891L9.86651 18.0784L9.24472 20.7341L8.51833 23.8315C8.47184 24.0407 8.19291 24.093 8.07087 23.9128L7.73964 23.4247L7.57693 23.1806L6.01954 20.8562L3.59049 22.2508L3.3348 22.3961L2.82342 22.6925C2.63746 22.8029 2.41083 22.6344 2.45732 22.4194L3.86361 16.4048L3.9624 15.969L4.64811 13.0286L8.43116 13.877L9.27959 14.0688L10.0815 13.8886L10.8137 14.0513Z" fill="#12EBFE"/>
<path d="M5.78633 12.8775L3.59553 22.245L3.33984 22.3903L5.57713 12.8252L5.78633 12.8775Z" fill="#181818"/>
<path d="M9.98784 13.8597L7.74474 23.419L7.58203 23.1749L9.77283 13.8074L9.98784 13.8597Z" fill="#181818"/>
<path opacity="0.67" d="M14.6334 16.428C13.3259 17.3403 11.7511 17.9273 10.0426 18.0667C9.98451 18.0725 9.92639 18.0725 9.87409 18.0783C9.67652 18.09 9.47894 18.0958 9.27555 18.0958C9.06053 18.0958 8.84552 18.09 8.63051 18.0725C8.60727 18.0725 8.58402 18.0667 8.56078 18.0667C6.81744 17.9389 5.21356 17.3345 3.88281 16.3931L3.9816 15.9573L4.66732 13.0168L8.45037 13.8653L9.29879 14.057L10.1007 13.8769L13.8431 13.0401L14.5172 15.9282L14.6334 16.428Z" fill="#00A8B5"/>
<path d="M17.9623 8.73995C17.9623 13.5632 14.0514 17.4799 9.22237 17.4799C7.13617 17.4799 5.2185 16.7477 3.71341 15.5274C3.14973 15.0683 2.64416 14.5453 2.21414 13.9642C1.95845 13.6155 1.72601 13.2552 1.5168 12.8717C1.2553 12.3777 1.03448 11.8605 0.865957 11.3143C0.616078 10.5007 0.482422 9.64068 0.482422 8.74576C0.488233 4.50944 3.49259 0.982082 7.48484 0.174334C8.02528 0.0639225 8.58896 0.00581114 9.15845 0C9.18169 0 9.19913 0 9.22237 0C9.64077 0 10.0534 0.0290557 10.4543 0.087167C11.1865 0.191767 11.8839 0.383535 12.5463 0.656658C15.725 1.96416 17.9623 5.09056 17.9623 8.73995Z" fill="#FFEB4A"/>
<path d="M9.22276 1.4585C5.20145 1.4585 1.94141 4.71854 1.94141 8.73985C1.94141 12.7612 5.20145 16.0212 9.22276 16.0212C13.2441 16.0212 16.5041 12.7612 16.5041 8.73985C16.5041 4.71854 13.2441 1.4585 9.22276 1.4585Z" fill="#FAAF18"/>
<path d="M9.36138 15.6783C5.59577 15.6783 2.54492 12.6275 2.54492 8.86187C2.54492 5.09626 5.59577 2.04541 9.36138 2.04541C13.127 2.04541 16.1778 5.09626 16.1778 8.86187C16.1778 12.6275 13.127 15.6783 9.36138 15.6783Z" fill="#D37D00"/>
<path d="M9.22168 15.446C5.51998 15.446 2.51562 12.4417 2.51562 8.73999C2.51562 5.03248 5.51998 2.03394 9.22168 2.03394C12.9234 2.03394 15.9277 5.03829 15.9277 8.73999C15.9335 12.4417 12.9292 15.446 9.22168 15.446Z" fill="#FFEB4A"/>
<g opacity="0.17">
<path opacity="0.17" d="M9.15973 0L1.52389 12.86C1.26239 12.3661 1.04157 11.8489 0.873047 11.3027L7.48612 0.174334C8.02656 0.0639225 8.59024 0.00581114 9.15973 0Z" fill="white"/>
</g>
<g opacity="0.14">
<path opacity="0.14" d="M12.551 0.65665L3.71802 15.5215C3.15434 15.0625 2.64877 14.5395 2.21875 13.9583L10.4531 0.0871582C11.1853 0.191759 11.8885 0.383526 12.551 0.65665Z" fill="white"/>
</g>
<path d="M10.7785 4.63271V12.8015H8.46794V6.41818H6.95088V4.63271H10.7785Z" fill="#D37D00"/>
</svg>
