<svg width="51" height="50" viewBox="0 0 51 50" fill="none" xmlns="http://www.w3.org/2000/svg">
<path d="M28.1169 0.119621C29.6542 0.271016 29.9291 2.11877 28.535 2.78217C27.4811 3.2837 26.4231 3.74775 25.3547 4.21634C18.6188 7.17076 11.4705 10.3061 2.32751 24.1589C1.85776 24.8706 0.78189 24.5904 0.82034 23.7393C0.900164 21.9722 1.17178 20.1864 1.64984 18.4074C4.84921 6.50122 16.2055 -1.05349 28.1169 0.119621Z" fill="white" fill-opacity="0.1"/>
<path d="M49.7482 31.2584C46.1893 44.5027 32.5369 52.3625 19.2547 48.8137C10.999 46.6079 4.82954 40.5138 2.19695 33.0367C1.86059 32.0814 2.02658 31.0244 2.62608 30.2073C11.8121 17.6861 29.9501 12.7295 45.7816 15.7147C47.9065 16.1154 49.6425 17.6796 50.0833 19.7907C50.8515 23.4703 50.7904 27.3802 49.7482 31.2584Z" fill="white" fill-opacity="0.1"/>
</svg>
